<?xml version="1.0" encoding="utf-8"?>
<svg xmlns="http://www.w3.org/2000/svg" xmlns:xlink="http://www.w3.org/1999/xlink" width="600" height="400" viewBox="0 0 2400 1600">
<defs>
  <clipPath id="clip360">
    <rect x="0" y="0" width="2400" height="1600"/>
  </clipPath>
</defs>
<path clip-path="url(#clip360)" d="M0 1600 L2400 1600 L2400 0 L0 0  Z" fill="#ffffff" fill-rule="evenodd" fill-opacity="1"/>
<defs>
  <clipPath id="clip361">
    <rect x="480" y="0" width="1681" height="1600"/>
  </clipPath>
</defs>
<path clip-path="url(#clip360)" d="M205.121 1423.18 L2352.76 1423.18 L2352.76 47.2441 L205.121 47.2441  Z" fill="#ffffff" fill-rule="evenodd" fill-opacity="1"/>
<defs>
  <clipPath id="clip362">
    <rect x="205" y="47" width="2149" height="1377"/>
  </clipPath>
</defs>
<polyline clip-path="url(#clip362)" style="stroke:#000000; stroke-linecap:round; stroke-linejoin:round; stroke-width:2; stroke-opacity:0.1; fill:none" points="482.527,1423.18 482.527,47.2441 "/>
<polyline clip-path="url(#clip362)" style="stroke:#000000; stroke-linecap:round; stroke-linejoin:round; stroke-width:2; stroke-opacity:0.1; fill:none" points="801.092,1423.18 801.092,47.2441 "/>
<polyline clip-path="url(#clip362)" style="stroke:#000000; stroke-linecap:round; stroke-linejoin:round; stroke-width:2; stroke-opacity:0.1; fill:none" points="1119.66,1423.18 1119.66,47.2441 "/>
<polyline clip-path="url(#clip362)" style="stroke:#000000; stroke-linecap:round; stroke-linejoin:round; stroke-width:2; stroke-opacity:0.1; fill:none" points="1438.22,1423.18 1438.22,47.2441 "/>
<polyline clip-path="url(#clip362)" style="stroke:#000000; stroke-linecap:round; stroke-linejoin:round; stroke-width:2; stroke-opacity:0.1; fill:none" points="1756.79,1423.18 1756.79,47.2441 "/>
<polyline clip-path="url(#clip362)" style="stroke:#000000; stroke-linecap:round; stroke-linejoin:round; stroke-width:2; stroke-opacity:0.1; fill:none" points="2075.35,1423.18 2075.35,47.2441 "/>
<polyline clip-path="url(#clip360)" style="stroke:#000000; stroke-linecap:round; stroke-linejoin:round; stroke-width:4; stroke-opacity:1; fill:none" points="205.121,1423.18 2352.76,1423.18 "/>
<polyline clip-path="url(#clip360)" style="stroke:#000000; stroke-linecap:round; stroke-linejoin:round; stroke-width:4; stroke-opacity:1; fill:none" points="482.527,1423.18 482.527,1404.28 "/>
<polyline clip-path="url(#clip360)" style="stroke:#000000; stroke-linecap:round; stroke-linejoin:round; stroke-width:4; stroke-opacity:1; fill:none" points="801.092,1423.18 801.092,1404.28 "/>
<polyline clip-path="url(#clip360)" style="stroke:#000000; stroke-linecap:round; stroke-linejoin:round; stroke-width:4; stroke-opacity:1; fill:none" points="1119.66,1423.18 1119.66,1404.28 "/>
<polyline clip-path="url(#clip360)" style="stroke:#000000; stroke-linecap:round; stroke-linejoin:round; stroke-width:4; stroke-opacity:1; fill:none" points="1438.22,1423.18 1438.22,1404.28 "/>
<polyline clip-path="url(#clip360)" style="stroke:#000000; stroke-linecap:round; stroke-linejoin:round; stroke-width:4; stroke-opacity:1; fill:none" points="1756.79,1423.18 1756.79,1404.28 "/>
<polyline clip-path="url(#clip360)" style="stroke:#000000; stroke-linecap:round; stroke-linejoin:round; stroke-width:4; stroke-opacity:1; fill:none" points="2075.35,1423.18 2075.35,1404.28 "/>
<path clip-path="url(#clip360)" d="M456.289 1466.95 Q459.645 1467.66 461.52 1469.93 Q463.418 1472.2 463.418 1475.53 Q463.418 1480.65 459.9 1483.45 Q456.381 1486.25 449.9 1486.25 Q447.724 1486.25 445.409 1485.81 Q443.117 1485.39 440.664 1484.54 L440.664 1480.02 Q442.608 1481.16 444.923 1481.74 Q447.238 1482.32 449.761 1482.32 Q454.159 1482.32 456.451 1480.58 Q458.766 1478.84 458.766 1475.53 Q458.766 1472.48 456.613 1470.77 Q454.483 1469.03 450.664 1469.03 L446.636 1469.03 L446.636 1465.19 L450.849 1465.19 Q454.298 1465.19 456.127 1463.82 Q457.955 1462.43 457.955 1459.84 Q457.955 1457.18 456.057 1455.77 Q454.182 1454.33 450.664 1454.33 Q448.742 1454.33 446.543 1454.75 Q444.344 1455.16 441.705 1456.04 L441.705 1451.88 Q444.367 1451.14 446.682 1450.77 Q449.02 1450.39 451.08 1450.39 Q456.404 1450.39 459.506 1452.83 Q462.608 1455.23 462.608 1459.35 Q462.608 1462.22 460.965 1464.21 Q459.321 1466.18 456.289 1466.95 Z" fill="#000000" fill-rule="nonzero" fill-opacity="1" /><path clip-path="url(#clip360)" d="M472.33 1451.02 L490.687 1451.02 L490.687 1454.96 L476.613 1454.96 L476.613 1463.43 Q477.631 1463.08 478.65 1462.92 Q479.668 1462.73 480.687 1462.73 Q486.474 1462.73 489.853 1465.9 Q493.233 1469.08 493.233 1474.49 Q493.233 1480.07 489.761 1483.17 Q486.289 1486.25 479.969 1486.25 Q477.793 1486.25 475.525 1485.88 Q473.279 1485.51 470.872 1484.77 L470.872 1480.07 Q472.955 1481.2 475.178 1481.76 Q477.4 1482.32 479.877 1482.32 Q483.881 1482.32 486.219 1480.21 Q488.557 1478.1 488.557 1474.49 Q488.557 1470.88 486.219 1468.77 Q483.881 1466.67 479.877 1466.67 Q478.002 1466.67 476.127 1467.08 Q474.275 1467.5 472.33 1468.38 L472.33 1451.02 Z" fill="#000000" fill-rule="nonzero" fill-opacity="1" /><path clip-path="url(#clip360)" d="M512.446 1454.1 Q508.835 1454.1 507.006 1457.66 Q505.2 1461.2 505.2 1468.33 Q505.2 1475.44 507.006 1479.01 Q508.835 1482.55 512.446 1482.55 Q516.08 1482.55 517.886 1479.01 Q519.714 1475.44 519.714 1468.33 Q519.714 1461.2 517.886 1457.66 Q516.08 1454.1 512.446 1454.1 M512.446 1450.39 Q518.256 1450.39 521.312 1455 Q524.39 1459.58 524.39 1468.33 Q524.39 1477.06 521.312 1481.67 Q518.256 1486.25 512.446 1486.25 Q506.636 1486.25 503.557 1481.67 Q500.501 1477.06 500.501 1468.33 Q500.501 1459.58 503.557 1455 Q506.636 1450.39 512.446 1450.39 Z" fill="#000000" fill-rule="nonzero" fill-opacity="1" /><path clip-path="url(#clip360)" d="M774.182 1455.09 L762.377 1473.54 L774.182 1473.54 L774.182 1455.09 M772.955 1451.02 L778.835 1451.02 L778.835 1473.54 L783.765 1473.54 L783.765 1477.43 L778.835 1477.43 L778.835 1485.58 L774.182 1485.58 L774.182 1477.43 L758.58 1477.43 L758.58 1472.92 L772.955 1451.02 Z" fill="#000000" fill-rule="nonzero" fill-opacity="1" /><path clip-path="url(#clip360)" d="M801.497 1454.1 Q797.886 1454.1 796.057 1457.66 Q794.251 1461.2 794.251 1468.33 Q794.251 1475.44 796.057 1479.01 Q797.886 1482.55 801.497 1482.55 Q805.131 1482.55 806.936 1479.01 Q808.765 1475.44 808.765 1468.33 Q808.765 1461.2 806.936 1457.66 Q805.131 1454.1 801.497 1454.1 M801.497 1450.39 Q807.307 1450.39 810.362 1455 Q813.441 1459.58 813.441 1468.33 Q813.441 1477.06 810.362 1481.67 Q807.307 1486.25 801.497 1486.25 Q795.687 1486.25 792.608 1481.67 Q789.552 1477.06 789.552 1468.33 Q789.552 1459.58 792.608 1455 Q795.687 1450.39 801.497 1450.39 Z" fill="#000000" fill-rule="nonzero" fill-opacity="1" /><path clip-path="url(#clip360)" d="M831.659 1454.1 Q828.047 1454.1 826.219 1457.66 Q824.413 1461.2 824.413 1468.33 Q824.413 1475.44 826.219 1479.01 Q828.047 1482.55 831.659 1482.55 Q835.293 1482.55 837.098 1479.01 Q838.927 1475.44 838.927 1468.33 Q838.927 1461.2 837.098 1457.66 Q835.293 1454.1 831.659 1454.1 M831.659 1450.39 Q837.469 1450.39 840.524 1455 Q843.603 1459.58 843.603 1468.33 Q843.603 1477.06 840.524 1481.67 Q837.469 1486.25 831.659 1486.25 Q825.848 1486.25 822.77 1481.67 Q819.714 1477.06 819.714 1468.33 Q819.714 1459.58 822.77 1455 Q825.848 1450.39 831.659 1450.39 Z" fill="#000000" fill-rule="nonzero" fill-opacity="1" /><path clip-path="url(#clip360)" d="M1092.75 1455.09 L1080.94 1473.54 L1092.75 1473.54 L1092.75 1455.09 M1091.52 1451.02 L1097.4 1451.02 L1097.4 1473.54 L1102.33 1473.54 L1102.33 1477.43 L1097.4 1477.43 L1097.4 1485.58 L1092.75 1485.58 L1092.75 1477.43 L1077.14 1477.43 L1077.14 1472.92 L1091.52 1451.02 Z" fill="#000000" fill-rule="nonzero" fill-opacity="1" /><path clip-path="url(#clip360)" d="M1110.11 1451.02 L1128.46 1451.02 L1128.46 1454.96 L1114.39 1454.96 L1114.39 1463.43 Q1115.41 1463.08 1116.43 1462.92 Q1117.45 1462.73 1118.46 1462.73 Q1124.25 1462.73 1127.63 1465.9 Q1131.01 1469.08 1131.01 1474.49 Q1131.01 1480.07 1127.54 1483.17 Q1124.07 1486.25 1117.75 1486.25 Q1115.57 1486.25 1113.3 1485.88 Q1111.06 1485.51 1108.65 1484.77 L1108.65 1480.07 Q1110.73 1481.2 1112.95 1481.76 Q1115.18 1482.32 1117.65 1482.32 Q1121.66 1482.32 1124 1480.21 Q1126.33 1478.1 1126.33 1474.49 Q1126.33 1470.88 1124 1468.77 Q1121.66 1466.67 1117.65 1466.67 Q1115.78 1466.67 1113.9 1467.08 Q1112.05 1467.5 1110.11 1468.38 L1110.11 1451.02 Z" fill="#000000" fill-rule="nonzero" fill-opacity="1" /><path clip-path="url(#clip360)" d="M1150.22 1454.1 Q1146.61 1454.1 1144.78 1457.66 Q1142.98 1461.2 1142.98 1468.33 Q1142.98 1475.44 1144.78 1479.01 Q1146.61 1482.55 1150.22 1482.55 Q1153.86 1482.55 1155.66 1479.01 Q1157.49 1475.44 1157.49 1468.33 Q1157.49 1461.2 1155.66 1457.66 Q1153.86 1454.1 1150.22 1454.1 M1150.22 1450.39 Q1156.03 1450.39 1159.09 1455 Q1162.17 1459.58 1162.17 1468.33 Q1162.17 1477.06 1159.09 1481.67 Q1156.03 1486.25 1150.22 1486.25 Q1144.41 1486.25 1141.33 1481.67 Q1138.28 1477.06 1138.28 1468.33 Q1138.28 1459.58 1141.33 1455 Q1144.41 1450.39 1150.22 1450.39 Z" fill="#000000" fill-rule="nonzero" fill-opacity="1" /><path clip-path="url(#clip360)" d="M1397.84 1451.02 L1416.2 1451.02 L1416.2 1454.96 L1402.12 1454.96 L1402.12 1463.43 Q1403.14 1463.08 1404.16 1462.92 Q1405.18 1462.73 1406.2 1462.73 Q1411.98 1462.73 1415.36 1465.9 Q1418.74 1469.08 1418.74 1474.49 Q1418.74 1480.07 1415.27 1483.17 Q1411.8 1486.25 1405.48 1486.25 Q1403.3 1486.25 1401.03 1485.88 Q1398.79 1485.51 1396.38 1484.77 L1396.38 1480.07 Q1398.46 1481.2 1400.69 1481.76 Q1402.91 1482.32 1405.39 1482.32 Q1409.39 1482.32 1411.73 1480.21 Q1414.07 1478.1 1414.07 1474.49 Q1414.07 1470.88 1411.73 1468.77 Q1409.39 1466.67 1405.39 1466.67 Q1403.51 1466.67 1401.64 1467.08 Q1399.78 1467.5 1397.84 1468.38 L1397.84 1451.02 Z" fill="#000000" fill-rule="nonzero" fill-opacity="1" /><path clip-path="url(#clip360)" d="M1437.95 1454.1 Q1434.34 1454.1 1432.51 1457.66 Q1430.71 1461.2 1430.71 1468.33 Q1430.71 1475.44 1432.51 1479.01 Q1434.34 1482.55 1437.95 1482.55 Q1441.59 1482.55 1443.39 1479.01 Q1445.22 1475.44 1445.22 1468.33 Q1445.22 1461.2 1443.39 1457.66 Q1441.59 1454.1 1437.95 1454.1 M1437.95 1450.39 Q1443.76 1450.39 1446.82 1455 Q1449.9 1459.58 1449.9 1468.33 Q1449.9 1477.06 1446.82 1481.67 Q1443.76 1486.25 1437.95 1486.25 Q1432.14 1486.25 1429.07 1481.67 Q1426.01 1477.06 1426.01 1468.33 Q1426.01 1459.58 1429.07 1455 Q1432.14 1450.39 1437.95 1450.39 Z" fill="#000000" fill-rule="nonzero" fill-opacity="1" /><path clip-path="url(#clip360)" d="M1468.12 1454.1 Q1464.51 1454.1 1462.68 1457.66 Q1460.87 1461.2 1460.87 1468.33 Q1460.87 1475.44 1462.68 1479.01 Q1464.51 1482.55 1468.12 1482.55 Q1471.75 1482.55 1473.56 1479.01 Q1475.38 1475.44 1475.38 1468.33 Q1475.38 1461.2 1473.56 1457.66 Q1471.75 1454.1 1468.12 1454.1 M1468.12 1450.39 Q1473.93 1450.39 1476.98 1455 Q1480.06 1459.58 1480.06 1468.33 Q1480.06 1477.06 1476.98 1481.67 Q1473.93 1486.25 1468.12 1486.25 Q1462.31 1486.25 1459.23 1481.67 Q1456.17 1477.06 1456.17 1468.33 Q1456.17 1459.58 1459.23 1455 Q1462.31 1450.39 1468.12 1450.39 Z" fill="#000000" fill-rule="nonzero" fill-opacity="1" /><path clip-path="url(#clip360)" d="M1716.4 1451.02 L1734.76 1451.02 L1734.76 1454.96 L1720.69 1454.96 L1720.69 1463.43 Q1721.7 1463.08 1722.72 1462.92 Q1723.74 1462.73 1724.76 1462.73 Q1730.55 1462.73 1733.93 1465.9 Q1737.31 1469.08 1737.31 1474.49 Q1737.31 1480.07 1733.83 1483.17 Q1730.36 1486.25 1724.04 1486.25 Q1721.87 1486.25 1719.6 1485.88 Q1717.35 1485.51 1714.95 1484.77 L1714.95 1480.07 Q1717.03 1481.2 1719.25 1481.76 Q1721.47 1482.32 1723.95 1482.32 Q1727.95 1482.32 1730.29 1480.21 Q1732.63 1478.1 1732.63 1474.49 Q1732.63 1470.88 1730.29 1468.77 Q1727.95 1466.67 1723.95 1466.67 Q1722.07 1466.67 1720.2 1467.08 Q1718.35 1467.5 1716.4 1468.38 L1716.4 1451.02 Z" fill="#000000" fill-rule="nonzero" fill-opacity="1" /><path clip-path="url(#clip360)" d="M1746.57 1451.02 L1764.92 1451.02 L1764.92 1454.96 L1750.85 1454.96 L1750.85 1463.43 Q1751.87 1463.08 1752.88 1462.92 Q1753.9 1462.73 1754.92 1462.73 Q1760.71 1462.73 1764.09 1465.9 Q1767.47 1469.08 1767.47 1474.49 Q1767.47 1480.07 1764 1483.17 Q1760.52 1486.25 1754.2 1486.25 Q1752.03 1486.25 1749.76 1485.88 Q1747.51 1485.51 1745.11 1484.77 L1745.11 1480.07 Q1747.19 1481.2 1749.41 1481.76 Q1751.63 1482.32 1754.11 1482.32 Q1758.12 1482.32 1760.45 1480.21 Q1762.79 1478.1 1762.79 1474.49 Q1762.79 1470.88 1760.45 1468.77 Q1758.12 1466.67 1754.11 1466.67 Q1752.24 1466.67 1750.36 1467.08 Q1748.51 1467.5 1746.57 1468.38 L1746.57 1451.02 Z" fill="#000000" fill-rule="nonzero" fill-opacity="1" /><path clip-path="url(#clip360)" d="M1786.68 1454.1 Q1783.07 1454.1 1781.24 1457.66 Q1779.44 1461.2 1779.44 1468.33 Q1779.44 1475.44 1781.24 1479.01 Q1783.07 1482.55 1786.68 1482.55 Q1790.32 1482.55 1792.12 1479.01 Q1793.95 1475.44 1793.95 1468.33 Q1793.95 1461.2 1792.12 1457.66 Q1790.32 1454.1 1786.68 1454.1 M1786.68 1450.39 Q1792.49 1450.39 1795.55 1455 Q1798.63 1459.58 1798.63 1468.33 Q1798.63 1477.06 1795.55 1481.67 Q1792.49 1486.25 1786.68 1486.25 Q1780.87 1486.25 1777.79 1481.67 Q1774.74 1477.06 1774.74 1468.33 Q1774.74 1459.58 1777.79 1455 Q1780.87 1450.39 1786.68 1450.39 Z" fill="#000000" fill-rule="nonzero" fill-opacity="1" /><path clip-path="url(#clip360)" d="M2045.67 1466.44 Q2042.53 1466.44 2040.67 1468.59 Q2038.85 1470.74 2038.85 1474.49 Q2038.85 1478.22 2040.67 1480.39 Q2042.53 1482.55 2045.67 1482.55 Q2048.82 1482.55 2050.65 1480.39 Q2052.5 1478.22 2052.5 1474.49 Q2052.5 1470.74 2050.65 1468.59 Q2048.82 1466.44 2045.67 1466.44 M2054.96 1451.78 L2054.96 1456.04 Q2053.2 1455.21 2051.39 1454.77 Q2049.61 1454.33 2047.85 1454.33 Q2043.22 1454.33 2040.77 1457.45 Q2038.34 1460.58 2037.99 1466.9 Q2039.35 1464.89 2041.41 1463.82 Q2043.48 1462.73 2045.95 1462.73 Q2051.16 1462.73 2054.17 1465.9 Q2057.2 1469.05 2057.2 1474.49 Q2057.2 1479.82 2054.05 1483.03 Q2050.91 1486.25 2045.67 1486.25 Q2039.68 1486.25 2036.51 1481.67 Q2033.34 1477.06 2033.34 1468.33 Q2033.34 1460.14 2037.23 1455.28 Q2041.11 1450.39 2047.66 1450.39 Q2049.42 1450.39 2051.21 1450.74 Q2053.01 1451.09 2054.96 1451.78 Z" fill="#000000" fill-rule="nonzero" fill-opacity="1" /><path clip-path="url(#clip360)" d="M2075.26 1454.1 Q2071.65 1454.1 2069.82 1457.66 Q2068.01 1461.2 2068.01 1468.33 Q2068.01 1475.44 2069.82 1479.01 Q2071.65 1482.55 2075.26 1482.55 Q2078.89 1482.55 2080.7 1479.01 Q2082.53 1475.44 2082.53 1468.33 Q2082.53 1461.2 2080.7 1457.66 Q2078.89 1454.1 2075.26 1454.1 M2075.26 1450.39 Q2081.07 1450.39 2084.12 1455 Q2087.2 1459.58 2087.2 1468.33 Q2087.2 1477.06 2084.12 1481.67 Q2081.07 1486.25 2075.26 1486.25 Q2069.45 1486.25 2066.37 1481.67 Q2063.31 1477.06 2063.31 1468.33 Q2063.31 1459.58 2066.37 1455 Q2069.45 1450.39 2075.26 1450.39 Z" fill="#000000" fill-rule="nonzero" fill-opacity="1" /><path clip-path="url(#clip360)" d="M2105.42 1454.1 Q2101.81 1454.1 2099.98 1457.66 Q2098.17 1461.2 2098.17 1468.33 Q2098.17 1475.44 2099.98 1479.01 Q2101.81 1482.55 2105.42 1482.55 Q2109.05 1482.55 2110.86 1479.01 Q2112.69 1475.44 2112.69 1468.33 Q2112.69 1461.2 2110.86 1457.66 Q2109.05 1454.1 2105.42 1454.1 M2105.42 1450.39 Q2111.23 1450.39 2114.28 1455 Q2117.36 1459.58 2117.36 1468.33 Q2117.36 1477.06 2114.28 1481.67 Q2111.23 1486.25 2105.42 1486.25 Q2099.61 1486.25 2096.53 1481.67 Q2093.47 1477.06 2093.47 1468.33 Q2093.47 1459.58 2096.53 1455 Q2099.61 1450.39 2105.42 1450.39 Z" fill="#000000" fill-rule="nonzero" fill-opacity="1" /><path clip-path="url(#clip360)" d="M1149.83 1525.81 L1149.83 1543.66 L1157.91 1543.66 Q1162.4 1543.66 1164.85 1541.34 Q1167.3 1539.02 1167.3 1534.72 Q1167.3 1530.45 1164.85 1528.13 Q1162.4 1525.81 1157.91 1525.81 L1149.83 1525.81 M1143.4 1520.52 L1157.91 1520.52 Q1165.9 1520.52 1169.97 1524.15 Q1174.08 1527.75 1174.08 1534.72 Q1174.08 1541.75 1169.97 1545.35 Q1165.9 1548.95 1157.91 1548.95 L1149.83 1548.95 L1149.83 1568.04 L1143.4 1568.04 L1143.4 1520.52 Z" fill="#000000" fill-rule="nonzero" fill-opacity="1" /><path clip-path="url(#clip360)" d="M1201.96 1537.87 Q1200.97 1537.3 1199.8 1537.04 Q1198.65 1536.76 1197.25 1536.76 Q1192.29 1536.76 1189.61 1540 Q1186.97 1543.22 1186.97 1549.27 L1186.97 1568.04 L1181.08 1568.04 L1181.08 1532.4 L1186.97 1532.4 L1186.97 1537.93 Q1188.82 1534.69 1191.78 1533.13 Q1194.74 1531.54 1198.97 1531.54 Q1199.57 1531.54 1200.31 1531.63 Q1201.04 1531.7 1201.93 1531.85 L1201.96 1537.87 Z" fill="#000000" fill-rule="nonzero" fill-opacity="1" /><path clip-path="url(#clip360)" d="M1220.49 1536.5 Q1215.77 1536.5 1213.04 1540.19 Q1210.3 1543.85 1210.3 1550.25 Q1210.3 1556.65 1213.01 1560.34 Q1215.74 1564 1220.49 1564 Q1225.16 1564 1227.9 1560.31 Q1230.64 1556.62 1230.64 1550.25 Q1230.64 1543.92 1227.9 1540.23 Q1225.16 1536.5 1220.49 1536.5 M1220.49 1531.54 Q1228.12 1531.54 1232.48 1536.5 Q1236.85 1541.47 1236.85 1550.25 Q1236.85 1559 1232.48 1564 Q1228.12 1568.97 1220.49 1568.97 Q1212.81 1568.97 1208.45 1564 Q1204.13 1559 1204.13 1550.25 Q1204.13 1541.47 1208.45 1536.5 Q1212.81 1531.54 1220.49 1531.54 Z" fill="#000000" fill-rule="nonzero" fill-opacity="1" /><path clip-path="url(#clip360)" d="M1264.6 1518.52 L1264.6 1523.39 L1259 1523.39 Q1255.85 1523.39 1254.61 1524.66 Q1253.4 1525.93 1253.4 1529.24 L1253.4 1532.4 L1263.04 1532.4 L1263.04 1536.95 L1253.4 1536.95 L1253.4 1568.04 L1247.51 1568.04 L1247.51 1536.95 L1241.91 1536.95 L1241.91 1532.4 L1247.51 1532.4 L1247.51 1529.91 Q1247.51 1523.96 1250.28 1521.26 Q1253.05 1518.52 1259.06 1518.52 L1264.6 1518.52 Z" fill="#000000" fill-rule="nonzero" fill-opacity="1" /><path clip-path="url(#clip360)" d="M1269.5 1532.4 L1275.36 1532.4 L1275.36 1568.04 L1269.5 1568.04 L1269.5 1532.4 M1269.5 1518.52 L1275.36 1518.52 L1275.36 1525.93 L1269.5 1525.93 L1269.5 1518.52 Z" fill="#000000" fill-rule="nonzero" fill-opacity="1" /><path clip-path="url(#clip360)" d="M1293.4 1522.27 L1293.4 1532.4 L1305.47 1532.4 L1305.47 1536.95 L1293.4 1536.95 L1293.4 1556.3 Q1293.4 1560.66 1294.58 1561.9 Q1295.79 1563.14 1299.45 1563.14 L1305.47 1563.14 L1305.47 1568.04 L1299.45 1568.04 Q1292.67 1568.04 1290.09 1565.53 Q1287.52 1562.98 1287.52 1556.3 L1287.52 1536.95 L1283.22 1536.95 L1283.22 1532.4 L1287.52 1532.4 L1287.52 1522.27 L1293.4 1522.27 Z" fill="#000000" fill-rule="nonzero" fill-opacity="1" /><path clip-path="url(#clip360)" d="M1333.35 1518.52 L1346.84 1518.52 L1346.84 1523.07 L1339.21 1523.07 L1339.21 1572.09 L1346.84 1572.09 L1346.84 1576.64 L1333.35 1576.64 L1333.35 1518.52 Z" fill="#000000" fill-rule="nonzero" fill-opacity="1" /><path clip-path="url(#clip360)" d="M1375.2 1577.62 L1372.02 1577.62 L1371.99 1568.04 Q1368.65 1567.98 1365.31 1567.28 Q1361.96 1566.55 1358.59 1565.12 L1358.59 1559.39 Q1361.84 1561.42 1365.15 1562.47 Q1368.49 1563.49 1372.02 1563.52 L1372.02 1549.01 Q1364.99 1547.86 1361.77 1545.13 Q1358.59 1542.39 1358.59 1537.62 Q1358.59 1532.43 1362.06 1529.44 Q1365.53 1526.44 1372.02 1526 L1372.02 1518.52 L1375.2 1518.52 L1375.2 1525.9 Q1378.16 1526.03 1380.93 1526.54 Q1383.7 1527.02 1386.34 1527.88 L1386.34 1533.45 Q1383.7 1532.11 1380.9 1531.38 Q1378.13 1530.65 1375.2 1530.52 L1375.2 1544.11 Q1382.43 1545.22 1385.83 1548.09 Q1389.24 1550.95 1389.24 1555.92 Q1389.24 1561.3 1385.61 1564.42 Q1382.02 1567.5 1375.2 1567.98 L1375.2 1577.62 M1372.02 1543.54 L1372.02 1530.49 Q1368.33 1530.9 1366.39 1532.59 Q1364.45 1534.27 1364.45 1537.07 Q1364.45 1539.81 1366.23 1541.34 Q1368.04 1542.87 1372.02 1543.54 M1375.2 1549.65 L1375.2 1563.43 Q1379.25 1562.89 1381.28 1561.14 Q1383.35 1559.39 1383.35 1556.52 Q1383.35 1553.72 1381.38 1552.07 Q1379.44 1550.41 1375.2 1549.65 Z" fill="#000000" fill-rule="nonzero" fill-opacity="1" /><path clip-path="url(#clip360)" d="M1414.48 1518.52 L1414.48 1576.64 L1400.98 1576.64 L1400.98 1572.09 L1408.59 1572.09 L1408.59 1523.07 L1400.98 1523.07 L1400.98 1518.52 L1414.48 1518.52 Z" fill="#000000" fill-rule="nonzero" fill-opacity="1" /><polyline clip-path="url(#clip362)" style="stroke:#000000; stroke-linecap:round; stroke-linejoin:round; stroke-width:2; stroke-opacity:0.1; fill:none" points="205.121,1423.18 2352.76,1423.18 "/>
<polyline clip-path="url(#clip362)" style="stroke:#000000; stroke-linecap:round; stroke-linejoin:round; stroke-width:2; stroke-opacity:0.1; fill:none" points="205.121,1136.53 2352.76,1136.53 "/>
<polyline clip-path="url(#clip362)" style="stroke:#000000; stroke-linecap:round; stroke-linejoin:round; stroke-width:2; stroke-opacity:0.1; fill:none" points="205.121,849.873 2352.76,849.873 "/>
<polyline clip-path="url(#clip362)" style="stroke:#000000; stroke-linecap:round; stroke-linejoin:round; stroke-width:2; stroke-opacity:0.1; fill:none" points="205.121,563.22 2352.76,563.22 "/>
<polyline clip-path="url(#clip362)" style="stroke:#000000; stroke-linecap:round; stroke-linejoin:round; stroke-width:2; stroke-opacity:0.1; fill:none" points="205.121,276.567 2352.76,276.567 "/>
<polyline clip-path="url(#clip360)" style="stroke:#000000; stroke-linecap:round; stroke-linejoin:round; stroke-width:4; stroke-opacity:1; fill:none" points="205.121,1423.18 205.121,47.2441 "/>
<polyline clip-path="url(#clip360)" style="stroke:#000000; stroke-linecap:round; stroke-linejoin:round; stroke-width:4; stroke-opacity:1; fill:none" points="205.121,1423.18 224.019,1423.18 "/>
<polyline clip-path="url(#clip360)" style="stroke:#000000; stroke-linecap:round; stroke-linejoin:round; stroke-width:4; stroke-opacity:1; fill:none" points="205.121,1136.53 224.019,1136.53 "/>
<polyline clip-path="url(#clip360)" style="stroke:#000000; stroke-linecap:round; stroke-linejoin:round; stroke-width:4; stroke-opacity:1; fill:none" points="205.121,849.873 224.019,849.873 "/>
<polyline clip-path="url(#clip360)" style="stroke:#000000; stroke-linecap:round; stroke-linejoin:round; stroke-width:4; stroke-opacity:1; fill:none" points="205.121,563.22 224.019,563.22 "/>
<polyline clip-path="url(#clip360)" style="stroke:#000000; stroke-linecap:round; stroke-linejoin:round; stroke-width:4; stroke-opacity:1; fill:none" points="205.121,276.567 224.019,276.567 "/>
<path clip-path="url(#clip360)" d="M157.177 1408.98 Q153.566 1408.98 151.737 1412.54 Q149.931 1416.08 149.931 1423.21 Q149.931 1430.32 151.737 1433.89 Q153.566 1437.43 157.177 1437.43 Q160.811 1437.43 162.616 1433.89 Q164.445 1430.32 164.445 1423.21 Q164.445 1416.08 162.616 1412.54 Q160.811 1408.98 157.177 1408.98 M157.177 1405.27 Q162.987 1405.27 166.042 1409.88 Q169.121 1414.46 169.121 1423.21 Q169.121 1431.94 166.042 1436.55 Q162.987 1441.13 157.177 1441.13 Q151.366 1441.13 148.288 1436.55 Q145.232 1431.94 145.232 1423.21 Q145.232 1414.46 148.288 1409.88 Q151.366 1405.27 157.177 1405.27 Z" fill="#000000" fill-rule="nonzero" fill-opacity="1" /><path clip-path="url(#clip360)" d="M117.825 1149.87 L125.464 1149.87 L125.464 1123.51 L117.154 1125.17 L117.154 1120.91 L125.418 1119.25 L130.093 1119.25 L130.093 1149.87 L137.732 1149.87 L137.732 1153.81 L117.825 1153.81 L117.825 1149.87 Z" fill="#000000" fill-rule="nonzero" fill-opacity="1" /><path clip-path="url(#clip360)" d="M157.177 1122.33 Q153.566 1122.33 151.737 1125.89 Q149.931 1129.43 149.931 1136.56 Q149.931 1143.67 151.737 1147.23 Q153.566 1150.77 157.177 1150.77 Q160.811 1150.77 162.616 1147.23 Q164.445 1143.67 164.445 1136.56 Q164.445 1129.43 162.616 1125.89 Q160.811 1122.33 157.177 1122.33 M157.177 1118.62 Q162.987 1118.62 166.042 1123.23 Q169.121 1127.81 169.121 1136.56 Q169.121 1145.29 166.042 1149.89 Q162.987 1154.48 157.177 1154.48 Q151.366 1154.48 148.288 1149.89 Q145.232 1145.29 145.232 1136.56 Q145.232 1127.81 148.288 1123.23 Q151.366 1118.62 157.177 1118.62 Z" fill="#000000" fill-rule="nonzero" fill-opacity="1" /><path clip-path="url(#clip360)" d="M121.043 863.218 L137.362 863.218 L137.362 867.153 L115.418 867.153 L115.418 863.218 Q118.08 860.464 122.663 855.834 Q127.269 851.181 128.45 849.839 Q130.695 847.315 131.575 845.579 Q132.478 843.82 132.478 842.13 Q132.478 839.376 130.533 837.64 Q128.612 835.903 125.51 835.903 Q123.311 835.903 120.857 836.667 Q118.427 837.431 115.649 838.982 L115.649 834.26 Q118.473 833.126 120.927 832.547 Q123.38 831.968 125.418 831.968 Q130.788 831.968 133.982 834.653 Q137.177 837.339 137.177 841.829 Q137.177 843.959 136.367 845.88 Q135.579 847.778 133.473 850.371 Q132.894 851.042 129.792 854.26 Q126.691 857.454 121.043 863.218 Z" fill="#000000" fill-rule="nonzero" fill-opacity="1" /><path clip-path="url(#clip360)" d="M157.177 835.672 Q153.566 835.672 151.737 839.237 Q149.931 842.778 149.931 849.908 Q149.931 857.014 151.737 860.579 Q153.566 864.121 157.177 864.121 Q160.811 864.121 162.616 860.579 Q164.445 857.014 164.445 849.908 Q164.445 842.778 162.616 839.237 Q160.811 835.672 157.177 835.672 M157.177 831.968 Q162.987 831.968 166.042 836.575 Q169.121 841.158 169.121 849.908 Q169.121 858.635 166.042 863.241 Q162.987 867.825 157.177 867.825 Q151.366 867.825 148.288 863.241 Q145.232 858.635 145.232 849.908 Q145.232 841.158 148.288 836.575 Q151.366 831.968 157.177 831.968 Z" fill="#000000" fill-rule="nonzero" fill-opacity="1" /><path clip-path="url(#clip360)" d="M131.181 561.866 Q134.538 562.583 136.413 564.852 Q138.311 567.12 138.311 570.454 Q138.311 575.569 134.792 578.37 Q131.274 581.171 124.793 581.171 Q122.617 581.171 120.302 580.731 Q118.01 580.315 115.556 579.458 L115.556 574.944 Q117.501 576.079 119.816 576.657 Q122.13 577.236 124.654 577.236 Q129.052 577.236 131.343 575.5 Q133.658 573.764 133.658 570.454 Q133.658 567.398 131.505 565.685 Q129.376 563.949 125.556 563.949 L121.529 563.949 L121.529 560.107 L125.742 560.107 Q129.191 560.107 131.019 558.741 Q132.848 557.352 132.848 554.759 Q132.848 552.097 130.95 550.685 Q129.075 549.25 125.556 549.25 Q123.635 549.25 121.436 549.667 Q119.237 550.083 116.598 550.963 L116.598 546.796 Q119.26 546.056 121.575 545.685 Q123.913 545.315 125.973 545.315 Q131.297 545.315 134.399 547.746 Q137.501 550.153 137.501 554.273 Q137.501 557.144 135.857 559.134 Q134.214 561.102 131.181 561.866 Z" fill="#000000" fill-rule="nonzero" fill-opacity="1" /><path clip-path="url(#clip360)" d="M157.177 549.019 Q153.566 549.019 151.737 552.583 Q149.931 556.125 149.931 563.255 Q149.931 570.361 151.737 573.926 Q153.566 577.468 157.177 577.468 Q160.811 577.468 162.616 573.926 Q164.445 570.361 164.445 563.255 Q164.445 556.125 162.616 552.583 Q160.811 549.019 157.177 549.019 M157.177 545.315 Q162.987 545.315 166.042 549.921 Q169.121 554.505 169.121 563.255 Q169.121 571.982 166.042 576.588 Q162.987 581.171 157.177 581.171 Q151.366 581.171 148.288 576.588 Q145.232 571.982 145.232 563.255 Q145.232 554.505 148.288 549.921 Q151.366 545.315 157.177 545.315 Z" fill="#000000" fill-rule="nonzero" fill-opacity="1" /><path clip-path="url(#clip360)" d="M129.862 263.361 L118.056 281.81 L129.862 281.81 L129.862 263.361 M128.635 259.287 L134.515 259.287 L134.515 281.81 L139.445 281.81 L139.445 285.699 L134.515 285.699 L134.515 293.847 L129.862 293.847 L129.862 285.699 L114.26 285.699 L114.26 281.185 L128.635 259.287 Z" fill="#000000" fill-rule="nonzero" fill-opacity="1" /><path clip-path="url(#clip360)" d="M157.177 262.365 Q153.566 262.365 151.737 265.93 Q149.931 269.472 149.931 276.601 Q149.931 283.708 151.737 287.273 Q153.566 290.814 157.177 290.814 Q160.811 290.814 162.616 287.273 Q164.445 283.708 164.445 276.601 Q164.445 269.472 162.616 265.93 Q160.811 262.365 157.177 262.365 M157.177 258.662 Q162.987 258.662 166.042 263.268 Q169.121 267.851 169.121 276.601 Q169.121 285.328 166.042 289.935 Q162.987 294.518 157.177 294.518 Q151.366 294.518 148.288 289.935 Q145.232 285.328 145.232 276.601 Q145.232 267.851 148.288 263.268 Q151.366 258.662 157.177 258.662 Z" fill="#000000" fill-rule="nonzero" fill-opacity="1" /><path clip-path="url(#clip360)" d="M16.4842 1073.5 L16.4842 1064.84 L56.238 1043.77 L16.4842 1043.77 L16.4842 1037.54 L64.0042 1037.54 L64.0042 1046.19 L24.2503 1067.26 L64.0042 1067.26 L64.0042 1073.5 L16.4842 1073.5 Z" fill="#000000" fill-rule="nonzero" fill-opacity="1" /><path clip-path="url(#clip360)" d="M49.9359 1025.6 L28.3562 1025.6 L28.3562 1019.74 L49.7131 1019.74 Q54.7739 1019.74 57.3202 1017.77 Q59.8346 1015.8 59.8346 1011.85 Q59.8346 1007.11 56.8109 1004.37 Q53.7872 1001.6 48.5673 1001.6 L28.3562 1001.6 L28.3562 995.744 L64.0042 995.744 L64.0042 1001.6 L58.5296 1001.6 Q61.7762 1003.73 63.3676 1006.57 Q64.9272 1009.37 64.9272 1013.09 Q64.9272 1019.23 61.1078 1022.42 Q57.2883 1025.6 49.9359 1025.6 M27.4968 1010.86 L27.4968 1010.86 Z" fill="#000000" fill-rule="nonzero" fill-opacity="1" /><path clip-path="url(#clip360)" d="M35.1993 955.927 Q31.2526 953.731 29.3747 950.675 Q27.4968 947.62 27.4968 943.482 Q27.4968 937.912 31.4117 934.888 Q35.2948 931.865 42.4881 931.865 L64.0042 931.865 L64.0042 937.753 L42.679 937.753 Q37.5546 937.753 35.072 939.567 Q32.5894 941.381 32.5894 945.105 Q32.5894 949.657 35.6131 952.298 Q38.6368 954.94 43.8567 954.94 L64.0042 954.94 L64.0042 960.829 L42.679 960.829 Q37.5228 960.829 35.072 962.643 Q32.5894 964.457 32.5894 968.245 Q32.5894 972.732 35.6449 975.374 Q38.6686 978.016 43.8567 978.016 L64.0042 978.016 L64.0042 983.904 L28.3562 983.904 L28.3562 978.016 L33.8944 978.016 Q30.616 976.011 29.0564 973.21 Q27.4968 970.409 27.4968 966.558 Q27.4968 962.675 29.4702 959.969 Q31.4436 957.232 35.1993 955.927 Z" fill="#000000" fill-rule="nonzero" fill-opacity="1" /><path clip-path="url(#clip360)" d="M46.212 894.593 Q39.7508 894.593 36.0905 897.267 Q32.3984 899.909 32.3984 904.556 Q32.3984 909.203 36.0905 911.876 Q39.7508 914.518 46.212 914.518 Q52.6732 914.518 56.3653 911.876 Q60.0256 909.203 60.0256 904.556 Q60.0256 899.909 56.3653 897.267 Q52.6732 894.593 46.212 894.593 M33.7671 914.518 Q30.5842 912.672 29.0564 909.871 Q27.4968 907.038 27.4968 903.123 Q27.4968 896.63 32.6531 892.588 Q37.8093 888.514 46.212 888.514 Q54.6147 888.514 59.771 892.588 Q64.9272 896.63 64.9272 903.123 Q64.9272 907.038 63.3994 909.871 Q61.8398 912.672 58.657 914.518 L64.0042 914.518 L64.0042 920.406 L14.479 920.406 L14.479 914.518 L33.7671 914.518 Z" fill="#000000" fill-rule="nonzero" fill-opacity="1" /><path clip-path="url(#clip360)" d="M44.7161 848.315 L47.5806 848.315 L47.5806 875.242 Q53.6281 874.86 56.8109 871.613 Q59.9619 868.335 59.9619 862.51 Q59.9619 859.136 59.1344 855.985 Q58.3069 852.802 56.6518 849.683 L62.1899 849.683 Q63.5267 852.834 64.227 856.144 Q64.9272 859.455 64.9272 862.86 Q64.9272 871.39 59.9619 876.387 Q54.9967 881.353 46.5303 881.353 Q37.7774 881.353 32.6531 876.642 Q27.4968 871.9 27.4968 863.879 Q27.4968 856.686 32.1438 852.516 Q36.7589 848.315 44.7161 848.315 M42.9973 854.171 Q38.1912 854.235 35.3266 856.877 Q32.4621 859.486 32.4621 863.815 Q32.4621 868.717 35.2312 871.677 Q38.0002 874.605 43.0292 875.051 L42.9973 854.171 Z" fill="#000000" fill-rule="nonzero" fill-opacity="1" /><path clip-path="url(#clip360)" d="M33.8307 818.046 Q33.2578 819.032 33.0032 820.21 Q32.7167 821.356 32.7167 822.756 Q32.7167 827.722 35.9632 830.395 Q39.1779 833.037 45.2253 833.037 L64.0042 833.037 L64.0042 838.925 L28.3562 838.925 L28.3562 833.037 L33.8944 833.037 Q30.6479 831.191 29.0883 828.231 Q27.4968 825.271 27.4968 821.038 Q27.4968 820.433 27.5923 819.701 Q27.656 818.969 27.8151 818.078 L33.8307 818.046 Z" fill="#000000" fill-rule="nonzero" fill-opacity="1" /><path clip-path="url(#clip360)" d="M32.4621 777.369 Q32.4621 782.079 36.1542 784.817 Q39.8145 787.554 46.212 787.554 Q52.6095 787.554 56.3017 784.849 Q59.9619 782.111 59.9619 777.369 Q59.9619 772.69 56.2698 769.953 Q52.5777 767.216 46.212 767.216 Q39.8781 767.216 36.186 769.953 Q32.4621 772.69 32.4621 777.369 M27.4968 777.369 Q27.4968 769.73 32.4621 765.37 Q37.4273 761.009 46.212 761.009 Q54.9649 761.009 59.9619 765.37 Q64.9272 769.73 64.9272 777.369 Q64.9272 785.04 59.9619 789.4 Q54.9649 793.729 46.212 793.729 Q37.4273 793.729 32.4621 789.4 Q27.4968 785.04 27.4968 777.369 Z" fill="#000000" fill-rule="nonzero" fill-opacity="1" /><path clip-path="url(#clip360)" d="M14.479 733.255 L19.3487 733.255 L19.3487 738.856 Q19.3487 742.007 20.6219 743.249 Q21.895 744.458 25.2052 744.458 L28.3562 744.458 L28.3562 734.814 L32.9077 734.814 L32.9077 744.458 L64.0042 744.458 L64.0042 750.346 L32.9077 750.346 L32.9077 755.948 L28.3562 755.948 L28.3562 750.346 L25.8736 750.346 Q19.9216 750.346 17.2162 747.577 Q14.479 744.808 14.479 738.793 L14.479 733.255 Z" fill="#000000" fill-rule="nonzero" fill-opacity="1" /><path clip-path="url(#clip360)" d="M32.4621 693.819 Q32.4621 698.53 36.1542 701.267 Q39.8145 704.004 46.212 704.004 Q52.6095 704.004 56.3017 701.299 Q59.9619 698.561 59.9619 693.819 Q59.9619 689.14 56.2698 686.403 Q52.5777 683.666 46.212 683.666 Q39.8781 683.666 36.186 686.403 Q32.4621 689.14 32.4621 693.819 M27.4968 693.819 Q27.4968 686.18 32.4621 681.82 Q37.4273 677.459 46.212 677.459 Q54.9649 677.459 59.9619 681.82 Q64.9272 686.18 64.9272 693.819 Q64.9272 701.49 59.9619 705.85 Q54.9649 710.179 46.212 710.179 Q37.4273 710.179 32.4621 705.85 Q27.4968 701.49 27.4968 693.819 Z" fill="#000000" fill-rule="nonzero" fill-opacity="1" /><path clip-path="url(#clip360)" d="M49.9359 668.356 L28.3562 668.356 L28.3562 662.5 L49.7131 662.5 Q54.7739 662.5 57.3202 660.526 Q59.8346 658.553 59.8346 654.606 Q59.8346 649.864 56.8109 647.127 Q53.7872 644.357 48.5673 644.357 L28.3562 644.357 L28.3562 638.501 L64.0042 638.501 L64.0042 644.357 L58.5296 644.357 Q61.7762 646.49 63.3676 649.323 Q64.9272 652.124 64.9272 655.848 Q64.9272 661.99 61.1078 665.173 Q57.2883 668.356 49.9359 668.356 M27.4968 653.62 L27.4968 653.62 Z" fill="#000000" fill-rule="nonzero" fill-opacity="1" /><path clip-path="url(#clip360)" d="M18.2347 620.645 L28.3562 620.645 L28.3562 608.582 L32.9077 608.582 L32.9077 620.645 L52.2594 620.645 Q56.6199 620.645 57.8613 619.468 Q59.1026 618.258 59.1026 614.598 L59.1026 608.582 L64.0042 608.582 L64.0042 614.598 Q64.0042 621.377 61.4897 623.955 Q58.9434 626.533 52.2594 626.533 L32.9077 626.533 L32.9077 630.83 L28.3562 630.83 L28.3562 626.533 L18.2347 626.533 L18.2347 620.645 Z" fill="#000000" fill-rule="nonzero" fill-opacity="1" /><path clip-path="url(#clip360)" d="M29.7248 575.226 L35.1993 575.226 Q33.8307 577.708 33.1623 580.223 Q32.4621 582.706 32.4621 585.252 Q32.4621 590.949 36.0905 594.1 Q39.6872 597.251 46.212 597.251 Q52.7369 597.251 56.3653 594.1 Q59.9619 590.949 59.9619 585.252 Q59.9619 582.706 59.2935 580.223 Q58.5933 577.708 57.2247 575.226 L62.6355 575.226 Q63.7814 577.677 64.3543 580.318 Q64.9272 582.928 64.9272 585.888 Q64.9272 593.941 59.8664 598.683 Q54.8057 603.426 46.212 603.426 Q37.491 603.426 32.4939 598.652 Q27.4968 593.846 27.4968 585.506 Q27.4968 582.801 28.0697 580.223 Q28.6108 577.645 29.7248 575.226 Z" fill="#000000" fill-rule="nonzero" fill-opacity="1" /><path clip-path="url(#clip360)" d="M32.4621 551.227 Q32.4621 555.938 36.1542 558.675 Q39.8145 561.412 46.212 561.412 Q52.6095 561.412 56.3017 558.707 Q59.9619 555.97 59.9619 551.227 Q59.9619 546.548 56.2698 543.811 Q52.5777 541.074 46.212 541.074 Q39.8781 541.074 36.186 543.811 Q32.4621 546.548 32.4621 551.227 M27.4968 551.227 Q27.4968 543.588 32.4621 539.228 Q37.4273 534.867 46.212 534.867 Q54.9649 534.867 59.9619 539.228 Q64.9272 543.588 64.9272 551.227 Q64.9272 558.898 59.9619 563.258 Q54.9649 567.587 46.212 567.587 Q37.4273 567.587 32.4621 563.258 Q27.4968 558.898 27.4968 551.227 Z" fill="#000000" fill-rule="nonzero" fill-opacity="1" /><path clip-path="url(#clip360)" d="M35.1993 497.405 Q31.2526 495.209 29.3747 492.153 Q27.4968 489.098 27.4968 484.96 Q27.4968 479.39 31.4117 476.366 Q35.2948 473.343 42.4881 473.343 L64.0042 473.343 L64.0042 479.231 L42.679 479.231 Q37.5546 479.231 35.072 481.045 Q32.5894 482.859 32.5894 486.583 Q32.5894 491.135 35.6131 493.777 Q38.6368 496.418 43.8567 496.418 L64.0042 496.418 L64.0042 502.307 L42.679 502.307 Q37.5228 502.307 35.072 504.121 Q32.5894 505.935 32.5894 509.723 Q32.5894 514.211 35.6449 516.852 Q38.6686 519.494 43.8567 519.494 L64.0042 519.494 L64.0042 525.382 L28.3562 525.382 L28.3562 519.494 L33.8944 519.494 Q30.616 517.489 29.0564 514.688 Q27.4968 511.887 27.4968 508.036 Q27.4968 504.153 29.4702 501.447 Q31.4436 498.71 35.1993 497.405 Z" fill="#000000" fill-rule="nonzero" fill-opacity="1" /><path clip-path="url(#clip360)" d="M44.7161 431.17 L47.5806 431.17 L47.5806 458.097 Q53.6281 457.715 56.8109 454.468 Q59.9619 451.19 59.9619 445.365 Q59.9619 441.992 59.1344 438.841 Q58.3069 435.658 56.6518 432.539 L62.1899 432.539 Q63.5267 435.69 64.227 439 Q64.9272 442.31 64.9272 445.716 Q64.9272 454.246 59.9619 459.243 Q54.9967 464.208 46.5303 464.208 Q37.7774 464.208 32.6531 459.497 Q27.4968 454.755 27.4968 446.734 Q27.4968 439.541 32.1438 435.371 Q36.7589 431.17 44.7161 431.17 M42.9973 437.026 Q38.1912 437.09 35.3266 439.732 Q32.4621 442.342 32.4621 446.67 Q32.4621 451.572 35.2312 454.532 Q38.0002 457.46 43.0292 457.906 L42.9973 437.026 Z" fill="#000000" fill-rule="nonzero" fill-opacity="1" /><path clip-path="url(#clip360)" d="M29.4065 398.832 L34.9447 398.832 Q33.6716 401.315 33.035 403.988 Q32.3984 406.662 32.3984 409.527 Q32.3984 413.887 33.7352 416.083 Q35.072 418.248 37.7456 418.248 Q39.7826 418.248 40.9603 416.688 Q42.1061 415.128 43.1565 410.418 L43.6021 408.413 Q44.9389 402.174 47.3897 399.564 Q49.8086 396.922 54.1691 396.922 Q59.1344 396.922 62.0308 400.869 Q64.9272 404.784 64.9272 411.659 Q64.9272 414.524 64.3543 417.643 Q63.8132 420.73 62.6992 424.168 L56.6518 424.168 Q58.3387 420.921 59.198 417.77 Q60.0256 414.619 60.0256 411.532 Q60.0256 407.394 58.6251 405.166 Q57.1929 402.938 54.6147 402.938 Q52.2276 402.938 50.9545 404.561 Q49.6813 406.153 48.5037 411.595 L48.0262 413.632 Q46.8804 419.075 44.5251 421.494 Q42.138 423.913 38.0002 423.913 Q32.9713 423.913 30.2341 420.348 Q27.4968 416.783 27.4968 410.227 Q27.4968 406.98 27.9743 404.116 Q28.4517 401.251 29.4065 398.832 Z" fill="#000000" fill-rule="nonzero" fill-opacity="1" /><path clip-path="url(#clip362)" d="M323.245 1394.51 L323.245 1423.18 L482.527 1423.18 L482.527 1394.51 L323.245 1394.51 L323.245 1394.51  Z" fill="#009af9" fill-rule="evenodd" fill-opacity="1"/>
<polyline clip-path="url(#clip362)" style="stroke:#000000; stroke-linecap:round; stroke-linejoin:round; stroke-width:4; stroke-opacity:1; fill:none" points="323.245,1394.51 323.245,1423.18 482.527,1423.18 482.527,1394.51 323.245,1394.51 "/>
<path clip-path="url(#clip362)" d="M482.527 1394.51 L482.527 1423.18 L641.809 1423.18 L641.809 1394.51 L482.527 1394.51 L482.527 1394.51  Z" fill="#009af9" fill-rule="evenodd" fill-opacity="1"/>
<polyline clip-path="url(#clip362)" style="stroke:#000000; stroke-linecap:round; stroke-linejoin:round; stroke-width:4; stroke-opacity:1; fill:none" points="482.527,1394.51 482.527,1423.18 641.809,1423.18 641.809,1394.51 482.527,1394.51 "/>
<path clip-path="url(#clip362)" d="M641.809 1365.85 L641.809 1423.18 L801.092 1423.18 L801.092 1365.85 L641.809 1365.85 L641.809 1365.85  Z" fill="#009af9" fill-rule="evenodd" fill-opacity="1"/>
<polyline clip-path="url(#clip362)" style="stroke:#000000; stroke-linecap:round; stroke-linejoin:round; stroke-width:4; stroke-opacity:1; fill:none" points="641.809,1365.85 641.809,1423.18 801.092,1423.18 801.092,1365.85 641.809,1365.85 "/>
<path clip-path="url(#clip362)" d="M801.092 1308.52 L801.092 1423.18 L960.374 1423.18 L960.374 1308.52 L801.092 1308.52 L801.092 1308.52  Z" fill="#009af9" fill-rule="evenodd" fill-opacity="1"/>
<polyline clip-path="url(#clip362)" style="stroke:#000000; stroke-linecap:round; stroke-linejoin:round; stroke-width:4; stroke-opacity:1; fill:none" points="801.092,1308.52 801.092,1423.18 960.374,1423.18 960.374,1308.52 801.092,1308.52 "/>
<path clip-path="url(#clip362)" d="M960.374 1308.52 L960.374 1423.18 L1119.66 1423.18 L1119.66 1308.52 L960.374 1308.52 L960.374 1308.52  Z" fill="#009af9" fill-rule="evenodd" fill-opacity="1"/>
<polyline clip-path="url(#clip362)" style="stroke:#000000; stroke-linecap:round; stroke-linejoin:round; stroke-width:4; stroke-opacity:1; fill:none" points="960.374,1308.52 960.374,1423.18 1119.66,1423.18 1119.66,1308.52 960.374,1308.52 "/>
<path clip-path="url(#clip362)" d="M1119.66 1365.85 L1119.66 1423.18 L1278.94 1423.18 L1278.94 1365.85 L1119.66 1365.85 L1119.66 1365.85  Z" fill="#009af9" fill-rule="evenodd" fill-opacity="1"/>
<polyline clip-path="url(#clip362)" style="stroke:#000000; stroke-linecap:round; stroke-linejoin:round; stroke-width:4; stroke-opacity:1; fill:none" points="1119.66,1365.85 1119.66,1423.18 1278.94,1423.18 1278.94,1365.85 1119.66,1365.85 "/>
<path clip-path="url(#clip362)" d="M1278.94 1193.86 L1278.94 1423.18 L1438.22 1423.18 L1438.22 1193.86 L1278.94 1193.86 L1278.94 1193.86  Z" fill="#009af9" fill-rule="evenodd" fill-opacity="1"/>
<polyline clip-path="url(#clip362)" style="stroke:#000000; stroke-linecap:round; stroke-linejoin:round; stroke-width:4; stroke-opacity:1; fill:none" points="1278.94,1193.86 1278.94,1423.18 1438.22,1423.18 1438.22,1193.86 1278.94,1193.86 "/>
<path clip-path="url(#clip362)" d="M1438.22 1365.85 L1438.22 1423.18 L1597.5 1423.18 L1597.5 1365.85 L1438.22 1365.85 L1438.22 1365.85  Z" fill="#009af9" fill-rule="evenodd" fill-opacity="1"/>
<polyline clip-path="url(#clip362)" style="stroke:#000000; stroke-linecap:round; stroke-linejoin:round; stroke-width:4; stroke-opacity:1; fill:none" points="1438.22,1365.85 1438.22,1423.18 1597.5,1423.18 1597.5,1365.85 1438.22,1365.85 "/>
<path clip-path="url(#clip362)" d="M1597.5 1107.86 L1597.5 1423.18 L1756.79 1423.18 L1756.79 1107.86 L1597.5 1107.86 L1597.5 1107.86  Z" fill="#009af9" fill-rule="evenodd" fill-opacity="1"/>
<polyline clip-path="url(#clip362)" style="stroke:#000000; stroke-linecap:round; stroke-linejoin:round; stroke-width:4; stroke-opacity:1; fill:none" points="1597.5,1107.86 1597.5,1423.18 1756.79,1423.18 1756.79,1107.86 1597.5,1107.86 "/>
<path clip-path="url(#clip362)" d="M1756.79 1050.53 L1756.79 1423.18 L1916.07 1423.18 L1916.07 1050.53 L1756.79 1050.53 L1756.79 1050.53  Z" fill="#009af9" fill-rule="evenodd" fill-opacity="1"/>
<polyline clip-path="url(#clip362)" style="stroke:#000000; stroke-linecap:round; stroke-linejoin:round; stroke-width:4; stroke-opacity:1; fill:none" points="1756.79,1050.53 1756.79,1423.18 1916.07,1423.18 1916.07,1050.53 1756.79,1050.53 "/>
<path clip-path="url(#clip362)" d="M1916.07 1308.52 L1916.07 1423.18 L2075.35 1423.18 L2075.35 1308.52 L1916.07 1308.52 L1916.07 1308.52  Z" fill="#009af9" fill-rule="evenodd" fill-opacity="1"/>
<polyline clip-path="url(#clip362)" style="stroke:#000000; stroke-linecap:round; stroke-linejoin:round; stroke-width:4; stroke-opacity:1; fill:none" points="1916.07,1308.52 1916.07,1423.18 2075.35,1423.18 2075.35,1308.52 1916.07,1308.52 "/>
<path clip-path="url(#clip362)" d="M2075.35 47.2441 L2075.35 1423.18 L2234.63 1423.18 L2234.63 47.2441 L2075.35 47.2441 L2075.35 47.2441  Z" fill="#009af9" fill-rule="evenodd" fill-opacity="1"/>
<polyline clip-path="url(#clip362)" style="stroke:#000000; stroke-linecap:round; stroke-linejoin:round; stroke-width:4; stroke-opacity:1; fill:none" points="2075.35,47.2441 2075.35,1423.18 2234.63,1423.18 2234.63,47.2441 2075.35,47.2441 "/>
<circle clip-path="url(#clip362)" style="fill:#009af9; stroke:none; fill-opacity:0" cx="402.886" cy="1394.51" r="2"/>
<circle clip-path="url(#clip362)" style="fill:#009af9; stroke:none; fill-opacity:0" cx="562.168" cy="1394.51" r="2"/>
<circle clip-path="url(#clip362)" style="fill:#009af9; stroke:none; fill-opacity:0" cx="721.45" cy="1365.85" r="2"/>
<circle clip-path="url(#clip362)" style="fill:#009af9; stroke:none; fill-opacity:0" cx="880.733" cy="1308.52" r="2"/>
<circle clip-path="url(#clip362)" style="fill:#009af9; stroke:none; fill-opacity:0" cx="1040.02" cy="1308.52" r="2"/>
<circle clip-path="url(#clip362)" style="fill:#009af9; stroke:none; fill-opacity:0" cx="1199.3" cy="1365.85" r="2"/>
<circle clip-path="url(#clip362)" style="fill:#009af9; stroke:none; fill-opacity:0" cx="1358.58" cy="1193.86" r="2"/>
<circle clip-path="url(#clip362)" style="fill:#009af9; stroke:none; fill-opacity:0" cx="1517.86" cy="1365.85" r="2"/>
<circle clip-path="url(#clip362)" style="fill:#009af9; stroke:none; fill-opacity:0" cx="1677.14" cy="1107.86" r="2"/>
<circle clip-path="url(#clip362)" style="fill:#009af9; stroke:none; fill-opacity:0" cx="1836.43" cy="1050.53" r="2"/>
<circle clip-path="url(#clip362)" style="fill:#009af9; stroke:none; fill-opacity:0" cx="1995.71" cy="1308.52" r="2"/>
<circle clip-path="url(#clip362)" style="fill:#009af9; stroke:none; fill-opacity:0" cx="2154.99" cy="47.2441" r="2"/>
<polyline clip-path="url(#clip362)" style="stroke:#e26f46; stroke-linecap:round; stroke-linejoin:round; stroke-width:12; stroke-opacity:1; fill:none" points="1801,2799.12 1801,-1328.69 "/>
<polyline clip-path="url(#clip362)" style="stroke:#3da44d; stroke-linecap:round; stroke-linejoin:round; stroke-width:12; stroke-opacity:1; fill:none" points="1466.58,2799.12 1466.58,-1328.69 "/>
<polyline clip-path="url(#clip362)" style="stroke:#c271d2; stroke-linecap:round; stroke-linejoin:round; stroke-width:12; stroke-opacity:1; fill:none" points="473.454,2799.12 473.454,-1328.69 "/>
<path clip-path="url(#clip360)" d="M276.709 300.469 L660.893 300.469 L660.893 93.1086 L276.709 93.1086  Z" fill="#ffffff" fill-rule="evenodd" fill-opacity="1"/>
<polyline clip-path="url(#clip360)" style="stroke:#000000; stroke-linecap:round; stroke-linejoin:round; stroke-width:4; stroke-opacity:1; fill:none" points="276.709,300.469 660.893,300.469 660.893,93.1086 276.709,93.1086 276.709,300.469 "/>
<polyline clip-path="url(#clip360)" style="stroke:#e26f46; stroke-linecap:round; stroke-linejoin:round; stroke-width:12; stroke-opacity:1; fill:none" points="300.571,144.949 443.747,144.949 "/>
<path clip-path="url(#clip360)" d="M475.225 140.377 L480.897 156.395 L488.998 136.303 L493.512 136.303 L483.026 162.229 L483.026 172.09 L478.767 172.09 L478.767 162.229 L471.962 142.877 Q470.943 139.96 468.744 139.96 L467.61 139.96 L467.61 136.303 L469.23 136.303 Q473.79 136.303 475.225 140.377 Z" fill="#000000" fill-rule="nonzero" fill-opacity="1" /><path clip-path="url(#clip360)" d="M515.017 140.701 L544.693 140.701 L544.693 144.59 L515.017 144.59 L515.017 140.701 M515.017 150.145 L544.693 150.145 L544.693 154.081 L515.017 154.081 L515.017 150.145 Z" fill="#000000" fill-rule="nonzero" fill-opacity="1" /><path clip-path="url(#clip360)" d="M570.665 158.293 L578.304 158.293 L578.304 131.928 L569.993 133.595 L569.993 129.335 L578.257 127.669 L582.933 127.669 L582.933 158.293 L590.572 158.293 L590.572 162.229 L570.665 162.229 L570.665 158.293 Z" fill="#000000" fill-rule="nonzero" fill-opacity="1" /><path clip-path="url(#clip360)" d="M600.016 156.349 L604.901 156.349 L604.901 162.229 L600.016 162.229 L600.016 156.349 Z" fill="#000000" fill-rule="nonzero" fill-opacity="1" /><path clip-path="url(#clip360)" d="M625.086 130.747 Q621.475 130.747 619.646 134.312 Q617.84 137.854 617.84 144.983 Q617.84 152.09 619.646 155.655 Q621.475 159.196 625.086 159.196 Q628.72 159.196 630.525 155.655 Q632.354 152.09 632.354 144.983 Q632.354 137.854 630.525 134.312 Q628.72 130.747 625.086 130.747 M625.086 127.044 Q630.896 127.044 633.951 131.65 Q637.03 136.233 637.03 144.983 Q637.03 153.71 633.951 158.317 Q630.896 162.9 625.086 162.9 Q619.276 162.9 616.197 158.317 Q613.141 153.71 613.141 144.983 Q613.141 136.233 616.197 131.65 Q619.276 127.044 625.086 127.044 Z" fill="#000000" fill-rule="nonzero" fill-opacity="1" /><polyline clip-path="url(#clip360)" style="stroke:#3da44d; stroke-linecap:round; stroke-linejoin:round; stroke-width:12; stroke-opacity:1; fill:none" points="300.571,196.789 443.747,196.789 "/>
<path clip-path="url(#clip360)" d="M475.225 192.217 L480.897 208.235 L488.998 188.143 L493.512 188.143 L483.026 214.069 L483.026 223.93 L478.767 223.93 L478.767 214.069 L471.962 194.717 Q470.943 191.8 468.744 191.8 L467.61 191.8 L467.61 188.143 L469.23 188.143 Q473.79 188.143 475.225 192.217 Z" fill="#000000" fill-rule="nonzero" fill-opacity="1" /><path clip-path="url(#clip360)" d="M515.017 192.541 L544.693 192.541 L544.693 196.43 L515.017 196.43 L515.017 192.541 M515.017 201.985 L544.693 201.985 L544.693 205.921 L515.017 205.921 L515.017 201.985 Z" fill="#000000" fill-rule="nonzero" fill-opacity="1" /><path clip-path="url(#clip360)" d="M579.854 182.587 Q576.243 182.587 574.415 186.152 Q572.609 189.694 572.609 196.823 Q572.609 203.93 574.415 207.495 Q576.243 211.036 579.854 211.036 Q583.489 211.036 585.294 207.495 Q587.123 203.93 587.123 196.823 Q587.123 189.694 585.294 186.152 Q583.489 182.587 579.854 182.587 M579.854 178.884 Q585.665 178.884 588.72 183.49 Q591.799 188.073 591.799 196.823 Q591.799 205.55 588.72 210.157 Q585.665 214.74 579.854 214.74 Q574.044 214.74 570.966 210.157 Q567.91 205.55 567.91 196.823 Q567.91 188.073 570.966 183.49 Q574.044 178.884 579.854 178.884 Z" fill="#000000" fill-rule="nonzero" fill-opacity="1" /><path clip-path="url(#clip360)" d="M600.016 208.189 L604.901 208.189 L604.901 214.069 L600.016 214.069 L600.016 208.189 Z" fill="#000000" fill-rule="nonzero" fill-opacity="1" /><path clip-path="url(#clip360)" d="M615.132 179.509 L633.488 179.509 L633.488 183.444 L619.414 183.444 L619.414 191.916 Q620.433 191.569 621.451 191.407 Q622.47 191.222 623.488 191.222 Q629.275 191.222 632.655 194.393 Q636.035 197.564 636.035 202.981 Q636.035 208.559 632.563 211.661 Q629.09 214.74 622.771 214.74 Q620.595 214.74 618.326 214.37 Q616.081 213.999 613.674 213.258 L613.674 208.559 Q615.757 209.694 617.979 210.249 Q620.201 210.805 622.678 210.805 Q626.683 210.805 629.021 208.698 Q631.359 206.592 631.359 202.981 Q631.359 199.37 629.021 197.263 Q626.683 195.157 622.678 195.157 Q620.803 195.157 618.928 195.573 Q617.076 195.99 615.132 196.87 L615.132 179.509 Z" fill="#000000" fill-rule="nonzero" fill-opacity="1" /><polyline clip-path="url(#clip360)" style="stroke:#c271d2; stroke-linecap:round; stroke-linejoin:round; stroke-width:12; stroke-opacity:1; fill:none" points="300.571,248.629 443.747,248.629 "/>
<path clip-path="url(#clip360)" d="M475.225 244.057 L480.897 260.075 L488.998 239.983 L493.512 239.983 L483.026 265.909 L483.026 275.77 L478.767 275.77 L478.767 265.909 L471.962 246.557 Q470.943 243.64 468.744 243.64 L467.61 243.64 L467.61 239.983 L469.23 239.983 Q473.79 239.983 475.225 244.057 Z" fill="#000000" fill-rule="nonzero" fill-opacity="1" /><path clip-path="url(#clip360)" d="M515.017 244.381 L544.693 244.381 L544.693 248.27 L515.017 248.27 L515.017 244.381 M515.017 253.825 L544.693 253.825 L544.693 257.761 L515.017 257.761 L515.017 253.825 Z" fill="#000000" fill-rule="nonzero" fill-opacity="1" /><path clip-path="url(#clip360)" d="M579.854 234.427 Q576.243 234.427 574.415 237.992 Q572.609 241.534 572.609 248.663 Q572.609 255.77 574.415 259.335 Q576.243 262.876 579.854 262.876 Q583.489 262.876 585.294 259.335 Q587.123 255.77 587.123 248.663 Q587.123 241.534 585.294 237.992 Q583.489 234.427 579.854 234.427 M579.854 230.724 Q585.665 230.724 588.72 235.33 Q591.799 239.913 591.799 248.663 Q591.799 257.39 588.72 261.997 Q585.665 266.58 579.854 266.58 Q574.044 266.58 570.966 261.997 Q567.91 257.39 567.91 248.663 Q567.91 239.913 570.966 235.33 Q574.044 230.724 579.854 230.724 Z" fill="#000000" fill-rule="nonzero" fill-opacity="1" /><path clip-path="url(#clip360)" d="M600.016 260.029 L604.901 260.029 L604.901 265.909 L600.016 265.909 L600.016 260.029 Z" fill="#000000" fill-rule="nonzero" fill-opacity="1" /><path clip-path="url(#clip360)" d="M625.086 234.427 Q621.475 234.427 619.646 237.992 Q617.84 241.534 617.84 248.663 Q617.84 255.77 619.646 259.335 Q621.475 262.876 625.086 262.876 Q628.72 262.876 630.525 259.335 Q632.354 255.77 632.354 248.663 Q632.354 241.534 630.525 237.992 Q628.72 234.427 625.086 234.427 M625.086 230.724 Q630.896 230.724 633.951 235.33 Q637.03 239.913 637.03 248.663 Q637.03 257.39 633.951 261.997 Q630.896 266.58 625.086 266.58 Q619.276 266.58 616.197 261.997 Q613.141 257.39 613.141 248.663 Q613.141 239.913 616.197 235.33 Q619.276 230.724 625.086 230.724 Z" fill="#000000" fill-rule="nonzero" fill-opacity="1" /></svg>
