<?xml version="1.0" encoding="utf-8"?>
<svg xmlns="http://www.w3.org/2000/svg" xmlns:xlink="http://www.w3.org/1999/xlink" width="600" height="400" viewBox="0 0 2400 1600">
<defs>
  <clipPath id="clip240">
    <rect x="0" y="0" width="2400" height="1600"/>
  </clipPath>
</defs>
<path clip-path="url(#clip240)" d="M0 1600 L2400 1600 L2400 0 L0 0  Z" fill="#ffffff" fill-rule="evenodd" fill-opacity="1"/>
<defs>
  <clipPath id="clip241">
    <rect x="480" y="0" width="1681" height="1600"/>
  </clipPath>
</defs>
<path clip-path="url(#clip240)" d="M184.191 1423.18 L2352.76 1423.18 L2352.76 47.2441 L184.191 47.2441  Z" fill="#ffffff" fill-rule="evenodd" fill-opacity="1"/>
<defs>
  <clipPath id="clip242">
    <rect x="184" y="47" width="2170" height="1377"/>
  </clipPath>
</defs>
<polyline clip-path="url(#clip242)" style="stroke:#000000; stroke-linecap:round; stroke-linejoin:round; stroke-width:2; stroke-opacity:0.1; fill:none" points="506.625,1423.18 506.625,47.2441 "/>
<polyline clip-path="url(#clip242)" style="stroke:#000000; stroke-linecap:round; stroke-linejoin:round; stroke-width:2; stroke-opacity:0.1; fill:none" points="912.944,1423.18 912.944,47.2441 "/>
<polyline clip-path="url(#clip242)" style="stroke:#000000; stroke-linecap:round; stroke-linejoin:round; stroke-width:2; stroke-opacity:0.1; fill:none" points="1319.26,1423.18 1319.26,47.2441 "/>
<polyline clip-path="url(#clip242)" style="stroke:#000000; stroke-linecap:round; stroke-linejoin:round; stroke-width:2; stroke-opacity:0.1; fill:none" points="1725.58,1423.18 1725.58,47.2441 "/>
<polyline clip-path="url(#clip242)" style="stroke:#000000; stroke-linecap:round; stroke-linejoin:round; stroke-width:2; stroke-opacity:0.1; fill:none" points="2131.9,1423.18 2131.9,47.2441 "/>
<polyline clip-path="url(#clip240)" style="stroke:#000000; stroke-linecap:round; stroke-linejoin:round; stroke-width:4; stroke-opacity:1; fill:none" points="184.191,1423.18 2352.76,1423.18 "/>
<polyline clip-path="url(#clip240)" style="stroke:#000000; stroke-linecap:round; stroke-linejoin:round; stroke-width:4; stroke-opacity:1; fill:none" points="506.625,1423.18 506.625,1404.28 "/>
<polyline clip-path="url(#clip240)" style="stroke:#000000; stroke-linecap:round; stroke-linejoin:round; stroke-width:4; stroke-opacity:1; fill:none" points="912.944,1423.18 912.944,1404.28 "/>
<polyline clip-path="url(#clip240)" style="stroke:#000000; stroke-linecap:round; stroke-linejoin:round; stroke-width:4; stroke-opacity:1; fill:none" points="1319.26,1423.18 1319.26,1404.28 "/>
<polyline clip-path="url(#clip240)" style="stroke:#000000; stroke-linecap:round; stroke-linejoin:round; stroke-width:4; stroke-opacity:1; fill:none" points="1725.58,1423.18 1725.58,1404.28 "/>
<polyline clip-path="url(#clip240)" style="stroke:#000000; stroke-linecap:round; stroke-linejoin:round; stroke-width:4; stroke-opacity:1; fill:none" points="2131.9,1423.18 2131.9,1404.28 "/>
<path clip-path="url(#clip240)" d="M466.232 1481.64 L473.871 1481.64 L473.871 1455.28 L465.561 1456.95 L465.561 1452.69 L473.824 1451.02 L478.5 1451.02 L478.5 1481.64 L486.139 1481.64 L486.139 1485.58 L466.232 1485.58 L466.232 1481.64 Z" fill="#000000" fill-rule="nonzero" fill-opacity="1" /><path clip-path="url(#clip240)" d="M506.162 1466.44 Q503.014 1466.44 501.162 1468.59 Q499.334 1470.74 499.334 1474.49 Q499.334 1478.22 501.162 1480.39 Q503.014 1482.55 506.162 1482.55 Q509.31 1482.55 511.139 1480.39 Q512.991 1478.22 512.991 1474.49 Q512.991 1470.74 511.139 1468.59 Q509.31 1466.44 506.162 1466.44 M515.445 1451.78 L515.445 1456.04 Q513.685 1455.21 511.88 1454.77 Q510.097 1454.33 508.338 1454.33 Q503.708 1454.33 501.255 1457.45 Q498.824 1460.58 498.477 1466.9 Q499.843 1464.89 501.903 1463.82 Q503.963 1462.73 506.44 1462.73 Q511.648 1462.73 514.657 1465.9 Q517.69 1469.05 517.69 1474.49 Q517.69 1479.82 514.542 1483.03 Q511.394 1486.25 506.162 1486.25 Q500.167 1486.25 496.996 1481.67 Q493.824 1477.06 493.824 1468.33 Q493.824 1460.14 497.713 1455.28 Q501.602 1450.39 508.153 1450.39 Q509.912 1450.39 511.695 1450.74 Q513.5 1451.09 515.445 1451.78 Z" fill="#000000" fill-rule="nonzero" fill-opacity="1" /><path clip-path="url(#clip240)" d="M535.745 1454.1 Q532.134 1454.1 530.306 1457.66 Q528.5 1461.2 528.5 1468.33 Q528.5 1475.44 530.306 1479.01 Q532.134 1482.55 535.745 1482.55 Q539.38 1482.55 541.185 1479.01 Q543.014 1475.44 543.014 1468.33 Q543.014 1461.2 541.185 1457.66 Q539.38 1454.1 535.745 1454.1 M535.745 1450.39 Q541.556 1450.39 544.611 1455 Q547.69 1459.58 547.69 1468.33 Q547.69 1477.06 544.611 1481.67 Q541.556 1486.25 535.745 1486.25 Q529.935 1486.25 526.857 1481.67 Q523.801 1477.06 523.801 1468.33 Q523.801 1459.58 526.857 1455 Q529.935 1450.39 535.745 1450.39 Z" fill="#000000" fill-rule="nonzero" fill-opacity="1" /><path clip-path="url(#clip240)" d="M872.551 1481.64 L880.19 1481.64 L880.19 1455.28 L871.88 1456.95 L871.88 1452.69 L880.143 1451.02 L884.819 1451.02 L884.819 1481.64 L892.458 1481.64 L892.458 1485.58 L872.551 1485.58 L872.551 1481.64 Z" fill="#000000" fill-rule="nonzero" fill-opacity="1" /><path clip-path="url(#clip240)" d="M911.902 1469.17 Q908.569 1469.17 906.648 1470.95 Q904.75 1472.73 904.75 1475.86 Q904.75 1478.98 906.648 1480.77 Q908.569 1482.55 911.902 1482.55 Q915.236 1482.55 917.157 1480.77 Q919.078 1478.96 919.078 1475.86 Q919.078 1472.73 917.157 1470.95 Q915.259 1469.17 911.902 1469.17 M907.227 1467.18 Q904.217 1466.44 902.528 1464.38 Q900.861 1462.32 900.861 1459.35 Q900.861 1455.21 903.801 1452.8 Q906.764 1450.39 911.902 1450.39 Q917.065 1450.39 920.004 1452.8 Q922.944 1455.21 922.944 1459.35 Q922.944 1462.32 921.254 1464.38 Q919.588 1466.44 916.602 1467.18 Q919.981 1467.96 921.856 1470.26 Q923.754 1472.55 923.754 1475.86 Q923.754 1480.88 920.676 1483.57 Q917.62 1486.25 911.902 1486.25 Q906.185 1486.25 903.106 1483.57 Q900.051 1480.88 900.051 1475.86 Q900.051 1472.55 901.949 1470.26 Q903.847 1467.96 907.227 1467.18 M905.514 1459.79 Q905.514 1462.48 907.18 1463.98 Q908.87 1465.49 911.902 1465.49 Q914.912 1465.49 916.602 1463.98 Q918.314 1462.48 918.314 1459.79 Q918.314 1457.11 916.602 1455.6 Q914.912 1454.1 911.902 1454.1 Q908.87 1454.1 907.18 1455.6 Q905.514 1457.11 905.514 1459.79 Z" fill="#000000" fill-rule="nonzero" fill-opacity="1" /><path clip-path="url(#clip240)" d="M942.064 1454.1 Q938.453 1454.1 936.625 1457.66 Q934.819 1461.2 934.819 1468.33 Q934.819 1475.44 936.625 1479.01 Q938.453 1482.55 942.064 1482.55 Q945.699 1482.55 947.504 1479.01 Q949.333 1475.44 949.333 1468.33 Q949.333 1461.2 947.504 1457.66 Q945.699 1454.1 942.064 1454.1 M942.064 1450.39 Q947.875 1450.39 950.93 1455 Q954.009 1459.58 954.009 1468.33 Q954.009 1477.06 950.93 1481.67 Q947.875 1486.25 942.064 1486.25 Q936.254 1486.25 933.176 1481.67 Q930.12 1477.06 930.12 1468.33 Q930.12 1459.58 933.176 1455 Q936.254 1450.39 942.064 1450.39 Z" fill="#000000" fill-rule="nonzero" fill-opacity="1" /><path clip-path="url(#clip240)" d="M1282.96 1481.64 L1299.27 1481.64 L1299.27 1485.58 L1277.33 1485.58 L1277.33 1481.64 Q1279.99 1478.89 1284.58 1474.26 Q1289.18 1469.61 1290.36 1468.27 Q1292.61 1465.74 1293.49 1464.01 Q1294.39 1462.25 1294.39 1460.56 Q1294.39 1457.8 1292.45 1456.07 Q1290.52 1454.33 1287.42 1454.33 Q1285.22 1454.33 1282.77 1455.09 Q1280.34 1455.86 1277.56 1457.41 L1277.56 1452.69 Q1280.39 1451.55 1282.84 1450.97 Q1285.29 1450.39 1287.33 1450.39 Q1292.7 1450.39 1295.9 1453.08 Q1299.09 1455.77 1299.09 1460.26 Q1299.09 1462.39 1298.28 1464.31 Q1297.49 1466.2 1295.39 1468.8 Q1294.81 1469.47 1291.71 1472.69 Q1288.6 1475.88 1282.96 1481.64 Z" fill="#000000" fill-rule="nonzero" fill-opacity="1" /><path clip-path="url(#clip240)" d="M1319.09 1454.1 Q1315.48 1454.1 1313.65 1457.66 Q1311.84 1461.2 1311.84 1468.33 Q1311.84 1475.44 1313.65 1479.01 Q1315.48 1482.55 1319.09 1482.55 Q1322.72 1482.55 1324.53 1479.01 Q1326.36 1475.44 1326.36 1468.33 Q1326.36 1461.2 1324.53 1457.66 Q1322.72 1454.1 1319.09 1454.1 M1319.09 1450.39 Q1324.9 1450.39 1327.96 1455 Q1331.03 1459.58 1331.03 1468.33 Q1331.03 1477.06 1327.96 1481.67 Q1324.9 1486.25 1319.09 1486.25 Q1313.28 1486.25 1310.2 1481.67 Q1307.15 1477.06 1307.15 1468.33 Q1307.15 1459.58 1310.2 1455 Q1313.28 1450.39 1319.09 1450.39 Z" fill="#000000" fill-rule="nonzero" fill-opacity="1" /><path clip-path="url(#clip240)" d="M1349.25 1454.1 Q1345.64 1454.1 1343.81 1457.66 Q1342.01 1461.2 1342.01 1468.33 Q1342.01 1475.44 1343.81 1479.01 Q1345.64 1482.55 1349.25 1482.55 Q1352.89 1482.55 1354.69 1479.01 Q1356.52 1475.44 1356.52 1468.33 Q1356.52 1461.2 1354.69 1457.66 Q1352.89 1454.1 1349.25 1454.1 M1349.25 1450.39 Q1355.06 1450.39 1358.12 1455 Q1361.2 1459.58 1361.2 1468.33 Q1361.2 1477.06 1358.12 1481.67 Q1355.06 1486.25 1349.25 1486.25 Q1343.44 1486.25 1340.36 1481.67 Q1337.31 1477.06 1337.31 1468.33 Q1337.31 1459.58 1340.36 1455 Q1343.44 1450.39 1349.25 1450.39 Z" fill="#000000" fill-rule="nonzero" fill-opacity="1" /><path clip-path="url(#clip240)" d="M1689.27 1481.64 L1705.59 1481.64 L1705.59 1485.58 L1683.65 1485.58 L1683.65 1481.64 Q1686.31 1478.89 1690.89 1474.26 Q1695.5 1469.61 1696.68 1468.27 Q1698.93 1465.74 1699.81 1464.01 Q1700.71 1462.25 1700.71 1460.56 Q1700.71 1457.8 1698.77 1456.07 Q1696.84 1454.33 1693.74 1454.33 Q1691.54 1454.33 1689.09 1455.09 Q1686.66 1455.86 1683.88 1457.41 L1683.88 1452.69 Q1686.71 1451.55 1689.16 1450.97 Q1691.61 1450.39 1693.65 1450.39 Q1699.02 1450.39 1702.21 1453.08 Q1705.41 1455.77 1705.41 1460.26 Q1705.41 1462.39 1704.6 1464.31 Q1703.81 1466.2 1701.7 1468.8 Q1701.13 1469.47 1698.02 1472.69 Q1694.92 1475.88 1689.27 1481.64 Z" fill="#000000" fill-rule="nonzero" fill-opacity="1" /><path clip-path="url(#clip240)" d="M1719.44 1481.64 L1735.76 1481.64 L1735.76 1485.58 L1713.81 1485.58 L1713.81 1481.64 Q1716.47 1478.89 1721.06 1474.26 Q1725.66 1469.61 1726.84 1468.27 Q1729.09 1465.74 1729.97 1464.01 Q1730.87 1462.25 1730.87 1460.56 Q1730.87 1457.8 1728.93 1456.07 Q1727.01 1454.33 1723.9 1454.33 Q1721.7 1454.33 1719.25 1455.09 Q1716.82 1455.86 1714.04 1457.41 L1714.04 1452.69 Q1716.87 1451.55 1719.32 1450.97 Q1721.77 1450.39 1723.81 1450.39 Q1729.18 1450.39 1732.38 1453.08 Q1735.57 1455.77 1735.57 1460.26 Q1735.57 1462.39 1734.76 1464.31 Q1733.97 1466.2 1731.87 1468.8 Q1731.29 1469.47 1728.19 1472.69 Q1725.08 1475.88 1719.44 1481.64 Z" fill="#000000" fill-rule="nonzero" fill-opacity="1" /><path clip-path="url(#clip240)" d="M1755.57 1454.1 Q1751.96 1454.1 1750.13 1457.66 Q1748.33 1461.2 1748.33 1468.33 Q1748.33 1475.44 1750.13 1479.01 Q1751.96 1482.55 1755.57 1482.55 Q1759.2 1482.55 1761.01 1479.01 Q1762.84 1475.44 1762.84 1468.33 Q1762.84 1461.2 1761.01 1457.66 Q1759.2 1454.1 1755.57 1454.1 M1755.57 1450.39 Q1761.38 1450.39 1764.44 1455 Q1767.51 1459.58 1767.51 1468.33 Q1767.51 1477.06 1764.44 1481.67 Q1761.38 1486.25 1755.57 1486.25 Q1749.76 1486.25 1746.68 1481.67 Q1743.63 1477.06 1743.63 1468.33 Q1743.63 1459.58 1746.68 1455 Q1749.76 1450.39 1755.57 1450.39 Z" fill="#000000" fill-rule="nonzero" fill-opacity="1" /><path clip-path="url(#clip240)" d="M2095.59 1481.64 L2111.91 1481.64 L2111.91 1485.58 L2089.97 1485.58 L2089.97 1481.64 Q2092.63 1478.89 2097.21 1474.26 Q2101.82 1469.61 2103 1468.27 Q2105.25 1465.74 2106.13 1464.01 Q2107.03 1462.25 2107.03 1460.56 Q2107.03 1457.8 2105.08 1456.07 Q2103.16 1454.33 2100.06 1454.33 Q2097.86 1454.33 2095.41 1455.09 Q2092.98 1455.86 2090.2 1457.41 L2090.2 1452.69 Q2093.02 1451.55 2095.48 1450.97 Q2097.93 1450.39 2099.97 1450.39 Q2105.34 1450.39 2108.53 1453.08 Q2111.73 1455.77 2111.73 1460.26 Q2111.73 1462.39 2110.92 1464.31 Q2110.13 1466.2 2108.02 1468.8 Q2107.45 1469.47 2104.34 1472.69 Q2101.24 1475.88 2095.59 1481.64 Z" fill="#000000" fill-rule="nonzero" fill-opacity="1" /><path clip-path="url(#clip240)" d="M2134.57 1455.09 L2122.77 1473.54 L2134.57 1473.54 L2134.57 1455.09 M2133.35 1451.02 L2139.23 1451.02 L2139.23 1473.54 L2144.16 1473.54 L2144.16 1477.43 L2139.23 1477.43 L2139.23 1485.58 L2134.57 1485.58 L2134.57 1477.43 L2118.97 1477.43 L2118.97 1472.92 L2133.35 1451.02 Z" fill="#000000" fill-rule="nonzero" fill-opacity="1" /><path clip-path="url(#clip240)" d="M2161.89 1454.1 Q2158.28 1454.1 2156.45 1457.66 Q2154.64 1461.2 2154.64 1468.33 Q2154.64 1475.44 2156.45 1479.01 Q2158.28 1482.55 2161.89 1482.55 Q2165.52 1482.55 2167.33 1479.01 Q2169.16 1475.44 2169.16 1468.33 Q2169.16 1461.2 2167.33 1457.66 Q2165.52 1454.1 2161.89 1454.1 M2161.89 1450.39 Q2167.7 1450.39 2170.76 1455 Q2173.83 1459.58 2173.83 1468.33 Q2173.83 1477.06 2170.76 1481.67 Q2167.7 1486.25 2161.89 1486.25 Q2156.08 1486.25 2153 1481.67 Q2149.95 1477.06 2149.95 1468.33 Q2149.95 1459.58 2153 1455 Q2156.08 1450.39 2161.89 1450.39 Z" fill="#000000" fill-rule="nonzero" fill-opacity="1" /><path clip-path="url(#clip240)" d="M1142.85 1525.81 L1142.85 1562.76 L1150.61 1562.76 Q1160.45 1562.76 1165 1558.3 Q1169.58 1553.85 1169.58 1544.24 Q1169.58 1534.69 1165 1530.26 Q1160.45 1525.81 1150.61 1525.81 L1142.85 1525.81 M1136.42 1520.52 L1149.63 1520.52 Q1163.44 1520.52 1169.9 1526.28 Q1176.36 1532.01 1176.36 1544.24 Q1176.36 1556.52 1169.87 1562.28 Q1163.38 1568.04 1149.63 1568.04 L1136.42 1568.04 L1136.42 1520.52 Z" fill="#000000" fill-rule="nonzero" fill-opacity="1" /><path clip-path="url(#clip240)" d="M1216.85 1548.76 L1216.85 1551.62 L1189.92 1551.62 Q1190.3 1557.67 1193.55 1560.85 Q1196.83 1564 1202.65 1564 Q1206.03 1564 1209.18 1563.17 Q1212.36 1562.35 1215.48 1560.69 L1215.48 1566.23 Q1212.33 1567.57 1209.02 1568.27 Q1205.71 1568.97 1202.3 1568.97 Q1193.77 1568.97 1188.77 1564 Q1183.81 1559.04 1183.81 1550.57 Q1183.81 1541.82 1188.52 1536.69 Q1193.26 1531.54 1201.28 1531.54 Q1208.48 1531.54 1212.65 1536.18 Q1216.85 1540.8 1216.85 1548.76 M1210.99 1547.04 Q1210.93 1542.23 1208.29 1539.37 Q1205.68 1536.5 1201.35 1536.5 Q1196.45 1536.5 1193.49 1539.27 Q1190.56 1542.04 1190.11 1547.07 L1210.99 1547.04 Z" fill="#000000" fill-rule="nonzero" fill-opacity="1" /><path clip-path="url(#clip240)" d="M1254.21 1539.24 Q1256.41 1535.29 1259.47 1533.41 Q1262.52 1531.54 1266.66 1531.54 Q1272.23 1531.54 1275.25 1535.45 Q1278.28 1539.33 1278.28 1546.53 L1278.28 1568.04 L1272.39 1568.04 L1272.39 1546.72 Q1272.39 1541.59 1270.57 1539.11 Q1268.76 1536.63 1265.04 1536.63 Q1260.48 1536.63 1257.84 1539.65 Q1255.2 1542.68 1255.2 1547.9 L1255.2 1568.04 L1249.31 1568.04 L1249.31 1546.72 Q1249.31 1541.56 1247.5 1539.11 Q1245.68 1536.63 1241.9 1536.63 Q1237.41 1536.63 1234.77 1539.68 Q1232.13 1542.71 1232.13 1547.9 L1232.13 1568.04 L1226.24 1568.04 L1226.24 1532.4 L1232.13 1532.4 L1232.13 1537.93 Q1234.13 1534.66 1236.93 1533.1 Q1239.73 1531.54 1243.58 1531.54 Q1247.47 1531.54 1250.17 1533.51 Q1252.91 1535.48 1254.21 1539.24 Z" fill="#000000" fill-rule="nonzero" fill-opacity="1" /><path clip-path="url(#clip240)" d="M1306.16 1550.12 Q1299.06 1550.12 1296.32 1551.75 Q1293.59 1553.37 1293.59 1557.29 Q1293.59 1560.4 1295.62 1562.25 Q1297.69 1564.07 1301.22 1564.07 Q1306.09 1564.07 1309.02 1560.63 Q1311.98 1557.16 1311.98 1551.43 L1311.98 1550.12 L1306.16 1550.12 M1317.84 1547.71 L1317.84 1568.04 L1311.98 1568.04 L1311.98 1562.63 Q1309.98 1565.88 1306.99 1567.44 Q1303.99 1568.97 1299.67 1568.97 Q1294.19 1568.97 1290.94 1565.91 Q1287.73 1562.82 1287.73 1557.67 Q1287.73 1551.65 1291.74 1548.6 Q1295.78 1545.54 1303.77 1545.54 L1311.98 1545.54 L1311.98 1544.97 Q1311.98 1540.93 1309.31 1538.73 Q1306.67 1536.5 1301.86 1536.5 Q1298.81 1536.5 1295.91 1537.23 Q1293.01 1537.97 1290.34 1539.43 L1290.34 1534.02 Q1293.55 1532.78 1296.58 1532.17 Q1299.6 1531.54 1302.47 1531.54 Q1310.2 1531.54 1314.02 1535.55 Q1317.84 1539.56 1317.84 1547.71 Z" fill="#000000" fill-rule="nonzero" fill-opacity="1" /><path clip-path="url(#clip240)" d="M1359.53 1546.53 L1359.53 1568.04 L1353.68 1568.04 L1353.68 1546.72 Q1353.68 1541.66 1351.7 1539.14 Q1349.73 1536.63 1345.78 1536.63 Q1341.04 1536.63 1338.31 1539.65 Q1335.57 1542.68 1335.57 1547.9 L1335.57 1568.04 L1329.68 1568.04 L1329.68 1532.4 L1335.57 1532.4 L1335.57 1537.93 Q1337.67 1534.72 1340.5 1533.13 Q1343.37 1531.54 1347.09 1531.54 Q1353.23 1531.54 1356.38 1535.36 Q1359.53 1539.14 1359.53 1546.53 Z" fill="#000000" fill-rule="nonzero" fill-opacity="1" /><path clip-path="url(#clip240)" d="M1394.67 1537.81 L1394.67 1518.52 L1400.53 1518.52 L1400.53 1568.04 L1394.67 1568.04 L1394.67 1562.7 Q1392.83 1565.88 1389.99 1567.44 Q1387.19 1568.97 1383.25 1568.97 Q1376.79 1568.97 1372.71 1563.81 Q1368.67 1558.65 1368.67 1550.25 Q1368.67 1541.85 1372.71 1536.69 Q1376.79 1531.54 1383.25 1531.54 Q1387.19 1531.54 1389.99 1533.1 Q1392.83 1534.62 1394.67 1537.81 M1374.72 1550.25 Q1374.72 1556.71 1377.36 1560.4 Q1380.03 1564.07 1384.68 1564.07 Q1389.33 1564.07 1392 1560.4 Q1394.67 1556.71 1394.67 1550.25 Q1394.67 1543.79 1392 1540.13 Q1389.33 1536.44 1384.68 1536.44 Q1380.03 1536.44 1377.36 1540.13 Q1374.72 1543.79 1374.72 1550.25 Z" fill="#000000" fill-rule="nonzero" fill-opacity="1" /><polyline clip-path="url(#clip242)" style="stroke:#000000; stroke-linecap:round; stroke-linejoin:round; stroke-width:2; stroke-opacity:0.1; fill:none" points="184.191,1423.18 2352.76,1423.18 "/>
<polyline clip-path="url(#clip242)" style="stroke:#000000; stroke-linecap:round; stroke-linejoin:round; stroke-width:2; stroke-opacity:0.1; fill:none" points="184.191,1110.47 2352.76,1110.47 "/>
<polyline clip-path="url(#clip242)" style="stroke:#000000; stroke-linecap:round; stroke-linejoin:round; stroke-width:2; stroke-opacity:0.1; fill:none" points="184.191,797.755 2352.76,797.755 "/>
<polyline clip-path="url(#clip242)" style="stroke:#000000; stroke-linecap:round; stroke-linejoin:round; stroke-width:2; stroke-opacity:0.1; fill:none" points="184.191,485.042 2352.76,485.042 "/>
<polyline clip-path="url(#clip242)" style="stroke:#000000; stroke-linecap:round; stroke-linejoin:round; stroke-width:2; stroke-opacity:0.1; fill:none" points="184.191,172.329 2352.76,172.329 "/>
<polyline clip-path="url(#clip240)" style="stroke:#000000; stroke-linecap:round; stroke-linejoin:round; stroke-width:4; stroke-opacity:1; fill:none" points="184.191,1423.18 184.191,47.2441 "/>
<polyline clip-path="url(#clip240)" style="stroke:#000000; stroke-linecap:round; stroke-linejoin:round; stroke-width:4; stroke-opacity:1; fill:none" points="184.191,1423.18 203.088,1423.18 "/>
<polyline clip-path="url(#clip240)" style="stroke:#000000; stroke-linecap:round; stroke-linejoin:round; stroke-width:4; stroke-opacity:1; fill:none" points="184.191,1110.47 203.088,1110.47 "/>
<polyline clip-path="url(#clip240)" style="stroke:#000000; stroke-linecap:round; stroke-linejoin:round; stroke-width:4; stroke-opacity:1; fill:none" points="184.191,797.755 203.088,797.755 "/>
<polyline clip-path="url(#clip240)" style="stroke:#000000; stroke-linecap:round; stroke-linejoin:round; stroke-width:4; stroke-opacity:1; fill:none" points="184.191,485.042 203.088,485.042 "/>
<polyline clip-path="url(#clip240)" style="stroke:#000000; stroke-linecap:round; stroke-linejoin:round; stroke-width:4; stroke-opacity:1; fill:none" points="184.191,172.329 203.088,172.329 "/>
<path clip-path="url(#clip240)" d="M91.0151 1408.98 Q87.404 1408.98 85.5753 1412.54 Q83.7697 1416.08 83.7697 1423.21 Q83.7697 1430.32 85.5753 1433.89 Q87.404 1437.43 91.0151 1437.43 Q94.6493 1437.43 96.4548 1433.89 Q98.2835 1430.32 98.2835 1423.21 Q98.2835 1416.08 96.4548 1412.54 Q94.6493 1408.98 91.0151 1408.98 M91.0151 1405.27 Q96.8252 1405.27 99.8808 1409.88 Q102.959 1414.46 102.959 1423.21 Q102.959 1431.94 99.8808 1436.55 Q96.8252 1441.13 91.0151 1441.13 Q85.2049 1441.13 82.1262 1436.55 Q79.0707 1431.94 79.0707 1423.21 Q79.0707 1414.46 82.1262 1409.88 Q85.2049 1405.27 91.0151 1405.27 Z" fill="#000000" fill-rule="nonzero" fill-opacity="1" /><path clip-path="url(#clip240)" d="M111.177 1434.58 L116.061 1434.58 L116.061 1440.46 L111.177 1440.46 L111.177 1434.58 Z" fill="#000000" fill-rule="nonzero" fill-opacity="1" /><path clip-path="url(#clip240)" d="M136.246 1408.98 Q132.635 1408.98 130.807 1412.54 Q129.001 1416.08 129.001 1423.21 Q129.001 1430.32 130.807 1433.89 Q132.635 1437.43 136.246 1437.43 Q139.881 1437.43 141.686 1433.89 Q143.515 1430.32 143.515 1423.21 Q143.515 1416.08 141.686 1412.54 Q139.881 1408.98 136.246 1408.98 M136.246 1405.27 Q142.056 1405.27 145.112 1409.88 Q148.191 1414.46 148.191 1423.21 Q148.191 1431.94 145.112 1436.55 Q142.056 1441.13 136.246 1441.13 Q130.436 1441.13 127.357 1436.55 Q124.302 1431.94 124.302 1423.21 Q124.302 1414.46 127.357 1409.88 Q130.436 1405.27 136.246 1405.27 Z" fill="#000000" fill-rule="nonzero" fill-opacity="1" /><path clip-path="url(#clip240)" d="M86.0382 1123.81 L102.358 1123.81 L102.358 1127.75 L80.4133 1127.75 L80.4133 1123.81 Q83.0753 1121.06 87.6586 1116.43 Q92.2651 1111.78 93.4456 1110.43 Q95.691 1107.91 96.5706 1106.17 Q97.4734 1104.41 97.4734 1102.72 Q97.4734 1099.97 95.5289 1098.23 Q93.6076 1096.5 90.5058 1096.5 Q88.3067 1096.5 85.8531 1097.26 Q83.4225 1098.03 80.6447 1099.58 L80.6447 1094.85 Q83.4688 1093.72 85.9225 1093.14 Q88.3762 1092.56 90.4132 1092.56 Q95.7836 1092.56 98.978 1095.25 Q102.172 1097.93 102.172 1102.42 Q102.172 1104.55 101.362 1106.47 Q100.575 1108.37 98.4687 1110.96 Q97.89 1111.64 94.7882 1114.85 Q91.6864 1118.05 86.0382 1123.81 Z" fill="#000000" fill-rule="nonzero" fill-opacity="1" /><path clip-path="url(#clip240)" d="M112.172 1121.87 L117.057 1121.87 L117.057 1127.75 L112.172 1127.75 L112.172 1121.87 Z" fill="#000000" fill-rule="nonzero" fill-opacity="1" /><path clip-path="url(#clip240)" d="M127.288 1093.19 L145.644 1093.19 L145.644 1097.12 L131.57 1097.12 L131.57 1105.59 Q132.589 1105.25 133.607 1105.09 Q134.626 1104.9 135.644 1104.9 Q141.431 1104.9 144.811 1108.07 Q148.191 1111.24 148.191 1116.66 Q148.191 1122.24 144.718 1125.34 Q141.246 1128.42 134.927 1128.42 Q132.751 1128.42 130.482 1128.05 Q128.237 1127.68 125.83 1126.94 L125.83 1122.24 Q127.913 1123.37 130.135 1123.93 Q132.357 1124.48 134.834 1124.48 Q138.839 1124.48 141.177 1122.38 Q143.515 1120.27 143.515 1116.66 Q143.515 1113.05 141.177 1110.94 Q138.839 1108.84 134.834 1108.84 Q132.959 1108.84 131.084 1109.25 Q129.232 1109.67 127.288 1110.55 L127.288 1093.19 Z" fill="#000000" fill-rule="nonzero" fill-opacity="1" /><path clip-path="url(#clip240)" d="M81.0614 780.475 L99.4178 780.475 L99.4178 784.41 L85.3438 784.41 L85.3438 792.882 Q86.3623 792.535 87.3808 792.373 Q88.3993 792.187 89.4178 792.187 Q95.2049 792.187 98.5845 795.359 Q101.964 798.53 101.964 803.947 Q101.964 809.525 98.4919 812.627 Q95.0197 815.706 88.7003 815.706 Q86.5243 815.706 84.2558 815.335 Q82.0105 814.965 79.6031 814.224 L79.6031 809.525 Q81.6864 810.66 83.9086 811.215 Q86.1308 811.771 88.6077 811.771 Q92.6123 811.771 94.9502 809.664 Q97.2882 807.558 97.2882 803.947 Q97.2882 800.336 94.9502 798.229 Q92.6123 796.123 88.6077 796.123 Q86.7327 796.123 84.8577 796.539 Q83.0058 796.956 81.0614 797.836 L81.0614 780.475 Z" fill="#000000" fill-rule="nonzero" fill-opacity="1" /><path clip-path="url(#clip240)" d="M111.177 809.155 L116.061 809.155 L116.061 815.035 L111.177 815.035 L111.177 809.155 Z" fill="#000000" fill-rule="nonzero" fill-opacity="1" /><path clip-path="url(#clip240)" d="M136.246 783.553 Q132.635 783.553 130.807 787.118 Q129.001 790.66 129.001 797.789 Q129.001 804.896 130.807 808.46 Q132.635 812.002 136.246 812.002 Q139.881 812.002 141.686 808.46 Q143.515 804.896 143.515 797.789 Q143.515 790.66 141.686 787.118 Q139.881 783.553 136.246 783.553 M136.246 779.85 Q142.056 779.85 145.112 784.456 Q148.191 789.039 148.191 797.789 Q148.191 806.516 145.112 811.122 Q142.056 815.706 136.246 815.706 Q130.436 815.706 127.357 811.122 Q124.302 806.516 124.302 797.789 Q124.302 789.039 127.357 784.456 Q130.436 779.85 136.246 779.85 Z" fill="#000000" fill-rule="nonzero" fill-opacity="1" /><path clip-path="url(#clip240)" d="M80.8299 467.762 L103.052 467.762 L103.052 469.753 L90.5058 502.322 L85.6216 502.322 L97.4271 471.697 L80.8299 471.697 L80.8299 467.762 Z" fill="#000000" fill-rule="nonzero" fill-opacity="1" /><path clip-path="url(#clip240)" d="M112.172 496.442 L117.057 496.442 L117.057 502.322 L112.172 502.322 L112.172 496.442 Z" fill="#000000" fill-rule="nonzero" fill-opacity="1" /><path clip-path="url(#clip240)" d="M127.288 467.762 L145.644 467.762 L145.644 471.697 L131.57 471.697 L131.57 480.169 Q132.589 479.822 133.607 479.66 Q134.626 479.475 135.644 479.475 Q141.431 479.475 144.811 482.646 Q148.191 485.817 148.191 491.234 Q148.191 496.813 144.718 499.914 Q141.246 502.993 134.927 502.993 Q132.751 502.993 130.482 502.623 Q128.237 502.252 125.83 501.512 L125.83 496.813 Q127.913 497.947 130.135 498.502 Q132.357 499.058 134.834 499.058 Q138.839 499.058 141.177 496.951 Q143.515 494.845 143.515 491.234 Q143.515 487.623 141.177 485.516 Q138.839 483.41 134.834 483.41 Q132.959 483.41 131.084 483.827 Q129.232 484.243 127.288 485.123 L127.288 467.762 Z" fill="#000000" fill-rule="nonzero" fill-opacity="1" /><path clip-path="url(#clip240)" d="M51.6634 185.674 L59.3023 185.674 L59.3023 159.308 L50.9921 160.975 L50.9921 156.716 L59.256 155.049 L63.9319 155.049 L63.9319 185.674 L71.5707 185.674 L71.5707 189.609 L51.6634 189.609 L51.6634 185.674 Z" fill="#000000" fill-rule="nonzero" fill-opacity="1" /><path clip-path="url(#clip240)" d="M91.0151 158.128 Q87.404 158.128 85.5753 161.693 Q83.7697 165.234 83.7697 172.364 Q83.7697 179.47 85.5753 183.035 Q87.404 186.577 91.0151 186.577 Q94.6493 186.577 96.4548 183.035 Q98.2835 179.47 98.2835 172.364 Q98.2835 165.234 96.4548 161.693 Q94.6493 158.128 91.0151 158.128 M91.0151 154.424 Q96.8252 154.424 99.8808 159.031 Q102.959 163.614 102.959 172.364 Q102.959 181.091 99.8808 185.697 Q96.8252 190.28 91.0151 190.28 Q85.2049 190.28 82.1262 185.697 Q79.0707 181.091 79.0707 172.364 Q79.0707 163.614 82.1262 159.031 Q85.2049 154.424 91.0151 154.424 Z" fill="#000000" fill-rule="nonzero" fill-opacity="1" /><path clip-path="url(#clip240)" d="M111.177 183.73 L116.061 183.73 L116.061 189.609 L111.177 189.609 L111.177 183.73 Z" fill="#000000" fill-rule="nonzero" fill-opacity="1" /><path clip-path="url(#clip240)" d="M136.246 158.128 Q132.635 158.128 130.807 161.693 Q129.001 165.234 129.001 172.364 Q129.001 179.47 130.807 183.035 Q132.635 186.577 136.246 186.577 Q139.881 186.577 141.686 183.035 Q143.515 179.47 143.515 172.364 Q143.515 165.234 141.686 161.693 Q139.881 158.128 136.246 158.128 M136.246 154.424 Q142.056 154.424 145.112 159.031 Q148.191 163.614 148.191 172.364 Q148.191 181.091 145.112 185.697 Q142.056 190.28 136.246 190.28 Q130.436 190.28 127.357 185.697 Q124.302 181.091 124.302 172.364 Q124.302 163.614 127.357 159.031 Q130.436 154.424 136.246 154.424 Z" fill="#000000" fill-rule="nonzero" fill-opacity="1" /><path clip-path="url(#clip242)" d="M303.466 1298.09 L303.466 1423.18 L405.045 1423.18 L405.045 1298.09 L303.466 1298.09 L303.466 1298.09  Z" fill="#009af9" fill-rule="evenodd" fill-opacity="1"/>
<polyline clip-path="url(#clip242)" style="stroke:#000000; stroke-linecap:round; stroke-linejoin:round; stroke-width:4; stroke-opacity:1; fill:none" points="303.466,1298.09 303.466,1423.18 405.045,1423.18 405.045,1298.09 303.466,1298.09 "/>
<path clip-path="url(#clip242)" d="M405.045 1173.01 L405.045 1423.18 L506.625 1423.18 L506.625 1173.01 L405.045 1173.01 L405.045 1173.01  Z" fill="#009af9" fill-rule="evenodd" fill-opacity="1"/>
<polyline clip-path="url(#clip242)" style="stroke:#000000; stroke-linecap:round; stroke-linejoin:round; stroke-width:4; stroke-opacity:1; fill:none" points="405.045,1173.01 405.045,1423.18 506.625,1423.18 506.625,1173.01 405.045,1173.01 "/>
<path clip-path="url(#clip242)" d="M506.625 1047.92 L506.625 1423.18 L608.205 1423.18 L608.205 1047.92 L506.625 1047.92 L506.625 1047.92  Z" fill="#009af9" fill-rule="evenodd" fill-opacity="1"/>
<polyline clip-path="url(#clip242)" style="stroke:#000000; stroke-linecap:round; stroke-linejoin:round; stroke-width:4; stroke-opacity:1; fill:none" points="506.625,1047.92 506.625,1423.18 608.205,1423.18 608.205,1047.92 506.625,1047.92 "/>
<path clip-path="url(#clip242)" d="M608.205 797.755 L608.205 1423.18 L709.785 1423.18 L709.785 797.755 L608.205 797.755 L608.205 797.755  Z" fill="#009af9" fill-rule="evenodd" fill-opacity="1"/>
<polyline clip-path="url(#clip242)" style="stroke:#000000; stroke-linecap:round; stroke-linejoin:round; stroke-width:4; stroke-opacity:1; fill:none" points="608.205,797.755 608.205,1423.18 709.785,1423.18 709.785,797.755 608.205,797.755 "/>
<path clip-path="url(#clip242)" d="M709.785 1298.09 L709.785 1423.18 L811.364 1423.18 L811.364 1298.09 L709.785 1298.09 L709.785 1298.09  Z" fill="#009af9" fill-rule="evenodd" fill-opacity="1"/>
<polyline clip-path="url(#clip242)" style="stroke:#000000; stroke-linecap:round; stroke-linejoin:round; stroke-width:4; stroke-opacity:1; fill:none" points="709.785,1298.09 709.785,1423.18 811.364,1423.18 811.364,1298.09 709.785,1298.09 "/>
<path clip-path="url(#clip242)" d="M811.364 297.414 L811.364 1423.18 L912.944 1423.18 L912.944 297.414 L811.364 297.414 L811.364 297.414  Z" fill="#009af9" fill-rule="evenodd" fill-opacity="1"/>
<polyline clip-path="url(#clip242)" style="stroke:#000000; stroke-linecap:round; stroke-linejoin:round; stroke-width:4; stroke-opacity:1; fill:none" points="811.364,297.414 811.364,1423.18 912.944,1423.18 912.944,297.414 811.364,297.414 "/>
<path clip-path="url(#clip242)" d="M912.944 1298.09 L912.944 1423.18 L1014.52 1423.18 L1014.52 1298.09 L912.944 1298.09 L912.944 1298.09  Z" fill="#009af9" fill-rule="evenodd" fill-opacity="1"/>
<polyline clip-path="url(#clip242)" style="stroke:#000000; stroke-linecap:round; stroke-linejoin:round; stroke-width:4; stroke-opacity:1; fill:none" points="912.944,1298.09 912.944,1423.18 1014.52,1423.18 1014.52,1298.09 912.944,1298.09 "/>
<path clip-path="url(#clip242)" d="M1014.52 297.414 L1014.52 1423.18 L1116.1 1423.18 L1116.1 297.414 L1014.52 297.414 L1014.52 297.414  Z" fill="#009af9" fill-rule="evenodd" fill-opacity="1"/>
<polyline clip-path="url(#clip242)" style="stroke:#000000; stroke-linecap:round; stroke-linejoin:round; stroke-width:4; stroke-opacity:1; fill:none" points="1014.52,297.414 1014.52,1423.18 1116.1,1423.18 1116.1,297.414 1014.52,297.414 "/>
<path clip-path="url(#clip242)" d="M1116.1 297.414 L1116.1 1423.18 L1217.68 1423.18 L1217.68 297.414 L1116.1 297.414 L1116.1 297.414  Z" fill="#009af9" fill-rule="evenodd" fill-opacity="1"/>
<polyline clip-path="url(#clip242)" style="stroke:#000000; stroke-linecap:round; stroke-linejoin:round; stroke-width:4; stroke-opacity:1; fill:none" points="1116.1,297.414 1116.1,1423.18 1217.68,1423.18 1217.68,297.414 1116.1,297.414 "/>
<path clip-path="url(#clip242)" d="M1217.68 47.2441 L1217.68 1423.18 L1319.26 1423.18 L1319.26 47.2441 L1217.68 47.2441 L1217.68 47.2441  Z" fill="#009af9" fill-rule="evenodd" fill-opacity="1"/>
<polyline clip-path="url(#clip242)" style="stroke:#000000; stroke-linecap:round; stroke-linejoin:round; stroke-width:4; stroke-opacity:1; fill:none" points="1217.68,47.2441 1217.68,1423.18 1319.26,1423.18 1319.26,47.2441 1217.68,47.2441 "/>
<path clip-path="url(#clip242)" d="M1319.26 47.2441 L1319.26 1423.18 L1420.84 1423.18 L1420.84 47.2441 L1319.26 47.2441 L1319.26 47.2441  Z" fill="#009af9" fill-rule="evenodd" fill-opacity="1"/>
<polyline clip-path="url(#clip242)" style="stroke:#000000; stroke-linecap:round; stroke-linejoin:round; stroke-width:4; stroke-opacity:1; fill:none" points="1319.26,47.2441 1319.26,1423.18 1420.84,1423.18 1420.84,47.2441 1319.26,47.2441 "/>
<path clip-path="url(#clip242)" d="M1420.84 297.414 L1420.84 1423.18 L1522.42 1423.18 L1522.42 297.414 L1420.84 297.414 L1420.84 297.414  Z" fill="#009af9" fill-rule="evenodd" fill-opacity="1"/>
<polyline clip-path="url(#clip242)" style="stroke:#000000; stroke-linecap:round; stroke-linejoin:round; stroke-width:4; stroke-opacity:1; fill:none" points="1420.84,297.414 1420.84,1423.18 1522.42,1423.18 1522.42,297.414 1420.84,297.414 "/>
<path clip-path="url(#clip242)" d="M1522.42 797.755 L1522.42 1423.18 L1624 1423.18 L1624 797.755 L1522.42 797.755 L1522.42 797.755  Z" fill="#009af9" fill-rule="evenodd" fill-opacity="1"/>
<polyline clip-path="url(#clip242)" style="stroke:#000000; stroke-linecap:round; stroke-linejoin:round; stroke-width:4; stroke-opacity:1; fill:none" points="1522.42,797.755 1522.42,1423.18 1624,1423.18 1624,797.755 1522.42,797.755 "/>
<path clip-path="url(#clip242)" d="M1624 797.755 L1624 1423.18 L1725.58 1423.18 L1725.58 797.755 L1624 797.755 L1624 797.755  Z" fill="#009af9" fill-rule="evenodd" fill-opacity="1"/>
<polyline clip-path="url(#clip242)" style="stroke:#000000; stroke-linecap:round; stroke-linejoin:round; stroke-width:4; stroke-opacity:1; fill:none" points="1624,797.755 1624,1423.18 1725.58,1423.18 1725.58,797.755 1624,797.755 "/>
<path clip-path="url(#clip242)" d="M1725.58 422.499 L1725.58 1423.18 L1827.16 1423.18 L1827.16 422.499 L1725.58 422.499 L1725.58 422.499  Z" fill="#009af9" fill-rule="evenodd" fill-opacity="1"/>
<polyline clip-path="url(#clip242)" style="stroke:#000000; stroke-linecap:round; stroke-linejoin:round; stroke-width:4; stroke-opacity:1; fill:none" points="1725.58,422.499 1725.58,1423.18 1827.16,1423.18 1827.16,422.499 1725.58,422.499 "/>
<path clip-path="url(#clip242)" d="M1827.16 547.584 L1827.16 1423.18 L1928.74 1423.18 L1928.74 547.584 L1827.16 547.584 L1827.16 547.584  Z" fill="#009af9" fill-rule="evenodd" fill-opacity="1"/>
<polyline clip-path="url(#clip242)" style="stroke:#000000; stroke-linecap:round; stroke-linejoin:round; stroke-width:4; stroke-opacity:1; fill:none" points="1827.16,547.584 1827.16,1423.18 1928.74,1423.18 1928.74,547.584 1827.16,547.584 "/>
<path clip-path="url(#clip242)" d="M1928.74 1298.09 L1928.74 1423.18 L2030.32 1423.18 L2030.32 1298.09 L1928.74 1298.09 L1928.74 1298.09  Z" fill="#009af9" fill-rule="evenodd" fill-opacity="1"/>
<polyline clip-path="url(#clip242)" style="stroke:#000000; stroke-linecap:round; stroke-linejoin:round; stroke-width:4; stroke-opacity:1; fill:none" points="1928.74,1298.09 1928.74,1423.18 2030.32,1423.18 2030.32,1298.09 1928.74,1298.09 "/>
<path clip-path="url(#clip242)" d="M2030.32 1173.01 L2030.32 1423.18 L2131.9 1423.18 L2131.9 1173.01 L2030.32 1173.01 L2030.32 1173.01  Z" fill="#009af9" fill-rule="evenodd" fill-opacity="1"/>
<polyline clip-path="url(#clip242)" style="stroke:#000000; stroke-linecap:round; stroke-linejoin:round; stroke-width:4; stroke-opacity:1; fill:none" points="2030.32,1173.01 2030.32,1423.18 2131.9,1423.18 2131.9,1173.01 2030.32,1173.01 "/>
<path clip-path="url(#clip242)" d="M2131.9 1298.09 L2131.9 1423.18 L2233.48 1423.18 L2233.48 1298.09 L2131.9 1298.09 L2131.9 1298.09  Z" fill="#009af9" fill-rule="evenodd" fill-opacity="1"/>
<polyline clip-path="url(#clip242)" style="stroke:#000000; stroke-linecap:round; stroke-linejoin:round; stroke-width:4; stroke-opacity:1; fill:none" points="2131.9,1298.09 2131.9,1423.18 2233.48,1423.18 2233.48,1298.09 2131.9,1298.09 "/>
<circle clip-path="url(#clip242)" style="fill:#009af9; stroke:none; fill-opacity:0" cx="354.256" cy="1298.09" r="2"/>
<circle clip-path="url(#clip242)" style="fill:#009af9; stroke:none; fill-opacity:0" cx="455.835" cy="1173.01" r="2"/>
<circle clip-path="url(#clip242)" style="fill:#009af9; stroke:none; fill-opacity:0" cx="557.415" cy="1047.92" r="2"/>
<circle clip-path="url(#clip242)" style="fill:#009af9; stroke:none; fill-opacity:0" cx="658.995" cy="797.755" r="2"/>
<circle clip-path="url(#clip242)" style="fill:#009af9; stroke:none; fill-opacity:0" cx="760.575" cy="1298.09" r="2"/>
<circle clip-path="url(#clip242)" style="fill:#009af9; stroke:none; fill-opacity:0" cx="862.154" cy="297.414" r="2"/>
<circle clip-path="url(#clip242)" style="fill:#009af9; stroke:none; fill-opacity:0" cx="963.734" cy="1298.09" r="2"/>
<circle clip-path="url(#clip242)" style="fill:#009af9; stroke:none; fill-opacity:0" cx="1065.31" cy="297.414" r="2"/>
<circle clip-path="url(#clip242)" style="fill:#009af9; stroke:none; fill-opacity:0" cx="1166.89" cy="297.414" r="2"/>
<circle clip-path="url(#clip242)" style="fill:#009af9; stroke:none; fill-opacity:0" cx="1268.47" cy="47.2441" r="2"/>
<circle clip-path="url(#clip242)" style="fill:#009af9; stroke:none; fill-opacity:0" cx="1370.05" cy="47.2441" r="2"/>
<circle clip-path="url(#clip242)" style="fill:#009af9; stroke:none; fill-opacity:0" cx="1471.63" cy="297.414" r="2"/>
<circle clip-path="url(#clip242)" style="fill:#009af9; stroke:none; fill-opacity:0" cx="1573.21" cy="797.755" r="2"/>
<circle clip-path="url(#clip242)" style="fill:#009af9; stroke:none; fill-opacity:0" cx="1674.79" cy="797.755" r="2"/>
<circle clip-path="url(#clip242)" style="fill:#009af9; stroke:none; fill-opacity:0" cx="1776.37" cy="422.499" r="2"/>
<circle clip-path="url(#clip242)" style="fill:#009af9; stroke:none; fill-opacity:0" cx="1877.95" cy="547.584" r="2"/>
<circle clip-path="url(#clip242)" style="fill:#009af9; stroke:none; fill-opacity:0" cx="1979.53" cy="1298.09" r="2"/>
<circle clip-path="url(#clip242)" style="fill:#009af9; stroke:none; fill-opacity:0" cx="2081.11" cy="1173.01" r="2"/>
<circle clip-path="url(#clip242)" style="fill:#009af9; stroke:none; fill-opacity:0" cx="2182.69" cy="1298.09" r="2"/>
</svg>
