<?xml version="1.0" encoding="utf-8"?>
<svg xmlns="http://www.w3.org/2000/svg" xmlns:xlink="http://www.w3.org/1999/xlink" width="600" height="400" viewBox="0 0 2400 1600">
<defs>
  <clipPath id="clip090">
    <rect x="0" y="0" width="2400" height="1600"/>
  </clipPath>
</defs>
<path clip-path="url(#clip090)" d="M0 1600 L2400 1600 L2400 0 L0 0  Z" fill="#ffffff" fill-rule="evenodd" fill-opacity="1"/>
<defs>
  <clipPath id="clip091">
    <rect x="480" y="0" width="1681" height="1600"/>
  </clipPath>
</defs>
<path clip-path="url(#clip090)" d="M174.149 1423.18 L2352.76 1423.18 L2352.76 123.472 L174.149 123.472  Z" fill="#ffffff" fill-rule="evenodd" fill-opacity="1"/>
<defs>
  <clipPath id="clip092">
    <rect x="174" y="123" width="2180" height="1301"/>
  </clipPath>
</defs>
<polyline clip-path="url(#clip092)" style="stroke:#000000; stroke-linecap:round; stroke-linejoin:round; stroke-width:2; stroke-opacity:0.1; fill:none" points="423.968,1423.18 423.968,123.472 "/>
<polyline clip-path="url(#clip092)" style="stroke:#000000; stroke-linecap:round; stroke-linejoin:round; stroke-width:2; stroke-opacity:0.1; fill:none" points="858.184,1423.18 858.184,123.472 "/>
<polyline clip-path="url(#clip092)" style="stroke:#000000; stroke-linecap:round; stroke-linejoin:round; stroke-width:2; stroke-opacity:0.1; fill:none" points="1292.4,1423.18 1292.4,123.472 "/>
<polyline clip-path="url(#clip092)" style="stroke:#000000; stroke-linecap:round; stroke-linejoin:round; stroke-width:2; stroke-opacity:0.1; fill:none" points="1726.62,1423.18 1726.62,123.472 "/>
<polyline clip-path="url(#clip092)" style="stroke:#000000; stroke-linecap:round; stroke-linejoin:round; stroke-width:2; stroke-opacity:0.1; fill:none" points="2160.83,1423.18 2160.83,123.472 "/>
<polyline clip-path="url(#clip090)" style="stroke:#000000; stroke-linecap:round; stroke-linejoin:round; stroke-width:4; stroke-opacity:1; fill:none" points="174.149,1423.18 2352.76,1423.18 "/>
<polyline clip-path="url(#clip090)" style="stroke:#000000; stroke-linecap:round; stroke-linejoin:round; stroke-width:4; stroke-opacity:1; fill:none" points="423.968,1423.18 423.968,1404.28 "/>
<polyline clip-path="url(#clip090)" style="stroke:#000000; stroke-linecap:round; stroke-linejoin:round; stroke-width:4; stroke-opacity:1; fill:none" points="858.184,1423.18 858.184,1404.28 "/>
<polyline clip-path="url(#clip090)" style="stroke:#000000; stroke-linecap:round; stroke-linejoin:round; stroke-width:4; stroke-opacity:1; fill:none" points="1292.4,1423.18 1292.4,1404.28 "/>
<polyline clip-path="url(#clip090)" style="stroke:#000000; stroke-linecap:round; stroke-linejoin:round; stroke-width:4; stroke-opacity:1; fill:none" points="1726.62,1423.18 1726.62,1404.28 "/>
<polyline clip-path="url(#clip090)" style="stroke:#000000; stroke-linecap:round; stroke-linejoin:round; stroke-width:4; stroke-opacity:1; fill:none" points="2160.83,1423.18 2160.83,1404.28 "/>
<path clip-path="url(#clip090)" d="M412.811 1466.95 Q416.167 1467.66 418.042 1469.93 Q419.94 1472.2 419.94 1475.53 Q419.94 1480.65 416.422 1483.45 Q412.903 1486.25 406.422 1486.25 Q404.246 1486.25 401.931 1485.81 Q399.639 1485.39 397.186 1484.54 L397.186 1480.02 Q399.13 1481.16 401.445 1481.74 Q403.76 1482.32 406.283 1482.32 Q410.681 1482.32 412.973 1480.58 Q415.287 1478.84 415.287 1475.53 Q415.287 1472.48 413.135 1470.77 Q411.005 1469.03 407.186 1469.03 L403.158 1469.03 L403.158 1465.19 L407.371 1465.19 Q410.82 1465.19 412.649 1463.82 Q414.477 1462.43 414.477 1459.84 Q414.477 1457.18 412.579 1455.77 Q410.704 1454.33 407.186 1454.33 Q405.264 1454.33 403.065 1454.75 Q400.866 1455.16 398.227 1456.04 L398.227 1451.88 Q400.889 1451.14 403.204 1450.77 Q405.542 1450.39 407.602 1450.39 Q412.926 1450.39 416.028 1452.83 Q419.13 1455.23 419.13 1459.35 Q419.13 1462.22 417.486 1464.21 Q415.843 1466.18 412.811 1466.95 Z" fill="#000000" fill-rule="nonzero" fill-opacity="1" /><path clip-path="url(#clip090)" d="M438.806 1454.1 Q435.195 1454.1 433.366 1457.66 Q431.56 1461.2 431.56 1468.33 Q431.56 1475.44 433.366 1479.01 Q435.195 1482.55 438.806 1482.55 Q442.44 1482.55 444.246 1479.01 Q446.074 1475.44 446.074 1468.33 Q446.074 1461.2 444.246 1457.66 Q442.44 1454.1 438.806 1454.1 M438.806 1450.39 Q444.616 1450.39 447.671 1455 Q450.75 1459.58 450.75 1468.33 Q450.75 1477.06 447.671 1481.67 Q444.616 1486.25 438.806 1486.25 Q432.996 1486.25 429.917 1481.67 Q426.861 1477.06 426.861 1468.33 Q426.861 1459.58 429.917 1455 Q432.996 1450.39 438.806 1450.39 Z" fill="#000000" fill-rule="nonzero" fill-opacity="1" /><path clip-path="url(#clip090)" d="M843.589 1466.44 Q840.441 1466.44 838.589 1468.59 Q836.761 1470.74 836.761 1474.49 Q836.761 1478.22 838.589 1480.39 Q840.441 1482.55 843.589 1482.55 Q846.737 1482.55 848.566 1480.39 Q850.418 1478.22 850.418 1474.49 Q850.418 1470.74 848.566 1468.59 Q846.737 1466.44 843.589 1466.44 M852.872 1451.78 L852.872 1456.04 Q851.112 1455.21 849.307 1454.77 Q847.524 1454.33 845.765 1454.33 Q841.136 1454.33 838.682 1457.45 Q836.251 1460.58 835.904 1466.9 Q837.27 1464.89 839.33 1463.82 Q841.39 1462.73 843.867 1462.73 Q849.075 1462.73 852.085 1465.9 Q855.117 1469.05 855.117 1474.49 Q855.117 1479.82 851.969 1483.03 Q848.821 1486.25 843.589 1486.25 Q837.594 1486.25 834.423 1481.67 Q831.251 1477.06 831.251 1468.33 Q831.251 1460.14 835.14 1455.28 Q839.029 1450.39 845.58 1450.39 Q847.339 1450.39 849.122 1450.74 Q850.927 1451.09 852.872 1451.78 Z" fill="#000000" fill-rule="nonzero" fill-opacity="1" /><path clip-path="url(#clip090)" d="M873.172 1454.1 Q869.561 1454.1 867.733 1457.66 Q865.927 1461.2 865.927 1468.33 Q865.927 1475.44 867.733 1479.01 Q869.561 1482.55 873.172 1482.55 Q876.807 1482.55 878.612 1479.01 Q880.441 1475.44 880.441 1468.33 Q880.441 1461.2 878.612 1457.66 Q876.807 1454.1 873.172 1454.1 M873.172 1450.39 Q878.983 1450.39 882.038 1455 Q885.117 1459.58 885.117 1468.33 Q885.117 1477.06 882.038 1481.67 Q878.983 1486.25 873.172 1486.25 Q867.362 1486.25 864.284 1481.67 Q861.228 1477.06 861.228 1468.33 Q861.228 1459.58 864.284 1455 Q867.362 1450.39 873.172 1450.39 Z" fill="#000000" fill-rule="nonzero" fill-opacity="1" /><path clip-path="url(#clip090)" d="M1267.53 1484.86 L1267.53 1480.6 Q1269.29 1481.44 1271.09 1481.88 Q1272.9 1482.32 1274.63 1482.32 Q1279.26 1482.32 1281.69 1479.21 Q1284.15 1476.09 1284.5 1469.75 Q1283.15 1471.74 1281.09 1472.8 Q1279.03 1473.87 1276.53 1473.87 Q1271.35 1473.87 1268.31 1470.74 Q1265.31 1467.59 1265.31 1462.15 Q1265.31 1456.83 1268.45 1453.61 Q1271.6 1450.39 1276.83 1450.39 Q1282.83 1450.39 1285.98 1455 Q1289.15 1459.58 1289.15 1468.33 Q1289.15 1476.51 1285.26 1481.39 Q1281.39 1486.25 1274.84 1486.25 Q1273.08 1486.25 1271.28 1485.9 Q1269.47 1485.56 1267.53 1484.86 M1276.83 1470.21 Q1279.98 1470.21 1281.81 1468.06 Q1283.66 1465.9 1283.66 1462.15 Q1283.66 1458.43 1281.81 1456.27 Q1279.98 1454.1 1276.83 1454.1 Q1273.68 1454.1 1271.83 1456.27 Q1270 1458.43 1270 1462.15 Q1270 1465.9 1271.83 1468.06 Q1273.68 1470.21 1276.83 1470.21 Z" fill="#000000" fill-rule="nonzero" fill-opacity="1" /><path clip-path="url(#clip090)" d="M1307.55 1454.1 Q1303.94 1454.1 1302.11 1457.66 Q1300.31 1461.2 1300.31 1468.33 Q1300.31 1475.44 1302.11 1479.01 Q1303.94 1482.55 1307.55 1482.55 Q1311.18 1482.55 1312.99 1479.01 Q1314.82 1475.44 1314.82 1468.33 Q1314.82 1461.2 1312.99 1457.66 Q1311.18 1454.1 1307.55 1454.1 M1307.55 1450.39 Q1313.36 1450.39 1316.42 1455 Q1319.49 1459.58 1319.49 1468.33 Q1319.49 1477.06 1316.42 1481.67 Q1313.36 1486.25 1307.55 1486.25 Q1301.74 1486.25 1298.66 1481.67 Q1295.61 1477.06 1295.61 1468.33 Q1295.61 1459.58 1298.66 1455 Q1301.74 1450.39 1307.55 1450.39 Z" fill="#000000" fill-rule="nonzero" fill-opacity="1" /><path clip-path="url(#clip090)" d="M1686.22 1481.64 L1693.86 1481.64 L1693.86 1455.28 L1685.55 1456.95 L1685.55 1452.69 L1693.82 1451.02 L1698.49 1451.02 L1698.49 1481.64 L1706.13 1481.64 L1706.13 1485.58 L1686.22 1485.58 L1686.22 1481.64 Z" fill="#000000" fill-rule="nonzero" fill-opacity="1" /><path clip-path="url(#clip090)" d="M1719.6 1481.64 L1735.92 1481.64 L1735.92 1485.58 L1713.98 1485.58 L1713.98 1481.64 Q1716.64 1478.89 1721.22 1474.26 Q1725.83 1469.61 1727.01 1468.27 Q1729.26 1465.74 1730.13 1464.01 Q1731.04 1462.25 1731.04 1460.56 Q1731.04 1457.8 1729.09 1456.07 Q1727.17 1454.33 1724.07 1454.33 Q1721.87 1454.33 1719.42 1455.09 Q1716.99 1455.86 1714.21 1457.41 L1714.21 1452.69 Q1717.03 1451.55 1719.49 1450.97 Q1721.94 1450.39 1723.98 1450.39 Q1729.35 1450.39 1732.54 1453.08 Q1735.74 1455.77 1735.74 1460.26 Q1735.74 1462.39 1734.93 1464.31 Q1734.14 1466.2 1732.03 1468.8 Q1731.45 1469.47 1728.35 1472.69 Q1725.25 1475.88 1719.6 1481.64 Z" fill="#000000" fill-rule="nonzero" fill-opacity="1" /><path clip-path="url(#clip090)" d="M1755.74 1454.1 Q1752.13 1454.1 1750.3 1457.66 Q1748.49 1461.2 1748.49 1468.33 Q1748.49 1475.44 1750.3 1479.01 Q1752.13 1482.55 1755.74 1482.55 Q1759.37 1482.55 1761.18 1479.01 Q1763 1475.44 1763 1468.33 Q1763 1461.2 1761.18 1457.66 Q1759.37 1454.1 1755.74 1454.1 M1755.74 1450.39 Q1761.55 1450.39 1764.6 1455 Q1767.68 1459.58 1767.68 1468.33 Q1767.68 1477.06 1764.6 1481.67 Q1761.55 1486.25 1755.74 1486.25 Q1749.93 1486.25 1746.85 1481.67 Q1743.79 1477.06 1743.79 1468.33 Q1743.79 1459.58 1746.85 1455 Q1749.93 1450.39 1755.74 1450.39 Z" fill="#000000" fill-rule="nonzero" fill-opacity="1" /><path clip-path="url(#clip090)" d="M2120.44 1481.64 L2128.08 1481.64 L2128.08 1455.28 L2119.77 1456.95 L2119.77 1452.69 L2128.03 1451.02 L2132.71 1451.02 L2132.71 1481.64 L2140.35 1481.64 L2140.35 1485.58 L2120.44 1485.58 L2120.44 1481.64 Z" fill="#000000" fill-rule="nonzero" fill-opacity="1" /><path clip-path="url(#clip090)" d="M2149.84 1451.02 L2168.19 1451.02 L2168.19 1454.96 L2154.12 1454.96 L2154.12 1463.43 Q2155.14 1463.08 2156.16 1462.92 Q2157.17 1462.73 2158.19 1462.73 Q2163.98 1462.73 2167.36 1465.9 Q2170.74 1469.08 2170.74 1474.49 Q2170.74 1480.07 2167.27 1483.17 Q2163.8 1486.25 2157.48 1486.25 Q2155.3 1486.25 2153.03 1485.88 Q2150.79 1485.51 2148.38 1484.77 L2148.38 1480.07 Q2150.46 1481.2 2152.68 1481.76 Q2154.91 1482.32 2157.38 1482.32 Q2161.39 1482.32 2163.73 1480.21 Q2166.06 1478.1 2166.06 1474.49 Q2166.06 1470.88 2163.73 1468.77 Q2161.39 1466.67 2157.38 1466.67 Q2155.51 1466.67 2153.63 1467.08 Q2151.78 1467.5 2149.84 1468.38 L2149.84 1451.02 Z" fill="#000000" fill-rule="nonzero" fill-opacity="1" /><path clip-path="url(#clip090)" d="M2189.95 1454.1 Q2186.34 1454.1 2184.51 1457.66 Q2182.71 1461.2 2182.71 1468.33 Q2182.71 1475.44 2184.51 1479.01 Q2186.34 1482.55 2189.95 1482.55 Q2193.59 1482.55 2195.39 1479.01 Q2197.22 1475.44 2197.22 1468.33 Q2197.22 1461.2 2195.39 1457.66 Q2193.59 1454.1 2189.95 1454.1 M2189.95 1450.39 Q2195.76 1450.39 2198.82 1455 Q2201.9 1459.58 2201.9 1468.33 Q2201.9 1477.06 2198.82 1481.67 Q2195.76 1486.25 2189.95 1486.25 Q2184.14 1486.25 2181.06 1481.67 Q2178.01 1477.06 2178.01 1468.33 Q2178.01 1459.58 2181.06 1455 Q2184.14 1450.39 2189.95 1450.39 Z" fill="#000000" fill-rule="nonzero" fill-opacity="1" /><path clip-path="url(#clip090)" d="M1151.77 1520.52 L1158.26 1520.52 L1168.25 1560.69 L1178.22 1520.52 L1185.44 1520.52 L1195.43 1560.69 L1205.4 1520.52 L1211.92 1520.52 L1199.99 1568.04 L1191.9 1568.04 L1181.88 1526.79 L1171.75 1568.04 L1163.67 1568.04 L1151.77 1520.52 Z" fill="#000000" fill-rule="nonzero" fill-opacity="1" /><path clip-path="url(#clip090)" d="M1246.87 1548.76 L1246.87 1551.62 L1219.94 1551.62 Q1220.32 1557.67 1223.57 1560.85 Q1226.85 1564 1232.67 1564 Q1236.05 1564 1239.2 1563.17 Q1242.38 1562.35 1245.5 1560.69 L1245.5 1566.23 Q1242.35 1567.57 1239.04 1568.27 Q1235.73 1568.97 1232.32 1568.97 Q1223.79 1568.97 1218.8 1564 Q1213.83 1559.04 1213.83 1550.57 Q1213.83 1541.82 1218.54 1536.69 Q1223.28 1531.54 1231.31 1531.54 Q1238.5 1531.54 1242.67 1536.18 Q1246.87 1540.8 1246.87 1548.76 M1241.01 1547.04 Q1240.95 1542.23 1238.31 1539.37 Q1235.7 1536.5 1231.37 1536.5 Q1226.47 1536.5 1223.51 1539.27 Q1220.58 1542.04 1220.13 1547.07 L1241.01 1547.04 Z" fill="#000000" fill-rule="nonzero" fill-opacity="1" /><path clip-path="url(#clip090)" d="M1256.48 1532.4 L1262.34 1532.4 L1262.34 1568.04 L1256.48 1568.04 L1256.48 1532.4 M1256.48 1518.52 L1262.34 1518.52 L1262.34 1525.93 L1256.48 1525.93 L1256.48 1518.52 Z" fill="#000000" fill-rule="nonzero" fill-opacity="1" /><path clip-path="url(#clip090)" d="M1298.05 1549.81 Q1298.05 1543.44 1295.41 1539.94 Q1292.8 1536.44 1288.06 1536.44 Q1283.35 1536.44 1280.7 1539.94 Q1278.09 1543.44 1278.09 1549.81 Q1278.09 1556.14 1280.7 1559.64 Q1283.35 1563.14 1288.06 1563.14 Q1292.8 1563.14 1295.41 1559.64 Q1298.05 1556.14 1298.05 1549.81 M1303.91 1563.62 Q1303.91 1572.72 1299.86 1577.15 Q1295.82 1581.6 1287.48 1581.6 Q1284.4 1581.6 1281.66 1581.13 Q1278.92 1580.68 1276.34 1579.72 L1276.34 1574.03 Q1278.92 1575.43 1281.44 1576.1 Q1283.95 1576.76 1286.56 1576.76 Q1292.32 1576.76 1295.19 1573.74 Q1298.05 1570.75 1298.05 1564.67 L1298.05 1561.77 Q1296.24 1564.92 1293.4 1566.48 Q1290.57 1568.04 1286.62 1568.04 Q1280.07 1568.04 1276.06 1563.05 Q1272.05 1558.05 1272.05 1549.81 Q1272.05 1541.53 1276.06 1536.53 Q1280.07 1531.54 1286.62 1531.54 Q1290.57 1531.54 1293.4 1533.1 Q1296.24 1534.66 1298.05 1537.81 L1298.05 1532.4 L1303.91 1532.4 L1303.91 1563.62 Z" fill="#000000" fill-rule="nonzero" fill-opacity="1" /><path clip-path="url(#clip090)" d="M1345.6 1546.53 L1345.6 1568.04 L1339.75 1568.04 L1339.75 1546.72 Q1339.75 1541.66 1337.77 1539.14 Q1335.8 1536.63 1331.85 1536.63 Q1327.11 1536.63 1324.37 1539.65 Q1321.63 1542.68 1321.63 1547.9 L1321.63 1568.04 L1315.75 1568.04 L1315.75 1518.52 L1321.63 1518.52 L1321.63 1537.93 Q1323.74 1534.72 1326.57 1533.13 Q1329.43 1531.54 1333.16 1531.54 Q1339.3 1531.54 1342.45 1535.36 Q1345.6 1539.14 1345.6 1546.53 Z" fill="#000000" fill-rule="nonzero" fill-opacity="1" /><path clip-path="url(#clip090)" d="M1363.08 1522.27 L1363.08 1532.4 L1375.14 1532.4 L1375.14 1536.95 L1363.08 1536.95 L1363.08 1556.3 Q1363.08 1560.66 1364.25 1561.9 Q1365.46 1563.14 1369.12 1563.14 L1375.14 1563.14 L1375.14 1568.04 L1369.12 1568.04 Q1362.34 1568.04 1359.77 1565.53 Q1357.19 1562.98 1357.19 1556.3 L1357.19 1536.95 L1352.89 1536.95 L1352.89 1532.4 L1357.19 1532.4 L1357.19 1522.27 L1363.08 1522.27 Z" fill="#000000" fill-rule="nonzero" fill-opacity="1" /><polyline clip-path="url(#clip092)" style="stroke:#000000; stroke-linecap:round; stroke-linejoin:round; stroke-width:2; stroke-opacity:0.1; fill:none" points="174.149,1423.18 2352.76,1423.18 "/>
<polyline clip-path="url(#clip092)" style="stroke:#000000; stroke-linecap:round; stroke-linejoin:round; stroke-width:2; stroke-opacity:0.1; fill:none" points="174.149,989.944 2352.76,989.944 "/>
<polyline clip-path="url(#clip092)" style="stroke:#000000; stroke-linecap:round; stroke-linejoin:round; stroke-width:2; stroke-opacity:0.1; fill:none" points="174.149,556.708 2352.76,556.708 "/>
<polyline clip-path="url(#clip092)" style="stroke:#000000; stroke-linecap:round; stroke-linejoin:round; stroke-width:2; stroke-opacity:0.1; fill:none" points="174.149,123.472 2352.76,123.472 "/>
<polyline clip-path="url(#clip090)" style="stroke:#000000; stroke-linecap:round; stroke-linejoin:round; stroke-width:4; stroke-opacity:1; fill:none" points="174.149,1423.18 174.149,123.472 "/>
<polyline clip-path="url(#clip090)" style="stroke:#000000; stroke-linecap:round; stroke-linejoin:round; stroke-width:4; stroke-opacity:1; fill:none" points="174.149,1423.18 193.047,1423.18 "/>
<polyline clip-path="url(#clip090)" style="stroke:#000000; stroke-linecap:round; stroke-linejoin:round; stroke-width:4; stroke-opacity:1; fill:none" points="174.149,989.944 193.047,989.944 "/>
<polyline clip-path="url(#clip090)" style="stroke:#000000; stroke-linecap:round; stroke-linejoin:round; stroke-width:4; stroke-opacity:1; fill:none" points="174.149,556.708 193.047,556.708 "/>
<polyline clip-path="url(#clip090)" style="stroke:#000000; stroke-linecap:round; stroke-linejoin:round; stroke-width:4; stroke-opacity:1; fill:none" points="174.149,123.472 193.047,123.472 "/>
<path clip-path="url(#clip090)" d="M126.205 1408.98 Q122.593 1408.98 120.765 1412.54 Q118.959 1416.08 118.959 1423.21 Q118.959 1430.32 120.765 1433.89 Q122.593 1437.43 126.205 1437.43 Q129.839 1437.43 131.644 1433.89 Q133.473 1430.32 133.473 1423.21 Q133.473 1416.08 131.644 1412.54 Q129.839 1408.98 126.205 1408.98 M126.205 1405.27 Q132.015 1405.27 135.07 1409.88 Q138.149 1414.46 138.149 1423.21 Q138.149 1431.94 135.07 1436.55 Q132.015 1441.13 126.205 1441.13 Q120.394 1441.13 117.316 1436.55 Q114.26 1431.94 114.26 1423.21 Q114.26 1414.46 117.316 1409.88 Q120.394 1405.27 126.205 1405.27 Z" fill="#000000" fill-rule="nonzero" fill-opacity="1" /><path clip-path="url(#clip090)" d="M118.242 1003.29 L125.88 1003.29 L125.88 976.923 L117.57 978.59 L117.57 974.331 L125.834 972.664 L130.51 972.664 L130.51 1003.29 L138.149 1003.29 L138.149 1007.22 L118.242 1007.22 L118.242 1003.29 Z" fill="#000000" fill-rule="nonzero" fill-opacity="1" /><path clip-path="url(#clip090)" d="M121.83 570.053 L138.149 570.053 L138.149 573.988 L116.205 573.988 L116.205 570.053 Q118.867 567.298 123.45 562.669 Q128.056 558.016 129.237 556.673 Q131.482 554.15 132.362 552.414 Q133.265 550.655 133.265 548.965 Q133.265 546.21 131.32 544.474 Q129.399 542.738 126.297 542.738 Q124.098 542.738 121.644 543.502 Q119.214 544.266 116.436 545.817 L116.436 541.095 Q119.26 539.96 121.714 539.382 Q124.168 538.803 126.205 538.803 Q131.575 538.803 134.769 541.488 Q137.964 544.173 137.964 548.664 Q137.964 550.794 137.154 552.715 Q136.367 554.613 134.26 557.206 Q133.681 557.877 130.58 561.095 Q127.478 564.289 121.83 570.053 Z" fill="#000000" fill-rule="nonzero" fill-opacity="1" /><path clip-path="url(#clip090)" d="M131.019 122.118 Q134.376 122.836 136.251 125.104 Q138.149 127.373 138.149 130.706 Q138.149 135.822 134.63 138.623 Q131.112 141.423 124.63 141.423 Q122.455 141.423 120.14 140.984 Q117.848 140.567 115.394 139.71 L115.394 135.197 Q117.339 136.331 119.654 136.91 Q121.968 137.488 124.492 137.488 Q128.89 137.488 131.181 135.752 Q133.496 134.016 133.496 130.706 Q133.496 127.65 131.343 125.937 Q129.214 124.201 125.394 124.201 L121.367 124.201 L121.367 120.359 L125.58 120.359 Q129.029 120.359 130.857 118.993 Q132.686 117.604 132.686 115.012 Q132.686 112.35 130.788 110.937 Q128.913 109.502 125.394 109.502 Q123.473 109.502 121.274 109.919 Q119.075 110.336 116.436 111.215 L116.436 107.049 Q119.098 106.308 121.413 105.937 Q123.751 105.567 125.811 105.567 Q131.135 105.567 134.237 107.998 Q137.339 110.405 137.339 114.525 Q137.339 117.396 135.695 119.386 Q134.052 121.354 131.019 122.118 Z" fill="#000000" fill-rule="nonzero" fill-opacity="1" /><path clip-path="url(#clip090)" d="M16.4842 877.087 L16.4842 870.658 L35.9632 870.658 L35.9632 847.295 L16.4842 847.295 L16.4842 840.866 L64.0042 840.866 L64.0042 847.295 L41.3741 847.295 L41.3741 870.658 L64.0042 870.658 L64.0042 877.087 L16.4842 877.087 Z" fill="#000000" fill-rule="nonzero" fill-opacity="1" /><path clip-path="url(#clip090)" d="M44.7161 797.834 L47.5806 797.834 L47.5806 824.761 Q53.6281 824.379 56.8109 821.132 Q59.9619 817.854 59.9619 812.029 Q59.9619 808.656 59.1344 805.505 Q58.3069 802.322 56.6518 799.203 L62.1899 799.203 Q63.5267 802.354 64.227 805.664 Q64.9272 808.974 64.9272 812.38 Q64.9272 820.91 59.9619 825.907 Q54.9967 830.872 46.5303 830.872 Q37.7774 830.872 32.6531 826.161 Q27.4968 821.419 27.4968 813.398 Q27.4968 806.205 32.1438 802.035 Q36.7589 797.834 44.7161 797.834 M42.9973 803.69 Q38.1912 803.754 35.3266 806.396 Q32.4621 809.006 32.4621 813.334 Q32.4621 818.236 35.2312 821.196 Q38.0002 824.124 43.0292 824.57 L42.9973 803.69 Z" fill="#000000" fill-rule="nonzero" fill-opacity="1" /><path clip-path="url(#clip090)" d="M28.3562 788.222 L28.3562 782.365 L64.0042 782.365 L64.0042 788.222 L28.3562 788.222 M14.479 788.222 L14.479 782.365 L21.895 782.365 L21.895 788.222 L14.479 788.222 Z" fill="#000000" fill-rule="nonzero" fill-opacity="1" /><path clip-path="url(#clip090)" d="M45.7664 746.654 Q39.4007 746.654 35.8996 749.295 Q32.3984 751.905 32.3984 756.648 Q32.3984 761.358 35.8996 764 Q39.4007 766.61 45.7664 766.61 Q52.1003 766.61 55.6014 764 Q59.1026 761.358 59.1026 756.648 Q59.1026 751.905 55.6014 749.295 Q52.1003 746.654 45.7664 746.654 M59.58 740.797 Q68.683 740.797 73.1071 744.839 Q77.5631 748.882 77.5631 757.221 Q77.5631 760.308 77.0857 763.045 Q76.6401 765.783 75.6852 768.361 L69.9879 768.361 Q71.3884 765.783 72.0568 763.268 Q72.7252 760.754 72.7252 758.144 Q72.7252 752.383 69.7015 749.518 Q66.7096 746.654 60.6303 746.654 L57.7339 746.654 Q60.885 748.468 62.4446 751.301 Q64.0042 754.133 64.0042 758.08 Q64.0042 764.637 59.0071 768.647 Q54.01 772.658 45.7664 772.658 Q37.491 772.658 32.4939 768.647 Q27.4968 764.637 27.4968 758.08 Q27.4968 754.133 29.0564 751.301 Q30.616 748.468 33.7671 746.654 L28.3562 746.654 L28.3562 740.797 L59.58 740.797 Z" fill="#000000" fill-rule="nonzero" fill-opacity="1" /><path clip-path="url(#clip090)" d="M42.4881 699.102 L64.0042 699.102 L64.0042 704.958 L42.679 704.958 Q37.6183 704.958 35.1038 706.932 Q32.5894 708.905 32.5894 712.852 Q32.5894 717.594 35.6131 720.331 Q38.6368 723.069 43.8567 723.069 L64.0042 723.069 L64.0042 728.957 L14.479 728.957 L14.479 723.069 L33.8944 723.069 Q30.6797 720.968 29.0883 718.135 Q27.4968 715.271 27.4968 711.547 Q27.4968 705.404 31.3163 702.253 Q35.1038 699.102 42.4881 699.102 Z" fill="#000000" fill-rule="nonzero" fill-opacity="1" /><path clip-path="url(#clip090)" d="M18.2347 681.628 L28.3562 681.628 L28.3562 669.565 L32.9077 669.565 L32.9077 681.628 L52.2594 681.628 Q56.6199 681.628 57.8613 680.45 Q59.1026 679.241 59.1026 675.581 L59.1026 669.565 L64.0042 669.565 L64.0042 675.581 Q64.0042 682.36 61.4897 684.938 Q58.9434 687.516 52.2594 687.516 L32.9077 687.516 L32.9077 691.813 L28.3562 691.813 L28.3562 687.516 L18.2347 687.516 L18.2347 681.628 Z" fill="#000000" fill-rule="nonzero" fill-opacity="1" /><path clip-path="url(#clip090)" d="M428.075 12.096 L436.258 12.096 L436.258 36.8875 L465.991 36.8875 L465.991 12.096 L474.174 12.096 L474.174 72.576 L465.991 72.576 L465.991 43.7741 L436.258 43.7741 L436.258 72.576 L428.075 72.576 L428.075 12.096 Z" fill="#000000" fill-rule="nonzero" fill-opacity="1" /><path clip-path="url(#clip090)" d="M528.942 48.0275 L528.942 51.6733 L494.672 51.6733 Q495.158 59.3701 499.29 63.421 Q503.462 67.4314 510.875 67.4314 Q515.169 67.4314 519.18 66.3781 Q523.231 65.3249 527.201 63.2184 L527.201 70.267 Q523.19 71.9684 518.977 72.8596 Q514.764 73.7508 510.43 73.7508 Q499.573 73.7508 493.213 67.4314 Q486.894 61.1119 486.894 50.3365 Q486.894 39.1965 492.889 32.6746 Q498.925 26.1121 509.134 26.1121 Q518.289 26.1121 523.595 32.0264 Q528.942 37.9003 528.942 48.0275 M521.489 45.84 Q521.408 39.7232 518.046 36.0774 Q514.724 32.4315 509.215 32.4315 Q502.976 32.4315 499.209 35.9558 Q495.482 39.4801 494.915 45.8805 L521.489 45.84 Z" fill="#000000" fill-rule="nonzero" fill-opacity="1" /><path clip-path="url(#clip090)" d="M541.176 27.2059 L548.63 27.2059 L548.63 72.576 L541.176 72.576 L541.176 27.2059 M541.176 9.54393 L548.63 9.54393 L548.63 18.9825 L541.176 18.9825 L541.176 9.54393 Z" fill="#000000" fill-rule="nonzero" fill-opacity="1" /><path clip-path="url(#clip090)" d="M594.081 49.3643 Q594.081 41.2625 590.719 36.8065 Q587.397 32.3505 581.361 32.3505 Q575.366 32.3505 572.004 36.8065 Q568.682 41.2625 568.682 49.3643 Q568.682 57.4256 572.004 61.8816 Q575.366 66.3376 581.361 66.3376 Q587.397 66.3376 590.719 61.8816 Q594.081 57.4256 594.081 49.3643 M601.535 66.9452 Q601.535 78.5308 596.39 84.1616 Q591.245 89.8329 580.632 89.8329 Q576.703 89.8329 573.219 89.2252 Q569.735 88.6581 566.454 87.4428 L566.454 80.1917 Q569.735 81.9741 572.935 82.8248 Q576.135 83.6755 579.457 83.6755 Q586.789 83.6755 590.435 79.8271 Q594.081 76.0193 594.081 68.282 L594.081 64.5957 Q591.772 68.6061 588.167 70.5911 Q584.561 72.576 579.538 72.576 Q571.193 72.576 566.089 66.2161 Q560.985 59.8562 560.985 49.3643 Q560.985 38.832 566.089 32.472 Q571.193 26.1121 579.538 26.1121 Q584.561 26.1121 588.167 28.0971 Q591.772 30.082 594.081 34.0924 L594.081 27.2059 L601.535 27.2059 L601.535 66.9452 Z" fill="#000000" fill-rule="nonzero" fill-opacity="1" /><path clip-path="url(#clip090)" d="M654.602 45.1919 L654.602 72.576 L647.148 72.576 L647.148 45.4349 Q647.148 38.994 644.636 35.7938 Q642.125 32.5936 637.102 32.5936 Q631.066 32.5936 627.582 36.4419 Q624.098 40.2903 624.098 46.9338 L624.098 72.576 L616.604 72.576 L616.604 9.54393 L624.098 9.54393 L624.098 34.2544 Q626.772 30.163 630.377 28.1376 Q634.023 26.1121 638.762 26.1121 Q646.581 26.1121 650.591 30.9732 Q654.602 35.7938 654.602 45.1919 Z" fill="#000000" fill-rule="nonzero" fill-opacity="1" /><path clip-path="url(#clip090)" d="M676.841 14.324 L676.841 27.2059 L692.194 27.2059 L692.194 32.9987 L676.841 32.9987 L676.841 57.6282 Q676.841 63.1779 678.34 64.7578 Q679.879 66.3376 684.538 66.3376 L692.194 66.3376 L692.194 72.576 L684.538 72.576 Q675.909 72.576 672.628 69.3758 Q669.347 66.1351 669.347 57.6282 L669.347 32.9987 L663.878 32.9987 L663.878 27.2059 L669.347 27.2059 L669.347 14.324 L676.841 14.324 Z" fill="#000000" fill-rule="nonzero" fill-opacity="1" /><path clip-path="url(#clip090)" d="M723.021 27.2059 L730.921 27.2059 L745.099 65.2844 L759.277 27.2059 L767.176 27.2059 L750.162 72.576 L740.035 72.576 L723.021 27.2059 Z" fill="#000000" fill-rule="nonzero" fill-opacity="1" /><path clip-path="url(#clip090)" d="M806.389 28.5427 L806.389 35.5912 Q803.229 33.9709 799.826 33.1607 Q796.424 32.3505 792.778 32.3505 Q787.228 32.3505 784.433 34.0519 Q781.678 35.7533 781.678 39.156 Q781.678 41.7486 783.663 43.2475 Q785.648 44.7058 791.644 46.0426 L794.196 46.6097 Q802.135 48.3111 805.457 51.4303 Q808.819 54.509 808.819 60.0587 Q808.819 66.3781 803.796 70.0644 Q798.814 73.7508 790.064 73.7508 Q786.418 73.7508 782.448 73.0216 Q778.519 72.3329 774.144 70.9151 L774.144 63.2184 Q778.276 65.3654 782.286 66.4591 Q786.296 67.5124 790.226 67.5124 Q795.492 67.5124 798.328 65.73 Q801.163 63.9071 801.163 60.6258 Q801.163 57.5877 799.097 55.9673 Q797.072 54.3469 790.145 52.8481 L787.552 52.2405 Q780.625 50.7821 777.546 47.7845 Q774.468 44.7463 774.468 39.4801 Q774.468 33.0797 779.005 29.5959 Q783.542 26.1121 791.887 26.1121 Q796.019 26.1121 799.664 26.7198 Q803.31 27.3274 806.389 28.5427 Z" fill="#000000" fill-rule="nonzero" fill-opacity="1" /><path clip-path="url(#clip090)" d="M841.996 12.096 L850.26 12.096 L862.98 63.2184 L875.659 12.096 L884.855 12.096 L897.575 63.2184 L910.254 12.096 L918.558 12.096 L903.368 72.576 L893.078 72.576 L880.318 20.0763 L867.436 72.576 L857.147 72.576 L841.996 12.096 Z" fill="#000000" fill-rule="nonzero" fill-opacity="1" /><path clip-path="url(#clip090)" d="M963.037 48.0275 L963.037 51.6733 L928.767 51.6733 Q929.253 59.3701 933.385 63.421 Q937.557 67.4314 944.97 67.4314 Q949.264 67.4314 953.275 66.3781 Q957.326 65.3249 961.295 63.2184 L961.295 70.267 Q957.285 71.9684 953.072 72.8596 Q948.859 73.7508 944.525 73.7508 Q933.668 73.7508 927.308 67.4314 Q920.989 61.1119 920.989 50.3365 Q920.989 39.1965 926.984 32.6746 Q933.02 26.1121 943.228 26.1121 Q952.383 26.1121 957.69 32.0264 Q963.037 37.9003 963.037 48.0275 M955.584 45.84 Q955.503 39.7232 952.14 36.0774 Q948.819 32.4315 943.309 32.4315 Q937.071 32.4315 933.304 35.9558 Q929.577 39.4801 929.01 45.8805 L955.584 45.84 Z" fill="#000000" fill-rule="nonzero" fill-opacity="1" /><path clip-path="url(#clip090)" d="M975.271 27.2059 L982.725 27.2059 L982.725 72.576 L975.271 72.576 L975.271 27.2059 M975.271 9.54393 L982.725 9.54393 L982.725 18.9825 L975.271 18.9825 L975.271 9.54393 Z" fill="#000000" fill-rule="nonzero" fill-opacity="1" /><path clip-path="url(#clip090)" d="M1028.18 49.3643 Q1028.18 41.2625 1024.81 36.8065 Q1021.49 32.3505 1015.46 32.3505 Q1009.46 32.3505 1006.1 36.8065 Q1002.78 41.2625 1002.78 49.3643 Q1002.78 57.4256 1006.1 61.8816 Q1009.46 66.3376 1015.46 66.3376 Q1021.49 66.3376 1024.81 61.8816 Q1028.18 57.4256 1028.18 49.3643 M1035.63 66.9452 Q1035.63 78.5308 1030.48 84.1616 Q1025.34 89.8329 1014.73 89.8329 Q1010.8 89.8329 1007.31 89.2252 Q1003.83 88.6581 1000.55 87.4428 L1000.55 80.1917 Q1003.83 81.9741 1007.03 82.8248 Q1010.23 83.6755 1013.55 83.6755 Q1020.88 83.6755 1024.53 79.8271 Q1028.18 76.0193 1028.18 68.282 L1028.18 64.5957 Q1025.87 68.6061 1022.26 70.5911 Q1018.66 72.576 1013.63 72.576 Q1005.29 72.576 1000.18 66.2161 Q995.08 59.8562 995.08 49.3643 Q995.08 38.832 1000.18 32.472 Q1005.29 26.1121 1013.63 26.1121 Q1018.66 26.1121 1022.26 28.0971 Q1025.87 30.082 1028.18 34.0924 L1028.18 27.2059 L1035.63 27.2059 L1035.63 66.9452 Z" fill="#000000" fill-rule="nonzero" fill-opacity="1" /><path clip-path="url(#clip090)" d="M1088.7 45.1919 L1088.7 72.576 L1081.24 72.576 L1081.24 45.4349 Q1081.24 38.994 1078.73 35.7938 Q1076.22 32.5936 1071.2 32.5936 Q1065.16 32.5936 1061.68 36.4419 Q1058.19 40.2903 1058.19 46.9338 L1058.19 72.576 L1050.7 72.576 L1050.7 9.54393 L1058.19 9.54393 L1058.19 34.2544 Q1060.87 30.163 1064.47 28.1376 Q1068.12 26.1121 1072.86 26.1121 Q1080.68 26.1121 1084.69 30.9732 Q1088.7 35.7938 1088.7 45.1919 Z" fill="#000000" fill-rule="nonzero" fill-opacity="1" /><path clip-path="url(#clip090)" d="M1110.94 14.324 L1110.94 27.2059 L1126.29 27.2059 L1126.29 32.9987 L1110.94 32.9987 L1110.94 57.6282 Q1110.94 63.1779 1112.43 64.7578 Q1113.97 66.3376 1118.63 66.3376 L1126.29 66.3376 L1126.29 72.576 L1118.63 72.576 Q1110 72.576 1106.72 69.3758 Q1103.44 66.1351 1103.44 57.6282 L1103.44 32.9987 L1097.97 32.9987 L1097.97 27.2059 L1103.44 27.2059 L1103.44 14.324 L1110.94 14.324 Z" fill="#000000" fill-rule="nonzero" fill-opacity="1" /><path clip-path="url(#clip090)" d="M1180.04 32.4315 Q1174.05 32.4315 1170.57 37.1306 Q1167.08 41.7891 1167.08 49.9314 Q1167.08 58.0738 1170.52 62.7728 Q1174.01 67.4314 1180.04 67.4314 Q1186 67.4314 1189.48 62.7323 Q1192.97 58.0333 1192.97 49.9314 Q1192.97 41.8701 1189.48 37.1711 Q1186 32.4315 1180.04 32.4315 M1180.04 26.1121 Q1189.77 26.1121 1195.32 32.4315 Q1200.87 38.7509 1200.87 49.9314 Q1200.87 61.0714 1195.32 67.4314 Q1189.77 73.7508 1180.04 73.7508 Q1170.28 73.7508 1164.73 67.4314 Q1159.22 61.0714 1159.22 49.9314 Q1159.22 38.7509 1164.73 32.4315 Q1170.28 26.1121 1180.04 26.1121 Z" fill="#000000" fill-rule="nonzero" fill-opacity="1" /><path clip-path="url(#clip090)" d="M1236.19 9.54393 L1236.19 15.7418 L1229.06 15.7418 Q1225.05 15.7418 1223.47 17.3622 Q1221.93 18.9825 1221.93 23.1955 L1221.93 27.2059 L1234.2 27.2059 L1234.2 32.9987 L1221.93 32.9987 L1221.93 72.576 L1214.44 72.576 L1214.44 32.9987 L1207.31 32.9987 L1207.31 27.2059 L1214.44 27.2059 L1214.44 24.0462 Q1214.44 16.471 1217.96 13.0277 Q1221.49 9.54393 1229.14 9.54393 L1236.19 9.54393 Z" fill="#000000" fill-rule="nonzero" fill-opacity="1" /><path clip-path="url(#clip090)" d="M1305.38 14.0809 L1305.38 22.0612 Q1300.72 19.8332 1296.59 18.7395 Q1292.46 17.6457 1288.61 17.6457 Q1281.92 17.6457 1278.28 20.2383 Q1274.67 22.8309 1274.67 27.611 Q1274.67 31.6214 1277.06 33.6873 Q1279.49 35.7128 1286.22 36.9686 L1291.16 37.9813 Q1300.32 39.7232 1304.65 44.1387 Q1309.03 48.5136 1309.03 55.8863 Q1309.03 64.6767 1303.11 69.2137 Q1297.24 73.7508 1285.85 73.7508 Q1281.56 73.7508 1276.7 72.7785 Q1271.88 71.8063 1266.69 69.9024 L1266.69 61.4765 Q1271.68 64.2716 1276.46 65.6895 Q1281.24 67.1073 1285.85 67.1073 Q1292.86 67.1073 1296.67 64.3527 Q1300.48 61.598 1300.48 56.4939 Q1300.48 52.0379 1297.72 49.5264 Q1295.01 47.0148 1288.77 45.759 L1283.79 44.7868 Q1274.63 42.9639 1270.54 39.075 Q1266.45 35.1862 1266.45 28.2591 Q1266.45 20.2383 1272.08 15.6203 Q1277.75 11.0023 1287.68 11.0023 Q1291.93 11.0023 1296.35 11.7719 Q1300.76 12.5416 1305.38 14.0809 Z" fill="#000000" fill-rule="nonzero" fill-opacity="1" /><path clip-path="url(#clip090)" d="M1328.83 14.324 L1328.83 27.2059 L1344.19 27.2059 L1344.19 32.9987 L1328.83 32.9987 L1328.83 57.6282 Q1328.83 63.1779 1330.33 64.7578 Q1331.87 66.3376 1336.53 66.3376 L1344.19 66.3376 L1344.19 72.576 L1336.53 72.576 Q1327.9 72.576 1324.62 69.3758 Q1321.34 66.1351 1321.34 57.6282 L1321.34 32.9987 L1315.87 32.9987 L1315.87 27.2059 L1321.34 27.2059 L1321.34 14.324 L1328.83 14.324 Z" fill="#000000" fill-rule="nonzero" fill-opacity="1" /><path clip-path="url(#clip090)" d="M1374.61 49.7694 Q1365.58 49.7694 1362.09 51.8354 Q1358.61 53.9013 1358.61 58.8839 Q1358.61 62.8538 1361.2 65.2034 Q1363.83 67.5124 1368.33 67.5124 Q1374.53 67.5124 1378.26 63.1374 Q1382.02 58.7219 1382.02 51.4303 L1382.02 49.7694 L1374.61 49.7694 M1389.48 46.6907 L1389.48 72.576 L1382.02 72.576 L1382.02 65.6895 Q1379.47 69.8214 1375.66 71.8063 Q1371.85 73.7508 1366.35 73.7508 Q1359.38 73.7508 1355.25 69.8619 Q1351.15 65.9325 1351.15 59.3701 Q1351.15 51.7138 1356.26 47.825 Q1361.4 43.9361 1371.57 43.9361 L1382.02 43.9361 L1382.02 43.2069 Q1382.02 38.0623 1378.62 35.2672 Q1375.26 32.4315 1369.14 32.4315 Q1365.25 32.4315 1361.57 33.3632 Q1357.88 34.295 1354.48 36.1584 L1354.48 29.2718 Q1358.57 27.692 1362.42 26.9223 Q1366.26 26.1121 1369.91 26.1121 Q1379.75 26.1121 1384.61 31.2163 Q1389.48 36.3204 1389.48 46.6907 Z" fill="#000000" fill-rule="nonzero" fill-opacity="1" /><path clip-path="url(#clip090)" d="M1431.12 34.1734 Q1429.86 33.4443 1428.36 33.1202 Q1426.91 32.7556 1425.12 32.7556 Q1418.8 32.7556 1415.4 36.8875 Q1412.04 40.9789 1412.04 48.6757 L1412.04 72.576 L1404.55 72.576 L1404.55 27.2059 L1412.04 27.2059 L1412.04 34.2544 Q1414.39 30.1225 1418.16 28.1376 Q1421.92 26.1121 1427.31 26.1121 Q1428.08 26.1121 1429.01 26.2337 Q1429.94 26.3147 1431.08 26.5172 L1431.12 34.1734 Z" fill="#000000" fill-rule="nonzero" fill-opacity="1" /><path clip-path="url(#clip090)" d="M1433.87 12.096 L1442.14 12.096 L1454.86 63.2184 L1467.54 12.096 L1476.73 12.096 L1489.45 63.2184 L1502.13 12.096 L1510.44 12.096 L1495.25 72.576 L1484.96 72.576 L1472.2 20.0763 L1459.31 72.576 L1449.02 72.576 L1433.87 12.096 Z" fill="#000000" fill-rule="nonzero" fill-opacity="1" /><path clip-path="url(#clip090)" d="M1536.28 49.7694 Q1527.25 49.7694 1523.76 51.8354 Q1520.28 53.9013 1520.28 58.8839 Q1520.28 62.8538 1522.87 65.2034 Q1525.51 67.5124 1530 67.5124 Q1536.2 67.5124 1539.93 63.1374 Q1543.69 58.7219 1543.69 51.4303 L1543.69 49.7694 L1536.28 49.7694 M1551.15 46.6907 L1551.15 72.576 L1543.69 72.576 L1543.69 65.6895 Q1541.14 69.8214 1537.33 71.8063 Q1533.53 73.7508 1528.02 73.7508 Q1521.05 73.7508 1516.92 69.8619 Q1512.83 65.9325 1512.83 59.3701 Q1512.83 51.7138 1517.93 47.825 Q1523.07 43.9361 1533.24 43.9361 L1543.69 43.9361 L1543.69 43.2069 Q1543.69 38.0623 1540.29 35.2672 Q1536.93 32.4315 1530.81 32.4315 Q1526.92 32.4315 1523.24 33.3632 Q1519.55 34.295 1516.15 36.1584 L1516.15 29.2718 Q1520.24 27.692 1524.09 26.9223 Q1527.94 26.1121 1531.58 26.1121 Q1541.43 26.1121 1546.29 31.2163 Q1551.15 36.3204 1551.15 46.6907 Z" fill="#000000" fill-rule="nonzero" fill-opacity="1" /><path clip-path="url(#clip090)" d="M1592.79 34.1734 Q1591.54 33.4443 1590.04 33.1202 Q1588.58 32.7556 1586.8 32.7556 Q1580.48 32.7556 1577.07 36.8875 Q1573.71 40.9789 1573.71 48.6757 L1573.71 72.576 L1566.22 72.576 L1566.22 27.2059 L1573.71 27.2059 L1573.71 34.2544 Q1576.06 30.1225 1579.83 28.1376 Q1583.6 26.1121 1588.98 26.1121 Q1589.75 26.1121 1590.68 26.2337 Q1591.62 26.3147 1592.75 26.5172 L1592.79 34.1734 Z" fill="#000000" fill-rule="nonzero" fill-opacity="1" /><path clip-path="url(#clip090)" d="M1629.53 28.5427 L1629.53 35.5912 Q1626.37 33.9709 1622.97 33.1607 Q1619.57 32.3505 1615.92 32.3505 Q1610.37 32.3505 1607.58 34.0519 Q1604.82 35.7533 1604.82 39.156 Q1604.82 41.7486 1606.81 43.2475 Q1608.79 44.7058 1614.79 46.0426 L1617.34 46.6097 Q1625.28 48.3111 1628.6 51.4303 Q1631.96 54.509 1631.96 60.0587 Q1631.96 66.3781 1626.94 70.0644 Q1621.96 73.7508 1613.21 73.7508 Q1609.56 73.7508 1605.59 73.0216 Q1601.66 72.3329 1597.29 70.9151 L1597.29 63.2184 Q1601.42 65.3654 1605.43 66.4591 Q1609.44 67.5124 1613.37 67.5124 Q1618.64 67.5124 1621.47 65.73 Q1624.31 63.9071 1624.31 60.6258 Q1624.31 57.5877 1622.24 55.9673 Q1620.22 54.3469 1613.29 52.8481 L1610.7 52.2405 Q1603.77 50.7821 1600.69 47.7845 Q1597.61 44.7463 1597.61 39.4801 Q1597.61 33.0797 1602.15 29.5959 Q1606.69 26.1121 1615.03 26.1121 Q1619.16 26.1121 1622.81 26.7198 Q1626.45 27.3274 1629.53 28.5427 Z" fill="#000000" fill-rule="nonzero" fill-opacity="1" /><path clip-path="url(#clip090)" d="M1702.85 28.9478 L1702.85 35.9153 Q1699.69 34.1734 1696.49 33.3227 Q1693.33 32.4315 1690.09 32.4315 Q1682.84 32.4315 1678.83 37.0496 Q1674.82 41.6271 1674.82 49.9314 Q1674.82 58.2358 1678.83 62.8538 Q1682.84 67.4314 1690.09 67.4314 Q1693.33 67.4314 1696.49 66.5807 Q1699.69 65.6895 1702.85 63.9476 L1702.85 70.8341 Q1699.73 72.2924 1696.37 73.0216 Q1693.05 73.7508 1689.28 73.7508 Q1679.03 73.7508 1673 67.3098 Q1666.96 60.8689 1666.96 49.9314 Q1666.96 38.832 1673.04 32.472 Q1679.16 26.1121 1689.77 26.1121 Q1693.21 26.1121 1696.49 26.8413 Q1699.78 27.5299 1702.85 28.9478 Z" fill="#000000" fill-rule="nonzero" fill-opacity="1" /><path clip-path="url(#clip090)" d="M1753.53 45.1919 L1753.53 72.576 L1746.08 72.576 L1746.08 45.4349 Q1746.08 38.994 1743.57 35.7938 Q1741.05 32.5936 1736.03 32.5936 Q1730 32.5936 1726.51 36.4419 Q1723.03 40.2903 1723.03 46.9338 L1723.03 72.576 L1715.53 72.576 L1715.53 9.54393 L1723.03 9.54393 L1723.03 34.2544 Q1725.7 30.163 1729.31 28.1376 Q1732.95 26.1121 1737.69 26.1121 Q1745.51 26.1121 1749.52 30.9732 Q1753.53 35.7938 1753.53 45.1919 Z" fill="#000000" fill-rule="nonzero" fill-opacity="1" /><path clip-path="url(#clip090)" d="M1789.02 49.7694 Q1779.98 49.7694 1776.5 51.8354 Q1773.02 53.9013 1773.02 58.8839 Q1773.02 62.8538 1775.61 65.2034 Q1778.24 67.5124 1782.74 67.5124 Q1788.94 67.5124 1792.66 63.1374 Q1796.43 58.7219 1796.43 51.4303 L1796.43 49.7694 L1789.02 49.7694 M1803.88 46.6907 L1803.88 72.576 L1796.43 72.576 L1796.43 65.6895 Q1793.88 69.8214 1790.07 71.8063 Q1786.26 73.7508 1780.75 73.7508 Q1773.79 73.7508 1769.65 69.8619 Q1765.56 65.9325 1765.56 59.3701 Q1765.56 51.7138 1770.67 47.825 Q1775.81 43.9361 1785.98 43.9361 L1796.43 43.9361 L1796.43 43.2069 Q1796.43 38.0623 1793.03 35.2672 Q1789.66 32.4315 1783.55 32.4315 Q1779.66 32.4315 1775.97 33.3632 Q1772.29 34.295 1768.88 36.1584 L1768.88 29.2718 Q1772.98 27.692 1776.82 26.9223 Q1780.67 26.1121 1784.32 26.1121 Q1794.16 26.1121 1799.02 31.2163 Q1803.88 36.3204 1803.88 46.6907 Z" fill="#000000" fill-rule="nonzero" fill-opacity="1" /><path clip-path="url(#clip090)" d="M1845.53 34.1734 Q1844.27 33.4443 1842.77 33.1202 Q1841.31 32.7556 1839.53 32.7556 Q1833.21 32.7556 1829.81 36.8875 Q1826.45 40.9789 1826.45 48.6757 L1826.45 72.576 L1818.95 72.576 L1818.95 27.2059 L1826.45 27.2059 L1826.45 34.2544 Q1828.8 30.1225 1832.56 28.1376 Q1836.33 26.1121 1841.72 26.1121 Q1842.49 26.1121 1843.42 26.2337 Q1844.35 26.3147 1845.49 26.5172 L1845.53 34.1734 Z" fill="#000000" fill-rule="nonzero" fill-opacity="1" /><path clip-path="url(#clip090)" d="M1873.96 49.7694 Q1864.93 49.7694 1861.45 51.8354 Q1857.96 53.9013 1857.96 58.8839 Q1857.96 62.8538 1860.56 65.2034 Q1863.19 67.5124 1867.69 67.5124 Q1873.88 67.5124 1877.61 63.1374 Q1881.38 58.7219 1881.38 51.4303 L1881.38 49.7694 L1873.96 49.7694 M1888.83 46.6907 L1888.83 72.576 L1881.38 72.576 L1881.38 65.6895 Q1878.83 69.8214 1875.02 71.8063 Q1871.21 73.7508 1865.7 73.7508 Q1858.73 73.7508 1854.6 69.8619 Q1850.51 65.9325 1850.51 59.3701 Q1850.51 51.7138 1855.61 47.825 Q1860.76 43.9361 1870.93 43.9361 L1881.38 43.9361 L1881.38 43.2069 Q1881.38 38.0623 1877.97 35.2672 Q1874.61 32.4315 1868.5 32.4315 Q1864.61 32.4315 1860.92 33.3632 Q1857.23 34.295 1853.83 36.1584 L1853.83 29.2718 Q1857.92 27.692 1861.77 26.9223 Q1865.62 26.1121 1869.27 26.1121 Q1879.11 26.1121 1883.97 31.2163 Q1888.83 36.3204 1888.83 46.6907 Z" fill="#000000" fill-rule="nonzero" fill-opacity="1" /><path clip-path="url(#clip090)" d="M1936.83 28.9478 L1936.83 35.9153 Q1933.67 34.1734 1930.47 33.3227 Q1927.31 32.4315 1924.07 32.4315 Q1916.82 32.4315 1912.81 37.0496 Q1908.8 41.6271 1908.8 49.9314 Q1908.8 58.2358 1912.81 62.8538 Q1916.82 67.4314 1924.07 67.4314 Q1927.31 67.4314 1930.47 66.5807 Q1933.67 65.6895 1936.83 63.9476 L1936.83 70.8341 Q1933.72 72.2924 1930.35 73.0216 Q1927.03 73.7508 1923.26 73.7508 Q1913.01 73.7508 1906.98 67.3098 Q1900.94 60.8689 1900.94 49.9314 Q1900.94 38.832 1907.02 32.472 Q1913.14 26.1121 1923.75 26.1121 Q1927.19 26.1121 1930.47 26.8413 Q1933.76 27.5299 1936.83 28.9478 Z" fill="#000000" fill-rule="nonzero" fill-opacity="1" /><path clip-path="url(#clip090)" d="M1957.17 14.324 L1957.17 27.2059 L1972.52 27.2059 L1972.52 32.9987 L1957.17 32.9987 L1957.17 57.6282 Q1957.17 63.1779 1958.67 64.7578 Q1960.21 66.3376 1964.87 66.3376 L1972.52 66.3376 L1972.52 72.576 L1964.87 72.576 Q1956.24 72.576 1952.96 69.3758 Q1949.68 66.1351 1949.68 57.6282 L1949.68 32.9987 L1944.21 32.9987 L1944.21 27.2059 L1949.68 27.2059 L1949.68 14.324 L1957.17 14.324 Z" fill="#000000" fill-rule="nonzero" fill-opacity="1" /><path clip-path="url(#clip090)" d="M2021.13 48.0275 L2021.13 51.6733 L1986.86 51.6733 Q1987.35 59.3701 1991.48 63.421 Q1995.65 67.4314 2003.07 67.4314 Q2007.36 67.4314 2011.37 66.3781 Q2015.42 65.3249 2019.39 63.2184 L2019.39 70.267 Q2015.38 71.9684 2011.17 72.8596 Q2006.96 73.7508 2002.62 73.7508 Q1991.76 73.7508 1985.4 67.4314 Q1979.09 61.1119 1979.09 50.3365 Q1979.09 39.1965 1985.08 32.6746 Q1991.12 26.1121 2001.32 26.1121 Q2010.48 26.1121 2015.79 32.0264 Q2021.13 37.9003 2021.13 48.0275 M2013.68 45.84 Q2013.6 39.7232 2010.24 36.0774 Q2006.91 32.4315 2001.41 32.4315 Q1995.17 32.4315 1991.4 35.9558 Q1987.67 39.4801 1987.11 45.8805 L2013.68 45.84 Z" fill="#000000" fill-rule="nonzero" fill-opacity="1" /><path clip-path="url(#clip090)" d="M2059.66 34.1734 Q2058.4 33.4443 2056.9 33.1202 Q2055.44 32.7556 2053.66 32.7556 Q2047.34 32.7556 2043.94 36.8875 Q2040.58 40.9789 2040.58 48.6757 L2040.58 72.576 L2033.08 72.576 L2033.08 27.2059 L2040.58 27.2059 L2040.58 34.2544 Q2042.93 30.1225 2046.69 28.1376 Q2050.46 26.1121 2055.85 26.1121 Q2056.62 26.1121 2057.55 26.2337 Q2058.48 26.3147 2059.62 26.5172 L2059.66 34.1734 Z" fill="#000000" fill-rule="nonzero" fill-opacity="1" /><path clip-path="url(#clip090)" d="M2096.4 28.5427 L2096.4 35.5912 Q2093.24 33.9709 2089.84 33.1607 Q2086.43 32.3505 2082.79 32.3505 Q2077.24 32.3505 2074.44 34.0519 Q2071.69 35.7533 2071.69 39.156 Q2071.69 41.7486 2073.67 43.2475 Q2075.66 44.7058 2081.65 46.0426 L2084.21 46.6097 Q2092.15 48.3111 2095.47 51.4303 Q2098.83 54.509 2098.83 60.0587 Q2098.83 66.3781 2093.81 70.0644 Q2088.82 73.7508 2080.07 73.7508 Q2076.43 73.7508 2072.46 73.0216 Q2068.53 72.3329 2064.15 70.9151 L2064.15 63.2184 Q2068.29 65.3654 2072.3 66.4591 Q2076.31 67.5124 2080.24 67.5124 Q2085.5 67.5124 2088.34 65.73 Q2091.17 63.9071 2091.17 60.6258 Q2091.17 57.5877 2089.11 55.9673 Q2087.08 54.3469 2080.16 52.8481 L2077.56 52.2405 Q2070.64 50.7821 2067.56 47.7845 Q2064.48 44.7463 2064.48 39.4801 Q2064.48 33.0797 2069.02 29.5959 Q2073.55 26.1121 2081.9 26.1121 Q2086.03 26.1121 2089.67 26.7198 Q2093.32 27.3274 2096.4 28.5427 Z" fill="#000000" fill-rule="nonzero" fill-opacity="1" /><circle clip-path="url(#clip092)" cx="1205.56" cy="608.696" r="14.4" fill="#009af9" fill-rule="evenodd" fill-opacity="1" stroke="#000000" stroke-opacity="1" stroke-width="3.2"/>
<circle clip-path="url(#clip092)" cx="641.076" cy="708.341" r="14.4" fill="#009af9" fill-rule="evenodd" fill-opacity="1" stroke="#000000" stroke-opacity="1" stroke-width="3.2"/>
<circle clip-path="url(#clip092)" cx="1104.24" cy="678.014" r="14.4" fill="#009af9" fill-rule="evenodd" fill-opacity="1" stroke="#000000" stroke-opacity="1" stroke-width="3.2"/>
<circle clip-path="url(#clip092)" cx="698.971" cy="773.326" r="14.4" fill="#009af9" fill-rule="evenodd" fill-opacity="1" stroke="#000000" stroke-opacity="1" stroke-width="3.2"/>
<circle clip-path="url(#clip092)" cx="1270.69" cy="587.035" r="14.4" fill="#009af9" fill-rule="evenodd" fill-opacity="1" stroke="#000000" stroke-opacity="1" stroke-width="3.2"/>
<circle clip-path="url(#clip092)" cx="1104.24" cy="634.69" r="14.4" fill="#009af9" fill-rule="evenodd" fill-opacity="1" stroke="#000000" stroke-opacity="1" stroke-width="3.2"/>
<circle clip-path="url(#clip092)" cx="1147.66" cy="643.355" r="14.4" fill="#009af9" fill-rule="evenodd" fill-opacity="1" stroke="#000000" stroke-opacity="1" stroke-width="3.2"/>
<circle clip-path="url(#clip092)" cx="1075.29" cy="673.682" r="14.4" fill="#009af9" fill-rule="evenodd" fill-opacity="1" stroke="#000000" stroke-opacity="1" stroke-width="3.2"/>
<circle clip-path="url(#clip092)" cx="452.916" cy="1007.27" r="14.4" fill="#009af9" fill-rule="evenodd" fill-opacity="1" stroke="#000000" stroke-opacity="1" stroke-width="3.2"/>
<circle clip-path="url(#clip092)" cx="1075.29" cy="699.676" r="14.4" fill="#009af9" fill-rule="evenodd" fill-opacity="1" stroke="#000000" stroke-opacity="1" stroke-width="3.2"/>
<circle clip-path="url(#clip092)" cx="235.808" cy="1137.24" r="14.4" fill="#009af9" fill-rule="evenodd" fill-opacity="1" stroke="#000000" stroke-opacity="1" stroke-width="3.2"/>
<circle clip-path="url(#clip092)" cx="1147.66" cy="665.017" r="14.4" fill="#009af9" fill-rule="evenodd" fill-opacity="1" stroke="#000000" stroke-opacity="1" stroke-width="3.2"/>
<circle clip-path="url(#clip092)" cx="1234.5" cy="587.035" r="14.4" fill="#009af9" fill-rule="evenodd" fill-opacity="1" stroke="#000000" stroke-opacity="1" stroke-width="3.2"/>
<circle clip-path="url(#clip092)" cx="1610.83" cy="435.402" r="14.4" fill="#009af9" fill-rule="evenodd" fill-opacity="1" stroke="#000000" stroke-opacity="1" stroke-width="3.2"/>
<circle clip-path="url(#clip092)" cx="1133.19" cy="652.02" r="14.4" fill="#009af9" fill-rule="evenodd" fill-opacity="1" stroke="#000000" stroke-opacity="1" stroke-width="3.2"/>
<circle clip-path="url(#clip092)" cx="1118.71" cy="630.358" r="14.4" fill="#009af9" fill-rule="evenodd" fill-opacity="1" stroke="#000000" stroke-opacity="1" stroke-width="3.2"/>
<circle clip-path="url(#clip092)" cx="1133.19" cy="630.358" r="14.4" fill="#009af9" fill-rule="evenodd" fill-opacity="1" stroke="#000000" stroke-opacity="1" stroke-width="3.2"/>
<circle clip-path="url(#clip092)" cx="2291.1" cy="487.39" r="14.4" fill="#009af9" fill-rule="evenodd" fill-opacity="1" stroke="#000000" stroke-opacity="1" stroke-width="3.2"/>
<circle clip-path="url(#clip092)" cx="713.445" cy="989.944" r="14.4" fill="#009af9" fill-rule="evenodd" fill-opacity="1" stroke="#000000" stroke-opacity="1" stroke-width="3.2"/>
</svg>
