<?xml version="1.0" encoding="utf-8"?>
<svg xmlns="http://www.w3.org/2000/svg" xmlns:xlink="http://www.w3.org/1999/xlink" width="600" height="400" viewBox="0 0 2400 1600">
<defs>
  <clipPath id="clip780">
    <rect x="0" y="0" width="2400" height="1600"/>
  </clipPath>
</defs>
<path clip-path="url(#clip780)" d="M0 1600 L2400 1600 L2400 0 L0 0  Z" fill="#ffffff" fill-rule="evenodd" fill-opacity="1"/>
<defs>
  <clipPath id="clip781">
    <rect x="480" y="0" width="1681" height="1600"/>
  </clipPath>
</defs>
<path clip-path="url(#clip780)" d="M138.959 1423.18 L2352.76 1423.18 L2352.76 47.2441 L138.959 47.2441  Z" fill="#ffffff" fill-rule="evenodd" fill-opacity="1"/>
<defs>
  <clipPath id="clip782">
    <rect x="138" y="47" width="2215" height="1377"/>
  </clipPath>
</defs>
<polyline clip-path="url(#clip782)" style="stroke:#000000; stroke-linecap:round; stroke-linejoin:round; stroke-width:2; stroke-opacity:0.1; fill:none" points="457.749,1423.18 457.749,47.2441 "/>
<polyline clip-path="url(#clip782)" style="stroke:#000000; stroke-linecap:round; stroke-linejoin:round; stroke-width:2; stroke-opacity:0.1; fill:none" points="851.803,1423.18 851.803,47.2441 "/>
<polyline clip-path="url(#clip782)" style="stroke:#000000; stroke-linecap:round; stroke-linejoin:round; stroke-width:2; stroke-opacity:0.1; fill:none" points="1245.86,1423.18 1245.86,47.2441 "/>
<polyline clip-path="url(#clip782)" style="stroke:#000000; stroke-linecap:round; stroke-linejoin:round; stroke-width:2; stroke-opacity:0.1; fill:none" points="1639.91,1423.18 1639.91,47.2441 "/>
<polyline clip-path="url(#clip782)" style="stroke:#000000; stroke-linecap:round; stroke-linejoin:round; stroke-width:2; stroke-opacity:0.1; fill:none" points="2033.97,1423.18 2033.97,47.2441 "/>
<polyline clip-path="url(#clip782)" style="stroke:#000000; stroke-linecap:round; stroke-linejoin:round; stroke-width:2; stroke-opacity:0.1; fill:none" points="138.959,1423.18 2352.76,1423.18 "/>
<polyline clip-path="url(#clip782)" style="stroke:#000000; stroke-linecap:round; stroke-linejoin:round; stroke-width:2; stroke-opacity:0.1; fill:none" points="138.959,1193.86 2352.76,1193.86 "/>
<polyline clip-path="url(#clip782)" style="stroke:#000000; stroke-linecap:round; stroke-linejoin:round; stroke-width:2; stroke-opacity:0.1; fill:none" points="138.959,964.535 2352.76,964.535 "/>
<polyline clip-path="url(#clip782)" style="stroke:#000000; stroke-linecap:round; stroke-linejoin:round; stroke-width:2; stroke-opacity:0.1; fill:none" points="138.959,735.212 2352.76,735.212 "/>
<polyline clip-path="url(#clip782)" style="stroke:#000000; stroke-linecap:round; stroke-linejoin:round; stroke-width:2; stroke-opacity:0.1; fill:none" points="138.959,505.889 2352.76,505.889 "/>
<polyline clip-path="url(#clip782)" style="stroke:#000000; stroke-linecap:round; stroke-linejoin:round; stroke-width:2; stroke-opacity:0.1; fill:none" points="138.959,276.567 2352.76,276.567 "/>
<polyline clip-path="url(#clip782)" style="stroke:#000000; stroke-linecap:round; stroke-linejoin:round; stroke-width:2; stroke-opacity:0.1; fill:none" points="138.959,47.2441 2352.76,47.2441 "/>
<polyline clip-path="url(#clip780)" style="stroke:#000000; stroke-linecap:round; stroke-linejoin:round; stroke-width:4; stroke-opacity:1; fill:none" points="138.959,1423.18 2352.76,1423.18 "/>
<polyline clip-path="url(#clip780)" style="stroke:#000000; stroke-linecap:round; stroke-linejoin:round; stroke-width:4; stroke-opacity:1; fill:none" points="457.749,1423.18 457.749,1404.28 "/>
<polyline clip-path="url(#clip780)" style="stroke:#000000; stroke-linecap:round; stroke-linejoin:round; stroke-width:4; stroke-opacity:1; fill:none" points="851.803,1423.18 851.803,1404.28 "/>
<polyline clip-path="url(#clip780)" style="stroke:#000000; stroke-linecap:round; stroke-linejoin:round; stroke-width:4; stroke-opacity:1; fill:none" points="1245.86,1423.18 1245.86,1404.28 "/>
<polyline clip-path="url(#clip780)" style="stroke:#000000; stroke-linecap:round; stroke-linejoin:round; stroke-width:4; stroke-opacity:1; fill:none" points="1639.91,1423.18 1639.91,1404.28 "/>
<polyline clip-path="url(#clip780)" style="stroke:#000000; stroke-linecap:round; stroke-linejoin:round; stroke-width:4; stroke-opacity:1; fill:none" points="2033.97,1423.18 2033.97,1404.28 "/>
<path clip-path="url(#clip780)" d="M417.356 1481.64 L424.995 1481.64 L424.995 1455.28 L416.685 1456.95 L416.685 1452.69 L424.949 1451.02 L429.624 1451.02 L429.624 1481.64 L437.263 1481.64 L437.263 1485.58 L417.356 1485.58 L417.356 1481.64 Z" fill="#000000" fill-rule="nonzero" fill-opacity="1" /><path clip-path="url(#clip780)" d="M457.286 1466.44 Q454.138 1466.44 452.286 1468.59 Q450.458 1470.74 450.458 1474.49 Q450.458 1478.22 452.286 1480.39 Q454.138 1482.55 457.286 1482.55 Q460.434 1482.55 462.263 1480.39 Q464.115 1478.22 464.115 1474.49 Q464.115 1470.74 462.263 1468.59 Q460.434 1466.44 457.286 1466.44 M466.569 1451.78 L466.569 1456.04 Q464.809 1455.21 463.004 1454.77 Q461.221 1454.33 459.462 1454.33 Q454.833 1454.33 452.379 1457.45 Q449.948 1460.58 449.601 1466.9 Q450.967 1464.89 453.027 1463.82 Q455.087 1462.73 457.564 1462.73 Q462.772 1462.73 465.782 1465.9 Q468.814 1469.05 468.814 1474.49 Q468.814 1479.82 465.666 1483.03 Q462.518 1486.25 457.286 1486.25 Q451.291 1486.25 448.12 1481.67 Q444.948 1477.06 444.948 1468.33 Q444.948 1460.14 448.837 1455.28 Q452.726 1450.39 459.277 1450.39 Q461.036 1450.39 462.819 1450.74 Q464.624 1451.09 466.569 1451.78 Z" fill="#000000" fill-rule="nonzero" fill-opacity="1" /><path clip-path="url(#clip780)" d="M486.869 1454.1 Q483.258 1454.1 481.43 1457.66 Q479.624 1461.2 479.624 1468.33 Q479.624 1475.44 481.43 1479.01 Q483.258 1482.55 486.869 1482.55 Q490.504 1482.55 492.309 1479.01 Q494.138 1475.44 494.138 1468.33 Q494.138 1461.2 492.309 1457.66 Q490.504 1454.1 486.869 1454.1 M486.869 1450.39 Q492.68 1450.39 495.735 1455 Q498.814 1459.58 498.814 1468.33 Q498.814 1477.06 495.735 1481.67 Q492.68 1486.25 486.869 1486.25 Q481.059 1486.25 477.981 1481.67 Q474.925 1477.06 474.925 1468.33 Q474.925 1459.58 477.981 1455 Q481.059 1450.39 486.869 1450.39 Z" fill="#000000" fill-rule="nonzero" fill-opacity="1" /><path clip-path="url(#clip780)" d="M811.41 1481.64 L819.049 1481.64 L819.049 1455.28 L810.739 1456.95 L810.739 1452.69 L819.003 1451.02 L823.679 1451.02 L823.679 1481.64 L831.317 1481.64 L831.317 1485.58 L811.41 1485.58 L811.41 1481.64 Z" fill="#000000" fill-rule="nonzero" fill-opacity="1" /><path clip-path="url(#clip780)" d="M850.762 1469.17 Q847.429 1469.17 845.507 1470.95 Q843.609 1472.73 843.609 1475.86 Q843.609 1478.98 845.507 1480.77 Q847.429 1482.55 850.762 1482.55 Q854.095 1482.55 856.016 1480.77 Q857.938 1478.96 857.938 1475.86 Q857.938 1472.73 856.016 1470.95 Q854.118 1469.17 850.762 1469.17 M846.086 1467.18 Q843.077 1466.44 841.387 1464.38 Q839.72 1462.32 839.72 1459.35 Q839.72 1455.21 842.66 1452.8 Q845.623 1450.39 850.762 1450.39 Q855.924 1450.39 858.864 1452.8 Q861.803 1455.21 861.803 1459.35 Q861.803 1462.32 860.114 1464.38 Q858.447 1466.44 855.461 1467.18 Q858.84 1467.96 860.715 1470.26 Q862.614 1472.55 862.614 1475.86 Q862.614 1480.88 859.535 1483.57 Q856.479 1486.25 850.762 1486.25 Q845.044 1486.25 841.966 1483.57 Q838.91 1480.88 838.91 1475.86 Q838.91 1472.55 840.808 1470.26 Q842.706 1467.96 846.086 1467.18 M844.373 1459.79 Q844.373 1462.48 846.04 1463.98 Q847.729 1465.49 850.762 1465.49 Q853.771 1465.49 855.461 1463.98 Q857.174 1462.48 857.174 1459.79 Q857.174 1457.11 855.461 1455.6 Q853.771 1454.1 850.762 1454.1 Q847.729 1454.1 846.04 1455.6 Q844.373 1457.11 844.373 1459.79 Z" fill="#000000" fill-rule="nonzero" fill-opacity="1" /><path clip-path="url(#clip780)" d="M880.924 1454.1 Q877.313 1454.1 875.484 1457.66 Q873.678 1461.2 873.678 1468.33 Q873.678 1475.44 875.484 1479.01 Q877.313 1482.55 880.924 1482.55 Q884.558 1482.55 886.363 1479.01 Q888.192 1475.44 888.192 1468.33 Q888.192 1461.2 886.363 1457.66 Q884.558 1454.1 880.924 1454.1 M880.924 1450.39 Q886.734 1450.39 889.789 1455 Q892.868 1459.58 892.868 1468.33 Q892.868 1477.06 889.789 1481.67 Q886.734 1486.25 880.924 1486.25 Q875.114 1486.25 872.035 1481.67 Q868.979 1477.06 868.979 1468.33 Q868.979 1459.58 872.035 1455 Q875.114 1450.39 880.924 1450.39 Z" fill="#000000" fill-rule="nonzero" fill-opacity="1" /><path clip-path="url(#clip780)" d="M1209.55 1481.64 L1225.87 1481.64 L1225.87 1485.58 L1203.93 1485.58 L1203.93 1481.64 Q1206.59 1478.89 1211.17 1474.26 Q1215.78 1469.61 1216.96 1468.27 Q1219.2 1465.74 1220.08 1464.01 Q1220.99 1462.25 1220.99 1460.56 Q1220.99 1457.8 1219.04 1456.07 Q1217.12 1454.33 1214.02 1454.33 Q1211.82 1454.33 1209.36 1455.09 Q1206.93 1455.86 1204.16 1457.41 L1204.16 1452.69 Q1206.98 1451.55 1209.43 1450.97 Q1211.89 1450.39 1213.92 1450.39 Q1219.3 1450.39 1222.49 1453.08 Q1225.68 1455.77 1225.68 1460.26 Q1225.68 1462.39 1224.87 1464.31 Q1224.09 1466.2 1221.98 1468.8 Q1221.4 1469.47 1218.3 1472.69 Q1215.2 1475.88 1209.55 1481.64 Z" fill="#000000" fill-rule="nonzero" fill-opacity="1" /><path clip-path="url(#clip780)" d="M1245.68 1454.1 Q1242.07 1454.1 1240.24 1457.66 Q1238.44 1461.2 1238.44 1468.33 Q1238.44 1475.44 1240.24 1479.01 Q1242.07 1482.55 1245.68 1482.55 Q1249.32 1482.55 1251.12 1479.01 Q1252.95 1475.44 1252.95 1468.33 Q1252.95 1461.2 1251.12 1457.66 Q1249.32 1454.1 1245.68 1454.1 M1245.68 1450.39 Q1251.49 1450.39 1254.55 1455 Q1257.63 1459.58 1257.63 1468.33 Q1257.63 1477.06 1254.55 1481.67 Q1251.49 1486.25 1245.68 1486.25 Q1239.87 1486.25 1236.8 1481.67 Q1233.74 1477.06 1233.74 1468.33 Q1233.74 1459.58 1236.8 1455 Q1239.87 1450.39 1245.68 1450.39 Z" fill="#000000" fill-rule="nonzero" fill-opacity="1" /><path clip-path="url(#clip780)" d="M1275.85 1454.1 Q1272.23 1454.1 1270.41 1457.66 Q1268.6 1461.2 1268.6 1468.33 Q1268.6 1475.44 1270.41 1479.01 Q1272.23 1482.55 1275.85 1482.55 Q1279.48 1482.55 1281.29 1479.01 Q1283.11 1475.44 1283.11 1468.33 Q1283.11 1461.2 1281.29 1457.66 Q1279.48 1454.1 1275.85 1454.1 M1275.85 1450.39 Q1281.66 1450.39 1284.71 1455 Q1287.79 1459.58 1287.79 1468.33 Q1287.79 1477.06 1284.71 1481.67 Q1281.66 1486.25 1275.85 1486.25 Q1270.04 1486.25 1266.96 1481.67 Q1263.9 1477.06 1263.9 1468.33 Q1263.9 1459.58 1266.96 1455 Q1270.04 1450.39 1275.85 1450.39 Z" fill="#000000" fill-rule="nonzero" fill-opacity="1" /><path clip-path="url(#clip780)" d="M1603.6 1481.64 L1619.92 1481.64 L1619.92 1485.58 L1597.98 1485.58 L1597.98 1481.64 Q1600.64 1478.89 1605.22 1474.26 Q1609.83 1469.61 1611.01 1468.27 Q1613.26 1465.74 1614.14 1464.01 Q1615.04 1462.25 1615.04 1460.56 Q1615.04 1457.8 1613.09 1456.07 Q1611.17 1454.33 1608.07 1454.33 Q1605.87 1454.33 1603.42 1455.09 Q1600.99 1455.86 1598.21 1457.41 L1598.21 1452.69 Q1601.03 1451.55 1603.49 1450.97 Q1605.94 1450.39 1607.98 1450.39 Q1613.35 1450.39 1616.54 1453.08 Q1619.74 1455.77 1619.74 1460.26 Q1619.74 1462.39 1618.93 1464.31 Q1618.14 1466.2 1616.03 1468.8 Q1615.46 1469.47 1612.35 1472.69 Q1609.25 1475.88 1603.6 1481.64 Z" fill="#000000" fill-rule="nonzero" fill-opacity="1" /><path clip-path="url(#clip780)" d="M1633.77 1481.64 L1650.09 1481.64 L1650.09 1485.58 L1628.14 1485.58 L1628.14 1481.64 Q1630.8 1478.89 1635.39 1474.26 Q1639.99 1469.61 1641.17 1468.27 Q1643.42 1465.74 1644.3 1464.01 Q1645.2 1462.25 1645.2 1460.56 Q1645.2 1457.8 1643.26 1456.07 Q1641.34 1454.33 1638.23 1454.33 Q1636.03 1454.33 1633.58 1455.09 Q1631.15 1455.86 1628.37 1457.41 L1628.37 1452.69 Q1631.2 1451.55 1633.65 1450.97 Q1636.1 1450.39 1638.14 1450.39 Q1643.51 1450.39 1646.71 1453.08 Q1649.9 1455.77 1649.9 1460.26 Q1649.9 1462.39 1649.09 1464.31 Q1648.3 1466.2 1646.2 1468.8 Q1645.62 1469.47 1642.52 1472.69 Q1639.41 1475.88 1633.77 1481.64 Z" fill="#000000" fill-rule="nonzero" fill-opacity="1" /><path clip-path="url(#clip780)" d="M1669.9 1454.1 Q1666.29 1454.1 1664.46 1457.66 Q1662.65 1461.2 1662.65 1468.33 Q1662.65 1475.44 1664.46 1479.01 Q1666.29 1482.55 1669.9 1482.55 Q1673.53 1482.55 1675.34 1479.01 Q1677.17 1475.44 1677.17 1468.33 Q1677.17 1461.2 1675.34 1457.66 Q1673.53 1454.1 1669.9 1454.1 M1669.9 1450.39 Q1675.71 1450.39 1678.77 1455 Q1681.84 1459.58 1681.84 1468.33 Q1681.84 1477.06 1678.77 1481.67 Q1675.71 1486.25 1669.9 1486.25 Q1664.09 1486.25 1661.01 1481.67 Q1657.96 1477.06 1657.96 1468.33 Q1657.96 1459.58 1661.01 1455 Q1664.09 1450.39 1669.9 1450.39 Z" fill="#000000" fill-rule="nonzero" fill-opacity="1" /><path clip-path="url(#clip780)" d="M1997.66 1481.64 L2013.98 1481.64 L2013.98 1485.58 L1992.03 1485.58 L1992.03 1481.64 Q1994.7 1478.89 1999.28 1474.26 Q2003.89 1469.61 2005.07 1468.27 Q2007.31 1465.74 2008.19 1464.01 Q2009.09 1462.25 2009.09 1460.56 Q2009.09 1457.8 2007.15 1456.07 Q2005.23 1454.33 2002.13 1454.33 Q1999.93 1454.33 1997.47 1455.09 Q1995.04 1455.86 1992.26 1457.41 L1992.26 1452.69 Q1995.09 1451.55 1997.54 1450.97 Q2000 1450.39 2002.03 1450.39 Q2007.4 1450.39 2010.6 1453.08 Q2013.79 1455.77 2013.79 1460.26 Q2013.79 1462.39 2012.98 1464.31 Q2012.2 1466.2 2010.09 1468.8 Q2009.51 1469.47 2006.41 1472.69 Q2003.31 1475.88 1997.66 1481.64 Z" fill="#000000" fill-rule="nonzero" fill-opacity="1" /><path clip-path="url(#clip780)" d="M2036.64 1455.09 L2024.83 1473.54 L2036.64 1473.54 L2036.64 1455.09 M2035.41 1451.02 L2041.29 1451.02 L2041.29 1473.54 L2046.22 1473.54 L2046.22 1477.43 L2041.29 1477.43 L2041.29 1485.58 L2036.64 1485.58 L2036.64 1477.43 L2021.04 1477.43 L2021.04 1472.92 L2035.41 1451.02 Z" fill="#000000" fill-rule="nonzero" fill-opacity="1" /><path clip-path="url(#clip780)" d="M2063.95 1454.1 Q2060.34 1454.1 2058.51 1457.66 Q2056.71 1461.2 2056.71 1468.33 Q2056.71 1475.44 2058.51 1479.01 Q2060.34 1482.55 2063.95 1482.55 Q2067.59 1482.55 2069.39 1479.01 Q2071.22 1475.44 2071.22 1468.33 Q2071.22 1461.2 2069.39 1457.66 Q2067.59 1454.1 2063.95 1454.1 M2063.95 1450.39 Q2069.76 1450.39 2072.82 1455 Q2075.9 1459.58 2075.9 1468.33 Q2075.9 1477.06 2072.82 1481.67 Q2069.76 1486.25 2063.95 1486.25 Q2058.14 1486.25 2055.07 1481.67 Q2052.01 1477.06 2052.01 1468.33 Q2052.01 1459.58 2055.07 1455 Q2058.14 1450.39 2063.95 1450.39 Z" fill="#000000" fill-rule="nonzero" fill-opacity="1" /><path clip-path="url(#clip780)" d="M1120.23 1525.81 L1120.23 1562.76 L1128 1562.76 Q1137.83 1562.76 1142.38 1558.3 Q1146.97 1553.85 1146.97 1544.24 Q1146.97 1534.69 1142.38 1530.26 Q1137.83 1525.81 1128 1525.81 L1120.23 1525.81 M1113.8 1520.52 L1127.01 1520.52 Q1140.82 1520.52 1147.28 1526.28 Q1153.75 1532.01 1153.75 1544.24 Q1153.75 1556.52 1147.25 1562.28 Q1140.76 1568.04 1127.01 1568.04 L1113.8 1568.04 L1113.8 1520.52 Z" fill="#000000" fill-rule="nonzero" fill-opacity="1" /><path clip-path="url(#clip780)" d="M1194.23 1548.76 L1194.23 1551.62 L1167.3 1551.62 Q1167.69 1557.67 1170.93 1560.85 Q1174.21 1564 1180.04 1564 Q1183.41 1564 1186.56 1563.17 Q1189.74 1562.35 1192.86 1560.69 L1192.86 1566.23 Q1189.71 1567.57 1186.4 1568.27 Q1183.09 1568.97 1179.69 1568.97 Q1171.16 1568.97 1166.16 1564 Q1161.19 1559.04 1161.19 1550.57 Q1161.19 1541.82 1165.9 1536.69 Q1170.65 1531.54 1178.67 1531.54 Q1185.86 1531.54 1190.03 1536.18 Q1194.23 1540.8 1194.23 1548.76 M1188.38 1547.04 Q1188.31 1542.23 1185.67 1539.37 Q1183.06 1536.5 1178.73 1536.5 Q1173.83 1536.5 1170.87 1539.27 Q1167.94 1542.04 1167.5 1547.07 L1188.38 1547.04 Z" fill="#000000" fill-rule="nonzero" fill-opacity="1" /><path clip-path="url(#clip780)" d="M1231.6 1539.24 Q1233.79 1535.29 1236.85 1533.41 Q1239.91 1531.54 1244.04 1531.54 Q1249.61 1531.54 1252.64 1535.45 Q1255.66 1539.33 1255.66 1546.53 L1255.66 1568.04 L1249.77 1568.04 L1249.77 1546.72 Q1249.77 1541.59 1247.96 1539.11 Q1246.14 1536.63 1242.42 1536.63 Q1237.87 1536.63 1235.23 1539.65 Q1232.59 1542.68 1232.59 1547.9 L1232.59 1568.04 L1226.7 1568.04 L1226.7 1546.72 Q1226.7 1541.56 1224.88 1539.11 Q1223.07 1536.63 1219.28 1536.63 Q1214.79 1536.63 1212.15 1539.68 Q1209.51 1542.71 1209.51 1547.9 L1209.51 1568.04 L1203.62 1568.04 L1203.62 1532.4 L1209.51 1532.4 L1209.51 1537.93 Q1211.51 1534.66 1214.32 1533.1 Q1217.12 1531.54 1220.97 1531.54 Q1224.85 1531.54 1227.56 1533.51 Q1230.29 1535.48 1231.6 1539.24 Z" fill="#000000" fill-rule="nonzero" fill-opacity="1" /><path clip-path="url(#clip780)" d="M1283.54 1550.12 Q1276.44 1550.12 1273.71 1551.75 Q1270.97 1553.37 1270.97 1557.29 Q1270.97 1560.4 1273.01 1562.25 Q1275.08 1564.07 1278.61 1564.07 Q1283.48 1564.07 1286.41 1560.63 Q1289.37 1557.16 1289.37 1551.43 L1289.37 1550.12 L1283.54 1550.12 M1295.22 1547.71 L1295.22 1568.04 L1289.37 1568.04 L1289.37 1562.63 Q1287.36 1565.88 1284.37 1567.44 Q1281.38 1568.97 1277.05 1568.97 Q1271.58 1568.97 1268.33 1565.91 Q1265.11 1562.82 1265.11 1557.67 Q1265.11 1551.65 1269.12 1548.6 Q1273.17 1545.54 1281.16 1545.54 L1289.37 1545.54 L1289.37 1544.97 Q1289.37 1540.93 1286.69 1538.73 Q1284.05 1536.5 1279.25 1536.5 Q1276.19 1536.5 1273.29 1537.23 Q1270.4 1537.97 1267.72 1539.43 L1267.72 1534.02 Q1270.94 1532.78 1273.96 1532.17 Q1276.99 1531.54 1279.85 1531.54 Q1287.58 1531.54 1291.4 1535.55 Q1295.22 1539.56 1295.22 1547.71 Z" fill="#000000" fill-rule="nonzero" fill-opacity="1" /><path clip-path="url(#clip780)" d="M1336.92 1546.53 L1336.92 1568.04 L1331.06 1568.04 L1331.06 1546.72 Q1331.06 1541.66 1329.09 1539.14 Q1327.12 1536.63 1323.17 1536.63 Q1318.43 1536.63 1315.69 1539.65 Q1312.95 1542.68 1312.95 1547.9 L1312.95 1568.04 L1307.06 1568.04 L1307.06 1532.4 L1312.95 1532.4 L1312.95 1537.93 Q1315.05 1534.72 1317.89 1533.13 Q1320.75 1531.54 1324.47 1531.54 Q1330.62 1531.54 1333.77 1535.36 Q1336.92 1539.14 1336.92 1546.53 Z" fill="#000000" fill-rule="nonzero" fill-opacity="1" /><path clip-path="url(#clip780)" d="M1372.06 1537.81 L1372.06 1518.52 L1377.91 1518.52 L1377.91 1568.04 L1372.06 1568.04 L1372.06 1562.7 Q1370.21 1565.88 1367.38 1567.44 Q1364.58 1568.97 1360.63 1568.97 Q1354.17 1568.97 1350.1 1563.81 Q1346.05 1558.65 1346.05 1550.25 Q1346.05 1541.85 1350.1 1536.69 Q1354.17 1531.54 1360.63 1531.54 Q1364.58 1531.54 1367.38 1533.1 Q1370.21 1534.62 1372.06 1537.81 M1352.1 1550.25 Q1352.1 1556.71 1354.74 1560.4 Q1357.42 1564.07 1362.06 1564.07 Q1366.71 1564.07 1369.38 1560.4 Q1372.06 1556.71 1372.06 1550.25 Q1372.06 1543.79 1369.38 1540.13 Q1366.71 1536.44 1362.06 1536.44 Q1357.42 1536.44 1354.74 1540.13 Q1352.1 1543.79 1352.1 1550.25 Z" fill="#000000" fill-rule="nonzero" fill-opacity="1" /><polyline clip-path="url(#clip780)" style="stroke:#000000; stroke-linecap:round; stroke-linejoin:round; stroke-width:4; stroke-opacity:1; fill:none" points="138.959,1423.18 138.959,47.2441 "/>
<polyline clip-path="url(#clip780)" style="stroke:#000000; stroke-linecap:round; stroke-linejoin:round; stroke-width:4; stroke-opacity:1; fill:none" points="138.959,1423.18 157.857,1423.18 "/>
<polyline clip-path="url(#clip780)" style="stroke:#000000; stroke-linecap:round; stroke-linejoin:round; stroke-width:4; stroke-opacity:1; fill:none" points="138.959,1193.86 157.857,1193.86 "/>
<polyline clip-path="url(#clip780)" style="stroke:#000000; stroke-linecap:round; stroke-linejoin:round; stroke-width:4; stroke-opacity:1; fill:none" points="138.959,964.535 157.857,964.535 "/>
<polyline clip-path="url(#clip780)" style="stroke:#000000; stroke-linecap:round; stroke-linejoin:round; stroke-width:4; stroke-opacity:1; fill:none" points="138.959,735.212 157.857,735.212 "/>
<polyline clip-path="url(#clip780)" style="stroke:#000000; stroke-linecap:round; stroke-linejoin:round; stroke-width:4; stroke-opacity:1; fill:none" points="138.959,505.889 157.857,505.889 "/>
<polyline clip-path="url(#clip780)" style="stroke:#000000; stroke-linecap:round; stroke-linejoin:round; stroke-width:4; stroke-opacity:1; fill:none" points="138.959,276.567 157.857,276.567 "/>
<polyline clip-path="url(#clip780)" style="stroke:#000000; stroke-linecap:round; stroke-linejoin:round; stroke-width:4; stroke-opacity:1; fill:none" points="138.959,47.2441 157.857,47.2441 "/>
<path clip-path="url(#clip780)" d="M91.0151 1408.98 Q87.404 1408.98 85.5753 1412.54 Q83.7697 1416.08 83.7697 1423.21 Q83.7697 1430.32 85.5753 1433.89 Q87.404 1437.43 91.0151 1437.43 Q94.6493 1437.43 96.4548 1433.89 Q98.2835 1430.32 98.2835 1423.21 Q98.2835 1416.08 96.4548 1412.54 Q94.6493 1408.98 91.0151 1408.98 M91.0151 1405.27 Q96.8252 1405.27 99.8808 1409.88 Q102.959 1414.46 102.959 1423.21 Q102.959 1431.94 99.8808 1436.55 Q96.8252 1441.13 91.0151 1441.13 Q85.2049 1441.13 82.1262 1436.55 Q79.0707 1431.94 79.0707 1423.21 Q79.0707 1414.46 82.1262 1409.88 Q85.2049 1405.27 91.0151 1405.27 Z" fill="#000000" fill-rule="nonzero" fill-opacity="1" /><path clip-path="url(#clip780)" d="M86.6401 1207.2 L102.959 1207.2 L102.959 1211.14 L81.0151 1211.14 L81.0151 1207.2 Q83.6771 1204.45 88.2604 1199.82 Q92.8669 1195.17 94.0475 1193.82 Q96.2928 1191.3 97.1724 1189.56 Q98.0752 1187.8 98.0752 1186.11 Q98.0752 1183.36 96.1308 1181.62 Q94.2095 1179.89 91.1077 1179.89 Q88.9086 1179.89 86.4549 1180.65 Q84.0244 1181.42 81.2466 1182.97 L81.2466 1178.24 Q84.0707 1177.11 86.5243 1176.53 Q88.978 1175.95 91.0151 1175.95 Q96.3854 1175.95 99.5798 1178.64 Q102.774 1181.32 102.774 1185.81 Q102.774 1187.94 101.964 1189.86 Q101.177 1191.76 99.0706 1194.35 Q98.4919 1195.03 95.39 1198.24 Q92.2882 1201.44 86.6401 1207.2 Z" fill="#000000" fill-rule="nonzero" fill-opacity="1" /><path clip-path="url(#clip780)" d="M93.3762 951.329 L81.5707 969.778 L93.3762 969.778 L93.3762 951.329 M92.1493 947.255 L98.0289 947.255 L98.0289 969.778 L102.959 969.778 L102.959 973.666 L98.0289 973.666 L98.0289 981.815 L93.3762 981.815 L93.3762 973.666 L77.7744 973.666 L77.7744 969.153 L92.1493 947.255 Z" fill="#000000" fill-rule="nonzero" fill-opacity="1" /><path clip-path="url(#clip780)" d="M91.4317 733.349 Q88.2836 733.349 86.4318 735.501 Q84.6031 737.654 84.6031 741.404 Q84.6031 745.131 86.4318 747.307 Q88.2836 749.46 91.4317 749.46 Q94.5799 749.46 96.4085 747.307 Q98.2604 745.131 98.2604 741.404 Q98.2604 737.654 96.4085 735.501 Q94.5799 733.349 91.4317 733.349 M100.714 718.696 L100.714 722.955 Q98.9548 722.122 97.1493 721.682 Q95.3669 721.242 93.6076 721.242 Q88.978 721.242 86.5243 724.367 Q84.0938 727.492 83.7466 733.812 Q85.1123 731.798 87.1725 730.733 Q89.2327 729.645 91.7095 729.645 Q96.9178 729.645 99.927 732.816 Q102.959 735.964 102.959 741.404 Q102.959 746.728 99.8113 749.946 Q96.6632 753.163 91.4317 753.163 Q85.4364 753.163 82.2651 748.58 Q79.0938 743.973 79.0938 735.247 Q79.0938 727.052 82.9827 722.191 Q86.8716 717.307 93.4225 717.307 Q95.1817 717.307 96.9641 717.654 Q98.7696 718.001 100.714 718.696 Z" fill="#000000" fill-rule="nonzero" fill-opacity="1" /><path clip-path="url(#clip780)" d="M91.1077 506.757 Q87.7743 506.757 85.8531 508.54 Q83.9549 510.322 83.9549 513.447 Q83.9549 516.572 85.8531 518.355 Q87.7743 520.137 91.1077 520.137 Q94.441 520.137 96.3623 518.355 Q98.2835 516.549 98.2835 513.447 Q98.2835 510.322 96.3623 508.54 Q94.4641 506.757 91.1077 506.757 M86.4318 504.767 Q83.4225 504.026 81.7327 501.966 Q80.066 499.906 80.066 496.943 Q80.066 492.799 83.0058 490.392 Q85.9688 487.984 91.1077 487.984 Q96.2697 487.984 99.2095 490.392 Q102.149 492.799 102.149 496.943 Q102.149 499.906 100.459 501.966 Q98.7928 504.026 95.8067 504.767 Q99.1863 505.554 101.061 507.845 Q102.959 510.137 102.959 513.447 Q102.959 518.47 99.8808 521.155 Q96.8252 523.841 91.1077 523.841 Q85.3901 523.841 82.3114 521.155 Q79.2559 518.47 79.2559 513.447 Q79.2559 510.137 81.154 507.845 Q83.0521 505.554 86.4318 504.767 M84.7188 497.382 Q84.7188 500.068 86.3855 501.572 Q88.0753 503.077 91.1077 503.077 Q94.1169 503.077 95.8067 501.572 Q97.5197 500.068 97.5197 497.382 Q97.5197 494.697 95.8067 493.193 Q94.1169 491.688 91.1077 491.688 Q88.0753 491.688 86.3855 493.193 Q84.7188 494.697 84.7188 497.382 Z" fill="#000000" fill-rule="nonzero" fill-opacity="1" /><path clip-path="url(#clip780)" d="M51.6634 289.912 L59.3023 289.912 L59.3023 263.546 L50.9921 265.213 L50.9921 260.953 L59.256 259.287 L63.9319 259.287 L63.9319 289.912 L71.5707 289.912 L71.5707 293.847 L51.6634 293.847 L51.6634 289.912 Z" fill="#000000" fill-rule="nonzero" fill-opacity="1" /><path clip-path="url(#clip780)" d="M91.0151 262.365 Q87.404 262.365 85.5753 265.93 Q83.7697 269.472 83.7697 276.601 Q83.7697 283.708 85.5753 287.273 Q87.404 290.814 91.0151 290.814 Q94.6493 290.814 96.4548 287.273 Q98.2835 283.708 98.2835 276.601 Q98.2835 269.472 96.4548 265.93 Q94.6493 262.365 91.0151 262.365 M91.0151 258.662 Q96.8252 258.662 99.8808 263.268 Q102.959 267.851 102.959 276.601 Q102.959 285.328 99.8808 289.935 Q96.8252 294.518 91.0151 294.518 Q85.2049 294.518 82.1262 289.935 Q79.0707 285.328 79.0707 276.601 Q79.0707 267.851 82.1262 263.268 Q85.2049 258.662 91.0151 258.662 Z" fill="#000000" fill-rule="nonzero" fill-opacity="1" /><path clip-path="url(#clip780)" d="M53.2606 60.5889 L60.8995 60.5889 L60.8995 34.2233 L52.5893 35.89 L52.5893 31.6308 L60.8532 29.9641 L65.5291 29.9641 L65.5291 60.5889 L73.1679 60.5889 L73.1679 64.5241 L53.2606 64.5241 L53.2606 60.5889 Z" fill="#000000" fill-rule="nonzero" fill-opacity="1" /><path clip-path="url(#clip780)" d="M86.6401 60.5889 L102.959 60.5889 L102.959 64.5241 L81.0151 64.5241 L81.0151 60.5889 Q83.6771 57.8343 88.2604 53.2047 Q92.8669 48.552 94.0475 47.2094 Q96.2928 44.6862 97.1724 42.9501 Q98.0752 41.1909 98.0752 39.5011 Q98.0752 36.7465 96.1308 35.0104 Q94.2095 33.2743 91.1077 33.2743 Q88.9086 33.2743 86.4549 34.0381 Q84.0244 34.802 81.2466 36.3529 L81.2466 31.6308 Q84.0707 30.4965 86.5243 29.9178 Q88.978 29.3391 91.0151 29.3391 Q96.3854 29.3391 99.5798 32.0243 Q102.774 34.7094 102.774 39.2002 Q102.774 41.3298 101.964 43.2511 Q101.177 45.1492 99.0706 47.7418 Q98.4919 48.4131 95.39 51.6306 Q92.2882 54.8251 86.6401 60.5889 Z" fill="#000000" fill-rule="nonzero" fill-opacity="1" /><path clip-path="url(#clip782)" d="M260.722 1308.52 L260.722 1423.18 L359.236 1423.18 L359.236 1308.52 L260.722 1308.52 L260.722 1308.52  Z" fill="#009af9" fill-rule="evenodd" fill-opacity="1"/>
<polyline clip-path="url(#clip782)" style="stroke:#000000; stroke-linecap:round; stroke-linejoin:round; stroke-width:4; stroke-opacity:1; fill:none" points="260.722,1308.52 260.722,1423.18 359.236,1423.18 359.236,1308.52 260.722,1308.52 "/>
<path clip-path="url(#clip782)" d="M359.236 1193.86 L359.236 1423.18 L457.749 1423.18 L457.749 1193.86 L359.236 1193.86 L359.236 1193.86  Z" fill="#009af9" fill-rule="evenodd" fill-opacity="1"/>
<polyline clip-path="url(#clip782)" style="stroke:#000000; stroke-linecap:round; stroke-linejoin:round; stroke-width:4; stroke-opacity:1; fill:none" points="359.236,1193.86 359.236,1423.18 457.749,1423.18 457.749,1193.86 359.236,1193.86 "/>
<path clip-path="url(#clip782)" d="M457.749 964.535 L457.749 1423.18 L556.263 1423.18 L556.263 964.535 L457.749 964.535 L457.749 964.535  Z" fill="#009af9" fill-rule="evenodd" fill-opacity="1"/>
<polyline clip-path="url(#clip782)" style="stroke:#000000; stroke-linecap:round; stroke-linejoin:round; stroke-width:4; stroke-opacity:1; fill:none" points="457.749,964.535 457.749,1423.18 556.263,1423.18 556.263,964.535 457.749,964.535 "/>
<path clip-path="url(#clip782)" d="M556.263 1079.2 L556.263 1423.18 L654.776 1423.18 L654.776 1079.2 L556.263 1079.2 L556.263 1079.2  Z" fill="#009af9" fill-rule="evenodd" fill-opacity="1"/>
<polyline clip-path="url(#clip782)" style="stroke:#000000; stroke-linecap:round; stroke-linejoin:round; stroke-width:4; stroke-opacity:1; fill:none" points="556.263,1079.2 556.263,1423.18 654.776,1423.18 654.776,1079.2 556.263,1079.2 "/>
<path clip-path="url(#clip782)" d="M654.776 964.535 L654.776 1423.18 L753.29 1423.18 L753.29 964.535 L654.776 964.535 L654.776 964.535  Z" fill="#009af9" fill-rule="evenodd" fill-opacity="1"/>
<polyline clip-path="url(#clip782)" style="stroke:#000000; stroke-linecap:round; stroke-linejoin:round; stroke-width:4; stroke-opacity:1; fill:none" points="654.776,964.535 654.776,1423.18 753.29,1423.18 753.29,964.535 654.776,964.535 "/>
<path clip-path="url(#clip782)" d="M753.29 391.228 L753.29 1423.18 L851.803 1423.18 L851.803 391.228 L753.29 391.228 L753.29 391.228  Z" fill="#009af9" fill-rule="evenodd" fill-opacity="1"/>
<polyline clip-path="url(#clip782)" style="stroke:#000000; stroke-linecap:round; stroke-linejoin:round; stroke-width:4; stroke-opacity:1; fill:none" points="753.29,391.228 753.29,1423.18 851.803,1423.18 851.803,391.228 753.29,391.228 "/>
<path clip-path="url(#clip782)" d="M851.803 735.212 L851.803 1423.18 L950.317 1423.18 L950.317 735.212 L851.803 735.212 L851.803 735.212  Z" fill="#009af9" fill-rule="evenodd" fill-opacity="1"/>
<polyline clip-path="url(#clip782)" style="stroke:#000000; stroke-linecap:round; stroke-linejoin:round; stroke-width:4; stroke-opacity:1; fill:none" points="851.803,735.212 851.803,1423.18 950.317,1423.18 950.317,735.212 851.803,735.212 "/>
<path clip-path="url(#clip782)" d="M950.317 505.889 L950.317 1423.18 L1048.83 1423.18 L1048.83 505.889 L950.317 505.889 L950.317 505.889  Z" fill="#009af9" fill-rule="evenodd" fill-opacity="1"/>
<polyline clip-path="url(#clip782)" style="stroke:#000000; stroke-linecap:round; stroke-linejoin:round; stroke-width:4; stroke-opacity:1; fill:none" points="950.317,505.889 950.317,1423.18 1048.83,1423.18 1048.83,505.889 950.317,505.889 "/>
<path clip-path="url(#clip782)" d="M1048.83 505.889 L1048.83 1423.18 L1147.34 1423.18 L1147.34 505.889 L1048.83 505.889 L1048.83 505.889  Z" fill="#009af9" fill-rule="evenodd" fill-opacity="1"/>
<polyline clip-path="url(#clip782)" style="stroke:#000000; stroke-linecap:round; stroke-linejoin:round; stroke-width:4; stroke-opacity:1; fill:none" points="1048.83,505.889 1048.83,1423.18 1147.34,1423.18 1147.34,505.889 1048.83,505.889 "/>
<path clip-path="url(#clip782)" d="M1147.34 47.2441 L1147.34 1423.18 L1245.86 1423.18 L1245.86 47.2441 L1147.34 47.2441 L1147.34 47.2441  Z" fill="#009af9" fill-rule="evenodd" fill-opacity="1"/>
<polyline clip-path="url(#clip782)" style="stroke:#000000; stroke-linecap:round; stroke-linejoin:round; stroke-width:4; stroke-opacity:1; fill:none" points="1147.34,47.2441 1147.34,1423.18 1245.86,1423.18 1245.86,47.2441 1147.34,47.2441 "/>
<path clip-path="url(#clip782)" d="M1245.86 505.889 L1245.86 1423.18 L1344.37 1423.18 L1344.37 505.889 L1245.86 505.889 L1245.86 505.889  Z" fill="#009af9" fill-rule="evenodd" fill-opacity="1"/>
<polyline clip-path="url(#clip782)" style="stroke:#000000; stroke-linecap:round; stroke-linejoin:round; stroke-width:4; stroke-opacity:1; fill:none" points="1245.86,505.889 1245.86,1423.18 1344.37,1423.18 1344.37,505.889 1245.86,505.889 "/>
<path clip-path="url(#clip782)" d="M1344.37 735.212 L1344.37 1423.18 L1442.88 1423.18 L1442.88 735.212 L1344.37 735.212 L1344.37 735.212  Z" fill="#009af9" fill-rule="evenodd" fill-opacity="1"/>
<polyline clip-path="url(#clip782)" style="stroke:#000000; stroke-linecap:round; stroke-linejoin:round; stroke-width:4; stroke-opacity:1; fill:none" points="1344.37,735.212 1344.37,1423.18 1442.88,1423.18 1442.88,735.212 1344.37,735.212 "/>
<path clip-path="url(#clip782)" d="M1442.88 735.212 L1442.88 1423.18 L1541.4 1423.18 L1541.4 735.212 L1442.88 735.212 L1442.88 735.212  Z" fill="#009af9" fill-rule="evenodd" fill-opacity="1"/>
<polyline clip-path="url(#clip782)" style="stroke:#000000; stroke-linecap:round; stroke-linejoin:round; stroke-width:4; stroke-opacity:1; fill:none" points="1442.88,735.212 1442.88,1423.18 1541.4,1423.18 1541.4,735.212 1442.88,735.212 "/>
<path clip-path="url(#clip782)" d="M1541.4 1079.2 L1541.4 1423.18 L1639.91 1423.18 L1639.91 1079.2 L1541.4 1079.2 L1541.4 1079.2  Z" fill="#009af9" fill-rule="evenodd" fill-opacity="1"/>
<polyline clip-path="url(#clip782)" style="stroke:#000000; stroke-linecap:round; stroke-linejoin:round; stroke-width:4; stroke-opacity:1; fill:none" points="1541.4,1079.2 1541.4,1423.18 1639.91,1423.18 1639.91,1079.2 1541.4,1079.2 "/>
<path clip-path="url(#clip782)" d="M1639.91 735.212 L1639.91 1423.18 L1738.43 1423.18 L1738.43 735.212 L1639.91 735.212 L1639.91 735.212  Z" fill="#009af9" fill-rule="evenodd" fill-opacity="1"/>
<polyline clip-path="url(#clip782)" style="stroke:#000000; stroke-linecap:round; stroke-linejoin:round; stroke-width:4; stroke-opacity:1; fill:none" points="1639.91,735.212 1639.91,1423.18 1738.43,1423.18 1738.43,735.212 1639.91,735.212 "/>
<path clip-path="url(#clip782)" d="M1738.43 620.551 L1738.43 1423.18 L1836.94 1423.18 L1836.94 620.551 L1738.43 620.551 L1738.43 620.551  Z" fill="#009af9" fill-rule="evenodd" fill-opacity="1"/>
<polyline clip-path="url(#clip782)" style="stroke:#000000; stroke-linecap:round; stroke-linejoin:round; stroke-width:4; stroke-opacity:1; fill:none" points="1738.43,620.551 1738.43,1423.18 1836.94,1423.18 1836.94,620.551 1738.43,620.551 "/>
<path clip-path="url(#clip782)" d="M1836.94 964.535 L1836.94 1423.18 L1935.45 1423.18 L1935.45 964.535 L1836.94 964.535 L1836.94 964.535  Z" fill="#009af9" fill-rule="evenodd" fill-opacity="1"/>
<polyline clip-path="url(#clip782)" style="stroke:#000000; stroke-linecap:round; stroke-linejoin:round; stroke-width:4; stroke-opacity:1; fill:none" points="1836.94,964.535 1836.94,1423.18 1935.45,1423.18 1935.45,964.535 1836.94,964.535 "/>
<path clip-path="url(#clip782)" d="M1935.45 1423.18 L1935.45 1423.18 L2033.97 1423.18 L2033.97 1423.18 L1935.45 1423.18 L1935.45 1423.18  Z" fill="#009af9" fill-rule="evenodd" fill-opacity="1"/>
<polyline clip-path="url(#clip782)" style="stroke:#000000; stroke-linecap:round; stroke-linejoin:round; stroke-width:4; stroke-opacity:1; fill:none" points="1935.45,1423.18 1935.45,1423.18 2033.97,1423.18 1935.45,1423.18 "/>
<path clip-path="url(#clip782)" d="M2033.97 1193.86 L2033.97 1423.18 L2132.48 1423.18 L2132.48 1193.86 L2033.97 1193.86 L2033.97 1193.86  Z" fill="#009af9" fill-rule="evenodd" fill-opacity="1"/>
<polyline clip-path="url(#clip782)" style="stroke:#000000; stroke-linecap:round; stroke-linejoin:round; stroke-width:4; stroke-opacity:1; fill:none" points="2033.97,1193.86 2033.97,1423.18 2132.48,1423.18 2132.48,1193.86 2033.97,1193.86 "/>
<path clip-path="url(#clip782)" d="M2132.48 1308.52 L2132.48 1423.18 L2230.99 1423.18 L2230.99 1308.52 L2132.48 1308.52 L2132.48 1308.52  Z" fill="#009af9" fill-rule="evenodd" fill-opacity="1"/>
<polyline clip-path="url(#clip782)" style="stroke:#000000; stroke-linecap:round; stroke-linejoin:round; stroke-width:4; stroke-opacity:1; fill:none" points="2132.48,1308.52 2132.48,1423.18 2230.99,1423.18 2230.99,1308.52 2132.48,1308.52 "/>
<circle clip-path="url(#clip782)" style="fill:#009af9; stroke:none; fill-opacity:0" cx="309.979" cy="1308.52" r="2"/>
<circle clip-path="url(#clip782)" style="fill:#009af9; stroke:none; fill-opacity:0" cx="408.493" cy="1193.86" r="2"/>
<circle clip-path="url(#clip782)" style="fill:#009af9; stroke:none; fill-opacity:0" cx="507.006" cy="964.535" r="2"/>
<circle clip-path="url(#clip782)" style="fill:#009af9; stroke:none; fill-opacity:0" cx="605.52" cy="1079.2" r="2"/>
<circle clip-path="url(#clip782)" style="fill:#009af9; stroke:none; fill-opacity:0" cx="704.033" cy="964.535" r="2"/>
<circle clip-path="url(#clip782)" style="fill:#009af9; stroke:none; fill-opacity:0" cx="802.547" cy="391.228" r="2"/>
<circle clip-path="url(#clip782)" style="fill:#009af9; stroke:none; fill-opacity:0" cx="901.06" cy="735.212" r="2"/>
<circle clip-path="url(#clip782)" style="fill:#009af9; stroke:none; fill-opacity:0" cx="999.574" cy="505.889" r="2"/>
<circle clip-path="url(#clip782)" style="fill:#009af9; stroke:none; fill-opacity:0" cx="1098.09" cy="505.889" r="2"/>
<circle clip-path="url(#clip782)" style="fill:#009af9; stroke:none; fill-opacity:0" cx="1196.6" cy="47.2441" r="2"/>
<circle clip-path="url(#clip782)" style="fill:#009af9; stroke:none; fill-opacity:0" cx="1295.11" cy="505.889" r="2"/>
<circle clip-path="url(#clip782)" style="fill:#009af9; stroke:none; fill-opacity:0" cx="1393.63" cy="735.212" r="2"/>
<circle clip-path="url(#clip782)" style="fill:#009af9; stroke:none; fill-opacity:0" cx="1492.14" cy="735.212" r="2"/>
<circle clip-path="url(#clip782)" style="fill:#009af9; stroke:none; fill-opacity:0" cx="1590.66" cy="1079.2" r="2"/>
<circle clip-path="url(#clip782)" style="fill:#009af9; stroke:none; fill-opacity:0" cx="1689.17" cy="735.212" r="2"/>
<circle clip-path="url(#clip782)" style="fill:#009af9; stroke:none; fill-opacity:0" cx="1787.68" cy="620.551" r="2"/>
<circle clip-path="url(#clip782)" style="fill:#009af9; stroke:none; fill-opacity:0" cx="1886.2" cy="964.535" r="2"/>
<circle clip-path="url(#clip782)" style="fill:#009af9; stroke:none; fill-opacity:0" cx="1984.71" cy="1423.18" r="2"/>
<circle clip-path="url(#clip782)" style="fill:#009af9; stroke:none; fill-opacity:0" cx="2083.22" cy="1193.86" r="2"/>
<circle clip-path="url(#clip782)" style="fill:#009af9; stroke:none; fill-opacity:0" cx="2181.74" cy="1308.52" r="2"/>
</svg>
