<?xml version="1.0" encoding="utf-8"?>
<svg xmlns="http://www.w3.org/2000/svg" xmlns:xlink="http://www.w3.org/1999/xlink" width="600" height="600" viewBox="0 0 2400 2400">
<defs>
  <clipPath id="clip570">
    <rect x="0" y="0" width="2400" height="2400"/>
  </clipPath>
</defs>
<path clip-path="url(#clip570)" d="M0 2400 L2400 2400 L2400 0 L0 0  Z" fill="#ffffff" fill-rule="evenodd" fill-opacity="1"/>
<defs>
  <clipPath id="clip571">
    <rect x="480" y="240" width="1681" height="1681"/>
  </clipPath>
</defs>
<path clip-path="url(#clip570)" d="M148.057 2261.17 L2352.76 2261.17 L2352.76 47.2441 L148.057 47.2441  Z" fill="#ffffff" fill-rule="evenodd" fill-opacity="1"/>
<defs>
  <clipPath id="clip572">
    <rect x="148" y="47" width="2206" height="2215"/>
  </clipPath>
</defs>
<polyline clip-path="url(#clip572)" style="stroke:#000000; stroke-linecap:round; stroke-linejoin:round; stroke-width:2; stroke-opacity:0.1; fill:none" points="406.437,2261.17 406.437,47.2441 "/>
<polyline clip-path="url(#clip572)" style="stroke:#000000; stroke-linecap:round; stroke-linejoin:round; stroke-width:2; stroke-opacity:0.1; fill:none" points="838.555,2261.17 838.555,47.2441 "/>
<polyline clip-path="url(#clip572)" style="stroke:#000000; stroke-linecap:round; stroke-linejoin:round; stroke-width:2; stroke-opacity:0.1; fill:none" points="1270.67,2261.17 1270.67,47.2441 "/>
<polyline clip-path="url(#clip572)" style="stroke:#000000; stroke-linecap:round; stroke-linejoin:round; stroke-width:2; stroke-opacity:0.1; fill:none" points="1702.79,2261.17 1702.79,47.2441 "/>
<polyline clip-path="url(#clip572)" style="stroke:#000000; stroke-linecap:round; stroke-linejoin:round; stroke-width:2; stroke-opacity:0.1; fill:none" points="2134.91,2261.17 2134.91,47.2441 "/>
<polyline clip-path="url(#clip572)" style="stroke:#000000; stroke-linecap:round; stroke-linejoin:round; stroke-width:2; stroke-opacity:0.1; fill:none" points="148.057,2189.98 2352.76,2189.98 "/>
<polyline clip-path="url(#clip572)" style="stroke:#000000; stroke-linecap:round; stroke-linejoin:round; stroke-width:2; stroke-opacity:0.1; fill:none" points="148.057,1864.92 2352.76,1864.92 "/>
<polyline clip-path="url(#clip572)" style="stroke:#000000; stroke-linecap:round; stroke-linejoin:round; stroke-width:2; stroke-opacity:0.1; fill:none" points="148.057,1539.86 2352.76,1539.86 "/>
<polyline clip-path="url(#clip572)" style="stroke:#000000; stroke-linecap:round; stroke-linejoin:round; stroke-width:2; stroke-opacity:0.1; fill:none" points="148.057,1214.8 2352.76,1214.8 "/>
<polyline clip-path="url(#clip572)" style="stroke:#000000; stroke-linecap:round; stroke-linejoin:round; stroke-width:2; stroke-opacity:0.1; fill:none" points="148.057,889.74 2352.76,889.74 "/>
<polyline clip-path="url(#clip572)" style="stroke:#000000; stroke-linecap:round; stroke-linejoin:round; stroke-width:2; stroke-opacity:0.1; fill:none" points="148.057,564.681 2352.76,564.681 "/>
<polyline clip-path="url(#clip572)" style="stroke:#000000; stroke-linecap:round; stroke-linejoin:round; stroke-width:2; stroke-opacity:0.1; fill:none" points="148.057,239.622 2352.76,239.622 "/>
<polyline clip-path="url(#clip570)" style="stroke:#000000; stroke-linecap:round; stroke-linejoin:round; stroke-width:4; stroke-opacity:1; fill:none" points="148.057,2261.17 2352.76,2261.17 "/>
<polyline clip-path="url(#clip570)" style="stroke:#000000; stroke-linecap:round; stroke-linejoin:round; stroke-width:4; stroke-opacity:1; fill:none" points="406.437,2261.17 406.437,2242.27 "/>
<polyline clip-path="url(#clip570)" style="stroke:#000000; stroke-linecap:round; stroke-linejoin:round; stroke-width:4; stroke-opacity:1; fill:none" points="838.555,2261.17 838.555,2242.27 "/>
<polyline clip-path="url(#clip570)" style="stroke:#000000; stroke-linecap:round; stroke-linejoin:round; stroke-width:4; stroke-opacity:1; fill:none" points="1270.67,2261.17 1270.67,2242.27 "/>
<polyline clip-path="url(#clip570)" style="stroke:#000000; stroke-linecap:round; stroke-linejoin:round; stroke-width:4; stroke-opacity:1; fill:none" points="1702.79,2261.17 1702.79,2242.27 "/>
<polyline clip-path="url(#clip570)" style="stroke:#000000; stroke-linecap:round; stroke-linejoin:round; stroke-width:4; stroke-opacity:1; fill:none" points="2134.91,2261.17 2134.91,2242.27 "/>
<path clip-path="url(#clip570)" d="M376.194 2306.74 L405.87 2306.74 L405.87 2310.67 L376.194 2310.67 L376.194 2306.74 Z" fill="#000000" fill-rule="nonzero" fill-opacity="1" /><path clip-path="url(#clip570)" d="M416.773 2319.63 L424.412 2319.63 L424.412 2293.27 L416.101 2294.93 L416.101 2290.67 L424.365 2289.01 L429.041 2289.01 L429.041 2319.63 L436.68 2319.63 L436.68 2323.57 L416.773 2323.57 L416.773 2319.63 Z" fill="#000000" fill-rule="nonzero" fill-opacity="1" /><path clip-path="url(#clip570)" d="M838.555 2292.09 Q834.944 2292.09 833.115 2295.65 Q831.31 2299.19 831.31 2306.32 Q831.31 2313.43 833.115 2316.99 Q834.944 2320.54 838.555 2320.54 Q842.189 2320.54 843.995 2316.99 Q845.824 2313.43 845.824 2306.32 Q845.824 2299.19 843.995 2295.65 Q842.189 2292.09 838.555 2292.09 M838.555 2288.38 Q844.365 2288.38 847.421 2292.99 Q850.5 2297.57 850.5 2306.32 Q850.5 2315.05 847.421 2319.66 Q844.365 2324.24 838.555 2324.24 Q832.745 2324.24 829.666 2319.66 Q826.611 2315.05 826.611 2306.32 Q826.611 2297.57 829.666 2292.99 Q832.745 2288.38 838.555 2288.38 Z" fill="#000000" fill-rule="nonzero" fill-opacity="1" /><path clip-path="url(#clip570)" d="M1261.06 2319.63 L1268.69 2319.63 L1268.69 2293.27 L1260.38 2294.93 L1260.38 2290.67 L1268.65 2289.01 L1273.32 2289.01 L1273.32 2319.63 L1280.96 2319.63 L1280.96 2323.57 L1261.06 2323.57 L1261.06 2319.63 Z" fill="#000000" fill-rule="nonzero" fill-opacity="1" /><path clip-path="url(#clip570)" d="M1697.44 2319.63 L1713.76 2319.63 L1713.76 2323.57 L1691.82 2323.57 L1691.82 2319.63 Q1694.48 2316.88 1699.06 2312.25 Q1703.67 2307.6 1704.85 2306.25 Q1707.1 2303.73 1707.98 2301.99 Q1708.88 2300.23 1708.88 2298.54 Q1708.88 2295.79 1706.94 2294.05 Q1705.01 2292.32 1701.91 2292.32 Q1699.71 2292.32 1697.26 2293.08 Q1694.83 2293.85 1692.05 2295.4 L1692.05 2290.67 Q1694.87 2289.54 1697.33 2288.96 Q1699.78 2288.38 1701.82 2288.38 Q1707.19 2288.38 1710.38 2291.07 Q1713.58 2293.75 1713.58 2298.24 Q1713.58 2300.37 1712.77 2302.29 Q1711.98 2304.19 1709.87 2306.79 Q1709.3 2307.46 1706.19 2310.67 Q1703.09 2313.87 1697.44 2319.63 Z" fill="#000000" fill-rule="nonzero" fill-opacity="1" /><path clip-path="url(#clip570)" d="M2139.16 2304.93 Q2142.51 2305.65 2144.39 2307.92 Q2146.29 2310.19 2146.29 2313.52 Q2146.29 2318.64 2142.77 2321.44 Q2139.25 2324.24 2132.77 2324.24 Q2130.59 2324.24 2128.28 2323.8 Q2125.99 2323.38 2123.53 2322.53 L2123.53 2318.01 Q2125.48 2319.15 2127.79 2319.73 Q2130.11 2320.3 2132.63 2320.3 Q2137.03 2320.3 2139.32 2318.57 Q2141.63 2316.83 2141.63 2313.52 Q2141.63 2310.47 2139.48 2308.75 Q2137.35 2307.02 2133.53 2307.02 L2129.5 2307.02 L2129.5 2303.17 L2133.72 2303.17 Q2137.17 2303.17 2139 2301.81 Q2140.82 2300.42 2140.82 2297.83 Q2140.82 2295.17 2138.93 2293.75 Q2137.05 2292.32 2133.53 2292.32 Q2131.61 2292.32 2129.41 2292.73 Q2127.21 2293.15 2124.57 2294.03 L2124.57 2289.86 Q2127.24 2289.12 2129.55 2288.75 Q2131.89 2288.38 2133.95 2288.38 Q2139.27 2288.38 2142.37 2290.81 Q2145.48 2293.22 2145.48 2297.34 Q2145.48 2300.21 2143.83 2302.2 Q2142.19 2304.17 2139.16 2304.93 Z" fill="#000000" fill-rule="nonzero" fill-opacity="1" /><polyline clip-path="url(#clip570)" style="stroke:#000000; stroke-linecap:round; stroke-linejoin:round; stroke-width:4; stroke-opacity:1; fill:none" points="148.057,2261.17 148.057,47.2441 "/>
<polyline clip-path="url(#clip570)" style="stroke:#000000; stroke-linecap:round; stroke-linejoin:round; stroke-width:4; stroke-opacity:1; fill:none" points="148.057,2189.98 166.954,2189.98 "/>
<polyline clip-path="url(#clip570)" style="stroke:#000000; stroke-linecap:round; stroke-linejoin:round; stroke-width:4; stroke-opacity:1; fill:none" points="148.057,1864.92 166.954,1864.92 "/>
<polyline clip-path="url(#clip570)" style="stroke:#000000; stroke-linecap:round; stroke-linejoin:round; stroke-width:4; stroke-opacity:1; fill:none" points="148.057,1539.86 166.954,1539.86 "/>
<polyline clip-path="url(#clip570)" style="stroke:#000000; stroke-linecap:round; stroke-linejoin:round; stroke-width:4; stroke-opacity:1; fill:none" points="148.057,1214.8 166.954,1214.8 "/>
<polyline clip-path="url(#clip570)" style="stroke:#000000; stroke-linecap:round; stroke-linejoin:round; stroke-width:4; stroke-opacity:1; fill:none" points="148.057,889.74 166.954,889.74 "/>
<polyline clip-path="url(#clip570)" style="stroke:#000000; stroke-linecap:round; stroke-linejoin:round; stroke-width:4; stroke-opacity:1; fill:none" points="148.057,564.681 166.954,564.681 "/>
<polyline clip-path="url(#clip570)" style="stroke:#000000; stroke-linecap:round; stroke-linejoin:round; stroke-width:4; stroke-opacity:1; fill:none" points="148.057,239.622 166.954,239.622 "/>
<path clip-path="url(#clip570)" d="M50.9921 2190.43 L80.6679 2190.43 L80.6679 2194.36 L50.9921 2194.36 L50.9921 2190.43 Z" fill="#000000" fill-rule="nonzero" fill-opacity="1" /><path clip-path="url(#clip570)" d="M104.927 2188.62 Q108.283 2189.34 110.158 2191.61 Q112.057 2193.88 112.057 2197.21 Q112.057 2202.33 108.538 2205.13 Q105.02 2207.93 98.5382 2207.93 Q96.3623 2207.93 94.0475 2207.49 Q91.7558 2207.07 89.3021 2206.21 L89.3021 2201.7 Q91.2465 2202.83 93.5613 2203.41 Q95.8761 2203.99 98.3993 2203.99 Q102.797 2203.99 105.089 2202.26 Q107.404 2200.52 107.404 2197.21 Q107.404 2194.15 105.251 2192.44 Q103.121 2190.71 99.3021 2190.71 L95.2743 2190.71 L95.2743 2186.86 L99.4872 2186.86 Q102.936 2186.86 104.765 2185.5 Q106.594 2184.11 106.594 2181.52 Q106.594 2178.85 104.696 2177.44 Q102.821 2176.01 99.3021 2176.01 Q97.3808 2176.01 95.1817 2176.42 Q92.9826 2176.84 90.3438 2177.72 L90.3438 2173.55 Q93.0058 2172.81 95.3206 2172.44 Q97.6585 2172.07 99.7187 2172.07 Q105.043 2172.07 108.145 2174.5 Q111.246 2176.91 111.246 2181.03 Q111.246 2183.9 109.603 2185.89 Q107.959 2187.86 104.927 2188.62 Z" fill="#000000" fill-rule="nonzero" fill-opacity="1" /><path clip-path="url(#clip570)" d="M51.9412 1865.37 L81.617 1865.37 L81.617 1869.3 L51.9412 1869.3 L51.9412 1865.37 Z" fill="#000000" fill-rule="nonzero" fill-opacity="1" /><path clip-path="url(#clip570)" d="M95.7373 1878.26 L112.057 1878.26 L112.057 1882.2 L90.1123 1882.2 L90.1123 1878.26 Q92.7743 1875.51 97.3576 1870.88 Q101.964 1866.23 103.145 1864.88 Q105.39 1862.36 106.27 1860.62 Q107.172 1858.86 107.172 1857.17 Q107.172 1854.42 105.228 1852.68 Q103.307 1850.95 100.205 1850.95 Q98.0058 1850.95 95.5521 1851.71 Q93.1215 1852.48 90.3438 1854.03 L90.3438 1849.3 Q93.1678 1848.17 95.6215 1847.59 Q98.0752 1847.01 100.112 1847.01 Q105.483 1847.01 108.677 1849.7 Q111.871 1852.38 111.871 1856.87 Q111.871 1859 111.061 1860.92 Q110.274 1862.82 108.168 1865.41 Q107.589 1866.09 104.487 1869.3 Q101.385 1872.5 95.7373 1878.26 Z" fill="#000000" fill-rule="nonzero" fill-opacity="1" /><path clip-path="url(#clip570)" d="M51.5708 1540.31 L81.2466 1540.31 L81.2466 1544.24 L51.5708 1544.24 L51.5708 1540.31 Z" fill="#000000" fill-rule="nonzero" fill-opacity="1" /><path clip-path="url(#clip570)" d="M92.1493 1553.2 L99.7882 1553.2 L99.7882 1526.84 L91.478 1528.5 L91.478 1524.24 L99.7419 1522.58 L104.418 1522.58 L104.418 1553.2 L112.057 1553.2 L112.057 1557.14 L92.1493 1557.14 L92.1493 1553.2 Z" fill="#000000" fill-rule="nonzero" fill-opacity="1" /><path clip-path="url(#clip570)" d="M100.112 1200.6 Q96.5011 1200.6 94.6724 1204.16 Q92.8669 1207.7 92.8669 1214.83 Q92.8669 1221.94 94.6724 1225.51 Q96.5011 1229.05 100.112 1229.05 Q103.746 1229.05 105.552 1225.51 Q107.381 1221.94 107.381 1214.83 Q107.381 1207.7 105.552 1204.16 Q103.746 1200.6 100.112 1200.6 M100.112 1196.89 Q105.922 1196.89 108.978 1201.5 Q112.057 1206.08 112.057 1214.83 Q112.057 1223.56 108.978 1228.17 Q105.922 1232.75 100.112 1232.75 Q94.3021 1232.75 91.2234 1228.17 Q88.1679 1223.56 88.1679 1214.83 Q88.1679 1206.08 91.2234 1201.5 Q94.3021 1196.89 100.112 1196.89 Z" fill="#000000" fill-rule="nonzero" fill-opacity="1" /><path clip-path="url(#clip570)" d="M92.1493 903.085 L99.7882 903.085 L99.7882 876.72 L91.478 878.386 L91.478 874.127 L99.7419 872.46 L104.418 872.46 L104.418 903.085 L112.057 903.085 L112.057 907.02 L92.1493 907.02 L92.1493 903.085 Z" fill="#000000" fill-rule="nonzero" fill-opacity="1" /><path clip-path="url(#clip570)" d="M95.7373 578.026 L112.057 578.026 L112.057 581.961 L90.1123 581.961 L90.1123 578.026 Q92.7743 575.272 97.3576 570.642 Q101.964 565.989 103.145 564.647 Q105.39 562.124 106.27 560.387 Q107.172 558.628 107.172 556.938 Q107.172 554.184 105.228 552.448 Q103.307 550.712 100.205 550.712 Q98.0058 550.712 95.5521 551.476 Q93.1215 552.239 90.3438 553.79 L90.3438 549.068 Q93.1678 547.934 95.6215 547.355 Q98.0752 546.776 100.112 546.776 Q105.483 546.776 108.677 549.462 Q111.871 552.147 111.871 556.638 Q111.871 558.767 111.061 560.688 Q110.274 562.587 108.168 565.179 Q107.589 565.85 104.487 569.068 Q101.385 572.262 95.7373 578.026 Z" fill="#000000" fill-rule="nonzero" fill-opacity="1" /><path clip-path="url(#clip570)" d="M104.927 238.268 Q108.283 238.986 110.158 241.254 Q112.057 243.523 112.057 246.856 Q112.057 251.972 108.538 254.773 Q105.02 257.574 98.5382 257.574 Q96.3623 257.574 94.0475 257.134 Q91.7558 256.717 89.3021 255.861 L89.3021 251.347 Q91.2465 252.481 93.5613 253.06 Q95.8761 253.639 98.3993 253.639 Q102.797 253.639 105.089 251.903 Q107.404 250.166 107.404 246.856 Q107.404 243.801 105.251 242.088 Q103.121 240.352 99.3021 240.352 L95.2743 240.352 L95.2743 236.509 L99.4872 236.509 Q102.936 236.509 104.765 235.143 Q106.594 233.754 106.594 231.162 Q106.594 228.5 104.696 227.088 Q102.821 225.653 99.3021 225.653 Q97.3808 225.653 95.1817 226.069 Q92.9826 226.486 90.3438 227.366 L90.3438 223.199 Q93.0058 222.458 95.3206 222.088 Q97.6585 221.717 99.7187 221.717 Q105.043 221.717 108.145 224.148 Q111.246 226.555 111.246 230.676 Q111.246 233.546 109.603 235.537 Q107.959 237.504 104.927 238.268 Z" fill="#000000" fill-rule="nonzero" fill-opacity="1" /><polyline clip-path="url(#clip572)" style="stroke:#000080; stroke-linecap:round; stroke-linejoin:round; stroke-width:4; stroke-opacity:1; fill:none" points="786.143,1548.16 790.397,1532.55 794.126,1517.14 797.323,1501.98 799.977,1487.1 802.084,1472.55 803.638,1458.36 804.635,1444.56 805.072,1431.18 804.948,1418.27 804.264,1405.86 803.021,1393.97 801.223,1382.63 798.874,1371.88 795.979,1361.74 792.547,1352.24 788.585,1343.39 784.104,1335.23 779.114,1327.76 773.629,1321.02 767.662,1315.02 761.227,1309.76 754.342,1305.28 747.022,1301.57 739.287,1298.64 731.156,1296.51 722.649,1295.18 713.787,1294.65 704.592,1294.92 695.088,1296 685.299,1297.88 675.248,1300.55 664.961,1304.01 654.463,1308.25 643.781,1313.25 632.942,1319.02 621.972,1325.53 610.899,1332.76 599.751,1340.71 588.555,1349.34 577.34,1358.63 566.133,1368.57 554.963,1379.13 543.858,1390.29 532.844,1402 521.951,1414.25 511.204,1427.01 500.631,1440.23 490.259,1453.9 480.112,1467.97 470.217,1482.42 460.599,1497.19 451.281,1512.27 442.286,1527.6 433.638,1543.15 425.357,1558.89 417.465,1574.77 409.981,1590.75 402.923,1606.8 396.311,1622.87 390.159,1638.92 384.483,1654.91 379.298,1670.81 374.617,1686.57 370.451,1702.15 366.811,1717.52 363.705,1732.64 361.142,1747.46 359.128,1761.96 357.667,1776.09 356.765,1789.82 356.422,1803.11 356.64,1815.94 357.418,1828.27 358.754,1840.07 360.646,1851.31 363.087,1861.96 366.072,1872 369.594,1881.39 373.644,1890.12 378.212,1898.17 383.286,1905.52 388.853,1912.14 394.9,1918.01 401.411,1923.14 408.371,1927.5 415.762,1931.07 423.565,1933.87 431.761,1935.86 440.329,1937.06 449.249,1937.45 458.497,1937.05 468.05,1935.84 477.886,1933.83 487.978,1931.02 498.303,1927.43 508.833,1923.06 519.543,1917.92 530.407,1912.03 541.396,1905.4 552.483,1898.04 563.641,1889.98 574.842,1881.24 586.058,1871.83 597.26,1861.79 608.422,1851.13 619.514,1839.88 630.509,1828.07 641.38,1815.73 652.099,1802.89 662.64,1789.59 672.976,1775.85 683.082,1761.72 692.932,1747.22 702.502,1732.39 711.767,1717.27 720.705,1701.89 729.293,1686.31 737.51,1670.54 745.335,1654.64 752.748,1638.65 759.732,1622.6 766.269,1606.53 772.341,1590.48 777.935,1574.5 783.036,1558.63 787.632,1542.89 "/>
<polyline clip-path="url(#clip572)" style="stroke:#000080; stroke-linecap:round; stroke-linejoin:round; stroke-width:4; stroke-opacity:1; fill:none" points="2268.73,906.605 2276.07,896.542 2281.72,886.813 2285.64,877.441 2287.82,868.451 2288.28,859.864 2286.99,851.702 2283.97,843.985 2279.23,836.733 2272.77,829.964 2264.61,823.695 2254.77,817.941 2243.28,812.717 2230.17,808.036 2215.46,803.909 2199.2,800.347 2181.42,797.359 2162.17,794.953 2141.5,793.133 2119.46,791.905 2096.1,791.273 2071.49,791.236 2045.68,791.796 2018.74,792.952 1990.74,794.699 1961.74,797.035 1931.82,799.952 1901.05,803.444 1869.52,807.503 1837.29,812.117 1804.46,817.275 1771.1,822.965 1737.29,829.173 1703.12,835.882 1668.68,843.076 1634.04,850.737 1599.31,858.845 1564.56,867.382 1529.88,876.324 1495.36,885.65 1461.09,895.337 1427.14,905.361 1393.61,915.695 1360.58,926.315 1328.13,937.194 1296.34,948.305 1265.3,959.62 1235.07,971.11 1205.74,982.747 1177.38,994.502 1150.06,1006.35 1123.84,1018.25 1098.8,1030.18 1074.99,1042.11 1052.48,1054.01 1031.32,1065.85 1011.56,1077.6 993.26,1089.23 976.457,1100.72 961.196,1112.02 947.514,1123.12 935.446,1133.99 925.023,1144.6 916.269,1154.92 909.207,1164.93 903.854,1174.6 900.225,1183.91 898.328,1192.83 898.167,1201.35 899.744,1209.44 903.053,1217.08 908.088,1224.25 914.835,1230.93 923.278,1237.12 933.394,1242.78 945.16,1247.92 958.546,1252.51 973.518,1256.54 990.039,1260 1008.07,1262.89 1027.56,1265.2 1048.46,1266.92 1070.73,1268.05 1094.3,1268.58 1119.12,1268.52 1145.12,1267.86 1172.25,1266.6 1200.42,1264.76 1229.58,1262.32 1259.65,1259.31 1290.55,1255.72 1322.2,1251.57 1354.54,1246.86 1387.47,1241.61 1420.91,1235.83 1454.78,1229.54 1489,1222.75 1523.49,1215.48 1558.14,1207.74 1592.88,1199.56 1627.63,1190.95 1662.28,1181.94 1696.77,1172.55 1730.99,1162.81 1764.88,1152.73 1798.33,1142.35 1831.27,1131.68 1863.61,1120.76 1895.28,1109.61 1926.19,1098.27 1956.27,1086.75 1985.45,1075.09 2013.64,1063.32 2040.78,1051.46 2066.8,1039.55 2091.64,1027.62 2115.24,1015.69 2137.53,1003.8 2158.45,991.974 2177.97,980.242 2196.02,968.633 2212.57,957.178 2227.57,945.905 2240.98,934.842 2252.77,924.016 2262.92,913.455 2271.39,903.185 "/>
<polyline clip-path="url(#clip572)" style="stroke:#000080; stroke-linecap:round; stroke-linejoin:round; stroke-width:4; stroke-opacity:1; fill:none" points="1745.93,1735.68 1738.59,1715.68 1729.93,1695.48 1719.96,1675.12 1708.72,1654.67 1696.23,1634.17 1682.51,1613.68 1667.62,1593.24 1651.58,1572.9 1634.43,1552.72 1616.21,1532.74 1596.98,1513.02 1576.78,1493.61 1555.66,1474.55 1533.67,1455.9 1510.87,1437.69 1487.31,1419.97 1463.06,1402.8 1438.17,1386.2 1412.71,1370.23 1386.74,1354.92 1360.32,1340.31 1333.53,1326.44 1306.42,1313.34 1279.07,1301.05 1251.54,1289.59 1223.91,1278.99 1196.24,1269.29 1168.6,1260.5 1141.06,1252.64 1113.69,1245.75 1086.56,1239.83 1059.73,1234.89 1033.28,1230.96 1007.27,1228.04 981.754,1226.13 956.81,1225.25 932.496,1225.39 908.872,1226.56 885.998,1228.75 863.93,1231.95 842.725,1236.17 822.435,1241.38 803.11,1247.58 784.799,1254.74 767.548,1262.86 751.4,1271.9 736.395,1281.86 722.571,1292.7 709.962,1304.39 698.599,1316.92 688.513,1330.24 679.726,1344.32 672.262,1359.12 666.139,1374.62 661.372,1390.77 657.973,1407.53 655.951,1424.86 655.311,1442.72 656.054,1461.06 658.179,1479.83 661.68,1499 666.549,1518.5 672.773,1538.29 680.336,1558.33 689.221,1578.56 699.404,1598.93 710.86,1619.39 723.561,1639.9 737.475,1660.39 752.566,1680.82 768.798,1701.13 786.13,1721.28 804.518,1741.22 823.916,1760.89 844.277,1780.24 865.548,1799.24 887.678,1817.82 910.61,1835.95 934.287,1853.58 958.651,1870.66 983.639,1887.15 1009.19,1903.01 1035.24,1918.21 1061.73,1932.7 1088.58,1946.44 1115.73,1959.41 1143.11,1971.56 1170.66,1982.88 1198.31,1993.33 1225.98,2002.88 1253.6,2011.51 1281.12,2019.21 1308.45,2025.94 1335.54,2031.7 1362.31,2036.46 1388.69,2040.23 1414.63,2042.98 1440.05,2044.71 1464.89,2045.42 1489.09,2045.11 1512.59,2043.77 1535.34,2041.41 1557.26,2038.03 1578.32,2033.65 1598.45,2028.27 1617.61,2021.91 1635.74,2014.58 1652.81,2006.31 1668.77,1997.11 1683.58,1987 1697.2,1976.02 1709.6,1964.18 1720.75,1951.52 1730.62,1938.07 1739.19,1923.87 1746.43,1908.94 1752.32,1893.33 1756.86,1877.07 1760.03,1860.21 1761.82,1842.79 1762.23,1824.85 1761.25,1806.44 1758.89,1787.59 1755.16,1768.37 1750.07,1748.82 1743.61,1728.98 "/>
<polyline clip-path="url(#clip572)" style="stroke:#000080; stroke-linecap:round; stroke-linejoin:round; stroke-width:4; stroke-opacity:1; fill:none" points="806.911,1366.74 809.03,1362.01 810.735,1357.37 812.02,1352.85 812.883,1348.45 813.322,1344.19 813.335,1340.07 812.923,1336.1 812.087,1332.3 810.828,1328.67 809.15,1325.22 807.057,1321.96 804.554,1318.91 801.647,1316.06 798.345,1313.42 794.654,1311.01 790.585,1308.82 786.147,1306.86 781.351,1305.14 776.21,1303.66 770.736,1302.43 764.944,1301.45 758.847,1300.71 752.46,1300.23 745.8,1300 738.884,1300.03 731.728,1300.31 724.351,1300.84 716.77,1301.63 709.006,1302.67 701.077,1303.95 693.003,1305.48 684.804,1307.25 676.501,1309.25 668.115,1311.49 659.666,1313.95 651.176,1316.63 642.665,1319.52 634.156,1322.62 625.669,1325.92 617.226,1329.4 608.847,1333.07 600.554,1336.91 592.368,1340.91 584.308,1345.06 576.395,1349.35 568.649,1353.78 561.089,1358.32 553.734,1362.98 546.603,1367.72 539.713,1372.56 533.081,1377.47 526.724,1382.43 520.659,1387.45 514.899,1392.5 509.46,1397.58 504.354,1402.66 499.596,1407.75 495.196,1412.81 491.166,1417.85 487.516,1422.85 484.255,1427.8 481.391,1432.68 478.931,1437.49 476.881,1442.2 475.247,1446.81 474.033,1451.31 473.241,1455.69 472.873,1459.93 472.932,1464.03 473.415,1467.97 474.323,1471.75 475.652,1475.35 477.401,1478.76 479.563,1481.98 482.134,1485.01 485.108,1487.82 488.476,1490.42 492.231,1492.8 496.363,1494.95 500.862,1496.86 505.717,1498.54 510.915,1499.98 516.443,1501.17 522.288,1502.11 528.435,1502.81 534.868,1503.25 541.572,1503.43 548.53,1503.36 555.725,1503.04 563.137,1502.46 570.75,1501.63 578.544,1500.56 586.498,1499.23 594.595,1497.66 602.813,1495.85 611.131,1493.81 619.529,1491.54 627.987,1489.04 636.482,1486.32 644.994,1483.39 653.501,1480.26 661.982,1476.93 670.415,1473.41 678.781,1469.72 687.058,1465.85 695.224,1461.82 703.261,1457.65 711.147,1453.33 718.863,1448.89 726.389,1444.32 733.708,1439.65 740.8,1434.89 747.648,1430.04 754.235,1425.12 760.544,1420.14 766.559,1415.12 772.266,1410.06 777.65,1404.99 782.698,1399.9 787.396,1394.82 791.735,1389.76 795.701,1384.72 799.287,1379.73 802.482,1374.79 805.279,1369.92 807.67,1365.13 "/>
<polyline clip-path="url(#clip572)" style="stroke:#000080; stroke-linecap:round; stroke-linejoin:round; stroke-width:4; stroke-opacity:1; fill:none" points="1980.05,611.353 1982.91,584.657 1983.98,558.169 1983.25,531.955 1980.72,506.081 1976.4,480.611 1970.3,455.609 1962.43,431.139 1952.82,407.26 1941.49,384.032 1928.47,361.514 1913.79,339.762 1897.48,318.83 1879.59,298.771 1860.16,279.635 1839.24,261.469 1816.89,244.318 1793.15,228.227 1768.09,213.235 1741.78,199.379 1714.27,186.694 1685.63,175.212 1655.94,164.961 1625.27,155.968 1593.7,148.254 1561.31,141.84 1528.17,136.74 1494.37,132.967 1460,130.532 1425.14,129.44 1389.88,129.694 1354.3,131.293 1318.5,134.234 1282.56,138.508 1246.58,144.106 1210.64,151.013 1174.83,159.212 1139.25,168.683 1103.98,179.401 1069.11,191.34 1034.73,204.471 1000.92,218.76 967.773,234.171 935.364,250.667 903.777,268.206 873.092,286.744 843.384,306.234 814.728,326.628 787.195,347.876 760.855,369.923 735.773,392.716 712.012,416.196 689.631,440.305 668.686,464.984 649.23,490.169 631.311,515.799 614.974,541.809 600.26,568.134 587.206,594.709 575.843,621.466 566.202,648.34 558.305,675.263 552.172,702.167 547.82,728.986 545.258,755.652 544.493,782.099 545.527,808.26 548.357,834.071 552.977,859.466 559.375,884.383 567.534,908.758 577.435,932.532 589.052,955.644 602.357,978.037 617.316,999.655 633.893,1020.44 652.045,1040.35 671.727,1059.33 692.89,1077.33 715.481,1094.3 739.443,1110.21 764.718,1125.01 791.241,1138.68 818.946,1151.16 847.764,1162.44 877.623,1172.48 908.449,1181.26 940.163,1188.75 972.688,1194.95 1005.94,1199.83 1039.84,1203.37 1074.3,1205.58 1109.24,1206.45 1144.56,1205.97 1180.18,1204.14 1216.01,1200.98 1251.96,1196.48 1287.94,1190.66 1323.87,1183.54 1359.64,1175.12 1395.18,1165.44 1430.39,1154.51 1465.18,1142.37 1499.47,1129.05 1533.17,1114.56 1566.2,1098.97 1598.48,1082.29 1629.92,1064.58 1660.45,1045.88 1689.98,1026.24 1718.46,1005.7 1745.79,984.31 1771.93,962.133 1796.79,939.221 1820.32,915.631 1842.47,891.422 1863.16,866.654 1882.37,841.389 1900.02,815.691 1916.09,789.623 1930.53,763.252 1943.3,736.642 1954.37,709.86 1963.72,682.973 1971.32,656.049 1977.16,629.154 1981.21,602.356 "/>
<polyline clip-path="url(#clip572)" style="stroke:#000080; stroke-linecap:round; stroke-linejoin:round; stroke-width:4; stroke-opacity:1; fill:none" points="1982.75,1240.46 1983.11,1236.64 1982.48,1232.87 1980.87,1229.15 1978.28,1225.49 1974.72,1221.89 1970.19,1218.38 1964.7,1214.95 1958.28,1211.62 1950.93,1208.39 1942.68,1205.28 1933.54,1202.28 1923.54,1199.42 1912.7,1196.68 1901.06,1194.09 1888.63,1191.65 1875.45,1189.36 1861.55,1187.23 1846.98,1185.27 1831.75,1183.47 1815.92,1181.85 1799.52,1180.41 1782.6,1179.15 1765.19,1178.08 1747.34,1177.19 1729.09,1176.5 1710.49,1175.99 1691.58,1175.68 1672.42,1175.56 1653.05,1175.64 1633.52,1175.91 1613.87,1176.38 1594.17,1177.04 1574.44,1177.88 1554.76,1178.92 1535.16,1180.14 1515.69,1181.55 1496.41,1183.13 1477.35,1184.89 1458.57,1186.82 1440.12,1188.92 1422.04,1191.18 1404.38,1193.59 1387.17,1196.15 1370.47,1198.86 1354.32,1201.7 1338.75,1204.67 1323.81,1207.76 1309.52,1210.97 1295.94,1214.28 1283.09,1217.69 1271,1221.18 1259.7,1224.76 1249.23,1228.41 1239.6,1232.12 1230.85,1235.89 1222.99,1239.69 1216.05,1243.54 1210.03,1247.4 1204.97,1251.28 1200.86,1255.17 1197.72,1259.05 1195.56,1262.92 1194.38,1266.76 1194.18,1270.57 1194.98,1274.33 1196.75,1278.05 1199.51,1281.7 1203.24,1285.28 1207.93,1288.78 1213.57,1292.19 1220.15,1295.51 1227.65,1298.71 1236.05,1301.81 1245.34,1304.78 1255.48,1307.63 1266.46,1310.34 1278.24,1312.9 1290.8,1315.32 1304.1,1317.59 1318.11,1319.69 1332.8,1321.62 1348.13,1323.39 1364.05,1324.98 1380.54,1326.39 1397.55,1327.62 1415.04,1328.66 1432.96,1329.51 1451.28,1330.18 1469.93,1330.65 1488.88,1330.93 1508.08,1331.01 1527.48,1330.9 1547.04,1330.6 1566.7,1330.1 1586.41,1329.41 1606.13,1328.53 1625.8,1327.46 1645.38,1326.21 1664.82,1324.77 1684.07,1323.16 1703.09,1321.37 1721.81,1319.41 1740.2,1317.29 1758.22,1315 1775.81,1312.56 1792.93,1309.98 1809.54,1307.25 1825.6,1304.39 1841.06,1301.39 1855.9,1298.28 1870.07,1295.06 1883.53,1291.73 1896.26,1288.31 1908.22,1284.8 1919.38,1281.2 1929.71,1277.54 1939.19,1273.82 1947.79,1270.05 1955.5,1266.24 1962.29,1262.39 1968.14,1258.52 1973.05,1254.64 1977,1250.75 1979.97,1246.87 1981.97,1243.01 1982.98,1239.17 "/>
<polyline clip-path="url(#clip572)" style="stroke:#dc143c; stroke-linecap:round; stroke-linejoin:round; stroke-width:4; stroke-opacity:1; fill:none" points="2282.61,1056.92 2287.78,1005.06 2290.36,953.577 2290.34,902.594 2287.72,852.241 2282.51,802.642 2274.72,753.921 2264.37,706.202 2251.48,659.601 2236.09,614.237 2218.24,570.223 2197.97,527.668 2175.33,486.679 2150.38,447.358 2123.19,409.804 2093.81,374.111 2062.32,340.367 2028.8,308.658 1993.34,279.062 1956.02,251.653 1916.94,226.5 1876.19,203.665 1833.88,183.206 1790.11,165.175 1744.99,149.615 1698.63,136.566 1651.16,126.061 1602.68,118.125 1553.32,112.779 1503.21,110.036 1452.46,109.902 1401.21,112.379 1349.59,117.46 1297.71,125.132 1245.72,135.376 1193.74,148.166 1141.9,163.471 1090.33,181.252 1039.17,201.465 988.527,224.059 938.543,248.978 889.338,276.16 841.037,305.536 793.758,337.033 747.622,370.573 702.742,406.071 659.231,443.439 617.198,482.584 576.749,523.407 537.983,565.806 500.998,609.677 465.886,654.908 432.736,701.387 401.629,748.998 372.645,797.622 345.854,847.137 321.324,897.419 299.117,948.343 279.288,999.781 261.887,1051.61 246.956,1103.69 234.534,1155.89 224.651,1208.1 217.332,1260.16 212.596,1311.97 210.454,1363.37 210.911,1414.26 213.967,1464.5 219.613,1513.96 227.837,1562.52 238.616,1610.06 251.925,1656.46 267.729,1701.6 285.99,1745.38 306.661,1787.68 329.692,1828.39 355.024,1867.42 382.595,1904.67 412.334,1940.04 444.169,1973.45 478.019,2004.81 513.8,2034.04 551.422,2061.08 590.792,2085.84 631.81,2108.28 674.375,2128.34 718.38,2145.96 763.715,2161.1 810.266,2173.72 857.918,2183.79 906.552,2191.3 956.044,2196.21 1006.27,2198.51 1057.11,2198.2 1108.43,2195.29 1160.11,2189.77 1212.02,2181.67 1264.02,2170.99 1315.98,2157.78 1367.78,2142.05 1419.29,2123.86 1470.38,2103.24 1520.92,2080.25 1570.78,2054.95 1619.84,2027.39 1667.98,1997.65 1715.07,1965.81 1761.01,1931.93 1805.66,1896.11 1848.93,1858.44 1890.71,1819.01 1930.88,1777.91 1969.35,1735.26 2006.03,1691.15 2040.82,1645.7 2073.63,1599.02 2104.39,1551.23 2133.01,1502.45 2159.42,1452.8 2183.56,1402.4 2205.38,1351.38 2224.8,1299.87 2241.79,1247.99 2256.3,1195.88 2268.3,1143.67 2277.75,1091.48 2284.64,1039.44 "/>
</svg>
