<?xml version="1.0" encoding="utf-8"?>
<svg xmlns="http://www.w3.org/2000/svg" xmlns:xlink="http://www.w3.org/1999/xlink" width="600" height="400" viewBox="0 0 2400 1600">
<defs>
  <clipPath id="clip430">
    <rect x="0" y="0" width="2400" height="1600"/>
  </clipPath>
</defs>
<path clip-path="url(#clip430)" d="M0 1600 L2400 1600 L2400 0 L0 0  Z" fill="#ffffff" fill-rule="evenodd" fill-opacity="1"/>
<defs>
  <clipPath id="clip431">
    <rect x="480" y="0" width="1681" height="1600"/>
  </clipPath>
</defs>
<path clip-path="url(#clip430)" d="M204.45 1423.18 L2352.76 1423.18 L2352.76 47.2441 L204.45 47.2441  Z" fill="#ffffff" fill-rule="evenodd" fill-opacity="1"/>
<defs>
  <clipPath id="clip432">
    <rect x="204" y="47" width="2149" height="1377"/>
  </clipPath>
</defs>
<polyline clip-path="url(#clip432)" style="stroke:#000000; stroke-linecap:round; stroke-linejoin:round; stroke-width:2; stroke-opacity:0.1; fill:none" points="659.332,1423.18 659.332,47.2441 "/>
<polyline clip-path="url(#clip432)" style="stroke:#000000; stroke-linecap:round; stroke-linejoin:round; stroke-width:2; stroke-opacity:0.1; fill:none" points="1222.31,1423.18 1222.31,47.2441 "/>
<polyline clip-path="url(#clip432)" style="stroke:#000000; stroke-linecap:round; stroke-linejoin:round; stroke-width:2; stroke-opacity:0.1; fill:none" points="1785.28,1423.18 1785.28,47.2441 "/>
<polyline clip-path="url(#clip432)" style="stroke:#000000; stroke-linecap:round; stroke-linejoin:round; stroke-width:2; stroke-opacity:0.1; fill:none" points="2348.25,1423.18 2348.25,47.2441 "/>
<polyline clip-path="url(#clip430)" style="stroke:#000000; stroke-linecap:round; stroke-linejoin:round; stroke-width:4; stroke-opacity:1; fill:none" points="204.45,1423.18 2352.76,1423.18 "/>
<polyline clip-path="url(#clip430)" style="stroke:#000000; stroke-linecap:round; stroke-linejoin:round; stroke-width:4; stroke-opacity:1; fill:none" points="659.332,1423.18 659.332,1404.28 "/>
<polyline clip-path="url(#clip430)" style="stroke:#000000; stroke-linecap:round; stroke-linejoin:round; stroke-width:4; stroke-opacity:1; fill:none" points="1222.31,1423.18 1222.31,1404.28 "/>
<polyline clip-path="url(#clip430)" style="stroke:#000000; stroke-linecap:round; stroke-linejoin:round; stroke-width:4; stroke-opacity:1; fill:none" points="1785.28,1423.18 1785.28,1404.28 "/>
<polyline clip-path="url(#clip430)" style="stroke:#000000; stroke-linecap:round; stroke-linejoin:round; stroke-width:4; stroke-opacity:1; fill:none" points="2348.25,1423.18 2348.25,1404.28 "/>
<path clip-path="url(#clip430)" d="M632.689 1451.02 L654.911 1451.02 L654.911 1453.01 L642.365 1485.58 L637.48 1485.58 L649.286 1454.96 L632.689 1454.96 L632.689 1451.02 Z" fill="#000000" fill-rule="nonzero" fill-opacity="1" /><path clip-path="url(#clip430)" d="M674.031 1454.1 Q670.42 1454.1 668.591 1457.66 Q666.786 1461.2 666.786 1468.33 Q666.786 1475.44 668.591 1479.01 Q670.42 1482.55 674.031 1482.55 Q677.665 1482.55 679.471 1479.01 Q681.3 1475.44 681.3 1468.33 Q681.3 1461.2 679.471 1457.66 Q677.665 1454.1 674.031 1454.1 M674.031 1450.39 Q679.841 1450.39 682.897 1455 Q685.976 1459.58 685.976 1468.33 Q685.976 1477.06 682.897 1481.67 Q679.841 1486.25 674.031 1486.25 Q668.221 1486.25 665.142 1481.67 Q662.087 1477.06 662.087 1468.33 Q662.087 1459.58 665.142 1455 Q668.221 1450.39 674.031 1450.39 Z" fill="#000000" fill-rule="nonzero" fill-opacity="1" /><path clip-path="url(#clip430)" d="M1207.18 1469.17 Q1203.84 1469.17 1201.92 1470.95 Q1200.03 1472.73 1200.03 1475.86 Q1200.03 1478.98 1201.92 1480.77 Q1203.84 1482.55 1207.18 1482.55 Q1210.51 1482.55 1212.43 1480.77 Q1214.35 1478.96 1214.35 1475.86 Q1214.35 1472.73 1212.43 1470.95 Q1210.53 1469.17 1207.18 1469.17 M1202.5 1467.18 Q1199.49 1466.44 1197.8 1464.38 Q1196.14 1462.32 1196.14 1459.35 Q1196.14 1455.21 1199.08 1452.8 Q1202.04 1450.39 1207.18 1450.39 Q1212.34 1450.39 1215.28 1452.8 Q1218.22 1455.21 1218.22 1459.35 Q1218.22 1462.32 1216.53 1464.38 Q1214.86 1466.44 1211.88 1467.18 Q1215.26 1467.96 1217.13 1470.26 Q1219.03 1472.55 1219.03 1475.86 Q1219.03 1480.88 1215.95 1483.57 Q1212.9 1486.25 1207.18 1486.25 Q1201.46 1486.25 1198.38 1483.57 Q1195.33 1480.88 1195.33 1475.86 Q1195.33 1472.55 1197.22 1470.26 Q1199.12 1467.96 1202.5 1467.18 M1200.79 1459.79 Q1200.79 1462.48 1202.46 1463.98 Q1204.15 1465.49 1207.18 1465.49 Q1210.19 1465.49 1211.88 1463.98 Q1213.59 1462.48 1213.59 1459.79 Q1213.59 1457.11 1211.88 1455.6 Q1210.19 1454.1 1207.18 1454.1 Q1204.15 1454.1 1202.46 1455.6 Q1200.79 1457.11 1200.79 1459.79 Z" fill="#000000" fill-rule="nonzero" fill-opacity="1" /><path clip-path="url(#clip430)" d="M1237.34 1454.1 Q1233.73 1454.1 1231.9 1457.66 Q1230.09 1461.2 1230.09 1468.33 Q1230.09 1475.44 1231.9 1479.01 Q1233.73 1482.55 1237.34 1482.55 Q1240.97 1482.55 1242.78 1479.01 Q1244.61 1475.44 1244.61 1468.33 Q1244.61 1461.2 1242.78 1457.66 Q1240.97 1454.1 1237.34 1454.1 M1237.34 1450.39 Q1243.15 1450.39 1246.21 1455 Q1249.28 1459.58 1249.28 1468.33 Q1249.28 1477.06 1246.21 1481.67 Q1243.15 1486.25 1237.34 1486.25 Q1231.53 1486.25 1228.45 1481.67 Q1225.4 1477.06 1225.4 1468.33 Q1225.4 1459.58 1228.45 1455 Q1231.53 1450.39 1237.34 1450.39 Z" fill="#000000" fill-rule="nonzero" fill-opacity="1" /><path clip-path="url(#clip430)" d="M1760.41 1484.86 L1760.41 1480.6 Q1762.17 1481.44 1763.97 1481.88 Q1765.78 1482.32 1767.51 1482.32 Q1772.14 1482.32 1774.57 1479.21 Q1777.03 1476.09 1777.37 1469.75 Q1776.03 1471.74 1773.97 1472.8 Q1771.91 1473.87 1769.41 1473.87 Q1764.23 1473.87 1761.19 1470.74 Q1758.18 1467.59 1758.18 1462.15 Q1758.18 1456.83 1761.33 1453.61 Q1764.48 1450.39 1769.71 1450.39 Q1775.71 1450.39 1778.86 1455 Q1782.03 1459.58 1782.03 1468.33 Q1782.03 1476.51 1778.14 1481.39 Q1774.27 1486.25 1767.72 1486.25 Q1765.96 1486.25 1764.16 1485.9 Q1762.35 1485.56 1760.41 1484.86 M1769.71 1470.21 Q1772.86 1470.21 1774.69 1468.06 Q1776.54 1465.9 1776.54 1462.15 Q1776.54 1458.43 1774.69 1456.27 Q1772.86 1454.1 1769.71 1454.1 Q1766.56 1454.1 1764.71 1456.27 Q1762.88 1458.43 1762.88 1462.15 Q1762.88 1465.9 1764.71 1468.06 Q1766.56 1470.21 1769.71 1470.21 Z" fill="#000000" fill-rule="nonzero" fill-opacity="1" /><path clip-path="url(#clip430)" d="M1800.43 1454.1 Q1796.82 1454.1 1794.99 1457.66 Q1793.18 1461.2 1793.18 1468.33 Q1793.18 1475.44 1794.99 1479.01 Q1796.82 1482.55 1800.43 1482.55 Q1804.06 1482.55 1805.87 1479.01 Q1807.7 1475.44 1807.7 1468.33 Q1807.7 1461.2 1805.87 1457.66 Q1804.06 1454.1 1800.43 1454.1 M1800.43 1450.39 Q1806.24 1450.39 1809.29 1455 Q1812.37 1459.58 1812.37 1468.33 Q1812.37 1477.06 1809.29 1481.67 Q1806.24 1486.25 1800.43 1486.25 Q1794.62 1486.25 1791.54 1481.67 Q1788.48 1477.06 1788.48 1468.33 Q1788.48 1459.58 1791.54 1455 Q1794.62 1450.39 1800.43 1450.39 Z" fill="#000000" fill-rule="nonzero" fill-opacity="1" /><path clip-path="url(#clip430)" d="M2307.86 1481.64 L2315.5 1481.64 L2315.5 1455.28 L2307.19 1456.95 L2307.19 1452.69 L2315.45 1451.02 L2320.13 1451.02 L2320.13 1481.64 L2327.77 1481.64 L2327.77 1485.58 L2307.86 1485.58 L2307.86 1481.64 Z" fill="#000000" fill-rule="nonzero" fill-opacity="1" /><path clip-path="url(#clip430)" d="M2347.21 1454.1 Q2343.6 1454.1 2341.77 1457.66 Q2339.97 1461.2 2339.97 1468.33 Q2339.97 1475.44 2341.77 1479.01 Q2343.6 1482.55 2347.21 1482.55 Q2350.84 1482.55 2352.65 1479.01 Q2354.48 1475.44 2354.48 1468.33 Q2354.48 1461.2 2352.65 1457.66 Q2350.84 1454.1 2347.21 1454.1 M2347.21 1450.39 Q2353.02 1450.39 2356.08 1455 Q2359.15 1459.58 2359.15 1468.33 Q2359.15 1477.06 2356.08 1481.67 Q2353.02 1486.25 2347.21 1486.25 Q2341.4 1486.25 2338.32 1481.67 Q2335.27 1477.06 2335.27 1468.33 Q2335.27 1459.58 2338.32 1455 Q2341.4 1450.39 2347.21 1450.39 Z" fill="#000000" fill-rule="nonzero" fill-opacity="1" /><path clip-path="url(#clip430)" d="M2377.37 1454.1 Q2373.76 1454.1 2371.93 1457.66 Q2370.13 1461.2 2370.13 1468.33 Q2370.13 1475.44 2371.93 1479.01 Q2373.76 1482.55 2377.37 1482.55 Q2381.01 1482.55 2382.81 1479.01 Q2384.64 1475.44 2384.64 1468.33 Q2384.64 1461.2 2382.81 1457.66 Q2381.01 1454.1 2377.37 1454.1 M2377.37 1450.39 Q2383.18 1450.39 2386.24 1455 Q2389.32 1459.58 2389.32 1468.33 Q2389.32 1477.06 2386.24 1481.67 Q2383.18 1486.25 2377.37 1486.25 Q2371.56 1486.25 2368.48 1481.67 Q2365.43 1477.06 2365.43 1468.33 Q2365.43 1459.58 2368.48 1455 Q2371.56 1450.39 2377.37 1450.39 Z" fill="#000000" fill-rule="nonzero" fill-opacity="1" /><path clip-path="url(#clip430)" d="M1204 1525.81 L1204 1543.66 L1212.08 1543.66 Q1216.57 1543.66 1219.02 1541.34 Q1221.47 1539.02 1221.47 1534.72 Q1221.47 1530.45 1219.02 1528.13 Q1216.57 1525.81 1212.08 1525.81 L1204 1525.81 M1197.57 1520.52 L1212.08 1520.52 Q1220.07 1520.52 1224.14 1524.15 Q1228.25 1527.75 1228.25 1534.72 Q1228.25 1541.75 1224.14 1545.35 Q1220.07 1548.95 1212.08 1548.95 L1204 1548.95 L1204 1568.04 L1197.57 1568.04 L1197.57 1520.52 Z" fill="#000000" fill-rule="nonzero" fill-opacity="1" /><path clip-path="url(#clip430)" d="M1256.13 1537.87 Q1255.15 1537.3 1253.97 1537.04 Q1252.82 1536.76 1251.42 1536.76 Q1246.46 1536.76 1243.78 1540 Q1241.14 1543.22 1241.14 1549.27 L1241.14 1568.04 L1235.25 1568.04 L1235.25 1532.4 L1241.14 1532.4 L1241.14 1537.93 Q1242.99 1534.69 1245.95 1533.13 Q1248.91 1531.54 1253.14 1531.54 Q1253.74 1531.54 1254.48 1531.63 Q1255.21 1531.7 1256.1 1531.85 L1256.13 1537.87 Z" fill="#000000" fill-rule="nonzero" fill-opacity="1" /><path clip-path="url(#clip430)" d="M1274.66 1536.5 Q1269.95 1536.5 1267.21 1540.19 Q1264.47 1543.85 1264.47 1550.25 Q1264.47 1556.65 1267.18 1560.34 Q1269.91 1564 1274.66 1564 Q1279.33 1564 1282.07 1560.31 Q1284.81 1556.62 1284.81 1550.25 Q1284.81 1543.92 1282.07 1540.23 Q1279.33 1536.5 1274.66 1536.5 M1274.66 1531.54 Q1282.29 1531.54 1286.66 1536.5 Q1291.02 1541.47 1291.02 1550.25 Q1291.02 1559 1286.66 1564 Q1282.29 1568.97 1274.66 1568.97 Q1266.99 1568.97 1262.62 1564 Q1258.3 1559 1258.3 1550.25 Q1258.3 1541.47 1262.62 1536.5 Q1266.99 1531.54 1274.66 1531.54 Z" fill="#000000" fill-rule="nonzero" fill-opacity="1" /><path clip-path="url(#clip430)" d="M1318.77 1518.52 L1318.77 1523.39 L1313.17 1523.39 Q1310.02 1523.39 1308.78 1524.66 Q1307.57 1525.93 1307.57 1529.24 L1307.57 1532.4 L1317.21 1532.4 L1317.21 1536.95 L1307.57 1536.95 L1307.57 1568.04 L1301.68 1568.04 L1301.68 1536.95 L1296.08 1536.95 L1296.08 1532.4 L1301.68 1532.4 L1301.68 1529.91 Q1301.68 1523.96 1304.45 1521.26 Q1307.22 1518.52 1313.23 1518.52 L1318.77 1518.52 Z" fill="#000000" fill-rule="nonzero" fill-opacity="1" /><path clip-path="url(#clip430)" d="M1323.67 1532.4 L1329.53 1532.4 L1329.53 1568.04 L1323.67 1568.04 L1323.67 1532.4 M1323.67 1518.52 L1329.53 1518.52 L1329.53 1525.93 L1323.67 1525.93 L1323.67 1518.52 Z" fill="#000000" fill-rule="nonzero" fill-opacity="1" /><path clip-path="url(#clip430)" d="M1347.58 1522.27 L1347.58 1532.4 L1359.64 1532.4 L1359.64 1536.95 L1347.58 1536.95 L1347.58 1556.3 Q1347.58 1560.66 1348.75 1561.9 Q1349.96 1563.14 1353.62 1563.14 L1359.64 1563.14 L1359.64 1568.04 L1353.62 1568.04 Q1346.84 1568.04 1344.27 1565.53 Q1341.69 1562.98 1341.69 1556.3 L1341.69 1536.95 L1337.39 1536.95 L1337.39 1532.4 L1341.69 1532.4 L1341.69 1522.27 L1347.58 1522.27 Z" fill="#000000" fill-rule="nonzero" fill-opacity="1" /><polyline clip-path="url(#clip432)" style="stroke:#000000; stroke-linecap:round; stroke-linejoin:round; stroke-width:2; stroke-opacity:0.1; fill:none" points="204.45,1384.24 2352.76,1384.24 "/>
<polyline clip-path="url(#clip432)" style="stroke:#000000; stroke-linecap:round; stroke-linejoin:round; stroke-width:2; stroke-opacity:0.1; fill:none" points="204.45,1033.41 2352.76,1033.41 "/>
<polyline clip-path="url(#clip432)" style="stroke:#000000; stroke-linecap:round; stroke-linejoin:round; stroke-width:2; stroke-opacity:0.1; fill:none" points="204.45,682.588 2352.76,682.588 "/>
<polyline clip-path="url(#clip432)" style="stroke:#000000; stroke-linecap:round; stroke-linejoin:round; stroke-width:2; stroke-opacity:0.1; fill:none" points="204.45,331.763 2352.76,331.763 "/>
<polyline clip-path="url(#clip430)" style="stroke:#000000; stroke-linecap:round; stroke-linejoin:round; stroke-width:4; stroke-opacity:1; fill:none" points="204.45,1423.18 204.45,47.2441 "/>
<polyline clip-path="url(#clip430)" style="stroke:#000000; stroke-linecap:round; stroke-linejoin:round; stroke-width:4; stroke-opacity:1; fill:none" points="204.45,1384.24 223.347,1384.24 "/>
<polyline clip-path="url(#clip430)" style="stroke:#000000; stroke-linecap:round; stroke-linejoin:round; stroke-width:4; stroke-opacity:1; fill:none" points="204.45,1033.41 223.347,1033.41 "/>
<polyline clip-path="url(#clip430)" style="stroke:#000000; stroke-linecap:round; stroke-linejoin:round; stroke-width:4; stroke-opacity:1; fill:none" points="204.45,682.588 223.347,682.588 "/>
<polyline clip-path="url(#clip430)" style="stroke:#000000; stroke-linecap:round; stroke-linejoin:round; stroke-width:4; stroke-opacity:1; fill:none" points="204.45,331.763 223.347,331.763 "/>
<path clip-path="url(#clip430)" d="M126.922 1382.37 Q123.774 1382.37 121.922 1384.53 Q120.093 1386.68 120.093 1390.43 Q120.093 1394.16 121.922 1396.33 Q123.774 1398.49 126.922 1398.49 Q130.07 1398.49 131.899 1396.33 Q133.751 1394.16 133.751 1390.43 Q133.751 1386.68 131.899 1384.53 Q130.07 1382.37 126.922 1382.37 M136.204 1367.72 L136.204 1371.98 Q134.445 1371.15 132.64 1370.71 Q130.857 1370.27 129.098 1370.27 Q124.468 1370.27 122.015 1373.39 Q119.584 1376.52 119.237 1382.84 Q120.603 1380.82 122.663 1379.76 Q124.723 1378.67 127.2 1378.67 Q132.408 1378.67 135.417 1381.84 Q138.45 1384.99 138.45 1390.43 Q138.45 1395.75 135.302 1398.97 Q132.154 1402.19 126.922 1402.19 Q120.927 1402.19 117.756 1397.61 Q114.584 1393 114.584 1384.27 Q114.584 1376.08 118.473 1371.22 Q122.362 1366.33 128.913 1366.33 Q130.672 1366.33 132.455 1366.68 Q134.26 1367.03 136.204 1367.72 Z" fill="#000000" fill-rule="nonzero" fill-opacity="1" /><path clip-path="url(#clip430)" d="M156.505 1370.04 Q152.894 1370.04 151.066 1373.6 Q149.26 1377.14 149.26 1384.27 Q149.26 1391.38 151.066 1394.94 Q152.894 1398.49 156.505 1398.49 Q160.14 1398.49 161.945 1394.94 Q163.774 1391.38 163.774 1384.27 Q163.774 1377.14 161.945 1373.6 Q160.14 1370.04 156.505 1370.04 M156.505 1366.33 Q162.315 1366.33 165.371 1370.94 Q168.45 1375.52 168.45 1384.27 Q168.45 1393 165.371 1397.61 Q162.315 1402.19 156.505 1402.19 Q150.695 1402.19 147.616 1397.61 Q144.561 1393 144.561 1384.27 Q144.561 1375.52 147.616 1370.94 Q150.695 1366.33 156.505 1366.33 Z" fill="#000000" fill-rule="nonzero" fill-opacity="1" /><path clip-path="url(#clip430)" d="M115.163 1016.13 L137.385 1016.13 L137.385 1018.12 L124.839 1050.69 L119.955 1050.69 L131.76 1020.07 L115.163 1020.07 L115.163 1016.13 Z" fill="#000000" fill-rule="nonzero" fill-opacity="1" /><path clip-path="url(#clip430)" d="M156.505 1019.21 Q152.894 1019.21 151.066 1022.78 Q149.26 1026.32 149.26 1033.45 Q149.26 1040.55 151.066 1044.12 Q152.894 1047.66 156.505 1047.66 Q160.14 1047.66 161.945 1044.12 Q163.774 1040.55 163.774 1033.45 Q163.774 1026.32 161.945 1022.78 Q160.14 1019.21 156.505 1019.21 M156.505 1015.51 Q162.315 1015.51 165.371 1020.11 Q168.45 1024.7 168.45 1033.45 Q168.45 1042.17 165.371 1046.78 Q162.315 1051.36 156.505 1051.36 Q150.695 1051.36 147.616 1046.78 Q144.561 1042.17 144.561 1033.45 Q144.561 1024.7 147.616 1020.11 Q150.695 1015.51 156.505 1015.51 Z" fill="#000000" fill-rule="nonzero" fill-opacity="1" /><path clip-path="url(#clip430)" d="M126.343 683.456 Q123.01 683.456 121.089 685.239 Q119.191 687.021 119.191 690.146 Q119.191 693.271 121.089 695.053 Q123.01 696.836 126.343 696.836 Q129.677 696.836 131.598 695.053 Q133.519 693.248 133.519 690.146 Q133.519 687.021 131.598 685.239 Q129.7 683.456 126.343 683.456 M121.668 681.466 Q118.658 680.725 116.968 678.665 Q115.302 676.604 115.302 673.642 Q115.302 669.498 118.242 667.091 Q121.205 664.683 126.343 664.683 Q131.505 664.683 134.445 667.091 Q137.385 669.498 137.385 673.642 Q137.385 676.604 135.695 678.665 Q134.029 680.725 131.042 681.466 Q134.422 682.253 136.297 684.544 Q138.195 686.836 138.195 690.146 Q138.195 695.169 135.117 697.854 Q132.061 700.54 126.343 700.54 Q120.626 700.54 117.547 697.854 Q114.492 695.169 114.492 690.146 Q114.492 686.836 116.39 684.544 Q118.288 682.253 121.668 681.466 M119.955 674.081 Q119.955 676.766 121.621 678.271 Q123.311 679.776 126.343 679.776 Q129.353 679.776 131.042 678.271 Q132.755 676.766 132.755 674.081 Q132.755 671.396 131.042 669.892 Q129.353 668.387 126.343 668.387 Q123.311 668.387 121.621 669.892 Q119.955 671.396 119.955 674.081 Z" fill="#000000" fill-rule="nonzero" fill-opacity="1" /><path clip-path="url(#clip430)" d="M156.505 668.387 Q152.894 668.387 151.066 671.952 Q149.26 675.493 149.26 682.623 Q149.26 689.729 151.066 693.294 Q152.894 696.836 156.505 696.836 Q160.14 696.836 161.945 693.294 Q163.774 689.729 163.774 682.623 Q163.774 675.493 161.945 671.952 Q160.14 668.387 156.505 668.387 M156.505 664.683 Q162.315 664.683 165.371 669.29 Q168.45 673.873 168.45 682.623 Q168.45 691.35 165.371 695.956 Q162.315 700.54 156.505 700.54 Q150.695 700.54 147.616 695.956 Q144.561 691.35 144.561 682.623 Q144.561 673.873 147.616 669.29 Q150.695 664.683 156.505 664.683 Z" fill="#000000" fill-rule="nonzero" fill-opacity="1" /><path clip-path="url(#clip430)" d="M116.482 348.326 L116.482 344.066 Q118.242 344.9 120.047 345.34 Q121.853 345.779 123.589 345.779 Q128.218 345.779 130.649 342.677 Q133.103 339.552 133.45 333.21 Q132.107 335.201 130.047 336.265 Q127.987 337.33 125.487 337.33 Q120.302 337.33 117.269 334.205 Q114.26 331.057 114.26 325.617 Q114.26 320.293 117.408 317.076 Q120.556 313.858 125.788 313.858 Q131.783 313.858 134.931 318.465 Q138.103 323.048 138.103 331.798 Q138.103 339.969 134.214 344.853 Q130.348 349.714 123.797 349.714 Q122.038 349.714 120.232 349.367 Q118.427 349.02 116.482 348.326 M125.788 333.673 Q128.936 333.673 130.765 331.52 Q132.617 329.367 132.617 325.617 Q132.617 321.891 130.765 319.738 Q128.936 317.562 125.788 317.562 Q122.64 317.562 120.788 319.738 Q118.959 321.891 118.959 325.617 Q118.959 329.367 120.788 331.52 Q122.64 333.673 125.788 333.673 Z" fill="#000000" fill-rule="nonzero" fill-opacity="1" /><path clip-path="url(#clip430)" d="M156.505 317.562 Q152.894 317.562 151.066 321.127 Q149.26 324.668 149.26 331.798 Q149.26 338.904 151.066 342.469 Q152.894 346.011 156.505 346.011 Q160.14 346.011 161.945 342.469 Q163.774 338.904 163.774 331.798 Q163.774 324.668 161.945 321.127 Q160.14 317.562 156.505 317.562 M156.505 313.858 Q162.315 313.858 165.371 318.465 Q168.45 323.048 168.45 331.798 Q168.45 340.525 165.371 345.131 Q162.315 349.714 156.505 349.714 Q150.695 349.714 147.616 345.131 Q144.561 340.525 144.561 331.798 Q144.561 323.048 147.616 318.465 Q150.695 313.858 156.505 313.858 Z" fill="#000000" fill-rule="nonzero" fill-opacity="1" /><path clip-path="url(#clip430)" d="M21.7677 827.769 L58.7206 827.769 L58.7206 820.003 Q58.7206 810.168 54.2646 805.617 Q49.8086 801.033 40.1964 801.033 Q30.6479 801.033 26.2237 805.617 Q21.7677 810.168 21.7677 820.003 L21.7677 827.769 M16.4842 834.199 L16.4842 820.99 Q16.4842 807.176 22.2451 800.715 Q27.9743 794.254 40.1964 794.254 Q52.4822 794.254 58.2432 800.747 Q64.0042 807.24 64.0042 820.99 L64.0042 834.199 L16.4842 834.199 Z" fill="#000000" fill-rule="nonzero" fill-opacity="1" /><path clip-path="url(#clip430)" d="M44.7161 753.768 L47.5806 753.768 L47.5806 780.695 Q53.6281 780.313 56.8109 777.066 Q59.9619 773.788 59.9619 767.964 Q59.9619 764.59 59.1344 761.439 Q58.3069 758.256 56.6518 755.137 L62.1899 755.137 Q63.5267 758.288 64.227 761.598 Q64.9272 764.908 64.9272 768.314 Q64.9272 776.844 59.9619 781.841 Q54.9967 786.806 46.5303 786.806 Q37.7774 786.806 32.6531 782.095 Q27.4968 777.353 27.4968 769.332 Q27.4968 762.139 32.1438 757.969 Q36.7589 753.768 44.7161 753.768 M42.9973 759.624 Q38.1912 759.688 35.3266 762.33 Q32.4621 764.94 32.4621 769.268 Q32.4621 774.17 35.2312 777.13 Q38.0002 780.058 43.0292 780.504 L42.9973 759.624 Z" fill="#000000" fill-rule="nonzero" fill-opacity="1" /><path clip-path="url(#clip430)" d="M29.4065 721.43 L34.9447 721.43 Q33.6716 723.913 33.035 726.586 Q32.3984 729.26 32.3984 732.125 Q32.3984 736.485 33.7352 738.681 Q35.072 740.846 37.7456 740.846 Q39.7826 740.846 40.9603 739.286 Q42.1061 737.726 43.1565 733.016 L43.6021 731.011 Q44.9389 724.772 47.3897 722.162 Q49.8086 719.521 54.1691 719.521 Q59.1344 719.521 62.0308 723.467 Q64.9272 727.382 64.9272 734.257 Q64.9272 737.122 64.3543 740.241 Q63.8132 743.328 62.6992 746.766 L56.6518 746.766 Q58.3387 743.519 59.198 740.368 Q60.0256 737.217 60.0256 734.13 Q60.0256 729.992 58.6251 727.764 Q57.1929 725.536 54.6147 725.536 Q52.2276 725.536 50.9545 727.159 Q49.6813 728.751 48.5037 734.193 L48.0262 736.23 Q46.8804 741.673 44.5251 744.092 Q42.138 746.511 38.0002 746.511 Q32.9713 746.511 30.2341 742.946 Q27.4968 739.382 27.4968 732.825 Q27.4968 729.578 27.9743 726.714 Q28.4517 723.849 29.4065 721.43 Z" fill="#000000" fill-rule="nonzero" fill-opacity="1" /><path clip-path="url(#clip430)" d="M28.3562 710.195 L28.3562 704.338 L64.0042 704.338 L64.0042 710.195 L28.3562 710.195 M14.479 710.195 L14.479 704.338 L21.895 704.338 L21.895 710.195 L14.479 710.195 Z" fill="#000000" fill-rule="nonzero" fill-opacity="1" /><path clip-path="url(#clip430)" d="M33.8307 671.428 Q33.2578 672.414 33.0032 673.592 Q32.7167 674.738 32.7167 676.138 Q32.7167 681.103 35.9632 683.777 Q39.1779 686.419 45.2253 686.419 L64.0042 686.419 L64.0042 692.307 L28.3562 692.307 L28.3562 686.419 L33.8944 686.419 Q30.6479 684.573 29.0883 681.613 Q27.4968 678.653 27.4968 674.419 Q27.4968 673.815 27.5923 673.083 Q27.656 672.351 27.8151 671.459 L33.8307 671.428 Z" fill="#000000" fill-rule="nonzero" fill-opacity="1" /><path clip-path="url(#clip430)" d="M44.7161 636.225 L47.5806 636.225 L47.5806 663.152 Q53.6281 662.77 56.8109 659.524 Q59.9619 656.245 59.9619 650.421 Q59.9619 647.047 59.1344 643.896 Q58.3069 640.713 56.6518 637.594 L62.1899 637.594 Q63.5267 640.745 64.227 644.055 Q64.9272 647.365 64.9272 650.771 Q64.9272 659.301 59.9619 664.298 Q54.9967 669.263 46.5303 669.263 Q37.7774 669.263 32.6531 664.553 Q27.4968 659.81 27.4968 651.789 Q27.4968 644.596 32.1438 640.427 Q36.7589 636.225 44.7161 636.225 M42.9973 642.082 Q38.1912 642.145 35.3266 644.787 Q32.4621 647.397 32.4621 651.726 Q32.4621 656.627 35.2312 659.587 Q38.0002 662.516 43.0292 662.961 L42.9973 642.082 Z" fill="#000000" fill-rule="nonzero" fill-opacity="1" /><circle clip-path="url(#clip432)" cx="1053.41" cy="1208.83" r="14.4" fill="#009af9" fill-rule="evenodd" fill-opacity="1" stroke="#000000" stroke-opacity="1" stroke-width="3.2"/>
<circle clip-path="url(#clip432)" cx="2010.47" cy="331.763" r="14.4" fill="#009af9" fill-rule="evenodd" fill-opacity="1" stroke="#000000" stroke-opacity="1" stroke-width="3.2"/>
<circle clip-path="url(#clip432)" cx="715.629" cy="331.763" r="14.4" fill="#009af9" fill-rule="evenodd" fill-opacity="1" stroke="#000000" stroke-opacity="1" stroke-width="3.2"/>
<circle clip-path="url(#clip432)" cx="265.251" cy="787.836" r="14.4" fill="#009af9" fill-rule="evenodd" fill-opacity="1" stroke="#000000" stroke-opacity="1" stroke-width="3.2"/>
<circle clip-path="url(#clip432)" cx="2123.06" cy="156.351" r="14.4" fill="#009af9" fill-rule="evenodd" fill-opacity="1" stroke="#000000" stroke-opacity="1" stroke-width="3.2"/>
<circle clip-path="url(#clip432)" cx="1334.9" cy="542.258" r="14.4" fill="#009af9" fill-rule="evenodd" fill-opacity="1" stroke="#000000" stroke-opacity="1" stroke-width="3.2"/>
<circle clip-path="url(#clip432)" cx="1503.79" cy="1033.41" r="14.4" fill="#009af9" fill-rule="evenodd" fill-opacity="1" stroke="#000000" stroke-opacity="1" stroke-width="3.2"/>
<circle clip-path="url(#clip432)" cx="940.819" cy="191.433" r="14.4" fill="#009af9" fill-rule="evenodd" fill-opacity="1" stroke="#000000" stroke-opacity="1" stroke-width="3.2"/>
<circle clip-path="url(#clip432)" cx="771.927" cy="1173.74" r="14.4" fill="#009af9" fill-rule="evenodd" fill-opacity="1" stroke="#000000" stroke-opacity="1" stroke-width="3.2"/>
<circle clip-path="url(#clip432)" cx="1841.58" cy="261.598" r="14.4" fill="#009af9" fill-rule="evenodd" fill-opacity="1" stroke="#000000" stroke-opacity="1" stroke-width="3.2"/>
<circle clip-path="url(#clip432)" cx="2291.95" cy="893.083" r="14.4" fill="#009af9" fill-rule="evenodd" fill-opacity="1" stroke="#000000" stroke-opacity="1" stroke-width="3.2"/>
<circle clip-path="url(#clip432)" cx="265.251" cy="86.1857" r="14.4" fill="#009af9" fill-rule="evenodd" fill-opacity="1" stroke="#000000" stroke-opacity="1" stroke-width="3.2"/>
<circle clip-path="url(#clip432)" cx="1447.49" cy="1384.24" r="14.4" fill="#009af9" fill-rule="evenodd" fill-opacity="1" stroke="#000000" stroke-opacity="1" stroke-width="3.2"/>
<circle clip-path="url(#clip432)" cx="1616.39" cy="1384.24" r="14.4" fill="#009af9" fill-rule="evenodd" fill-opacity="1" stroke="#000000" stroke-opacity="1" stroke-width="3.2"/>
<circle clip-path="url(#clip432)" cx="1166.01" cy="1208.83" r="14.4" fill="#009af9" fill-rule="evenodd" fill-opacity="1" stroke="#000000" stroke-opacity="1" stroke-width="3.2"/>
<circle clip-path="url(#clip432)" cx="2010.47" cy="86.1857" r="14.4" fill="#009af9" fill-rule="evenodd" fill-opacity="1" stroke="#000000" stroke-opacity="1" stroke-width="3.2"/>
<circle clip-path="url(#clip432)" cx="1785.28" cy="226.516" r="14.4" fill="#009af9" fill-rule="evenodd" fill-opacity="1" stroke="#000000" stroke-opacity="1" stroke-width="3.2"/>
</svg>
