<?xml version="1.0" encoding="utf-8"?>
<svg xmlns="http://www.w3.org/2000/svg" xmlns:xlink="http://www.w3.org/1999/xlink" width="600" height="400" viewBox="0 0 2400 1600">
<defs>
  <clipPath id="clip290">
    <rect x="0" y="0" width="2400" height="1600"/>
  </clipPath>
</defs>
<path clip-path="url(#clip290)" d="M0 1600 L2400 1600 L2400 0 L0 0  Z" fill="#ffffff" fill-rule="evenodd" fill-opacity="1"/>
<defs>
  <clipPath id="clip291">
    <rect x="480" y="0" width="1681" height="1600"/>
  </clipPath>
</defs>
<path clip-path="url(#clip290)" d="M139.446 1423.18 L2352.76 1423.18 L2352.76 47.2441 L139.446 47.2441  Z" fill="#ffffff" fill-rule="evenodd" fill-opacity="1"/>
<defs>
  <clipPath id="clip292">
    <rect x="139" y="47" width="2214" height="1377"/>
  </clipPath>
</defs>
<polyline clip-path="url(#clip292)" style="stroke:#000000; stroke-linecap:round; stroke-linejoin:round; stroke-width:2; stroke-opacity:0.1; fill:none" points="458.165,1423.18 458.165,47.2441 "/>
<polyline clip-path="url(#clip292)" style="stroke:#000000; stroke-linecap:round; stroke-linejoin:round; stroke-width:2; stroke-opacity:0.1; fill:none" points="852.133,1423.18 852.133,47.2441 "/>
<polyline clip-path="url(#clip292)" style="stroke:#000000; stroke-linecap:round; stroke-linejoin:round; stroke-width:2; stroke-opacity:0.1; fill:none" points="1246.1,1423.18 1246.1,47.2441 "/>
<polyline clip-path="url(#clip292)" style="stroke:#000000; stroke-linecap:round; stroke-linejoin:round; stroke-width:2; stroke-opacity:0.1; fill:none" points="1640.07,1423.18 1640.07,47.2441 "/>
<polyline clip-path="url(#clip292)" style="stroke:#000000; stroke-linecap:round; stroke-linejoin:round; stroke-width:2; stroke-opacity:0.1; fill:none" points="2034.04,1423.18 2034.04,47.2441 "/>
<polyline clip-path="url(#clip290)" style="stroke:#000000; stroke-linecap:round; stroke-linejoin:round; stroke-width:4; stroke-opacity:1; fill:none" points="139.446,1423.18 2352.76,1423.18 "/>
<polyline clip-path="url(#clip290)" style="stroke:#000000; stroke-linecap:round; stroke-linejoin:round; stroke-width:4; stroke-opacity:1; fill:none" points="458.165,1423.18 458.165,1404.28 "/>
<polyline clip-path="url(#clip290)" style="stroke:#000000; stroke-linecap:round; stroke-linejoin:round; stroke-width:4; stroke-opacity:1; fill:none" points="852.133,1423.18 852.133,1404.28 "/>
<polyline clip-path="url(#clip290)" style="stroke:#000000; stroke-linecap:round; stroke-linejoin:round; stroke-width:4; stroke-opacity:1; fill:none" points="1246.1,1423.18 1246.1,1404.28 "/>
<polyline clip-path="url(#clip290)" style="stroke:#000000; stroke-linecap:round; stroke-linejoin:round; stroke-width:4; stroke-opacity:1; fill:none" points="1640.07,1423.18 1640.07,1404.28 "/>
<polyline clip-path="url(#clip290)" style="stroke:#000000; stroke-linecap:round; stroke-linejoin:round; stroke-width:4; stroke-opacity:1; fill:none" points="2034.04,1423.18 2034.04,1404.28 "/>
<path clip-path="url(#clip290)" d="M417.772 1481.64 L425.411 1481.64 L425.411 1455.28 L417.101 1456.95 L417.101 1452.69 L425.365 1451.02 L430.041 1451.02 L430.041 1481.64 L437.679 1481.64 L437.679 1485.58 L417.772 1485.58 L417.772 1481.64 Z" fill="#000000" fill-rule="nonzero" fill-opacity="1" /><path clip-path="url(#clip290)" d="M457.702 1466.44 Q454.554 1466.44 452.702 1468.59 Q450.874 1470.74 450.874 1474.49 Q450.874 1478.22 452.702 1480.39 Q454.554 1482.55 457.702 1482.55 Q460.851 1482.55 462.679 1480.39 Q464.531 1478.22 464.531 1474.49 Q464.531 1470.74 462.679 1468.59 Q460.851 1466.44 457.702 1466.44 M466.985 1451.78 L466.985 1456.04 Q465.226 1455.21 463.42 1454.77 Q461.638 1454.33 459.878 1454.33 Q455.249 1454.33 452.795 1457.45 Q450.365 1460.58 450.017 1466.9 Q451.383 1464.89 453.443 1463.82 Q455.503 1462.73 457.98 1462.73 Q463.189 1462.73 466.198 1465.9 Q469.23 1469.05 469.23 1474.49 Q469.23 1479.82 466.082 1483.03 Q462.934 1486.25 457.702 1486.25 Q451.707 1486.25 448.536 1481.67 Q445.365 1477.06 445.365 1468.33 Q445.365 1460.14 449.253 1455.28 Q453.142 1450.39 459.693 1450.39 Q461.452 1450.39 463.235 1450.74 Q465.04 1451.09 466.985 1451.78 Z" fill="#000000" fill-rule="nonzero" fill-opacity="1" /><path clip-path="url(#clip290)" d="M487.286 1454.1 Q483.675 1454.1 481.846 1457.66 Q480.04 1461.2 480.04 1468.33 Q480.04 1475.44 481.846 1479.01 Q483.675 1482.55 487.286 1482.55 Q490.92 1482.55 492.725 1479.01 Q494.554 1475.44 494.554 1468.33 Q494.554 1461.2 492.725 1457.66 Q490.92 1454.1 487.286 1454.1 M487.286 1450.39 Q493.096 1450.39 496.151 1455 Q499.23 1459.58 499.23 1468.33 Q499.23 1477.06 496.151 1481.67 Q493.096 1486.25 487.286 1486.25 Q481.475 1486.25 478.397 1481.67 Q475.341 1477.06 475.341 1468.33 Q475.341 1459.58 478.397 1455 Q481.475 1450.39 487.286 1450.39 Z" fill="#000000" fill-rule="nonzero" fill-opacity="1" /><path clip-path="url(#clip290)" d="M811.74 1481.64 L819.379 1481.64 L819.379 1455.28 L811.068 1456.95 L811.068 1452.69 L819.332 1451.02 L824.008 1451.02 L824.008 1481.64 L831.647 1481.64 L831.647 1485.58 L811.74 1485.58 L811.74 1481.64 Z" fill="#000000" fill-rule="nonzero" fill-opacity="1" /><path clip-path="url(#clip290)" d="M851.091 1469.17 Q847.758 1469.17 845.837 1470.95 Q843.939 1472.73 843.939 1475.86 Q843.939 1478.98 845.837 1480.77 Q847.758 1482.55 851.091 1482.55 Q854.425 1482.55 856.346 1480.77 Q858.267 1478.96 858.267 1475.86 Q858.267 1472.73 856.346 1470.95 Q854.448 1469.17 851.091 1469.17 M846.415 1467.18 Q843.406 1466.44 841.716 1464.38 Q840.05 1462.32 840.05 1459.35 Q840.05 1455.21 842.99 1452.8 Q845.953 1450.39 851.091 1450.39 Q856.253 1450.39 859.193 1452.8 Q862.133 1455.21 862.133 1459.35 Q862.133 1462.32 860.443 1464.38 Q858.777 1466.44 855.79 1467.18 Q859.17 1467.96 861.045 1470.26 Q862.943 1472.55 862.943 1475.86 Q862.943 1480.88 859.864 1483.57 Q856.809 1486.25 851.091 1486.25 Q845.374 1486.25 842.295 1483.57 Q839.24 1480.88 839.24 1475.86 Q839.24 1472.55 841.138 1470.26 Q843.036 1467.96 846.415 1467.18 M844.703 1459.79 Q844.703 1462.48 846.369 1463.98 Q848.059 1465.49 851.091 1465.49 Q854.101 1465.49 855.79 1463.98 Q857.503 1462.48 857.503 1459.79 Q857.503 1457.11 855.79 1455.6 Q854.101 1454.1 851.091 1454.1 Q848.059 1454.1 846.369 1455.6 Q844.703 1457.11 844.703 1459.79 Z" fill="#000000" fill-rule="nonzero" fill-opacity="1" /><path clip-path="url(#clip290)" d="M881.253 1454.1 Q877.642 1454.1 875.813 1457.66 Q874.008 1461.2 874.008 1468.33 Q874.008 1475.44 875.813 1479.01 Q877.642 1482.55 881.253 1482.55 Q884.888 1482.55 886.693 1479.01 Q888.522 1475.44 888.522 1468.33 Q888.522 1461.2 886.693 1457.66 Q884.888 1454.1 881.253 1454.1 M881.253 1450.39 Q887.063 1450.39 890.119 1455 Q893.198 1459.58 893.198 1468.33 Q893.198 1477.06 890.119 1481.67 Q887.063 1486.25 881.253 1486.25 Q875.443 1486.25 872.364 1481.67 Q869.309 1477.06 869.309 1468.33 Q869.309 1459.58 872.364 1455 Q875.443 1450.39 881.253 1450.39 Z" fill="#000000" fill-rule="nonzero" fill-opacity="1" /><path clip-path="url(#clip290)" d="M1209.79 1481.64 L1226.11 1481.64 L1226.11 1485.58 L1204.17 1485.58 L1204.17 1481.64 Q1206.83 1478.89 1211.41 1474.26 Q1216.02 1469.61 1217.2 1468.27 Q1219.45 1465.74 1220.33 1464.01 Q1221.23 1462.25 1221.23 1460.56 Q1221.23 1457.8 1219.28 1456.07 Q1217.36 1454.33 1214.26 1454.33 Q1212.06 1454.33 1209.61 1455.09 Q1207.18 1455.86 1204.4 1457.41 L1204.4 1452.69 Q1207.22 1451.55 1209.68 1450.97 Q1212.13 1450.39 1214.17 1450.39 Q1219.54 1450.39 1222.73 1453.08 Q1225.93 1455.77 1225.93 1460.26 Q1225.93 1462.39 1225.12 1464.31 Q1224.33 1466.2 1222.22 1468.8 Q1221.64 1469.47 1218.54 1472.69 Q1215.44 1475.88 1209.79 1481.64 Z" fill="#000000" fill-rule="nonzero" fill-opacity="1" /><path clip-path="url(#clip290)" d="M1245.93 1454.1 Q1242.32 1454.1 1240.49 1457.66 Q1238.68 1461.2 1238.68 1468.33 Q1238.68 1475.44 1240.49 1479.01 Q1242.32 1482.55 1245.93 1482.55 Q1249.56 1482.55 1251.37 1479.01 Q1253.2 1475.44 1253.2 1468.33 Q1253.2 1461.2 1251.37 1457.66 Q1249.56 1454.1 1245.93 1454.1 M1245.93 1450.39 Q1251.74 1450.39 1254.79 1455 Q1257.87 1459.58 1257.87 1468.33 Q1257.87 1477.06 1254.79 1481.67 Q1251.74 1486.25 1245.93 1486.25 Q1240.12 1486.25 1237.04 1481.67 Q1233.98 1477.06 1233.98 1468.33 Q1233.98 1459.58 1237.04 1455 Q1240.12 1450.39 1245.93 1450.39 Z" fill="#000000" fill-rule="nonzero" fill-opacity="1" /><path clip-path="url(#clip290)" d="M1276.09 1454.1 Q1272.48 1454.1 1270.65 1457.66 Q1268.84 1461.2 1268.84 1468.33 Q1268.84 1475.44 1270.65 1479.01 Q1272.48 1482.55 1276.09 1482.55 Q1279.72 1482.55 1281.53 1479.01 Q1283.36 1475.44 1283.36 1468.33 Q1283.36 1461.2 1281.53 1457.66 Q1279.72 1454.1 1276.09 1454.1 M1276.09 1450.39 Q1281.9 1450.39 1284.95 1455 Q1288.03 1459.58 1288.03 1468.33 Q1288.03 1477.06 1284.95 1481.67 Q1281.9 1486.25 1276.09 1486.25 Q1270.28 1486.25 1267.2 1481.67 Q1264.14 1477.06 1264.14 1468.33 Q1264.14 1459.58 1267.2 1455 Q1270.28 1450.39 1276.09 1450.39 Z" fill="#000000" fill-rule="nonzero" fill-opacity="1" /><path clip-path="url(#clip290)" d="M1603.76 1481.64 L1620.08 1481.64 L1620.08 1485.58 L1598.14 1485.58 L1598.14 1481.64 Q1600.8 1478.89 1605.38 1474.26 Q1609.99 1469.61 1611.17 1468.27 Q1613.41 1465.74 1614.29 1464.01 Q1615.2 1462.25 1615.2 1460.56 Q1615.2 1457.8 1613.25 1456.07 Q1611.33 1454.33 1608.23 1454.33 Q1606.03 1454.33 1603.58 1455.09 Q1601.14 1455.86 1598.37 1457.41 L1598.37 1452.69 Q1601.19 1451.55 1603.64 1450.97 Q1606.1 1450.39 1608.14 1450.39 Q1613.51 1450.39 1616.7 1453.08 Q1619.89 1455.77 1619.89 1460.26 Q1619.89 1462.39 1619.08 1464.31 Q1618.3 1466.2 1616.19 1468.8 Q1615.61 1469.47 1612.51 1472.69 Q1609.41 1475.88 1603.76 1481.64 Z" fill="#000000" fill-rule="nonzero" fill-opacity="1" /><path clip-path="url(#clip290)" d="M1633.92 1481.64 L1650.24 1481.64 L1650.24 1485.58 L1628.3 1485.58 L1628.3 1481.64 Q1630.96 1478.89 1635.54 1474.26 Q1640.15 1469.61 1641.33 1468.27 Q1643.58 1465.74 1644.45 1464.01 Q1645.36 1462.25 1645.36 1460.56 Q1645.36 1457.8 1643.41 1456.07 Q1641.49 1454.33 1638.39 1454.33 Q1636.19 1454.33 1633.74 1455.09 Q1631.31 1455.86 1628.53 1457.41 L1628.53 1452.69 Q1631.35 1451.55 1633.81 1450.97 Q1636.26 1450.39 1638.3 1450.39 Q1643.67 1450.39 1646.86 1453.08 Q1650.06 1455.77 1650.06 1460.26 Q1650.06 1462.39 1649.25 1464.31 Q1648.46 1466.2 1646.35 1468.8 Q1645.77 1469.47 1642.67 1472.69 Q1639.57 1475.88 1633.92 1481.64 Z" fill="#000000" fill-rule="nonzero" fill-opacity="1" /><path clip-path="url(#clip290)" d="M1670.06 1454.1 Q1666.45 1454.1 1664.62 1457.66 Q1662.81 1461.2 1662.81 1468.33 Q1662.81 1475.44 1664.62 1479.01 Q1666.45 1482.55 1670.06 1482.55 Q1673.69 1482.55 1675.5 1479.01 Q1677.33 1475.44 1677.33 1468.33 Q1677.33 1461.2 1675.5 1457.66 Q1673.69 1454.1 1670.06 1454.1 M1670.06 1450.39 Q1675.87 1450.39 1678.92 1455 Q1682 1459.58 1682 1468.33 Q1682 1477.06 1678.92 1481.67 Q1675.87 1486.25 1670.06 1486.25 Q1664.25 1486.25 1661.17 1481.67 Q1658.11 1477.06 1658.11 1468.33 Q1658.11 1459.58 1661.17 1455 Q1664.25 1450.39 1670.06 1450.39 Z" fill="#000000" fill-rule="nonzero" fill-opacity="1" /><path clip-path="url(#clip290)" d="M1997.73 1481.64 L2014.05 1481.64 L2014.05 1485.58 L1992.1 1485.58 L1992.1 1481.64 Q1994.77 1478.89 1999.35 1474.26 Q2003.96 1469.61 2005.14 1468.27 Q2007.38 1465.74 2008.26 1464.01 Q2009.16 1462.25 2009.16 1460.56 Q2009.16 1457.8 2007.22 1456.07 Q2005.3 1454.33 2002.2 1454.33 Q2000 1454.33 1997.54 1455.09 Q1995.11 1455.86 1992.33 1457.41 L1992.33 1452.69 Q1995.16 1451.55 1997.61 1450.97 Q2000.07 1450.39 2002.1 1450.39 Q2007.47 1450.39 2010.67 1453.08 Q2013.86 1455.77 2013.86 1460.26 Q2013.86 1462.39 2013.05 1464.31 Q2012.27 1466.2 2010.16 1468.8 Q2009.58 1469.47 2006.48 1472.69 Q2003.38 1475.88 1997.73 1481.64 Z" fill="#000000" fill-rule="nonzero" fill-opacity="1" /><path clip-path="url(#clip290)" d="M2036.71 1455.09 L2024.9 1473.54 L2036.71 1473.54 L2036.71 1455.09 M2035.48 1451.02 L2041.36 1451.02 L2041.36 1473.54 L2046.29 1473.54 L2046.29 1477.43 L2041.36 1477.43 L2041.36 1485.58 L2036.71 1485.58 L2036.71 1477.43 L2021.11 1477.43 L2021.11 1472.92 L2035.48 1451.02 Z" fill="#000000" fill-rule="nonzero" fill-opacity="1" /><path clip-path="url(#clip290)" d="M2064.02 1454.1 Q2060.41 1454.1 2058.58 1457.66 Q2056.78 1461.2 2056.78 1468.33 Q2056.78 1475.44 2058.58 1479.01 Q2060.41 1482.55 2064.02 1482.55 Q2067.66 1482.55 2069.46 1479.01 Q2071.29 1475.44 2071.29 1468.33 Q2071.29 1461.2 2069.46 1457.66 Q2067.66 1454.1 2064.02 1454.1 M2064.02 1450.39 Q2069.83 1450.39 2072.89 1455 Q2075.97 1459.58 2075.97 1468.33 Q2075.97 1477.06 2072.89 1481.67 Q2069.83 1486.25 2064.02 1486.25 Q2058.21 1486.25 2055.14 1481.67 Q2052.08 1477.06 2052.08 1468.33 Q2052.08 1459.58 2055.14 1455 Q2058.21 1450.39 2064.02 1450.39 Z" fill="#000000" fill-rule="nonzero" fill-opacity="1" /><path clip-path="url(#clip290)" d="M1120.47 1525.81 L1120.47 1562.76 L1128.24 1562.76 Q1138.07 1562.76 1142.63 1558.3 Q1147.21 1553.85 1147.21 1544.24 Q1147.21 1534.69 1142.63 1530.26 Q1138.07 1525.81 1128.24 1525.81 L1120.47 1525.81 M1114.04 1520.52 L1127.25 1520.52 Q1141.07 1520.52 1147.53 1526.28 Q1153.99 1532.01 1153.99 1544.24 Q1153.99 1556.52 1147.5 1562.28 Q1141 1568.04 1127.25 1568.04 L1114.04 1568.04 L1114.04 1520.52 Z" fill="#000000" fill-rule="nonzero" fill-opacity="1" /><path clip-path="url(#clip290)" d="M1194.47 1548.76 L1194.47 1551.62 L1167.55 1551.62 Q1167.93 1557.67 1171.18 1560.85 Q1174.45 1564 1180.28 1564 Q1183.65 1564 1186.8 1563.17 Q1189.99 1562.35 1193.11 1560.69 L1193.11 1566.23 Q1189.96 1567.57 1186.65 1568.27 Q1183.33 1568.97 1179.93 1568.97 Q1171.4 1568.97 1166.4 1564 Q1161.44 1559.04 1161.44 1550.57 Q1161.44 1541.82 1166.15 1536.69 Q1170.89 1531.54 1178.91 1531.54 Q1186.1 1531.54 1190.27 1536.18 Q1194.47 1540.8 1194.47 1548.76 M1188.62 1547.04 Q1188.55 1542.23 1185.91 1539.37 Q1183.3 1536.5 1178.97 1536.5 Q1174.07 1536.5 1171.11 1539.27 Q1168.18 1542.04 1167.74 1547.07 L1188.62 1547.04 Z" fill="#000000" fill-rule="nonzero" fill-opacity="1" /><path clip-path="url(#clip290)" d="M1231.84 1539.24 Q1234.04 1535.29 1237.09 1533.41 Q1240.15 1531.54 1244.29 1531.54 Q1249.86 1531.54 1252.88 1535.45 Q1255.9 1539.33 1255.9 1546.53 L1255.9 1568.04 L1250.02 1568.04 L1250.02 1546.72 Q1250.02 1541.59 1248.2 1539.11 Q1246.39 1536.63 1242.66 1536.63 Q1238.11 1536.63 1235.47 1539.65 Q1232.83 1542.68 1232.83 1547.9 L1232.83 1568.04 L1226.94 1568.04 L1226.94 1546.72 Q1226.94 1541.56 1225.13 1539.11 Q1223.31 1536.63 1219.52 1536.63 Q1215.04 1536.63 1212.39 1539.68 Q1209.75 1542.71 1209.75 1547.9 L1209.75 1568.04 L1203.86 1568.04 L1203.86 1532.4 L1209.75 1532.4 L1209.75 1537.93 Q1211.76 1534.66 1214.56 1533.1 Q1217.36 1531.54 1221.21 1531.54 Q1225.09 1531.54 1227.8 1533.51 Q1230.54 1535.48 1231.84 1539.24 Z" fill="#000000" fill-rule="nonzero" fill-opacity="1" /><path clip-path="url(#clip290)" d="M1283.79 1550.12 Q1276.69 1550.12 1273.95 1551.75 Q1271.21 1553.37 1271.21 1557.29 Q1271.21 1560.4 1273.25 1562.25 Q1275.32 1564.07 1278.85 1564.07 Q1283.72 1564.07 1286.65 1560.63 Q1289.61 1557.16 1289.61 1551.43 L1289.61 1550.12 L1283.79 1550.12 M1295.47 1547.71 L1295.47 1568.04 L1289.61 1568.04 L1289.61 1562.63 Q1287.61 1565.88 1284.61 1567.44 Q1281.62 1568.97 1277.29 1568.97 Q1271.82 1568.97 1268.57 1565.91 Q1265.36 1562.82 1265.36 1557.67 Q1265.36 1551.65 1269.37 1548.6 Q1273.41 1545.54 1281.4 1545.54 L1289.61 1545.54 L1289.61 1544.97 Q1289.61 1540.93 1286.94 1538.73 Q1284.29 1536.5 1279.49 1536.5 Q1276.43 1536.5 1273.54 1537.23 Q1270.64 1537.97 1267.97 1539.43 L1267.97 1534.02 Q1271.18 1532.78 1274.21 1532.17 Q1277.23 1531.54 1280.09 1531.54 Q1287.83 1531.54 1291.65 1535.55 Q1295.47 1539.56 1295.47 1547.71 Z" fill="#000000" fill-rule="nonzero" fill-opacity="1" /><path clip-path="url(#clip290)" d="M1337.16 1546.53 L1337.16 1568.04 L1331.31 1568.04 L1331.31 1546.72 Q1331.31 1541.66 1329.33 1539.14 Q1327.36 1536.63 1323.41 1536.63 Q1318.67 1536.63 1315.93 1539.65 Q1313.2 1542.68 1313.2 1547.9 L1313.2 1568.04 L1307.31 1568.04 L1307.31 1532.4 L1313.2 1532.4 L1313.2 1537.93 Q1315.3 1534.72 1318.13 1533.13 Q1320.99 1531.54 1324.72 1531.54 Q1330.86 1531.54 1334.01 1535.36 Q1337.16 1539.14 1337.16 1546.53 Z" fill="#000000" fill-rule="nonzero" fill-opacity="1" /><path clip-path="url(#clip290)" d="M1372.3 1537.81 L1372.3 1518.52 L1378.16 1518.52 L1378.16 1568.04 L1372.3 1568.04 L1372.3 1562.7 Q1370.45 1565.88 1367.62 1567.44 Q1364.82 1568.97 1360.87 1568.97 Q1354.41 1568.97 1350.34 1563.81 Q1346.3 1558.65 1346.3 1550.25 Q1346.3 1541.85 1350.34 1536.69 Q1354.41 1531.54 1360.87 1531.54 Q1364.82 1531.54 1367.62 1533.1 Q1370.45 1534.62 1372.3 1537.81 M1352.34 1550.25 Q1352.34 1556.71 1354.99 1560.4 Q1357.66 1564.07 1362.31 1564.07 Q1366.95 1564.07 1369.63 1560.4 Q1372.3 1556.71 1372.3 1550.25 Q1372.3 1543.79 1369.63 1540.13 Q1366.95 1536.44 1362.31 1536.44 Q1357.66 1536.44 1354.99 1540.13 Q1352.34 1543.79 1352.34 1550.25 Z" fill="#000000" fill-rule="nonzero" fill-opacity="1" /><polyline clip-path="url(#clip292)" style="stroke:#000000; stroke-linecap:round; stroke-linejoin:round; stroke-width:2; stroke-opacity:0.1; fill:none" points="139.446,1423.18 2352.76,1423.18 "/>
<polyline clip-path="url(#clip292)" style="stroke:#000000; stroke-linecap:round; stroke-linejoin:round; stroke-width:2; stroke-opacity:0.1; fill:none" points="139.446,1226.62 2352.76,1226.62 "/>
<polyline clip-path="url(#clip292)" style="stroke:#000000; stroke-linecap:round; stroke-linejoin:round; stroke-width:2; stroke-opacity:0.1; fill:none" points="139.446,1030.06 2352.76,1030.06 "/>
<polyline clip-path="url(#clip292)" style="stroke:#000000; stroke-linecap:round; stroke-linejoin:round; stroke-width:2; stroke-opacity:0.1; fill:none" points="139.446,833.493 2352.76,833.493 "/>
<polyline clip-path="url(#clip292)" style="stroke:#000000; stroke-linecap:round; stroke-linejoin:round; stroke-width:2; stroke-opacity:0.1; fill:none" points="139.446,636.931 2352.76,636.931 "/>
<polyline clip-path="url(#clip292)" style="stroke:#000000; stroke-linecap:round; stroke-linejoin:round; stroke-width:2; stroke-opacity:0.1; fill:none" points="139.446,440.369 2352.76,440.369 "/>
<polyline clip-path="url(#clip292)" style="stroke:#000000; stroke-linecap:round; stroke-linejoin:round; stroke-width:2; stroke-opacity:0.1; fill:none" points="139.446,243.806 2352.76,243.806 "/>
<polyline clip-path="url(#clip292)" style="stroke:#000000; stroke-linecap:round; stroke-linejoin:round; stroke-width:2; stroke-opacity:0.1; fill:none" points="139.446,47.2441 2352.76,47.2441 "/>
<polyline clip-path="url(#clip290)" style="stroke:#000000; stroke-linecap:round; stroke-linejoin:round; stroke-width:4; stroke-opacity:1; fill:none" points="139.446,1423.18 139.446,47.2441 "/>
<polyline clip-path="url(#clip290)" style="stroke:#000000; stroke-linecap:round; stroke-linejoin:round; stroke-width:4; stroke-opacity:1; fill:none" points="139.446,1423.18 158.343,1423.18 "/>
<polyline clip-path="url(#clip290)" style="stroke:#000000; stroke-linecap:round; stroke-linejoin:round; stroke-width:4; stroke-opacity:1; fill:none" points="139.446,1226.62 158.343,1226.62 "/>
<polyline clip-path="url(#clip290)" style="stroke:#000000; stroke-linecap:round; stroke-linejoin:round; stroke-width:4; stroke-opacity:1; fill:none" points="139.446,1030.06 158.343,1030.06 "/>
<polyline clip-path="url(#clip290)" style="stroke:#000000; stroke-linecap:round; stroke-linejoin:round; stroke-width:4; stroke-opacity:1; fill:none" points="139.446,833.493 158.343,833.493 "/>
<polyline clip-path="url(#clip290)" style="stroke:#000000; stroke-linecap:round; stroke-linejoin:round; stroke-width:4; stroke-opacity:1; fill:none" points="139.446,636.931 158.343,636.931 "/>
<polyline clip-path="url(#clip290)" style="stroke:#000000; stroke-linecap:round; stroke-linejoin:round; stroke-width:4; stroke-opacity:1; fill:none" points="139.446,440.369 158.343,440.369 "/>
<polyline clip-path="url(#clip290)" style="stroke:#000000; stroke-linecap:round; stroke-linejoin:round; stroke-width:4; stroke-opacity:1; fill:none" points="139.446,243.806 158.343,243.806 "/>
<polyline clip-path="url(#clip290)" style="stroke:#000000; stroke-linecap:round; stroke-linejoin:round; stroke-width:4; stroke-opacity:1; fill:none" points="139.446,47.2441 158.343,47.2441 "/>
<path clip-path="url(#clip290)" d="M91.5012 1408.98 Q87.8901 1408.98 86.0614 1412.54 Q84.2558 1416.08 84.2558 1423.21 Q84.2558 1430.32 86.0614 1433.89 Q87.8901 1437.43 91.5012 1437.43 Q95.1354 1437.43 96.941 1433.89 Q98.7696 1430.32 98.7696 1423.21 Q98.7696 1416.08 96.941 1412.54 Q95.1354 1408.98 91.5012 1408.98 M91.5012 1405.27 Q97.3113 1405.27 100.367 1409.88 Q103.446 1414.46 103.446 1423.21 Q103.446 1431.94 100.367 1436.55 Q97.3113 1441.13 91.5012 1441.13 Q85.691 1441.13 82.6123 1436.55 Q79.5568 1431.94 79.5568 1423.21 Q79.5568 1414.46 82.6123 1409.88 Q85.691 1405.27 91.5012 1405.27 Z" fill="#000000" fill-rule="nonzero" fill-opacity="1" /><path clip-path="url(#clip290)" d="M87.1262 1239.96 L103.446 1239.96 L103.446 1243.9 L81.5012 1243.9 L81.5012 1239.96 Q84.1632 1237.21 88.7466 1232.58 Q93.353 1227.93 94.5336 1226.58 Q96.7789 1224.06 97.6585 1222.32 Q98.5613 1220.56 98.5613 1218.87 Q98.5613 1216.12 96.6169 1214.38 Q94.6956 1212.65 91.5938 1212.65 Q89.3947 1212.65 86.941 1213.41 Q84.5105 1214.18 81.7327 1215.73 L81.7327 1211 Q84.5568 1209.87 87.0105 1209.29 Q89.4641 1208.71 91.5012 1208.71 Q96.8715 1208.71 100.066 1211.4 Q103.26 1214.08 103.26 1218.57 Q103.26 1220.7 102.45 1222.62 Q101.663 1224.52 99.5567 1227.12 Q98.978 1227.79 95.8761 1231 Q92.7743 1234.2 87.1262 1239.96 Z" fill="#000000" fill-rule="nonzero" fill-opacity="1" /><path clip-path="url(#clip290)" d="M93.8623 1016.85 L82.0568 1035.3 L93.8623 1035.3 L93.8623 1016.85 M92.6354 1012.78 L98.515 1012.78 L98.515 1035.3 L103.446 1035.3 L103.446 1039.19 L98.515 1039.19 L98.515 1047.34 L93.8623 1047.34 L93.8623 1039.19 L78.2605 1039.19 L78.2605 1034.67 L92.6354 1012.78 Z" fill="#000000" fill-rule="nonzero" fill-opacity="1" /><path clip-path="url(#clip290)" d="M91.9178 831.63 Q88.7697 831.63 86.9179 833.782 Q85.0892 835.935 85.0892 839.685 Q85.0892 843.412 86.9179 845.588 Q88.7697 847.741 91.9178 847.741 Q95.066 847.741 96.8947 845.588 Q98.7465 843.412 98.7465 839.685 Q98.7465 835.935 96.8947 833.782 Q95.066 831.63 91.9178 831.63 M101.2 816.977 L101.2 821.236 Q99.4409 820.403 97.6354 819.963 Q95.853 819.523 94.0937 819.523 Q89.4641 819.523 87.0105 822.648 Q84.5799 825.773 84.2327 832.093 Q85.5984 830.079 87.6586 829.014 Q89.7188 827.926 92.1956 827.926 Q97.4039 827.926 100.413 831.097 Q103.446 834.245 103.446 839.685 Q103.446 845.009 100.297 848.227 Q97.1493 851.444 91.9178 851.444 Q85.9225 851.444 82.7512 846.861 Q79.5799 842.255 79.5799 833.528 Q79.5799 825.333 83.4688 820.472 Q87.3577 815.588 93.9086 815.588 Q95.6678 815.588 97.4502 815.935 Q99.2558 816.283 101.2 816.977 Z" fill="#000000" fill-rule="nonzero" fill-opacity="1" /><path clip-path="url(#clip290)" d="M91.5938 637.799 Q88.2604 637.799 86.3392 639.581 Q84.441 641.364 84.441 644.489 Q84.441 647.614 86.3392 649.396 Q88.2604 651.178 91.5938 651.178 Q94.9271 651.178 96.8484 649.396 Q98.7696 647.591 98.7696 644.489 Q98.7696 641.364 96.8484 639.581 Q94.9502 637.799 91.5938 637.799 M86.9179 635.808 Q83.9086 635.067 82.2188 633.007 Q80.5522 630.947 80.5522 627.984 Q80.5522 623.841 83.492 621.433 Q86.4549 619.026 91.5938 619.026 Q96.7558 619.026 99.6956 621.433 Q102.635 623.841 102.635 627.984 Q102.635 630.947 100.946 633.007 Q99.2789 635.067 96.2928 635.808 Q99.6724 636.595 101.547 638.887 Q103.446 641.179 103.446 644.489 Q103.446 649.512 100.367 652.197 Q97.3113 654.882 91.5938 654.882 Q85.8762 654.882 82.7975 652.197 Q79.742 649.512 79.742 644.489 Q79.742 641.179 81.6401 638.887 Q83.5382 636.595 86.9179 635.808 M85.2049 628.424 Q85.2049 631.109 86.8716 632.614 Q88.5614 634.118 91.5938 634.118 Q94.603 634.118 96.2928 632.614 Q98.0058 631.109 98.0058 628.424 Q98.0058 625.739 96.2928 624.234 Q94.603 622.73 91.5938 622.73 Q88.5614 622.73 86.8716 624.234 Q85.2049 625.739 85.2049 628.424 Z" fill="#000000" fill-rule="nonzero" fill-opacity="1" /><path clip-path="url(#clip290)" d="M52.1495 453.713 L59.7884 453.713 L59.7884 427.348 L51.4782 429.014 L51.4782 424.755 L59.7421 423.089 L64.418 423.089 L64.418 453.713 L72.0568 453.713 L72.0568 457.649 L52.1495 457.649 L52.1495 453.713 Z" fill="#000000" fill-rule="nonzero" fill-opacity="1" /><path clip-path="url(#clip290)" d="M91.5012 426.167 Q87.8901 426.167 86.0614 429.732 Q84.2558 433.274 84.2558 440.403 Q84.2558 447.51 86.0614 451.075 Q87.8901 454.616 91.5012 454.616 Q95.1354 454.616 96.941 451.075 Q98.7696 447.51 98.7696 440.403 Q98.7696 433.274 96.941 429.732 Q95.1354 426.167 91.5012 426.167 M91.5012 422.464 Q97.3113 422.464 100.367 427.07 Q103.446 431.653 103.446 440.403 Q103.446 449.13 100.367 453.737 Q97.3113 458.32 91.5012 458.32 Q85.691 458.32 82.6123 453.737 Q79.5568 449.13 79.5568 440.403 Q79.5568 431.653 82.6123 427.07 Q85.691 422.464 91.5012 422.464 Z" fill="#000000" fill-rule="nonzero" fill-opacity="1" /><path clip-path="url(#clip290)" d="M53.7467 257.151 L61.3856 257.151 L61.3856 230.786 L53.0754 232.452 L53.0754 228.193 L61.3393 226.526 L66.0152 226.526 L66.0152 257.151 L73.654 257.151 L73.654 261.086 L53.7467 261.086 L53.7467 257.151 Z" fill="#000000" fill-rule="nonzero" fill-opacity="1" /><path clip-path="url(#clip290)" d="M87.1262 257.151 L103.446 257.151 L103.446 261.086 L81.5012 261.086 L81.5012 257.151 Q84.1632 254.397 88.7466 249.767 Q93.353 245.114 94.5336 243.772 Q96.7789 241.248 97.6585 239.512 Q98.5613 237.753 98.5613 236.063 Q98.5613 233.309 96.6169 231.573 Q94.6956 229.837 91.5938 229.837 Q89.3947 229.837 86.941 230.6 Q84.5105 231.364 81.7327 232.915 L81.7327 228.193 Q84.5568 227.059 87.0105 226.48 Q89.4641 225.901 91.5012 225.901 Q96.8715 225.901 100.066 228.587 Q103.26 231.272 103.26 235.762 Q103.26 237.892 102.45 239.813 Q101.663 241.711 99.5567 244.304 Q98.978 244.975 95.8761 248.193 Q92.7743 251.387 87.1262 257.151 Z" fill="#000000" fill-rule="nonzero" fill-opacity="1" /><path clip-path="url(#clip290)" d="M51.6634 60.5889 L59.3023 60.5889 L59.3023 34.2233 L50.9921 35.89 L50.9921 31.6308 L59.256 29.9641 L63.9319 29.9641 L63.9319 60.5889 L71.5707 60.5889 L71.5707 64.5241 L51.6634 64.5241 L51.6634 60.5889 Z" fill="#000000" fill-rule="nonzero" fill-opacity="1" /><path clip-path="url(#clip290)" d="M93.8623 34.0381 L82.0568 52.4871 L93.8623 52.4871 L93.8623 34.0381 M92.6354 29.9641 L98.515 29.9641 L98.515 52.4871 L103.446 52.4871 L103.446 56.376 L98.515 56.376 L98.515 64.5241 L93.8623 64.5241 L93.8623 56.376 L78.2605 56.376 L78.2605 51.8621 L92.6354 29.9641 Z" fill="#000000" fill-rule="nonzero" fill-opacity="1" /><path clip-path="url(#clip292)" d="M261.182 1324.9 L261.182 1423.18 L359.673 1423.18 L359.673 1324.9 L261.182 1324.9 L261.182 1324.9  Z" fill="#009af9" fill-rule="evenodd" fill-opacity="1"/>
<polyline clip-path="url(#clip292)" style="stroke:#000000; stroke-linecap:round; stroke-linejoin:round; stroke-width:4; stroke-opacity:1; fill:none" points="261.182,1324.9 261.182,1423.18 359.673,1423.18 359.673,1324.9 261.182,1324.9 "/>
<path clip-path="url(#clip292)" d="M359.673 1423.18 L359.673 1423.18 L458.165 1423.18 L458.165 1423.18 L359.673 1423.18 L359.673 1423.18  Z" fill="#009af9" fill-rule="evenodd" fill-opacity="1"/>
<polyline clip-path="url(#clip292)" style="stroke:#000000; stroke-linecap:round; stroke-linejoin:round; stroke-width:4; stroke-opacity:1; fill:none" points="359.673,1423.18 359.673,1423.18 458.165,1423.18 359.673,1423.18 "/>
<path clip-path="url(#clip292)" d="M458.165 1030.06 L458.165 1423.18 L556.657 1423.18 L556.657 1030.06 L458.165 1030.06 L458.165 1030.06  Z" fill="#009af9" fill-rule="evenodd" fill-opacity="1"/>
<polyline clip-path="url(#clip292)" style="stroke:#000000; stroke-linecap:round; stroke-linejoin:round; stroke-width:4; stroke-opacity:1; fill:none" points="458.165,1030.06 458.165,1423.18 556.657,1423.18 556.657,1030.06 458.165,1030.06 "/>
<path clip-path="url(#clip292)" d="M556.657 1030.06 L556.657 1423.18 L655.149 1423.18 L655.149 1030.06 L556.657 1030.06 L556.657 1030.06  Z" fill="#009af9" fill-rule="evenodd" fill-opacity="1"/>
<polyline clip-path="url(#clip292)" style="stroke:#000000; stroke-linecap:round; stroke-linejoin:round; stroke-width:4; stroke-opacity:1; fill:none" points="556.657,1030.06 556.657,1423.18 655.149,1423.18 655.149,1030.06 556.657,1030.06 "/>
<path clip-path="url(#clip292)" d="M655.149 1128.34 L655.149 1423.18 L753.641 1423.18 L753.641 1128.34 L655.149 1128.34 L655.149 1128.34  Z" fill="#009af9" fill-rule="evenodd" fill-opacity="1"/>
<polyline clip-path="url(#clip292)" style="stroke:#000000; stroke-linecap:round; stroke-linejoin:round; stroke-width:4; stroke-opacity:1; fill:none" points="655.149,1128.34 655.149,1423.18 753.641,1423.18 753.641,1128.34 655.149,1128.34 "/>
<path clip-path="url(#clip292)" d="M753.641 1030.06 L753.641 1423.18 L852.133 1423.18 L852.133 1030.06 L753.641 1030.06 L753.641 1030.06  Z" fill="#009af9" fill-rule="evenodd" fill-opacity="1"/>
<polyline clip-path="url(#clip292)" style="stroke:#000000; stroke-linecap:round; stroke-linejoin:round; stroke-width:4; stroke-opacity:1; fill:none" points="753.641,1030.06 753.641,1423.18 852.133,1423.18 852.133,1030.06 753.641,1030.06 "/>
<path clip-path="url(#clip292)" d="M852.133 538.65 L852.133 1423.18 L950.625 1423.18 L950.625 538.65 L852.133 538.65 L852.133 538.65  Z" fill="#009af9" fill-rule="evenodd" fill-opacity="1"/>
<polyline clip-path="url(#clip292)" style="stroke:#000000; stroke-linecap:round; stroke-linejoin:round; stroke-width:4; stroke-opacity:1; fill:none" points="852.133,538.65 852.133,1423.18 950.625,1423.18 950.625,538.65 852.133,538.65 "/>
<path clip-path="url(#clip292)" d="M950.625 47.2441 L950.625 1423.18 L1049.12 1423.18 L1049.12 47.2441 L950.625 47.2441 L950.625 47.2441  Z" fill="#009af9" fill-rule="evenodd" fill-opacity="1"/>
<polyline clip-path="url(#clip292)" style="stroke:#000000; stroke-linecap:round; stroke-linejoin:round; stroke-width:4; stroke-opacity:1; fill:none" points="950.625,47.2441 950.625,1423.18 1049.12,1423.18 1049.12,47.2441 950.625,47.2441 "/>
<path clip-path="url(#clip292)" d="M1049.12 636.931 L1049.12 1423.18 L1147.61 1423.18 L1147.61 636.931 L1049.12 636.931 L1049.12 636.931  Z" fill="#009af9" fill-rule="evenodd" fill-opacity="1"/>
<polyline clip-path="url(#clip292)" style="stroke:#000000; stroke-linecap:round; stroke-linejoin:round; stroke-width:4; stroke-opacity:1; fill:none" points="1049.12,636.931 1049.12,1423.18 1147.61,1423.18 1147.61,636.931 1049.12,636.931 "/>
<path clip-path="url(#clip292)" d="M1147.61 47.2441 L1147.61 1423.18 L1246.1 1423.18 L1246.1 47.2441 L1147.61 47.2441 L1147.61 47.2441  Z" fill="#009af9" fill-rule="evenodd" fill-opacity="1"/>
<polyline clip-path="url(#clip292)" style="stroke:#000000; stroke-linecap:round; stroke-linejoin:round; stroke-width:4; stroke-opacity:1; fill:none" points="1147.61,47.2441 1147.61,1423.18 1246.1,1423.18 1246.1,47.2441 1147.61,47.2441 "/>
<path clip-path="url(#clip292)" d="M1246.1 833.493 L1246.1 1423.18 L1344.59 1423.18 L1344.59 833.493 L1246.1 833.493 L1246.1 833.493  Z" fill="#009af9" fill-rule="evenodd" fill-opacity="1"/>
<polyline clip-path="url(#clip292)" style="stroke:#000000; stroke-linecap:round; stroke-linejoin:round; stroke-width:4; stroke-opacity:1; fill:none" points="1246.1,833.493 1246.1,1423.18 1344.59,1423.18 1344.59,833.493 1246.1,833.493 "/>
<path clip-path="url(#clip292)" d="M1344.59 1030.06 L1344.59 1423.18 L1443.08 1423.18 L1443.08 1030.06 L1344.59 1030.06 L1344.59 1030.06  Z" fill="#009af9" fill-rule="evenodd" fill-opacity="1"/>
<polyline clip-path="url(#clip292)" style="stroke:#000000; stroke-linecap:round; stroke-linejoin:round; stroke-width:4; stroke-opacity:1; fill:none" points="1344.59,1030.06 1344.59,1423.18 1443.08,1423.18 1443.08,1030.06 1344.59,1030.06 "/>
<path clip-path="url(#clip292)" d="M1443.08 1128.34 L1443.08 1423.18 L1541.58 1423.18 L1541.58 1128.34 L1443.08 1128.34 L1443.08 1128.34  Z" fill="#009af9" fill-rule="evenodd" fill-opacity="1"/>
<polyline clip-path="url(#clip292)" style="stroke:#000000; stroke-linecap:round; stroke-linejoin:round; stroke-width:4; stroke-opacity:1; fill:none" points="1443.08,1128.34 1443.08,1423.18 1541.58,1423.18 1541.58,1128.34 1443.08,1128.34 "/>
<path clip-path="url(#clip292)" d="M1541.58 931.774 L1541.58 1423.18 L1640.07 1423.18 L1640.07 931.774 L1541.58 931.774 L1541.58 931.774  Z" fill="#009af9" fill-rule="evenodd" fill-opacity="1"/>
<polyline clip-path="url(#clip292)" style="stroke:#000000; stroke-linecap:round; stroke-linejoin:round; stroke-width:4; stroke-opacity:1; fill:none" points="1541.58,931.774 1541.58,1423.18 1640.07,1423.18 1640.07,931.774 1541.58,931.774 "/>
<path clip-path="url(#clip292)" d="M1640.07 735.212 L1640.07 1423.18 L1738.56 1423.18 L1738.56 735.212 L1640.07 735.212 L1640.07 735.212  Z" fill="#009af9" fill-rule="evenodd" fill-opacity="1"/>
<polyline clip-path="url(#clip292)" style="stroke:#000000; stroke-linecap:round; stroke-linejoin:round; stroke-width:4; stroke-opacity:1; fill:none" points="1640.07,735.212 1640.07,1423.18 1738.56,1423.18 1738.56,735.212 1640.07,735.212 "/>
<path clip-path="url(#clip292)" d="M1738.56 1030.06 L1738.56 1423.18 L1837.05 1423.18 L1837.05 1030.06 L1738.56 1030.06 L1738.56 1030.06  Z" fill="#009af9" fill-rule="evenodd" fill-opacity="1"/>
<polyline clip-path="url(#clip292)" style="stroke:#000000; stroke-linecap:round; stroke-linejoin:round; stroke-width:4; stroke-opacity:1; fill:none" points="1738.56,1030.06 1738.56,1423.18 1837.05,1423.18 1837.05,1030.06 1738.56,1030.06 "/>
<path clip-path="url(#clip292)" d="M1837.05 931.774 L1837.05 1423.18 L1935.54 1423.18 L1935.54 931.774 L1837.05 931.774 L1837.05 931.774  Z" fill="#009af9" fill-rule="evenodd" fill-opacity="1"/>
<polyline clip-path="url(#clip292)" style="stroke:#000000; stroke-linecap:round; stroke-linejoin:round; stroke-width:4; stroke-opacity:1; fill:none" points="1837.05,931.774 1837.05,1423.18 1935.54,1423.18 1935.54,931.774 1837.05,931.774 "/>
<path clip-path="url(#clip292)" d="M1935.54 1226.62 L1935.54 1423.18 L2034.04 1423.18 L2034.04 1226.62 L1935.54 1226.62 L1935.54 1226.62  Z" fill="#009af9" fill-rule="evenodd" fill-opacity="1"/>
<polyline clip-path="url(#clip292)" style="stroke:#000000; stroke-linecap:round; stroke-linejoin:round; stroke-width:4; stroke-opacity:1; fill:none" points="1935.54,1226.62 1935.54,1423.18 2034.04,1423.18 2034.04,1226.62 1935.54,1226.62 "/>
<path clip-path="url(#clip292)" d="M2034.04 1226.62 L2034.04 1423.18 L2132.53 1423.18 L2132.53 1226.62 L2034.04 1226.62 L2034.04 1226.62  Z" fill="#009af9" fill-rule="evenodd" fill-opacity="1"/>
<polyline clip-path="url(#clip292)" style="stroke:#000000; stroke-linecap:round; stroke-linejoin:round; stroke-width:4; stroke-opacity:1; fill:none" points="2034.04,1226.62 2034.04,1423.18 2132.53,1423.18 2132.53,1226.62 2034.04,1226.62 "/>
<path clip-path="url(#clip292)" d="M2132.53 1324.9 L2132.53 1423.18 L2231.02 1423.18 L2231.02 1324.9 L2132.53 1324.9 L2132.53 1324.9  Z" fill="#009af9" fill-rule="evenodd" fill-opacity="1"/>
<polyline clip-path="url(#clip292)" style="stroke:#000000; stroke-linecap:round; stroke-linejoin:round; stroke-width:4; stroke-opacity:1; fill:none" points="2132.53,1324.9 2132.53,1423.18 2231.02,1423.18 2231.02,1324.9 2132.53,1324.9 "/>
<circle clip-path="url(#clip292)" style="fill:#009af9; stroke:none; fill-opacity:0" cx="310.428" cy="1324.9" r="2"/>
<circle clip-path="url(#clip292)" style="fill:#009af9; stroke:none; fill-opacity:0" cx="408.919" cy="1423.18" r="2"/>
<circle clip-path="url(#clip292)" style="fill:#009af9; stroke:none; fill-opacity:0" cx="507.411" cy="1030.06" r="2"/>
<circle clip-path="url(#clip292)" style="fill:#009af9; stroke:none; fill-opacity:0" cx="605.903" cy="1030.06" r="2"/>
<circle clip-path="url(#clip292)" style="fill:#009af9; stroke:none; fill-opacity:0" cx="704.395" cy="1128.34" r="2"/>
<circle clip-path="url(#clip292)" style="fill:#009af9; stroke:none; fill-opacity:0" cx="802.887" cy="1030.06" r="2"/>
<circle clip-path="url(#clip292)" style="fill:#009af9; stroke:none; fill-opacity:0" cx="901.379" cy="538.65" r="2"/>
<circle clip-path="url(#clip292)" style="fill:#009af9; stroke:none; fill-opacity:0" cx="999.871" cy="47.2441" r="2"/>
<circle clip-path="url(#clip292)" style="fill:#009af9; stroke:none; fill-opacity:0" cx="1098.36" cy="636.931" r="2"/>
<circle clip-path="url(#clip292)" style="fill:#009af9; stroke:none; fill-opacity:0" cx="1196.85" cy="47.2441" r="2"/>
<circle clip-path="url(#clip292)" style="fill:#009af9; stroke:none; fill-opacity:0" cx="1295.35" cy="833.493" r="2"/>
<circle clip-path="url(#clip292)" style="fill:#009af9; stroke:none; fill-opacity:0" cx="1393.84" cy="1030.06" r="2"/>
<circle clip-path="url(#clip292)" style="fill:#009af9; stroke:none; fill-opacity:0" cx="1492.33" cy="1128.34" r="2"/>
<circle clip-path="url(#clip292)" style="fill:#009af9; stroke:none; fill-opacity:0" cx="1590.82" cy="931.774" r="2"/>
<circle clip-path="url(#clip292)" style="fill:#009af9; stroke:none; fill-opacity:0" cx="1689.31" cy="735.212" r="2"/>
<circle clip-path="url(#clip292)" style="fill:#009af9; stroke:none; fill-opacity:0" cx="1787.81" cy="1030.06" r="2"/>
<circle clip-path="url(#clip292)" style="fill:#009af9; stroke:none; fill-opacity:0" cx="1886.3" cy="931.774" r="2"/>
<circle clip-path="url(#clip292)" style="fill:#009af9; stroke:none; fill-opacity:0" cx="1984.79" cy="1226.62" r="2"/>
<circle clip-path="url(#clip292)" style="fill:#009af9; stroke:none; fill-opacity:0" cx="2083.28" cy="1226.62" r="2"/>
<circle clip-path="url(#clip292)" style="fill:#009af9; stroke:none; fill-opacity:0" cx="2181.77" cy="1324.9" r="2"/>
</svg>
