<?xml version="1.0" encoding="utf-8"?>
<svg xmlns="http://www.w3.org/2000/svg" xmlns:xlink="http://www.w3.org/1999/xlink" width="600" height="400" viewBox="0 0 2400 1600">
<defs>
  <clipPath id="clip410">
    <rect x="0" y="0" width="2400" height="1600"/>
  </clipPath>
</defs>
<path clip-path="url(#clip410)" d="M0 1600 L2400 1600 L2400 0 L0 0  Z" fill="#ffffff" fill-rule="evenodd" fill-opacity="1"/>
<defs>
  <clipPath id="clip411">
    <rect x="480" y="0" width="1681" height="1600"/>
  </clipPath>
</defs>
<path clip-path="url(#clip410)" d="M205.121 1423.18 L2352.76 1423.18 L2352.76 47.2441 L205.121 47.2441  Z" fill="#ffffff" fill-rule="evenodd" fill-opacity="1"/>
<defs>
  <clipPath id="clip412">
    <rect x="205" y="47" width="2149" height="1377"/>
  </clipPath>
</defs>
<polyline clip-path="url(#clip412)" style="stroke:#000000; stroke-linecap:round; stroke-linejoin:round; stroke-width:2; stroke-opacity:0.1; fill:none" points="323.245,1423.18 323.245,47.2441 "/>
<polyline clip-path="url(#clip412)" style="stroke:#000000; stroke-linecap:round; stroke-linejoin:round; stroke-width:2; stroke-opacity:0.1; fill:none" points="705.522,1423.18 705.522,47.2441 "/>
<polyline clip-path="url(#clip412)" style="stroke:#000000; stroke-linecap:round; stroke-linejoin:round; stroke-width:2; stroke-opacity:0.1; fill:none" points="1087.8,1423.18 1087.8,47.2441 "/>
<polyline clip-path="url(#clip412)" style="stroke:#000000; stroke-linecap:round; stroke-linejoin:round; stroke-width:2; stroke-opacity:0.1; fill:none" points="1470.08,1423.18 1470.08,47.2441 "/>
<polyline clip-path="url(#clip412)" style="stroke:#000000; stroke-linecap:round; stroke-linejoin:round; stroke-width:2; stroke-opacity:0.1; fill:none" points="1852.35,1423.18 1852.35,47.2441 "/>
<polyline clip-path="url(#clip412)" style="stroke:#000000; stroke-linecap:round; stroke-linejoin:round; stroke-width:2; stroke-opacity:0.1; fill:none" points="2234.63,1423.18 2234.63,47.2441 "/>
<polyline clip-path="url(#clip410)" style="stroke:#000000; stroke-linecap:round; stroke-linejoin:round; stroke-width:4; stroke-opacity:1; fill:none" points="205.121,1423.18 2352.76,1423.18 "/>
<polyline clip-path="url(#clip410)" style="stroke:#000000; stroke-linecap:round; stroke-linejoin:round; stroke-width:4; stroke-opacity:1; fill:none" points="323.245,1423.18 323.245,1404.28 "/>
<polyline clip-path="url(#clip410)" style="stroke:#000000; stroke-linecap:round; stroke-linejoin:round; stroke-width:4; stroke-opacity:1; fill:none" points="705.522,1423.18 705.522,1404.28 "/>
<polyline clip-path="url(#clip410)" style="stroke:#000000; stroke-linecap:round; stroke-linejoin:round; stroke-width:4; stroke-opacity:1; fill:none" points="1087.8,1423.18 1087.8,1404.28 "/>
<polyline clip-path="url(#clip410)" style="stroke:#000000; stroke-linecap:round; stroke-linejoin:round; stroke-width:4; stroke-opacity:1; fill:none" points="1470.08,1423.18 1470.08,1404.28 "/>
<polyline clip-path="url(#clip410)" style="stroke:#000000; stroke-linecap:round; stroke-linejoin:round; stroke-width:4; stroke-opacity:1; fill:none" points="1852.35,1423.18 1852.35,1404.28 "/>
<polyline clip-path="url(#clip410)" style="stroke:#000000; stroke-linecap:round; stroke-linejoin:round; stroke-width:4; stroke-opacity:1; fill:none" points="2234.63,1423.18 2234.63,1404.28 "/>
<path clip-path="url(#clip410)" d="M297.006 1466.95 Q300.363 1467.66 302.238 1469.93 Q304.136 1472.2 304.136 1475.53 Q304.136 1480.65 300.618 1483.45 Q297.099 1486.25 290.618 1486.25 Q288.442 1486.25 286.127 1485.81 Q283.835 1485.39 281.382 1484.54 L281.382 1480.02 Q283.326 1481.16 285.641 1481.74 Q287.956 1482.32 290.479 1482.32 Q294.877 1482.32 297.168 1480.58 Q299.483 1478.84 299.483 1475.53 Q299.483 1472.48 297.331 1470.77 Q295.201 1469.03 291.381 1469.03 L287.354 1469.03 L287.354 1465.19 L291.567 1465.19 Q295.016 1465.19 296.844 1463.82 Q298.673 1462.43 298.673 1459.84 Q298.673 1457.18 296.775 1455.77 Q294.9 1454.33 291.381 1454.33 Q289.46 1454.33 287.261 1454.75 Q285.062 1455.16 282.423 1456.04 L282.423 1451.88 Q285.085 1451.14 287.4 1450.77 Q289.738 1450.39 291.798 1450.39 Q297.122 1450.39 300.224 1452.83 Q303.326 1455.23 303.326 1459.35 Q303.326 1462.22 301.682 1464.21 Q300.039 1466.18 297.006 1466.95 Z" fill="#000000" fill-rule="nonzero" fill-opacity="1" /><path clip-path="url(#clip410)" d="M313.048 1451.02 L331.404 1451.02 L331.404 1454.96 L317.33 1454.96 L317.33 1463.43 Q318.349 1463.08 319.367 1462.92 Q320.386 1462.73 321.404 1462.73 Q327.191 1462.73 330.571 1465.9 Q333.951 1469.08 333.951 1474.49 Q333.951 1480.07 330.478 1483.17 Q327.006 1486.25 320.687 1486.25 Q318.511 1486.25 316.242 1485.88 Q313.997 1485.51 311.59 1484.77 L311.59 1480.07 Q313.673 1481.2 315.895 1481.76 Q318.117 1482.32 320.594 1482.32 Q324.599 1482.32 326.937 1480.21 Q329.275 1478.1 329.275 1474.49 Q329.275 1470.88 326.937 1468.77 Q324.599 1466.67 320.594 1466.67 Q318.719 1466.67 316.844 1467.08 Q314.992 1467.5 313.048 1468.38 L313.048 1451.02 Z" fill="#000000" fill-rule="nonzero" fill-opacity="1" /><path clip-path="url(#clip410)" d="M353.164 1454.1 Q349.552 1454.1 347.724 1457.66 Q345.918 1461.2 345.918 1468.33 Q345.918 1475.44 347.724 1479.01 Q349.552 1482.55 353.164 1482.55 Q356.798 1482.55 358.603 1479.01 Q360.432 1475.44 360.432 1468.33 Q360.432 1461.2 358.603 1457.66 Q356.798 1454.1 353.164 1454.1 M353.164 1450.39 Q358.974 1450.39 362.029 1455 Q365.108 1459.58 365.108 1468.33 Q365.108 1477.06 362.029 1481.67 Q358.974 1486.25 353.164 1486.25 Q347.353 1486.25 344.275 1481.67 Q341.219 1477.06 341.219 1468.33 Q341.219 1459.58 344.275 1455 Q347.353 1450.39 353.164 1450.39 Z" fill="#000000" fill-rule="nonzero" fill-opacity="1" /><path clip-path="url(#clip410)" d="M678.613 1455.09 L666.807 1473.54 L678.613 1473.54 L678.613 1455.09 M677.386 1451.02 L683.265 1451.02 L683.265 1473.54 L688.196 1473.54 L688.196 1477.43 L683.265 1477.43 L683.265 1485.58 L678.613 1485.58 L678.613 1477.43 L663.011 1477.43 L663.011 1472.92 L677.386 1451.02 Z" fill="#000000" fill-rule="nonzero" fill-opacity="1" /><path clip-path="url(#clip410)" d="M705.927 1454.1 Q702.316 1454.1 700.488 1457.66 Q698.682 1461.2 698.682 1468.33 Q698.682 1475.44 700.488 1479.01 Q702.316 1482.55 705.927 1482.55 Q709.562 1482.55 711.367 1479.01 Q713.196 1475.44 713.196 1468.33 Q713.196 1461.2 711.367 1457.66 Q709.562 1454.1 705.927 1454.1 M705.927 1450.39 Q711.737 1450.39 714.793 1455 Q717.872 1459.58 717.872 1468.33 Q717.872 1477.06 714.793 1481.67 Q711.737 1486.25 705.927 1486.25 Q700.117 1486.25 697.038 1481.67 Q693.983 1477.06 693.983 1468.33 Q693.983 1459.58 697.038 1455 Q700.117 1450.39 705.927 1450.39 Z" fill="#000000" fill-rule="nonzero" fill-opacity="1" /><path clip-path="url(#clip410)" d="M736.089 1454.1 Q732.478 1454.1 730.649 1457.66 Q728.844 1461.2 728.844 1468.33 Q728.844 1475.44 730.649 1479.01 Q732.478 1482.55 736.089 1482.55 Q739.723 1482.55 741.529 1479.01 Q743.358 1475.44 743.358 1468.33 Q743.358 1461.2 741.529 1457.66 Q739.723 1454.1 736.089 1454.1 M736.089 1450.39 Q741.899 1450.39 744.955 1455 Q748.034 1459.58 748.034 1468.33 Q748.034 1477.06 744.955 1481.67 Q741.899 1486.25 736.089 1486.25 Q730.279 1486.25 727.2 1481.67 Q724.145 1477.06 724.145 1468.33 Q724.145 1459.58 727.2 1455 Q730.279 1450.39 736.089 1450.39 Z" fill="#000000" fill-rule="nonzero" fill-opacity="1" /><path clip-path="url(#clip410)" d="M1060.89 1455.09 L1049.08 1473.54 L1060.89 1473.54 L1060.89 1455.09 M1059.66 1451.02 L1065.54 1451.02 L1065.54 1473.54 L1070.47 1473.54 L1070.47 1477.43 L1065.54 1477.43 L1065.54 1485.58 L1060.89 1485.58 L1060.89 1477.43 L1045.29 1477.43 L1045.29 1472.92 L1059.66 1451.02 Z" fill="#000000" fill-rule="nonzero" fill-opacity="1" /><path clip-path="url(#clip410)" d="M1078.25 1451.02 L1096.61 1451.02 L1096.61 1454.96 L1082.53 1454.96 L1082.53 1463.43 Q1083.55 1463.08 1084.57 1462.92 Q1085.59 1462.73 1086.61 1462.73 Q1092.39 1462.73 1095.77 1465.9 Q1099.15 1469.08 1099.15 1474.49 Q1099.15 1480.07 1095.68 1483.17 Q1092.21 1486.25 1085.89 1486.25 Q1083.71 1486.25 1081.45 1485.88 Q1079.2 1485.51 1076.79 1484.77 L1076.79 1480.07 Q1078.88 1481.2 1081.1 1481.76 Q1083.32 1482.32 1085.8 1482.32 Q1089.8 1482.32 1092.14 1480.21 Q1094.48 1478.1 1094.48 1474.49 Q1094.48 1470.88 1092.14 1468.77 Q1089.8 1466.67 1085.8 1466.67 Q1083.92 1466.67 1082.05 1467.08 Q1080.2 1467.5 1078.25 1468.38 L1078.25 1451.02 Z" fill="#000000" fill-rule="nonzero" fill-opacity="1" /><path clip-path="url(#clip410)" d="M1118.37 1454.1 Q1114.76 1454.1 1112.93 1457.66 Q1111.12 1461.2 1111.12 1468.33 Q1111.12 1475.44 1112.93 1479.01 Q1114.76 1482.55 1118.37 1482.55 Q1122 1482.55 1123.81 1479.01 Q1125.64 1475.44 1125.64 1468.33 Q1125.64 1461.2 1123.81 1457.66 Q1122 1454.1 1118.37 1454.1 M1118.37 1450.39 Q1124.18 1450.39 1127.23 1455 Q1130.31 1459.58 1130.31 1468.33 Q1130.31 1477.06 1127.23 1481.67 Q1124.18 1486.25 1118.37 1486.25 Q1112.56 1486.25 1109.48 1481.67 Q1106.42 1477.06 1106.42 1468.33 Q1106.42 1459.58 1109.48 1455 Q1112.56 1450.39 1118.37 1450.39 Z" fill="#000000" fill-rule="nonzero" fill-opacity="1" /><path clip-path="url(#clip410)" d="M1429.7 1451.02 L1448.05 1451.02 L1448.05 1454.96 L1433.98 1454.96 L1433.98 1463.43 Q1435 1463.08 1436.01 1462.92 Q1437.03 1462.73 1438.05 1462.73 Q1443.84 1462.73 1447.22 1465.9 Q1450.6 1469.08 1450.6 1474.49 Q1450.6 1480.07 1447.13 1483.17 Q1443.65 1486.25 1437.33 1486.25 Q1435.16 1486.25 1432.89 1485.88 Q1430.64 1485.51 1428.24 1484.77 L1428.24 1480.07 Q1430.32 1481.2 1432.54 1481.76 Q1434.76 1482.32 1437.24 1482.32 Q1441.25 1482.32 1443.58 1480.21 Q1445.92 1478.1 1445.92 1474.49 Q1445.92 1470.88 1443.58 1468.77 Q1441.25 1466.67 1437.24 1466.67 Q1435.37 1466.67 1433.49 1467.08 Q1431.64 1467.5 1429.7 1468.38 L1429.7 1451.02 Z" fill="#000000" fill-rule="nonzero" fill-opacity="1" /><path clip-path="url(#clip410)" d="M1469.81 1454.1 Q1466.2 1454.1 1464.37 1457.66 Q1462.57 1461.2 1462.57 1468.33 Q1462.57 1475.44 1464.37 1479.01 Q1466.2 1482.55 1469.81 1482.55 Q1473.45 1482.55 1475.25 1479.01 Q1477.08 1475.44 1477.08 1468.33 Q1477.08 1461.2 1475.25 1457.66 Q1473.45 1454.1 1469.81 1454.1 M1469.81 1450.39 Q1475.62 1450.39 1478.68 1455 Q1481.76 1459.58 1481.76 1468.33 Q1481.76 1477.06 1478.68 1481.67 Q1475.62 1486.25 1469.81 1486.25 Q1464 1486.25 1460.92 1481.67 Q1457.87 1477.06 1457.87 1468.33 Q1457.87 1459.58 1460.92 1455 Q1464 1450.39 1469.81 1450.39 Z" fill="#000000" fill-rule="nonzero" fill-opacity="1" /><path clip-path="url(#clip410)" d="M1499.97 1454.1 Q1496.36 1454.1 1494.53 1457.66 Q1492.73 1461.2 1492.73 1468.33 Q1492.73 1475.44 1494.53 1479.01 Q1496.36 1482.55 1499.97 1482.55 Q1503.61 1482.55 1505.41 1479.01 Q1507.24 1475.44 1507.24 1468.33 Q1507.24 1461.2 1505.41 1457.66 Q1503.61 1454.1 1499.97 1454.1 M1499.97 1450.39 Q1505.78 1450.39 1508.84 1455 Q1511.92 1459.58 1511.92 1468.33 Q1511.92 1477.06 1508.84 1481.67 Q1505.78 1486.25 1499.97 1486.25 Q1494.16 1486.25 1491.08 1481.67 Q1488.03 1477.06 1488.03 1468.33 Q1488.03 1459.58 1491.08 1455 Q1494.16 1450.39 1499.97 1450.39 Z" fill="#000000" fill-rule="nonzero" fill-opacity="1" /><path clip-path="url(#clip410)" d="M1811.97 1451.02 L1830.33 1451.02 L1830.33 1454.96 L1816.26 1454.96 L1816.26 1463.43 Q1817.27 1463.08 1818.29 1462.92 Q1819.31 1462.73 1820.33 1462.73 Q1826.12 1462.73 1829.5 1465.9 Q1832.88 1469.08 1832.88 1474.49 Q1832.88 1480.07 1829.4 1483.17 Q1825.93 1486.25 1819.61 1486.25 Q1817.44 1486.25 1815.17 1485.88 Q1812.92 1485.51 1810.51 1484.77 L1810.51 1480.07 Q1812.6 1481.2 1814.82 1481.76 Q1817.04 1482.32 1819.52 1482.32 Q1823.52 1482.32 1825.86 1480.21 Q1828.2 1478.1 1828.2 1474.49 Q1828.2 1470.88 1825.86 1468.77 Q1823.52 1466.67 1819.52 1466.67 Q1817.64 1466.67 1815.77 1467.08 Q1813.92 1467.5 1811.97 1468.38 L1811.97 1451.02 Z" fill="#000000" fill-rule="nonzero" fill-opacity="1" /><path clip-path="url(#clip410)" d="M1842.13 1451.02 L1860.49 1451.02 L1860.49 1454.96 L1846.42 1454.96 L1846.42 1463.43 Q1847.44 1463.08 1848.45 1462.92 Q1849.47 1462.73 1850.49 1462.73 Q1856.28 1462.73 1859.66 1465.9 Q1863.04 1469.08 1863.04 1474.49 Q1863.04 1480.07 1859.57 1483.17 Q1856.09 1486.25 1849.77 1486.25 Q1847.6 1486.25 1845.33 1485.88 Q1843.08 1485.51 1840.68 1484.77 L1840.68 1480.07 Q1842.76 1481.2 1844.98 1481.76 Q1847.2 1482.32 1849.68 1482.32 Q1853.69 1482.32 1856.02 1480.21 Q1858.36 1478.1 1858.36 1474.49 Q1858.36 1470.88 1856.02 1468.77 Q1853.69 1466.67 1849.68 1466.67 Q1847.81 1466.67 1845.93 1467.08 Q1844.08 1467.5 1842.13 1468.38 L1842.13 1451.02 Z" fill="#000000" fill-rule="nonzero" fill-opacity="1" /><path clip-path="url(#clip410)" d="M1882.25 1454.1 Q1878.64 1454.1 1876.81 1457.66 Q1875.01 1461.2 1875.01 1468.33 Q1875.01 1475.44 1876.81 1479.01 Q1878.64 1482.55 1882.25 1482.55 Q1885.88 1482.55 1887.69 1479.01 Q1889.52 1475.44 1889.52 1468.33 Q1889.52 1461.2 1887.69 1457.66 Q1885.88 1454.1 1882.25 1454.1 M1882.25 1450.39 Q1888.06 1450.39 1891.12 1455 Q1894.19 1459.58 1894.19 1468.33 Q1894.19 1477.06 1891.12 1481.67 Q1888.06 1486.25 1882.25 1486.25 Q1876.44 1486.25 1873.36 1481.67 Q1870.31 1477.06 1870.31 1468.33 Q1870.31 1459.58 1873.36 1455 Q1876.44 1450.39 1882.25 1450.39 Z" fill="#000000" fill-rule="nonzero" fill-opacity="1" /><path clip-path="url(#clip410)" d="M2204.96 1466.44 Q2201.81 1466.44 2199.96 1468.59 Q2198.13 1470.74 2198.13 1474.49 Q2198.13 1478.22 2199.96 1480.39 Q2201.81 1482.55 2204.96 1482.55 Q2208.1 1482.55 2209.93 1480.39 Q2211.79 1478.22 2211.79 1474.49 Q2211.79 1470.74 2209.93 1468.59 Q2208.1 1466.44 2204.96 1466.44 M2214.24 1451.78 L2214.24 1456.04 Q2212.48 1455.21 2210.67 1454.77 Q2208.89 1454.33 2207.13 1454.33 Q2202.5 1454.33 2200.05 1457.45 Q2197.62 1460.58 2197.27 1466.9 Q2198.64 1464.89 2200.7 1463.82 Q2202.76 1462.73 2205.23 1462.73 Q2210.44 1462.73 2213.45 1465.9 Q2216.48 1469.05 2216.48 1474.49 Q2216.48 1479.82 2213.34 1483.03 Q2210.19 1486.25 2204.96 1486.25 Q2198.96 1486.25 2195.79 1481.67 Q2192.62 1477.06 2192.62 1468.33 Q2192.62 1460.14 2196.51 1455.28 Q2200.4 1450.39 2206.95 1450.39 Q2208.71 1450.39 2210.49 1450.74 Q2212.29 1451.09 2214.24 1451.78 Z" fill="#000000" fill-rule="nonzero" fill-opacity="1" /><path clip-path="url(#clip410)" d="M2234.54 1454.1 Q2230.93 1454.1 2229.1 1457.66 Q2227.29 1461.2 2227.29 1468.33 Q2227.29 1475.44 2229.1 1479.01 Q2230.93 1482.55 2234.54 1482.55 Q2238.17 1482.55 2239.98 1479.01 Q2241.81 1475.44 2241.81 1468.33 Q2241.81 1461.2 2239.98 1457.66 Q2238.17 1454.1 2234.54 1454.1 M2234.54 1450.39 Q2240.35 1450.39 2243.41 1455 Q2246.48 1459.58 2246.48 1468.33 Q2246.48 1477.06 2243.41 1481.67 Q2240.35 1486.25 2234.54 1486.25 Q2228.73 1486.25 2225.65 1481.67 Q2222.6 1477.06 2222.6 1468.33 Q2222.6 1459.58 2225.65 1455 Q2228.73 1450.39 2234.54 1450.39 Z" fill="#000000" fill-rule="nonzero" fill-opacity="1" /><path clip-path="url(#clip410)" d="M2264.7 1454.1 Q2261.09 1454.1 2259.26 1457.66 Q2257.46 1461.2 2257.46 1468.33 Q2257.46 1475.44 2259.26 1479.01 Q2261.09 1482.55 2264.7 1482.55 Q2268.34 1482.55 2270.14 1479.01 Q2271.97 1475.44 2271.97 1468.33 Q2271.97 1461.2 2270.14 1457.66 Q2268.34 1454.1 2264.7 1454.1 M2264.7 1450.39 Q2270.51 1450.39 2273.57 1455 Q2276.65 1459.58 2276.65 1468.33 Q2276.65 1477.06 2273.57 1481.67 Q2270.51 1486.25 2264.7 1486.25 Q2258.89 1486.25 2255.81 1481.67 Q2252.76 1477.06 2252.76 1468.33 Q2252.76 1459.58 2255.81 1455 Q2258.89 1450.39 2264.7 1450.39 Z" fill="#000000" fill-rule="nonzero" fill-opacity="1" /><path clip-path="url(#clip410)" d="M1149.83 1525.81 L1149.83 1543.66 L1157.91 1543.66 Q1162.4 1543.66 1164.85 1541.34 Q1167.3 1539.02 1167.3 1534.72 Q1167.3 1530.45 1164.85 1528.13 Q1162.4 1525.81 1157.91 1525.81 L1149.83 1525.81 M1143.4 1520.52 L1157.91 1520.52 Q1165.9 1520.52 1169.97 1524.15 Q1174.08 1527.75 1174.08 1534.72 Q1174.08 1541.75 1169.97 1545.35 Q1165.9 1548.95 1157.91 1548.95 L1149.83 1548.95 L1149.83 1568.04 L1143.4 1568.04 L1143.4 1520.52 Z" fill="#000000" fill-rule="nonzero" fill-opacity="1" /><path clip-path="url(#clip410)" d="M1201.96 1537.87 Q1200.97 1537.3 1199.8 1537.04 Q1198.65 1536.76 1197.25 1536.76 Q1192.29 1536.76 1189.61 1540 Q1186.97 1543.22 1186.97 1549.27 L1186.97 1568.04 L1181.08 1568.04 L1181.08 1532.4 L1186.97 1532.4 L1186.97 1537.93 Q1188.82 1534.69 1191.78 1533.13 Q1194.74 1531.54 1198.97 1531.54 Q1199.57 1531.54 1200.31 1531.63 Q1201.04 1531.7 1201.93 1531.85 L1201.96 1537.87 Z" fill="#000000" fill-rule="nonzero" fill-opacity="1" /><path clip-path="url(#clip410)" d="M1220.49 1536.5 Q1215.77 1536.5 1213.04 1540.19 Q1210.3 1543.85 1210.3 1550.25 Q1210.3 1556.65 1213.01 1560.34 Q1215.74 1564 1220.49 1564 Q1225.16 1564 1227.9 1560.31 Q1230.64 1556.62 1230.64 1550.25 Q1230.64 1543.92 1227.9 1540.23 Q1225.16 1536.5 1220.49 1536.5 M1220.49 1531.54 Q1228.12 1531.54 1232.48 1536.5 Q1236.85 1541.47 1236.85 1550.25 Q1236.85 1559 1232.48 1564 Q1228.12 1568.97 1220.49 1568.97 Q1212.81 1568.97 1208.45 1564 Q1204.13 1559 1204.13 1550.25 Q1204.13 1541.47 1208.45 1536.5 Q1212.81 1531.54 1220.49 1531.54 Z" fill="#000000" fill-rule="nonzero" fill-opacity="1" /><path clip-path="url(#clip410)" d="M1264.6 1518.52 L1264.6 1523.39 L1259 1523.39 Q1255.85 1523.39 1254.61 1524.66 Q1253.4 1525.93 1253.4 1529.24 L1253.4 1532.4 L1263.04 1532.4 L1263.04 1536.95 L1253.4 1536.95 L1253.4 1568.04 L1247.51 1568.04 L1247.51 1536.95 L1241.91 1536.95 L1241.91 1532.4 L1247.51 1532.4 L1247.51 1529.91 Q1247.51 1523.96 1250.28 1521.26 Q1253.05 1518.52 1259.06 1518.52 L1264.6 1518.52 Z" fill="#000000" fill-rule="nonzero" fill-opacity="1" /><path clip-path="url(#clip410)" d="M1269.5 1532.4 L1275.36 1532.4 L1275.36 1568.04 L1269.5 1568.04 L1269.5 1532.4 M1269.5 1518.52 L1275.36 1518.52 L1275.36 1525.93 L1269.5 1525.93 L1269.5 1518.52 Z" fill="#000000" fill-rule="nonzero" fill-opacity="1" /><path clip-path="url(#clip410)" d="M1293.4 1522.27 L1293.4 1532.4 L1305.47 1532.4 L1305.47 1536.95 L1293.4 1536.95 L1293.4 1556.3 Q1293.4 1560.66 1294.58 1561.9 Q1295.79 1563.14 1299.45 1563.14 L1305.47 1563.14 L1305.47 1568.04 L1299.45 1568.04 Q1292.67 1568.04 1290.09 1565.53 Q1287.52 1562.98 1287.52 1556.3 L1287.52 1536.95 L1283.22 1536.95 L1283.22 1532.4 L1287.52 1532.4 L1287.52 1522.27 L1293.4 1522.27 Z" fill="#000000" fill-rule="nonzero" fill-opacity="1" /><path clip-path="url(#clip410)" d="M1333.35 1518.52 L1346.84 1518.52 L1346.84 1523.07 L1339.21 1523.07 L1339.21 1572.09 L1346.84 1572.09 L1346.84 1576.64 L1333.35 1576.64 L1333.35 1518.52 Z" fill="#000000" fill-rule="nonzero" fill-opacity="1" /><path clip-path="url(#clip410)" d="M1375.2 1577.62 L1372.02 1577.62 L1371.99 1568.04 Q1368.65 1567.98 1365.31 1567.28 Q1361.96 1566.55 1358.59 1565.12 L1358.59 1559.39 Q1361.84 1561.42 1365.15 1562.47 Q1368.49 1563.49 1372.02 1563.52 L1372.02 1549.01 Q1364.99 1547.86 1361.77 1545.13 Q1358.59 1542.39 1358.59 1537.62 Q1358.59 1532.43 1362.06 1529.44 Q1365.53 1526.44 1372.02 1526 L1372.02 1518.52 L1375.2 1518.52 L1375.2 1525.9 Q1378.16 1526.03 1380.93 1526.54 Q1383.7 1527.02 1386.34 1527.88 L1386.34 1533.45 Q1383.7 1532.11 1380.9 1531.38 Q1378.13 1530.65 1375.2 1530.52 L1375.2 1544.11 Q1382.43 1545.22 1385.83 1548.09 Q1389.24 1550.95 1389.24 1555.92 Q1389.24 1561.3 1385.61 1564.42 Q1382.02 1567.5 1375.2 1567.98 L1375.2 1577.62 M1372.02 1543.54 L1372.02 1530.49 Q1368.33 1530.9 1366.39 1532.59 Q1364.45 1534.27 1364.45 1537.07 Q1364.45 1539.81 1366.23 1541.34 Q1368.04 1542.87 1372.02 1543.54 M1375.2 1549.65 L1375.2 1563.43 Q1379.25 1562.89 1381.28 1561.14 Q1383.35 1559.39 1383.35 1556.52 Q1383.35 1553.72 1381.38 1552.07 Q1379.44 1550.41 1375.2 1549.65 Z" fill="#000000" fill-rule="nonzero" fill-opacity="1" /><path clip-path="url(#clip410)" d="M1414.48 1518.52 L1414.48 1576.64 L1400.98 1576.64 L1400.98 1572.09 L1408.59 1572.09 L1408.59 1523.07 L1400.98 1523.07 L1400.98 1518.52 L1414.48 1518.52 Z" fill="#000000" fill-rule="nonzero" fill-opacity="1" /><polyline clip-path="url(#clip412)" style="stroke:#000000; stroke-linecap:round; stroke-linejoin:round; stroke-width:2; stroke-opacity:0.1; fill:none" points="205.121,1423.18 2352.76,1423.18 "/>
<polyline clip-path="url(#clip412)" style="stroke:#000000; stroke-linecap:round; stroke-linejoin:round; stroke-width:2; stroke-opacity:0.1; fill:none" points="205.121,1168.38 2352.76,1168.38 "/>
<polyline clip-path="url(#clip412)" style="stroke:#000000; stroke-linecap:round; stroke-linejoin:round; stroke-width:2; stroke-opacity:0.1; fill:none" points="205.121,913.574 2352.76,913.574 "/>
<polyline clip-path="url(#clip412)" style="stroke:#000000; stroke-linecap:round; stroke-linejoin:round; stroke-width:2; stroke-opacity:0.1; fill:none" points="205.121,658.771 2352.76,658.771 "/>
<polyline clip-path="url(#clip412)" style="stroke:#000000; stroke-linecap:round; stroke-linejoin:round; stroke-width:2; stroke-opacity:0.1; fill:none" points="205.121,403.968 2352.76,403.968 "/>
<polyline clip-path="url(#clip412)" style="stroke:#000000; stroke-linecap:round; stroke-linejoin:round; stroke-width:2; stroke-opacity:0.1; fill:none" points="205.121,149.165 2352.76,149.165 "/>
<polyline clip-path="url(#clip410)" style="stroke:#000000; stroke-linecap:round; stroke-linejoin:round; stroke-width:4; stroke-opacity:1; fill:none" points="205.121,1423.18 205.121,47.2441 "/>
<polyline clip-path="url(#clip410)" style="stroke:#000000; stroke-linecap:round; stroke-linejoin:round; stroke-width:4; stroke-opacity:1; fill:none" points="205.121,1423.18 224.019,1423.18 "/>
<polyline clip-path="url(#clip410)" style="stroke:#000000; stroke-linecap:round; stroke-linejoin:round; stroke-width:4; stroke-opacity:1; fill:none" points="205.121,1168.38 224.019,1168.38 "/>
<polyline clip-path="url(#clip410)" style="stroke:#000000; stroke-linecap:round; stroke-linejoin:round; stroke-width:4; stroke-opacity:1; fill:none" points="205.121,913.574 224.019,913.574 "/>
<polyline clip-path="url(#clip410)" style="stroke:#000000; stroke-linecap:round; stroke-linejoin:round; stroke-width:4; stroke-opacity:1; fill:none" points="205.121,658.771 224.019,658.771 "/>
<polyline clip-path="url(#clip410)" style="stroke:#000000; stroke-linecap:round; stroke-linejoin:round; stroke-width:4; stroke-opacity:1; fill:none" points="205.121,403.968 224.019,403.968 "/>
<polyline clip-path="url(#clip410)" style="stroke:#000000; stroke-linecap:round; stroke-linejoin:round; stroke-width:4; stroke-opacity:1; fill:none" points="205.121,149.165 224.019,149.165 "/>
<path clip-path="url(#clip410)" d="M157.177 1408.98 Q153.566 1408.98 151.737 1412.54 Q149.931 1416.08 149.931 1423.21 Q149.931 1430.32 151.737 1433.89 Q153.566 1437.43 157.177 1437.43 Q160.811 1437.43 162.616 1433.89 Q164.445 1430.32 164.445 1423.21 Q164.445 1416.08 162.616 1412.54 Q160.811 1408.98 157.177 1408.98 M157.177 1405.27 Q162.987 1405.27 166.042 1409.88 Q169.121 1414.46 169.121 1423.21 Q169.121 1431.94 166.042 1436.55 Q162.987 1441.13 157.177 1441.13 Q151.366 1441.13 148.288 1436.55 Q145.232 1431.94 145.232 1423.21 Q145.232 1414.46 148.288 1409.88 Q151.366 1405.27 157.177 1405.27 Z" fill="#000000" fill-rule="nonzero" fill-opacity="1" /><path clip-path="url(#clip410)" d="M117.825 1181.72 L125.464 1181.72 L125.464 1155.36 L117.154 1157.02 L117.154 1152.76 L125.418 1151.1 L130.093 1151.1 L130.093 1181.72 L137.732 1181.72 L137.732 1185.66 L117.825 1185.66 L117.825 1181.72 Z" fill="#000000" fill-rule="nonzero" fill-opacity="1" /><path clip-path="url(#clip410)" d="M157.177 1154.18 Q153.566 1154.18 151.737 1157.74 Q149.931 1161.28 149.931 1168.41 Q149.931 1175.52 151.737 1179.08 Q153.566 1182.62 157.177 1182.62 Q160.811 1182.62 162.616 1179.08 Q164.445 1175.52 164.445 1168.41 Q164.445 1161.28 162.616 1157.74 Q160.811 1154.18 157.177 1154.18 M157.177 1150.47 Q162.987 1150.47 166.042 1155.08 Q169.121 1159.66 169.121 1168.41 Q169.121 1177.14 166.042 1181.74 Q162.987 1186.33 157.177 1186.33 Q151.366 1186.33 148.288 1181.74 Q145.232 1177.14 145.232 1168.41 Q145.232 1159.66 148.288 1155.08 Q151.366 1150.47 157.177 1150.47 Z" fill="#000000" fill-rule="nonzero" fill-opacity="1" /><path clip-path="url(#clip410)" d="M121.043 926.919 L137.362 926.919 L137.362 930.854 L115.418 930.854 L115.418 926.919 Q118.08 924.164 122.663 919.535 Q127.269 914.882 128.45 913.539 Q130.695 911.016 131.575 909.28 Q132.478 907.521 132.478 905.831 Q132.478 903.076 130.533 901.34 Q128.612 899.604 125.51 899.604 Q123.311 899.604 120.857 900.368 Q118.427 901.132 115.649 902.683 L115.649 897.961 Q118.473 896.826 120.927 896.248 Q123.38 895.669 125.418 895.669 Q130.788 895.669 133.982 898.354 Q137.177 901.039 137.177 905.53 Q137.177 907.66 136.367 909.581 Q135.579 911.479 133.473 914.072 Q132.894 914.743 129.792 917.961 Q126.691 921.155 121.043 926.919 Z" fill="#000000" fill-rule="nonzero" fill-opacity="1" /><path clip-path="url(#clip410)" d="M157.177 899.373 Q153.566 899.373 151.737 902.937 Q149.931 906.479 149.931 913.609 Q149.931 920.715 151.737 924.28 Q153.566 927.822 157.177 927.822 Q160.811 927.822 162.616 924.28 Q164.445 920.715 164.445 913.609 Q164.445 906.479 162.616 902.937 Q160.811 899.373 157.177 899.373 M157.177 895.669 Q162.987 895.669 166.042 900.275 Q169.121 904.859 169.121 913.609 Q169.121 922.336 166.042 926.942 Q162.987 931.525 157.177 931.525 Q151.366 931.525 148.288 926.942 Q145.232 922.336 145.232 913.609 Q145.232 904.859 148.288 900.275 Q151.366 895.669 157.177 895.669 Z" fill="#000000" fill-rule="nonzero" fill-opacity="1" /><path clip-path="url(#clip410)" d="M131.181 657.417 Q134.538 658.135 136.413 660.403 Q138.311 662.672 138.311 666.005 Q138.311 671.121 134.792 673.921 Q131.274 676.722 124.793 676.722 Q122.617 676.722 120.302 676.283 Q118.01 675.866 115.556 675.009 L115.556 670.496 Q117.501 671.63 119.816 672.209 Q122.13 672.787 124.654 672.787 Q129.052 672.787 131.343 671.051 Q133.658 669.315 133.658 666.005 Q133.658 662.949 131.505 661.236 Q129.376 659.5 125.556 659.5 L121.529 659.5 L121.529 655.658 L125.742 655.658 Q129.191 655.658 131.019 654.292 Q132.848 652.903 132.848 650.31 Q132.848 647.648 130.95 646.236 Q129.075 644.801 125.556 644.801 Q123.635 644.801 121.436 645.218 Q119.237 645.635 116.598 646.514 L116.598 642.348 Q119.26 641.607 121.575 641.236 Q123.913 640.866 125.973 640.866 Q131.297 640.866 134.399 643.297 Q137.501 645.704 137.501 649.824 Q137.501 652.695 135.857 654.685 Q134.214 656.653 131.181 657.417 Z" fill="#000000" fill-rule="nonzero" fill-opacity="1" /><path clip-path="url(#clip410)" d="M157.177 644.57 Q153.566 644.57 151.737 648.135 Q149.931 651.676 149.931 658.806 Q149.931 665.912 151.737 669.477 Q153.566 673.019 157.177 673.019 Q160.811 673.019 162.616 669.477 Q164.445 665.912 164.445 658.806 Q164.445 651.676 162.616 648.135 Q160.811 644.57 157.177 644.57 M157.177 640.866 Q162.987 640.866 166.042 645.473 Q169.121 650.056 169.121 658.806 Q169.121 667.533 166.042 672.139 Q162.987 676.722 157.177 676.722 Q151.366 676.722 148.288 672.139 Q145.232 667.533 145.232 658.806 Q145.232 650.056 148.288 645.473 Q151.366 640.866 157.177 640.866 Z" fill="#000000" fill-rule="nonzero" fill-opacity="1" /><path clip-path="url(#clip410)" d="M129.862 390.762 L118.056 409.211 L129.862 409.211 L129.862 390.762 M128.635 386.688 L134.515 386.688 L134.515 409.211 L139.445 409.211 L139.445 413.1 L134.515 413.1 L134.515 421.248 L129.862 421.248 L129.862 413.1 L114.26 413.1 L114.26 408.586 L128.635 386.688 Z" fill="#000000" fill-rule="nonzero" fill-opacity="1" /><path clip-path="url(#clip410)" d="M157.177 389.767 Q153.566 389.767 151.737 393.332 Q149.931 396.873 149.931 404.003 Q149.931 411.109 151.737 414.674 Q153.566 418.216 157.177 418.216 Q160.811 418.216 162.616 414.674 Q164.445 411.109 164.445 404.003 Q164.445 396.873 162.616 393.332 Q160.811 389.767 157.177 389.767 M157.177 386.063 Q162.987 386.063 166.042 390.67 Q169.121 395.253 169.121 404.003 Q169.121 412.73 166.042 417.336 Q162.987 421.919 157.177 421.919 Q151.366 421.919 148.288 417.336 Q145.232 412.73 145.232 404.003 Q145.232 395.253 148.288 390.67 Q151.366 386.063 157.177 386.063 Z" fill="#000000" fill-rule="nonzero" fill-opacity="1" /><path clip-path="url(#clip410)" d="M117.061 131.885 L135.417 131.885 L135.417 135.82 L121.343 135.82 L121.343 144.293 Q122.362 143.945 123.38 143.783 Q124.399 143.598 125.418 143.598 Q131.205 143.598 134.584 146.769 Q137.964 149.941 137.964 155.357 Q137.964 160.936 134.492 164.038 Q131.019 167.117 124.7 167.117 Q122.524 167.117 120.255 166.746 Q118.01 166.376 115.603 165.635 L115.603 160.936 Q117.686 162.07 119.908 162.626 Q122.13 163.181 124.607 163.181 Q128.612 163.181 130.95 161.075 Q133.288 158.968 133.288 155.357 Q133.288 151.746 130.95 149.64 Q128.612 147.533 124.607 147.533 Q122.732 147.533 120.857 147.95 Q119.006 148.367 117.061 149.246 L117.061 131.885 Z" fill="#000000" fill-rule="nonzero" fill-opacity="1" /><path clip-path="url(#clip410)" d="M157.177 134.964 Q153.566 134.964 151.737 138.529 Q149.931 142.07 149.931 149.2 Q149.931 156.306 151.737 159.871 Q153.566 163.413 157.177 163.413 Q160.811 163.413 162.616 159.871 Q164.445 156.306 164.445 149.2 Q164.445 142.07 162.616 138.529 Q160.811 134.964 157.177 134.964 M157.177 131.26 Q162.987 131.26 166.042 135.867 Q169.121 140.45 169.121 149.2 Q169.121 157.927 166.042 162.533 Q162.987 167.117 157.177 167.117 Q151.366 167.117 148.288 162.533 Q145.232 157.927 145.232 149.2 Q145.232 140.45 148.288 135.867 Q151.366 131.26 157.177 131.26 Z" fill="#000000" fill-rule="nonzero" fill-opacity="1" /><path clip-path="url(#clip410)" d="M16.4842 1073.5 L16.4842 1064.84 L56.238 1043.77 L16.4842 1043.77 L16.4842 1037.54 L64.0042 1037.54 L64.0042 1046.19 L24.2503 1067.26 L64.0042 1067.26 L64.0042 1073.5 L16.4842 1073.5 Z" fill="#000000" fill-rule="nonzero" fill-opacity="1" /><path clip-path="url(#clip410)" d="M49.9359 1025.6 L28.3562 1025.6 L28.3562 1019.74 L49.7131 1019.74 Q54.7739 1019.74 57.3202 1017.77 Q59.8346 1015.8 59.8346 1011.85 Q59.8346 1007.11 56.8109 1004.37 Q53.7872 1001.6 48.5673 1001.6 L28.3562 1001.6 L28.3562 995.744 L64.0042 995.744 L64.0042 1001.6 L58.5296 1001.6 Q61.7762 1003.73 63.3676 1006.57 Q64.9272 1009.37 64.9272 1013.09 Q64.9272 1019.23 61.1078 1022.42 Q57.2883 1025.6 49.9359 1025.6 M27.4968 1010.86 L27.4968 1010.86 Z" fill="#000000" fill-rule="nonzero" fill-opacity="1" /><path clip-path="url(#clip410)" d="M35.1993 955.927 Q31.2526 953.731 29.3747 950.675 Q27.4968 947.62 27.4968 943.482 Q27.4968 937.912 31.4117 934.888 Q35.2948 931.865 42.4881 931.865 L64.0042 931.865 L64.0042 937.753 L42.679 937.753 Q37.5546 937.753 35.072 939.567 Q32.5894 941.381 32.5894 945.105 Q32.5894 949.657 35.6131 952.298 Q38.6368 954.94 43.8567 954.94 L64.0042 954.94 L64.0042 960.829 L42.679 960.829 Q37.5228 960.829 35.072 962.643 Q32.5894 964.457 32.5894 968.245 Q32.5894 972.732 35.6449 975.374 Q38.6686 978.016 43.8567 978.016 L64.0042 978.016 L64.0042 983.904 L28.3562 983.904 L28.3562 978.016 L33.8944 978.016 Q30.616 976.011 29.0564 973.21 Q27.4968 970.409 27.4968 966.558 Q27.4968 962.675 29.4702 959.969 Q31.4436 957.232 35.1993 955.927 Z" fill="#000000" fill-rule="nonzero" fill-opacity="1" /><path clip-path="url(#clip410)" d="M46.212 894.593 Q39.7508 894.593 36.0905 897.267 Q32.3984 899.909 32.3984 904.556 Q32.3984 909.203 36.0905 911.876 Q39.7508 914.518 46.212 914.518 Q52.6732 914.518 56.3653 911.876 Q60.0256 909.203 60.0256 904.556 Q60.0256 899.909 56.3653 897.267 Q52.6732 894.593 46.212 894.593 M33.7671 914.518 Q30.5842 912.672 29.0564 909.871 Q27.4968 907.038 27.4968 903.123 Q27.4968 896.63 32.6531 892.588 Q37.8093 888.514 46.212 888.514 Q54.6147 888.514 59.771 892.588 Q64.9272 896.63 64.9272 903.123 Q64.9272 907.038 63.3994 909.871 Q61.8398 912.672 58.657 914.518 L64.0042 914.518 L64.0042 920.406 L14.479 920.406 L14.479 914.518 L33.7671 914.518 Z" fill="#000000" fill-rule="nonzero" fill-opacity="1" /><path clip-path="url(#clip410)" d="M44.7161 848.315 L47.5806 848.315 L47.5806 875.242 Q53.6281 874.86 56.8109 871.613 Q59.9619 868.335 59.9619 862.51 Q59.9619 859.136 59.1344 855.985 Q58.3069 852.802 56.6518 849.683 L62.1899 849.683 Q63.5267 852.834 64.227 856.144 Q64.9272 859.455 64.9272 862.86 Q64.9272 871.39 59.9619 876.387 Q54.9967 881.353 46.5303 881.353 Q37.7774 881.353 32.6531 876.642 Q27.4968 871.9 27.4968 863.879 Q27.4968 856.686 32.1438 852.516 Q36.7589 848.315 44.7161 848.315 M42.9973 854.171 Q38.1912 854.235 35.3266 856.877 Q32.4621 859.486 32.4621 863.815 Q32.4621 868.717 35.2312 871.677 Q38.0002 874.605 43.0292 875.051 L42.9973 854.171 Z" fill="#000000" fill-rule="nonzero" fill-opacity="1" /><path clip-path="url(#clip410)" d="M33.8307 818.046 Q33.2578 819.032 33.0032 820.21 Q32.7167 821.356 32.7167 822.756 Q32.7167 827.722 35.9632 830.395 Q39.1779 833.037 45.2253 833.037 L64.0042 833.037 L64.0042 838.925 L28.3562 838.925 L28.3562 833.037 L33.8944 833.037 Q30.6479 831.191 29.0883 828.231 Q27.4968 825.271 27.4968 821.038 Q27.4968 820.433 27.5923 819.701 Q27.656 818.969 27.8151 818.078 L33.8307 818.046 Z" fill="#000000" fill-rule="nonzero" fill-opacity="1" /><path clip-path="url(#clip410)" d="M32.4621 777.369 Q32.4621 782.079 36.1542 784.817 Q39.8145 787.554 46.212 787.554 Q52.6095 787.554 56.3017 784.849 Q59.9619 782.111 59.9619 777.369 Q59.9619 772.69 56.2698 769.953 Q52.5777 767.216 46.212 767.216 Q39.8781 767.216 36.186 769.953 Q32.4621 772.69 32.4621 777.369 M27.4968 777.369 Q27.4968 769.73 32.4621 765.37 Q37.4273 761.009 46.212 761.009 Q54.9649 761.009 59.9619 765.37 Q64.9272 769.73 64.9272 777.369 Q64.9272 785.04 59.9619 789.4 Q54.9649 793.729 46.212 793.729 Q37.4273 793.729 32.4621 789.4 Q27.4968 785.04 27.4968 777.369 Z" fill="#000000" fill-rule="nonzero" fill-opacity="1" /><path clip-path="url(#clip410)" d="M14.479 733.255 L19.3487 733.255 L19.3487 738.856 Q19.3487 742.007 20.6219 743.249 Q21.895 744.458 25.2052 744.458 L28.3562 744.458 L28.3562 734.814 L32.9077 734.814 L32.9077 744.458 L64.0042 744.458 L64.0042 750.346 L32.9077 750.346 L32.9077 755.948 L28.3562 755.948 L28.3562 750.346 L25.8736 750.346 Q19.9216 750.346 17.2162 747.577 Q14.479 744.808 14.479 738.793 L14.479 733.255 Z" fill="#000000" fill-rule="nonzero" fill-opacity="1" /><path clip-path="url(#clip410)" d="M32.4621 693.819 Q32.4621 698.53 36.1542 701.267 Q39.8145 704.004 46.212 704.004 Q52.6095 704.004 56.3017 701.299 Q59.9619 698.561 59.9619 693.819 Q59.9619 689.14 56.2698 686.403 Q52.5777 683.666 46.212 683.666 Q39.8781 683.666 36.186 686.403 Q32.4621 689.14 32.4621 693.819 M27.4968 693.819 Q27.4968 686.18 32.4621 681.82 Q37.4273 677.459 46.212 677.459 Q54.9649 677.459 59.9619 681.82 Q64.9272 686.18 64.9272 693.819 Q64.9272 701.49 59.9619 705.85 Q54.9649 710.179 46.212 710.179 Q37.4273 710.179 32.4621 705.85 Q27.4968 701.49 27.4968 693.819 Z" fill="#000000" fill-rule="nonzero" fill-opacity="1" /><path clip-path="url(#clip410)" d="M49.9359 668.356 L28.3562 668.356 L28.3562 662.5 L49.7131 662.5 Q54.7739 662.5 57.3202 660.526 Q59.8346 658.553 59.8346 654.606 Q59.8346 649.864 56.8109 647.127 Q53.7872 644.357 48.5673 644.357 L28.3562 644.357 L28.3562 638.501 L64.0042 638.501 L64.0042 644.357 L58.5296 644.357 Q61.7762 646.49 63.3676 649.323 Q64.9272 652.124 64.9272 655.848 Q64.9272 661.99 61.1078 665.173 Q57.2883 668.356 49.9359 668.356 M27.4968 653.62 L27.4968 653.62 Z" fill="#000000" fill-rule="nonzero" fill-opacity="1" /><path clip-path="url(#clip410)" d="M18.2347 620.645 L28.3562 620.645 L28.3562 608.582 L32.9077 608.582 L32.9077 620.645 L52.2594 620.645 Q56.6199 620.645 57.8613 619.468 Q59.1026 618.258 59.1026 614.598 L59.1026 608.582 L64.0042 608.582 L64.0042 614.598 Q64.0042 621.377 61.4897 623.955 Q58.9434 626.533 52.2594 626.533 L32.9077 626.533 L32.9077 630.83 L28.3562 630.83 L28.3562 626.533 L18.2347 626.533 L18.2347 620.645 Z" fill="#000000" fill-rule="nonzero" fill-opacity="1" /><path clip-path="url(#clip410)" d="M29.7248 575.226 L35.1993 575.226 Q33.8307 577.708 33.1623 580.223 Q32.4621 582.706 32.4621 585.252 Q32.4621 590.949 36.0905 594.1 Q39.6872 597.251 46.212 597.251 Q52.7369 597.251 56.3653 594.1 Q59.9619 590.949 59.9619 585.252 Q59.9619 582.706 59.2935 580.223 Q58.5933 577.708 57.2247 575.226 L62.6355 575.226 Q63.7814 577.677 64.3543 580.318 Q64.9272 582.928 64.9272 585.888 Q64.9272 593.941 59.8664 598.683 Q54.8057 603.426 46.212 603.426 Q37.491 603.426 32.4939 598.652 Q27.4968 593.846 27.4968 585.506 Q27.4968 582.801 28.0697 580.223 Q28.6108 577.645 29.7248 575.226 Z" fill="#000000" fill-rule="nonzero" fill-opacity="1" /><path clip-path="url(#clip410)" d="M32.4621 551.227 Q32.4621 555.938 36.1542 558.675 Q39.8145 561.412 46.212 561.412 Q52.6095 561.412 56.3017 558.707 Q59.9619 555.97 59.9619 551.227 Q59.9619 546.548 56.2698 543.811 Q52.5777 541.074 46.212 541.074 Q39.8781 541.074 36.186 543.811 Q32.4621 546.548 32.4621 551.227 M27.4968 551.227 Q27.4968 543.588 32.4621 539.228 Q37.4273 534.867 46.212 534.867 Q54.9649 534.867 59.9619 539.228 Q64.9272 543.588 64.9272 551.227 Q64.9272 558.898 59.9619 563.258 Q54.9649 567.587 46.212 567.587 Q37.4273 567.587 32.4621 563.258 Q27.4968 558.898 27.4968 551.227 Z" fill="#000000" fill-rule="nonzero" fill-opacity="1" /><path clip-path="url(#clip410)" d="M35.1993 497.405 Q31.2526 495.209 29.3747 492.153 Q27.4968 489.098 27.4968 484.96 Q27.4968 479.39 31.4117 476.366 Q35.2948 473.343 42.4881 473.343 L64.0042 473.343 L64.0042 479.231 L42.679 479.231 Q37.5546 479.231 35.072 481.045 Q32.5894 482.859 32.5894 486.583 Q32.5894 491.135 35.6131 493.777 Q38.6368 496.418 43.8567 496.418 L64.0042 496.418 L64.0042 502.307 L42.679 502.307 Q37.5228 502.307 35.072 504.121 Q32.5894 505.935 32.5894 509.723 Q32.5894 514.211 35.6449 516.852 Q38.6686 519.494 43.8567 519.494 L64.0042 519.494 L64.0042 525.382 L28.3562 525.382 L28.3562 519.494 L33.8944 519.494 Q30.616 517.489 29.0564 514.688 Q27.4968 511.887 27.4968 508.036 Q27.4968 504.153 29.4702 501.447 Q31.4436 498.71 35.1993 497.405 Z" fill="#000000" fill-rule="nonzero" fill-opacity="1" /><path clip-path="url(#clip410)" d="M44.7161 431.17 L47.5806 431.17 L47.5806 458.097 Q53.6281 457.715 56.8109 454.468 Q59.9619 451.19 59.9619 445.365 Q59.9619 441.992 59.1344 438.841 Q58.3069 435.658 56.6518 432.539 L62.1899 432.539 Q63.5267 435.69 64.227 439 Q64.9272 442.31 64.9272 445.716 Q64.9272 454.246 59.9619 459.243 Q54.9967 464.208 46.5303 464.208 Q37.7774 464.208 32.6531 459.497 Q27.4968 454.755 27.4968 446.734 Q27.4968 439.541 32.1438 435.371 Q36.7589 431.17 44.7161 431.17 M42.9973 437.026 Q38.1912 437.09 35.3266 439.732 Q32.4621 442.342 32.4621 446.67 Q32.4621 451.572 35.2312 454.532 Q38.0002 457.46 43.0292 457.906 L42.9973 437.026 Z" fill="#000000" fill-rule="nonzero" fill-opacity="1" /><path clip-path="url(#clip410)" d="M29.4065 398.832 L34.9447 398.832 Q33.6716 401.315 33.035 403.988 Q32.3984 406.662 32.3984 409.527 Q32.3984 413.887 33.7352 416.083 Q35.072 418.248 37.7456 418.248 Q39.7826 418.248 40.9603 416.688 Q42.1061 415.128 43.1565 410.418 L43.6021 408.413 Q44.9389 402.174 47.3897 399.564 Q49.8086 396.922 54.1691 396.922 Q59.1344 396.922 62.0308 400.869 Q64.9272 404.784 64.9272 411.659 Q64.9272 414.524 64.3543 417.643 Q63.8132 420.73 62.6992 424.168 L56.6518 424.168 Q58.3387 420.921 59.198 417.77 Q60.0256 414.619 60.0256 411.532 Q60.0256 407.394 58.6251 405.166 Q57.1929 402.938 54.6147 402.938 Q52.2276 402.938 50.9545 404.561 Q49.6813 406.153 48.5037 411.595 L48.0262 413.632 Q46.8804 419.075 44.5251 421.494 Q42.138 423.913 38.0002 423.913 Q32.9713 423.913 30.2341 420.348 Q27.4968 416.783 27.4968 410.227 Q27.4968 406.98 27.9743 404.116 Q28.4517 401.251 29.4065 398.832 Z" fill="#000000" fill-rule="nonzero" fill-opacity="1" /><path clip-path="url(#clip412)" d="M323.245 1397.7 L323.245 1423.18 L514.383 1423.18 L514.383 1397.7 L323.245 1397.7 L323.245 1397.7  Z" fill="#009af9" fill-rule="evenodd" fill-opacity="1"/>
<polyline clip-path="url(#clip412)" style="stroke:#000000; stroke-linecap:round; stroke-linejoin:round; stroke-width:4; stroke-opacity:1; fill:none" points="323.245,1397.7 323.245,1423.18 514.383,1423.18 514.383,1397.7 323.245,1397.7 "/>
<path clip-path="url(#clip412)" d="M514.383 1423.18 L514.383 1423.18 L705.522 1423.18 L705.522 1423.18 L514.383 1423.18 L514.383 1423.18  Z" fill="#009af9" fill-rule="evenodd" fill-opacity="1"/>
<polyline clip-path="url(#clip412)" style="stroke:#000000; stroke-linecap:round; stroke-linejoin:round; stroke-width:4; stroke-opacity:1; fill:none" points="514.383,1423.18 514.383,1423.18 705.522,1423.18 514.383,1423.18 "/>
<path clip-path="url(#clip412)" d="M705.522 1321.26 L705.522 1423.18 L896.661 1423.18 L896.661 1321.26 L705.522 1321.26 L705.522 1321.26  Z" fill="#009af9" fill-rule="evenodd" fill-opacity="1"/>
<polyline clip-path="url(#clip412)" style="stroke:#000000; stroke-linecap:round; stroke-linejoin:round; stroke-width:4; stroke-opacity:1; fill:none" points="705.522,1321.26 705.522,1423.18 896.661,1423.18 896.661,1321.26 705.522,1321.26 "/>
<path clip-path="url(#clip412)" d="M896.661 1321.26 L896.661 1423.18 L1087.8 1423.18 L1087.8 1321.26 L896.661 1321.26 L896.661 1321.26  Z" fill="#009af9" fill-rule="evenodd" fill-opacity="1"/>
<polyline clip-path="url(#clip412)" style="stroke:#000000; stroke-linecap:round; stroke-linejoin:round; stroke-width:4; stroke-opacity:1; fill:none" points="896.661,1321.26 896.661,1423.18 1087.8,1423.18 1087.8,1321.26 896.661,1321.26 "/>
<path clip-path="url(#clip412)" d="M1087.8 1346.74 L1087.8 1423.18 L1278.94 1423.18 L1278.94 1346.74 L1087.8 1346.74 L1087.8 1346.74  Z" fill="#009af9" fill-rule="evenodd" fill-opacity="1"/>
<polyline clip-path="url(#clip412)" style="stroke:#000000; stroke-linecap:round; stroke-linejoin:round; stroke-width:4; stroke-opacity:1; fill:none" points="1087.8,1346.74 1087.8,1423.18 1278.94,1423.18 1278.94,1346.74 1087.8,1346.74 "/>
<path clip-path="url(#clip412)" d="M1278.94 1321.26 L1278.94 1423.18 L1470.08 1423.18 L1470.08 1321.26 L1278.94 1321.26 L1278.94 1321.26  Z" fill="#009af9" fill-rule="evenodd" fill-opacity="1"/>
<polyline clip-path="url(#clip412)" style="stroke:#000000; stroke-linecap:round; stroke-linejoin:round; stroke-width:4; stroke-opacity:1; fill:none" points="1278.94,1321.26 1278.94,1423.18 1470.08,1423.18 1470.08,1321.26 1278.94,1321.26 "/>
<path clip-path="url(#clip412)" d="M1470.08 1193.86 L1470.08 1423.18 L1661.22 1423.18 L1661.22 1193.86 L1470.08 1193.86 L1470.08 1193.86  Z" fill="#009af9" fill-rule="evenodd" fill-opacity="1"/>
<polyline clip-path="url(#clip412)" style="stroke:#000000; stroke-linecap:round; stroke-linejoin:round; stroke-width:4; stroke-opacity:1; fill:none" points="1470.08,1193.86 1470.08,1423.18 1661.22,1423.18 1661.22,1193.86 1470.08,1193.86 "/>
<path clip-path="url(#clip412)" d="M1661.22 1066.46 L1661.22 1423.18 L1852.35 1423.18 L1852.35 1066.46 L1661.22 1066.46 L1661.22 1066.46  Z" fill="#009af9" fill-rule="evenodd" fill-opacity="1"/>
<polyline clip-path="url(#clip412)" style="stroke:#000000; stroke-linecap:round; stroke-linejoin:round; stroke-width:4; stroke-opacity:1; fill:none" points="1661.22,1066.46 1661.22,1423.18 1852.35,1423.18 1852.35,1066.46 1661.22,1066.46 "/>
<path clip-path="url(#clip412)" d="M1852.35 1244.82 L1852.35 1423.18 L2043.49 1423.18 L2043.49 1244.82 L1852.35 1244.82 L1852.35 1244.82  Z" fill="#009af9" fill-rule="evenodd" fill-opacity="1"/>
<polyline clip-path="url(#clip412)" style="stroke:#000000; stroke-linecap:round; stroke-linejoin:round; stroke-width:4; stroke-opacity:1; fill:none" points="1852.35,1244.82 1852.35,1423.18 2043.49,1423.18 2043.49,1244.82 1852.35,1244.82 "/>
<path clip-path="url(#clip412)" d="M2043.49 47.2441 L2043.49 1423.18 L2234.63 1423.18 L2234.63 47.2441 L2043.49 47.2441 L2043.49 47.2441  Z" fill="#009af9" fill-rule="evenodd" fill-opacity="1"/>
<polyline clip-path="url(#clip412)" style="stroke:#000000; stroke-linecap:round; stroke-linejoin:round; stroke-width:4; stroke-opacity:1; fill:none" points="2043.49,47.2441 2043.49,1423.18 2234.63,1423.18 2234.63,47.2441 2043.49,47.2441 "/>
<circle clip-path="url(#clip412)" style="fill:#009af9; stroke:none; fill-opacity:0" cx="418.814" cy="1397.7" r="2"/>
<circle clip-path="url(#clip412)" style="fill:#009af9; stroke:none; fill-opacity:0" cx="609.953" cy="1423.18" r="2"/>
<circle clip-path="url(#clip412)" style="fill:#009af9; stroke:none; fill-opacity:0" cx="801.092" cy="1321.26" r="2"/>
<circle clip-path="url(#clip412)" style="fill:#009af9; stroke:none; fill-opacity:0" cx="992.23" cy="1321.26" r="2"/>
<circle clip-path="url(#clip412)" style="fill:#009af9; stroke:none; fill-opacity:0" cx="1183.37" cy="1346.74" r="2"/>
<circle clip-path="url(#clip412)" style="fill:#009af9; stroke:none; fill-opacity:0" cx="1374.51" cy="1321.26" r="2"/>
<circle clip-path="url(#clip412)" style="fill:#009af9; stroke:none; fill-opacity:0" cx="1565.65" cy="1193.86" r="2"/>
<circle clip-path="url(#clip412)" style="fill:#009af9; stroke:none; fill-opacity:0" cx="1756.79" cy="1066.46" r="2"/>
<circle clip-path="url(#clip412)" style="fill:#009af9; stroke:none; fill-opacity:0" cx="1947.92" cy="1244.82" r="2"/>
<circle clip-path="url(#clip412)" style="fill:#009af9; stroke:none; fill-opacity:0" cx="2139.06" cy="47.2441" r="2"/>
<polyline clip-path="url(#clip412)" style="stroke:#e26f46; stroke-linecap:round; stroke-linejoin:round; stroke-width:12; stroke-opacity:1; fill:none" points="1880.3,2799.12 1880.3,-1328.69 "/>
<polyline clip-path="url(#clip412)" style="stroke:#3da44d; stroke-linecap:round; stroke-linejoin:round; stroke-width:12; stroke-opacity:1; fill:none" points="1555.63,2799.12 1555.63,-1328.69 "/>
<polyline clip-path="url(#clip412)" style="stroke:#c271d2; stroke-linecap:round; stroke-linejoin:round; stroke-width:12; stroke-opacity:1; fill:none" points="346.246,2799.12 346.246,-1328.69 "/>
<path clip-path="url(#clip410)" d="M276.709 300.469 L660.893 300.469 L660.893 93.1086 L276.709 93.1086  Z" fill="#ffffff" fill-rule="evenodd" fill-opacity="1"/>
<polyline clip-path="url(#clip410)" style="stroke:#000000; stroke-linecap:round; stroke-linejoin:round; stroke-width:4; stroke-opacity:1; fill:none" points="276.709,300.469 660.893,300.469 660.893,93.1086 276.709,93.1086 276.709,300.469 "/>
<polyline clip-path="url(#clip410)" style="stroke:#e26f46; stroke-linecap:round; stroke-linejoin:round; stroke-width:12; stroke-opacity:1; fill:none" points="300.571,144.949 443.747,144.949 "/>
<path clip-path="url(#clip410)" d="M475.225 140.377 L480.897 156.395 L488.998 136.303 L493.512 136.303 L483.026 162.229 L483.026 172.09 L478.767 172.09 L478.767 162.229 L471.962 142.877 Q470.943 139.96 468.744 139.96 L467.61 139.96 L467.61 136.303 L469.23 136.303 Q473.79 136.303 475.225 140.377 Z" fill="#000000" fill-rule="nonzero" fill-opacity="1" /><path clip-path="url(#clip410)" d="M515.017 140.701 L544.693 140.701 L544.693 144.59 L515.017 144.59 L515.017 140.701 M515.017 150.145 L544.693 150.145 L544.693 154.081 L515.017 154.081 L515.017 150.145 Z" fill="#000000" fill-rule="nonzero" fill-opacity="1" /><path clip-path="url(#clip410)" d="M570.665 158.293 L578.304 158.293 L578.304 131.928 L569.993 133.595 L569.993 129.335 L578.257 127.669 L582.933 127.669 L582.933 158.293 L590.572 158.293 L590.572 162.229 L570.665 162.229 L570.665 158.293 Z" fill="#000000" fill-rule="nonzero" fill-opacity="1" /><path clip-path="url(#clip410)" d="M600.016 156.349 L604.901 156.349 L604.901 162.229 L600.016 162.229 L600.016 156.349 Z" fill="#000000" fill-rule="nonzero" fill-opacity="1" /><path clip-path="url(#clip410)" d="M625.086 130.747 Q621.475 130.747 619.646 134.312 Q617.84 137.854 617.84 144.983 Q617.84 152.09 619.646 155.655 Q621.475 159.196 625.086 159.196 Q628.72 159.196 630.525 155.655 Q632.354 152.09 632.354 144.983 Q632.354 137.854 630.525 134.312 Q628.72 130.747 625.086 130.747 M625.086 127.044 Q630.896 127.044 633.951 131.65 Q637.03 136.233 637.03 144.983 Q637.03 153.71 633.951 158.317 Q630.896 162.9 625.086 162.9 Q619.276 162.9 616.197 158.317 Q613.141 153.71 613.141 144.983 Q613.141 136.233 616.197 131.65 Q619.276 127.044 625.086 127.044 Z" fill="#000000" fill-rule="nonzero" fill-opacity="1" /><polyline clip-path="url(#clip410)" style="stroke:#3da44d; stroke-linecap:round; stroke-linejoin:round; stroke-width:12; stroke-opacity:1; fill:none" points="300.571,196.789 443.747,196.789 "/>
<path clip-path="url(#clip410)" d="M475.225 192.217 L480.897 208.235 L488.998 188.143 L493.512 188.143 L483.026 214.069 L483.026 223.93 L478.767 223.93 L478.767 214.069 L471.962 194.717 Q470.943 191.8 468.744 191.8 L467.61 191.8 L467.61 188.143 L469.23 188.143 Q473.79 188.143 475.225 192.217 Z" fill="#000000" fill-rule="nonzero" fill-opacity="1" /><path clip-path="url(#clip410)" d="M515.017 192.541 L544.693 192.541 L544.693 196.43 L515.017 196.43 L515.017 192.541 M515.017 201.985 L544.693 201.985 L544.693 205.921 L515.017 205.921 L515.017 201.985 Z" fill="#000000" fill-rule="nonzero" fill-opacity="1" /><path clip-path="url(#clip410)" d="M579.854 182.587 Q576.243 182.587 574.415 186.152 Q572.609 189.694 572.609 196.823 Q572.609 203.93 574.415 207.495 Q576.243 211.036 579.854 211.036 Q583.489 211.036 585.294 207.495 Q587.123 203.93 587.123 196.823 Q587.123 189.694 585.294 186.152 Q583.489 182.587 579.854 182.587 M579.854 178.884 Q585.665 178.884 588.72 183.49 Q591.799 188.073 591.799 196.823 Q591.799 205.55 588.72 210.157 Q585.665 214.74 579.854 214.74 Q574.044 214.74 570.966 210.157 Q567.91 205.55 567.91 196.823 Q567.91 188.073 570.966 183.49 Q574.044 178.884 579.854 178.884 Z" fill="#000000" fill-rule="nonzero" fill-opacity="1" /><path clip-path="url(#clip410)" d="M600.016 208.189 L604.901 208.189 L604.901 214.069 L600.016 214.069 L600.016 208.189 Z" fill="#000000" fill-rule="nonzero" fill-opacity="1" /><path clip-path="url(#clip410)" d="M615.132 179.509 L633.488 179.509 L633.488 183.444 L619.414 183.444 L619.414 191.916 Q620.433 191.569 621.451 191.407 Q622.47 191.222 623.488 191.222 Q629.275 191.222 632.655 194.393 Q636.035 197.564 636.035 202.981 Q636.035 208.559 632.563 211.661 Q629.09 214.74 622.771 214.74 Q620.595 214.74 618.326 214.37 Q616.081 213.999 613.674 213.258 L613.674 208.559 Q615.757 209.694 617.979 210.249 Q620.201 210.805 622.678 210.805 Q626.683 210.805 629.021 208.698 Q631.359 206.592 631.359 202.981 Q631.359 199.37 629.021 197.263 Q626.683 195.157 622.678 195.157 Q620.803 195.157 618.928 195.573 Q617.076 195.99 615.132 196.87 L615.132 179.509 Z" fill="#000000" fill-rule="nonzero" fill-opacity="1" /><polyline clip-path="url(#clip410)" style="stroke:#c271d2; stroke-linecap:round; stroke-linejoin:round; stroke-width:12; stroke-opacity:1; fill:none" points="300.571,248.629 443.747,248.629 "/>
<path clip-path="url(#clip410)" d="M475.225 244.057 L480.897 260.075 L488.998 239.983 L493.512 239.983 L483.026 265.909 L483.026 275.77 L478.767 275.77 L478.767 265.909 L471.962 246.557 Q470.943 243.64 468.744 243.64 L467.61 243.64 L467.61 239.983 L469.23 239.983 Q473.79 239.983 475.225 244.057 Z" fill="#000000" fill-rule="nonzero" fill-opacity="1" /><path clip-path="url(#clip410)" d="M515.017 244.381 L544.693 244.381 L544.693 248.27 L515.017 248.27 L515.017 244.381 M515.017 253.825 L544.693 253.825 L544.693 257.761 L515.017 257.761 L515.017 253.825 Z" fill="#000000" fill-rule="nonzero" fill-opacity="1" /><path clip-path="url(#clip410)" d="M579.854 234.427 Q576.243 234.427 574.415 237.992 Q572.609 241.534 572.609 248.663 Q572.609 255.77 574.415 259.335 Q576.243 262.876 579.854 262.876 Q583.489 262.876 585.294 259.335 Q587.123 255.77 587.123 248.663 Q587.123 241.534 585.294 237.992 Q583.489 234.427 579.854 234.427 M579.854 230.724 Q585.665 230.724 588.72 235.33 Q591.799 239.913 591.799 248.663 Q591.799 257.39 588.72 261.997 Q585.665 266.58 579.854 266.58 Q574.044 266.58 570.966 261.997 Q567.91 257.39 567.91 248.663 Q567.91 239.913 570.966 235.33 Q574.044 230.724 579.854 230.724 Z" fill="#000000" fill-rule="nonzero" fill-opacity="1" /><path clip-path="url(#clip410)" d="M600.016 260.029 L604.901 260.029 L604.901 265.909 L600.016 265.909 L600.016 260.029 Z" fill="#000000" fill-rule="nonzero" fill-opacity="1" /><path clip-path="url(#clip410)" d="M625.086 234.427 Q621.475 234.427 619.646 237.992 Q617.84 241.534 617.84 248.663 Q617.84 255.77 619.646 259.335 Q621.475 262.876 625.086 262.876 Q628.72 262.876 630.525 259.335 Q632.354 255.77 632.354 248.663 Q632.354 241.534 630.525 237.992 Q628.72 234.427 625.086 234.427 M625.086 230.724 Q630.896 230.724 633.951 235.33 Q637.03 239.913 637.03 248.663 Q637.03 257.39 633.951 261.997 Q630.896 266.58 625.086 266.58 Q619.276 266.58 616.197 261.997 Q613.141 257.39 613.141 248.663 Q613.141 239.913 616.197 235.33 Q619.276 230.724 625.086 230.724 Z" fill="#000000" fill-rule="nonzero" fill-opacity="1" /></svg>
