<?xml version="1.0" encoding="utf-8"?>
<svg xmlns="http://www.w3.org/2000/svg" xmlns:xlink="http://www.w3.org/1999/xlink" width="600" height="600" viewBox="0 0 2400 2400">
<defs>
  <clipPath id="clip380">
    <rect x="0" y="0" width="2400" height="2400"/>
  </clipPath>
</defs>
<path clip-path="url(#clip380)" d="M0 2400 L2400 2400 L2400 0 L0 0  Z" fill="#ffffff" fill-rule="evenodd" fill-opacity="1"/>
<defs>
  <clipPath id="clip381">
    <rect x="480" y="240" width="1681" height="1681"/>
  </clipPath>
</defs>
<path clip-path="url(#clip380)" d="M148.057 2261.17 L2352.76 2261.17 L2352.76 47.2441 L148.057 47.2441  Z" fill="#ffffff" fill-rule="evenodd" fill-opacity="1"/>
<defs>
  <clipPath id="clip382">
    <rect x="148" y="47" width="2206" height="2215"/>
  </clipPath>
</defs>
<polyline clip-path="url(#clip382)" style="stroke:#000000; stroke-linecap:round; stroke-linejoin:round; stroke-width:2; stroke-opacity:0.1; fill:none" points="406.414,2261.17 406.414,47.2441 "/>
<polyline clip-path="url(#clip382)" style="stroke:#000000; stroke-linecap:round; stroke-linejoin:round; stroke-width:2; stroke-opacity:0.1; fill:none" points="838.538,2261.17 838.538,47.2441 "/>
<polyline clip-path="url(#clip382)" style="stroke:#000000; stroke-linecap:round; stroke-linejoin:round; stroke-width:2; stroke-opacity:0.1; fill:none" points="1270.66,2261.17 1270.66,47.2441 "/>
<polyline clip-path="url(#clip382)" style="stroke:#000000; stroke-linecap:round; stroke-linejoin:round; stroke-width:2; stroke-opacity:0.1; fill:none" points="1702.79,2261.17 1702.79,47.2441 "/>
<polyline clip-path="url(#clip382)" style="stroke:#000000; stroke-linecap:round; stroke-linejoin:round; stroke-width:2; stroke-opacity:0.1; fill:none" points="2134.91,2261.17 2134.91,47.2441 "/>
<polyline clip-path="url(#clip382)" style="stroke:#000000; stroke-linecap:round; stroke-linejoin:round; stroke-width:2; stroke-opacity:0.1; fill:none" points="148.057,2189.96 2352.76,2189.96 "/>
<polyline clip-path="url(#clip382)" style="stroke:#000000; stroke-linecap:round; stroke-linejoin:round; stroke-width:2; stroke-opacity:0.1; fill:none" points="148.057,1864.91 2352.76,1864.91 "/>
<polyline clip-path="url(#clip382)" style="stroke:#000000; stroke-linecap:round; stroke-linejoin:round; stroke-width:2; stroke-opacity:0.1; fill:none" points="148.057,1539.85 2352.76,1539.85 "/>
<polyline clip-path="url(#clip382)" style="stroke:#000000; stroke-linecap:round; stroke-linejoin:round; stroke-width:2; stroke-opacity:0.1; fill:none" points="148.057,1214.8 2352.76,1214.8 "/>
<polyline clip-path="url(#clip382)" style="stroke:#000000; stroke-linecap:round; stroke-linejoin:round; stroke-width:2; stroke-opacity:0.1; fill:none" points="148.057,889.749 2352.76,889.749 "/>
<polyline clip-path="url(#clip382)" style="stroke:#000000; stroke-linecap:round; stroke-linejoin:round; stroke-width:2; stroke-opacity:0.1; fill:none" points="148.057,564.697 2352.76,564.697 "/>
<polyline clip-path="url(#clip382)" style="stroke:#000000; stroke-linecap:round; stroke-linejoin:round; stroke-width:2; stroke-opacity:0.1; fill:none" points="148.057,239.644 2352.76,239.644 "/>
<polyline clip-path="url(#clip380)" style="stroke:#000000; stroke-linecap:round; stroke-linejoin:round; stroke-width:4; stroke-opacity:1; fill:none" points="148.057,2261.17 2352.76,2261.17 "/>
<polyline clip-path="url(#clip380)" style="stroke:#000000; stroke-linecap:round; stroke-linejoin:round; stroke-width:4; stroke-opacity:1; fill:none" points="406.414,2261.17 406.414,2242.27 "/>
<polyline clip-path="url(#clip380)" style="stroke:#000000; stroke-linecap:round; stroke-linejoin:round; stroke-width:4; stroke-opacity:1; fill:none" points="838.538,2261.17 838.538,2242.27 "/>
<polyline clip-path="url(#clip380)" style="stroke:#000000; stroke-linecap:round; stroke-linejoin:round; stroke-width:4; stroke-opacity:1; fill:none" points="1270.66,2261.17 1270.66,2242.27 "/>
<polyline clip-path="url(#clip380)" style="stroke:#000000; stroke-linecap:round; stroke-linejoin:round; stroke-width:4; stroke-opacity:1; fill:none" points="1702.79,2261.17 1702.79,2242.27 "/>
<polyline clip-path="url(#clip380)" style="stroke:#000000; stroke-linecap:round; stroke-linejoin:round; stroke-width:4; stroke-opacity:1; fill:none" points="2134.91,2261.17 2134.91,2242.27 "/>
<path clip-path="url(#clip380)" d="M376.171 2306.74 L405.847 2306.74 L405.847 2310.67 L376.171 2310.67 L376.171 2306.74 Z" fill="#000000" fill-rule="nonzero" fill-opacity="1" /><path clip-path="url(#clip380)" d="M416.749 2319.63 L424.388 2319.63 L424.388 2293.27 L416.078 2294.93 L416.078 2290.67 L424.342 2289.01 L429.018 2289.01 L429.018 2319.63 L436.657 2319.63 L436.657 2323.57 L416.749 2323.57 L416.749 2319.63 Z" fill="#000000" fill-rule="nonzero" fill-opacity="1" /><path clip-path="url(#clip380)" d="M838.538 2292.09 Q834.927 2292.09 833.098 2295.65 Q831.293 2299.19 831.293 2306.32 Q831.293 2313.43 833.098 2316.99 Q834.927 2320.54 838.538 2320.54 Q842.172 2320.54 843.978 2316.99 Q845.806 2313.43 845.806 2306.32 Q845.806 2299.19 843.978 2295.65 Q842.172 2292.09 838.538 2292.09 M838.538 2288.38 Q844.348 2288.38 847.404 2292.99 Q850.482 2297.57 850.482 2306.32 Q850.482 2315.05 847.404 2319.66 Q844.348 2324.24 838.538 2324.24 Q832.728 2324.24 829.649 2319.66 Q826.594 2315.05 826.594 2306.32 Q826.594 2297.57 829.649 2292.99 Q832.728 2288.38 838.538 2288.38 Z" fill="#000000" fill-rule="nonzero" fill-opacity="1" /><path clip-path="url(#clip380)" d="M1261.04 2319.63 L1268.68 2319.63 L1268.68 2293.27 L1260.37 2294.93 L1260.37 2290.67 L1268.64 2289.01 L1273.31 2289.01 L1273.31 2319.63 L1280.95 2319.63 L1280.95 2323.57 L1261.04 2323.57 L1261.04 2319.63 Z" fill="#000000" fill-rule="nonzero" fill-opacity="1" /><path clip-path="url(#clip380)" d="M1697.44 2319.63 L1713.76 2319.63 L1713.76 2323.57 L1691.81 2323.57 L1691.81 2319.63 Q1694.48 2316.88 1699.06 2312.25 Q1703.67 2307.6 1704.85 2306.25 Q1707.09 2303.73 1707.97 2301.99 Q1708.87 2300.23 1708.87 2298.54 Q1708.87 2295.79 1706.93 2294.05 Q1705.01 2292.32 1701.91 2292.32 Q1699.71 2292.32 1697.25 2293.08 Q1694.82 2293.85 1692.05 2295.4 L1692.05 2290.67 Q1694.87 2289.54 1697.32 2288.96 Q1699.78 2288.38 1701.81 2288.38 Q1707.18 2288.38 1710.38 2291.07 Q1713.57 2293.75 1713.57 2298.24 Q1713.57 2300.37 1712.76 2302.29 Q1711.98 2304.19 1709.87 2306.79 Q1709.29 2307.46 1706.19 2310.67 Q1703.09 2313.87 1697.44 2319.63 Z" fill="#000000" fill-rule="nonzero" fill-opacity="1" /><path clip-path="url(#clip380)" d="M2139.16 2304.93 Q2142.51 2305.65 2144.39 2307.92 Q2146.29 2310.19 2146.29 2313.52 Q2146.29 2318.64 2142.77 2321.44 Q2139.25 2324.24 2132.77 2324.24 Q2130.59 2324.24 2128.28 2323.8 Q2125.99 2323.38 2123.53 2322.53 L2123.53 2318.01 Q2125.48 2319.15 2127.79 2319.73 Q2130.11 2320.3 2132.63 2320.3 Q2137.03 2320.3 2139.32 2318.57 Q2141.64 2316.83 2141.64 2313.52 Q2141.64 2310.47 2139.48 2308.75 Q2137.35 2307.02 2133.53 2307.02 L2129.51 2307.02 L2129.51 2303.17 L2133.72 2303.17 Q2137.17 2303.17 2139 2301.81 Q2140.82 2300.42 2140.82 2297.83 Q2140.82 2295.17 2138.93 2293.75 Q2137.05 2292.32 2133.53 2292.32 Q2131.61 2292.32 2129.41 2292.73 Q2127.21 2293.15 2124.57 2294.03 L2124.57 2289.86 Q2127.24 2289.12 2129.55 2288.75 Q2131.89 2288.38 2133.95 2288.38 Q2139.27 2288.38 2142.38 2290.81 Q2145.48 2293.22 2145.48 2297.34 Q2145.48 2300.21 2143.83 2302.2 Q2142.19 2304.17 2139.16 2304.93 Z" fill="#000000" fill-rule="nonzero" fill-opacity="1" /><polyline clip-path="url(#clip380)" style="stroke:#000000; stroke-linecap:round; stroke-linejoin:round; stroke-width:4; stroke-opacity:1; fill:none" points="148.057,2261.17 148.057,47.2441 "/>
<polyline clip-path="url(#clip380)" style="stroke:#000000; stroke-linecap:round; stroke-linejoin:round; stroke-width:4; stroke-opacity:1; fill:none" points="148.057,2189.96 166.954,2189.96 "/>
<polyline clip-path="url(#clip380)" style="stroke:#000000; stroke-linecap:round; stroke-linejoin:round; stroke-width:4; stroke-opacity:1; fill:none" points="148.057,1864.91 166.954,1864.91 "/>
<polyline clip-path="url(#clip380)" style="stroke:#000000; stroke-linecap:round; stroke-linejoin:round; stroke-width:4; stroke-opacity:1; fill:none" points="148.057,1539.85 166.954,1539.85 "/>
<polyline clip-path="url(#clip380)" style="stroke:#000000; stroke-linecap:round; stroke-linejoin:round; stroke-width:4; stroke-opacity:1; fill:none" points="148.057,1214.8 166.954,1214.8 "/>
<polyline clip-path="url(#clip380)" style="stroke:#000000; stroke-linecap:round; stroke-linejoin:round; stroke-width:4; stroke-opacity:1; fill:none" points="148.057,889.749 166.954,889.749 "/>
<polyline clip-path="url(#clip380)" style="stroke:#000000; stroke-linecap:round; stroke-linejoin:round; stroke-width:4; stroke-opacity:1; fill:none" points="148.057,564.697 166.954,564.697 "/>
<polyline clip-path="url(#clip380)" style="stroke:#000000; stroke-linecap:round; stroke-linejoin:round; stroke-width:4; stroke-opacity:1; fill:none" points="148.057,239.644 166.954,239.644 "/>
<path clip-path="url(#clip380)" d="M50.9921 2190.41 L80.6679 2190.41 L80.6679 2194.35 L50.9921 2194.35 L50.9921 2190.41 Z" fill="#000000" fill-rule="nonzero" fill-opacity="1" /><path clip-path="url(#clip380)" d="M104.927 2188.61 Q108.283 2189.32 110.158 2191.59 Q112.057 2193.86 112.057 2197.19 Q112.057 2202.31 108.538 2205.11 Q105.02 2207.91 98.5382 2207.91 Q96.3623 2207.91 94.0475 2207.47 Q91.7558 2207.05 89.3021 2206.2 L89.3021 2201.68 Q91.2465 2202.82 93.5613 2203.4 Q95.8761 2203.98 98.3993 2203.98 Q102.797 2203.98 105.089 2202.24 Q107.404 2200.5 107.404 2197.19 Q107.404 2194.14 105.251 2192.43 Q103.121 2190.69 99.3021 2190.69 L95.2743 2190.69 L95.2743 2186.85 L99.4872 2186.85 Q102.936 2186.85 104.765 2185.48 Q106.594 2184.09 106.594 2181.5 Q106.594 2178.84 104.696 2177.43 Q102.821 2175.99 99.3021 2175.99 Q97.3808 2175.99 95.1817 2176.41 Q92.9826 2176.82 90.3438 2177.7 L90.3438 2173.54 Q93.0058 2172.8 95.3206 2172.43 Q97.6585 2172.05 99.7187 2172.05 Q105.043 2172.05 108.145 2174.49 Q111.246 2176.89 111.246 2181.01 Q111.246 2183.88 109.603 2185.87 Q107.959 2187.84 104.927 2188.61 Z" fill="#000000" fill-rule="nonzero" fill-opacity="1" /><path clip-path="url(#clip380)" d="M51.9412 1865.36 L81.617 1865.36 L81.617 1869.29 L51.9412 1869.29 L51.9412 1865.36 Z" fill="#000000" fill-rule="nonzero" fill-opacity="1" /><path clip-path="url(#clip380)" d="M95.7373 1878.25 L112.057 1878.25 L112.057 1882.19 L90.1123 1882.19 L90.1123 1878.25 Q92.7743 1875.5 97.3576 1870.87 Q101.964 1866.22 103.145 1864.87 Q105.39 1862.35 106.27 1860.61 Q107.172 1858.85 107.172 1857.16 Q107.172 1854.41 105.228 1852.67 Q103.307 1850.94 100.205 1850.94 Q98.0058 1850.94 95.5521 1851.7 Q93.1215 1852.47 90.3438 1854.02 L90.3438 1849.29 Q93.1678 1848.16 95.6215 1847.58 Q98.0752 1847 100.112 1847 Q105.483 1847 108.677 1849.69 Q111.871 1852.37 111.871 1856.86 Q111.871 1858.99 111.061 1860.91 Q110.274 1862.81 108.168 1865.4 Q107.589 1866.08 104.487 1869.29 Q101.385 1872.49 95.7373 1878.25 Z" fill="#000000" fill-rule="nonzero" fill-opacity="1" /><path clip-path="url(#clip380)" d="M51.5708 1540.31 L81.2466 1540.31 L81.2466 1544.24 L51.5708 1544.24 L51.5708 1540.31 Z" fill="#000000" fill-rule="nonzero" fill-opacity="1" /><path clip-path="url(#clip380)" d="M92.1493 1553.2 L99.7882 1553.2 L99.7882 1526.83 L91.478 1528.5 L91.478 1524.24 L99.7419 1522.57 L104.418 1522.57 L104.418 1553.2 L112.057 1553.2 L112.057 1557.13 L92.1493 1557.13 L92.1493 1553.2 Z" fill="#000000" fill-rule="nonzero" fill-opacity="1" /><path clip-path="url(#clip380)" d="M100.112 1200.6 Q96.5011 1200.6 94.6724 1204.17 Q92.8669 1207.71 92.8669 1214.84 Q92.8669 1221.94 94.6724 1225.51 Q96.5011 1229.05 100.112 1229.05 Q103.746 1229.05 105.552 1225.51 Q107.381 1221.94 107.381 1214.84 Q107.381 1207.71 105.552 1204.17 Q103.746 1200.6 100.112 1200.6 M100.112 1196.9 Q105.922 1196.9 108.978 1201.5 Q112.057 1206.09 112.057 1214.84 Q112.057 1223.56 108.978 1228.17 Q105.922 1232.75 100.112 1232.75 Q94.3021 1232.75 91.2234 1228.17 Q88.1679 1223.56 88.1679 1214.84 Q88.1679 1206.09 91.2234 1201.5 Q94.3021 1196.9 100.112 1196.9 Z" fill="#000000" fill-rule="nonzero" fill-opacity="1" /><path clip-path="url(#clip380)" d="M92.1493 903.094 L99.7882 903.094 L99.7882 876.729 L91.478 878.395 L91.478 874.136 L99.7419 872.469 L104.418 872.469 L104.418 903.094 L112.057 903.094 L112.057 907.029 L92.1493 907.029 L92.1493 903.094 Z" fill="#000000" fill-rule="nonzero" fill-opacity="1" /><path clip-path="url(#clip380)" d="M95.7373 578.042 L112.057 578.042 L112.057 581.977 L90.1123 581.977 L90.1123 578.042 Q92.7743 575.287 97.3576 570.657 Q101.964 566.005 103.145 564.662 Q105.39 562.139 106.27 560.403 Q107.172 558.643 107.172 556.954 Q107.172 554.199 105.228 552.463 Q103.307 550.727 100.205 550.727 Q98.0058 550.727 95.5521 551.491 Q93.1215 552.255 90.3438 553.806 L90.3438 549.083 Q93.1678 547.949 95.6215 547.37 Q98.0752 546.792 100.112 546.792 Q105.483 546.792 108.677 549.477 Q111.871 552.162 111.871 556.653 Q111.871 558.782 111.061 560.704 Q110.274 562.602 108.168 565.194 Q107.589 565.866 104.487 569.083 Q101.385 572.278 95.7373 578.042 Z" fill="#000000" fill-rule="nonzero" fill-opacity="1" /><path clip-path="url(#clip380)" d="M104.927 238.29 Q108.283 239.007 110.158 241.276 Q112.057 243.544 112.057 246.878 Q112.057 251.994 108.538 254.794 Q105.02 257.595 98.5382 257.595 Q96.3623 257.595 94.0475 257.156 Q91.7558 256.739 89.3021 255.882 L89.3021 251.369 Q91.2465 252.503 93.5613 253.081 Q95.8761 253.66 98.3993 253.66 Q102.797 253.66 105.089 251.924 Q107.404 250.188 107.404 246.878 Q107.404 243.822 105.251 242.109 Q103.121 240.373 99.3021 240.373 L95.2743 240.373 L95.2743 236.531 L99.4872 236.531 Q102.936 236.531 104.765 235.165 Q106.594 233.776 106.594 231.183 Q106.594 228.521 104.696 227.109 Q102.821 225.674 99.3021 225.674 Q97.3808 225.674 95.1817 226.091 Q92.9826 226.508 90.3438 227.387 L90.3438 223.221 Q93.0058 222.48 95.3206 222.109 Q97.6585 221.739 99.7187 221.739 Q105.043 221.739 108.145 224.17 Q111.246 226.577 111.246 230.697 Q111.246 233.568 109.603 235.558 Q107.959 237.526 104.927 238.29 Z" fill="#000000" fill-rule="nonzero" fill-opacity="1" /><polyline clip-path="url(#clip382)" style="stroke:#000080; stroke-linecap:round; stroke-linejoin:round; stroke-width:4; stroke-opacity:1; fill:none" points="786.125,1548.16 790.379,1532.54 794.108,1517.14 797.305,1501.98 799.959,1487.1 802.066,1472.55 803.62,1458.35 804.617,1444.55 805.054,1431.18 804.93,1418.27 804.246,1405.86 803.003,1393.97 801.205,1382.63 798.856,1371.88 795.961,1361.74 792.529,1352.24 788.567,1343.39 784.086,1335.23 779.096,1327.76 773.611,1321.02 767.644,1315.02 761.209,1309.76 754.323,1305.28 747.004,1301.57 739.268,1298.64 731.137,1296.51 722.63,1295.18 713.768,1294.65 704.573,1294.92 695.069,1296 685.279,1297.88 675.228,1300.55 664.941,1304.01 654.443,1308.25 643.761,1313.26 632.921,1319.02 621.951,1325.53 610.878,1332.76 599.73,1340.71 588.534,1349.34 577.319,1358.63 566.112,1368.57 554.942,1379.13 543.836,1390.28 532.823,1402 521.929,1414.25 511.182,1427.01 500.609,1440.23 490.236,1453.9 480.09,1467.97 470.195,1482.41 460.576,1497.19 451.258,1512.26 442.263,1527.6 433.615,1543.15 425.334,1558.89 417.442,1574.76 409.957,1590.75 402.9,1606.79 396.287,1622.86 390.135,1638.91 384.46,1654.91 379.275,1670.8 374.593,1686.56 370.427,1702.15 366.787,1717.51 363.681,1732.63 361.118,1747.45 359.104,1761.95 357.643,1776.08 356.741,1789.81 356.398,1803.1 356.616,1815.93 357.394,1828.26 358.73,1840.06 360.622,1851.3 363.063,1861.95 366.049,1871.99 369.571,1881.38 373.62,1890.11 378.188,1898.16 383.262,1905.5 388.829,1912.12 394.876,1918 401.388,1923.13 408.348,1927.48 415.739,1931.06 423.542,1933.85 431.738,1935.85 440.306,1937.05 449.226,1937.44 458.474,1937.03 468.028,1935.82 477.863,1933.81 487.956,1931.01 498.281,1927.42 508.811,1923.05 519.522,1917.91 530.385,1912.02 541.374,1905.39 552.462,1898.03 563.62,1889.97 574.821,1881.23 586.037,1871.82 597.24,1861.78 608.401,1851.12 619.493,1839.87 630.488,1828.06 641.359,1815.72 652.079,1802.89 662.62,1789.58 672.956,1775.84 683.062,1761.71 692.913,1747.21 702.482,1732.38 711.748,1717.26 720.686,1701.89 729.274,1686.3 737.491,1670.54 745.316,1654.64 752.73,1638.64 759.714,1622.59 766.25,1606.52 772.323,1590.48 777.917,1574.5 783.018,1558.62 787.614,1542.89 "/>
<polyline clip-path="url(#clip382)" style="stroke:#000080; stroke-linecap:round; stroke-linejoin:round; stroke-width:4; stroke-opacity:1; fill:none" points="2268.73,906.613 2276.08,896.551 2281.72,886.822 2285.64,877.45 2287.83,868.46 2288.28,859.873 2287,851.711 2283.98,843.995 2279.23,836.743 2272.77,829.974 2264.61,823.705 2254.77,817.951 2243.28,812.727 2230.17,808.046 2215.46,803.92 2199.2,800.358 2181.42,797.37 2162.17,794.963 2141.5,793.144 2119.46,791.916 2096.1,791.283 2071.49,791.247 2045.68,791.807 2018.74,792.962 1990.73,794.71 1961.74,797.045 1931.82,799.963 1901.05,803.455 1869.52,807.513 1837.29,812.127 1804.46,817.286 1771.09,822.976 1737.28,829.183 1703.11,835.892 1668.67,843.085 1634.04,850.746 1599.3,858.855 1564.55,867.391 1529.88,876.333 1495.35,885.659 1461.08,895.346 1427.13,905.369 1393.6,915.704 1360.57,926.323 1328.12,937.202 1296.33,948.313 1265.29,959.627 1235.06,971.117 1205.73,982.754 1177.37,994.509 1150.04,1006.35 1123.83,1018.25 1098.78,1030.19 1074.98,1042.12 1052.46,1054.02 1031.3,1065.86 1011.55,1077.61 993.245,1089.24 976.442,1100.72 961.18,1112.03 947.499,1123.13 935.43,1133.99 925.006,1144.6 916.253,1154.92 909.191,1164.93 903.838,1174.6 900.209,1183.91 898.311,1192.83 898.151,1201.35 899.727,1209.44 903.037,1217.08 908.072,1224.25 914.819,1230.94 923.261,1237.12 933.378,1242.79 945.145,1247.92 958.531,1252.51 973.503,1256.54 990.024,1260.01 1008.05,1262.9 1027.54,1265.2 1048.45,1266.92 1070.71,1268.05 1094.29,1268.59 1119.11,1268.52 1145.11,1267.86 1172.23,1266.61 1200.41,1264.76 1229.57,1262.33 1259.63,1259.31 1290.53,1255.72 1322.19,1251.57 1354.53,1246.86 1387.46,1241.62 1420.9,1235.84 1454.78,1229.54 1489,1222.75 1523.48,1215.48 1558.13,1207.74 1592.88,1199.56 1627.62,1190.95 1662.28,1181.95 1696.76,1172.56 1730.99,1162.81 1764.87,1152.73 1798.32,1142.35 1831.26,1131.69 1863.61,1120.77 1895.28,1109.62 1926.19,1098.27 1956.27,1086.76 1985.45,1075.1 2013.64,1063.33 2040.78,1051.47 2066.8,1039.56 2091.64,1027.63 2115.24,1015.7 2137.53,1003.81 2158.45,991.981 2177.97,980.249 2196.02,968.641 2212.57,957.186 2227.57,945.913 2240.98,934.85 2252.77,924.024 2262.92,913.463 2271.39,903.194 "/>
<polyline clip-path="url(#clip382)" style="stroke:#000080; stroke-linecap:round; stroke-linejoin:round; stroke-width:4; stroke-opacity:1; fill:none" points="1745.93,1735.67 1738.59,1715.67 1729.93,1695.47 1719.96,1675.12 1708.72,1654.67 1696.22,1634.17 1682.51,1613.67 1667.61,1593.23 1651.57,1572.89 1634.42,1552.71 1616.21,1532.74 1596.97,1513.02 1576.77,1493.61 1555.65,1474.55 1533.66,1455.89 1510.86,1437.69 1487.3,1419.97 1463.05,1402.8 1438.16,1386.2 1412.7,1370.23 1386.73,1354.92 1360.31,1340.31 1333.52,1326.44 1306.41,1313.34 1279.06,1301.05 1251.53,1289.59 1223.9,1278.99 1196.23,1269.29 1168.59,1260.5 1141.05,1252.65 1113.68,1245.75 1086.55,1239.83 1059.72,1234.89 1033.27,1230.96 1007.25,1228.04 981.739,1226.13 956.794,1225.25 932.48,1225.39 908.856,1226.56 885.981,1228.75 863.913,1231.96 842.708,1236.17 822.417,1241.38 803.092,1247.58 784.781,1254.74 767.53,1262.86 751.381,1271.91 736.376,1281.86 722.552,1292.7 709.943,1304.4 698.58,1316.92 688.493,1330.24 679.706,1344.32 672.242,1359.12 666.119,1374.62 661.352,1390.77 657.953,1407.53 655.931,1424.86 655.291,1442.72 656.035,1461.06 658.159,1479.83 661.661,1498.99 666.529,1518.49 672.753,1538.29 680.317,1558.33 689.201,1578.56 699.385,1598.93 710.841,1619.39 723.542,1639.89 737.456,1660.38 752.548,1680.81 768.78,1701.12 786.112,1721.27 804.5,1741.21 823.899,1760.88 844.26,1780.23 865.532,1799.23 887.661,1817.81 910.594,1835.94 934.271,1853.57 958.635,1870.65 983.624,1887.14 1009.18,1903 1035.23,1918.2 1061.71,1932.68 1088.56,1946.43 1115.72,1959.39 1143.1,1971.55 1170.65,1982.87 1198.29,1993.31 1225.96,2002.87 1253.59,2011.5 1281.11,2019.19 1308.44,2025.93 1335.53,2031.68 1362.3,2036.45 1388.68,2040.21 1414.62,2042.97 1440.04,2044.7 1464.88,2045.41 1489.08,2045.09 1512.59,2043.75 1535.33,2041.39 1557.26,2038.02 1578.31,2033.63 1598.44,2028.26 1617.6,2021.9 1635.74,2014.57 1652.81,2006.3 1668.76,1997.09 1683.57,1986.99 1697.2,1976 1709.6,1964.17 1720.75,1951.51 1730.62,1938.06 1739.18,1923.86 1746.42,1908.93 1752.32,1893.32 1756.86,1877.06 1760.03,1860.2 1761.81,1842.78 1762.22,1824.84 1761.25,1806.43 1758.89,1787.58 1755.16,1768.36 1750.06,1748.81 1743.61,1728.97 "/>
<polyline clip-path="url(#clip382)" style="stroke:#000080; stroke-linecap:round; stroke-linejoin:round; stroke-width:4; stroke-opacity:1; fill:none" points="806.894,1366.74 809.013,1362 810.717,1357.37 812.002,1352.85 812.865,1348.45 813.304,1344.19 813.318,1340.07 812.905,1336.1 812.069,1332.3 810.81,1328.67 809.132,1325.22 807.039,1321.96 804.536,1318.91 801.629,1316.06 798.327,1313.42 794.636,1311.01 790.567,1308.82 786.129,1306.86 781.333,1305.14 776.192,1303.66 770.718,1302.43 764.925,1301.45 758.828,1300.71 752.442,1300.23 745.782,1300 738.865,1300.03 731.709,1300.31 724.332,1300.84 716.751,1301.63 708.987,1302.67 701.058,1303.95 692.983,1305.48 684.785,1307.25 676.481,1309.25 668.095,1311.49 659.646,1313.95 651.156,1316.63 642.645,1319.52 634.136,1322.62 625.649,1325.92 617.205,1329.4 608.827,1333.07 600.534,1336.91 592.347,1340.91 584.287,1345.06 576.374,1349.35 568.628,1353.78 561.068,1358.32 553.713,1362.97 546.582,1367.72 539.691,1372.56 533.059,1377.47 526.703,1382.43 520.637,1387.45 514.877,1392.5 509.438,1397.58 504.332,1402.66 499.574,1407.74 495.174,1412.81 491.144,1417.85 487.494,1422.85 484.233,1427.8 481.368,1432.68 478.908,1437.48 476.859,1442.2 475.225,1446.81 474.01,1451.31 473.218,1455.69 472.851,1459.93 472.909,1464.03 473.393,1467.97 474.3,1471.74 475.63,1475.34 477.378,1478.76 479.541,1481.98 482.112,1485 485.085,1487.82 488.454,1490.42 492.209,1492.8 496.341,1494.95 500.84,1496.86 505.695,1498.54 510.893,1499.98 516.421,1501.17 522.266,1502.11 528.413,1502.8 534.847,1503.24 541.551,1503.43 548.509,1503.36 555.703,1503.04 563.116,1502.46 570.729,1501.63 578.523,1500.55 586.478,1499.23 594.574,1497.66 602.792,1495.85 611.111,1493.81 619.509,1491.53 627.966,1489.03 636.462,1486.32 644.974,1483.39 653.481,1480.26 661.962,1476.93 670.396,1473.41 678.762,1469.71 687.038,1465.85 695.205,1461.82 703.241,1457.65 711.128,1453.33 718.844,1448.88 726.371,1444.32 733.689,1439.65 740.781,1434.89 747.629,1430.04 754.216,1425.12 760.525,1420.14 766.541,1415.12 772.248,1410.06 777.632,1404.99 782.68,1399.9 787.378,1394.82 791.717,1389.76 795.684,1384.72 799.269,1379.73 802.464,1374.79 805.261,1369.92 807.652,1365.13 "/>
<polyline clip-path="url(#clip382)" style="stroke:#000080; stroke-linecap:round; stroke-linejoin:round; stroke-width:4; stroke-opacity:1; fill:none" points="1980.05,611.368 1982.91,584.672 1983.98,558.184 1983.25,531.971 1980.72,506.097 1976.4,480.628 1970.3,455.627 1962.43,431.156 1952.82,407.278 1941.49,384.051 1928.47,361.533 1913.78,339.782 1897.48,318.85 1879.59,298.792 1860.16,279.655 1839.24,261.49 1816.89,244.34 1793.15,228.249 1768.09,213.257 1741.77,199.401 1714.26,186.716 1685.62,175.235 1655.94,164.984 1625.27,155.991 1593.7,148.278 1561.3,141.863 1528.16,136.763 1494.37,132.991 1459.99,130.556 1425.13,129.464 1389.87,129.718 1354.29,131.317 1318.49,134.258 1282.55,138.532 1246.57,144.13 1210.63,151.036 1174.82,159.235 1139.24,168.706 1103.97,179.424 1069.1,191.363 1034.72,204.493 1000.91,218.782 967.757,234.193 935.348,250.688 903.761,268.227 873.075,286.764 843.366,306.254 814.71,326.648 787.177,347.895 760.836,369.943 735.754,392.734 711.993,416.214 689.611,440.323 668.666,465.001 649.21,490.186 631.291,515.815 614.954,541.825 600.239,568.149 587.185,594.723 575.822,621.481 566.181,648.354 558.284,675.276 552.151,702.18 547.798,728.998 545.236,755.663 544.471,782.11 545.505,808.271 548.336,834.081 552.956,859.476 559.353,884.392 567.513,908.767 577.414,932.54 589.031,955.652 602.336,978.044 617.296,999.662 633.873,1020.45 652.025,1040.36 671.707,1059.33 692.87,1077.33 715.462,1094.31 739.425,1110.22 764.699,1125.02 791.223,1138.68 818.928,1151.16 847.747,1162.44 877.606,1172.48 908.432,1181.26 940.147,1188.76 972.673,1194.95 1005.93,1199.83 1039.83,1203.38 1074.29,1205.59 1109.22,1206.45 1144.54,1205.97 1180.17,1204.15 1216,1200.98 1251.95,1196.48 1287.93,1190.67 1323.86,1183.54 1359.63,1175.13 1395.17,1165.44 1430.38,1154.52 1465.17,1142.38 1499.46,1129.05 1533.17,1114.57 1566.2,1098.97 1598.47,1082.3 1629.91,1064.59 1660.44,1045.89 1689.98,1026.24 1718.45,1005.7 1745.79,984.317 1771.92,962.141 1796.79,939.229 1820.32,915.639 1842.46,891.431 1863.16,866.663 1882.36,841.399 1900.02,815.701 1916.09,789.634 1930.52,763.263 1943.3,736.653 1954.37,709.872 1963.72,682.986 1971.32,656.062 1977.16,629.168 1981.21,602.371 "/>
<polyline clip-path="url(#clip382)" style="stroke:#000080; stroke-linecap:round; stroke-linejoin:round; stroke-width:4; stroke-opacity:1; fill:none" points="1982.75,1240.46 1983.11,1236.65 1982.48,1232.87 1980.87,1229.15 1978.28,1225.49 1974.72,1221.9 1970.19,1218.38 1964.7,1214.95 1958.28,1211.62 1950.93,1208.4 1942.68,1205.28 1933.54,1202.29 1923.54,1199.42 1912.7,1196.69 1901.05,1194.1 1888.62,1191.65 1875.45,1189.36 1861.55,1187.23 1846.97,1185.27 1831.75,1183.47 1815.92,1181.85 1799.52,1180.41 1782.59,1179.15 1765.18,1178.08 1747.33,1177.19 1729.08,1176.5 1710.48,1176 1691.58,1175.68 1672.42,1175.57 1653.04,1175.65 1633.51,1175.92 1613.87,1176.38 1594.16,1177.04 1574.44,1177.89 1554.75,1178.92 1535.15,1180.15 1515.68,1181.55 1496.4,1183.14 1477.34,1184.9 1458.57,1186.83 1440.11,1188.92 1422.03,1191.18 1404.37,1193.59 1387.17,1196.16 1370.47,1198.86 1354.31,1201.7 1338.74,1204.67 1323.8,1207.76 1309.51,1210.97 1295.93,1214.28 1283.08,1217.69 1270.99,1221.19 1259.69,1224.76 1249.22,1228.41 1239.59,1232.12 1230.84,1235.89 1222.98,1239.7 1216.03,1243.54 1210.02,1247.4 1204.95,1251.29 1200.85,1255.17 1197.71,1259.05 1195.55,1262.92 1194.37,1266.76 1194.17,1270.57 1194.96,1274.34 1196.74,1278.05 1199.5,1281.7 1203.22,1285.28 1207.91,1288.78 1213.56,1292.19 1220.14,1295.51 1227.64,1298.71 1236.04,1301.81 1245.33,1304.78 1255.47,1307.63 1266.45,1310.34 1278.23,1312.91 1290.78,1315.32 1304.09,1317.59 1318.1,1319.69 1332.79,1321.62 1348.11,1323.39 1364.04,1324.98 1380.53,1326.39 1397.55,1327.62 1415.03,1328.66 1432.96,1329.52 1451.27,1330.18 1469.92,1330.65 1488.87,1330.93 1508.07,1331.01 1527.47,1330.9 1547.03,1330.6 1566.69,1330.1 1586.4,1329.41 1606.12,1328.53 1625.8,1327.46 1645.38,1326.21 1664.82,1324.77 1684.07,1323.16 1703.08,1321.37 1721.81,1319.41 1740.2,1317.29 1758.21,1315 1775.8,1312.56 1792.92,1309.98 1809.54,1307.25 1825.59,1304.39 1841.06,1301.39 1855.9,1298.28 1870.07,1295.06 1883.53,1291.73 1896.26,1288.31 1908.21,1284.8 1919.37,1281.21 1929.71,1277.55 1939.19,1273.82 1947.79,1270.05 1955.5,1266.24 1962.29,1262.39 1968.14,1258.52 1973.05,1254.64 1976.99,1250.76 1979.97,1246.88 1981.97,1243.01 1982.98,1239.18 "/>
<polyline clip-path="url(#clip382)" style="stroke:#dc143c; stroke-linecap:round; stroke-linejoin:round; stroke-width:4; stroke-opacity:1; fill:none" points="2282.61,1056.91 2287.78,1005.05 2290.36,953.567 2290.34,902.585 2287.72,852.231 2282.51,802.632 2274.72,753.912 2264.37,706.193 2251.48,659.593 2236.1,614.229 2218.25,570.215 2197.98,527.66 2175.34,486.671 2150.39,447.351 2123.2,409.797 2093.82,374.104 2062.33,340.361 2028.81,308.652 1993.35,279.056 1956.03,251.648 1916.95,226.495 1876.2,203.661 1833.89,183.203 1790.12,165.171 1745,149.612 1698.65,136.564 1651.17,126.059 1602.7,118.124 1553.34,112.778 1503.23,110.035 1452.48,109.902 1401.23,112.38 1349.6,117.461 1297.73,125.133 1245.74,135.378 1193.76,148.168 1141.92,163.474 1090.35,181.255 1039.18,201.469 988.544,224.064 938.559,248.983 889.354,276.165 841.052,305.541 793.774,337.039 747.637,370.579 702.757,406.078 659.245,443.446 617.212,482.591 576.762,523.414 537.995,565.814 501.01,609.685 465.897,654.916 432.746,701.396 401.639,749.007 372.654,797.631 345.862,847.146 321.332,897.428 299.124,948.352 279.294,999.791 261.892,1051.62 246.961,1103.7 234.537,1155.9 224.654,1208.11 217.334,1260.17 212.597,1311.98 210.454,1363.38 210.91,1414.27 213.965,1464.5 219.611,1513.96 227.833,1562.52 238.612,1610.06 251.919,1656.46 267.723,1701.61 285.983,1745.39 306.654,1787.68 329.684,1828.4 355.015,1867.43 382.585,1904.68 412.324,1940.05 444.158,1973.46 478.007,2004.81 513.788,2034.05 551.409,2061.08 590.778,2085.85 631.796,2108.29 674.361,2128.34 718.365,2145.96 763.699,2161.1 810.251,2173.72 857.902,2183.8 906.535,2191.3 956.028,2196.21 1006.26,2198.51 1057.1,2198.2 1108.42,2195.29 1160.1,2189.77 1212,2181.66 1264,2170.99 1315.96,2157.77 1367.77,2142.05 1419.28,2123.85 1470.36,2103.24 1520.9,2080.25 1570.76,2054.94 1619.82,2027.39 1667.96,1997.65 1715.06,1965.8 1760.99,1931.93 1805.65,1896.11 1848.92,1858.43 1890.69,1819 1930.87,1777.9 1969.34,1735.25 2006.02,1691.14 2040.81,1645.69 2073.62,1599.01 2104.38,1551.22 2133,1502.44 2159.41,1452.79 2183.56,1402.39 2205.37,1351.37 2224.79,1299.86 2241.78,1247.98 2256.3,1195.87 2268.29,1143.66 2277.75,1091.47 2284.63,1039.43 "/>
</svg>
