<?xml version="1.0" encoding="utf-8"?>
<svg xmlns="http://www.w3.org/2000/svg" xmlns:xlink="http://www.w3.org/1999/xlink" width="600" height="400" viewBox="0 0 2400 1600">
<defs>
  <clipPath id="clip630">
    <rect x="0" y="0" width="2400" height="1600"/>
  </clipPath>
</defs>
<path clip-path="url(#clip630)" d="M0 1600 L2400 1600 L2400 0 L0 0  Z" fill="#ffffff" fill-rule="evenodd" fill-opacity="1"/>
<defs>
  <clipPath id="clip631">
    <rect x="480" y="0" width="1681" height="1600"/>
  </clipPath>
</defs>
<path clip-path="url(#clip630)" d="M205.121 1423.18 L2352.76 1423.18 L2352.76 47.2441 L205.121 47.2441  Z" fill="#ffffff" fill-rule="evenodd" fill-opacity="1"/>
<defs>
  <clipPath id="clip632">
    <rect x="205" y="47" width="2149" height="1377"/>
  </clipPath>
</defs>
<polyline clip-path="url(#clip632)" style="stroke:#000000; stroke-linecap:round; stroke-linejoin:round; stroke-width:2; stroke-opacity:0.1; fill:none" points="535.621,1423.18 535.621,47.2441 "/>
<polyline clip-path="url(#clip632)" style="stroke:#000000; stroke-linecap:round; stroke-linejoin:round; stroke-width:2; stroke-opacity:0.1; fill:none" points="960.374,1423.18 960.374,47.2441 "/>
<polyline clip-path="url(#clip632)" style="stroke:#000000; stroke-linecap:round; stroke-linejoin:round; stroke-width:2; stroke-opacity:0.1; fill:none" points="1385.13,1423.18 1385.13,47.2441 "/>
<polyline clip-path="url(#clip632)" style="stroke:#000000; stroke-linecap:round; stroke-linejoin:round; stroke-width:2; stroke-opacity:0.1; fill:none" points="1809.88,1423.18 1809.88,47.2441 "/>
<polyline clip-path="url(#clip632)" style="stroke:#000000; stroke-linecap:round; stroke-linejoin:round; stroke-width:2; stroke-opacity:0.1; fill:none" points="2234.63,1423.18 2234.63,47.2441 "/>
<polyline clip-path="url(#clip630)" style="stroke:#000000; stroke-linecap:round; stroke-linejoin:round; stroke-width:4; stroke-opacity:1; fill:none" points="205.121,1423.18 2352.76,1423.18 "/>
<polyline clip-path="url(#clip630)" style="stroke:#000000; stroke-linecap:round; stroke-linejoin:round; stroke-width:4; stroke-opacity:1; fill:none" points="535.621,1423.18 535.621,1404.28 "/>
<polyline clip-path="url(#clip630)" style="stroke:#000000; stroke-linecap:round; stroke-linejoin:round; stroke-width:4; stroke-opacity:1; fill:none" points="960.374,1423.18 960.374,1404.28 "/>
<polyline clip-path="url(#clip630)" style="stroke:#000000; stroke-linecap:round; stroke-linejoin:round; stroke-width:4; stroke-opacity:1; fill:none" points="1385.13,1423.18 1385.13,1404.28 "/>
<polyline clip-path="url(#clip630)" style="stroke:#000000; stroke-linecap:round; stroke-linejoin:round; stroke-width:4; stroke-opacity:1; fill:none" points="1809.88,1423.18 1809.88,1404.28 "/>
<polyline clip-path="url(#clip630)" style="stroke:#000000; stroke-linecap:round; stroke-linejoin:round; stroke-width:4; stroke-opacity:1; fill:none" points="2234.63,1423.18 2234.63,1404.28 "/>
<path clip-path="url(#clip630)" d="M508.712 1455.09 L496.906 1473.54 L508.712 1473.54 L508.712 1455.09 M507.485 1451.02 L513.364 1451.02 L513.364 1473.54 L518.295 1473.54 L518.295 1477.43 L513.364 1477.43 L513.364 1485.58 L508.712 1485.58 L508.712 1477.43 L493.11 1477.43 L493.11 1472.92 L507.485 1451.02 Z" fill="#000000" fill-rule="nonzero" fill-opacity="1" /><path clip-path="url(#clip630)" d="M536.026 1454.1 Q532.415 1454.1 530.586 1457.66 Q528.781 1461.2 528.781 1468.33 Q528.781 1475.44 530.586 1479.01 Q532.415 1482.55 536.026 1482.55 Q539.66 1482.55 541.466 1479.01 Q543.295 1475.44 543.295 1468.33 Q543.295 1461.2 541.466 1457.66 Q539.66 1454.1 536.026 1454.1 M536.026 1450.39 Q541.836 1450.39 544.892 1455 Q547.971 1459.58 547.971 1468.33 Q547.971 1477.06 544.892 1481.67 Q541.836 1486.25 536.026 1486.25 Q530.216 1486.25 527.137 1481.67 Q524.082 1477.06 524.082 1468.33 Q524.082 1459.58 527.137 1455 Q530.216 1450.39 536.026 1450.39 Z" fill="#000000" fill-rule="nonzero" fill-opacity="1" /><path clip-path="url(#clip630)" d="M566.188 1454.1 Q562.577 1454.1 560.748 1457.66 Q558.943 1461.2 558.943 1468.33 Q558.943 1475.44 560.748 1479.01 Q562.577 1482.55 566.188 1482.55 Q569.822 1482.55 571.628 1479.01 Q573.457 1475.44 573.457 1468.33 Q573.457 1461.2 571.628 1457.66 Q569.822 1454.1 566.188 1454.1 M566.188 1450.39 Q571.998 1450.39 575.054 1455 Q578.132 1459.58 578.132 1468.33 Q578.132 1477.06 575.054 1481.67 Q571.998 1486.25 566.188 1486.25 Q560.378 1486.25 557.299 1481.67 Q554.244 1477.06 554.244 1468.33 Q554.244 1459.58 557.299 1455 Q560.378 1450.39 566.188 1450.39 Z" fill="#000000" fill-rule="nonzero" fill-opacity="1" /><path clip-path="url(#clip630)" d="M933.464 1455.09 L921.659 1473.54 L933.464 1473.54 L933.464 1455.09 M932.237 1451.02 L938.117 1451.02 L938.117 1473.54 L943.048 1473.54 L943.048 1477.43 L938.117 1477.43 L938.117 1485.58 L933.464 1485.58 L933.464 1477.43 L917.863 1477.43 L917.863 1472.92 L932.237 1451.02 Z" fill="#000000" fill-rule="nonzero" fill-opacity="1" /><path clip-path="url(#clip630)" d="M950.825 1451.02 L969.182 1451.02 L969.182 1454.96 L955.108 1454.96 L955.108 1463.43 Q956.126 1463.08 957.145 1462.92 Q958.163 1462.73 959.182 1462.73 Q964.969 1462.73 968.348 1465.9 Q971.728 1469.08 971.728 1474.49 Q971.728 1480.07 968.256 1483.17 Q964.784 1486.25 958.464 1486.25 Q956.288 1486.25 954.02 1485.88 Q951.774 1485.51 949.367 1484.77 L949.367 1480.07 Q951.45 1481.2 953.673 1481.76 Q955.895 1482.32 958.372 1482.32 Q962.376 1482.32 964.714 1480.21 Q967.052 1478.1 967.052 1474.49 Q967.052 1470.88 964.714 1468.77 Q962.376 1466.67 958.372 1466.67 Q956.497 1466.67 954.622 1467.08 Q952.77 1467.5 950.825 1468.38 L950.825 1451.02 Z" fill="#000000" fill-rule="nonzero" fill-opacity="1" /><path clip-path="url(#clip630)" d="M990.941 1454.1 Q987.33 1454.1 985.501 1457.66 Q983.696 1461.2 983.696 1468.33 Q983.696 1475.44 985.501 1479.01 Q987.33 1482.55 990.941 1482.55 Q994.575 1482.55 996.381 1479.01 Q998.209 1475.44 998.209 1468.33 Q998.209 1461.2 996.381 1457.66 Q994.575 1454.1 990.941 1454.1 M990.941 1450.39 Q996.751 1450.39 999.807 1455 Q1002.89 1459.58 1002.89 1468.33 Q1002.89 1477.06 999.807 1481.67 Q996.751 1486.25 990.941 1486.25 Q985.131 1486.25 982.052 1481.67 Q978.996 1477.06 978.996 1468.33 Q978.996 1459.58 982.052 1455 Q985.131 1450.39 990.941 1450.39 Z" fill="#000000" fill-rule="nonzero" fill-opacity="1" /><path clip-path="url(#clip630)" d="M1344.74 1451.02 L1363.1 1451.02 L1363.1 1454.96 L1349.03 1454.96 L1349.03 1463.43 Q1350.05 1463.08 1351.06 1462.92 Q1352.08 1462.73 1353.1 1462.73 Q1358.89 1462.73 1362.27 1465.9 Q1365.65 1469.08 1365.65 1474.49 Q1365.65 1480.07 1362.18 1483.17 Q1358.7 1486.25 1352.38 1486.25 Q1350.21 1486.25 1347.94 1485.88 Q1345.69 1485.51 1343.29 1484.77 L1343.29 1480.07 Q1345.37 1481.2 1347.59 1481.76 Q1349.81 1482.32 1352.29 1482.32 Q1356.3 1482.32 1358.63 1480.21 Q1360.97 1478.1 1360.97 1474.49 Q1360.97 1470.88 1358.63 1468.77 Q1356.3 1466.67 1352.29 1466.67 Q1350.42 1466.67 1348.54 1467.08 Q1346.69 1467.5 1344.74 1468.38 L1344.74 1451.02 Z" fill="#000000" fill-rule="nonzero" fill-opacity="1" /><path clip-path="url(#clip630)" d="M1384.86 1454.1 Q1381.25 1454.1 1379.42 1457.66 Q1377.62 1461.2 1377.62 1468.33 Q1377.62 1475.44 1379.42 1479.01 Q1381.25 1482.55 1384.86 1482.55 Q1388.49 1482.55 1390.3 1479.01 Q1392.13 1475.44 1392.13 1468.33 Q1392.13 1461.2 1390.3 1457.66 Q1388.49 1454.1 1384.86 1454.1 M1384.86 1450.39 Q1390.67 1450.39 1393.73 1455 Q1396.8 1459.58 1396.8 1468.33 Q1396.8 1477.06 1393.73 1481.67 Q1390.67 1486.25 1384.86 1486.25 Q1379.05 1486.25 1375.97 1481.67 Q1372.92 1477.06 1372.92 1468.33 Q1372.92 1459.58 1375.97 1455 Q1379.05 1450.39 1384.86 1450.39 Z" fill="#000000" fill-rule="nonzero" fill-opacity="1" /><path clip-path="url(#clip630)" d="M1415.02 1454.1 Q1411.41 1454.1 1409.58 1457.66 Q1407.78 1461.2 1407.78 1468.33 Q1407.78 1475.44 1409.58 1479.01 Q1411.41 1482.55 1415.02 1482.55 Q1418.66 1482.55 1420.46 1479.01 Q1422.29 1475.44 1422.29 1468.33 Q1422.29 1461.2 1420.46 1457.66 Q1418.66 1454.1 1415.02 1454.1 M1415.02 1450.39 Q1420.83 1450.39 1423.89 1455 Q1426.97 1459.58 1426.97 1468.33 Q1426.97 1477.06 1423.89 1481.67 Q1420.83 1486.25 1415.02 1486.25 Q1409.21 1486.25 1406.13 1481.67 Q1403.08 1477.06 1403.08 1468.33 Q1403.08 1459.58 1406.13 1455 Q1409.21 1450.39 1415.02 1450.39 Z" fill="#000000" fill-rule="nonzero" fill-opacity="1" /><path clip-path="url(#clip630)" d="M1769.5 1451.02 L1787.85 1451.02 L1787.85 1454.96 L1773.78 1454.96 L1773.78 1463.43 Q1774.8 1463.08 1775.82 1462.92 Q1776.84 1462.73 1777.85 1462.73 Q1783.64 1462.73 1787.02 1465.9 Q1790.4 1469.08 1790.4 1474.49 Q1790.4 1480.07 1786.93 1483.17 Q1783.46 1486.25 1777.14 1486.25 Q1774.96 1486.25 1772.69 1485.88 Q1770.45 1485.51 1768.04 1484.77 L1768.04 1480.07 Q1770.12 1481.2 1772.34 1481.76 Q1774.57 1482.32 1777.04 1482.32 Q1781.05 1482.32 1783.39 1480.21 Q1785.72 1478.1 1785.72 1474.49 Q1785.72 1470.88 1783.39 1468.77 Q1781.05 1466.67 1777.04 1466.67 Q1775.17 1466.67 1773.29 1467.08 Q1771.44 1467.5 1769.5 1468.38 L1769.5 1451.02 Z" fill="#000000" fill-rule="nonzero" fill-opacity="1" /><path clip-path="url(#clip630)" d="M1799.66 1451.02 L1818.02 1451.02 L1818.02 1454.96 L1803.94 1454.96 L1803.94 1463.43 Q1804.96 1463.08 1805.98 1462.92 Q1807 1462.73 1808.02 1462.73 Q1813.8 1462.73 1817.18 1465.9 Q1820.56 1469.08 1820.56 1474.49 Q1820.56 1480.07 1817.09 1483.17 Q1813.62 1486.25 1807.3 1486.25 Q1805.12 1486.25 1802.85 1485.88 Q1800.61 1485.51 1798.2 1484.77 L1798.2 1480.07 Q1800.28 1481.2 1802.51 1481.76 Q1804.73 1482.32 1807.21 1482.32 Q1811.21 1482.32 1813.55 1480.21 Q1815.89 1478.1 1815.89 1474.49 Q1815.89 1470.88 1813.55 1468.77 Q1811.21 1466.67 1807.21 1466.67 Q1805.33 1466.67 1803.46 1467.08 Q1801.6 1467.5 1799.66 1468.38 L1799.66 1451.02 Z" fill="#000000" fill-rule="nonzero" fill-opacity="1" /><path clip-path="url(#clip630)" d="M1839.78 1454.1 Q1836.16 1454.1 1834.34 1457.66 Q1832.53 1461.2 1832.53 1468.33 Q1832.53 1475.44 1834.34 1479.01 Q1836.16 1482.55 1839.78 1482.55 Q1843.41 1482.55 1845.21 1479.01 Q1847.04 1475.44 1847.04 1468.33 Q1847.04 1461.2 1845.21 1457.66 Q1843.41 1454.1 1839.78 1454.1 M1839.78 1450.39 Q1845.59 1450.39 1848.64 1455 Q1851.72 1459.58 1851.72 1468.33 Q1851.72 1477.06 1848.64 1481.67 Q1845.59 1486.25 1839.78 1486.25 Q1833.96 1486.25 1830.89 1481.67 Q1827.83 1477.06 1827.83 1468.33 Q1827.83 1459.58 1830.89 1455 Q1833.96 1450.39 1839.78 1450.39 Z" fill="#000000" fill-rule="nonzero" fill-opacity="1" /><path clip-path="url(#clip630)" d="M2204.96 1466.44 Q2201.81 1466.44 2199.96 1468.59 Q2198.13 1470.74 2198.13 1474.49 Q2198.13 1478.22 2199.96 1480.39 Q2201.81 1482.55 2204.96 1482.55 Q2208.1 1482.55 2209.93 1480.39 Q2211.79 1478.22 2211.79 1474.49 Q2211.79 1470.74 2209.93 1468.59 Q2208.1 1466.44 2204.96 1466.44 M2214.24 1451.78 L2214.24 1456.04 Q2212.48 1455.21 2210.67 1454.77 Q2208.89 1454.33 2207.13 1454.33 Q2202.5 1454.33 2200.05 1457.45 Q2197.62 1460.58 2197.27 1466.9 Q2198.64 1464.89 2200.7 1463.82 Q2202.76 1462.73 2205.23 1462.73 Q2210.44 1462.73 2213.45 1465.9 Q2216.48 1469.05 2216.48 1474.49 Q2216.48 1479.82 2213.34 1483.03 Q2210.19 1486.25 2204.96 1486.25 Q2198.96 1486.25 2195.79 1481.67 Q2192.62 1477.06 2192.62 1468.33 Q2192.62 1460.14 2196.51 1455.28 Q2200.4 1450.39 2206.95 1450.39 Q2208.71 1450.39 2210.49 1450.74 Q2212.29 1451.09 2214.24 1451.78 Z" fill="#000000" fill-rule="nonzero" fill-opacity="1" /><path clip-path="url(#clip630)" d="M2234.54 1454.1 Q2230.93 1454.1 2229.1 1457.66 Q2227.29 1461.2 2227.29 1468.33 Q2227.29 1475.44 2229.1 1479.01 Q2230.93 1482.55 2234.54 1482.55 Q2238.17 1482.55 2239.98 1479.01 Q2241.81 1475.44 2241.81 1468.33 Q2241.81 1461.2 2239.98 1457.66 Q2238.17 1454.1 2234.54 1454.1 M2234.54 1450.39 Q2240.35 1450.39 2243.41 1455 Q2246.48 1459.58 2246.48 1468.33 Q2246.48 1477.06 2243.41 1481.67 Q2240.35 1486.25 2234.54 1486.25 Q2228.73 1486.25 2225.65 1481.67 Q2222.6 1477.06 2222.6 1468.33 Q2222.6 1459.58 2225.65 1455 Q2228.73 1450.39 2234.54 1450.39 Z" fill="#000000" fill-rule="nonzero" fill-opacity="1" /><path clip-path="url(#clip630)" d="M2264.7 1454.1 Q2261.09 1454.1 2259.26 1457.66 Q2257.46 1461.2 2257.46 1468.33 Q2257.46 1475.44 2259.26 1479.01 Q2261.09 1482.55 2264.7 1482.55 Q2268.34 1482.55 2270.14 1479.01 Q2271.97 1475.44 2271.97 1468.33 Q2271.97 1461.2 2270.14 1457.66 Q2268.34 1454.1 2264.7 1454.1 M2264.7 1450.39 Q2270.51 1450.39 2273.57 1455 Q2276.65 1459.58 2276.65 1468.33 Q2276.65 1477.06 2273.57 1481.67 Q2270.51 1486.25 2264.7 1486.25 Q2258.89 1486.25 2255.81 1481.67 Q2252.76 1477.06 2252.76 1468.33 Q2252.76 1459.58 2255.81 1455 Q2258.89 1450.39 2264.7 1450.39 Z" fill="#000000" fill-rule="nonzero" fill-opacity="1" /><path clip-path="url(#clip630)" d="M1149.83 1525.81 L1149.83 1543.66 L1157.91 1543.66 Q1162.4 1543.66 1164.85 1541.34 Q1167.3 1539.02 1167.3 1534.72 Q1167.3 1530.45 1164.85 1528.13 Q1162.4 1525.81 1157.91 1525.81 L1149.83 1525.81 M1143.4 1520.52 L1157.91 1520.52 Q1165.9 1520.52 1169.97 1524.15 Q1174.08 1527.75 1174.08 1534.72 Q1174.08 1541.75 1169.97 1545.35 Q1165.9 1548.95 1157.91 1548.95 L1149.83 1548.95 L1149.83 1568.04 L1143.4 1568.04 L1143.4 1520.52 Z" fill="#000000" fill-rule="nonzero" fill-opacity="1" /><path clip-path="url(#clip630)" d="M1201.96 1537.87 Q1200.97 1537.3 1199.8 1537.04 Q1198.65 1536.76 1197.25 1536.76 Q1192.29 1536.76 1189.61 1540 Q1186.97 1543.22 1186.97 1549.27 L1186.97 1568.04 L1181.08 1568.04 L1181.08 1532.4 L1186.97 1532.4 L1186.97 1537.93 Q1188.82 1534.69 1191.78 1533.13 Q1194.74 1531.54 1198.97 1531.54 Q1199.57 1531.54 1200.31 1531.63 Q1201.04 1531.7 1201.93 1531.85 L1201.96 1537.87 Z" fill="#000000" fill-rule="nonzero" fill-opacity="1" /><path clip-path="url(#clip630)" d="M1220.49 1536.5 Q1215.77 1536.5 1213.04 1540.19 Q1210.3 1543.85 1210.3 1550.25 Q1210.3 1556.65 1213.01 1560.34 Q1215.74 1564 1220.49 1564 Q1225.16 1564 1227.9 1560.31 Q1230.64 1556.62 1230.64 1550.25 Q1230.64 1543.92 1227.9 1540.23 Q1225.16 1536.5 1220.49 1536.5 M1220.49 1531.54 Q1228.12 1531.54 1232.48 1536.5 Q1236.85 1541.47 1236.85 1550.25 Q1236.85 1559 1232.48 1564 Q1228.12 1568.97 1220.49 1568.97 Q1212.81 1568.97 1208.45 1564 Q1204.13 1559 1204.13 1550.25 Q1204.13 1541.47 1208.45 1536.5 Q1212.81 1531.54 1220.49 1531.54 Z" fill="#000000" fill-rule="nonzero" fill-opacity="1" /><path clip-path="url(#clip630)" d="M1264.6 1518.52 L1264.6 1523.39 L1259 1523.39 Q1255.85 1523.39 1254.61 1524.66 Q1253.4 1525.93 1253.4 1529.24 L1253.4 1532.4 L1263.04 1532.4 L1263.04 1536.95 L1253.4 1536.95 L1253.4 1568.04 L1247.51 1568.04 L1247.51 1536.95 L1241.91 1536.95 L1241.91 1532.4 L1247.51 1532.4 L1247.51 1529.91 Q1247.51 1523.96 1250.28 1521.26 Q1253.05 1518.52 1259.06 1518.52 L1264.6 1518.52 Z" fill="#000000" fill-rule="nonzero" fill-opacity="1" /><path clip-path="url(#clip630)" d="M1269.5 1532.4 L1275.36 1532.4 L1275.36 1568.04 L1269.5 1568.04 L1269.5 1532.4 M1269.5 1518.52 L1275.36 1518.52 L1275.36 1525.93 L1269.5 1525.93 L1269.5 1518.52 Z" fill="#000000" fill-rule="nonzero" fill-opacity="1" /><path clip-path="url(#clip630)" d="M1293.4 1522.27 L1293.4 1532.4 L1305.47 1532.4 L1305.47 1536.95 L1293.4 1536.95 L1293.4 1556.3 Q1293.4 1560.66 1294.58 1561.9 Q1295.79 1563.14 1299.45 1563.14 L1305.47 1563.14 L1305.47 1568.04 L1299.45 1568.04 Q1292.67 1568.04 1290.09 1565.53 Q1287.52 1562.98 1287.52 1556.3 L1287.52 1536.95 L1283.22 1536.95 L1283.22 1532.4 L1287.52 1532.4 L1287.52 1522.27 L1293.4 1522.27 Z" fill="#000000" fill-rule="nonzero" fill-opacity="1" /><path clip-path="url(#clip630)" d="M1333.35 1518.52 L1346.84 1518.52 L1346.84 1523.07 L1339.21 1523.07 L1339.21 1572.09 L1346.84 1572.09 L1346.84 1576.64 L1333.35 1576.64 L1333.35 1518.52 Z" fill="#000000" fill-rule="nonzero" fill-opacity="1" /><path clip-path="url(#clip630)" d="M1375.2 1577.62 L1372.02 1577.62 L1371.99 1568.04 Q1368.65 1567.98 1365.31 1567.28 Q1361.96 1566.55 1358.59 1565.12 L1358.59 1559.39 Q1361.84 1561.42 1365.15 1562.47 Q1368.49 1563.49 1372.02 1563.52 L1372.02 1549.01 Q1364.99 1547.86 1361.77 1545.13 Q1358.59 1542.39 1358.59 1537.62 Q1358.59 1532.43 1362.06 1529.44 Q1365.53 1526.44 1372.02 1526 L1372.02 1518.52 L1375.2 1518.52 L1375.2 1525.9 Q1378.16 1526.03 1380.93 1526.54 Q1383.7 1527.02 1386.34 1527.88 L1386.34 1533.45 Q1383.7 1532.11 1380.9 1531.38 Q1378.13 1530.65 1375.2 1530.52 L1375.2 1544.11 Q1382.43 1545.22 1385.83 1548.09 Q1389.24 1550.95 1389.24 1555.92 Q1389.24 1561.3 1385.61 1564.42 Q1382.02 1567.5 1375.2 1567.98 L1375.2 1577.62 M1372.02 1543.54 L1372.02 1530.49 Q1368.33 1530.9 1366.39 1532.59 Q1364.45 1534.27 1364.45 1537.07 Q1364.45 1539.81 1366.23 1541.34 Q1368.04 1542.87 1372.02 1543.54 M1375.2 1549.65 L1375.2 1563.43 Q1379.25 1562.89 1381.28 1561.14 Q1383.35 1559.39 1383.35 1556.52 Q1383.35 1553.72 1381.38 1552.07 Q1379.44 1550.41 1375.2 1549.65 Z" fill="#000000" fill-rule="nonzero" fill-opacity="1" /><path clip-path="url(#clip630)" d="M1414.48 1518.52 L1414.48 1576.64 L1400.98 1576.64 L1400.98 1572.09 L1408.59 1572.09 L1408.59 1523.07 L1400.98 1523.07 L1400.98 1518.52 L1414.48 1518.52 Z" fill="#000000" fill-rule="nonzero" fill-opacity="1" /><polyline clip-path="url(#clip632)" style="stroke:#000000; stroke-linecap:round; stroke-linejoin:round; stroke-width:2; stroke-opacity:0.1; fill:none" points="205.121,1423.18 2352.76,1423.18 "/>
<polyline clip-path="url(#clip632)" style="stroke:#000000; stroke-linecap:round; stroke-linejoin:round; stroke-width:2; stroke-opacity:0.1; fill:none" points="205.121,1142.38 2352.76,1142.38 "/>
<polyline clip-path="url(#clip632)" style="stroke:#000000; stroke-linecap:round; stroke-linejoin:round; stroke-width:2; stroke-opacity:0.1; fill:none" points="205.121,861.573 2352.76,861.573 "/>
<polyline clip-path="url(#clip632)" style="stroke:#000000; stroke-linecap:round; stroke-linejoin:round; stroke-width:2; stroke-opacity:0.1; fill:none" points="205.121,580.77 2352.76,580.77 "/>
<polyline clip-path="url(#clip632)" style="stroke:#000000; stroke-linecap:round; stroke-linejoin:round; stroke-width:2; stroke-opacity:0.1; fill:none" points="205.121,299.967 2352.76,299.967 "/>
<polyline clip-path="url(#clip630)" style="stroke:#000000; stroke-linecap:round; stroke-linejoin:round; stroke-width:4; stroke-opacity:1; fill:none" points="205.121,1423.18 205.121,47.2441 "/>
<polyline clip-path="url(#clip630)" style="stroke:#000000; stroke-linecap:round; stroke-linejoin:round; stroke-width:4; stroke-opacity:1; fill:none" points="205.121,1423.18 224.019,1423.18 "/>
<polyline clip-path="url(#clip630)" style="stroke:#000000; stroke-linecap:round; stroke-linejoin:round; stroke-width:4; stroke-opacity:1; fill:none" points="205.121,1142.38 224.019,1142.38 "/>
<polyline clip-path="url(#clip630)" style="stroke:#000000; stroke-linecap:round; stroke-linejoin:round; stroke-width:4; stroke-opacity:1; fill:none" points="205.121,861.573 224.019,861.573 "/>
<polyline clip-path="url(#clip630)" style="stroke:#000000; stroke-linecap:round; stroke-linejoin:round; stroke-width:4; stroke-opacity:1; fill:none" points="205.121,580.77 224.019,580.77 "/>
<polyline clip-path="url(#clip630)" style="stroke:#000000; stroke-linecap:round; stroke-linejoin:round; stroke-width:4; stroke-opacity:1; fill:none" points="205.121,299.967 224.019,299.967 "/>
<path clip-path="url(#clip630)" d="M157.177 1408.98 Q153.566 1408.98 151.737 1412.54 Q149.931 1416.08 149.931 1423.21 Q149.931 1430.32 151.737 1433.89 Q153.566 1437.43 157.177 1437.43 Q160.811 1437.43 162.616 1433.89 Q164.445 1430.32 164.445 1423.21 Q164.445 1416.08 162.616 1412.54 Q160.811 1408.98 157.177 1408.98 M157.177 1405.27 Q162.987 1405.27 166.042 1409.88 Q169.121 1414.46 169.121 1423.21 Q169.121 1431.94 166.042 1436.55 Q162.987 1441.13 157.177 1441.13 Q151.366 1441.13 148.288 1436.55 Q145.232 1431.94 145.232 1423.21 Q145.232 1414.46 148.288 1409.88 Q151.366 1405.27 157.177 1405.27 Z" fill="#000000" fill-rule="nonzero" fill-opacity="1" /><path clip-path="url(#clip630)" d="M117.825 1155.72 L125.464 1155.72 L125.464 1129.36 L117.154 1131.02 L117.154 1126.76 L125.418 1125.1 L130.093 1125.1 L130.093 1155.72 L137.732 1155.72 L137.732 1159.66 L117.825 1159.66 L117.825 1155.72 Z" fill="#000000" fill-rule="nonzero" fill-opacity="1" /><path clip-path="url(#clip630)" d="M157.177 1128.18 Q153.566 1128.18 151.737 1131.74 Q149.931 1135.28 149.931 1142.41 Q149.931 1149.52 151.737 1153.08 Q153.566 1156.62 157.177 1156.62 Q160.811 1156.62 162.616 1153.08 Q164.445 1149.52 164.445 1142.41 Q164.445 1135.28 162.616 1131.74 Q160.811 1128.18 157.177 1128.18 M157.177 1124.47 Q162.987 1124.47 166.042 1129.08 Q169.121 1133.66 169.121 1142.41 Q169.121 1151.14 166.042 1155.74 Q162.987 1160.33 157.177 1160.33 Q151.366 1160.33 148.288 1155.74 Q145.232 1151.14 145.232 1142.41 Q145.232 1133.66 148.288 1129.08 Q151.366 1124.47 157.177 1124.47 Z" fill="#000000" fill-rule="nonzero" fill-opacity="1" /><path clip-path="url(#clip630)" d="M121.043 874.918 L137.362 874.918 L137.362 878.853 L115.418 878.853 L115.418 874.918 Q118.08 872.164 122.663 867.534 Q127.269 862.881 128.45 861.539 Q130.695 859.016 131.575 857.279 Q132.478 855.52 132.478 853.83 Q132.478 851.076 130.533 849.34 Q128.612 847.604 125.51 847.604 Q123.311 847.604 120.857 848.367 Q118.427 849.131 115.649 850.682 L115.649 845.96 Q118.473 844.826 120.927 844.247 Q123.38 843.668 125.418 843.668 Q130.788 843.668 133.982 846.354 Q137.177 849.039 137.177 853.529 Q137.177 855.659 136.367 857.58 Q135.579 859.479 133.473 862.071 Q132.894 862.742 129.792 865.96 Q126.691 869.154 121.043 874.918 Z" fill="#000000" fill-rule="nonzero" fill-opacity="1" /><path clip-path="url(#clip630)" d="M157.177 847.372 Q153.566 847.372 151.737 850.937 Q149.931 854.479 149.931 861.608 Q149.931 868.715 151.737 872.279 Q153.566 875.821 157.177 875.821 Q160.811 875.821 162.616 872.279 Q164.445 868.715 164.445 861.608 Q164.445 854.479 162.616 850.937 Q160.811 847.372 157.177 847.372 M157.177 843.668 Q162.987 843.668 166.042 848.275 Q169.121 852.858 169.121 861.608 Q169.121 870.335 166.042 874.941 Q162.987 879.525 157.177 879.525 Q151.366 879.525 148.288 874.941 Q145.232 870.335 145.232 861.608 Q145.232 852.858 148.288 848.275 Q151.366 843.668 157.177 843.668 Z" fill="#000000" fill-rule="nonzero" fill-opacity="1" /><path clip-path="url(#clip630)" d="M131.181 579.416 Q134.538 580.134 136.413 582.402 Q138.311 584.671 138.311 588.004 Q138.311 593.12 134.792 595.921 Q131.274 598.721 124.793 598.721 Q122.617 598.721 120.302 598.282 Q118.01 597.865 115.556 597.009 L115.556 592.495 Q117.501 593.629 119.816 594.208 Q122.13 594.786 124.654 594.786 Q129.052 594.786 131.343 593.05 Q133.658 591.314 133.658 588.004 Q133.658 584.948 131.505 583.235 Q129.376 581.499 125.556 581.499 L121.529 581.499 L121.529 577.657 L125.742 577.657 Q129.191 577.657 131.019 576.291 Q132.848 574.902 132.848 572.31 Q132.848 569.648 130.95 568.236 Q129.075 566.8 125.556 566.8 Q123.635 566.8 121.436 567.217 Q119.237 567.634 116.598 568.513 L116.598 564.347 Q119.26 563.606 121.575 563.236 Q123.913 562.865 125.973 562.865 Q131.297 562.865 134.399 565.296 Q137.501 567.703 137.501 571.823 Q137.501 574.694 135.857 576.685 Q134.214 578.652 131.181 579.416 Z" fill="#000000" fill-rule="nonzero" fill-opacity="1" /><path clip-path="url(#clip630)" d="M157.177 566.569 Q153.566 566.569 151.737 570.134 Q149.931 573.675 149.931 580.805 Q149.931 587.911 151.737 591.476 Q153.566 595.018 157.177 595.018 Q160.811 595.018 162.616 591.476 Q164.445 587.911 164.445 580.805 Q164.445 573.675 162.616 570.134 Q160.811 566.569 157.177 566.569 M157.177 562.865 Q162.987 562.865 166.042 567.472 Q169.121 572.055 169.121 580.805 Q169.121 589.532 166.042 594.138 Q162.987 598.721 157.177 598.721 Q151.366 598.721 148.288 594.138 Q145.232 589.532 145.232 580.805 Q145.232 572.055 148.288 567.472 Q151.366 562.865 157.177 562.865 Z" fill="#000000" fill-rule="nonzero" fill-opacity="1" /><path clip-path="url(#clip630)" d="M129.862 286.761 L118.056 305.21 L129.862 305.21 L129.862 286.761 M128.635 282.687 L134.515 282.687 L134.515 305.21 L139.445 305.21 L139.445 309.099 L134.515 309.099 L134.515 317.247 L129.862 317.247 L129.862 309.099 L114.26 309.099 L114.26 304.585 L128.635 282.687 Z" fill="#000000" fill-rule="nonzero" fill-opacity="1" /><path clip-path="url(#clip630)" d="M157.177 285.766 Q153.566 285.766 151.737 289.33 Q149.931 292.872 149.931 300.002 Q149.931 307.108 151.737 310.673 Q153.566 314.215 157.177 314.215 Q160.811 314.215 162.616 310.673 Q164.445 307.108 164.445 300.002 Q164.445 292.872 162.616 289.33 Q160.811 285.766 157.177 285.766 M157.177 282.062 Q162.987 282.062 166.042 286.668 Q169.121 291.252 169.121 300.002 Q169.121 308.729 166.042 313.335 Q162.987 317.918 157.177 317.918 Q151.366 317.918 148.288 313.335 Q145.232 308.729 145.232 300.002 Q145.232 291.252 148.288 286.668 Q151.366 282.062 157.177 282.062 Z" fill="#000000" fill-rule="nonzero" fill-opacity="1" /><path clip-path="url(#clip630)" d="M16.4842 1073.5 L16.4842 1064.84 L56.238 1043.77 L16.4842 1043.77 L16.4842 1037.54 L64.0042 1037.54 L64.0042 1046.19 L24.2503 1067.26 L64.0042 1067.26 L64.0042 1073.5 L16.4842 1073.5 Z" fill="#000000" fill-rule="nonzero" fill-opacity="1" /><path clip-path="url(#clip630)" d="M49.9359 1025.6 L28.3562 1025.6 L28.3562 1019.74 L49.7131 1019.74 Q54.7739 1019.74 57.3202 1017.77 Q59.8346 1015.8 59.8346 1011.85 Q59.8346 1007.11 56.8109 1004.37 Q53.7872 1001.6 48.5673 1001.6 L28.3562 1001.6 L28.3562 995.744 L64.0042 995.744 L64.0042 1001.6 L58.5296 1001.6 Q61.7762 1003.73 63.3676 1006.57 Q64.9272 1009.37 64.9272 1013.09 Q64.9272 1019.23 61.1078 1022.42 Q57.2883 1025.6 49.9359 1025.6 M27.4968 1010.86 L27.4968 1010.86 Z" fill="#000000" fill-rule="nonzero" fill-opacity="1" /><path clip-path="url(#clip630)" d="M35.1993 955.927 Q31.2526 953.731 29.3747 950.675 Q27.4968 947.62 27.4968 943.482 Q27.4968 937.912 31.4117 934.888 Q35.2948 931.865 42.4881 931.865 L64.0042 931.865 L64.0042 937.753 L42.679 937.753 Q37.5546 937.753 35.072 939.567 Q32.5894 941.381 32.5894 945.105 Q32.5894 949.657 35.6131 952.298 Q38.6368 954.94 43.8567 954.94 L64.0042 954.94 L64.0042 960.829 L42.679 960.829 Q37.5228 960.829 35.072 962.643 Q32.5894 964.457 32.5894 968.245 Q32.5894 972.732 35.6449 975.374 Q38.6686 978.016 43.8567 978.016 L64.0042 978.016 L64.0042 983.904 L28.3562 983.904 L28.3562 978.016 L33.8944 978.016 Q30.616 976.011 29.0564 973.21 Q27.4968 970.409 27.4968 966.558 Q27.4968 962.675 29.4702 959.969 Q31.4436 957.232 35.1993 955.927 Z" fill="#000000" fill-rule="nonzero" fill-opacity="1" /><path clip-path="url(#clip630)" d="M46.212 894.593 Q39.7508 894.593 36.0905 897.267 Q32.3984 899.909 32.3984 904.556 Q32.3984 909.203 36.0905 911.876 Q39.7508 914.518 46.212 914.518 Q52.6732 914.518 56.3653 911.876 Q60.0256 909.203 60.0256 904.556 Q60.0256 899.909 56.3653 897.267 Q52.6732 894.593 46.212 894.593 M33.7671 914.518 Q30.5842 912.672 29.0564 909.871 Q27.4968 907.038 27.4968 903.123 Q27.4968 896.63 32.6531 892.588 Q37.8093 888.514 46.212 888.514 Q54.6147 888.514 59.771 892.588 Q64.9272 896.63 64.9272 903.123 Q64.9272 907.038 63.3994 909.871 Q61.8398 912.672 58.657 914.518 L64.0042 914.518 L64.0042 920.406 L14.479 920.406 L14.479 914.518 L33.7671 914.518 Z" fill="#000000" fill-rule="nonzero" fill-opacity="1" /><path clip-path="url(#clip630)" d="M44.7161 848.315 L47.5806 848.315 L47.5806 875.242 Q53.6281 874.86 56.8109 871.613 Q59.9619 868.335 59.9619 862.51 Q59.9619 859.136 59.1344 855.985 Q58.3069 852.802 56.6518 849.683 L62.1899 849.683 Q63.5267 852.834 64.227 856.144 Q64.9272 859.455 64.9272 862.86 Q64.9272 871.39 59.9619 876.387 Q54.9967 881.353 46.5303 881.353 Q37.7774 881.353 32.6531 876.642 Q27.4968 871.9 27.4968 863.879 Q27.4968 856.686 32.1438 852.516 Q36.7589 848.315 44.7161 848.315 M42.9973 854.171 Q38.1912 854.235 35.3266 856.877 Q32.4621 859.486 32.4621 863.815 Q32.4621 868.717 35.2312 871.677 Q38.0002 874.605 43.0292 875.051 L42.9973 854.171 Z" fill="#000000" fill-rule="nonzero" fill-opacity="1" /><path clip-path="url(#clip630)" d="M33.8307 818.046 Q33.2578 819.032 33.0032 820.21 Q32.7167 821.356 32.7167 822.756 Q32.7167 827.722 35.9632 830.395 Q39.1779 833.037 45.2253 833.037 L64.0042 833.037 L64.0042 838.925 L28.3562 838.925 L28.3562 833.037 L33.8944 833.037 Q30.6479 831.191 29.0883 828.231 Q27.4968 825.271 27.4968 821.038 Q27.4968 820.433 27.5923 819.701 Q27.656 818.969 27.8151 818.078 L33.8307 818.046 Z" fill="#000000" fill-rule="nonzero" fill-opacity="1" /><path clip-path="url(#clip630)" d="M32.4621 777.369 Q32.4621 782.079 36.1542 784.817 Q39.8145 787.554 46.212 787.554 Q52.6095 787.554 56.3017 784.849 Q59.9619 782.111 59.9619 777.369 Q59.9619 772.69 56.2698 769.953 Q52.5777 767.216 46.212 767.216 Q39.8781 767.216 36.186 769.953 Q32.4621 772.69 32.4621 777.369 M27.4968 777.369 Q27.4968 769.73 32.4621 765.37 Q37.4273 761.009 46.212 761.009 Q54.9649 761.009 59.9619 765.37 Q64.9272 769.73 64.9272 777.369 Q64.9272 785.04 59.9619 789.4 Q54.9649 793.729 46.212 793.729 Q37.4273 793.729 32.4621 789.4 Q27.4968 785.04 27.4968 777.369 Z" fill="#000000" fill-rule="nonzero" fill-opacity="1" /><path clip-path="url(#clip630)" d="M14.479 733.255 L19.3487 733.255 L19.3487 738.856 Q19.3487 742.007 20.6219 743.249 Q21.895 744.458 25.2052 744.458 L28.3562 744.458 L28.3562 734.814 L32.9077 734.814 L32.9077 744.458 L64.0042 744.458 L64.0042 750.346 L32.9077 750.346 L32.9077 755.948 L28.3562 755.948 L28.3562 750.346 L25.8736 750.346 Q19.9216 750.346 17.2162 747.577 Q14.479 744.808 14.479 738.793 L14.479 733.255 Z" fill="#000000" fill-rule="nonzero" fill-opacity="1" /><path clip-path="url(#clip630)" d="M32.4621 693.819 Q32.4621 698.53 36.1542 701.267 Q39.8145 704.004 46.212 704.004 Q52.6095 704.004 56.3017 701.299 Q59.9619 698.561 59.9619 693.819 Q59.9619 689.14 56.2698 686.403 Q52.5777 683.666 46.212 683.666 Q39.8781 683.666 36.186 686.403 Q32.4621 689.14 32.4621 693.819 M27.4968 693.819 Q27.4968 686.18 32.4621 681.82 Q37.4273 677.459 46.212 677.459 Q54.9649 677.459 59.9619 681.82 Q64.9272 686.18 64.9272 693.819 Q64.9272 701.49 59.9619 705.85 Q54.9649 710.179 46.212 710.179 Q37.4273 710.179 32.4621 705.85 Q27.4968 701.49 27.4968 693.819 Z" fill="#000000" fill-rule="nonzero" fill-opacity="1" /><path clip-path="url(#clip630)" d="M49.9359 668.356 L28.3562 668.356 L28.3562 662.5 L49.7131 662.5 Q54.7739 662.5 57.3202 660.526 Q59.8346 658.553 59.8346 654.606 Q59.8346 649.864 56.8109 647.127 Q53.7872 644.357 48.5673 644.357 L28.3562 644.357 L28.3562 638.501 L64.0042 638.501 L64.0042 644.357 L58.5296 644.357 Q61.7762 646.49 63.3676 649.323 Q64.9272 652.124 64.9272 655.848 Q64.9272 661.99 61.1078 665.173 Q57.2883 668.356 49.9359 668.356 M27.4968 653.62 L27.4968 653.62 Z" fill="#000000" fill-rule="nonzero" fill-opacity="1" /><path clip-path="url(#clip630)" d="M18.2347 620.645 L28.3562 620.645 L28.3562 608.582 L32.9077 608.582 L32.9077 620.645 L52.2594 620.645 Q56.6199 620.645 57.8613 619.468 Q59.1026 618.258 59.1026 614.598 L59.1026 608.582 L64.0042 608.582 L64.0042 614.598 Q64.0042 621.377 61.4897 623.955 Q58.9434 626.533 52.2594 626.533 L32.9077 626.533 L32.9077 630.83 L28.3562 630.83 L28.3562 626.533 L18.2347 626.533 L18.2347 620.645 Z" fill="#000000" fill-rule="nonzero" fill-opacity="1" /><path clip-path="url(#clip630)" d="M29.7248 575.226 L35.1993 575.226 Q33.8307 577.708 33.1623 580.223 Q32.4621 582.706 32.4621 585.252 Q32.4621 590.949 36.0905 594.1 Q39.6872 597.251 46.212 597.251 Q52.7369 597.251 56.3653 594.1 Q59.9619 590.949 59.9619 585.252 Q59.9619 582.706 59.2935 580.223 Q58.5933 577.708 57.2247 575.226 L62.6355 575.226 Q63.7814 577.677 64.3543 580.318 Q64.9272 582.928 64.9272 585.888 Q64.9272 593.941 59.8664 598.683 Q54.8057 603.426 46.212 603.426 Q37.491 603.426 32.4939 598.652 Q27.4968 593.846 27.4968 585.506 Q27.4968 582.801 28.0697 580.223 Q28.6108 577.645 29.7248 575.226 Z" fill="#000000" fill-rule="nonzero" fill-opacity="1" /><path clip-path="url(#clip630)" d="M32.4621 551.227 Q32.4621 555.938 36.1542 558.675 Q39.8145 561.412 46.212 561.412 Q52.6095 561.412 56.3017 558.707 Q59.9619 555.97 59.9619 551.227 Q59.9619 546.548 56.2698 543.811 Q52.5777 541.074 46.212 541.074 Q39.8781 541.074 36.186 543.811 Q32.4621 546.548 32.4621 551.227 M27.4968 551.227 Q27.4968 543.588 32.4621 539.228 Q37.4273 534.867 46.212 534.867 Q54.9649 534.867 59.9619 539.228 Q64.9272 543.588 64.9272 551.227 Q64.9272 558.898 59.9619 563.258 Q54.9649 567.587 46.212 567.587 Q37.4273 567.587 32.4621 563.258 Q27.4968 558.898 27.4968 551.227 Z" fill="#000000" fill-rule="nonzero" fill-opacity="1" /><path clip-path="url(#clip630)" d="M35.1993 497.405 Q31.2526 495.209 29.3747 492.153 Q27.4968 489.098 27.4968 484.96 Q27.4968 479.39 31.4117 476.366 Q35.2948 473.343 42.4881 473.343 L64.0042 473.343 L64.0042 479.231 L42.679 479.231 Q37.5546 479.231 35.072 481.045 Q32.5894 482.859 32.5894 486.583 Q32.5894 491.135 35.6131 493.777 Q38.6368 496.418 43.8567 496.418 L64.0042 496.418 L64.0042 502.307 L42.679 502.307 Q37.5228 502.307 35.072 504.121 Q32.5894 505.935 32.5894 509.723 Q32.5894 514.211 35.6449 516.852 Q38.6686 519.494 43.8567 519.494 L64.0042 519.494 L64.0042 525.382 L28.3562 525.382 L28.3562 519.494 L33.8944 519.494 Q30.616 517.489 29.0564 514.688 Q27.4968 511.887 27.4968 508.036 Q27.4968 504.153 29.4702 501.447 Q31.4436 498.71 35.1993 497.405 Z" fill="#000000" fill-rule="nonzero" fill-opacity="1" /><path clip-path="url(#clip630)" d="M44.7161 431.17 L47.5806 431.17 L47.5806 458.097 Q53.6281 457.715 56.8109 454.468 Q59.9619 451.19 59.9619 445.365 Q59.9619 441.992 59.1344 438.841 Q58.3069 435.658 56.6518 432.539 L62.1899 432.539 Q63.5267 435.69 64.227 439 Q64.9272 442.31 64.9272 445.716 Q64.9272 454.246 59.9619 459.243 Q54.9967 464.208 46.5303 464.208 Q37.7774 464.208 32.6531 459.497 Q27.4968 454.755 27.4968 446.734 Q27.4968 439.541 32.1438 435.371 Q36.7589 431.17 44.7161 431.17 M42.9973 437.026 Q38.1912 437.09 35.3266 439.732 Q32.4621 442.342 32.4621 446.67 Q32.4621 451.572 35.2312 454.532 Q38.0002 457.46 43.0292 457.906 L42.9973 437.026 Z" fill="#000000" fill-rule="nonzero" fill-opacity="1" /><path clip-path="url(#clip630)" d="M29.4065 398.832 L34.9447 398.832 Q33.6716 401.315 33.035 403.988 Q32.3984 406.662 32.3984 409.527 Q32.3984 413.887 33.7352 416.083 Q35.072 418.248 37.7456 418.248 Q39.7826 418.248 40.9603 416.688 Q42.1061 415.128 43.1565 410.418 L43.6021 408.413 Q44.9389 402.174 47.3897 399.564 Q49.8086 396.922 54.1691 396.922 Q59.1344 396.922 62.0308 400.869 Q64.9272 404.784 64.9272 411.659 Q64.9272 414.524 64.3543 417.643 Q63.8132 420.73 62.6992 424.168 L56.6518 424.168 Q58.3387 420.921 59.198 417.77 Q60.0256 414.619 60.0256 411.532 Q60.0256 407.394 58.6251 405.166 Q57.1929 402.938 54.6147 402.938 Q52.2276 402.938 50.9545 404.561 Q49.6813 406.153 48.5037 411.595 L48.0262 413.632 Q46.8804 419.075 44.5251 421.494 Q42.138 423.913 38.0002 423.913 Q32.9713 423.913 30.2341 420.348 Q27.4968 416.783 27.4968 410.227 Q27.4968 406.98 27.9743 404.116 Q28.4517 401.251 29.4065 398.832 Z" fill="#000000" fill-rule="nonzero" fill-opacity="1" /><path clip-path="url(#clip632)" d="M323.245 1367.02 L323.245 1423.18 L535.621 1423.18 L535.621 1367.02 L323.245 1367.02 L323.245 1367.02  Z" fill="#009af9" fill-rule="evenodd" fill-opacity="1"/>
<polyline clip-path="url(#clip632)" style="stroke:#000000; stroke-linecap:round; stroke-linejoin:round; stroke-width:4; stroke-opacity:1; fill:none" points="323.245,1367.02 323.245,1423.18 535.621,1423.18 535.621,1367.02 323.245,1367.02 "/>
<path clip-path="url(#clip632)" d="M535.621 1338.94 L535.621 1423.18 L747.997 1423.18 L747.997 1338.94 L535.621 1338.94 L535.621 1338.94  Z" fill="#009af9" fill-rule="evenodd" fill-opacity="1"/>
<polyline clip-path="url(#clip632)" style="stroke:#000000; stroke-linecap:round; stroke-linejoin:round; stroke-width:4; stroke-opacity:1; fill:none" points="535.621,1338.94 535.621,1423.18 747.997,1423.18 747.997,1338.94 535.621,1338.94 "/>
<path clip-path="url(#clip632)" d="M747.997 1367.02 L747.997 1423.18 L960.374 1423.18 L960.374 1367.02 L747.997 1367.02 L747.997 1367.02  Z" fill="#009af9" fill-rule="evenodd" fill-opacity="1"/>
<polyline clip-path="url(#clip632)" style="stroke:#000000; stroke-linecap:round; stroke-linejoin:round; stroke-width:4; stroke-opacity:1; fill:none" points="747.997,1367.02 747.997,1423.18 960.374,1423.18 960.374,1367.02 747.997,1367.02 "/>
<path clip-path="url(#clip632)" d="M960.374 1310.86 L960.374 1423.18 L1172.75 1423.18 L1172.75 1310.86 L960.374 1310.86 L960.374 1310.86  Z" fill="#009af9" fill-rule="evenodd" fill-opacity="1"/>
<polyline clip-path="url(#clip632)" style="stroke:#000000; stroke-linecap:round; stroke-linejoin:round; stroke-width:4; stroke-opacity:1; fill:none" points="960.374,1310.86 960.374,1423.18 1172.75,1423.18 1172.75,1310.86 960.374,1310.86 "/>
<path clip-path="url(#clip632)" d="M1172.75 1338.94 L1172.75 1423.18 L1385.13 1423.18 L1385.13 1338.94 L1172.75 1338.94 L1172.75 1338.94  Z" fill="#009af9" fill-rule="evenodd" fill-opacity="1"/>
<polyline clip-path="url(#clip632)" style="stroke:#000000; stroke-linecap:round; stroke-linejoin:round; stroke-width:4; stroke-opacity:1; fill:none" points="1172.75,1338.94 1172.75,1423.18 1385.13,1423.18 1385.13,1338.94 1172.75,1338.94 "/>
<path clip-path="url(#clip632)" d="M1385.13 1226.62 L1385.13 1423.18 L1597.5 1423.18 L1597.5 1226.62 L1385.13 1226.62 L1385.13 1226.62  Z" fill="#009af9" fill-rule="evenodd" fill-opacity="1"/>
<polyline clip-path="url(#clip632)" style="stroke:#000000; stroke-linecap:round; stroke-linejoin:round; stroke-width:4; stroke-opacity:1; fill:none" points="1385.13,1226.62 1385.13,1423.18 1597.5,1423.18 1597.5,1226.62 1385.13,1226.62 "/>
<path clip-path="url(#clip632)" d="M1597.5 945.814 L1597.5 1423.18 L1809.88 1423.18 L1809.88 945.814 L1597.5 945.814 L1597.5 945.814  Z" fill="#009af9" fill-rule="evenodd" fill-opacity="1"/>
<polyline clip-path="url(#clip632)" style="stroke:#000000; stroke-linecap:round; stroke-linejoin:round; stroke-width:4; stroke-opacity:1; fill:none" points="1597.5,945.814 1597.5,1423.18 1809.88,1423.18 1809.88,945.814 1597.5,945.814 "/>
<path clip-path="url(#clip632)" d="M1809.88 1058.14 L1809.88 1423.18 L2022.26 1423.18 L2022.26 1058.14 L1809.88 1058.14 L1809.88 1058.14  Z" fill="#009af9" fill-rule="evenodd" fill-opacity="1"/>
<polyline clip-path="url(#clip632)" style="stroke:#000000; stroke-linecap:round; stroke-linejoin:round; stroke-width:4; stroke-opacity:1; fill:none" points="1809.88,1058.14 1809.88,1423.18 2022.26,1423.18 2022.26,1058.14 1809.88,1058.14 "/>
<path clip-path="url(#clip632)" d="M2022.26 47.2441 L2022.26 1423.18 L2234.63 1423.18 L2234.63 47.2441 L2022.26 47.2441 L2022.26 47.2441  Z" fill="#009af9" fill-rule="evenodd" fill-opacity="1"/>
<polyline clip-path="url(#clip632)" style="stroke:#000000; stroke-linecap:round; stroke-linejoin:round; stroke-width:4; stroke-opacity:1; fill:none" points="2022.26,47.2441 2022.26,1423.18 2234.63,1423.18 2234.63,47.2441 2022.26,47.2441 "/>
<circle clip-path="url(#clip632)" style="fill:#009af9; stroke:none; fill-opacity:0" cx="429.433" cy="1367.02" r="2"/>
<circle clip-path="url(#clip632)" style="fill:#009af9; stroke:none; fill-opacity:0" cx="641.809" cy="1338.94" r="2"/>
<circle clip-path="url(#clip632)" style="fill:#009af9; stroke:none; fill-opacity:0" cx="854.186" cy="1367.02" r="2"/>
<circle clip-path="url(#clip632)" style="fill:#009af9; stroke:none; fill-opacity:0" cx="1066.56" cy="1310.86" r="2"/>
<circle clip-path="url(#clip632)" style="fill:#009af9; stroke:none; fill-opacity:0" cx="1278.94" cy="1338.94" r="2"/>
<circle clip-path="url(#clip632)" style="fill:#009af9; stroke:none; fill-opacity:0" cx="1491.31" cy="1226.62" r="2"/>
<circle clip-path="url(#clip632)" style="fill:#009af9; stroke:none; fill-opacity:0" cx="1703.69" cy="945.814" r="2"/>
<circle clip-path="url(#clip632)" style="fill:#009af9; stroke:none; fill-opacity:0" cx="1916.07" cy="1058.14" r="2"/>
<circle clip-path="url(#clip632)" style="fill:#009af9; stroke:none; fill-opacity:0" cx="2128.44" cy="47.2441" r="2"/>
<polyline clip-path="url(#clip632)" style="stroke:#e26f46; stroke-linecap:round; stroke-linejoin:round; stroke-width:12; stroke-opacity:1; fill:none" points="1852.25,2799.12 1852.25,-1328.69 "/>
<polyline clip-path="url(#clip632)" style="stroke:#3da44d; stroke-linecap:round; stroke-linejoin:round; stroke-width:12; stroke-opacity:1; fill:none" points="1500.34,2799.12 1500.34,-1328.69 "/>
<polyline clip-path="url(#clip632)" style="stroke:#c271d2; stroke-linecap:round; stroke-linejoin:round; stroke-width:12; stroke-opacity:1; fill:none" points="345.562,2799.12 345.562,-1328.69 "/>
<path clip-path="url(#clip630)" d="M276.709 300.469 L660.893 300.469 L660.893 93.1086 L276.709 93.1086  Z" fill="#ffffff" fill-rule="evenodd" fill-opacity="1"/>
<polyline clip-path="url(#clip630)" style="stroke:#000000; stroke-linecap:round; stroke-linejoin:round; stroke-width:4; stroke-opacity:1; fill:none" points="276.709,300.469 660.893,300.469 660.893,93.1086 276.709,93.1086 276.709,300.469 "/>
<polyline clip-path="url(#clip630)" style="stroke:#e26f46; stroke-linecap:round; stroke-linejoin:round; stroke-width:12; stroke-opacity:1; fill:none" points="300.571,144.949 443.747,144.949 "/>
<path clip-path="url(#clip630)" d="M475.225 140.377 L480.897 156.395 L488.998 136.303 L493.512 136.303 L483.026 162.229 L483.026 172.09 L478.767 172.09 L478.767 162.229 L471.962 142.877 Q470.943 139.96 468.744 139.96 L467.61 139.96 L467.61 136.303 L469.23 136.303 Q473.79 136.303 475.225 140.377 Z" fill="#000000" fill-rule="nonzero" fill-opacity="1" /><path clip-path="url(#clip630)" d="M515.017 140.701 L544.693 140.701 L544.693 144.59 L515.017 144.59 L515.017 140.701 M515.017 150.145 L544.693 150.145 L544.693 154.081 L515.017 154.081 L515.017 150.145 Z" fill="#000000" fill-rule="nonzero" fill-opacity="1" /><path clip-path="url(#clip630)" d="M570.665 158.293 L578.304 158.293 L578.304 131.928 L569.993 133.595 L569.993 129.335 L578.257 127.669 L582.933 127.669 L582.933 158.293 L590.572 158.293 L590.572 162.229 L570.665 162.229 L570.665 158.293 Z" fill="#000000" fill-rule="nonzero" fill-opacity="1" /><path clip-path="url(#clip630)" d="M600.016 156.349 L604.901 156.349 L604.901 162.229 L600.016 162.229 L600.016 156.349 Z" fill="#000000" fill-rule="nonzero" fill-opacity="1" /><path clip-path="url(#clip630)" d="M625.086 130.747 Q621.475 130.747 619.646 134.312 Q617.84 137.854 617.84 144.983 Q617.84 152.09 619.646 155.655 Q621.475 159.196 625.086 159.196 Q628.72 159.196 630.525 155.655 Q632.354 152.09 632.354 144.983 Q632.354 137.854 630.525 134.312 Q628.72 130.747 625.086 130.747 M625.086 127.044 Q630.896 127.044 633.951 131.65 Q637.03 136.233 637.03 144.983 Q637.03 153.71 633.951 158.317 Q630.896 162.9 625.086 162.9 Q619.276 162.9 616.197 158.317 Q613.141 153.71 613.141 144.983 Q613.141 136.233 616.197 131.65 Q619.276 127.044 625.086 127.044 Z" fill="#000000" fill-rule="nonzero" fill-opacity="1" /><polyline clip-path="url(#clip630)" style="stroke:#3da44d; stroke-linecap:round; stroke-linejoin:round; stroke-width:12; stroke-opacity:1; fill:none" points="300.571,196.789 443.747,196.789 "/>
<path clip-path="url(#clip630)" d="M475.225 192.217 L480.897 208.235 L488.998 188.143 L493.512 188.143 L483.026 214.069 L483.026 223.93 L478.767 223.93 L478.767 214.069 L471.962 194.717 Q470.943 191.8 468.744 191.8 L467.61 191.8 L467.61 188.143 L469.23 188.143 Q473.79 188.143 475.225 192.217 Z" fill="#000000" fill-rule="nonzero" fill-opacity="1" /><path clip-path="url(#clip630)" d="M515.017 192.541 L544.693 192.541 L544.693 196.43 L515.017 196.43 L515.017 192.541 M515.017 201.985 L544.693 201.985 L544.693 205.921 L515.017 205.921 L515.017 201.985 Z" fill="#000000" fill-rule="nonzero" fill-opacity="1" /><path clip-path="url(#clip630)" d="M579.854 182.587 Q576.243 182.587 574.415 186.152 Q572.609 189.694 572.609 196.823 Q572.609 203.93 574.415 207.495 Q576.243 211.036 579.854 211.036 Q583.489 211.036 585.294 207.495 Q587.123 203.93 587.123 196.823 Q587.123 189.694 585.294 186.152 Q583.489 182.587 579.854 182.587 M579.854 178.884 Q585.665 178.884 588.72 183.49 Q591.799 188.073 591.799 196.823 Q591.799 205.55 588.72 210.157 Q585.665 214.74 579.854 214.74 Q574.044 214.74 570.966 210.157 Q567.91 205.55 567.91 196.823 Q567.91 188.073 570.966 183.49 Q574.044 178.884 579.854 178.884 Z" fill="#000000" fill-rule="nonzero" fill-opacity="1" /><path clip-path="url(#clip630)" d="M600.016 208.189 L604.901 208.189 L604.901 214.069 L600.016 214.069 L600.016 208.189 Z" fill="#000000" fill-rule="nonzero" fill-opacity="1" /><path clip-path="url(#clip630)" d="M615.132 179.509 L633.488 179.509 L633.488 183.444 L619.414 183.444 L619.414 191.916 Q620.433 191.569 621.451 191.407 Q622.47 191.222 623.488 191.222 Q629.275 191.222 632.655 194.393 Q636.035 197.564 636.035 202.981 Q636.035 208.559 632.563 211.661 Q629.09 214.74 622.771 214.74 Q620.595 214.74 618.326 214.37 Q616.081 213.999 613.674 213.258 L613.674 208.559 Q615.757 209.694 617.979 210.249 Q620.201 210.805 622.678 210.805 Q626.683 210.805 629.021 208.698 Q631.359 206.592 631.359 202.981 Q631.359 199.37 629.021 197.263 Q626.683 195.157 622.678 195.157 Q620.803 195.157 618.928 195.573 Q617.076 195.99 615.132 196.87 L615.132 179.509 Z" fill="#000000" fill-rule="nonzero" fill-opacity="1" /><polyline clip-path="url(#clip630)" style="stroke:#c271d2; stroke-linecap:round; stroke-linejoin:round; stroke-width:12; stroke-opacity:1; fill:none" points="300.571,248.629 443.747,248.629 "/>
<path clip-path="url(#clip630)" d="M475.225 244.057 L480.897 260.075 L488.998 239.983 L493.512 239.983 L483.026 265.909 L483.026 275.77 L478.767 275.77 L478.767 265.909 L471.962 246.557 Q470.943 243.64 468.744 243.64 L467.61 243.64 L467.61 239.983 L469.23 239.983 Q473.79 239.983 475.225 244.057 Z" fill="#000000" fill-rule="nonzero" fill-opacity="1" /><path clip-path="url(#clip630)" d="M515.017 244.381 L544.693 244.381 L544.693 248.27 L515.017 248.27 L515.017 244.381 M515.017 253.825 L544.693 253.825 L544.693 257.761 L515.017 257.761 L515.017 253.825 Z" fill="#000000" fill-rule="nonzero" fill-opacity="1" /><path clip-path="url(#clip630)" d="M579.854 234.427 Q576.243 234.427 574.415 237.992 Q572.609 241.534 572.609 248.663 Q572.609 255.77 574.415 259.335 Q576.243 262.876 579.854 262.876 Q583.489 262.876 585.294 259.335 Q587.123 255.77 587.123 248.663 Q587.123 241.534 585.294 237.992 Q583.489 234.427 579.854 234.427 M579.854 230.724 Q585.665 230.724 588.72 235.33 Q591.799 239.913 591.799 248.663 Q591.799 257.39 588.72 261.997 Q585.665 266.58 579.854 266.58 Q574.044 266.58 570.966 261.997 Q567.91 257.39 567.91 248.663 Q567.91 239.913 570.966 235.33 Q574.044 230.724 579.854 230.724 Z" fill="#000000" fill-rule="nonzero" fill-opacity="1" /><path clip-path="url(#clip630)" d="M600.016 260.029 L604.901 260.029 L604.901 265.909 L600.016 265.909 L600.016 260.029 Z" fill="#000000" fill-rule="nonzero" fill-opacity="1" /><path clip-path="url(#clip630)" d="M625.086 234.427 Q621.475 234.427 619.646 237.992 Q617.84 241.534 617.84 248.663 Q617.84 255.77 619.646 259.335 Q621.475 262.876 625.086 262.876 Q628.72 262.876 630.525 259.335 Q632.354 255.77 632.354 248.663 Q632.354 241.534 630.525 237.992 Q628.72 234.427 625.086 234.427 M625.086 230.724 Q630.896 230.724 633.951 235.33 Q637.03 239.913 637.03 248.663 Q637.03 257.39 633.951 261.997 Q630.896 266.58 625.086 266.58 Q619.276 266.58 616.197 261.997 Q613.141 257.39 613.141 248.663 Q613.141 239.913 616.197 235.33 Q619.276 230.724 625.086 230.724 Z" fill="#000000" fill-rule="nonzero" fill-opacity="1" /></svg>
