<svg xmlns="http://www.w3.org/2000/svg" viewBox="0 0 420 150">
<path d="M41 75.5l100-40M25 127.5l116-116" fill="none" stroke-width="8" stroke-linecap="round" stroke="#333" stroke-miterlimit="10"/>
<path d="M104 111.5c0 9.39-7.61 17-17 17s-17-7.61-17-17 7.61-17 17-17 17 7.61 17 17" fill="#cb3c33"/>
<path d="M144 71.5c0 9.39-7.61 17-17 17s-17-7.61-17-17 7.61-17 17-17 17 7.61 17 17" fill="#389826"/>
<path d="M144 111.5c0 9.39-7.61 17-17 17s-17-7.61-17-17 7.61-17 17-17 17 7.61 17 17" fill="#9558b2"/>
<path d="M193.02 58.29h12.75v42.827c0 3.863.289 7.711-.653 11.5a19.252 19.252 0 01-7.719 11.332 19.73 19.73 0 01-9.07 3.418c-10.504 1.188-20.332-5.797-22.672-16.11l12.383-3.16a8.446 8.446 0 005.168 6.09c1.172.438 2.43.59 3.672.454a7.093 7.093 0 003.2-1.16c2.769-1.93 2.94-5.34 2.94-8.34zm26.457 0h12.52v23.808c0 4.613.312 7.84.952 9.632a8.445 8.445 0 003.059 4.188 8.742 8.742 0 005.199 1.512 9.192 9.192 0 005.242-1.47 8.685 8.685 0 003.2-4.343c.507-1.418.757-4.457.757-9.117V58.32h12.434v20.918c0 8.61-.692 14.52-2 17.692a19.188 19.188 0 01-7.344 8.898c-3.238 2.074-7.351 3.11-12.34 3.11-5.418 0-9.793-1.204-13.129-3.618a19.272 19.272 0 01-7.058-10.12c-.942-3-1.45-8.442-1.45-16.321zm114.8 66.67h12.59V58.278H332.47l-20.89 28.672-20.892-28.672h-14.5v66.684h12.59V76.469l21.27 29.058h2.48l21.75-28.968zm24.07-66.67h13.462c7.332 0 12.586.667 15.757 2a16.027 16.027 0 017.633 6.538 20.247 20.247 0 012.79 10.8 18.249 18.249 0 01-3.65 11.61 18.818 18.818 0 01-9.91 6.512c-2.44.664-6.898 1-13.37 1v28.258h-12.711zm12.712 26.077h4c2.23.106 4.464-.12 6.628-.68a5.817 5.817 0 002.922-2.25 6.542 6.542 0 001.07-3.789 6.109 6.109 0 00-3-5.62c-1.421-.868-4.113-1.278-8.05-1.278h-3.57zm0 0" fill="#333"/>
</svg>
