<?xml version="1.0" encoding="utf-8"?>
<svg xmlns="http://www.w3.org/2000/svg" xmlns:xlink="http://www.w3.org/1999/xlink" width="600" height="400" viewBox="0 0 2400 1600">
<defs>
  <clipPath id="clip590">
    <rect x="0" y="0" width="2400" height="1600"/>
  </clipPath>
</defs>
<path clip-path="url(#clip590)" d="M0 1600 L2400 1600 L2400 0 L0 0  Z" fill="#ffffff" fill-rule="evenodd" fill-opacity="1"/>
<defs>
  <clipPath id="clip591">
    <rect x="480" y="0" width="1681" height="1600"/>
  </clipPath>
</defs>
<path clip-path="url(#clip590)" d="M141.853 1486.45 L2352.76 1486.45 L2352.76 47.2441 L141.853 47.2441  Z" fill="#ffffff" fill-rule="evenodd" fill-opacity="1"/>
<defs>
  <clipPath id="clip592">
    <rect x="141" y="47" width="2212" height="1440"/>
  </clipPath>
</defs>
<polyline clip-path="url(#clip592)" style="stroke:#000000; stroke-linecap:round; stroke-linejoin:round; stroke-width:2; stroke-opacity:0.1; fill:none" points="263.457,1486.45 263.457,47.2441 "/>
<polyline clip-path="url(#clip592)" style="stroke:#000000; stroke-linecap:round; stroke-linejoin:round; stroke-width:2; stroke-opacity:0.1; fill:none" points="700.722,1486.45 700.722,47.2441 "/>
<polyline clip-path="url(#clip592)" style="stroke:#000000; stroke-linecap:round; stroke-linejoin:round; stroke-width:2; stroke-opacity:0.1; fill:none" points="1137.99,1486.45 1137.99,47.2441 "/>
<polyline clip-path="url(#clip592)" style="stroke:#000000; stroke-linecap:round; stroke-linejoin:round; stroke-width:2; stroke-opacity:0.1; fill:none" points="1575.25,1486.45 1575.25,47.2441 "/>
<polyline clip-path="url(#clip592)" style="stroke:#000000; stroke-linecap:round; stroke-linejoin:round; stroke-width:2; stroke-opacity:0.1; fill:none" points="2012.52,1486.45 2012.52,47.2441 "/>
<polyline clip-path="url(#clip592)" style="stroke:#000000; stroke-linecap:round; stroke-linejoin:round; stroke-width:2; stroke-opacity:0.1; fill:none" points="141.853,1486.45 2352.76,1486.45 "/>
<polyline clip-path="url(#clip592)" style="stroke:#000000; stroke-linecap:round; stroke-linejoin:round; stroke-width:2; stroke-opacity:0.1; fill:none" points="141.853,1159.36 2352.76,1159.36 "/>
<polyline clip-path="url(#clip592)" style="stroke:#000000; stroke-linecap:round; stroke-linejoin:round; stroke-width:2; stroke-opacity:0.1; fill:none" points="141.853,832.264 2352.76,832.264 "/>
<polyline clip-path="url(#clip592)" style="stroke:#000000; stroke-linecap:round; stroke-linejoin:round; stroke-width:2; stroke-opacity:0.1; fill:none" points="141.853,505.173 2352.76,505.173 "/>
<polyline clip-path="url(#clip592)" style="stroke:#000000; stroke-linecap:round; stroke-linejoin:round; stroke-width:2; stroke-opacity:0.1; fill:none" points="141.853,178.081 2352.76,178.081 "/>
<polyline clip-path="url(#clip590)" style="stroke:#000000; stroke-linecap:round; stroke-linejoin:round; stroke-width:4; stroke-opacity:1; fill:none" points="141.853,1486.45 2352.76,1486.45 "/>
<polyline clip-path="url(#clip590)" style="stroke:#000000; stroke-linecap:round; stroke-linejoin:round; stroke-width:4; stroke-opacity:1; fill:none" points="263.457,1486.45 263.457,1467.55 "/>
<polyline clip-path="url(#clip590)" style="stroke:#000000; stroke-linecap:round; stroke-linejoin:round; stroke-width:4; stroke-opacity:1; fill:none" points="700.722,1486.45 700.722,1467.55 "/>
<polyline clip-path="url(#clip590)" style="stroke:#000000; stroke-linecap:round; stroke-linejoin:round; stroke-width:4; stroke-opacity:1; fill:none" points="1137.99,1486.45 1137.99,1467.55 "/>
<polyline clip-path="url(#clip590)" style="stroke:#000000; stroke-linecap:round; stroke-linejoin:round; stroke-width:4; stroke-opacity:1; fill:none" points="1575.25,1486.45 1575.25,1467.55 "/>
<polyline clip-path="url(#clip590)" style="stroke:#000000; stroke-linecap:round; stroke-linejoin:round; stroke-width:4; stroke-opacity:1; fill:none" points="2012.52,1486.45 2012.52,1467.55 "/>
<path clip-path="url(#clip590)" d="M236.547 1518.36 L224.741 1536.81 L236.547 1536.81 L236.547 1518.36 M235.32 1514.29 L241.2 1514.29 L241.2 1536.81 L246.13 1536.81 L246.13 1540.7 L241.2 1540.7 L241.2 1548.85 L236.547 1548.85 L236.547 1540.7 L220.945 1540.7 L220.945 1536.19 L235.32 1514.29 Z" fill="#000000" fill-rule="nonzero" fill-opacity="1" /><path clip-path="url(#clip590)" d="M263.862 1517.37 Q260.251 1517.37 258.422 1520.93 Q256.616 1524.47 256.616 1531.6 Q256.616 1538.71 258.422 1542.27 Q260.251 1545.82 263.862 1545.82 Q267.496 1545.82 269.301 1542.27 Q271.13 1538.71 271.13 1531.6 Q271.13 1524.47 269.301 1520.93 Q267.496 1517.37 263.862 1517.37 M263.862 1513.66 Q269.672 1513.66 272.727 1518.27 Q275.806 1522.85 275.806 1531.6 Q275.806 1540.33 272.727 1544.94 Q269.672 1549.52 263.862 1549.52 Q258.051 1549.52 254.973 1544.94 Q251.917 1540.33 251.917 1531.6 Q251.917 1522.85 254.973 1518.27 Q258.051 1513.66 263.862 1513.66 Z" fill="#000000" fill-rule="nonzero" fill-opacity="1" /><path clip-path="url(#clip590)" d="M294.024 1517.37 Q290.412 1517.37 288.584 1520.93 Q286.778 1524.47 286.778 1531.6 Q286.778 1538.71 288.584 1542.27 Q290.412 1545.82 294.024 1545.82 Q297.658 1545.82 299.463 1542.27 Q301.292 1538.71 301.292 1531.6 Q301.292 1524.47 299.463 1520.93 Q297.658 1517.37 294.024 1517.37 M294.024 1513.66 Q299.834 1513.66 302.889 1518.27 Q305.968 1522.85 305.968 1531.6 Q305.968 1540.33 302.889 1544.94 Q299.834 1549.52 294.024 1549.52 Q288.213 1549.52 285.135 1544.94 Q282.079 1540.33 282.079 1531.6 Q282.079 1522.85 285.135 1518.27 Q288.213 1513.66 294.024 1513.66 Z" fill="#000000" fill-rule="nonzero" fill-opacity="1" /><path clip-path="url(#clip590)" d="M673.813 1518.36 L662.007 1536.81 L673.813 1536.81 L673.813 1518.36 M672.586 1514.29 L678.465 1514.29 L678.465 1536.81 L683.396 1536.81 L683.396 1540.7 L678.465 1540.7 L678.465 1548.85 L673.813 1548.85 L673.813 1540.7 L658.211 1540.7 L658.211 1536.19 L672.586 1514.29 Z" fill="#000000" fill-rule="nonzero" fill-opacity="1" /><path clip-path="url(#clip590)" d="M691.174 1514.29 L709.53 1514.29 L709.53 1518.22 L695.456 1518.22 L695.456 1526.7 Q696.475 1526.35 697.493 1526.19 Q698.512 1526 699.53 1526 Q705.317 1526 708.697 1529.17 Q712.076 1532.34 712.076 1537.76 Q712.076 1543.34 708.604 1546.44 Q705.132 1549.52 698.813 1549.52 Q696.637 1549.52 694.368 1549.15 Q692.123 1548.78 689.715 1548.04 L689.715 1543.34 Q691.799 1544.47 694.021 1545.03 Q696.243 1545.58 698.72 1545.58 Q702.725 1545.58 705.063 1543.48 Q707.4 1541.37 707.4 1537.76 Q707.4 1534.15 705.063 1532.04 Q702.725 1529.94 698.72 1529.94 Q696.845 1529.94 694.97 1530.35 Q693.118 1530.77 691.174 1531.65 L691.174 1514.29 Z" fill="#000000" fill-rule="nonzero" fill-opacity="1" /><path clip-path="url(#clip590)" d="M731.289 1517.37 Q727.678 1517.37 725.849 1520.93 Q724.044 1524.47 724.044 1531.6 Q724.044 1538.71 725.849 1542.27 Q727.678 1545.82 731.289 1545.82 Q734.923 1545.82 736.729 1542.27 Q738.558 1538.71 738.558 1531.6 Q738.558 1524.47 736.729 1520.93 Q734.923 1517.37 731.289 1517.37 M731.289 1513.66 Q737.099 1513.66 740.155 1518.27 Q743.234 1522.85 743.234 1531.6 Q743.234 1540.33 740.155 1544.94 Q737.099 1549.52 731.289 1549.52 Q725.479 1549.52 722.4 1544.94 Q719.345 1540.33 719.345 1531.6 Q719.345 1522.85 722.4 1518.27 Q725.479 1513.66 731.289 1513.66 Z" fill="#000000" fill-rule="nonzero" fill-opacity="1" /><path clip-path="url(#clip590)" d="M1097.61 1514.29 L1115.96 1514.29 L1115.96 1518.22 L1101.89 1518.22 L1101.89 1526.7 Q1102.91 1526.35 1103.93 1526.19 Q1104.94 1526 1105.96 1526 Q1111.75 1526 1115.13 1529.17 Q1118.51 1532.34 1118.51 1537.76 Q1118.51 1543.34 1115.04 1546.44 Q1111.56 1549.52 1105.25 1549.52 Q1103.07 1549.52 1100.8 1549.15 Q1098.56 1548.78 1096.15 1548.04 L1096.15 1543.34 Q1098.23 1544.47 1100.45 1545.03 Q1102.68 1545.58 1105.15 1545.58 Q1109.16 1545.58 1111.5 1543.48 Q1113.83 1541.37 1113.83 1537.76 Q1113.83 1534.15 1111.5 1532.04 Q1109.16 1529.94 1105.15 1529.94 Q1103.28 1529.94 1101.4 1530.35 Q1099.55 1530.77 1097.61 1531.65 L1097.61 1514.29 Z" fill="#000000" fill-rule="nonzero" fill-opacity="1" /><path clip-path="url(#clip590)" d="M1137.72 1517.37 Q1134.11 1517.37 1132.28 1520.93 Q1130.48 1524.47 1130.48 1531.6 Q1130.48 1538.71 1132.28 1542.27 Q1134.11 1545.82 1137.72 1545.82 Q1141.36 1545.82 1143.16 1542.27 Q1144.99 1538.71 1144.99 1531.6 Q1144.99 1524.47 1143.16 1520.93 Q1141.36 1517.37 1137.72 1517.37 M1137.72 1513.66 Q1143.53 1513.66 1146.59 1518.27 Q1149.67 1522.85 1149.67 1531.6 Q1149.67 1540.33 1146.59 1544.94 Q1143.53 1549.52 1137.72 1549.52 Q1131.91 1549.52 1128.83 1544.94 Q1125.78 1540.33 1125.78 1531.6 Q1125.78 1522.85 1128.83 1518.27 Q1131.91 1513.66 1137.72 1513.66 Z" fill="#000000" fill-rule="nonzero" fill-opacity="1" /><path clip-path="url(#clip590)" d="M1167.88 1517.37 Q1164.27 1517.37 1162.44 1520.93 Q1160.64 1524.47 1160.64 1531.6 Q1160.64 1538.71 1162.44 1542.27 Q1164.27 1545.82 1167.88 1545.82 Q1171.52 1545.82 1173.32 1542.27 Q1175.15 1538.71 1175.15 1531.6 Q1175.15 1524.47 1173.32 1520.93 Q1171.52 1517.37 1167.88 1517.37 M1167.88 1513.66 Q1173.69 1513.66 1176.75 1518.27 Q1179.83 1522.85 1179.83 1531.6 Q1179.83 1540.33 1176.75 1544.94 Q1173.69 1549.52 1167.88 1549.52 Q1162.07 1549.52 1158.99 1544.94 Q1155.94 1540.33 1155.94 1531.6 Q1155.94 1522.85 1158.99 1518.27 Q1162.07 1513.66 1167.88 1513.66 Z" fill="#000000" fill-rule="nonzero" fill-opacity="1" /><path clip-path="url(#clip590)" d="M1534.87 1514.29 L1553.23 1514.29 L1553.23 1518.22 L1539.15 1518.22 L1539.15 1526.7 Q1540.17 1526.35 1541.19 1526.19 Q1542.21 1526 1543.23 1526 Q1549.02 1526 1552.4 1529.17 Q1555.77 1532.34 1555.77 1537.76 Q1555.77 1543.34 1552.3 1546.44 Q1548.83 1549.52 1542.51 1549.52 Q1540.33 1549.52 1538.07 1549.15 Q1535.82 1548.78 1533.41 1548.04 L1533.41 1543.34 Q1535.5 1544.47 1537.72 1545.03 Q1539.94 1545.58 1542.42 1545.58 Q1546.42 1545.58 1548.76 1543.48 Q1551.1 1541.37 1551.1 1537.76 Q1551.1 1534.15 1548.76 1532.04 Q1546.42 1529.94 1542.42 1529.94 Q1540.54 1529.94 1538.67 1530.35 Q1536.82 1530.77 1534.87 1531.65 L1534.87 1514.29 Z" fill="#000000" fill-rule="nonzero" fill-opacity="1" /><path clip-path="url(#clip590)" d="M1565.03 1514.29 L1583.39 1514.29 L1583.39 1518.22 L1569.32 1518.22 L1569.32 1526.7 Q1570.33 1526.35 1571.35 1526.19 Q1572.37 1526 1573.39 1526 Q1579.18 1526 1582.56 1529.17 Q1585.94 1532.34 1585.94 1537.76 Q1585.94 1543.34 1582.46 1546.44 Q1578.99 1549.52 1572.67 1549.52 Q1570.5 1549.52 1568.23 1549.15 Q1565.98 1548.78 1563.58 1548.04 L1563.58 1543.34 Q1565.66 1544.47 1567.88 1545.03 Q1570.1 1545.58 1572.58 1545.58 Q1576.58 1545.58 1578.92 1543.48 Q1581.26 1541.37 1581.26 1537.76 Q1581.26 1534.15 1578.92 1532.04 Q1576.58 1529.94 1572.58 1529.94 Q1570.71 1529.94 1568.83 1530.35 Q1566.98 1530.77 1565.03 1531.65 L1565.03 1514.29 Z" fill="#000000" fill-rule="nonzero" fill-opacity="1" /><path clip-path="url(#clip590)" d="M1605.15 1517.37 Q1601.54 1517.37 1599.71 1520.93 Q1597.9 1524.47 1597.9 1531.6 Q1597.9 1538.71 1599.71 1542.27 Q1601.54 1545.82 1605.15 1545.82 Q1608.78 1545.82 1610.59 1542.27 Q1612.42 1538.71 1612.42 1531.6 Q1612.42 1524.47 1610.59 1520.93 Q1608.78 1517.37 1605.15 1517.37 M1605.15 1513.66 Q1610.96 1513.66 1614.02 1518.27 Q1617.09 1522.85 1617.09 1531.6 Q1617.09 1540.33 1614.02 1544.94 Q1610.96 1549.52 1605.15 1549.52 Q1599.34 1549.52 1596.26 1544.94 Q1593.21 1540.33 1593.21 1531.6 Q1593.21 1522.85 1596.26 1518.27 Q1599.34 1513.66 1605.15 1513.66 Z" fill="#000000" fill-rule="nonzero" fill-opacity="1" /><path clip-path="url(#clip590)" d="M1982.84 1529.7 Q1979.7 1529.7 1977.84 1531.86 Q1976.02 1534.01 1976.02 1537.76 Q1976.02 1541.49 1977.84 1543.66 Q1979.7 1545.82 1982.84 1545.82 Q1985.99 1545.82 1987.82 1543.66 Q1989.67 1541.49 1989.67 1537.76 Q1989.67 1534.01 1987.82 1531.86 Q1985.99 1529.7 1982.84 1529.7 M1992.13 1515.05 L1992.13 1519.31 Q1990.37 1518.48 1988.56 1518.04 Q1986.78 1517.6 1985.02 1517.6 Q1980.39 1517.6 1977.94 1520.72 Q1975.51 1523.85 1975.16 1530.17 Q1976.52 1528.15 1978.58 1527.09 Q1980.64 1526 1983.12 1526 Q1988.33 1526 1991.34 1529.17 Q1994.37 1532.32 1994.37 1537.76 Q1994.37 1543.08 1991.22 1546.3 Q1988.08 1549.52 1982.84 1549.52 Q1976.85 1549.52 1973.68 1544.94 Q1970.51 1540.33 1970.51 1531.6 Q1970.51 1523.41 1974.39 1518.55 Q1978.28 1513.66 1984.83 1513.66 Q1986.59 1513.66 1988.38 1514.01 Q1990.18 1514.36 1992.13 1515.05 Z" fill="#000000" fill-rule="nonzero" fill-opacity="1" /><path clip-path="url(#clip590)" d="M2012.43 1517.37 Q2008.82 1517.37 2006.99 1520.93 Q2005.18 1524.47 2005.18 1531.6 Q2005.18 1538.71 2006.99 1542.27 Q2008.82 1545.82 2012.43 1545.82 Q2016.06 1545.82 2017.87 1542.27 Q2019.7 1538.71 2019.7 1531.6 Q2019.7 1524.47 2017.87 1520.93 Q2016.06 1517.37 2012.43 1517.37 M2012.43 1513.66 Q2018.24 1513.66 2021.29 1518.27 Q2024.37 1522.85 2024.37 1531.6 Q2024.37 1540.33 2021.29 1544.94 Q2018.24 1549.52 2012.43 1549.52 Q2006.62 1549.52 2003.54 1544.94 Q2000.48 1540.33 2000.48 1531.6 Q2000.48 1522.85 2003.54 1518.27 Q2006.62 1513.66 2012.43 1513.66 Z" fill="#000000" fill-rule="nonzero" fill-opacity="1" /><path clip-path="url(#clip590)" d="M2042.59 1517.37 Q2038.98 1517.37 2037.15 1520.93 Q2035.34 1524.47 2035.34 1531.6 Q2035.34 1538.71 2037.15 1542.27 Q2038.98 1545.82 2042.59 1545.82 Q2046.22 1545.82 2048.03 1542.27 Q2049.86 1538.71 2049.86 1531.6 Q2049.86 1524.47 2048.03 1520.93 Q2046.22 1517.37 2042.59 1517.37 M2042.59 1513.66 Q2048.4 1513.66 2051.45 1518.27 Q2054.53 1522.85 2054.53 1531.6 Q2054.53 1540.33 2051.45 1544.94 Q2048.4 1549.52 2042.59 1549.52 Q2036.78 1549.52 2033.7 1544.94 Q2030.64 1540.33 2030.64 1531.6 Q2030.64 1522.85 2033.7 1518.27 Q2036.78 1513.66 2042.59 1513.66 Z" fill="#000000" fill-rule="nonzero" fill-opacity="1" /><polyline clip-path="url(#clip590)" style="stroke:#000000; stroke-linecap:round; stroke-linejoin:round; stroke-width:4; stroke-opacity:1; fill:none" points="141.853,1486.45 141.853,47.2441 "/>
<polyline clip-path="url(#clip590)" style="stroke:#000000; stroke-linecap:round; stroke-linejoin:round; stroke-width:4; stroke-opacity:1; fill:none" points="141.853,1486.45 160.751,1486.45 "/>
<polyline clip-path="url(#clip590)" style="stroke:#000000; stroke-linecap:round; stroke-linejoin:round; stroke-width:4; stroke-opacity:1; fill:none" points="141.853,1159.36 160.751,1159.36 "/>
<polyline clip-path="url(#clip590)" style="stroke:#000000; stroke-linecap:round; stroke-linejoin:round; stroke-width:4; stroke-opacity:1; fill:none" points="141.853,832.264 160.751,832.264 "/>
<polyline clip-path="url(#clip590)" style="stroke:#000000; stroke-linecap:round; stroke-linejoin:round; stroke-width:4; stroke-opacity:1; fill:none" points="141.853,505.173 160.751,505.173 "/>
<polyline clip-path="url(#clip590)" style="stroke:#000000; stroke-linecap:round; stroke-linejoin:round; stroke-width:4; stroke-opacity:1; fill:none" points="141.853,178.081 160.751,178.081 "/>
<path clip-path="url(#clip590)" d="M93.9086 1472.25 Q90.2975 1472.25 88.4688 1475.81 Q86.6632 1479.35 86.6632 1486.48 Q86.6632 1493.59 88.4688 1497.15 Q90.2975 1500.7 93.9086 1500.7 Q97.5428 1500.7 99.3483 1497.15 Q101.177 1493.59 101.177 1486.48 Q101.177 1479.35 99.3483 1475.81 Q97.5428 1472.25 93.9086 1472.25 M93.9086 1468.54 Q99.7187 1468.54 102.774 1473.15 Q105.853 1477.73 105.853 1486.48 Q105.853 1495.21 102.774 1499.82 Q99.7187 1504.4 93.9086 1504.4 Q88.0984 1504.4 85.0197 1499.82 Q81.9642 1495.21 81.9642 1486.48 Q81.9642 1477.73 85.0197 1473.15 Q88.0984 1468.54 93.9086 1468.54 Z" fill="#000000" fill-rule="nonzero" fill-opacity="1" /><path clip-path="url(#clip590)" d="M57.7745 1172.7 L74.0939 1172.7 L74.0939 1176.64 L52.1495 1176.64 L52.1495 1172.7 Q54.8115 1169.95 59.3949 1165.32 Q64.0013 1160.66 65.1819 1159.32 Q67.4272 1156.8 68.3068 1155.06 Q69.2096 1153.3 69.2096 1151.61 Q69.2096 1148.86 67.2652 1147.12 Q65.3439 1145.39 62.2421 1145.39 Q60.043 1145.39 57.5893 1146.15 Q55.1588 1146.91 52.381 1148.46 L52.381 1143.74 Q55.2051 1142.61 57.6588 1142.03 Q60.1124 1141.45 62.1495 1141.45 Q67.5198 1141.45 70.7142 1144.14 Q73.9087 1146.82 73.9087 1151.31 Q73.9087 1153.44 73.0985 1155.36 Q72.3115 1157.26 70.205 1159.85 Q69.6263 1160.53 66.5245 1163.74 Q63.4226 1166.94 57.7745 1172.7 Z" fill="#000000" fill-rule="nonzero" fill-opacity="1" /><path clip-path="url(#clip590)" d="M93.9086 1145.15 Q90.2975 1145.15 88.4688 1148.72 Q86.6632 1152.26 86.6632 1159.39 Q86.6632 1166.5 88.4688 1170.06 Q90.2975 1173.6 93.9086 1173.6 Q97.5428 1173.6 99.3483 1170.06 Q101.177 1166.5 101.177 1159.39 Q101.177 1152.26 99.3483 1148.72 Q97.5428 1145.15 93.9086 1145.15 M93.9086 1141.45 Q99.7187 1141.45 102.774 1146.06 Q105.853 1150.64 105.853 1159.39 Q105.853 1168.12 102.774 1172.72 Q99.7187 1177.31 93.9086 1177.31 Q88.0984 1177.31 85.0197 1172.72 Q81.9642 1168.12 81.9642 1159.39 Q81.9642 1150.64 85.0197 1146.06 Q88.0984 1141.45 93.9086 1141.45 Z" fill="#000000" fill-rule="nonzero" fill-opacity="1" /><path clip-path="url(#clip590)" d="M66.5939 819.058 L54.7884 837.507 L66.5939 837.507 L66.5939 819.058 M65.367 814.984 L71.2466 814.984 L71.2466 837.507 L76.1772 837.507 L76.1772 841.396 L71.2466 841.396 L71.2466 849.544 L66.5939 849.544 L66.5939 841.396 L50.9921 841.396 L50.9921 836.882 L65.367 814.984 Z" fill="#000000" fill-rule="nonzero" fill-opacity="1" /><path clip-path="url(#clip590)" d="M93.9086 818.063 Q90.2975 818.063 88.4688 821.628 Q86.6632 825.169 86.6632 832.299 Q86.6632 839.406 88.4688 842.97 Q90.2975 846.512 93.9086 846.512 Q97.5428 846.512 99.3483 842.97 Q101.177 839.406 101.177 832.299 Q101.177 825.169 99.3483 821.628 Q97.5428 818.063 93.9086 818.063 M93.9086 814.359 Q99.7187 814.359 102.774 818.966 Q105.853 823.549 105.853 832.299 Q105.853 841.026 102.774 845.632 Q99.7187 850.216 93.9086 850.216 Q88.0984 850.216 85.0197 845.632 Q81.9642 841.026 81.9642 832.299 Q81.9642 823.549 85.0197 818.966 Q88.0984 814.359 93.9086 814.359 Z" fill="#000000" fill-rule="nonzero" fill-opacity="1" /><path clip-path="url(#clip590)" d="M64.3254 503.309 Q61.1773 503.309 59.3254 505.462 Q57.4967 507.615 57.4967 511.365 Q57.4967 515.091 59.3254 517.267 Q61.1773 519.42 64.3254 519.42 Q67.4735 519.42 69.3022 517.267 Q71.1541 515.091 71.1541 511.365 Q71.1541 507.615 69.3022 505.462 Q67.4735 503.309 64.3254 503.309 M73.6077 488.656 L73.6077 492.916 Q71.8485 492.082 70.0429 491.643 Q68.2606 491.203 66.5013 491.203 Q61.8717 491.203 59.418 494.328 Q56.9875 497.453 56.6402 503.772 Q58.006 501.758 60.0662 500.693 Q62.1263 499.605 64.6032 499.605 Q69.8115 499.605 72.8207 502.777 Q75.8531 505.925 75.8531 511.365 Q75.8531 516.689 72.705 519.906 Q69.5568 523.124 64.3254 523.124 Q58.33 523.124 55.1588 518.541 Q51.9875 513.934 51.9875 505.207 Q51.9875 497.013 55.8764 492.152 Q59.7652 487.268 66.3161 487.268 Q68.0754 487.268 69.8578 487.615 Q71.6633 487.962 73.6077 488.656 Z" fill="#000000" fill-rule="nonzero" fill-opacity="1" /><path clip-path="url(#clip590)" d="M93.9086 490.971 Q90.2975 490.971 88.4688 494.536 Q86.6632 498.078 86.6632 505.207 Q86.6632 512.314 88.4688 515.879 Q90.2975 519.42 93.9086 519.42 Q97.5428 519.42 99.3483 515.879 Q101.177 512.314 101.177 505.207 Q101.177 498.078 99.3483 494.536 Q97.5428 490.971 93.9086 490.971 M93.9086 487.268 Q99.7187 487.268 102.774 491.874 Q105.853 496.457 105.853 505.207 Q105.853 513.934 102.774 518.541 Q99.7187 523.124 93.9086 523.124 Q88.0984 523.124 85.0197 518.541 Q81.9642 513.934 81.9642 505.207 Q81.9642 496.457 85.0197 491.874 Q88.0984 487.268 93.9086 487.268 Z" fill="#000000" fill-rule="nonzero" fill-opacity="1" /><path clip-path="url(#clip590)" d="M63.7467 178.949 Q60.4134 178.949 58.4921 180.731 Q56.5939 182.514 56.5939 185.639 Q56.5939 188.764 58.4921 190.546 Q60.4134 192.328 63.7467 192.328 Q67.08 192.328 69.0013 190.546 Q70.9226 188.74 70.9226 185.639 Q70.9226 182.514 69.0013 180.731 Q67.1032 178.949 63.7467 178.949 M59.0708 176.958 Q56.0615 176.217 54.3717 174.157 Q52.7051 172.097 52.7051 169.134 Q52.7051 164.991 55.6449 162.583 Q58.6078 160.176 63.7467 160.176 Q68.9087 160.176 71.8485 162.583 Q74.7883 164.991 74.7883 169.134 Q74.7883 172.097 73.0985 174.157 Q71.4318 176.217 68.4457 176.958 Q71.8253 177.745 73.7003 180.037 Q75.5985 182.328 75.5985 185.639 Q75.5985 190.662 72.5198 193.347 Q69.4642 196.032 63.7467 196.032 Q58.0291 196.032 54.9504 193.347 Q51.8949 190.662 51.8949 185.639 Q51.8949 182.328 53.793 180.037 Q55.6912 177.745 59.0708 176.958 M57.3578 169.574 Q57.3578 172.259 59.0245 173.764 Q60.7143 175.268 63.7467 175.268 Q66.7559 175.268 68.4457 173.764 Q70.1587 172.259 70.1587 169.574 Q70.1587 166.889 68.4457 165.384 Q66.7559 163.879 63.7467 163.879 Q60.7143 163.879 59.0245 165.384 Q57.3578 166.889 57.3578 169.574 Z" fill="#000000" fill-rule="nonzero" fill-opacity="1" /><path clip-path="url(#clip590)" d="M93.9086 163.879 Q90.2975 163.879 88.4688 167.444 Q86.6632 170.986 86.6632 178.116 Q86.6632 185.222 88.4688 188.787 Q90.2975 192.328 93.9086 192.328 Q97.5428 192.328 99.3483 188.787 Q101.177 185.222 101.177 178.116 Q101.177 170.986 99.3483 167.444 Q97.5428 163.879 93.9086 163.879 M93.9086 160.176 Q99.7187 160.176 102.774 164.782 Q105.853 169.366 105.853 178.116 Q105.853 186.842 102.774 191.449 Q99.7187 196.032 93.9086 196.032 Q88.0984 196.032 85.0197 191.449 Q81.9642 186.842 81.9642 178.116 Q81.9642 169.366 85.0197 164.782 Q88.0984 160.176 93.9086 160.176 Z" fill="#000000" fill-rule="nonzero" fill-opacity="1" /><path clip-path="url(#clip592)" d="M263.457 1437.38 L263.457 1486.45 L482.089 1486.45 L482.089 1437.38 L263.457 1437.38 L263.457 1437.38  Z" fill="#009af9" fill-rule="evenodd" fill-opacity="1"/>
<polyline clip-path="url(#clip592)" style="stroke:#000000; stroke-linecap:round; stroke-linejoin:round; stroke-width:4; stroke-opacity:1; fill:none" points="263.457,1437.38 263.457,1486.45 482.089,1486.45 482.089,1437.38 263.457,1437.38 "/>
<path clip-path="url(#clip592)" d="M482.089 1437.38 L482.089 1486.45 L700.722 1486.45 L700.722 1437.38 L482.089 1437.38 L482.089 1437.38  Z" fill="#009af9" fill-rule="evenodd" fill-opacity="1"/>
<polyline clip-path="url(#clip592)" style="stroke:#000000; stroke-linecap:round; stroke-linejoin:round; stroke-width:4; stroke-opacity:1; fill:none" points="482.089,1437.38 482.089,1486.45 700.722,1486.45 700.722,1437.38 482.089,1437.38 "/>
<path clip-path="url(#clip592)" d="M700.722 1388.32 L700.722 1486.45 L919.355 1486.45 L919.355 1388.32 L700.722 1388.32 L700.722 1388.32  Z" fill="#009af9" fill-rule="evenodd" fill-opacity="1"/>
<polyline clip-path="url(#clip592)" style="stroke:#000000; stroke-linecap:round; stroke-linejoin:round; stroke-width:4; stroke-opacity:1; fill:none" points="700.722,1388.32 700.722,1486.45 919.355,1486.45 919.355,1388.32 700.722,1388.32 "/>
<path clip-path="url(#clip592)" d="M919.355 1388.32 L919.355 1486.45 L1137.99 1486.45 L1137.99 1388.32 L919.355 1388.32 L919.355 1388.32  Z" fill="#009af9" fill-rule="evenodd" fill-opacity="1"/>
<polyline clip-path="url(#clip592)" style="stroke:#000000; stroke-linecap:round; stroke-linejoin:round; stroke-width:4; stroke-opacity:1; fill:none" points="919.355,1388.32 919.355,1486.45 1137.99,1486.45 1137.99,1388.32 919.355,1388.32 "/>
<path clip-path="url(#clip592)" d="M1137.99 1322.9 L1137.99 1486.45 L1356.62 1486.45 L1356.62 1322.9 L1137.99 1322.9 L1137.99 1322.9  Z" fill="#009af9" fill-rule="evenodd" fill-opacity="1"/>
<polyline clip-path="url(#clip592)" style="stroke:#000000; stroke-linecap:round; stroke-linejoin:round; stroke-width:4; stroke-opacity:1; fill:none" points="1137.99,1322.9 1137.99,1486.45 1356.62,1486.45 1356.62,1322.9 1137.99,1322.9 "/>
<path clip-path="url(#clip592)" d="M1356.62 1273.84 L1356.62 1486.45 L1575.25 1486.45 L1575.25 1273.84 L1356.62 1273.84 L1356.62 1273.84  Z" fill="#009af9" fill-rule="evenodd" fill-opacity="1"/>
<polyline clip-path="url(#clip592)" style="stroke:#000000; stroke-linecap:round; stroke-linejoin:round; stroke-width:4; stroke-opacity:1; fill:none" points="1356.62,1273.84 1356.62,1486.45 1575.25,1486.45 1575.25,1273.84 1356.62,1273.84 "/>
<path clip-path="url(#clip592)" d="M1575.25 1339.26 L1575.25 1486.45 L1793.89 1486.45 L1793.89 1339.26 L1575.25 1339.26 L1575.25 1339.26  Z" fill="#009af9" fill-rule="evenodd" fill-opacity="1"/>
<polyline clip-path="url(#clip592)" style="stroke:#000000; stroke-linecap:round; stroke-linejoin:round; stroke-width:4; stroke-opacity:1; fill:none" points="1575.25,1339.26 1575.25,1486.45 1793.89,1486.45 1793.89,1339.26 1575.25,1339.26 "/>
<path clip-path="url(#clip592)" d="M1793.89 1388.32 L1793.89 1486.45 L2012.52 1486.45 L2012.52 1388.32 L1793.89 1388.32 L1793.89 1388.32  Z" fill="#009af9" fill-rule="evenodd" fill-opacity="1"/>
<polyline clip-path="url(#clip592)" style="stroke:#000000; stroke-linecap:round; stroke-linejoin:round; stroke-width:4; stroke-opacity:1; fill:none" points="1793.89,1388.32 1793.89,1486.45 2012.52,1486.45 2012.52,1388.32 1793.89,1388.32 "/>
<path clip-path="url(#clip592)" d="M2012.52 766.846 L2012.52 1486.45 L2231.15 1486.45 L2231.15 766.846 L2012.52 766.846 L2012.52 766.846  Z" fill="#009af9" fill-rule="evenodd" fill-opacity="1"/>
<polyline clip-path="url(#clip592)" style="stroke:#000000; stroke-linecap:round; stroke-linejoin:round; stroke-width:4; stroke-opacity:1; fill:none" points="2012.52,766.846 2012.52,1486.45 2231.15,1486.45 2231.15,766.846 2012.52,766.846 "/>
<circle clip-path="url(#clip592)" style="fill:#009af9; stroke:none; fill-opacity:0" cx="372.773" cy="1437.38" r="2"/>
<circle clip-path="url(#clip592)" style="fill:#009af9; stroke:none; fill-opacity:0" cx="591.406" cy="1437.38" r="2"/>
<circle clip-path="url(#clip592)" style="fill:#009af9; stroke:none; fill-opacity:0" cx="810.039" cy="1388.32" r="2"/>
<circle clip-path="url(#clip592)" style="fill:#009af9; stroke:none; fill-opacity:0" cx="1028.67" cy="1388.32" r="2"/>
<circle clip-path="url(#clip592)" style="fill:#009af9; stroke:none; fill-opacity:0" cx="1247.3" cy="1322.9" r="2"/>
<circle clip-path="url(#clip592)" style="fill:#009af9; stroke:none; fill-opacity:0" cx="1465.94" cy="1273.84" r="2"/>
<circle clip-path="url(#clip592)" style="fill:#009af9; stroke:none; fill-opacity:0" cx="1684.57" cy="1339.26" r="2"/>
<circle clip-path="url(#clip592)" style="fill:#009af9; stroke:none; fill-opacity:0" cx="1903.2" cy="1388.32" r="2"/>
<circle clip-path="url(#clip592)" style="fill:#009af9; stroke:none; fill-opacity:0" cx="2121.84" cy="766.846" r="2"/>
<path clip-path="url(#clip592)" d="M263.457 1486.45 L263.457 1486.45 L482.089 1486.45 L482.089 1486.45 L263.457 1486.45 L263.457 1486.45  Z" fill="#e26f46" fill-rule="evenodd" fill-opacity="0.5"/>
<polyline clip-path="url(#clip592)" style="stroke:#000000; stroke-linecap:round; stroke-linejoin:round; stroke-width:4; stroke-opacity:0.5; fill:none" points="263.457,1486.45 263.457,1486.45 482.089,1486.45 263.457,1486.45 "/>
<path clip-path="url(#clip592)" d="M482.089 1453.74 L482.089 1486.45 L700.722 1486.45 L700.722 1453.74 L482.089 1453.74 L482.089 1453.74  Z" fill="#e26f46" fill-rule="evenodd" fill-opacity="0.5"/>
<polyline clip-path="url(#clip592)" style="stroke:#000000; stroke-linecap:round; stroke-linejoin:round; stroke-width:4; stroke-opacity:0.5; fill:none" points="482.089,1453.74 482.089,1486.45 700.722,1486.45 700.722,1453.74 482.089,1453.74 "/>
<path clip-path="url(#clip592)" d="M700.722 1437.38 L700.722 1486.45 L919.355 1486.45 L919.355 1437.38 L700.722 1437.38 L700.722 1437.38  Z" fill="#e26f46" fill-rule="evenodd" fill-opacity="0.5"/>
<polyline clip-path="url(#clip592)" style="stroke:#000000; stroke-linecap:round; stroke-linejoin:round; stroke-width:4; stroke-opacity:0.5; fill:none" points="700.722,1437.38 700.722,1486.45 919.355,1486.45 919.355,1437.38 700.722,1437.38 "/>
<path clip-path="url(#clip592)" d="M919.355 1437.38 L919.355 1486.45 L1137.99 1486.45 L1137.99 1437.38 L919.355 1437.38 L919.355 1437.38  Z" fill="#e26f46" fill-rule="evenodd" fill-opacity="0.5"/>
<polyline clip-path="url(#clip592)" style="stroke:#000000; stroke-linecap:round; stroke-linejoin:round; stroke-width:4; stroke-opacity:0.5; fill:none" points="919.355,1437.38 919.355,1486.45 1137.99,1486.45 1137.99,1437.38 919.355,1437.38 "/>
<path clip-path="url(#clip592)" d="M1137.99 1421.03 L1137.99 1486.45 L1356.62 1486.45 L1356.62 1421.03 L1137.99 1421.03 L1137.99 1421.03  Z" fill="#e26f46" fill-rule="evenodd" fill-opacity="0.5"/>
<polyline clip-path="url(#clip592)" style="stroke:#000000; stroke-linecap:round; stroke-linejoin:round; stroke-width:4; stroke-opacity:0.5; fill:none" points="1137.99,1421.03 1137.99,1486.45 1356.62,1486.45 1356.62,1421.03 1137.99,1421.03 "/>
<path clip-path="url(#clip592)" d="M1356.62 47.2441 L1356.62 1486.45 L1575.25 1486.45 L1575.25 47.2441 L1356.62 47.2441 L1356.62 47.2441  Z" fill="#e26f46" fill-rule="evenodd" fill-opacity="0.5"/>
<polyline clip-path="url(#clip592)" style="stroke:#000000; stroke-linecap:round; stroke-linejoin:round; stroke-width:4; stroke-opacity:0.5; fill:none" points="1356.62,47.2441 1356.62,1486.45 1575.25,1486.45 1575.25,47.2441 1356.62,47.2441 "/>
<path clip-path="url(#clip592)" d="M1575.25 1486.45 L1575.25 1486.45 L1793.89 1486.45 L1793.89 1486.45 L1575.25 1486.45 L1575.25 1486.45  Z" fill="#e26f46" fill-rule="evenodd" fill-opacity="0.5"/>
<polyline clip-path="url(#clip592)" style="stroke:#000000; stroke-linecap:round; stroke-linejoin:round; stroke-width:4; stroke-opacity:0.5; fill:none" points="1575.25,1486.45 1575.25,1486.45 1793.89,1486.45 1575.25,1486.45 "/>
<path clip-path="url(#clip592)" d="M1793.89 1486.45 L1793.89 1486.45 L2012.52 1486.45 L2012.52 1486.45 L1793.89 1486.45 L1793.89 1486.45  Z" fill="#e26f46" fill-rule="evenodd" fill-opacity="0.5"/>
<polyline clip-path="url(#clip592)" style="stroke:#000000; stroke-linecap:round; stroke-linejoin:round; stroke-width:4; stroke-opacity:0.5; fill:none" points="1793.89,1486.45 1793.89,1486.45 2012.52,1486.45 1793.89,1486.45 "/>
<path clip-path="url(#clip592)" d="M2012.52 1486.45 L2012.52 1486.45 L2231.15 1486.45 L2231.15 1486.45 L2012.52 1486.45 L2012.52 1486.45  Z" fill="#e26f46" fill-rule="evenodd" fill-opacity="0.5"/>
<polyline clip-path="url(#clip592)" style="stroke:#000000; stroke-linecap:round; stroke-linejoin:round; stroke-width:4; stroke-opacity:0.5; fill:none" points="2012.52,1486.45 2012.52,1486.45 2231.15,1486.45 2012.52,1486.45 "/>
<circle clip-path="url(#clip592)" style="fill:#e26f46; stroke:none; fill-opacity:0" cx="372.773" cy="1486.45" r="2"/>
<circle clip-path="url(#clip592)" style="fill:#e26f46; stroke:none; fill-opacity:0" cx="591.406" cy="1453.74" r="2"/>
<circle clip-path="url(#clip592)" style="fill:#e26f46; stroke:none; fill-opacity:0" cx="810.039" cy="1437.38" r="2"/>
<circle clip-path="url(#clip592)" style="fill:#e26f46; stroke:none; fill-opacity:0" cx="1028.67" cy="1437.38" r="2"/>
<circle clip-path="url(#clip592)" style="fill:#e26f46; stroke:none; fill-opacity:0" cx="1247.3" cy="1421.03" r="2"/>
<circle clip-path="url(#clip592)" style="fill:#e26f46; stroke:none; fill-opacity:0" cx="1465.94" cy="47.2441" r="2"/>
<circle clip-path="url(#clip592)" style="fill:#e26f46; stroke:none; fill-opacity:0" cx="1684.57" cy="1486.45" r="2"/>
<circle clip-path="url(#clip592)" style="fill:#e26f46; stroke:none; fill-opacity:0" cx="1903.2" cy="1486.45" r="2"/>
<circle clip-path="url(#clip592)" style="fill:#e26f46; stroke:none; fill-opacity:0" cx="2121.84" cy="1486.45" r="2"/>
<path clip-path="url(#clip590)" d="M1784.87 250.738 L2279.06 250.738 L2279.06 95.2176 L1784.87 95.2176  Z" fill="#ffffff" fill-rule="evenodd" fill-opacity="1"/>
<polyline clip-path="url(#clip590)" style="stroke:#000000; stroke-linecap:round; stroke-linejoin:round; stroke-width:4; stroke-opacity:1; fill:none" points="1784.87,250.738 2279.06,250.738 2279.06,95.2176 1784.87,95.2176 1784.87,250.738 "/>
<path clip-path="url(#clip590)" d="M1809.43 167.794 L1956.83 167.794 L1956.83 126.322 L1809.43 126.322 L1809.43 167.794  Z" fill="#009af9" fill-rule="evenodd" fill-opacity="1"/>
<polyline clip-path="url(#clip590)" style="stroke:#000000; stroke-linecap:round; stroke-linejoin:round; stroke-width:4; stroke-opacity:1; fill:none" points="1809.43,167.794 1956.83,167.794 1956.83,126.322 1809.43,126.322 1809.43,167.794 "/>
<path clip-path="url(#clip590)" d="M1981.39 129.778 L2003.24 129.778 L2003.24 133.713 L1986.07 133.713 L1986.07 143.944 L2002.53 143.944 L2002.53 147.879 L1986.07 147.879 L1986.07 160.402 L2003.66 160.402 L2003.66 164.338 L1981.39 164.338 L1981.39 129.778 Z" fill="#000000" fill-rule="nonzero" fill-opacity="1" /><path clip-path="url(#clip590)" d="M2032.71 138.412 L2023.34 151.027 L2033.2 164.338 L2028.18 164.338 L2020.63 154.152 L2013.08 164.338 L2008.06 164.338 L2018.13 150.773 L2008.92 138.412 L2013.94 138.412 L2020.81 147.648 L2027.69 138.412 L2032.71 138.412 Z" fill="#000000" fill-rule="nonzero" fill-opacity="1" /><path clip-path="url(#clip590)" d="M2043.34 160.449 L2043.34 174.199 L2039.05 174.199 L2039.05 138.412 L2043.34 138.412 L2043.34 142.347 Q2044.68 140.032 2046.72 138.921 Q2048.78 137.787 2051.62 137.787 Q2056.35 137.787 2059.29 141.537 Q2062.25 145.287 2062.25 151.398 Q2062.25 157.509 2059.29 161.259 Q2056.35 165.009 2051.62 165.009 Q2048.78 165.009 2046.72 163.898 Q2044.68 162.763 2043.34 160.449 M2057.83 151.398 Q2057.83 146.699 2055.88 144.037 Q2053.96 141.352 2050.58 141.352 Q2047.2 141.352 2045.26 144.037 Q2043.34 146.699 2043.34 151.398 Q2043.34 156.097 2045.26 158.782 Q2047.2 161.444 2050.58 161.444 Q2053.96 161.444 2055.88 158.782 Q2057.83 156.097 2057.83 151.398 Z" fill="#000000" fill-rule="nonzero" fill-opacity="1" /><path clip-path="url(#clip590)" d="M2091.49 150.31 L2091.49 152.393 L2071.9 152.393 Q2072.18 156.791 2074.54 159.106 Q2076.93 161.398 2081.16 161.398 Q2083.61 161.398 2085.91 160.796 Q2088.22 160.194 2090.49 158.99 L2090.49 163.018 Q2088.2 163.99 2085.79 164.5 Q2083.38 165.009 2080.91 165.009 Q2074.7 165.009 2071.07 161.398 Q2067.46 157.787 2067.46 151.629 Q2067.46 145.264 2070.88 141.537 Q2074.33 137.787 2080.17 137.787 Q2085.4 137.787 2088.43 141.166 Q2091.49 144.523 2091.49 150.31 M2087.23 149.06 Q2087.18 145.565 2085.26 143.481 Q2083.36 141.398 2080.21 141.398 Q2076.65 141.398 2074.49 143.412 Q2072.36 145.426 2072.04 149.083 L2087.23 149.06 Z" fill="#000000" fill-rule="nonzero" fill-opacity="1" /><path clip-path="url(#clip590)" d="M2117.13 139.407 L2117.13 143.389 Q2115.33 142.393 2113.5 141.907 Q2111.69 141.398 2109.84 141.398 Q2105.7 141.398 2103.41 144.037 Q2101.11 146.652 2101.11 151.398 Q2101.11 156.143 2103.41 158.782 Q2105.7 161.398 2109.84 161.398 Q2111.69 161.398 2113.5 160.912 Q2115.33 160.402 2117.13 159.407 L2117.13 163.342 Q2115.35 164.176 2113.43 164.592 Q2111.53 165.009 2109.38 165.009 Q2103.52 165.009 2100.07 161.328 Q2096.62 157.648 2096.62 151.398 Q2096.62 145.055 2100.1 141.421 Q2103.59 137.787 2109.66 137.787 Q2111.62 137.787 2113.5 138.203 Q2115.37 138.597 2117.13 139.407 Z" fill="#000000" fill-rule="nonzero" fill-opacity="1" /><path clip-path="url(#clip590)" d="M2128.75 131.051 L2128.75 138.412 L2137.53 138.412 L2137.53 141.722 L2128.75 141.722 L2128.75 155.796 Q2128.75 158.967 2129.61 159.87 Q2130.49 160.773 2133.15 160.773 L2137.53 160.773 L2137.53 164.338 L2133.15 164.338 Q2128.22 164.338 2126.35 162.509 Q2124.47 160.657 2124.47 155.796 L2124.47 141.722 L2121.35 141.722 L2121.35 138.412 L2124.47 138.412 L2124.47 131.051 L2128.75 131.051 Z" fill="#000000" fill-rule="nonzero" fill-opacity="1" /><path clip-path="url(#clip590)" d="M2154.91 151.305 Q2149.75 151.305 2147.76 152.486 Q2145.77 153.666 2145.77 156.514 Q2145.77 158.782 2147.25 160.125 Q2148.75 161.444 2151.32 161.444 Q2154.86 161.444 2156.99 158.944 Q2159.15 156.421 2159.15 152.254 L2159.15 151.305 L2154.91 151.305 M2163.41 149.546 L2163.41 164.338 L2159.15 164.338 L2159.15 160.402 Q2157.69 162.763 2155.51 163.898 Q2153.34 165.009 2150.19 165.009 Q2146.21 165.009 2143.85 162.787 Q2141.51 160.541 2141.51 156.791 Q2141.51 152.416 2144.42 150.194 Q2147.36 147.972 2153.17 147.972 L2159.15 147.972 L2159.15 147.555 Q2159.15 144.615 2157.2 143.018 Q2155.28 141.398 2151.79 141.398 Q2149.56 141.398 2147.46 141.93 Q2145.35 142.463 2143.41 143.527 L2143.41 139.592 Q2145.74 138.69 2147.94 138.25 Q2150.14 137.787 2152.23 137.787 Q2157.85 137.787 2160.63 140.703 Q2163.41 143.62 2163.41 149.546 Z" fill="#000000" fill-rule="nonzero" fill-opacity="1" /><path clip-path="url(#clip590)" d="M2176.39 131.051 L2176.39 138.412 L2185.17 138.412 L2185.17 141.722 L2176.39 141.722 L2176.39 155.796 Q2176.39 158.967 2177.25 159.87 Q2178.13 160.773 2180.79 160.773 L2185.17 160.773 L2185.17 164.338 L2180.79 164.338 Q2175.86 164.338 2173.98 162.509 Q2172.11 160.657 2172.11 155.796 L2172.11 141.722 L2168.98 141.722 L2168.98 138.412 L2172.11 138.412 L2172.11 131.051 L2176.39 131.051 Z" fill="#000000" fill-rule="nonzero" fill-opacity="1" /><path clip-path="url(#clip590)" d="M2190.77 138.412 L2195.03 138.412 L2195.03 164.338 L2190.77 164.338 L2190.77 138.412 M2190.77 128.319 L2195.03 128.319 L2195.03 133.713 L2190.77 133.713 L2190.77 128.319 Z" fill="#000000" fill-rule="nonzero" fill-opacity="1" /><path clip-path="url(#clip590)" d="M2213.98 141.398 Q2210.56 141.398 2208.57 144.083 Q2206.58 146.745 2206.58 151.398 Q2206.58 156.051 2208.54 158.736 Q2210.54 161.398 2213.98 161.398 Q2217.39 161.398 2219.38 158.713 Q2221.37 156.027 2221.37 151.398 Q2221.37 146.791 2219.38 144.106 Q2217.39 141.398 2213.98 141.398 M2213.98 137.787 Q2219.54 137.787 2222.71 141.398 Q2225.88 145.009 2225.88 151.398 Q2225.88 157.764 2222.71 161.398 Q2219.54 165.009 2213.98 165.009 Q2208.41 165.009 2205.23 161.398 Q2202.09 157.764 2202.09 151.398 Q2202.09 145.009 2205.23 141.398 Q2208.41 137.787 2213.98 137.787 Z" fill="#000000" fill-rule="nonzero" fill-opacity="1" /><path clip-path="url(#clip590)" d="M2254.49 148.689 L2254.49 164.338 L2250.23 164.338 L2250.23 148.828 Q2250.23 145.148 2248.8 143.319 Q2247.36 141.49 2244.49 141.49 Q2241.04 141.49 2239.05 143.69 Q2237.06 145.889 2237.06 149.685 L2237.06 164.338 L2232.78 164.338 L2232.78 138.412 L2237.06 138.412 L2237.06 142.44 Q2238.59 140.102 2240.65 138.944 Q2242.73 137.787 2245.44 137.787 Q2249.91 137.787 2252.2 140.565 Q2254.49 143.319 2254.49 148.689 Z" fill="#000000" fill-rule="nonzero" fill-opacity="1" /><path clip-path="url(#clip590)" d="M1809.43 219.634 L1956.83 219.634 L1956.83 178.162 L1809.43 178.162 L1809.43 219.634  Z" fill="#e26f46" fill-rule="evenodd" fill-opacity="0.5"/>
<polyline clip-path="url(#clip590)" style="stroke:#000000; stroke-linecap:round; stroke-linejoin:round; stroke-width:4; stroke-opacity:1; fill:none" points="1809.43,219.634 1956.83,219.634 1956.83,178.162 1809.43,178.162 1809.43,219.634 "/>
<path clip-path="url(#clip590)" d="M2009.26 184.28 L2009.26 189.21 Q2006.9 187.011 2004.22 185.923 Q2001.56 184.835 1998.55 184.835 Q1992.62 184.835 1989.47 188.469 Q1986.32 192.08 1986.32 198.932 Q1986.32 205.761 1989.47 209.395 Q1992.62 213.006 1998.55 213.006 Q2001.56 213.006 2004.22 211.918 Q2006.9 210.83 2009.26 208.631 L2009.26 213.516 Q2006.81 215.182 2004.06 216.016 Q2001.32 216.849 1998.27 216.849 Q1990.42 216.849 1985.91 212.057 Q1981.39 207.242 1981.39 198.932 Q1981.39 190.599 1985.91 185.807 Q1990.42 180.993 1998.27 180.993 Q2001.37 180.993 2004.1 181.826 Q2006.86 182.636 2009.26 184.28 Z" fill="#000000" fill-rule="nonzero" fill-opacity="1" /><path clip-path="url(#clip590)" d="M2025.4 216.178 L2012.2 181.618 L2017.09 181.618 L2028.04 210.715 L2039.01 181.618 L2043.87 181.618 L2030.7 216.178 L2025.4 216.178 Z" fill="#000000" fill-rule="nonzero" fill-opacity="1" /><path clip-path="url(#clip590)" d="M2061.9 203.747 Q2061.9 207.057 2063.55 208.955 Q2065.19 210.83 2068.06 210.83 Q2070.91 210.83 2072.53 208.932 Q2074.17 207.034 2074.17 203.747 Q2074.17 200.506 2072.5 198.608 Q2070.84 196.687 2068.01 196.687 Q2065.21 196.687 2063.55 198.585 Q2061.9 200.483 2061.9 203.747 M2074.52 210.668 Q2073.13 212.451 2071.32 213.307 Q2069.54 214.141 2067.16 214.141 Q2063.18 214.141 2060.68 211.27 Q2058.2 208.377 2058.2 203.747 Q2058.2 199.117 2060.7 196.224 Q2063.2 193.33 2067.16 193.33 Q2069.54 193.33 2071.35 194.21 Q2073.15 195.067 2074.52 196.826 L2074.52 193.793 L2077.83 193.793 L2077.83 210.83 Q2081.21 210.321 2083.11 207.752 Q2085.03 205.159 2085.03 201.062 Q2085.03 198.585 2084.29 196.409 Q2083.57 194.233 2082.09 192.381 Q2079.68 189.349 2076.21 187.752 Q2072.76 186.131 2068.68 186.131 Q2065.84 186.131 2063.22 186.895 Q2060.61 187.636 2058.38 189.118 Q2054.75 191.479 2052.69 195.321 Q2050.65 199.141 2050.65 203.608 Q2050.65 207.289 2051.97 210.506 Q2053.31 213.724 2055.84 216.178 Q2058.27 218.585 2061.46 219.835 Q2064.66 221.108 2068.29 221.108 Q2071.28 221.108 2074.15 220.09 Q2077.04 219.094 2079.45 217.219 L2081.53 219.789 Q2078.64 222.034 2075.21 223.215 Q2071.81 224.418 2068.29 224.418 Q2064.01 224.418 2060.21 222.89 Q2056.42 221.386 2053.45 218.492 Q2050.49 215.599 2048.94 211.803 Q2047.39 207.983 2047.39 203.608 Q2047.39 199.395 2048.96 195.576 Q2050.54 191.756 2053.45 188.863 Q2056.44 185.923 2060.35 184.372 Q2064.26 182.798 2068.64 182.798 Q2073.55 182.798 2077.74 184.812 Q2081.95 186.826 2084.8 190.53 Q2086.53 192.798 2087.43 195.46 Q2088.36 198.122 2088.36 200.969 Q2088.36 207.057 2084.68 210.576 Q2081 214.094 2074.52 214.233 L2074.52 210.668 Z" fill="#000000" fill-rule="nonzero" fill-opacity="1" /><path clip-path="url(#clip590)" d="M2112.71 199.974 Q2114.22 200.483 2115.63 202.15 Q2117.06 203.817 2118.5 206.733 L2123.24 216.178 L2118.22 216.178 L2113.8 207.312 Q2112.09 203.84 2110.47 202.705 Q2108.87 201.571 2106.09 201.571 L2101 201.571 L2101 216.178 L2096.32 216.178 L2096.32 181.618 L2106.88 181.618 Q2112.8 181.618 2115.72 184.094 Q2118.64 186.571 2118.64 191.571 Q2118.64 194.835 2117.11 196.988 Q2115.61 199.141 2112.71 199.974 M2101 185.46 L2101 197.729 L2106.88 197.729 Q2110.26 197.729 2111.97 196.178 Q2113.71 194.604 2113.71 191.571 Q2113.71 188.539 2111.97 187.011 Q2110.26 185.46 2106.88 185.46 L2101 185.46 Z" fill="#000000" fill-rule="nonzero" fill-opacity="1" /></svg>
