<?xml version="1.0" encoding="utf-8"?>
<svg xmlns="http://www.w3.org/2000/svg" xmlns:xlink="http://www.w3.org/1999/xlink" width="600" height="400" viewBox="0 0 2400 1600">
<defs>
  <clipPath id="clip620">
    <rect x="0" y="0" width="2400" height="1600"/>
  </clipPath>
</defs>
<path clip-path="url(#clip620)" d="M0 1600 L2400 1600 L2400 0 L0 0  Z" fill="#ffffff" fill-rule="evenodd" fill-opacity="1"/>
<defs>
  <clipPath id="clip621">
    <rect x="480" y="0" width="1681" height="1600"/>
  </clipPath>
</defs>
<path clip-path="url(#clip620)" d="M169.121 1486.45 L2352.76 1486.45 L2352.76 47.2441 L169.121 47.2441  Z" fill="#ffffff" fill-rule="evenodd" fill-opacity="1"/>
<defs>
  <clipPath id="clip622">
    <rect x="169" y="47" width="2185" height="1440"/>
  </clipPath>
</defs>
<polyline clip-path="url(#clip622)" style="stroke:#000000; stroke-linecap:round; stroke-linejoin:round; stroke-width:2; stroke-opacity:0.1; fill:none" points="214.497,1486.45 214.497,47.2441 "/>
<polyline clip-path="url(#clip622)" style="stroke:#000000; stroke-linecap:round; stroke-linejoin:round; stroke-width:2; stroke-opacity:0.1; fill:none" points="733.661,1486.45 733.661,47.2441 "/>
<polyline clip-path="url(#clip622)" style="stroke:#000000; stroke-linecap:round; stroke-linejoin:round; stroke-width:2; stroke-opacity:0.1; fill:none" points="1252.83,1486.45 1252.83,47.2441 "/>
<polyline clip-path="url(#clip622)" style="stroke:#000000; stroke-linecap:round; stroke-linejoin:round; stroke-width:2; stroke-opacity:0.1; fill:none" points="1771.99,1486.45 1771.99,47.2441 "/>
<polyline clip-path="url(#clip622)" style="stroke:#000000; stroke-linecap:round; stroke-linejoin:round; stroke-width:2; stroke-opacity:0.1; fill:none" points="2291.15,1486.45 2291.15,47.2441 "/>
<polyline clip-path="url(#clip620)" style="stroke:#000000; stroke-linecap:round; stroke-linejoin:round; stroke-width:4; stroke-opacity:1; fill:none" points="169.121,1486.45 2352.76,1486.45 "/>
<polyline clip-path="url(#clip620)" style="stroke:#000000; stroke-linecap:round; stroke-linejoin:round; stroke-width:4; stroke-opacity:1; fill:none" points="214.497,1486.45 214.497,1467.55 "/>
<polyline clip-path="url(#clip620)" style="stroke:#000000; stroke-linecap:round; stroke-linejoin:round; stroke-width:4; stroke-opacity:1; fill:none" points="733.661,1486.45 733.661,1467.55 "/>
<polyline clip-path="url(#clip620)" style="stroke:#000000; stroke-linecap:round; stroke-linejoin:round; stroke-width:4; stroke-opacity:1; fill:none" points="1252.83,1486.45 1252.83,1467.55 "/>
<polyline clip-path="url(#clip620)" style="stroke:#000000; stroke-linecap:round; stroke-linejoin:round; stroke-width:4; stroke-opacity:1; fill:none" points="1771.99,1486.45 1771.99,1467.55 "/>
<polyline clip-path="url(#clip620)" style="stroke:#000000; stroke-linecap:round; stroke-linejoin:round; stroke-width:4; stroke-opacity:1; fill:none" points="2291.15,1486.45 2291.15,1467.55 "/>
<path clip-path="url(#clip620)" d="M214.497 1517.37 Q210.886 1517.37 209.058 1520.93 Q207.252 1524.47 207.252 1531.6 Q207.252 1538.71 209.058 1542.27 Q210.886 1545.82 214.497 1545.82 Q218.132 1545.82 219.937 1542.27 Q221.766 1538.71 221.766 1531.6 Q221.766 1524.47 219.937 1520.93 Q218.132 1517.37 214.497 1517.37 M214.497 1513.66 Q220.308 1513.66 223.363 1518.27 Q226.442 1522.85 226.442 1531.6 Q226.442 1540.33 223.363 1544.94 Q220.308 1549.52 214.497 1549.52 Q208.687 1549.52 205.609 1544.94 Q202.553 1540.33 202.553 1531.6 Q202.553 1522.85 205.609 1518.27 Q208.687 1513.66 214.497 1513.66 Z" fill="#000000" fill-rule="nonzero" fill-opacity="1" /><path clip-path="url(#clip620)" d="M712.932 1544.91 L729.252 1544.91 L729.252 1548.85 L707.307 1548.85 L707.307 1544.91 Q709.969 1542.16 714.553 1537.53 Q719.159 1532.88 720.34 1531.53 Q722.585 1529.01 723.465 1527.27 Q724.367 1525.51 724.367 1523.82 Q724.367 1521.07 722.423 1519.33 Q720.502 1517.6 717.4 1517.6 Q715.201 1517.6 712.747 1518.36 Q710.317 1519.13 707.539 1520.68 L707.539 1515.95 Q710.363 1514.82 712.817 1514.24 Q715.27 1513.66 717.307 1513.66 Q722.678 1513.66 725.872 1516.35 Q729.066 1519.03 729.066 1523.52 Q729.066 1525.65 728.256 1527.57 Q727.469 1529.47 725.363 1532.07 Q724.784 1532.74 721.682 1535.95 Q718.58 1539.15 712.932 1544.91 Z" fill="#000000" fill-rule="nonzero" fill-opacity="1" /><path clip-path="url(#clip620)" d="M739.113 1514.29 L757.469 1514.29 L757.469 1518.22 L743.395 1518.22 L743.395 1526.7 Q744.414 1526.35 745.432 1526.19 Q746.451 1526 747.469 1526 Q753.256 1526 756.636 1529.17 Q760.015 1532.34 760.015 1537.76 Q760.015 1543.34 756.543 1546.44 Q753.071 1549.52 746.752 1549.52 Q744.576 1549.52 742.307 1549.15 Q740.062 1548.78 737.654 1548.04 L737.654 1543.34 Q739.738 1544.47 741.96 1545.03 Q744.182 1545.58 746.659 1545.58 Q750.664 1545.58 753.001 1543.48 Q755.339 1541.37 755.339 1537.76 Q755.339 1534.15 753.001 1532.04 Q750.664 1529.94 746.659 1529.94 Q744.784 1529.94 742.909 1530.35 Q741.057 1530.77 739.113 1531.65 L739.113 1514.29 Z" fill="#000000" fill-rule="nonzero" fill-opacity="1" /><path clip-path="url(#clip620)" d="M1227.52 1514.29 L1245.88 1514.29 L1245.88 1518.22 L1231.81 1518.22 L1231.81 1526.7 Q1232.83 1526.35 1233.84 1526.19 Q1234.86 1526 1235.88 1526 Q1241.67 1526 1245.05 1529.17 Q1248.43 1532.34 1248.43 1537.76 Q1248.43 1543.34 1244.95 1546.44 Q1241.48 1549.52 1235.16 1549.52 Q1232.99 1549.52 1230.72 1549.15 Q1228.47 1548.78 1226.07 1548.04 L1226.07 1543.34 Q1228.15 1544.47 1230.37 1545.03 Q1232.59 1545.58 1235.07 1545.58 Q1239.08 1545.58 1241.41 1543.48 Q1243.75 1541.37 1243.75 1537.76 Q1243.75 1534.15 1241.41 1532.04 Q1239.08 1529.94 1235.07 1529.94 Q1233.2 1529.94 1231.32 1530.35 Q1229.47 1530.77 1227.52 1531.65 L1227.52 1514.29 Z" fill="#000000" fill-rule="nonzero" fill-opacity="1" /><path clip-path="url(#clip620)" d="M1267.64 1517.37 Q1264.03 1517.37 1262.2 1520.93 Q1260.39 1524.47 1260.39 1531.6 Q1260.39 1538.71 1262.2 1542.27 Q1264.03 1545.82 1267.64 1545.82 Q1271.27 1545.82 1273.08 1542.27 Q1274.91 1538.71 1274.91 1531.6 Q1274.91 1524.47 1273.08 1520.93 Q1271.27 1517.37 1267.64 1517.37 M1267.64 1513.66 Q1273.45 1513.66 1276.51 1518.27 Q1279.58 1522.85 1279.58 1531.6 Q1279.58 1540.33 1276.51 1544.94 Q1273.45 1549.52 1267.64 1549.52 Q1261.83 1549.52 1258.75 1544.94 Q1255.7 1540.33 1255.7 1531.6 Q1255.7 1522.85 1258.75 1518.27 Q1261.83 1513.66 1267.64 1513.66 Z" fill="#000000" fill-rule="nonzero" fill-opacity="1" /><path clip-path="url(#clip620)" d="M1745.84 1514.29 L1768.07 1514.29 L1768.07 1516.28 L1755.52 1548.85 L1750.63 1548.85 L1762.44 1518.22 L1745.84 1518.22 L1745.84 1514.29 Z" fill="#000000" fill-rule="nonzero" fill-opacity="1" /><path clip-path="url(#clip620)" d="M1777.23 1514.29 L1795.59 1514.29 L1795.59 1518.22 L1781.51 1518.22 L1781.51 1526.7 Q1782.53 1526.35 1783.55 1526.19 Q1784.57 1526 1785.59 1526 Q1791.38 1526 1794.76 1529.17 Q1798.13 1532.34 1798.13 1537.76 Q1798.13 1543.34 1794.66 1546.44 Q1791.19 1549.52 1784.87 1549.52 Q1782.7 1549.52 1780.43 1549.15 Q1778.18 1548.78 1775.77 1548.04 L1775.77 1543.34 Q1777.86 1544.47 1780.08 1545.03 Q1782.3 1545.58 1784.78 1545.58 Q1788.78 1545.58 1791.12 1543.48 Q1793.46 1541.37 1793.46 1537.76 Q1793.46 1534.15 1791.12 1532.04 Q1788.78 1529.94 1784.78 1529.94 Q1782.9 1529.94 1781.03 1530.35 Q1779.18 1530.77 1777.23 1531.65 L1777.23 1514.29 Z" fill="#000000" fill-rule="nonzero" fill-opacity="1" /><path clip-path="url(#clip620)" d="M2250.76 1544.91 L2258.4 1544.91 L2258.4 1518.55 L2250.09 1520.21 L2250.09 1515.95 L2258.35 1514.29 L2263.03 1514.29 L2263.03 1544.91 L2270.67 1544.91 L2270.67 1548.85 L2250.76 1548.85 L2250.76 1544.91 Z" fill="#000000" fill-rule="nonzero" fill-opacity="1" /><path clip-path="url(#clip620)" d="M2290.11 1517.37 Q2286.5 1517.37 2284.67 1520.93 Q2282.87 1524.47 2282.87 1531.6 Q2282.87 1538.71 2284.67 1542.27 Q2286.5 1545.82 2290.11 1545.82 Q2293.75 1545.82 2295.55 1542.27 Q2297.38 1538.71 2297.38 1531.6 Q2297.38 1524.47 2295.55 1520.93 Q2293.75 1517.37 2290.11 1517.37 M2290.11 1513.66 Q2295.92 1513.66 2298.98 1518.27 Q2302.06 1522.85 2302.06 1531.6 Q2302.06 1540.33 2298.98 1544.94 Q2295.92 1549.52 2290.11 1549.52 Q2284.3 1549.52 2281.22 1544.94 Q2278.17 1540.33 2278.17 1531.6 Q2278.17 1522.85 2281.22 1518.27 Q2284.3 1513.66 2290.11 1513.66 Z" fill="#000000" fill-rule="nonzero" fill-opacity="1" /><path clip-path="url(#clip620)" d="M2320.27 1517.37 Q2316.66 1517.37 2314.83 1520.93 Q2313.03 1524.47 2313.03 1531.6 Q2313.03 1538.71 2314.83 1542.27 Q2316.66 1545.82 2320.27 1545.82 Q2323.91 1545.82 2325.71 1542.27 Q2327.54 1538.71 2327.54 1531.6 Q2327.54 1524.47 2325.71 1520.93 Q2323.91 1517.37 2320.27 1517.37 M2320.27 1513.66 Q2326.08 1513.66 2329.14 1518.27 Q2332.22 1522.85 2332.22 1531.6 Q2332.22 1540.33 2329.14 1544.94 Q2326.08 1549.52 2320.27 1549.52 Q2314.46 1549.52 2311.38 1544.94 Q2308.33 1540.33 2308.33 1531.6 Q2308.33 1522.85 2311.38 1518.27 Q2314.46 1513.66 2320.27 1513.66 Z" fill="#000000" fill-rule="nonzero" fill-opacity="1" /><polyline clip-path="url(#clip622)" style="stroke:#000000; stroke-linecap:round; stroke-linejoin:round; stroke-width:2; stroke-opacity:0.1; fill:none" points="169.121,1464.39 2352.76,1464.39 "/>
<polyline clip-path="url(#clip622)" style="stroke:#000000; stroke-linecap:round; stroke-linejoin:round; stroke-width:2; stroke-opacity:0.1; fill:none" points="169.121,1119.64 2352.76,1119.64 "/>
<polyline clip-path="url(#clip622)" style="stroke:#000000; stroke-linecap:round; stroke-linejoin:round; stroke-width:2; stroke-opacity:0.1; fill:none" points="169.121,774.897 2352.76,774.897 "/>
<polyline clip-path="url(#clip622)" style="stroke:#000000; stroke-linecap:round; stroke-linejoin:round; stroke-width:2; stroke-opacity:0.1; fill:none" points="169.121,430.151 2352.76,430.151 "/>
<polyline clip-path="url(#clip622)" style="stroke:#000000; stroke-linecap:round; stroke-linejoin:round; stroke-width:2; stroke-opacity:0.1; fill:none" points="169.121,85.4059 2352.76,85.4059 "/>
<polyline clip-path="url(#clip620)" style="stroke:#000000; stroke-linecap:round; stroke-linejoin:round; stroke-width:4; stroke-opacity:1; fill:none" points="169.121,1486.45 169.121,47.2441 "/>
<polyline clip-path="url(#clip620)" style="stroke:#000000; stroke-linecap:round; stroke-linejoin:round; stroke-width:4; stroke-opacity:1; fill:none" points="169.121,1464.39 188.019,1464.39 "/>
<polyline clip-path="url(#clip620)" style="stroke:#000000; stroke-linecap:round; stroke-linejoin:round; stroke-width:4; stroke-opacity:1; fill:none" points="169.121,1119.64 188.019,1119.64 "/>
<polyline clip-path="url(#clip620)" style="stroke:#000000; stroke-linecap:round; stroke-linejoin:round; stroke-width:4; stroke-opacity:1; fill:none" points="169.121,774.897 188.019,774.897 "/>
<polyline clip-path="url(#clip620)" style="stroke:#000000; stroke-linecap:round; stroke-linejoin:round; stroke-width:4; stroke-opacity:1; fill:none" points="169.121,430.151 188.019,430.151 "/>
<polyline clip-path="url(#clip620)" style="stroke:#000000; stroke-linecap:round; stroke-linejoin:round; stroke-width:4; stroke-opacity:1; fill:none" points="169.121,85.4059 188.019,85.4059 "/>
<path clip-path="url(#clip620)" d="M121.177 1450.19 Q117.566 1450.19 115.737 1453.75 Q113.932 1457.29 113.932 1464.42 Q113.932 1471.53 115.737 1475.09 Q117.566 1478.64 121.177 1478.64 Q124.811 1478.64 126.617 1475.09 Q128.445 1471.53 128.445 1464.42 Q128.445 1457.29 126.617 1453.75 Q124.811 1450.19 121.177 1450.19 M121.177 1446.48 Q126.987 1446.48 130.043 1451.09 Q133.121 1455.67 133.121 1464.42 Q133.121 1473.15 130.043 1477.76 Q126.987 1482.34 121.177 1482.34 Q115.367 1482.34 112.288 1477.76 Q109.233 1473.15 109.233 1464.42 Q109.233 1455.67 112.288 1451.09 Q115.367 1446.48 121.177 1446.48 Z" fill="#000000" fill-rule="nonzero" fill-opacity="1" /><path clip-path="url(#clip620)" d="M86.0382 1132.99 L102.358 1132.99 L102.358 1136.92 L80.4133 1136.92 L80.4133 1132.99 Q83.0753 1130.23 87.6586 1125.6 Q92.2651 1120.95 93.4456 1119.61 Q95.691 1117.08 96.5706 1115.35 Q97.4734 1113.59 97.4734 1111.9 Q97.4734 1109.14 95.5289 1107.41 Q93.6076 1105.67 90.5058 1105.67 Q88.3067 1105.67 85.8531 1106.44 Q83.4225 1107.2 80.6447 1108.75 L80.6447 1104.03 Q83.4688 1102.89 85.9225 1102.32 Q88.3762 1101.74 90.4132 1101.74 Q95.7836 1101.74 98.978 1104.42 Q102.172 1107.11 102.172 1111.6 Q102.172 1113.73 101.362 1115.65 Q100.575 1117.55 98.4687 1120.14 Q97.89 1120.81 94.7882 1124.03 Q91.6864 1127.22 86.0382 1132.99 Z" fill="#000000" fill-rule="nonzero" fill-opacity="1" /><path clip-path="url(#clip620)" d="M112.219 1102.36 L130.575 1102.36 L130.575 1106.3 L116.501 1106.3 L116.501 1114.77 Q117.52 1114.42 118.538 1114.26 Q119.557 1114.08 120.575 1114.08 Q126.362 1114.08 129.742 1117.25 Q133.121 1120.42 133.121 1125.83 Q133.121 1131.41 129.649 1134.51 Q126.177 1137.59 119.857 1137.59 Q117.682 1137.59 115.413 1137.22 Q113.168 1136.85 110.76 1136.11 L110.76 1131.41 Q112.844 1132.55 115.066 1133.1 Q117.288 1133.66 119.765 1133.66 Q123.77 1133.66 126.107 1131.55 Q128.445 1129.45 128.445 1125.83 Q128.445 1122.22 126.107 1120.12 Q123.77 1118.01 119.765 1118.01 Q117.89 1118.01 116.015 1118.43 Q114.163 1118.84 112.219 1119.72 L112.219 1102.36 Z" fill="#000000" fill-rule="nonzero" fill-opacity="1" /><path clip-path="url(#clip620)" d="M81.0614 757.617 L99.4178 757.617 L99.4178 761.552 L85.3438 761.552 L85.3438 770.024 Q86.3623 769.677 87.3808 769.515 Q88.3993 769.33 89.4178 769.33 Q95.2049 769.33 98.5845 772.501 Q101.964 775.672 101.964 781.089 Q101.964 786.668 98.4919 789.769 Q95.0197 792.848 88.7003 792.848 Q86.5243 792.848 84.2558 792.478 Q82.0105 792.107 79.6031 791.367 L79.6031 786.668 Q81.6864 787.802 83.9086 788.357 Q86.1308 788.913 88.6077 788.913 Q92.6123 788.913 94.9502 786.806 Q97.2882 784.7 97.2882 781.089 Q97.2882 777.478 94.9502 775.371 Q92.6123 773.265 88.6077 773.265 Q86.7327 773.265 84.8577 773.681 Q83.0058 774.098 81.0614 774.978 L81.0614 757.617 Z" fill="#000000" fill-rule="nonzero" fill-opacity="1" /><path clip-path="url(#clip620)" d="M121.177 760.695 Q117.566 760.695 115.737 764.26 Q113.932 767.802 113.932 774.931 Q113.932 782.038 115.737 785.603 Q117.566 789.144 121.177 789.144 Q124.811 789.144 126.617 785.603 Q128.445 782.038 128.445 774.931 Q128.445 767.802 126.617 764.26 Q124.811 760.695 121.177 760.695 M121.177 756.992 Q126.987 756.992 130.043 761.598 Q133.121 766.182 133.121 774.931 Q133.121 783.658 130.043 788.265 Q126.987 792.848 121.177 792.848 Q115.367 792.848 112.288 788.265 Q109.233 783.658 109.233 774.931 Q109.233 766.182 112.288 761.598 Q115.367 756.992 121.177 756.992 Z" fill="#000000" fill-rule="nonzero" fill-opacity="1" /><path clip-path="url(#clip620)" d="M80.8299 412.871 L103.052 412.871 L103.052 414.862 L90.5058 447.431 L85.6216 447.431 L97.4271 416.807 L80.8299 416.807 L80.8299 412.871 Z" fill="#000000" fill-rule="nonzero" fill-opacity="1" /><path clip-path="url(#clip620)" d="M112.219 412.871 L130.575 412.871 L130.575 416.807 L116.501 416.807 L116.501 425.279 Q117.52 424.931 118.538 424.769 Q119.557 424.584 120.575 424.584 Q126.362 424.584 129.742 427.756 Q133.121 430.927 133.121 436.343 Q133.121 441.922 129.649 445.024 Q126.177 448.103 119.857 448.103 Q117.682 448.103 115.413 447.732 Q113.168 447.362 110.76 446.621 L110.76 441.922 Q112.844 443.056 115.066 443.612 Q117.288 444.167 119.765 444.167 Q123.77 444.167 126.107 442.061 Q128.445 439.955 128.445 436.343 Q128.445 432.732 126.107 430.626 Q123.77 428.519 119.765 428.519 Q117.89 428.519 116.015 428.936 Q114.163 429.353 112.219 430.232 L112.219 412.871 Z" fill="#000000" fill-rule="nonzero" fill-opacity="1" /><path clip-path="url(#clip620)" d="M51.6634 98.7508 L59.3023 98.7508 L59.3023 72.3852 L50.9921 74.0518 L50.9921 69.7926 L59.256 68.1259 L63.9319 68.1259 L63.9319 98.7508 L71.5707 98.7508 L71.5707 102.686 L51.6634 102.686 L51.6634 98.7508 Z" fill="#000000" fill-rule="nonzero" fill-opacity="1" /><path clip-path="url(#clip620)" d="M91.0151 71.2046 Q87.404 71.2046 85.5753 74.7694 Q83.7697 78.3111 83.7697 85.4407 Q83.7697 92.5471 85.5753 96.1119 Q87.404 99.6535 91.0151 99.6535 Q94.6493 99.6535 96.4548 96.1119 Q98.2835 92.5471 98.2835 85.4407 Q98.2835 78.3111 96.4548 74.7694 Q94.6493 71.2046 91.0151 71.2046 M91.0151 67.5009 Q96.8252 67.5009 99.8808 72.1074 Q102.959 76.6907 102.959 85.4407 Q102.959 94.1675 99.8808 98.7739 Q96.8252 103.357 91.0151 103.357 Q85.2049 103.357 82.1262 98.7739 Q79.0707 94.1675 79.0707 85.4407 Q79.0707 76.6907 82.1262 72.1074 Q85.2049 67.5009 91.0151 67.5009 Z" fill="#000000" fill-rule="nonzero" fill-opacity="1" /><path clip-path="url(#clip620)" d="M121.177 71.2046 Q117.566 71.2046 115.737 74.7694 Q113.932 78.3111 113.932 85.4407 Q113.932 92.5471 115.737 96.1119 Q117.566 99.6535 121.177 99.6535 Q124.811 99.6535 126.617 96.1119 Q128.445 92.5471 128.445 85.4407 Q128.445 78.3111 126.617 74.7694 Q124.811 71.2046 121.177 71.2046 M121.177 67.5009 Q126.987 67.5009 130.043 72.1074 Q133.121 76.6907 133.121 85.4407 Q133.121 94.1675 130.043 98.7739 Q126.987 103.357 121.177 103.357 Q115.367 103.357 112.288 98.7739 Q109.233 94.1675 109.233 85.4407 Q109.233 76.6907 112.288 72.1074 Q115.367 67.5009 121.177 67.5009 Z" fill="#000000" fill-rule="nonzero" fill-opacity="1" /><polyline clip-path="url(#clip622)" style="stroke:#009af9; stroke-linecap:round; stroke-linejoin:round; stroke-width:4; stroke-opacity:1; fill:none" points="793.017,1101.73 704.657,952.826 "/>
<polyline clip-path="url(#clip622)" style="stroke:#e26f46; stroke-linecap:round; stroke-linejoin:round; stroke-width:4; stroke-opacity:1; fill:none" points="447.043,922.181 704.657,952.826 "/>
<polyline clip-path="url(#clip622)" style="stroke:#3da44d; stroke-linecap:round; stroke-linejoin:round; stroke-width:4; stroke-opacity:1; fill:none" points="392.332,151.788 934.094,231.349 "/>
<polyline clip-path="url(#clip622)" style="stroke:#c271d2; stroke-linecap:round; stroke-linejoin:round; stroke-width:4; stroke-opacity:1; fill:none" points="1354.55,87.9763 934.094,231.349 "/>
<polyline clip-path="url(#clip622)" style="stroke:#ac8d18; stroke-linecap:round; stroke-linejoin:round; stroke-width:4; stroke-opacity:1; fill:none" points="652.606,606.105 863.882,570.733 "/>
<polyline clip-path="url(#clip622)" style="stroke:#00a9ad; stroke-linecap:round; stroke-linejoin:round; stroke-width:4; stroke-opacity:1; fill:none" points="811.954,495.574 863.882,570.733 "/>
<polyline clip-path="url(#clip622)" style="stroke:#ed5d92; stroke-linecap:round; stroke-linejoin:round; stroke-width:4; stroke-opacity:1; fill:none" points="256.809,1046.01 230.922,889.298 "/>
<polyline clip-path="url(#clip622)" style="stroke:#c68125; stroke-linecap:round; stroke-linejoin:round; stroke-width:4; stroke-opacity:1; fill:none" points="321.683,705.487 230.922,889.298 "/>
<polyline clip-path="url(#clip622)" style="stroke:#00a98d; stroke-linecap:round; stroke-linejoin:round; stroke-width:4; stroke-opacity:1; fill:none" points="798.433,1333.13 1229.18,1265.03 "/>
<polyline clip-path="url(#clip622)" style="stroke:#8e971d; stroke-linecap:round; stroke-linejoin:round; stroke-width:4; stroke-opacity:1; fill:none" points="1363.31,1066.22 1229.18,1265.03 "/>
<polyline clip-path="url(#clip622)" style="stroke:#00a8cb; stroke-linecap:round; stroke-linejoin:round; stroke-width:4; stroke-opacity:1; fill:none" points="863.882,570.733 652.606,606.105 "/>
<polyline clip-path="url(#clip622)" style="stroke:#9b7fe8; stroke-linecap:round; stroke-linejoin:round; stroke-width:4; stroke-opacity:1; fill:none" points="584.653,754.401 652.606,606.105 "/>
<polyline clip-path="url(#clip622)" style="stroke:#608cf6; stroke-linecap:round; stroke-linejoin:round; stroke-width:4; stroke-opacity:1; fill:none" points="2263.46,244.214 2191.3,261.454 "/>
<polyline clip-path="url(#clip622)" style="stroke:#f05f73; stroke-linecap:round; stroke-linejoin:round; stroke-width:4; stroke-opacity:1; fill:none" points="1999.41,641.774 2191.3,261.454 "/>
<polyline clip-path="url(#clip622)" style="stroke:#dd64b5; stroke-linecap:round; stroke-linejoin:round; stroke-width:4; stroke-opacity:1; fill:none" points="2028.55,707.83 2290.95,740.457 "/>
<polyline clip-path="url(#clip622)" style="stroke:#6b9e32; stroke-linecap:round; stroke-linejoin:round; stroke-width:4; stroke-opacity:1; fill:none" points="1975.89,827.543 2290.95,740.457 "/>
<polyline clip-path="url(#clip622)" style="stroke:#009af9; stroke-linecap:round; stroke-linejoin:round; stroke-width:4; stroke-opacity:1; fill:none" points="793.017,1101.73 737.113,1131.24 "/>
<polyline clip-path="url(#clip622)" style="stroke:#e26f46; stroke-linecap:round; stroke-linejoin:round; stroke-width:4; stroke-opacity:1; fill:none" points="600.384,1196.08 737.113,1131.24 "/>
<polyline clip-path="url(#clip622)" style="stroke:#3da44d; stroke-linecap:round; stroke-linejoin:round; stroke-width:4; stroke-opacity:1; fill:none" points="2191.3,261.454 2263.46,244.214 "/>
<polyline clip-path="url(#clip622)" style="stroke:#c271d2; stroke-linecap:round; stroke-linejoin:round; stroke-width:4; stroke-opacity:1; fill:none" points="2241.96,98.1744 2263.46,244.214 "/>
<polyline clip-path="url(#clip622)" style="stroke:#ac8d18; stroke-linecap:round; stroke-linejoin:round; stroke-width:4; stroke-opacity:1; fill:none" points="1553.7,823.134 1368.6,856.398 "/>
<polyline clip-path="url(#clip622)" style="stroke:#00a9ad; stroke-linecap:round; stroke-linejoin:round; stroke-width:4; stroke-opacity:1; fill:none" points="1331.8,663.5 1368.6,856.398 "/>
<polyline clip-path="url(#clip622)" style="stroke:#ed5d92; stroke-linecap:round; stroke-linejoin:round; stroke-width:4; stroke-opacity:1; fill:none" points="1363.31,1066.22 1122.22,906.351 "/>
<polyline clip-path="url(#clip622)" style="stroke:#c68125; stroke-linecap:round; stroke-linejoin:round; stroke-width:4; stroke-opacity:1; fill:none" points="794.705,747.973 1122.22,906.351 "/>
<polyline clip-path="url(#clip622)" style="stroke:#00a98d; stroke-linecap:round; stroke-linejoin:round; stroke-width:4; stroke-opacity:1; fill:none" points="811.954,495.574 1096.49,448.372 "/>
<polyline clip-path="url(#clip622)" style="stroke:#8e971d; stroke-linecap:round; stroke-linejoin:round; stroke-width:4; stroke-opacity:1; fill:none" points="1160.81,404.835 1096.49,448.372 "/>
<polyline clip-path="url(#clip622)" style="stroke:#00a8cb; stroke-linecap:round; stroke-linejoin:round; stroke-width:4; stroke-opacity:1; fill:none" points="1544.38,261.436 1820.22,149.11 "/>
<polyline clip-path="url(#clip622)" style="stroke:#9b7fe8; stroke-linecap:round; stroke-linejoin:round; stroke-width:4; stroke-opacity:1; fill:none" points="2241.96,98.1744 1820.22,149.11 "/>
<polyline clip-path="url(#clip622)" style="stroke:#608cf6; stroke-linecap:round; stroke-linejoin:round; stroke-width:4; stroke-opacity:1; fill:none" points="1229.18,1265.03 798.433,1333.13 "/>
<polyline clip-path="url(#clip622)" style="stroke:#f05f73; stroke-linecap:round; stroke-linejoin:round; stroke-width:4; stroke-opacity:1; fill:none" points="736.525,1445.72 798.433,1333.13 "/>
<polyline clip-path="url(#clip622)" style="stroke:#dd64b5; stroke-linecap:round; stroke-linejoin:round; stroke-width:4; stroke-opacity:1; fill:none" points="794.705,747.973 649.499,747.765 "/>
<polyline clip-path="url(#clip622)" style="stroke:#6b9e32; stroke-linecap:round; stroke-linejoin:round; stroke-width:4; stroke-opacity:1; fill:none" points="584.653,754.401 649.499,747.765 "/>
<polyline clip-path="url(#clip622)" style="stroke:#009af9; stroke-linecap:round; stroke-linejoin:round; stroke-width:4; stroke-opacity:1; fill:none" points="798.433,1333.13 736.525,1445.72 "/>
<polyline clip-path="url(#clip622)" style="stroke:#e26f46; stroke-linecap:round; stroke-linejoin:round; stroke-width:4; stroke-opacity:1; fill:none" points="600.384,1196.08 736.525,1445.72 "/>
<polyline clip-path="url(#clip622)" style="stroke:#3da44d; stroke-linecap:round; stroke-linejoin:round; stroke-width:4; stroke-opacity:1; fill:none" points="230.922,889.298 256.809,1046.01 "/>
<polyline clip-path="url(#clip622)" style="stroke:#c271d2; stroke-linecap:round; stroke-linejoin:round; stroke-width:4; stroke-opacity:1; fill:none" points="376.116,1084.45 256.809,1046.01 "/>
<polyline clip-path="url(#clip622)" style="stroke:#ac8d18; stroke-linecap:round; stroke-linejoin:round; stroke-width:4; stroke-opacity:1; fill:none" points="863.882,570.733 811.954,495.574 "/>
<polyline clip-path="url(#clip622)" style="stroke:#00a9ad; stroke-linecap:round; stroke-linejoin:round; stroke-width:4; stroke-opacity:1; fill:none" points="1096.49,448.372 811.954,495.574 "/>
<polyline clip-path="url(#clip622)" style="stroke:#ed5d92; stroke-linecap:round; stroke-linejoin:round; stroke-width:4; stroke-opacity:1; fill:none" points="2191.3,261.454 1999.41,641.774 "/>
<polyline clip-path="url(#clip622)" style="stroke:#c68125; stroke-linecap:round; stroke-linejoin:round; stroke-width:4; stroke-opacity:1; fill:none" points="2028.55,707.83 1999.41,641.774 "/>
<polyline clip-path="url(#clip622)" style="stroke:#00a98d; stroke-linecap:round; stroke-linejoin:round; stroke-width:4; stroke-opacity:1; fill:none" points="392.332,151.788 374.298,583.308 "/>
<polyline clip-path="url(#clip622)" style="stroke:#8e971d; stroke-linecap:round; stroke-linejoin:round; stroke-width:4; stroke-opacity:1; fill:none" points="321.683,705.487 374.298,583.308 "/>
<polyline clip-path="url(#clip622)" style="stroke:#00a8cb; stroke-linecap:round; stroke-linejoin:round; stroke-width:4; stroke-opacity:1; fill:none" points="1820.22,149.11 1544.38,261.436 "/>
<polyline clip-path="url(#clip622)" style="stroke:#9b7fe8; stroke-linecap:round; stroke-linejoin:round; stroke-width:4; stroke-opacity:1; fill:none" points="1354.55,87.9763 1544.38,261.436 "/>
<polyline clip-path="url(#clip622)" style="stroke:#608cf6; stroke-linecap:round; stroke-linejoin:round; stroke-width:4; stroke-opacity:1; fill:none" points="2290.95,740.457 2028.55,707.83 "/>
<polyline clip-path="url(#clip622)" style="stroke:#f05f73; stroke-linecap:round; stroke-linejoin:round; stroke-width:4; stroke-opacity:1; fill:none" points="1999.41,641.774 2028.55,707.83 "/>
<polyline clip-path="url(#clip622)" style="stroke:#dd64b5; stroke-linecap:round; stroke-linejoin:round; stroke-width:4; stroke-opacity:1; fill:none" points="704.657,952.826 793.017,1101.73 "/>
<polyline clip-path="url(#clip622)" style="stroke:#6b9e32; stroke-linecap:round; stroke-linejoin:round; stroke-width:4; stroke-opacity:1; fill:none" points="737.113,1131.24 793.017,1101.73 "/>
<polyline clip-path="url(#clip622)" style="stroke:#009af9; stroke-linecap:round; stroke-linejoin:round; stroke-width:4; stroke-opacity:1; fill:none" points="1553.7,823.134 1774.71,738.432 "/>
<polyline clip-path="url(#clip622)" style="stroke:#e26f46; stroke-linecap:round; stroke-linejoin:round; stroke-width:4; stroke-opacity:1; fill:none" points="1975.89,827.543 1774.71,738.432 "/>
<polyline clip-path="url(#clip622)" style="stroke:#3da44d; stroke-linecap:round; stroke-linejoin:round; stroke-width:4; stroke-opacity:1; fill:none" points="1368.6,856.398 1553.7,823.134 "/>
<polyline clip-path="url(#clip622)" style="stroke:#c271d2; stroke-linecap:round; stroke-linejoin:round; stroke-width:4; stroke-opacity:1; fill:none" points="1774.71,738.432 1553.7,823.134 "/>
<polyline clip-path="url(#clip622)" style="stroke:#ac8d18; stroke-linecap:round; stroke-linejoin:round; stroke-width:4; stroke-opacity:1; fill:none" points="256.809,1046.01 376.116,1084.45 "/>
<polyline clip-path="url(#clip622)" style="stroke:#00a9ad; stroke-linecap:round; stroke-linejoin:round; stroke-width:4; stroke-opacity:1; fill:none" points="447.043,922.181 376.116,1084.45 "/>
<polyline clip-path="url(#clip622)" style="stroke:#ed5d92; stroke-linecap:round; stroke-linejoin:round; stroke-width:4; stroke-opacity:1; fill:none" points="2290.95,740.457 1975.89,827.543 "/>
<polyline clip-path="url(#clip622)" style="stroke:#c68125; stroke-linecap:round; stroke-linejoin:round; stroke-width:4; stroke-opacity:1; fill:none" points="1774.71,738.432 1975.89,827.543 "/>
<polyline clip-path="url(#clip622)" style="stroke:#00a98d; stroke-linecap:round; stroke-linejoin:round; stroke-width:4; stroke-opacity:1; fill:none" points="934.094,231.349 392.332,151.788 "/>
<polyline clip-path="url(#clip622)" style="stroke:#8e971d; stroke-linecap:round; stroke-linejoin:round; stroke-width:4; stroke-opacity:1; fill:none" points="374.298,583.308 392.332,151.788 "/>
<polyline clip-path="url(#clip622)" style="stroke:#00a8cb; stroke-linecap:round; stroke-linejoin:round; stroke-width:4; stroke-opacity:1; fill:none" points="1229.18,1265.03 1363.31,1066.22 "/>
<polyline clip-path="url(#clip622)" style="stroke:#9b7fe8; stroke-linecap:round; stroke-linejoin:round; stroke-width:4; stroke-opacity:1; fill:none" points="1122.22,906.351 1363.31,1066.22 "/>
<polyline clip-path="url(#clip622)" style="stroke:#608cf6; stroke-linecap:round; stroke-linejoin:round; stroke-width:4; stroke-opacity:1; fill:none" points="1331.8,663.5 1176.72,552.561 "/>
<polyline clip-path="url(#clip622)" style="stroke:#f05f73; stroke-linecap:round; stroke-linejoin:round; stroke-width:4; stroke-opacity:1; fill:none" points="1160.81,404.835 1176.72,552.561 "/>
<polyline clip-path="url(#clip622)" style="stroke:#dd64b5; stroke-linecap:round; stroke-linejoin:round; stroke-width:4; stroke-opacity:1; fill:none" points="737.113,1131.24 600.384,1196.08 "/>
<polyline clip-path="url(#clip622)" style="stroke:#6b9e32; stroke-linecap:round; stroke-linejoin:round; stroke-width:4; stroke-opacity:1; fill:none" points="736.525,1445.72 600.384,1196.08 "/>
<polyline clip-path="url(#clip622)" style="stroke:#009af9; stroke-linecap:round; stroke-linejoin:round; stroke-width:4; stroke-opacity:1; fill:none" points="704.657,952.826 447.043,922.181 "/>
<polyline clip-path="url(#clip622)" style="stroke:#e26f46; stroke-linecap:round; stroke-linejoin:round; stroke-width:4; stroke-opacity:1; fill:none" points="376.116,1084.45 447.043,922.181 "/>
<polyline clip-path="url(#clip622)" style="stroke:#3da44d; stroke-linecap:round; stroke-linejoin:round; stroke-width:4; stroke-opacity:1; fill:none" points="2263.46,244.214 2241.96,98.1744 "/>
<polyline clip-path="url(#clip622)" style="stroke:#c271d2; stroke-linecap:round; stroke-linejoin:round; stroke-width:4; stroke-opacity:1; fill:none" points="1820.22,149.11 2241.96,98.1744 "/>
<polyline clip-path="url(#clip622)" style="stroke:#ac8d18; stroke-linecap:round; stroke-linejoin:round; stroke-width:4; stroke-opacity:1; fill:none" points="230.922,889.298 321.683,705.487 "/>
<polyline clip-path="url(#clip622)" style="stroke:#00a9ad; stroke-linecap:round; stroke-linejoin:round; stroke-width:4; stroke-opacity:1; fill:none" points="374.298,583.308 321.683,705.487 "/>
<polyline clip-path="url(#clip622)" style="stroke:#ed5d92; stroke-linecap:round; stroke-linejoin:round; stroke-width:4; stroke-opacity:1; fill:none" points="1368.6,856.398 1331.8,663.5 "/>
<polyline clip-path="url(#clip622)" style="stroke:#c68125; stroke-linecap:round; stroke-linejoin:round; stroke-width:4; stroke-opacity:1; fill:none" points="1176.72,552.561 1331.8,663.5 "/>
<polyline clip-path="url(#clip622)" style="stroke:#00a98d; stroke-linecap:round; stroke-linejoin:round; stroke-width:4; stroke-opacity:1; fill:none" points="1096.49,448.372 1160.81,404.835 "/>
<polyline clip-path="url(#clip622)" style="stroke:#8e971d; stroke-linecap:round; stroke-linejoin:round; stroke-width:4; stroke-opacity:1; fill:none" points="1176.72,552.561 1160.81,404.835 "/>
<polyline clip-path="url(#clip622)" style="stroke:#00a8cb; stroke-linecap:round; stroke-linejoin:round; stroke-width:4; stroke-opacity:1; fill:none" points="1122.22,906.351 794.705,747.973 "/>
<polyline clip-path="url(#clip622)" style="stroke:#9b7fe8; stroke-linecap:round; stroke-linejoin:round; stroke-width:4; stroke-opacity:1; fill:none" points="649.499,747.765 794.705,747.973 "/>
<polyline clip-path="url(#clip622)" style="stroke:#608cf6; stroke-linecap:round; stroke-linejoin:round; stroke-width:4; stroke-opacity:1; fill:none" points="652.606,606.105 584.653,754.401 "/>
<polyline clip-path="url(#clip622)" style="stroke:#f05f73; stroke-linecap:round; stroke-linejoin:round; stroke-width:4; stroke-opacity:1; fill:none" points="649.499,747.765 584.653,754.401 "/>
<polyline clip-path="url(#clip622)" style="stroke:#dd64b5; stroke-linecap:round; stroke-linejoin:round; stroke-width:4; stroke-opacity:1; fill:none" points="934.094,231.349 1354.55,87.9763 "/>
<polyline clip-path="url(#clip622)" style="stroke:#6b9e32; stroke-linecap:round; stroke-linejoin:round; stroke-width:4; stroke-opacity:1; fill:none" points="1544.38,261.436 1354.55,87.9763 "/>
</svg>
