<?xml version="1.0" encoding="utf-8"?>
<svg xmlns="http://www.w3.org/2000/svg" xmlns:xlink="http://www.w3.org/1999/xlink" width="600" height="400" viewBox="0 0 2400 1600">
<defs>
  <clipPath id="clip920">
    <rect x="0" y="0" width="2400" height="1600"/>
  </clipPath>
</defs>
<path clip-path="url(#clip920)" d="M0 1600 L2400 1600 L2400 0 L0 0  Z" fill="#ffffff" fill-rule="evenodd" fill-opacity="1"/>
<defs>
  <clipPath id="clip921">
    <rect x="480" y="0" width="1681" height="1600"/>
  </clipPath>
</defs>
<path clip-path="url(#clip920)" d="M138.959 1423.18 L2352.76 1423.18 L2352.76 47.2441 L138.959 47.2441  Z" fill="#ffffff" fill-rule="evenodd" fill-opacity="1"/>
<defs>
  <clipPath id="clip922">
    <rect x="138" y="47" width="2215" height="1377"/>
  </clipPath>
</defs>
<polyline clip-path="url(#clip922)" style="stroke:#000000; stroke-linecap:round; stroke-linejoin:round; stroke-width:2; stroke-opacity:0.1; fill:none" points="260.722,1423.18 260.722,47.2441 "/>
<polyline clip-path="url(#clip922)" style="stroke:#000000; stroke-linecap:round; stroke-linejoin:round; stroke-width:2; stroke-opacity:0.1; fill:none" points="698.56,1423.18 698.56,47.2441 "/>
<polyline clip-path="url(#clip922)" style="stroke:#000000; stroke-linecap:round; stroke-linejoin:round; stroke-width:2; stroke-opacity:0.1; fill:none" points="1136.4,1423.18 1136.4,47.2441 "/>
<polyline clip-path="url(#clip922)" style="stroke:#000000; stroke-linecap:round; stroke-linejoin:round; stroke-width:2; stroke-opacity:0.1; fill:none" points="1574.24,1423.18 1574.24,47.2441 "/>
<polyline clip-path="url(#clip922)" style="stroke:#000000; stroke-linecap:round; stroke-linejoin:round; stroke-width:2; stroke-opacity:0.1; fill:none" points="2012.07,1423.18 2012.07,47.2441 "/>
<polyline clip-path="url(#clip922)" style="stroke:#000000; stroke-linecap:round; stroke-linejoin:round; stroke-width:2; stroke-opacity:0.1; fill:none" points="138.959,1423.18 2352.76,1423.18 "/>
<polyline clip-path="url(#clip922)" style="stroke:#000000; stroke-linecap:round; stroke-linejoin:round; stroke-width:2; stroke-opacity:0.1; fill:none" points="138.959,1147.99 2352.76,1147.99 "/>
<polyline clip-path="url(#clip922)" style="stroke:#000000; stroke-linecap:round; stroke-linejoin:round; stroke-width:2; stroke-opacity:0.1; fill:none" points="138.959,872.806 2352.76,872.806 "/>
<polyline clip-path="url(#clip922)" style="stroke:#000000; stroke-linecap:round; stroke-linejoin:round; stroke-width:2; stroke-opacity:0.1; fill:none" points="138.959,597.618 2352.76,597.618 "/>
<polyline clip-path="url(#clip922)" style="stroke:#000000; stroke-linecap:round; stroke-linejoin:round; stroke-width:2; stroke-opacity:0.1; fill:none" points="138.959,322.431 2352.76,322.431 "/>
<polyline clip-path="url(#clip922)" style="stroke:#000000; stroke-linecap:round; stroke-linejoin:round; stroke-width:2; stroke-opacity:0.1; fill:none" points="138.959,47.2441 2352.76,47.2441 "/>
<polyline clip-path="url(#clip920)" style="stroke:#000000; stroke-linecap:round; stroke-linejoin:round; stroke-width:4; stroke-opacity:1; fill:none" points="138.959,1423.18 2352.76,1423.18 "/>
<polyline clip-path="url(#clip920)" style="stroke:#000000; stroke-linecap:round; stroke-linejoin:round; stroke-width:4; stroke-opacity:1; fill:none" points="260.722,1423.18 260.722,1404.28 "/>
<polyline clip-path="url(#clip920)" style="stroke:#000000; stroke-linecap:round; stroke-linejoin:round; stroke-width:4; stroke-opacity:1; fill:none" points="698.56,1423.18 698.56,1404.28 "/>
<polyline clip-path="url(#clip920)" style="stroke:#000000; stroke-linecap:round; stroke-linejoin:round; stroke-width:4; stroke-opacity:1; fill:none" points="1136.4,1423.18 1136.4,1404.28 "/>
<polyline clip-path="url(#clip920)" style="stroke:#000000; stroke-linecap:round; stroke-linejoin:round; stroke-width:4; stroke-opacity:1; fill:none" points="1574.24,1423.18 1574.24,1404.28 "/>
<polyline clip-path="url(#clip920)" style="stroke:#000000; stroke-linecap:round; stroke-linejoin:round; stroke-width:4; stroke-opacity:1; fill:none" points="2012.07,1423.18 2012.07,1404.28 "/>
<path clip-path="url(#clip920)" d="M220.329 1481.64 L227.968 1481.64 L227.968 1455.28 L219.658 1456.95 L219.658 1452.69 L227.921 1451.02 L232.597 1451.02 L232.597 1481.64 L240.236 1481.64 L240.236 1485.58 L220.329 1485.58 L220.329 1481.64 Z" fill="#000000" fill-rule="nonzero" fill-opacity="1" /><path clip-path="url(#clip920)" d="M260.259 1466.44 Q257.111 1466.44 255.259 1468.59 Q253.431 1470.74 253.431 1474.49 Q253.431 1478.22 255.259 1480.39 Q257.111 1482.55 260.259 1482.55 Q263.407 1482.55 265.236 1480.39 Q267.088 1478.22 267.088 1474.49 Q267.088 1470.74 265.236 1468.59 Q263.407 1466.44 260.259 1466.44 M269.542 1451.78 L269.542 1456.04 Q267.782 1455.21 265.977 1454.77 Q264.194 1454.33 262.435 1454.33 Q257.806 1454.33 255.352 1457.45 Q252.921 1460.58 252.574 1466.9 Q253.94 1464.89 256 1463.82 Q258.06 1462.73 260.537 1462.73 Q265.745 1462.73 268.755 1465.9 Q271.787 1469.05 271.787 1474.49 Q271.787 1479.82 268.639 1483.03 Q265.491 1486.25 260.259 1486.25 Q254.264 1486.25 251.093 1481.67 Q247.921 1477.06 247.921 1468.33 Q247.921 1460.14 251.81 1455.28 Q255.699 1450.39 262.25 1450.39 Q264.009 1450.39 265.792 1450.74 Q267.597 1451.09 269.542 1451.78 Z" fill="#000000" fill-rule="nonzero" fill-opacity="1" /><path clip-path="url(#clip920)" d="M289.842 1454.1 Q286.231 1454.1 284.403 1457.66 Q282.597 1461.2 282.597 1468.33 Q282.597 1475.44 284.403 1479.01 Q286.231 1482.55 289.842 1482.55 Q293.477 1482.55 295.282 1479.01 Q297.111 1475.44 297.111 1468.33 Q297.111 1461.2 295.282 1457.66 Q293.477 1454.1 289.842 1454.1 M289.842 1450.39 Q295.653 1450.39 298.708 1455 Q301.787 1459.58 301.787 1468.33 Q301.787 1477.06 298.708 1481.67 Q295.653 1486.25 289.842 1486.25 Q284.032 1486.25 280.954 1481.67 Q277.898 1477.06 277.898 1468.33 Q277.898 1459.58 280.954 1455 Q284.032 1450.39 289.842 1450.39 Z" fill="#000000" fill-rule="nonzero" fill-opacity="1" /><path clip-path="url(#clip920)" d="M658.167 1481.64 L665.806 1481.64 L665.806 1455.28 L657.496 1456.95 L657.496 1452.69 L665.759 1451.02 L670.435 1451.02 L670.435 1481.64 L678.074 1481.64 L678.074 1485.58 L658.167 1485.58 L658.167 1481.64 Z" fill="#000000" fill-rule="nonzero" fill-opacity="1" /><path clip-path="url(#clip920)" d="M697.519 1469.17 Q694.185 1469.17 692.264 1470.95 Q690.366 1472.73 690.366 1475.86 Q690.366 1478.98 692.264 1480.77 Q694.185 1482.55 697.519 1482.55 Q700.852 1482.55 702.773 1480.77 Q704.694 1478.96 704.694 1475.86 Q704.694 1472.73 702.773 1470.95 Q700.875 1469.17 697.519 1469.17 M692.843 1467.18 Q689.833 1466.44 688.144 1464.38 Q686.477 1462.32 686.477 1459.35 Q686.477 1455.21 689.417 1452.8 Q692.38 1450.39 697.519 1450.39 Q702.681 1450.39 705.62 1452.8 Q708.56 1455.21 708.56 1459.35 Q708.56 1462.32 706.87 1464.38 Q705.204 1466.44 702.218 1467.18 Q705.597 1467.96 707.472 1470.26 Q709.37 1472.55 709.37 1475.86 Q709.37 1480.88 706.292 1483.57 Q703.236 1486.25 697.519 1486.25 Q691.801 1486.25 688.722 1483.57 Q685.667 1480.88 685.667 1475.86 Q685.667 1472.55 687.565 1470.26 Q689.463 1467.96 692.843 1467.18 M691.13 1459.79 Q691.13 1462.48 692.796 1463.98 Q694.486 1465.49 697.519 1465.49 Q700.528 1465.49 702.218 1463.98 Q703.931 1462.48 703.931 1459.79 Q703.931 1457.11 702.218 1455.6 Q700.528 1454.1 697.519 1454.1 Q694.486 1454.1 692.796 1455.6 Q691.13 1457.11 691.13 1459.79 Z" fill="#000000" fill-rule="nonzero" fill-opacity="1" /><path clip-path="url(#clip920)" d="M727.68 1454.1 Q724.069 1454.1 722.241 1457.66 Q720.435 1461.2 720.435 1468.33 Q720.435 1475.44 722.241 1479.01 Q724.069 1482.55 727.68 1482.55 Q731.315 1482.55 733.12 1479.01 Q734.949 1475.44 734.949 1468.33 Q734.949 1461.2 733.12 1457.66 Q731.315 1454.1 727.68 1454.1 M727.68 1450.39 Q733.491 1450.39 736.546 1455 Q739.625 1459.58 739.625 1468.33 Q739.625 1477.06 736.546 1481.67 Q733.491 1486.25 727.68 1486.25 Q721.87 1486.25 718.792 1481.67 Q715.736 1477.06 715.736 1468.33 Q715.736 1459.58 718.792 1455 Q721.87 1450.39 727.68 1450.39 Z" fill="#000000" fill-rule="nonzero" fill-opacity="1" /><path clip-path="url(#clip920)" d="M1100.09 1481.64 L1116.41 1481.64 L1116.41 1485.58 L1094.47 1485.58 L1094.47 1481.64 Q1097.13 1478.89 1101.71 1474.26 Q1106.32 1469.61 1107.5 1468.27 Q1109.74 1465.74 1110.62 1464.01 Q1111.53 1462.25 1111.53 1460.56 Q1111.53 1457.8 1109.58 1456.07 Q1107.66 1454.33 1104.56 1454.33 Q1102.36 1454.33 1099.91 1455.09 Q1097.47 1455.86 1094.7 1457.41 L1094.7 1452.69 Q1097.52 1451.55 1099.97 1450.97 Q1102.43 1450.39 1104.47 1450.39 Q1109.84 1450.39 1113.03 1453.08 Q1116.22 1455.77 1116.22 1460.26 Q1116.22 1462.39 1115.41 1464.31 Q1114.63 1466.2 1112.52 1468.8 Q1111.94 1469.47 1108.84 1472.69 Q1105.74 1475.88 1100.09 1481.64 Z" fill="#000000" fill-rule="nonzero" fill-opacity="1" /><path clip-path="url(#clip920)" d="M1136.22 1454.1 Q1132.61 1454.1 1130.78 1457.66 Q1128.98 1461.2 1128.98 1468.33 Q1128.98 1475.44 1130.78 1479.01 Q1132.61 1482.55 1136.22 1482.55 Q1139.86 1482.55 1141.66 1479.01 Q1143.49 1475.44 1143.49 1468.33 Q1143.49 1461.2 1141.66 1457.66 Q1139.86 1454.1 1136.22 1454.1 M1136.22 1450.39 Q1142.03 1450.39 1145.09 1455 Q1148.17 1459.58 1148.17 1468.33 Q1148.17 1477.06 1145.09 1481.67 Q1142.03 1486.25 1136.22 1486.25 Q1130.41 1486.25 1127.34 1481.67 Q1124.28 1477.06 1124.28 1468.33 Q1124.28 1459.58 1127.34 1455 Q1130.41 1450.39 1136.22 1450.39 Z" fill="#000000" fill-rule="nonzero" fill-opacity="1" /><path clip-path="url(#clip920)" d="M1166.39 1454.1 Q1162.78 1454.1 1160.95 1457.66 Q1159.14 1461.2 1159.14 1468.33 Q1159.14 1475.44 1160.95 1479.01 Q1162.78 1482.55 1166.39 1482.55 Q1170.02 1482.55 1171.83 1479.01 Q1173.65 1475.44 1173.65 1468.33 Q1173.65 1461.2 1171.83 1457.66 Q1170.02 1454.1 1166.39 1454.1 M1166.39 1450.39 Q1172.2 1450.39 1175.25 1455 Q1178.33 1459.58 1178.33 1468.33 Q1178.33 1477.06 1175.25 1481.67 Q1172.2 1486.25 1166.39 1486.25 Q1160.58 1486.25 1157.5 1481.67 Q1154.44 1477.06 1154.44 1468.33 Q1154.44 1459.58 1157.5 1455 Q1160.58 1450.39 1166.39 1450.39 Z" fill="#000000" fill-rule="nonzero" fill-opacity="1" /><path clip-path="url(#clip920)" d="M1537.93 1481.64 L1554.25 1481.64 L1554.25 1485.58 L1532.3 1485.58 L1532.3 1481.64 Q1534.97 1478.89 1539.55 1474.26 Q1544.16 1469.61 1545.34 1468.27 Q1547.58 1465.74 1548.46 1464.01 Q1549.36 1462.25 1549.36 1460.56 Q1549.36 1457.8 1547.42 1456.07 Q1545.5 1454.33 1542.4 1454.33 Q1540.2 1454.33 1537.74 1455.09 Q1535.31 1455.86 1532.54 1457.41 L1532.54 1452.69 Q1535.36 1451.55 1537.81 1450.97 Q1540.27 1450.39 1542.3 1450.39 Q1547.67 1450.39 1550.87 1453.08 Q1554.06 1455.77 1554.06 1460.26 Q1554.06 1462.39 1553.25 1464.31 Q1552.47 1466.2 1550.36 1468.8 Q1549.78 1469.47 1546.68 1472.69 Q1543.58 1475.88 1537.93 1481.64 Z" fill="#000000" fill-rule="nonzero" fill-opacity="1" /><path clip-path="url(#clip920)" d="M1568.09 1481.64 L1584.41 1481.64 L1584.41 1485.58 L1562.47 1485.58 L1562.47 1481.64 Q1565.13 1478.89 1569.71 1474.26 Q1574.32 1469.61 1575.5 1468.27 Q1577.74 1465.74 1578.62 1464.01 Q1579.53 1462.25 1579.53 1460.56 Q1579.53 1457.8 1577.58 1456.07 Q1575.66 1454.33 1572.56 1454.33 Q1570.36 1454.33 1567.91 1455.09 Q1565.47 1455.86 1562.7 1457.41 L1562.7 1452.69 Q1565.52 1451.55 1567.97 1450.97 Q1570.43 1450.39 1572.47 1450.39 Q1577.84 1450.39 1581.03 1453.08 Q1584.22 1455.77 1584.22 1460.26 Q1584.22 1462.39 1583.41 1464.31 Q1582.63 1466.2 1580.52 1468.8 Q1579.94 1469.47 1576.84 1472.69 Q1573.74 1475.88 1568.09 1481.64 Z" fill="#000000" fill-rule="nonzero" fill-opacity="1" /><path clip-path="url(#clip920)" d="M1604.22 1454.1 Q1600.61 1454.1 1598.78 1457.66 Q1596.98 1461.2 1596.98 1468.33 Q1596.98 1475.44 1598.78 1479.01 Q1600.61 1482.55 1604.22 1482.55 Q1607.86 1482.55 1609.66 1479.01 Q1611.49 1475.44 1611.49 1468.33 Q1611.49 1461.2 1609.66 1457.66 Q1607.86 1454.1 1604.22 1454.1 M1604.22 1450.39 Q1610.03 1450.39 1613.09 1455 Q1616.17 1459.58 1616.17 1468.33 Q1616.17 1477.06 1613.09 1481.67 Q1610.03 1486.25 1604.22 1486.25 Q1598.41 1486.25 1595.34 1481.67 Q1592.28 1477.06 1592.28 1468.33 Q1592.28 1459.58 1595.34 1455 Q1598.41 1450.39 1604.22 1450.39 Z" fill="#000000" fill-rule="nonzero" fill-opacity="1" /><path clip-path="url(#clip920)" d="M1975.77 1481.64 L1992.09 1481.64 L1992.09 1485.58 L1970.14 1485.58 L1970.14 1481.64 Q1972.8 1478.89 1977.39 1474.26 Q1981.99 1469.61 1983.17 1468.27 Q1985.42 1465.74 1986.3 1464.01 Q1987.2 1462.25 1987.2 1460.56 Q1987.2 1457.8 1985.26 1456.07 Q1983.34 1454.33 1980.23 1454.33 Q1978.03 1454.33 1975.58 1455.09 Q1973.15 1455.86 1970.37 1457.41 L1970.37 1452.69 Q1973.2 1451.55 1975.65 1450.97 Q1978.1 1450.39 1980.14 1450.39 Q1985.51 1450.39 1988.71 1453.08 Q1991.9 1455.77 1991.9 1460.26 Q1991.9 1462.39 1991.09 1464.31 Q1990.3 1466.2 1988.2 1468.8 Q1987.62 1469.47 1984.52 1472.69 Q1981.41 1475.88 1975.77 1481.64 Z" fill="#000000" fill-rule="nonzero" fill-opacity="1" /><path clip-path="url(#clip920)" d="M2014.75 1455.09 L2002.94 1473.54 L2014.75 1473.54 L2014.75 1455.09 M2013.52 1451.02 L2019.4 1451.02 L2019.4 1473.54 L2024.33 1473.54 L2024.33 1477.43 L2019.4 1477.43 L2019.4 1485.58 L2014.75 1485.58 L2014.75 1477.43 L1999.15 1477.43 L1999.15 1472.92 L2013.52 1451.02 Z" fill="#000000" fill-rule="nonzero" fill-opacity="1" /><path clip-path="url(#clip920)" d="M2042.06 1454.1 Q2038.45 1454.1 2036.62 1457.66 Q2034.82 1461.2 2034.82 1468.33 Q2034.82 1475.44 2036.62 1479.01 Q2038.45 1482.55 2042.06 1482.55 Q2045.7 1482.55 2047.5 1479.01 Q2049.33 1475.44 2049.33 1468.33 Q2049.33 1461.2 2047.5 1457.66 Q2045.7 1454.1 2042.06 1454.1 M2042.06 1450.39 Q2047.87 1450.39 2050.93 1455 Q2054.01 1459.58 2054.01 1468.33 Q2054.01 1477.06 2050.93 1481.67 Q2047.87 1486.25 2042.06 1486.25 Q2036.25 1486.25 2033.17 1481.67 Q2030.12 1477.06 2030.12 1468.33 Q2030.12 1459.58 2033.17 1455 Q2036.25 1450.39 2042.06 1450.39 Z" fill="#000000" fill-rule="nonzero" fill-opacity="1" /><path clip-path="url(#clip920)" d="M1120.23 1525.81 L1120.23 1562.76 L1128 1562.76 Q1137.83 1562.76 1142.38 1558.3 Q1146.97 1553.85 1146.97 1544.24 Q1146.97 1534.69 1142.38 1530.26 Q1137.83 1525.81 1128 1525.81 L1120.23 1525.81 M1113.8 1520.52 L1127.01 1520.52 Q1140.82 1520.52 1147.28 1526.28 Q1153.75 1532.01 1153.75 1544.24 Q1153.75 1556.52 1147.25 1562.28 Q1140.76 1568.04 1127.01 1568.04 L1113.8 1568.04 L1113.8 1520.52 Z" fill="#000000" fill-rule="nonzero" fill-opacity="1" /><path clip-path="url(#clip920)" d="M1194.23 1548.76 L1194.23 1551.62 L1167.3 1551.62 Q1167.69 1557.67 1170.93 1560.85 Q1174.21 1564 1180.04 1564 Q1183.41 1564 1186.56 1563.17 Q1189.74 1562.35 1192.86 1560.69 L1192.86 1566.23 Q1189.71 1567.57 1186.4 1568.27 Q1183.09 1568.97 1179.69 1568.97 Q1171.16 1568.97 1166.16 1564 Q1161.19 1559.04 1161.19 1550.57 Q1161.19 1541.82 1165.9 1536.69 Q1170.65 1531.54 1178.67 1531.54 Q1185.86 1531.54 1190.03 1536.18 Q1194.23 1540.8 1194.23 1548.76 M1188.38 1547.04 Q1188.31 1542.23 1185.67 1539.37 Q1183.06 1536.5 1178.73 1536.5 Q1173.83 1536.5 1170.87 1539.27 Q1167.94 1542.04 1167.5 1547.07 L1188.38 1547.04 Z" fill="#000000" fill-rule="nonzero" fill-opacity="1" /><path clip-path="url(#clip920)" d="M1231.6 1539.24 Q1233.79 1535.29 1236.85 1533.41 Q1239.91 1531.54 1244.04 1531.54 Q1249.61 1531.54 1252.64 1535.45 Q1255.66 1539.33 1255.66 1546.53 L1255.66 1568.04 L1249.77 1568.04 L1249.77 1546.72 Q1249.77 1541.59 1247.96 1539.11 Q1246.14 1536.63 1242.42 1536.63 Q1237.87 1536.63 1235.23 1539.65 Q1232.59 1542.68 1232.59 1547.9 L1232.59 1568.04 L1226.7 1568.04 L1226.7 1546.72 Q1226.7 1541.56 1224.88 1539.11 Q1223.07 1536.63 1219.28 1536.63 Q1214.79 1536.63 1212.15 1539.68 Q1209.51 1542.71 1209.51 1547.9 L1209.51 1568.04 L1203.62 1568.04 L1203.62 1532.4 L1209.51 1532.4 L1209.51 1537.93 Q1211.51 1534.66 1214.32 1533.1 Q1217.12 1531.54 1220.97 1531.54 Q1224.85 1531.54 1227.56 1533.51 Q1230.29 1535.48 1231.6 1539.24 Z" fill="#000000" fill-rule="nonzero" fill-opacity="1" /><path clip-path="url(#clip920)" d="M1283.54 1550.12 Q1276.44 1550.12 1273.71 1551.75 Q1270.97 1553.37 1270.97 1557.29 Q1270.97 1560.4 1273.01 1562.25 Q1275.08 1564.07 1278.61 1564.07 Q1283.48 1564.07 1286.41 1560.63 Q1289.37 1557.16 1289.37 1551.43 L1289.37 1550.12 L1283.54 1550.12 M1295.22 1547.71 L1295.22 1568.04 L1289.37 1568.04 L1289.37 1562.63 Q1287.36 1565.88 1284.37 1567.44 Q1281.38 1568.97 1277.05 1568.97 Q1271.58 1568.97 1268.33 1565.91 Q1265.11 1562.82 1265.11 1557.67 Q1265.11 1551.65 1269.12 1548.6 Q1273.17 1545.54 1281.16 1545.54 L1289.37 1545.54 L1289.37 1544.97 Q1289.37 1540.93 1286.69 1538.73 Q1284.05 1536.5 1279.25 1536.5 Q1276.19 1536.5 1273.29 1537.23 Q1270.4 1537.97 1267.72 1539.43 L1267.72 1534.02 Q1270.94 1532.78 1273.96 1532.17 Q1276.99 1531.54 1279.85 1531.54 Q1287.58 1531.54 1291.4 1535.55 Q1295.22 1539.56 1295.22 1547.71 Z" fill="#000000" fill-rule="nonzero" fill-opacity="1" /><path clip-path="url(#clip920)" d="M1336.92 1546.53 L1336.92 1568.04 L1331.06 1568.04 L1331.06 1546.72 Q1331.06 1541.66 1329.09 1539.14 Q1327.12 1536.63 1323.17 1536.63 Q1318.43 1536.63 1315.69 1539.65 Q1312.95 1542.68 1312.95 1547.9 L1312.95 1568.04 L1307.06 1568.04 L1307.06 1532.4 L1312.95 1532.4 L1312.95 1537.93 Q1315.05 1534.72 1317.89 1533.13 Q1320.75 1531.54 1324.47 1531.54 Q1330.62 1531.54 1333.77 1535.36 Q1336.92 1539.14 1336.92 1546.53 Z" fill="#000000" fill-rule="nonzero" fill-opacity="1" /><path clip-path="url(#clip920)" d="M1372.06 1537.81 L1372.06 1518.52 L1377.91 1518.52 L1377.91 1568.04 L1372.06 1568.04 L1372.06 1562.7 Q1370.21 1565.88 1367.38 1567.44 Q1364.58 1568.97 1360.63 1568.97 Q1354.17 1568.97 1350.1 1563.81 Q1346.05 1558.65 1346.05 1550.25 Q1346.05 1541.85 1350.1 1536.69 Q1354.17 1531.54 1360.63 1531.54 Q1364.58 1531.54 1367.38 1533.1 Q1370.21 1534.62 1372.06 1537.81 M1352.1 1550.25 Q1352.1 1556.71 1354.74 1560.4 Q1357.42 1564.07 1362.06 1564.07 Q1366.71 1564.07 1369.38 1560.4 Q1372.06 1556.71 1372.06 1550.25 Q1372.06 1543.79 1369.38 1540.13 Q1366.71 1536.44 1362.06 1536.44 Q1357.42 1536.44 1354.74 1540.13 Q1352.1 1543.79 1352.1 1550.25 Z" fill="#000000" fill-rule="nonzero" fill-opacity="1" /><polyline clip-path="url(#clip920)" style="stroke:#000000; stroke-linecap:round; stroke-linejoin:round; stroke-width:4; stroke-opacity:1; fill:none" points="138.959,1423.18 138.959,47.2441 "/>
<polyline clip-path="url(#clip920)" style="stroke:#000000; stroke-linecap:round; stroke-linejoin:round; stroke-width:4; stroke-opacity:1; fill:none" points="138.959,1423.18 157.857,1423.18 "/>
<polyline clip-path="url(#clip920)" style="stroke:#000000; stroke-linecap:round; stroke-linejoin:round; stroke-width:4; stroke-opacity:1; fill:none" points="138.959,1147.99 157.857,1147.99 "/>
<polyline clip-path="url(#clip920)" style="stroke:#000000; stroke-linecap:round; stroke-linejoin:round; stroke-width:4; stroke-opacity:1; fill:none" points="138.959,872.806 157.857,872.806 "/>
<polyline clip-path="url(#clip920)" style="stroke:#000000; stroke-linecap:round; stroke-linejoin:round; stroke-width:4; stroke-opacity:1; fill:none" points="138.959,597.618 157.857,597.618 "/>
<polyline clip-path="url(#clip920)" style="stroke:#000000; stroke-linecap:round; stroke-linejoin:round; stroke-width:4; stroke-opacity:1; fill:none" points="138.959,322.431 157.857,322.431 "/>
<polyline clip-path="url(#clip920)" style="stroke:#000000; stroke-linecap:round; stroke-linejoin:round; stroke-width:4; stroke-opacity:1; fill:none" points="138.959,47.2441 157.857,47.2441 "/>
<path clip-path="url(#clip920)" d="M91.0151 1408.98 Q87.404 1408.98 85.5753 1412.54 Q83.7697 1416.08 83.7697 1423.21 Q83.7697 1430.32 85.5753 1433.89 Q87.404 1437.43 91.0151 1437.43 Q94.6493 1437.43 96.4548 1433.89 Q98.2835 1430.32 98.2835 1423.21 Q98.2835 1416.08 96.4548 1412.54 Q94.6493 1408.98 91.0151 1408.98 M91.0151 1405.27 Q96.8252 1405.27 99.8808 1409.88 Q102.959 1414.46 102.959 1423.21 Q102.959 1431.94 99.8808 1436.55 Q96.8252 1441.13 91.0151 1441.13 Q85.2049 1441.13 82.1262 1436.55 Q79.0707 1431.94 79.0707 1423.21 Q79.0707 1414.46 82.1262 1409.88 Q85.2049 1405.27 91.0151 1405.27 Z" fill="#000000" fill-rule="nonzero" fill-opacity="1" /><path clip-path="url(#clip920)" d="M86.6401 1161.34 L102.959 1161.34 L102.959 1165.27 L81.0151 1165.27 L81.0151 1161.34 Q83.6771 1158.58 88.2604 1153.95 Q92.8669 1149.3 94.0475 1147.96 Q96.2928 1145.43 97.1724 1143.7 Q98.0752 1141.94 98.0752 1140.25 Q98.0752 1137.5 96.1308 1135.76 Q94.2095 1134.02 91.1077 1134.02 Q88.9086 1134.02 86.4549 1134.79 Q84.0244 1135.55 81.2466 1137.1 L81.2466 1132.38 Q84.0707 1131.25 86.5243 1130.67 Q88.978 1130.09 91.0151 1130.09 Q96.3854 1130.09 99.5798 1132.77 Q102.774 1135.46 102.774 1139.95 Q102.774 1142.08 101.964 1144 Q101.177 1145.9 99.0706 1148.49 Q98.4919 1149.16 95.39 1152.38 Q92.2882 1155.57 86.6401 1161.34 Z" fill="#000000" fill-rule="nonzero" fill-opacity="1" /><path clip-path="url(#clip920)" d="M93.3762 859.6 L81.5707 878.049 L93.3762 878.049 L93.3762 859.6 M92.1493 855.526 L98.0289 855.526 L98.0289 878.049 L102.959 878.049 L102.959 881.937 L98.0289 881.937 L98.0289 890.086 L93.3762 890.086 L93.3762 881.937 L77.7744 881.937 L77.7744 877.424 L92.1493 855.526 Z" fill="#000000" fill-rule="nonzero" fill-opacity="1" /><path clip-path="url(#clip920)" d="M91.4317 595.755 Q88.2836 595.755 86.4318 597.908 Q84.6031 600.061 84.6031 603.81 Q84.6031 607.537 86.4318 609.713 Q88.2836 611.866 91.4317 611.866 Q94.5799 611.866 96.4085 609.713 Q98.2604 607.537 98.2604 603.81 Q98.2604 600.061 96.4085 597.908 Q94.5799 595.755 91.4317 595.755 M100.714 581.102 L100.714 585.362 Q98.9548 584.528 97.1493 584.088 Q95.3669 583.649 93.6076 583.649 Q88.978 583.649 86.5243 586.774 Q84.0938 589.899 83.7466 596.218 Q85.1123 594.204 87.1725 593.139 Q89.2327 592.051 91.7095 592.051 Q96.9178 592.051 99.927 595.223 Q102.959 598.371 102.959 603.81 Q102.959 609.135 99.8113 612.352 Q96.6632 615.57 91.4317 615.57 Q85.4364 615.57 82.2651 610.986 Q79.0938 606.38 79.0938 597.653 Q79.0938 589.459 82.9827 584.598 Q86.8716 579.713 93.4225 579.713 Q95.1817 579.713 96.9641 580.061 Q98.7696 580.408 100.714 581.102 Z" fill="#000000" fill-rule="nonzero" fill-opacity="1" /><path clip-path="url(#clip920)" d="M91.1077 323.299 Q87.7743 323.299 85.8531 325.082 Q83.9549 326.864 83.9549 329.989 Q83.9549 333.114 85.8531 334.896 Q87.7743 336.679 91.1077 336.679 Q94.441 336.679 96.3623 334.896 Q98.2835 333.091 98.2835 329.989 Q98.2835 326.864 96.3623 325.082 Q94.4641 323.299 91.1077 323.299 M86.4318 321.309 Q83.4225 320.568 81.7327 318.508 Q80.066 316.447 80.066 313.485 Q80.066 309.341 83.0058 306.934 Q85.9688 304.526 91.1077 304.526 Q96.2697 304.526 99.2095 306.934 Q102.149 309.341 102.149 313.485 Q102.149 316.447 100.459 318.508 Q98.7928 320.568 95.8067 321.309 Q99.1863 322.096 101.061 324.387 Q102.959 326.679 102.959 329.989 Q102.959 335.012 99.8808 337.697 Q96.8252 340.383 91.1077 340.383 Q85.3901 340.383 82.3114 337.697 Q79.2559 335.012 79.2559 329.989 Q79.2559 326.679 81.154 324.387 Q83.0521 322.096 86.4318 321.309 M84.7188 313.924 Q84.7188 316.61 86.3855 318.114 Q88.0753 319.619 91.1077 319.619 Q94.1169 319.619 95.8067 318.114 Q97.5197 316.61 97.5197 313.924 Q97.5197 311.239 95.8067 309.735 Q94.1169 308.23 91.1077 308.23 Q88.0753 308.23 86.3855 309.735 Q84.7188 311.239 84.7188 313.924 Z" fill="#000000" fill-rule="nonzero" fill-opacity="1" /><path clip-path="url(#clip920)" d="M51.6634 60.5889 L59.3023 60.5889 L59.3023 34.2233 L50.9921 35.89 L50.9921 31.6308 L59.256 29.9641 L63.9319 29.9641 L63.9319 60.5889 L71.5707 60.5889 L71.5707 64.5241 L51.6634 64.5241 L51.6634 60.5889 Z" fill="#000000" fill-rule="nonzero" fill-opacity="1" /><path clip-path="url(#clip920)" d="M91.0151 33.0428 Q87.404 33.0428 85.5753 36.6076 Q83.7697 40.1492 83.7697 47.2788 Q83.7697 54.3853 85.5753 57.9501 Q87.404 61.4917 91.0151 61.4917 Q94.6493 61.4917 96.4548 57.9501 Q98.2835 54.3853 98.2835 47.2788 Q98.2835 40.1492 96.4548 36.6076 Q94.6493 33.0428 91.0151 33.0428 M91.0151 29.3391 Q96.8252 29.3391 99.8808 33.9456 Q102.959 38.5289 102.959 47.2788 Q102.959 56.0056 99.8808 60.6121 Q96.8252 65.1954 91.0151 65.1954 Q85.2049 65.1954 82.1262 60.6121 Q79.0707 56.0056 79.0707 47.2788 Q79.0707 38.5289 82.1262 33.9456 Q85.2049 29.3391 91.0151 29.3391 Z" fill="#000000" fill-rule="nonzero" fill-opacity="1" /><path clip-path="url(#clip922)" d="M260.722 1285.59 L260.722 1423.18 L370.182 1423.18 L370.182 1285.59 L260.722 1285.59 L260.722 1285.59  Z" fill="#009af9" fill-rule="evenodd" fill-opacity="1"/>
<polyline clip-path="url(#clip922)" style="stroke:#000000; stroke-linecap:round; stroke-linejoin:round; stroke-width:4; stroke-opacity:1; fill:none" points="260.722,1285.59 260.722,1423.18 370.182,1423.18 370.182,1285.59 260.722,1285.59 "/>
<path clip-path="url(#clip922)" d="M370.182 872.806 L370.182 1423.18 L479.641 1423.18 L479.641 872.806 L370.182 872.806 L370.182 872.806  Z" fill="#009af9" fill-rule="evenodd" fill-opacity="1"/>
<polyline clip-path="url(#clip922)" style="stroke:#000000; stroke-linecap:round; stroke-linejoin:round; stroke-width:4; stroke-opacity:1; fill:none" points="370.182,872.806 370.182,1423.18 479.641,1423.18 479.641,872.806 370.182,872.806 "/>
<path clip-path="url(#clip922)" d="M479.641 47.2441 L479.641 1423.18 L589.101 1423.18 L589.101 47.2441 L479.641 47.2441 L479.641 47.2441  Z" fill="#009af9" fill-rule="evenodd" fill-opacity="1"/>
<polyline clip-path="url(#clip922)" style="stroke:#000000; stroke-linecap:round; stroke-linejoin:round; stroke-width:4; stroke-opacity:1; fill:none" points="479.641,47.2441 479.641,1423.18 589.101,1423.18 589.101,47.2441 479.641,47.2441 "/>
<path clip-path="url(#clip922)" d="M589.101 47.2441 L589.101 1423.18 L698.56 1423.18 L698.56 47.2441 L589.101 47.2441 L589.101 47.2441  Z" fill="#009af9" fill-rule="evenodd" fill-opacity="1"/>
<polyline clip-path="url(#clip922)" style="stroke:#000000; stroke-linecap:round; stroke-linejoin:round; stroke-width:4; stroke-opacity:1; fill:none" points="589.101,47.2441 589.101,1423.18 698.56,1423.18 698.56,47.2441 589.101,47.2441 "/>
<path clip-path="url(#clip922)" d="M698.56 1010.4 L698.56 1423.18 L808.02 1423.18 L808.02 1010.4 L698.56 1010.4 L698.56 1010.4  Z" fill="#009af9" fill-rule="evenodd" fill-opacity="1"/>
<polyline clip-path="url(#clip922)" style="stroke:#000000; stroke-linecap:round; stroke-linejoin:round; stroke-width:4; stroke-opacity:1; fill:none" points="698.56,1010.4 698.56,1423.18 808.02,1423.18 808.02,1010.4 698.56,1010.4 "/>
<path clip-path="url(#clip922)" d="M808.02 460.025 L808.02 1423.18 L917.479 1423.18 L917.479 460.025 L808.02 460.025 L808.02 460.025  Z" fill="#009af9" fill-rule="evenodd" fill-opacity="1"/>
<polyline clip-path="url(#clip922)" style="stroke:#000000; stroke-linecap:round; stroke-linejoin:round; stroke-width:4; stroke-opacity:1; fill:none" points="808.02,460.025 808.02,1423.18 917.479,1423.18 917.479,460.025 808.02,460.025 "/>
<path clip-path="url(#clip922)" d="M917.479 597.618 L917.479 1423.18 L1026.94 1423.18 L1026.94 597.618 L917.479 597.618 L917.479 597.618  Z" fill="#009af9" fill-rule="evenodd" fill-opacity="1"/>
<polyline clip-path="url(#clip922)" style="stroke:#000000; stroke-linecap:round; stroke-linejoin:round; stroke-width:4; stroke-opacity:1; fill:none" points="917.479,597.618 917.479,1423.18 1026.94,1423.18 1026.94,597.618 917.479,597.618 "/>
<path clip-path="url(#clip922)" d="M1026.94 184.838 L1026.94 1423.18 L1136.4 1423.18 L1136.4 184.838 L1026.94 184.838 L1026.94 184.838  Z" fill="#009af9" fill-rule="evenodd" fill-opacity="1"/>
<polyline clip-path="url(#clip922)" style="stroke:#000000; stroke-linecap:round; stroke-linejoin:round; stroke-width:4; stroke-opacity:1; fill:none" points="1026.94,184.838 1026.94,1423.18 1136.4,1423.18 1136.4,184.838 1026.94,184.838 "/>
<path clip-path="url(#clip922)" d="M1136.4 47.2441 L1136.4 1423.18 L1245.86 1423.18 L1245.86 47.2441 L1136.4 47.2441 L1136.4 47.2441  Z" fill="#009af9" fill-rule="evenodd" fill-opacity="1"/>
<polyline clip-path="url(#clip922)" style="stroke:#000000; stroke-linecap:round; stroke-linejoin:round; stroke-width:4; stroke-opacity:1; fill:none" points="1136.4,47.2441 1136.4,1423.18 1245.86,1423.18 1245.86,47.2441 1136.4,47.2441 "/>
<path clip-path="url(#clip922)" d="M1245.86 460.025 L1245.86 1423.18 L1355.32 1423.18 L1355.32 460.025 L1245.86 460.025 L1245.86 460.025  Z" fill="#009af9" fill-rule="evenodd" fill-opacity="1"/>
<polyline clip-path="url(#clip922)" style="stroke:#000000; stroke-linecap:round; stroke-linejoin:round; stroke-width:4; stroke-opacity:1; fill:none" points="1245.86,460.025 1245.86,1423.18 1355.32,1423.18 1355.32,460.025 1245.86,460.025 "/>
<path clip-path="url(#clip922)" d="M1355.32 322.431 L1355.32 1423.18 L1464.78 1423.18 L1464.78 322.431 L1355.32 322.431 L1355.32 322.431  Z" fill="#009af9" fill-rule="evenodd" fill-opacity="1"/>
<polyline clip-path="url(#clip922)" style="stroke:#000000; stroke-linecap:round; stroke-linejoin:round; stroke-width:4; stroke-opacity:1; fill:none" points="1355.32,322.431 1355.32,1423.18 1464.78,1423.18 1464.78,322.431 1355.32,322.431 "/>
<path clip-path="url(#clip922)" d="M1464.78 184.838 L1464.78 1423.18 L1574.24 1423.18 L1574.24 184.838 L1464.78 184.838 L1464.78 184.838  Z" fill="#009af9" fill-rule="evenodd" fill-opacity="1"/>
<polyline clip-path="url(#clip922)" style="stroke:#000000; stroke-linecap:round; stroke-linejoin:round; stroke-width:4; stroke-opacity:1; fill:none" points="1464.78,184.838 1464.78,1423.18 1574.24,1423.18 1574.24,184.838 1464.78,184.838 "/>
<path clip-path="url(#clip922)" d="M1574.24 735.212 L1574.24 1423.18 L1683.7 1423.18 L1683.7 735.212 L1574.24 735.212 L1574.24 735.212  Z" fill="#009af9" fill-rule="evenodd" fill-opacity="1"/>
<polyline clip-path="url(#clip922)" style="stroke:#000000; stroke-linecap:round; stroke-linejoin:round; stroke-width:4; stroke-opacity:1; fill:none" points="1574.24,735.212 1574.24,1423.18 1683.7,1423.18 1683.7,735.212 1574.24,735.212 "/>
<path clip-path="url(#clip922)" d="M1683.7 1147.99 L1683.7 1423.18 L1793.16 1423.18 L1793.16 1147.99 L1683.7 1147.99 L1683.7 1147.99  Z" fill="#009af9" fill-rule="evenodd" fill-opacity="1"/>
<polyline clip-path="url(#clip922)" style="stroke:#000000; stroke-linecap:round; stroke-linejoin:round; stroke-width:4; stroke-opacity:1; fill:none" points="1683.7,1147.99 1683.7,1423.18 1793.16,1423.18 1793.16,1147.99 1683.7,1147.99 "/>
<path clip-path="url(#clip922)" d="M1793.16 1147.99 L1793.16 1423.18 L1902.61 1423.18 L1902.61 1147.99 L1793.16 1147.99 L1793.16 1147.99  Z" fill="#009af9" fill-rule="evenodd" fill-opacity="1"/>
<polyline clip-path="url(#clip922)" style="stroke:#000000; stroke-linecap:round; stroke-linejoin:round; stroke-width:4; stroke-opacity:1; fill:none" points="1793.16,1147.99 1793.16,1423.18 1902.61,1423.18 1902.61,1147.99 1793.16,1147.99 "/>
<path clip-path="url(#clip922)" d="M1902.61 735.212 L1902.61 1423.18 L2012.07 1423.18 L2012.07 735.212 L1902.61 735.212 L1902.61 735.212  Z" fill="#009af9" fill-rule="evenodd" fill-opacity="1"/>
<polyline clip-path="url(#clip922)" style="stroke:#000000; stroke-linecap:round; stroke-linejoin:round; stroke-width:4; stroke-opacity:1; fill:none" points="1902.61,735.212 1902.61,1423.18 2012.07,1423.18 2012.07,735.212 1902.61,735.212 "/>
<path clip-path="url(#clip922)" d="M2012.07 1285.59 L2012.07 1423.18 L2121.53 1423.18 L2121.53 1285.59 L2012.07 1285.59 L2012.07 1285.59  Z" fill="#009af9" fill-rule="evenodd" fill-opacity="1"/>
<polyline clip-path="url(#clip922)" style="stroke:#000000; stroke-linecap:round; stroke-linejoin:round; stroke-width:4; stroke-opacity:1; fill:none" points="2012.07,1285.59 2012.07,1423.18 2121.53,1423.18 2121.53,1285.59 2012.07,1285.59 "/>
<path clip-path="url(#clip922)" d="M2121.53 1285.59 L2121.53 1423.18 L2230.99 1423.18 L2230.99 1285.59 L2121.53 1285.59 L2121.53 1285.59  Z" fill="#009af9" fill-rule="evenodd" fill-opacity="1"/>
<polyline clip-path="url(#clip922)" style="stroke:#000000; stroke-linecap:round; stroke-linejoin:round; stroke-width:4; stroke-opacity:1; fill:none" points="2121.53,1285.59 2121.53,1423.18 2230.99,1423.18 2230.99,1285.59 2121.53,1285.59 "/>
<circle clip-path="url(#clip922)" style="fill:#009af9; stroke:none; fill-opacity:0" cx="315.452" cy="1285.59" r="2"/>
<circle clip-path="url(#clip922)" style="fill:#009af9; stroke:none; fill-opacity:0" cx="424.911" cy="872.806" r="2"/>
<circle clip-path="url(#clip922)" style="fill:#009af9; stroke:none; fill-opacity:0" cx="534.371" cy="47.2441" r="2"/>
<circle clip-path="url(#clip922)" style="fill:#009af9; stroke:none; fill-opacity:0" cx="643.83" cy="47.2441" r="2"/>
<circle clip-path="url(#clip922)" style="fill:#009af9; stroke:none; fill-opacity:0" cx="753.29" cy="1010.4" r="2"/>
<circle clip-path="url(#clip922)" style="fill:#009af9; stroke:none; fill-opacity:0" cx="862.749" cy="460.025" r="2"/>
<circle clip-path="url(#clip922)" style="fill:#009af9; stroke:none; fill-opacity:0" cx="972.209" cy="597.618" r="2"/>
<circle clip-path="url(#clip922)" style="fill:#009af9; stroke:none; fill-opacity:0" cx="1081.67" cy="184.838" r="2"/>
<circle clip-path="url(#clip922)" style="fill:#009af9; stroke:none; fill-opacity:0" cx="1191.13" cy="47.2441" r="2"/>
<circle clip-path="url(#clip922)" style="fill:#009af9; stroke:none; fill-opacity:0" cx="1300.59" cy="460.025" r="2"/>
<circle clip-path="url(#clip922)" style="fill:#009af9; stroke:none; fill-opacity:0" cx="1410.05" cy="322.431" r="2"/>
<circle clip-path="url(#clip922)" style="fill:#009af9; stroke:none; fill-opacity:0" cx="1519.51" cy="184.838" r="2"/>
<circle clip-path="url(#clip922)" style="fill:#009af9; stroke:none; fill-opacity:0" cx="1628.97" cy="735.212" r="2"/>
<circle clip-path="url(#clip922)" style="fill:#009af9; stroke:none; fill-opacity:0" cx="1738.43" cy="1147.99" r="2"/>
<circle clip-path="url(#clip922)" style="fill:#009af9; stroke:none; fill-opacity:0" cx="1847.88" cy="1147.99" r="2"/>
<circle clip-path="url(#clip922)" style="fill:#009af9; stroke:none; fill-opacity:0" cx="1957.34" cy="735.212" r="2"/>
<circle clip-path="url(#clip922)" style="fill:#009af9; stroke:none; fill-opacity:0" cx="2066.8" cy="1285.59" r="2"/>
<circle clip-path="url(#clip922)" style="fill:#009af9; stroke:none; fill-opacity:0" cx="2176.26" cy="1285.59" r="2"/>
</svg>
