<?xml version="1.0" encoding="utf-8"?>
<svg xmlns="http://www.w3.org/2000/svg" xmlns:xlink="http://www.w3.org/1999/xlink" width="600" height="400" viewBox="0 0 2400 1600">
<defs>
  <clipPath id="clip370">
    <rect x="0" y="0" width="2400" height="1600"/>
  </clipPath>
</defs>
<path clip-path="url(#clip370)" d="M0 1600 L2400 1600 L2400 0 L0 0  Z" fill="#ffffff" fill-rule="evenodd" fill-opacity="1"/>
<defs>
  <clipPath id="clip371">
    <rect x="182" y="123" width="2172" height="1301"/>
  </clipPath>
</defs>
<path clip-path="url(#clip370)" d="M182.251 1423.18 L2352.76 1423.18 L2352.76 123.472 L182.251 123.472  Z" fill="#ffffff" fill-rule="evenodd" fill-opacity="1"/>
<polyline clip-path="url(#clip371)" style="stroke:#000000; stroke-linecap:round; stroke-linejoin:round; stroke-width:2; stroke-opacity:0.1; fill:none" points="243.68,1423.18 243.68,123.472 "/>
<polyline clip-path="url(#clip371)" style="stroke:#000000; stroke-linecap:round; stroke-linejoin:round; stroke-width:2; stroke-opacity:0.1; fill:none" points="775.536,1423.18 775.536,123.472 "/>
<polyline clip-path="url(#clip371)" style="stroke:#000000; stroke-linecap:round; stroke-linejoin:round; stroke-width:2; stroke-opacity:0.1; fill:none" points="1307.39,1423.18 1307.39,123.472 "/>
<polyline clip-path="url(#clip371)" style="stroke:#000000; stroke-linecap:round; stroke-linejoin:round; stroke-width:2; stroke-opacity:0.1; fill:none" points="1839.25,1423.18 1839.25,123.472 "/>
<polyline clip-path="url(#clip371)" style="stroke:#000000; stroke-linecap:round; stroke-linejoin:round; stroke-width:2; stroke-opacity:0.1; fill:none" points="182.251,1360.31 2352.76,1360.31 "/>
<polyline clip-path="url(#clip371)" style="stroke:#000000; stroke-linecap:round; stroke-linejoin:round; stroke-width:2; stroke-opacity:0.1; fill:none" points="182.251,1295.09 2352.76,1295.09 "/>
<polyline clip-path="url(#clip371)" style="stroke:#000000; stroke-linecap:round; stroke-linejoin:round; stroke-width:2; stroke-opacity:0.1; fill:none" points="182.251,1229.87 2352.76,1229.87 "/>
<polyline clip-path="url(#clip371)" style="stroke:#000000; stroke-linecap:round; stroke-linejoin:round; stroke-width:2; stroke-opacity:0.1; fill:none" points="182.251,1164.65 2352.76,1164.65 "/>
<polyline clip-path="url(#clip371)" style="stroke:#000000; stroke-linecap:round; stroke-linejoin:round; stroke-width:2; stroke-opacity:0.1; fill:none" points="182.251,1099.43 2352.76,1099.43 "/>
<polyline clip-path="url(#clip371)" style="stroke:#000000; stroke-linecap:round; stroke-linejoin:round; stroke-width:2; stroke-opacity:0.1; fill:none" points="182.251,1034.21 2352.76,1034.21 "/>
<polyline clip-path="url(#clip371)" style="stroke:#000000; stroke-linecap:round; stroke-linejoin:round; stroke-width:2; stroke-opacity:0.1; fill:none" points="182.251,968.987 2352.76,968.987 "/>
<polyline clip-path="url(#clip371)" style="stroke:#000000; stroke-linecap:round; stroke-linejoin:round; stroke-width:2; stroke-opacity:0.1; fill:none" points="182.251,903.766 2352.76,903.766 "/>
<polyline clip-path="url(#clip371)" style="stroke:#000000; stroke-linecap:round; stroke-linejoin:round; stroke-width:2; stroke-opacity:0.1; fill:none" points="182.251,838.546 2352.76,838.546 "/>
<polyline clip-path="url(#clip371)" style="stroke:#000000; stroke-linecap:round; stroke-linejoin:round; stroke-width:2; stroke-opacity:0.1; fill:none" points="182.251,773.326 2352.76,773.326 "/>
<polyline clip-path="url(#clip371)" style="stroke:#000000; stroke-linecap:round; stroke-linejoin:round; stroke-width:2; stroke-opacity:0.1; fill:none" points="182.251,708.106 2352.76,708.106 "/>
<polyline clip-path="url(#clip371)" style="stroke:#000000; stroke-linecap:round; stroke-linejoin:round; stroke-width:2; stroke-opacity:0.1; fill:none" points="182.251,642.886 2352.76,642.886 "/>
<polyline clip-path="url(#clip371)" style="stroke:#000000; stroke-linecap:round; stroke-linejoin:round; stroke-width:2; stroke-opacity:0.1; fill:none" points="182.251,577.665 2352.76,577.665 "/>
<polyline clip-path="url(#clip371)" style="stroke:#000000; stroke-linecap:round; stroke-linejoin:round; stroke-width:2; stroke-opacity:0.1; fill:none" points="182.251,512.445 2352.76,512.445 "/>
<polyline clip-path="url(#clip371)" style="stroke:#000000; stroke-linecap:round; stroke-linejoin:round; stroke-width:2; stroke-opacity:0.1; fill:none" points="182.251,447.225 2352.76,447.225 "/>
<polyline clip-path="url(#clip371)" style="stroke:#000000; stroke-linecap:round; stroke-linejoin:round; stroke-width:2; stroke-opacity:0.1; fill:none" points="182.251,382.005 2352.76,382.005 "/>
<polyline clip-path="url(#clip371)" style="stroke:#000000; stroke-linecap:round; stroke-linejoin:round; stroke-width:2; stroke-opacity:0.1; fill:none" points="182.251,316.785 2352.76,316.785 "/>
<polyline clip-path="url(#clip371)" style="stroke:#000000; stroke-linecap:round; stroke-linejoin:round; stroke-width:2; stroke-opacity:0.1; fill:none" points="182.251,251.565 2352.76,251.565 "/>
<polyline clip-path="url(#clip371)" style="stroke:#000000; stroke-linecap:round; stroke-linejoin:round; stroke-width:2; stroke-opacity:0.1; fill:none" points="182.251,186.344 2352.76,186.344 "/>
<polyline clip-path="url(#clip370)" style="stroke:#000000; stroke-linecap:round; stroke-linejoin:round; stroke-width:4; stroke-opacity:1; fill:none" points="182.251,1423.18 2352.76,1423.18 "/>
<polyline clip-path="url(#clip370)" style="stroke:#000000; stroke-linecap:round; stroke-linejoin:round; stroke-width:4; stroke-opacity:1; fill:none" points="243.68,1423.18 243.68,1404.28 "/>
<polyline clip-path="url(#clip370)" style="stroke:#000000; stroke-linecap:round; stroke-linejoin:round; stroke-width:4; stroke-opacity:1; fill:none" points="775.536,1423.18 775.536,1404.28 "/>
<polyline clip-path="url(#clip370)" style="stroke:#000000; stroke-linecap:round; stroke-linejoin:round; stroke-width:4; stroke-opacity:1; fill:none" points="1307.39,1423.18 1307.39,1404.28 "/>
<polyline clip-path="url(#clip370)" style="stroke:#000000; stroke-linecap:round; stroke-linejoin:round; stroke-width:4; stroke-opacity:1; fill:none" points="1839.25,1423.18 1839.25,1404.28 "/>
<path clip-path="url(#clip370)" d="M243.68 1454.1 Q240.069 1454.1 238.24 1457.66 Q236.435 1461.2 236.435 1468.33 Q236.435 1475.44 238.24 1479.01 Q240.069 1482.55 243.68 1482.55 Q247.314 1482.55 249.12 1479.01 Q250.949 1475.44 250.949 1468.33 Q250.949 1461.2 249.12 1457.66 Q247.314 1454.1 243.68 1454.1 M243.68 1450.39 Q249.49 1450.39 252.546 1455 Q255.624 1459.58 255.624 1468.33 Q255.624 1477.06 252.546 1481.67 Q249.49 1486.25 243.68 1486.25 Q237.87 1486.25 234.791 1481.67 Q231.736 1477.06 231.736 1468.33 Q231.736 1459.58 234.791 1455 Q237.87 1450.39 243.68 1450.39 Z" fill="#000000" fill-rule="nonzero" fill-opacity="1" /><path clip-path="url(#clip370)" d="M754.31 1481.64 L770.629 1481.64 L770.629 1485.58 L748.685 1485.58 L748.685 1481.64 Q751.347 1478.89 755.93 1474.26 Q760.536 1469.61 761.717 1468.27 Q763.962 1465.74 764.842 1464.01 Q765.745 1462.25 765.745 1460.56 Q765.745 1457.8 763.8 1456.07 Q761.879 1454.33 758.777 1454.33 Q756.578 1454.33 754.124 1455.09 Q751.694 1455.86 748.916 1457.41 L748.916 1452.69 Q751.74 1451.55 754.194 1450.97 Q756.648 1450.39 758.685 1450.39 Q764.055 1450.39 767.249 1453.08 Q770.444 1455.77 770.444 1460.26 Q770.444 1462.39 769.634 1464.31 Q768.847 1466.2 766.74 1468.8 Q766.161 1469.47 763.06 1472.69 Q759.958 1475.88 754.31 1481.64 Z" fill="#000000" fill-rule="nonzero" fill-opacity="1" /><path clip-path="url(#clip370)" d="M790.444 1454.1 Q786.833 1454.1 785.004 1457.66 Q783.198 1461.2 783.198 1468.33 Q783.198 1475.44 785.004 1479.01 Q786.833 1482.55 790.444 1482.55 Q794.078 1482.55 795.883 1479.01 Q797.712 1475.44 797.712 1468.33 Q797.712 1461.2 795.883 1457.66 Q794.078 1454.1 790.444 1454.1 M790.444 1450.39 Q796.254 1450.39 799.309 1455 Q802.388 1459.58 802.388 1468.33 Q802.388 1477.06 799.309 1481.67 Q796.254 1486.25 790.444 1486.25 Q784.633 1486.25 781.555 1481.67 Q778.499 1477.06 778.499 1468.33 Q778.499 1459.58 781.555 1455 Q784.633 1450.39 790.444 1450.39 Z" fill="#000000" fill-rule="nonzero" fill-opacity="1" /><path clip-path="url(#clip370)" d="M1295.56 1455.09 L1283.76 1473.54 L1295.56 1473.54 L1295.56 1455.09 M1294.34 1451.02 L1300.22 1451.02 L1300.22 1473.54 L1305.15 1473.54 L1305.15 1477.43 L1300.22 1477.43 L1300.22 1485.58 L1295.56 1485.58 L1295.56 1477.43 L1279.96 1477.43 L1279.96 1472.92 L1294.34 1451.02 Z" fill="#000000" fill-rule="nonzero" fill-opacity="1" /><path clip-path="url(#clip370)" d="M1322.88 1454.1 Q1319.27 1454.1 1317.44 1457.66 Q1315.63 1461.2 1315.63 1468.33 Q1315.63 1475.44 1317.44 1479.01 Q1319.27 1482.55 1322.88 1482.55 Q1326.51 1482.55 1328.32 1479.01 Q1330.15 1475.44 1330.15 1468.33 Q1330.15 1461.2 1328.32 1457.66 Q1326.51 1454.1 1322.88 1454.1 M1322.88 1450.39 Q1328.69 1450.39 1331.74 1455 Q1334.82 1459.58 1334.82 1468.33 Q1334.82 1477.06 1331.74 1481.67 Q1328.69 1486.25 1322.88 1486.25 Q1317.07 1486.25 1313.99 1481.67 Q1310.93 1477.06 1310.93 1468.33 Q1310.93 1459.58 1313.99 1455 Q1317.07 1450.39 1322.88 1450.39 Z" fill="#000000" fill-rule="nonzero" fill-opacity="1" /><path clip-path="url(#clip370)" d="M1824.65 1466.44 Q1821.51 1466.44 1819.65 1468.59 Q1817.83 1470.74 1817.83 1474.49 Q1817.83 1478.22 1819.65 1480.39 Q1821.51 1482.55 1824.65 1482.55 Q1827.8 1482.55 1829.63 1480.39 Q1831.48 1478.22 1831.48 1474.49 Q1831.48 1470.74 1829.63 1468.59 Q1827.8 1466.44 1824.65 1466.44 M1833.94 1451.78 L1833.94 1456.04 Q1832.18 1455.21 1830.37 1454.77 Q1828.59 1454.33 1826.83 1454.33 Q1822.2 1454.33 1819.75 1457.45 Q1817.32 1460.58 1816.97 1466.9 Q1818.33 1464.89 1820.39 1463.82 Q1822.45 1462.73 1824.93 1462.73 Q1830.14 1462.73 1833.15 1465.9 Q1836.18 1469.05 1836.18 1474.49 Q1836.18 1479.82 1833.03 1483.03 Q1829.89 1486.25 1824.65 1486.25 Q1818.66 1486.25 1815.49 1481.67 Q1812.32 1477.06 1812.32 1468.33 Q1812.32 1460.14 1816.2 1455.28 Q1820.09 1450.39 1826.64 1450.39 Q1828.4 1450.39 1830.19 1450.74 Q1831.99 1451.09 1833.94 1451.78 Z" fill="#000000" fill-rule="nonzero" fill-opacity="1" /><path clip-path="url(#clip370)" d="M1854.24 1454.1 Q1850.63 1454.1 1848.8 1457.66 Q1846.99 1461.2 1846.99 1468.33 Q1846.99 1475.44 1848.8 1479.01 Q1850.63 1482.55 1854.24 1482.55 Q1857.87 1482.55 1859.68 1479.01 Q1861.51 1475.44 1861.51 1468.33 Q1861.51 1461.2 1859.68 1457.66 Q1857.87 1454.1 1854.24 1454.1 M1854.24 1450.39 Q1860.05 1450.39 1863.1 1455 Q1866.18 1459.58 1866.18 1468.33 Q1866.18 1477.06 1863.1 1481.67 Q1860.05 1486.25 1854.24 1486.25 Q1848.43 1486.25 1845.35 1481.67 Q1842.29 1477.06 1842.29 1468.33 Q1842.29 1459.58 1845.35 1455 Q1848.43 1450.39 1854.24 1450.39 Z" fill="#000000" fill-rule="nonzero" fill-opacity="1" /><path clip-path="url(#clip370)" d="M1189.38 1520.52 L1229.58 1520.52 L1229.58 1525.93 L1212.71 1525.93 L1212.71 1568.04 L1206.25 1568.04 L1206.25 1525.93 L1189.38 1525.93 L1189.38 1520.52 Z" fill="#000000" fill-rule="nonzero" fill-opacity="1" /><path clip-path="url(#clip370)" d="M1233.53 1532.4 L1239.38 1532.4 L1239.38 1568.04 L1233.53 1568.04 L1233.53 1532.4 M1233.53 1518.52 L1239.38 1518.52 L1239.38 1525.93 L1233.53 1525.93 L1233.53 1518.52 Z" fill="#000000" fill-rule="nonzero" fill-opacity="1" /><path clip-path="url(#clip370)" d="M1279.39 1539.24 Q1281.59 1535.29 1284.64 1533.41 Q1287.7 1531.54 1291.84 1531.54 Q1297.41 1531.54 1300.43 1535.45 Q1303.45 1539.33 1303.45 1546.53 L1303.45 1568.04 L1297.57 1568.04 L1297.57 1546.72 Q1297.57 1541.59 1295.75 1539.11 Q1293.94 1536.63 1290.21 1536.63 Q1285.66 1536.63 1283.02 1539.65 Q1280.38 1542.68 1280.38 1547.9 L1280.38 1568.04 L1274.49 1568.04 L1274.49 1546.72 Q1274.49 1541.56 1272.68 1539.11 Q1270.86 1536.63 1267.07 1536.63 Q1262.59 1536.63 1259.94 1539.68 Q1257.3 1542.71 1257.3 1547.9 L1257.3 1568.04 L1251.41 1568.04 L1251.41 1532.4 L1257.3 1532.4 L1257.3 1537.93 Q1259.31 1534.66 1262.11 1533.1 Q1264.91 1531.54 1268.76 1531.54 Q1272.64 1531.54 1275.35 1533.51 Q1278.09 1535.48 1279.39 1539.24 Z" fill="#000000" fill-rule="nonzero" fill-opacity="1" /><path clip-path="url(#clip370)" d="M1345.63 1548.76 L1345.63 1551.62 L1318.7 1551.62 Q1319.08 1557.67 1322.33 1560.85 Q1325.61 1564 1331.43 1564 Q1334.8 1564 1337.96 1563.17 Q1341.14 1562.35 1344.26 1560.69 L1344.26 1566.23 Q1341.11 1567.57 1337.8 1568.27 Q1334.49 1568.97 1331.08 1568.97 Q1322.55 1568.97 1317.55 1564 Q1312.59 1559.04 1312.59 1550.57 Q1312.59 1541.82 1317.3 1536.69 Q1322.04 1531.54 1330.06 1531.54 Q1337.26 1531.54 1341.43 1536.18 Q1345.63 1540.8 1345.63 1548.76 M1339.77 1547.04 Q1339.71 1542.23 1337.06 1539.37 Q1334.45 1536.5 1330.13 1536.5 Q1325.22 1536.5 1322.26 1539.27 Q1319.34 1542.04 1318.89 1547.07 L1339.77 1547.04 Z" fill="#000000" fill-rule="nonzero" fill-opacity="1" /><polyline clip-path="url(#clip370)" style="stroke:#000000; stroke-linecap:round; stroke-linejoin:round; stroke-width:4; stroke-opacity:1; fill:none" points="182.251,1423.18 182.251,123.472 "/>
<polyline clip-path="url(#clip370)" style="stroke:#000000; stroke-linecap:round; stroke-linejoin:round; stroke-width:4; stroke-opacity:1; fill:none" points="182.251,1360.31 201.148,1360.31 "/>
<polyline clip-path="url(#clip370)" style="stroke:#000000; stroke-linecap:round; stroke-linejoin:round; stroke-width:4; stroke-opacity:1; fill:none" points="182.251,1295.09 201.148,1295.09 "/>
<polyline clip-path="url(#clip370)" style="stroke:#000000; stroke-linecap:round; stroke-linejoin:round; stroke-width:4; stroke-opacity:1; fill:none" points="182.251,1229.87 201.148,1229.87 "/>
<polyline clip-path="url(#clip370)" style="stroke:#000000; stroke-linecap:round; stroke-linejoin:round; stroke-width:4; stroke-opacity:1; fill:none" points="182.251,1164.65 201.148,1164.65 "/>
<polyline clip-path="url(#clip370)" style="stroke:#000000; stroke-linecap:round; stroke-linejoin:round; stroke-width:4; stroke-opacity:1; fill:none" points="182.251,1099.43 201.148,1099.43 "/>
<polyline clip-path="url(#clip370)" style="stroke:#000000; stroke-linecap:round; stroke-linejoin:round; stroke-width:4; stroke-opacity:1; fill:none" points="182.251,1034.21 201.148,1034.21 "/>
<polyline clip-path="url(#clip370)" style="stroke:#000000; stroke-linecap:round; stroke-linejoin:round; stroke-width:4; stroke-opacity:1; fill:none" points="182.251,968.987 201.148,968.987 "/>
<polyline clip-path="url(#clip370)" style="stroke:#000000; stroke-linecap:round; stroke-linejoin:round; stroke-width:4; stroke-opacity:1; fill:none" points="182.251,903.766 201.148,903.766 "/>
<polyline clip-path="url(#clip370)" style="stroke:#000000; stroke-linecap:round; stroke-linejoin:round; stroke-width:4; stroke-opacity:1; fill:none" points="182.251,838.546 201.148,838.546 "/>
<polyline clip-path="url(#clip370)" style="stroke:#000000; stroke-linecap:round; stroke-linejoin:round; stroke-width:4; stroke-opacity:1; fill:none" points="182.251,773.326 201.148,773.326 "/>
<polyline clip-path="url(#clip370)" style="stroke:#000000; stroke-linecap:round; stroke-linejoin:round; stroke-width:4; stroke-opacity:1; fill:none" points="182.251,708.106 201.148,708.106 "/>
<polyline clip-path="url(#clip370)" style="stroke:#000000; stroke-linecap:round; stroke-linejoin:round; stroke-width:4; stroke-opacity:1; fill:none" points="182.251,642.886 201.148,642.886 "/>
<polyline clip-path="url(#clip370)" style="stroke:#000000; stroke-linecap:round; stroke-linejoin:round; stroke-width:4; stroke-opacity:1; fill:none" points="182.251,577.665 201.148,577.665 "/>
<polyline clip-path="url(#clip370)" style="stroke:#000000; stroke-linecap:round; stroke-linejoin:round; stroke-width:4; stroke-opacity:1; fill:none" points="182.251,512.445 201.148,512.445 "/>
<polyline clip-path="url(#clip370)" style="stroke:#000000; stroke-linecap:round; stroke-linejoin:round; stroke-width:4; stroke-opacity:1; fill:none" points="182.251,447.225 201.148,447.225 "/>
<polyline clip-path="url(#clip370)" style="stroke:#000000; stroke-linecap:round; stroke-linejoin:round; stroke-width:4; stroke-opacity:1; fill:none" points="182.251,382.005 201.148,382.005 "/>
<polyline clip-path="url(#clip370)" style="stroke:#000000; stroke-linecap:round; stroke-linejoin:round; stroke-width:4; stroke-opacity:1; fill:none" points="182.251,316.785 201.148,316.785 "/>
<polyline clip-path="url(#clip370)" style="stroke:#000000; stroke-linecap:round; stroke-linejoin:round; stroke-width:4; stroke-opacity:1; fill:none" points="182.251,251.565 201.148,251.565 "/>
<polyline clip-path="url(#clip370)" style="stroke:#000000; stroke-linecap:round; stroke-linejoin:round; stroke-width:4; stroke-opacity:1; fill:none" points="182.251,186.344 201.148,186.344 "/>
<path clip-path="url(#clip370)" d="M130.417 1347.63 L124.075 1364.83 L136.783 1364.83 L130.417 1347.63 M127.779 1343.03 L133.08 1343.03 L146.251 1377.59 L141.39 1377.59 L138.242 1368.72 L122.663 1368.72 L119.515 1377.59 L114.584 1377.59 L127.779 1343.03 Z" fill="#000000" fill-rule="nonzero" fill-opacity="1" /><path clip-path="url(#clip370)" d="M126.413 1295.86 L126.413 1308.52 L133.913 1308.52 Q137.686 1308.52 139.492 1306.97 Q141.32 1305.4 141.32 1302.18 Q141.32 1298.94 139.492 1297.41 Q137.686 1295.86 133.913 1295.86 L126.413 1295.86 M126.413 1281.65 L126.413 1292.07 L133.334 1292.07 Q136.76 1292.07 138.427 1290.79 Q140.117 1289.5 140.117 1286.86 Q140.117 1284.24 138.427 1282.95 Q136.76 1281.65 133.334 1281.65 L126.413 1281.65 M121.737 1277.81 L133.681 1277.81 Q139.029 1277.81 141.922 1280.03 Q144.816 1282.25 144.816 1286.35 Q144.816 1289.52 143.334 1291.4 Q141.853 1293.27 138.982 1293.73 Q142.431 1294.47 144.329 1296.84 Q146.251 1299.17 146.251 1302.69 Q146.251 1307.32 143.103 1309.84 Q139.954 1312.37 134.144 1312.37 L121.737 1312.37 L121.737 1277.81 Z" fill="#000000" fill-rule="nonzero" fill-opacity="1" /><path clip-path="url(#clip370)" d="M146.251 1215.25 L146.251 1220.18 Q143.89 1217.98 141.204 1216.89 Q138.542 1215.8 135.533 1215.8 Q129.607 1215.8 126.459 1219.44 Q123.311 1223.05 123.311 1229.9 Q123.311 1236.73 126.459 1240.36 Q129.607 1243.98 135.533 1243.98 Q138.542 1243.98 141.204 1242.89 Q143.89 1241.8 146.251 1239.6 L146.251 1244.49 Q143.797 1246.15 141.042 1246.99 Q138.311 1247.82 135.255 1247.82 Q127.408 1247.82 122.894 1243.03 Q118.381 1238.21 118.381 1229.9 Q118.381 1221.57 122.894 1216.78 Q127.408 1211.96 135.255 1211.96 Q138.357 1211.96 141.089 1212.8 Q143.843 1213.61 146.251 1215.25 Z" fill="#000000" fill-rule="nonzero" fill-opacity="1" /><path clip-path="url(#clip370)" d="M121.876 1151.21 L121.876 1178.08 L127.524 1178.08 Q134.677 1178.08 137.987 1174.84 Q141.32 1171.6 141.32 1164.61 Q141.32 1157.67 137.987 1154.45 Q134.677 1151.21 127.524 1151.21 L121.876 1151.21 M117.2 1147.37 L126.806 1147.37 Q136.853 1147.37 141.552 1151.56 Q146.251 1155.72 146.251 1164.61 Q146.251 1173.55 141.529 1177.74 Q136.806 1181.93 126.806 1181.93 L117.2 1181.93 L117.2 1147.37 Z" fill="#000000" fill-rule="nonzero" fill-opacity="1" /><path clip-path="url(#clip370)" d="M123.982 1082.15 L145.834 1082.15 L145.834 1086.08 L128.658 1086.08 L128.658 1096.31 L145.116 1096.31 L145.116 1100.25 L128.658 1100.25 L128.658 1112.77 L146.251 1112.77 L146.251 1116.71 L123.982 1116.71 L123.982 1082.15 Z" fill="#000000" fill-rule="nonzero" fill-opacity="1" /><path clip-path="url(#clip370)" d="M126.39 1016.93 L146.251 1016.93 L146.251 1020.86 L131.066 1020.86 L131.066 1031.05 L144.769 1031.05 L144.769 1034.98 L131.066 1034.98 L131.066 1051.49 L126.39 1051.49 L126.39 1016.93 Z" fill="#000000" fill-rule="nonzero" fill-opacity="1" /><path clip-path="url(#clip370)" d="M141.621 981.336 L141.621 972.054 L133.982 972.054 L133.982 968.211 L146.251 968.211 L146.251 983.049 Q143.542 984.97 140.279 985.966 Q137.015 986.938 133.311 986.938 Q125.209 986.938 120.626 982.216 Q116.066 977.47 116.066 969.021 Q116.066 960.549 120.626 955.827 Q125.209 951.082 133.311 951.082 Q136.691 951.082 139.723 951.915 Q142.779 952.748 145.348 954.369 L145.348 959.345 Q142.755 957.146 139.839 956.035 Q136.922 954.924 133.704 954.924 Q127.362 954.924 124.168 958.466 Q120.996 962.007 120.996 969.021 Q120.996 976.012 124.168 979.554 Q127.362 983.095 133.704 983.095 Q136.181 983.095 138.126 982.679 Q140.07 982.239 141.621 981.336 Z" fill="#000000" fill-rule="nonzero" fill-opacity="1" /><path clip-path="url(#clip370)" d="M119.908 886.486 L124.584 886.486 L124.584 900.653 L141.575 900.653 L141.575 886.486 L146.251 886.486 L146.251 921.046 L141.575 921.046 L141.575 904.588 L124.584 904.588 L124.584 921.046 L119.908 921.046 L119.908 886.486 Z" fill="#000000" fill-rule="nonzero" fill-opacity="1" /><path clip-path="url(#clip370)" d="M141.575 821.266 L146.251 821.266 L146.251 855.826 L141.575 855.826 L141.575 821.266 Z" fill="#000000" fill-rule="nonzero" fill-opacity="1" /><path clip-path="url(#clip370)" d="M141.575 756.046 L146.251 756.046 L146.251 788.199 Q146.251 794.449 143.866 797.273 Q141.505 800.097 136.251 800.097 L134.468 800.097 L134.468 796.162 L135.927 796.162 Q139.029 796.162 140.302 794.425 Q141.575 792.689 141.575 788.199 L141.575 756.046 Z" fill="#000000" fill-rule="nonzero" fill-opacity="1" /><path clip-path="url(#clip370)" d="M118.82 690.826 L123.496 690.826 L123.496 705.432 L139.005 690.826 L145.024 690.826 L127.871 706.937 L146.251 725.386 L140.093 725.386 L123.496 708.742 L123.496 725.386 L118.82 725.386 L118.82 690.826 Z" fill="#000000" fill-rule="nonzero" fill-opacity="1" /><path clip-path="url(#clip370)" d="M124.746 625.606 L129.422 625.606 L129.422 656.23 L146.251 656.23 L146.251 660.166 L124.746 660.166 L124.746 625.606 Z" fill="#000000" fill-rule="nonzero" fill-opacity="1" /><path clip-path="url(#clip370)" d="M114.631 560.385 L121.598 560.385 L130.417 583.904 L139.283 560.385 L146.251 560.385 L146.251 594.945 L141.691 594.945 L141.691 564.598 L132.779 588.302 L128.08 588.302 L119.168 564.598 L119.168 594.945 L114.631 594.945 L114.631 560.385 Z" fill="#000000" fill-rule="nonzero" fill-opacity="1" /><path clip-path="url(#clip370)" d="M120.093 495.165 L126.39 495.165 L141.714 524.077 L141.714 495.165 L146.251 495.165 L146.251 529.725 L139.954 529.725 L124.63 500.813 L124.63 529.725 L120.093 529.725 L120.093 495.165 Z" fill="#000000" fill-rule="nonzero" fill-opacity="1" /><path clip-path="url(#clip370)" d="M130.279 433.116 Q125.186 433.116 122.177 436.913 Q119.191 440.709 119.191 447.26 Q119.191 453.788 122.177 457.584 Q125.186 461.38 130.279 461.38 Q135.371 461.38 138.334 457.584 Q141.32 453.788 141.32 447.26 Q141.32 440.709 138.334 436.913 Q135.371 433.116 130.279 433.116 M130.279 429.32 Q137.547 429.32 141.899 434.204 Q146.251 439.065 146.251 447.26 Q146.251 455.431 141.899 460.315 Q137.547 465.176 130.279 465.176 Q122.987 465.176 118.612 460.315 Q114.26 455.454 114.26 447.26 Q114.26 439.065 118.612 434.204 Q122.987 429.32 130.279 429.32 Z" fill="#000000" fill-rule="nonzero" fill-opacity="1" /><path clip-path="url(#clip370)" d="M128.612 368.567 L128.612 381.554 L134.492 381.554 Q137.755 381.554 139.538 379.864 Q141.32 378.174 141.32 375.049 Q141.32 371.947 139.538 370.257 Q137.755 368.567 134.492 368.567 L128.612 368.567 M123.936 364.725 L134.492 364.725 Q140.302 364.725 143.265 367.364 Q146.251 369.98 146.251 375.049 Q146.251 380.165 143.265 382.78 Q140.302 385.396 134.492 385.396 L128.612 385.396 L128.612 399.285 L123.936 399.285 L123.936 364.725 Z" fill="#000000" fill-rule="nonzero" fill-opacity="1" /><path clip-path="url(#clip370)" d="M130.279 302.676 Q125.186 302.676 122.177 306.472 Q119.191 310.269 119.191 316.819 Q119.191 323.347 122.177 327.143 Q125.186 330.94 130.279 330.94 Q135.371 330.94 138.334 327.143 Q141.32 323.347 141.32 316.819 Q141.32 310.269 138.334 306.472 Q135.371 302.676 130.279 302.676 M136.829 333.44 L142.987 340.176 L137.339 340.176 L132.223 334.643 Q131.459 334.69 131.042 334.713 Q130.649 334.736 130.279 334.736 Q122.987 334.736 118.612 329.875 Q114.26 324.991 114.26 316.819 Q114.26 308.625 118.612 303.764 Q122.987 298.88 130.279 298.88 Q137.547 298.88 141.899 303.764 Q146.251 308.625 146.251 316.819 Q146.251 322.838 143.82 327.12 Q141.413 331.403 136.829 333.44 Z" fill="#000000" fill-rule="nonzero" fill-opacity="1" /><path clip-path="url(#clip370)" d="M135.718 252.641 Q137.223 253.15 138.635 254.817 Q140.07 256.484 141.505 259.4 L146.251 268.845 L141.228 268.845 L136.806 259.979 Q135.093 256.507 133.473 255.372 Q131.876 254.238 129.098 254.238 L124.005 254.238 L124.005 268.845 L119.33 268.845 L119.33 234.285 L129.885 234.285 Q135.811 234.285 138.728 236.761 Q141.644 239.238 141.644 244.238 Q141.644 247.502 140.117 249.655 Q138.612 251.808 135.718 252.641 M124.005 238.127 L124.005 250.396 L129.885 250.396 Q133.265 250.396 134.978 248.845 Q136.714 247.271 136.714 244.238 Q136.714 241.206 134.978 239.678 Q133.265 238.127 129.885 238.127 L124.005 238.127 Z" fill="#000000" fill-rule="nonzero" fill-opacity="1" /><path clip-path="url(#clip370)" d="M144.167 170.199 L144.167 174.759 Q141.505 173.486 139.144 172.861 Q136.783 172.236 134.584 172.236 Q130.765 172.236 128.681 173.717 Q126.621 175.199 126.621 177.93 Q126.621 180.222 127.987 181.402 Q129.376 182.56 133.218 183.277 L136.042 183.856 Q141.274 184.851 143.751 187.374 Q146.251 189.874 146.251 194.087 Q146.251 199.111 142.871 201.703 Q139.515 204.296 133.01 204.296 Q130.556 204.296 127.779 203.74 Q125.024 203.185 122.061 202.097 L122.061 197.282 Q124.908 198.879 127.64 199.689 Q130.371 200.499 133.01 200.499 Q137.015 200.499 139.191 198.925 Q141.366 197.351 141.366 194.435 Q141.366 191.888 139.792 190.453 Q138.242 189.018 134.677 188.3 L131.83 187.745 Q126.598 186.703 124.26 184.481 Q121.922 182.259 121.922 178.3 Q121.922 173.717 125.14 171.078 Q128.38 168.439 134.052 168.439 Q136.482 168.439 139.005 168.879 Q141.529 169.319 144.167 170.199 Z" fill="#000000" fill-rule="nonzero" fill-opacity="1" /><path clip-path="url(#clip370)" d="M16.4842 843.667 L16.4842 803.468 L21.895 803.468 L21.895 820.337 L64.0042 820.337 L64.0042 826.798 L21.895 826.798 L21.895 843.667 L16.4842 843.667 Z" fill="#000000" fill-rule="nonzero" fill-opacity="1" /><path clip-path="url(#clip370)" d="M46.0847 792.105 Q46.0847 799.203 47.7079 801.94 Q49.3312 804.677 53.2461 804.677 Q56.3653 804.677 58.2114 802.64 Q60.0256 800.571 60.0256 797.038 Q60.0256 792.168 56.5881 789.24 Q53.1188 786.28 47.3897 786.28 L46.0847 786.28 L46.0847 792.105 M43.6657 780.424 L64.0042 780.424 L64.0042 786.28 L58.5933 786.28 Q61.8398 788.285 63.3994 791.277 Q64.9272 794.269 64.9272 798.598 Q64.9272 804.072 61.8716 807.319 Q58.7843 810.534 53.6281 810.534 Q47.6125 810.534 44.5569 806.523 Q41.5014 802.481 41.5014 794.492 L41.5014 786.28 L40.9285 786.28 Q36.8862 786.28 34.6901 788.954 Q32.4621 791.596 32.4621 796.402 Q32.4621 799.457 33.1941 802.354 Q33.9262 805.25 35.3903 807.924 L29.9795 807.924 Q28.7381 804.709 28.1334 801.685 Q27.4968 798.661 27.4968 795.797 Q27.4968 788.063 31.5072 784.243 Q35.5176 780.424 43.6657 780.424 Z" fill="#000000" fill-rule="nonzero" fill-opacity="1" /><path clip-path="url(#clip370)" d="M29.4065 745.635 L34.9447 745.635 Q33.6716 748.118 33.035 750.791 Q32.3984 753.465 32.3984 756.33 Q32.3984 760.69 33.7352 762.886 Q35.072 765.051 37.7456 765.051 Q39.7826 765.051 40.9603 763.491 Q42.1061 761.931 43.1565 757.221 L43.6021 755.216 Q44.9389 748.977 47.3897 746.367 Q49.8086 743.725 54.1691 743.725 Q59.1344 743.725 62.0308 747.672 Q64.9272 751.587 64.9272 758.462 Q64.9272 761.327 64.3543 764.446 Q63.8132 767.533 62.6992 770.971 L56.6518 770.971 Q58.3387 767.724 59.198 764.573 Q60.0256 761.422 60.0256 758.335 Q60.0256 754.197 58.6251 751.969 Q57.1929 749.741 54.6147 749.741 Q52.2276 749.741 50.9545 751.364 Q49.6813 752.956 48.5037 758.398 L48.0262 760.435 Q46.8804 765.878 44.5251 768.297 Q42.138 770.716 38.0002 770.716 Q32.9713 770.716 30.2341 767.151 Q27.4968 763.586 27.4968 757.03 Q27.4968 753.783 27.9743 750.919 Q28.4517 748.054 29.4065 745.635 Z" fill="#000000" fill-rule="nonzero" fill-opacity="1" /><path clip-path="url(#clip370)" d="M14.479 734.622 L14.479 728.734 L43.7294 728.734 L28.3562 711.26 L28.3562 703.781 L45.0344 722.687 L64.0042 702.985 L64.0042 710.624 L46.5939 728.734 L64.0042 728.734 L64.0042 734.622 L14.479 734.622 Z" fill="#000000" fill-rule="nonzero" fill-opacity="1" /><path clip-path="url(#clip370)" d="M398.139 35.9153 Q400.934 30.8922 404.823 28.5022 Q408.712 26.1121 413.978 26.1121 Q421.067 26.1121 424.915 31.0947 Q428.764 36.0368 428.764 45.1919 L428.764 72.576 L421.269 72.576 L421.269 45.4349 Q421.269 38.913 418.96 35.7533 Q416.651 32.5936 411.912 32.5936 Q406.119 32.5936 402.757 36.4419 Q399.395 40.2903 399.395 46.9338 L399.395 72.576 L391.9 72.576 L391.9 45.4349 Q391.9 38.8725 389.591 35.7533 Q387.282 32.5936 382.462 32.5936 Q376.75 32.5936 373.388 36.4824 Q370.025 40.3308 370.025 46.9338 L370.025 72.576 L362.531 72.576 L362.531 27.2059 L370.025 27.2059 L370.025 34.2544 Q372.578 30.082 376.142 28.0971 Q379.707 26.1121 384.609 26.1121 Q389.551 26.1121 392.994 28.6237 Q396.478 31.1352 398.139 35.9153 Z" fill="#000000" fill-rule="nonzero" fill-opacity="1" /><path clip-path="url(#clip370)" d="M464.25 49.7694 Q455.216 49.7694 451.732 51.8354 Q448.248 53.9013 448.248 58.8839 Q448.248 62.8538 450.841 65.2034 Q453.474 67.5124 457.971 67.5124 Q464.169 67.5124 467.895 63.1374 Q471.663 58.7219 471.663 51.4303 L471.663 49.7694 L464.25 49.7694 M479.116 46.6907 L479.116 72.576 L471.663 72.576 L471.663 65.6895 Q469.111 69.8214 465.303 71.8063 Q461.495 73.7508 455.986 73.7508 Q449.018 73.7508 444.886 69.8619 Q440.795 65.9325 440.795 59.3701 Q440.795 51.7138 445.899 47.825 Q451.044 43.9361 461.211 43.9361 L471.663 43.9361 L471.663 43.2069 Q471.663 38.0623 468.26 35.2672 Q464.898 32.4315 458.781 32.4315 Q454.892 32.4315 451.206 33.3632 Q447.519 34.295 444.117 36.1584 L444.117 29.2718 Q448.208 27.692 452.056 26.9223 Q455.905 26.1121 459.55 26.1121 Q469.394 26.1121 474.255 31.2163 Q479.116 36.3204 479.116 46.6907 Z" fill="#000000" fill-rule="nonzero" fill-opacity="1" /><path clip-path="url(#clip370)" d="M494.186 9.54393 L501.68 9.54393 L501.68 46.7717 L523.919 27.2059 L533.439 27.2059 L509.377 48.4326 L534.452 72.576 L524.73 72.576 L501.68 50.4176 L501.68 72.576 L494.186 72.576 L494.186 9.54393 Z" fill="#000000" fill-rule="nonzero" fill-opacity="1" /><path clip-path="url(#clip370)" d="M578.363 48.0275 L578.363 51.6733 L544.093 51.6733 Q544.579 59.3701 548.711 63.421 Q552.883 67.4314 560.296 67.4314 Q564.59 67.4314 568.601 66.3781 Q572.652 65.3249 576.622 63.2184 L576.622 70.267 Q572.611 71.9684 568.398 72.8596 Q564.185 73.7508 559.851 73.7508 Q548.994 73.7508 542.635 67.4314 Q536.315 61.1119 536.315 50.3365 Q536.315 39.1965 542.31 32.6746 Q548.346 26.1121 558.555 26.1121 Q567.71 26.1121 573.016 32.0264 Q578.363 37.9003 578.363 48.0275 M570.91 45.84 Q570.829 39.7232 567.467 36.0774 Q564.145 32.4315 558.636 32.4315 Q552.397 32.4315 548.63 35.9558 Q544.903 39.4801 544.336 45.8805 L570.91 45.84 Z" fill="#000000" fill-rule="nonzero" fill-opacity="1" /><path clip-path="url(#clip370)" d="M619.521 28.5427 L619.521 35.5912 Q616.361 33.9709 612.958 33.1607 Q609.555 32.3505 605.91 32.3505 Q600.36 32.3505 597.565 34.0519 Q594.81 35.7533 594.81 39.156 Q594.81 41.7486 596.795 43.2475 Q598.78 44.7058 604.775 46.0426 L607.327 46.6097 Q615.267 48.3111 618.589 51.4303 Q621.951 54.509 621.951 60.0587 Q621.951 66.3781 616.928 70.0644 Q611.945 73.7508 603.196 73.7508 Q599.55 73.7508 595.58 73.0216 Q591.65 72.3329 587.275 70.9151 L587.275 63.2184 Q591.407 65.3654 595.418 66.4591 Q599.428 67.5124 603.358 67.5124 Q608.624 67.5124 611.459 65.73 Q614.295 63.9071 614.295 60.6258 Q614.295 57.5877 612.229 55.9673 Q610.204 54.3469 603.277 52.8481 L600.684 52.2405 Q593.757 50.7821 590.678 47.7845 Q587.6 44.7463 587.6 39.4801 Q587.6 33.0797 592.137 29.5959 Q596.674 26.1121 605.018 26.1121 Q609.15 26.1121 612.796 26.7198 Q616.442 27.3274 619.521 28.5427 Z" fill="#000000" fill-rule="nonzero" fill-opacity="1" /><path clip-path="url(#clip370)" d="M641.031 65.7705 L641.031 89.8329 L633.537 89.8329 L633.537 27.2059 L641.031 27.2059 L641.031 34.0924 Q643.381 30.0415 646.945 28.0971 Q650.551 26.1121 655.533 26.1121 Q663.797 26.1121 668.942 32.6746 Q674.127 39.2371 674.127 49.9314 Q674.127 60.6258 668.942 67.1883 Q663.797 73.7508 655.533 73.7508 Q650.551 73.7508 646.945 71.8063 Q643.381 69.8214 641.031 65.7705 M666.39 49.9314 Q666.39 41.7081 662.987 37.0496 Q659.625 32.3505 653.71 32.3505 Q647.796 32.3505 644.393 37.0496 Q641.031 41.7081 641.031 49.9314 Q641.031 58.1548 644.393 62.8538 Q647.796 67.5124 653.71 67.5124 Q659.625 67.5124 662.987 62.8538 Q666.39 58.1548 666.39 49.9314 Z" fill="#000000" fill-rule="nonzero" fill-opacity="1" /><path clip-path="url(#clip370)" d="M707.101 49.7694 Q698.068 49.7694 694.584 51.8354 Q691.1 53.9013 691.1 58.8839 Q691.1 62.8538 693.693 65.2034 Q696.326 67.5124 700.822 67.5124 Q707.02 67.5124 710.747 63.1374 Q714.514 58.7219 714.514 51.4303 L714.514 49.7694 L707.101 49.7694 M721.968 46.6907 L721.968 72.576 L714.514 72.576 L714.514 65.6895 Q711.962 69.8214 708.154 71.8063 Q704.347 73.7508 698.837 73.7508 Q691.87 73.7508 687.738 69.8619 Q683.646 65.9325 683.646 59.3701 Q683.646 51.7138 688.751 47.825 Q693.895 43.9361 704.063 43.9361 L714.514 43.9361 L714.514 43.2069 Q714.514 38.0623 711.112 35.2672 Q707.749 32.4315 701.633 32.4315 Q697.744 32.4315 694.057 33.3632 Q690.371 34.295 686.968 36.1584 L686.968 29.2718 Q691.06 27.692 694.908 26.9223 Q698.756 26.1121 702.402 26.1121 Q712.246 26.1121 717.107 31.2163 Q721.968 36.3204 721.968 46.6907 Z" fill="#000000" fill-rule="nonzero" fill-opacity="1" /><path clip-path="url(#clip370)" d="M775.035 45.1919 L775.035 72.576 L767.581 72.576 L767.581 45.4349 Q767.581 38.994 765.07 35.7938 Q762.558 32.5936 757.535 32.5936 Q751.499 32.5936 748.015 36.4419 Q744.532 40.2903 744.532 46.9338 L744.532 72.576 L737.037 72.576 L737.037 27.2059 L744.532 27.2059 L744.532 34.2544 Q747.205 30.163 750.81 28.1376 Q754.456 26.1121 759.196 26.1121 Q767.014 26.1121 771.024 30.9732 Q775.035 35.7938 775.035 45.1919 Z" fill="#000000" fill-rule="nonzero" fill-opacity="1" /><path clip-path="url(#clip370)" d="M817.245 34.9026 L869.178 34.9026 L869.178 41.7081 L817.245 41.7081 L817.245 34.9026 M817.245 51.4303 L869.178 51.4303 L869.178 58.3168 L817.245 58.3168 L817.245 51.4303 Z" fill="#000000" fill-rule="nonzero" fill-opacity="1" /><path clip-path="url(#clip370)" d="M911.145 12.096 L950.034 12.096 L950.034 15.5798 L928.078 72.576 L919.531 72.576 L940.19 18.9825 L911.145 18.9825 L911.145 12.096 Z" fill="#000000" fill-rule="nonzero" fill-opacity="1" /><path clip-path="url(#clip370)" d="M963.929 12.096 L1002.82 12.096 L1002.82 15.5798 L980.861 72.576 L972.314 72.576 L992.974 18.9825 L963.929 18.9825 L963.929 12.096 Z" fill="#000000" fill-rule="nonzero" fill-opacity="1" /><path clip-path="url(#clip370)" d="M1019.63 62.2867 L1028.18 62.2867 L1028.18 69.2543 L1021.53 82.2172 L1016.31 82.2172 L1019.63 69.2543 L1019.63 62.2867 Z" fill="#000000" fill-rule="nonzero" fill-opacity="1" /><path clip-path="url(#clip370)" d="M1103.12 28.9478 L1103.12 35.9153 Q1099.96 34.1734 1096.76 33.3227 Q1093.6 32.4315 1090.36 32.4315 Q1083.11 32.4315 1079.1 37.0496 Q1075.09 41.6271 1075.09 49.9314 Q1075.09 58.2358 1079.1 62.8538 Q1083.11 67.4314 1090.36 67.4314 Q1093.6 67.4314 1096.76 66.5807 Q1099.96 65.6895 1103.12 63.9476 L1103.12 70.8341 Q1100 72.2924 1096.64 73.0216 Q1093.31 73.7508 1089.55 73.7508 Q1079.3 73.7508 1073.26 67.3098 Q1067.23 60.8689 1067.23 49.9314 Q1067.23 38.832 1073.3 32.472 Q1079.42 26.1121 1090.03 26.1121 Q1093.48 26.1121 1096.76 26.8413 Q1100.04 27.5299 1103.12 28.9478 Z" fill="#000000" fill-rule="nonzero" fill-opacity="1" /><path clip-path="url(#clip370)" d="M1133.66 32.4315 Q1127.67 32.4315 1124.18 37.1306 Q1120.7 41.7891 1120.7 49.9314 Q1120.7 58.0738 1124.14 62.7728 Q1127.63 67.4314 1133.66 67.4314 Q1139.62 67.4314 1143.1 62.7323 Q1146.58 58.0333 1146.58 49.9314 Q1146.58 41.8701 1143.1 37.1711 Q1139.62 32.4315 1133.66 32.4315 M1133.66 26.1121 Q1143.38 26.1121 1148.93 32.4315 Q1154.48 38.7509 1154.48 49.9314 Q1154.48 61.0714 1148.93 67.4314 Q1143.38 73.7508 1133.66 73.7508 Q1123.9 73.7508 1118.35 67.4314 Q1112.84 61.0714 1112.84 49.9314 Q1112.84 38.7509 1118.35 32.4315 Q1123.9 26.1121 1133.66 26.1121 Z" fill="#000000" fill-rule="nonzero" fill-opacity="1" /><path clip-path="url(#clip370)" d="M1195.76 28.5427 L1195.76 35.5912 Q1192.6 33.9709 1189.2 33.1607 Q1185.8 32.3505 1182.15 32.3505 Q1176.6 32.3505 1173.81 34.0519 Q1171.05 35.7533 1171.05 39.156 Q1171.05 41.7486 1173.04 43.2475 Q1175.02 44.7058 1181.02 46.0426 L1183.57 46.6097 Q1191.51 48.3111 1194.83 51.4303 Q1198.19 54.509 1198.19 60.0587 Q1198.19 66.3781 1193.17 70.0644 Q1188.19 73.7508 1179.44 73.7508 Q1175.79 73.7508 1171.82 73.0216 Q1167.89 72.3329 1163.52 70.9151 L1163.52 63.2184 Q1167.65 65.3654 1171.66 66.4591 Q1175.67 67.5124 1179.6 67.5124 Q1184.86 67.5124 1187.7 65.73 Q1190.54 63.9071 1190.54 60.6258 Q1190.54 57.5877 1188.47 55.9673 Q1186.44 54.3469 1179.52 52.8481 L1176.93 52.2405 Q1170 50.7821 1166.92 47.7845 Q1163.84 44.7463 1163.84 39.4801 Q1163.84 33.0797 1168.38 29.5959 Q1172.91 26.1121 1181.26 26.1121 Q1185.39 26.1121 1189.04 26.7198 Q1192.68 27.3274 1195.76 28.5427 Z" fill="#000000" fill-rule="nonzero" fill-opacity="1" /><path clip-path="url(#clip370)" d="M1217.43 14.324 L1217.43 27.2059 L1232.79 27.2059 L1232.79 32.9987 L1217.43 32.9987 L1217.43 57.6282 Q1217.43 63.1779 1218.93 64.7578 Q1220.47 66.3376 1225.13 66.3376 L1232.79 66.3376 L1232.79 72.576 L1225.13 72.576 Q1216.5 72.576 1213.22 69.3758 Q1209.94 66.1351 1209.94 57.6282 L1209.94 32.9987 L1204.47 32.9987 L1204.47 27.2059 L1209.94 27.2059 L1209.94 14.324 L1217.43 14.324 Z" fill="#000000" fill-rule="nonzero" fill-opacity="1" /><path clip-path="url(#clip370)" d="M1269.93 34.9026 L1321.87 34.9026 L1321.87 41.7081 L1269.93 41.7081 L1269.93 34.9026 M1269.93 51.4303 L1321.87 51.4303 L1321.87 58.3168 L1269.93 58.3168 L1269.93 51.4303 Z" fill="#000000" fill-rule="nonzero" fill-opacity="1" /><path clip-path="url(#clip370)" d="M1404.3 16.7545 L1404.3 25.383 Q1400.62 21.1295 1397.17 19.3066 Q1393.77 17.4837 1389.64 17.4837 Q1383.28 17.4837 1379.19 21.5346 Q1375.1 25.5855 1373.8 33.1607 L1397.17 33.1607 L1394.94 38.1433 L1373.15 38.1433 Q1373.07 39.1155 1373.03 40.0472 Q1373.03 40.9789 1373.03 42.3968 Q1373.03 43.6931 1373.03 44.6248 Q1373.07 45.5565 1373.15 46.5287 L1391.22 46.5287 L1388.95 51.5113 L1373.8 51.5113 Q1375.1 59.0865 1379.19 63.1779 Q1383.28 67.2693 1389.64 67.2693 Q1393.77 67.2693 1397.17 65.4464 Q1400.62 63.6235 1404.3 59.3701 L1404.3 67.9175 Q1400.7 70.8341 1396.93 72.2924 Q1393.2 73.7508 1389.31 73.7508 Q1379.71 73.7508 1373.43 67.877 Q1367.2 62.0031 1365.58 51.5113 L1357.03 51.5113 L1359.26 46.5287 L1364.89 46.5287 Q1364.89 45.597 1364.85 44.6653 Q1364.85 43.6931 1364.85 42.3968 Q1364.85 40.9789 1364.85 40.0472 Q1364.89 39.075 1364.89 38.1433 L1357.03 38.1433 L1359.26 33.1607 L1365.58 33.1607 Q1367.2 22.7499 1373.47 16.8761 Q1379.75 11.0023 1389.31 11.0023 Q1393.28 11.0023 1397.01 12.4606 Q1400.78 13.8784 1404.3 16.7545 Z" fill="#000000" fill-rule="nonzero" fill-opacity="1" /><path clip-path="url(#clip370)" d="M1420.1 65.6895 L1433.47 65.6895 L1433.47 19.5497 L1418.93 22.4663 L1418.93 15.0127 L1433.39 12.096 L1441.57 12.096 L1441.57 65.6895 L1454.94 65.6895 L1454.94 72.576 L1420.1 72.576 L1420.1 65.6895 Z" fill="#000000" fill-rule="nonzero" fill-opacity="1" /><path clip-path="url(#clip370)" d="M1478.51 65.6895 L1507.07 65.6895 L1507.07 72.576 L1468.67 72.576 L1468.67 65.6895 Q1473.33 60.8689 1481.35 52.7671 Q1489.41 44.6248 1491.48 42.2752 Q1495.41 37.8598 1496.95 34.8216 Q1498.53 31.7429 1498.53 28.7857 Q1498.53 23.9651 1495.12 20.927 Q1491.76 17.8888 1486.33 17.8888 Q1482.48 17.8888 1478.19 19.2256 Q1473.94 20.5624 1469.08 23.2765 L1469.08 15.0127 Q1474.02 13.0277 1478.31 12.015 Q1482.61 11.0023 1486.17 11.0023 Q1495.57 11.0023 1501.16 15.7013 Q1506.75 20.4004 1506.75 28.2591 Q1506.75 31.9859 1505.33 35.3482 Q1503.95 38.6699 1500.27 43.2069 Q1499.26 44.3817 1493.83 50.0125 Q1488.4 55.6027 1478.51 65.6895 Z" fill="#000000" fill-rule="nonzero" fill-opacity="1" /><path clip-path="url(#clip370)" d="M1546.73 19.2256 L1526.07 51.5113 L1546.73 51.5113 L1546.73 19.2256 M1544.59 12.096 L1554.87 12.096 L1554.87 51.5113 L1563.5 51.5113 L1563.5 58.3168 L1554.87 58.3168 L1554.87 72.576 L1546.73 72.576 L1546.73 58.3168 L1519.43 58.3168 L1519.43 50.4176 L1544.59 12.096 Z" fill="#000000" fill-rule="nonzero" fill-opacity="1" /><path clip-path="url(#clip370)" d="M1575.7 9.54393 L1583.19 9.54393 L1583.19 46.7717 L1605.43 27.2059 L1614.95 27.2059 L1590.89 48.4326 L1615.96 72.576 L1606.24 72.576 L1583.19 50.4176 L1583.19 72.576 L1575.7 72.576 L1575.7 9.54393 Z" fill="#000000" fill-rule="nonzero" fill-opacity="1" /><path clip-path="url(#clip370)" d="M1625.93 62.2867 L1634.47 62.2867 L1634.47 69.2543 L1627.83 82.2172 L1622.61 82.2172 L1625.93 69.2543 L1625.93 62.2867 Z" fill="#000000" fill-rule="nonzero" fill-opacity="1" /><path clip-path="url(#clip370)" d="M1683.98 65.7705 L1683.98 89.8329 L1676.48 89.8329 L1676.48 27.2059 L1683.98 27.2059 L1683.98 34.0924 Q1686.33 30.0415 1689.89 28.0971 Q1693.5 26.1121 1698.48 26.1121 Q1706.74 26.1121 1711.89 32.6746 Q1717.07 39.2371 1717.07 49.9314 Q1717.07 60.6258 1711.89 67.1883 Q1706.74 73.7508 1698.48 73.7508 Q1693.5 73.7508 1689.89 71.8063 Q1686.33 69.8214 1683.98 65.7705 M1709.34 49.9314 Q1709.34 41.7081 1705.93 37.0496 Q1702.57 32.3505 1696.66 32.3505 Q1690.74 32.3505 1687.34 37.0496 Q1683.98 41.7081 1683.98 49.9314 Q1683.98 58.1548 1687.34 62.8538 Q1690.74 67.5124 1696.66 67.5124 Q1702.57 67.5124 1705.93 62.8538 Q1709.34 58.1548 1709.34 49.9314 Z" fill="#000000" fill-rule="nonzero" fill-opacity="1" /><path clip-path="url(#clip370)" d="M1768.24 48.0275 L1768.24 51.6733 L1733.96 51.6733 Q1734.45 59.3701 1738.58 63.421 Q1742.76 67.4314 1750.17 67.4314 Q1754.46 67.4314 1758.47 66.3781 Q1762.52 65.3249 1766.49 63.2184 L1766.49 70.267 Q1762.48 71.9684 1758.27 72.8596 Q1754.06 73.7508 1749.72 73.7508 Q1738.87 73.7508 1732.51 67.4314 Q1726.19 61.1119 1726.19 50.3365 Q1726.19 39.1965 1732.18 32.6746 Q1738.22 26.1121 1748.43 26.1121 Q1757.58 26.1121 1762.89 32.0264 Q1768.24 37.9003 1768.24 48.0275 M1760.78 45.84 Q1760.7 39.7232 1757.34 36.0774 Q1754.02 32.4315 1748.51 32.4315 Q1742.27 32.4315 1738.5 35.9558 Q1734.78 39.4801 1734.21 45.8805 L1760.78 45.84 Z" fill="#000000" fill-rule="nonzero" fill-opacity="1" /><path clip-path="url(#clip370)" d="M1798.05 32.4315 Q1792.05 32.4315 1788.57 37.1306 Q1785.09 41.7891 1785.09 49.9314 Q1785.09 58.0738 1788.53 62.7728 Q1792.01 67.4314 1798.05 67.4314 Q1804.01 67.4314 1807.49 62.7323 Q1810.97 58.0333 1810.97 49.9314 Q1810.97 41.8701 1807.49 37.1711 Q1804.01 32.4315 1798.05 32.4315 M1798.05 26.1121 Q1807.77 26.1121 1813.32 32.4315 Q1818.87 38.7509 1818.87 49.9314 Q1818.87 61.0714 1813.32 67.4314 Q1807.77 73.7508 1798.05 73.7508 Q1788.29 73.7508 1782.74 67.4314 Q1777.23 61.0714 1777.23 49.9314 Q1777.23 38.7509 1782.74 32.4315 Q1788.29 26.1121 1798.05 26.1121 Z" fill="#000000" fill-rule="nonzero" fill-opacity="1" /><path clip-path="url(#clip370)" d="M1838.44 65.7705 L1838.44 89.8329 L1830.94 89.8329 L1830.94 27.2059 L1838.44 27.2059 L1838.44 34.0924 Q1840.79 30.0415 1844.35 28.0971 Q1847.96 26.1121 1852.94 26.1121 Q1861.2 26.1121 1866.35 32.6746 Q1871.53 39.2371 1871.53 49.9314 Q1871.53 60.6258 1866.35 67.1883 Q1861.2 73.7508 1852.94 73.7508 Q1847.96 73.7508 1844.35 71.8063 Q1840.79 69.8214 1838.44 65.7705 M1863.8 49.9314 Q1863.8 41.7081 1860.39 37.0496 Q1857.03 32.3505 1851.12 32.3505 Q1845.2 32.3505 1841.8 37.0496 Q1838.44 41.7081 1838.44 49.9314 Q1838.44 58.1548 1841.8 62.8538 Q1845.2 67.5124 1851.12 67.5124 Q1857.03 67.5124 1860.39 62.8538 Q1863.8 58.1548 1863.8 49.9314 Z" fill="#000000" fill-rule="nonzero" fill-opacity="1" /><path clip-path="url(#clip370)" d="M1883.89 9.54393 L1891.34 9.54393 L1891.34 72.576 L1883.89 72.576 L1883.89 9.54393 Z" fill="#000000" fill-rule="nonzero" fill-opacity="1" /><path clip-path="url(#clip370)" d="M1945.75 48.0275 L1945.75 51.6733 L1911.48 51.6733 Q1911.96 59.3701 1916.09 63.421 Q1920.27 67.4314 1927.68 67.4314 Q1931.97 67.4314 1935.98 66.3781 Q1940.03 65.3249 1944 63.2184 L1944 70.267 Q1939.99 71.9684 1935.78 72.8596 Q1931.57 73.7508 1927.23 73.7508 Q1916.38 73.7508 1910.02 67.4314 Q1903.7 61.1119 1903.7 50.3365 Q1903.7 39.1965 1909.69 32.6746 Q1915.73 26.1121 1925.94 26.1121 Q1935.09 26.1121 1940.4 32.0264 Q1945.75 37.9003 1945.75 48.0275 M1938.29 45.84 Q1938.21 39.7232 1934.85 36.0774 Q1931.53 32.4315 1926.02 32.4315 Q1919.78 32.4315 1916.01 35.9558 Q1912.29 39.4801 1911.72 45.8805 L1938.29 45.84 Z" fill="#000000" fill-rule="nonzero" fill-opacity="1" /><path clip-path="url(#clip370)" d="M1985.32 34.9026 L2037.26 34.9026 L2037.26 41.7081 L1985.32 41.7081 L1985.32 34.9026 M1985.32 51.4303 L2037.26 51.4303 L2037.26 58.3168 L1985.32 58.3168 L1985.32 51.4303 Z" fill="#000000" fill-rule="nonzero" fill-opacity="1" /><path clip-path="url(#clip370)" d="M2082.71 65.6895 L2096.08 65.6895 L2096.08 19.5497 L2081.53 22.4663 L2081.53 15.0127 L2095.99 12.096 L2104.18 12.096 L2104.18 65.6895 L2117.55 65.6895 L2117.55 72.576 L2082.71 72.576 L2082.71 65.6895 Z" fill="#000000" fill-rule="nonzero" fill-opacity="1" /><path clip-path="url(#clip370)" d="M2151.57 17.4837 Q2145.25 17.4837 2142.05 23.7221 Q2138.89 29.92 2138.89 42.3968 Q2138.89 54.833 2142.05 61.0714 Q2145.25 67.2693 2151.57 67.2693 Q2157.93 67.2693 2161.09 61.0714 Q2164.29 54.833 2164.29 42.3968 Q2164.29 29.92 2161.09 23.7221 Q2157.93 17.4837 2151.57 17.4837 M2151.57 11.0023 Q2161.74 11.0023 2167.09 19.0636 Q2172.48 27.0843 2172.48 42.3968 Q2172.48 57.6687 2167.09 65.73 Q2161.74 73.7508 2151.57 73.7508 Q2141.4 73.7508 2136.02 65.73 Q2130.67 57.6687 2130.67 42.3968 Q2130.67 27.0843 2136.02 19.0636 Q2141.4 11.0023 2151.57 11.0023 Z" fill="#000000" fill-rule="nonzero" fill-opacity="1" /><path clip-path="url(#clip371)" d="M243.68 1386.4 L509.608 1386.4 L509.608 1334.22 L243.68 1334.22 L243.68 1386.4  Z" fill="#20326c" fill-rule="evenodd" fill-opacity="1"/>
<polyline clip-path="url(#clip371)" style="stroke:#000000; stroke-linecap:round; stroke-linejoin:round; stroke-width:0; stroke-opacity:1; fill:none" points="243.68,1386.4 509.608,1386.4 509.608,1334.22 243.68,1334.22 243.68,1386.4 "/>
<path clip-path="url(#clip371)" d="M243.68 1321.18 L403.237 1321.18 L403.237 1269 L243.68 1269 L243.68 1321.18  Z" fill="#a0b1ec" fill-rule="evenodd" fill-opacity="1"/>
<polyline clip-path="url(#clip371)" style="stroke:#000000; stroke-linecap:round; stroke-linejoin:round; stroke-width:0; stroke-opacity:1; fill:none" points="243.68,1321.18 403.237,1321.18 403.237,1269 243.68,1269 243.68,1321.18 "/>
<path clip-path="url(#clip371)" d="M509.608 1255.96 L642.572 1255.96 L642.572 1203.78 L509.608 1203.78 L509.608 1255.96  Z" fill="#a0b1ec" fill-rule="evenodd" fill-opacity="1"/>
<polyline clip-path="url(#clip371)" style="stroke:#000000; stroke-linecap:round; stroke-linejoin:round; stroke-width:0; stroke-opacity:1; fill:none" points="509.608,1255.96 642.572,1255.96 642.572,1203.78 509.608,1203.78 509.608,1255.96 "/>
<path clip-path="url(#clip371)" d="M509.608 1190.74 L642.572 1190.74 L642.572 1138.56 L509.608 1138.56 L509.608 1190.74  Z" fill="#20326c" fill-rule="evenodd" fill-opacity="1"/>
<polyline clip-path="url(#clip371)" style="stroke:#000000; stroke-linecap:round; stroke-linejoin:round; stroke-width:0; stroke-opacity:1; fill:none" points="509.608,1190.74 642.572,1190.74 642.572,1138.56 509.608,1138.56 509.608,1190.74 "/>
<path clip-path="url(#clip371)" d="M642.572 1125.51 L828.722 1125.51 L828.722 1073.34 L642.572 1073.34 L642.572 1125.51  Z" fill="#20326c" fill-rule="evenodd" fill-opacity="1"/>
<polyline clip-path="url(#clip371)" style="stroke:#000000; stroke-linecap:round; stroke-linejoin:round; stroke-width:0; stroke-opacity:1; fill:none" points="642.572,1125.51 828.722,1125.51 828.722,1073.34 642.572,1073.34 642.572,1125.51 "/>
<path clip-path="url(#clip371)" d="M748.944 1060.29 L961.686 1060.29 L961.686 1008.12 L748.944 1008.12 L748.944 1060.29  Z" fill="#a0b1ec" fill-rule="evenodd" fill-opacity="1"/>
<polyline clip-path="url(#clip371)" style="stroke:#000000; stroke-linecap:round; stroke-linejoin:round; stroke-width:0; stroke-opacity:1; fill:none" points="748.944,1060.29 961.686,1060.29 961.686,1008.12 748.944,1008.12 748.944,1060.29 "/>
<path clip-path="url(#clip371)" d="M961.686 995.075 L1280.8 995.075 L1280.8 942.898 L961.686 942.898 L961.686 995.075  Z" fill="#a0b1ec" fill-rule="evenodd" fill-opacity="1"/>
<polyline clip-path="url(#clip371)" style="stroke:#000000; stroke-linecap:round; stroke-linejoin:round; stroke-width:0; stroke-opacity:1; fill:none" points="961.686,995.075 1280.8,995.075 1280.8,942.898 961.686,942.898 961.686,995.075 "/>
<path clip-path="url(#clip371)" d="M1280.8 929.854 L1387.17 929.854 L1387.17 877.678 L1280.8 877.678 L1280.8 929.854  Z" fill="#a0b1ec" fill-rule="evenodd" fill-opacity="1"/>
<polyline clip-path="url(#clip371)" style="stroke:#000000; stroke-linecap:round; stroke-linejoin:round; stroke-width:0; stroke-opacity:1; fill:none" points="1280.8,929.854 1387.17,929.854 1387.17,877.678 1280.8,877.678 1280.8,929.854 "/>
<path clip-path="url(#clip371)" d="M828.722 864.634 L1307.39 864.634 L1307.39 812.458 L828.722 812.458 L828.722 864.634  Z" fill="#20326c" fill-rule="evenodd" fill-opacity="1"/>
<polyline clip-path="url(#clip371)" style="stroke:#000000; stroke-linecap:round; stroke-linejoin:round; stroke-width:0; stroke-opacity:1; fill:none" points="828.722,864.634 1307.39,864.634 1307.39,812.458 828.722,812.458 828.722,864.634 "/>
<path clip-path="url(#clip371)" d="M1307.39 799.414 L1520.14 799.414 L1520.14 747.238 L1307.39 747.238 L1307.39 799.414  Z" fill="#20326c" fill-rule="evenodd" fill-opacity="1"/>
<polyline clip-path="url(#clip371)" style="stroke:#000000; stroke-linecap:round; stroke-linejoin:round; stroke-width:0; stroke-opacity:1; fill:none" points="1307.39,799.414 1520.14,799.414 1520.14,747.238 1307.39,747.238 1307.39,799.414 "/>
<path clip-path="url(#clip371)" d="M1520.14 734.194 L1599.91 734.194 L1599.91 682.018 L1520.14 682.018 L1520.14 734.194  Z" fill="#20326c" fill-rule="evenodd" fill-opacity="1"/>
<polyline clip-path="url(#clip371)" style="stroke:#000000; stroke-linecap:round; stroke-linejoin:round; stroke-width:0; stroke-opacity:1; fill:none" points="1520.14,734.194 1599.91,734.194 1599.91,682.018 1520.14,682.018 1520.14,734.194 "/>
<path clip-path="url(#clip371)" d="M1599.91 668.974 L1759.47 668.974 L1759.47 616.798 L1599.91 616.798 L1599.91 668.974  Z" fill="#a0b1ec" fill-rule="evenodd" fill-opacity="1"/>
<polyline clip-path="url(#clip371)" style="stroke:#000000; stroke-linecap:round; stroke-linejoin:round; stroke-width:0; stroke-opacity:1; fill:none" points="1599.91,668.974 1759.47,668.974 1759.47,616.798 1599.91,616.798 1599.91,668.974 "/>
<path clip-path="url(#clip371)" d="M1599.91 603.754 L1626.51 603.754 L1626.51 551.577 L1599.91 551.577 L1599.91 603.754  Z" fill="#4063d8" fill-rule="evenodd" fill-opacity="1"/>
<polyline clip-path="url(#clip371)" style="stroke:#000000; stroke-linecap:round; stroke-linejoin:round; stroke-width:0; stroke-opacity:1; fill:none" points="1599.91,603.754 1626.51,603.754 1626.51,551.577 1599.91,551.577 1599.91,603.754 "/>
<path clip-path="url(#clip371)" d="M1626.51 538.533 L1759.47 538.533 L1759.47 486.357 L1626.51 486.357 L1626.51 538.533  Z" fill="#a0b1ec" fill-rule="evenodd" fill-opacity="1"/>
<polyline clip-path="url(#clip371)" style="stroke:#000000; stroke-linecap:round; stroke-linejoin:round; stroke-width:0; stroke-opacity:1; fill:none" points="1626.51,538.533 1759.47,538.533 1759.47,486.357 1626.51,486.357 1626.51,538.533 "/>
<path clip-path="url(#clip371)" d="M2105.18 473.313 L2211.55 473.313 L2211.55 421.137 L2105.18 421.137 L2105.18 473.313  Z" fill="#a0b1ec" fill-rule="evenodd" fill-opacity="1"/>
<polyline clip-path="url(#clip371)" style="stroke:#000000; stroke-linecap:round; stroke-linejoin:round; stroke-width:0; stroke-opacity:1; fill:none" points="2105.18,473.313 2211.55,473.313 2211.55,421.137 2105.18,421.137 2105.18,473.313 "/>
<path clip-path="url(#clip371)" d="M2105.18 408.093 L2184.96 408.093 L2184.96 355.917 L2105.18 355.917 L2105.18 408.093  Z" fill="#a0b1ec" fill-rule="evenodd" fill-opacity="1"/>
<polyline clip-path="url(#clip371)" style="stroke:#000000; stroke-linecap:round; stroke-linejoin:round; stroke-width:0; stroke-opacity:1; fill:none" points="2105.18,408.093 2184.96,408.093 2184.96,355.917 2105.18,355.917 2105.18,408.093 "/>
<path clip-path="url(#clip371)" d="M1626.51 342.873 L2291.33 342.873 L2291.33 290.697 L1626.51 290.697 L1626.51 342.873  Z" fill="#20326c" fill-rule="evenodd" fill-opacity="1"/>
<polyline clip-path="url(#clip371)" style="stroke:#000000; stroke-linecap:round; stroke-linejoin:round; stroke-width:0; stroke-opacity:1; fill:none" points="1626.51,342.873 2291.33,342.873 2291.33,290.697 1626.51,290.697 1626.51,342.873 "/>
<path clip-path="url(#clip371)" d="M2211.55 277.653 L2264.73 277.653 L2264.73 225.476 L2211.55 225.476 L2211.55 277.653  Z" fill="#a0b1ec" fill-rule="evenodd" fill-opacity="1"/>
<polyline clip-path="url(#clip371)" style="stroke:#000000; stroke-linecap:round; stroke-linejoin:round; stroke-width:0; stroke-opacity:1; fill:none" points="2211.55,277.653 2264.73,277.653 2264.73,225.476 2211.55,225.476 2211.55,277.653 "/>
<path clip-path="url(#clip371)" d="M2291.33 212.432 L2291.33 212.432 L2291.33 160.256 L2291.33 160.256 L2291.33 212.432  Z" fill="#a0b1ec" fill-rule="evenodd" fill-opacity="1"/>
<polyline clip-path="url(#clip371)" style="stroke:#000000; stroke-linecap:round; stroke-linejoin:round; stroke-width:0; stroke-opacity:1; fill:none" points="2291.33,212.432 2291.33,212.432 2291.33,160.256 2291.33,212.432 "/>
</svg>
