<?xml version="1.0" encoding="utf-8"?>
<svg xmlns="http://www.w3.org/2000/svg" xmlns:xlink="http://www.w3.org/1999/xlink" width="600" height="400" viewBox="0 0 2400 1600">
<defs>
  <clipPath id="clip000">
    <rect x="0" y="0" width="2400" height="1600"/>
  </clipPath>
</defs>
<path clip-path="url(#clip000)" d="M0 1600 L2400 1600 L2400 0 L0 0  Z" fill="#ffffff" fill-rule="evenodd" fill-opacity="1"/>
<defs>
  <clipPath id="clip001">
    <rect x="480" y="0" width="1681" height="1600"/>
  </clipPath>
</defs>
<path clip-path="url(#clip000)" d="M234.125 1423.18 L2352.76 1423.18 L2352.76 47.2441 L234.125 47.2441  Z" fill="#ffffff" fill-rule="evenodd" fill-opacity="1"/>
<defs>
  <clipPath id="clip002">
    <rect x="234" y="47" width="2120" height="1377"/>
  </clipPath>
</defs>
<polyline clip-path="url(#clip002)" style="stroke:#000000; stroke-linecap:round; stroke-linejoin:round; stroke-width:2; stroke-opacity:0.1; fill:none" points="294.087,1423.18 294.087,47.2441 "/>
<polyline clip-path="url(#clip002)" style="stroke:#000000; stroke-linecap:round; stroke-linejoin:round; stroke-width:2; stroke-opacity:0.1; fill:none" points="793.764,1423.18 793.764,47.2441 "/>
<polyline clip-path="url(#clip002)" style="stroke:#000000; stroke-linecap:round; stroke-linejoin:round; stroke-width:2; stroke-opacity:0.1; fill:none" points="1293.44,1423.18 1293.44,47.2441 "/>
<polyline clip-path="url(#clip002)" style="stroke:#000000; stroke-linecap:round; stroke-linejoin:round; stroke-width:2; stroke-opacity:0.1; fill:none" points="1793.12,1423.18 1793.12,47.2441 "/>
<polyline clip-path="url(#clip002)" style="stroke:#000000; stroke-linecap:round; stroke-linejoin:round; stroke-width:2; stroke-opacity:0.1; fill:none" points="2292.79,1423.18 2292.79,47.2441 "/>
<polyline clip-path="url(#clip000)" style="stroke:#000000; stroke-linecap:round; stroke-linejoin:round; stroke-width:4; stroke-opacity:1; fill:none" points="234.125,1423.18 2352.76,1423.18 "/>
<polyline clip-path="url(#clip000)" style="stroke:#000000; stroke-linecap:round; stroke-linejoin:round; stroke-width:4; stroke-opacity:1; fill:none" points="294.087,1423.18 294.087,1404.28 "/>
<polyline clip-path="url(#clip000)" style="stroke:#000000; stroke-linecap:round; stroke-linejoin:round; stroke-width:4; stroke-opacity:1; fill:none" points="793.764,1423.18 793.764,1404.28 "/>
<polyline clip-path="url(#clip000)" style="stroke:#000000; stroke-linecap:round; stroke-linejoin:round; stroke-width:4; stroke-opacity:1; fill:none" points="1293.44,1423.18 1293.44,1404.28 "/>
<polyline clip-path="url(#clip000)" style="stroke:#000000; stroke-linecap:round; stroke-linejoin:round; stroke-width:4; stroke-opacity:1; fill:none" points="1793.12,1423.18 1793.12,1404.28 "/>
<polyline clip-path="url(#clip000)" style="stroke:#000000; stroke-linecap:round; stroke-linejoin:round; stroke-width:4; stroke-opacity:1; fill:none" points="2292.79,1423.18 2292.79,1404.28 "/>
<path clip-path="url(#clip000)" d="M294.087 1454.1 Q290.476 1454.1 288.647 1457.66 Q286.841 1461.2 286.841 1468.33 Q286.841 1475.44 288.647 1479.01 Q290.476 1482.55 294.087 1482.55 Q297.721 1482.55 299.526 1479.01 Q301.355 1475.44 301.355 1468.33 Q301.355 1461.2 299.526 1457.66 Q297.721 1454.1 294.087 1454.1 M294.087 1450.39 Q299.897 1450.39 302.952 1455 Q306.031 1459.58 306.031 1468.33 Q306.031 1477.06 302.952 1481.67 Q299.897 1486.25 294.087 1486.25 Q288.277 1486.25 285.198 1481.67 Q282.142 1477.06 282.142 1468.33 Q282.142 1459.58 285.198 1455 Q288.277 1450.39 294.087 1450.39 Z" fill="#000000" fill-rule="nonzero" fill-opacity="1" /><path clip-path="url(#clip000)" d="M773.035 1481.64 L789.354 1481.64 L789.354 1485.58 L767.41 1485.58 L767.41 1481.64 Q770.072 1478.89 774.655 1474.26 Q779.261 1469.61 780.442 1468.27 Q782.687 1465.74 783.567 1464.01 Q784.47 1462.25 784.47 1460.56 Q784.47 1457.8 782.525 1456.07 Q780.604 1454.33 777.502 1454.33 Q775.303 1454.33 772.849 1455.09 Q770.419 1455.86 767.641 1457.41 L767.641 1452.69 Q770.465 1451.55 772.919 1450.97 Q775.373 1450.39 777.41 1450.39 Q782.78 1450.39 785.974 1453.08 Q789.169 1455.77 789.169 1460.26 Q789.169 1462.39 788.359 1464.31 Q787.572 1466.2 785.465 1468.8 Q784.886 1469.47 781.785 1472.69 Q778.683 1475.88 773.035 1481.64 Z" fill="#000000" fill-rule="nonzero" fill-opacity="1" /><path clip-path="url(#clip000)" d="M799.215 1451.02 L817.571 1451.02 L817.571 1454.96 L803.497 1454.96 L803.497 1463.43 Q804.516 1463.08 805.534 1462.92 Q806.553 1462.73 807.571 1462.73 Q813.358 1462.73 816.738 1465.9 Q820.118 1469.08 820.118 1474.49 Q820.118 1480.07 816.646 1483.17 Q813.173 1486.25 806.854 1486.25 Q804.678 1486.25 802.409 1485.88 Q800.164 1485.51 797.757 1484.77 L797.757 1480.07 Q799.84 1481.2 802.062 1481.76 Q804.284 1482.32 806.761 1482.32 Q810.766 1482.32 813.104 1480.21 Q815.442 1478.1 815.442 1474.49 Q815.442 1470.88 813.104 1468.77 Q810.766 1466.67 806.761 1466.67 Q804.886 1466.67 803.011 1467.08 Q801.159 1467.5 799.215 1468.38 L799.215 1451.02 Z" fill="#000000" fill-rule="nonzero" fill-opacity="1" /><path clip-path="url(#clip000)" d="M1268.14 1451.02 L1286.5 1451.02 L1286.5 1454.96 L1272.42 1454.96 L1272.42 1463.43 Q1273.44 1463.08 1274.46 1462.92 Q1275.48 1462.73 1276.5 1462.73 Q1282.28 1462.73 1285.66 1465.9 Q1289.04 1469.08 1289.04 1474.49 Q1289.04 1480.07 1285.57 1483.17 Q1282.1 1486.25 1275.78 1486.25 Q1273.6 1486.25 1271.33 1485.88 Q1269.09 1485.51 1266.68 1484.77 L1266.68 1480.07 Q1268.76 1481.2 1270.99 1481.76 Q1273.21 1482.32 1275.69 1482.32 Q1279.69 1482.32 1282.03 1480.21 Q1284.37 1478.1 1284.37 1474.49 Q1284.37 1470.88 1282.03 1468.77 Q1279.69 1466.67 1275.69 1466.67 Q1273.81 1466.67 1271.94 1467.08 Q1270.08 1467.5 1268.14 1468.38 L1268.14 1451.02 Z" fill="#000000" fill-rule="nonzero" fill-opacity="1" /><path clip-path="url(#clip000)" d="M1308.26 1454.1 Q1304.64 1454.1 1302.82 1457.66 Q1301.01 1461.2 1301.01 1468.33 Q1301.01 1475.44 1302.82 1479.01 Q1304.64 1482.55 1308.26 1482.55 Q1311.89 1482.55 1313.7 1479.01 Q1315.52 1475.44 1315.52 1468.33 Q1315.52 1461.2 1313.7 1457.66 Q1311.89 1454.1 1308.26 1454.1 M1308.26 1450.39 Q1314.07 1450.39 1317.12 1455 Q1320.2 1459.58 1320.2 1468.33 Q1320.2 1477.06 1317.12 1481.67 Q1314.07 1486.25 1308.26 1486.25 Q1302.45 1486.25 1299.37 1481.67 Q1296.31 1477.06 1296.31 1468.33 Q1296.31 1459.58 1299.37 1455 Q1302.45 1450.39 1308.26 1450.39 Z" fill="#000000" fill-rule="nonzero" fill-opacity="1" /><path clip-path="url(#clip000)" d="M1766.97 1451.02 L1789.19 1451.02 L1789.19 1453.01 L1776.65 1485.58 L1771.76 1485.58 L1783.57 1454.96 L1766.97 1454.96 L1766.97 1451.02 Z" fill="#000000" fill-rule="nonzero" fill-opacity="1" /><path clip-path="url(#clip000)" d="M1798.36 1451.02 L1816.72 1451.02 L1816.72 1454.96 L1802.64 1454.96 L1802.64 1463.43 Q1803.66 1463.08 1804.68 1462.92 Q1805.7 1462.73 1806.72 1462.73 Q1812.5 1462.73 1815.88 1465.9 Q1819.26 1469.08 1819.26 1474.49 Q1819.26 1480.07 1815.79 1483.17 Q1812.32 1486.25 1806 1486.25 Q1803.82 1486.25 1801.56 1485.88 Q1799.31 1485.51 1796.9 1484.77 L1796.9 1480.07 Q1798.99 1481.2 1801.21 1481.76 Q1803.43 1482.32 1805.91 1482.32 Q1809.91 1482.32 1812.25 1480.21 Q1814.59 1478.1 1814.59 1474.49 Q1814.59 1470.88 1812.25 1468.77 Q1809.91 1466.67 1805.91 1466.67 Q1804.03 1466.67 1802.16 1467.08 Q1800.31 1467.5 1798.36 1468.38 L1798.36 1451.02 Z" fill="#000000" fill-rule="nonzero" fill-opacity="1" /><path clip-path="url(#clip000)" d="M2252.4 1481.64 L2260.04 1481.64 L2260.04 1455.28 L2251.73 1456.95 L2251.73 1452.69 L2259.99 1451.02 L2264.67 1451.02 L2264.67 1481.64 L2272.31 1481.64 L2272.31 1485.58 L2252.4 1485.58 L2252.4 1481.64 Z" fill="#000000" fill-rule="nonzero" fill-opacity="1" /><path clip-path="url(#clip000)" d="M2291.75 1454.1 Q2288.14 1454.1 2286.31 1457.66 Q2284.51 1461.2 2284.51 1468.33 Q2284.51 1475.44 2286.31 1479.01 Q2288.14 1482.55 2291.75 1482.55 Q2295.39 1482.55 2297.19 1479.01 Q2299.02 1475.44 2299.02 1468.33 Q2299.02 1461.2 2297.19 1457.66 Q2295.39 1454.1 2291.75 1454.1 M2291.75 1450.39 Q2297.56 1450.39 2300.62 1455 Q2303.7 1459.58 2303.7 1468.33 Q2303.7 1477.06 2300.62 1481.67 Q2297.56 1486.25 2291.75 1486.25 Q2285.94 1486.25 2282.86 1481.67 Q2279.81 1477.06 2279.81 1468.33 Q2279.81 1459.58 2282.86 1455 Q2285.94 1450.39 2291.75 1450.39 Z" fill="#000000" fill-rule="nonzero" fill-opacity="1" /><path clip-path="url(#clip000)" d="M2321.91 1454.1 Q2318.3 1454.1 2316.48 1457.66 Q2314.67 1461.2 2314.67 1468.33 Q2314.67 1475.44 2316.48 1479.01 Q2318.3 1482.55 2321.91 1482.55 Q2325.55 1482.55 2327.35 1479.01 Q2329.18 1475.44 2329.18 1468.33 Q2329.18 1461.2 2327.35 1457.66 Q2325.55 1454.1 2321.91 1454.1 M2321.91 1450.39 Q2327.73 1450.39 2330.78 1455 Q2333.86 1459.58 2333.86 1468.33 Q2333.86 1477.06 2330.78 1481.67 Q2327.73 1486.25 2321.91 1486.25 Q2316.1 1486.25 2313.03 1481.67 Q2309.97 1477.06 2309.97 1468.33 Q2309.97 1459.58 2313.03 1455 Q2316.1 1450.39 2321.91 1450.39 Z" fill="#000000" fill-rule="nonzero" fill-opacity="1" /><path clip-path="url(#clip000)" d="M1261.91 1524.18 L1261.91 1530.96 Q1258.67 1527.94 1254.98 1526.44 Q1251.32 1524.95 1247.18 1524.95 Q1239.03 1524.95 1234.7 1529.95 Q1230.37 1534.91 1230.37 1544.33 Q1230.37 1553.72 1234.7 1558.72 Q1239.03 1563.68 1247.18 1563.68 Q1251.32 1563.68 1254.98 1562.19 Q1258.67 1560.69 1261.91 1557.67 L1261.91 1564.38 Q1258.54 1566.68 1254.75 1567.82 Q1251 1568.97 1246.8 1568.97 Q1236.01 1568.97 1229.8 1562.38 Q1223.59 1555.76 1223.59 1544.33 Q1223.59 1532.87 1229.8 1526.28 Q1236.01 1519.66 1246.8 1519.66 Q1251.06 1519.66 1254.82 1520.81 Q1258.6 1521.92 1261.91 1524.18 Z" fill="#000000" fill-rule="nonzero" fill-opacity="1" /><path clip-path="url(#clip000)" d="M1285.4 1536.5 Q1280.69 1536.5 1277.96 1540.19 Q1275.22 1543.85 1275.22 1550.25 Q1275.22 1556.65 1277.92 1560.34 Q1280.66 1564 1285.4 1564 Q1290.08 1564 1292.82 1560.31 Q1295.56 1556.62 1295.56 1550.25 Q1295.56 1543.92 1292.82 1540.23 Q1290.08 1536.5 1285.4 1536.5 M1285.4 1531.54 Q1293.04 1531.54 1297.4 1536.5 Q1301.76 1541.47 1301.76 1550.25 Q1301.76 1559 1297.4 1564 Q1293.04 1568.97 1285.4 1568.97 Q1277.73 1568.97 1273.37 1564 Q1269.04 1559 1269.04 1550.25 Q1269.04 1541.47 1273.37 1536.5 Q1277.73 1531.54 1285.4 1531.54 Z" fill="#000000" fill-rule="nonzero" fill-opacity="1" /><path clip-path="url(#clip000)" d="M1334.2 1533.45 L1334.2 1538.98 Q1331.71 1537.71 1329.04 1537.07 Q1326.37 1536.44 1323.5 1536.44 Q1319.14 1536.44 1316.95 1537.77 Q1314.78 1539.11 1314.78 1541.79 Q1314.78 1543.82 1316.34 1545 Q1317.9 1546.15 1322.61 1547.2 L1324.62 1547.64 Q1330.86 1548.98 1333.47 1551.43 Q1336.11 1553.85 1336.11 1558.21 Q1336.11 1563.17 1332.16 1566.07 Q1328.25 1568.97 1321.37 1568.97 Q1318.51 1568.97 1315.39 1568.39 Q1312.3 1567.85 1308.86 1566.74 L1308.86 1560.69 Q1312.11 1562.38 1315.26 1563.24 Q1318.41 1564.07 1321.5 1564.07 Q1325.64 1564.07 1327.86 1562.66 Q1330.09 1561.23 1330.09 1558.65 Q1330.09 1556.27 1328.47 1554.99 Q1326.88 1553.72 1321.43 1552.54 L1319.4 1552.07 Q1313.95 1550.92 1311.54 1548.56 Q1309.12 1546.18 1309.12 1542.04 Q1309.12 1537.01 1312.68 1534.27 Q1316.25 1531.54 1322.8 1531.54 Q1326.05 1531.54 1328.91 1532.01 Q1331.78 1532.49 1334.2 1533.45 Z" fill="#000000" fill-rule="nonzero" fill-opacity="1" /><path clip-path="url(#clip000)" d="M1351.23 1522.27 L1351.23 1532.4 L1363.29 1532.4 L1363.29 1536.95 L1351.23 1536.95 L1351.23 1556.3 Q1351.23 1560.66 1352.4 1561.9 Q1353.61 1563.14 1357.27 1563.14 L1363.29 1563.14 L1363.29 1568.04 L1357.27 1568.04 Q1350.49 1568.04 1347.92 1565.53 Q1345.34 1562.98 1345.34 1556.3 L1345.34 1536.95 L1341.04 1536.95 L1341.04 1532.4 L1345.34 1532.4 L1345.34 1522.27 L1351.23 1522.27 Z" fill="#000000" fill-rule="nonzero" fill-opacity="1" /><polyline clip-path="url(#clip002)" style="stroke:#000000; stroke-linecap:round; stroke-linejoin:round; stroke-width:2; stroke-opacity:0.1; fill:none" points="234.125,1410.55 2352.76,1410.55 "/>
<polyline clip-path="url(#clip002)" style="stroke:#000000; stroke-linecap:round; stroke-linejoin:round; stroke-width:2; stroke-opacity:0.1; fill:none" points="234.125,1079.46 2352.76,1079.46 "/>
<polyline clip-path="url(#clip002)" style="stroke:#000000; stroke-linecap:round; stroke-linejoin:round; stroke-width:2; stroke-opacity:0.1; fill:none" points="234.125,748.368 2352.76,748.368 "/>
<polyline clip-path="url(#clip002)" style="stroke:#000000; stroke-linecap:round; stroke-linejoin:round; stroke-width:2; stroke-opacity:0.1; fill:none" points="234.125,417.277 2352.76,417.277 "/>
<polyline clip-path="url(#clip002)" style="stroke:#000000; stroke-linecap:round; stroke-linejoin:round; stroke-width:2; stroke-opacity:0.1; fill:none" points="234.125,86.1857 2352.76,86.1857 "/>
<polyline clip-path="url(#clip000)" style="stroke:#000000; stroke-linecap:round; stroke-linejoin:round; stroke-width:4; stroke-opacity:1; fill:none" points="234.125,1423.18 234.125,47.2441 "/>
<polyline clip-path="url(#clip000)" style="stroke:#000000; stroke-linecap:round; stroke-linejoin:round; stroke-width:4; stroke-opacity:1; fill:none" points="234.125,1410.55 253.023,1410.55 "/>
<polyline clip-path="url(#clip000)" style="stroke:#000000; stroke-linecap:round; stroke-linejoin:round; stroke-width:4; stroke-opacity:1; fill:none" points="234.125,1079.46 253.023,1079.46 "/>
<polyline clip-path="url(#clip000)" style="stroke:#000000; stroke-linecap:round; stroke-linejoin:round; stroke-width:4; stroke-opacity:1; fill:none" points="234.125,748.368 253.023,748.368 "/>
<polyline clip-path="url(#clip000)" style="stroke:#000000; stroke-linecap:round; stroke-linejoin:round; stroke-width:4; stroke-opacity:1; fill:none" points="234.125,417.277 253.023,417.277 "/>
<polyline clip-path="url(#clip000)" style="stroke:#000000; stroke-linecap:round; stroke-linejoin:round; stroke-width:4; stroke-opacity:1; fill:none" points="234.125,86.1857 253.023,86.1857 "/>
<path clip-path="url(#clip000)" d="M186.181 1396.35 Q182.57 1396.35 180.741 1399.91 Q178.936 1403.45 178.936 1410.58 Q178.936 1417.69 180.741 1421.26 Q182.57 1424.8 186.181 1424.8 Q189.815 1424.8 191.621 1421.26 Q193.45 1417.69 193.45 1410.58 Q193.45 1403.45 191.621 1399.91 Q189.815 1396.35 186.181 1396.35 M186.181 1392.64 Q191.991 1392.64 195.047 1397.25 Q198.125 1401.83 198.125 1410.58 Q198.125 1419.31 195.047 1423.92 Q191.991 1428.5 186.181 1428.5 Q180.371 1428.5 177.292 1423.92 Q174.237 1419.31 174.237 1410.58 Q174.237 1401.83 177.292 1397.25 Q180.371 1392.64 186.181 1392.64 Z" fill="#000000" fill-rule="nonzero" fill-opacity="1" /><path clip-path="url(#clip000)" d="M146.066 1062.18 L164.422 1062.18 L164.422 1066.11 L150.348 1066.11 L150.348 1074.59 Q151.366 1074.24 152.385 1074.08 Q153.403 1073.89 154.422 1073.89 Q160.209 1073.89 163.589 1077.06 Q166.968 1080.23 166.968 1085.65 Q166.968 1091.23 163.496 1094.33 Q160.024 1097.41 153.704 1097.41 Q151.528 1097.41 149.26 1097.04 Q147.015 1096.67 144.607 1095.93 L144.607 1091.23 Q146.691 1092.36 148.913 1092.92 Q151.135 1093.47 153.612 1093.47 Q157.616 1093.47 159.954 1091.37 Q162.292 1089.26 162.292 1085.65 Q162.292 1082.04 159.954 1079.93 Q157.616 1077.83 153.612 1077.83 Q151.737 1077.83 149.862 1078.24 Q148.01 1078.66 146.066 1079.54 L146.066 1062.18 Z" fill="#000000" fill-rule="nonzero" fill-opacity="1" /><path clip-path="url(#clip000)" d="M186.181 1065.26 Q182.57 1065.26 180.741 1068.82 Q178.936 1072.36 178.936 1079.49 Q178.936 1086.6 180.741 1090.16 Q182.57 1093.71 186.181 1093.71 Q189.815 1093.71 191.621 1090.16 Q193.45 1086.6 193.45 1079.49 Q193.45 1072.36 191.621 1068.82 Q189.815 1065.26 186.181 1065.26 M186.181 1061.55 Q191.991 1061.55 195.047 1066.16 Q198.125 1070.74 198.125 1079.49 Q198.125 1088.22 195.047 1092.83 Q191.991 1097.41 186.181 1097.41 Q180.371 1097.41 177.292 1092.83 Q174.237 1088.22 174.237 1079.49 Q174.237 1070.74 177.292 1066.16 Q180.371 1061.55 186.181 1061.55 Z" fill="#000000" fill-rule="nonzero" fill-opacity="1" /><path clip-path="url(#clip000)" d="M116.668 761.713 L124.306 761.713 L124.306 735.347 L115.996 737.014 L115.996 732.754 L124.26 731.088 L128.936 731.088 L128.936 761.713 L136.575 761.713 L136.575 765.648 L116.668 765.648 L116.668 761.713 Z" fill="#000000" fill-rule="nonzero" fill-opacity="1" /><path clip-path="url(#clip000)" d="M156.019 734.166 Q152.408 734.166 150.579 737.731 Q148.774 741.273 148.774 748.402 Q148.774 755.509 150.579 759.074 Q152.408 762.615 156.019 762.615 Q159.653 762.615 161.459 759.074 Q163.288 755.509 163.288 748.402 Q163.288 741.273 161.459 737.731 Q159.653 734.166 156.019 734.166 M156.019 730.463 Q161.829 730.463 164.885 735.069 Q167.964 739.653 167.964 748.402 Q167.964 757.129 164.885 761.736 Q161.829 766.319 156.019 766.319 Q150.209 766.319 147.13 761.736 Q144.075 757.129 144.075 748.402 Q144.075 739.653 147.13 735.069 Q150.209 730.463 156.019 730.463 Z" fill="#000000" fill-rule="nonzero" fill-opacity="1" /><path clip-path="url(#clip000)" d="M186.181 734.166 Q182.57 734.166 180.741 737.731 Q178.936 741.273 178.936 748.402 Q178.936 755.509 180.741 759.074 Q182.57 762.615 186.181 762.615 Q189.815 762.615 191.621 759.074 Q193.45 755.509 193.45 748.402 Q193.45 741.273 191.621 737.731 Q189.815 734.166 186.181 734.166 M186.181 730.463 Q191.991 730.463 195.047 735.069 Q198.125 739.653 198.125 748.402 Q198.125 757.129 195.047 761.736 Q191.991 766.319 186.181 766.319 Q180.371 766.319 177.292 761.736 Q174.237 757.129 174.237 748.402 Q174.237 739.653 177.292 735.069 Q180.371 730.463 186.181 730.463 Z" fill="#000000" fill-rule="nonzero" fill-opacity="1" /><path clip-path="url(#clip000)" d="M116.668 430.622 L124.306 430.622 L124.306 404.256 L115.996 405.923 L115.996 401.663 L124.26 399.997 L128.936 399.997 L128.936 430.622 L136.575 430.622 L136.575 434.557 L116.668 434.557 L116.668 430.622 Z" fill="#000000" fill-rule="nonzero" fill-opacity="1" /><path clip-path="url(#clip000)" d="M146.066 399.997 L164.422 399.997 L164.422 403.932 L150.348 403.932 L150.348 412.404 Q151.366 412.057 152.385 411.895 Q153.403 411.71 154.422 411.71 Q160.209 411.71 163.589 414.881 Q166.968 418.052 166.968 423.469 Q166.968 429.047 163.496 432.149 Q160.024 435.228 153.704 435.228 Q151.528 435.228 149.26 434.858 Q147.015 434.487 144.607 433.747 L144.607 429.047 Q146.691 430.182 148.913 430.737 Q151.135 431.293 153.612 431.293 Q157.616 431.293 159.954 429.186 Q162.292 427.08 162.292 423.469 Q162.292 419.858 159.954 417.751 Q157.616 415.645 153.612 415.645 Q151.737 415.645 149.862 416.061 Q148.01 416.478 146.066 417.358 L146.066 399.997 Z" fill="#000000" fill-rule="nonzero" fill-opacity="1" /><path clip-path="url(#clip000)" d="M186.181 403.075 Q182.57 403.075 180.741 406.64 Q178.936 410.182 178.936 417.311 Q178.936 424.418 180.741 427.983 Q182.57 431.524 186.181 431.524 Q189.815 431.524 191.621 427.983 Q193.45 424.418 193.45 417.311 Q193.45 410.182 191.621 406.64 Q189.815 403.075 186.181 403.075 M186.181 399.372 Q191.991 399.372 195.047 403.978 Q198.125 408.561 198.125 417.311 Q198.125 426.038 195.047 430.645 Q191.991 435.228 186.181 435.228 Q180.371 435.228 177.292 430.645 Q174.237 426.038 174.237 417.311 Q174.237 408.561 177.292 403.978 Q180.371 399.372 186.181 399.372 Z" fill="#000000" fill-rule="nonzero" fill-opacity="1" /><path clip-path="url(#clip000)" d="M119.885 99.5305 L136.204 99.5305 L136.204 103.466 L114.26 103.466 L114.26 99.5305 Q116.922 96.7759 121.505 92.1463 Q126.112 87.4935 127.292 86.151 Q129.538 83.6278 130.417 81.8917 Q131.32 80.1325 131.32 78.4427 Q131.32 75.6881 129.376 73.952 Q127.455 72.2159 124.353 72.2159 Q122.154 72.2159 119.7 72.9797 Q117.269 73.7436 114.492 75.2945 L114.492 70.5723 Q117.316 69.4381 119.769 68.8594 Q122.223 68.2807 124.26 68.2807 Q129.63 68.2807 132.825 70.9659 Q136.019 73.651 136.019 78.1417 Q136.019 80.2714 135.209 82.1927 Q134.422 84.0908 132.316 86.6834 Q131.737 87.3547 128.635 90.5722 Q125.533 93.7667 119.885 99.5305 Z" fill="#000000" fill-rule="nonzero" fill-opacity="1" /><path clip-path="url(#clip000)" d="M156.019 71.9844 Q152.408 71.9844 150.579 75.5492 Q148.774 79.0908 148.774 86.2204 Q148.774 93.3269 150.579 96.8916 Q152.408 100.433 156.019 100.433 Q159.653 100.433 161.459 96.8916 Q163.288 93.3269 163.288 86.2204 Q163.288 79.0908 161.459 75.5492 Q159.653 71.9844 156.019 71.9844 M156.019 68.2807 Q161.829 68.2807 164.885 72.8871 Q167.964 77.4705 167.964 86.2204 Q167.964 94.9472 164.885 99.5537 Q161.829 104.137 156.019 104.137 Q150.209 104.137 147.13 99.5537 Q144.075 94.9472 144.075 86.2204 Q144.075 77.4705 147.13 72.8871 Q150.209 68.2807 156.019 68.2807 Z" fill="#000000" fill-rule="nonzero" fill-opacity="1" /><path clip-path="url(#clip000)" d="M186.181 71.9844 Q182.57 71.9844 180.741 75.5492 Q178.936 79.0908 178.936 86.2204 Q178.936 93.3269 180.741 96.8916 Q182.57 100.433 186.181 100.433 Q189.815 100.433 191.621 96.8916 Q193.45 93.3269 193.45 86.2204 Q193.45 79.0908 191.621 75.5492 Q189.815 71.9844 186.181 71.9844 M186.181 68.2807 Q191.991 68.2807 195.047 72.8871 Q198.125 77.4705 198.125 86.2204 Q198.125 94.9472 195.047 99.5537 Q191.991 104.137 186.181 104.137 Q180.371 104.137 177.292 99.5537 Q174.237 94.9472 174.237 86.2204 Q174.237 77.4705 177.292 72.8871 Q180.371 68.2807 186.181 68.2807 Z" fill="#000000" fill-rule="nonzero" fill-opacity="1" /><path clip-path="url(#clip000)" d="M21.7677 962.07 L58.7206 962.07 L58.7206 954.304 Q58.7206 944.469 54.2646 939.917 Q49.8086 935.334 40.1964 935.334 Q30.6479 935.334 26.2237 939.917 Q21.7677 944.469 21.7677 954.304 L21.7677 962.07 M16.4842 968.499 L16.4842 955.29 Q16.4842 941.477 22.2451 935.016 Q27.9743 928.554 40.1964 928.554 Q52.4822 928.554 58.2432 935.047 Q64.0042 941.54 64.0042 955.29 L64.0042 968.499 L16.4842 968.499 Z" fill="#000000" fill-rule="nonzero" fill-opacity="1" /><path clip-path="url(#clip000)" d="M28.3562 918.56 L28.3562 912.704 L64.0042 912.704 L64.0042 918.56 L28.3562 918.56 M14.479 918.56 L14.479 912.704 L21.895 912.704 L21.895 918.56 L14.479 918.56 Z" fill="#000000" fill-rule="nonzero" fill-opacity="1" /><path clip-path="url(#clip000)" d="M29.4065 877.724 L34.9447 877.724 Q33.6716 880.207 33.035 882.88 Q32.3984 885.554 32.3984 888.419 Q32.3984 892.779 33.7352 894.975 Q35.072 897.14 37.7456 897.14 Q39.7826 897.14 40.9603 895.58 Q42.1061 894.02 43.1565 889.31 L43.6021 887.305 Q44.9389 881.066 47.3897 878.456 Q49.8086 875.815 54.1691 875.815 Q59.1344 875.815 62.0308 879.761 Q64.9272 883.676 64.9272 890.551 Q64.9272 893.416 64.3543 896.535 Q63.8132 899.622 62.6992 903.06 L56.6518 903.06 Q58.3387 899.813 59.198 896.662 Q60.0256 893.511 60.0256 890.424 Q60.0256 886.286 58.6251 884.058 Q57.1929 881.83 54.6147 881.83 Q52.2276 881.83 50.9545 883.453 Q49.6813 885.045 48.5037 890.487 L48.0262 892.524 Q46.8804 897.967 44.5251 900.386 Q42.138 902.805 38.0002 902.805 Q32.9713 902.805 30.2341 899.24 Q27.4968 895.676 27.4968 889.119 Q27.4968 885.872 27.9743 883.008 Q28.4517 880.143 29.4065 877.724 Z" fill="#000000" fill-rule="nonzero" fill-opacity="1" /><path clip-path="url(#clip000)" d="M58.657 860.823 L77.5631 860.823 L77.5631 866.712 L28.3562 866.712 L28.3562 860.823 L33.7671 860.823 Q30.5842 858.977 29.0564 856.176 Q27.4968 853.344 27.4968 849.429 Q27.4968 842.936 32.6531 838.893 Q37.8093 834.819 46.212 834.819 Q54.6147 834.819 59.771 838.893 Q64.9272 842.936 64.9272 849.429 Q64.9272 853.344 63.3994 856.176 Q61.8398 858.977 58.657 860.823 M46.212 840.899 Q39.7508 840.899 36.0905 843.572 Q32.3984 846.214 32.3984 850.861 Q32.3984 855.508 36.0905 858.182 Q39.7508 860.823 46.212 860.823 Q52.6732 860.823 56.3653 858.182 Q60.0256 855.508 60.0256 850.861 Q60.0256 846.214 56.3653 843.572 Q52.6732 840.899 46.212 840.899 Z" fill="#000000" fill-rule="nonzero" fill-opacity="1" /><path clip-path="url(#clip000)" d="M46.0847 808.911 Q46.0847 816.009 47.7079 818.746 Q49.3312 821.483 53.2461 821.483 Q56.3653 821.483 58.2114 819.446 Q60.0256 817.377 60.0256 813.844 Q60.0256 808.975 56.5881 806.046 Q53.1188 803.086 47.3897 803.086 L46.0847 803.086 L46.0847 808.911 M43.6657 797.23 L64.0042 797.23 L64.0042 803.086 L58.5933 803.086 Q61.8398 805.092 63.3994 808.083 Q64.9272 811.075 64.9272 815.404 Q64.9272 820.878 61.8716 824.125 Q58.7843 827.34 53.6281 827.34 Q47.6125 827.34 44.5569 823.329 Q41.5014 819.287 41.5014 811.298 L41.5014 803.086 L40.9285 803.086 Q36.8862 803.086 34.6901 805.76 Q32.4621 808.402 32.4621 813.208 Q32.4621 816.263 33.1941 819.16 Q33.9262 822.056 35.3903 824.73 L29.9795 824.73 Q28.7381 821.515 28.1334 818.491 Q27.4968 815.468 27.4968 812.603 Q27.4968 804.869 31.5072 801.049 Q35.5176 797.23 43.6657 797.23 Z" fill="#000000" fill-rule="nonzero" fill-opacity="1" /><path clip-path="url(#clip000)" d="M18.2347 779.374 L28.3562 779.374 L28.3562 767.311 L32.9077 767.311 L32.9077 779.374 L52.2594 779.374 Q56.6199 779.374 57.8613 778.196 Q59.1026 776.987 59.1026 773.327 L59.1026 767.311 L64.0042 767.311 L64.0042 773.327 Q64.0042 780.106 61.4897 782.684 Q58.9434 785.262 52.2594 785.262 L32.9077 785.262 L32.9077 789.559 L28.3562 789.559 L28.3562 785.262 L18.2347 785.262 L18.2347 779.374 Z" fill="#000000" fill-rule="nonzero" fill-opacity="1" /><path clip-path="url(#clip000)" d="M29.7248 733.955 L35.1993 733.955 Q33.8307 736.437 33.1623 738.952 Q32.4621 741.434 32.4621 743.981 Q32.4621 749.678 36.0905 752.829 Q39.6872 755.98 46.212 755.98 Q52.7369 755.98 56.3653 752.829 Q59.9619 749.678 59.9619 743.981 Q59.9619 741.434 59.2935 738.952 Q58.5933 736.437 57.2247 733.955 L62.6355 733.955 Q63.7814 736.406 64.3543 739.047 Q64.9272 741.657 64.9272 744.617 Q64.9272 752.67 59.8664 757.412 Q54.8057 762.155 46.212 762.155 Q37.491 762.155 32.4939 757.381 Q27.4968 752.574 27.4968 744.235 Q27.4968 741.53 28.0697 738.952 Q28.6108 736.374 29.7248 733.955 Z" fill="#000000" fill-rule="nonzero" fill-opacity="1" /><path clip-path="url(#clip000)" d="M42.4881 694.137 L64.0042 694.137 L64.0042 699.994 L42.679 699.994 Q37.6183 699.994 35.1038 701.967 Q32.5894 703.94 32.5894 707.887 Q32.5894 712.63 35.6131 715.367 Q38.6368 718.104 43.8567 718.104 L64.0042 718.104 L64.0042 723.992 L14.479 723.992 L14.479 718.104 L33.8944 718.104 Q30.6797 716.003 29.0883 713.171 Q27.4968 710.306 27.4968 706.582 Q27.4968 700.439 31.3163 697.288 Q35.1038 694.137 42.4881 694.137 Z" fill="#000000" fill-rule="nonzero" fill-opacity="1" /><path clip-path="url(#clip000)" d="M14.479 662.277 L14.479 648.782 L19.0304 648.782 L19.0304 656.42 L68.0464 656.42 L68.0464 648.782 L72.5979 648.782 L72.5979 662.277 L14.479 662.277 Z" fill="#000000" fill-rule="nonzero" fill-opacity="1" /><path clip-path="url(#clip000)" d="M16.4842 636.05 L16.4842 626.47 L48.8219 614.343 L16.4842 602.153 L16.4842 592.572 L64.0042 592.572 L64.0042 598.843 L22.277 598.843 L54.8694 611.097 L54.8694 617.558 L22.277 629.812 L64.0042 629.812 L64.0042 636.05 L16.4842 636.05 Z" fill="#000000" fill-rule="nonzero" fill-opacity="1" /><path clip-path="url(#clip000)" d="M16.4842 584.042 L16.4842 577.549 L56.6518 567.555 L16.4842 557.593 L16.4842 550.368 L56.6518 540.374 L16.4842 530.411 L16.4842 523.886 L64.0042 535.822 L64.0042 543.907 L22.7544 553.933 L64.0042 564.054 L64.0042 572.138 L16.4842 584.042 Z" fill="#000000" fill-rule="nonzero" fill-opacity="1" /><path clip-path="url(#clip000)" d="M14.479 501.925 L72.5979 501.925 L72.5979 515.42 L68.0464 515.42 L68.0464 507.813 L19.0304 507.813 L19.0304 515.42 L14.479 515.42 L14.479 501.925 Z" fill="#000000" fill-rule="nonzero" fill-opacity="1" /><polyline clip-path="url(#clip002)" style="stroke:#009af9; stroke-linecap:round; stroke-linejoin:round; stroke-width:4; stroke-opacity:1; fill:none" points="294.087,86.1857 314.074,86.1857 334.061,86.1857 354.048,86.1857 374.035,86.1857 394.022,86.1857 414.009,86.1857 433.996,86.1857 453.983,86.1857 473.97,86.1857 493.957,86.1857 513.945,86.1857 533.932,86.1857 553.919,86.1857 573.906,121.282 593.893,283.964 613.88,417.69 633.867,528.946 653.854,622.498 673.841,701.913 693.828,769.901 713.815,828.554 733.802,879.506 753.79,924.049 773.777,963.213 793.764,997.832 813.751,1028.58 833.738,1056.02 853.725,1080.6 873.712,1102.72 893.699,1122.68 913.686,1140.76 933.673,1157.19 953.66,1172.16 973.647,1185.85 993.634,1198.39 1013.62,1209.91 1033.61,1220.51 1053.6,1230.3 1073.58,1239.35 1093.57,1247.73 1113.56,1255.51 1133.54,1262.75 1153.53,1269.49 1173.52,1275.78 1193.51,1281.66 1213.49,1287.17 1233.48,1292.33 1253.47,1297.17 1273.45,1301.72 1293.44,1306 1313.43,1310.03 1333.41,1313.84 1353.4,1317.43 1373.39,1320.83 1393.38,1324.04 1413.36,1327.08 1433.35,1329.97 1453.34,1332.71 1473.32,1335.31 1493.31,1337.78 1513.3,1340.14 1533.29,1342.38 1553.27,1344.52 1573.26,1346.55 1593.25,1348.5 1613.23,1350.35 1633.22,1352.13 1653.21,1353.83 1673.2,1355.45 1693.18,1357.01 1713.17,1358.5 1733.16,1359.93 1753.14,1361.3 1773.13,1362.61 1793.12,1363.88 1813.1,1365.09 1833.09,1366.26 1853.08,1367.38 1873.07,1368.46 1893.05,1369.51 1913.04,1370.51 1933.03,1371.48 1953.01,1372.41 1973,1373.31 1992.99,1374.18 2012.98,1375.01 2032.96,1375.82 2052.95,1376.6 2072.94,1377.36 2092.92,1378.09 2112.91,1378.8 2132.9,1379.48 2152.89,1380.14 2172.87,1380.78 2192.86,1381.41 2212.85,1382.01 2232.83,1382.59 2252.82,1383.16 2272.81,1383.71 2292.79,1384.24 "/>
</svg>
