<?xml version="1.0" encoding="utf-8"?>
<svg xmlns="http://www.w3.org/2000/svg" xmlns:xlink="http://www.w3.org/1999/xlink" width="600" height="400" viewBox="0 0 2400 1600">
<defs>
  <clipPath id="clip290">
    <rect x="0" y="0" width="2400" height="1600"/>
  </clipPath>
</defs>
<path clip-path="url(#clip290)" d="M0 1600 L2400 1600 L2400 0 L0 0  Z" fill="#ffffff" fill-rule="evenodd" fill-opacity="1"/>
<defs>
  <clipPath id="clip291">
    <rect x="480" y="0" width="1681" height="1600"/>
  </clipPath>
</defs>
<path clip-path="url(#clip290)" d="M184.191 1423.18 L2352.76 1423.18 L2352.76 47.2441 L184.191 47.2441  Z" fill="#ffffff" fill-rule="evenodd" fill-opacity="1"/>
<defs>
  <clipPath id="clip292">
    <rect x="184" y="47" width="2170" height="1377"/>
  </clipPath>
</defs>
<polyline clip-path="url(#clip292)" style="stroke:#000000; stroke-linecap:round; stroke-linejoin:round; stroke-width:2; stroke-opacity:0.1; fill:none" points="496.467,1423.18 496.467,47.2441 "/>
<polyline clip-path="url(#clip292)" style="stroke:#000000; stroke-linecap:round; stroke-linejoin:round; stroke-width:2; stroke-opacity:0.1; fill:none" points="882.47,1423.18 882.47,47.2441 "/>
<polyline clip-path="url(#clip292)" style="stroke:#000000; stroke-linecap:round; stroke-linejoin:round; stroke-width:2; stroke-opacity:0.1; fill:none" points="1268.47,1423.18 1268.47,47.2441 "/>
<polyline clip-path="url(#clip292)" style="stroke:#000000; stroke-linecap:round; stroke-linejoin:round; stroke-width:2; stroke-opacity:0.1; fill:none" points="1654.48,1423.18 1654.48,47.2441 "/>
<polyline clip-path="url(#clip292)" style="stroke:#000000; stroke-linecap:round; stroke-linejoin:round; stroke-width:2; stroke-opacity:0.1; fill:none" points="2040.48,1423.18 2040.48,47.2441 "/>
<polyline clip-path="url(#clip290)" style="stroke:#000000; stroke-linecap:round; stroke-linejoin:round; stroke-width:4; stroke-opacity:1; fill:none" points="184.191,1423.18 2352.76,1423.18 "/>
<polyline clip-path="url(#clip290)" style="stroke:#000000; stroke-linecap:round; stroke-linejoin:round; stroke-width:4; stroke-opacity:1; fill:none" points="496.467,1423.18 496.467,1404.28 "/>
<polyline clip-path="url(#clip290)" style="stroke:#000000; stroke-linecap:round; stroke-linejoin:round; stroke-width:4; stroke-opacity:1; fill:none" points="882.47,1423.18 882.47,1404.28 "/>
<polyline clip-path="url(#clip290)" style="stroke:#000000; stroke-linecap:round; stroke-linejoin:round; stroke-width:4; stroke-opacity:1; fill:none" points="1268.47,1423.18 1268.47,1404.28 "/>
<polyline clip-path="url(#clip290)" style="stroke:#000000; stroke-linecap:round; stroke-linejoin:round; stroke-width:4; stroke-opacity:1; fill:none" points="1654.48,1423.18 1654.48,1404.28 "/>
<polyline clip-path="url(#clip290)" style="stroke:#000000; stroke-linecap:round; stroke-linejoin:round; stroke-width:4; stroke-opacity:1; fill:none" points="2040.48,1423.18 2040.48,1404.28 "/>
<path clip-path="url(#clip290)" d="M456.074 1481.64 L463.713 1481.64 L463.713 1455.28 L455.403 1456.95 L455.403 1452.69 L463.666 1451.02 L468.342 1451.02 L468.342 1481.64 L475.981 1481.64 L475.981 1485.58 L456.074 1485.58 L456.074 1481.64 Z" fill="#000000" fill-rule="nonzero" fill-opacity="1" /><path clip-path="url(#clip290)" d="M496.004 1466.44 Q492.856 1466.44 491.004 1468.59 Q489.176 1470.74 489.176 1474.49 Q489.176 1478.22 491.004 1480.39 Q492.856 1482.55 496.004 1482.55 Q499.152 1482.55 500.981 1480.39 Q502.833 1478.22 502.833 1474.49 Q502.833 1470.74 500.981 1468.59 Q499.152 1466.44 496.004 1466.44 M505.287 1451.78 L505.287 1456.04 Q503.527 1455.21 501.722 1454.77 Q499.939 1454.33 498.18 1454.33 Q493.551 1454.33 491.097 1457.45 Q488.666 1460.58 488.319 1466.9 Q489.685 1464.89 491.745 1463.82 Q493.805 1462.73 496.282 1462.73 Q501.49 1462.73 504.5 1465.9 Q507.532 1469.05 507.532 1474.49 Q507.532 1479.82 504.384 1483.03 Q501.236 1486.25 496.004 1486.25 Q490.009 1486.25 486.838 1481.67 Q483.666 1477.06 483.666 1468.33 Q483.666 1460.14 487.555 1455.28 Q491.444 1450.39 497.995 1450.39 Q499.754 1450.39 501.537 1450.74 Q503.342 1451.09 505.287 1451.78 Z" fill="#000000" fill-rule="nonzero" fill-opacity="1" /><path clip-path="url(#clip290)" d="M525.587 1454.1 Q521.976 1454.1 520.148 1457.66 Q518.342 1461.2 518.342 1468.33 Q518.342 1475.44 520.148 1479.01 Q521.976 1482.55 525.587 1482.55 Q529.222 1482.55 531.027 1479.01 Q532.856 1475.44 532.856 1468.33 Q532.856 1461.2 531.027 1457.66 Q529.222 1454.1 525.587 1454.1 M525.587 1450.39 Q531.398 1450.39 534.453 1455 Q537.532 1459.58 537.532 1468.33 Q537.532 1477.06 534.453 1481.67 Q531.398 1486.25 525.587 1486.25 Q519.777 1486.25 516.699 1481.67 Q513.643 1477.06 513.643 1468.33 Q513.643 1459.58 516.699 1455 Q519.777 1450.39 525.587 1450.39 Z" fill="#000000" fill-rule="nonzero" fill-opacity="1" /><path clip-path="url(#clip290)" d="M842.077 1481.64 L849.716 1481.64 L849.716 1455.28 L841.406 1456.95 L841.406 1452.69 L849.669 1451.02 L854.345 1451.02 L854.345 1481.64 L861.984 1481.64 L861.984 1485.58 L842.077 1485.58 L842.077 1481.64 Z" fill="#000000" fill-rule="nonzero" fill-opacity="1" /><path clip-path="url(#clip290)" d="M881.429 1469.17 Q878.095 1469.17 876.174 1470.95 Q874.276 1472.73 874.276 1475.86 Q874.276 1478.98 876.174 1480.77 Q878.095 1482.55 881.429 1482.55 Q884.762 1482.55 886.683 1480.77 Q888.604 1478.96 888.604 1475.86 Q888.604 1472.73 886.683 1470.95 Q884.785 1469.17 881.429 1469.17 M876.753 1467.18 Q873.743 1466.44 872.054 1464.38 Q870.387 1462.32 870.387 1459.35 Q870.387 1455.21 873.327 1452.8 Q876.29 1450.39 881.429 1450.39 Q886.591 1450.39 889.53 1452.8 Q892.47 1455.21 892.47 1459.35 Q892.47 1462.32 890.78 1464.38 Q889.114 1466.44 886.128 1467.18 Q889.507 1467.96 891.382 1470.26 Q893.28 1472.55 893.28 1475.86 Q893.28 1480.88 890.202 1483.57 Q887.146 1486.25 881.429 1486.25 Q875.711 1486.25 872.632 1483.57 Q869.577 1480.88 869.577 1475.86 Q869.577 1472.55 871.475 1470.26 Q873.373 1467.96 876.753 1467.18 M875.04 1459.79 Q875.04 1462.48 876.706 1463.98 Q878.396 1465.49 881.429 1465.49 Q884.438 1465.49 886.128 1463.98 Q887.841 1462.48 887.841 1459.79 Q887.841 1457.11 886.128 1455.6 Q884.438 1454.1 881.429 1454.1 Q878.396 1454.1 876.706 1455.6 Q875.04 1457.11 875.04 1459.79 Z" fill="#000000" fill-rule="nonzero" fill-opacity="1" /><path clip-path="url(#clip290)" d="M911.59 1454.1 Q907.979 1454.1 906.151 1457.66 Q904.345 1461.2 904.345 1468.33 Q904.345 1475.44 906.151 1479.01 Q907.979 1482.55 911.59 1482.55 Q915.225 1482.55 917.03 1479.01 Q918.859 1475.44 918.859 1468.33 Q918.859 1461.2 917.03 1457.66 Q915.225 1454.1 911.59 1454.1 M911.59 1450.39 Q917.401 1450.39 920.456 1455 Q923.535 1459.58 923.535 1468.33 Q923.535 1477.06 920.456 1481.67 Q917.401 1486.25 911.59 1486.25 Q905.78 1486.25 902.702 1481.67 Q899.646 1477.06 899.646 1468.33 Q899.646 1459.58 902.702 1455 Q905.78 1450.39 911.59 1450.39 Z" fill="#000000" fill-rule="nonzero" fill-opacity="1" /><path clip-path="url(#clip290)" d="M1232.17 1481.64 L1248.48 1481.64 L1248.48 1485.58 L1226.54 1485.58 L1226.54 1481.64 Q1229.2 1478.89 1233.79 1474.26 Q1238.39 1469.61 1239.57 1468.27 Q1241.82 1465.74 1242.7 1464.01 Q1243.6 1462.25 1243.6 1460.56 Q1243.6 1457.8 1241.66 1456.07 Q1239.74 1454.33 1236.63 1454.33 Q1234.43 1454.33 1231.98 1455.09 Q1229.55 1455.86 1226.77 1457.41 L1226.77 1452.69 Q1229.6 1451.55 1232.05 1450.97 Q1234.5 1450.39 1236.54 1450.39 Q1241.91 1450.39 1245.11 1453.08 Q1248.3 1455.77 1248.3 1460.26 Q1248.3 1462.39 1247.49 1464.31 Q1246.7 1466.2 1244.6 1468.8 Q1244.02 1469.47 1240.92 1472.69 Q1237.81 1475.88 1232.17 1481.64 Z" fill="#000000" fill-rule="nonzero" fill-opacity="1" /><path clip-path="url(#clip290)" d="M1268.3 1454.1 Q1264.69 1454.1 1262.86 1457.66 Q1261.05 1461.2 1261.05 1468.33 Q1261.05 1475.44 1262.86 1479.01 Q1264.69 1482.55 1268.3 1482.55 Q1271.93 1482.55 1273.74 1479.01 Q1275.57 1475.44 1275.57 1468.33 Q1275.57 1461.2 1273.74 1457.66 Q1271.93 1454.1 1268.3 1454.1 M1268.3 1450.39 Q1274.11 1450.39 1277.17 1455 Q1280.24 1459.58 1280.24 1468.33 Q1280.24 1477.06 1277.17 1481.67 Q1274.11 1486.25 1268.3 1486.25 Q1262.49 1486.25 1259.41 1481.67 Q1256.36 1477.06 1256.36 1468.33 Q1256.36 1459.58 1259.41 1455 Q1262.49 1450.39 1268.3 1450.39 Z" fill="#000000" fill-rule="nonzero" fill-opacity="1" /><path clip-path="url(#clip290)" d="M1298.46 1454.1 Q1294.85 1454.1 1293.02 1457.66 Q1291.22 1461.2 1291.22 1468.33 Q1291.22 1475.44 1293.02 1479.01 Q1294.85 1482.55 1298.46 1482.55 Q1302.1 1482.55 1303.9 1479.01 Q1305.73 1475.44 1305.73 1468.33 Q1305.73 1461.2 1303.9 1457.66 Q1302.1 1454.1 1298.46 1454.1 M1298.46 1450.39 Q1304.27 1450.39 1307.33 1455 Q1310.41 1459.58 1310.41 1468.33 Q1310.41 1477.06 1307.33 1481.67 Q1304.27 1486.25 1298.46 1486.25 Q1292.65 1486.25 1289.57 1481.67 Q1286.52 1477.06 1286.52 1468.33 Q1286.52 1459.58 1289.57 1455 Q1292.65 1450.39 1298.46 1450.39 Z" fill="#000000" fill-rule="nonzero" fill-opacity="1" /><path clip-path="url(#clip290)" d="M1618.17 1481.64 L1634.49 1481.64 L1634.49 1485.58 L1612.54 1485.58 L1612.54 1481.64 Q1615.21 1478.89 1619.79 1474.26 Q1624.4 1469.61 1625.58 1468.27 Q1627.82 1465.74 1628.7 1464.01 Q1629.6 1462.25 1629.6 1460.56 Q1629.6 1457.8 1627.66 1456.07 Q1625.74 1454.33 1622.64 1454.33 Q1620.44 1454.33 1617.98 1455.09 Q1615.55 1455.86 1612.78 1457.41 L1612.78 1452.69 Q1615.6 1451.55 1618.05 1450.97 Q1620.51 1450.39 1622.54 1450.39 Q1627.91 1450.39 1631.11 1453.08 Q1634.3 1455.77 1634.3 1460.26 Q1634.3 1462.39 1633.49 1464.31 Q1632.71 1466.2 1630.6 1468.8 Q1630.02 1469.47 1626.92 1472.69 Q1623.82 1475.88 1618.17 1481.64 Z" fill="#000000" fill-rule="nonzero" fill-opacity="1" /><path clip-path="url(#clip290)" d="M1648.33 1481.64 L1664.65 1481.64 L1664.65 1485.58 L1642.71 1485.58 L1642.71 1481.64 Q1645.37 1478.89 1649.95 1474.26 Q1654.56 1469.61 1655.74 1468.27 Q1657.98 1465.74 1658.86 1464.01 Q1659.77 1462.25 1659.77 1460.56 Q1659.77 1457.8 1657.82 1456.07 Q1655.9 1454.33 1652.8 1454.33 Q1650.6 1454.33 1648.15 1455.09 Q1645.71 1455.86 1642.94 1457.41 L1642.94 1452.69 Q1645.76 1451.55 1648.21 1450.97 Q1650.67 1450.39 1652.71 1450.39 Q1658.08 1450.39 1661.27 1453.08 Q1664.46 1455.77 1664.46 1460.26 Q1664.46 1462.39 1663.65 1464.31 Q1662.87 1466.2 1660.76 1468.8 Q1660.18 1469.47 1657.08 1472.69 Q1653.98 1475.88 1648.33 1481.64 Z" fill="#000000" fill-rule="nonzero" fill-opacity="1" /><path clip-path="url(#clip290)" d="M1684.46 1454.1 Q1680.85 1454.1 1679.02 1457.66 Q1677.22 1461.2 1677.22 1468.33 Q1677.22 1475.44 1679.02 1479.01 Q1680.85 1482.55 1684.46 1482.55 Q1688.1 1482.55 1689.9 1479.01 Q1691.73 1475.44 1691.73 1468.33 Q1691.73 1461.2 1689.9 1457.66 Q1688.1 1454.1 1684.46 1454.1 M1684.46 1450.39 Q1690.27 1450.39 1693.33 1455 Q1696.41 1459.58 1696.41 1468.33 Q1696.41 1477.06 1693.33 1481.67 Q1690.27 1486.25 1684.46 1486.25 Q1678.65 1486.25 1675.58 1481.67 Q1672.52 1477.06 1672.52 1468.33 Q1672.52 1459.58 1675.58 1455 Q1678.65 1450.39 1684.46 1450.39 Z" fill="#000000" fill-rule="nonzero" fill-opacity="1" /><path clip-path="url(#clip290)" d="M2004.17 1481.64 L2020.49 1481.64 L2020.49 1485.58 L1998.55 1485.58 L1998.55 1481.64 Q2001.21 1478.89 2005.79 1474.26 Q2010.4 1469.61 2011.58 1468.27 Q2013.82 1465.74 2014.7 1464.01 Q2015.61 1462.25 2015.61 1460.56 Q2015.61 1457.8 2013.66 1456.07 Q2011.74 1454.33 2008.64 1454.33 Q2006.44 1454.33 2003.99 1455.09 Q2001.56 1455.86 1998.78 1457.41 L1998.78 1452.69 Q2001.6 1451.55 2004.06 1450.97 Q2006.51 1450.39 2008.55 1450.39 Q2013.92 1450.39 2017.11 1453.08 Q2020.31 1455.77 2020.31 1460.26 Q2020.31 1462.39 2019.5 1464.31 Q2018.71 1466.2 2016.6 1468.8 Q2016.02 1469.47 2012.92 1472.69 Q2009.82 1475.88 2004.17 1481.64 Z" fill="#000000" fill-rule="nonzero" fill-opacity="1" /><path clip-path="url(#clip290)" d="M2043.15 1455.09 L2031.35 1473.54 L2043.15 1473.54 L2043.15 1455.09 M2041.93 1451.02 L2047.81 1451.02 L2047.81 1473.54 L2052.74 1473.54 L2052.74 1477.43 L2047.81 1477.43 L2047.81 1485.58 L2043.15 1485.58 L2043.15 1477.43 L2027.55 1477.43 L2027.55 1472.92 L2041.93 1451.02 Z" fill="#000000" fill-rule="nonzero" fill-opacity="1" /><path clip-path="url(#clip290)" d="M2070.47 1454.1 Q2066.86 1454.1 2065.03 1457.66 Q2063.22 1461.2 2063.22 1468.33 Q2063.22 1475.44 2065.03 1479.01 Q2066.86 1482.55 2070.47 1482.55 Q2074.1 1482.55 2075.91 1479.01 Q2077.74 1475.44 2077.74 1468.33 Q2077.74 1461.2 2075.91 1457.66 Q2074.1 1454.1 2070.47 1454.1 M2070.47 1450.39 Q2076.28 1450.39 2079.33 1455 Q2082.41 1459.58 2082.41 1468.33 Q2082.41 1477.06 2079.33 1481.67 Q2076.28 1486.25 2070.47 1486.25 Q2064.66 1486.25 2061.58 1481.67 Q2058.52 1477.06 2058.52 1468.33 Q2058.52 1459.58 2061.58 1455 Q2064.66 1450.39 2070.47 1450.39 Z" fill="#000000" fill-rule="nonzero" fill-opacity="1" /><path clip-path="url(#clip290)" d="M1142.85 1525.81 L1142.85 1562.76 L1150.61 1562.76 Q1160.45 1562.76 1165 1558.3 Q1169.58 1553.85 1169.58 1544.24 Q1169.58 1534.69 1165 1530.26 Q1160.45 1525.81 1150.61 1525.81 L1142.85 1525.81 M1136.42 1520.52 L1149.63 1520.52 Q1163.44 1520.52 1169.9 1526.28 Q1176.36 1532.01 1176.36 1544.24 Q1176.36 1556.52 1169.87 1562.28 Q1163.38 1568.04 1149.63 1568.04 L1136.42 1568.04 L1136.42 1520.52 Z" fill="#000000" fill-rule="nonzero" fill-opacity="1" /><path clip-path="url(#clip290)" d="M1216.85 1548.76 L1216.85 1551.62 L1189.92 1551.62 Q1190.3 1557.67 1193.55 1560.85 Q1196.83 1564 1202.65 1564 Q1206.03 1564 1209.18 1563.17 Q1212.36 1562.35 1215.48 1560.69 L1215.48 1566.23 Q1212.33 1567.57 1209.02 1568.27 Q1205.71 1568.97 1202.3 1568.97 Q1193.77 1568.97 1188.77 1564 Q1183.81 1559.04 1183.81 1550.57 Q1183.81 1541.82 1188.52 1536.69 Q1193.26 1531.54 1201.28 1531.54 Q1208.48 1531.54 1212.65 1536.18 Q1216.85 1540.8 1216.85 1548.76 M1210.99 1547.04 Q1210.93 1542.23 1208.29 1539.37 Q1205.68 1536.5 1201.35 1536.5 Q1196.45 1536.5 1193.49 1539.27 Q1190.56 1542.04 1190.11 1547.07 L1210.99 1547.04 Z" fill="#000000" fill-rule="nonzero" fill-opacity="1" /><path clip-path="url(#clip290)" d="M1254.21 1539.24 Q1256.41 1535.29 1259.47 1533.41 Q1262.52 1531.54 1266.66 1531.54 Q1272.23 1531.54 1275.25 1535.45 Q1278.28 1539.33 1278.28 1546.53 L1278.28 1568.04 L1272.39 1568.04 L1272.39 1546.72 Q1272.39 1541.59 1270.57 1539.11 Q1268.76 1536.63 1265.04 1536.63 Q1260.48 1536.63 1257.84 1539.65 Q1255.2 1542.68 1255.2 1547.9 L1255.2 1568.04 L1249.31 1568.04 L1249.31 1546.72 Q1249.31 1541.56 1247.5 1539.11 Q1245.68 1536.63 1241.9 1536.63 Q1237.41 1536.63 1234.77 1539.68 Q1232.13 1542.71 1232.13 1547.9 L1232.13 1568.04 L1226.24 1568.04 L1226.24 1532.4 L1232.13 1532.4 L1232.13 1537.93 Q1234.13 1534.66 1236.93 1533.1 Q1239.73 1531.54 1243.58 1531.54 Q1247.47 1531.54 1250.17 1533.51 Q1252.91 1535.48 1254.21 1539.24 Z" fill="#000000" fill-rule="nonzero" fill-opacity="1" /><path clip-path="url(#clip290)" d="M1306.16 1550.12 Q1299.06 1550.12 1296.32 1551.75 Q1293.59 1553.37 1293.59 1557.29 Q1293.59 1560.4 1295.62 1562.25 Q1297.69 1564.07 1301.22 1564.07 Q1306.09 1564.07 1309.02 1560.63 Q1311.98 1557.16 1311.98 1551.43 L1311.98 1550.12 L1306.16 1550.12 M1317.84 1547.71 L1317.84 1568.04 L1311.98 1568.04 L1311.98 1562.63 Q1309.98 1565.88 1306.99 1567.44 Q1303.99 1568.97 1299.67 1568.97 Q1294.19 1568.97 1290.94 1565.91 Q1287.73 1562.82 1287.73 1557.67 Q1287.73 1551.65 1291.74 1548.6 Q1295.78 1545.54 1303.77 1545.54 L1311.98 1545.54 L1311.98 1544.97 Q1311.98 1540.93 1309.31 1538.73 Q1306.67 1536.5 1301.86 1536.5 Q1298.81 1536.5 1295.91 1537.23 Q1293.01 1537.97 1290.34 1539.43 L1290.34 1534.02 Q1293.55 1532.78 1296.58 1532.17 Q1299.6 1531.54 1302.47 1531.54 Q1310.2 1531.54 1314.02 1535.55 Q1317.84 1539.56 1317.84 1547.71 Z" fill="#000000" fill-rule="nonzero" fill-opacity="1" /><path clip-path="url(#clip290)" d="M1359.53 1546.53 L1359.53 1568.04 L1353.68 1568.04 L1353.68 1546.72 Q1353.68 1541.66 1351.7 1539.14 Q1349.73 1536.63 1345.78 1536.63 Q1341.04 1536.63 1338.31 1539.65 Q1335.57 1542.68 1335.57 1547.9 L1335.57 1568.04 L1329.68 1568.04 L1329.68 1532.4 L1335.57 1532.4 L1335.57 1537.93 Q1337.67 1534.72 1340.5 1533.13 Q1343.37 1531.54 1347.09 1531.54 Q1353.23 1531.54 1356.38 1535.36 Q1359.53 1539.14 1359.53 1546.53 Z" fill="#000000" fill-rule="nonzero" fill-opacity="1" /><path clip-path="url(#clip290)" d="M1394.67 1537.81 L1394.67 1518.52 L1400.53 1518.52 L1400.53 1568.04 L1394.67 1568.04 L1394.67 1562.7 Q1392.83 1565.88 1389.99 1567.44 Q1387.19 1568.97 1383.25 1568.97 Q1376.79 1568.97 1372.71 1563.81 Q1368.67 1558.65 1368.67 1550.25 Q1368.67 1541.85 1372.71 1536.69 Q1376.79 1531.54 1383.25 1531.54 Q1387.19 1531.54 1389.99 1533.1 Q1392.83 1534.62 1394.67 1537.81 M1374.72 1550.25 Q1374.72 1556.71 1377.36 1560.4 Q1380.03 1564.07 1384.68 1564.07 Q1389.33 1564.07 1392 1560.4 Q1394.67 1556.71 1394.67 1550.25 Q1394.67 1543.79 1392 1540.13 Q1389.33 1536.44 1384.68 1536.44 Q1380.03 1536.44 1377.36 1540.13 Q1374.72 1543.79 1374.72 1550.25 Z" fill="#000000" fill-rule="nonzero" fill-opacity="1" /><polyline clip-path="url(#clip292)" style="stroke:#000000; stroke-linecap:round; stroke-linejoin:round; stroke-width:2; stroke-opacity:0.1; fill:none" points="184.191,1423.18 2352.76,1423.18 "/>
<polyline clip-path="url(#clip292)" style="stroke:#000000; stroke-linecap:round; stroke-linejoin:round; stroke-width:2; stroke-opacity:0.1; fill:none" points="184.191,1110.47 2352.76,1110.47 "/>
<polyline clip-path="url(#clip292)" style="stroke:#000000; stroke-linecap:round; stroke-linejoin:round; stroke-width:2; stroke-opacity:0.1; fill:none" points="184.191,797.755 2352.76,797.755 "/>
<polyline clip-path="url(#clip292)" style="stroke:#000000; stroke-linecap:round; stroke-linejoin:round; stroke-width:2; stroke-opacity:0.1; fill:none" points="184.191,485.042 2352.76,485.042 "/>
<polyline clip-path="url(#clip292)" style="stroke:#000000; stroke-linecap:round; stroke-linejoin:round; stroke-width:2; stroke-opacity:0.1; fill:none" points="184.191,172.329 2352.76,172.329 "/>
<polyline clip-path="url(#clip290)" style="stroke:#000000; stroke-linecap:round; stroke-linejoin:round; stroke-width:4; stroke-opacity:1; fill:none" points="184.191,1423.18 184.191,47.2441 "/>
<polyline clip-path="url(#clip290)" style="stroke:#000000; stroke-linecap:round; stroke-linejoin:round; stroke-width:4; stroke-opacity:1; fill:none" points="184.191,1423.18 203.088,1423.18 "/>
<polyline clip-path="url(#clip290)" style="stroke:#000000; stroke-linecap:round; stroke-linejoin:round; stroke-width:4; stroke-opacity:1; fill:none" points="184.191,1110.47 203.088,1110.47 "/>
<polyline clip-path="url(#clip290)" style="stroke:#000000; stroke-linecap:round; stroke-linejoin:round; stroke-width:4; stroke-opacity:1; fill:none" points="184.191,797.755 203.088,797.755 "/>
<polyline clip-path="url(#clip290)" style="stroke:#000000; stroke-linecap:round; stroke-linejoin:round; stroke-width:4; stroke-opacity:1; fill:none" points="184.191,485.042 203.088,485.042 "/>
<polyline clip-path="url(#clip290)" style="stroke:#000000; stroke-linecap:round; stroke-linejoin:round; stroke-width:4; stroke-opacity:1; fill:none" points="184.191,172.329 203.088,172.329 "/>
<path clip-path="url(#clip290)" d="M91.0151 1408.98 Q87.404 1408.98 85.5753 1412.54 Q83.7697 1416.08 83.7697 1423.21 Q83.7697 1430.32 85.5753 1433.89 Q87.404 1437.43 91.0151 1437.43 Q94.6493 1437.43 96.4548 1433.89 Q98.2835 1430.32 98.2835 1423.21 Q98.2835 1416.08 96.4548 1412.54 Q94.6493 1408.98 91.0151 1408.98 M91.0151 1405.27 Q96.8252 1405.27 99.8808 1409.88 Q102.959 1414.46 102.959 1423.21 Q102.959 1431.94 99.8808 1436.55 Q96.8252 1441.13 91.0151 1441.13 Q85.2049 1441.13 82.1262 1436.55 Q79.0707 1431.94 79.0707 1423.21 Q79.0707 1414.46 82.1262 1409.88 Q85.2049 1405.27 91.0151 1405.27 Z" fill="#000000" fill-rule="nonzero" fill-opacity="1" /><path clip-path="url(#clip290)" d="M111.177 1434.58 L116.061 1434.58 L116.061 1440.46 L111.177 1440.46 L111.177 1434.58 Z" fill="#000000" fill-rule="nonzero" fill-opacity="1" /><path clip-path="url(#clip290)" d="M136.246 1408.98 Q132.635 1408.98 130.807 1412.54 Q129.001 1416.08 129.001 1423.21 Q129.001 1430.32 130.807 1433.89 Q132.635 1437.43 136.246 1437.43 Q139.881 1437.43 141.686 1433.89 Q143.515 1430.32 143.515 1423.21 Q143.515 1416.08 141.686 1412.54 Q139.881 1408.98 136.246 1408.98 M136.246 1405.27 Q142.056 1405.27 145.112 1409.88 Q148.191 1414.46 148.191 1423.21 Q148.191 1431.94 145.112 1436.55 Q142.056 1441.13 136.246 1441.13 Q130.436 1441.13 127.357 1436.55 Q124.302 1431.94 124.302 1423.21 Q124.302 1414.46 127.357 1409.88 Q130.436 1405.27 136.246 1405.27 Z" fill="#000000" fill-rule="nonzero" fill-opacity="1" /><path clip-path="url(#clip290)" d="M86.0382 1123.81 L102.358 1123.81 L102.358 1127.75 L80.4133 1127.75 L80.4133 1123.81 Q83.0753 1121.06 87.6586 1116.43 Q92.2651 1111.78 93.4456 1110.43 Q95.691 1107.91 96.5706 1106.17 Q97.4734 1104.41 97.4734 1102.72 Q97.4734 1099.97 95.5289 1098.23 Q93.6076 1096.5 90.5058 1096.5 Q88.3067 1096.5 85.8531 1097.26 Q83.4225 1098.03 80.6447 1099.58 L80.6447 1094.85 Q83.4688 1093.72 85.9225 1093.14 Q88.3762 1092.56 90.4132 1092.56 Q95.7836 1092.56 98.978 1095.25 Q102.172 1097.93 102.172 1102.42 Q102.172 1104.55 101.362 1106.47 Q100.575 1108.37 98.4687 1110.96 Q97.89 1111.64 94.7882 1114.85 Q91.6864 1118.05 86.0382 1123.81 Z" fill="#000000" fill-rule="nonzero" fill-opacity="1" /><path clip-path="url(#clip290)" d="M112.172 1121.87 L117.057 1121.87 L117.057 1127.75 L112.172 1127.75 L112.172 1121.87 Z" fill="#000000" fill-rule="nonzero" fill-opacity="1" /><path clip-path="url(#clip290)" d="M127.288 1093.19 L145.644 1093.19 L145.644 1097.12 L131.57 1097.12 L131.57 1105.59 Q132.589 1105.25 133.607 1105.09 Q134.626 1104.9 135.644 1104.9 Q141.431 1104.9 144.811 1108.07 Q148.191 1111.24 148.191 1116.66 Q148.191 1122.24 144.718 1125.34 Q141.246 1128.42 134.927 1128.42 Q132.751 1128.42 130.482 1128.05 Q128.237 1127.68 125.83 1126.94 L125.83 1122.24 Q127.913 1123.37 130.135 1123.93 Q132.357 1124.48 134.834 1124.48 Q138.839 1124.48 141.177 1122.38 Q143.515 1120.27 143.515 1116.66 Q143.515 1113.05 141.177 1110.94 Q138.839 1108.84 134.834 1108.84 Q132.959 1108.84 131.084 1109.25 Q129.232 1109.67 127.288 1110.55 L127.288 1093.19 Z" fill="#000000" fill-rule="nonzero" fill-opacity="1" /><path clip-path="url(#clip290)" d="M81.0614 780.475 L99.4178 780.475 L99.4178 784.41 L85.3438 784.41 L85.3438 792.882 Q86.3623 792.535 87.3808 792.373 Q88.3993 792.187 89.4178 792.187 Q95.2049 792.187 98.5845 795.359 Q101.964 798.53 101.964 803.947 Q101.964 809.525 98.4919 812.627 Q95.0197 815.706 88.7003 815.706 Q86.5243 815.706 84.2558 815.335 Q82.0105 814.965 79.6031 814.224 L79.6031 809.525 Q81.6864 810.66 83.9086 811.215 Q86.1308 811.771 88.6077 811.771 Q92.6123 811.771 94.9502 809.664 Q97.2882 807.558 97.2882 803.947 Q97.2882 800.336 94.9502 798.229 Q92.6123 796.123 88.6077 796.123 Q86.7327 796.123 84.8577 796.539 Q83.0058 796.956 81.0614 797.836 L81.0614 780.475 Z" fill="#000000" fill-rule="nonzero" fill-opacity="1" /><path clip-path="url(#clip290)" d="M111.177 809.155 L116.061 809.155 L116.061 815.035 L111.177 815.035 L111.177 809.155 Z" fill="#000000" fill-rule="nonzero" fill-opacity="1" /><path clip-path="url(#clip290)" d="M136.246 783.553 Q132.635 783.553 130.807 787.118 Q129.001 790.66 129.001 797.789 Q129.001 804.896 130.807 808.46 Q132.635 812.002 136.246 812.002 Q139.881 812.002 141.686 808.46 Q143.515 804.896 143.515 797.789 Q143.515 790.66 141.686 787.118 Q139.881 783.553 136.246 783.553 M136.246 779.85 Q142.056 779.85 145.112 784.456 Q148.191 789.039 148.191 797.789 Q148.191 806.516 145.112 811.122 Q142.056 815.706 136.246 815.706 Q130.436 815.706 127.357 811.122 Q124.302 806.516 124.302 797.789 Q124.302 789.039 127.357 784.456 Q130.436 779.85 136.246 779.85 Z" fill="#000000" fill-rule="nonzero" fill-opacity="1" /><path clip-path="url(#clip290)" d="M80.8299 467.762 L103.052 467.762 L103.052 469.753 L90.5058 502.322 L85.6216 502.322 L97.4271 471.697 L80.8299 471.697 L80.8299 467.762 Z" fill="#000000" fill-rule="nonzero" fill-opacity="1" /><path clip-path="url(#clip290)" d="M112.172 496.442 L117.057 496.442 L117.057 502.322 L112.172 502.322 L112.172 496.442 Z" fill="#000000" fill-rule="nonzero" fill-opacity="1" /><path clip-path="url(#clip290)" d="M127.288 467.762 L145.644 467.762 L145.644 471.697 L131.57 471.697 L131.57 480.169 Q132.589 479.822 133.607 479.66 Q134.626 479.475 135.644 479.475 Q141.431 479.475 144.811 482.646 Q148.191 485.817 148.191 491.234 Q148.191 496.813 144.718 499.914 Q141.246 502.993 134.927 502.993 Q132.751 502.993 130.482 502.623 Q128.237 502.252 125.83 501.512 L125.83 496.813 Q127.913 497.947 130.135 498.502 Q132.357 499.058 134.834 499.058 Q138.839 499.058 141.177 496.951 Q143.515 494.845 143.515 491.234 Q143.515 487.623 141.177 485.516 Q138.839 483.41 134.834 483.41 Q132.959 483.41 131.084 483.827 Q129.232 484.243 127.288 485.123 L127.288 467.762 Z" fill="#000000" fill-rule="nonzero" fill-opacity="1" /><path clip-path="url(#clip290)" d="M51.6634 185.674 L59.3023 185.674 L59.3023 159.308 L50.9921 160.975 L50.9921 156.716 L59.256 155.049 L63.9319 155.049 L63.9319 185.674 L71.5707 185.674 L71.5707 189.609 L51.6634 189.609 L51.6634 185.674 Z" fill="#000000" fill-rule="nonzero" fill-opacity="1" /><path clip-path="url(#clip290)" d="M91.0151 158.128 Q87.404 158.128 85.5753 161.693 Q83.7697 165.234 83.7697 172.364 Q83.7697 179.47 85.5753 183.035 Q87.404 186.577 91.0151 186.577 Q94.6493 186.577 96.4548 183.035 Q98.2835 179.47 98.2835 172.364 Q98.2835 165.234 96.4548 161.693 Q94.6493 158.128 91.0151 158.128 M91.0151 154.424 Q96.8252 154.424 99.8808 159.031 Q102.959 163.614 102.959 172.364 Q102.959 181.091 99.8808 185.697 Q96.8252 190.28 91.0151 190.28 Q85.2049 190.28 82.1262 185.697 Q79.0707 181.091 79.0707 172.364 Q79.0707 163.614 82.1262 159.031 Q85.2049 154.424 91.0151 154.424 Z" fill="#000000" fill-rule="nonzero" fill-opacity="1" /><path clip-path="url(#clip290)" d="M111.177 183.73 L116.061 183.73 L116.061 189.609 L111.177 189.609 L111.177 183.73 Z" fill="#000000" fill-rule="nonzero" fill-opacity="1" /><path clip-path="url(#clip290)" d="M136.246 158.128 Q132.635 158.128 130.807 161.693 Q129.001 165.234 129.001 172.364 Q129.001 179.47 130.807 183.035 Q132.635 186.577 136.246 186.577 Q139.881 186.577 141.686 183.035 Q143.515 179.47 143.515 172.364 Q143.515 165.234 141.686 161.693 Q139.881 158.128 136.246 158.128 M136.246 154.424 Q142.056 154.424 145.112 159.031 Q148.191 163.614 148.191 172.364 Q148.191 181.091 145.112 185.697 Q142.056 190.28 136.246 190.28 Q130.436 190.28 127.357 185.697 Q124.302 181.091 124.302 172.364 Q124.302 163.614 127.357 159.031 Q130.436 154.424 136.246 154.424 Z" fill="#000000" fill-rule="nonzero" fill-opacity="1" /><path clip-path="url(#clip292)" d="M303.466 1298.09 L303.466 1423.18 L399.966 1423.18 L399.966 1298.09 L303.466 1298.09 L303.466 1298.09  Z" fill="#009af9" fill-rule="evenodd" fill-opacity="1"/>
<polyline clip-path="url(#clip292)" style="stroke:#000000; stroke-linecap:round; stroke-linejoin:round; stroke-width:4; stroke-opacity:1; fill:none" points="303.466,1298.09 303.466,1423.18 399.966,1423.18 399.966,1298.09 303.466,1298.09 "/>
<path clip-path="url(#clip292)" d="M399.966 1298.09 L399.966 1423.18 L496.467 1423.18 L496.467 1298.09 L399.966 1298.09 L399.966 1298.09  Z" fill="#009af9" fill-rule="evenodd" fill-opacity="1"/>
<polyline clip-path="url(#clip292)" style="stroke:#000000; stroke-linecap:round; stroke-linejoin:round; stroke-width:4; stroke-opacity:1; fill:none" points="399.966,1298.09 399.966,1423.18 496.467,1423.18 496.467,1298.09 399.966,1298.09 "/>
<path clip-path="url(#clip292)" d="M496.467 797.755 L496.467 1423.18 L592.968 1423.18 L592.968 797.755 L496.467 797.755 L496.467 797.755  Z" fill="#009af9" fill-rule="evenodd" fill-opacity="1"/>
<polyline clip-path="url(#clip292)" style="stroke:#000000; stroke-linecap:round; stroke-linejoin:round; stroke-width:4; stroke-opacity:1; fill:none" points="496.467,797.755 496.467,1423.18 592.968,1423.18 592.968,797.755 496.467,797.755 "/>
<path clip-path="url(#clip292)" d="M592.968 922.84 L592.968 1423.18 L689.469 1423.18 L689.469 922.84 L592.968 922.84 L592.968 922.84  Z" fill="#009af9" fill-rule="evenodd" fill-opacity="1"/>
<polyline clip-path="url(#clip292)" style="stroke:#000000; stroke-linecap:round; stroke-linejoin:round; stroke-width:4; stroke-opacity:1; fill:none" points="592.968,922.84 592.968,1423.18 689.469,1423.18 689.469,922.84 592.968,922.84 "/>
<path clip-path="url(#clip292)" d="M689.469 547.584 L689.469 1423.18 L785.969 1423.18 L785.969 547.584 L689.469 547.584 L689.469 547.584  Z" fill="#009af9" fill-rule="evenodd" fill-opacity="1"/>
<polyline clip-path="url(#clip292)" style="stroke:#000000; stroke-linecap:round; stroke-linejoin:round; stroke-width:4; stroke-opacity:1; fill:none" points="689.469,547.584 689.469,1423.18 785.969,1423.18 785.969,547.584 689.469,547.584 "/>
<path clip-path="url(#clip292)" d="M785.969 1173.01 L785.969 1423.18 L882.47 1423.18 L882.47 1173.01 L785.969 1173.01 L785.969 1173.01  Z" fill="#009af9" fill-rule="evenodd" fill-opacity="1"/>
<polyline clip-path="url(#clip292)" style="stroke:#000000; stroke-linecap:round; stroke-linejoin:round; stroke-width:4; stroke-opacity:1; fill:none" points="785.969,1173.01 785.969,1423.18 882.47,1423.18 882.47,1173.01 785.969,1173.01 "/>
<path clip-path="url(#clip292)" d="M882.47 797.755 L882.47 1423.18 L978.971 1423.18 L978.971 797.755 L882.47 797.755 L882.47 797.755  Z" fill="#009af9" fill-rule="evenodd" fill-opacity="1"/>
<polyline clip-path="url(#clip292)" style="stroke:#000000; stroke-linecap:round; stroke-linejoin:round; stroke-width:4; stroke-opacity:1; fill:none" points="882.47,797.755 882.47,1423.18 978.971,1423.18 978.971,797.755 882.47,797.755 "/>
<path clip-path="url(#clip292)" d="M978.971 672.669 L978.971 1423.18 L1075.47 1423.18 L1075.47 672.669 L978.971 672.669 L978.971 672.669  Z" fill="#009af9" fill-rule="evenodd" fill-opacity="1"/>
<polyline clip-path="url(#clip292)" style="stroke:#000000; stroke-linecap:round; stroke-linejoin:round; stroke-width:4; stroke-opacity:1; fill:none" points="978.971,672.669 978.971,1423.18 1075.47,1423.18 1075.47,672.669 978.971,672.669 "/>
<path clip-path="url(#clip292)" d="M1075.47 922.84 L1075.47 1423.18 L1171.97 1423.18 L1171.97 922.84 L1075.47 922.84 L1075.47 922.84  Z" fill="#009af9" fill-rule="evenodd" fill-opacity="1"/>
<polyline clip-path="url(#clip292)" style="stroke:#000000; stroke-linecap:round; stroke-linejoin:round; stroke-width:4; stroke-opacity:1; fill:none" points="1075.47,922.84 1075.47,1423.18 1171.97,1423.18 1171.97,922.84 1075.47,922.84 "/>
<path clip-path="url(#clip292)" d="M1171.97 422.499 L1171.97 1423.18 L1268.47 1423.18 L1268.47 422.499 L1171.97 422.499 L1171.97 422.499  Z" fill="#009af9" fill-rule="evenodd" fill-opacity="1"/>
<polyline clip-path="url(#clip292)" style="stroke:#000000; stroke-linecap:round; stroke-linejoin:round; stroke-width:4; stroke-opacity:1; fill:none" points="1171.97,422.499 1171.97,1423.18 1268.47,1423.18 1268.47,422.499 1171.97,422.499 "/>
<path clip-path="url(#clip292)" d="M1268.47 297.414 L1268.47 1423.18 L1364.97 1423.18 L1364.97 297.414 L1268.47 297.414 L1268.47 297.414  Z" fill="#009af9" fill-rule="evenodd" fill-opacity="1"/>
<polyline clip-path="url(#clip292)" style="stroke:#000000; stroke-linecap:round; stroke-linejoin:round; stroke-width:4; stroke-opacity:1; fill:none" points="1268.47,297.414 1268.47,1423.18 1364.97,1423.18 1364.97,297.414 1268.47,297.414 "/>
<path clip-path="url(#clip292)" d="M1364.97 47.2441 L1364.97 1423.18 L1461.47 1423.18 L1461.47 47.2441 L1364.97 47.2441 L1364.97 47.2441  Z" fill="#009af9" fill-rule="evenodd" fill-opacity="1"/>
<polyline clip-path="url(#clip292)" style="stroke:#000000; stroke-linecap:round; stroke-linejoin:round; stroke-width:4; stroke-opacity:1; fill:none" points="1364.97,47.2441 1364.97,1423.18 1461.47,1423.18 1461.47,47.2441 1364.97,47.2441 "/>
<path clip-path="url(#clip292)" d="M1461.47 297.414 L1461.47 1423.18 L1557.98 1423.18 L1557.98 297.414 L1461.47 297.414 L1461.47 297.414  Z" fill="#009af9" fill-rule="evenodd" fill-opacity="1"/>
<polyline clip-path="url(#clip292)" style="stroke:#000000; stroke-linecap:round; stroke-linejoin:round; stroke-width:4; stroke-opacity:1; fill:none" points="1461.47,297.414 1461.47,1423.18 1557.98,1423.18 1557.98,297.414 1461.47,297.414 "/>
<path clip-path="url(#clip292)" d="M1557.98 47.2441 L1557.98 1423.18 L1654.48 1423.18 L1654.48 47.2441 L1557.98 47.2441 L1557.98 47.2441  Z" fill="#009af9" fill-rule="evenodd" fill-opacity="1"/>
<polyline clip-path="url(#clip292)" style="stroke:#000000; stroke-linecap:round; stroke-linejoin:round; stroke-width:4; stroke-opacity:1; fill:none" points="1557.98,47.2441 1557.98,1423.18 1654.48,1423.18 1654.48,47.2441 1557.98,47.2441 "/>
<path clip-path="url(#clip292)" d="M1654.48 422.499 L1654.48 1423.18 L1750.98 1423.18 L1750.98 422.499 L1654.48 422.499 L1654.48 422.499  Z" fill="#009af9" fill-rule="evenodd" fill-opacity="1"/>
<polyline clip-path="url(#clip292)" style="stroke:#000000; stroke-linecap:round; stroke-linejoin:round; stroke-width:4; stroke-opacity:1; fill:none" points="1654.48,422.499 1654.48,1423.18 1750.98,1423.18 1750.98,422.499 1654.48,422.499 "/>
<path clip-path="url(#clip292)" d="M1750.98 1047.92 L1750.98 1423.18 L1847.48 1423.18 L1847.48 1047.92 L1750.98 1047.92 L1750.98 1047.92  Z" fill="#009af9" fill-rule="evenodd" fill-opacity="1"/>
<polyline clip-path="url(#clip292)" style="stroke:#000000; stroke-linecap:round; stroke-linejoin:round; stroke-width:4; stroke-opacity:1; fill:none" points="1750.98,1047.92 1750.98,1423.18 1847.48,1423.18 1847.48,1047.92 1750.98,1047.92 "/>
<path clip-path="url(#clip292)" d="M1847.48 1173.01 L1847.48 1423.18 L1943.98 1423.18 L1943.98 1173.01 L1847.48 1173.01 L1847.48 1173.01  Z" fill="#009af9" fill-rule="evenodd" fill-opacity="1"/>
<polyline clip-path="url(#clip292)" style="stroke:#000000; stroke-linecap:round; stroke-linejoin:round; stroke-width:4; stroke-opacity:1; fill:none" points="1847.48,1173.01 1847.48,1423.18 1943.98,1423.18 1943.98,1173.01 1847.48,1173.01 "/>
<path clip-path="url(#clip292)" d="M1943.98 1173.01 L1943.98 1423.18 L2040.48 1423.18 L2040.48 1173.01 L1943.98 1173.01 L1943.98 1173.01  Z" fill="#009af9" fill-rule="evenodd" fill-opacity="1"/>
<polyline clip-path="url(#clip292)" style="stroke:#000000; stroke-linecap:round; stroke-linejoin:round; stroke-width:4; stroke-opacity:1; fill:none" points="1943.98,1173.01 1943.98,1423.18 2040.48,1423.18 2040.48,1173.01 1943.98,1173.01 "/>
<path clip-path="url(#clip292)" d="M2040.48 1298.09 L2040.48 1423.18 L2136.98 1423.18 L2136.98 1298.09 L2040.48 1298.09 L2040.48 1298.09  Z" fill="#009af9" fill-rule="evenodd" fill-opacity="1"/>
<polyline clip-path="url(#clip292)" style="stroke:#000000; stroke-linecap:round; stroke-linejoin:round; stroke-width:4; stroke-opacity:1; fill:none" points="2040.48,1298.09 2040.48,1423.18 2136.98,1423.18 2136.98,1298.09 2040.48,1298.09 "/>
<path clip-path="url(#clip292)" d="M2136.98 1298.09 L2136.98 1423.18 L2233.48 1423.18 L2233.48 1298.09 L2136.98 1298.09 L2136.98 1298.09  Z" fill="#009af9" fill-rule="evenodd" fill-opacity="1"/>
<polyline clip-path="url(#clip292)" style="stroke:#000000; stroke-linecap:round; stroke-linejoin:round; stroke-width:4; stroke-opacity:1; fill:none" points="2136.98,1298.09 2136.98,1423.18 2233.48,1423.18 2233.48,1298.09 2136.98,1298.09 "/>
<circle clip-path="url(#clip292)" style="fill:#009af9; stroke:none; fill-opacity:0" cx="351.716" cy="1298.09" r="2"/>
<circle clip-path="url(#clip292)" style="fill:#009af9; stroke:none; fill-opacity:0" cx="448.217" cy="1298.09" r="2"/>
<circle clip-path="url(#clip292)" style="fill:#009af9; stroke:none; fill-opacity:0" cx="544.718" cy="797.755" r="2"/>
<circle clip-path="url(#clip292)" style="fill:#009af9; stroke:none; fill-opacity:0" cx="641.218" cy="922.84" r="2"/>
<circle clip-path="url(#clip292)" style="fill:#009af9; stroke:none; fill-opacity:0" cx="737.719" cy="547.584" r="2"/>
<circle clip-path="url(#clip292)" style="fill:#009af9; stroke:none; fill-opacity:0" cx="834.22" cy="1173.01" r="2"/>
<circle clip-path="url(#clip292)" style="fill:#009af9; stroke:none; fill-opacity:0" cx="930.721" cy="797.755" r="2"/>
<circle clip-path="url(#clip292)" style="fill:#009af9; stroke:none; fill-opacity:0" cx="1027.22" cy="672.669" r="2"/>
<circle clip-path="url(#clip292)" style="fill:#009af9; stroke:none; fill-opacity:0" cx="1123.72" cy="922.84" r="2"/>
<circle clip-path="url(#clip292)" style="fill:#009af9; stroke:none; fill-opacity:0" cx="1220.22" cy="422.499" r="2"/>
<circle clip-path="url(#clip292)" style="fill:#009af9; stroke:none; fill-opacity:0" cx="1316.72" cy="297.414" r="2"/>
<circle clip-path="url(#clip292)" style="fill:#009af9; stroke:none; fill-opacity:0" cx="1413.22" cy="47.2441" r="2"/>
<circle clip-path="url(#clip292)" style="fill:#009af9; stroke:none; fill-opacity:0" cx="1509.73" cy="297.414" r="2"/>
<circle clip-path="url(#clip292)" style="fill:#009af9; stroke:none; fill-opacity:0" cx="1606.23" cy="47.2441" r="2"/>
<circle clip-path="url(#clip292)" style="fill:#009af9; stroke:none; fill-opacity:0" cx="1702.73" cy="422.499" r="2"/>
<circle clip-path="url(#clip292)" style="fill:#009af9; stroke:none; fill-opacity:0" cx="1799.23" cy="1047.92" r="2"/>
<circle clip-path="url(#clip292)" style="fill:#009af9; stroke:none; fill-opacity:0" cx="1895.73" cy="1173.01" r="2"/>
<circle clip-path="url(#clip292)" style="fill:#009af9; stroke:none; fill-opacity:0" cx="1992.23" cy="1173.01" r="2"/>
<circle clip-path="url(#clip292)" style="fill:#009af9; stroke:none; fill-opacity:0" cx="2088.73" cy="1298.09" r="2"/>
<circle clip-path="url(#clip292)" style="fill:#009af9; stroke:none; fill-opacity:0" cx="2185.23" cy="1298.09" r="2"/>
</svg>
