<?xml version="1.0" encoding="utf-8"?>
<svg xmlns="http://www.w3.org/2000/svg" xmlns:xlink="http://www.w3.org/1999/xlink" width="600" height="400" viewBox="0 0 2400 1600">
<defs>
  <clipPath id="clip170">
    <rect x="0" y="0" width="2400" height="1600"/>
  </clipPath>
</defs>
<path clip-path="url(#clip170)" d="M0 1600 L2400 1600 L2400 0 L0 0  Z" fill="#ffffff" fill-rule="evenodd" fill-opacity="1"/>
<defs>
  <clipPath id="clip171">
    <rect x="480" y="0" width="1681" height="1600"/>
  </clipPath>
</defs>
<path clip-path="url(#clip170)" d="M141.853 1486.45 L2352.76 1486.45 L2352.76 47.2441 L141.853 47.2441  Z" fill="#ffffff" fill-rule="evenodd" fill-opacity="1"/>
<defs>
  <clipPath id="clip172">
    <rect x="141" y="47" width="2212" height="1440"/>
  </clipPath>
</defs>
<polyline clip-path="url(#clip172)" style="stroke:#000000; stroke-linecap:round; stroke-linejoin:round; stroke-width:2; stroke-opacity:0.1; fill:none" points="460.226,1486.45 460.226,47.2441 "/>
<polyline clip-path="url(#clip172)" style="stroke:#000000; stroke-linecap:round; stroke-linejoin:round; stroke-width:2; stroke-opacity:0.1; fill:none" points="853.765,1486.45 853.765,47.2441 "/>
<polyline clip-path="url(#clip172)" style="stroke:#000000; stroke-linecap:round; stroke-linejoin:round; stroke-width:2; stroke-opacity:0.1; fill:none" points="1247.3,1486.45 1247.3,47.2441 "/>
<polyline clip-path="url(#clip172)" style="stroke:#000000; stroke-linecap:round; stroke-linejoin:round; stroke-width:2; stroke-opacity:0.1; fill:none" points="1640.84,1486.45 1640.84,47.2441 "/>
<polyline clip-path="url(#clip172)" style="stroke:#000000; stroke-linecap:round; stroke-linejoin:round; stroke-width:2; stroke-opacity:0.1; fill:none" points="2034.38,1486.45 2034.38,47.2441 "/>
<polyline clip-path="url(#clip170)" style="stroke:#000000; stroke-linecap:round; stroke-linejoin:round; stroke-width:4; stroke-opacity:1; fill:none" points="141.853,1486.45 2352.76,1486.45 "/>
<polyline clip-path="url(#clip170)" style="stroke:#000000; stroke-linecap:round; stroke-linejoin:round; stroke-width:4; stroke-opacity:1; fill:none" points="460.226,1486.45 460.226,1467.55 "/>
<polyline clip-path="url(#clip170)" style="stroke:#000000; stroke-linecap:round; stroke-linejoin:round; stroke-width:4; stroke-opacity:1; fill:none" points="853.765,1486.45 853.765,1467.55 "/>
<polyline clip-path="url(#clip170)" style="stroke:#000000; stroke-linecap:round; stroke-linejoin:round; stroke-width:4; stroke-opacity:1; fill:none" points="1247.3,1486.45 1247.3,1467.55 "/>
<polyline clip-path="url(#clip170)" style="stroke:#000000; stroke-linecap:round; stroke-linejoin:round; stroke-width:4; stroke-opacity:1; fill:none" points="1640.84,1486.45 1640.84,1467.55 "/>
<polyline clip-path="url(#clip170)" style="stroke:#000000; stroke-linecap:round; stroke-linejoin:round; stroke-width:4; stroke-opacity:1; fill:none" points="2034.38,1486.45 2034.38,1467.55 "/>
<path clip-path="url(#clip170)" d="M433.317 1518.36 L421.511 1536.81 L433.317 1536.81 L433.317 1518.36 M432.09 1514.29 L437.969 1514.29 L437.969 1536.81 L442.9 1536.81 L442.9 1540.7 L437.969 1540.7 L437.969 1548.85 L433.317 1548.85 L433.317 1540.7 L417.715 1540.7 L417.715 1536.19 L432.09 1514.29 Z" fill="#000000" fill-rule="nonzero" fill-opacity="1" /><path clip-path="url(#clip170)" d="M460.631 1517.37 Q457.02 1517.37 455.191 1520.93 Q453.386 1524.47 453.386 1531.6 Q453.386 1538.71 455.191 1542.27 Q457.02 1545.82 460.631 1545.82 Q464.265 1545.82 466.071 1542.27 Q467.9 1538.71 467.9 1531.6 Q467.9 1524.47 466.071 1520.93 Q464.265 1517.37 460.631 1517.37 M460.631 1513.66 Q466.441 1513.66 469.497 1518.27 Q472.576 1522.85 472.576 1531.6 Q472.576 1540.33 469.497 1544.94 Q466.441 1549.52 460.631 1549.52 Q454.821 1549.52 451.742 1544.94 Q448.687 1540.33 448.687 1531.6 Q448.687 1522.85 451.742 1518.27 Q454.821 1513.66 460.631 1513.66 Z" fill="#000000" fill-rule="nonzero" fill-opacity="1" /><path clip-path="url(#clip170)" d="M490.793 1517.37 Q487.182 1517.37 485.353 1520.93 Q483.548 1524.47 483.548 1531.6 Q483.548 1538.71 485.353 1542.27 Q487.182 1545.82 490.793 1545.82 Q494.427 1545.82 496.233 1542.27 Q498.062 1538.71 498.062 1531.6 Q498.062 1524.47 496.233 1520.93 Q494.427 1517.37 490.793 1517.37 M490.793 1513.66 Q496.603 1513.66 499.659 1518.27 Q502.737 1522.85 502.737 1531.6 Q502.737 1540.33 499.659 1544.94 Q496.603 1549.52 490.793 1549.52 Q484.983 1549.52 481.904 1544.94 Q478.849 1540.33 478.849 1531.6 Q478.849 1522.85 481.904 1518.27 Q484.983 1513.66 490.793 1513.66 Z" fill="#000000" fill-rule="nonzero" fill-opacity="1" /><path clip-path="url(#clip170)" d="M826.856 1518.36 L815.05 1536.81 L826.856 1536.81 L826.856 1518.36 M825.629 1514.29 L831.508 1514.29 L831.508 1536.81 L836.439 1536.81 L836.439 1540.7 L831.508 1540.7 L831.508 1548.85 L826.856 1548.85 L826.856 1540.7 L811.254 1540.7 L811.254 1536.19 L825.629 1514.29 Z" fill="#000000" fill-rule="nonzero" fill-opacity="1" /><path clip-path="url(#clip170)" d="M844.217 1514.29 L862.573 1514.29 L862.573 1518.22 L848.499 1518.22 L848.499 1526.7 Q849.518 1526.35 850.536 1526.19 Q851.555 1526 852.573 1526 Q858.36 1526 861.74 1529.17 Q865.119 1532.34 865.119 1537.76 Q865.119 1543.34 861.647 1546.44 Q858.175 1549.52 851.856 1549.52 Q849.68 1549.52 847.411 1549.15 Q845.166 1548.78 842.758 1548.04 L842.758 1543.34 Q844.842 1544.47 847.064 1545.03 Q849.286 1545.58 851.763 1545.58 Q855.768 1545.58 858.106 1543.48 Q860.443 1541.37 860.443 1537.76 Q860.443 1534.15 858.106 1532.04 Q855.768 1529.94 851.763 1529.94 Q849.888 1529.94 848.013 1530.35 Q846.161 1530.77 844.217 1531.65 L844.217 1514.29 Z" fill="#000000" fill-rule="nonzero" fill-opacity="1" /><path clip-path="url(#clip170)" d="M884.332 1517.37 Q880.721 1517.37 878.892 1520.93 Q877.087 1524.47 877.087 1531.6 Q877.087 1538.71 878.892 1542.27 Q880.721 1545.82 884.332 1545.82 Q887.966 1545.82 889.772 1542.27 Q891.601 1538.71 891.601 1531.6 Q891.601 1524.47 889.772 1520.93 Q887.966 1517.37 884.332 1517.37 M884.332 1513.66 Q890.142 1513.66 893.198 1518.27 Q896.277 1522.85 896.277 1531.6 Q896.277 1540.33 893.198 1544.94 Q890.142 1549.52 884.332 1549.52 Q878.522 1549.52 875.443 1544.94 Q872.388 1540.33 872.388 1531.6 Q872.388 1522.85 875.443 1518.27 Q878.522 1513.66 884.332 1513.66 Z" fill="#000000" fill-rule="nonzero" fill-opacity="1" /><path clip-path="url(#clip170)" d="M1206.92 1514.29 L1225.28 1514.29 L1225.28 1518.22 L1211.21 1518.22 L1211.21 1526.7 Q1212.22 1526.35 1213.24 1526.19 Q1214.26 1526 1215.28 1526 Q1221.07 1526 1224.45 1529.17 Q1227.83 1532.34 1227.83 1537.76 Q1227.83 1543.34 1224.35 1546.44 Q1220.88 1549.52 1214.56 1549.52 Q1212.39 1549.52 1210.12 1549.15 Q1207.87 1548.78 1205.46 1548.04 L1205.46 1543.34 Q1207.55 1544.47 1209.77 1545.03 Q1211.99 1545.58 1214.47 1545.58 Q1218.47 1545.58 1220.81 1543.48 Q1223.15 1541.37 1223.15 1537.76 Q1223.15 1534.15 1220.81 1532.04 Q1218.47 1529.94 1214.47 1529.94 Q1212.59 1529.94 1210.72 1530.35 Q1208.87 1530.77 1206.92 1531.65 L1206.92 1514.29 Z" fill="#000000" fill-rule="nonzero" fill-opacity="1" /><path clip-path="url(#clip170)" d="M1247.04 1517.37 Q1243.43 1517.37 1241.6 1520.93 Q1239.79 1524.47 1239.79 1531.6 Q1239.79 1538.71 1241.6 1542.27 Q1243.43 1545.82 1247.04 1545.82 Q1250.67 1545.82 1252.48 1542.27 Q1254.31 1538.71 1254.31 1531.6 Q1254.31 1524.47 1252.48 1520.93 Q1250.67 1517.37 1247.04 1517.37 M1247.04 1513.66 Q1252.85 1513.66 1255.9 1518.27 Q1258.98 1522.85 1258.98 1531.6 Q1258.98 1540.33 1255.9 1544.94 Q1252.85 1549.52 1247.04 1549.52 Q1241.23 1549.52 1238.15 1544.94 Q1235.09 1540.33 1235.09 1531.6 Q1235.09 1522.85 1238.15 1518.27 Q1241.23 1513.66 1247.04 1513.66 Z" fill="#000000" fill-rule="nonzero" fill-opacity="1" /><path clip-path="url(#clip170)" d="M1277.2 1517.37 Q1273.59 1517.37 1271.76 1520.93 Q1269.95 1524.47 1269.95 1531.6 Q1269.95 1538.71 1271.76 1542.27 Q1273.59 1545.82 1277.2 1545.82 Q1280.83 1545.82 1282.64 1542.27 Q1284.47 1538.71 1284.47 1531.6 Q1284.47 1524.47 1282.64 1520.93 Q1280.83 1517.37 1277.2 1517.37 M1277.2 1513.66 Q1283.01 1513.66 1286.07 1518.27 Q1289.14 1522.85 1289.14 1531.6 Q1289.14 1540.33 1286.07 1544.94 Q1283.01 1549.52 1277.2 1549.52 Q1271.39 1549.52 1268.31 1544.94 Q1265.26 1540.33 1265.26 1531.6 Q1265.26 1522.85 1268.31 1518.27 Q1271.39 1513.66 1277.2 1513.66 Z" fill="#000000" fill-rule="nonzero" fill-opacity="1" /><path clip-path="url(#clip170)" d="M1600.46 1514.29 L1618.82 1514.29 L1618.82 1518.22 L1604.74 1518.22 L1604.74 1526.7 Q1605.76 1526.35 1606.78 1526.19 Q1607.8 1526 1608.82 1526 Q1614.61 1526 1617.98 1529.17 Q1621.36 1532.34 1621.36 1537.76 Q1621.36 1543.34 1617.89 1546.44 Q1614.42 1549.52 1608.1 1549.52 Q1605.92 1549.52 1603.66 1549.15 Q1601.41 1548.78 1599 1548.04 L1599 1543.34 Q1601.09 1544.47 1603.31 1545.03 Q1605.53 1545.58 1608.01 1545.58 Q1612.01 1545.58 1614.35 1543.48 Q1616.69 1541.37 1616.69 1537.76 Q1616.69 1534.15 1614.35 1532.04 Q1612.01 1529.94 1608.01 1529.94 Q1606.13 1529.94 1604.26 1530.35 Q1602.41 1530.77 1600.46 1531.65 L1600.46 1514.29 Z" fill="#000000" fill-rule="nonzero" fill-opacity="1" /><path clip-path="url(#clip170)" d="M1630.62 1514.29 L1648.98 1514.29 L1648.98 1518.22 L1634.91 1518.22 L1634.91 1526.7 Q1635.92 1526.35 1636.94 1526.19 Q1637.96 1526 1638.98 1526 Q1644.77 1526 1648.15 1529.17 Q1651.53 1532.34 1651.53 1537.76 Q1651.53 1543.34 1648.05 1546.44 Q1644.58 1549.52 1638.26 1549.52 Q1636.09 1549.52 1633.82 1549.15 Q1631.57 1548.78 1629.17 1548.04 L1629.17 1543.34 Q1631.25 1544.47 1633.47 1545.03 Q1635.69 1545.58 1638.17 1545.58 Q1642.17 1545.58 1644.51 1543.48 Q1646.85 1541.37 1646.85 1537.76 Q1646.85 1534.15 1644.51 1532.04 Q1642.17 1529.94 1638.17 1529.94 Q1636.29 1529.94 1634.42 1530.35 Q1632.57 1530.77 1630.62 1531.65 L1630.62 1514.29 Z" fill="#000000" fill-rule="nonzero" fill-opacity="1" /><path clip-path="url(#clip170)" d="M1670.74 1517.37 Q1667.13 1517.37 1665.3 1520.93 Q1663.49 1524.47 1663.49 1531.6 Q1663.49 1538.71 1665.3 1542.27 Q1667.13 1545.82 1670.74 1545.82 Q1674.37 1545.82 1676.18 1542.27 Q1678.01 1538.71 1678.01 1531.6 Q1678.01 1524.47 1676.18 1520.93 Q1674.37 1517.37 1670.74 1517.37 M1670.74 1513.66 Q1676.55 1513.66 1679.6 1518.27 Q1682.68 1522.85 1682.68 1531.6 Q1682.68 1540.33 1679.6 1544.94 Q1676.55 1549.52 1670.74 1549.52 Q1664.93 1549.52 1661.85 1544.94 Q1658.79 1540.33 1658.79 1531.6 Q1658.79 1522.85 1661.85 1518.27 Q1664.93 1513.66 1670.74 1513.66 Z" fill="#000000" fill-rule="nonzero" fill-opacity="1" /><path clip-path="url(#clip170)" d="M2004.71 1529.7 Q2001.56 1529.7 1999.71 1531.86 Q1997.88 1534.01 1997.88 1537.76 Q1997.88 1541.49 1999.71 1543.66 Q2001.56 1545.82 2004.71 1545.82 Q2007.86 1545.82 2009.68 1543.66 Q2011.54 1541.49 2011.54 1537.76 Q2011.54 1534.01 2009.68 1531.86 Q2007.86 1529.7 2004.71 1529.7 M2013.99 1515.05 L2013.99 1519.31 Q2012.23 1518.48 2010.42 1518.04 Q2008.64 1517.6 2006.88 1517.6 Q2002.25 1517.6 1999.8 1520.72 Q1997.37 1523.85 1997.02 1530.17 Q1998.39 1528.15 2000.45 1527.09 Q2002.51 1526 2004.98 1526 Q2010.19 1526 2013.2 1529.17 Q2016.23 1532.32 2016.23 1537.76 Q2016.23 1543.08 2013.09 1546.3 Q2009.94 1549.52 2004.71 1549.52 Q1998.71 1549.52 1995.54 1544.94 Q1992.37 1540.33 1992.37 1531.6 Q1992.37 1523.41 1996.26 1518.55 Q2000.15 1513.66 2006.7 1513.66 Q2008.46 1513.66 2010.24 1514.01 Q2012.04 1514.36 2013.99 1515.05 Z" fill="#000000" fill-rule="nonzero" fill-opacity="1" /><path clip-path="url(#clip170)" d="M2034.29 1517.37 Q2030.68 1517.37 2028.85 1520.93 Q2027.04 1524.47 2027.04 1531.6 Q2027.04 1538.71 2028.85 1542.27 Q2030.68 1545.82 2034.29 1545.82 Q2037.92 1545.82 2039.73 1542.27 Q2041.56 1538.71 2041.56 1531.6 Q2041.56 1524.47 2039.73 1520.93 Q2037.92 1517.37 2034.29 1517.37 M2034.29 1513.66 Q2040.1 1513.66 2043.16 1518.27 Q2046.23 1522.85 2046.23 1531.6 Q2046.23 1540.33 2043.16 1544.94 Q2040.1 1549.52 2034.29 1549.52 Q2028.48 1549.52 2025.4 1544.94 Q2022.35 1540.33 2022.35 1531.6 Q2022.35 1522.85 2025.4 1518.27 Q2028.48 1513.66 2034.29 1513.66 Z" fill="#000000" fill-rule="nonzero" fill-opacity="1" /><path clip-path="url(#clip170)" d="M2064.45 1517.37 Q2060.84 1517.37 2059.01 1520.93 Q2057.21 1524.47 2057.21 1531.6 Q2057.21 1538.71 2059.01 1542.27 Q2060.84 1545.82 2064.45 1545.82 Q2068.09 1545.82 2069.89 1542.27 Q2071.72 1538.71 2071.72 1531.6 Q2071.72 1524.47 2069.89 1520.93 Q2068.09 1517.37 2064.45 1517.37 M2064.45 1513.66 Q2070.26 1513.66 2073.32 1518.27 Q2076.4 1522.85 2076.4 1531.6 Q2076.4 1540.33 2073.32 1544.94 Q2070.26 1549.52 2064.45 1549.52 Q2058.64 1549.52 2055.56 1544.94 Q2052.51 1540.33 2052.51 1531.6 Q2052.51 1522.85 2055.56 1518.27 Q2058.64 1513.66 2064.45 1513.66 Z" fill="#000000" fill-rule="nonzero" fill-opacity="1" /><polyline clip-path="url(#clip172)" style="stroke:#000000; stroke-linecap:round; stroke-linejoin:round; stroke-width:2; stroke-opacity:0.1; fill:none" points="141.853,1486.45 2352.76,1486.45 "/>
<polyline clip-path="url(#clip172)" style="stroke:#000000; stroke-linecap:round; stroke-linejoin:round; stroke-width:2; stroke-opacity:0.1; fill:none" points="141.853,1143.78 2352.76,1143.78 "/>
<polyline clip-path="url(#clip172)" style="stroke:#000000; stroke-linecap:round; stroke-linejoin:round; stroke-width:2; stroke-opacity:0.1; fill:none" points="141.853,801.113 2352.76,801.113 "/>
<polyline clip-path="url(#clip172)" style="stroke:#000000; stroke-linecap:round; stroke-linejoin:round; stroke-width:2; stroke-opacity:0.1; fill:none" points="141.853,458.445 2352.76,458.445 "/>
<polyline clip-path="url(#clip172)" style="stroke:#000000; stroke-linecap:round; stroke-linejoin:round; stroke-width:2; stroke-opacity:0.1; fill:none" points="141.853,115.778 2352.76,115.778 "/>
<polyline clip-path="url(#clip170)" style="stroke:#000000; stroke-linecap:round; stroke-linejoin:round; stroke-width:4; stroke-opacity:1; fill:none" points="141.853,1486.45 141.853,47.2441 "/>
<polyline clip-path="url(#clip170)" style="stroke:#000000; stroke-linecap:round; stroke-linejoin:round; stroke-width:4; stroke-opacity:1; fill:none" points="141.853,1486.45 160.751,1486.45 "/>
<polyline clip-path="url(#clip170)" style="stroke:#000000; stroke-linecap:round; stroke-linejoin:round; stroke-width:4; stroke-opacity:1; fill:none" points="141.853,1143.78 160.751,1143.78 "/>
<polyline clip-path="url(#clip170)" style="stroke:#000000; stroke-linecap:round; stroke-linejoin:round; stroke-width:4; stroke-opacity:1; fill:none" points="141.853,801.113 160.751,801.113 "/>
<polyline clip-path="url(#clip170)" style="stroke:#000000; stroke-linecap:round; stroke-linejoin:round; stroke-width:4; stroke-opacity:1; fill:none" points="141.853,458.445 160.751,458.445 "/>
<polyline clip-path="url(#clip170)" style="stroke:#000000; stroke-linecap:round; stroke-linejoin:round; stroke-width:4; stroke-opacity:1; fill:none" points="141.853,115.778 160.751,115.778 "/>
<path clip-path="url(#clip170)" d="M93.9086 1472.25 Q90.2975 1472.25 88.4688 1475.81 Q86.6632 1479.35 86.6632 1486.48 Q86.6632 1493.59 88.4688 1497.15 Q90.2975 1500.7 93.9086 1500.7 Q97.5428 1500.7 99.3483 1497.15 Q101.177 1493.59 101.177 1486.48 Q101.177 1479.35 99.3483 1475.81 Q97.5428 1472.25 93.9086 1472.25 M93.9086 1468.54 Q99.7187 1468.54 102.774 1473.15 Q105.853 1477.73 105.853 1486.48 Q105.853 1495.21 102.774 1499.82 Q99.7187 1504.4 93.9086 1504.4 Q88.0984 1504.4 85.0197 1499.82 Q81.9642 1495.21 81.9642 1486.48 Q81.9642 1477.73 85.0197 1473.15 Q88.0984 1468.54 93.9086 1468.54 Z" fill="#000000" fill-rule="nonzero" fill-opacity="1" /><path clip-path="url(#clip170)" d="M57.7745 1157.13 L74.0939 1157.13 L74.0939 1161.06 L52.1495 1161.06 L52.1495 1157.13 Q54.8115 1154.37 59.3949 1149.74 Q64.0013 1145.09 65.1819 1143.75 Q67.4272 1141.22 68.3068 1139.49 Q69.2096 1137.73 69.2096 1136.04 Q69.2096 1133.28 67.2652 1131.55 Q65.3439 1129.81 62.2421 1129.81 Q60.043 1129.81 57.5893 1130.57 Q55.1588 1131.34 52.381 1132.89 L52.381 1128.17 Q55.2051 1127.03 57.6588 1126.45 Q60.1124 1125.88 62.1495 1125.88 Q67.5198 1125.88 70.7142 1128.56 Q73.9087 1131.25 73.9087 1135.74 Q73.9087 1137.87 73.0985 1139.79 Q72.3115 1141.69 70.205 1144.28 Q69.6263 1144.95 66.5245 1148.17 Q63.4226 1151.36 57.7745 1157.13 Z" fill="#000000" fill-rule="nonzero" fill-opacity="1" /><path clip-path="url(#clip170)" d="M93.9086 1129.58 Q90.2975 1129.58 88.4688 1133.14 Q86.6632 1136.69 86.6632 1143.82 Q86.6632 1150.92 88.4688 1154.49 Q90.2975 1158.03 93.9086 1158.03 Q97.5428 1158.03 99.3483 1154.49 Q101.177 1150.92 101.177 1143.82 Q101.177 1136.69 99.3483 1133.14 Q97.5428 1129.58 93.9086 1129.58 M93.9086 1125.88 Q99.7187 1125.88 102.774 1130.48 Q105.853 1135.07 105.853 1143.82 Q105.853 1152.54 102.774 1157.15 Q99.7187 1161.73 93.9086 1161.73 Q88.0984 1161.73 85.0197 1157.15 Q81.9642 1152.54 81.9642 1143.82 Q81.9642 1135.07 85.0197 1130.48 Q88.0984 1125.88 93.9086 1125.88 Z" fill="#000000" fill-rule="nonzero" fill-opacity="1" /><path clip-path="url(#clip170)" d="M66.5939 787.907 L54.7884 806.356 L66.5939 806.356 L66.5939 787.907 M65.367 783.833 L71.2466 783.833 L71.2466 806.356 L76.1772 806.356 L76.1772 810.245 L71.2466 810.245 L71.2466 818.393 L66.5939 818.393 L66.5939 810.245 L50.9921 810.245 L50.9921 805.731 L65.367 783.833 Z" fill="#000000" fill-rule="nonzero" fill-opacity="1" /><path clip-path="url(#clip170)" d="M93.9086 786.911 Q90.2975 786.911 88.4688 790.476 Q86.6632 794.018 86.6632 801.147 Q86.6632 808.254 88.4688 811.819 Q90.2975 815.36 93.9086 815.36 Q97.5428 815.36 99.3483 811.819 Q101.177 808.254 101.177 801.147 Q101.177 794.018 99.3483 790.476 Q97.5428 786.911 93.9086 786.911 M93.9086 783.208 Q99.7187 783.208 102.774 787.814 Q105.853 792.398 105.853 801.147 Q105.853 809.874 102.774 814.481 Q99.7187 819.064 93.9086 819.064 Q88.0984 819.064 85.0197 814.481 Q81.9642 809.874 81.9642 801.147 Q81.9642 792.398 85.0197 787.814 Q88.0984 783.208 93.9086 783.208 Z" fill="#000000" fill-rule="nonzero" fill-opacity="1" /><path clip-path="url(#clip170)" d="M64.3254 456.582 Q61.1773 456.582 59.3254 458.735 Q57.4967 460.887 57.4967 464.637 Q57.4967 468.364 59.3254 470.54 Q61.1773 472.693 64.3254 472.693 Q67.4735 472.693 69.3022 470.54 Q71.1541 468.364 71.1541 464.637 Q71.1541 460.887 69.3022 458.735 Q67.4735 456.582 64.3254 456.582 M73.6077 441.929 L73.6077 446.188 Q71.8485 445.355 70.0429 444.915 Q68.2606 444.475 66.5013 444.475 Q61.8717 444.475 59.418 447.6 Q56.9875 450.725 56.6402 457.045 Q58.006 455.031 60.0662 453.966 Q62.1263 452.878 64.6032 452.878 Q69.8115 452.878 72.8207 456.049 Q75.8531 459.197 75.8531 464.637 Q75.8531 469.961 72.705 473.179 Q69.5568 476.396 64.3254 476.396 Q58.33 476.396 55.1588 471.813 Q51.9875 467.207 51.9875 458.48 Q51.9875 450.285 55.8764 445.424 Q59.7652 440.54 66.3161 440.54 Q68.0754 440.54 69.8578 440.887 Q71.6633 441.235 73.6077 441.929 Z" fill="#000000" fill-rule="nonzero" fill-opacity="1" /><path clip-path="url(#clip170)" d="M93.9086 444.244 Q90.2975 444.244 88.4688 447.809 Q86.6632 451.35 86.6632 458.48 Q86.6632 465.586 88.4688 469.151 Q90.2975 472.693 93.9086 472.693 Q97.5428 472.693 99.3483 469.151 Q101.177 465.586 101.177 458.48 Q101.177 451.35 99.3483 447.809 Q97.5428 444.244 93.9086 444.244 M93.9086 440.54 Q99.7187 440.54 102.774 445.147 Q105.853 449.73 105.853 458.48 Q105.853 467.207 102.774 471.813 Q99.7187 476.396 93.9086 476.396 Q88.0984 476.396 85.0197 471.813 Q81.9642 467.207 81.9642 458.48 Q81.9642 449.73 85.0197 445.147 Q88.0984 440.54 93.9086 440.54 Z" fill="#000000" fill-rule="nonzero" fill-opacity="1" /><path clip-path="url(#clip170)" d="M63.7467 116.646 Q60.4134 116.646 58.4921 118.428 Q56.5939 120.21 56.5939 123.335 Q56.5939 126.46 58.4921 128.243 Q60.4134 130.025 63.7467 130.025 Q67.08 130.025 69.0013 128.243 Q70.9226 126.437 70.9226 123.335 Q70.9226 120.21 69.0013 118.428 Q67.1032 116.646 63.7467 116.646 M59.0708 114.655 Q56.0615 113.914 54.3717 111.854 Q52.7051 109.794 52.7051 106.831 Q52.7051 102.687 55.6449 100.28 Q58.6078 97.8726 63.7467 97.8726 Q68.9087 97.8726 71.8485 100.28 Q74.7883 102.687 74.7883 106.831 Q74.7883 109.794 73.0985 111.854 Q71.4318 113.914 68.4457 114.655 Q71.8253 115.442 73.7003 117.734 Q75.5985 120.025 75.5985 123.335 Q75.5985 128.359 72.5198 131.044 Q69.4642 133.729 63.7467 133.729 Q58.0291 133.729 54.9504 131.044 Q51.8949 128.359 51.8949 123.335 Q51.8949 120.025 53.793 117.734 Q55.6912 115.442 59.0708 114.655 M57.3578 107.271 Q57.3578 109.956 59.0245 111.461 Q60.7143 112.965 63.7467 112.965 Q66.7559 112.965 68.4457 111.461 Q70.1587 109.956 70.1587 107.271 Q70.1587 104.586 68.4457 103.081 Q66.7559 101.576 63.7467 101.576 Q60.7143 101.576 59.0245 103.081 Q57.3578 104.586 57.3578 107.271 Z" fill="#000000" fill-rule="nonzero" fill-opacity="1" /><path clip-path="url(#clip170)" d="M93.9086 101.576 Q90.2975 101.576 88.4688 105.141 Q86.6632 108.683 86.6632 115.812 Q86.6632 122.919 88.4688 126.484 Q90.2975 130.025 93.9086 130.025 Q97.5428 130.025 99.3483 126.484 Q101.177 122.919 101.177 115.812 Q101.177 108.683 99.3483 105.141 Q97.5428 101.576 93.9086 101.576 M93.9086 97.8726 Q99.7187 97.8726 102.774 102.479 Q105.853 107.062 105.853 115.812 Q105.853 124.539 102.774 129.146 Q99.7187 133.729 93.9086 133.729 Q88.0984 133.729 85.0197 129.146 Q81.9642 124.539 81.9642 115.812 Q81.9642 107.062 85.0197 102.479 Q88.0984 97.8726 93.9086 97.8726 Z" fill="#000000" fill-rule="nonzero" fill-opacity="1" /><path clip-path="url(#clip172)" d="M263.457 1469.31 L263.457 1486.45 L460.226 1486.45 L460.226 1469.31 L263.457 1469.31 L263.457 1469.31  Z" fill="#009af9" fill-rule="evenodd" fill-opacity="1"/>
<polyline clip-path="url(#clip172)" style="stroke:#000000; stroke-linecap:round; stroke-linejoin:round; stroke-width:4; stroke-opacity:1; fill:none" points="263.457,1469.31 263.457,1486.45 460.226,1486.45 460.226,1469.31 263.457,1469.31 "/>
<path clip-path="url(#clip172)" d="M460.226 1400.78 L460.226 1486.45 L656.996 1486.45 L656.996 1400.78 L460.226 1400.78 L460.226 1400.78  Z" fill="#009af9" fill-rule="evenodd" fill-opacity="1"/>
<polyline clip-path="url(#clip172)" style="stroke:#000000; stroke-linecap:round; stroke-linejoin:round; stroke-width:4; stroke-opacity:1; fill:none" points="460.226,1400.78 460.226,1486.45 656.996,1486.45 656.996,1400.78 460.226,1400.78 "/>
<path clip-path="url(#clip172)" d="M656.996 1452.18 L656.996 1486.45 L853.765 1486.45 L853.765 1452.18 L656.996 1452.18 L656.996 1452.18  Z" fill="#009af9" fill-rule="evenodd" fill-opacity="1"/>
<polyline clip-path="url(#clip172)" style="stroke:#000000; stroke-linecap:round; stroke-linejoin:round; stroke-width:4; stroke-opacity:1; fill:none" points="656.996,1452.18 656.996,1486.45 853.765,1486.45 853.765,1452.18 656.996,1452.18 "/>
<path clip-path="url(#clip172)" d="M853.765 1349.38 L853.765 1486.45 L1050.53 1486.45 L1050.53 1349.38 L853.765 1349.38 L853.765 1349.38  Z" fill="#009af9" fill-rule="evenodd" fill-opacity="1"/>
<polyline clip-path="url(#clip172)" style="stroke:#000000; stroke-linecap:round; stroke-linejoin:round; stroke-width:4; stroke-opacity:1; fill:none" points="853.765,1349.38 853.765,1486.45 1050.53,1486.45 1050.53,1349.38 853.765,1349.38 "/>
<path clip-path="url(#clip172)" d="M1050.53 1383.65 L1050.53 1486.45 L1247.3 1486.45 L1247.3 1383.65 L1050.53 1383.65 L1050.53 1383.65  Z" fill="#009af9" fill-rule="evenodd" fill-opacity="1"/>
<polyline clip-path="url(#clip172)" style="stroke:#000000; stroke-linecap:round; stroke-linejoin:round; stroke-width:4; stroke-opacity:1; fill:none" points="1050.53,1383.65 1050.53,1486.45 1247.3,1486.45 1247.3,1383.65 1050.53,1383.65 "/>
<path clip-path="url(#clip172)" d="M1247.3 1366.51 L1247.3 1486.45 L1444.07 1486.45 L1444.07 1366.51 L1247.3 1366.51 L1247.3 1366.51  Z" fill="#009af9" fill-rule="evenodd" fill-opacity="1"/>
<polyline clip-path="url(#clip172)" style="stroke:#000000; stroke-linecap:round; stroke-linejoin:round; stroke-width:4; stroke-opacity:1; fill:none" points="1247.3,1366.51 1247.3,1486.45 1444.07,1486.45 1444.07,1366.51 1247.3,1366.51 "/>
<path clip-path="url(#clip172)" d="M1444.07 1315.11 L1444.07 1486.45 L1640.84 1486.45 L1640.84 1315.11 L1444.07 1315.11 L1444.07 1315.11  Z" fill="#009af9" fill-rule="evenodd" fill-opacity="1"/>
<polyline clip-path="url(#clip172)" style="stroke:#000000; stroke-linecap:round; stroke-linejoin:round; stroke-width:4; stroke-opacity:1; fill:none" points="1444.07,1315.11 1444.07,1486.45 1640.84,1486.45 1640.84,1315.11 1444.07,1315.11 "/>
<path clip-path="url(#clip172)" d="M1640.84 1383.65 L1640.84 1486.45 L1837.61 1486.45 L1837.61 1383.65 L1640.84 1383.65 L1640.84 1383.65  Z" fill="#009af9" fill-rule="evenodd" fill-opacity="1"/>
<polyline clip-path="url(#clip172)" style="stroke:#000000; stroke-linecap:round; stroke-linejoin:round; stroke-width:4; stroke-opacity:1; fill:none" points="1640.84,1383.65 1640.84,1486.45 1837.61,1486.45 1837.61,1383.65 1640.84,1383.65 "/>
<path clip-path="url(#clip172)" d="M1837.61 1332.25 L1837.61 1486.45 L2034.38 1486.45 L2034.38 1332.25 L1837.61 1332.25 L1837.61 1332.25  Z" fill="#009af9" fill-rule="evenodd" fill-opacity="1"/>
<polyline clip-path="url(#clip172)" style="stroke:#000000; stroke-linecap:round; stroke-linejoin:round; stroke-width:4; stroke-opacity:1; fill:none" points="1837.61,1332.25 1837.61,1486.45 2034.38,1486.45 2034.38,1332.25 1837.61,1332.25 "/>
<path clip-path="url(#clip172)" d="M2034.38 698.312 L2034.38 1486.45 L2231.15 1486.45 L2231.15 698.312 L2034.38 698.312 L2034.38 698.312  Z" fill="#009af9" fill-rule="evenodd" fill-opacity="1"/>
<polyline clip-path="url(#clip172)" style="stroke:#000000; stroke-linecap:round; stroke-linejoin:round; stroke-width:4; stroke-opacity:1; fill:none" points="2034.38,698.312 2034.38,1486.45 2231.15,1486.45 2231.15,698.312 2034.38,698.312 "/>
<circle clip-path="url(#clip172)" style="fill:#009af9; stroke:none; fill-opacity:0" cx="361.841" cy="1469.31" r="2"/>
<circle clip-path="url(#clip172)" style="fill:#009af9; stroke:none; fill-opacity:0" cx="558.611" cy="1400.78" r="2"/>
<circle clip-path="url(#clip172)" style="fill:#009af9; stroke:none; fill-opacity:0" cx="755.38" cy="1452.18" r="2"/>
<circle clip-path="url(#clip172)" style="fill:#009af9; stroke:none; fill-opacity:0" cx="952.15" cy="1349.38" r="2"/>
<circle clip-path="url(#clip172)" style="fill:#009af9; stroke:none; fill-opacity:0" cx="1148.92" cy="1383.65" r="2"/>
<circle clip-path="url(#clip172)" style="fill:#009af9; stroke:none; fill-opacity:0" cx="1345.69" cy="1366.51" r="2"/>
<circle clip-path="url(#clip172)" style="fill:#009af9; stroke:none; fill-opacity:0" cx="1542.46" cy="1315.11" r="2"/>
<circle clip-path="url(#clip172)" style="fill:#009af9; stroke:none; fill-opacity:0" cx="1739.23" cy="1383.65" r="2"/>
<circle clip-path="url(#clip172)" style="fill:#009af9; stroke:none; fill-opacity:0" cx="1936" cy="1332.25" r="2"/>
<circle clip-path="url(#clip172)" style="fill:#009af9; stroke:none; fill-opacity:0" cx="2132.77" cy="698.312" r="2"/>
<path clip-path="url(#clip172)" d="M263.457 1486.45 L263.457 1486.45 L460.226 1486.45 L460.226 1486.45 L263.457 1486.45 L263.457 1486.45  Z" fill="#e26f46" fill-rule="evenodd" fill-opacity="0.5"/>
<polyline clip-path="url(#clip172)" style="stroke:#000000; stroke-linecap:round; stroke-linejoin:round; stroke-width:4; stroke-opacity:0.5; fill:none" points="263.457,1486.45 263.457,1486.45 460.226,1486.45 263.457,1486.45 "/>
<path clip-path="url(#clip172)" d="M460.226 1486.45 L460.226 1486.45 L656.996 1486.45 L656.996 1486.45 L460.226 1486.45 L460.226 1486.45  Z" fill="#e26f46" fill-rule="evenodd" fill-opacity="0.5"/>
<polyline clip-path="url(#clip172)" style="stroke:#000000; stroke-linecap:round; stroke-linejoin:round; stroke-width:4; stroke-opacity:0.5; fill:none" points="460.226,1486.45 460.226,1486.45 656.996,1486.45 460.226,1486.45 "/>
<path clip-path="url(#clip172)" d="M656.996 1452.18 L656.996 1486.45 L853.765 1486.45 L853.765 1452.18 L656.996 1452.18 L656.996 1452.18  Z" fill="#e26f46" fill-rule="evenodd" fill-opacity="0.5"/>
<polyline clip-path="url(#clip172)" style="stroke:#000000; stroke-linecap:round; stroke-linejoin:round; stroke-width:4; stroke-opacity:0.5; fill:none" points="656.996,1452.18 656.996,1486.45 853.765,1486.45 853.765,1452.18 656.996,1452.18 "/>
<path clip-path="url(#clip172)" d="M853.765 1417.91 L853.765 1486.45 L1050.53 1486.45 L1050.53 1417.91 L853.765 1417.91 L853.765 1417.91  Z" fill="#e26f46" fill-rule="evenodd" fill-opacity="0.5"/>
<polyline clip-path="url(#clip172)" style="stroke:#000000; stroke-linecap:round; stroke-linejoin:round; stroke-width:4; stroke-opacity:0.5; fill:none" points="853.765,1417.91 853.765,1486.45 1050.53,1486.45 1050.53,1417.91 853.765,1417.91 "/>
<path clip-path="url(#clip172)" d="M1050.53 1417.91 L1050.53 1486.45 L1247.3 1486.45 L1247.3 1417.91 L1050.53 1417.91 L1050.53 1417.91  Z" fill="#e26f46" fill-rule="evenodd" fill-opacity="0.5"/>
<polyline clip-path="url(#clip172)" style="stroke:#000000; stroke-linecap:round; stroke-linejoin:round; stroke-width:4; stroke-opacity:0.5; fill:none" points="1050.53,1417.91 1050.53,1486.45 1247.3,1486.45 1247.3,1417.91 1050.53,1417.91 "/>
<path clip-path="url(#clip172)" d="M1247.3 1383.65 L1247.3 1486.45 L1444.07 1486.45 L1444.07 1383.65 L1247.3 1383.65 L1247.3 1383.65  Z" fill="#e26f46" fill-rule="evenodd" fill-opacity="0.5"/>
<polyline clip-path="url(#clip172)" style="stroke:#000000; stroke-linecap:round; stroke-linejoin:round; stroke-width:4; stroke-opacity:0.5; fill:none" points="1247.3,1383.65 1247.3,1486.45 1444.07,1486.45 1444.07,1383.65 1247.3,1383.65 "/>
<path clip-path="url(#clip172)" d="M1444.07 47.2441 L1444.07 1486.45 L1640.84 1486.45 L1640.84 47.2441 L1444.07 47.2441 L1444.07 47.2441  Z" fill="#e26f46" fill-rule="evenodd" fill-opacity="0.5"/>
<polyline clip-path="url(#clip172)" style="stroke:#000000; stroke-linecap:round; stroke-linejoin:round; stroke-width:4; stroke-opacity:0.5; fill:none" points="1444.07,47.2441 1444.07,1486.45 1640.84,1486.45 1640.84,47.2441 1444.07,47.2441 "/>
<path clip-path="url(#clip172)" d="M1640.84 1486.45 L1640.84 1486.45 L1837.61 1486.45 L1837.61 1486.45 L1640.84 1486.45 L1640.84 1486.45  Z" fill="#e26f46" fill-rule="evenodd" fill-opacity="0.5"/>
<polyline clip-path="url(#clip172)" style="stroke:#000000; stroke-linecap:round; stroke-linejoin:round; stroke-width:4; stroke-opacity:0.5; fill:none" points="1640.84,1486.45 1640.84,1486.45 1837.61,1486.45 1640.84,1486.45 "/>
<path clip-path="url(#clip172)" d="M1837.61 1486.45 L1837.61 1486.45 L2034.38 1486.45 L2034.38 1486.45 L1837.61 1486.45 L1837.61 1486.45  Z" fill="#e26f46" fill-rule="evenodd" fill-opacity="0.5"/>
<polyline clip-path="url(#clip172)" style="stroke:#000000; stroke-linecap:round; stroke-linejoin:round; stroke-width:4; stroke-opacity:0.5; fill:none" points="1837.61,1486.45 1837.61,1486.45 2034.38,1486.45 1837.61,1486.45 "/>
<path clip-path="url(#clip172)" d="M2034.38 1486.45 L2034.38 1486.45 L2231.15 1486.45 L2231.15 1486.45 L2034.38 1486.45 L2034.38 1486.45  Z" fill="#e26f46" fill-rule="evenodd" fill-opacity="0.5"/>
<polyline clip-path="url(#clip172)" style="stroke:#000000; stroke-linecap:round; stroke-linejoin:round; stroke-width:4; stroke-opacity:0.5; fill:none" points="2034.38,1486.45 2034.38,1486.45 2231.15,1486.45 2034.38,1486.45 "/>
<circle clip-path="url(#clip172)" style="fill:#e26f46; stroke:none; fill-opacity:0" cx="361.841" cy="1486.45" r="2"/>
<circle clip-path="url(#clip172)" style="fill:#e26f46; stroke:none; fill-opacity:0" cx="558.611" cy="1486.45" r="2"/>
<circle clip-path="url(#clip172)" style="fill:#e26f46; stroke:none; fill-opacity:0" cx="755.38" cy="1452.18" r="2"/>
<circle clip-path="url(#clip172)" style="fill:#e26f46; stroke:none; fill-opacity:0" cx="952.15" cy="1417.91" r="2"/>
<circle clip-path="url(#clip172)" style="fill:#e26f46; stroke:none; fill-opacity:0" cx="1148.92" cy="1417.91" r="2"/>
<circle clip-path="url(#clip172)" style="fill:#e26f46; stroke:none; fill-opacity:0" cx="1345.69" cy="1383.65" r="2"/>
<circle clip-path="url(#clip172)" style="fill:#e26f46; stroke:none; fill-opacity:0" cx="1542.46" cy="47.2441" r="2"/>
<circle clip-path="url(#clip172)" style="fill:#e26f46; stroke:none; fill-opacity:0" cx="1739.23" cy="1486.45" r="2"/>
<circle clip-path="url(#clip172)" style="fill:#e26f46; stroke:none; fill-opacity:0" cx="1936" cy="1486.45" r="2"/>
<circle clip-path="url(#clip172)" style="fill:#e26f46; stroke:none; fill-opacity:0" cx="2132.77" cy="1486.45" r="2"/>
<path clip-path="url(#clip170)" d="M1784.87 250.738 L2279.06 250.738 L2279.06 95.2176 L1784.87 95.2176  Z" fill="#ffffff" fill-rule="evenodd" fill-opacity="1"/>
<polyline clip-path="url(#clip170)" style="stroke:#000000; stroke-linecap:round; stroke-linejoin:round; stroke-width:4; stroke-opacity:1; fill:none" points="1784.87,250.738 2279.06,250.738 2279.06,95.2176 1784.87,95.2176 1784.87,250.738 "/>
<path clip-path="url(#clip170)" d="M1809.43 167.794 L1956.83 167.794 L1956.83 126.322 L1809.43 126.322 L1809.43 167.794  Z" fill="#009af9" fill-rule="evenodd" fill-opacity="1"/>
<polyline clip-path="url(#clip170)" style="stroke:#000000; stroke-linecap:round; stroke-linejoin:round; stroke-width:4; stroke-opacity:1; fill:none" points="1809.43,167.794 1956.83,167.794 1956.83,126.322 1809.43,126.322 1809.43,167.794 "/>
<path clip-path="url(#clip170)" d="M1981.39 129.778 L2003.24 129.778 L2003.24 133.713 L1986.07 133.713 L1986.07 143.944 L2002.53 143.944 L2002.53 147.879 L1986.07 147.879 L1986.07 160.402 L2003.66 160.402 L2003.66 164.338 L1981.39 164.338 L1981.39 129.778 Z" fill="#000000" fill-rule="nonzero" fill-opacity="1" /><path clip-path="url(#clip170)" d="M2032.71 138.412 L2023.34 151.027 L2033.2 164.338 L2028.18 164.338 L2020.63 154.152 L2013.08 164.338 L2008.06 164.338 L2018.13 150.773 L2008.92 138.412 L2013.94 138.412 L2020.81 147.648 L2027.69 138.412 L2032.71 138.412 Z" fill="#000000" fill-rule="nonzero" fill-opacity="1" /><path clip-path="url(#clip170)" d="M2043.34 160.449 L2043.34 174.199 L2039.05 174.199 L2039.05 138.412 L2043.34 138.412 L2043.34 142.347 Q2044.68 140.032 2046.72 138.921 Q2048.78 137.787 2051.62 137.787 Q2056.35 137.787 2059.29 141.537 Q2062.25 145.287 2062.25 151.398 Q2062.25 157.509 2059.29 161.259 Q2056.35 165.009 2051.62 165.009 Q2048.78 165.009 2046.72 163.898 Q2044.68 162.763 2043.34 160.449 M2057.83 151.398 Q2057.83 146.699 2055.88 144.037 Q2053.96 141.352 2050.58 141.352 Q2047.2 141.352 2045.26 144.037 Q2043.34 146.699 2043.34 151.398 Q2043.34 156.097 2045.26 158.782 Q2047.2 161.444 2050.58 161.444 Q2053.96 161.444 2055.88 158.782 Q2057.83 156.097 2057.83 151.398 Z" fill="#000000" fill-rule="nonzero" fill-opacity="1" /><path clip-path="url(#clip170)" d="M2091.49 150.31 L2091.49 152.393 L2071.9 152.393 Q2072.18 156.791 2074.54 159.106 Q2076.93 161.398 2081.16 161.398 Q2083.61 161.398 2085.91 160.796 Q2088.22 160.194 2090.49 158.99 L2090.49 163.018 Q2088.2 163.99 2085.79 164.5 Q2083.38 165.009 2080.91 165.009 Q2074.7 165.009 2071.07 161.398 Q2067.46 157.787 2067.46 151.629 Q2067.46 145.264 2070.88 141.537 Q2074.33 137.787 2080.17 137.787 Q2085.4 137.787 2088.43 141.166 Q2091.49 144.523 2091.49 150.31 M2087.23 149.06 Q2087.18 145.565 2085.26 143.481 Q2083.36 141.398 2080.21 141.398 Q2076.65 141.398 2074.49 143.412 Q2072.36 145.426 2072.04 149.083 L2087.23 149.06 Z" fill="#000000" fill-rule="nonzero" fill-opacity="1" /><path clip-path="url(#clip170)" d="M2117.13 139.407 L2117.13 143.389 Q2115.33 142.393 2113.5 141.907 Q2111.69 141.398 2109.84 141.398 Q2105.7 141.398 2103.41 144.037 Q2101.11 146.652 2101.11 151.398 Q2101.11 156.143 2103.41 158.782 Q2105.7 161.398 2109.84 161.398 Q2111.69 161.398 2113.5 160.912 Q2115.33 160.402 2117.13 159.407 L2117.13 163.342 Q2115.35 164.176 2113.43 164.592 Q2111.53 165.009 2109.38 165.009 Q2103.52 165.009 2100.07 161.328 Q2096.62 157.648 2096.62 151.398 Q2096.62 145.055 2100.1 141.421 Q2103.59 137.787 2109.66 137.787 Q2111.62 137.787 2113.5 138.203 Q2115.37 138.597 2117.13 139.407 Z" fill="#000000" fill-rule="nonzero" fill-opacity="1" /><path clip-path="url(#clip170)" d="M2128.75 131.051 L2128.75 138.412 L2137.53 138.412 L2137.53 141.722 L2128.75 141.722 L2128.75 155.796 Q2128.75 158.967 2129.61 159.87 Q2130.49 160.773 2133.15 160.773 L2137.53 160.773 L2137.53 164.338 L2133.15 164.338 Q2128.22 164.338 2126.35 162.509 Q2124.47 160.657 2124.47 155.796 L2124.47 141.722 L2121.35 141.722 L2121.35 138.412 L2124.47 138.412 L2124.47 131.051 L2128.75 131.051 Z" fill="#000000" fill-rule="nonzero" fill-opacity="1" /><path clip-path="url(#clip170)" d="M2154.91 151.305 Q2149.75 151.305 2147.76 152.486 Q2145.77 153.666 2145.77 156.514 Q2145.77 158.782 2147.25 160.125 Q2148.75 161.444 2151.32 161.444 Q2154.86 161.444 2156.99 158.944 Q2159.15 156.421 2159.15 152.254 L2159.15 151.305 L2154.91 151.305 M2163.41 149.546 L2163.41 164.338 L2159.15 164.338 L2159.15 160.402 Q2157.69 162.763 2155.51 163.898 Q2153.34 165.009 2150.19 165.009 Q2146.21 165.009 2143.85 162.787 Q2141.51 160.541 2141.51 156.791 Q2141.51 152.416 2144.42 150.194 Q2147.36 147.972 2153.17 147.972 L2159.15 147.972 L2159.15 147.555 Q2159.15 144.615 2157.2 143.018 Q2155.28 141.398 2151.79 141.398 Q2149.56 141.398 2147.46 141.93 Q2145.35 142.463 2143.41 143.527 L2143.41 139.592 Q2145.74 138.69 2147.94 138.25 Q2150.14 137.787 2152.23 137.787 Q2157.85 137.787 2160.63 140.703 Q2163.41 143.62 2163.41 149.546 Z" fill="#000000" fill-rule="nonzero" fill-opacity="1" /><path clip-path="url(#clip170)" d="M2176.39 131.051 L2176.39 138.412 L2185.17 138.412 L2185.17 141.722 L2176.39 141.722 L2176.39 155.796 Q2176.39 158.967 2177.25 159.87 Q2178.13 160.773 2180.79 160.773 L2185.17 160.773 L2185.17 164.338 L2180.79 164.338 Q2175.86 164.338 2173.98 162.509 Q2172.11 160.657 2172.11 155.796 L2172.11 141.722 L2168.98 141.722 L2168.98 138.412 L2172.11 138.412 L2172.11 131.051 L2176.39 131.051 Z" fill="#000000" fill-rule="nonzero" fill-opacity="1" /><path clip-path="url(#clip170)" d="M2190.77 138.412 L2195.03 138.412 L2195.03 164.338 L2190.77 164.338 L2190.77 138.412 M2190.77 128.319 L2195.03 128.319 L2195.03 133.713 L2190.77 133.713 L2190.77 128.319 Z" fill="#000000" fill-rule="nonzero" fill-opacity="1" /><path clip-path="url(#clip170)" d="M2213.98 141.398 Q2210.56 141.398 2208.57 144.083 Q2206.58 146.745 2206.58 151.398 Q2206.58 156.051 2208.54 158.736 Q2210.54 161.398 2213.98 161.398 Q2217.39 161.398 2219.38 158.713 Q2221.37 156.027 2221.37 151.398 Q2221.37 146.791 2219.38 144.106 Q2217.39 141.398 2213.98 141.398 M2213.98 137.787 Q2219.54 137.787 2222.71 141.398 Q2225.88 145.009 2225.88 151.398 Q2225.88 157.764 2222.71 161.398 Q2219.54 165.009 2213.98 165.009 Q2208.41 165.009 2205.23 161.398 Q2202.09 157.764 2202.09 151.398 Q2202.09 145.009 2205.23 141.398 Q2208.41 137.787 2213.98 137.787 Z" fill="#000000" fill-rule="nonzero" fill-opacity="1" /><path clip-path="url(#clip170)" d="M2254.49 148.689 L2254.49 164.338 L2250.23 164.338 L2250.23 148.828 Q2250.23 145.148 2248.8 143.319 Q2247.36 141.49 2244.49 141.49 Q2241.04 141.49 2239.05 143.69 Q2237.06 145.889 2237.06 149.685 L2237.06 164.338 L2232.78 164.338 L2232.78 138.412 L2237.06 138.412 L2237.06 142.44 Q2238.59 140.102 2240.65 138.944 Q2242.73 137.787 2245.44 137.787 Q2249.91 137.787 2252.2 140.565 Q2254.49 143.319 2254.49 148.689 Z" fill="#000000" fill-rule="nonzero" fill-opacity="1" /><path clip-path="url(#clip170)" d="M1809.43 219.634 L1956.83 219.634 L1956.83 178.162 L1809.43 178.162 L1809.43 219.634  Z" fill="#e26f46" fill-rule="evenodd" fill-opacity="0.5"/>
<polyline clip-path="url(#clip170)" style="stroke:#000000; stroke-linecap:round; stroke-linejoin:round; stroke-width:4; stroke-opacity:1; fill:none" points="1809.43,219.634 1956.83,219.634 1956.83,178.162 1809.43,178.162 1809.43,219.634 "/>
<path clip-path="url(#clip170)" d="M2009.26 184.28 L2009.26 189.21 Q2006.9 187.011 2004.22 185.923 Q2001.56 184.835 1998.55 184.835 Q1992.62 184.835 1989.47 188.469 Q1986.32 192.08 1986.32 198.932 Q1986.32 205.761 1989.47 209.395 Q1992.62 213.006 1998.55 213.006 Q2001.56 213.006 2004.22 211.918 Q2006.9 210.83 2009.26 208.631 L2009.26 213.516 Q2006.81 215.182 2004.06 216.016 Q2001.32 216.849 1998.27 216.849 Q1990.42 216.849 1985.91 212.057 Q1981.39 207.242 1981.39 198.932 Q1981.39 190.599 1985.91 185.807 Q1990.42 180.993 1998.27 180.993 Q2001.37 180.993 2004.1 181.826 Q2006.86 182.636 2009.26 184.28 Z" fill="#000000" fill-rule="nonzero" fill-opacity="1" /><path clip-path="url(#clip170)" d="M2025.4 216.178 L2012.2 181.618 L2017.09 181.618 L2028.04 210.715 L2039.01 181.618 L2043.87 181.618 L2030.7 216.178 L2025.4 216.178 Z" fill="#000000" fill-rule="nonzero" fill-opacity="1" /><path clip-path="url(#clip170)" d="M2061.9 203.747 Q2061.9 207.057 2063.55 208.955 Q2065.19 210.83 2068.06 210.83 Q2070.91 210.83 2072.53 208.932 Q2074.17 207.034 2074.17 203.747 Q2074.17 200.506 2072.5 198.608 Q2070.84 196.687 2068.01 196.687 Q2065.21 196.687 2063.55 198.585 Q2061.9 200.483 2061.9 203.747 M2074.52 210.668 Q2073.13 212.451 2071.32 213.307 Q2069.54 214.141 2067.16 214.141 Q2063.18 214.141 2060.68 211.27 Q2058.2 208.377 2058.2 203.747 Q2058.2 199.117 2060.7 196.224 Q2063.2 193.33 2067.16 193.33 Q2069.54 193.33 2071.35 194.21 Q2073.15 195.067 2074.52 196.826 L2074.52 193.793 L2077.83 193.793 L2077.83 210.83 Q2081.21 210.321 2083.11 207.752 Q2085.03 205.159 2085.03 201.062 Q2085.03 198.585 2084.29 196.409 Q2083.57 194.233 2082.09 192.381 Q2079.68 189.349 2076.21 187.752 Q2072.76 186.131 2068.68 186.131 Q2065.84 186.131 2063.22 186.895 Q2060.61 187.636 2058.38 189.118 Q2054.75 191.479 2052.69 195.321 Q2050.65 199.141 2050.65 203.608 Q2050.65 207.289 2051.97 210.506 Q2053.31 213.724 2055.84 216.178 Q2058.27 218.585 2061.46 219.835 Q2064.66 221.108 2068.29 221.108 Q2071.28 221.108 2074.15 220.09 Q2077.04 219.094 2079.45 217.219 L2081.53 219.789 Q2078.64 222.034 2075.21 223.215 Q2071.81 224.418 2068.29 224.418 Q2064.01 224.418 2060.21 222.89 Q2056.42 221.386 2053.45 218.492 Q2050.49 215.599 2048.94 211.803 Q2047.39 207.983 2047.39 203.608 Q2047.39 199.395 2048.96 195.576 Q2050.54 191.756 2053.45 188.863 Q2056.44 185.923 2060.35 184.372 Q2064.26 182.798 2068.64 182.798 Q2073.55 182.798 2077.74 184.812 Q2081.95 186.826 2084.8 190.53 Q2086.53 192.798 2087.43 195.46 Q2088.36 198.122 2088.36 200.969 Q2088.36 207.057 2084.68 210.576 Q2081 214.094 2074.52 214.233 L2074.52 210.668 Z" fill="#000000" fill-rule="nonzero" fill-opacity="1" /><path clip-path="url(#clip170)" d="M2112.71 199.974 Q2114.22 200.483 2115.63 202.15 Q2117.06 203.817 2118.5 206.733 L2123.24 216.178 L2118.22 216.178 L2113.8 207.312 Q2112.09 203.84 2110.47 202.705 Q2108.87 201.571 2106.09 201.571 L2101 201.571 L2101 216.178 L2096.32 216.178 L2096.32 181.618 L2106.88 181.618 Q2112.8 181.618 2115.72 184.094 Q2118.64 186.571 2118.64 191.571 Q2118.64 194.835 2117.11 196.988 Q2115.61 199.141 2112.71 199.974 M2101 185.46 L2101 197.729 L2106.88 197.729 Q2110.26 197.729 2111.97 196.178 Q2113.71 194.604 2113.71 191.571 Q2113.71 188.539 2111.97 187.011 Q2110.26 185.46 2106.88 185.46 L2101 185.46 Z" fill="#000000" fill-rule="nonzero" fill-opacity="1" /></svg>
