<?xml version="1.0" encoding="utf-8"?>
<svg xmlns="http://www.w3.org/2000/svg" xmlns:xlink="http://www.w3.org/1999/xlink" width="600" height="400" viewBox="0 0 2400 1600">
<defs>
  <clipPath id="clip050">
    <rect x="0" y="0" width="2400" height="1600"/>
  </clipPath>
</defs>
<path clip-path="url(#clip050)" d="M0 1600 L2400 1600 L2400 0 L0 0  Z" fill="#ffffff" fill-rule="evenodd" fill-opacity="1"/>
<defs>
  <clipPath id="clip051">
    <rect x="480" y="0" width="1681" height="1600"/>
  </clipPath>
</defs>
<path clip-path="url(#clip050)" d="M205.121 1423.18 L2352.76 1423.18 L2352.76 47.2441 L205.121 47.2441  Z" fill="#ffffff" fill-rule="evenodd" fill-opacity="1"/>
<defs>
  <clipPath id="clip052">
    <rect x="205" y="47" width="2149" height="1377"/>
  </clipPath>
</defs>
<polyline clip-path="url(#clip052)" style="stroke:#000000; stroke-linecap:round; stroke-linejoin:round; stroke-width:2; stroke-opacity:0.1; fill:none" points="514.383,1423.18 514.383,47.2441 "/>
<polyline clip-path="url(#clip052)" style="stroke:#000000; stroke-linecap:round; stroke-linejoin:round; stroke-width:2; stroke-opacity:0.1; fill:none" points="896.661,1423.18 896.661,47.2441 "/>
<polyline clip-path="url(#clip052)" style="stroke:#000000; stroke-linecap:round; stroke-linejoin:round; stroke-width:2; stroke-opacity:0.1; fill:none" points="1278.94,1423.18 1278.94,47.2441 "/>
<polyline clip-path="url(#clip052)" style="stroke:#000000; stroke-linecap:round; stroke-linejoin:round; stroke-width:2; stroke-opacity:0.1; fill:none" points="1661.22,1423.18 1661.22,47.2441 "/>
<polyline clip-path="url(#clip052)" style="stroke:#000000; stroke-linecap:round; stroke-linejoin:round; stroke-width:2; stroke-opacity:0.1; fill:none" points="2043.49,1423.18 2043.49,47.2441 "/>
<polyline clip-path="url(#clip050)" style="stroke:#000000; stroke-linecap:round; stroke-linejoin:round; stroke-width:4; stroke-opacity:1; fill:none" points="205.121,1423.18 2352.76,1423.18 "/>
<polyline clip-path="url(#clip050)" style="stroke:#000000; stroke-linecap:round; stroke-linejoin:round; stroke-width:4; stroke-opacity:1; fill:none" points="514.383,1423.18 514.383,1404.28 "/>
<polyline clip-path="url(#clip050)" style="stroke:#000000; stroke-linecap:round; stroke-linejoin:round; stroke-width:4; stroke-opacity:1; fill:none" points="896.661,1423.18 896.661,1404.28 "/>
<polyline clip-path="url(#clip050)" style="stroke:#000000; stroke-linecap:round; stroke-linejoin:round; stroke-width:4; stroke-opacity:1; fill:none" points="1278.94,1423.18 1278.94,1404.28 "/>
<polyline clip-path="url(#clip050)" style="stroke:#000000; stroke-linecap:round; stroke-linejoin:round; stroke-width:4; stroke-opacity:1; fill:none" points="1661.22,1423.18 1661.22,1404.28 "/>
<polyline clip-path="url(#clip050)" style="stroke:#000000; stroke-linecap:round; stroke-linejoin:round; stroke-width:4; stroke-opacity:1; fill:none" points="2043.49,1423.18 2043.49,1404.28 "/>
<path clip-path="url(#clip050)" d="M487.474 1455.09 L475.668 1473.54 L487.474 1473.54 L487.474 1455.09 M486.247 1451.02 L492.127 1451.02 L492.127 1473.54 L497.057 1473.54 L497.057 1477.43 L492.127 1477.43 L492.127 1485.58 L487.474 1485.58 L487.474 1477.43 L471.872 1477.43 L471.872 1472.92 L486.247 1451.02 Z" fill="#000000" fill-rule="nonzero" fill-opacity="1" /><path clip-path="url(#clip050)" d="M514.789 1454.1 Q511.177 1454.1 509.349 1457.66 Q507.543 1461.2 507.543 1468.33 Q507.543 1475.44 509.349 1479.01 Q511.177 1482.55 514.789 1482.55 Q518.423 1482.55 520.228 1479.01 Q522.057 1475.44 522.057 1468.33 Q522.057 1461.2 520.228 1457.66 Q518.423 1454.1 514.789 1454.1 M514.789 1450.39 Q520.599 1450.39 523.654 1455 Q526.733 1459.58 526.733 1468.33 Q526.733 1477.06 523.654 1481.67 Q520.599 1486.25 514.789 1486.25 Q508.978 1486.25 505.9 1481.67 Q502.844 1477.06 502.844 1468.33 Q502.844 1459.58 505.9 1455 Q508.978 1450.39 514.789 1450.39 Z" fill="#000000" fill-rule="nonzero" fill-opacity="1" /><path clip-path="url(#clip050)" d="M544.95 1454.1 Q541.339 1454.1 539.511 1457.66 Q537.705 1461.2 537.705 1468.33 Q537.705 1475.44 539.511 1479.01 Q541.339 1482.55 544.95 1482.55 Q548.585 1482.55 550.39 1479.01 Q552.219 1475.44 552.219 1468.33 Q552.219 1461.2 550.39 1457.66 Q548.585 1454.1 544.95 1454.1 M544.95 1450.39 Q550.761 1450.39 553.816 1455 Q556.895 1459.58 556.895 1468.33 Q556.895 1477.06 553.816 1481.67 Q550.761 1486.25 544.95 1486.25 Q539.14 1486.25 536.062 1481.67 Q533.006 1477.06 533.006 1468.33 Q533.006 1459.58 536.062 1455 Q539.14 1450.39 544.95 1450.39 Z" fill="#000000" fill-rule="nonzero" fill-opacity="1" /><path clip-path="url(#clip050)" d="M869.751 1455.09 L857.946 1473.54 L869.751 1473.54 L869.751 1455.09 M868.525 1451.02 L874.404 1451.02 L874.404 1473.54 L879.335 1473.54 L879.335 1477.43 L874.404 1477.43 L874.404 1485.58 L869.751 1485.58 L869.751 1477.43 L854.15 1477.43 L854.15 1472.92 L868.525 1451.02 Z" fill="#000000" fill-rule="nonzero" fill-opacity="1" /><path clip-path="url(#clip050)" d="M887.112 1451.02 L905.469 1451.02 L905.469 1454.96 L891.395 1454.96 L891.395 1463.43 Q892.413 1463.08 893.432 1462.92 Q894.45 1462.73 895.469 1462.73 Q901.256 1462.73 904.635 1465.9 Q908.015 1469.08 908.015 1474.49 Q908.015 1480.07 904.543 1483.17 Q901.071 1486.25 894.751 1486.25 Q892.575 1486.25 890.307 1485.88 Q888.061 1485.51 885.654 1484.77 L885.654 1480.07 Q887.737 1481.2 889.96 1481.76 Q892.182 1482.32 894.659 1482.32 Q898.663 1482.32 901.001 1480.21 Q903.339 1478.1 903.339 1474.49 Q903.339 1470.88 901.001 1468.77 Q898.663 1466.67 894.659 1466.67 Q892.784 1466.67 890.909 1467.08 Q889.057 1467.5 887.112 1468.38 L887.112 1451.02 Z" fill="#000000" fill-rule="nonzero" fill-opacity="1" /><path clip-path="url(#clip050)" d="M927.228 1454.1 Q923.617 1454.1 921.788 1457.66 Q919.983 1461.2 919.983 1468.33 Q919.983 1475.44 921.788 1479.01 Q923.617 1482.55 927.228 1482.55 Q930.862 1482.55 932.668 1479.01 Q934.496 1475.44 934.496 1468.33 Q934.496 1461.2 932.668 1457.66 Q930.862 1454.1 927.228 1454.1 M927.228 1450.39 Q933.038 1450.39 936.094 1455 Q939.172 1459.58 939.172 1468.33 Q939.172 1477.06 936.094 1481.67 Q933.038 1486.25 927.228 1486.25 Q921.418 1486.25 918.339 1481.67 Q915.284 1477.06 915.284 1468.33 Q915.284 1459.58 918.339 1455 Q921.418 1450.39 927.228 1450.39 Z" fill="#000000" fill-rule="nonzero" fill-opacity="1" /><path clip-path="url(#clip050)" d="M1238.56 1451.02 L1256.91 1451.02 L1256.91 1454.96 L1242.84 1454.96 L1242.84 1463.43 Q1243.86 1463.08 1244.88 1462.92 Q1245.89 1462.73 1246.91 1462.73 Q1252.7 1462.73 1256.08 1465.9 Q1259.46 1469.08 1259.46 1474.49 Q1259.46 1480.07 1255.99 1483.17 Q1252.51 1486.25 1246.2 1486.25 Q1244.02 1486.25 1241.75 1485.88 Q1239.51 1485.51 1237.1 1484.77 L1237.1 1480.07 Q1239.18 1481.2 1241.4 1481.76 Q1243.63 1482.32 1246.1 1482.32 Q1250.11 1482.32 1252.45 1480.21 Q1254.78 1478.1 1254.78 1474.49 Q1254.78 1470.88 1252.45 1468.77 Q1250.11 1466.67 1246.1 1466.67 Q1244.23 1466.67 1242.35 1467.08 Q1240.5 1467.5 1238.56 1468.38 L1238.56 1451.02 Z" fill="#000000" fill-rule="nonzero" fill-opacity="1" /><path clip-path="url(#clip050)" d="M1278.67 1454.1 Q1275.06 1454.1 1273.23 1457.66 Q1271.43 1461.2 1271.43 1468.33 Q1271.43 1475.44 1273.23 1479.01 Q1275.06 1482.55 1278.67 1482.55 Q1282.31 1482.55 1284.11 1479.01 Q1285.94 1475.44 1285.94 1468.33 Q1285.94 1461.2 1284.11 1457.66 Q1282.31 1454.1 1278.67 1454.1 M1278.67 1450.39 Q1284.48 1450.39 1287.54 1455 Q1290.62 1459.58 1290.62 1468.33 Q1290.62 1477.06 1287.54 1481.67 Q1284.48 1486.25 1278.67 1486.25 Q1272.86 1486.25 1269.78 1481.67 Q1266.73 1477.06 1266.73 1468.33 Q1266.73 1459.58 1269.78 1455 Q1272.86 1450.39 1278.67 1450.39 Z" fill="#000000" fill-rule="nonzero" fill-opacity="1" /><path clip-path="url(#clip050)" d="M1308.83 1454.1 Q1305.22 1454.1 1303.39 1457.66 Q1301.59 1461.2 1301.59 1468.33 Q1301.59 1475.44 1303.39 1479.01 Q1305.22 1482.55 1308.83 1482.55 Q1312.47 1482.55 1314.27 1479.01 Q1316.1 1475.44 1316.1 1468.33 Q1316.1 1461.2 1314.27 1457.66 Q1312.47 1454.1 1308.83 1454.1 M1308.83 1450.39 Q1314.64 1450.39 1317.7 1455 Q1320.78 1459.58 1320.78 1468.33 Q1320.78 1477.06 1317.7 1481.67 Q1314.64 1486.25 1308.83 1486.25 Q1303.02 1486.25 1299.95 1481.67 Q1296.89 1477.06 1296.89 1468.33 Q1296.89 1459.58 1299.95 1455 Q1303.02 1450.39 1308.83 1450.39 Z" fill="#000000" fill-rule="nonzero" fill-opacity="1" /><path clip-path="url(#clip050)" d="M1620.83 1451.02 L1639.19 1451.02 L1639.19 1454.96 L1625.12 1454.96 L1625.12 1463.43 Q1626.14 1463.08 1627.15 1462.92 Q1628.17 1462.73 1629.19 1462.73 Q1634.98 1462.73 1638.36 1465.9 Q1641.74 1469.08 1641.74 1474.49 Q1641.74 1480.07 1638.26 1483.17 Q1634.79 1486.25 1628.47 1486.25 Q1626.3 1486.25 1624.03 1485.88 Q1621.78 1485.51 1619.38 1484.77 L1619.38 1480.07 Q1621.46 1481.2 1623.68 1481.76 Q1625.9 1482.32 1628.38 1482.32 Q1632.39 1482.32 1634.72 1480.21 Q1637.06 1478.1 1637.06 1474.49 Q1637.06 1470.88 1634.72 1468.77 Q1632.39 1466.67 1628.38 1466.67 Q1626.51 1466.67 1624.63 1467.08 Q1622.78 1467.5 1620.83 1468.38 L1620.83 1451.02 Z" fill="#000000" fill-rule="nonzero" fill-opacity="1" /><path clip-path="url(#clip050)" d="M1651 1451.02 L1669.35 1451.02 L1669.35 1454.96 L1655.28 1454.96 L1655.28 1463.43 Q1656.3 1463.08 1657.32 1462.92 Q1658.33 1462.73 1659.35 1462.73 Q1665.14 1462.73 1668.52 1465.9 Q1671.9 1469.08 1671.9 1474.49 Q1671.9 1480.07 1668.43 1483.17 Q1664.95 1486.25 1658.63 1486.25 Q1656.46 1486.25 1654.19 1485.88 Q1651.95 1485.51 1649.54 1484.77 L1649.54 1480.07 Q1651.62 1481.2 1653.84 1481.76 Q1656.07 1482.32 1658.54 1482.32 Q1662.55 1482.32 1664.88 1480.21 Q1667.22 1478.1 1667.22 1474.49 Q1667.22 1470.88 1664.88 1468.77 Q1662.55 1466.67 1658.54 1466.67 Q1656.67 1466.67 1654.79 1467.08 Q1652.94 1467.5 1651 1468.38 L1651 1451.02 Z" fill="#000000" fill-rule="nonzero" fill-opacity="1" /><path clip-path="url(#clip050)" d="M1691.11 1454.1 Q1687.5 1454.1 1685.67 1457.66 Q1683.87 1461.2 1683.87 1468.33 Q1683.87 1475.44 1685.67 1479.01 Q1687.5 1482.55 1691.11 1482.55 Q1694.75 1482.55 1696.55 1479.01 Q1698.38 1475.44 1698.38 1468.33 Q1698.38 1461.2 1696.55 1457.66 Q1694.75 1454.1 1691.11 1454.1 M1691.11 1450.39 Q1696.92 1450.39 1699.98 1455 Q1703.06 1459.58 1703.06 1468.33 Q1703.06 1477.06 1699.98 1481.67 Q1696.92 1486.25 1691.11 1486.25 Q1685.3 1486.25 1682.22 1481.67 Q1679.17 1477.06 1679.17 1468.33 Q1679.17 1459.58 1682.22 1455 Q1685.3 1450.39 1691.11 1450.39 Z" fill="#000000" fill-rule="nonzero" fill-opacity="1" /><path clip-path="url(#clip050)" d="M2013.82 1466.44 Q2010.67 1466.44 2008.82 1468.59 Q2006.99 1470.74 2006.99 1474.49 Q2006.99 1478.22 2008.82 1480.39 Q2010.67 1482.55 2013.82 1482.55 Q2016.97 1482.55 2018.79 1480.39 Q2020.65 1478.22 2020.65 1474.49 Q2020.65 1470.74 2018.79 1468.59 Q2016.97 1466.44 2013.82 1466.44 M2023.1 1451.78 L2023.1 1456.04 Q2021.34 1455.21 2019.54 1454.77 Q2017.75 1454.33 2015.99 1454.33 Q2011.36 1454.33 2008.91 1457.45 Q2006.48 1460.58 2006.13 1466.9 Q2007.5 1464.89 2009.56 1463.82 Q2011.62 1462.73 2014.1 1462.73 Q2019.3 1462.73 2022.31 1465.9 Q2025.35 1469.05 2025.35 1474.49 Q2025.35 1479.82 2022.2 1483.03 Q2019.05 1486.25 2013.82 1486.25 Q2007.82 1486.25 2004.65 1481.67 Q2001.48 1477.06 2001.48 1468.33 Q2001.48 1460.14 2005.37 1455.28 Q2009.26 1450.39 2015.81 1450.39 Q2017.57 1450.39 2019.35 1450.74 Q2021.16 1451.09 2023.1 1451.78 Z" fill="#000000" fill-rule="nonzero" fill-opacity="1" /><path clip-path="url(#clip050)" d="M2043.4 1454.1 Q2039.79 1454.1 2037.96 1457.66 Q2036.16 1461.2 2036.16 1468.33 Q2036.16 1475.44 2037.96 1479.01 Q2039.79 1482.55 2043.4 1482.55 Q2047.04 1482.55 2048.84 1479.01 Q2050.67 1475.44 2050.67 1468.33 Q2050.67 1461.2 2048.84 1457.66 Q2047.04 1454.1 2043.4 1454.1 M2043.4 1450.39 Q2049.21 1450.39 2052.27 1455 Q2055.35 1459.58 2055.35 1468.33 Q2055.35 1477.06 2052.27 1481.67 Q2049.21 1486.25 2043.4 1486.25 Q2037.59 1486.25 2034.51 1481.67 Q2031.46 1477.06 2031.46 1468.33 Q2031.46 1459.58 2034.51 1455 Q2037.59 1450.39 2043.4 1450.39 Z" fill="#000000" fill-rule="nonzero" fill-opacity="1" /><path clip-path="url(#clip050)" d="M2073.56 1454.1 Q2069.95 1454.1 2068.12 1457.66 Q2066.32 1461.2 2066.32 1468.33 Q2066.32 1475.44 2068.12 1479.01 Q2069.95 1482.55 2073.56 1482.55 Q2077.2 1482.55 2079 1479.01 Q2080.83 1475.44 2080.83 1468.33 Q2080.83 1461.2 2079 1457.66 Q2077.2 1454.1 2073.56 1454.1 M2073.56 1450.39 Q2079.37 1450.39 2082.43 1455 Q2085.51 1459.58 2085.51 1468.33 Q2085.51 1477.06 2082.43 1481.67 Q2079.37 1486.25 2073.56 1486.25 Q2067.75 1486.25 2064.67 1481.67 Q2061.62 1477.06 2061.62 1468.33 Q2061.62 1459.58 2064.67 1455 Q2067.75 1450.39 2073.56 1450.39 Z" fill="#000000" fill-rule="nonzero" fill-opacity="1" /><path clip-path="url(#clip050)" d="M1149.83 1525.81 L1149.83 1543.66 L1157.91 1543.66 Q1162.4 1543.66 1164.85 1541.34 Q1167.3 1539.02 1167.3 1534.72 Q1167.3 1530.45 1164.85 1528.13 Q1162.4 1525.81 1157.91 1525.81 L1149.83 1525.81 M1143.4 1520.52 L1157.91 1520.52 Q1165.9 1520.52 1169.97 1524.15 Q1174.08 1527.75 1174.08 1534.72 Q1174.08 1541.75 1169.97 1545.35 Q1165.9 1548.95 1157.91 1548.95 L1149.83 1548.95 L1149.83 1568.04 L1143.4 1568.04 L1143.4 1520.52 Z" fill="#000000" fill-rule="nonzero" fill-opacity="1" /><path clip-path="url(#clip050)" d="M1201.96 1537.87 Q1200.97 1537.3 1199.8 1537.04 Q1198.65 1536.76 1197.25 1536.76 Q1192.29 1536.76 1189.61 1540 Q1186.97 1543.22 1186.97 1549.27 L1186.97 1568.04 L1181.08 1568.04 L1181.08 1532.4 L1186.97 1532.4 L1186.97 1537.93 Q1188.82 1534.69 1191.78 1533.13 Q1194.74 1531.54 1198.97 1531.54 Q1199.57 1531.54 1200.31 1531.63 Q1201.04 1531.7 1201.93 1531.85 L1201.96 1537.87 Z" fill="#000000" fill-rule="nonzero" fill-opacity="1" /><path clip-path="url(#clip050)" d="M1220.49 1536.5 Q1215.77 1536.5 1213.04 1540.19 Q1210.3 1543.85 1210.3 1550.25 Q1210.3 1556.65 1213.01 1560.34 Q1215.74 1564 1220.49 1564 Q1225.16 1564 1227.9 1560.31 Q1230.64 1556.62 1230.64 1550.25 Q1230.64 1543.92 1227.9 1540.23 Q1225.16 1536.5 1220.49 1536.5 M1220.49 1531.54 Q1228.12 1531.54 1232.48 1536.5 Q1236.85 1541.47 1236.85 1550.25 Q1236.85 1559 1232.48 1564 Q1228.12 1568.97 1220.49 1568.97 Q1212.81 1568.97 1208.45 1564 Q1204.13 1559 1204.13 1550.25 Q1204.13 1541.47 1208.45 1536.5 Q1212.81 1531.54 1220.49 1531.54 Z" fill="#000000" fill-rule="nonzero" fill-opacity="1" /><path clip-path="url(#clip050)" d="M1264.6 1518.52 L1264.6 1523.39 L1259 1523.39 Q1255.85 1523.39 1254.61 1524.66 Q1253.4 1525.93 1253.4 1529.24 L1253.4 1532.4 L1263.04 1532.4 L1263.04 1536.95 L1253.4 1536.95 L1253.4 1568.04 L1247.51 1568.04 L1247.51 1536.95 L1241.91 1536.95 L1241.91 1532.4 L1247.51 1532.4 L1247.51 1529.91 Q1247.51 1523.96 1250.28 1521.26 Q1253.05 1518.52 1259.06 1518.52 L1264.6 1518.52 Z" fill="#000000" fill-rule="nonzero" fill-opacity="1" /><path clip-path="url(#clip050)" d="M1269.5 1532.4 L1275.36 1532.4 L1275.36 1568.04 L1269.5 1568.04 L1269.5 1532.4 M1269.5 1518.52 L1275.36 1518.52 L1275.36 1525.93 L1269.5 1525.93 L1269.5 1518.52 Z" fill="#000000" fill-rule="nonzero" fill-opacity="1" /><path clip-path="url(#clip050)" d="M1293.4 1522.27 L1293.4 1532.4 L1305.47 1532.4 L1305.47 1536.95 L1293.4 1536.95 L1293.4 1556.3 Q1293.4 1560.66 1294.58 1561.9 Q1295.79 1563.14 1299.45 1563.14 L1305.47 1563.14 L1305.47 1568.04 L1299.45 1568.04 Q1292.67 1568.04 1290.09 1565.53 Q1287.52 1562.98 1287.52 1556.3 L1287.52 1536.95 L1283.22 1536.95 L1283.22 1532.4 L1287.52 1532.4 L1287.52 1522.27 L1293.4 1522.27 Z" fill="#000000" fill-rule="nonzero" fill-opacity="1" /><path clip-path="url(#clip050)" d="M1333.35 1518.52 L1346.84 1518.52 L1346.84 1523.07 L1339.21 1523.07 L1339.21 1572.09 L1346.84 1572.09 L1346.84 1576.64 L1333.35 1576.64 L1333.35 1518.52 Z" fill="#000000" fill-rule="nonzero" fill-opacity="1" /><path clip-path="url(#clip050)" d="M1375.2 1577.62 L1372.02 1577.62 L1371.99 1568.04 Q1368.65 1567.98 1365.31 1567.28 Q1361.96 1566.55 1358.59 1565.12 L1358.59 1559.39 Q1361.84 1561.42 1365.15 1562.47 Q1368.49 1563.49 1372.02 1563.52 L1372.02 1549.01 Q1364.99 1547.86 1361.77 1545.13 Q1358.59 1542.39 1358.59 1537.62 Q1358.59 1532.43 1362.06 1529.44 Q1365.53 1526.44 1372.02 1526 L1372.02 1518.52 L1375.2 1518.52 L1375.2 1525.9 Q1378.16 1526.03 1380.93 1526.54 Q1383.7 1527.02 1386.34 1527.88 L1386.34 1533.45 Q1383.7 1532.11 1380.9 1531.38 Q1378.13 1530.65 1375.2 1530.52 L1375.2 1544.11 Q1382.43 1545.22 1385.83 1548.09 Q1389.24 1550.95 1389.24 1555.92 Q1389.24 1561.3 1385.61 1564.42 Q1382.02 1567.5 1375.2 1567.98 L1375.2 1577.62 M1372.02 1543.54 L1372.02 1530.49 Q1368.33 1530.9 1366.39 1532.59 Q1364.45 1534.27 1364.45 1537.07 Q1364.45 1539.81 1366.23 1541.34 Q1368.04 1542.87 1372.02 1543.54 M1375.2 1549.65 L1375.2 1563.43 Q1379.25 1562.89 1381.28 1561.14 Q1383.35 1559.39 1383.35 1556.52 Q1383.35 1553.72 1381.38 1552.07 Q1379.44 1550.41 1375.2 1549.65 Z" fill="#000000" fill-rule="nonzero" fill-opacity="1" /><path clip-path="url(#clip050)" d="M1414.48 1518.52 L1414.48 1576.64 L1400.98 1576.64 L1400.98 1572.09 L1408.59 1572.09 L1408.59 1523.07 L1400.98 1523.07 L1400.98 1518.52 L1414.48 1518.52 Z" fill="#000000" fill-rule="nonzero" fill-opacity="1" /><polyline clip-path="url(#clip052)" style="stroke:#000000; stroke-linecap:round; stroke-linejoin:round; stroke-width:2; stroke-opacity:0.1; fill:none" points="205.121,1423.18 2352.76,1423.18 "/>
<polyline clip-path="url(#clip052)" style="stroke:#000000; stroke-linecap:round; stroke-linejoin:round; stroke-width:2; stroke-opacity:0.1; fill:none" points="205.121,1124.06 2352.76,1124.06 "/>
<polyline clip-path="url(#clip052)" style="stroke:#000000; stroke-linecap:round; stroke-linejoin:round; stroke-width:2; stroke-opacity:0.1; fill:none" points="205.121,824.947 2352.76,824.947 "/>
<polyline clip-path="url(#clip052)" style="stroke:#000000; stroke-linecap:round; stroke-linejoin:round; stroke-width:2; stroke-opacity:0.1; fill:none" points="205.121,525.83 2352.76,525.83 "/>
<polyline clip-path="url(#clip052)" style="stroke:#000000; stroke-linecap:round; stroke-linejoin:round; stroke-width:2; stroke-opacity:0.1; fill:none" points="205.121,226.714 2352.76,226.714 "/>
<polyline clip-path="url(#clip050)" style="stroke:#000000; stroke-linecap:round; stroke-linejoin:round; stroke-width:4; stroke-opacity:1; fill:none" points="205.121,1423.18 205.121,47.2441 "/>
<polyline clip-path="url(#clip050)" style="stroke:#000000; stroke-linecap:round; stroke-linejoin:round; stroke-width:4; stroke-opacity:1; fill:none" points="205.121,1423.18 224.019,1423.18 "/>
<polyline clip-path="url(#clip050)" style="stroke:#000000; stroke-linecap:round; stroke-linejoin:round; stroke-width:4; stroke-opacity:1; fill:none" points="205.121,1124.06 224.019,1124.06 "/>
<polyline clip-path="url(#clip050)" style="stroke:#000000; stroke-linecap:round; stroke-linejoin:round; stroke-width:4; stroke-opacity:1; fill:none" points="205.121,824.947 224.019,824.947 "/>
<polyline clip-path="url(#clip050)" style="stroke:#000000; stroke-linecap:round; stroke-linejoin:round; stroke-width:4; stroke-opacity:1; fill:none" points="205.121,525.83 224.019,525.83 "/>
<polyline clip-path="url(#clip050)" style="stroke:#000000; stroke-linecap:round; stroke-linejoin:round; stroke-width:4; stroke-opacity:1; fill:none" points="205.121,226.714 224.019,226.714 "/>
<path clip-path="url(#clip050)" d="M157.177 1408.98 Q153.566 1408.98 151.737 1412.54 Q149.931 1416.08 149.931 1423.21 Q149.931 1430.32 151.737 1433.89 Q153.566 1437.43 157.177 1437.43 Q160.811 1437.43 162.616 1433.89 Q164.445 1430.32 164.445 1423.21 Q164.445 1416.08 162.616 1412.54 Q160.811 1408.98 157.177 1408.98 M157.177 1405.27 Q162.987 1405.27 166.042 1409.88 Q169.121 1414.46 169.121 1423.21 Q169.121 1431.94 166.042 1436.55 Q162.987 1441.13 157.177 1441.13 Q151.366 1441.13 148.288 1436.55 Q145.232 1431.94 145.232 1423.21 Q145.232 1414.46 148.288 1409.88 Q151.366 1405.27 157.177 1405.27 Z" fill="#000000" fill-rule="nonzero" fill-opacity="1" /><path clip-path="url(#clip050)" d="M117.825 1137.41 L125.464 1137.41 L125.464 1111.04 L117.154 1112.71 L117.154 1108.45 L125.418 1106.78 L130.093 1106.78 L130.093 1137.41 L137.732 1137.41 L137.732 1141.34 L117.825 1141.34 L117.825 1137.41 Z" fill="#000000" fill-rule="nonzero" fill-opacity="1" /><path clip-path="url(#clip050)" d="M157.177 1109.86 Q153.566 1109.86 151.737 1113.43 Q149.931 1116.97 149.931 1124.1 Q149.931 1131.2 151.737 1134.77 Q153.566 1138.31 157.177 1138.31 Q160.811 1138.31 162.616 1134.77 Q164.445 1131.2 164.445 1124.1 Q164.445 1116.97 162.616 1113.43 Q160.811 1109.86 157.177 1109.86 M157.177 1106.16 Q162.987 1106.16 166.042 1110.76 Q169.121 1115.35 169.121 1124.1 Q169.121 1132.82 166.042 1137.43 Q162.987 1142.01 157.177 1142.01 Q151.366 1142.01 148.288 1137.43 Q145.232 1132.82 145.232 1124.1 Q145.232 1115.35 148.288 1110.76 Q151.366 1106.16 157.177 1106.16 Z" fill="#000000" fill-rule="nonzero" fill-opacity="1" /><path clip-path="url(#clip050)" d="M121.043 838.292 L137.362 838.292 L137.362 842.227 L115.418 842.227 L115.418 838.292 Q118.08 835.537 122.663 830.908 Q127.269 826.255 128.45 824.912 Q130.695 822.389 131.575 820.653 Q132.478 818.894 132.478 817.204 Q132.478 814.449 130.533 812.713 Q128.612 810.977 125.51 810.977 Q123.311 810.977 120.857 811.741 Q118.427 812.505 115.649 814.056 L115.649 809.334 Q118.473 808.199 120.927 807.621 Q123.38 807.042 125.418 807.042 Q130.788 807.042 133.982 809.727 Q137.177 812.412 137.177 816.903 Q137.177 819.033 136.367 820.954 Q135.579 822.852 133.473 825.445 Q132.894 826.116 129.792 829.333 Q126.691 832.528 121.043 838.292 Z" fill="#000000" fill-rule="nonzero" fill-opacity="1" /><path clip-path="url(#clip050)" d="M157.177 810.746 Q153.566 810.746 151.737 814.31 Q149.931 817.852 149.931 824.982 Q149.931 832.088 151.737 835.653 Q153.566 839.195 157.177 839.195 Q160.811 839.195 162.616 835.653 Q164.445 832.088 164.445 824.982 Q164.445 817.852 162.616 814.31 Q160.811 810.746 157.177 810.746 M157.177 807.042 Q162.987 807.042 166.042 811.648 Q169.121 816.232 169.121 824.982 Q169.121 833.708 166.042 838.315 Q162.987 842.898 157.177 842.898 Q151.366 842.898 148.288 838.315 Q145.232 833.708 145.232 824.982 Q145.232 816.232 148.288 811.648 Q151.366 807.042 157.177 807.042 Z" fill="#000000" fill-rule="nonzero" fill-opacity="1" /><path clip-path="url(#clip050)" d="M131.181 524.476 Q134.538 525.194 136.413 527.462 Q138.311 529.731 138.311 533.064 Q138.311 538.18 134.792 540.981 Q131.274 543.782 124.793 543.782 Q122.617 543.782 120.302 543.342 Q118.01 542.925 115.556 542.069 L115.556 537.555 Q117.501 538.689 119.816 539.268 Q122.13 539.847 124.654 539.847 Q129.052 539.847 131.343 538.11 Q133.658 536.374 133.658 533.064 Q133.658 530.009 131.505 528.296 Q129.376 526.56 125.556 526.56 L121.529 526.56 L121.529 522.717 L125.742 522.717 Q129.191 522.717 131.019 521.351 Q132.848 519.962 132.848 517.37 Q132.848 514.708 130.95 513.296 Q129.075 511.861 125.556 511.861 Q123.635 511.861 121.436 512.277 Q119.237 512.694 116.598 513.574 L116.598 509.407 Q119.26 508.666 121.575 508.296 Q123.913 507.925 125.973 507.925 Q131.297 507.925 134.399 510.356 Q137.501 512.763 137.501 516.884 Q137.501 519.754 135.857 521.745 Q134.214 523.712 131.181 524.476 Z" fill="#000000" fill-rule="nonzero" fill-opacity="1" /><path clip-path="url(#clip050)" d="M157.177 511.629 Q153.566 511.629 151.737 515.194 Q149.931 518.736 149.931 525.865 Q149.931 532.972 151.737 536.536 Q153.566 540.078 157.177 540.078 Q160.811 540.078 162.616 536.536 Q164.445 532.972 164.445 525.865 Q164.445 518.736 162.616 515.194 Q160.811 511.629 157.177 511.629 M157.177 507.925 Q162.987 507.925 166.042 512.532 Q169.121 517.115 169.121 525.865 Q169.121 534.592 166.042 539.198 Q162.987 543.782 157.177 543.782 Q151.366 543.782 148.288 539.198 Q145.232 534.592 145.232 525.865 Q145.232 517.115 148.288 512.532 Q151.366 507.925 157.177 507.925 Z" fill="#000000" fill-rule="nonzero" fill-opacity="1" /><path clip-path="url(#clip050)" d="M129.862 213.508 L118.056 231.957 L129.862 231.957 L129.862 213.508 M128.635 209.434 L134.515 209.434 L134.515 231.957 L139.445 231.957 L139.445 235.846 L134.515 235.846 L134.515 243.994 L129.862 243.994 L129.862 235.846 L114.26 235.846 L114.26 231.332 L128.635 209.434 Z" fill="#000000" fill-rule="nonzero" fill-opacity="1" /><path clip-path="url(#clip050)" d="M157.177 212.513 Q153.566 212.513 151.737 216.077 Q149.931 219.619 149.931 226.749 Q149.931 233.855 151.737 237.42 Q153.566 240.962 157.177 240.962 Q160.811 240.962 162.616 237.42 Q164.445 233.855 164.445 226.749 Q164.445 219.619 162.616 216.077 Q160.811 212.513 157.177 212.513 M157.177 208.809 Q162.987 208.809 166.042 213.415 Q169.121 217.999 169.121 226.749 Q169.121 235.476 166.042 240.082 Q162.987 244.665 157.177 244.665 Q151.366 244.665 148.288 240.082 Q145.232 235.476 145.232 226.749 Q145.232 217.999 148.288 213.415 Q151.366 208.809 157.177 208.809 Z" fill="#000000" fill-rule="nonzero" fill-opacity="1" /><path clip-path="url(#clip050)" d="M16.4842 1073.5 L16.4842 1064.84 L56.238 1043.77 L16.4842 1043.77 L16.4842 1037.54 L64.0042 1037.54 L64.0042 1046.19 L24.2503 1067.26 L64.0042 1067.26 L64.0042 1073.5 L16.4842 1073.5 Z" fill="#000000" fill-rule="nonzero" fill-opacity="1" /><path clip-path="url(#clip050)" d="M49.9359 1025.6 L28.3562 1025.6 L28.3562 1019.74 L49.7131 1019.74 Q54.7739 1019.74 57.3202 1017.77 Q59.8346 1015.8 59.8346 1011.85 Q59.8346 1007.11 56.8109 1004.37 Q53.7872 1001.6 48.5673 1001.6 L28.3562 1001.6 L28.3562 995.744 L64.0042 995.744 L64.0042 1001.6 L58.5296 1001.6 Q61.7762 1003.73 63.3676 1006.57 Q64.9272 1009.37 64.9272 1013.09 Q64.9272 1019.23 61.1078 1022.42 Q57.2883 1025.6 49.9359 1025.6 M27.4968 1010.86 L27.4968 1010.86 Z" fill="#000000" fill-rule="nonzero" fill-opacity="1" /><path clip-path="url(#clip050)" d="M35.1993 955.927 Q31.2526 953.731 29.3747 950.675 Q27.4968 947.62 27.4968 943.482 Q27.4968 937.912 31.4117 934.888 Q35.2948 931.865 42.4881 931.865 L64.0042 931.865 L64.0042 937.753 L42.679 937.753 Q37.5546 937.753 35.072 939.567 Q32.5894 941.381 32.5894 945.105 Q32.5894 949.657 35.6131 952.298 Q38.6368 954.94 43.8567 954.94 L64.0042 954.94 L64.0042 960.829 L42.679 960.829 Q37.5228 960.829 35.072 962.643 Q32.5894 964.457 32.5894 968.245 Q32.5894 972.732 35.6449 975.374 Q38.6686 978.016 43.8567 978.016 L64.0042 978.016 L64.0042 983.904 L28.3562 983.904 L28.3562 978.016 L33.8944 978.016 Q30.616 976.011 29.0564 973.21 Q27.4968 970.409 27.4968 966.558 Q27.4968 962.675 29.4702 959.969 Q31.4436 957.232 35.1993 955.927 Z" fill="#000000" fill-rule="nonzero" fill-opacity="1" /><path clip-path="url(#clip050)" d="M46.212 894.593 Q39.7508 894.593 36.0905 897.267 Q32.3984 899.909 32.3984 904.556 Q32.3984 909.203 36.0905 911.876 Q39.7508 914.518 46.212 914.518 Q52.6732 914.518 56.3653 911.876 Q60.0256 909.203 60.0256 904.556 Q60.0256 899.909 56.3653 897.267 Q52.6732 894.593 46.212 894.593 M33.7671 914.518 Q30.5842 912.672 29.0564 909.871 Q27.4968 907.038 27.4968 903.123 Q27.4968 896.63 32.6531 892.588 Q37.8093 888.514 46.212 888.514 Q54.6147 888.514 59.771 892.588 Q64.9272 896.63 64.9272 903.123 Q64.9272 907.038 63.3994 909.871 Q61.8398 912.672 58.657 914.518 L64.0042 914.518 L64.0042 920.406 L14.479 920.406 L14.479 914.518 L33.7671 914.518 Z" fill="#000000" fill-rule="nonzero" fill-opacity="1" /><path clip-path="url(#clip050)" d="M44.7161 848.315 L47.5806 848.315 L47.5806 875.242 Q53.6281 874.86 56.8109 871.613 Q59.9619 868.335 59.9619 862.51 Q59.9619 859.136 59.1344 855.985 Q58.3069 852.802 56.6518 849.683 L62.1899 849.683 Q63.5267 852.834 64.227 856.144 Q64.9272 859.455 64.9272 862.86 Q64.9272 871.39 59.9619 876.387 Q54.9967 881.353 46.5303 881.353 Q37.7774 881.353 32.6531 876.642 Q27.4968 871.9 27.4968 863.879 Q27.4968 856.686 32.1438 852.516 Q36.7589 848.315 44.7161 848.315 M42.9973 854.171 Q38.1912 854.235 35.3266 856.877 Q32.4621 859.486 32.4621 863.815 Q32.4621 868.717 35.2312 871.677 Q38.0002 874.605 43.0292 875.051 L42.9973 854.171 Z" fill="#000000" fill-rule="nonzero" fill-opacity="1" /><path clip-path="url(#clip050)" d="M33.8307 818.046 Q33.2578 819.032 33.0032 820.21 Q32.7167 821.356 32.7167 822.756 Q32.7167 827.722 35.9632 830.395 Q39.1779 833.037 45.2253 833.037 L64.0042 833.037 L64.0042 838.925 L28.3562 838.925 L28.3562 833.037 L33.8944 833.037 Q30.6479 831.191 29.0883 828.231 Q27.4968 825.271 27.4968 821.038 Q27.4968 820.433 27.5923 819.701 Q27.656 818.969 27.8151 818.078 L33.8307 818.046 Z" fill="#000000" fill-rule="nonzero" fill-opacity="1" /><path clip-path="url(#clip050)" d="M32.4621 777.369 Q32.4621 782.079 36.1542 784.817 Q39.8145 787.554 46.212 787.554 Q52.6095 787.554 56.3017 784.849 Q59.9619 782.111 59.9619 777.369 Q59.9619 772.69 56.2698 769.953 Q52.5777 767.216 46.212 767.216 Q39.8781 767.216 36.186 769.953 Q32.4621 772.69 32.4621 777.369 M27.4968 777.369 Q27.4968 769.73 32.4621 765.37 Q37.4273 761.009 46.212 761.009 Q54.9649 761.009 59.9619 765.37 Q64.9272 769.73 64.9272 777.369 Q64.9272 785.04 59.9619 789.4 Q54.9649 793.729 46.212 793.729 Q37.4273 793.729 32.4621 789.4 Q27.4968 785.04 27.4968 777.369 Z" fill="#000000" fill-rule="nonzero" fill-opacity="1" /><path clip-path="url(#clip050)" d="M14.479 733.255 L19.3487 733.255 L19.3487 738.856 Q19.3487 742.007 20.6219 743.249 Q21.895 744.458 25.2052 744.458 L28.3562 744.458 L28.3562 734.814 L32.9077 734.814 L32.9077 744.458 L64.0042 744.458 L64.0042 750.346 L32.9077 750.346 L32.9077 755.948 L28.3562 755.948 L28.3562 750.346 L25.8736 750.346 Q19.9216 750.346 17.2162 747.577 Q14.479 744.808 14.479 738.793 L14.479 733.255 Z" fill="#000000" fill-rule="nonzero" fill-opacity="1" /><path clip-path="url(#clip050)" d="M32.4621 693.819 Q32.4621 698.53 36.1542 701.267 Q39.8145 704.004 46.212 704.004 Q52.6095 704.004 56.3017 701.299 Q59.9619 698.561 59.9619 693.819 Q59.9619 689.14 56.2698 686.403 Q52.5777 683.666 46.212 683.666 Q39.8781 683.666 36.186 686.403 Q32.4621 689.14 32.4621 693.819 M27.4968 693.819 Q27.4968 686.18 32.4621 681.82 Q37.4273 677.459 46.212 677.459 Q54.9649 677.459 59.9619 681.82 Q64.9272 686.18 64.9272 693.819 Q64.9272 701.49 59.9619 705.85 Q54.9649 710.179 46.212 710.179 Q37.4273 710.179 32.4621 705.85 Q27.4968 701.49 27.4968 693.819 Z" fill="#000000" fill-rule="nonzero" fill-opacity="1" /><path clip-path="url(#clip050)" d="M49.9359 668.356 L28.3562 668.356 L28.3562 662.5 L49.7131 662.5 Q54.7739 662.5 57.3202 660.526 Q59.8346 658.553 59.8346 654.606 Q59.8346 649.864 56.8109 647.127 Q53.7872 644.357 48.5673 644.357 L28.3562 644.357 L28.3562 638.501 L64.0042 638.501 L64.0042 644.357 L58.5296 644.357 Q61.7762 646.49 63.3676 649.323 Q64.9272 652.124 64.9272 655.848 Q64.9272 661.99 61.1078 665.173 Q57.2883 668.356 49.9359 668.356 M27.4968 653.62 L27.4968 653.62 Z" fill="#000000" fill-rule="nonzero" fill-opacity="1" /><path clip-path="url(#clip050)" d="M18.2347 620.645 L28.3562 620.645 L28.3562 608.582 L32.9077 608.582 L32.9077 620.645 L52.2594 620.645 Q56.6199 620.645 57.8613 619.468 Q59.1026 618.258 59.1026 614.598 L59.1026 608.582 L64.0042 608.582 L64.0042 614.598 Q64.0042 621.377 61.4897 623.955 Q58.9434 626.533 52.2594 626.533 L32.9077 626.533 L32.9077 630.83 L28.3562 630.83 L28.3562 626.533 L18.2347 626.533 L18.2347 620.645 Z" fill="#000000" fill-rule="nonzero" fill-opacity="1" /><path clip-path="url(#clip050)" d="M29.7248 575.226 L35.1993 575.226 Q33.8307 577.708 33.1623 580.223 Q32.4621 582.706 32.4621 585.252 Q32.4621 590.949 36.0905 594.1 Q39.6872 597.251 46.212 597.251 Q52.7369 597.251 56.3653 594.1 Q59.9619 590.949 59.9619 585.252 Q59.9619 582.706 59.2935 580.223 Q58.5933 577.708 57.2247 575.226 L62.6355 575.226 Q63.7814 577.677 64.3543 580.318 Q64.9272 582.928 64.9272 585.888 Q64.9272 593.941 59.8664 598.683 Q54.8057 603.426 46.212 603.426 Q37.491 603.426 32.4939 598.652 Q27.4968 593.846 27.4968 585.506 Q27.4968 582.801 28.0697 580.223 Q28.6108 577.645 29.7248 575.226 Z" fill="#000000" fill-rule="nonzero" fill-opacity="1" /><path clip-path="url(#clip050)" d="M32.4621 551.227 Q32.4621 555.938 36.1542 558.675 Q39.8145 561.412 46.212 561.412 Q52.6095 561.412 56.3017 558.707 Q59.9619 555.97 59.9619 551.227 Q59.9619 546.548 56.2698 543.811 Q52.5777 541.074 46.212 541.074 Q39.8781 541.074 36.186 543.811 Q32.4621 546.548 32.4621 551.227 M27.4968 551.227 Q27.4968 543.588 32.4621 539.228 Q37.4273 534.867 46.212 534.867 Q54.9649 534.867 59.9619 539.228 Q64.9272 543.588 64.9272 551.227 Q64.9272 558.898 59.9619 563.258 Q54.9649 567.587 46.212 567.587 Q37.4273 567.587 32.4621 563.258 Q27.4968 558.898 27.4968 551.227 Z" fill="#000000" fill-rule="nonzero" fill-opacity="1" /><path clip-path="url(#clip050)" d="M35.1993 497.405 Q31.2526 495.209 29.3747 492.153 Q27.4968 489.098 27.4968 484.96 Q27.4968 479.39 31.4117 476.366 Q35.2948 473.343 42.4881 473.343 L64.0042 473.343 L64.0042 479.231 L42.679 479.231 Q37.5546 479.231 35.072 481.045 Q32.5894 482.859 32.5894 486.583 Q32.5894 491.135 35.6131 493.777 Q38.6368 496.418 43.8567 496.418 L64.0042 496.418 L64.0042 502.307 L42.679 502.307 Q37.5228 502.307 35.072 504.121 Q32.5894 505.935 32.5894 509.723 Q32.5894 514.211 35.6449 516.852 Q38.6686 519.494 43.8567 519.494 L64.0042 519.494 L64.0042 525.382 L28.3562 525.382 L28.3562 519.494 L33.8944 519.494 Q30.616 517.489 29.0564 514.688 Q27.4968 511.887 27.4968 508.036 Q27.4968 504.153 29.4702 501.447 Q31.4436 498.71 35.1993 497.405 Z" fill="#000000" fill-rule="nonzero" fill-opacity="1" /><path clip-path="url(#clip050)" d="M44.7161 431.17 L47.5806 431.17 L47.5806 458.097 Q53.6281 457.715 56.8109 454.468 Q59.9619 451.19 59.9619 445.365 Q59.9619 441.992 59.1344 438.841 Q58.3069 435.658 56.6518 432.539 L62.1899 432.539 Q63.5267 435.69 64.227 439 Q64.9272 442.31 64.9272 445.716 Q64.9272 454.246 59.9619 459.243 Q54.9967 464.208 46.5303 464.208 Q37.7774 464.208 32.6531 459.497 Q27.4968 454.755 27.4968 446.734 Q27.4968 439.541 32.1438 435.371 Q36.7589 431.17 44.7161 431.17 M42.9973 437.026 Q38.1912 437.09 35.3266 439.732 Q32.4621 442.342 32.4621 446.67 Q32.4621 451.572 35.2312 454.532 Q38.0002 457.46 43.0292 457.906 L42.9973 437.026 Z" fill="#000000" fill-rule="nonzero" fill-opacity="1" /><path clip-path="url(#clip050)" d="M29.4065 398.832 L34.9447 398.832 Q33.6716 401.315 33.035 403.988 Q32.3984 406.662 32.3984 409.527 Q32.3984 413.887 33.7352 416.083 Q35.072 418.248 37.7456 418.248 Q39.7826 418.248 40.9603 416.688 Q42.1061 415.128 43.1565 410.418 L43.6021 408.413 Q44.9389 402.174 47.3897 399.564 Q49.8086 396.922 54.1691 396.922 Q59.1344 396.922 62.0308 400.869 Q64.9272 404.784 64.9272 411.659 Q64.9272 414.524 64.3543 417.643 Q63.8132 420.73 62.6992 424.168 L56.6518 424.168 Q58.3387 420.921 59.198 417.77 Q60.0256 414.619 60.0256 411.532 Q60.0256 407.394 58.6251 405.166 Q57.1929 402.938 54.6147 402.938 Q52.2276 402.938 50.9545 404.561 Q49.6813 406.153 48.5037 411.595 L48.0262 413.632 Q46.8804 419.075 44.5251 421.494 Q42.138 423.913 38.0002 423.913 Q32.9713 423.913 30.2341 420.348 Q27.4968 416.783 27.4968 410.227 Q27.4968 406.98 27.9743 404.116 Q28.4517 401.251 29.4065 398.832 Z" fill="#000000" fill-rule="nonzero" fill-opacity="1" /><path clip-path="url(#clip052)" d="M323.245 1393.27 L323.245 1423.18 L514.383 1423.18 L514.383 1393.27 L323.245 1393.27 L323.245 1393.27  Z" fill="#009af9" fill-rule="evenodd" fill-opacity="1"/>
<polyline clip-path="url(#clip052)" style="stroke:#000000; stroke-linecap:round; stroke-linejoin:round; stroke-width:4; stroke-opacity:1; fill:none" points="323.245,1393.27 323.245,1423.18 514.383,1423.18 514.383,1393.27 323.245,1393.27 "/>
<path clip-path="url(#clip052)" d="M514.383 1273.62 L514.383 1423.18 L705.522 1423.18 L705.522 1273.62 L514.383 1273.62 L514.383 1273.62  Z" fill="#009af9" fill-rule="evenodd" fill-opacity="1"/>
<polyline clip-path="url(#clip052)" style="stroke:#000000; stroke-linecap:round; stroke-linejoin:round; stroke-width:4; stroke-opacity:1; fill:none" points="514.383,1273.62 514.383,1423.18 705.522,1423.18 705.522,1273.62 514.383,1273.62 "/>
<path clip-path="url(#clip052)" d="M705.522 1363.36 L705.522 1423.18 L896.661 1423.18 L896.661 1363.36 L705.522 1363.36 L705.522 1363.36  Z" fill="#009af9" fill-rule="evenodd" fill-opacity="1"/>
<polyline clip-path="url(#clip052)" style="stroke:#000000; stroke-linecap:round; stroke-linejoin:round; stroke-width:4; stroke-opacity:1; fill:none" points="705.522,1363.36 705.522,1423.18 896.661,1423.18 896.661,1363.36 705.522,1363.36 "/>
<path clip-path="url(#clip052)" d="M896.661 1183.89 L896.661 1423.18 L1087.8 1423.18 L1087.8 1183.89 L896.661 1183.89 L896.661 1183.89  Z" fill="#009af9" fill-rule="evenodd" fill-opacity="1"/>
<polyline clip-path="url(#clip052)" style="stroke:#000000; stroke-linecap:round; stroke-linejoin:round; stroke-width:4; stroke-opacity:1; fill:none" points="896.661,1183.89 896.661,1423.18 1087.8,1423.18 1087.8,1183.89 896.661,1183.89 "/>
<path clip-path="url(#clip052)" d="M1087.8 1243.71 L1087.8 1423.18 L1278.94 1423.18 L1278.94 1243.71 L1087.8 1243.71 L1087.8 1243.71  Z" fill="#009af9" fill-rule="evenodd" fill-opacity="1"/>
<polyline clip-path="url(#clip052)" style="stroke:#000000; stroke-linecap:round; stroke-linejoin:round; stroke-width:4; stroke-opacity:1; fill:none" points="1087.8,1243.71 1087.8,1423.18 1278.94,1423.18 1278.94,1243.71 1087.8,1243.71 "/>
<path clip-path="url(#clip052)" d="M1278.94 1213.8 L1278.94 1423.18 L1470.08 1423.18 L1470.08 1213.8 L1278.94 1213.8 L1278.94 1213.8  Z" fill="#009af9" fill-rule="evenodd" fill-opacity="1"/>
<polyline clip-path="url(#clip052)" style="stroke:#000000; stroke-linecap:round; stroke-linejoin:round; stroke-width:4; stroke-opacity:1; fill:none" points="1278.94,1213.8 1278.94,1423.18 1470.08,1423.18 1470.08,1213.8 1278.94,1213.8 "/>
<path clip-path="url(#clip052)" d="M1470.08 1124.06 L1470.08 1423.18 L1661.22 1423.18 L1661.22 1124.06 L1470.08 1124.06 L1470.08 1124.06  Z" fill="#009af9" fill-rule="evenodd" fill-opacity="1"/>
<polyline clip-path="url(#clip052)" style="stroke:#000000; stroke-linecap:round; stroke-linejoin:round; stroke-width:4; stroke-opacity:1; fill:none" points="1470.08,1124.06 1470.08,1423.18 1661.22,1423.18 1661.22,1124.06 1470.08,1124.06 "/>
<path clip-path="url(#clip052)" d="M1661.22 1243.71 L1661.22 1423.18 L1852.35 1423.18 L1852.35 1243.71 L1661.22 1243.71 L1661.22 1243.71  Z" fill="#009af9" fill-rule="evenodd" fill-opacity="1"/>
<polyline clip-path="url(#clip052)" style="stroke:#000000; stroke-linecap:round; stroke-linejoin:round; stroke-width:4; stroke-opacity:1; fill:none" points="1661.22,1243.71 1661.22,1423.18 1852.35,1423.18 1852.35,1243.71 1661.22,1243.71 "/>
<path clip-path="url(#clip052)" d="M1852.35 1153.98 L1852.35 1423.18 L2043.49 1423.18 L2043.49 1153.98 L1852.35 1153.98 L1852.35 1153.98  Z" fill="#009af9" fill-rule="evenodd" fill-opacity="1"/>
<polyline clip-path="url(#clip052)" style="stroke:#000000; stroke-linecap:round; stroke-linejoin:round; stroke-width:4; stroke-opacity:1; fill:none" points="1852.35,1153.98 1852.35,1423.18 2043.49,1423.18 2043.49,1153.98 1852.35,1153.98 "/>
<path clip-path="url(#clip052)" d="M2043.49 47.2441 L2043.49 1423.18 L2234.63 1423.18 L2234.63 47.2441 L2043.49 47.2441 L2043.49 47.2441  Z" fill="#009af9" fill-rule="evenodd" fill-opacity="1"/>
<polyline clip-path="url(#clip052)" style="stroke:#000000; stroke-linecap:round; stroke-linejoin:round; stroke-width:4; stroke-opacity:1; fill:none" points="2043.49,47.2441 2043.49,1423.18 2234.63,1423.18 2234.63,47.2441 2043.49,47.2441 "/>
<circle clip-path="url(#clip052)" style="fill:#009af9; stroke:none; fill-opacity:0" cx="418.814" cy="1393.27" r="2"/>
<circle clip-path="url(#clip052)" style="fill:#009af9; stroke:none; fill-opacity:0" cx="609.953" cy="1273.62" r="2"/>
<circle clip-path="url(#clip052)" style="fill:#009af9; stroke:none; fill-opacity:0" cx="801.092" cy="1363.36" r="2"/>
<circle clip-path="url(#clip052)" style="fill:#009af9; stroke:none; fill-opacity:0" cx="992.23" cy="1183.89" r="2"/>
<circle clip-path="url(#clip052)" style="fill:#009af9; stroke:none; fill-opacity:0" cx="1183.37" cy="1243.71" r="2"/>
<circle clip-path="url(#clip052)" style="fill:#009af9; stroke:none; fill-opacity:0" cx="1374.51" cy="1213.8" r="2"/>
<circle clip-path="url(#clip052)" style="fill:#009af9; stroke:none; fill-opacity:0" cx="1565.65" cy="1124.06" r="2"/>
<circle clip-path="url(#clip052)" style="fill:#009af9; stroke:none; fill-opacity:0" cx="1756.79" cy="1243.71" r="2"/>
<circle clip-path="url(#clip052)" style="fill:#009af9; stroke:none; fill-opacity:0" cx="1947.92" cy="1153.98" r="2"/>
<circle clip-path="url(#clip052)" style="fill:#009af9; stroke:none; fill-opacity:0" cx="2139.06" cy="47.2441" r="2"/>
<polyline clip-path="url(#clip052)" style="stroke:#e26f46; stroke-linecap:round; stroke-linejoin:round; stroke-width:12; stroke-opacity:1; fill:none" points="1720.52,2799.12 1720.52,-1328.69 "/>
<path clip-path="url(#clip050)" d="M276.709 196.789 L1017.7 196.789 L1017.7 93.1086 L276.709 93.1086  Z" fill="#ffffff" fill-rule="evenodd" fill-opacity="1"/>
<polyline clip-path="url(#clip050)" style="stroke:#000000; stroke-linecap:round; stroke-linejoin:round; stroke-width:4; stroke-opacity:1; fill:none" points="276.709,196.789 1017.7,196.789 1017.7,93.1086 276.709,93.1086 276.709,196.789 "/>
<polyline clip-path="url(#clip050)" style="stroke:#e26f46; stroke-linecap:round; stroke-linejoin:round; stroke-width:12; stroke-opacity:1; fill:none" points="300.571,144.949 443.747,144.949 "/>
<path clip-path="url(#clip050)" d="M467.61 127.669 L489.461 127.669 L489.461 131.604 L472.286 131.604 L472.286 141.835 L488.744 141.835 L488.744 145.77 L472.286 145.77 L472.286 158.293 L489.878 158.293 L489.878 162.229 L467.61 162.229 L467.61 127.669 Z" fill="#000000" fill-rule="nonzero" fill-opacity="1" /><path clip-path="url(#clip050)" d="M518.929 136.303 L509.554 148.919 L519.415 162.229 L514.392 162.229 L506.846 152.043 L499.299 162.229 L494.276 162.229 L504.346 148.664 L495.133 136.303 L500.156 136.303 L507.031 145.539 L513.906 136.303 L518.929 136.303 Z" fill="#000000" fill-rule="nonzero" fill-opacity="1" /><path clip-path="url(#clip050)" d="M529.554 158.34 L529.554 172.09 L525.271 172.09 L525.271 136.303 L529.554 136.303 L529.554 140.238 Q530.896 137.923 532.933 136.812 Q534.994 135.678 537.841 135.678 Q542.563 135.678 545.503 139.428 Q548.466 143.178 548.466 149.289 Q548.466 155.4 545.503 159.15 Q542.563 162.9 537.841 162.9 Q534.994 162.9 532.933 161.789 Q530.896 160.655 529.554 158.34 M544.044 149.289 Q544.044 144.59 542.1 141.928 Q540.179 139.243 536.799 139.243 Q533.42 139.243 531.475 141.928 Q529.554 144.59 529.554 149.289 Q529.554 153.988 531.475 156.673 Q533.42 159.335 536.799 159.335 Q540.179 159.335 542.1 156.673 Q544.044 153.988 544.044 149.289 Z" fill="#000000" fill-rule="nonzero" fill-opacity="1" /><path clip-path="url(#clip050)" d="M577.702 148.201 L577.702 150.284 L558.118 150.284 Q558.396 154.682 560.757 156.997 Q563.142 159.289 567.378 159.289 Q569.831 159.289 572.123 158.687 Q574.438 158.085 576.706 156.881 L576.706 160.909 Q574.415 161.881 572.007 162.391 Q569.6 162.9 567.123 162.9 Q560.919 162.9 557.285 159.289 Q553.674 155.678 553.674 149.52 Q553.674 143.155 557.1 139.428 Q560.549 135.678 566.382 135.678 Q571.614 135.678 574.646 139.057 Q577.702 142.414 577.702 148.201 M573.442 146.951 Q573.396 143.456 571.475 141.372 Q569.577 139.289 566.429 139.289 Q562.864 139.289 560.711 141.303 Q558.581 143.317 558.257 146.974 L573.442 146.951 Z" fill="#000000" fill-rule="nonzero" fill-opacity="1" /><path clip-path="url(#clip050)" d="M603.35 137.298 L603.35 141.28 Q601.544 140.284 599.715 139.798 Q597.91 139.289 596.058 139.289 Q591.915 139.289 589.623 141.928 Q587.331 144.544 587.331 149.289 Q587.331 154.034 589.623 156.673 Q591.915 159.289 596.058 159.289 Q597.91 159.289 599.715 158.803 Q601.544 158.293 603.35 157.298 L603.35 161.233 Q601.567 162.067 599.646 162.483 Q597.748 162.9 595.595 162.9 Q589.739 162.9 586.29 159.219 Q582.841 155.539 582.841 149.289 Q582.841 142.946 586.313 139.312 Q589.808 135.678 595.873 135.678 Q597.84 135.678 599.715 136.095 Q601.59 136.488 603.35 137.298 Z" fill="#000000" fill-rule="nonzero" fill-opacity="1" /><path clip-path="url(#clip050)" d="M614.97 128.942 L614.97 136.303 L623.743 136.303 L623.743 139.613 L614.97 139.613 L614.97 153.687 Q614.97 156.858 615.826 157.761 Q616.706 158.664 619.368 158.664 L623.743 158.664 L623.743 162.229 L619.368 162.229 Q614.438 162.229 612.563 160.4 Q610.688 158.548 610.688 153.687 L610.688 139.613 L607.563 139.613 L607.563 136.303 L610.688 136.303 L610.688 128.942 L614.97 128.942 Z" fill="#000000" fill-rule="nonzero" fill-opacity="1" /><path clip-path="url(#clip050)" d="M651.521 148.201 L651.521 150.284 L631.938 150.284 Q632.215 154.682 634.576 156.997 Q636.961 159.289 641.197 159.289 Q643.65 159.289 645.942 158.687 Q648.257 158.085 650.525 156.881 L650.525 160.909 Q648.234 161.881 645.826 162.391 Q643.419 162.9 640.942 162.9 Q634.738 162.9 631.104 159.289 Q627.493 155.678 627.493 149.52 Q627.493 143.155 630.919 139.428 Q634.368 135.678 640.201 135.678 Q645.433 135.678 648.465 139.057 Q651.521 142.414 651.521 148.201 M647.262 146.951 Q647.215 143.456 645.294 141.372 Q643.396 139.289 640.248 139.289 Q636.683 139.289 634.53 141.303 Q632.4 143.317 632.076 146.974 L647.262 146.951 Z" fill="#000000" fill-rule="nonzero" fill-opacity="1" /><path clip-path="url(#clip050)" d="M675.572 140.238 L675.572 126.21 L679.831 126.21 L679.831 162.229 L675.572 162.229 L675.572 158.34 Q674.229 160.655 672.169 161.789 Q670.132 162.9 667.261 162.9 Q662.562 162.9 659.599 159.15 Q656.66 155.4 656.66 149.289 Q656.66 143.178 659.599 139.428 Q662.562 135.678 667.261 135.678 Q670.132 135.678 672.169 136.812 Q674.229 137.923 675.572 140.238 M661.058 149.289 Q661.058 153.988 662.979 156.673 Q664.923 159.335 668.303 159.335 Q671.683 159.335 673.627 156.673 Q675.572 153.988 675.572 149.289 Q675.572 144.59 673.627 141.928 Q671.683 139.243 668.303 139.243 Q664.923 139.243 662.979 141.928 Q661.058 144.59 661.058 149.289 Z" fill="#000000" fill-rule="nonzero" fill-opacity="1" /><path clip-path="url(#clip050)" d="M707.794 158.34 L707.794 172.09 L703.511 172.09 L703.511 136.303 L707.794 136.303 L707.794 140.238 Q709.136 137.923 711.173 136.812 Q713.233 135.678 716.081 135.678 Q720.803 135.678 723.743 139.428 Q726.706 143.178 726.706 149.289 Q726.706 155.4 723.743 159.15 Q720.803 162.9 716.081 162.9 Q713.233 162.9 711.173 161.789 Q709.136 160.655 707.794 158.34 M722.284 149.289 Q722.284 144.59 720.34 141.928 Q718.419 139.243 715.039 139.243 Q711.659 139.243 709.715 141.928 Q707.794 144.59 707.794 149.289 Q707.794 153.988 709.715 156.673 Q711.659 159.335 715.039 159.335 Q718.419 159.335 720.34 156.673 Q722.284 153.988 722.284 149.289 Z" fill="#000000" fill-rule="nonzero" fill-opacity="1" /><path clip-path="url(#clip050)" d="M748.789 140.284 Q748.071 139.868 747.215 139.682 Q746.381 139.474 745.363 139.474 Q741.752 139.474 739.807 141.835 Q737.886 144.173 737.886 148.571 L737.886 162.229 L733.604 162.229 L733.604 136.303 L737.886 136.303 L737.886 140.331 Q739.229 137.969 741.381 136.835 Q743.534 135.678 746.613 135.678 Q747.053 135.678 747.585 135.747 Q748.117 135.794 748.766 135.909 L748.789 140.284 Z" fill="#000000" fill-rule="nonzero" fill-opacity="1" /><path clip-path="url(#clip050)" d="M762.261 139.289 Q758.835 139.289 756.844 141.974 Q754.854 144.636 754.854 149.289 Q754.854 153.942 756.821 156.627 Q758.812 159.289 762.261 159.289 Q765.664 159.289 767.654 156.604 Q769.645 153.918 769.645 149.289 Q769.645 144.682 767.654 141.997 Q765.664 139.289 762.261 139.289 M762.261 135.678 Q767.816 135.678 770.988 139.289 Q774.159 142.9 774.159 149.289 Q774.159 155.655 770.988 159.289 Q767.816 162.9 762.261 162.9 Q756.682 162.9 753.511 159.289 Q750.363 155.655 750.363 149.289 Q750.363 142.9 753.511 139.289 Q756.682 135.678 762.261 135.678 Z" fill="#000000" fill-rule="nonzero" fill-opacity="1" /><path clip-path="url(#clip050)" d="M794.344 126.21 L794.344 129.752 L790.27 129.752 Q787.978 129.752 787.076 130.678 Q786.196 131.604 786.196 134.011 L786.196 136.303 L793.21 136.303 L793.21 139.613 L786.196 139.613 L786.196 162.229 L781.914 162.229 L781.914 139.613 L777.84 139.613 L777.84 136.303 L781.914 136.303 L781.914 134.497 Q781.914 130.169 783.927 128.201 Q785.941 126.21 790.316 126.21 L794.344 126.21 Z" fill="#000000" fill-rule="nonzero" fill-opacity="1" /><path clip-path="url(#clip050)" d="M797.909 136.303 L802.168 136.303 L802.168 162.229 L797.909 162.229 L797.909 136.303 M797.909 126.21 L802.168 126.21 L802.168 131.604 L797.909 131.604 L797.909 126.21 Z" fill="#000000" fill-rule="nonzero" fill-opacity="1" /><path clip-path="url(#clip050)" d="M815.293 128.942 L815.293 136.303 L824.066 136.303 L824.066 139.613 L815.293 139.613 L815.293 153.687 Q815.293 156.858 816.149 157.761 Q817.029 158.664 819.691 158.664 L824.066 158.664 L824.066 162.229 L819.691 162.229 Q814.761 162.229 812.886 160.4 Q811.011 158.548 811.011 153.687 L811.011 139.613 L807.886 139.613 L807.886 136.303 L811.011 136.303 L811.011 128.942 L815.293 128.942 Z" fill="#000000" fill-rule="nonzero" fill-opacity="1" /><path clip-path="url(#clip050)" d="M854.969 126.257 Q851.867 131.581 850.362 136.789 Q848.858 141.997 848.858 147.344 Q848.858 152.692 850.362 157.946 Q851.89 163.178 854.969 168.479 L851.265 168.479 Q847.793 163.039 846.057 157.784 Q844.344 152.53 844.344 147.344 Q844.344 142.182 846.057 136.951 Q847.77 131.72 851.265 126.257 L854.969 126.257 Z" fill="#000000" fill-rule="nonzero" fill-opacity="1" /><path clip-path="url(#clip050)" d="M874.783 169.196 L872.469 169.196 L872.445 162.229 Q870.015 162.182 867.584 161.673 Q865.154 161.141 862.7 160.099 L862.7 155.932 Q865.061 157.414 867.469 158.178 Q869.899 158.918 872.469 158.942 L872.469 148.386 Q867.353 147.553 865.015 145.562 Q862.7 143.571 862.7 140.099 Q862.7 136.326 865.223 134.15 Q867.746 131.974 872.469 131.65 L872.469 126.21 L874.783 126.21 L874.783 131.581 Q876.936 131.673 878.95 132.044 Q880.964 132.391 882.885 133.016 L882.885 137.067 Q880.964 136.095 878.927 135.562 Q876.913 135.03 874.783 134.937 L874.783 144.821 Q880.038 145.631 882.515 147.715 Q884.992 149.798 884.992 153.409 Q884.992 157.321 882.353 159.59 Q879.737 161.835 874.783 162.182 L874.783 169.196 M872.469 144.405 L872.469 134.914 Q869.783 135.215 868.371 136.442 Q866.959 137.669 866.959 139.706 Q866.959 141.696 868.256 142.807 Q869.575 143.919 872.469 144.405 M874.783 148.849 L874.783 158.872 Q877.723 158.479 879.205 157.205 Q880.709 155.932 880.709 153.849 Q880.709 151.812 879.274 150.608 Q877.862 149.405 874.783 148.849 Z" fill="#000000" fill-rule="nonzero" fill-opacity="1" /><path clip-path="url(#clip050)" d="M894.043 127.669 L912.399 127.669 L912.399 131.604 L898.325 131.604 L898.325 140.076 Q899.343 139.729 900.362 139.567 Q901.381 139.382 902.399 139.382 Q908.186 139.382 911.566 142.553 Q914.945 145.724 914.945 151.141 Q914.945 156.719 911.473 159.821 Q908.001 162.9 901.681 162.9 Q899.506 162.9 897.237 162.53 Q894.992 162.159 892.584 161.418 L892.584 156.719 Q894.668 157.854 896.89 158.409 Q899.112 158.965 901.589 158.965 Q905.593 158.965 907.931 156.858 Q910.269 154.752 910.269 151.141 Q910.269 147.53 907.931 145.423 Q905.593 143.317 901.589 143.317 Q899.714 143.317 897.839 143.733 Q895.987 144.15 894.043 145.03 L894.043 127.669 Z" fill="#000000" fill-rule="nonzero" fill-opacity="1" /><path clip-path="url(#clip050)" d="M924.204 127.669 L942.561 127.669 L942.561 131.604 L928.487 131.604 L928.487 140.076 Q929.505 139.729 930.524 139.567 Q931.542 139.382 932.561 139.382 Q938.348 139.382 941.728 142.553 Q945.107 145.724 945.107 151.141 Q945.107 156.719 941.635 159.821 Q938.163 162.9 931.843 162.9 Q929.667 162.9 927.399 162.53 Q925.154 162.159 922.746 161.418 L922.746 156.719 Q924.829 157.854 927.052 158.409 Q929.274 158.965 931.751 158.965 Q935.755 158.965 938.093 156.858 Q940.431 154.752 940.431 151.141 Q940.431 147.53 938.093 145.423 Q935.755 143.317 931.751 143.317 Q929.876 143.317 928.001 143.733 Q926.149 144.15 924.204 145.03 L924.204 127.669 Z" fill="#000000" fill-rule="nonzero" fill-opacity="1" /><path clip-path="url(#clip050)" d="M964.32 145.817 Q960.987 145.817 959.065 147.599 Q957.167 149.381 957.167 152.506 Q957.167 155.631 959.065 157.414 Q960.987 159.196 964.32 159.196 Q967.653 159.196 969.575 157.414 Q971.496 155.608 971.496 152.506 Q971.496 149.381 969.575 147.599 Q967.676 145.817 964.32 145.817 M959.644 143.826 Q956.635 143.085 954.945 141.025 Q953.278 138.965 953.278 136.002 Q953.278 131.858 956.218 129.451 Q959.181 127.044 964.32 127.044 Q969.482 127.044 972.422 129.451 Q975.362 131.858 975.362 136.002 Q975.362 138.965 973.672 141.025 Q972.005 143.085 969.019 143.826 Q972.399 144.613 974.274 146.905 Q976.172 149.196 976.172 152.506 Q976.172 157.53 973.093 160.215 Q970.038 162.9 964.32 162.9 Q958.602 162.9 955.524 160.215 Q952.468 157.53 952.468 152.506 Q952.468 149.196 954.366 146.905 Q956.264 144.613 959.644 143.826 M957.931 136.442 Q957.931 139.127 959.598 140.632 Q961.288 142.136 964.32 142.136 Q967.329 142.136 969.019 140.632 Q970.732 139.127 970.732 136.442 Q970.732 133.757 969.019 132.252 Q967.329 130.747 964.32 130.747 Q961.288 130.747 959.598 132.252 Q957.931 133.757 957.931 136.442 Z" fill="#000000" fill-rule="nonzero" fill-opacity="1" /><path clip-path="url(#clip050)" d="M983.209 126.257 L986.912 126.257 Q990.385 131.72 992.098 136.951 Q993.834 142.182 993.834 147.344 Q993.834 152.53 992.098 157.784 Q990.385 163.039 986.912 168.479 L983.209 168.479 Q986.287 163.178 987.792 157.946 Q989.32 152.692 989.32 147.344 Q989.32 141.997 987.792 136.789 Q986.287 131.581 983.209 126.257 Z" fill="#000000" fill-rule="nonzero" fill-opacity="1" /></svg>
