<?xml version="1.0" encoding="utf-8"?>
<svg xmlns="http://www.w3.org/2000/svg" xmlns:xlink="http://www.w3.org/1999/xlink" width="600" height="400" viewBox="0 0 2400 1600">
<defs>
  <clipPath id="clip610">
    <rect x="0" y="0" width="2400" height="1600"/>
  </clipPath>
</defs>
<path clip-path="url(#clip610)" d="M0 1600 L2400 1600 L2400 0 L0 0  Z" fill="#ffffff" fill-rule="evenodd" fill-opacity="1"/>
<defs>
  <clipPath id="clip611">
    <rect x="138" y="47" width="2215" height="1377"/>
  </clipPath>
</defs>
<path clip-path="url(#clip610)" d="M138.959 1423.18 L2352.76 1423.18 L2352.76 47.2441 L138.959 47.2441  Z" fill="#ffffff" fill-rule="evenodd" fill-opacity="1"/>
<polyline clip-path="url(#clip611)" style="stroke:#000000; stroke-linecap:round; stroke-linejoin:round; stroke-width:2; stroke-opacity:0.1; fill:none" points="260.722,1423.18 260.722,47.2441 "/>
<polyline clip-path="url(#clip611)" style="stroke:#000000; stroke-linecap:round; stroke-linejoin:round; stroke-width:2; stroke-opacity:0.1; fill:none" points="698.56,1423.18 698.56,47.2441 "/>
<polyline clip-path="url(#clip611)" style="stroke:#000000; stroke-linecap:round; stroke-linejoin:round; stroke-width:2; stroke-opacity:0.1; fill:none" points="1136.4,1423.18 1136.4,47.2441 "/>
<polyline clip-path="url(#clip611)" style="stroke:#000000; stroke-linecap:round; stroke-linejoin:round; stroke-width:2; stroke-opacity:0.1; fill:none" points="1574.24,1423.18 1574.24,47.2441 "/>
<polyline clip-path="url(#clip611)" style="stroke:#000000; stroke-linecap:round; stroke-linejoin:round; stroke-width:2; stroke-opacity:0.1; fill:none" points="2012.07,1423.18 2012.07,47.2441 "/>
<polyline clip-path="url(#clip611)" style="stroke:#000000; stroke-linecap:round; stroke-linejoin:round; stroke-width:2; stroke-opacity:0.1; fill:none" points="138.959,1423.18 2352.76,1423.18 "/>
<polyline clip-path="url(#clip611)" style="stroke:#000000; stroke-linecap:round; stroke-linejoin:round; stroke-width:2; stroke-opacity:0.1; fill:none" points="138.959,964.535 2352.76,964.535 "/>
<polyline clip-path="url(#clip611)" style="stroke:#000000; stroke-linecap:round; stroke-linejoin:round; stroke-width:2; stroke-opacity:0.1; fill:none" points="138.959,505.889 2352.76,505.889 "/>
<polyline clip-path="url(#clip611)" style="stroke:#000000; stroke-linecap:round; stroke-linejoin:round; stroke-width:2; stroke-opacity:0.1; fill:none" points="138.959,47.2441 2352.76,47.2441 "/>
<polyline clip-path="url(#clip610)" style="stroke:#000000; stroke-linecap:round; stroke-linejoin:round; stroke-width:4; stroke-opacity:1; fill:none" points="138.959,1423.18 2352.76,1423.18 "/>
<polyline clip-path="url(#clip610)" style="stroke:#000000; stroke-linecap:round; stroke-linejoin:round; stroke-width:4; stroke-opacity:1; fill:none" points="260.722,1423.18 260.722,1404.28 "/>
<polyline clip-path="url(#clip610)" style="stroke:#000000; stroke-linecap:round; stroke-linejoin:round; stroke-width:4; stroke-opacity:1; fill:none" points="698.56,1423.18 698.56,1404.28 "/>
<polyline clip-path="url(#clip610)" style="stroke:#000000; stroke-linecap:round; stroke-linejoin:round; stroke-width:4; stroke-opacity:1; fill:none" points="1136.4,1423.18 1136.4,1404.28 "/>
<polyline clip-path="url(#clip610)" style="stroke:#000000; stroke-linecap:round; stroke-linejoin:round; stroke-width:4; stroke-opacity:1; fill:none" points="1574.24,1423.18 1574.24,1404.28 "/>
<polyline clip-path="url(#clip610)" style="stroke:#000000; stroke-linecap:round; stroke-linejoin:round; stroke-width:4; stroke-opacity:1; fill:none" points="2012.07,1423.18 2012.07,1404.28 "/>
<path clip-path="url(#clip610)" d="M220.329 1481.64 L227.968 1481.64 L227.968 1455.28 L219.658 1456.95 L219.658 1452.69 L227.921 1451.02 L232.597 1451.02 L232.597 1481.64 L240.236 1481.64 L240.236 1485.58 L220.329 1485.58 L220.329 1481.64 Z" fill="#000000" fill-rule="nonzero" fill-opacity="1" /><path clip-path="url(#clip610)" d="M260.259 1466.44 Q257.111 1466.44 255.259 1468.59 Q253.431 1470.74 253.431 1474.49 Q253.431 1478.22 255.259 1480.39 Q257.111 1482.55 260.259 1482.55 Q263.407 1482.55 265.236 1480.39 Q267.088 1478.22 267.088 1474.49 Q267.088 1470.74 265.236 1468.59 Q263.407 1466.44 260.259 1466.44 M269.542 1451.78 L269.542 1456.04 Q267.782 1455.21 265.977 1454.77 Q264.194 1454.33 262.435 1454.33 Q257.806 1454.33 255.352 1457.45 Q252.921 1460.58 252.574 1466.9 Q253.94 1464.89 256 1463.82 Q258.06 1462.73 260.537 1462.73 Q265.745 1462.73 268.755 1465.9 Q271.787 1469.05 271.787 1474.49 Q271.787 1479.82 268.639 1483.03 Q265.491 1486.25 260.259 1486.25 Q254.264 1486.25 251.093 1481.67 Q247.921 1477.06 247.921 1468.33 Q247.921 1460.14 251.81 1455.28 Q255.699 1450.39 262.25 1450.39 Q264.009 1450.39 265.792 1450.74 Q267.597 1451.09 269.542 1451.78 Z" fill="#000000" fill-rule="nonzero" fill-opacity="1" /><path clip-path="url(#clip610)" d="M289.842 1454.1 Q286.231 1454.1 284.403 1457.66 Q282.597 1461.2 282.597 1468.33 Q282.597 1475.44 284.403 1479.01 Q286.231 1482.55 289.842 1482.55 Q293.477 1482.55 295.282 1479.01 Q297.111 1475.44 297.111 1468.33 Q297.111 1461.2 295.282 1457.66 Q293.477 1454.1 289.842 1454.1 M289.842 1450.39 Q295.653 1450.39 298.708 1455 Q301.787 1459.58 301.787 1468.33 Q301.787 1477.06 298.708 1481.67 Q295.653 1486.25 289.842 1486.25 Q284.032 1486.25 280.954 1481.67 Q277.898 1477.06 277.898 1468.33 Q277.898 1459.58 280.954 1455 Q284.032 1450.39 289.842 1450.39 Z" fill="#000000" fill-rule="nonzero" fill-opacity="1" /><path clip-path="url(#clip610)" d="M658.167 1481.64 L665.806 1481.64 L665.806 1455.28 L657.496 1456.95 L657.496 1452.69 L665.759 1451.02 L670.435 1451.02 L670.435 1481.64 L678.074 1481.64 L678.074 1485.58 L658.167 1485.58 L658.167 1481.64 Z" fill="#000000" fill-rule="nonzero" fill-opacity="1" /><path clip-path="url(#clip610)" d="M697.519 1469.17 Q694.185 1469.17 692.264 1470.95 Q690.366 1472.73 690.366 1475.86 Q690.366 1478.98 692.264 1480.77 Q694.185 1482.55 697.519 1482.55 Q700.852 1482.55 702.773 1480.77 Q704.694 1478.96 704.694 1475.86 Q704.694 1472.73 702.773 1470.95 Q700.875 1469.17 697.519 1469.17 M692.843 1467.18 Q689.833 1466.44 688.144 1464.38 Q686.477 1462.32 686.477 1459.35 Q686.477 1455.21 689.417 1452.8 Q692.38 1450.39 697.519 1450.39 Q702.681 1450.39 705.62 1452.8 Q708.56 1455.21 708.56 1459.35 Q708.56 1462.32 706.87 1464.38 Q705.204 1466.44 702.218 1467.18 Q705.597 1467.96 707.472 1470.26 Q709.37 1472.55 709.37 1475.86 Q709.37 1480.88 706.292 1483.57 Q703.236 1486.25 697.519 1486.25 Q691.801 1486.25 688.722 1483.57 Q685.667 1480.88 685.667 1475.86 Q685.667 1472.55 687.565 1470.26 Q689.463 1467.96 692.843 1467.18 M691.13 1459.79 Q691.13 1462.48 692.796 1463.98 Q694.486 1465.49 697.519 1465.49 Q700.528 1465.49 702.218 1463.98 Q703.931 1462.48 703.931 1459.79 Q703.931 1457.11 702.218 1455.6 Q700.528 1454.1 697.519 1454.1 Q694.486 1454.1 692.796 1455.6 Q691.13 1457.11 691.13 1459.79 Z" fill="#000000" fill-rule="nonzero" fill-opacity="1" /><path clip-path="url(#clip610)" d="M727.68 1454.1 Q724.069 1454.1 722.241 1457.66 Q720.435 1461.2 720.435 1468.33 Q720.435 1475.44 722.241 1479.01 Q724.069 1482.55 727.68 1482.55 Q731.315 1482.55 733.12 1479.01 Q734.949 1475.44 734.949 1468.33 Q734.949 1461.2 733.12 1457.66 Q731.315 1454.1 727.68 1454.1 M727.68 1450.39 Q733.491 1450.39 736.546 1455 Q739.625 1459.58 739.625 1468.33 Q739.625 1477.06 736.546 1481.67 Q733.491 1486.25 727.68 1486.25 Q721.87 1486.25 718.792 1481.67 Q715.736 1477.06 715.736 1468.33 Q715.736 1459.58 718.792 1455 Q721.87 1450.39 727.68 1450.39 Z" fill="#000000" fill-rule="nonzero" fill-opacity="1" /><path clip-path="url(#clip610)" d="M1100.09 1481.64 L1116.41 1481.64 L1116.41 1485.58 L1094.47 1485.58 L1094.47 1481.64 Q1097.13 1478.89 1101.71 1474.26 Q1106.32 1469.61 1107.5 1468.27 Q1109.74 1465.74 1110.62 1464.01 Q1111.53 1462.25 1111.53 1460.56 Q1111.53 1457.8 1109.58 1456.07 Q1107.66 1454.33 1104.56 1454.33 Q1102.36 1454.33 1099.91 1455.09 Q1097.47 1455.86 1094.7 1457.41 L1094.7 1452.69 Q1097.52 1451.55 1099.97 1450.97 Q1102.43 1450.39 1104.47 1450.39 Q1109.84 1450.39 1113.03 1453.08 Q1116.22 1455.77 1116.22 1460.26 Q1116.22 1462.39 1115.41 1464.31 Q1114.63 1466.2 1112.52 1468.8 Q1111.94 1469.47 1108.84 1472.69 Q1105.74 1475.88 1100.09 1481.64 Z" fill="#000000" fill-rule="nonzero" fill-opacity="1" /><path clip-path="url(#clip610)" d="M1136.22 1454.1 Q1132.61 1454.1 1130.78 1457.66 Q1128.98 1461.2 1128.98 1468.33 Q1128.98 1475.44 1130.78 1479.01 Q1132.61 1482.55 1136.22 1482.55 Q1139.86 1482.55 1141.66 1479.01 Q1143.49 1475.44 1143.49 1468.33 Q1143.49 1461.2 1141.66 1457.66 Q1139.86 1454.1 1136.22 1454.1 M1136.22 1450.39 Q1142.03 1450.39 1145.09 1455 Q1148.17 1459.58 1148.17 1468.33 Q1148.17 1477.06 1145.09 1481.67 Q1142.03 1486.25 1136.22 1486.25 Q1130.41 1486.25 1127.34 1481.67 Q1124.28 1477.06 1124.28 1468.33 Q1124.28 1459.58 1127.34 1455 Q1130.41 1450.39 1136.22 1450.39 Z" fill="#000000" fill-rule="nonzero" fill-opacity="1" /><path clip-path="url(#clip610)" d="M1166.39 1454.1 Q1162.78 1454.1 1160.95 1457.66 Q1159.14 1461.2 1159.14 1468.33 Q1159.14 1475.44 1160.95 1479.01 Q1162.78 1482.55 1166.39 1482.55 Q1170.02 1482.55 1171.83 1479.01 Q1173.65 1475.44 1173.65 1468.33 Q1173.65 1461.2 1171.83 1457.66 Q1170.02 1454.1 1166.39 1454.1 M1166.39 1450.39 Q1172.2 1450.39 1175.25 1455 Q1178.33 1459.58 1178.33 1468.33 Q1178.33 1477.06 1175.25 1481.67 Q1172.2 1486.25 1166.39 1486.25 Q1160.58 1486.25 1157.5 1481.67 Q1154.44 1477.06 1154.44 1468.33 Q1154.44 1459.58 1157.5 1455 Q1160.58 1450.39 1166.39 1450.39 Z" fill="#000000" fill-rule="nonzero" fill-opacity="1" /><path clip-path="url(#clip610)" d="M1537.93 1481.64 L1554.25 1481.64 L1554.25 1485.58 L1532.3 1485.58 L1532.3 1481.64 Q1534.97 1478.89 1539.55 1474.26 Q1544.16 1469.61 1545.34 1468.27 Q1547.58 1465.74 1548.46 1464.01 Q1549.36 1462.25 1549.36 1460.56 Q1549.36 1457.8 1547.42 1456.07 Q1545.5 1454.33 1542.4 1454.33 Q1540.2 1454.33 1537.74 1455.09 Q1535.31 1455.86 1532.54 1457.41 L1532.54 1452.69 Q1535.36 1451.55 1537.81 1450.97 Q1540.27 1450.39 1542.3 1450.39 Q1547.67 1450.39 1550.87 1453.08 Q1554.06 1455.77 1554.06 1460.26 Q1554.06 1462.39 1553.25 1464.31 Q1552.47 1466.2 1550.36 1468.8 Q1549.78 1469.47 1546.68 1472.69 Q1543.58 1475.88 1537.93 1481.64 Z" fill="#000000" fill-rule="nonzero" fill-opacity="1" /><path clip-path="url(#clip610)" d="M1568.09 1481.64 L1584.41 1481.64 L1584.41 1485.58 L1562.47 1485.58 L1562.47 1481.64 Q1565.13 1478.89 1569.71 1474.26 Q1574.32 1469.61 1575.5 1468.27 Q1577.74 1465.74 1578.62 1464.01 Q1579.53 1462.25 1579.53 1460.56 Q1579.53 1457.8 1577.58 1456.07 Q1575.66 1454.33 1572.56 1454.33 Q1570.36 1454.33 1567.91 1455.09 Q1565.47 1455.86 1562.7 1457.41 L1562.7 1452.69 Q1565.52 1451.55 1567.97 1450.97 Q1570.43 1450.39 1572.47 1450.39 Q1577.84 1450.39 1581.03 1453.08 Q1584.22 1455.77 1584.22 1460.26 Q1584.22 1462.39 1583.41 1464.31 Q1582.63 1466.2 1580.52 1468.8 Q1579.94 1469.47 1576.84 1472.69 Q1573.74 1475.88 1568.09 1481.64 Z" fill="#000000" fill-rule="nonzero" fill-opacity="1" /><path clip-path="url(#clip610)" d="M1604.22 1454.1 Q1600.61 1454.1 1598.78 1457.66 Q1596.98 1461.2 1596.98 1468.33 Q1596.98 1475.44 1598.78 1479.01 Q1600.61 1482.55 1604.22 1482.55 Q1607.86 1482.55 1609.66 1479.01 Q1611.49 1475.44 1611.49 1468.33 Q1611.49 1461.2 1609.66 1457.66 Q1607.86 1454.1 1604.22 1454.1 M1604.22 1450.39 Q1610.03 1450.39 1613.09 1455 Q1616.17 1459.58 1616.17 1468.33 Q1616.17 1477.06 1613.09 1481.67 Q1610.03 1486.25 1604.22 1486.25 Q1598.41 1486.25 1595.34 1481.67 Q1592.28 1477.06 1592.28 1468.33 Q1592.28 1459.58 1595.34 1455 Q1598.41 1450.39 1604.22 1450.39 Z" fill="#000000" fill-rule="nonzero" fill-opacity="1" /><path clip-path="url(#clip610)" d="M1975.77 1481.64 L1992.09 1481.64 L1992.09 1485.58 L1970.14 1485.58 L1970.14 1481.64 Q1972.8 1478.89 1977.39 1474.26 Q1981.99 1469.61 1983.17 1468.27 Q1985.42 1465.74 1986.3 1464.01 Q1987.2 1462.25 1987.2 1460.56 Q1987.2 1457.8 1985.26 1456.07 Q1983.34 1454.33 1980.23 1454.33 Q1978.03 1454.33 1975.58 1455.09 Q1973.15 1455.86 1970.37 1457.41 L1970.37 1452.69 Q1973.2 1451.55 1975.65 1450.97 Q1978.1 1450.39 1980.14 1450.39 Q1985.51 1450.39 1988.71 1453.08 Q1991.9 1455.77 1991.9 1460.26 Q1991.9 1462.39 1991.09 1464.31 Q1990.3 1466.2 1988.2 1468.8 Q1987.62 1469.47 1984.52 1472.69 Q1981.41 1475.88 1975.77 1481.64 Z" fill="#000000" fill-rule="nonzero" fill-opacity="1" /><path clip-path="url(#clip610)" d="M2014.75 1455.09 L2002.94 1473.54 L2014.75 1473.54 L2014.75 1455.09 M2013.52 1451.02 L2019.4 1451.02 L2019.4 1473.54 L2024.33 1473.54 L2024.33 1477.43 L2019.4 1477.43 L2019.4 1485.58 L2014.75 1485.58 L2014.75 1477.43 L1999.15 1477.43 L1999.15 1472.92 L2013.52 1451.02 Z" fill="#000000" fill-rule="nonzero" fill-opacity="1" /><path clip-path="url(#clip610)" d="M2042.06 1454.1 Q2038.45 1454.1 2036.62 1457.66 Q2034.82 1461.2 2034.82 1468.33 Q2034.82 1475.44 2036.62 1479.01 Q2038.45 1482.55 2042.06 1482.55 Q2045.7 1482.55 2047.5 1479.01 Q2049.33 1475.44 2049.33 1468.33 Q2049.33 1461.2 2047.5 1457.66 Q2045.7 1454.1 2042.06 1454.1 M2042.06 1450.39 Q2047.87 1450.39 2050.93 1455 Q2054.01 1459.58 2054.01 1468.33 Q2054.01 1477.06 2050.93 1481.67 Q2047.87 1486.25 2042.06 1486.25 Q2036.25 1486.25 2033.17 1481.67 Q2030.12 1477.06 2030.12 1468.33 Q2030.12 1459.58 2033.17 1455 Q2036.25 1450.39 2042.06 1450.39 Z" fill="#000000" fill-rule="nonzero" fill-opacity="1" /><path clip-path="url(#clip610)" d="M1120.23 1525.81 L1120.23 1562.76 L1128 1562.76 Q1137.83 1562.76 1142.38 1558.3 Q1146.97 1553.85 1146.97 1544.24 Q1146.97 1534.69 1142.38 1530.26 Q1137.83 1525.81 1128 1525.81 L1120.23 1525.81 M1113.8 1520.52 L1127.01 1520.52 Q1140.82 1520.52 1147.28 1526.28 Q1153.75 1532.01 1153.75 1544.24 Q1153.75 1556.52 1147.25 1562.28 Q1140.76 1568.04 1127.01 1568.04 L1113.8 1568.04 L1113.8 1520.52 Z" fill="#000000" fill-rule="nonzero" fill-opacity="1" /><path clip-path="url(#clip610)" d="M1194.23 1548.76 L1194.23 1551.62 L1167.3 1551.62 Q1167.69 1557.67 1170.93 1560.85 Q1174.21 1564 1180.04 1564 Q1183.41 1564 1186.56 1563.17 Q1189.74 1562.35 1192.86 1560.69 L1192.86 1566.23 Q1189.71 1567.57 1186.4 1568.27 Q1183.09 1568.97 1179.69 1568.97 Q1171.16 1568.97 1166.16 1564 Q1161.19 1559.04 1161.19 1550.57 Q1161.19 1541.82 1165.9 1536.69 Q1170.65 1531.54 1178.67 1531.54 Q1185.86 1531.54 1190.03 1536.18 Q1194.23 1540.8 1194.23 1548.76 M1188.38 1547.04 Q1188.31 1542.23 1185.67 1539.37 Q1183.06 1536.5 1178.73 1536.5 Q1173.83 1536.5 1170.87 1539.27 Q1167.94 1542.04 1167.5 1547.07 L1188.38 1547.04 Z" fill="#000000" fill-rule="nonzero" fill-opacity="1" /><path clip-path="url(#clip610)" d="M1231.6 1539.24 Q1233.79 1535.29 1236.85 1533.41 Q1239.91 1531.54 1244.04 1531.54 Q1249.61 1531.54 1252.64 1535.45 Q1255.66 1539.33 1255.66 1546.53 L1255.66 1568.04 L1249.77 1568.04 L1249.77 1546.72 Q1249.77 1541.59 1247.96 1539.11 Q1246.14 1536.63 1242.42 1536.63 Q1237.87 1536.63 1235.23 1539.65 Q1232.59 1542.68 1232.59 1547.9 L1232.59 1568.04 L1226.7 1568.04 L1226.7 1546.72 Q1226.7 1541.56 1224.88 1539.11 Q1223.07 1536.63 1219.28 1536.63 Q1214.79 1536.63 1212.15 1539.68 Q1209.51 1542.71 1209.51 1547.9 L1209.51 1568.04 L1203.62 1568.04 L1203.62 1532.4 L1209.51 1532.4 L1209.51 1537.93 Q1211.51 1534.66 1214.32 1533.1 Q1217.12 1531.54 1220.97 1531.54 Q1224.85 1531.54 1227.56 1533.51 Q1230.29 1535.48 1231.6 1539.24 Z" fill="#000000" fill-rule="nonzero" fill-opacity="1" /><path clip-path="url(#clip610)" d="M1283.54 1550.12 Q1276.44 1550.12 1273.71 1551.75 Q1270.97 1553.37 1270.97 1557.29 Q1270.97 1560.4 1273.01 1562.25 Q1275.08 1564.07 1278.61 1564.07 Q1283.48 1564.07 1286.41 1560.63 Q1289.37 1557.16 1289.37 1551.43 L1289.37 1550.12 L1283.54 1550.12 M1295.22 1547.71 L1295.22 1568.04 L1289.37 1568.04 L1289.37 1562.63 Q1287.36 1565.88 1284.37 1567.44 Q1281.38 1568.97 1277.05 1568.97 Q1271.58 1568.97 1268.33 1565.91 Q1265.11 1562.82 1265.11 1557.67 Q1265.11 1551.65 1269.12 1548.6 Q1273.17 1545.54 1281.16 1545.54 L1289.37 1545.54 L1289.37 1544.97 Q1289.37 1540.93 1286.69 1538.73 Q1284.05 1536.5 1279.25 1536.5 Q1276.19 1536.5 1273.29 1537.23 Q1270.4 1537.97 1267.72 1539.43 L1267.72 1534.02 Q1270.94 1532.78 1273.96 1532.17 Q1276.99 1531.54 1279.85 1531.54 Q1287.58 1531.54 1291.4 1535.55 Q1295.22 1539.56 1295.22 1547.71 Z" fill="#000000" fill-rule="nonzero" fill-opacity="1" /><path clip-path="url(#clip610)" d="M1336.92 1546.53 L1336.92 1568.04 L1331.06 1568.04 L1331.06 1546.72 Q1331.06 1541.66 1329.09 1539.14 Q1327.12 1536.63 1323.17 1536.63 Q1318.43 1536.63 1315.69 1539.65 Q1312.95 1542.68 1312.95 1547.9 L1312.95 1568.04 L1307.06 1568.04 L1307.06 1532.4 L1312.95 1532.4 L1312.95 1537.93 Q1315.05 1534.72 1317.89 1533.13 Q1320.75 1531.54 1324.47 1531.54 Q1330.62 1531.54 1333.77 1535.36 Q1336.92 1539.14 1336.92 1546.53 Z" fill="#000000" fill-rule="nonzero" fill-opacity="1" /><path clip-path="url(#clip610)" d="M1372.06 1537.81 L1372.06 1518.52 L1377.91 1518.52 L1377.91 1568.04 L1372.06 1568.04 L1372.06 1562.7 Q1370.21 1565.88 1367.38 1567.44 Q1364.58 1568.97 1360.63 1568.97 Q1354.17 1568.97 1350.1 1563.81 Q1346.05 1558.65 1346.05 1550.25 Q1346.05 1541.85 1350.1 1536.69 Q1354.17 1531.54 1360.63 1531.54 Q1364.58 1531.54 1367.38 1533.1 Q1370.21 1534.62 1372.06 1537.81 M1352.1 1550.25 Q1352.1 1556.71 1354.74 1560.4 Q1357.42 1564.07 1362.06 1564.07 Q1366.71 1564.07 1369.38 1560.4 Q1372.06 1556.71 1372.06 1550.25 Q1372.06 1543.79 1369.38 1540.13 Q1366.71 1536.44 1362.06 1536.44 Q1357.42 1536.44 1354.74 1540.13 Q1352.1 1543.79 1352.1 1550.25 Z" fill="#000000" fill-rule="nonzero" fill-opacity="1" /><polyline clip-path="url(#clip610)" style="stroke:#000000; stroke-linecap:round; stroke-linejoin:round; stroke-width:4; stroke-opacity:1; fill:none" points="138.959,1423.18 138.959,47.2441 "/>
<polyline clip-path="url(#clip610)" style="stroke:#000000; stroke-linecap:round; stroke-linejoin:round; stroke-width:4; stroke-opacity:1; fill:none" points="138.959,1423.18 157.857,1423.18 "/>
<polyline clip-path="url(#clip610)" style="stroke:#000000; stroke-linecap:round; stroke-linejoin:round; stroke-width:4; stroke-opacity:1; fill:none" points="138.959,964.535 157.857,964.535 "/>
<polyline clip-path="url(#clip610)" style="stroke:#000000; stroke-linecap:round; stroke-linejoin:round; stroke-width:4; stroke-opacity:1; fill:none" points="138.959,505.889 157.857,505.889 "/>
<polyline clip-path="url(#clip610)" style="stroke:#000000; stroke-linecap:round; stroke-linejoin:round; stroke-width:4; stroke-opacity:1; fill:none" points="138.959,47.2441 157.857,47.2441 "/>
<path clip-path="url(#clip610)" d="M91.0151 1408.98 Q87.404 1408.98 85.5753 1412.54 Q83.7697 1416.08 83.7697 1423.21 Q83.7697 1430.32 85.5753 1433.89 Q87.404 1437.43 91.0151 1437.43 Q94.6493 1437.43 96.4548 1433.89 Q98.2835 1430.32 98.2835 1423.21 Q98.2835 1416.08 96.4548 1412.54 Q94.6493 1408.98 91.0151 1408.98 M91.0151 1405.27 Q96.8252 1405.27 99.8808 1409.88 Q102.959 1414.46 102.959 1423.21 Q102.959 1431.94 99.8808 1436.55 Q96.8252 1441.13 91.0151 1441.13 Q85.2049 1441.13 82.1262 1436.55 Q79.0707 1431.94 79.0707 1423.21 Q79.0707 1414.46 82.1262 1409.88 Q85.2049 1405.27 91.0151 1405.27 Z" fill="#000000" fill-rule="nonzero" fill-opacity="1" /><path clip-path="url(#clip610)" d="M82.0568 947.255 L100.413 947.255 L100.413 951.19 L86.3392 951.19 L86.3392 959.662 Q87.3577 959.315 88.3762 959.153 Q89.3947 958.967 90.4132 958.967 Q96.2002 958.967 99.5798 962.139 Q102.959 965.31 102.959 970.727 Q102.959 976.305 99.4872 979.407 Q96.015 982.486 89.6956 982.486 Q87.5197 982.486 85.2512 982.116 Q83.0058 981.745 80.5984 981.004 L80.5984 976.305 Q82.6818 977.44 84.904 977.995 Q87.1262 978.551 89.603 978.551 Q93.6076 978.551 95.9456 976.444 Q98.2835 974.338 98.2835 970.727 Q98.2835 967.116 95.9456 965.009 Q93.6076 962.903 89.603 962.903 Q87.728 962.903 85.8531 963.319 Q84.0012 963.736 82.0568 964.616 L82.0568 947.255 Z" fill="#000000" fill-rule="nonzero" fill-opacity="1" /><path clip-path="url(#clip610)" d="M51.6634 519.234 L59.3023 519.234 L59.3023 492.869 L50.9921 494.535 L50.9921 490.276 L59.256 488.609 L63.9319 488.609 L63.9319 519.234 L71.5707 519.234 L71.5707 523.169 L51.6634 523.169 L51.6634 519.234 Z" fill="#000000" fill-rule="nonzero" fill-opacity="1" /><path clip-path="url(#clip610)" d="M91.0151 491.688 Q87.404 491.688 85.5753 495.253 Q83.7697 498.794 83.7697 505.924 Q83.7697 513.031 85.5753 516.595 Q87.404 520.137 91.0151 520.137 Q94.6493 520.137 96.4548 516.595 Q98.2835 513.031 98.2835 505.924 Q98.2835 498.794 96.4548 495.253 Q94.6493 491.688 91.0151 491.688 M91.0151 487.984 Q96.8252 487.984 99.8808 492.591 Q102.959 497.174 102.959 505.924 Q102.959 514.651 99.8808 519.257 Q96.8252 523.841 91.0151 523.841 Q85.2049 523.841 82.1262 519.257 Q79.0707 514.651 79.0707 505.924 Q79.0707 497.174 82.1262 492.591 Q85.2049 487.984 91.0151 487.984 Z" fill="#000000" fill-rule="nonzero" fill-opacity="1" /><path clip-path="url(#clip610)" d="M52.6588 60.5889 L60.2976 60.5889 L60.2976 34.2233 L51.9875 35.89 L51.9875 31.6308 L60.2513 29.9641 L64.9272 29.9641 L64.9272 60.5889 L72.5661 60.5889 L72.5661 64.5241 L52.6588 64.5241 L52.6588 60.5889 Z" fill="#000000" fill-rule="nonzero" fill-opacity="1" /><path clip-path="url(#clip610)" d="M82.0568 29.9641 L100.413 29.9641 L100.413 33.8993 L86.3392 33.8993 L86.3392 42.3714 Q87.3577 42.0242 88.3762 41.8622 Q89.3947 41.677 90.4132 41.677 Q96.2002 41.677 99.5798 44.8483 Q102.959 48.0196 102.959 53.4362 Q102.959 59.0149 99.4872 62.1167 Q96.015 65.1954 89.6956 65.1954 Q87.5197 65.1954 85.2512 64.825 Q83.0058 64.4547 80.5984 63.7139 L80.5984 59.0149 Q82.6818 60.1491 84.904 60.7047 Q87.1262 61.2602 89.603 61.2602 Q93.6076 61.2602 95.9456 59.1538 Q98.2835 57.0473 98.2835 53.4362 Q98.2835 49.8251 95.9456 47.7186 Q93.6076 45.6122 89.603 45.6122 Q87.728 45.6122 85.8531 46.0288 Q84.0012 46.4455 82.0568 47.3251 L82.0568 29.9641 Z" fill="#000000" fill-rule="nonzero" fill-opacity="1" /><path clip-path="url(#clip611)" d="M260.722 1147.99 L260.722 1423.18 L370.182 1423.18 L370.182 1147.99 L260.722 1147.99 L260.722 1147.99  Z" fill="#009af9" fill-rule="evenodd" fill-opacity="1"/>
<polyline clip-path="url(#clip611)" style="stroke:#000000; stroke-linecap:round; stroke-linejoin:round; stroke-width:4; stroke-opacity:1; fill:none" points="260.722,1147.99 260.722,1423.18 370.182,1423.18 370.182,1147.99 260.722,1147.99 "/>
<path clip-path="url(#clip611)" d="M370.182 1239.72 L370.182 1423.18 L479.641 1423.18 L479.641 1239.72 L370.182 1239.72 L370.182 1239.72  Z" fill="#009af9" fill-rule="evenodd" fill-opacity="1"/>
<polyline clip-path="url(#clip611)" style="stroke:#000000; stroke-linecap:round; stroke-linejoin:round; stroke-width:4; stroke-opacity:1; fill:none" points="370.182,1239.72 370.182,1423.18 479.641,1423.18 479.641,1239.72 370.182,1239.72 "/>
<path clip-path="url(#clip611)" d="M479.641 1331.45 L479.641 1423.18 L589.101 1423.18 L589.101 1331.45 L479.641 1331.45 L479.641 1331.45  Z" fill="#009af9" fill-rule="evenodd" fill-opacity="1"/>
<polyline clip-path="url(#clip611)" style="stroke:#000000; stroke-linecap:round; stroke-linejoin:round; stroke-width:4; stroke-opacity:1; fill:none" points="479.641,1331.45 479.641,1423.18 589.101,1423.18 589.101,1331.45 479.641,1331.45 "/>
<path clip-path="url(#clip611)" d="M589.101 1147.99 L589.101 1423.18 L698.56 1423.18 L698.56 1147.99 L589.101 1147.99 L589.101 1147.99  Z" fill="#009af9" fill-rule="evenodd" fill-opacity="1"/>
<polyline clip-path="url(#clip611)" style="stroke:#000000; stroke-linecap:round; stroke-linejoin:round; stroke-width:4; stroke-opacity:1; fill:none" points="589.101,1147.99 589.101,1423.18 698.56,1423.18 698.56,1147.99 589.101,1147.99 "/>
<path clip-path="url(#clip611)" d="M698.56 872.806 L698.56 1423.18 L808.02 1423.18 L808.02 872.806 L698.56 872.806 L698.56 872.806  Z" fill="#009af9" fill-rule="evenodd" fill-opacity="1"/>
<polyline clip-path="url(#clip611)" style="stroke:#000000; stroke-linecap:round; stroke-linejoin:round; stroke-width:4; stroke-opacity:1; fill:none" points="698.56,872.806 698.56,1423.18 808.02,1423.18 808.02,872.806 698.56,872.806 "/>
<path clip-path="url(#clip611)" d="M808.02 689.347 L808.02 1423.18 L917.479 1423.18 L917.479 689.347 L808.02 689.347 L808.02 689.347  Z" fill="#009af9" fill-rule="evenodd" fill-opacity="1"/>
<polyline clip-path="url(#clip611)" style="stroke:#000000; stroke-linecap:round; stroke-linejoin:round; stroke-width:4; stroke-opacity:1; fill:none" points="808.02,689.347 808.02,1423.18 917.479,1423.18 917.479,689.347 808.02,689.347 "/>
<path clip-path="url(#clip611)" d="M917.479 322.431 L917.479 1423.18 L1026.94 1423.18 L1026.94 322.431 L917.479 322.431 L917.479 322.431  Z" fill="#009af9" fill-rule="evenodd" fill-opacity="1"/>
<polyline clip-path="url(#clip611)" style="stroke:#000000; stroke-linecap:round; stroke-linejoin:round; stroke-width:4; stroke-opacity:1; fill:none" points="917.479,322.431 917.479,1423.18 1026.94,1423.18 1026.94,322.431 917.479,322.431 "/>
<path clip-path="url(#clip611)" d="M1026.94 505.889 L1026.94 1423.18 L1136.4 1423.18 L1136.4 505.889 L1026.94 505.889 L1026.94 505.889  Z" fill="#009af9" fill-rule="evenodd" fill-opacity="1"/>
<polyline clip-path="url(#clip611)" style="stroke:#000000; stroke-linecap:round; stroke-linejoin:round; stroke-width:4; stroke-opacity:1; fill:none" points="1026.94,505.889 1026.94,1423.18 1136.4,1423.18 1136.4,505.889 1026.94,505.889 "/>
<path clip-path="url(#clip611)" d="M1136.4 872.806 L1136.4 1423.18 L1245.86 1423.18 L1245.86 872.806 L1136.4 872.806 L1136.4 872.806  Z" fill="#009af9" fill-rule="evenodd" fill-opacity="1"/>
<polyline clip-path="url(#clip611)" style="stroke:#000000; stroke-linecap:round; stroke-linejoin:round; stroke-width:4; stroke-opacity:1; fill:none" points="1136.4,872.806 1136.4,1423.18 1245.86,1423.18 1245.86,872.806 1136.4,872.806 "/>
<path clip-path="url(#clip611)" d="M1245.86 689.347 L1245.86 1423.18 L1355.32 1423.18 L1355.32 689.347 L1245.86 689.347 L1245.86 689.347  Z" fill="#009af9" fill-rule="evenodd" fill-opacity="1"/>
<polyline clip-path="url(#clip611)" style="stroke:#000000; stroke-linecap:round; stroke-linejoin:round; stroke-width:4; stroke-opacity:1; fill:none" points="1245.86,689.347 1245.86,1423.18 1355.32,1423.18 1355.32,689.347 1245.86,689.347 "/>
<path clip-path="url(#clip611)" d="M1355.32 47.2441 L1355.32 1423.18 L1464.78 1423.18 L1464.78 47.2441 L1355.32 47.2441 L1355.32 47.2441  Z" fill="#009af9" fill-rule="evenodd" fill-opacity="1"/>
<polyline clip-path="url(#clip611)" style="stroke:#000000; stroke-linecap:round; stroke-linejoin:round; stroke-width:4; stroke-opacity:1; fill:none" points="1355.32,47.2441 1355.32,1423.18 1464.78,1423.18 1464.78,47.2441 1355.32,47.2441 "/>
<path clip-path="url(#clip611)" d="M1464.78 781.076 L1464.78 1423.18 L1574.24 1423.18 L1574.24 781.076 L1464.78 781.076 L1464.78 781.076  Z" fill="#009af9" fill-rule="evenodd" fill-opacity="1"/>
<polyline clip-path="url(#clip611)" style="stroke:#000000; stroke-linecap:round; stroke-linejoin:round; stroke-width:4; stroke-opacity:1; fill:none" points="1464.78,781.076 1464.78,1423.18 1574.24,1423.18 1574.24,781.076 1464.78,781.076 "/>
<path clip-path="url(#clip611)" d="M1574.24 689.347 L1574.24 1423.18 L1683.7 1423.18 L1683.7 689.347 L1574.24 689.347 L1574.24 689.347  Z" fill="#009af9" fill-rule="evenodd" fill-opacity="1"/>
<polyline clip-path="url(#clip611)" style="stroke:#000000; stroke-linecap:round; stroke-linejoin:round; stroke-width:4; stroke-opacity:1; fill:none" points="1574.24,689.347 1574.24,1423.18 1683.7,1423.18 1683.7,689.347 1574.24,689.347 "/>
<path clip-path="url(#clip611)" d="M1683.7 781.076 L1683.7 1423.18 L1793.16 1423.18 L1793.16 781.076 L1683.7 781.076 L1683.7 781.076  Z" fill="#009af9" fill-rule="evenodd" fill-opacity="1"/>
<polyline clip-path="url(#clip611)" style="stroke:#000000; stroke-linecap:round; stroke-linejoin:round; stroke-width:4; stroke-opacity:1; fill:none" points="1683.7,781.076 1683.7,1423.18 1793.16,1423.18 1793.16,781.076 1683.7,781.076 "/>
<path clip-path="url(#clip611)" d="M1793.16 1147.99 L1793.16 1423.18 L1902.61 1423.18 L1902.61 1147.99 L1793.16 1147.99 L1793.16 1147.99  Z" fill="#009af9" fill-rule="evenodd" fill-opacity="1"/>
<polyline clip-path="url(#clip611)" style="stroke:#000000; stroke-linecap:round; stroke-linejoin:round; stroke-width:4; stroke-opacity:1; fill:none" points="1793.16,1147.99 1793.16,1423.18 1902.61,1423.18 1902.61,1147.99 1793.16,1147.99 "/>
<path clip-path="url(#clip611)" d="M1902.61 1423.18 L1902.61 1423.18 L2012.07 1423.18 L2012.07 1423.18 L1902.61 1423.18 L1902.61 1423.18  Z" fill="#009af9" fill-rule="evenodd" fill-opacity="1"/>
<polyline clip-path="url(#clip611)" style="stroke:#000000; stroke-linecap:round; stroke-linejoin:round; stroke-width:4; stroke-opacity:1; fill:none" points="1902.61,1423.18 1902.61,1423.18 2012.07,1423.18 1902.61,1423.18 "/>
<path clip-path="url(#clip611)" d="M2012.07 1423.18 L2012.07 1423.18 L2121.53 1423.18 L2121.53 1423.18 L2012.07 1423.18 L2012.07 1423.18  Z" fill="#009af9" fill-rule="evenodd" fill-opacity="1"/>
<polyline clip-path="url(#clip611)" style="stroke:#000000; stroke-linecap:round; stroke-linejoin:round; stroke-width:4; stroke-opacity:1; fill:none" points="2012.07,1423.18 2012.07,1423.18 2121.53,1423.18 2012.07,1423.18 "/>
<path clip-path="url(#clip611)" d="M2121.53 1331.45 L2121.53 1423.18 L2230.99 1423.18 L2230.99 1331.45 L2121.53 1331.45 L2121.53 1331.45  Z" fill="#009af9" fill-rule="evenodd" fill-opacity="1"/>
<polyline clip-path="url(#clip611)" style="stroke:#000000; stroke-linecap:round; stroke-linejoin:round; stroke-width:4; stroke-opacity:1; fill:none" points="2121.53,1331.45 2121.53,1423.18 2230.99,1423.18 2230.99,1331.45 2121.53,1331.45 "/>
<circle clip-path="url(#clip611)" style="fill:#009af9; stroke:none; fill-opacity:0" cx="315.452" cy="1147.99" r="2"/>
<circle clip-path="url(#clip611)" style="fill:#009af9; stroke:none; fill-opacity:0" cx="424.911" cy="1239.72" r="2"/>
<circle clip-path="url(#clip611)" style="fill:#009af9; stroke:none; fill-opacity:0" cx="534.371" cy="1331.45" r="2"/>
<circle clip-path="url(#clip611)" style="fill:#009af9; stroke:none; fill-opacity:0" cx="643.83" cy="1147.99" r="2"/>
<circle clip-path="url(#clip611)" style="fill:#009af9; stroke:none; fill-opacity:0" cx="753.29" cy="872.806" r="2"/>
<circle clip-path="url(#clip611)" style="fill:#009af9; stroke:none; fill-opacity:0" cx="862.749" cy="689.347" r="2"/>
<circle clip-path="url(#clip611)" style="fill:#009af9; stroke:none; fill-opacity:0" cx="972.209" cy="322.431" r="2"/>
<circle clip-path="url(#clip611)" style="fill:#009af9; stroke:none; fill-opacity:0" cx="1081.67" cy="505.889" r="2"/>
<circle clip-path="url(#clip611)" style="fill:#009af9; stroke:none; fill-opacity:0" cx="1191.13" cy="872.806" r="2"/>
<circle clip-path="url(#clip611)" style="fill:#009af9; stroke:none; fill-opacity:0" cx="1300.59" cy="689.347" r="2"/>
<circle clip-path="url(#clip611)" style="fill:#009af9; stroke:none; fill-opacity:0" cx="1410.05" cy="47.2441" r="2"/>
<circle clip-path="url(#clip611)" style="fill:#009af9; stroke:none; fill-opacity:0" cx="1519.51" cy="781.076" r="2"/>
<circle clip-path="url(#clip611)" style="fill:#009af9; stroke:none; fill-opacity:0" cx="1628.97" cy="689.347" r="2"/>
<circle clip-path="url(#clip611)" style="fill:#009af9; stroke:none; fill-opacity:0" cx="1738.43" cy="781.076" r="2"/>
<circle clip-path="url(#clip611)" style="fill:#009af9; stroke:none; fill-opacity:0" cx="1847.88" cy="1147.99" r="2"/>
<circle clip-path="url(#clip611)" style="fill:#009af9; stroke:none; fill-opacity:0" cx="1957.34" cy="1423.18" r="2"/>
<circle clip-path="url(#clip611)" style="fill:#009af9; stroke:none; fill-opacity:0" cx="2066.8" cy="1423.18" r="2"/>
<circle clip-path="url(#clip611)" style="fill:#009af9; stroke:none; fill-opacity:0" cx="2176.26" cy="1331.45" r="2"/>
</svg>
