<?xml version="1.0" encoding="utf-8"?>
<svg xmlns="http://www.w3.org/2000/svg" xmlns:xlink="http://www.w3.org/1999/xlink" width="600" height="400" viewBox="0 0 2400 1600">
<defs>
  <clipPath id="clip400">
    <rect x="0" y="0" width="2400" height="1600"/>
  </clipPath>
</defs>
<path clip-path="url(#clip400)" d="M0 1600 L2400 1600 L2400 0 L0 0  Z" fill="#ffffff" fill-rule="evenodd" fill-opacity="1"/>
<defs>
  <clipPath id="clip401">
    <rect x="480" y="0" width="1681" height="1600"/>
  </clipPath>
</defs>
<path clip-path="url(#clip400)" d="M138.959 1423.18 L2352.76 1423.18 L2352.76 47.2441 L138.959 47.2441  Z" fill="#ffffff" fill-rule="evenodd" fill-opacity="1"/>
<defs>
  <clipPath id="clip402">
    <rect x="138" y="47" width="2215" height="1377"/>
  </clipPath>
</defs>
<polyline clip-path="url(#clip402)" style="stroke:#000000; stroke-linecap:round; stroke-linejoin:round; stroke-width:2; stroke-opacity:0.1; fill:none" points="457.749,1423.18 457.749,47.2441 "/>
<polyline clip-path="url(#clip402)" style="stroke:#000000; stroke-linecap:round; stroke-linejoin:round; stroke-width:2; stroke-opacity:0.1; fill:none" points="851.803,1423.18 851.803,47.2441 "/>
<polyline clip-path="url(#clip402)" style="stroke:#000000; stroke-linecap:round; stroke-linejoin:round; stroke-width:2; stroke-opacity:0.1; fill:none" points="1245.86,1423.18 1245.86,47.2441 "/>
<polyline clip-path="url(#clip402)" style="stroke:#000000; stroke-linecap:round; stroke-linejoin:round; stroke-width:2; stroke-opacity:0.1; fill:none" points="1639.91,1423.18 1639.91,47.2441 "/>
<polyline clip-path="url(#clip402)" style="stroke:#000000; stroke-linecap:round; stroke-linejoin:round; stroke-width:2; stroke-opacity:0.1; fill:none" points="2033.97,1423.18 2033.97,47.2441 "/>
<polyline clip-path="url(#clip402)" style="stroke:#000000; stroke-linecap:round; stroke-linejoin:round; stroke-width:2; stroke-opacity:0.1; fill:none" points="138.959,1423.18 2352.76,1423.18 "/>
<polyline clip-path="url(#clip402)" style="stroke:#000000; stroke-linecap:round; stroke-linejoin:round; stroke-width:2; stroke-opacity:0.1; fill:none" points="138.959,1211.5 2352.76,1211.5 "/>
<polyline clip-path="url(#clip402)" style="stroke:#000000; stroke-linecap:round; stroke-linejoin:round; stroke-width:2; stroke-opacity:0.1; fill:none" points="138.959,999.815 2352.76,999.815 "/>
<polyline clip-path="url(#clip402)" style="stroke:#000000; stroke-linecap:round; stroke-linejoin:round; stroke-width:2; stroke-opacity:0.1; fill:none" points="138.959,788.133 2352.76,788.133 "/>
<polyline clip-path="url(#clip402)" style="stroke:#000000; stroke-linecap:round; stroke-linejoin:round; stroke-width:2; stroke-opacity:0.1; fill:none" points="138.959,576.45 2352.76,576.45 "/>
<polyline clip-path="url(#clip402)" style="stroke:#000000; stroke-linecap:round; stroke-linejoin:round; stroke-width:2; stroke-opacity:0.1; fill:none" points="138.959,364.768 2352.76,364.768 "/>
<polyline clip-path="url(#clip402)" style="stroke:#000000; stroke-linecap:round; stroke-linejoin:round; stroke-width:2; stroke-opacity:0.1; fill:none" points="138.959,153.085 2352.76,153.085 "/>
<polyline clip-path="url(#clip400)" style="stroke:#000000; stroke-linecap:round; stroke-linejoin:round; stroke-width:4; stroke-opacity:1; fill:none" points="138.959,1423.18 2352.76,1423.18 "/>
<polyline clip-path="url(#clip400)" style="stroke:#000000; stroke-linecap:round; stroke-linejoin:round; stroke-width:4; stroke-opacity:1; fill:none" points="457.749,1423.18 457.749,1404.28 "/>
<polyline clip-path="url(#clip400)" style="stroke:#000000; stroke-linecap:round; stroke-linejoin:round; stroke-width:4; stroke-opacity:1; fill:none" points="851.803,1423.18 851.803,1404.28 "/>
<polyline clip-path="url(#clip400)" style="stroke:#000000; stroke-linecap:round; stroke-linejoin:round; stroke-width:4; stroke-opacity:1; fill:none" points="1245.86,1423.18 1245.86,1404.28 "/>
<polyline clip-path="url(#clip400)" style="stroke:#000000; stroke-linecap:round; stroke-linejoin:round; stroke-width:4; stroke-opacity:1; fill:none" points="1639.91,1423.18 1639.91,1404.28 "/>
<polyline clip-path="url(#clip400)" style="stroke:#000000; stroke-linecap:round; stroke-linejoin:round; stroke-width:4; stroke-opacity:1; fill:none" points="2033.97,1423.18 2033.97,1404.28 "/>
<path clip-path="url(#clip400)" d="M417.356 1481.64 L424.995 1481.64 L424.995 1455.28 L416.685 1456.95 L416.685 1452.69 L424.949 1451.02 L429.624 1451.02 L429.624 1481.64 L437.263 1481.64 L437.263 1485.58 L417.356 1485.58 L417.356 1481.64 Z" fill="#000000" fill-rule="nonzero" fill-opacity="1" /><path clip-path="url(#clip400)" d="M457.286 1466.44 Q454.138 1466.44 452.286 1468.59 Q450.458 1470.74 450.458 1474.49 Q450.458 1478.22 452.286 1480.39 Q454.138 1482.55 457.286 1482.55 Q460.434 1482.55 462.263 1480.39 Q464.115 1478.22 464.115 1474.49 Q464.115 1470.74 462.263 1468.59 Q460.434 1466.44 457.286 1466.44 M466.569 1451.78 L466.569 1456.04 Q464.809 1455.21 463.004 1454.77 Q461.221 1454.33 459.462 1454.33 Q454.833 1454.33 452.379 1457.45 Q449.948 1460.58 449.601 1466.9 Q450.967 1464.89 453.027 1463.82 Q455.087 1462.73 457.564 1462.73 Q462.772 1462.73 465.782 1465.9 Q468.814 1469.05 468.814 1474.49 Q468.814 1479.82 465.666 1483.03 Q462.518 1486.25 457.286 1486.25 Q451.291 1486.25 448.12 1481.67 Q444.948 1477.06 444.948 1468.33 Q444.948 1460.14 448.837 1455.28 Q452.726 1450.39 459.277 1450.39 Q461.036 1450.39 462.819 1450.74 Q464.624 1451.09 466.569 1451.78 Z" fill="#000000" fill-rule="nonzero" fill-opacity="1" /><path clip-path="url(#clip400)" d="M486.869 1454.1 Q483.258 1454.1 481.43 1457.66 Q479.624 1461.2 479.624 1468.33 Q479.624 1475.44 481.43 1479.01 Q483.258 1482.55 486.869 1482.55 Q490.504 1482.55 492.309 1479.01 Q494.138 1475.44 494.138 1468.33 Q494.138 1461.2 492.309 1457.66 Q490.504 1454.1 486.869 1454.1 M486.869 1450.39 Q492.68 1450.39 495.735 1455 Q498.814 1459.58 498.814 1468.33 Q498.814 1477.06 495.735 1481.67 Q492.68 1486.25 486.869 1486.25 Q481.059 1486.25 477.981 1481.67 Q474.925 1477.06 474.925 1468.33 Q474.925 1459.58 477.981 1455 Q481.059 1450.39 486.869 1450.39 Z" fill="#000000" fill-rule="nonzero" fill-opacity="1" /><path clip-path="url(#clip400)" d="M811.41 1481.64 L819.049 1481.64 L819.049 1455.28 L810.739 1456.95 L810.739 1452.69 L819.003 1451.02 L823.679 1451.02 L823.679 1481.64 L831.317 1481.64 L831.317 1485.58 L811.41 1485.58 L811.41 1481.64 Z" fill="#000000" fill-rule="nonzero" fill-opacity="1" /><path clip-path="url(#clip400)" d="M850.762 1469.17 Q847.429 1469.17 845.507 1470.95 Q843.609 1472.73 843.609 1475.86 Q843.609 1478.98 845.507 1480.77 Q847.429 1482.55 850.762 1482.55 Q854.095 1482.55 856.016 1480.77 Q857.938 1478.96 857.938 1475.86 Q857.938 1472.73 856.016 1470.95 Q854.118 1469.17 850.762 1469.17 M846.086 1467.18 Q843.077 1466.44 841.387 1464.38 Q839.72 1462.32 839.72 1459.35 Q839.72 1455.21 842.66 1452.8 Q845.623 1450.39 850.762 1450.39 Q855.924 1450.39 858.864 1452.8 Q861.803 1455.21 861.803 1459.35 Q861.803 1462.32 860.114 1464.38 Q858.447 1466.44 855.461 1467.18 Q858.84 1467.96 860.715 1470.26 Q862.614 1472.55 862.614 1475.86 Q862.614 1480.88 859.535 1483.57 Q856.479 1486.25 850.762 1486.25 Q845.044 1486.25 841.966 1483.57 Q838.91 1480.88 838.91 1475.86 Q838.91 1472.55 840.808 1470.26 Q842.706 1467.96 846.086 1467.18 M844.373 1459.79 Q844.373 1462.48 846.04 1463.98 Q847.729 1465.49 850.762 1465.49 Q853.771 1465.49 855.461 1463.98 Q857.174 1462.48 857.174 1459.79 Q857.174 1457.11 855.461 1455.6 Q853.771 1454.1 850.762 1454.1 Q847.729 1454.1 846.04 1455.6 Q844.373 1457.11 844.373 1459.79 Z" fill="#000000" fill-rule="nonzero" fill-opacity="1" /><path clip-path="url(#clip400)" d="M880.924 1454.1 Q877.313 1454.1 875.484 1457.66 Q873.678 1461.2 873.678 1468.33 Q873.678 1475.44 875.484 1479.01 Q877.313 1482.55 880.924 1482.55 Q884.558 1482.55 886.363 1479.01 Q888.192 1475.44 888.192 1468.33 Q888.192 1461.2 886.363 1457.66 Q884.558 1454.1 880.924 1454.1 M880.924 1450.39 Q886.734 1450.39 889.789 1455 Q892.868 1459.58 892.868 1468.33 Q892.868 1477.06 889.789 1481.67 Q886.734 1486.25 880.924 1486.25 Q875.114 1486.25 872.035 1481.67 Q868.979 1477.06 868.979 1468.33 Q868.979 1459.58 872.035 1455 Q875.114 1450.39 880.924 1450.39 Z" fill="#000000" fill-rule="nonzero" fill-opacity="1" /><path clip-path="url(#clip400)" d="M1209.55 1481.64 L1225.87 1481.64 L1225.87 1485.58 L1203.93 1485.58 L1203.93 1481.64 Q1206.59 1478.89 1211.17 1474.26 Q1215.78 1469.61 1216.96 1468.27 Q1219.2 1465.74 1220.08 1464.01 Q1220.99 1462.25 1220.99 1460.56 Q1220.99 1457.8 1219.04 1456.07 Q1217.12 1454.33 1214.02 1454.33 Q1211.82 1454.33 1209.36 1455.09 Q1206.93 1455.86 1204.16 1457.41 L1204.16 1452.69 Q1206.98 1451.55 1209.43 1450.97 Q1211.89 1450.39 1213.92 1450.39 Q1219.3 1450.39 1222.49 1453.08 Q1225.68 1455.77 1225.68 1460.26 Q1225.68 1462.39 1224.87 1464.31 Q1224.09 1466.2 1221.98 1468.8 Q1221.4 1469.47 1218.3 1472.69 Q1215.2 1475.88 1209.55 1481.64 Z" fill="#000000" fill-rule="nonzero" fill-opacity="1" /><path clip-path="url(#clip400)" d="M1245.68 1454.1 Q1242.07 1454.1 1240.24 1457.66 Q1238.44 1461.2 1238.44 1468.33 Q1238.44 1475.44 1240.24 1479.01 Q1242.07 1482.55 1245.68 1482.55 Q1249.32 1482.55 1251.12 1479.01 Q1252.95 1475.44 1252.95 1468.33 Q1252.95 1461.2 1251.12 1457.66 Q1249.32 1454.1 1245.68 1454.1 M1245.68 1450.39 Q1251.49 1450.39 1254.55 1455 Q1257.63 1459.58 1257.63 1468.33 Q1257.63 1477.06 1254.55 1481.67 Q1251.49 1486.25 1245.68 1486.25 Q1239.87 1486.25 1236.8 1481.67 Q1233.74 1477.06 1233.74 1468.33 Q1233.74 1459.58 1236.8 1455 Q1239.87 1450.39 1245.68 1450.39 Z" fill="#000000" fill-rule="nonzero" fill-opacity="1" /><path clip-path="url(#clip400)" d="M1275.85 1454.1 Q1272.23 1454.1 1270.41 1457.66 Q1268.6 1461.2 1268.6 1468.33 Q1268.6 1475.44 1270.41 1479.01 Q1272.23 1482.55 1275.85 1482.55 Q1279.48 1482.55 1281.29 1479.01 Q1283.11 1475.44 1283.11 1468.33 Q1283.11 1461.2 1281.29 1457.66 Q1279.48 1454.1 1275.85 1454.1 M1275.85 1450.39 Q1281.66 1450.39 1284.71 1455 Q1287.79 1459.58 1287.79 1468.33 Q1287.79 1477.06 1284.71 1481.67 Q1281.66 1486.25 1275.85 1486.25 Q1270.04 1486.25 1266.96 1481.67 Q1263.9 1477.06 1263.9 1468.33 Q1263.9 1459.58 1266.96 1455 Q1270.04 1450.39 1275.85 1450.39 Z" fill="#000000" fill-rule="nonzero" fill-opacity="1" /><path clip-path="url(#clip400)" d="M1603.6 1481.64 L1619.92 1481.64 L1619.92 1485.58 L1597.98 1485.58 L1597.98 1481.64 Q1600.64 1478.89 1605.22 1474.26 Q1609.83 1469.61 1611.01 1468.27 Q1613.26 1465.74 1614.14 1464.01 Q1615.04 1462.25 1615.04 1460.56 Q1615.04 1457.8 1613.09 1456.07 Q1611.17 1454.33 1608.07 1454.33 Q1605.87 1454.33 1603.42 1455.09 Q1600.99 1455.86 1598.21 1457.41 L1598.21 1452.69 Q1601.03 1451.55 1603.49 1450.97 Q1605.94 1450.39 1607.98 1450.39 Q1613.35 1450.39 1616.54 1453.08 Q1619.74 1455.77 1619.74 1460.26 Q1619.74 1462.39 1618.93 1464.31 Q1618.14 1466.2 1616.03 1468.8 Q1615.46 1469.47 1612.35 1472.69 Q1609.25 1475.88 1603.6 1481.64 Z" fill="#000000" fill-rule="nonzero" fill-opacity="1" /><path clip-path="url(#clip400)" d="M1633.77 1481.64 L1650.09 1481.64 L1650.09 1485.58 L1628.14 1485.58 L1628.14 1481.64 Q1630.8 1478.89 1635.39 1474.26 Q1639.99 1469.61 1641.17 1468.27 Q1643.42 1465.74 1644.3 1464.01 Q1645.2 1462.25 1645.2 1460.56 Q1645.2 1457.8 1643.26 1456.07 Q1641.34 1454.33 1638.23 1454.33 Q1636.03 1454.33 1633.58 1455.09 Q1631.15 1455.86 1628.37 1457.41 L1628.37 1452.69 Q1631.2 1451.55 1633.65 1450.97 Q1636.1 1450.39 1638.14 1450.39 Q1643.51 1450.39 1646.71 1453.08 Q1649.9 1455.77 1649.9 1460.26 Q1649.9 1462.39 1649.09 1464.31 Q1648.3 1466.2 1646.2 1468.8 Q1645.62 1469.47 1642.52 1472.69 Q1639.41 1475.88 1633.77 1481.64 Z" fill="#000000" fill-rule="nonzero" fill-opacity="1" /><path clip-path="url(#clip400)" d="M1669.9 1454.1 Q1666.29 1454.1 1664.46 1457.66 Q1662.65 1461.2 1662.65 1468.33 Q1662.65 1475.44 1664.46 1479.01 Q1666.29 1482.55 1669.9 1482.55 Q1673.53 1482.55 1675.34 1479.01 Q1677.17 1475.44 1677.17 1468.33 Q1677.17 1461.2 1675.34 1457.66 Q1673.53 1454.1 1669.9 1454.1 M1669.9 1450.39 Q1675.71 1450.39 1678.77 1455 Q1681.84 1459.58 1681.84 1468.33 Q1681.84 1477.06 1678.77 1481.67 Q1675.71 1486.25 1669.9 1486.25 Q1664.09 1486.25 1661.01 1481.67 Q1657.96 1477.06 1657.96 1468.33 Q1657.96 1459.58 1661.01 1455 Q1664.09 1450.39 1669.9 1450.39 Z" fill="#000000" fill-rule="nonzero" fill-opacity="1" /><path clip-path="url(#clip400)" d="M1997.66 1481.64 L2013.98 1481.64 L2013.98 1485.58 L1992.03 1485.58 L1992.03 1481.64 Q1994.7 1478.89 1999.28 1474.26 Q2003.89 1469.61 2005.07 1468.27 Q2007.31 1465.74 2008.19 1464.01 Q2009.09 1462.25 2009.09 1460.56 Q2009.09 1457.8 2007.15 1456.07 Q2005.23 1454.33 2002.13 1454.33 Q1999.93 1454.33 1997.47 1455.09 Q1995.04 1455.86 1992.26 1457.41 L1992.26 1452.69 Q1995.09 1451.55 1997.54 1450.97 Q2000 1450.39 2002.03 1450.39 Q2007.4 1450.39 2010.6 1453.08 Q2013.79 1455.77 2013.79 1460.26 Q2013.79 1462.39 2012.98 1464.31 Q2012.2 1466.2 2010.09 1468.8 Q2009.51 1469.47 2006.41 1472.69 Q2003.31 1475.88 1997.66 1481.64 Z" fill="#000000" fill-rule="nonzero" fill-opacity="1" /><path clip-path="url(#clip400)" d="M2036.64 1455.09 L2024.83 1473.54 L2036.64 1473.54 L2036.64 1455.09 M2035.41 1451.02 L2041.29 1451.02 L2041.29 1473.54 L2046.22 1473.54 L2046.22 1477.43 L2041.29 1477.43 L2041.29 1485.58 L2036.64 1485.58 L2036.64 1477.43 L2021.04 1477.43 L2021.04 1472.92 L2035.41 1451.02 Z" fill="#000000" fill-rule="nonzero" fill-opacity="1" /><path clip-path="url(#clip400)" d="M2063.95 1454.1 Q2060.34 1454.1 2058.51 1457.66 Q2056.71 1461.2 2056.71 1468.33 Q2056.71 1475.44 2058.51 1479.01 Q2060.34 1482.55 2063.95 1482.55 Q2067.59 1482.55 2069.39 1479.01 Q2071.22 1475.44 2071.22 1468.33 Q2071.22 1461.2 2069.39 1457.66 Q2067.59 1454.1 2063.95 1454.1 M2063.95 1450.39 Q2069.76 1450.39 2072.82 1455 Q2075.9 1459.58 2075.9 1468.33 Q2075.9 1477.06 2072.82 1481.67 Q2069.76 1486.25 2063.95 1486.25 Q2058.14 1486.25 2055.07 1481.67 Q2052.01 1477.06 2052.01 1468.33 Q2052.01 1459.58 2055.07 1455 Q2058.14 1450.39 2063.95 1450.39 Z" fill="#000000" fill-rule="nonzero" fill-opacity="1" /><path clip-path="url(#clip400)" d="M1120.23 1525.81 L1120.23 1562.76 L1128 1562.76 Q1137.83 1562.76 1142.38 1558.3 Q1146.97 1553.85 1146.97 1544.24 Q1146.97 1534.69 1142.38 1530.26 Q1137.83 1525.81 1128 1525.81 L1120.23 1525.81 M1113.8 1520.52 L1127.01 1520.52 Q1140.82 1520.52 1147.28 1526.28 Q1153.75 1532.01 1153.75 1544.24 Q1153.75 1556.52 1147.25 1562.28 Q1140.76 1568.04 1127.01 1568.04 L1113.8 1568.04 L1113.8 1520.52 Z" fill="#000000" fill-rule="nonzero" fill-opacity="1" /><path clip-path="url(#clip400)" d="M1194.23 1548.76 L1194.23 1551.62 L1167.3 1551.62 Q1167.69 1557.67 1170.93 1560.85 Q1174.21 1564 1180.04 1564 Q1183.41 1564 1186.56 1563.17 Q1189.74 1562.35 1192.86 1560.69 L1192.86 1566.23 Q1189.71 1567.57 1186.4 1568.27 Q1183.09 1568.97 1179.69 1568.97 Q1171.16 1568.97 1166.16 1564 Q1161.19 1559.04 1161.19 1550.57 Q1161.19 1541.82 1165.9 1536.69 Q1170.65 1531.54 1178.67 1531.54 Q1185.86 1531.54 1190.03 1536.18 Q1194.23 1540.8 1194.23 1548.76 M1188.38 1547.04 Q1188.31 1542.23 1185.67 1539.37 Q1183.06 1536.5 1178.73 1536.5 Q1173.83 1536.5 1170.87 1539.27 Q1167.94 1542.04 1167.5 1547.07 L1188.38 1547.04 Z" fill="#000000" fill-rule="nonzero" fill-opacity="1" /><path clip-path="url(#clip400)" d="M1231.6 1539.24 Q1233.79 1535.29 1236.85 1533.41 Q1239.91 1531.54 1244.04 1531.54 Q1249.61 1531.54 1252.64 1535.45 Q1255.66 1539.33 1255.66 1546.53 L1255.66 1568.04 L1249.77 1568.04 L1249.77 1546.72 Q1249.77 1541.59 1247.96 1539.11 Q1246.14 1536.63 1242.42 1536.63 Q1237.87 1536.63 1235.23 1539.65 Q1232.59 1542.68 1232.59 1547.9 L1232.59 1568.04 L1226.7 1568.04 L1226.7 1546.72 Q1226.7 1541.56 1224.88 1539.11 Q1223.07 1536.63 1219.28 1536.63 Q1214.79 1536.63 1212.15 1539.68 Q1209.51 1542.71 1209.51 1547.9 L1209.51 1568.04 L1203.62 1568.04 L1203.62 1532.4 L1209.51 1532.4 L1209.51 1537.93 Q1211.51 1534.66 1214.32 1533.1 Q1217.12 1531.54 1220.97 1531.54 Q1224.85 1531.54 1227.56 1533.51 Q1230.29 1535.48 1231.6 1539.24 Z" fill="#000000" fill-rule="nonzero" fill-opacity="1" /><path clip-path="url(#clip400)" d="M1283.54 1550.12 Q1276.44 1550.12 1273.71 1551.75 Q1270.97 1553.37 1270.97 1557.29 Q1270.97 1560.4 1273.01 1562.25 Q1275.08 1564.07 1278.61 1564.07 Q1283.48 1564.07 1286.41 1560.63 Q1289.37 1557.16 1289.37 1551.43 L1289.37 1550.12 L1283.54 1550.12 M1295.22 1547.71 L1295.22 1568.04 L1289.37 1568.04 L1289.37 1562.63 Q1287.36 1565.88 1284.37 1567.44 Q1281.38 1568.97 1277.05 1568.97 Q1271.58 1568.97 1268.33 1565.91 Q1265.11 1562.82 1265.11 1557.67 Q1265.11 1551.65 1269.12 1548.6 Q1273.17 1545.54 1281.16 1545.54 L1289.37 1545.54 L1289.37 1544.97 Q1289.37 1540.93 1286.69 1538.73 Q1284.05 1536.5 1279.25 1536.5 Q1276.19 1536.5 1273.29 1537.23 Q1270.4 1537.97 1267.72 1539.43 L1267.72 1534.02 Q1270.94 1532.78 1273.96 1532.17 Q1276.99 1531.54 1279.85 1531.54 Q1287.58 1531.54 1291.4 1535.55 Q1295.22 1539.56 1295.22 1547.71 Z" fill="#000000" fill-rule="nonzero" fill-opacity="1" /><path clip-path="url(#clip400)" d="M1336.92 1546.53 L1336.92 1568.04 L1331.06 1568.04 L1331.06 1546.72 Q1331.06 1541.66 1329.09 1539.14 Q1327.12 1536.63 1323.17 1536.63 Q1318.43 1536.63 1315.69 1539.65 Q1312.95 1542.68 1312.95 1547.9 L1312.95 1568.04 L1307.06 1568.04 L1307.06 1532.4 L1312.95 1532.4 L1312.95 1537.93 Q1315.05 1534.72 1317.89 1533.13 Q1320.75 1531.54 1324.47 1531.54 Q1330.62 1531.54 1333.77 1535.36 Q1336.92 1539.14 1336.92 1546.53 Z" fill="#000000" fill-rule="nonzero" fill-opacity="1" /><path clip-path="url(#clip400)" d="M1372.06 1537.81 L1372.06 1518.52 L1377.91 1518.52 L1377.91 1568.04 L1372.06 1568.04 L1372.06 1562.7 Q1370.21 1565.88 1367.38 1567.44 Q1364.58 1568.97 1360.63 1568.97 Q1354.17 1568.97 1350.1 1563.81 Q1346.05 1558.65 1346.05 1550.25 Q1346.05 1541.85 1350.1 1536.69 Q1354.17 1531.54 1360.63 1531.54 Q1364.58 1531.54 1367.38 1533.1 Q1370.21 1534.62 1372.06 1537.81 M1352.1 1550.25 Q1352.1 1556.71 1354.74 1560.4 Q1357.42 1564.07 1362.06 1564.07 Q1366.71 1564.07 1369.38 1560.4 Q1372.06 1556.71 1372.06 1550.25 Q1372.06 1543.79 1369.38 1540.13 Q1366.71 1536.44 1362.06 1536.44 Q1357.42 1536.44 1354.74 1540.13 Q1352.1 1543.79 1352.1 1550.25 Z" fill="#000000" fill-rule="nonzero" fill-opacity="1" /><polyline clip-path="url(#clip400)" style="stroke:#000000; stroke-linecap:round; stroke-linejoin:round; stroke-width:4; stroke-opacity:1; fill:none" points="138.959,1423.18 138.959,47.2441 "/>
<polyline clip-path="url(#clip400)" style="stroke:#000000; stroke-linecap:round; stroke-linejoin:round; stroke-width:4; stroke-opacity:1; fill:none" points="138.959,1423.18 157.857,1423.18 "/>
<polyline clip-path="url(#clip400)" style="stroke:#000000; stroke-linecap:round; stroke-linejoin:round; stroke-width:4; stroke-opacity:1; fill:none" points="138.959,1211.5 157.857,1211.5 "/>
<polyline clip-path="url(#clip400)" style="stroke:#000000; stroke-linecap:round; stroke-linejoin:round; stroke-width:4; stroke-opacity:1; fill:none" points="138.959,999.815 157.857,999.815 "/>
<polyline clip-path="url(#clip400)" style="stroke:#000000; stroke-linecap:round; stroke-linejoin:round; stroke-width:4; stroke-opacity:1; fill:none" points="138.959,788.133 157.857,788.133 "/>
<polyline clip-path="url(#clip400)" style="stroke:#000000; stroke-linecap:round; stroke-linejoin:round; stroke-width:4; stroke-opacity:1; fill:none" points="138.959,576.45 157.857,576.45 "/>
<polyline clip-path="url(#clip400)" style="stroke:#000000; stroke-linecap:round; stroke-linejoin:round; stroke-width:4; stroke-opacity:1; fill:none" points="138.959,364.768 157.857,364.768 "/>
<polyline clip-path="url(#clip400)" style="stroke:#000000; stroke-linecap:round; stroke-linejoin:round; stroke-width:4; stroke-opacity:1; fill:none" points="138.959,153.085 157.857,153.085 "/>
<path clip-path="url(#clip400)" d="M91.0151 1408.98 Q87.404 1408.98 85.5753 1412.54 Q83.7697 1416.08 83.7697 1423.21 Q83.7697 1430.32 85.5753 1433.89 Q87.404 1437.43 91.0151 1437.43 Q94.6493 1437.43 96.4548 1433.89 Q98.2835 1430.32 98.2835 1423.21 Q98.2835 1416.08 96.4548 1412.54 Q94.6493 1408.98 91.0151 1408.98 M91.0151 1405.27 Q96.8252 1405.27 99.8808 1409.88 Q102.959 1414.46 102.959 1423.21 Q102.959 1431.94 99.8808 1436.55 Q96.8252 1441.13 91.0151 1441.13 Q85.2049 1441.13 82.1262 1436.55 Q79.0707 1431.94 79.0707 1423.21 Q79.0707 1414.46 82.1262 1409.88 Q85.2049 1405.27 91.0151 1405.27 Z" fill="#000000" fill-rule="nonzero" fill-opacity="1" /><path clip-path="url(#clip400)" d="M86.6401 1224.84 L102.959 1224.84 L102.959 1228.78 L81.0151 1228.78 L81.0151 1224.84 Q83.6771 1222.09 88.2604 1217.46 Q92.8669 1212.81 94.0475 1211.46 Q96.2928 1208.94 97.1724 1207.2 Q98.0752 1205.44 98.0752 1203.75 Q98.0752 1201 96.1308 1199.26 Q94.2095 1197.53 91.1077 1197.53 Q88.9086 1197.53 86.4549 1198.29 Q84.0244 1199.06 81.2466 1200.61 L81.2466 1195.88 Q84.0707 1194.75 86.5243 1194.17 Q88.978 1193.59 91.0151 1193.59 Q96.3854 1193.59 99.5798 1196.28 Q102.774 1198.96 102.774 1203.45 Q102.774 1205.58 101.964 1207.5 Q101.177 1209.4 99.0706 1212 Q98.4919 1212.67 95.39 1215.88 Q92.2882 1219.08 86.6401 1224.84 Z" fill="#000000" fill-rule="nonzero" fill-opacity="1" /><path clip-path="url(#clip400)" d="M93.3762 986.609 L81.5707 1005.06 L93.3762 1005.06 L93.3762 986.609 M92.1493 982.535 L98.0289 982.535 L98.0289 1005.06 L102.959 1005.06 L102.959 1008.95 L98.0289 1008.95 L98.0289 1017.09 L93.3762 1017.09 L93.3762 1008.95 L77.7744 1008.95 L77.7744 1004.43 L92.1493 982.535 Z" fill="#000000" fill-rule="nonzero" fill-opacity="1" /><path clip-path="url(#clip400)" d="M91.4317 786.269 Q88.2836 786.269 86.4318 788.422 Q84.6031 790.575 84.6031 794.325 Q84.6031 798.052 86.4318 800.227 Q88.2836 802.38 91.4317 802.38 Q94.5799 802.38 96.4085 800.227 Q98.2604 798.052 98.2604 794.325 Q98.2604 790.575 96.4085 788.422 Q94.5799 786.269 91.4317 786.269 M100.714 771.616 L100.714 775.876 Q98.9548 775.042 97.1493 774.603 Q95.3669 774.163 93.6076 774.163 Q88.978 774.163 86.5243 777.288 Q84.0938 780.413 83.7466 786.732 Q85.1123 784.718 87.1725 783.653 Q89.2327 782.565 91.7095 782.565 Q96.9178 782.565 99.927 785.737 Q102.959 788.885 102.959 794.325 Q102.959 799.649 99.8113 802.866 Q96.6632 806.084 91.4317 806.084 Q85.4364 806.084 82.2651 801.501 Q79.0938 796.894 79.0938 788.167 Q79.0938 779.973 82.9827 775.112 Q86.8716 770.228 93.4225 770.228 Q95.1817 770.228 96.9641 770.575 Q98.7696 770.922 100.714 771.616 Z" fill="#000000" fill-rule="nonzero" fill-opacity="1" /><path clip-path="url(#clip400)" d="M91.1077 577.318 Q87.7743 577.318 85.8531 579.101 Q83.9549 580.883 83.9549 584.008 Q83.9549 587.133 85.8531 588.915 Q87.7743 590.698 91.1077 590.698 Q94.441 590.698 96.3623 588.915 Q98.2835 587.11 98.2835 584.008 Q98.2835 580.883 96.3623 579.101 Q94.4641 577.318 91.1077 577.318 M86.4318 575.327 Q83.4225 574.587 81.7327 572.527 Q80.066 570.466 80.066 567.503 Q80.066 563.36 83.0058 560.953 Q85.9688 558.545 91.1077 558.545 Q96.2697 558.545 99.2095 560.953 Q102.149 563.36 102.149 567.503 Q102.149 570.466 100.459 572.527 Q98.7928 574.587 95.8067 575.327 Q99.1863 576.115 101.061 578.406 Q102.959 580.698 102.959 584.008 Q102.959 589.031 99.8808 591.716 Q96.8252 594.401 91.1077 594.401 Q85.3901 594.401 82.3114 591.716 Q79.2559 589.031 79.2559 584.008 Q79.2559 580.698 81.154 578.406 Q83.0521 576.115 86.4318 575.327 M84.7188 567.943 Q84.7188 570.628 86.3855 572.133 Q88.0753 573.638 91.1077 573.638 Q94.1169 573.638 95.8067 572.133 Q97.5197 570.628 97.5197 567.943 Q97.5197 565.258 95.8067 563.753 Q94.1169 562.249 91.1077 562.249 Q88.0753 562.249 86.3855 563.753 Q84.7188 565.258 84.7188 567.943 Z" fill="#000000" fill-rule="nonzero" fill-opacity="1" /><path clip-path="url(#clip400)" d="M51.6634 378.113 L59.3023 378.113 L59.3023 351.747 L50.9921 353.414 L50.9921 349.154 L59.256 347.488 L63.9319 347.488 L63.9319 378.113 L71.5707 378.113 L71.5707 382.048 L51.6634 382.048 L51.6634 378.113 Z" fill="#000000" fill-rule="nonzero" fill-opacity="1" /><path clip-path="url(#clip400)" d="M91.0151 350.566 Q87.404 350.566 85.5753 354.131 Q83.7697 357.673 83.7697 364.802 Q83.7697 371.909 85.5753 375.474 Q87.404 379.015 91.0151 379.015 Q94.6493 379.015 96.4548 375.474 Q98.2835 371.909 98.2835 364.802 Q98.2835 357.673 96.4548 354.131 Q94.6493 350.566 91.0151 350.566 M91.0151 346.863 Q96.8252 346.863 99.8808 351.469 Q102.959 356.052 102.959 364.802 Q102.959 373.529 99.8808 378.136 Q96.8252 382.719 91.0151 382.719 Q85.2049 382.719 82.1262 378.136 Q79.0707 373.529 79.0707 364.802 Q79.0707 356.052 82.1262 351.469 Q85.2049 346.863 91.0151 346.863 Z" fill="#000000" fill-rule="nonzero" fill-opacity="1" /><path clip-path="url(#clip400)" d="M53.2606 166.43 L60.8995 166.43 L60.8995 140.065 L52.5893 141.731 L52.5893 137.472 L60.8532 135.805 L65.5291 135.805 L65.5291 166.43 L73.1679 166.43 L73.1679 170.365 L53.2606 170.365 L53.2606 166.43 Z" fill="#000000" fill-rule="nonzero" fill-opacity="1" /><path clip-path="url(#clip400)" d="M86.6401 166.43 L102.959 166.43 L102.959 170.365 L81.0151 170.365 L81.0151 166.43 Q83.6771 163.676 88.2604 159.046 Q92.8669 154.393 94.0475 153.051 Q96.2928 150.527 97.1724 148.791 Q98.0752 147.032 98.0752 145.342 Q98.0752 142.588 96.1308 140.852 Q94.2095 139.115 91.1077 139.115 Q88.9086 139.115 86.4549 139.879 Q84.0244 140.643 81.2466 142.194 L81.2466 137.472 Q84.0707 136.338 86.5243 135.759 Q88.978 135.18 91.0151 135.18 Q96.3854 135.18 99.5798 137.865 Q102.774 140.551 102.774 145.041 Q102.774 147.171 101.964 149.092 Q101.177 150.99 99.0706 153.583 Q98.4919 154.254 95.39 157.472 Q92.2882 160.666 86.6401 166.43 Z" fill="#000000" fill-rule="nonzero" fill-opacity="1" /><path clip-path="url(#clip402)" d="M260.722 1317.34 L260.722 1423.18 L359.236 1423.18 L359.236 1317.34 L260.722 1317.34 L260.722 1317.34  Z" fill="#009af9" fill-rule="evenodd" fill-opacity="1"/>
<polyline clip-path="url(#clip402)" style="stroke:#000000; stroke-linecap:round; stroke-linejoin:round; stroke-width:4; stroke-opacity:1; fill:none" points="260.722,1317.34 260.722,1423.18 359.236,1423.18 359.236,1317.34 260.722,1317.34 "/>
<path clip-path="url(#clip402)" d="M359.236 1317.34 L359.236 1423.18 L457.749 1423.18 L457.749 1317.34 L359.236 1317.34 L359.236 1317.34  Z" fill="#009af9" fill-rule="evenodd" fill-opacity="1"/>
<polyline clip-path="url(#clip402)" style="stroke:#000000; stroke-linecap:round; stroke-linejoin:round; stroke-width:4; stroke-opacity:1; fill:none" points="359.236,1317.34 359.236,1423.18 457.749,1423.18 457.749,1317.34 359.236,1317.34 "/>
<path clip-path="url(#clip402)" d="M457.749 1317.34 L457.749 1423.18 L556.263 1423.18 L556.263 1317.34 L457.749 1317.34 L457.749 1317.34  Z" fill="#009af9" fill-rule="evenodd" fill-opacity="1"/>
<polyline clip-path="url(#clip402)" style="stroke:#000000; stroke-linecap:round; stroke-linejoin:round; stroke-width:4; stroke-opacity:1; fill:none" points="457.749,1317.34 457.749,1423.18 556.263,1423.18 556.263,1317.34 457.749,1317.34 "/>
<path clip-path="url(#clip402)" d="M556.263 893.974 L556.263 1423.18 L654.776 1423.18 L654.776 893.974 L556.263 893.974 L556.263 893.974  Z" fill="#009af9" fill-rule="evenodd" fill-opacity="1"/>
<polyline clip-path="url(#clip402)" style="stroke:#000000; stroke-linecap:round; stroke-linejoin:round; stroke-width:4; stroke-opacity:1; fill:none" points="556.263,893.974 556.263,1423.18 654.776,1423.18 654.776,893.974 556.263,893.974 "/>
<path clip-path="url(#clip402)" d="M654.776 999.815 L654.776 1423.18 L753.29 1423.18 L753.29 999.815 L654.776 999.815 L654.776 999.815  Z" fill="#009af9" fill-rule="evenodd" fill-opacity="1"/>
<polyline clip-path="url(#clip402)" style="stroke:#000000; stroke-linecap:round; stroke-linejoin:round; stroke-width:4; stroke-opacity:1; fill:none" points="654.776,999.815 654.776,1423.18 753.29,1423.18 753.29,999.815 654.776,999.815 "/>
<path clip-path="url(#clip402)" d="M753.29 893.974 L753.29 1423.18 L851.803 1423.18 L851.803 893.974 L753.29 893.974 L753.29 893.974  Z" fill="#009af9" fill-rule="evenodd" fill-opacity="1"/>
<polyline clip-path="url(#clip402)" style="stroke:#000000; stroke-linecap:round; stroke-linejoin:round; stroke-width:4; stroke-opacity:1; fill:none" points="753.29,893.974 753.29,1423.18 851.803,1423.18 851.803,893.974 753.29,893.974 "/>
<path clip-path="url(#clip402)" d="M851.803 1317.34 L851.803 1423.18 L950.317 1423.18 L950.317 1317.34 L851.803 1317.34 L851.803 1317.34  Z" fill="#009af9" fill-rule="evenodd" fill-opacity="1"/>
<polyline clip-path="url(#clip402)" style="stroke:#000000; stroke-linecap:round; stroke-linejoin:round; stroke-width:4; stroke-opacity:1; fill:none" points="851.803,1317.34 851.803,1423.18 950.317,1423.18 950.317,1317.34 851.803,1317.34 "/>
<path clip-path="url(#clip402)" d="M950.317 470.609 L950.317 1423.18 L1048.83 1423.18 L1048.83 470.609 L950.317 470.609 L950.317 470.609  Z" fill="#009af9" fill-rule="evenodd" fill-opacity="1"/>
<polyline clip-path="url(#clip402)" style="stroke:#000000; stroke-linecap:round; stroke-linejoin:round; stroke-width:4; stroke-opacity:1; fill:none" points="950.317,470.609 950.317,1423.18 1048.83,1423.18 1048.83,470.609 950.317,470.609 "/>
<path clip-path="url(#clip402)" d="M1048.83 682.291 L1048.83 1423.18 L1147.34 1423.18 L1147.34 682.291 L1048.83 682.291 L1048.83 682.291  Z" fill="#009af9" fill-rule="evenodd" fill-opacity="1"/>
<polyline clip-path="url(#clip402)" style="stroke:#000000; stroke-linecap:round; stroke-linejoin:round; stroke-width:4; stroke-opacity:1; fill:none" points="1048.83,682.291 1048.83,1423.18 1147.34,1423.18 1147.34,682.291 1048.83,682.291 "/>
<path clip-path="url(#clip402)" d="M1147.34 470.609 L1147.34 1423.18 L1245.86 1423.18 L1245.86 470.609 L1147.34 470.609 L1147.34 470.609  Z" fill="#009af9" fill-rule="evenodd" fill-opacity="1"/>
<polyline clip-path="url(#clip402)" style="stroke:#000000; stroke-linecap:round; stroke-linejoin:round; stroke-width:4; stroke-opacity:1; fill:none" points="1147.34,470.609 1147.34,1423.18 1245.86,1423.18 1245.86,470.609 1147.34,470.609 "/>
<path clip-path="url(#clip402)" d="M1245.86 788.133 L1245.86 1423.18 L1344.37 1423.18 L1344.37 788.133 L1245.86 788.133 L1245.86 788.133  Z" fill="#009af9" fill-rule="evenodd" fill-opacity="1"/>
<polyline clip-path="url(#clip402)" style="stroke:#000000; stroke-linecap:round; stroke-linejoin:round; stroke-width:4; stroke-opacity:1; fill:none" points="1245.86,788.133 1245.86,1423.18 1344.37,1423.18 1344.37,788.133 1245.86,788.133 "/>
<path clip-path="url(#clip402)" d="M1344.37 47.2441 L1344.37 1423.18 L1442.88 1423.18 L1442.88 47.2441 L1344.37 47.2441 L1344.37 47.2441  Z" fill="#009af9" fill-rule="evenodd" fill-opacity="1"/>
<polyline clip-path="url(#clip402)" style="stroke:#000000; stroke-linecap:round; stroke-linejoin:round; stroke-width:4; stroke-opacity:1; fill:none" points="1344.37,47.2441 1344.37,1423.18 1442.88,1423.18 1442.88,47.2441 1344.37,47.2441 "/>
<path clip-path="url(#clip402)" d="M1442.88 893.974 L1442.88 1423.18 L1541.4 1423.18 L1541.4 893.974 L1442.88 893.974 L1442.88 893.974  Z" fill="#009af9" fill-rule="evenodd" fill-opacity="1"/>
<polyline clip-path="url(#clip402)" style="stroke:#000000; stroke-linecap:round; stroke-linejoin:round; stroke-width:4; stroke-opacity:1; fill:none" points="1442.88,893.974 1442.88,1423.18 1541.4,1423.18 1541.4,893.974 1442.88,893.974 "/>
<path clip-path="url(#clip402)" d="M1541.4 576.45 L1541.4 1423.18 L1639.91 1423.18 L1639.91 576.45 L1541.4 576.45 L1541.4 576.45  Z" fill="#009af9" fill-rule="evenodd" fill-opacity="1"/>
<polyline clip-path="url(#clip402)" style="stroke:#000000; stroke-linecap:round; stroke-linejoin:round; stroke-width:4; stroke-opacity:1; fill:none" points="1541.4,576.45 1541.4,1423.18 1639.91,1423.18 1639.91,576.45 1541.4,576.45 "/>
<path clip-path="url(#clip402)" d="M1639.91 788.133 L1639.91 1423.18 L1738.43 1423.18 L1738.43 788.133 L1639.91 788.133 L1639.91 788.133  Z" fill="#009af9" fill-rule="evenodd" fill-opacity="1"/>
<polyline clip-path="url(#clip402)" style="stroke:#000000; stroke-linecap:round; stroke-linejoin:round; stroke-width:4; stroke-opacity:1; fill:none" points="1639.91,788.133 1639.91,1423.18 1738.43,1423.18 1738.43,788.133 1639.91,788.133 "/>
<path clip-path="url(#clip402)" d="M1738.43 788.133 L1738.43 1423.18 L1836.94 1423.18 L1836.94 788.133 L1738.43 788.133 L1738.43 788.133  Z" fill="#009af9" fill-rule="evenodd" fill-opacity="1"/>
<polyline clip-path="url(#clip402)" style="stroke:#000000; stroke-linecap:round; stroke-linejoin:round; stroke-width:4; stroke-opacity:1; fill:none" points="1738.43,788.133 1738.43,1423.18 1836.94,1423.18 1836.94,788.133 1738.43,788.133 "/>
<path clip-path="url(#clip402)" d="M1836.94 682.291 L1836.94 1423.18 L1935.45 1423.18 L1935.45 682.291 L1836.94 682.291 L1836.94 682.291  Z" fill="#009af9" fill-rule="evenodd" fill-opacity="1"/>
<polyline clip-path="url(#clip402)" style="stroke:#000000; stroke-linecap:round; stroke-linejoin:round; stroke-width:4; stroke-opacity:1; fill:none" points="1836.94,682.291 1836.94,1423.18 1935.45,1423.18 1935.45,682.291 1836.94,682.291 "/>
<path clip-path="url(#clip402)" d="M1935.45 999.815 L1935.45 1423.18 L2033.97 1423.18 L2033.97 999.815 L1935.45 999.815 L1935.45 999.815  Z" fill="#009af9" fill-rule="evenodd" fill-opacity="1"/>
<polyline clip-path="url(#clip402)" style="stroke:#000000; stroke-linecap:round; stroke-linejoin:round; stroke-width:4; stroke-opacity:1; fill:none" points="1935.45,999.815 1935.45,1423.18 2033.97,1423.18 2033.97,999.815 1935.45,999.815 "/>
<path clip-path="url(#clip402)" d="M2033.97 1317.34 L2033.97 1423.18 L2132.48 1423.18 L2132.48 1317.34 L2033.97 1317.34 L2033.97 1317.34  Z" fill="#009af9" fill-rule="evenodd" fill-opacity="1"/>
<polyline clip-path="url(#clip402)" style="stroke:#000000; stroke-linecap:round; stroke-linejoin:round; stroke-width:4; stroke-opacity:1; fill:none" points="2033.97,1317.34 2033.97,1423.18 2132.48,1423.18 2132.48,1317.34 2033.97,1317.34 "/>
<path clip-path="url(#clip402)" d="M2132.48 1317.34 L2132.48 1423.18 L2230.99 1423.18 L2230.99 1317.34 L2132.48 1317.34 L2132.48 1317.34  Z" fill="#009af9" fill-rule="evenodd" fill-opacity="1"/>
<polyline clip-path="url(#clip402)" style="stroke:#000000; stroke-linecap:round; stroke-linejoin:round; stroke-width:4; stroke-opacity:1; fill:none" points="2132.48,1317.34 2132.48,1423.18 2230.99,1423.18 2230.99,1317.34 2132.48,1317.34 "/>
<circle clip-path="url(#clip402)" style="fill:#009af9; stroke:none; fill-opacity:0" cx="309.979" cy="1317.34" r="2"/>
<circle clip-path="url(#clip402)" style="fill:#009af9; stroke:none; fill-opacity:0" cx="408.493" cy="1317.34" r="2"/>
<circle clip-path="url(#clip402)" style="fill:#009af9; stroke:none; fill-opacity:0" cx="507.006" cy="1317.34" r="2"/>
<circle clip-path="url(#clip402)" style="fill:#009af9; stroke:none; fill-opacity:0" cx="605.52" cy="893.974" r="2"/>
<circle clip-path="url(#clip402)" style="fill:#009af9; stroke:none; fill-opacity:0" cx="704.033" cy="999.815" r="2"/>
<circle clip-path="url(#clip402)" style="fill:#009af9; stroke:none; fill-opacity:0" cx="802.547" cy="893.974" r="2"/>
<circle clip-path="url(#clip402)" style="fill:#009af9; stroke:none; fill-opacity:0" cx="901.06" cy="1317.34" r="2"/>
<circle clip-path="url(#clip402)" style="fill:#009af9; stroke:none; fill-opacity:0" cx="999.574" cy="470.609" r="2"/>
<circle clip-path="url(#clip402)" style="fill:#009af9; stroke:none; fill-opacity:0" cx="1098.09" cy="682.291" r="2"/>
<circle clip-path="url(#clip402)" style="fill:#009af9; stroke:none; fill-opacity:0" cx="1196.6" cy="470.609" r="2"/>
<circle clip-path="url(#clip402)" style="fill:#009af9; stroke:none; fill-opacity:0" cx="1295.11" cy="788.133" r="2"/>
<circle clip-path="url(#clip402)" style="fill:#009af9; stroke:none; fill-opacity:0" cx="1393.63" cy="47.2441" r="2"/>
<circle clip-path="url(#clip402)" style="fill:#009af9; stroke:none; fill-opacity:0" cx="1492.14" cy="893.974" r="2"/>
<circle clip-path="url(#clip402)" style="fill:#009af9; stroke:none; fill-opacity:0" cx="1590.66" cy="576.45" r="2"/>
<circle clip-path="url(#clip402)" style="fill:#009af9; stroke:none; fill-opacity:0" cx="1689.17" cy="788.133" r="2"/>
<circle clip-path="url(#clip402)" style="fill:#009af9; stroke:none; fill-opacity:0" cx="1787.68" cy="788.133" r="2"/>
<circle clip-path="url(#clip402)" style="fill:#009af9; stroke:none; fill-opacity:0" cx="1886.2" cy="682.291" r="2"/>
<circle clip-path="url(#clip402)" style="fill:#009af9; stroke:none; fill-opacity:0" cx="1984.71" cy="999.815" r="2"/>
<circle clip-path="url(#clip402)" style="fill:#009af9; stroke:none; fill-opacity:0" cx="2083.22" cy="1317.34" r="2"/>
<circle clip-path="url(#clip402)" style="fill:#009af9; stroke:none; fill-opacity:0" cx="2181.74" cy="1317.34" r="2"/>
</svg>
