<?xml version="1.0" encoding="utf-8"?>
<svg xmlns="http://www.w3.org/2000/svg" xmlns:xlink="http://www.w3.org/1999/xlink" width="600" height="400" viewBox="0 0 2400 1600">
<defs>
  <clipPath id="clip210">
    <rect x="0" y="0" width="2400" height="1600"/>
  </clipPath>
</defs>
<path clip-path="url(#clip210)" d="M0 1600 L2400 1600 L2400 0 L0 0  Z" fill="#ffffff" fill-rule="evenodd" fill-opacity="1"/>
<defs>
  <clipPath id="clip211">
    <rect x="480" y="0" width="1681" height="1600"/>
  </clipPath>
</defs>
<path clip-path="url(#clip210)" d="M156.598 1486.45 L2352.76 1486.45 L2352.76 47.2441 L156.598 47.2441  Z" fill="#ffffff" fill-rule="evenodd" fill-opacity="1"/>
<defs>
  <clipPath id="clip212">
    <rect x="156" y="47" width="2197" height="1440"/>
  </clipPath>
</defs>
<polyline clip-path="url(#clip212)" style="stroke:#000000; stroke-linecap:round; stroke-linejoin:round; stroke-width:2; stroke-opacity:0.1; fill:none" points="496.242,1486.45 496.242,47.2441 "/>
<polyline clip-path="url(#clip212)" style="stroke:#000000; stroke-linecap:round; stroke-linejoin:round; stroke-width:2; stroke-opacity:0.1; fill:none" points="953.502,1486.45 953.502,47.2441 "/>
<polyline clip-path="url(#clip212)" style="stroke:#000000; stroke-linecap:round; stroke-linejoin:round; stroke-width:2; stroke-opacity:0.1; fill:none" points="1410.76,1486.45 1410.76,47.2441 "/>
<polyline clip-path="url(#clip212)" style="stroke:#000000; stroke-linecap:round; stroke-linejoin:round; stroke-width:2; stroke-opacity:0.1; fill:none" points="1868.02,1486.45 1868.02,47.2441 "/>
<polyline clip-path="url(#clip212)" style="stroke:#000000; stroke-linecap:round; stroke-linejoin:round; stroke-width:2; stroke-opacity:0.1; fill:none" points="2325.28,1486.45 2325.28,47.2441 "/>
<polyline clip-path="url(#clip210)" style="stroke:#000000; stroke-linecap:round; stroke-linejoin:round; stroke-width:4; stroke-opacity:1; fill:none" points="156.598,1486.45 2352.76,1486.45 "/>
<polyline clip-path="url(#clip210)" style="stroke:#000000; stroke-linecap:round; stroke-linejoin:round; stroke-width:4; stroke-opacity:1; fill:none" points="496.242,1486.45 496.242,1467.55 "/>
<polyline clip-path="url(#clip210)" style="stroke:#000000; stroke-linecap:round; stroke-linejoin:round; stroke-width:4; stroke-opacity:1; fill:none" points="953.502,1486.45 953.502,1467.55 "/>
<polyline clip-path="url(#clip210)" style="stroke:#000000; stroke-linecap:round; stroke-linejoin:round; stroke-width:4; stroke-opacity:1; fill:none" points="1410.76,1486.45 1410.76,1467.55 "/>
<polyline clip-path="url(#clip210)" style="stroke:#000000; stroke-linecap:round; stroke-linejoin:round; stroke-width:4; stroke-opacity:1; fill:none" points="1868.02,1486.45 1868.02,1467.55 "/>
<polyline clip-path="url(#clip210)" style="stroke:#000000; stroke-linecap:round; stroke-linejoin:round; stroke-width:4; stroke-opacity:1; fill:none" points="2325.28,1486.45 2325.28,1467.55 "/>
<path clip-path="url(#clip210)" d="M474.425 1517.37 Q470.814 1517.37 468.985 1520.93 Q467.18 1524.47 467.18 1531.6 Q467.18 1538.71 468.985 1542.27 Q470.814 1545.82 474.425 1545.82 Q478.059 1545.82 479.865 1542.27 Q481.694 1538.71 481.694 1531.6 Q481.694 1524.47 479.865 1520.93 Q478.059 1517.37 474.425 1517.37 M474.425 1513.66 Q480.235 1513.66 483.291 1518.27 Q486.37 1522.85 486.37 1531.6 Q486.37 1540.33 483.291 1544.94 Q480.235 1549.52 474.425 1549.52 Q468.615 1549.52 465.536 1544.94 Q462.481 1540.33 462.481 1531.6 Q462.481 1522.85 465.536 1518.27 Q468.615 1513.66 474.425 1513.66 Z" fill="#000000" fill-rule="nonzero" fill-opacity="1" /><path clip-path="url(#clip210)" d="M494.587 1542.97 L499.471 1542.97 L499.471 1548.85 L494.587 1548.85 L494.587 1542.97 Z" fill="#000000" fill-rule="nonzero" fill-opacity="1" /><path clip-path="url(#clip210)" d="M513.684 1544.91 L530.004 1544.91 L530.004 1548.85 L508.059 1548.85 L508.059 1544.91 Q510.721 1542.16 515.305 1537.53 Q519.911 1532.88 521.092 1531.53 Q523.337 1529.01 524.217 1527.27 Q525.119 1525.51 525.119 1523.82 Q525.119 1521.07 523.175 1519.33 Q521.254 1517.6 518.152 1517.6 Q515.953 1517.6 513.499 1518.36 Q511.069 1519.13 508.291 1520.68 L508.291 1515.95 Q511.115 1514.82 513.569 1514.24 Q516.022 1513.66 518.059 1513.66 Q523.43 1513.66 526.624 1516.35 Q529.818 1519.03 529.818 1523.52 Q529.818 1525.65 529.008 1527.57 Q528.221 1529.47 526.115 1532.07 Q525.536 1532.74 522.434 1535.95 Q519.332 1539.15 513.684 1544.91 Z" fill="#000000" fill-rule="nonzero" fill-opacity="1" /><path clip-path="url(#clip210)" d="M930.644 1517.37 Q927.032 1517.37 925.204 1520.93 Q923.398 1524.47 923.398 1531.6 Q923.398 1538.71 925.204 1542.27 Q927.032 1545.82 930.644 1545.82 Q934.278 1545.82 936.083 1542.27 Q937.912 1538.71 937.912 1531.6 Q937.912 1524.47 936.083 1520.93 Q934.278 1517.37 930.644 1517.37 M930.644 1513.66 Q936.454 1513.66 939.509 1518.27 Q942.588 1522.85 942.588 1531.6 Q942.588 1540.33 939.509 1544.94 Q936.454 1549.52 930.644 1549.52 Q924.833 1549.52 921.755 1544.94 Q918.699 1540.33 918.699 1531.6 Q918.699 1522.85 921.755 1518.27 Q924.833 1513.66 930.644 1513.66 Z" fill="#000000" fill-rule="nonzero" fill-opacity="1" /><path clip-path="url(#clip210)" d="M950.805 1542.97 L955.69 1542.97 L955.69 1548.85 L950.805 1548.85 L950.805 1542.97 Z" fill="#000000" fill-rule="nonzero" fill-opacity="1" /><path clip-path="url(#clip210)" d="M978.722 1518.36 L966.917 1536.81 L978.722 1536.81 L978.722 1518.36 M977.495 1514.29 L983.375 1514.29 L983.375 1536.81 L988.305 1536.81 L988.305 1540.7 L983.375 1540.7 L983.375 1548.85 L978.722 1548.85 L978.722 1540.7 L963.12 1540.7 L963.12 1536.19 L977.495 1514.29 Z" fill="#000000" fill-rule="nonzero" fill-opacity="1" /><path clip-path="url(#clip210)" d="M1388.07 1517.37 Q1384.45 1517.37 1382.63 1520.93 Q1380.82 1524.47 1380.82 1531.6 Q1380.82 1538.71 1382.63 1542.27 Q1384.45 1545.82 1388.07 1545.82 Q1391.7 1545.82 1393.51 1542.27 Q1395.33 1538.71 1395.33 1531.6 Q1395.33 1524.47 1393.51 1520.93 Q1391.7 1517.37 1388.07 1517.37 M1388.07 1513.66 Q1393.88 1513.66 1396.93 1518.27 Q1400.01 1522.85 1400.01 1531.6 Q1400.01 1540.33 1396.93 1544.94 Q1393.88 1549.52 1388.07 1549.52 Q1382.26 1549.52 1379.18 1544.94 Q1376.12 1540.33 1376.12 1531.6 Q1376.12 1522.85 1379.18 1518.27 Q1382.26 1513.66 1388.07 1513.66 Z" fill="#000000" fill-rule="nonzero" fill-opacity="1" /><path clip-path="url(#clip210)" d="M1408.23 1542.97 L1413.11 1542.97 L1413.11 1548.85 L1408.23 1548.85 L1408.23 1542.97 Z" fill="#000000" fill-rule="nonzero" fill-opacity="1" /><path clip-path="url(#clip210)" d="M1433.88 1529.7 Q1430.73 1529.7 1428.88 1531.86 Q1427.05 1534.01 1427.05 1537.76 Q1427.05 1541.49 1428.88 1543.66 Q1430.73 1545.82 1433.88 1545.82 Q1437.02 1545.82 1438.85 1543.66 Q1440.7 1541.49 1440.7 1537.76 Q1440.7 1534.01 1438.85 1531.86 Q1437.02 1529.7 1433.88 1529.7 M1443.16 1515.05 L1443.16 1519.31 Q1441.4 1518.48 1439.59 1518.04 Q1437.81 1517.6 1436.05 1517.6 Q1431.42 1517.6 1428.97 1520.72 Q1426.54 1523.85 1426.19 1530.17 Q1427.56 1528.15 1429.62 1527.09 Q1431.68 1526 1434.15 1526 Q1439.36 1526 1442.37 1529.17 Q1445.4 1532.32 1445.4 1537.76 Q1445.4 1543.08 1442.26 1546.3 Q1439.11 1549.52 1433.88 1549.52 Q1427.88 1549.52 1424.71 1544.94 Q1421.54 1540.33 1421.54 1531.6 Q1421.54 1523.41 1425.43 1518.55 Q1429.32 1513.66 1435.87 1513.66 Q1437.63 1513.66 1439.41 1514.01 Q1441.21 1514.36 1443.16 1515.05 Z" fill="#000000" fill-rule="nonzero" fill-opacity="1" /><path clip-path="url(#clip210)" d="M1845.45 1517.37 Q1841.84 1517.37 1840.01 1520.93 Q1838.21 1524.47 1838.21 1531.6 Q1838.21 1538.71 1840.01 1542.27 Q1841.84 1545.82 1845.45 1545.82 Q1849.09 1545.82 1850.89 1542.27 Q1852.72 1538.71 1852.72 1531.6 Q1852.72 1524.47 1850.89 1520.93 Q1849.09 1517.37 1845.45 1517.37 M1845.45 1513.66 Q1851.26 1513.66 1854.32 1518.27 Q1857.4 1522.85 1857.4 1531.6 Q1857.4 1540.33 1854.32 1544.94 Q1851.26 1549.52 1845.45 1549.52 Q1839.64 1549.52 1836.56 1544.94 Q1833.51 1540.33 1833.51 1531.6 Q1833.51 1522.85 1836.56 1518.27 Q1839.64 1513.66 1845.45 1513.66 Z" fill="#000000" fill-rule="nonzero" fill-opacity="1" /><path clip-path="url(#clip210)" d="M1865.61 1542.97 L1870.5 1542.97 L1870.5 1548.85 L1865.61 1548.85 L1865.61 1542.97 Z" fill="#000000" fill-rule="nonzero" fill-opacity="1" /><path clip-path="url(#clip210)" d="M1890.68 1532.44 Q1887.35 1532.44 1885.43 1534.22 Q1883.53 1536 1883.53 1539.13 Q1883.53 1542.25 1885.43 1544.03 Q1887.35 1545.82 1890.68 1545.82 Q1894.02 1545.82 1895.94 1544.03 Q1897.86 1542.23 1897.86 1539.13 Q1897.86 1536 1895.94 1534.22 Q1894.04 1532.44 1890.68 1532.44 M1886.01 1530.45 Q1883 1529.7 1881.31 1527.64 Q1879.64 1525.58 1879.64 1522.62 Q1879.64 1518.48 1882.58 1516.07 Q1885.55 1513.66 1890.68 1513.66 Q1895.85 1513.66 1898.79 1516.07 Q1901.73 1518.48 1901.73 1522.62 Q1901.73 1525.58 1900.04 1527.64 Q1898.37 1529.7 1895.38 1530.45 Q1898.76 1531.23 1900.64 1533.52 Q1902.54 1535.82 1902.54 1539.13 Q1902.54 1544.15 1899.46 1546.83 Q1896.4 1549.52 1890.68 1549.52 Q1884.97 1549.52 1881.89 1546.83 Q1878.83 1544.15 1878.83 1539.13 Q1878.83 1535.82 1880.73 1533.52 Q1882.63 1531.23 1886.01 1530.45 M1884.3 1523.06 Q1884.3 1525.75 1885.96 1527.25 Q1887.65 1528.76 1890.68 1528.76 Q1893.69 1528.76 1895.38 1527.25 Q1897.1 1525.75 1897.1 1523.06 Q1897.1 1520.38 1895.38 1518.87 Q1893.69 1517.37 1890.68 1517.37 Q1887.65 1517.37 1885.96 1518.87 Q1884.3 1520.38 1884.3 1523.06 Z" fill="#000000" fill-rule="nonzero" fill-opacity="1" /><path clip-path="url(#clip210)" d="M2292.44 1544.91 L2300.07 1544.91 L2300.07 1518.55 L2291.76 1520.21 L2291.76 1515.95 L2300.03 1514.29 L2304.7 1514.29 L2304.7 1544.91 L2312.34 1544.91 L2312.34 1548.85 L2292.44 1548.85 L2292.44 1544.91 Z" fill="#000000" fill-rule="nonzero" fill-opacity="1" /><path clip-path="url(#clip210)" d="M2321.79 1542.97 L2326.67 1542.97 L2326.67 1548.85 L2321.79 1548.85 L2321.79 1542.97 Z" fill="#000000" fill-rule="nonzero" fill-opacity="1" /><path clip-path="url(#clip210)" d="M2346.86 1517.37 Q2343.25 1517.37 2341.42 1520.93 Q2339.61 1524.47 2339.61 1531.6 Q2339.61 1538.71 2341.42 1542.27 Q2343.25 1545.82 2346.86 1545.82 Q2350.49 1545.82 2352.3 1542.27 Q2354.12 1538.71 2354.12 1531.6 Q2354.12 1524.47 2352.3 1520.93 Q2350.49 1517.37 2346.86 1517.37 M2346.86 1513.66 Q2352.67 1513.66 2355.72 1518.27 Q2358.8 1522.85 2358.8 1531.6 Q2358.8 1540.33 2355.72 1544.94 Q2352.67 1549.52 2346.86 1549.52 Q2341.05 1549.52 2337.97 1544.94 Q2334.91 1540.33 2334.91 1531.6 Q2334.91 1522.85 2337.97 1518.27 Q2341.05 1513.66 2346.86 1513.66 Z" fill="#000000" fill-rule="nonzero" fill-opacity="1" /><polyline clip-path="url(#clip212)" style="stroke:#000000; stroke-linecap:round; stroke-linejoin:round; stroke-width:2; stroke-opacity:0.1; fill:none" points="156.598,1203.47 2352.76,1203.47 "/>
<polyline clip-path="url(#clip212)" style="stroke:#000000; stroke-linecap:round; stroke-linejoin:round; stroke-width:2; stroke-opacity:0.1; fill:none" points="156.598,883.412 2352.76,883.412 "/>
<polyline clip-path="url(#clip212)" style="stroke:#000000; stroke-linecap:round; stroke-linejoin:round; stroke-width:2; stroke-opacity:0.1; fill:none" points="156.598,563.356 2352.76,563.356 "/>
<polyline clip-path="url(#clip212)" style="stroke:#000000; stroke-linecap:round; stroke-linejoin:round; stroke-width:2; stroke-opacity:0.1; fill:none" points="156.598,243.3 2352.76,243.3 "/>
<polyline clip-path="url(#clip210)" style="stroke:#000000; stroke-linecap:round; stroke-linejoin:round; stroke-width:4; stroke-opacity:1; fill:none" points="156.598,1486.45 156.598,47.2441 "/>
<polyline clip-path="url(#clip210)" style="stroke:#000000; stroke-linecap:round; stroke-linejoin:round; stroke-width:4; stroke-opacity:1; fill:none" points="156.598,1203.47 175.496,1203.47 "/>
<polyline clip-path="url(#clip210)" style="stroke:#000000; stroke-linecap:round; stroke-linejoin:round; stroke-width:4; stroke-opacity:1; fill:none" points="156.598,883.412 175.496,883.412 "/>
<polyline clip-path="url(#clip210)" style="stroke:#000000; stroke-linecap:round; stroke-linejoin:round; stroke-width:4; stroke-opacity:1; fill:none" points="156.598,563.356 175.496,563.356 "/>
<polyline clip-path="url(#clip210)" style="stroke:#000000; stroke-linecap:round; stroke-linejoin:round; stroke-width:4; stroke-opacity:1; fill:none" points="156.598,243.3 175.496,243.3 "/>
<path clip-path="url(#clip210)" d="M65.0198 1189.27 Q61.4087 1189.27 59.58 1192.83 Q57.7745 1196.37 57.7745 1203.5 Q57.7745 1210.61 59.58 1214.17 Q61.4087 1217.72 65.0198 1217.72 Q68.6541 1217.72 70.4596 1214.17 Q72.2883 1210.61 72.2883 1203.5 Q72.2883 1196.37 70.4596 1192.83 Q68.6541 1189.27 65.0198 1189.27 M65.0198 1185.56 Q70.83 1185.56 73.8855 1190.17 Q76.9642 1194.75 76.9642 1203.5 Q76.9642 1212.23 73.8855 1216.84 Q70.83 1221.42 65.0198 1221.42 Q59.2097 1221.42 56.131 1216.84 Q53.0754 1212.23 53.0754 1203.5 Q53.0754 1194.75 56.131 1190.17 Q59.2097 1185.56 65.0198 1185.56 Z" fill="#000000" fill-rule="nonzero" fill-opacity="1" /><path clip-path="url(#clip210)" d="M85.1818 1214.87 L90.066 1214.87 L90.066 1220.75 L85.1818 1220.75 L85.1818 1214.87 Z" fill="#000000" fill-rule="nonzero" fill-opacity="1" /><path clip-path="url(#clip210)" d="M104.279 1216.81 L120.598 1216.81 L120.598 1220.75 L98.6539 1220.75 L98.6539 1216.81 Q101.316 1214.06 105.899 1209.43 Q110.506 1204.78 111.686 1203.43 Q113.932 1200.91 114.811 1199.17 Q115.714 1197.41 115.714 1195.73 Q115.714 1192.97 113.77 1191.23 Q111.848 1189.5 108.746 1189.5 Q106.547 1189.5 104.094 1190.26 Q101.663 1191.03 98.8854 1192.58 L98.8854 1187.85 Q101.709 1186.72 104.163 1186.14 Q106.617 1185.56 108.654 1185.56 Q114.024 1185.56 117.219 1188.25 Q120.413 1190.93 120.413 1195.42 Q120.413 1197.55 119.603 1199.48 Q118.816 1201.37 116.709 1203.97 Q116.131 1204.64 113.029 1207.85 Q109.927 1211.05 104.279 1216.81 Z" fill="#000000" fill-rule="nonzero" fill-opacity="1" /><path clip-path="url(#clip210)" d="M62.9365 869.211 Q59.3254 869.211 57.4967 872.775 Q55.6912 876.317 55.6912 883.447 Q55.6912 890.553 57.4967 894.118 Q59.3254 897.66 62.9365 897.66 Q66.5707 897.66 68.3763 894.118 Q70.205 890.553 70.205 883.447 Q70.205 876.317 68.3763 872.775 Q66.5707 869.211 62.9365 869.211 M62.9365 865.507 Q68.7467 865.507 71.8022 870.113 Q74.8809 874.697 74.8809 883.447 Q74.8809 892.174 71.8022 896.78 Q68.7467 901.363 62.9365 901.363 Q57.1264 901.363 54.0477 896.78 Q50.9921 892.174 50.9921 883.447 Q50.9921 874.697 54.0477 870.113 Q57.1264 865.507 62.9365 865.507 Z" fill="#000000" fill-rule="nonzero" fill-opacity="1" /><path clip-path="url(#clip210)" d="M83.0984 894.812 L87.9827 894.812 L87.9827 900.692 L83.0984 900.692 L83.0984 894.812 Z" fill="#000000" fill-rule="nonzero" fill-opacity="1" /><path clip-path="url(#clip210)" d="M111.015 870.206 L99.2095 888.655 L111.015 888.655 L111.015 870.206 M109.788 866.132 L115.668 866.132 L115.668 888.655 L120.598 888.655 L120.598 892.544 L115.668 892.544 L115.668 900.692 L111.015 900.692 L111.015 892.544 L95.4132 892.544 L95.4132 888.03 L109.788 866.132 Z" fill="#000000" fill-rule="nonzero" fill-opacity="1" /><path clip-path="url(#clip210)" d="M63.2606 549.155 Q59.6495 549.155 57.8208 552.719 Q56.0152 556.261 56.0152 563.391 Q56.0152 570.497 57.8208 574.062 Q59.6495 577.604 63.2606 577.604 Q66.8948 577.604 68.7004 574.062 Q70.5291 570.497 70.5291 563.391 Q70.5291 556.261 68.7004 552.719 Q66.8948 549.155 63.2606 549.155 M63.2606 545.451 Q69.0707 545.451 72.1263 550.057 Q75.205 554.641 75.205 563.391 Q75.205 572.117 72.1263 576.724 Q69.0707 581.307 63.2606 581.307 Q57.4504 581.307 54.3717 576.724 Q51.3162 572.117 51.3162 563.391 Q51.3162 554.641 54.3717 550.057 Q57.4504 545.451 63.2606 545.451 Z" fill="#000000" fill-rule="nonzero" fill-opacity="1" /><path clip-path="url(#clip210)" d="M83.4225 574.756 L88.3067 574.756 L88.3067 580.636 L83.4225 580.636 L83.4225 574.756 Z" fill="#000000" fill-rule="nonzero" fill-opacity="1" /><path clip-path="url(#clip210)" d="M109.071 561.493 Q105.922 561.493 104.071 563.645 Q102.242 565.798 102.242 569.548 Q102.242 573.275 104.071 575.451 Q105.922 577.604 109.071 577.604 Q112.219 577.604 114.047 575.451 Q115.899 573.275 115.899 569.548 Q115.899 565.798 114.047 563.645 Q112.219 561.493 109.071 561.493 M118.353 546.84 L118.353 551.099 Q116.594 550.266 114.788 549.826 Q113.006 549.386 111.246 549.386 Q106.617 549.386 104.163 552.511 Q101.733 555.636 101.385 561.955 Q102.751 559.942 104.811 558.877 Q106.871 557.789 109.348 557.789 Q114.557 557.789 117.566 560.96 Q120.598 564.108 120.598 569.548 Q120.598 574.872 117.45 578.09 Q114.302 581.307 109.071 581.307 Q103.075 581.307 99.9039 576.724 Q96.7326 572.117 96.7326 563.391 Q96.7326 555.196 100.621 550.335 Q104.51 545.451 111.061 545.451 Q112.82 545.451 114.603 545.798 Q116.408 546.145 118.353 546.84 Z" fill="#000000" fill-rule="nonzero" fill-opacity="1" /><path clip-path="url(#clip210)" d="M63.5152 229.099 Q59.9041 229.099 58.0754 232.663 Q56.2699 236.205 56.2699 243.335 Q56.2699 250.441 58.0754 254.006 Q59.9041 257.547 63.5152 257.547 Q67.1494 257.547 68.955 254.006 Q70.7837 250.441 70.7837 243.335 Q70.7837 236.205 68.955 232.663 Q67.1494 229.099 63.5152 229.099 M63.5152 225.395 Q69.3254 225.395 72.3809 230.001 Q75.4596 234.585 75.4596 243.335 Q75.4596 252.061 72.3809 256.668 Q69.3254 261.251 63.5152 261.251 Q57.7051 261.251 54.6264 256.668 Q51.5708 252.061 51.5708 243.335 Q51.5708 234.585 54.6264 230.001 Q57.7051 225.395 63.5152 225.395 Z" fill="#000000" fill-rule="nonzero" fill-opacity="1" /><path clip-path="url(#clip210)" d="M83.6771 254.7 L88.5614 254.7 L88.5614 260.58 L83.6771 260.58 L83.6771 254.7 Z" fill="#000000" fill-rule="nonzero" fill-opacity="1" /><path clip-path="url(#clip210)" d="M108.746 244.168 Q105.413 244.168 103.492 245.95 Q101.594 247.733 101.594 250.858 Q101.594 253.983 103.492 255.765 Q105.413 257.547 108.746 257.547 Q112.08 257.547 114.001 255.765 Q115.922 253.96 115.922 250.858 Q115.922 247.733 114.001 245.95 Q112.103 244.168 108.746 244.168 M104.071 242.177 Q101.061 241.436 99.3715 239.376 Q97.7048 237.316 97.7048 234.353 Q97.7048 230.21 100.645 227.802 Q103.608 225.395 108.746 225.395 Q113.908 225.395 116.848 227.802 Q119.788 230.21 119.788 234.353 Q119.788 237.316 118.098 239.376 Q116.432 241.436 113.445 242.177 Q116.825 242.964 118.7 245.256 Q120.598 247.548 120.598 250.858 Q120.598 255.881 117.52 258.566 Q114.464 261.251 108.746 261.251 Q103.029 261.251 99.9502 258.566 Q96.8947 255.881 96.8947 250.858 Q96.8947 247.548 98.7928 245.256 Q100.691 242.964 104.071 242.177 M102.358 234.793 Q102.358 237.478 104.024 238.983 Q105.714 240.487 108.746 240.487 Q111.756 240.487 113.445 238.983 Q115.158 237.478 115.158 234.793 Q115.158 232.108 113.445 230.603 Q111.756 229.099 108.746 229.099 Q105.714 229.099 104.024 230.603 Q102.358 232.108 102.358 234.793 Z" fill="#000000" fill-rule="nonzero" fill-opacity="1" /><circle clip-path="url(#clip212)" cx="900.754" cy="117.213" r="14.4" fill="#0000ff" fill-rule="evenodd" fill-opacity="1" stroke="#000000" stroke-opacity="1" stroke-width="3.2"/>
<circle clip-path="url(#clip212)" cx="1337.66" cy="998.336" r="14.4" fill="#0000ff" fill-rule="evenodd" fill-opacity="1" stroke="#000000" stroke-opacity="1" stroke-width="3.2"/>
<circle clip-path="url(#clip212)" cx="2288.96" cy="1030.31" r="14.4" fill="#0000ff" fill-rule="evenodd" fill-opacity="1" stroke="#000000" stroke-opacity="1" stroke-width="3.2"/>
<circle clip-path="url(#clip212)" cx="1840.64" cy="87.9763" r="14.4" fill="#0000ff" fill-rule="evenodd" fill-opacity="1" stroke="#000000" stroke-opacity="1" stroke-width="3.2"/>
<circle clip-path="url(#clip212)" cx="218.754" cy="1410.69" r="14.4" fill="#0000ff" fill-rule="evenodd" fill-opacity="1" stroke="#000000" stroke-opacity="1" stroke-width="3.2"/>
<circle clip-path="url(#clip212)" cx="768.03" cy="1026.75" r="14.4" fill="#0000ff" fill-rule="evenodd" fill-opacity="1" stroke="#000000" stroke-opacity="1" stroke-width="3.2"/>
<circle clip-path="url(#clip212)" cx="2017.02" cy="967.646" r="14.4" fill="#0000ff" fill-rule="evenodd" fill-opacity="1" stroke="#000000" stroke-opacity="1" stroke-width="3.2"/>
<circle clip-path="url(#clip212)" cx="2283.71" cy="1087.25" r="14.4" fill="#0000ff" fill-rule="evenodd" fill-opacity="1" stroke="#000000" stroke-opacity="1" stroke-width="3.2"/>
<circle clip-path="url(#clip212)" cx="1955.74" cy="1445.72" r="14.4" fill="#0000ff" fill-rule="evenodd" fill-opacity="1" stroke="#000000" stroke-opacity="1" stroke-width="3.2"/>
<circle clip-path="url(#clip212)" cx="257.146" cy="888.562" r="14.4" fill="#0000ff" fill-rule="evenodd" fill-opacity="1" stroke="#000000" stroke-opacity="1" stroke-width="3.2"/>
<circle clip-path="url(#clip212)" cx="1413.3" cy="296.531" r="14.4" fill="#0000ff" fill-rule="evenodd" fill-opacity="1" stroke="#000000" stroke-opacity="1" stroke-width="3.2"/>
<circle clip-path="url(#clip212)" cx="611.082" cy="118.991" r="14.4" fill="#0000ff" fill-rule="evenodd" fill-opacity="1" stroke="#000000" stroke-opacity="1" stroke-width="3.2"/>
<path clip-path="url(#clip212)" d="M614.682 166.046 L614.682 214.046 L662.682 214.046 L662.682 166.046 L614.682 166.046 Z" fill="#ffffff" fill-rule="evenodd" fill-opacity="1" stroke="#ff0000" stroke-opacity="1" stroke-width="6.4"/>
<path clip-path="url(#clip212)" d="M1958.4 760.137 L1958.4 808.137 L2006.4 808.137 L2006.4 760.137 L1958.4 760.137 Z" fill="#ffffff" fill-rule="evenodd" fill-opacity="1" stroke="#ff0000" stroke-opacity="1" stroke-width="6.4"/>
<path clip-path="url(#clip212)" d="M994.777 719.237 L994.777 767.237 L1042.78 767.237 L1042.78 719.237 L994.777 719.237 Z" fill="#ffffff" fill-rule="evenodd" fill-opacity="1" stroke="#ff0000" stroke-opacity="1" stroke-width="6.4"/>
<path clip-path="url(#clip212)" d="M806.323 1254.75 L806.323 1302.75 L854.323 1302.75 L854.323 1254.75 L806.323 1254.75 Z" fill="#ffffff" fill-rule="evenodd" fill-opacity="1" stroke="#ff0000" stroke-opacity="1" stroke-width="6.4"/>
<path clip-path="url(#clip212)" d="M2266.6 876.347 L2266.6 924.347 L2314.6 924.347 L2314.6 876.347 L2266.6 876.347 Z" fill="#ffffff" fill-rule="evenodd" fill-opacity="1" stroke="#ff0000" stroke-opacity="1" stroke-width="6.4"/>
<path clip-path="url(#clip210)" d="M1901.81 250.738 L2279.55 250.738 L2279.55 95.2176 L1901.81 95.2176  Z" fill="#ffffff" fill-rule="evenodd" fill-opacity="1"/>
<polyline clip-path="url(#clip210)" style="stroke:#000000; stroke-linecap:round; stroke-linejoin:round; stroke-width:4; stroke-opacity:1; fill:none" points="1901.81,250.738 2279.55,250.738 2279.55,95.2176 1901.81,95.2176 1901.81,250.738 "/>
<circle clip-path="url(#clip210)" cx="1999.42" cy="147.058" r="20.48" fill="#0000ff" fill-rule="evenodd" fill-opacity="1" stroke="#000000" stroke-opacity="1" stroke-width="4.55111"/>
<path clip-path="url(#clip210)" d="M2124.89 132.44 L2124.89 137.37 Q2122.53 135.171 2119.85 134.083 Q2117.19 132.995 2114.18 132.995 Q2108.25 132.995 2105.1 136.629 Q2101.96 140.24 2101.96 147.092 Q2101.96 153.921 2105.1 157.555 Q2108.25 161.166 2114.18 161.166 Q2117.19 161.166 2119.85 160.078 Q2122.53 158.99 2124.89 156.791 L2124.89 161.676 Q2122.44 163.342 2119.69 164.176 Q2116.96 165.009 2113.9 165.009 Q2106.05 165.009 2101.54 160.217 Q2097.02 155.402 2097.02 147.092 Q2097.02 138.759 2101.54 133.967 Q2106.05 129.153 2113.9 129.153 Q2117 129.153 2119.73 129.986 Q2122.49 130.796 2124.89 132.44 Z" fill="#000000" fill-rule="nonzero" fill-opacity="1" /><path clip-path="url(#clip210)" d="M2131.93 128.319 L2136.19 128.319 L2136.19 164.338 L2131.93 164.338 L2131.93 128.319 Z" fill="#000000" fill-rule="nonzero" fill-opacity="1" /><path clip-path="url(#clip210)" d="M2145.1 138.412 L2149.36 138.412 L2149.36 164.338 L2145.1 164.338 L2145.1 138.412 M2145.1 128.319 L2149.36 128.319 L2149.36 133.713 L2145.1 133.713 L2145.1 128.319 Z" fill="#000000" fill-rule="nonzero" fill-opacity="1" /><path clip-path="url(#clip210)" d="M2180.45 150.31 L2180.45 152.393 L2160.87 152.393 Q2161.14 156.791 2163.51 159.106 Q2165.89 161.398 2170.13 161.398 Q2172.58 161.398 2174.87 160.796 Q2177.19 160.194 2179.45 158.99 L2179.45 163.018 Q2177.16 163.99 2174.76 164.5 Q2172.35 165.009 2169.87 165.009 Q2163.67 165.009 2160.03 161.398 Q2156.42 157.787 2156.42 151.629 Q2156.42 145.264 2159.85 141.537 Q2163.3 137.787 2169.13 137.787 Q2174.36 137.787 2177.39 141.166 Q2180.45 144.523 2180.45 150.31 M2176.19 149.06 Q2176.14 145.565 2174.22 143.481 Q2172.33 141.398 2169.18 141.398 Q2165.61 141.398 2163.46 143.412 Q2161.33 145.426 2161.01 149.083 L2176.19 149.06 Z" fill="#000000" fill-rule="nonzero" fill-opacity="1" /><path clip-path="url(#clip210)" d="M2208.99 148.689 L2208.99 164.338 L2204.73 164.338 L2204.73 148.828 Q2204.73 145.148 2203.3 143.319 Q2201.86 141.49 2198.99 141.49 Q2195.54 141.49 2193.55 143.69 Q2191.56 145.889 2191.56 149.685 L2191.56 164.338 L2187.28 164.338 L2187.28 138.412 L2191.56 138.412 L2191.56 142.44 Q2193.09 140.102 2195.15 138.944 Q2197.23 137.787 2199.94 137.787 Q2204.41 137.787 2206.7 140.565 Q2208.99 143.319 2208.99 148.689 Z" fill="#000000" fill-rule="nonzero" fill-opacity="1" /><path clip-path="url(#clip210)" d="M2221.7 131.051 L2221.7 138.412 L2230.47 138.412 L2230.47 141.722 L2221.7 141.722 L2221.7 155.796 Q2221.7 158.967 2222.56 159.87 Q2223.44 160.773 2226.1 160.773 L2230.47 160.773 L2230.47 164.338 L2226.1 164.338 Q2221.17 164.338 2219.29 162.509 Q2217.42 160.657 2217.42 155.796 L2217.42 141.722 L2214.29 141.722 L2214.29 138.412 L2217.42 138.412 L2217.42 131.051 L2221.7 131.051 Z" fill="#000000" fill-rule="nonzero" fill-opacity="1" /><path clip-path="url(#clip210)" d="M2252.6 139.176 L2252.6 143.203 Q2250.8 142.277 2248.85 141.815 Q2246.91 141.352 2244.82 141.352 Q2241.65 141.352 2240.06 142.324 Q2238.48 143.296 2238.48 145.24 Q2238.48 146.722 2239.62 147.578 Q2240.75 148.412 2244.18 149.176 L2245.64 149.5 Q2250.17 150.472 2252.07 152.254 Q2253.99 154.014 2253.99 157.185 Q2253.99 160.796 2251.12 162.902 Q2248.27 165.009 2243.27 165.009 Q2241.19 165.009 2238.92 164.592 Q2236.68 164.199 2234.18 163.388 L2234.18 158.99 Q2236.54 160.217 2238.83 160.842 Q2241.12 161.444 2243.37 161.444 Q2246.38 161.444 2248 160.426 Q2249.62 159.384 2249.62 157.509 Q2249.62 155.773 2248.44 154.847 Q2247.28 153.921 2243.32 153.064 L2241.84 152.717 Q2237.88 151.884 2236.12 150.171 Q2234.36 148.435 2234.36 145.426 Q2234.36 141.768 2236.95 139.778 Q2239.55 137.787 2244.32 137.787 Q2246.68 137.787 2248.76 138.134 Q2250.84 138.481 2252.6 139.176 Z" fill="#000000" fill-rule="nonzero" fill-opacity="1" /><path clip-path="url(#clip210)" d="M1977.47 176.955 L1977.47 220.84 L2021.36 220.84 L2021.36 176.955 L1977.47 176.955 Z" fill="#ffffff" fill-rule="evenodd" fill-opacity="1" stroke="#ff0000" stroke-opacity="1" stroke-width="5.85143"/>
<path clip-path="url(#clip210)" d="M2097.02 181.618 L2116.89 181.618 L2116.89 185.553 L2101.7 185.553 L2101.7 195.738 L2115.4 195.738 L2115.4 199.673 L2101.7 199.673 L2101.7 216.178 L2097.02 216.178 L2097.02 181.618 Z" fill="#000000" fill-rule="nonzero" fill-opacity="1" /><path clip-path="url(#clip210)" d="M2131.54 203.145 Q2126.38 203.145 2124.39 204.326 Q2122.39 205.506 2122.39 208.354 Q2122.39 210.622 2123.88 211.965 Q2125.38 213.284 2127.95 213.284 Q2131.49 213.284 2133.62 210.784 Q2135.77 208.261 2135.77 204.094 L2135.77 203.145 L2131.54 203.145 M2140.03 201.386 L2140.03 216.178 L2135.77 216.178 L2135.77 212.242 Q2134.32 214.603 2132.14 215.738 Q2129.96 216.849 2126.82 216.849 Q2122.83 216.849 2120.47 214.627 Q2118.14 212.381 2118.14 208.631 Q2118.14 204.256 2121.05 202.034 Q2123.99 199.812 2129.8 199.812 L2135.77 199.812 L2135.77 199.395 Q2135.77 196.455 2133.83 194.858 Q2131.91 193.238 2128.41 193.238 Q2126.19 193.238 2124.08 193.77 Q2121.98 194.303 2120.03 195.367 L2120.03 191.432 Q2122.37 190.53 2124.57 190.09 Q2126.77 189.627 2128.85 189.627 Q2134.48 189.627 2137.26 192.543 Q2140.03 195.46 2140.03 201.386 Z" fill="#000000" fill-rule="nonzero" fill-opacity="1" /><path clip-path="url(#clip210)" d="M2167.46 191.247 L2167.46 195.229 Q2165.66 194.233 2163.83 193.747 Q2162.02 193.238 2160.17 193.238 Q2156.03 193.238 2153.74 195.877 Q2151.45 198.492 2151.45 203.238 Q2151.45 207.983 2153.74 210.622 Q2156.03 213.238 2160.17 213.238 Q2162.02 213.238 2163.83 212.752 Q2165.66 212.242 2167.46 211.247 L2167.46 215.182 Q2165.68 216.016 2163.76 216.432 Q2161.86 216.849 2159.71 216.849 Q2153.85 216.849 2150.4 213.168 Q2146.96 209.488 2146.96 203.238 Q2146.96 196.895 2150.43 193.261 Q2153.92 189.627 2159.99 189.627 Q2161.95 189.627 2163.83 190.043 Q2165.7 190.437 2167.46 191.247 Z" fill="#000000" fill-rule="nonzero" fill-opacity="1" /><path clip-path="url(#clip210)" d="M2174.87 190.252 L2179.13 190.252 L2179.13 216.178 L2174.87 216.178 L2174.87 190.252 M2174.87 180.159 L2179.13 180.159 L2179.13 185.553 L2174.87 185.553 L2174.87 180.159 Z" fill="#000000" fill-rule="nonzero" fill-opacity="1" /><path clip-path="url(#clip210)" d="M2188.04 180.159 L2192.3 180.159 L2192.3 216.178 L2188.04 216.178 L2188.04 180.159 Z" fill="#000000" fill-rule="nonzero" fill-opacity="1" /><path clip-path="url(#clip210)" d="M2201.21 190.252 L2205.47 190.252 L2205.47 216.178 L2201.21 216.178 L2201.21 190.252 M2201.21 180.159 L2205.47 180.159 L2205.47 185.553 L2201.21 185.553 L2201.21 180.159 Z" fill="#000000" fill-rule="nonzero" fill-opacity="1" /><path clip-path="url(#clip210)" d="M2218.6 182.891 L2218.6 190.252 L2227.37 190.252 L2227.37 193.562 L2218.6 193.562 L2218.6 207.636 Q2218.6 210.807 2219.45 211.71 Q2220.33 212.613 2223 212.613 L2227.37 212.613 L2227.37 216.178 L2223 216.178 Q2218.07 216.178 2216.19 214.349 Q2214.32 212.497 2214.32 207.636 L2214.32 193.562 L2211.19 193.562 L2211.19 190.252 L2214.32 190.252 L2214.32 182.891 L2218.6 182.891 Z" fill="#000000" fill-rule="nonzero" fill-opacity="1" /><path clip-path="url(#clip210)" d="M2243.76 218.585 Q2241.95 223.215 2240.24 224.627 Q2238.53 226.039 2235.66 226.039 L2232.26 226.039 L2232.26 222.474 L2234.76 222.474 Q2236.51 222.474 2237.49 221.64 Q2238.46 220.807 2239.64 217.705 L2240.4 215.761 L2229.92 190.252 L2234.43 190.252 L2242.53 210.529 L2250.64 190.252 L2255.15 190.252 L2243.76 218.585 Z" fill="#000000" fill-rule="nonzero" fill-opacity="1" /></svg>
