<?xml version="1.0" encoding="utf-8"?>
<svg xmlns="http://www.w3.org/2000/svg" xmlns:xlink="http://www.w3.org/1999/xlink" width="600" height="400" viewBox="0 0 2400 1600">
<defs>
  <clipPath id="clip040">
    <rect x="0" y="0" width="2400" height="1600"/>
  </clipPath>
</defs>
<path clip-path="url(#clip040)" d="M0 1600 L2400 1600 L2400 0 L0 0  Z" fill="#ffffff" fill-rule="evenodd" fill-opacity="1"/>
<defs>
  <clipPath id="clip041">
    <rect x="219" y="47" width="2134" height="1377"/>
  </clipPath>
</defs>
<path clip-path="url(#clip040)" d="M219.866 1423.18 L2352.76 1423.18 L2352.76 47.2441 L219.866 47.2441  Z" fill="#ffffff" fill-rule="evenodd" fill-opacity="1"/>
<polyline clip-path="url(#clip041)" style="stroke:#000000; stroke-linecap:round; stroke-linejoin:round; stroke-width:2; stroke-opacity:0.1; fill:none" points="503.804,1423.18 503.804,47.2441 "/>
<polyline clip-path="url(#clip041)" style="stroke:#000000; stroke-linecap:round; stroke-linejoin:round; stroke-width:2; stroke-opacity:0.1; fill:none" points="950.951,1423.18 950.951,47.2441 "/>
<polyline clip-path="url(#clip041)" style="stroke:#000000; stroke-linecap:round; stroke-linejoin:round; stroke-width:2; stroke-opacity:0.1; fill:none" points="1398.1,1423.18 1398.1,47.2441 "/>
<polyline clip-path="url(#clip041)" style="stroke:#000000; stroke-linecap:round; stroke-linejoin:round; stroke-width:2; stroke-opacity:0.1; fill:none" points="1845.24,1423.18 1845.24,47.2441 "/>
<polyline clip-path="url(#clip041)" style="stroke:#000000; stroke-linecap:round; stroke-linejoin:round; stroke-width:2; stroke-opacity:0.1; fill:none" points="2292.39,1423.18 2292.39,47.2441 "/>
<polyline clip-path="url(#clip041)" style="stroke:#000000; stroke-linecap:round; stroke-linejoin:round; stroke-width:2; stroke-opacity:0.1; fill:none" points="219.866,1390.68 2352.76,1390.68 "/>
<polyline clip-path="url(#clip041)" style="stroke:#000000; stroke-linecap:round; stroke-linejoin:round; stroke-width:2; stroke-opacity:0.1; fill:none" points="219.866,1040.69 2352.76,1040.69 "/>
<polyline clip-path="url(#clip041)" style="stroke:#000000; stroke-linecap:round; stroke-linejoin:round; stroke-width:2; stroke-opacity:0.1; fill:none" points="219.866,690.689 2352.76,690.689 "/>
<polyline clip-path="url(#clip041)" style="stroke:#000000; stroke-linecap:round; stroke-linejoin:round; stroke-width:2; stroke-opacity:0.1; fill:none" points="219.866,340.692 2352.76,340.692 "/>
<polyline clip-path="url(#clip040)" style="stroke:#000000; stroke-linecap:round; stroke-linejoin:round; stroke-width:4; stroke-opacity:1; fill:none" points="219.866,1423.18 2352.76,1423.18 "/>
<polyline clip-path="url(#clip040)" style="stroke:#000000; stroke-linecap:round; stroke-linejoin:round; stroke-width:4; stroke-opacity:1; fill:none" points="503.804,1423.18 503.804,1404.28 "/>
<polyline clip-path="url(#clip040)" style="stroke:#000000; stroke-linecap:round; stroke-linejoin:round; stroke-width:4; stroke-opacity:1; fill:none" points="950.951,1423.18 950.951,1404.28 "/>
<polyline clip-path="url(#clip040)" style="stroke:#000000; stroke-linecap:round; stroke-linejoin:round; stroke-width:4; stroke-opacity:1; fill:none" points="1398.1,1423.18 1398.1,1404.28 "/>
<polyline clip-path="url(#clip040)" style="stroke:#000000; stroke-linecap:round; stroke-linejoin:round; stroke-width:4; stroke-opacity:1; fill:none" points="1845.24,1423.18 1845.24,1404.28 "/>
<polyline clip-path="url(#clip040)" style="stroke:#000000; stroke-linecap:round; stroke-linejoin:round; stroke-width:4; stroke-opacity:1; fill:none" points="2292.39,1423.18 2292.39,1404.28 "/>
<path clip-path="url(#clip040)" d="M498.457 1481.64 L514.777 1481.64 L514.777 1485.58 L492.832 1485.58 L492.832 1481.64 Q495.494 1478.89 500.078 1474.26 Q504.684 1469.61 505.865 1468.27 Q508.11 1465.74 508.99 1464.01 Q509.892 1462.25 509.892 1460.56 Q509.892 1457.8 507.948 1456.07 Q506.027 1454.33 502.925 1454.33 Q500.726 1454.33 498.272 1455.09 Q495.841 1455.86 493.064 1457.41 L493.064 1452.69 Q495.888 1451.55 498.341 1450.97 Q500.795 1450.39 502.832 1450.39 Q508.203 1450.39 511.397 1453.08 Q514.591 1455.77 514.591 1460.26 Q514.591 1462.39 513.781 1464.31 Q512.994 1466.2 510.888 1468.8 Q510.309 1469.47 507.207 1472.69 Q504.105 1475.88 498.457 1481.64 Z" fill="#000000" fill-rule="nonzero" fill-opacity="1" /><path clip-path="url(#clip040)" d="M953.96 1455.09 L942.155 1473.54 L953.96 1473.54 L953.96 1455.09 M952.733 1451.02 L958.613 1451.02 L958.613 1473.54 L963.544 1473.54 L963.544 1477.43 L958.613 1477.43 L958.613 1485.58 L953.96 1485.58 L953.96 1477.43 L938.359 1477.43 L938.359 1472.92 L952.733 1451.02 Z" fill="#000000" fill-rule="nonzero" fill-opacity="1" /><path clip-path="url(#clip040)" d="M1398.5 1466.44 Q1395.35 1466.44 1393.5 1468.59 Q1391.67 1470.74 1391.67 1474.49 Q1391.67 1478.22 1393.5 1480.39 Q1395.35 1482.55 1398.5 1482.55 Q1401.65 1482.55 1403.48 1480.39 Q1405.33 1478.22 1405.33 1474.49 Q1405.33 1470.74 1403.48 1468.59 Q1401.65 1466.44 1398.5 1466.44 M1407.79 1451.78 L1407.79 1456.04 Q1406.03 1455.21 1404.22 1454.77 Q1402.44 1454.33 1400.68 1454.33 Q1396.05 1454.33 1393.6 1457.45 Q1391.16 1460.58 1390.82 1466.9 Q1392.18 1464.89 1394.24 1463.82 Q1396.3 1462.73 1398.78 1462.73 Q1403.99 1462.73 1407 1465.9 Q1410.03 1469.05 1410.03 1474.49 Q1410.03 1479.82 1406.88 1483.03 Q1403.73 1486.25 1398.5 1486.25 Q1392.51 1486.25 1389.34 1481.67 Q1386.16 1477.06 1386.16 1468.33 Q1386.16 1460.14 1390.05 1455.28 Q1393.94 1450.39 1400.49 1450.39 Q1402.25 1450.39 1404.04 1450.74 Q1405.84 1451.09 1407.79 1451.78 Z" fill="#000000" fill-rule="nonzero" fill-opacity="1" /><path clip-path="url(#clip040)" d="M1845.24 1469.17 Q1841.91 1469.17 1839.99 1470.95 Q1838.09 1472.73 1838.09 1475.86 Q1838.09 1478.98 1839.99 1480.77 Q1841.91 1482.55 1845.24 1482.55 Q1848.58 1482.55 1850.5 1480.77 Q1852.42 1478.96 1852.42 1475.86 Q1852.42 1472.73 1850.5 1470.95 Q1848.6 1469.17 1845.24 1469.17 M1840.57 1467.18 Q1837.56 1466.44 1835.87 1464.38 Q1834.2 1462.32 1834.2 1459.35 Q1834.2 1455.21 1837.14 1452.8 Q1840.11 1450.39 1845.24 1450.39 Q1850.41 1450.39 1853.35 1452.8 Q1856.29 1455.21 1856.29 1459.35 Q1856.29 1462.32 1854.6 1464.38 Q1852.93 1466.44 1849.94 1467.18 Q1853.32 1467.96 1855.2 1470.26 Q1857.1 1472.55 1857.1 1475.86 Q1857.1 1480.88 1854.02 1483.57 Q1850.96 1486.25 1845.24 1486.25 Q1839.53 1486.25 1836.45 1483.57 Q1833.39 1480.88 1833.39 1475.86 Q1833.39 1472.55 1835.29 1470.26 Q1837.19 1467.96 1840.57 1467.18 M1838.86 1459.79 Q1838.86 1462.48 1840.52 1463.98 Q1842.21 1465.49 1845.24 1465.49 Q1848.25 1465.49 1849.94 1463.98 Q1851.66 1462.48 1851.66 1459.79 Q1851.66 1457.11 1849.94 1455.6 Q1848.25 1454.1 1845.24 1454.1 Q1842.21 1454.1 1840.52 1455.6 Q1838.86 1457.11 1838.86 1459.79 Z" fill="#000000" fill-rule="nonzero" fill-opacity="1" /><path clip-path="url(#clip040)" d="M2267.08 1481.64 L2274.72 1481.64 L2274.72 1455.28 L2266.41 1456.95 L2266.41 1452.69 L2274.67 1451.02 L2279.35 1451.02 L2279.35 1481.64 L2286.99 1481.64 L2286.99 1485.58 L2267.08 1485.58 L2267.08 1481.64 Z" fill="#000000" fill-rule="nonzero" fill-opacity="1" /><path clip-path="url(#clip040)" d="M2306.43 1454.1 Q2302.82 1454.1 2300.99 1457.66 Q2299.19 1461.2 2299.19 1468.33 Q2299.19 1475.44 2300.99 1479.01 Q2302.82 1482.55 2306.43 1482.55 Q2310.06 1482.55 2311.87 1479.01 Q2313.7 1475.44 2313.7 1468.33 Q2313.7 1461.2 2311.87 1457.66 Q2310.06 1454.1 2306.43 1454.1 M2306.43 1450.39 Q2312.24 1450.39 2315.3 1455 Q2318.37 1459.58 2318.37 1468.33 Q2318.37 1477.06 2315.3 1481.67 Q2312.24 1486.25 2306.43 1486.25 Q2300.62 1486.25 2297.54 1481.67 Q2294.49 1477.06 2294.49 1468.33 Q2294.49 1459.58 2297.54 1455 Q2300.62 1450.39 2306.43 1450.39 Z" fill="#000000" fill-rule="nonzero" fill-opacity="1" /><path clip-path="url(#clip040)" d="M1189.74 1520.52 L1217.05 1520.52 L1217.05 1525.93 L1196.17 1525.93 L1196.17 1539.94 L1215.02 1539.94 L1215.02 1545.35 L1196.17 1545.35 L1196.17 1568.04 L1189.74 1568.04 L1189.74 1520.52 Z" fill="#000000" fill-rule="nonzero" fill-opacity="1" /><path clip-path="url(#clip040)" d="M1237.2 1550.12 Q1230.1 1550.12 1227.36 1551.75 Q1224.63 1553.37 1224.63 1557.29 Q1224.63 1560.4 1226.66 1562.25 Q1228.73 1564.07 1232.27 1564.07 Q1237.14 1564.07 1240.06 1560.63 Q1243.02 1557.16 1243.02 1551.43 L1243.02 1550.12 L1237.2 1550.12 M1248.88 1547.71 L1248.88 1568.04 L1243.02 1568.04 L1243.02 1562.63 Q1241.02 1565.88 1238.03 1567.44 Q1235.04 1568.97 1230.71 1568.97 Q1225.23 1568.97 1221.99 1565.91 Q1218.77 1562.82 1218.77 1557.67 Q1218.77 1551.65 1222.78 1548.6 Q1226.82 1545.54 1234.81 1545.54 L1243.02 1545.54 L1243.02 1544.97 Q1243.02 1540.93 1240.35 1538.73 Q1237.71 1536.5 1232.9 1536.5 Q1229.85 1536.5 1226.95 1537.23 Q1224.05 1537.97 1221.38 1539.43 L1221.38 1534.02 Q1224.6 1532.78 1227.62 1532.17 Q1230.64 1531.54 1233.51 1531.54 Q1241.24 1531.54 1245.06 1535.55 Q1248.88 1539.56 1248.88 1547.71 Z" fill="#000000" fill-rule="nonzero" fill-opacity="1" /><path clip-path="url(#clip040)" d="M1286.6 1533.76 L1286.6 1539.24 Q1284.11 1537.87 1281.6 1537.2 Q1279.12 1536.5 1276.57 1536.5 Q1270.87 1536.5 1267.72 1540.13 Q1264.57 1543.73 1264.57 1550.25 Q1264.57 1556.78 1267.72 1560.4 Q1270.87 1564 1276.57 1564 Q1279.12 1564 1281.6 1563.33 Q1284.11 1562.63 1286.6 1561.26 L1286.6 1566.68 Q1284.15 1567.82 1281.5 1568.39 Q1278.9 1568.97 1275.93 1568.97 Q1267.88 1568.97 1263.14 1563.91 Q1258.4 1558.85 1258.4 1550.25 Q1258.4 1541.53 1263.17 1536.53 Q1267.98 1531.54 1276.32 1531.54 Q1279.02 1531.54 1281.6 1532.11 Q1284.18 1532.65 1286.6 1533.76 Z" fill="#000000" fill-rule="nonzero" fill-opacity="1" /><path clip-path="url(#clip040)" d="M1302.58 1522.27 L1302.58 1532.4 L1314.64 1532.4 L1314.64 1536.95 L1302.58 1536.95 L1302.58 1556.3 Q1302.58 1560.66 1303.75 1561.9 Q1304.96 1563.14 1308.62 1563.14 L1314.64 1563.14 L1314.64 1568.04 L1308.62 1568.04 Q1301.84 1568.04 1299.27 1565.53 Q1296.69 1562.98 1296.69 1556.3 L1296.69 1536.95 L1292.39 1536.95 L1292.39 1532.4 L1296.69 1532.4 L1296.69 1522.27 L1302.58 1522.27 Z" fill="#000000" fill-rule="nonzero" fill-opacity="1" /><path clip-path="url(#clip040)" d="M1336.15 1536.5 Q1331.44 1536.5 1328.71 1540.19 Q1325.97 1543.85 1325.97 1550.25 Q1325.97 1556.65 1328.67 1560.34 Q1331.41 1564 1336.15 1564 Q1340.83 1564 1343.57 1560.31 Q1346.31 1556.62 1346.31 1550.25 Q1346.31 1543.92 1343.57 1540.23 Q1340.83 1536.5 1336.15 1536.5 M1336.15 1531.54 Q1343.79 1531.54 1348.15 1536.5 Q1352.51 1541.47 1352.51 1550.25 Q1352.51 1559 1348.15 1564 Q1343.79 1568.97 1336.15 1568.97 Q1328.48 1568.97 1324.12 1564 Q1319.79 1559 1319.79 1550.25 Q1319.79 1541.47 1324.12 1536.5 Q1328.48 1531.54 1336.15 1531.54 Z" fill="#000000" fill-rule="nonzero" fill-opacity="1" /><path clip-path="url(#clip040)" d="M1382.88 1537.87 Q1381.89 1537.3 1380.71 1537.04 Q1379.57 1536.76 1378.17 1536.76 Q1373.2 1536.76 1370.53 1540 Q1367.89 1543.22 1367.89 1549.27 L1367.89 1568.04 L1362 1568.04 L1362 1532.4 L1367.89 1532.4 L1367.89 1537.93 Q1369.73 1534.69 1372.69 1533.13 Q1375.65 1531.54 1379.89 1531.54 Q1380.49 1531.54 1381.22 1531.63 Q1381.96 1531.7 1382.85 1531.85 L1382.88 1537.87 Z" fill="#000000" fill-rule="nonzero" fill-opacity="1" /><polyline clip-path="url(#clip040)" style="stroke:#000000; stroke-linecap:round; stroke-linejoin:round; stroke-width:4; stroke-opacity:1; fill:none" points="219.866,1423.18 219.866,47.2441 "/>
<polyline clip-path="url(#clip040)" style="stroke:#000000; stroke-linecap:round; stroke-linejoin:round; stroke-width:4; stroke-opacity:1; fill:none" points="219.866,1390.68 238.764,1390.68 "/>
<polyline clip-path="url(#clip040)" style="stroke:#000000; stroke-linecap:round; stroke-linejoin:round; stroke-width:4; stroke-opacity:1; fill:none" points="219.866,1040.69 238.764,1040.69 "/>
<polyline clip-path="url(#clip040)" style="stroke:#000000; stroke-linecap:round; stroke-linejoin:round; stroke-width:4; stroke-opacity:1; fill:none" points="219.866,690.689 238.764,690.689 "/>
<polyline clip-path="url(#clip040)" style="stroke:#000000; stroke-linecap:round; stroke-linejoin:round; stroke-width:4; stroke-opacity:1; fill:none" points="219.866,340.692 238.764,340.692 "/>
<path clip-path="url(#clip040)" d="M126.691 1376.48 Q123.08 1376.48 121.251 1380.05 Q119.445 1383.59 119.445 1390.72 Q119.445 1397.82 121.251 1401.39 Q123.08 1404.93 126.691 1404.93 Q130.325 1404.93 132.13 1401.39 Q133.959 1397.82 133.959 1390.72 Q133.959 1383.59 132.13 1380.05 Q130.325 1376.48 126.691 1376.48 M126.691 1372.78 Q132.501 1372.78 135.556 1377.38 Q138.635 1381.97 138.635 1390.72 Q138.635 1399.44 135.556 1404.05 Q132.501 1408.63 126.691 1408.63 Q120.88 1408.63 117.802 1404.05 Q114.746 1399.44 114.746 1390.72 Q114.746 1381.97 117.802 1377.38 Q120.88 1372.78 126.691 1372.78 Z" fill="#000000" fill-rule="nonzero" fill-opacity="1" /><path clip-path="url(#clip040)" d="M146.853 1402.08 L151.737 1402.08 L151.737 1407.96 L146.853 1407.96 L146.853 1402.08 Z" fill="#000000" fill-rule="nonzero" fill-opacity="1" /><path clip-path="url(#clip040)" d="M171.922 1376.48 Q168.311 1376.48 166.482 1380.05 Q164.677 1383.59 164.677 1390.72 Q164.677 1397.82 166.482 1401.39 Q168.311 1404.93 171.922 1404.93 Q175.556 1404.93 177.362 1401.39 Q179.19 1397.82 179.19 1390.72 Q179.19 1383.59 177.362 1380.05 Q175.556 1376.48 171.922 1376.48 M171.922 1372.78 Q177.732 1372.78 180.788 1377.38 Q183.866 1381.97 183.866 1390.72 Q183.866 1399.44 180.788 1404.05 Q177.732 1408.63 171.922 1408.63 Q166.112 1408.63 163.033 1404.05 Q159.978 1399.44 159.978 1390.72 Q159.978 1381.97 163.033 1377.38 Q166.112 1372.78 171.922 1372.78 Z" fill="#000000" fill-rule="nonzero" fill-opacity="1" /><path clip-path="url(#clip040)" d="M128.288 1026.48 Q124.677 1026.48 122.848 1030.05 Q121.043 1033.59 121.043 1040.72 Q121.043 1047.83 122.848 1051.39 Q124.677 1054.93 128.288 1054.93 Q131.922 1054.93 133.728 1051.39 Q135.556 1047.83 135.556 1040.72 Q135.556 1033.59 133.728 1030.05 Q131.922 1026.48 128.288 1026.48 M128.288 1022.78 Q134.098 1022.78 137.154 1027.39 Q140.232 1031.97 140.232 1040.72 Q140.232 1049.45 137.154 1054.05 Q134.098 1058.64 128.288 1058.64 Q122.478 1058.64 119.399 1054.05 Q116.343 1049.45 116.343 1040.72 Q116.343 1031.97 119.399 1027.39 Q122.478 1022.78 128.288 1022.78 Z" fill="#000000" fill-rule="nonzero" fill-opacity="1" /><path clip-path="url(#clip040)" d="M148.45 1052.09 L153.334 1052.09 L153.334 1057.97 L148.45 1057.97 L148.45 1052.09 Z" fill="#000000" fill-rule="nonzero" fill-opacity="1" /><path clip-path="url(#clip040)" d="M167.547 1054.03 L183.866 1054.03 L183.866 1057.97 L161.922 1057.97 L161.922 1054.03 Q164.584 1051.28 169.167 1046.65 Q173.774 1041.99 174.954 1040.65 Q177.2 1038.13 178.079 1036.39 Q178.982 1034.63 178.982 1032.94 Q178.982 1030.19 177.038 1028.45 Q175.116 1026.72 172.014 1026.72 Q169.815 1026.72 167.362 1027.48 Q164.931 1028.24 162.153 1029.79 L162.153 1025.07 Q164.977 1023.94 167.431 1023.36 Q169.885 1022.78 171.922 1022.78 Q177.292 1022.78 180.487 1025.47 Q183.681 1028.15 183.681 1032.64 Q183.681 1034.77 182.871 1036.69 Q182.084 1038.59 179.977 1041.18 Q179.399 1041.85 176.297 1045.07 Q173.195 1048.27 167.547 1054.03 Z" fill="#000000" fill-rule="nonzero" fill-opacity="1" /><path clip-path="url(#clip040)" d="M126.205 676.487 Q122.593 676.487 120.765 680.052 Q118.959 683.594 118.959 690.723 Q118.959 697.83 120.765 701.395 Q122.593 704.936 126.205 704.936 Q129.839 704.936 131.644 701.395 Q133.473 697.83 133.473 690.723 Q133.473 683.594 131.644 680.052 Q129.839 676.487 126.205 676.487 M126.205 672.784 Q132.015 672.784 135.07 677.39 Q138.149 681.974 138.149 690.723 Q138.149 699.45 135.07 704.057 Q132.015 708.64 126.205 708.64 Q120.394 708.64 117.316 704.057 Q114.26 699.45 114.26 690.723 Q114.26 681.974 117.316 677.39 Q120.394 672.784 126.205 672.784 Z" fill="#000000" fill-rule="nonzero" fill-opacity="1" /><path clip-path="url(#clip040)" d="M146.366 702.089 L151.251 702.089 L151.251 707.969 L146.366 707.969 L146.366 702.089 Z" fill="#000000" fill-rule="nonzero" fill-opacity="1" /><path clip-path="url(#clip040)" d="M174.283 677.483 L162.477 695.932 L174.283 695.932 L174.283 677.483 M173.056 673.409 L178.936 673.409 L178.936 695.932 L183.866 695.932 L183.866 699.821 L178.936 699.821 L178.936 707.969 L174.283 707.969 L174.283 699.821 L158.681 699.821 L158.681 695.307 L173.056 673.409 Z" fill="#000000" fill-rule="nonzero" fill-opacity="1" /><path clip-path="url(#clip040)" d="M126.529 326.49 Q122.918 326.49 121.089 330.055 Q119.283 333.597 119.283 340.727 Q119.283 347.833 121.089 351.398 Q122.918 354.939 126.529 354.939 Q130.163 354.939 131.968 351.398 Q133.797 347.833 133.797 340.727 Q133.797 333.597 131.968 330.055 Q130.163 326.49 126.529 326.49 M126.529 322.787 Q132.339 322.787 135.394 327.393 Q138.473 331.977 138.473 340.727 Q138.473 349.453 135.394 354.06 Q132.339 358.643 126.529 358.643 Q120.718 358.643 117.64 354.06 Q114.584 349.453 114.584 340.727 Q114.584 331.977 117.64 327.393 Q120.718 322.787 126.529 322.787 Z" fill="#000000" fill-rule="nonzero" fill-opacity="1" /><path clip-path="url(#clip040)" d="M146.691 352.092 L151.575 352.092 L151.575 357.972 L146.691 357.972 L146.691 352.092 Z" fill="#000000" fill-rule="nonzero" fill-opacity="1" /><path clip-path="url(#clip040)" d="M172.339 338.828 Q169.19 338.828 167.339 340.981 Q165.51 343.134 165.51 346.884 Q165.51 350.611 167.339 352.787 Q169.19 354.939 172.339 354.939 Q175.487 354.939 177.315 352.787 Q179.167 350.611 179.167 346.884 Q179.167 343.134 177.315 340.981 Q175.487 338.828 172.339 338.828 M181.621 324.176 L181.621 328.435 Q179.862 327.602 178.056 327.162 Q176.274 326.722 174.514 326.722 Q169.885 326.722 167.431 329.847 Q165.001 332.972 164.653 339.291 Q166.019 337.277 168.079 336.213 Q170.139 335.125 172.616 335.125 Q177.825 335.125 180.834 338.296 Q183.866 341.444 183.866 346.884 Q183.866 352.208 180.718 355.426 Q177.57 358.643 172.339 358.643 Q166.343 358.643 163.172 354.06 Q160.001 349.453 160.001 340.727 Q160.001 332.532 163.89 327.671 Q167.778 322.787 174.329 322.787 Q176.089 322.787 177.871 323.134 Q179.676 323.481 181.621 324.176 Z" fill="#000000" fill-rule="nonzero" fill-opacity="1" /><path clip-path="url(#clip040)" d="M41.7242 895.58 Q42.4244 893.511 44.7161 891.57 Q47.0077 889.596 51.0181 887.623 L64.0042 881.098 L64.0042 888.005 L51.8138 894.084 Q47.0395 896.439 45.48 898.667 Q43.9204 900.864 43.9204 904.683 L43.9204 911.685 L64.0042 911.685 L64.0042 918.115 L16.4842 918.115 L16.4842 903.601 Q16.4842 895.453 19.8898 891.442 Q23.2955 887.432 30.1704 887.432 Q34.6582 887.432 37.6183 889.533 Q40.5784 891.601 41.7242 895.58 M21.7677 911.685 L38.6368 911.685 L38.6368 903.601 Q38.6368 898.954 36.5043 896.599 Q34.34 894.211 30.1704 894.211 Q26.0009 894.211 23.9002 896.599 Q21.7677 898.954 21.7677 903.601 L21.7677 911.685 Z" fill="#000000" fill-rule="nonzero" fill-opacity="1" /><path clip-path="url(#clip040)" d="M49.9359 876.61 L28.3562 876.61 L28.3562 870.754 L49.7131 870.754 Q54.7739 870.754 57.3202 868.78 Q59.8346 866.807 59.8346 862.86 Q59.8346 858.118 56.8109 855.381 Q53.7872 852.612 48.5673 852.612 L28.3562 852.612 L28.3562 846.755 L64.0042 846.755 L64.0042 852.612 L58.5296 852.612 Q61.7762 854.744 63.3676 857.577 Q64.9272 860.378 64.9272 864.102 Q64.9272 870.245 61.1078 873.427 Q57.2883 876.61 49.9359 876.61 M27.4968 861.874 L27.4968 861.874 Z" fill="#000000" fill-rule="nonzero" fill-opacity="1" /><path clip-path="url(#clip040)" d="M42.4881 805.06 L64.0042 805.06 L64.0042 810.916 L42.679 810.916 Q37.6183 810.916 35.1038 812.89 Q32.5894 814.863 32.5894 818.81 Q32.5894 823.552 35.6131 826.289 Q38.6368 829.027 43.8567 829.027 L64.0042 829.027 L64.0042 834.915 L28.3562 834.915 L28.3562 829.027 L33.8944 829.027 Q30.6797 826.926 29.0883 824.093 Q27.4968 821.229 27.4968 817.505 Q27.4968 811.362 31.3163 808.211 Q35.1038 805.06 42.4881 805.06 Z" fill="#000000" fill-rule="nonzero" fill-opacity="1" /><path clip-path="url(#clip040)" d="M18.2347 787.586 L28.3562 787.586 L28.3562 775.523 L32.9077 775.523 L32.9077 787.586 L52.2594 787.586 Q56.6199 787.586 57.8613 786.408 Q59.1026 785.199 59.1026 781.538 L59.1026 775.523 L64.0042 775.523 L64.0042 781.538 Q64.0042 788.318 61.4897 790.896 Q58.9434 793.474 52.2594 793.474 L32.9077 793.474 L32.9077 797.771 L28.3562 797.771 L28.3562 793.474 L18.2347 793.474 L18.2347 787.586 Z" fill="#000000" fill-rule="nonzero" fill-opacity="1" /><path clip-path="url(#clip040)" d="M28.3562 767.82 L28.3562 761.964 L64.0042 761.964 L64.0042 767.82 L28.3562 767.82 M14.479 767.82 L14.479 761.964 L21.895 761.964 L21.895 767.82 L14.479 767.82 Z" fill="#000000" fill-rule="nonzero" fill-opacity="1" /><path clip-path="url(#clip040)" d="M35.1993 721.955 Q31.2526 719.759 29.3747 716.704 Q27.4968 713.648 27.4968 709.51 Q27.4968 703.94 31.4117 700.917 Q35.2948 697.893 42.4881 697.893 L64.0042 697.893 L64.0042 703.781 L42.679 703.781 Q37.5546 703.781 35.072 705.596 Q32.5894 707.41 32.5894 711.134 Q32.5894 715.685 35.6131 718.327 Q38.6368 720.969 43.8567 720.969 L64.0042 720.969 L64.0042 726.857 L42.679 726.857 Q37.5228 726.857 35.072 728.671 Q32.5894 730.485 32.5894 734.273 Q32.5894 738.761 35.6449 741.403 Q38.6686 744.044 43.8567 744.044 L64.0042 744.044 L64.0042 749.933 L28.3562 749.933 L28.3562 744.044 L33.8944 744.044 Q30.616 742.039 29.0564 739.238 Q27.4968 736.437 27.4968 732.586 Q27.4968 728.703 29.4702 725.998 Q31.4436 723.26 35.1993 721.955 Z" fill="#000000" fill-rule="nonzero" fill-opacity="1" /><path clip-path="url(#clip040)" d="M44.7161 655.72 L47.5806 655.72 L47.5806 682.647 Q53.6281 682.265 56.8109 679.019 Q59.9619 675.74 59.9619 669.916 Q59.9619 666.542 59.1344 663.391 Q58.3069 660.208 56.6518 657.089 L62.1899 657.089 Q63.5267 660.24 64.227 663.55 Q64.9272 666.86 64.9272 670.266 Q64.9272 678.796 59.9619 683.793 Q54.9967 688.758 46.5303 688.758 Q37.7774 688.758 32.6531 684.048 Q27.4968 679.305 27.4968 671.284 Q27.4968 664.091 32.1438 659.922 Q36.7589 655.72 44.7161 655.72 M42.9973 661.577 Q38.1912 661.64 35.3266 664.282 Q32.4621 666.892 32.4621 671.221 Q32.4621 676.122 35.2312 679.082 Q38.0002 682.011 43.0292 682.456 L42.9973 661.577 Z" fill="#000000" fill-rule="nonzero" fill-opacity="1" /><path clip-path="url(#clip040)" d="M14.479 625.929 L14.479 612.433 L19.0304 612.433 L19.0304 620.072 L68.0464 620.072 L68.0464 612.433 L72.5979 612.433 L72.5979 625.929 L14.479 625.929 Z" fill="#000000" fill-rule="nonzero" fill-opacity="1" /><path clip-path="url(#clip040)" d="M29.4065 577.231 L34.9447 577.231 Q33.6716 579.714 33.035 582.387 Q32.3984 585.061 32.3984 587.925 Q32.3984 592.286 33.7352 594.482 Q35.072 596.646 37.7456 596.646 Q39.7826 596.646 40.9603 595.087 Q42.1061 593.527 43.1565 588.817 L43.6021 586.811 Q44.9389 580.573 47.3897 577.963 Q49.8086 575.321 54.1691 575.321 Q59.1344 575.321 62.0308 579.268 Q64.9272 583.183 64.9272 590.058 Q64.9272 592.923 64.3543 596.042 Q63.8132 599.129 62.6992 602.567 L56.6518 602.567 Q58.3387 599.32 59.198 596.169 Q60.0256 593.018 60.0256 589.931 Q60.0256 585.793 58.6251 583.565 Q57.1929 581.337 54.6147 581.337 Q52.2276 581.337 50.9545 582.96 Q49.6813 584.552 48.5037 589.994 L48.0262 592.031 Q46.8804 597.474 44.5251 599.893 Q42.138 602.312 38.0002 602.312 Q32.9713 602.312 30.2341 598.747 Q27.4968 595.182 27.4968 588.626 Q27.4968 585.379 27.9743 582.515 Q28.4517 579.65 29.4065 577.231 Z" fill="#000000" fill-rule="nonzero" fill-opacity="1" /><path clip-path="url(#clip040)" d="M14.479 552.309 L72.5979 552.309 L72.5979 565.805 L68.0464 565.805 L68.0464 558.198 L19.0304 558.198 L19.0304 565.805 L14.479 565.805 L14.479 552.309 Z" fill="#000000" fill-rule="nonzero" fill-opacity="1" /><circle clip-path="url(#clip041)" cx="280.231" cy="1370.34" r="14.4" fill="#009af9" fill-rule="evenodd" fill-opacity="1" stroke="#000000" stroke-opacity="1" stroke-width="3.2"/>
<circle clip-path="url(#clip041)" cx="503.804" cy="1324.84" r="14.4" fill="#009af9" fill-rule="evenodd" fill-opacity="1" stroke="#000000" stroke-opacity="1" stroke-width="3.2"/>
<circle clip-path="url(#clip041)" cx="727.378" cy="1253.6" r="14.4" fill="#009af9" fill-rule="evenodd" fill-opacity="1" stroke="#000000" stroke-opacity="1" stroke-width="3.2"/>
<circle clip-path="url(#clip041)" cx="950.951" cy="1173.05" r="14.4" fill="#009af9" fill-rule="evenodd" fill-opacity="1" stroke="#000000" stroke-opacity="1" stroke-width="3.2"/>
<circle clip-path="url(#clip041)" cx="1174.52" cy="946.049" r="14.4" fill="#009af9" fill-rule="evenodd" fill-opacity="1" stroke="#000000" stroke-opacity="1" stroke-width="3.2"/>
<circle clip-path="url(#clip041)" cx="1398.1" cy="919.685" r="14.4" fill="#009af9" fill-rule="evenodd" fill-opacity="1" stroke="#000000" stroke-opacity="1" stroke-width="3.2"/>
<circle clip-path="url(#clip041)" cx="1621.67" cy="752.487" r="14.4" fill="#009af9" fill-rule="evenodd" fill-opacity="1" stroke="#000000" stroke-opacity="1" stroke-width="3.2"/>
<circle clip-path="url(#clip041)" cx="1845.24" cy="575.296" r="14.4" fill="#009af9" fill-rule="evenodd" fill-opacity="1" stroke="#000000" stroke-opacity="1" stroke-width="3.2"/>
<circle clip-path="url(#clip041)" cx="2068.82" cy="267.385" r="14.4" fill="#009af9" fill-rule="evenodd" fill-opacity="1" stroke="#000000" stroke-opacity="1" stroke-width="3.2"/>
<circle clip-path="url(#clip041)" cx="2292.39" cy="122.837" r="14.4" fill="#009af9" fill-rule="evenodd" fill-opacity="1" stroke="#000000" stroke-opacity="1" stroke-width="3.2"/>
<polyline clip-path="url(#clip041)" style="stroke:#e26f46; stroke-linecap:round; stroke-linejoin:round; stroke-width:4; stroke-opacity:1; fill:none" points="280.231,1348.83 503.804,1310.57 727.378,1246.8 950.951,1157.52 1174.52,1042.74 1398.1,902.442 1621.67,736.64 1845.24,545.33 2068.82,328.512 2292.39,86.1857 "/>
<circle clip-path="url(#clip041)" cx="280.231" cy="1380.26" r="14.4" fill="#3da44d" fill-rule="evenodd" fill-opacity="1" stroke="#000000" stroke-opacity="1" stroke-width="3.2"/>
<circle clip-path="url(#clip041)" cx="503.804" cy="1369.02" r="14.4" fill="#3da44d" fill-rule="evenodd" fill-opacity="1" stroke="#000000" stroke-opacity="1" stroke-width="3.2"/>
<circle clip-path="url(#clip041)" cx="727.378" cy="1359.29" r="14.4" fill="#3da44d" fill-rule="evenodd" fill-opacity="1" stroke="#000000" stroke-opacity="1" stroke-width="3.2"/>
<circle clip-path="url(#clip041)" cx="950.951" cy="1348.58" r="14.4" fill="#3da44d" fill-rule="evenodd" fill-opacity="1" stroke="#000000" stroke-opacity="1" stroke-width="3.2"/>
<circle clip-path="url(#clip041)" cx="1174.52" cy="1341.96" r="14.4" fill="#3da44d" fill-rule="evenodd" fill-opacity="1" stroke="#000000" stroke-opacity="1" stroke-width="3.2"/>
<circle clip-path="url(#clip041)" cx="1398.1" cy="1327.36" r="14.4" fill="#3da44d" fill-rule="evenodd" fill-opacity="1" stroke="#000000" stroke-opacity="1" stroke-width="3.2"/>
<circle clip-path="url(#clip041)" cx="1621.67" cy="1319.23" r="14.4" fill="#3da44d" fill-rule="evenodd" fill-opacity="1" stroke="#000000" stroke-opacity="1" stroke-width="3.2"/>
<circle clip-path="url(#clip041)" cx="1845.24" cy="1298.18" r="14.4" fill="#3da44d" fill-rule="evenodd" fill-opacity="1" stroke="#000000" stroke-opacity="1" stroke-width="3.2"/>
<circle clip-path="url(#clip041)" cx="2068.82" cy="1293.66" r="14.4" fill="#3da44d" fill-rule="evenodd" fill-opacity="1" stroke="#000000" stroke-opacity="1" stroke-width="3.2"/>
<circle clip-path="url(#clip041)" cx="2292.39" cy="1263.82" r="14.4" fill="#3da44d" fill-rule="evenodd" fill-opacity="1" stroke="#000000" stroke-opacity="1" stroke-width="3.2"/>
<polyline clip-path="url(#clip041)" style="stroke:#c271d2; stroke-linecap:round; stroke-linejoin:round; stroke-width:4; stroke-opacity:1; fill:none" points="280.231,1384.24 503.804,1372.22 727.378,1360.19 950.951,1348.17 1174.52,1336.15 1398.1,1324.13 1621.67,1312.1 1845.24,1300.08 2068.82,1288.06 2292.39,1276.04 "/>
<path clip-path="url(#clip040)" d="M290.963 352.309 L796.843 352.309 L796.843 93.1086 L290.963 93.1086  Z" fill="#ffffff" fill-rule="evenodd" fill-opacity="1"/>
<polyline clip-path="url(#clip040)" style="stroke:#000000; stroke-linecap:round; stroke-linejoin:round; stroke-width:4; stroke-opacity:1; fill:none" points="290.963,352.309 796.843,352.309 796.843,93.1086 290.963,93.1086 290.963,352.309 "/>
<circle clip-path="url(#clip040)" cx="385.758" cy="144.949" r="20.48" fill="#009af9" fill-rule="evenodd" fill-opacity="1" stroke="#000000" stroke-opacity="1" stroke-width="4.55111"/>
<path clip-path="url(#clip040)" d="M496.386 132.275 L490.043 149.474 L502.752 149.474 L496.386 132.275 M493.747 127.669 L499.048 127.669 L512.219 162.229 L507.358 162.229 L504.21 153.363 L488.631 153.363 L485.483 162.229 L480.553 162.229 L493.747 127.669 Z" fill="#000000" fill-rule="nonzero" fill-opacity="1" /><path clip-path="url(#clip040)" d="M534.904 137.298 L534.904 141.28 Q533.099 140.284 531.27 139.798 Q529.465 139.289 527.613 139.289 Q523.469 139.289 521.178 141.928 Q518.886 144.544 518.886 149.289 Q518.886 154.034 521.178 156.673 Q523.469 159.289 527.613 159.289 Q529.465 159.289 531.27 158.803 Q533.099 158.293 534.904 157.298 L534.904 161.233 Q533.122 162.067 531.201 162.483 Q529.303 162.9 527.15 162.9 Q521.293 162.9 517.844 159.219 Q514.395 155.539 514.395 149.289 Q514.395 142.946 517.867 139.312 Q521.363 135.678 527.428 135.678 Q529.395 135.678 531.27 136.095 Q533.145 136.488 534.904 137.298 Z" fill="#000000" fill-rule="nonzero" fill-opacity="1" /><path clip-path="url(#clip040)" d="M546.525 128.942 L546.525 136.303 L555.298 136.303 L555.298 139.613 L546.525 139.613 L546.525 153.687 Q546.525 156.858 547.381 157.761 Q548.261 158.664 550.923 158.664 L555.298 158.664 L555.298 162.229 L550.923 162.229 Q545.992 162.229 544.117 160.4 Q542.242 158.548 542.242 153.687 L542.242 139.613 L539.117 139.613 L539.117 136.303 L542.242 136.303 L542.242 128.942 L546.525 128.942 Z" fill="#000000" fill-rule="nonzero" fill-opacity="1" /><path clip-path="url(#clip040)" d="M560.46 151.997 L560.46 136.303 L564.719 136.303 L564.719 151.835 Q564.719 155.516 566.154 157.368 Q567.589 159.196 570.46 159.196 Q573.909 159.196 575.899 156.997 Q577.913 154.798 577.913 151.002 L577.913 136.303 L582.173 136.303 L582.173 162.229 L577.913 162.229 L577.913 158.247 Q576.362 160.608 574.302 161.766 Q572.265 162.9 569.557 162.9 Q565.089 162.9 562.775 160.122 Q560.46 157.344 560.46 151.997 M571.177 135.678 L571.177 135.678 Z" fill="#000000" fill-rule="nonzero" fill-opacity="1" /><path clip-path="url(#clip040)" d="M602.728 149.196 Q597.566 149.196 595.575 150.377 Q593.585 151.557 593.585 154.405 Q593.585 156.673 595.066 158.016 Q596.571 159.335 599.14 159.335 Q602.682 159.335 604.811 156.835 Q606.964 154.312 606.964 150.145 L606.964 149.196 L602.728 149.196 M611.223 147.437 L611.223 162.229 L606.964 162.229 L606.964 158.293 Q605.506 160.655 603.33 161.789 Q601.154 162.9 598.006 162.9 Q594.024 162.9 591.663 160.678 Q589.325 158.432 589.325 154.682 Q589.325 150.307 592.242 148.085 Q595.182 145.863 600.992 145.863 L606.964 145.863 L606.964 145.446 Q606.964 142.507 605.02 140.909 Q603.098 139.289 599.603 139.289 Q597.381 139.289 595.274 139.821 Q593.168 140.354 591.223 141.419 L591.223 137.483 Q593.561 136.581 595.76 136.141 Q597.96 135.678 600.043 135.678 Q605.668 135.678 608.446 138.594 Q611.223 141.511 611.223 147.437 Z" fill="#000000" fill-rule="nonzero" fill-opacity="1" /><path clip-path="url(#clip040)" d="M619.996 126.21 L624.256 126.21 L624.256 162.229 L619.996 162.229 L619.996 126.21 Z" fill="#000000" fill-rule="nonzero" fill-opacity="1" /><polyline clip-path="url(#clip040)" style="stroke:#e26f46; stroke-linecap:round; stroke-linejoin:round; stroke-width:4; stroke-opacity:1; fill:none" points="314.661,196.789 456.854,196.789 "/>
<path clip-path="url(#clip040)" d="M496.571 182.68 Q491.479 182.68 488.469 186.476 Q485.483 190.272 485.483 196.823 Q485.483 203.351 488.469 207.147 Q491.479 210.944 496.571 210.944 Q501.664 210.944 504.627 207.147 Q507.613 203.351 507.613 196.823 Q507.613 190.272 504.627 186.476 Q501.664 182.68 496.571 182.68 M503.122 213.444 L509.279 220.18 L503.631 220.18 L498.516 214.647 Q497.752 214.694 497.335 214.717 Q496.942 214.74 496.571 214.74 Q489.28 214.74 484.905 209.879 Q480.553 204.995 480.553 196.823 Q480.553 188.629 484.905 183.768 Q489.28 178.884 496.571 178.884 Q503.84 178.884 508.192 183.768 Q512.543 188.629 512.543 196.823 Q512.543 202.842 510.113 207.124 Q507.705 211.407 503.122 213.444 Z" fill="#000000" fill-rule="nonzero" fill-opacity="1" /><path clip-path="url(#clip040)" d="M519.233 203.837 L519.233 188.143 L523.492 188.143 L523.492 203.675 Q523.492 207.356 524.928 209.208 Q526.363 211.036 529.233 211.036 Q532.682 211.036 534.673 208.837 Q536.687 206.638 536.687 202.842 L536.687 188.143 L540.946 188.143 L540.946 214.069 L536.687 214.069 L536.687 210.087 Q535.136 212.448 533.076 213.606 Q531.039 214.74 528.33 214.74 Q523.863 214.74 521.548 211.962 Q519.233 209.184 519.233 203.837 M529.951 187.518 L529.951 187.518 Z" fill="#000000" fill-rule="nonzero" fill-opacity="1" /><path clip-path="url(#clip040)" d="M561.501 201.036 Q556.339 201.036 554.349 202.217 Q552.358 203.397 552.358 206.245 Q552.358 208.513 553.839 209.856 Q555.344 211.175 557.913 211.175 Q561.455 211.175 563.585 208.675 Q565.738 206.152 565.738 201.985 L565.738 201.036 L561.501 201.036 M569.997 199.277 L569.997 214.069 L565.738 214.069 L565.738 210.133 Q564.279 212.495 562.103 213.629 Q559.927 214.74 556.779 214.74 Q552.798 214.74 550.437 212.518 Q548.099 210.272 548.099 206.522 Q548.099 202.147 551.015 199.925 Q553.955 197.703 559.765 197.703 L565.738 197.703 L565.738 197.286 Q565.738 194.347 563.793 192.749 Q561.872 191.129 558.376 191.129 Q556.154 191.129 554.048 191.661 Q551.941 192.194 549.997 193.259 L549.997 189.323 Q552.335 188.421 554.534 187.981 Q556.733 187.518 558.816 187.518 Q564.441 187.518 567.219 190.434 Q569.997 193.351 569.997 199.277 Z" fill="#000000" fill-rule="nonzero" fill-opacity="1" /><path clip-path="url(#clip040)" d="M595.83 192.078 L595.83 178.05 L600.089 178.05 L600.089 214.069 L595.83 214.069 L595.83 210.18 Q594.487 212.495 592.427 213.629 Q590.39 214.74 587.52 214.74 Q582.821 214.74 579.858 210.99 Q576.918 207.24 576.918 201.129 Q576.918 195.018 579.858 191.268 Q582.821 187.518 587.52 187.518 Q590.39 187.518 592.427 188.652 Q594.487 189.763 595.83 192.078 M581.316 201.129 Q581.316 205.828 583.237 208.513 Q585.182 211.175 588.561 211.175 Q591.941 211.175 593.886 208.513 Q595.83 205.828 595.83 201.129 Q595.83 196.43 593.886 193.768 Q591.941 191.083 588.561 191.083 Q585.182 191.083 583.237 193.768 Q581.316 196.43 581.316 201.129 Z" fill="#000000" fill-rule="nonzero" fill-opacity="1" /><path clip-path="url(#clip040)" d="M623.885 192.124 Q623.168 191.708 622.311 191.522 Q621.478 191.314 620.459 191.314 Q616.848 191.314 614.904 193.675 Q612.983 196.013 612.983 200.411 L612.983 214.069 L608.7 214.069 L608.7 188.143 L612.983 188.143 L612.983 192.171 Q614.325 189.809 616.478 188.675 Q618.631 187.518 621.709 187.518 Q622.149 187.518 622.682 187.587 Q623.214 187.634 623.862 187.749 L623.885 192.124 Z" fill="#000000" fill-rule="nonzero" fill-opacity="1" /><path clip-path="url(#clip040)" d="M640.135 201.036 Q634.973 201.036 632.983 202.217 Q630.992 203.397 630.992 206.245 Q630.992 208.513 632.473 209.856 Q633.978 211.175 636.547 211.175 Q640.089 211.175 642.219 208.675 Q644.371 206.152 644.371 201.985 L644.371 201.036 L640.135 201.036 M648.631 199.277 L648.631 214.069 L644.371 214.069 L644.371 210.133 Q642.913 212.495 640.737 213.629 Q638.561 214.74 635.413 214.74 Q631.432 214.74 629.071 212.518 Q626.733 210.272 626.733 206.522 Q626.733 202.147 629.649 199.925 Q632.589 197.703 638.399 197.703 L644.371 197.703 L644.371 197.286 Q644.371 194.347 642.427 192.749 Q640.506 191.129 637.01 191.129 Q634.788 191.129 632.682 191.661 Q630.575 192.194 628.631 193.259 L628.631 189.323 Q630.969 188.421 633.168 187.981 Q635.367 187.518 637.45 187.518 Q643.075 187.518 645.853 190.434 Q648.631 193.351 648.631 199.277 Z" fill="#000000" fill-rule="nonzero" fill-opacity="1" /><path clip-path="url(#clip040)" d="M661.617 180.782 L661.617 188.143 L670.39 188.143 L670.39 191.453 L661.617 191.453 L661.617 205.527 Q661.617 208.698 662.473 209.601 Q663.353 210.504 666.015 210.504 L670.39 210.504 L670.39 214.069 L666.015 214.069 Q661.084 214.069 659.209 212.24 Q657.334 210.388 657.334 205.527 L657.334 191.453 L654.209 191.453 L654.209 188.143 L657.334 188.143 L657.334 180.782 L661.617 180.782 Z" fill="#000000" fill-rule="nonzero" fill-opacity="1" /><path clip-path="url(#clip040)" d="M675.992 188.143 L680.251 188.143 L680.251 214.069 L675.992 214.069 L675.992 188.143 M675.992 178.05 L680.251 178.05 L680.251 183.444 L675.992 183.444 L675.992 178.05 Z" fill="#000000" fill-rule="nonzero" fill-opacity="1" /><path clip-path="url(#clip040)" d="M707.82 189.138 L707.82 193.12 Q706.015 192.124 704.186 191.638 Q702.38 191.129 700.528 191.129 Q696.385 191.129 694.093 193.768 Q691.802 196.384 691.802 201.129 Q691.802 205.874 694.093 208.513 Q696.385 211.129 700.528 211.129 Q702.38 211.129 704.186 210.643 Q706.015 210.133 707.82 209.138 L707.82 213.073 Q706.038 213.907 704.116 214.323 Q702.218 214.74 700.065 214.74 Q694.209 214.74 690.76 211.059 Q687.311 207.379 687.311 201.129 Q687.311 194.786 690.783 191.152 Q694.278 187.518 700.343 187.518 Q702.311 187.518 704.186 187.935 Q706.061 188.328 707.82 189.138 Z" fill="#000000" fill-rule="nonzero" fill-opacity="1" /><path clip-path="url(#clip040)" d="M743.422 178.05 L743.422 181.592 L739.348 181.592 Q737.056 181.592 736.153 182.518 Q735.274 183.444 735.274 185.851 L735.274 188.143 L742.287 188.143 L742.287 191.453 L735.274 191.453 L735.274 214.069 L730.991 214.069 L730.991 191.453 L726.917 191.453 L726.917 188.143 L730.991 188.143 L730.991 186.337 Q730.991 182.009 733.005 180.041 Q735.019 178.05 739.394 178.05 L743.422 178.05 Z" fill="#000000" fill-rule="nonzero" fill-opacity="1" /><path clip-path="url(#clip040)" d="M746.987 188.143 L751.246 188.143 L751.246 214.069 L746.987 214.069 L746.987 188.143 M746.987 178.05 L751.246 178.05 L751.246 183.444 L746.987 183.444 L746.987 178.05 Z" fill="#000000" fill-rule="nonzero" fill-opacity="1" /><path clip-path="url(#clip040)" d="M764.371 180.782 L764.371 188.143 L773.144 188.143 L773.144 191.453 L764.371 191.453 L764.371 205.527 Q764.371 208.698 765.227 209.601 Q766.107 210.504 768.769 210.504 L773.144 210.504 L773.144 214.069 L768.769 214.069 Q763.838 214.069 761.963 212.24 Q760.088 210.388 760.088 205.527 L760.088 191.453 L756.963 191.453 L756.963 188.143 L760.088 188.143 L760.088 180.782 L764.371 180.782 Z" fill="#000000" fill-rule="nonzero" fill-opacity="1" /><circle clip-path="url(#clip040)" cx="385.758" cy="248.629" r="20.48" fill="#3da44d" fill-rule="evenodd" fill-opacity="1" stroke="#000000" stroke-opacity="1" stroke-width="4.55111"/>
<path clip-path="url(#clip040)" d="M508.423 234.011 L508.423 238.941 Q506.062 236.742 503.377 235.654 Q500.715 234.566 497.705 234.566 Q491.78 234.566 488.631 238.2 Q485.483 241.812 485.483 248.663 Q485.483 255.492 488.631 259.126 Q491.78 262.737 497.705 262.737 Q500.715 262.737 503.377 261.649 Q506.062 260.561 508.423 258.362 L508.423 263.247 Q505.969 264.913 503.215 265.747 Q500.483 266.58 497.428 266.58 Q489.581 266.58 485.067 261.788 Q480.553 256.973 480.553 248.663 Q480.553 240.33 485.067 235.538 Q489.581 230.724 497.428 230.724 Q500.53 230.724 503.261 231.557 Q506.016 232.367 508.423 234.011 Z" fill="#000000" fill-rule="nonzero" fill-opacity="1" /><path clip-path="url(#clip040)" d="M527.242 252.876 Q522.08 252.876 520.09 254.057 Q518.099 255.237 518.099 258.085 Q518.099 260.353 519.58 261.696 Q521.085 263.015 523.654 263.015 Q527.196 263.015 529.326 260.515 Q531.478 257.992 531.478 253.825 L531.478 252.876 L527.242 252.876 M535.738 251.117 L535.738 265.909 L531.478 265.909 L531.478 261.973 Q530.02 264.335 527.844 265.469 Q525.668 266.58 522.52 266.58 Q518.539 266.58 516.178 264.358 Q513.84 262.112 513.84 258.362 Q513.84 253.987 516.756 251.765 Q519.696 249.543 525.506 249.543 L531.478 249.543 L531.478 249.126 Q531.478 246.187 529.534 244.589 Q527.613 242.969 524.117 242.969 Q521.895 242.969 519.789 243.501 Q517.682 244.034 515.738 245.099 L515.738 241.163 Q518.076 240.261 520.275 239.821 Q522.474 239.358 524.557 239.358 Q530.182 239.358 532.96 242.274 Q535.738 245.191 535.738 251.117 Z" fill="#000000" fill-rule="nonzero" fill-opacity="1" /><path clip-path="url(#clip040)" d="M563.168 240.978 L563.168 244.96 Q561.363 243.964 559.534 243.478 Q557.728 242.969 555.876 242.969 Q551.733 242.969 549.441 245.608 Q547.15 248.224 547.15 252.969 Q547.15 257.714 549.441 260.353 Q551.733 262.969 555.876 262.969 Q557.728 262.969 559.534 262.483 Q561.363 261.973 563.168 260.978 L563.168 264.913 Q561.386 265.747 559.464 266.163 Q557.566 266.58 555.413 266.58 Q549.557 266.58 546.108 262.899 Q542.659 259.219 542.659 252.969 Q542.659 246.626 546.131 242.992 Q549.626 239.358 555.691 239.358 Q557.659 239.358 559.534 239.775 Q561.409 240.168 563.168 240.978 Z" fill="#000000" fill-rule="nonzero" fill-opacity="1" /><path clip-path="url(#clip040)" d="M592.126 250.261 L592.126 265.909 L587.867 265.909 L587.867 250.399 Q587.867 246.719 586.432 244.89 Q584.997 243.062 582.126 243.062 Q578.677 243.062 576.687 245.261 Q574.696 247.46 574.696 251.256 L574.696 265.909 L570.413 265.909 L570.413 229.89 L574.696 229.89 L574.696 244.011 Q576.224 241.673 578.284 240.515 Q580.367 239.358 583.075 239.358 Q587.543 239.358 589.835 242.136 Q592.126 244.89 592.126 250.261 Z" fill="#000000" fill-rule="nonzero" fill-opacity="1" /><path clip-path="url(#clip040)" d="M622.797 251.881 L622.797 253.964 L603.214 253.964 Q603.492 258.362 605.853 260.677 Q608.237 262.969 612.473 262.969 Q614.927 262.969 617.219 262.367 Q619.534 261.765 621.802 260.561 L621.802 264.589 Q619.51 265.561 617.103 266.071 Q614.696 266.58 612.219 266.58 Q606.015 266.58 602.381 262.969 Q598.77 259.358 598.77 253.2 Q598.77 246.835 602.196 243.108 Q605.645 239.358 611.478 239.358 Q616.709 239.358 619.742 242.737 Q622.797 246.094 622.797 251.881 M618.538 250.631 Q618.492 247.136 616.571 245.052 Q614.672 242.969 611.524 242.969 Q607.96 242.969 605.807 244.983 Q603.677 246.997 603.353 250.654 L618.538 250.631 Z" fill="#000000" fill-rule="nonzero" fill-opacity="1" /><path clip-path="url(#clip040)" d="M646.848 243.918 L646.848 229.89 L651.107 229.89 L651.107 265.909 L646.848 265.909 L646.848 262.02 Q645.506 264.335 643.445 265.469 Q641.408 266.58 638.538 266.58 Q633.839 266.58 630.876 262.83 Q627.936 259.08 627.936 252.969 Q627.936 246.858 630.876 243.108 Q633.839 239.358 638.538 239.358 Q641.408 239.358 643.445 240.492 Q645.506 241.603 646.848 243.918 M632.334 252.969 Q632.334 257.668 634.256 260.353 Q636.2 263.015 639.58 263.015 Q642.959 263.015 644.904 260.353 Q646.848 257.668 646.848 252.969 Q646.848 248.27 644.904 245.608 Q642.959 242.923 639.58 242.923 Q636.2 242.923 634.256 245.608 Q632.334 248.27 632.334 252.969 Z" fill="#000000" fill-rule="nonzero" fill-opacity="1" /><polyline clip-path="url(#clip040)" style="stroke:#c271d2; stroke-linecap:round; stroke-linejoin:round; stroke-width:4; stroke-opacity:1; fill:none" points="314.661,300.469 456.854,300.469 "/>
<path clip-path="url(#clip040)" d="M480.553 283.189 L485.229 283.189 L485.229 313.813 L502.057 313.813 L502.057 317.749 L480.553 317.749 L480.553 283.189 Z" fill="#000000" fill-rule="nonzero" fill-opacity="1" /><path clip-path="url(#clip040)" d="M506.779 291.823 L511.039 291.823 L511.039 317.749 L506.779 317.749 L506.779 291.823 M506.779 281.73 L511.039 281.73 L511.039 287.124 L506.779 287.124 L506.779 281.73 Z" fill="#000000" fill-rule="nonzero" fill-opacity="1" /><path clip-path="url(#clip040)" d="M541.502 302.101 L541.502 317.749 L537.242 317.749 L537.242 302.239 Q537.242 298.559 535.807 296.73 Q534.372 294.902 531.502 294.902 Q528.053 294.902 526.062 297.101 Q524.071 299.3 524.071 303.096 L524.071 317.749 L519.789 317.749 L519.789 291.823 L524.071 291.823 L524.071 295.851 Q525.599 293.513 527.659 292.355 Q529.742 291.198 532.451 291.198 Q536.918 291.198 539.21 293.976 Q541.502 296.73 541.502 302.101 Z" fill="#000000" fill-rule="nonzero" fill-opacity="1" /><path clip-path="url(#clip040)" d="M572.173 303.721 L572.173 305.804 L552.589 305.804 Q552.867 310.202 555.228 312.517 Q557.613 314.809 561.849 314.809 Q564.302 314.809 566.594 314.207 Q568.909 313.605 571.177 312.401 L571.177 316.429 Q568.886 317.401 566.478 317.911 Q564.071 318.42 561.594 318.42 Q555.39 318.42 551.756 314.809 Q548.145 311.198 548.145 305.04 Q548.145 298.675 551.571 294.948 Q555.02 291.198 560.853 291.198 Q566.085 291.198 569.117 294.577 Q572.173 297.934 572.173 303.721 M567.913 302.471 Q567.867 298.976 565.946 296.892 Q564.048 294.809 560.9 294.809 Q557.335 294.809 555.182 296.823 Q553.052 298.837 552.728 302.494 L567.913 302.471 Z" fill="#000000" fill-rule="nonzero" fill-opacity="1" /><path clip-path="url(#clip040)" d="M590.946 304.716 Q585.784 304.716 583.793 305.897 Q581.802 307.077 581.802 309.925 Q581.802 312.193 583.284 313.536 Q584.788 314.855 587.358 314.855 Q590.899 314.855 593.029 312.355 Q595.182 309.832 595.182 305.665 L595.182 304.716 L590.946 304.716 M599.441 302.957 L599.441 317.749 L595.182 317.749 L595.182 313.813 Q593.723 316.175 591.548 317.309 Q589.372 318.42 586.224 318.42 Q582.242 318.42 579.881 316.198 Q577.543 313.952 577.543 310.202 Q577.543 305.827 580.46 303.605 Q583.399 301.383 589.21 301.383 L595.182 301.383 L595.182 300.966 Q595.182 298.027 593.237 296.429 Q591.316 294.809 587.821 294.809 Q585.599 294.809 583.492 295.341 Q581.386 295.874 579.441 296.939 L579.441 293.003 Q581.779 292.101 583.978 291.661 Q586.177 291.198 588.261 291.198 Q593.886 291.198 596.663 294.114 Q599.441 297.031 599.441 302.957 Z" fill="#000000" fill-rule="nonzero" fill-opacity="1" /><path clip-path="url(#clip040)" d="M623.237 295.804 Q622.52 295.388 621.663 295.202 Q620.83 294.994 619.811 294.994 Q616.2 294.994 614.256 297.355 Q612.334 299.693 612.334 304.091 L612.334 317.749 L608.052 317.749 L608.052 291.823 L612.334 291.823 L612.334 295.851 Q613.677 293.489 615.83 292.355 Q617.983 291.198 621.061 291.198 Q621.501 291.198 622.034 291.267 Q622.566 291.314 623.214 291.429 L623.237 295.804 Z" fill="#000000" fill-rule="nonzero" fill-opacity="1" /><path clip-path="url(#clip040)" d="M655.899 281.73 L655.899 285.272 L651.825 285.272 Q649.533 285.272 648.631 286.198 Q647.751 287.124 647.751 289.531 L647.751 291.823 L654.765 291.823 L654.765 295.133 L647.751 295.133 L647.751 317.749 L643.469 317.749 L643.469 295.133 L639.395 295.133 L639.395 291.823 L643.469 291.823 L643.469 290.017 Q643.469 285.689 645.482 283.721 Q647.496 281.73 651.871 281.73 L655.899 281.73 Z" fill="#000000" fill-rule="nonzero" fill-opacity="1" /><path clip-path="url(#clip040)" d="M659.464 291.823 L663.723 291.823 L663.723 317.749 L659.464 317.749 L659.464 291.823 M659.464 281.73 L663.723 281.73 L663.723 287.124 L659.464 287.124 L659.464 281.73 Z" fill="#000000" fill-rule="nonzero" fill-opacity="1" /><path clip-path="url(#clip040)" d="M676.848 284.462 L676.848 291.823 L685.621 291.823 L685.621 295.133 L676.848 295.133 L676.848 309.207 Q676.848 312.378 677.704 313.281 Q678.584 314.184 681.246 314.184 L685.621 314.184 L685.621 317.749 L681.246 317.749 Q676.316 317.749 674.441 315.92 Q672.566 314.068 672.566 309.207 L672.566 295.133 L669.441 295.133 L669.441 291.823 L672.566 291.823 L672.566 284.462 L676.848 284.462 Z" fill="#000000" fill-rule="nonzero" fill-opacity="1" /></svg>
