<?xml version="1.0" encoding="utf-8"?>
<svg xmlns="http://www.w3.org/2000/svg" xmlns:xlink="http://www.w3.org/1999/xlink" width="600" height="400" viewBox="0 0 2400 1600">
<defs>
  <clipPath id="clip960">
    <rect x="0" y="0" width="2400" height="1600"/>
  </clipPath>
</defs>
<path clip-path="url(#clip960)" d="M0 1600 L2400 1600 L2400 0 L0 0  Z" fill="#ffffff" fill-rule="evenodd" fill-opacity="1"/>
<defs>
  <clipPath id="clip961">
    <rect x="480" y="0" width="1681" height="1600"/>
  </clipPath>
</defs>
<path clip-path="url(#clip960)" d="M138.959 1423.18 L2352.76 1423.18 L2352.76 47.2441 L138.959 47.2441  Z" fill="#ffffff" fill-rule="evenodd" fill-opacity="1"/>
<defs>
  <clipPath id="clip962">
    <rect x="138" y="47" width="2215" height="1377"/>
  </clipPath>
</defs>
<polyline clip-path="url(#clip962)" style="stroke:#000000; stroke-linecap:round; stroke-linejoin:round; stroke-width:2; stroke-opacity:0.1; fill:none" points="370.182,1423.18 370.182,47.2441 "/>
<polyline clip-path="url(#clip962)" style="stroke:#000000; stroke-linecap:round; stroke-linejoin:round; stroke-width:2; stroke-opacity:0.1; fill:none" points="808.02,1423.18 808.02,47.2441 "/>
<polyline clip-path="url(#clip962)" style="stroke:#000000; stroke-linecap:round; stroke-linejoin:round; stroke-width:2; stroke-opacity:0.1; fill:none" points="1245.86,1423.18 1245.86,47.2441 "/>
<polyline clip-path="url(#clip962)" style="stroke:#000000; stroke-linecap:round; stroke-linejoin:round; stroke-width:2; stroke-opacity:0.1; fill:none" points="1683.7,1423.18 1683.7,47.2441 "/>
<polyline clip-path="url(#clip962)" style="stroke:#000000; stroke-linecap:round; stroke-linejoin:round; stroke-width:2; stroke-opacity:0.1; fill:none" points="2121.53,1423.18 2121.53,47.2441 "/>
<polyline clip-path="url(#clip962)" style="stroke:#000000; stroke-linecap:round; stroke-linejoin:round; stroke-width:2; stroke-opacity:0.1; fill:none" points="138.959,1423.18 2352.76,1423.18 "/>
<polyline clip-path="url(#clip962)" style="stroke:#000000; stroke-linecap:round; stroke-linejoin:round; stroke-width:2; stroke-opacity:0.1; fill:none" points="138.959,993.2 2352.76,993.2 "/>
<polyline clip-path="url(#clip962)" style="stroke:#000000; stroke-linecap:round; stroke-linejoin:round; stroke-width:2; stroke-opacity:0.1; fill:none" points="138.959,563.22 2352.76,563.22 "/>
<polyline clip-path="url(#clip962)" style="stroke:#000000; stroke-linecap:round; stroke-linejoin:round; stroke-width:2; stroke-opacity:0.1; fill:none" points="138.959,133.24 2352.76,133.24 "/>
<polyline clip-path="url(#clip960)" style="stroke:#000000; stroke-linecap:round; stroke-linejoin:round; stroke-width:4; stroke-opacity:1; fill:none" points="138.959,1423.18 2352.76,1423.18 "/>
<polyline clip-path="url(#clip960)" style="stroke:#000000; stroke-linecap:round; stroke-linejoin:round; stroke-width:4; stroke-opacity:1; fill:none" points="370.182,1423.18 370.182,1404.28 "/>
<polyline clip-path="url(#clip960)" style="stroke:#000000; stroke-linecap:round; stroke-linejoin:round; stroke-width:4; stroke-opacity:1; fill:none" points="808.02,1423.18 808.02,1404.28 "/>
<polyline clip-path="url(#clip960)" style="stroke:#000000; stroke-linecap:round; stroke-linejoin:round; stroke-width:4; stroke-opacity:1; fill:none" points="1245.86,1423.18 1245.86,1404.28 "/>
<polyline clip-path="url(#clip960)" style="stroke:#000000; stroke-linecap:round; stroke-linejoin:round; stroke-width:4; stroke-opacity:1; fill:none" points="1683.7,1423.18 1683.7,1404.28 "/>
<polyline clip-path="url(#clip960)" style="stroke:#000000; stroke-linecap:round; stroke-linejoin:round; stroke-width:4; stroke-opacity:1; fill:none" points="2121.53,1423.18 2121.53,1404.28 "/>
<path clip-path="url(#clip960)" d="M329.788 1481.64 L337.427 1481.64 L337.427 1455.28 L329.117 1456.95 L329.117 1452.69 L337.381 1451.02 L342.057 1451.02 L342.057 1481.64 L349.696 1481.64 L349.696 1485.58 L329.788 1485.58 L329.788 1481.64 Z" fill="#000000" fill-rule="nonzero" fill-opacity="1" /><path clip-path="url(#clip960)" d="M369.719 1466.44 Q366.571 1466.44 364.719 1468.59 Q362.89 1470.74 362.89 1474.49 Q362.89 1478.22 364.719 1480.39 Q366.571 1482.55 369.719 1482.55 Q372.867 1482.55 374.696 1480.39 Q376.547 1478.22 376.547 1474.49 Q376.547 1470.74 374.696 1468.59 Q372.867 1466.44 369.719 1466.44 M379.001 1451.78 L379.001 1456.04 Q377.242 1455.21 375.436 1454.77 Q373.654 1454.33 371.895 1454.33 Q367.265 1454.33 364.811 1457.45 Q362.381 1460.58 362.034 1466.9 Q363.399 1464.89 365.459 1463.82 Q367.52 1462.73 369.997 1462.73 Q375.205 1462.73 378.214 1465.9 Q381.246 1469.05 381.246 1474.49 Q381.246 1479.82 378.098 1483.03 Q374.95 1486.25 369.719 1486.25 Q363.723 1486.25 360.552 1481.67 Q357.381 1477.06 357.381 1468.33 Q357.381 1460.14 361.27 1455.28 Q365.159 1450.39 371.709 1450.39 Q373.469 1450.39 375.251 1450.74 Q377.057 1451.09 379.001 1451.78 Z" fill="#000000" fill-rule="nonzero" fill-opacity="1" /><path clip-path="url(#clip960)" d="M399.302 1454.1 Q395.691 1454.1 393.862 1457.66 Q392.057 1461.2 392.057 1468.33 Q392.057 1475.44 393.862 1479.01 Q395.691 1482.55 399.302 1482.55 Q402.936 1482.55 404.742 1479.01 Q406.57 1475.44 406.57 1468.33 Q406.57 1461.2 404.742 1457.66 Q402.936 1454.1 399.302 1454.1 M399.302 1450.39 Q405.112 1450.39 408.168 1455 Q411.246 1459.58 411.246 1468.33 Q411.246 1477.06 408.168 1481.67 Q405.112 1486.25 399.302 1486.25 Q393.492 1486.25 390.413 1481.67 Q387.358 1477.06 387.358 1468.33 Q387.358 1459.58 390.413 1455 Q393.492 1450.39 399.302 1450.39 Z" fill="#000000" fill-rule="nonzero" fill-opacity="1" /><path clip-path="url(#clip960)" d="M767.626 1481.64 L775.265 1481.64 L775.265 1455.28 L766.955 1456.95 L766.955 1452.69 L775.219 1451.02 L779.895 1451.02 L779.895 1481.64 L787.534 1481.64 L787.534 1485.58 L767.626 1485.58 L767.626 1481.64 Z" fill="#000000" fill-rule="nonzero" fill-opacity="1" /><path clip-path="url(#clip960)" d="M806.978 1469.17 Q803.645 1469.17 801.723 1470.95 Q799.825 1472.73 799.825 1475.86 Q799.825 1478.98 801.723 1480.77 Q803.645 1482.55 806.978 1482.55 Q810.311 1482.55 812.233 1480.77 Q814.154 1478.96 814.154 1475.86 Q814.154 1472.73 812.233 1470.95 Q810.334 1469.17 806.978 1469.17 M802.302 1467.18 Q799.293 1466.44 797.603 1464.38 Q795.936 1462.32 795.936 1459.35 Q795.936 1455.21 798.876 1452.8 Q801.839 1450.39 806.978 1450.39 Q812.14 1450.39 815.08 1452.8 Q818.02 1455.21 818.02 1459.35 Q818.02 1462.32 816.33 1464.38 Q814.663 1466.44 811.677 1467.18 Q815.057 1467.96 816.932 1470.26 Q818.83 1472.55 818.83 1475.86 Q818.83 1480.88 815.751 1483.57 Q812.696 1486.25 806.978 1486.25 Q801.26 1486.25 798.182 1483.57 Q795.126 1480.88 795.126 1475.86 Q795.126 1472.55 797.024 1470.26 Q798.923 1467.96 802.302 1467.18 M800.589 1459.79 Q800.589 1462.48 802.256 1463.98 Q803.946 1465.49 806.978 1465.49 Q809.987 1465.49 811.677 1463.98 Q813.39 1462.48 813.39 1459.79 Q813.39 1457.11 811.677 1455.6 Q809.987 1454.1 806.978 1454.1 Q803.946 1454.1 802.256 1455.6 Q800.589 1457.11 800.589 1459.79 Z" fill="#000000" fill-rule="nonzero" fill-opacity="1" /><path clip-path="url(#clip960)" d="M837.14 1454.1 Q833.529 1454.1 831.7 1457.66 Q829.895 1461.2 829.895 1468.33 Q829.895 1475.44 831.7 1479.01 Q833.529 1482.55 837.14 1482.55 Q840.774 1482.55 842.58 1479.01 Q844.408 1475.44 844.408 1468.33 Q844.408 1461.2 842.58 1457.66 Q840.774 1454.1 837.14 1454.1 M837.14 1450.39 Q842.95 1450.39 846.006 1455 Q849.084 1459.58 849.084 1468.33 Q849.084 1477.06 846.006 1481.67 Q842.95 1486.25 837.14 1486.25 Q831.33 1486.25 828.251 1481.67 Q825.196 1477.06 825.196 1468.33 Q825.196 1459.58 828.251 1455 Q831.33 1450.39 837.14 1450.39 Z" fill="#000000" fill-rule="nonzero" fill-opacity="1" /><path clip-path="url(#clip960)" d="M1209.55 1481.64 L1225.87 1481.64 L1225.87 1485.58 L1203.93 1485.58 L1203.93 1481.64 Q1206.59 1478.89 1211.17 1474.26 Q1215.78 1469.61 1216.96 1468.27 Q1219.2 1465.74 1220.08 1464.01 Q1220.99 1462.25 1220.99 1460.56 Q1220.99 1457.8 1219.04 1456.07 Q1217.12 1454.33 1214.02 1454.33 Q1211.82 1454.33 1209.36 1455.09 Q1206.93 1455.86 1204.16 1457.41 L1204.16 1452.69 Q1206.98 1451.55 1209.43 1450.97 Q1211.89 1450.39 1213.92 1450.39 Q1219.3 1450.39 1222.49 1453.08 Q1225.68 1455.77 1225.68 1460.26 Q1225.68 1462.39 1224.87 1464.31 Q1224.09 1466.2 1221.98 1468.8 Q1221.4 1469.47 1218.3 1472.69 Q1215.2 1475.88 1209.55 1481.64 Z" fill="#000000" fill-rule="nonzero" fill-opacity="1" /><path clip-path="url(#clip960)" d="M1245.68 1454.1 Q1242.07 1454.1 1240.24 1457.66 Q1238.44 1461.2 1238.44 1468.33 Q1238.44 1475.44 1240.24 1479.01 Q1242.07 1482.55 1245.68 1482.55 Q1249.32 1482.55 1251.12 1479.01 Q1252.95 1475.44 1252.95 1468.33 Q1252.95 1461.2 1251.12 1457.66 Q1249.32 1454.1 1245.68 1454.1 M1245.68 1450.39 Q1251.49 1450.39 1254.55 1455 Q1257.63 1459.58 1257.63 1468.33 Q1257.63 1477.06 1254.55 1481.67 Q1251.49 1486.25 1245.68 1486.25 Q1239.87 1486.25 1236.8 1481.67 Q1233.74 1477.06 1233.74 1468.33 Q1233.74 1459.58 1236.8 1455 Q1239.87 1450.39 1245.68 1450.39 Z" fill="#000000" fill-rule="nonzero" fill-opacity="1" /><path clip-path="url(#clip960)" d="M1275.85 1454.1 Q1272.23 1454.1 1270.41 1457.66 Q1268.6 1461.2 1268.6 1468.33 Q1268.6 1475.44 1270.41 1479.01 Q1272.23 1482.55 1275.85 1482.55 Q1279.48 1482.55 1281.29 1479.01 Q1283.11 1475.44 1283.11 1468.33 Q1283.11 1461.2 1281.29 1457.66 Q1279.48 1454.1 1275.85 1454.1 M1275.85 1450.39 Q1281.66 1450.39 1284.71 1455 Q1287.79 1459.58 1287.79 1468.33 Q1287.79 1477.06 1284.71 1481.67 Q1281.66 1486.25 1275.85 1486.25 Q1270.04 1486.25 1266.96 1481.67 Q1263.9 1477.06 1263.9 1468.33 Q1263.9 1459.58 1266.96 1455 Q1270.04 1450.39 1275.85 1450.39 Z" fill="#000000" fill-rule="nonzero" fill-opacity="1" /><path clip-path="url(#clip960)" d="M1647.39 1481.64 L1663.71 1481.64 L1663.71 1485.58 L1641.76 1485.58 L1641.76 1481.64 Q1644.43 1478.89 1649.01 1474.26 Q1653.61 1469.61 1654.8 1468.27 Q1657.04 1465.74 1657.92 1464.01 Q1658.82 1462.25 1658.82 1460.56 Q1658.82 1457.8 1656.88 1456.07 Q1654.96 1454.33 1651.86 1454.33 Q1649.66 1454.33 1647.2 1455.09 Q1644.77 1455.86 1641.99 1457.41 L1641.99 1452.69 Q1644.82 1451.55 1647.27 1450.97 Q1649.73 1450.39 1651.76 1450.39 Q1657.13 1450.39 1660.33 1453.08 Q1663.52 1455.77 1663.52 1460.26 Q1663.52 1462.39 1662.71 1464.31 Q1661.92 1466.2 1659.82 1468.8 Q1659.24 1469.47 1656.14 1472.69 Q1653.04 1475.88 1647.39 1481.64 Z" fill="#000000" fill-rule="nonzero" fill-opacity="1" /><path clip-path="url(#clip960)" d="M1677.55 1481.64 L1693.87 1481.64 L1693.87 1485.58 L1671.92 1485.58 L1671.92 1481.64 Q1674.59 1478.89 1679.17 1474.26 Q1683.78 1469.61 1684.96 1468.27 Q1687.2 1465.74 1688.08 1464.01 Q1688.98 1462.25 1688.98 1460.56 Q1688.98 1457.8 1687.04 1456.07 Q1685.12 1454.33 1682.02 1454.33 Q1679.82 1454.33 1677.36 1455.09 Q1674.93 1455.86 1672.16 1457.41 L1672.16 1452.69 Q1674.98 1451.55 1677.43 1450.97 Q1679.89 1450.39 1681.92 1450.39 Q1687.3 1450.39 1690.49 1453.08 Q1693.68 1455.77 1693.68 1460.26 Q1693.68 1462.39 1692.87 1464.31 Q1692.09 1466.2 1689.98 1468.8 Q1689.4 1469.47 1686.3 1472.69 Q1683.2 1475.88 1677.55 1481.64 Z" fill="#000000" fill-rule="nonzero" fill-opacity="1" /><path clip-path="url(#clip960)" d="M1713.68 1454.1 Q1710.07 1454.1 1708.24 1457.66 Q1706.44 1461.2 1706.44 1468.33 Q1706.44 1475.44 1708.24 1479.01 Q1710.07 1482.55 1713.68 1482.55 Q1717.32 1482.55 1719.12 1479.01 Q1720.95 1475.44 1720.95 1468.33 Q1720.95 1461.2 1719.12 1457.66 Q1717.32 1454.1 1713.68 1454.1 M1713.68 1450.39 Q1719.49 1450.39 1722.55 1455 Q1725.63 1459.58 1725.63 1468.33 Q1725.63 1477.06 1722.55 1481.67 Q1719.49 1486.25 1713.68 1486.25 Q1707.87 1486.25 1704.8 1481.67 Q1701.74 1477.06 1701.74 1468.33 Q1701.74 1459.58 1704.8 1455 Q1707.87 1450.39 1713.68 1450.39 Z" fill="#000000" fill-rule="nonzero" fill-opacity="1" /><path clip-path="url(#clip960)" d="M2085.23 1481.64 L2101.55 1481.64 L2101.55 1485.58 L2079.6 1485.58 L2079.6 1481.64 Q2082.26 1478.89 2086.85 1474.26 Q2091.45 1469.61 2092.63 1468.27 Q2094.88 1465.74 2095.76 1464.01 Q2096.66 1462.25 2096.66 1460.56 Q2096.66 1457.8 2094.72 1456.07 Q2092.8 1454.33 2089.69 1454.33 Q2087.49 1454.33 2085.04 1455.09 Q2082.61 1455.86 2079.83 1457.41 L2079.83 1452.69 Q2082.66 1451.55 2085.11 1450.97 Q2087.56 1450.39 2089.6 1450.39 Q2094.97 1450.39 2098.17 1453.08 Q2101.36 1455.77 2101.36 1460.26 Q2101.36 1462.39 2100.55 1464.31 Q2099.76 1466.2 2097.66 1468.8 Q2097.08 1469.47 2093.98 1472.69 Q2090.87 1475.88 2085.23 1481.64 Z" fill="#000000" fill-rule="nonzero" fill-opacity="1" /><path clip-path="url(#clip960)" d="M2124.21 1455.09 L2112.4 1473.54 L2124.21 1473.54 L2124.21 1455.09 M2122.98 1451.02 L2128.86 1451.02 L2128.86 1473.54 L2133.79 1473.54 L2133.79 1477.43 L2128.86 1477.43 L2128.86 1485.58 L2124.21 1485.58 L2124.21 1477.43 L2108.61 1477.43 L2108.61 1472.92 L2122.98 1451.02 Z" fill="#000000" fill-rule="nonzero" fill-opacity="1" /><path clip-path="url(#clip960)" d="M2151.52 1454.1 Q2147.91 1454.1 2146.08 1457.66 Q2144.28 1461.2 2144.28 1468.33 Q2144.28 1475.44 2146.08 1479.01 Q2147.91 1482.55 2151.52 1482.55 Q2155.16 1482.55 2156.96 1479.01 Q2158.79 1475.44 2158.79 1468.33 Q2158.79 1461.2 2156.96 1457.66 Q2155.16 1454.1 2151.52 1454.1 M2151.52 1450.39 Q2157.33 1450.39 2160.39 1455 Q2163.47 1459.58 2163.47 1468.33 Q2163.47 1477.06 2160.39 1481.67 Q2157.33 1486.25 2151.52 1486.25 Q2145.71 1486.25 2142.63 1481.67 Q2139.58 1477.06 2139.58 1468.33 Q2139.58 1459.58 2142.63 1455 Q2145.71 1450.39 2151.52 1450.39 Z" fill="#000000" fill-rule="nonzero" fill-opacity="1" /><path clip-path="url(#clip960)" d="M1120.23 1525.81 L1120.23 1562.76 L1128 1562.76 Q1137.83 1562.76 1142.38 1558.3 Q1146.97 1553.85 1146.97 1544.24 Q1146.97 1534.69 1142.38 1530.26 Q1137.83 1525.81 1128 1525.81 L1120.23 1525.81 M1113.8 1520.52 L1127.01 1520.52 Q1140.82 1520.52 1147.28 1526.28 Q1153.75 1532.01 1153.75 1544.24 Q1153.75 1556.52 1147.25 1562.28 Q1140.76 1568.04 1127.01 1568.04 L1113.8 1568.04 L1113.8 1520.52 Z" fill="#000000" fill-rule="nonzero" fill-opacity="1" /><path clip-path="url(#clip960)" d="M1194.23 1548.76 L1194.23 1551.62 L1167.3 1551.62 Q1167.69 1557.67 1170.93 1560.85 Q1174.21 1564 1180.04 1564 Q1183.41 1564 1186.56 1563.17 Q1189.74 1562.35 1192.86 1560.69 L1192.86 1566.23 Q1189.71 1567.57 1186.4 1568.27 Q1183.09 1568.97 1179.69 1568.97 Q1171.16 1568.97 1166.16 1564 Q1161.19 1559.04 1161.19 1550.57 Q1161.19 1541.82 1165.9 1536.69 Q1170.65 1531.54 1178.67 1531.54 Q1185.86 1531.54 1190.03 1536.18 Q1194.23 1540.8 1194.23 1548.76 M1188.38 1547.04 Q1188.31 1542.23 1185.67 1539.37 Q1183.06 1536.5 1178.73 1536.5 Q1173.83 1536.5 1170.87 1539.27 Q1167.94 1542.04 1167.5 1547.07 L1188.38 1547.04 Z" fill="#000000" fill-rule="nonzero" fill-opacity="1" /><path clip-path="url(#clip960)" d="M1231.6 1539.24 Q1233.79 1535.29 1236.85 1533.41 Q1239.91 1531.54 1244.04 1531.54 Q1249.61 1531.54 1252.64 1535.45 Q1255.66 1539.33 1255.66 1546.53 L1255.66 1568.04 L1249.77 1568.04 L1249.77 1546.72 Q1249.77 1541.59 1247.96 1539.11 Q1246.14 1536.63 1242.42 1536.63 Q1237.87 1536.63 1235.23 1539.65 Q1232.59 1542.68 1232.59 1547.9 L1232.59 1568.04 L1226.7 1568.04 L1226.7 1546.72 Q1226.7 1541.56 1224.88 1539.11 Q1223.07 1536.63 1219.28 1536.63 Q1214.79 1536.63 1212.15 1539.68 Q1209.51 1542.71 1209.51 1547.9 L1209.51 1568.04 L1203.62 1568.04 L1203.62 1532.4 L1209.51 1532.4 L1209.51 1537.93 Q1211.51 1534.66 1214.32 1533.1 Q1217.12 1531.54 1220.97 1531.54 Q1224.85 1531.54 1227.56 1533.51 Q1230.29 1535.48 1231.6 1539.24 Z" fill="#000000" fill-rule="nonzero" fill-opacity="1" /><path clip-path="url(#clip960)" d="M1283.54 1550.12 Q1276.44 1550.12 1273.71 1551.75 Q1270.97 1553.37 1270.97 1557.29 Q1270.97 1560.4 1273.01 1562.25 Q1275.08 1564.07 1278.61 1564.07 Q1283.48 1564.07 1286.41 1560.63 Q1289.37 1557.16 1289.37 1551.43 L1289.37 1550.12 L1283.54 1550.12 M1295.22 1547.71 L1295.22 1568.04 L1289.37 1568.04 L1289.37 1562.63 Q1287.36 1565.88 1284.37 1567.44 Q1281.38 1568.97 1277.05 1568.97 Q1271.58 1568.97 1268.33 1565.91 Q1265.11 1562.82 1265.11 1557.67 Q1265.11 1551.65 1269.12 1548.6 Q1273.17 1545.54 1281.16 1545.54 L1289.37 1545.54 L1289.37 1544.97 Q1289.37 1540.93 1286.69 1538.73 Q1284.05 1536.5 1279.25 1536.5 Q1276.19 1536.5 1273.29 1537.23 Q1270.4 1537.97 1267.72 1539.43 L1267.72 1534.02 Q1270.94 1532.78 1273.96 1532.17 Q1276.99 1531.54 1279.85 1531.54 Q1287.58 1531.54 1291.4 1535.55 Q1295.22 1539.56 1295.22 1547.71 Z" fill="#000000" fill-rule="nonzero" fill-opacity="1" /><path clip-path="url(#clip960)" d="M1336.92 1546.53 L1336.92 1568.04 L1331.06 1568.04 L1331.06 1546.72 Q1331.06 1541.66 1329.09 1539.14 Q1327.12 1536.63 1323.17 1536.63 Q1318.43 1536.63 1315.69 1539.65 Q1312.95 1542.68 1312.95 1547.9 L1312.95 1568.04 L1307.06 1568.04 L1307.06 1532.4 L1312.95 1532.4 L1312.95 1537.93 Q1315.05 1534.72 1317.89 1533.13 Q1320.75 1531.54 1324.47 1531.54 Q1330.62 1531.54 1333.77 1535.36 Q1336.92 1539.14 1336.92 1546.53 Z" fill="#000000" fill-rule="nonzero" fill-opacity="1" /><path clip-path="url(#clip960)" d="M1372.06 1537.81 L1372.06 1518.52 L1377.91 1518.52 L1377.91 1568.04 L1372.06 1568.04 L1372.06 1562.7 Q1370.21 1565.88 1367.38 1567.44 Q1364.58 1568.97 1360.63 1568.97 Q1354.17 1568.97 1350.1 1563.81 Q1346.05 1558.65 1346.05 1550.25 Q1346.05 1541.85 1350.1 1536.69 Q1354.17 1531.54 1360.63 1531.54 Q1364.58 1531.54 1367.38 1533.1 Q1370.21 1534.62 1372.06 1537.81 M1352.1 1550.25 Q1352.1 1556.71 1354.74 1560.4 Q1357.42 1564.07 1362.06 1564.07 Q1366.71 1564.07 1369.38 1560.4 Q1372.06 1556.71 1372.06 1550.25 Q1372.06 1543.79 1369.38 1540.13 Q1366.71 1536.44 1362.06 1536.44 Q1357.42 1536.44 1354.74 1540.13 Q1352.1 1543.79 1352.1 1550.25 Z" fill="#000000" fill-rule="nonzero" fill-opacity="1" /><polyline clip-path="url(#clip960)" style="stroke:#000000; stroke-linecap:round; stroke-linejoin:round; stroke-width:4; stroke-opacity:1; fill:none" points="138.959,1423.18 138.959,47.2441 "/>
<polyline clip-path="url(#clip960)" style="stroke:#000000; stroke-linecap:round; stroke-linejoin:round; stroke-width:4; stroke-opacity:1; fill:none" points="138.959,1423.18 157.857,1423.18 "/>
<polyline clip-path="url(#clip960)" style="stroke:#000000; stroke-linecap:round; stroke-linejoin:round; stroke-width:4; stroke-opacity:1; fill:none" points="138.959,993.2 157.857,993.2 "/>
<polyline clip-path="url(#clip960)" style="stroke:#000000; stroke-linecap:round; stroke-linejoin:round; stroke-width:4; stroke-opacity:1; fill:none" points="138.959,563.22 157.857,563.22 "/>
<polyline clip-path="url(#clip960)" style="stroke:#000000; stroke-linecap:round; stroke-linejoin:round; stroke-width:4; stroke-opacity:1; fill:none" points="138.959,133.24 157.857,133.24 "/>
<path clip-path="url(#clip960)" d="M91.0151 1408.98 Q87.404 1408.98 85.5753 1412.54 Q83.7697 1416.08 83.7697 1423.21 Q83.7697 1430.32 85.5753 1433.89 Q87.404 1437.43 91.0151 1437.43 Q94.6493 1437.43 96.4548 1433.89 Q98.2835 1430.32 98.2835 1423.21 Q98.2835 1416.08 96.4548 1412.54 Q94.6493 1408.98 91.0151 1408.98 M91.0151 1405.27 Q96.8252 1405.27 99.8808 1409.88 Q102.959 1414.46 102.959 1423.21 Q102.959 1431.94 99.8808 1436.55 Q96.8252 1441.13 91.0151 1441.13 Q85.2049 1441.13 82.1262 1436.55 Q79.0707 1431.94 79.0707 1423.21 Q79.0707 1414.46 82.1262 1409.88 Q85.2049 1405.27 91.0151 1405.27 Z" fill="#000000" fill-rule="nonzero" fill-opacity="1" /><path clip-path="url(#clip960)" d="M82.0568 975.92 L100.413 975.92 L100.413 979.855 L86.3392 979.855 L86.3392 988.327 Q87.3577 987.98 88.3762 987.818 Q89.3947 987.633 90.4132 987.633 Q96.2002 987.633 99.5798 990.804 Q102.959 993.975 102.959 999.392 Q102.959 1004.97 99.4872 1008.07 Q96.015 1011.15 89.6956 1011.15 Q87.5197 1011.15 85.2512 1010.78 Q83.0058 1010.41 80.5984 1009.67 L80.5984 1004.97 Q82.6818 1006.1 84.904 1006.66 Q87.1262 1007.22 89.603 1007.22 Q93.6076 1007.22 95.9456 1005.11 Q98.2835 1003 98.2835 999.392 Q98.2835 995.781 95.9456 993.674 Q93.6076 991.568 89.603 991.568 Q87.728 991.568 85.8531 991.985 Q84.0012 992.401 82.0568 993.281 L82.0568 975.92 Z" fill="#000000" fill-rule="nonzero" fill-opacity="1" /><path clip-path="url(#clip960)" d="M51.6634 576.565 L59.3023 576.565 L59.3023 550.199 L50.9921 551.866 L50.9921 547.607 L59.256 545.94 L63.9319 545.94 L63.9319 576.565 L71.5707 576.565 L71.5707 580.5 L51.6634 580.5 L51.6634 576.565 Z" fill="#000000" fill-rule="nonzero" fill-opacity="1" /><path clip-path="url(#clip960)" d="M91.0151 549.019 Q87.404 549.019 85.5753 552.583 Q83.7697 556.125 83.7697 563.255 Q83.7697 570.361 85.5753 573.926 Q87.404 577.468 91.0151 577.468 Q94.6493 577.468 96.4548 573.926 Q98.2835 570.361 98.2835 563.255 Q98.2835 556.125 96.4548 552.583 Q94.6493 549.019 91.0151 549.019 M91.0151 545.315 Q96.8252 545.315 99.8808 549.921 Q102.959 554.505 102.959 563.255 Q102.959 571.982 99.8808 576.588 Q96.8252 581.171 91.0151 581.171 Q85.2049 581.171 82.1262 576.588 Q79.0707 571.982 79.0707 563.255 Q79.0707 554.505 82.1262 549.921 Q85.2049 545.315 91.0151 545.315 Z" fill="#000000" fill-rule="nonzero" fill-opacity="1" /><path clip-path="url(#clip960)" d="M52.6588 146.585 L60.2976 146.585 L60.2976 120.219 L51.9875 121.886 L51.9875 117.627 L60.2513 115.96 L64.9272 115.96 L64.9272 146.585 L72.5661 146.585 L72.5661 150.52 L52.6588 150.52 L52.6588 146.585 Z" fill="#000000" fill-rule="nonzero" fill-opacity="1" /><path clip-path="url(#clip960)" d="M82.0568 115.96 L100.413 115.96 L100.413 119.895 L86.3392 119.895 L86.3392 128.367 Q87.3577 128.02 88.3762 127.858 Q89.3947 127.673 90.4132 127.673 Q96.2002 127.673 99.5798 130.844 Q102.959 134.016 102.959 139.432 Q102.959 145.011 99.4872 148.113 Q96.015 151.191 89.6956 151.191 Q87.5197 151.191 85.2512 150.821 Q83.0058 150.451 80.5984 149.71 L80.5984 145.011 Q82.6818 146.145 84.904 146.701 Q87.1262 147.256 89.603 147.256 Q93.6076 147.256 95.9456 145.15 Q98.2835 143.043 98.2835 139.432 Q98.2835 135.821 95.9456 133.715 Q93.6076 131.608 89.603 131.608 Q87.728 131.608 85.8531 132.025 Q84.0012 132.441 82.0568 133.321 L82.0568 115.96 Z" fill="#000000" fill-rule="nonzero" fill-opacity="1" /><path clip-path="url(#clip962)" d="M260.722 1251.19 L260.722 1423.18 L370.182 1423.18 L370.182 1251.19 L260.722 1251.19 L260.722 1251.19  Z" fill="#009af9" fill-rule="evenodd" fill-opacity="1"/>
<polyline clip-path="url(#clip962)" style="stroke:#000000; stroke-linecap:round; stroke-linejoin:round; stroke-width:4; stroke-opacity:1; fill:none" points="260.722,1251.19 260.722,1423.18 370.182,1423.18 370.182,1251.19 260.722,1251.19 "/>
<path clip-path="url(#clip962)" d="M370.182 993.2 L370.182 1423.18 L479.641 1423.18 L479.641 993.2 L370.182 993.2 L370.182 993.2  Z" fill="#009af9" fill-rule="evenodd" fill-opacity="1"/>
<polyline clip-path="url(#clip962)" style="stroke:#000000; stroke-linecap:round; stroke-linejoin:round; stroke-width:4; stroke-opacity:1; fill:none" points="370.182,993.2 370.182,1423.18 479.641,1423.18 479.641,993.2 370.182,993.2 "/>
<path clip-path="url(#clip962)" d="M479.641 1251.19 L479.641 1423.18 L589.101 1423.18 L589.101 1251.19 L479.641 1251.19 L479.641 1251.19  Z" fill="#009af9" fill-rule="evenodd" fill-opacity="1"/>
<polyline clip-path="url(#clip962)" style="stroke:#000000; stroke-linecap:round; stroke-linejoin:round; stroke-width:4; stroke-opacity:1; fill:none" points="479.641,1251.19 479.641,1423.18 589.101,1423.18 589.101,1251.19 479.641,1251.19 "/>
<path clip-path="url(#clip962)" d="M589.101 821.208 L589.101 1423.18 L698.56 1423.18 L698.56 821.208 L589.101 821.208 L589.101 821.208  Z" fill="#009af9" fill-rule="evenodd" fill-opacity="1"/>
<polyline clip-path="url(#clip962)" style="stroke:#000000; stroke-linecap:round; stroke-linejoin:round; stroke-width:4; stroke-opacity:1; fill:none" points="589.101,821.208 589.101,1423.18 698.56,1423.18 698.56,821.208 589.101,821.208 "/>
<path clip-path="url(#clip962)" d="M698.56 993.2 L698.56 1423.18 L808.02 1423.18 L808.02 993.2 L698.56 993.2 L698.56 993.2  Z" fill="#009af9" fill-rule="evenodd" fill-opacity="1"/>
<polyline clip-path="url(#clip962)" style="stroke:#000000; stroke-linecap:round; stroke-linejoin:round; stroke-width:4; stroke-opacity:1; fill:none" points="698.56,993.2 698.56,1423.18 808.02,1423.18 808.02,993.2 698.56,993.2 "/>
<path clip-path="url(#clip962)" d="M808.02 993.2 L808.02 1423.18 L917.479 1423.18 L917.479 993.2 L808.02 993.2 L808.02 993.2  Z" fill="#009af9" fill-rule="evenodd" fill-opacity="1"/>
<polyline clip-path="url(#clip962)" style="stroke:#000000; stroke-linecap:round; stroke-linejoin:round; stroke-width:4; stroke-opacity:1; fill:none" points="808.02,993.2 808.02,1423.18 917.479,1423.18 917.479,993.2 808.02,993.2 "/>
<path clip-path="url(#clip962)" d="M917.479 907.204 L917.479 1423.18 L1026.94 1423.18 L1026.94 907.204 L917.479 907.204 L917.479 907.204  Z" fill="#009af9" fill-rule="evenodd" fill-opacity="1"/>
<polyline clip-path="url(#clip962)" style="stroke:#000000; stroke-linecap:round; stroke-linejoin:round; stroke-width:4; stroke-opacity:1; fill:none" points="917.479,907.204 917.479,1423.18 1026.94,1423.18 1026.94,907.204 917.479,907.204 "/>
<path clip-path="url(#clip962)" d="M1026.94 47.2441 L1026.94 1423.18 L1136.4 1423.18 L1136.4 47.2441 L1026.94 47.2441 L1026.94 47.2441  Z" fill="#009af9" fill-rule="evenodd" fill-opacity="1"/>
<polyline clip-path="url(#clip962)" style="stroke:#000000; stroke-linecap:round; stroke-linejoin:round; stroke-width:4; stroke-opacity:1; fill:none" points="1026.94,47.2441 1026.94,1423.18 1136.4,1423.18 1136.4,47.2441 1026.94,47.2441 "/>
<path clip-path="url(#clip962)" d="M1136.4 735.212 L1136.4 1423.18 L1245.86 1423.18 L1245.86 735.212 L1136.4 735.212 L1136.4 735.212  Z" fill="#009af9" fill-rule="evenodd" fill-opacity="1"/>
<polyline clip-path="url(#clip962)" style="stroke:#000000; stroke-linecap:round; stroke-linejoin:round; stroke-width:4; stroke-opacity:1; fill:none" points="1136.4,735.212 1136.4,1423.18 1245.86,1423.18 1245.86,735.212 1136.4,735.212 "/>
<path clip-path="url(#clip962)" d="M1245.86 649.216 L1245.86 1423.18 L1355.32 1423.18 L1355.32 649.216 L1245.86 649.216 L1245.86 649.216  Z" fill="#009af9" fill-rule="evenodd" fill-opacity="1"/>
<polyline clip-path="url(#clip962)" style="stroke:#000000; stroke-linecap:round; stroke-linejoin:round; stroke-width:4; stroke-opacity:1; fill:none" points="1245.86,649.216 1245.86,1423.18 1355.32,1423.18 1355.32,649.216 1245.86,649.216 "/>
<path clip-path="url(#clip962)" d="M1355.32 821.208 L1355.32 1423.18 L1464.78 1423.18 L1464.78 821.208 L1355.32 821.208 L1355.32 821.208  Z" fill="#009af9" fill-rule="evenodd" fill-opacity="1"/>
<polyline clip-path="url(#clip962)" style="stroke:#000000; stroke-linecap:round; stroke-linejoin:round; stroke-width:4; stroke-opacity:1; fill:none" points="1355.32,821.208 1355.32,1423.18 1464.78,1423.18 1464.78,821.208 1355.32,821.208 "/>
<path clip-path="url(#clip962)" d="M1464.78 1251.19 L1464.78 1423.18 L1574.24 1423.18 L1574.24 1251.19 L1464.78 1251.19 L1464.78 1251.19  Z" fill="#009af9" fill-rule="evenodd" fill-opacity="1"/>
<polyline clip-path="url(#clip962)" style="stroke:#000000; stroke-linecap:round; stroke-linejoin:round; stroke-width:4; stroke-opacity:1; fill:none" points="1464.78,1251.19 1464.78,1423.18 1574.24,1423.18 1574.24,1251.19 1464.78,1251.19 "/>
<path clip-path="url(#clip962)" d="M1574.24 993.2 L1574.24 1423.18 L1683.7 1423.18 L1683.7 993.2 L1574.24 993.2 L1574.24 993.2  Z" fill="#009af9" fill-rule="evenodd" fill-opacity="1"/>
<polyline clip-path="url(#clip962)" style="stroke:#000000; stroke-linecap:round; stroke-linejoin:round; stroke-width:4; stroke-opacity:1; fill:none" points="1574.24,993.2 1574.24,1423.18 1683.7,1423.18 1683.7,993.2 1574.24,993.2 "/>
<path clip-path="url(#clip962)" d="M1683.7 907.204 L1683.7 1423.18 L1793.16 1423.18 L1793.16 907.204 L1683.7 907.204 L1683.7 907.204  Z" fill="#009af9" fill-rule="evenodd" fill-opacity="1"/>
<polyline clip-path="url(#clip962)" style="stroke:#000000; stroke-linecap:round; stroke-linejoin:round; stroke-width:4; stroke-opacity:1; fill:none" points="1683.7,907.204 1683.7,1423.18 1793.16,1423.18 1793.16,907.204 1683.7,907.204 "/>
<path clip-path="url(#clip962)" d="M1793.16 993.2 L1793.16 1423.18 L1902.61 1423.18 L1902.61 993.2 L1793.16 993.2 L1793.16 993.2  Z" fill="#009af9" fill-rule="evenodd" fill-opacity="1"/>
<polyline clip-path="url(#clip962)" style="stroke:#000000; stroke-linecap:round; stroke-linejoin:round; stroke-width:4; stroke-opacity:1; fill:none" points="1793.16,993.2 1793.16,1423.18 1902.61,1423.18 1902.61,993.2 1793.16,993.2 "/>
<path clip-path="url(#clip962)" d="M1902.61 735.212 L1902.61 1423.18 L2012.07 1423.18 L2012.07 735.212 L1902.61 735.212 L1902.61 735.212  Z" fill="#009af9" fill-rule="evenodd" fill-opacity="1"/>
<polyline clip-path="url(#clip962)" style="stroke:#000000; stroke-linecap:round; stroke-linejoin:round; stroke-width:4; stroke-opacity:1; fill:none" points="1902.61,735.212 1902.61,1423.18 2012.07,1423.18 2012.07,735.212 1902.61,735.212 "/>
<path clip-path="url(#clip962)" d="M2012.07 1337.18 L2012.07 1423.18 L2121.53 1423.18 L2121.53 1337.18 L2012.07 1337.18 L2012.07 1337.18  Z" fill="#009af9" fill-rule="evenodd" fill-opacity="1"/>
<polyline clip-path="url(#clip962)" style="stroke:#000000; stroke-linecap:round; stroke-linejoin:round; stroke-width:4; stroke-opacity:1; fill:none" points="2012.07,1337.18 2012.07,1423.18 2121.53,1423.18 2121.53,1337.18 2012.07,1337.18 "/>
<path clip-path="url(#clip962)" d="M2121.53 1337.18 L2121.53 1423.18 L2230.99 1423.18 L2230.99 1337.18 L2121.53 1337.18 L2121.53 1337.18  Z" fill="#009af9" fill-rule="evenodd" fill-opacity="1"/>
<polyline clip-path="url(#clip962)" style="stroke:#000000; stroke-linecap:round; stroke-linejoin:round; stroke-width:4; stroke-opacity:1; fill:none" points="2121.53,1337.18 2121.53,1423.18 2230.99,1423.18 2230.99,1337.18 2121.53,1337.18 "/>
<circle clip-path="url(#clip962)" style="fill:#009af9; stroke:none; fill-opacity:0" cx="315.452" cy="1251.19" r="2"/>
<circle clip-path="url(#clip962)" style="fill:#009af9; stroke:none; fill-opacity:0" cx="424.911" cy="993.2" r="2"/>
<circle clip-path="url(#clip962)" style="fill:#009af9; stroke:none; fill-opacity:0" cx="534.371" cy="1251.19" r="2"/>
<circle clip-path="url(#clip962)" style="fill:#009af9; stroke:none; fill-opacity:0" cx="643.83" cy="821.208" r="2"/>
<circle clip-path="url(#clip962)" style="fill:#009af9; stroke:none; fill-opacity:0" cx="753.29" cy="993.2" r="2"/>
<circle clip-path="url(#clip962)" style="fill:#009af9; stroke:none; fill-opacity:0" cx="862.749" cy="993.2" r="2"/>
<circle clip-path="url(#clip962)" style="fill:#009af9; stroke:none; fill-opacity:0" cx="972.209" cy="907.204" r="2"/>
<circle clip-path="url(#clip962)" style="fill:#009af9; stroke:none; fill-opacity:0" cx="1081.67" cy="47.2441" r="2"/>
<circle clip-path="url(#clip962)" style="fill:#009af9; stroke:none; fill-opacity:0" cx="1191.13" cy="735.212" r="2"/>
<circle clip-path="url(#clip962)" style="fill:#009af9; stroke:none; fill-opacity:0" cx="1300.59" cy="649.216" r="2"/>
<circle clip-path="url(#clip962)" style="fill:#009af9; stroke:none; fill-opacity:0" cx="1410.05" cy="821.208" r="2"/>
<circle clip-path="url(#clip962)" style="fill:#009af9; stroke:none; fill-opacity:0" cx="1519.51" cy="1251.19" r="2"/>
<circle clip-path="url(#clip962)" style="fill:#009af9; stroke:none; fill-opacity:0" cx="1628.97" cy="993.2" r="2"/>
<circle clip-path="url(#clip962)" style="fill:#009af9; stroke:none; fill-opacity:0" cx="1738.43" cy="907.204" r="2"/>
<circle clip-path="url(#clip962)" style="fill:#009af9; stroke:none; fill-opacity:0" cx="1847.88" cy="993.2" r="2"/>
<circle clip-path="url(#clip962)" style="fill:#009af9; stroke:none; fill-opacity:0" cx="1957.34" cy="735.212" r="2"/>
<circle clip-path="url(#clip962)" style="fill:#009af9; stroke:none; fill-opacity:0" cx="2066.8" cy="1337.18" r="2"/>
<circle clip-path="url(#clip962)" style="fill:#009af9; stroke:none; fill-opacity:0" cx="2176.26" cy="1337.18" r="2"/>
</svg>
