<?xml version="1.0" encoding="utf-8"?>
<svg xmlns="http://www.w3.org/2000/svg" xmlns:xlink="http://www.w3.org/1999/xlink" width="600" height="400" viewBox="0 0 2400 1600">
<defs>
  <clipPath id="clip160">
    <rect x="0" y="0" width="2400" height="1600"/>
  </clipPath>
</defs>
<path clip-path="url(#clip160)" d="M0 1600 L2400 1600 L2400 0 L0 0  Z" fill="#ffffff" fill-rule="evenodd" fill-opacity="1"/>
<defs>
  <clipPath id="clip161">
    <rect x="480" y="0" width="1681" height="1600"/>
  </clipPath>
</defs>
<path clip-path="url(#clip160)" d="M138.867 1423.18 L2352.76 1423.18 L2352.76 47.2441 L138.867 47.2441  Z" fill="#ffffff" fill-rule="evenodd" fill-opacity="1"/>
<defs>
  <clipPath id="clip162">
    <rect x="138" y="47" width="2215" height="1377"/>
  </clipPath>
</defs>
<polyline clip-path="url(#clip162)" style="stroke:#000000; stroke-linecap:round; stroke-linejoin:round; stroke-width:2; stroke-opacity:0.1; fill:none" points="468.04,1423.18 468.04,47.2441 "/>
<polyline clip-path="url(#clip162)" style="stroke:#000000; stroke-linecap:round; stroke-linejoin:round; stroke-width:2; stroke-opacity:0.1; fill:none" points="882.852,1423.18 882.852,47.2441 "/>
<polyline clip-path="url(#clip162)" style="stroke:#000000; stroke-linecap:round; stroke-linejoin:round; stroke-width:2; stroke-opacity:0.1; fill:none" points="1297.66,1423.18 1297.66,47.2441 "/>
<polyline clip-path="url(#clip162)" style="stroke:#000000; stroke-linecap:round; stroke-linejoin:round; stroke-width:2; stroke-opacity:0.1; fill:none" points="1712.47,1423.18 1712.47,47.2441 "/>
<polyline clip-path="url(#clip162)" style="stroke:#000000; stroke-linecap:round; stroke-linejoin:round; stroke-width:2; stroke-opacity:0.1; fill:none" points="2127.29,1423.18 2127.29,47.2441 "/>
<polyline clip-path="url(#clip162)" style="stroke:#000000; stroke-linecap:round; stroke-linejoin:round; stroke-width:2; stroke-opacity:0.1; fill:none" points="138.867,1423.18 2352.76,1423.18 "/>
<polyline clip-path="url(#clip162)" style="stroke:#000000; stroke-linecap:round; stroke-linejoin:round; stroke-width:2; stroke-opacity:0.1; fill:none" points="138.867,1193.86 2352.76,1193.86 "/>
<polyline clip-path="url(#clip162)" style="stroke:#000000; stroke-linecap:round; stroke-linejoin:round; stroke-width:2; stroke-opacity:0.1; fill:none" points="138.867,964.535 2352.76,964.535 "/>
<polyline clip-path="url(#clip162)" style="stroke:#000000; stroke-linecap:round; stroke-linejoin:round; stroke-width:2; stroke-opacity:0.1; fill:none" points="138.867,735.212 2352.76,735.212 "/>
<polyline clip-path="url(#clip162)" style="stroke:#000000; stroke-linecap:round; stroke-linejoin:round; stroke-width:2; stroke-opacity:0.1; fill:none" points="138.867,505.889 2352.76,505.889 "/>
<polyline clip-path="url(#clip162)" style="stroke:#000000; stroke-linecap:round; stroke-linejoin:round; stroke-width:2; stroke-opacity:0.1; fill:none" points="138.867,276.567 2352.76,276.567 "/>
<polyline clip-path="url(#clip162)" style="stroke:#000000; stroke-linecap:round; stroke-linejoin:round; stroke-width:2; stroke-opacity:0.1; fill:none" points="138.867,47.2441 2352.76,47.2441 "/>
<polyline clip-path="url(#clip160)" style="stroke:#000000; stroke-linecap:round; stroke-linejoin:round; stroke-width:4; stroke-opacity:1; fill:none" points="138.867,1423.18 2352.76,1423.18 "/>
<polyline clip-path="url(#clip160)" style="stroke:#000000; stroke-linecap:round; stroke-linejoin:round; stroke-width:4; stroke-opacity:1; fill:none" points="468.04,1423.18 468.04,1404.28 "/>
<polyline clip-path="url(#clip160)" style="stroke:#000000; stroke-linecap:round; stroke-linejoin:round; stroke-width:4; stroke-opacity:1; fill:none" points="882.852,1423.18 882.852,1404.28 "/>
<polyline clip-path="url(#clip160)" style="stroke:#000000; stroke-linecap:round; stroke-linejoin:round; stroke-width:4; stroke-opacity:1; fill:none" points="1297.66,1423.18 1297.66,1404.28 "/>
<polyline clip-path="url(#clip160)" style="stroke:#000000; stroke-linecap:round; stroke-linejoin:round; stroke-width:4; stroke-opacity:1; fill:none" points="1712.47,1423.18 1712.47,1404.28 "/>
<polyline clip-path="url(#clip160)" style="stroke:#000000; stroke-linecap:round; stroke-linejoin:round; stroke-width:4; stroke-opacity:1; fill:none" points="2127.29,1423.18 2127.29,1404.28 "/>
<path clip-path="url(#clip160)" d="M427.647 1481.64 L435.286 1481.64 L435.286 1455.28 L426.976 1456.95 L426.976 1452.69 L435.24 1451.02 L439.915 1451.02 L439.915 1481.64 L447.554 1481.64 L447.554 1485.58 L427.647 1485.58 L427.647 1481.64 Z" fill="#000000" fill-rule="nonzero" fill-opacity="1" /><path clip-path="url(#clip160)" d="M467.577 1466.44 Q464.429 1466.44 462.577 1468.59 Q460.749 1470.74 460.749 1474.49 Q460.749 1478.22 462.577 1480.39 Q464.429 1482.55 467.577 1482.55 Q470.725 1482.55 472.554 1480.39 Q474.406 1478.22 474.406 1474.49 Q474.406 1470.74 472.554 1468.59 Q470.725 1466.44 467.577 1466.44 M476.86 1451.78 L476.86 1456.04 Q475.1 1455.21 473.295 1454.77 Q471.513 1454.33 469.753 1454.33 Q465.124 1454.33 462.67 1457.45 Q460.239 1460.58 459.892 1466.9 Q461.258 1464.89 463.318 1463.82 Q465.378 1462.73 467.855 1462.73 Q473.063 1462.73 476.073 1465.9 Q479.105 1469.05 479.105 1474.49 Q479.105 1479.82 475.957 1483.03 Q472.809 1486.25 467.577 1486.25 Q461.582 1486.25 458.411 1481.67 Q455.239 1477.06 455.239 1468.33 Q455.239 1460.14 459.128 1455.28 Q463.017 1450.39 469.568 1450.39 Q471.327 1450.39 473.11 1450.74 Q474.915 1451.09 476.86 1451.78 Z" fill="#000000" fill-rule="nonzero" fill-opacity="1" /><path clip-path="url(#clip160)" d="M497.161 1454.1 Q493.549 1454.1 491.721 1457.66 Q489.915 1461.2 489.915 1468.33 Q489.915 1475.44 491.721 1479.01 Q493.549 1482.55 497.161 1482.55 Q500.795 1482.55 502.6 1479.01 Q504.429 1475.44 504.429 1468.33 Q504.429 1461.2 502.6 1457.66 Q500.795 1454.1 497.161 1454.1 M497.161 1450.39 Q502.971 1450.39 506.026 1455 Q509.105 1459.58 509.105 1468.33 Q509.105 1477.06 506.026 1481.67 Q502.971 1486.25 497.161 1486.25 Q491.35 1486.25 488.272 1481.67 Q485.216 1477.06 485.216 1468.33 Q485.216 1459.58 488.272 1455 Q491.35 1450.39 497.161 1450.39 Z" fill="#000000" fill-rule="nonzero" fill-opacity="1" /><path clip-path="url(#clip160)" d="M842.458 1481.64 L850.097 1481.64 L850.097 1455.28 L841.787 1456.95 L841.787 1452.69 L850.051 1451.02 L854.727 1451.02 L854.727 1481.64 L862.366 1481.64 L862.366 1485.58 L842.458 1485.58 L842.458 1481.64 Z" fill="#000000" fill-rule="nonzero" fill-opacity="1" /><path clip-path="url(#clip160)" d="M881.81 1469.17 Q878.477 1469.17 876.555 1470.95 Q874.657 1472.73 874.657 1475.86 Q874.657 1478.98 876.555 1480.77 Q878.477 1482.55 881.81 1482.55 Q885.143 1482.55 887.064 1480.77 Q888.986 1478.96 888.986 1475.86 Q888.986 1472.73 887.064 1470.95 Q885.166 1469.17 881.81 1469.17 M877.134 1467.18 Q874.125 1466.44 872.435 1464.38 Q870.768 1462.32 870.768 1459.35 Q870.768 1455.21 873.708 1452.8 Q876.671 1450.39 881.81 1450.39 Q886.972 1450.39 889.912 1452.8 Q892.851 1455.21 892.851 1459.35 Q892.851 1462.32 891.162 1464.38 Q889.495 1466.44 886.509 1467.18 Q889.889 1467.96 891.764 1470.26 Q893.662 1472.55 893.662 1475.86 Q893.662 1480.88 890.583 1483.57 Q887.527 1486.25 881.81 1486.25 Q876.092 1486.25 873.014 1483.57 Q869.958 1480.88 869.958 1475.86 Q869.958 1472.55 871.856 1470.26 Q873.754 1467.96 877.134 1467.18 M875.421 1459.79 Q875.421 1462.48 877.088 1463.98 Q878.777 1465.49 881.81 1465.49 Q884.819 1465.49 886.509 1463.98 Q888.222 1462.48 888.222 1459.79 Q888.222 1457.11 886.509 1455.6 Q884.819 1454.1 881.81 1454.1 Q878.777 1454.1 877.088 1455.6 Q875.421 1457.11 875.421 1459.79 Z" fill="#000000" fill-rule="nonzero" fill-opacity="1" /><path clip-path="url(#clip160)" d="M911.972 1454.1 Q908.361 1454.1 906.532 1457.66 Q904.726 1461.2 904.726 1468.33 Q904.726 1475.44 906.532 1479.01 Q908.361 1482.55 911.972 1482.55 Q915.606 1482.55 917.412 1479.01 Q919.24 1475.44 919.24 1468.33 Q919.24 1461.2 917.412 1457.66 Q915.606 1454.1 911.972 1454.1 M911.972 1450.39 Q917.782 1450.39 920.837 1455 Q923.916 1459.58 923.916 1468.33 Q923.916 1477.06 920.837 1481.67 Q917.782 1486.25 911.972 1486.25 Q906.162 1486.25 903.083 1481.67 Q900.027 1477.06 900.027 1468.33 Q900.027 1459.58 903.083 1455 Q906.162 1450.39 911.972 1450.39 Z" fill="#000000" fill-rule="nonzero" fill-opacity="1" /><path clip-path="url(#clip160)" d="M1261.36 1481.64 L1277.67 1481.64 L1277.67 1485.58 L1255.73 1485.58 L1255.73 1481.64 Q1258.39 1478.89 1262.98 1474.26 Q1267.58 1469.61 1268.76 1468.27 Q1271.01 1465.74 1271.89 1464.01 Q1272.79 1462.25 1272.79 1460.56 Q1272.79 1457.8 1270.85 1456.07 Q1268.92 1454.33 1265.82 1454.33 Q1263.62 1454.33 1261.17 1455.09 Q1258.74 1455.86 1255.96 1457.41 L1255.96 1452.69 Q1258.79 1451.55 1261.24 1450.97 Q1263.69 1450.39 1265.73 1450.39 Q1271.1 1450.39 1274.29 1453.08 Q1277.49 1455.77 1277.49 1460.26 Q1277.49 1462.39 1276.68 1464.31 Q1275.89 1466.2 1273.79 1468.8 Q1273.21 1469.47 1270.11 1472.69 Q1267 1475.88 1261.36 1481.64 Z" fill="#000000" fill-rule="nonzero" fill-opacity="1" /><path clip-path="url(#clip160)" d="M1297.49 1454.1 Q1293.88 1454.1 1292.05 1457.66 Q1290.24 1461.2 1290.24 1468.33 Q1290.24 1475.44 1292.05 1479.01 Q1293.88 1482.55 1297.49 1482.55 Q1301.12 1482.55 1302.93 1479.01 Q1304.76 1475.44 1304.76 1468.33 Q1304.76 1461.2 1302.93 1457.66 Q1301.12 1454.1 1297.49 1454.1 M1297.49 1450.39 Q1303.3 1450.39 1306.35 1455 Q1309.43 1459.58 1309.43 1468.33 Q1309.43 1477.06 1306.35 1481.67 Q1303.3 1486.25 1297.49 1486.25 Q1291.68 1486.25 1288.6 1481.67 Q1285.54 1477.06 1285.54 1468.33 Q1285.54 1459.58 1288.6 1455 Q1291.68 1450.39 1297.49 1450.39 Z" fill="#000000" fill-rule="nonzero" fill-opacity="1" /><path clip-path="url(#clip160)" d="M1327.65 1454.1 Q1324.04 1454.1 1322.21 1457.66 Q1320.41 1461.2 1320.41 1468.33 Q1320.41 1475.44 1322.21 1479.01 Q1324.04 1482.55 1327.65 1482.55 Q1331.29 1482.55 1333.09 1479.01 Q1334.92 1475.44 1334.92 1468.33 Q1334.92 1461.2 1333.09 1457.66 Q1331.29 1454.1 1327.65 1454.1 M1327.65 1450.39 Q1333.46 1450.39 1336.52 1455 Q1339.6 1459.58 1339.6 1468.33 Q1339.6 1477.06 1336.52 1481.67 Q1333.46 1486.25 1327.65 1486.25 Q1321.84 1486.25 1318.76 1481.67 Q1315.71 1477.06 1315.71 1468.33 Q1315.71 1459.58 1318.76 1455 Q1321.84 1450.39 1327.65 1450.39 Z" fill="#000000" fill-rule="nonzero" fill-opacity="1" /><path clip-path="url(#clip160)" d="M1676.17 1481.64 L1692.49 1481.64 L1692.49 1485.58 L1670.54 1485.58 L1670.54 1481.64 Q1673.2 1478.89 1677.79 1474.26 Q1682.39 1469.61 1683.57 1468.27 Q1685.82 1465.74 1686.7 1464.01 Q1687.6 1462.25 1687.6 1460.56 Q1687.6 1457.8 1685.66 1456.07 Q1683.74 1454.33 1680.63 1454.33 Q1678.43 1454.33 1675.98 1455.09 Q1673.55 1455.86 1670.77 1457.41 L1670.77 1452.69 Q1673.6 1451.55 1676.05 1450.97 Q1678.5 1450.39 1680.54 1450.39 Q1685.91 1450.39 1689.11 1453.08 Q1692.3 1455.77 1692.3 1460.26 Q1692.3 1462.39 1691.49 1464.31 Q1690.7 1466.2 1688.6 1468.8 Q1688.02 1469.47 1684.92 1472.69 Q1681.81 1475.88 1676.17 1481.64 Z" fill="#000000" fill-rule="nonzero" fill-opacity="1" /><path clip-path="url(#clip160)" d="M1706.33 1481.64 L1722.65 1481.64 L1722.65 1485.58 L1700.7 1485.58 L1700.7 1481.64 Q1703.37 1478.89 1707.95 1474.26 Q1712.56 1469.61 1713.74 1468.27 Q1715.98 1465.74 1716.86 1464.01 Q1717.76 1462.25 1717.76 1460.56 Q1717.76 1457.8 1715.82 1456.07 Q1713.9 1454.33 1710.8 1454.33 Q1708.6 1454.33 1706.14 1455.09 Q1703.71 1455.86 1700.93 1457.41 L1700.93 1452.69 Q1703.76 1451.55 1706.21 1450.97 Q1708.67 1450.39 1710.7 1450.39 Q1716.07 1450.39 1719.27 1453.08 Q1722.46 1455.77 1722.46 1460.26 Q1722.46 1462.39 1721.65 1464.31 Q1720.87 1466.2 1718.76 1468.8 Q1718.18 1469.47 1715.08 1472.69 Q1711.98 1475.88 1706.33 1481.64 Z" fill="#000000" fill-rule="nonzero" fill-opacity="1" /><path clip-path="url(#clip160)" d="M1742.46 1454.1 Q1738.85 1454.1 1737.02 1457.66 Q1735.22 1461.2 1735.22 1468.33 Q1735.22 1475.44 1737.02 1479.01 Q1738.85 1482.55 1742.46 1482.55 Q1746.1 1482.55 1747.9 1479.01 Q1749.73 1475.44 1749.73 1468.33 Q1749.73 1461.2 1747.9 1457.66 Q1746.1 1454.1 1742.46 1454.1 M1742.46 1450.39 Q1748.27 1450.39 1751.33 1455 Q1754.41 1459.58 1754.41 1468.33 Q1754.41 1477.06 1751.33 1481.67 Q1748.27 1486.25 1742.46 1486.25 Q1736.65 1486.25 1733.57 1481.67 Q1730.52 1477.06 1730.52 1468.33 Q1730.52 1459.58 1733.57 1455 Q1736.65 1450.39 1742.46 1450.39 Z" fill="#000000" fill-rule="nonzero" fill-opacity="1" /><path clip-path="url(#clip160)" d="M2090.98 1481.64 L2107.3 1481.64 L2107.3 1485.58 L2085.35 1485.58 L2085.35 1481.64 Q2088.01 1478.89 2092.6 1474.26 Q2097.2 1469.61 2098.38 1468.27 Q2100.63 1465.74 2101.51 1464.01 Q2102.41 1462.25 2102.41 1460.56 Q2102.41 1457.8 2100.47 1456.07 Q2098.55 1454.33 2095.45 1454.33 Q2093.25 1454.33 2090.79 1455.09 Q2088.36 1455.86 2085.58 1457.41 L2085.58 1452.69 Q2088.41 1451.55 2090.86 1450.97 Q2093.32 1450.39 2095.35 1450.39 Q2100.72 1450.39 2103.92 1453.08 Q2107.11 1455.77 2107.11 1460.26 Q2107.11 1462.39 2106.3 1464.31 Q2105.51 1466.2 2103.41 1468.8 Q2102.83 1469.47 2099.73 1472.69 Q2096.63 1475.88 2090.98 1481.64 Z" fill="#000000" fill-rule="nonzero" fill-opacity="1" /><path clip-path="url(#clip160)" d="M2129.96 1455.09 L2118.15 1473.54 L2129.96 1473.54 L2129.96 1455.09 M2128.73 1451.02 L2134.61 1451.02 L2134.61 1473.54 L2139.54 1473.54 L2139.54 1477.43 L2134.61 1477.43 L2134.61 1485.58 L2129.96 1485.58 L2129.96 1477.43 L2114.36 1477.43 L2114.36 1472.92 L2128.73 1451.02 Z" fill="#000000" fill-rule="nonzero" fill-opacity="1" /><path clip-path="url(#clip160)" d="M2157.27 1454.1 Q2153.66 1454.1 2151.83 1457.66 Q2150.03 1461.2 2150.03 1468.33 Q2150.03 1475.44 2151.83 1479.01 Q2153.66 1482.55 2157.27 1482.55 Q2160.91 1482.55 2162.71 1479.01 Q2164.54 1475.44 2164.54 1468.33 Q2164.54 1461.2 2162.71 1457.66 Q2160.91 1454.1 2157.27 1454.1 M2157.27 1450.39 Q2163.08 1450.39 2166.14 1455 Q2169.22 1459.58 2169.22 1468.33 Q2169.22 1477.06 2166.14 1481.67 Q2163.08 1486.25 2157.27 1486.25 Q2151.46 1486.25 2148.38 1481.67 Q2145.33 1477.06 2145.33 1468.33 Q2145.33 1459.58 2148.38 1455 Q2151.46 1450.39 2157.27 1450.39 Z" fill="#000000" fill-rule="nonzero" fill-opacity="1" /><path clip-path="url(#clip160)" d="M1120.18 1525.81 L1120.18 1562.76 L1127.95 1562.76 Q1137.79 1562.76 1142.34 1558.3 Q1146.92 1553.85 1146.92 1544.24 Q1146.92 1534.69 1142.34 1530.26 Q1137.79 1525.81 1127.95 1525.81 L1120.18 1525.81 M1113.75 1520.52 L1126.96 1520.52 Q1140.78 1520.52 1147.24 1526.28 Q1153.7 1532.01 1153.7 1544.24 Q1153.7 1556.52 1147.21 1562.28 Q1140.71 1568.04 1126.96 1568.04 L1113.75 1568.04 L1113.75 1520.52 Z" fill="#000000" fill-rule="nonzero" fill-opacity="1" /><path clip-path="url(#clip160)" d="M1194.19 1548.76 L1194.19 1551.62 L1167.26 1551.62 Q1167.64 1557.67 1170.89 1560.85 Q1174.17 1564 1179.99 1564 Q1183.36 1564 1186.51 1563.17 Q1189.7 1562.35 1192.82 1560.69 L1192.82 1566.23 Q1189.67 1567.57 1186.36 1568.27 Q1183.05 1568.97 1179.64 1568.97 Q1171.11 1568.97 1166.11 1564 Q1161.15 1559.04 1161.15 1550.57 Q1161.15 1541.82 1165.86 1536.69 Q1170.6 1531.54 1178.62 1531.54 Q1185.81 1531.54 1189.98 1536.18 Q1194.19 1540.8 1194.19 1548.76 M1188.33 1547.04 Q1188.27 1542.23 1185.62 1539.37 Q1183.01 1536.5 1178.69 1536.5 Q1173.78 1536.5 1170.82 1539.27 Q1167.9 1542.04 1167.45 1547.07 L1188.33 1547.04 Z" fill="#000000" fill-rule="nonzero" fill-opacity="1" /><path clip-path="url(#clip160)" d="M1231.55 1539.24 Q1233.75 1535.29 1236.8 1533.41 Q1239.86 1531.54 1244 1531.54 Q1249.57 1531.54 1252.59 1535.45 Q1255.61 1539.33 1255.61 1546.53 L1255.61 1568.04 L1249.73 1568.04 L1249.73 1546.72 Q1249.73 1541.59 1247.91 1539.11 Q1246.1 1536.63 1242.37 1536.63 Q1237.82 1536.63 1235.18 1539.65 Q1232.54 1542.68 1232.54 1547.9 L1232.54 1568.04 L1226.65 1568.04 L1226.65 1546.72 Q1226.65 1541.56 1224.84 1539.11 Q1223.02 1536.63 1219.23 1536.63 Q1214.75 1536.63 1212.1 1539.68 Q1209.46 1542.71 1209.46 1547.9 L1209.46 1568.04 L1203.57 1568.04 L1203.57 1532.4 L1209.46 1532.4 L1209.46 1537.93 Q1211.47 1534.66 1214.27 1533.1 Q1217.07 1531.54 1220.92 1531.54 Q1224.8 1531.54 1227.51 1533.51 Q1230.25 1535.48 1231.55 1539.24 Z" fill="#000000" fill-rule="nonzero" fill-opacity="1" /><path clip-path="url(#clip160)" d="M1283.5 1550.12 Q1276.4 1550.12 1273.66 1551.75 Q1270.92 1553.37 1270.92 1557.29 Q1270.92 1560.4 1272.96 1562.25 Q1275.03 1564.07 1278.56 1564.07 Q1283.43 1564.07 1286.36 1560.63 Q1289.32 1557.16 1289.32 1551.43 L1289.32 1550.12 L1283.5 1550.12 M1295.18 1547.71 L1295.18 1568.04 L1289.32 1568.04 L1289.32 1562.63 Q1287.32 1565.88 1284.32 1567.44 Q1281.33 1568.97 1277 1568.97 Q1271.53 1568.97 1268.28 1565.91 Q1265.07 1562.82 1265.07 1557.67 Q1265.07 1551.65 1269.08 1548.6 Q1273.12 1545.54 1281.11 1545.54 L1289.32 1545.54 L1289.32 1544.97 Q1289.32 1540.93 1286.65 1538.73 Q1284.01 1536.5 1279.2 1536.5 Q1276.14 1536.5 1273.25 1537.23 Q1270.35 1537.97 1267.68 1539.43 L1267.68 1534.02 Q1270.89 1532.78 1273.92 1532.17 Q1276.94 1531.54 1279.8 1531.54 Q1287.54 1531.54 1291.36 1535.55 Q1295.18 1539.56 1295.18 1547.71 Z" fill="#000000" fill-rule="nonzero" fill-opacity="1" /><path clip-path="url(#clip160)" d="M1336.87 1546.53 L1336.87 1568.04 L1331.02 1568.04 L1331.02 1546.72 Q1331.02 1541.66 1329.04 1539.14 Q1327.07 1536.63 1323.12 1536.63 Q1318.38 1536.63 1315.64 1539.65 Q1312.91 1542.68 1312.91 1547.9 L1312.91 1568.04 L1307.02 1568.04 L1307.02 1532.4 L1312.91 1532.4 L1312.91 1537.93 Q1315.01 1534.72 1317.84 1533.13 Q1320.7 1531.54 1324.43 1531.54 Q1330.57 1531.54 1333.72 1535.36 Q1336.87 1539.14 1336.87 1546.53 Z" fill="#000000" fill-rule="nonzero" fill-opacity="1" /><path clip-path="url(#clip160)" d="M1372.01 1537.81 L1372.01 1518.52 L1377.87 1518.52 L1377.87 1568.04 L1372.01 1568.04 L1372.01 1562.7 Q1370.17 1565.88 1367.33 1567.44 Q1364.53 1568.97 1360.59 1568.97 Q1354.12 1568.97 1350.05 1563.81 Q1346.01 1558.65 1346.01 1550.25 Q1346.01 1541.85 1350.05 1536.69 Q1354.12 1531.54 1360.59 1531.54 Q1364.53 1531.54 1367.33 1533.1 Q1370.17 1534.62 1372.01 1537.81 M1352.06 1550.25 Q1352.06 1556.71 1354.7 1560.4 Q1357.37 1564.07 1362.02 1564.07 Q1366.66 1564.07 1369.34 1560.4 Q1372.01 1556.71 1372.01 1550.25 Q1372.01 1543.79 1369.34 1540.13 Q1366.66 1536.44 1362.02 1536.44 Q1357.37 1536.44 1354.7 1540.13 Q1352.06 1543.79 1352.06 1550.25 Z" fill="#000000" fill-rule="nonzero" fill-opacity="1" /><polyline clip-path="url(#clip160)" style="stroke:#000000; stroke-linecap:round; stroke-linejoin:round; stroke-width:4; stroke-opacity:1; fill:none" points="138.867,1423.18 138.867,47.2441 "/>
<polyline clip-path="url(#clip160)" style="stroke:#000000; stroke-linecap:round; stroke-linejoin:round; stroke-width:4; stroke-opacity:1; fill:none" points="138.867,1423.18 157.764,1423.18 "/>
<polyline clip-path="url(#clip160)" style="stroke:#000000; stroke-linecap:round; stroke-linejoin:round; stroke-width:4; stroke-opacity:1; fill:none" points="138.867,1193.86 157.764,1193.86 "/>
<polyline clip-path="url(#clip160)" style="stroke:#000000; stroke-linecap:round; stroke-linejoin:round; stroke-width:4; stroke-opacity:1; fill:none" points="138.867,964.535 157.764,964.535 "/>
<polyline clip-path="url(#clip160)" style="stroke:#000000; stroke-linecap:round; stroke-linejoin:round; stroke-width:4; stroke-opacity:1; fill:none" points="138.867,735.212 157.764,735.212 "/>
<polyline clip-path="url(#clip160)" style="stroke:#000000; stroke-linecap:round; stroke-linejoin:round; stroke-width:4; stroke-opacity:1; fill:none" points="138.867,505.889 157.764,505.889 "/>
<polyline clip-path="url(#clip160)" style="stroke:#000000; stroke-linecap:round; stroke-linejoin:round; stroke-width:4; stroke-opacity:1; fill:none" points="138.867,276.567 157.764,276.567 "/>
<polyline clip-path="url(#clip160)" style="stroke:#000000; stroke-linecap:round; stroke-linejoin:round; stroke-width:4; stroke-opacity:1; fill:none" points="138.867,47.2441 157.764,47.2441 "/>
<path clip-path="url(#clip160)" d="M90.9225 1408.98 Q87.3114 1408.98 85.4827 1412.54 Q83.6771 1416.08 83.6771 1423.21 Q83.6771 1430.32 85.4827 1433.89 Q87.3114 1437.43 90.9225 1437.43 Q94.5567 1437.43 96.3623 1433.89 Q98.1909 1430.32 98.1909 1423.21 Q98.1909 1416.08 96.3623 1412.54 Q94.5567 1408.98 90.9225 1408.98 M90.9225 1405.27 Q96.7326 1405.27 99.7882 1409.88 Q102.867 1414.46 102.867 1423.21 Q102.867 1431.94 99.7882 1436.55 Q96.7326 1441.13 90.9225 1441.13 Q85.1123 1441.13 82.0336 1436.55 Q78.9781 1431.94 78.9781 1423.21 Q78.9781 1414.46 82.0336 1409.88 Q85.1123 1405.27 90.9225 1405.27 Z" fill="#000000" fill-rule="nonzero" fill-opacity="1" /><path clip-path="url(#clip160)" d="M95.7373 1192.5 Q99.0937 1193.22 100.969 1195.49 Q102.867 1197.76 102.867 1201.09 Q102.867 1206.21 99.3483 1209.01 Q95.8298 1211.81 89.3484 1211.81 Q87.1725 1211.81 84.8577 1211.37 Q82.566 1210.95 80.1123 1210.1 L80.1123 1205.58 Q82.0568 1206.72 84.3716 1207.29 Q86.6864 1207.87 89.2095 1207.87 Q93.6076 1207.87 95.8993 1206.14 Q98.2141 1204.4 98.2141 1201.09 Q98.2141 1198.04 96.0613 1196.32 Q93.9317 1194.59 90.1123 1194.59 L86.0845 1194.59 L86.0845 1190.74 L90.2975 1190.74 Q93.7465 1190.74 95.5752 1189.38 Q97.4039 1187.99 97.4039 1185.4 Q97.4039 1182.73 95.5058 1181.32 Q93.6308 1179.89 90.1123 1179.89 Q88.191 1179.89 85.9919 1180.3 Q83.7929 1180.72 81.154 1181.6 L81.154 1177.43 Q83.816 1176.69 86.1308 1176.32 Q88.4688 1175.95 90.529 1175.95 Q95.853 1175.95 98.9548 1178.38 Q102.057 1180.79 102.057 1184.91 Q102.057 1187.78 100.413 1189.77 Q98.7696 1191.74 95.7373 1192.5 Z" fill="#000000" fill-rule="nonzero" fill-opacity="1" /><path clip-path="url(#clip160)" d="M91.3391 962.671 Q88.191 962.671 86.3392 964.824 Q84.5105 966.977 84.5105 970.727 Q84.5105 974.454 86.3392 976.629 Q88.191 978.782 91.3391 978.782 Q94.4873 978.782 96.316 976.629 Q98.1678 974.454 98.1678 970.727 Q98.1678 966.977 96.316 964.824 Q94.4873 962.671 91.3391 962.671 M100.621 948.018 L100.621 952.278 Q98.8622 951.444 97.0567 951.005 Q95.2743 950.565 93.515 950.565 Q88.8854 950.565 86.4318 953.69 Q84.0012 956.815 83.654 963.134 Q85.0197 961.12 87.0799 960.055 Q89.1401 958.967 91.6169 958.967 Q96.8252 958.967 99.8345 962.139 Q102.867 965.287 102.867 970.727 Q102.867 976.051 99.7187 979.268 Q96.5706 982.486 91.3391 982.486 Q85.3438 982.486 82.1725 977.903 Q79.0012 973.296 79.0012 964.569 Q79.0012 956.375 82.8901 951.514 Q86.779 946.63 93.3299 946.63 Q95.0891 946.63 96.8715 946.977 Q98.6771 947.324 100.621 948.018 Z" fill="#000000" fill-rule="nonzero" fill-opacity="1" /><path clip-path="url(#clip160)" d="M81.2466 751.774 L81.2466 747.515 Q83.0058 748.348 84.8114 748.788 Q86.6169 749.228 88.353 749.228 Q92.9826 749.228 95.4132 746.126 Q97.8669 743.001 98.2141 736.659 Q96.8715 738.649 94.8113 739.714 Q92.7512 740.779 90.2512 740.779 Q85.066 740.779 82.0336 737.654 Q79.0244 734.506 79.0244 729.066 Q79.0244 723.742 82.1725 720.525 Q85.3206 717.307 90.5521 717.307 Q96.5474 717.307 99.6956 721.913 Q102.867 726.497 102.867 735.247 Q102.867 743.418 98.978 748.302 Q95.1123 753.163 88.5614 753.163 Q86.8021 753.163 84.9966 752.816 Q83.191 752.469 81.2466 751.774 M90.5521 737.122 Q93.7002 737.122 95.5289 734.969 Q97.3808 732.816 97.3808 729.066 Q97.3808 725.339 95.5289 723.187 Q93.7002 721.011 90.5521 721.011 Q87.404 721.011 85.5521 723.187 Q83.7234 725.339 83.7234 729.066 Q83.7234 732.816 85.5521 734.969 Q87.404 737.122 90.5521 737.122 Z" fill="#000000" fill-rule="nonzero" fill-opacity="1" /><path clip-path="url(#clip160)" d="M53.168 519.234 L60.8069 519.234 L60.8069 492.869 L52.4967 494.535 L52.4967 490.276 L60.7606 488.609 L65.4365 488.609 L65.4365 519.234 L73.0753 519.234 L73.0753 523.169 L53.168 523.169 L53.168 519.234 Z" fill="#000000" fill-rule="nonzero" fill-opacity="1" /><path clip-path="url(#clip160)" d="M86.5475 519.234 L102.867 519.234 L102.867 523.169 L80.9225 523.169 L80.9225 519.234 Q83.5845 516.48 88.1679 511.85 Q92.7743 507.197 93.9549 505.855 Q96.2002 503.331 97.0798 501.595 Q97.9826 499.836 97.9826 498.146 Q97.9826 495.392 96.0382 493.656 Q94.1169 491.92 91.0151 491.92 Q88.816 491.92 86.3623 492.683 Q83.9318 493.447 81.154 494.998 L81.154 490.276 Q83.9781 489.142 86.4318 488.563 Q88.8854 487.984 90.9225 487.984 Q96.2928 487.984 99.4872 490.67 Q102.682 493.355 102.682 497.845 Q102.682 499.975 101.871 501.896 Q101.084 503.794 98.978 506.387 Q98.3993 507.058 95.2974 510.276 Q92.1956 513.47 86.5475 519.234 Z" fill="#000000" fill-rule="nonzero" fill-opacity="1" /><path clip-path="url(#clip160)" d="M52.5662 289.912 L60.205 289.912 L60.205 263.546 L51.8949 265.213 L51.8949 260.953 L60.1587 259.287 L64.8346 259.287 L64.8346 289.912 L72.4735 289.912 L72.4735 293.847 L52.5662 293.847 L52.5662 289.912 Z" fill="#000000" fill-rule="nonzero" fill-opacity="1" /><path clip-path="url(#clip160)" d="M81.9642 259.287 L100.321 259.287 L100.321 263.222 L86.2466 263.222 L86.2466 271.694 Q87.2651 271.347 88.2836 271.185 Q89.3021 271 90.3206 271 Q96.1076 271 99.4872 274.171 Q102.867 277.342 102.867 282.759 Q102.867 288.337 99.3946 291.439 Q95.9224 294.518 89.603 294.518 Q87.4271 294.518 85.1586 294.148 Q82.9133 293.777 80.5059 293.037 L80.5059 288.337 Q82.5892 289.472 84.8114 290.027 Q87.0336 290.583 89.5104 290.583 Q93.515 290.583 95.853 288.476 Q98.1909 286.37 98.1909 282.759 Q98.1909 279.148 95.853 277.041 Q93.515 274.935 89.5104 274.935 Q87.6354 274.935 85.7605 275.351 Q83.9086 275.768 81.9642 276.648 L81.9642 259.287 Z" fill="#000000" fill-rule="nonzero" fill-opacity="1" /><path clip-path="url(#clip160)" d="M51.6634 60.5889 L59.3023 60.5889 L59.3023 34.2233 L50.9921 35.89 L50.9921 31.6308 L59.256 29.9641 L63.9319 29.9641 L63.9319 60.5889 L71.5707 60.5889 L71.5707 64.5241 L51.6634 64.5241 L51.6634 60.5889 Z" fill="#000000" fill-rule="nonzero" fill-opacity="1" /><path clip-path="url(#clip160)" d="M91.0151 48.1121 Q87.6817 48.1121 85.7605 49.8945 Q83.8623 51.6769 83.8623 54.8019 Q83.8623 57.9269 85.7605 59.7093 Q87.6817 61.4917 91.0151 61.4917 Q94.3484 61.4917 96.2697 59.7093 Q98.1909 57.9038 98.1909 54.8019 Q98.1909 51.6769 96.2697 49.8945 Q94.3715 48.1121 91.0151 48.1121 M86.3392 46.1214 Q83.3299 45.3807 81.6401 43.3205 Q79.9735 41.2603 79.9735 38.2974 Q79.9735 34.1539 82.9133 31.7465 Q85.8762 29.3391 91.0151 29.3391 Q96.1771 29.3391 99.1169 31.7465 Q102.057 34.1539 102.057 38.2974 Q102.057 41.2603 100.367 43.3205 Q98.7002 45.3807 95.7141 46.1214 Q99.0937 46.9084 100.969 49.2001 Q102.867 51.4918 102.867 54.8019 Q102.867 59.825 99.7882 62.5102 Q96.7326 65.1954 91.0151 65.1954 Q85.2975 65.1954 82.2188 62.5102 Q79.1633 59.825 79.1633 54.8019 Q79.1633 51.4918 81.0614 49.2001 Q82.9595 46.9084 86.3392 46.1214 M84.6262 38.7372 Q84.6262 41.4224 86.2929 42.927 Q87.9827 44.4316 91.0151 44.4316 Q94.0243 44.4316 95.7141 42.927 Q97.4271 41.4224 97.4271 38.7372 Q97.4271 36.052 95.7141 34.5474 Q94.0243 33.0428 91.0151 33.0428 Q87.9827 33.0428 86.2929 34.5474 Q84.6262 36.052 84.6262 38.7372 Z" fill="#000000" fill-rule="nonzero" fill-opacity="1" /><path clip-path="url(#clip162)" d="M260.635 1346.74 L260.635 1423.18 L364.337 1423.18 L364.337 1346.74 L260.635 1346.74 L260.635 1346.74  Z" fill="#009af9" fill-rule="evenodd" fill-opacity="1"/>
<polyline clip-path="url(#clip162)" style="stroke:#000000; stroke-linecap:round; stroke-linejoin:round; stroke-width:4; stroke-opacity:1; fill:none" points="260.635,1346.74 260.635,1423.18 364.337,1423.18 364.337,1346.74 260.635,1346.74 "/>
<path clip-path="url(#clip162)" d="M364.337 1270.3 L364.337 1423.18 L468.04 1423.18 L468.04 1270.3 L364.337 1270.3 L364.337 1270.3  Z" fill="#009af9" fill-rule="evenodd" fill-opacity="1"/>
<polyline clip-path="url(#clip162)" style="stroke:#000000; stroke-linecap:round; stroke-linejoin:round; stroke-width:4; stroke-opacity:1; fill:none" points="364.337,1270.3 364.337,1423.18 468.04,1423.18 468.04,1270.3 364.337,1270.3 "/>
<path clip-path="url(#clip162)" d="M468.04 1423.18 L468.04 1423.18 L571.743 1423.18 L571.743 1423.18 L468.04 1423.18 L468.04 1423.18  Z" fill="#009af9" fill-rule="evenodd" fill-opacity="1"/>
<polyline clip-path="url(#clip162)" style="stroke:#000000; stroke-linecap:round; stroke-linejoin:round; stroke-width:4; stroke-opacity:1; fill:none" points="468.04,1423.18 468.04,1423.18 571.743,1423.18 468.04,1423.18 "/>
<path clip-path="url(#clip162)" d="M571.743 1270.3 L571.743 1423.18 L675.446 1423.18 L675.446 1270.3 L571.743 1270.3 L571.743 1270.3  Z" fill="#009af9" fill-rule="evenodd" fill-opacity="1"/>
<polyline clip-path="url(#clip162)" style="stroke:#000000; stroke-linecap:round; stroke-linejoin:round; stroke-width:4; stroke-opacity:1; fill:none" points="571.743,1270.3 571.743,1423.18 675.446,1423.18 675.446,1270.3 571.743,1270.3 "/>
<path clip-path="url(#clip162)" d="M675.446 964.535 L675.446 1423.18 L779.149 1423.18 L779.149 964.535 L675.446 964.535 L675.446 964.535  Z" fill="#009af9" fill-rule="evenodd" fill-opacity="1"/>
<polyline clip-path="url(#clip162)" style="stroke:#000000; stroke-linecap:round; stroke-linejoin:round; stroke-width:4; stroke-opacity:1; fill:none" points="675.446,964.535 675.446,1423.18 779.149,1423.18 779.149,964.535 675.446,964.535 "/>
<path clip-path="url(#clip162)" d="M779.149 888.094 L779.149 1423.18 L882.852 1423.18 L882.852 888.094 L779.149 888.094 L779.149 888.094  Z" fill="#009af9" fill-rule="evenodd" fill-opacity="1"/>
<polyline clip-path="url(#clip162)" style="stroke:#000000; stroke-linecap:round; stroke-linejoin:round; stroke-width:4; stroke-opacity:1; fill:none" points="779.149,888.094 779.149,1423.18 882.852,1423.18 882.852,888.094 779.149,888.094 "/>
<path clip-path="url(#clip162)" d="M882.852 1040.98 L882.852 1423.18 L986.554 1423.18 L986.554 1040.98 L882.852 1040.98 L882.852 1040.98  Z" fill="#009af9" fill-rule="evenodd" fill-opacity="1"/>
<polyline clip-path="url(#clip162)" style="stroke:#000000; stroke-linecap:round; stroke-linejoin:round; stroke-width:4; stroke-opacity:1; fill:none" points="882.852,1040.98 882.852,1423.18 986.554,1423.18 986.554,1040.98 882.852,1040.98 "/>
<path clip-path="url(#clip162)" d="M986.554 888.094 L986.554 1423.18 L1090.26 1423.18 L1090.26 888.094 L986.554 888.094 L986.554 888.094  Z" fill="#009af9" fill-rule="evenodd" fill-opacity="1"/>
<polyline clip-path="url(#clip162)" style="stroke:#000000; stroke-linecap:round; stroke-linejoin:round; stroke-width:4; stroke-opacity:1; fill:none" points="986.554,888.094 986.554,1423.18 1090.26,1423.18 1090.26,888.094 986.554,888.094 "/>
<path clip-path="url(#clip162)" d="M1090.26 964.535 L1090.26 1423.18 L1193.96 1423.18 L1193.96 964.535 L1090.26 964.535 L1090.26 964.535  Z" fill="#009af9" fill-rule="evenodd" fill-opacity="1"/>
<polyline clip-path="url(#clip162)" style="stroke:#000000; stroke-linecap:round; stroke-linejoin:round; stroke-width:4; stroke-opacity:1; fill:none" points="1090.26,964.535 1090.26,1423.18 1193.96,1423.18 1193.96,964.535 1090.26,964.535 "/>
<path clip-path="url(#clip162)" d="M1193.96 582.33 L1193.96 1423.18 L1297.66 1423.18 L1297.66 582.33 L1193.96 582.33 L1193.96 582.33  Z" fill="#009af9" fill-rule="evenodd" fill-opacity="1"/>
<polyline clip-path="url(#clip162)" style="stroke:#000000; stroke-linecap:round; stroke-linejoin:round; stroke-width:4; stroke-opacity:1; fill:none" points="1193.96,582.33 1193.96,1423.18 1297.66,1423.18 1297.66,582.33 1193.96,582.33 "/>
<path clip-path="url(#clip162)" d="M1297.66 47.2441 L1297.66 1423.18 L1401.37 1423.18 L1401.37 47.2441 L1297.66 47.2441 L1297.66 47.2441  Z" fill="#009af9" fill-rule="evenodd" fill-opacity="1"/>
<polyline clip-path="url(#clip162)" style="stroke:#000000; stroke-linecap:round; stroke-linejoin:round; stroke-width:4; stroke-opacity:1; fill:none" points="1297.66,47.2441 1297.66,1423.18 1401.37,1423.18 1401.37,47.2441 1297.66,47.2441 "/>
<path clip-path="url(#clip162)" d="M1401.37 1117.42 L1401.37 1423.18 L1505.07 1423.18 L1505.07 1117.42 L1401.37 1117.42 L1401.37 1117.42  Z" fill="#009af9" fill-rule="evenodd" fill-opacity="1"/>
<polyline clip-path="url(#clip162)" style="stroke:#000000; stroke-linecap:round; stroke-linejoin:round; stroke-width:4; stroke-opacity:1; fill:none" points="1401.37,1117.42 1401.37,1423.18 1505.07,1423.18 1505.07,1117.42 1401.37,1117.42 "/>
<path clip-path="url(#clip162)" d="M1505.07 1193.86 L1505.07 1423.18 L1608.77 1423.18 L1608.77 1193.86 L1505.07 1193.86 L1505.07 1193.86  Z" fill="#009af9" fill-rule="evenodd" fill-opacity="1"/>
<polyline clip-path="url(#clip162)" style="stroke:#000000; stroke-linecap:round; stroke-linejoin:round; stroke-width:4; stroke-opacity:1; fill:none" points="1505.07,1193.86 1505.07,1423.18 1608.77,1423.18 1608.77,1193.86 1505.07,1193.86 "/>
<path clip-path="url(#clip162)" d="M1608.77 582.33 L1608.77 1423.18 L1712.47 1423.18 L1712.47 582.33 L1608.77 582.33 L1608.77 582.33  Z" fill="#009af9" fill-rule="evenodd" fill-opacity="1"/>
<polyline clip-path="url(#clip162)" style="stroke:#000000; stroke-linecap:round; stroke-linejoin:round; stroke-width:4; stroke-opacity:1; fill:none" points="1608.77,582.33 1608.77,1423.18 1712.47,1423.18 1712.47,582.33 1608.77,582.33 "/>
<path clip-path="url(#clip162)" d="M1712.47 1346.74 L1712.47 1423.18 L1816.18 1423.18 L1816.18 1346.74 L1712.47 1346.74 L1712.47 1346.74  Z" fill="#009af9" fill-rule="evenodd" fill-opacity="1"/>
<polyline clip-path="url(#clip162)" style="stroke:#000000; stroke-linecap:round; stroke-linejoin:round; stroke-width:4; stroke-opacity:1; fill:none" points="1712.47,1346.74 1712.47,1423.18 1816.18,1423.18 1816.18,1346.74 1712.47,1346.74 "/>
<path clip-path="url(#clip162)" d="M1816.18 1117.42 L1816.18 1423.18 L1919.88 1423.18 L1919.88 1117.42 L1816.18 1117.42 L1816.18 1117.42  Z" fill="#009af9" fill-rule="evenodd" fill-opacity="1"/>
<polyline clip-path="url(#clip162)" style="stroke:#000000; stroke-linecap:round; stroke-linejoin:round; stroke-width:4; stroke-opacity:1; fill:none" points="1816.18,1117.42 1816.18,1423.18 1919.88,1423.18 1919.88,1117.42 1816.18,1117.42 "/>
<path clip-path="url(#clip162)" d="M1919.88 1040.98 L1919.88 1423.18 L2023.58 1423.18 L2023.58 1040.98 L1919.88 1040.98 L1919.88 1040.98  Z" fill="#009af9" fill-rule="evenodd" fill-opacity="1"/>
<polyline clip-path="url(#clip162)" style="stroke:#000000; stroke-linecap:round; stroke-linejoin:round; stroke-width:4; stroke-opacity:1; fill:none" points="1919.88,1040.98 1919.88,1423.18 2023.58,1423.18 2023.58,1040.98 1919.88,1040.98 "/>
<path clip-path="url(#clip162)" d="M2023.58 964.535 L2023.58 1423.18 L2127.29 1423.18 L2127.29 964.535 L2023.58 964.535 L2023.58 964.535  Z" fill="#009af9" fill-rule="evenodd" fill-opacity="1"/>
<polyline clip-path="url(#clip162)" style="stroke:#000000; stroke-linecap:round; stroke-linejoin:round; stroke-width:4; stroke-opacity:1; fill:none" points="2023.58,964.535 2023.58,1423.18 2127.29,1423.18 2127.29,964.535 2023.58,964.535 "/>
<path clip-path="url(#clip162)" d="M2127.29 1346.74 L2127.29 1423.18 L2230.99 1423.18 L2230.99 1346.74 L2127.29 1346.74 L2127.29 1346.74  Z" fill="#009af9" fill-rule="evenodd" fill-opacity="1"/>
<polyline clip-path="url(#clip162)" style="stroke:#000000; stroke-linecap:round; stroke-linejoin:round; stroke-width:4; stroke-opacity:1; fill:none" points="2127.29,1346.74 2127.29,1423.18 2230.99,1423.18 2230.99,1346.74 2127.29,1346.74 "/>
<circle clip-path="url(#clip162)" style="fill:#009af9; stroke:none; fill-opacity:0" cx="312.486" cy="1346.74" r="2"/>
<circle clip-path="url(#clip162)" style="fill:#009af9; stroke:none; fill-opacity:0" cx="416.189" cy="1270.3" r="2"/>
<circle clip-path="url(#clip162)" style="fill:#009af9; stroke:none; fill-opacity:0" cx="519.892" cy="1423.18" r="2"/>
<circle clip-path="url(#clip162)" style="fill:#009af9; stroke:none; fill-opacity:0" cx="623.595" cy="1270.3" r="2"/>
<circle clip-path="url(#clip162)" style="fill:#009af9; stroke:none; fill-opacity:0" cx="727.297" cy="964.535" r="2"/>
<circle clip-path="url(#clip162)" style="fill:#009af9; stroke:none; fill-opacity:0" cx="831" cy="888.094" r="2"/>
<circle clip-path="url(#clip162)" style="fill:#009af9; stroke:none; fill-opacity:0" cx="934.703" cy="1040.98" r="2"/>
<circle clip-path="url(#clip162)" style="fill:#009af9; stroke:none; fill-opacity:0" cx="1038.41" cy="888.094" r="2"/>
<circle clip-path="url(#clip162)" style="fill:#009af9; stroke:none; fill-opacity:0" cx="1142.11" cy="964.535" r="2"/>
<circle clip-path="url(#clip162)" style="fill:#009af9; stroke:none; fill-opacity:0" cx="1245.81" cy="582.33" r="2"/>
<circle clip-path="url(#clip162)" style="fill:#009af9; stroke:none; fill-opacity:0" cx="1349.51" cy="47.2441" r="2"/>
<circle clip-path="url(#clip162)" style="fill:#009af9; stroke:none; fill-opacity:0" cx="1453.22" cy="1117.42" r="2"/>
<circle clip-path="url(#clip162)" style="fill:#009af9; stroke:none; fill-opacity:0" cx="1556.92" cy="1193.86" r="2"/>
<circle clip-path="url(#clip162)" style="fill:#009af9; stroke:none; fill-opacity:0" cx="1660.62" cy="582.33" r="2"/>
<circle clip-path="url(#clip162)" style="fill:#009af9; stroke:none; fill-opacity:0" cx="1764.33" cy="1346.74" r="2"/>
<circle clip-path="url(#clip162)" style="fill:#009af9; stroke:none; fill-opacity:0" cx="1868.03" cy="1117.42" r="2"/>
<circle clip-path="url(#clip162)" style="fill:#009af9; stroke:none; fill-opacity:0" cx="1971.73" cy="1040.98" r="2"/>
<circle clip-path="url(#clip162)" style="fill:#009af9; stroke:none; fill-opacity:0" cx="2075.43" cy="964.535" r="2"/>
<circle clip-path="url(#clip162)" style="fill:#009af9; stroke:none; fill-opacity:0" cx="2179.14" cy="1346.74" r="2"/>
</svg>
