<?xml version="1.0" encoding="utf-8"?>
<svg xmlns="http://www.w3.org/2000/svg" xmlns:xlink="http://www.w3.org/1999/xlink" width="600" height="400" viewBox="0 0 2400 1600">
<defs>
  <clipPath id="clip130">
    <rect x="0" y="0" width="2400" height="1600"/>
  </clipPath>
</defs>
<path clip-path="url(#clip130)" d="M0 1600 L2400 1600 L2400 0 L0 0  Z" fill="#ffffff" fill-rule="evenodd" fill-opacity="1"/>
<defs>
  <clipPath id="clip131">
    <rect x="480" y="0" width="1681" height="1600"/>
  </clipPath>
</defs>
<path clip-path="url(#clip130)" d="M110.881 1423.18 L2352.76 1423.18 L2352.76 47.2441 L110.881 47.2441  Z" fill="#ffffff" fill-rule="evenodd" fill-opacity="1"/>
<defs>
  <clipPath id="clip132">
    <rect x="110" y="47" width="2243" height="1377"/>
  </clipPath>
</defs>
<polyline clip-path="url(#clip132)" style="stroke:#000000; stroke-linecap:round; stroke-linejoin:round; stroke-width:2; stroke-opacity:0.1; fill:none" points="433.714,1423.18 433.714,47.2441 "/>
<polyline clip-path="url(#clip132)" style="stroke:#000000; stroke-linecap:round; stroke-linejoin:round; stroke-width:2; stroke-opacity:0.1; fill:none" points="832.766,1423.18 832.766,47.2441 "/>
<polyline clip-path="url(#clip132)" style="stroke:#000000; stroke-linecap:round; stroke-linejoin:round; stroke-width:2; stroke-opacity:0.1; fill:none" points="1231.82,1423.18 1231.82,47.2441 "/>
<polyline clip-path="url(#clip132)" style="stroke:#000000; stroke-linecap:round; stroke-linejoin:round; stroke-width:2; stroke-opacity:0.1; fill:none" points="1630.87,1423.18 1630.87,47.2441 "/>
<polyline clip-path="url(#clip132)" style="stroke:#000000; stroke-linecap:round; stroke-linejoin:round; stroke-width:2; stroke-opacity:0.1; fill:none" points="2029.92,1423.18 2029.92,47.2441 "/>
<polyline clip-path="url(#clip132)" style="stroke:#000000; stroke-linecap:round; stroke-linejoin:round; stroke-width:2; stroke-opacity:0.1; fill:none" points="110.881,1423.18 2352.76,1423.18 "/>
<polyline clip-path="url(#clip132)" style="stroke:#000000; stroke-linecap:round; stroke-linejoin:round; stroke-width:2; stroke-opacity:0.1; fill:none" points="110.881,964.535 2352.76,964.535 "/>
<polyline clip-path="url(#clip132)" style="stroke:#000000; stroke-linecap:round; stroke-linejoin:round; stroke-width:2; stroke-opacity:0.1; fill:none" points="110.881,505.889 2352.76,505.889 "/>
<polyline clip-path="url(#clip132)" style="stroke:#000000; stroke-linecap:round; stroke-linejoin:round; stroke-width:2; stroke-opacity:0.1; fill:none" points="110.881,47.2441 2352.76,47.2441 "/>
<polyline clip-path="url(#clip130)" style="stroke:#000000; stroke-linecap:round; stroke-linejoin:round; stroke-width:4; stroke-opacity:1; fill:none" points="110.881,1423.18 2352.76,1423.18 "/>
<polyline clip-path="url(#clip130)" style="stroke:#000000; stroke-linecap:round; stroke-linejoin:round; stroke-width:4; stroke-opacity:1; fill:none" points="433.714,1423.18 433.714,1404.28 "/>
<polyline clip-path="url(#clip130)" style="stroke:#000000; stroke-linecap:round; stroke-linejoin:round; stroke-width:4; stroke-opacity:1; fill:none" points="832.766,1423.18 832.766,1404.28 "/>
<polyline clip-path="url(#clip130)" style="stroke:#000000; stroke-linecap:round; stroke-linejoin:round; stroke-width:4; stroke-opacity:1; fill:none" points="1231.82,1423.18 1231.82,1404.28 "/>
<polyline clip-path="url(#clip130)" style="stroke:#000000; stroke-linecap:round; stroke-linejoin:round; stroke-width:4; stroke-opacity:1; fill:none" points="1630.87,1423.18 1630.87,1404.28 "/>
<polyline clip-path="url(#clip130)" style="stroke:#000000; stroke-linecap:round; stroke-linejoin:round; stroke-width:4; stroke-opacity:1; fill:none" points="2029.92,1423.18 2029.92,1404.28 "/>
<path clip-path="url(#clip130)" d="M393.321 1481.64 L400.96 1481.64 L400.96 1455.28 L392.649 1456.95 L392.649 1452.69 L400.913 1451.02 L405.589 1451.02 L405.589 1481.64 L413.228 1481.64 L413.228 1485.58 L393.321 1485.58 L393.321 1481.64 Z" fill="#000000" fill-rule="nonzero" fill-opacity="1" /><path clip-path="url(#clip130)" d="M433.251 1466.44 Q430.103 1466.44 428.251 1468.59 Q426.422 1470.74 426.422 1474.49 Q426.422 1478.22 428.251 1480.39 Q430.103 1482.55 433.251 1482.55 Q436.399 1482.55 438.228 1480.39 Q440.08 1478.22 440.08 1474.49 Q440.08 1470.74 438.228 1468.59 Q436.399 1466.44 433.251 1466.44 M442.533 1451.78 L442.533 1456.04 Q440.774 1455.21 438.969 1454.77 Q437.186 1454.33 435.427 1454.33 Q430.797 1454.33 428.344 1457.45 Q425.913 1460.58 425.566 1466.9 Q426.932 1464.89 428.992 1463.82 Q431.052 1462.73 433.529 1462.73 Q438.737 1462.73 441.746 1465.9 Q444.779 1469.05 444.779 1474.49 Q444.779 1479.82 441.631 1483.03 Q438.483 1486.25 433.251 1486.25 Q427.256 1486.25 424.085 1481.67 Q420.913 1477.06 420.913 1468.33 Q420.913 1460.14 424.802 1455.28 Q428.691 1450.39 435.242 1450.39 Q437.001 1450.39 438.783 1450.74 Q440.589 1451.09 442.533 1451.78 Z" fill="#000000" fill-rule="nonzero" fill-opacity="1" /><path clip-path="url(#clip130)" d="M462.834 1454.1 Q459.223 1454.1 457.395 1457.66 Q455.589 1461.2 455.589 1468.33 Q455.589 1475.44 457.395 1479.01 Q459.223 1482.55 462.834 1482.55 Q466.469 1482.55 468.274 1479.01 Q470.103 1475.44 470.103 1468.33 Q470.103 1461.2 468.274 1457.66 Q466.469 1454.1 462.834 1454.1 M462.834 1450.39 Q468.644 1450.39 471.7 1455 Q474.779 1459.58 474.779 1468.33 Q474.779 1477.06 471.7 1481.67 Q468.644 1486.25 462.834 1486.25 Q457.024 1486.25 453.945 1481.67 Q450.89 1477.06 450.89 1468.33 Q450.89 1459.58 453.945 1455 Q457.024 1450.39 462.834 1450.39 Z" fill="#000000" fill-rule="nonzero" fill-opacity="1" /><path clip-path="url(#clip130)" d="M792.373 1481.64 L800.012 1481.64 L800.012 1455.28 L791.702 1456.95 L791.702 1452.69 L799.965 1451.02 L804.641 1451.02 L804.641 1481.64 L812.28 1481.64 L812.28 1485.58 L792.373 1485.58 L792.373 1481.64 Z" fill="#000000" fill-rule="nonzero" fill-opacity="1" /><path clip-path="url(#clip130)" d="M831.725 1469.17 Q828.391 1469.17 826.47 1470.95 Q824.572 1472.73 824.572 1475.86 Q824.572 1478.98 826.47 1480.77 Q828.391 1482.55 831.725 1482.55 Q835.058 1482.55 836.979 1480.77 Q838.9 1478.96 838.9 1475.86 Q838.9 1472.73 836.979 1470.95 Q835.081 1469.17 831.725 1469.17 M827.049 1467.18 Q824.039 1466.44 822.35 1464.38 Q820.683 1462.32 820.683 1459.35 Q820.683 1455.21 823.623 1452.8 Q826.586 1450.39 831.725 1450.39 Q836.887 1450.39 839.826 1452.8 Q842.766 1455.21 842.766 1459.35 Q842.766 1462.32 841.076 1464.38 Q839.41 1466.44 836.424 1467.18 Q839.803 1467.96 841.678 1470.26 Q843.576 1472.55 843.576 1475.86 Q843.576 1480.88 840.498 1483.57 Q837.442 1486.25 831.725 1486.25 Q826.007 1486.25 822.928 1483.57 Q819.873 1480.88 819.873 1475.86 Q819.873 1472.55 821.771 1470.26 Q823.669 1467.96 827.049 1467.18 M825.336 1459.79 Q825.336 1462.48 827.002 1463.98 Q828.692 1465.49 831.725 1465.49 Q834.734 1465.49 836.424 1463.98 Q838.137 1462.48 838.137 1459.79 Q838.137 1457.11 836.424 1455.6 Q834.734 1454.1 831.725 1454.1 Q828.692 1454.1 827.002 1455.6 Q825.336 1457.11 825.336 1459.79 Z" fill="#000000" fill-rule="nonzero" fill-opacity="1" /><path clip-path="url(#clip130)" d="M861.886 1454.1 Q858.275 1454.1 856.447 1457.66 Q854.641 1461.2 854.641 1468.33 Q854.641 1475.44 856.447 1479.01 Q858.275 1482.55 861.886 1482.55 Q865.521 1482.55 867.326 1479.01 Q869.155 1475.44 869.155 1468.33 Q869.155 1461.2 867.326 1457.66 Q865.521 1454.1 861.886 1454.1 M861.886 1450.39 Q867.697 1450.39 870.752 1455 Q873.831 1459.58 873.831 1468.33 Q873.831 1477.06 870.752 1481.67 Q867.697 1486.25 861.886 1486.25 Q856.076 1486.25 852.998 1481.67 Q849.942 1477.06 849.942 1468.33 Q849.942 1459.58 852.998 1455 Q856.076 1450.39 861.886 1450.39 Z" fill="#000000" fill-rule="nonzero" fill-opacity="1" /><path clip-path="url(#clip130)" d="M1195.51 1481.64 L1211.83 1481.64 L1211.83 1485.58 L1189.89 1485.58 L1189.89 1481.64 Q1192.55 1478.89 1197.13 1474.26 Q1201.74 1469.61 1202.92 1468.27 Q1205.16 1465.74 1206.04 1464.01 Q1206.95 1462.25 1206.95 1460.56 Q1206.95 1457.8 1205 1456.07 Q1203.08 1454.33 1199.98 1454.33 Q1197.78 1454.33 1195.33 1455.09 Q1192.89 1455.86 1190.12 1457.41 L1190.12 1452.69 Q1192.94 1451.55 1195.39 1450.97 Q1197.85 1450.39 1199.89 1450.39 Q1205.26 1450.39 1208.45 1453.08 Q1211.64 1455.77 1211.64 1460.26 Q1211.64 1462.39 1210.83 1464.31 Q1210.05 1466.2 1207.94 1468.8 Q1207.36 1469.47 1204.26 1472.69 Q1201.16 1475.88 1195.51 1481.64 Z" fill="#000000" fill-rule="nonzero" fill-opacity="1" /><path clip-path="url(#clip130)" d="M1231.64 1454.1 Q1228.03 1454.1 1226.21 1457.66 Q1224.4 1461.2 1224.4 1468.33 Q1224.4 1475.44 1226.21 1479.01 Q1228.03 1482.55 1231.64 1482.55 Q1235.28 1482.55 1237.08 1479.01 Q1238.91 1475.44 1238.91 1468.33 Q1238.91 1461.2 1237.08 1457.66 Q1235.28 1454.1 1231.64 1454.1 M1231.64 1450.39 Q1237.45 1450.39 1240.51 1455 Q1243.59 1459.58 1243.59 1468.33 Q1243.59 1477.06 1240.51 1481.67 Q1237.45 1486.25 1231.64 1486.25 Q1225.83 1486.25 1222.76 1481.67 Q1219.7 1477.06 1219.7 1468.33 Q1219.7 1459.58 1222.76 1455 Q1225.83 1450.39 1231.64 1450.39 Z" fill="#000000" fill-rule="nonzero" fill-opacity="1" /><path clip-path="url(#clip130)" d="M1261.81 1454.1 Q1258.2 1454.1 1256.37 1457.66 Q1254.56 1461.2 1254.56 1468.33 Q1254.56 1475.44 1256.37 1479.01 Q1258.2 1482.55 1261.81 1482.55 Q1265.44 1482.55 1267.25 1479.01 Q1269.08 1475.44 1269.08 1468.33 Q1269.08 1461.2 1267.25 1457.66 Q1265.44 1454.1 1261.81 1454.1 M1261.81 1450.39 Q1267.62 1450.39 1270.67 1455 Q1273.75 1459.58 1273.75 1468.33 Q1273.75 1477.06 1270.67 1481.67 Q1267.62 1486.25 1261.81 1486.25 Q1256 1486.25 1252.92 1481.67 Q1249.86 1477.06 1249.86 1468.33 Q1249.86 1459.58 1252.92 1455 Q1256 1450.39 1261.81 1450.39 Z" fill="#000000" fill-rule="nonzero" fill-opacity="1" /><path clip-path="url(#clip130)" d="M1594.56 1481.64 L1610.88 1481.64 L1610.88 1485.58 L1588.94 1485.58 L1588.94 1481.64 Q1591.6 1478.89 1596.18 1474.26 Q1600.79 1469.61 1601.97 1468.27 Q1604.22 1465.74 1605.1 1464.01 Q1606 1462.25 1606 1460.56 Q1606 1457.8 1604.05 1456.07 Q1602.13 1454.33 1599.03 1454.33 Q1596.83 1454.33 1594.38 1455.09 Q1591.95 1455.86 1589.17 1457.41 L1589.17 1452.69 Q1591.99 1451.55 1594.45 1450.97 Q1596.9 1450.39 1598.94 1450.39 Q1604.31 1450.39 1607.5 1453.08 Q1610.7 1455.77 1610.7 1460.26 Q1610.7 1462.39 1609.89 1464.31 Q1609.1 1466.2 1606.99 1468.8 Q1606.41 1469.47 1603.31 1472.69 Q1600.21 1475.88 1594.56 1481.64 Z" fill="#000000" fill-rule="nonzero" fill-opacity="1" /><path clip-path="url(#clip130)" d="M1624.72 1481.64 L1641.04 1481.64 L1641.04 1485.58 L1619.1 1485.58 L1619.1 1481.64 Q1621.76 1478.89 1626.35 1474.26 Q1630.95 1469.61 1632.13 1468.27 Q1634.38 1465.74 1635.26 1464.01 Q1636.16 1462.25 1636.16 1460.56 Q1636.16 1457.8 1634.22 1456.07 Q1632.29 1454.33 1629.19 1454.33 Q1626.99 1454.33 1624.54 1455.09 Q1622.11 1455.86 1619.33 1457.41 L1619.33 1452.69 Q1622.16 1451.55 1624.61 1450.97 Q1627.06 1450.39 1629.1 1450.39 Q1634.47 1450.39 1637.66 1453.08 Q1640.86 1455.77 1640.86 1460.26 Q1640.86 1462.39 1640.05 1464.31 Q1639.26 1466.2 1637.16 1468.8 Q1636.58 1469.47 1633.47 1472.69 Q1630.37 1475.88 1624.72 1481.64 Z" fill="#000000" fill-rule="nonzero" fill-opacity="1" /><path clip-path="url(#clip130)" d="M1660.86 1454.1 Q1657.25 1454.1 1655.42 1457.66 Q1653.61 1461.2 1653.61 1468.33 Q1653.61 1475.44 1655.42 1479.01 Q1657.25 1482.55 1660.86 1482.55 Q1664.49 1482.55 1666.3 1479.01 Q1668.13 1475.44 1668.13 1468.33 Q1668.13 1461.2 1666.3 1457.66 Q1664.49 1454.1 1660.86 1454.1 M1660.86 1450.39 Q1666.67 1450.39 1669.72 1455 Q1672.8 1459.58 1672.8 1468.33 Q1672.8 1477.06 1669.72 1481.67 Q1666.67 1486.25 1660.86 1486.25 Q1655.05 1486.25 1651.97 1481.67 Q1648.91 1477.06 1648.91 1468.33 Q1648.91 1459.58 1651.97 1455 Q1655.05 1450.39 1660.86 1450.39 Z" fill="#000000" fill-rule="nonzero" fill-opacity="1" /><path clip-path="url(#clip130)" d="M1993.62 1481.64 L2009.93 1481.64 L2009.93 1485.58 L1987.99 1485.58 L1987.99 1481.64 Q1990.65 1478.89 1995.24 1474.26 Q1999.84 1469.61 2001.02 1468.27 Q2003.27 1465.74 2004.15 1464.01 Q2005.05 1462.25 2005.05 1460.56 Q2005.05 1457.8 2003.11 1456.07 Q2001.18 1454.33 1998.08 1454.33 Q1995.88 1454.33 1993.43 1455.09 Q1991 1455.86 1988.22 1457.41 L1988.22 1452.69 Q1991.05 1451.55 1993.5 1450.97 Q1995.95 1450.39 1997.99 1450.39 Q2003.36 1450.39 2006.55 1453.08 Q2009.75 1455.77 2009.75 1460.26 Q2009.75 1462.39 2008.94 1464.31 Q2008.15 1466.2 2006.05 1468.8 Q2005.47 1469.47 2002.36 1472.69 Q1999.26 1475.88 1993.62 1481.64 Z" fill="#000000" fill-rule="nonzero" fill-opacity="1" /><path clip-path="url(#clip130)" d="M2032.6 1455.09 L2020.79 1473.54 L2032.6 1473.54 L2032.6 1455.09 M2031.37 1451.02 L2037.25 1451.02 L2037.25 1473.54 L2042.18 1473.54 L2042.18 1477.43 L2037.25 1477.43 L2037.25 1485.58 L2032.6 1485.58 L2032.6 1477.43 L2016.99 1477.43 L2016.99 1472.92 L2031.37 1451.02 Z" fill="#000000" fill-rule="nonzero" fill-opacity="1" /><path clip-path="url(#clip130)" d="M2059.91 1454.1 Q2056.3 1454.1 2054.47 1457.66 Q2052.67 1461.2 2052.67 1468.33 Q2052.67 1475.44 2054.47 1479.01 Q2056.3 1482.55 2059.91 1482.55 Q2063.55 1482.55 2065.35 1479.01 Q2067.18 1475.44 2067.18 1468.33 Q2067.18 1461.2 2065.35 1457.66 Q2063.55 1454.1 2059.91 1454.1 M2059.91 1450.39 Q2065.72 1450.39 2068.78 1455 Q2071.86 1459.58 2071.86 1468.33 Q2071.86 1477.06 2068.78 1481.67 Q2065.72 1486.25 2059.91 1486.25 Q2054.1 1486.25 2051.02 1481.67 Q2047.97 1477.06 2047.97 1468.33 Q2047.97 1459.58 2051.02 1455 Q2054.1 1450.39 2059.91 1450.39 Z" fill="#000000" fill-rule="nonzero" fill-opacity="1" /><path clip-path="url(#clip130)" d="M1106.19 1525.81 L1106.19 1562.76 L1113.96 1562.76 Q1123.79 1562.76 1128.34 1558.3 Q1132.93 1553.85 1132.93 1544.24 Q1132.93 1534.69 1128.34 1530.26 Q1123.79 1525.81 1113.96 1525.81 L1106.19 1525.81 M1099.76 1520.52 L1112.97 1520.52 Q1126.78 1520.52 1133.25 1526.28 Q1139.71 1532.01 1139.71 1544.24 Q1139.71 1556.52 1133.21 1562.28 Q1126.72 1568.04 1112.97 1568.04 L1099.76 1568.04 L1099.76 1520.52 Z" fill="#000000" fill-rule="nonzero" fill-opacity="1" /><path clip-path="url(#clip130)" d="M1180.19 1548.76 L1180.19 1551.62 L1153.27 1551.62 Q1153.65 1557.67 1156.89 1560.85 Q1160.17 1564 1166 1564 Q1169.37 1564 1172.52 1563.17 Q1175.7 1562.35 1178.82 1560.69 L1178.82 1566.23 Q1175.67 1567.57 1172.36 1568.27 Q1169.05 1568.97 1165.65 1568.97 Q1157.12 1568.97 1152.12 1564 Q1147.15 1559.04 1147.15 1550.57 Q1147.15 1541.82 1151.87 1536.69 Q1156.61 1531.54 1164.63 1531.54 Q1171.82 1531.54 1175.99 1536.18 Q1180.19 1540.8 1180.19 1548.76 M1174.34 1547.04 Q1174.27 1542.23 1171.63 1539.37 Q1169.02 1536.5 1164.69 1536.5 Q1159.79 1536.5 1156.83 1539.27 Q1153.9 1542.04 1153.46 1547.07 L1174.34 1547.04 Z" fill="#000000" fill-rule="nonzero" fill-opacity="1" /><path clip-path="url(#clip130)" d="M1217.56 1539.24 Q1219.76 1535.29 1222.81 1533.41 Q1225.87 1531.54 1230 1531.54 Q1235.57 1531.54 1238.6 1535.45 Q1241.62 1539.33 1241.62 1546.53 L1241.62 1568.04 L1235.73 1568.04 L1235.73 1546.72 Q1235.73 1541.59 1233.92 1539.11 Q1232.1 1536.63 1228.38 1536.63 Q1223.83 1536.63 1221.19 1539.65 Q1218.55 1542.68 1218.55 1547.9 L1218.55 1568.04 L1212.66 1568.04 L1212.66 1546.72 Q1212.66 1541.56 1210.84 1539.11 Q1209.03 1536.63 1205.24 1536.63 Q1200.75 1536.63 1198.11 1539.68 Q1195.47 1542.71 1195.47 1547.9 L1195.47 1568.04 L1189.58 1568.04 L1189.58 1532.4 L1195.47 1532.4 L1195.47 1537.93 Q1197.48 1534.66 1200.28 1533.1 Q1203.08 1531.54 1206.93 1531.54 Q1210.81 1531.54 1213.52 1533.51 Q1216.25 1535.48 1217.56 1539.24 Z" fill="#000000" fill-rule="nonzero" fill-opacity="1" /><path clip-path="url(#clip130)" d="M1269.5 1550.12 Q1262.41 1550.12 1259.67 1551.75 Q1256.93 1553.37 1256.93 1557.29 Q1256.93 1560.4 1258.97 1562.25 Q1261.04 1564.07 1264.57 1564.07 Q1269.44 1564.07 1272.37 1560.63 Q1275.33 1557.16 1275.33 1551.43 L1275.33 1550.12 L1269.5 1550.12 M1281.18 1547.71 L1281.18 1568.04 L1275.33 1568.04 L1275.33 1562.63 Q1273.32 1565.88 1270.33 1567.44 Q1267.34 1568.97 1263.01 1568.97 Q1257.54 1568.97 1254.29 1565.91 Q1251.07 1562.82 1251.07 1557.67 Q1251.07 1551.65 1255.09 1548.6 Q1259.13 1545.54 1267.12 1545.54 L1275.33 1545.54 L1275.33 1544.97 Q1275.33 1540.93 1272.65 1538.73 Q1270.01 1536.5 1265.21 1536.5 Q1262.15 1536.5 1259.25 1537.23 Q1256.36 1537.97 1253.68 1539.43 L1253.68 1534.02 Q1256.9 1532.78 1259.92 1532.17 Q1262.95 1531.54 1265.81 1531.54 Q1273.55 1531.54 1277.37 1535.55 Q1281.18 1539.56 1281.18 1547.71 Z" fill="#000000" fill-rule="nonzero" fill-opacity="1" /><path clip-path="url(#clip130)" d="M1322.88 1546.53 L1322.88 1568.04 L1317.02 1568.04 L1317.02 1546.72 Q1317.02 1541.66 1315.05 1539.14 Q1313.08 1536.63 1309.13 1536.63 Q1304.39 1536.63 1301.65 1539.65 Q1298.91 1542.68 1298.91 1547.9 L1298.91 1568.04 L1293.02 1568.04 L1293.02 1532.4 L1298.91 1532.4 L1298.91 1537.93 Q1301.01 1534.72 1303.85 1533.13 Q1306.71 1531.54 1310.43 1531.54 Q1316.58 1531.54 1319.73 1535.36 Q1322.88 1539.14 1322.88 1546.53 Z" fill="#000000" fill-rule="nonzero" fill-opacity="1" /><path clip-path="url(#clip130)" d="M1358.02 1537.81 L1358.02 1518.52 L1363.87 1518.52 L1363.87 1568.04 L1358.02 1568.04 L1358.02 1562.7 Q1356.17 1565.88 1353.34 1567.44 Q1350.54 1568.97 1346.59 1568.97 Q1340.13 1568.97 1336.06 1563.81 Q1332.01 1558.65 1332.01 1550.25 Q1332.01 1541.85 1336.06 1536.69 Q1340.13 1531.54 1346.59 1531.54 Q1350.54 1531.54 1353.34 1533.1 Q1356.17 1534.62 1358.02 1537.81 M1338.06 1550.25 Q1338.06 1556.71 1340.7 1560.4 Q1343.38 1564.07 1348.02 1564.07 Q1352.67 1564.07 1355.34 1560.4 Q1358.02 1556.71 1358.02 1550.25 Q1358.02 1543.79 1355.34 1540.13 Q1352.67 1536.44 1348.02 1536.44 Q1343.38 1536.44 1340.7 1540.13 Q1338.06 1543.79 1338.06 1550.25 Z" fill="#000000" fill-rule="nonzero" fill-opacity="1" /><polyline clip-path="url(#clip130)" style="stroke:#000000; stroke-linecap:round; stroke-linejoin:round; stroke-width:4; stroke-opacity:1; fill:none" points="110.881,1423.18 110.881,47.2441 "/>
<polyline clip-path="url(#clip130)" style="stroke:#000000; stroke-linecap:round; stroke-linejoin:round; stroke-width:4; stroke-opacity:1; fill:none" points="110.881,1423.18 129.779,1423.18 "/>
<polyline clip-path="url(#clip130)" style="stroke:#000000; stroke-linecap:round; stroke-linejoin:round; stroke-width:4; stroke-opacity:1; fill:none" points="110.881,964.535 129.779,964.535 "/>
<polyline clip-path="url(#clip130)" style="stroke:#000000; stroke-linecap:round; stroke-linejoin:round; stroke-width:4; stroke-opacity:1; fill:none" points="110.881,505.889 129.779,505.889 "/>
<polyline clip-path="url(#clip130)" style="stroke:#000000; stroke-linecap:round; stroke-linejoin:round; stroke-width:4; stroke-opacity:1; fill:none" points="110.881,47.2441 129.779,47.2441 "/>
<path clip-path="url(#clip130)" d="M62.9365 1408.98 Q59.3254 1408.98 57.4967 1412.54 Q55.6912 1416.08 55.6912 1423.21 Q55.6912 1430.32 57.4967 1433.89 Q59.3254 1437.43 62.9365 1437.43 Q66.5707 1437.43 68.3763 1433.89 Q70.205 1430.32 70.205 1423.21 Q70.205 1416.08 68.3763 1412.54 Q66.5707 1408.98 62.9365 1408.98 M62.9365 1405.27 Q68.7467 1405.27 71.8022 1409.88 Q74.8809 1414.46 74.8809 1423.21 Q74.8809 1431.94 71.8022 1436.55 Q68.7467 1441.13 62.9365 1441.13 Q57.1264 1441.13 54.0477 1436.55 Q50.9921 1431.94 50.9921 1423.21 Q50.9921 1414.46 54.0477 1409.88 Q57.1264 1405.27 62.9365 1405.27 Z" fill="#000000" fill-rule="nonzero" fill-opacity="1" /><path clip-path="url(#clip130)" d="M67.7513 963.18 Q71.1078 963.898 72.9827 966.167 Q74.8809 968.435 74.8809 971.768 Q74.8809 976.884 71.3624 979.685 Q67.8439 982.486 61.3624 982.486 Q59.1865 982.486 56.8717 982.046 Q54.5801 981.629 52.1264 980.773 L52.1264 976.259 Q54.0708 977.393 56.3856 977.972 Q58.7004 978.551 61.2236 978.551 Q65.6217 978.551 67.9133 976.815 Q70.2281 975.079 70.2281 971.768 Q70.2281 968.713 68.0754 967 Q65.9457 965.264 62.1263 965.264 L58.0986 965.264 L58.0986 961.421 L62.3115 961.421 Q65.7606 961.421 67.5893 960.055 Q69.418 958.667 69.418 956.074 Q69.418 953.412 67.5198 952 Q65.6448 950.565 62.1263 950.565 Q60.205 950.565 58.006 950.981 Q55.8069 951.398 53.168 952.278 L53.168 948.111 Q55.8301 947.37 58.1449 947 Q60.4828 946.63 62.543 946.63 Q67.867 946.63 70.9689 949.06 Q74.0707 951.468 74.0707 955.588 Q74.0707 958.458 72.4272 960.449 Q70.7837 962.417 67.7513 963.18 Z" fill="#000000" fill-rule="nonzero" fill-opacity="1" /><path clip-path="url(#clip130)" d="M63.3532 504.026 Q60.205 504.026 58.3532 506.179 Q56.5245 508.331 56.5245 512.081 Q56.5245 515.808 58.3532 517.984 Q60.205 520.137 63.3532 520.137 Q66.5013 520.137 68.33 517.984 Q70.1818 515.808 70.1818 512.081 Q70.1818 508.331 68.33 506.179 Q66.5013 504.026 63.3532 504.026 M72.6355 489.373 L72.6355 493.632 Q70.8763 492.799 69.0707 492.359 Q67.2883 491.92 65.5291 491.92 Q60.8995 491.92 58.4458 495.044 Q56.0152 498.169 55.668 504.489 Q57.0338 502.475 59.0939 501.41 Q61.1541 500.322 63.6309 500.322 Q68.8393 500.322 71.8485 503.494 Q74.8809 506.642 74.8809 512.081 Q74.8809 517.405 71.7328 520.623 Q68.5846 523.841 63.3532 523.841 Q57.3578 523.841 54.1866 519.257 Q51.0153 514.651 51.0153 505.924 Q51.0153 497.73 54.9041 492.869 Q58.793 487.984 65.3439 487.984 Q67.1032 487.984 68.8855 488.332 Q70.6911 488.679 72.6355 489.373 Z" fill="#000000" fill-rule="nonzero" fill-opacity="1" /><path clip-path="url(#clip130)" d="M53.2606 63.8065 L53.2606 59.5473 Q55.0199 60.3806 56.8254 60.8204 Q58.631 61.2602 60.3671 61.2602 Q64.9967 61.2602 67.4272 58.1584 Q69.8809 55.0334 70.2281 48.6908 Q68.8855 50.6816 66.8254 51.7464 Q64.7652 52.8112 62.2652 52.8112 Q57.0801 52.8112 54.0477 49.6862 Q51.0384 46.5381 51.0384 41.0983 Q51.0384 35.7742 54.1866 32.5567 Q57.3347 29.3391 62.5661 29.3391 Q68.5615 29.3391 71.7096 33.9456 Q74.8809 38.5289 74.8809 47.2788 Q74.8809 55.4501 70.992 60.3343 Q67.1263 65.1954 60.5754 65.1954 Q58.8162 65.1954 57.0106 64.8482 Q55.2051 64.5009 53.2606 63.8065 M62.5661 49.1538 Q65.7143 49.1538 67.543 47.001 Q69.3948 44.8483 69.3948 41.0983 Q69.3948 37.3715 67.543 35.2187 Q65.7143 33.0428 62.5661 33.0428 Q59.418 33.0428 57.5662 35.2187 Q55.7375 37.3715 55.7375 41.0983 Q55.7375 44.8483 57.5662 47.001 Q59.418 49.1538 62.5661 49.1538 Z" fill="#000000" fill-rule="nonzero" fill-opacity="1" /><path clip-path="url(#clip132)" d="M234.188 1270.3 L234.188 1423.18 L333.951 1423.18 L333.951 1270.3 L234.188 1270.3 L234.188 1270.3  Z" fill="#009af9" fill-rule="evenodd" fill-opacity="1"/>
<polyline clip-path="url(#clip132)" style="stroke:#000000; stroke-linecap:round; stroke-linejoin:round; stroke-width:4; stroke-opacity:1; fill:none" points="234.188,1270.3 234.188,1423.18 333.951,1423.18 333.951,1270.3 234.188,1270.3 "/>
<path clip-path="url(#clip132)" d="M333.951 1270.3 L333.951 1423.18 L433.714 1423.18 L433.714 1270.3 L333.951 1270.3 L333.951 1270.3  Z" fill="#009af9" fill-rule="evenodd" fill-opacity="1"/>
<polyline clip-path="url(#clip132)" style="stroke:#000000; stroke-linecap:round; stroke-linejoin:round; stroke-width:4; stroke-opacity:1; fill:none" points="333.951,1270.3 333.951,1423.18 433.714,1423.18 433.714,1270.3 333.951,1270.3 "/>
<path clip-path="url(#clip132)" d="M433.714 658.771 L433.714 1423.18 L533.477 1423.18 L533.477 658.771 L433.714 658.771 L433.714 658.771  Z" fill="#009af9" fill-rule="evenodd" fill-opacity="1"/>
<polyline clip-path="url(#clip132)" style="stroke:#000000; stroke-linecap:round; stroke-linejoin:round; stroke-width:4; stroke-opacity:1; fill:none" points="433.714,658.771 433.714,1423.18 533.477,1423.18 533.477,658.771 433.714,658.771 "/>
<path clip-path="url(#clip132)" d="M533.477 47.2441 L533.477 1423.18 L633.24 1423.18 L633.24 47.2441 L533.477 47.2441 L533.477 47.2441  Z" fill="#009af9" fill-rule="evenodd" fill-opacity="1"/>
<polyline clip-path="url(#clip132)" style="stroke:#000000; stroke-linecap:round; stroke-linejoin:round; stroke-width:4; stroke-opacity:1; fill:none" points="533.477,47.2441 533.477,1423.18 633.24,1423.18 633.24,47.2441 533.477,47.2441 "/>
<path clip-path="url(#clip132)" d="M633.24 658.771 L633.24 1423.18 L733.003 1423.18 L733.003 658.771 L633.24 658.771 L633.24 658.771  Z" fill="#009af9" fill-rule="evenodd" fill-opacity="1"/>
<polyline clip-path="url(#clip132)" style="stroke:#000000; stroke-linecap:round; stroke-linejoin:round; stroke-width:4; stroke-opacity:1; fill:none" points="633.24,658.771 633.24,1423.18 733.003,1423.18 733.003,658.771 633.24,658.771 "/>
<path clip-path="url(#clip132)" d="M733.003 658.771 L733.003 1423.18 L832.766 1423.18 L832.766 658.771 L733.003 658.771 L733.003 658.771  Z" fill="#009af9" fill-rule="evenodd" fill-opacity="1"/>
<polyline clip-path="url(#clip132)" style="stroke:#000000; stroke-linecap:round; stroke-linejoin:round; stroke-width:4; stroke-opacity:1; fill:none" points="733.003,658.771 733.003,1423.18 832.766,1423.18 832.766,658.771 733.003,658.771 "/>
<path clip-path="url(#clip132)" d="M832.766 353.008 L832.766 1423.18 L932.529 1423.18 L932.529 353.008 L832.766 353.008 L832.766 353.008  Z" fill="#009af9" fill-rule="evenodd" fill-opacity="1"/>
<polyline clip-path="url(#clip132)" style="stroke:#000000; stroke-linecap:round; stroke-linejoin:round; stroke-width:4; stroke-opacity:1; fill:none" points="832.766,353.008 832.766,1423.18 932.529,1423.18 932.529,353.008 832.766,353.008 "/>
<path clip-path="url(#clip132)" d="M932.529 505.889 L932.529 1423.18 L1032.29 1423.18 L1032.29 505.889 L932.529 505.889 L932.529 505.889  Z" fill="#009af9" fill-rule="evenodd" fill-opacity="1"/>
<polyline clip-path="url(#clip132)" style="stroke:#000000; stroke-linecap:round; stroke-linejoin:round; stroke-width:4; stroke-opacity:1; fill:none" points="932.529,505.889 932.529,1423.18 1032.29,1423.18 1032.29,505.889 932.529,505.889 "/>
<path clip-path="url(#clip132)" d="M1032.29 353.008 L1032.29 1423.18 L1132.06 1423.18 L1132.06 353.008 L1032.29 353.008 L1032.29 353.008  Z" fill="#009af9" fill-rule="evenodd" fill-opacity="1"/>
<polyline clip-path="url(#clip132)" style="stroke:#000000; stroke-linecap:round; stroke-linejoin:round; stroke-width:4; stroke-opacity:1; fill:none" points="1032.29,353.008 1032.29,1423.18 1132.06,1423.18 1132.06,353.008 1032.29,353.008 "/>
<path clip-path="url(#clip132)" d="M1132.06 200.126 L1132.06 1423.18 L1231.82 1423.18 L1231.82 200.126 L1132.06 200.126 L1132.06 200.126  Z" fill="#009af9" fill-rule="evenodd" fill-opacity="1"/>
<polyline clip-path="url(#clip132)" style="stroke:#000000; stroke-linecap:round; stroke-linejoin:round; stroke-width:4; stroke-opacity:1; fill:none" points="1132.06,200.126 1132.06,1423.18 1231.82,1423.18 1231.82,200.126 1132.06,200.126 "/>
<path clip-path="url(#clip132)" d="M1231.82 353.008 L1231.82 1423.18 L1331.58 1423.18 L1331.58 353.008 L1231.82 353.008 L1231.82 353.008  Z" fill="#009af9" fill-rule="evenodd" fill-opacity="1"/>
<polyline clip-path="url(#clip132)" style="stroke:#000000; stroke-linecap:round; stroke-linejoin:round; stroke-width:4; stroke-opacity:1; fill:none" points="1231.82,353.008 1231.82,1423.18 1331.58,1423.18 1331.58,353.008 1231.82,353.008 "/>
<path clip-path="url(#clip132)" d="M1331.58 200.126 L1331.58 1423.18 L1431.34 1423.18 L1431.34 200.126 L1331.58 200.126 L1331.58 200.126  Z" fill="#009af9" fill-rule="evenodd" fill-opacity="1"/>
<polyline clip-path="url(#clip132)" style="stroke:#000000; stroke-linecap:round; stroke-linejoin:round; stroke-width:4; stroke-opacity:1; fill:none" points="1331.58,200.126 1331.58,1423.18 1431.34,1423.18 1431.34,200.126 1331.58,200.126 "/>
<path clip-path="url(#clip132)" d="M1431.34 47.2441 L1431.34 1423.18 L1531.11 1423.18 L1531.11 47.2441 L1431.34 47.2441 L1431.34 47.2441  Z" fill="#009af9" fill-rule="evenodd" fill-opacity="1"/>
<polyline clip-path="url(#clip132)" style="stroke:#000000; stroke-linecap:round; stroke-linejoin:round; stroke-width:4; stroke-opacity:1; fill:none" points="1431.34,47.2441 1431.34,1423.18 1531.11,1423.18 1531.11,47.2441 1431.34,47.2441 "/>
<path clip-path="url(#clip132)" d="M1531.11 353.008 L1531.11 1423.18 L1630.87 1423.18 L1630.87 353.008 L1531.11 353.008 L1531.11 353.008  Z" fill="#009af9" fill-rule="evenodd" fill-opacity="1"/>
<polyline clip-path="url(#clip132)" style="stroke:#000000; stroke-linecap:round; stroke-linejoin:round; stroke-width:4; stroke-opacity:1; fill:none" points="1531.11,353.008 1531.11,1423.18 1630.87,1423.18 1630.87,353.008 1531.11,353.008 "/>
<path clip-path="url(#clip132)" d="M1630.87 505.889 L1630.87 1423.18 L1730.63 1423.18 L1730.63 505.889 L1630.87 505.889 L1630.87 505.889  Z" fill="#009af9" fill-rule="evenodd" fill-opacity="1"/>
<polyline clip-path="url(#clip132)" style="stroke:#000000; stroke-linecap:round; stroke-linejoin:round; stroke-width:4; stroke-opacity:1; fill:none" points="1630.87,505.889 1630.87,1423.18 1730.63,1423.18 1730.63,505.889 1630.87,505.889 "/>
<path clip-path="url(#clip132)" d="M1730.63 658.771 L1730.63 1423.18 L1830.4 1423.18 L1830.4 658.771 L1730.63 658.771 L1730.63 658.771  Z" fill="#009af9" fill-rule="evenodd" fill-opacity="1"/>
<polyline clip-path="url(#clip132)" style="stroke:#000000; stroke-linecap:round; stroke-linejoin:round; stroke-width:4; stroke-opacity:1; fill:none" points="1730.63,658.771 1730.63,1423.18 1830.4,1423.18 1830.4,658.771 1730.63,658.771 "/>
<path clip-path="url(#clip132)" d="M1830.4 964.535 L1830.4 1423.18 L1930.16 1423.18 L1930.16 964.535 L1830.4 964.535 L1830.4 964.535  Z" fill="#009af9" fill-rule="evenodd" fill-opacity="1"/>
<polyline clip-path="url(#clip132)" style="stroke:#000000; stroke-linecap:round; stroke-linejoin:round; stroke-width:4; stroke-opacity:1; fill:none" points="1830.4,964.535 1830.4,1423.18 1930.16,1423.18 1930.16,964.535 1830.4,964.535 "/>
<path clip-path="url(#clip132)" d="M1930.16 1423.18 L1930.16 1423.18 L2029.92 1423.18 L2029.92 1423.18 L1930.16 1423.18 L1930.16 1423.18  Z" fill="#009af9" fill-rule="evenodd" fill-opacity="1"/>
<polyline clip-path="url(#clip132)" style="stroke:#000000; stroke-linecap:round; stroke-linejoin:round; stroke-width:4; stroke-opacity:1; fill:none" points="1930.16,1423.18 1930.16,1423.18 2029.92,1423.18 1930.16,1423.18 "/>
<path clip-path="url(#clip132)" d="M2029.92 1423.18 L2029.92 1423.18 L2129.69 1423.18 L2129.69 1423.18 L2029.92 1423.18 L2029.92 1423.18  Z" fill="#009af9" fill-rule="evenodd" fill-opacity="1"/>
<polyline clip-path="url(#clip132)" style="stroke:#000000; stroke-linecap:round; stroke-linejoin:round; stroke-width:4; stroke-opacity:1; fill:none" points="2029.92,1423.18 2029.92,1423.18 2129.69,1423.18 2029.92,1423.18 "/>
<path clip-path="url(#clip132)" d="M2129.69 1270.3 L2129.69 1423.18 L2229.45 1423.18 L2229.45 1270.3 L2129.69 1270.3 L2129.69 1270.3  Z" fill="#009af9" fill-rule="evenodd" fill-opacity="1"/>
<polyline clip-path="url(#clip132)" style="stroke:#000000; stroke-linecap:round; stroke-linejoin:round; stroke-width:4; stroke-opacity:1; fill:none" points="2129.69,1270.3 2129.69,1423.18 2229.45,1423.18 2229.45,1270.3 2129.69,1270.3 "/>
<circle clip-path="url(#clip132)" style="fill:#009af9; stroke:none; fill-opacity:0" cx="284.07" cy="1270.3" r="2"/>
<circle clip-path="url(#clip132)" style="fill:#009af9; stroke:none; fill-opacity:0" cx="383.833" cy="1270.3" r="2"/>
<circle clip-path="url(#clip132)" style="fill:#009af9; stroke:none; fill-opacity:0" cx="483.596" cy="658.771" r="2"/>
<circle clip-path="url(#clip132)" style="fill:#009af9; stroke:none; fill-opacity:0" cx="583.359" cy="47.2441" r="2"/>
<circle clip-path="url(#clip132)" style="fill:#009af9; stroke:none; fill-opacity:0" cx="683.122" cy="658.771" r="2"/>
<circle clip-path="url(#clip132)" style="fill:#009af9; stroke:none; fill-opacity:0" cx="782.885" cy="658.771" r="2"/>
<circle clip-path="url(#clip132)" style="fill:#009af9; stroke:none; fill-opacity:0" cx="882.648" cy="353.008" r="2"/>
<circle clip-path="url(#clip132)" style="fill:#009af9; stroke:none; fill-opacity:0" cx="982.411" cy="505.889" r="2"/>
<circle clip-path="url(#clip132)" style="fill:#009af9; stroke:none; fill-opacity:0" cx="1082.17" cy="353.008" r="2"/>
<circle clip-path="url(#clip132)" style="fill:#009af9; stroke:none; fill-opacity:0" cx="1181.94" cy="200.126" r="2"/>
<circle clip-path="url(#clip132)" style="fill:#009af9; stroke:none; fill-opacity:0" cx="1281.7" cy="353.008" r="2"/>
<circle clip-path="url(#clip132)" style="fill:#009af9; stroke:none; fill-opacity:0" cx="1381.46" cy="200.126" r="2"/>
<circle clip-path="url(#clip132)" style="fill:#009af9; stroke:none; fill-opacity:0" cx="1481.23" cy="47.2441" r="2"/>
<circle clip-path="url(#clip132)" style="fill:#009af9; stroke:none; fill-opacity:0" cx="1580.99" cy="353.008" r="2"/>
<circle clip-path="url(#clip132)" style="fill:#009af9; stroke:none; fill-opacity:0" cx="1680.75" cy="505.889" r="2"/>
<circle clip-path="url(#clip132)" style="fill:#009af9; stroke:none; fill-opacity:0" cx="1780.52" cy="658.771" r="2"/>
<circle clip-path="url(#clip132)" style="fill:#009af9; stroke:none; fill-opacity:0" cx="1880.28" cy="964.535" r="2"/>
<circle clip-path="url(#clip132)" style="fill:#009af9; stroke:none; fill-opacity:0" cx="1980.04" cy="1423.18" r="2"/>
<circle clip-path="url(#clip132)" style="fill:#009af9; stroke:none; fill-opacity:0" cx="2079.8" cy="1423.18" r="2"/>
<circle clip-path="url(#clip132)" style="fill:#009af9; stroke:none; fill-opacity:0" cx="2179.57" cy="1270.3" r="2"/>
</svg>
