<?xml version="1.0" encoding="utf-8"?>
<svg xmlns="http://www.w3.org/2000/svg" xmlns:xlink="http://www.w3.org/1999/xlink" width="600" height="400" viewBox="0 0 2400 1600">
<defs>
  <clipPath id="clip370">
    <rect x="0" y="0" width="2400" height="1600"/>
  </clipPath>
</defs>
<path clip-path="url(#clip370)" d="M0 1600 L2400 1600 L2400 0 L0 0  Z" fill="#ffffff" fill-rule="evenodd" fill-opacity="1"/>
<defs>
  <clipPath id="clip371">
    <rect x="480" y="0" width="1681" height="1600"/>
  </clipPath>
</defs>
<path clip-path="url(#clip370)" d="M219.38 1423.18 L2112.76 1423.18 L2112.76 47.2441 L219.38 47.2441  Z" fill="#ffffff" fill-rule="evenodd" fill-opacity="1"/>
<defs>
  <clipPath id="clip372">
    <rect x="219" y="47" width="1894" height="1377"/>
  </clipPath>
</defs>
<polyline clip-path="url(#clip372)" style="stroke:#000000; stroke-linecap:round; stroke-linejoin:round; stroke-width:2; stroke-opacity:0.1; fill:none" points="219.38,1423.18 219.38,47.2441 "/>
<polyline clip-path="url(#clip372)" style="stroke:#000000; stroke-linecap:round; stroke-linejoin:round; stroke-width:2; stroke-opacity:0.1; fill:none" points="850.505,1423.18 850.505,47.2441 "/>
<polyline clip-path="url(#clip372)" style="stroke:#000000; stroke-linecap:round; stroke-linejoin:round; stroke-width:2; stroke-opacity:0.1; fill:none" points="1481.63,1423.18 1481.63,47.2441 "/>
<polyline clip-path="url(#clip372)" style="stroke:#000000; stroke-linecap:round; stroke-linejoin:round; stroke-width:2; stroke-opacity:0.1; fill:none" points="2112.76,1423.18 2112.76,47.2441 "/>
<polyline clip-path="url(#clip370)" style="stroke:#000000; stroke-linecap:round; stroke-linejoin:round; stroke-width:4; stroke-opacity:1; fill:none" points="219.38,1423.18 2112.76,1423.18 "/>
<polyline clip-path="url(#clip370)" style="stroke:#000000; stroke-linecap:round; stroke-linejoin:round; stroke-width:4; stroke-opacity:1; fill:none" points="219.38,1423.18 219.38,1404.28 "/>
<polyline clip-path="url(#clip370)" style="stroke:#000000; stroke-linecap:round; stroke-linejoin:round; stroke-width:4; stroke-opacity:1; fill:none" points="850.505,1423.18 850.505,1404.28 "/>
<polyline clip-path="url(#clip370)" style="stroke:#000000; stroke-linecap:round; stroke-linejoin:round; stroke-width:4; stroke-opacity:1; fill:none" points="1481.63,1423.18 1481.63,1404.28 "/>
<polyline clip-path="url(#clip370)" style="stroke:#000000; stroke-linecap:round; stroke-linejoin:round; stroke-width:4; stroke-opacity:1; fill:none" points="2112.76,1423.18 2112.76,1404.28 "/>
<path clip-path="url(#clip370)" d="M196.765 1454.1 Q193.153 1454.1 191.325 1457.66 Q189.519 1461.2 189.519 1468.33 Q189.519 1475.44 191.325 1479.01 Q193.153 1482.55 196.765 1482.55 Q200.399 1482.55 202.204 1479.01 Q204.033 1475.44 204.033 1468.33 Q204.033 1461.2 202.204 1457.66 Q200.399 1454.1 196.765 1454.1 M196.765 1450.39 Q202.575 1450.39 205.63 1455 Q208.709 1459.58 208.709 1468.33 Q208.709 1477.06 205.63 1481.67 Q202.575 1486.25 196.765 1486.25 Q190.954 1486.25 187.876 1481.67 Q184.82 1477.06 184.82 1468.33 Q184.82 1459.58 187.876 1455 Q190.954 1450.39 196.765 1450.39 Z" fill="#000000" fill-rule="nonzero" fill-opacity="1" /><path clip-path="url(#clip370)" d="M216.926 1479.7 L221.811 1479.7 L221.811 1485.58 L216.926 1485.58 L216.926 1479.7 Z" fill="#000000" fill-rule="nonzero" fill-opacity="1" /><path clip-path="url(#clip370)" d="M241.996 1454.1 Q238.385 1454.1 236.556 1457.66 Q234.75 1461.2 234.75 1468.33 Q234.75 1475.44 236.556 1479.01 Q238.385 1482.55 241.996 1482.55 Q245.63 1482.55 247.436 1479.01 Q249.264 1475.44 249.264 1468.33 Q249.264 1461.2 247.436 1457.66 Q245.63 1454.1 241.996 1454.1 M241.996 1450.39 Q247.806 1450.39 250.861 1455 Q253.94 1459.58 253.94 1468.33 Q253.94 1477.06 250.861 1481.67 Q247.806 1486.25 241.996 1486.25 Q236.186 1486.25 233.107 1481.67 Q230.051 1477.06 230.051 1468.33 Q230.051 1459.58 233.107 1455 Q236.186 1450.39 241.996 1450.39 Z" fill="#000000" fill-rule="nonzero" fill-opacity="1" /><path clip-path="url(#clip370)" d="M828.387 1454.1 Q824.776 1454.1 822.948 1457.66 Q821.142 1461.2 821.142 1468.33 Q821.142 1475.44 822.948 1479.01 Q824.776 1482.55 828.387 1482.55 Q832.022 1482.55 833.827 1479.01 Q835.656 1475.44 835.656 1468.33 Q835.656 1461.2 833.827 1457.66 Q832.022 1454.1 828.387 1454.1 M828.387 1450.39 Q834.198 1450.39 837.253 1455 Q840.332 1459.58 840.332 1468.33 Q840.332 1477.06 837.253 1481.67 Q834.198 1486.25 828.387 1486.25 Q822.577 1486.25 819.499 1481.67 Q816.443 1477.06 816.443 1468.33 Q816.443 1459.58 819.499 1455 Q822.577 1450.39 828.387 1450.39 Z" fill="#000000" fill-rule="nonzero" fill-opacity="1" /><path clip-path="url(#clip370)" d="M848.549 1479.7 L853.434 1479.7 L853.434 1485.58 L848.549 1485.58 L848.549 1479.7 Z" fill="#000000" fill-rule="nonzero" fill-opacity="1" /><path clip-path="url(#clip370)" d="M863.665 1451.02 L882.021 1451.02 L882.021 1454.96 L867.947 1454.96 L867.947 1463.43 Q868.966 1463.08 869.984 1462.92 Q871.003 1462.73 872.021 1462.73 Q877.809 1462.73 881.188 1465.9 Q884.568 1469.08 884.568 1474.49 Q884.568 1480.07 881.096 1483.17 Q877.623 1486.25 871.304 1486.25 Q869.128 1486.25 866.859 1485.88 Q864.614 1485.51 862.207 1484.77 L862.207 1480.07 Q864.29 1481.2 866.512 1481.76 Q868.734 1482.32 871.211 1482.32 Q875.216 1482.32 877.554 1480.21 Q879.892 1478.1 879.892 1474.49 Q879.892 1470.88 877.554 1468.77 Q875.216 1466.67 871.211 1466.67 Q869.336 1466.67 867.461 1467.08 Q865.609 1467.5 863.665 1468.38 L863.665 1451.02 Z" fill="#000000" fill-rule="nonzero" fill-opacity="1" /><path clip-path="url(#clip370)" d="M1448.78 1481.64 L1456.42 1481.64 L1456.42 1455.28 L1448.11 1456.95 L1448.11 1452.69 L1456.38 1451.02 L1461.05 1451.02 L1461.05 1481.64 L1468.69 1481.64 L1468.69 1485.58 L1448.78 1485.58 L1448.78 1481.64 Z" fill="#000000" fill-rule="nonzero" fill-opacity="1" /><path clip-path="url(#clip370)" d="M1478.14 1479.7 L1483.02 1479.7 L1483.02 1485.58 L1478.14 1485.58 L1478.14 1479.7 Z" fill="#000000" fill-rule="nonzero" fill-opacity="1" /><path clip-path="url(#clip370)" d="M1503.2 1454.1 Q1499.59 1454.1 1497.76 1457.66 Q1495.96 1461.2 1495.96 1468.33 Q1495.96 1475.44 1497.76 1479.01 Q1499.59 1482.55 1503.2 1482.55 Q1506.84 1482.55 1508.64 1479.01 Q1510.47 1475.44 1510.47 1468.33 Q1510.47 1461.2 1508.64 1457.66 Q1506.84 1454.1 1503.2 1454.1 M1503.2 1450.39 Q1509.01 1450.39 1512.07 1455 Q1515.15 1459.58 1515.15 1468.33 Q1515.15 1477.06 1512.07 1481.67 Q1509.01 1486.25 1503.2 1486.25 Q1497.39 1486.25 1494.32 1481.67 Q1491.26 1477.06 1491.26 1468.33 Q1491.26 1459.58 1494.32 1455 Q1497.39 1450.39 1503.2 1450.39 Z" fill="#000000" fill-rule="nonzero" fill-opacity="1" /><path clip-path="url(#clip370)" d="M2080.41 1481.64 L2088.05 1481.64 L2088.05 1455.28 L2079.74 1456.95 L2079.74 1452.69 L2088 1451.02 L2092.67 1451.02 L2092.67 1481.64 L2100.31 1481.64 L2100.31 1485.58 L2080.41 1485.58 L2080.41 1481.64 Z" fill="#000000" fill-rule="nonzero" fill-opacity="1" /><path clip-path="url(#clip370)" d="M2109.76 1479.7 L2114.64 1479.7 L2114.64 1485.58 L2109.76 1485.58 L2109.76 1479.7 Z" fill="#000000" fill-rule="nonzero" fill-opacity="1" /><path clip-path="url(#clip370)" d="M2124.87 1451.02 L2143.23 1451.02 L2143.23 1454.96 L2129.16 1454.96 L2129.16 1463.43 Q2130.17 1463.08 2131.19 1462.92 Q2132.21 1462.73 2133.23 1462.73 Q2139.02 1462.73 2142.4 1465.9 Q2145.78 1469.08 2145.78 1474.49 Q2145.78 1480.07 2142.3 1483.17 Q2138.83 1486.25 2132.51 1486.25 Q2130.34 1486.25 2128.07 1485.88 Q2125.82 1485.51 2123.42 1484.77 L2123.42 1480.07 Q2125.5 1481.2 2127.72 1481.76 Q2129.94 1482.32 2132.42 1482.32 Q2136.42 1482.32 2138.76 1480.21 Q2141.1 1478.1 2141.1 1474.49 Q2141.1 1470.88 2138.76 1468.77 Q2136.42 1466.67 2132.42 1466.67 Q2130.55 1466.67 2128.67 1467.08 Q2126.82 1467.5 2124.87 1468.38 L2124.87 1451.02 Z" fill="#000000" fill-rule="nonzero" fill-opacity="1" /><path clip-path="url(#clip370)" d="M911.822 1522.08 L911.822 1528.35 Q908.161 1526.6 904.915 1525.74 Q901.668 1524.88 898.645 1524.88 Q893.393 1524.88 890.528 1526.92 Q887.696 1528.96 887.696 1532.71 Q887.696 1535.87 889.574 1537.49 Q891.483 1539.08 896.767 1540.07 L900.65 1540.86 Q907.843 1542.23 911.249 1545.7 Q914.686 1549.14 914.686 1554.93 Q914.686 1561.84 910.039 1565.4 Q905.424 1568.97 896.48 1568.97 Q893.107 1568.97 889.287 1568.2 Q885.5 1567.44 881.425 1565.94 L881.425 1559.32 Q885.34 1561.52 889.096 1562.63 Q892.852 1563.75 896.48 1563.75 Q901.987 1563.75 904.979 1561.58 Q907.97 1559.42 907.97 1555.41 Q907.97 1551.91 905.806 1549.93 Q903.674 1547.96 898.772 1546.97 L894.857 1546.21 Q887.664 1544.78 884.449 1541.72 Q881.234 1538.67 881.234 1533.22 Q881.234 1526.92 885.659 1523.29 Q890.115 1519.66 897.913 1519.66 Q901.255 1519.66 904.724 1520.27 Q908.193 1520.87 911.822 1522.08 Z" fill="#000000" fill-rule="nonzero" fill-opacity="1" /><path clip-path="url(#clip370)" d="M950.111 1533.76 L950.111 1539.24 Q947.629 1537.87 945.114 1537.2 Q942.632 1536.5 940.085 1536.5 Q934.388 1536.5 931.237 1540.13 Q928.086 1543.73 928.086 1550.25 Q928.086 1556.78 931.237 1560.4 Q934.388 1564 940.085 1564 Q942.632 1564 945.114 1563.33 Q947.629 1562.63 950.111 1561.26 L950.111 1566.68 Q947.661 1567.82 945.019 1568.39 Q942.409 1568.97 939.449 1568.97 Q931.396 1568.97 926.654 1563.91 Q921.911 1558.85 921.911 1550.25 Q921.911 1541.53 926.686 1536.53 Q931.492 1531.54 939.831 1531.54 Q942.536 1531.54 945.114 1532.11 Q947.692 1532.65 950.111 1533.76 Z" fill="#000000" fill-rule="nonzero" fill-opacity="1" /><path clip-path="url(#clip370)" d="M976.497 1550.12 Q969.4 1550.12 966.662 1551.75 Q963.925 1553.37 963.925 1557.29 Q963.925 1560.4 965.962 1562.25 Q968.031 1564.07 971.564 1564.07 Q976.434 1564.07 979.362 1560.63 Q982.322 1557.16 982.322 1551.43 L982.322 1550.12 L976.497 1550.12 M988.178 1547.71 L988.178 1568.04 L982.322 1568.04 L982.322 1562.63 Q980.317 1565.88 977.325 1567.44 Q974.333 1568.97 970.004 1568.97 Q964.53 1568.97 961.283 1565.91 Q958.069 1562.82 958.069 1557.67 Q958.069 1551.65 962.079 1548.6 Q966.121 1545.54 974.11 1545.54 L982.322 1545.54 L982.322 1544.97 Q982.322 1540.93 979.648 1538.73 Q977.007 1536.5 972.2 1536.5 Q969.145 1536.5 966.249 1537.23 Q963.352 1537.97 960.679 1539.43 L960.679 1534.02 Q963.893 1532.78 966.917 1532.17 Q969.941 1531.54 972.805 1531.54 Q980.54 1531.54 984.359 1535.55 Q988.178 1539.56 988.178 1547.71 Z" fill="#000000" fill-rule="nonzero" fill-opacity="1" /><path clip-path="url(#clip370)" d="M1000.24 1518.52 L1006.1 1518.52 L1006.1 1568.04 L1000.24 1568.04 L1000.24 1518.52 Z" fill="#000000" fill-rule="nonzero" fill-opacity="1" /><path clip-path="url(#clip370)" d="M1048.84 1548.76 L1048.84 1551.62 L1021.92 1551.62 Q1022.3 1557.67 1025.55 1560.85 Q1028.82 1564 1034.65 1564 Q1038.02 1564 1041.17 1563.17 Q1044.36 1562.35 1047.47 1560.69 L1047.47 1566.23 Q1044.32 1567.57 1041.01 1568.27 Q1037.7 1568.97 1034.3 1568.97 Q1025.77 1568.97 1020.77 1564 Q1015.81 1559.04 1015.81 1550.57 Q1015.81 1541.82 1020.52 1536.69 Q1025.26 1531.54 1033.28 1531.54 Q1040.47 1531.54 1044.64 1536.18 Q1048.84 1540.8 1048.84 1548.76 M1042.99 1547.04 Q1042.92 1542.23 1040.28 1539.37 Q1037.67 1536.5 1033.34 1536.5 Q1028.44 1536.5 1025.48 1539.27 Q1022.55 1542.04 1022.11 1547.07 L1042.99 1547.04 Z" fill="#000000" fill-rule="nonzero" fill-opacity="1" /><path clip-path="url(#clip370)" d="M1092.99 1536.5 Q1088.28 1536.5 1085.54 1540.19 Q1082.8 1543.85 1082.8 1550.25 Q1082.8 1556.65 1085.51 1560.34 Q1088.25 1564 1092.99 1564 Q1097.67 1564 1100.41 1560.31 Q1103.14 1556.62 1103.14 1550.25 Q1103.14 1543.92 1100.41 1540.23 Q1097.67 1536.5 1092.99 1536.5 M1092.99 1531.54 Q1100.63 1531.54 1104.99 1536.5 Q1109.35 1541.47 1109.35 1550.25 Q1109.35 1559 1104.99 1564 Q1100.63 1568.97 1092.99 1568.97 Q1085.32 1568.97 1080.96 1564 Q1076.63 1559 1076.63 1550.25 Q1076.63 1541.47 1080.96 1536.5 Q1085.32 1531.54 1092.99 1531.54 Z" fill="#000000" fill-rule="nonzero" fill-opacity="1" /><path clip-path="url(#clip370)" d="M1137.1 1518.52 L1137.1 1523.39 L1131.5 1523.39 Q1128.35 1523.39 1127.11 1524.66 Q1125.9 1525.93 1125.9 1529.24 L1125.9 1532.4 L1135.54 1532.4 L1135.54 1536.95 L1125.9 1536.95 L1125.9 1568.04 L1120.01 1568.04 L1120.01 1536.95 L1114.41 1536.95 L1114.41 1532.4 L1120.01 1532.4 L1120.01 1529.91 Q1120.01 1523.96 1122.78 1521.26 Q1125.55 1518.52 1131.57 1518.52 L1137.1 1518.52 Z" fill="#000000" fill-rule="nonzero" fill-opacity="1" /><path clip-path="url(#clip370)" d="M1180.77 1518.52 L1180.77 1523.39 L1175.17 1523.39 Q1172.02 1523.39 1170.78 1524.66 Q1169.57 1525.93 1169.57 1529.24 L1169.57 1532.4 L1179.21 1532.4 L1179.21 1536.95 L1169.57 1536.95 L1169.57 1568.04 L1163.68 1568.04 L1163.68 1536.95 L1158.08 1536.95 L1158.08 1532.4 L1163.68 1532.4 L1163.68 1529.91 Q1163.68 1523.96 1166.45 1521.26 Q1169.22 1518.52 1175.23 1518.52 L1180.77 1518.52 Z" fill="#000000" fill-rule="nonzero" fill-opacity="1" /><path clip-path="url(#clip370)" d="M1201.88 1550.12 Q1194.78 1550.12 1192.04 1551.75 Q1189.3 1553.37 1189.3 1557.29 Q1189.3 1560.4 1191.34 1562.25 Q1193.41 1564.07 1196.94 1564.07 Q1201.81 1564.07 1204.74 1560.63 Q1207.7 1557.16 1207.7 1551.43 L1207.7 1550.12 L1201.88 1550.12 M1213.56 1547.71 L1213.56 1568.04 L1207.7 1568.04 L1207.7 1562.63 Q1205.69 1565.88 1202.7 1567.44 Q1199.71 1568.97 1195.38 1568.97 Q1189.91 1568.97 1186.66 1565.91 Q1183.45 1562.82 1183.45 1557.67 Q1183.45 1551.65 1187.46 1548.6 Q1191.5 1545.54 1199.49 1545.54 L1207.7 1545.54 L1207.7 1544.97 Q1207.7 1540.93 1205.03 1538.73 Q1202.38 1536.5 1197.58 1536.5 Q1194.52 1536.5 1191.63 1537.23 Q1188.73 1537.97 1186.06 1539.43 L1186.06 1534.02 Q1189.27 1532.78 1192.29 1532.17 Q1195.32 1531.54 1198.18 1531.54 Q1205.92 1531.54 1209.74 1535.55 Q1213.56 1539.56 1213.56 1547.71 Z" fill="#000000" fill-rule="nonzero" fill-opacity="1" /><path clip-path="url(#clip370)" d="M1251.27 1533.76 L1251.27 1539.24 Q1248.79 1537.87 1246.28 1537.2 Q1243.79 1536.5 1241.25 1536.5 Q1235.55 1536.5 1232.4 1540.13 Q1229.25 1543.73 1229.25 1550.25 Q1229.25 1556.78 1232.4 1560.4 Q1235.55 1564 1241.25 1564 Q1243.79 1564 1246.28 1563.33 Q1248.79 1562.63 1251.27 1561.26 L1251.27 1566.68 Q1248.82 1567.82 1246.18 1568.39 Q1243.57 1568.97 1240.61 1568.97 Q1232.56 1568.97 1227.82 1563.91 Q1223.07 1558.85 1223.07 1550.25 Q1223.07 1541.53 1227.85 1536.53 Q1232.65 1531.54 1240.99 1531.54 Q1243.7 1531.54 1246.28 1532.11 Q1248.85 1532.65 1251.27 1533.76 Z" fill="#000000" fill-rule="nonzero" fill-opacity="1" /><path clip-path="url(#clip370)" d="M1267.25 1522.27 L1267.25 1532.4 L1279.31 1532.4 L1279.31 1536.95 L1267.25 1536.95 L1267.25 1556.3 Q1267.25 1560.66 1268.43 1561.9 Q1269.64 1563.14 1273.3 1563.14 L1279.31 1563.14 L1279.31 1568.04 L1273.3 1568.04 Q1266.52 1568.04 1263.94 1565.53 Q1261.36 1562.98 1261.36 1556.3 L1261.36 1536.95 L1257.07 1536.95 L1257.07 1532.4 L1261.36 1532.4 L1261.36 1522.27 L1267.25 1522.27 Z" fill="#000000" fill-rule="nonzero" fill-opacity="1" /><path clip-path="url(#clip370)" d="M1300.83 1536.5 Q1296.12 1536.5 1293.38 1540.19 Q1290.64 1543.85 1290.64 1550.25 Q1290.64 1556.65 1293.35 1560.34 Q1296.09 1564 1300.83 1564 Q1305.51 1564 1308.25 1560.31 Q1310.98 1556.62 1310.98 1550.25 Q1310.98 1543.92 1308.25 1540.23 Q1305.51 1536.5 1300.83 1536.5 M1300.83 1531.54 Q1308.47 1531.54 1312.83 1536.5 Q1317.19 1541.47 1317.19 1550.25 Q1317.19 1559 1312.83 1564 Q1308.47 1568.97 1300.83 1568.97 Q1293.16 1568.97 1288.8 1564 Q1284.47 1559 1284.47 1550.25 Q1284.47 1541.47 1288.8 1536.5 Q1293.16 1531.54 1300.83 1531.54 Z" fill="#000000" fill-rule="nonzero" fill-opacity="1" /><path clip-path="url(#clip370)" d="M1347.55 1537.87 Q1346.57 1537.3 1345.39 1537.04 Q1344.24 1536.76 1342.84 1536.76 Q1337.88 1536.76 1335.2 1540 Q1332.56 1543.22 1332.56 1549.27 L1332.56 1568.04 L1326.67 1568.04 L1326.67 1532.4 L1332.56 1532.4 L1332.56 1537.93 Q1334.41 1534.69 1337.37 1533.13 Q1340.33 1531.54 1344.56 1531.54 Q1345.17 1531.54 1345.9 1531.63 Q1346.63 1531.7 1347.52 1531.85 L1347.55 1537.87 Z" fill="#000000" fill-rule="nonzero" fill-opacity="1" /><path clip-path="url(#clip370)" d="M1368.53 1571.35 Q1366.05 1577.72 1363.69 1579.66 Q1361.34 1581.6 1357.39 1581.6 L1352.71 1581.6 L1352.71 1576.7 L1356.15 1576.7 Q1358.57 1576.7 1359.9 1575.56 Q1361.24 1574.41 1362.86 1570.14 L1363.91 1567.47 L1349.5 1532.4 L1355.7 1532.4 L1366.84 1560.28 L1377.98 1532.4 L1384.19 1532.4 L1368.53 1571.35 Z" fill="#000000" fill-rule="nonzero" fill-opacity="1" /><path clip-path="url(#clip370)" d="M1429.13 1526.86 L1420.41 1550.51 L1437.88 1550.51 L1429.13 1526.86 M1425.5 1520.52 L1432.79 1520.52 L1450.9 1568.04 L1444.22 1568.04 L1439.89 1555.85 L1418.47 1555.85 L1414.14 1568.04 L1407.36 1568.04 L1425.5 1520.52 Z" fill="#000000" fill-rule="nonzero" fill-opacity="1" /><polyline clip-path="url(#clip372)" style="stroke:#000000; stroke-linecap:round; stroke-linejoin:round; stroke-width:2; stroke-opacity:0.1; fill:none" points="219.38,1423.18 2112.76,1423.18 "/>
<polyline clip-path="url(#clip372)" style="stroke:#000000; stroke-linecap:round; stroke-linejoin:round; stroke-width:2; stroke-opacity:0.1; fill:none" points="219.38,964.535 2112.76,964.535 "/>
<polyline clip-path="url(#clip372)" style="stroke:#000000; stroke-linecap:round; stroke-linejoin:round; stroke-width:2; stroke-opacity:0.1; fill:none" points="219.38,505.889 2112.76,505.889 "/>
<polyline clip-path="url(#clip372)" style="stroke:#000000; stroke-linecap:round; stroke-linejoin:round; stroke-width:2; stroke-opacity:0.1; fill:none" points="219.38,47.2441 2112.76,47.2441 "/>
<polyline clip-path="url(#clip370)" style="stroke:#000000; stroke-linecap:round; stroke-linejoin:round; stroke-width:4; stroke-opacity:1; fill:none" points="219.38,1423.18 219.38,47.2441 "/>
<polyline clip-path="url(#clip370)" style="stroke:#000000; stroke-linecap:round; stroke-linejoin:round; stroke-width:4; stroke-opacity:1; fill:none" points="219.38,1423.18 236.152,1423.18 "/>
<polyline clip-path="url(#clip370)" style="stroke:#000000; stroke-linecap:round; stroke-linejoin:round; stroke-width:4; stroke-opacity:1; fill:none" points="219.38,964.535 236.152,964.535 "/>
<polyline clip-path="url(#clip370)" style="stroke:#000000; stroke-linecap:round; stroke-linejoin:round; stroke-width:4; stroke-opacity:1; fill:none" points="219.38,505.889 236.152,505.889 "/>
<polyline clip-path="url(#clip370)" style="stroke:#000000; stroke-linecap:round; stroke-linejoin:round; stroke-width:4; stroke-opacity:1; fill:none" points="219.38,47.2441 236.152,47.2441 "/>
<path clip-path="url(#clip370)" d="M126.205 1408.98 Q122.593 1408.98 120.765 1412.54 Q118.959 1416.08 118.959 1423.21 Q118.959 1430.32 120.765 1433.89 Q122.593 1437.43 126.205 1437.43 Q129.839 1437.43 131.644 1433.89 Q133.473 1430.32 133.473 1423.21 Q133.473 1416.08 131.644 1412.54 Q129.839 1408.98 126.205 1408.98 M126.205 1405.27 Q132.015 1405.27 135.07 1409.88 Q138.149 1414.46 138.149 1423.21 Q138.149 1431.94 135.07 1436.55 Q132.015 1441.13 126.205 1441.13 Q120.394 1441.13 117.316 1436.55 Q114.26 1431.94 114.26 1423.21 Q114.26 1414.46 117.316 1409.88 Q120.394 1405.27 126.205 1405.27 Z" fill="#000000" fill-rule="nonzero" fill-opacity="1" /><path clip-path="url(#clip370)" d="M146.366 1434.58 L151.251 1434.58 L151.251 1440.46 L146.366 1440.46 L146.366 1434.58 Z" fill="#000000" fill-rule="nonzero" fill-opacity="1" /><path clip-path="url(#clip370)" d="M171.436 1408.98 Q167.825 1408.98 165.996 1412.54 Q164.19 1416.08 164.19 1423.21 Q164.19 1430.32 165.996 1433.89 Q167.825 1437.43 171.436 1437.43 Q175.07 1437.43 176.876 1433.89 Q178.704 1430.32 178.704 1423.21 Q178.704 1416.08 176.876 1412.54 Q175.07 1408.98 171.436 1408.98 M171.436 1405.27 Q177.246 1405.27 180.301 1409.88 Q183.38 1414.46 183.38 1423.21 Q183.38 1431.94 180.301 1436.55 Q177.246 1441.13 171.436 1441.13 Q165.626 1441.13 162.547 1436.55 Q159.491 1431.94 159.491 1423.21 Q159.491 1414.46 162.547 1409.88 Q165.626 1405.27 171.436 1405.27 Z" fill="#000000" fill-rule="nonzero" fill-opacity="1" /><path clip-path="url(#clip370)" d="M127.2 950.333 Q123.589 950.333 121.76 953.898 Q119.955 957.44 119.955 964.569 Q119.955 971.676 121.76 975.241 Q123.589 978.782 127.2 978.782 Q130.834 978.782 132.64 975.241 Q134.468 971.676 134.468 964.569 Q134.468 957.44 132.64 953.898 Q130.834 950.333 127.2 950.333 M127.2 946.63 Q133.01 946.63 136.066 951.236 Q139.144 955.819 139.144 964.569 Q139.144 973.296 136.066 977.903 Q133.01 982.486 127.2 982.486 Q121.39 982.486 118.311 977.903 Q115.256 973.296 115.256 964.569 Q115.256 955.819 118.311 951.236 Q121.39 946.63 127.2 946.63 Z" fill="#000000" fill-rule="nonzero" fill-opacity="1" /><path clip-path="url(#clip370)" d="M147.362 975.935 L152.246 975.935 L152.246 981.815 L147.362 981.815 L147.362 975.935 Z" fill="#000000" fill-rule="nonzero" fill-opacity="1" /><path clip-path="url(#clip370)" d="M162.477 947.255 L180.834 947.255 L180.834 951.19 L166.76 951.19 L166.76 959.662 Q167.778 959.315 168.797 959.153 Q169.815 958.967 170.834 958.967 Q176.621 958.967 180.001 962.139 Q183.38 965.31 183.38 970.727 Q183.38 976.305 179.908 979.407 Q176.436 982.486 170.116 982.486 Q167.94 982.486 165.672 982.116 Q163.427 981.745 161.019 981.004 L161.019 976.305 Q163.102 977.44 165.325 977.995 Q167.547 978.551 170.024 978.551 Q174.028 978.551 176.366 976.444 Q178.704 974.338 178.704 970.727 Q178.704 967.116 176.366 965.009 Q174.028 962.903 170.024 962.903 Q168.149 962.903 166.274 963.319 Q164.422 963.736 162.477 964.616 L162.477 947.255 Z" fill="#000000" fill-rule="nonzero" fill-opacity="1" /><path clip-path="url(#clip370)" d="M117.015 519.234 L124.654 519.234 L124.654 492.869 L116.343 494.535 L116.343 490.276 L124.607 488.609 L129.283 488.609 L129.283 519.234 L136.922 519.234 L136.922 523.169 L117.015 523.169 L117.015 519.234 Z" fill="#000000" fill-rule="nonzero" fill-opacity="1" /><path clip-path="url(#clip370)" d="M146.366 517.29 L151.251 517.29 L151.251 523.169 L146.366 523.169 L146.366 517.29 Z" fill="#000000" fill-rule="nonzero" fill-opacity="1" /><path clip-path="url(#clip370)" d="M171.436 491.688 Q167.825 491.688 165.996 495.253 Q164.19 498.794 164.19 505.924 Q164.19 513.031 165.996 516.595 Q167.825 520.137 171.436 520.137 Q175.07 520.137 176.876 516.595 Q178.704 513.031 178.704 505.924 Q178.704 498.794 176.876 495.253 Q175.07 491.688 171.436 491.688 M171.436 487.984 Q177.246 487.984 180.301 492.591 Q183.38 497.174 183.38 505.924 Q183.38 514.651 180.301 519.257 Q177.246 523.841 171.436 523.841 Q165.626 523.841 162.547 519.257 Q159.491 514.651 159.491 505.924 Q159.491 497.174 162.547 492.591 Q165.626 487.984 171.436 487.984 Z" fill="#000000" fill-rule="nonzero" fill-opacity="1" /><path clip-path="url(#clip370)" d="M118.01 60.5889 L125.649 60.5889 L125.649 34.2233 L117.339 35.89 L117.339 31.6308 L125.603 29.9641 L130.279 29.9641 L130.279 60.5889 L137.917 60.5889 L137.917 64.5241 L118.01 64.5241 L118.01 60.5889 Z" fill="#000000" fill-rule="nonzero" fill-opacity="1" /><path clip-path="url(#clip370)" d="M147.362 58.6445 L152.246 58.6445 L152.246 64.5241 L147.362 64.5241 L147.362 58.6445 Z" fill="#000000" fill-rule="nonzero" fill-opacity="1" /><path clip-path="url(#clip370)" d="M162.477 29.9641 L180.834 29.9641 L180.834 33.8993 L166.76 33.8993 L166.76 42.3714 Q167.778 42.0242 168.797 41.8622 Q169.815 41.677 170.834 41.677 Q176.621 41.677 180.001 44.8483 Q183.38 48.0196 183.38 53.4362 Q183.38 59.0149 179.908 62.1167 Q176.436 65.1954 170.116 65.1954 Q167.94 65.1954 165.672 64.825 Q163.427 64.4547 161.019 63.7139 L161.019 59.0149 Q163.102 60.1491 165.325 60.7047 Q167.547 61.2602 170.024 61.2602 Q174.028 61.2602 176.366 59.1538 Q178.704 57.0473 178.704 53.4362 Q178.704 49.8251 176.366 47.7186 Q174.028 45.6122 170.024 45.6122 Q168.149 45.6122 166.274 46.0288 Q164.422 46.4455 162.477 47.3251 L162.477 29.9641 Z" fill="#000000" fill-rule="nonzero" fill-opacity="1" /><path clip-path="url(#clip370)" d="M18.0438 987.485 L24.314 987.485 Q22.5634 991.145 21.704 994.392 Q20.8447 997.638 20.8447 1000.66 Q20.8447 1005.91 22.8817 1008.78 Q24.9187 1011.61 28.6745 1011.61 Q31.8255 1011.61 33.4488 1009.73 Q35.0402 1007.82 36.0269 1002.54 L36.8226 998.657 Q38.1912 991.463 41.6605 988.058 Q45.098 984.62 50.8908 984.62 Q57.7976 984.62 61.3624 989.267 Q64.9272 993.882 64.9272 1002.83 Q64.9272 1006.2 64.1633 1010.02 Q63.3994 1013.81 61.9035 1017.88 L55.2831 1017.88 Q57.4793 1013.97 58.5933 1010.21 Q59.7073 1006.45 59.7073 1002.83 Q59.7073 997.32 57.543 994.328 Q55.3786 991.336 51.3682 991.336 Q47.8671 991.336 45.8937 993.501 Q43.9204 995.633 42.9337 1000.53 L42.1698 1004.45 Q40.7375 1011.64 37.682 1014.86 Q34.6264 1018.07 29.1837 1018.07 Q22.8817 1018.07 19.2532 1013.65 Q15.6248 1009.19 15.6248 1001.39 Q15.6248 998.052 16.2295 994.583 Q16.8343 991.113 18.0438 987.485 Z" fill="#000000" fill-rule="nonzero" fill-opacity="1" /><path clip-path="url(#clip370)" d="M29.7248 949.195 L35.1993 949.195 Q33.8307 951.678 33.1623 954.192 Q32.4621 956.675 32.4621 959.221 Q32.4621 964.918 36.0905 968.07 Q39.6872 971.221 46.212 971.221 Q52.7369 971.221 56.3653 968.07 Q59.9619 964.918 59.9619 959.221 Q59.9619 956.675 59.2935 954.192 Q58.5933 951.678 57.2247 949.195 L62.6355 949.195 Q63.7814 951.646 64.3543 954.288 Q64.9272 956.898 64.9272 959.858 Q64.9272 967.91 59.8664 972.653 Q54.8057 977.395 46.212 977.395 Q37.491 977.395 32.4939 972.621 Q27.4968 967.815 27.4968 959.476 Q27.4968 956.77 28.0697 954.192 Q28.6108 951.614 29.7248 949.195 Z" fill="#000000" fill-rule="nonzero" fill-opacity="1" /><path clip-path="url(#clip370)" d="M46.0847 922.809 Q46.0847 929.907 47.7079 932.644 Q49.3312 935.382 53.2461 935.382 Q56.3653 935.382 58.2114 933.345 Q60.0256 931.276 60.0256 927.743 Q60.0256 922.873 56.5881 919.945 Q53.1188 916.985 47.3897 916.985 L46.0847 916.985 L46.0847 922.809 M43.6657 911.128 L64.0042 911.128 L64.0042 916.985 L58.5933 916.985 Q61.8398 918.99 63.3994 921.982 Q64.9272 924.974 64.9272 929.302 Q64.9272 934.777 61.8716 938.023 Q58.7843 941.238 53.6281 941.238 Q47.6125 941.238 44.5569 937.228 Q41.5014 933.185 41.5014 925.196 L41.5014 916.985 L40.9285 916.985 Q36.8862 916.985 34.6901 919.658 Q32.4621 922.3 32.4621 927.106 Q32.4621 930.162 33.1941 933.058 Q33.9262 935.955 35.3903 938.628 L29.9795 938.628 Q28.7381 935.413 28.1334 932.39 Q27.4968 929.366 27.4968 926.501 Q27.4968 918.767 31.5072 914.948 Q35.5176 911.128 43.6657 911.128 Z" fill="#000000" fill-rule="nonzero" fill-opacity="1" /><path clip-path="url(#clip370)" d="M14.479 899.065 L14.479 893.209 L64.0042 893.209 L64.0042 899.065 L14.479 899.065 Z" fill="#000000" fill-rule="nonzero" fill-opacity="1" /><path clip-path="url(#clip370)" d="M44.7161 850.463 L47.5806 850.463 L47.5806 877.39 Q53.6281 877.008 56.8109 873.762 Q59.9619 870.483 59.9619 864.659 Q59.9619 861.285 59.1344 858.134 Q58.3069 854.951 56.6518 851.832 L62.1899 851.832 Q63.5267 854.983 64.227 858.293 Q64.9272 861.603 64.9272 865.009 Q64.9272 873.539 59.9619 878.536 Q54.9967 883.501 46.5303 883.501 Q37.7774 883.501 32.6531 878.79 Q27.4968 874.048 27.4968 866.027 Q27.4968 858.834 32.1438 854.664 Q36.7589 850.463 44.7161 850.463 M42.9973 856.32 Q38.1912 856.383 35.3266 859.025 Q32.4621 861.635 32.4621 865.964 Q32.4621 870.865 35.2312 873.825 Q38.0002 876.753 43.0292 877.199 L42.9973 856.32 Z" fill="#000000" fill-rule="nonzero" fill-opacity="1" /><path clip-path="url(#clip370)" d="M32.4621 806.317 Q32.4621 811.028 36.1542 813.765 Q39.8145 816.502 46.212 816.502 Q52.6095 816.502 56.3017 813.797 Q59.9619 811.059 59.9619 806.317 Q59.9619 801.638 56.2698 798.901 Q52.5777 796.164 46.212 796.164 Q39.8781 796.164 36.186 798.901 Q32.4621 801.638 32.4621 806.317 M27.4968 806.317 Q27.4968 798.678 32.4621 794.318 Q37.4273 789.957 46.212 789.957 Q54.9649 789.957 59.9619 794.318 Q64.9272 798.678 64.9272 806.317 Q64.9272 813.988 59.9619 818.348 Q54.9649 822.677 46.212 822.677 Q37.4273 822.677 32.4621 818.348 Q27.4968 813.988 27.4968 806.317 Z" fill="#000000" fill-rule="nonzero" fill-opacity="1" /><path clip-path="url(#clip370)" d="M14.479 762.203 L19.3487 762.203 L19.3487 767.804 Q19.3487 770.955 20.6219 772.197 Q21.895 773.406 25.2052 773.406 L28.3562 773.406 L28.3562 763.762 L32.9077 763.762 L32.9077 773.406 L64.0042 773.406 L64.0042 779.294 L32.9077 779.294 L32.9077 784.896 L28.3562 784.896 L28.3562 779.294 L25.8736 779.294 Q19.9216 779.294 17.2162 776.525 Q14.479 773.756 14.479 767.741 L14.479 762.203 Z" fill="#000000" fill-rule="nonzero" fill-opacity="1" /><path clip-path="url(#clip370)" d="M14.479 718.534 L19.3487 718.534 L19.3487 724.136 Q19.3487 727.287 20.6219 728.528 Q21.895 729.737 25.2052 729.737 L28.3562 729.737 L28.3562 720.093 L32.9077 720.093 L32.9077 729.737 L64.0042 729.737 L64.0042 735.626 L32.9077 735.626 L32.9077 741.228 L28.3562 741.228 L28.3562 735.626 L25.8736 735.626 Q19.9216 735.626 17.2162 732.857 Q14.479 730.088 14.479 724.072 L14.479 718.534 Z" fill="#000000" fill-rule="nonzero" fill-opacity="1" /><path clip-path="url(#clip370)" d="M46.0847 697.431 Q46.0847 704.529 47.7079 707.267 Q49.3312 710.004 53.2461 710.004 Q56.3653 710.004 58.2114 707.967 Q60.0256 705.898 60.0256 702.365 Q60.0256 697.495 56.5881 694.567 Q53.1188 691.607 47.3897 691.607 L46.0847 691.607 L46.0847 697.431 M43.6657 685.75 L64.0042 685.75 L64.0042 691.607 L58.5933 691.607 Q61.8398 693.612 63.3994 696.604 Q64.9272 699.596 64.9272 703.925 Q64.9272 709.399 61.8716 712.646 Q58.7843 715.86 53.6281 715.86 Q47.6125 715.86 44.5569 711.85 Q41.5014 707.808 41.5014 699.819 L41.5014 691.607 L40.9285 691.607 Q36.8862 691.607 34.6901 694.28 Q32.4621 696.922 32.4621 701.728 Q32.4621 704.784 33.1941 707.68 Q33.9262 710.577 35.3903 713.25 L29.9795 713.25 Q28.7381 710.036 28.1334 707.012 Q27.4968 703.988 27.4968 701.124 Q27.4968 693.389 31.5072 689.57 Q35.5176 685.75 43.6657 685.75 Z" fill="#000000" fill-rule="nonzero" fill-opacity="1" /><path clip-path="url(#clip370)" d="M29.7248 648.034 L35.1993 648.034 Q33.8307 650.516 33.1623 653.031 Q32.4621 655.513 32.4621 658.06 Q32.4621 663.757 36.0905 666.908 Q39.6872 670.059 46.212 670.059 Q52.7369 670.059 56.3653 666.908 Q59.9619 663.757 59.9619 658.06 Q59.9619 655.513 59.2935 653.031 Q58.5933 650.516 57.2247 648.034 L62.6355 648.034 Q63.7814 650.484 64.3543 653.126 Q64.9272 655.736 64.9272 658.696 Q64.9272 666.749 59.8664 671.491 Q54.8057 676.234 46.212 676.234 Q37.491 676.234 32.4939 671.459 Q27.4968 666.653 27.4968 658.314 Q27.4968 655.609 28.0697 653.031 Q28.6108 650.453 29.7248 648.034 Z" fill="#000000" fill-rule="nonzero" fill-opacity="1" /><path clip-path="url(#clip370)" d="M18.2347 632.056 L28.3562 632.056 L28.3562 619.993 L32.9077 619.993 L32.9077 632.056 L52.2594 632.056 Q56.6199 632.056 57.8613 630.878 Q59.1026 629.669 59.1026 626.008 L59.1026 619.993 L64.0042 619.993 L64.0042 626.008 Q64.0042 632.788 61.4897 635.366 Q58.9434 637.944 52.2594 637.944 L32.9077 637.944 L32.9077 642.241 L28.3562 642.241 L28.3562 637.944 L18.2347 637.944 L18.2347 632.056 Z" fill="#000000" fill-rule="nonzero" fill-opacity="1" /><path clip-path="url(#clip370)" d="M32.4621 598.477 Q32.4621 603.187 36.1542 605.924 Q39.8145 608.662 46.212 608.662 Q52.6095 608.662 56.3017 605.956 Q59.9619 603.219 59.9619 598.477 Q59.9619 593.798 56.2698 591.061 Q52.5777 588.323 46.212 588.323 Q39.8781 588.323 36.186 591.061 Q32.4621 593.798 32.4621 598.477 M27.4968 598.477 Q27.4968 590.838 32.4621 586.477 Q37.4273 582.117 46.212 582.117 Q54.9649 582.117 59.9619 586.477 Q64.9272 590.838 64.9272 598.477 Q64.9272 606.147 59.9619 610.508 Q54.9649 614.836 46.212 614.836 Q37.4273 614.836 32.4621 610.508 Q27.4968 606.147 27.4968 598.477 Z" fill="#000000" fill-rule="nonzero" fill-opacity="1" /><path clip-path="url(#clip370)" d="M33.8307 551.752 Q33.2578 552.739 33.0032 553.917 Q32.7167 555.062 32.7167 556.463 Q32.7167 561.428 35.9632 564.102 Q39.1779 566.744 45.2253 566.744 L64.0042 566.744 L64.0042 572.632 L28.3562 572.632 L28.3562 566.744 L33.8944 566.744 Q30.6479 564.897 29.0883 561.937 Q27.4968 558.977 27.4968 554.744 Q27.4968 554.139 27.5923 553.407 Q27.656 552.675 27.8151 551.784 L33.8307 551.752 Z" fill="#000000" fill-rule="nonzero" fill-opacity="1" /><path clip-path="url(#clip370)" d="M67.3143 530.777 Q73.68 533.26 75.6216 535.615 Q77.5631 537.971 77.5631 541.917 L77.5631 546.596 L72.6615 546.596 L72.6615 543.159 Q72.6615 540.74 71.5157 539.403 Q70.3699 538.066 66.1048 536.443 L63.4312 535.392 L28.3562 549.811 L28.3562 543.604 L56.238 532.464 L28.3562 521.324 L28.3562 515.118 L67.3143 530.777 Z" fill="#000000" fill-rule="nonzero" fill-opacity="1" /><path clip-path="url(#clip370)" d="M41.3104 479.629 L58.7206 479.629 L58.7206 469.316 Q58.7206 464.128 56.5881 461.646 Q54.4238 459.131 49.9996 459.131 Q45.5436 459.131 43.4429 461.646 Q41.3104 464.128 41.3104 469.316 L41.3104 479.629 M21.7677 479.629 L36.0905 479.629 L36.0905 470.112 Q36.0905 465.401 34.34 463.11 Q32.5576 460.786 28.9291 460.786 Q25.3325 460.786 23.5501 463.11 Q21.7677 465.401 21.7677 470.112 L21.7677 479.629 M16.4842 486.058 L16.4842 469.635 Q16.4842 462.282 19.5397 458.304 Q22.5952 454.325 28.2289 454.325 Q32.5894 454.325 35.1675 456.362 Q37.7456 458.399 38.3822 462.346 Q39.4007 457.604 42.6472 454.994 Q45.8619 452.352 50.6998 452.352 Q57.0655 452.352 60.5348 456.68 Q64.0042 461.009 64.0042 468.998 L64.0042 486.058 L16.4842 486.058 Z" fill="#000000" fill-rule="nonzero" fill-opacity="1" /><polyline clip-path="url(#clip372)" style="stroke:#090621; stroke-linecap:round; stroke-linejoin:round; stroke-width:4; stroke-opacity:1; fill:none" points="436.715,1423.18 345.605,1342.53 338.299,1331.45 311.239,1239.72 304.275,1147.99 299.052,1056.26 292.088,964.535 285.124,872.806 278.16,781.076 272.937,689.347 265.972,597.618 259.008,505.889 252.044,414.16 245.08,322.431 239.857,230.702 232.893,138.973 225.929,47.2441 "/>
<polyline clip-path="url(#clip372)" style="stroke:#1f0c47; stroke-linecap:round; stroke-linejoin:round; stroke-width:4; stroke-opacity:1; fill:none" points="331.716,47.2441 338.68,138.973 345.605,230.186 345.645,230.702 350.941,322.431 358.003,414.16 365.064,505.889 372.126,597.618 379.187,689.347 384.483,781.076 391.545,872.806 398.606,964.535 407.396,1056.26 415.584,1147.99 436.704,1239.72 471.83,1278.77 556.579,1331.45 598.055,1363.92 667.279,1423.18 "/>
<polyline clip-path="url(#clip372)" style="stroke:#3b0964; stroke-linecap:round; stroke-linejoin:round; stroke-width:4; stroke-opacity:1; fill:none" points="901.944,1423.18 850.505,1377.88 788.712,1331.45 724.28,1293.11 645.537,1239.72 598.055,1189.57 565.364,1147.99 535.903,1056.26 520.698,964.535 506.109,872.806 495.971,781.076 489.553,689.347 480.694,597.618 472.417,505.889 471.83,499.382 465.27,414.16 458.208,322.431 452.912,230.702 445.85,138.973 438.789,47.2441 "/>
<polyline clip-path="url(#clip372)" style="stroke:#550f6d; stroke-linecap:round; stroke-linejoin:round; stroke-width:4; stroke-opacity:1; fill:none" points="556.07,47.2441 564.085,138.973 572.099,230.702 578.11,322.431 589.871,414.16 598.055,504.857 598.136,505.889 605.298,597.618 616.762,689.347 622.349,781.076 638.767,872.806 660.364,964.535 693.661,1056.26 724.28,1113.22 749.472,1147.99 850.505,1218.45 880.799,1239.72 976.73,1306.63 1009.15,1331.45 1102.96,1422.15 1104.48,1423.18 "/>
<polyline clip-path="url(#clip372)" style="stroke:#6e186e; stroke-linecap:round; stroke-linejoin:round; stroke-width:4; stroke-opacity:1; fill:none" points="1363.74,1423.18 1355.41,1415.12 1246.72,1331.45 1229.18,1320.76 1102.96,1253.66 1084.76,1239.72 976.73,1156.44 964.697,1147.99 883.397,1056.26 850.505,1016.38 810.477,964.535 770.999,872.806 738.909,781.076 731.626,689.347 724.28,657.513 714.086,597.618 706.924,505.889 699.763,414.16 689.02,322.431 683.649,230.702 676.487,138.973 669.325,47.2441 "/>
<polyline clip-path="url(#clip372)" style="stroke:#88216a; stroke-linecap:round; stroke-linejoin:round; stroke-width:4; stroke-opacity:1; fill:none" points="788.607,47.2441 797.165,138.973 809.658,230.702 816.387,322.431 835.267,414.16 844.699,505.889 850.505,546.959 856.866,597.618 875.188,689.347 883.361,781.076 916.204,872.806 971.914,964.535 976.73,969.796 1075.15,1056.26 1102.96,1085.92 1186.81,1147.99 1229.18,1170.67 1341.68,1239.72 1355.41,1248.09 1464.27,1331.45 1481.63,1348.23 1559.14,1423.18 "/>
<polyline clip-path="url(#clip372)" style="stroke:#a12b61; stroke-linecap:round; stroke-linejoin:round; stroke-width:4; stroke-opacity:1; fill:none" points="1800.62,1423.18 1734.08,1378.52 1672.94,1331.45 1607.86,1291.77 1539.88,1239.72 1481.63,1194.81 1420.89,1147.99 1355.41,1078.16 1329.61,1056.26 1229.18,995.436 1170.67,964.535 1102.96,922.59 1061.09,872.806 1018,781.076 1001.58,689.347 983.534,597.618 976.73,566.79 963.283,505.889 953.185,414.16 936.639,322.431 930.966,230.702 918.228,138.973 910.667,47.2441 "/>
<polyline clip-path="url(#clip372)" style="stroke:#ba3655; stroke-linecap:round; stroke-linejoin:round; stroke-width:4; stroke-opacity:1; fill:none" points="1020.02,47.2441 1026.73,138.973 1039.3,230.702 1044.44,322.431 1059.41,414.16 1075.48,505.889 1101.02,597.618 1102.96,605.445 1144.84,689.347 1189.73,781.076 1229.18,816.376 1285.35,872.806 1355.41,922.693 1409.67,964.535 1481.63,1019.27 1530.27,1056.26 1607.86,1138.99 1618.46,1147.99 1734.08,1218.96 1772.87,1239.72 1860.31,1286.2 1919.4,1331.45 1986.53,1396.36 2016.98,1423.18 "/>
<polyline clip-path="url(#clip372)" style="stroke:#d04544; stroke-linecap:round; stroke-linejoin:round; stroke-width:4; stroke-opacity:1; fill:none" points="2112.76,1321.27 1995.84,1239.72 1986.53,1233.19 1876.02,1147.99 1860.31,1131.24 1759.03,1056.26 1734.08,1043.09 1607.86,966.647 1605.08,964.535 1486.09,872.806 1481.63,869.092 1387.9,781.076 1355.41,717.633 1340.92,689.347 1293.27,597.618 1238.25,505.889 1229.18,474.953 1208.41,414.16 1182.28,322.431 1173.33,230.702 1143.89,138.973 1132.27,47.2441 "/>
<polyline clip-path="url(#clip372)" style="stroke:#e35832; stroke-linecap:round; stroke-linejoin:round; stroke-width:4; stroke-opacity:1; fill:none" points="1280.18,47.2441 1298.13,138.973 1329.81,230.702 1336.99,322.431 1355.41,403.127 1357.54,414.16 1391.63,505.889 1449.48,597.618 1481.63,653.862 1505.6,689.347 1571.35,781.076 1607.86,811.481 1700.34,872.806 1734.08,893.513 1860.31,961.07 1864.8,964.535 1985.4,1056.26 1986.53,1057.47 2079.73,1147.99 2112.76,1171.18 "/>
<polyline clip-path="url(#clip372)" style="stroke:#f0701e; stroke-linecap:round; stroke-linejoin:round; stroke-width:4; stroke-opacity:1; fill:none" points="2112.76,995.946 2067.42,964.535 1986.53,907.74 1941.21,872.806 1860.31,805.425 1818.19,781.076 1734.08,724.603 1694.61,689.347 1608.43,597.618 1607.86,597.1 1538.27,505.889 1481.63,416.062 1480.63,414.16 1458.01,322.431 1447.32,230.702 1423,138.973 1403.75,47.2441 "/>
<polyline clip-path="url(#clip372)" style="stroke:#f98c09; stroke-linecap:round; stroke-linejoin:round; stroke-width:4; stroke-opacity:1; fill:none" points="1515.28,47.2441 1537.37,138.973 1566.86,230.702 1588.55,322.431 1607.86,370.518 1630.55,414.16 1710.54,505.889 1734.08,526.887 1848.38,597.618 1860.31,607.162 1931.61,689.347 1986.53,742.457 2030.38,781.076 2112.76,843.559 "/>
<polyline clip-path="url(#clip372)" style="stroke:#fbaa0e; stroke-linecap:round; stroke-linejoin:round; stroke-width:4; stroke-opacity:1; fill:none" points="2112.76,664.893 2035.73,597.618 1986.53,557.67 1935,505.889 1860.31,423.06 1847.29,414.16 1764.28,322.431 1734.08,260.722 1723.38,230.702 1670.15,138.973 1634.33,47.2441 "/>
<polyline clip-path="url(#clip372)" style="stroke:#f8c931; stroke-linecap:round; stroke-linejoin:round; stroke-width:4; stroke-opacity:1; fill:none" points="1799.26,47.2441 1860.31,125.534 1868.77,138.973 1920.04,230.702 1957.02,322.431 1986.53,369.044 2019.67,414.16 2112.76,500.307 "/>
<polyline clip-path="url(#clip372)" style="stroke:#f1e864; stroke-linecap:round; stroke-linejoin:round; stroke-width:4; stroke-opacity:1; fill:none" points="2112.76,289.305 2082.36,230.702 2017.57,138.973 1986.53,93.1516 1957.56,47.2441 "/>
<defs>
  <clipPath id="clip373">
    <rect x="2160" y="47" width="73" height="1377"/>
  </clipPath>
</defs>
<polyline clip-path="url(#clip373)" style="stroke:#0a0723; stroke-linecap:round; stroke-linejoin:round; stroke-width:4; stroke-opacity:1; fill:none" points="2160.76,1337.18 2232.76,1337.18 "/>
<polyline clip-path="url(#clip373)" style="stroke:#200c4a; stroke-linecap:round; stroke-linejoin:round; stroke-width:4; stroke-opacity:1; fill:none" points="2160.76,1251.19 2232.76,1251.19 "/>
<polyline clip-path="url(#clip373)" style="stroke:#3c0965; stroke-linecap:round; stroke-linejoin:round; stroke-width:4; stroke-opacity:1; fill:none" points="2160.76,1165.19 2232.76,1165.19 "/>
<polyline clip-path="url(#clip373)" style="stroke:#570f6d; stroke-linecap:round; stroke-linejoin:round; stroke-width:4; stroke-opacity:1; fill:none" points="2160.76,1079.2 2232.76,1079.2 "/>
<polyline clip-path="url(#clip373)" style="stroke:#70196e; stroke-linecap:round; stroke-linejoin:round; stroke-width:4; stroke-opacity:1; fill:none" points="2160.76,993.2 2232.76,993.2 "/>
<polyline clip-path="url(#clip373)" style="stroke:#892269; stroke-linecap:round; stroke-linejoin:round; stroke-width:4; stroke-opacity:1; fill:none" points="2160.76,907.204 2232.76,907.204 "/>
<polyline clip-path="url(#clip373)" style="stroke:#a32b61; stroke-linecap:round; stroke-linejoin:round; stroke-width:4; stroke-opacity:1; fill:none" points="2160.76,821.208 2232.76,821.208 "/>
<polyline clip-path="url(#clip373)" style="stroke:#bb3754; stroke-linecap:round; stroke-linejoin:round; stroke-width:4; stroke-opacity:1; fill:none" points="2160.76,735.212 2232.76,735.212 "/>
<polyline clip-path="url(#clip373)" style="stroke:#d04544; stroke-linecap:round; stroke-linejoin:round; stroke-width:4; stroke-opacity:1; fill:none" points="2160.76,649.216 2232.76,649.216 "/>
<polyline clip-path="url(#clip373)" style="stroke:#e35832; stroke-linecap:round; stroke-linejoin:round; stroke-width:4; stroke-opacity:1; fill:none" points="2160.76,563.22 2232.76,563.22 "/>
<polyline clip-path="url(#clip373)" style="stroke:#f0701e; stroke-linecap:round; stroke-linejoin:round; stroke-width:4; stroke-opacity:1; fill:none" points="2160.76,477.224 2232.76,477.224 "/>
<polyline clip-path="url(#clip373)" style="stroke:#f98c09; stroke-linecap:round; stroke-linejoin:round; stroke-width:4; stroke-opacity:1; fill:none" points="2160.76,391.228 2232.76,391.228 "/>
<polyline clip-path="url(#clip373)" style="stroke:#fbaa0e; stroke-linecap:round; stroke-linejoin:round; stroke-width:4; stroke-opacity:1; fill:none" points="2160.76,305.232 2232.76,305.232 "/>
<polyline clip-path="url(#clip373)" style="stroke:#f8c931; stroke-linecap:round; stroke-linejoin:round; stroke-width:4; stroke-opacity:1; fill:none" points="2160.76,219.236 2232.76,219.236 "/>
<polyline clip-path="url(#clip373)" style="stroke:#f1e864; stroke-linecap:round; stroke-linejoin:round; stroke-width:4; stroke-opacity:1; fill:none" points="2160.76,133.24 2232.76,133.24 "/>
<path clip-path="url(#clip370)" d="M2274.38 1256.53 L2290.7 1256.53 L2290.7 1260.47 L2268.76 1260.47 L2268.76 1256.53 Q2271.42 1253.78 2276 1249.15 Q2280.61 1244.5 2281.79 1243.15 Q2284.03 1240.63 2284.91 1238.9 Q2285.82 1237.14 2285.82 1235.45 Q2285.82 1232.69 2283.87 1230.96 Q2281.95 1229.22 2278.85 1229.22 Q2276.65 1229.22 2274.2 1229.98 Q2271.77 1230.75 2268.99 1232.3 L2268.99 1227.58 Q2271.81 1226.44 2274.27 1225.86 Q2276.72 1225.28 2278.76 1225.28 Q2284.13 1225.28 2287.32 1227.97 Q2290.52 1230.65 2290.52 1235.15 Q2290.52 1237.27 2289.7 1239.2 Q2288.92 1241.09 2286.81 1243.69 Q2286.23 1244.36 2283.13 1247.58 Q2280.03 1250.77 2274.38 1256.53 Z" fill="#000000" fill-rule="nonzero" fill-opacity="1" /><path clip-path="url(#clip370)" d="M2300.56 1225.91 L2318.92 1225.91 L2318.92 1229.84 L2304.84 1229.84 L2304.84 1238.32 Q2305.86 1237.97 2306.88 1237.81 Q2307.9 1237.62 2308.92 1237.62 Q2314.7 1237.62 2318.08 1240.79 Q2321.46 1243.96 2321.46 1249.38 Q2321.46 1254.96 2317.99 1258.06 Q2314.52 1261.14 2308.2 1261.14 Q2306.02 1261.14 2303.76 1260.77 Q2301.51 1260.4 2299.1 1259.66 L2299.1 1254.96 Q2301.19 1256.09 2303.41 1256.65 Q2305.63 1257.21 2308.11 1257.21 Q2312.11 1257.21 2314.45 1255.1 Q2316.79 1252.99 2316.79 1249.38 Q2316.79 1245.77 2314.45 1243.66 Q2312.11 1241.56 2308.11 1241.56 Q2306.23 1241.56 2304.36 1241.97 Q2302.51 1242.39 2300.56 1243.27 L2300.56 1225.91 Z" fill="#000000" fill-rule="nonzero" fill-opacity="1" /><path clip-path="url(#clip370)" d="M2340.68 1228.99 Q2337.07 1228.99 2335.24 1232.55 Q2333.43 1236.09 2333.43 1243.22 Q2333.43 1250.33 2335.24 1253.9 Q2337.07 1257.44 2340.68 1257.44 Q2344.31 1257.44 2346.12 1253.9 Q2347.95 1250.33 2347.95 1243.22 Q2347.95 1236.09 2346.12 1232.55 Q2344.31 1228.99 2340.68 1228.99 M2340.68 1225.28 Q2346.49 1225.28 2349.54 1229.89 Q2352.62 1234.47 2352.62 1243.22 Q2352.62 1251.95 2349.54 1256.56 Q2346.49 1261.14 2340.68 1261.14 Q2334.87 1261.14 2331.79 1256.56 Q2328.73 1251.95 2328.73 1243.22 Q2328.73 1234.47 2331.79 1229.89 Q2334.87 1225.28 2340.68 1225.28 Z" fill="#000000" fill-rule="nonzero" fill-opacity="1" /><path clip-path="url(#clip370)" d="M2370.84 1228.99 Q2367.23 1228.99 2365.4 1232.55 Q2363.59 1236.09 2363.59 1243.22 Q2363.59 1250.33 2365.4 1253.9 Q2367.23 1257.44 2370.84 1257.44 Q2374.47 1257.44 2376.28 1253.9 Q2378.11 1250.33 2378.11 1243.22 Q2378.11 1236.09 2376.28 1232.55 Q2374.47 1228.99 2370.84 1228.99 M2370.84 1225.28 Q2376.65 1225.28 2379.7 1229.89 Q2382.78 1234.47 2382.78 1243.22 Q2382.78 1251.95 2379.7 1256.56 Q2376.65 1261.14 2370.84 1261.14 Q2365.03 1261.14 2361.95 1256.56 Q2358.89 1251.95 2358.89 1243.22 Q2358.89 1234.47 2361.95 1229.89 Q2365.03 1225.28 2370.84 1225.28 Z" fill="#000000" fill-rule="nonzero" fill-opacity="1" /><path clip-path="url(#clip370)" d="M2401 1228.99 Q2397.39 1228.99 2395.56 1232.55 Q2393.76 1236.09 2393.76 1243.22 Q2393.76 1250.33 2395.56 1253.9 Q2397.39 1257.44 2401 1257.44 Q2404.63 1257.44 2406.44 1253.9 Q2408.27 1250.33 2408.27 1243.22 Q2408.27 1236.09 2406.44 1232.55 Q2404.63 1228.99 2401 1228.99 M2401 1225.28 Q2406.81 1225.28 2409.87 1229.89 Q2412.94 1234.47 2412.94 1243.22 Q2412.94 1251.95 2409.87 1256.56 Q2406.81 1261.14 2401 1261.14 Q2395.19 1261.14 2392.11 1256.56 Q2389.06 1251.95 2389.06 1243.22 Q2389.06 1234.47 2392.11 1229.89 Q2395.19 1225.28 2401 1225.28 Z" fill="#000000" fill-rule="nonzero" fill-opacity="1" /><path clip-path="url(#clip370)" d="M2431.16 1228.99 Q2427.55 1228.99 2425.72 1232.55 Q2423.92 1236.09 2423.92 1243.22 Q2423.92 1250.33 2425.72 1253.9 Q2427.55 1257.44 2431.16 1257.44 Q2434.8 1257.44 2436.6 1253.9 Q2438.43 1250.33 2438.43 1243.22 Q2438.43 1236.09 2436.6 1232.55 Q2434.8 1228.99 2431.16 1228.99 M2431.16 1225.28 Q2436.97 1225.28 2440.03 1229.89 Q2443.11 1234.47 2443.11 1243.22 Q2443.11 1251.95 2440.03 1256.56 Q2436.97 1261.14 2431.16 1261.14 Q2425.35 1261.14 2422.27 1256.56 Q2419.22 1251.95 2419.22 1243.22 Q2419.22 1234.47 2422.27 1229.89 Q2425.35 1225.28 2431.16 1225.28 Z" fill="#000000" fill-rule="nonzero" fill-opacity="1" /><path clip-path="url(#clip370)" d="M2461.32 1228.99 Q2457.71 1228.99 2455.88 1232.55 Q2454.08 1236.09 2454.08 1243.22 Q2454.08 1250.33 2455.88 1253.9 Q2457.71 1257.44 2461.32 1257.44 Q2464.96 1257.44 2466.76 1253.9 Q2468.59 1250.33 2468.59 1243.22 Q2468.59 1236.09 2466.76 1232.55 Q2464.96 1228.99 2461.32 1228.99 M2461.32 1225.28 Q2467.13 1225.28 2470.19 1229.89 Q2473.27 1234.47 2473.27 1243.22 Q2473.27 1251.95 2470.19 1256.56 Q2467.13 1261.14 2461.32 1261.14 Q2455.51 1261.14 2452.44 1256.56 Q2449.38 1251.95 2449.38 1243.22 Q2449.38 1234.47 2452.44 1229.89 Q2455.51 1225.28 2461.32 1225.28 Z" fill="#000000" fill-rule="nonzero" fill-opacity="1" /><path clip-path="url(#clip370)" d="M2270.21 1049 L2288.57 1049 L2288.57 1052.93 L2274.5 1052.93 L2274.5 1061.4 Q2275.52 1061.06 2276.53 1060.89 Q2277.55 1060.71 2278.57 1060.71 Q2284.36 1060.71 2287.74 1063.88 Q2291.12 1067.05 2291.12 1072.47 Q2291.12 1078.05 2287.64 1081.15 Q2284.17 1084.23 2277.85 1084.23 Q2275.68 1084.23 2273.41 1083.86 Q2271.16 1083.49 2268.76 1082.75 L2268.76 1078.05 Q2270.84 1079.18 2273.06 1079.74 Q2275.28 1080.29 2277.76 1080.29 Q2281.77 1080.29 2284.1 1078.19 Q2286.44 1076.08 2286.44 1072.47 Q2286.44 1068.86 2284.1 1066.75 Q2281.77 1064.64 2277.76 1064.64 Q2275.89 1064.64 2274.01 1065.06 Q2272.16 1065.48 2270.21 1066.36 L2270.21 1049 Z" fill="#000000" fill-rule="nonzero" fill-opacity="1" /><path clip-path="url(#clip370)" d="M2310.33 1052.07 Q2306.72 1052.07 2304.89 1055.64 Q2303.08 1059.18 2303.08 1066.31 Q2303.08 1073.42 2304.89 1076.98 Q2306.72 1080.52 2310.33 1080.52 Q2313.96 1080.52 2315.77 1076.98 Q2317.6 1073.42 2317.6 1066.31 Q2317.6 1059.18 2315.77 1055.64 Q2313.96 1052.07 2310.33 1052.07 M2310.33 1048.37 Q2316.14 1048.37 2319.2 1052.98 Q2322.27 1057.56 2322.27 1066.31 Q2322.27 1075.04 2319.2 1079.64 Q2316.14 1084.23 2310.33 1084.23 Q2304.52 1084.23 2301.44 1079.64 Q2298.39 1075.04 2298.39 1066.31 Q2298.39 1057.56 2301.44 1052.98 Q2304.52 1048.37 2310.33 1048.37 Z" fill="#000000" fill-rule="nonzero" fill-opacity="1" /><path clip-path="url(#clip370)" d="M2340.49 1052.07 Q2336.88 1052.07 2335.05 1055.64 Q2333.25 1059.18 2333.25 1066.31 Q2333.25 1073.42 2335.05 1076.98 Q2336.88 1080.52 2340.49 1080.52 Q2344.13 1080.52 2345.93 1076.98 Q2347.76 1073.42 2347.76 1066.31 Q2347.76 1059.18 2345.93 1055.64 Q2344.13 1052.07 2340.49 1052.07 M2340.49 1048.37 Q2346.3 1048.37 2349.36 1052.98 Q2352.44 1057.56 2352.44 1066.31 Q2352.44 1075.04 2349.36 1079.64 Q2346.3 1084.23 2340.49 1084.23 Q2334.68 1084.23 2331.6 1079.64 Q2328.55 1075.04 2328.55 1066.31 Q2328.55 1057.56 2331.6 1052.98 Q2334.68 1048.37 2340.49 1048.37 Z" fill="#000000" fill-rule="nonzero" fill-opacity="1" /><path clip-path="url(#clip370)" d="M2370.65 1052.07 Q2367.04 1052.07 2365.21 1055.64 Q2363.41 1059.18 2363.41 1066.31 Q2363.41 1073.42 2365.21 1076.98 Q2367.04 1080.52 2370.65 1080.52 Q2374.29 1080.52 2376.09 1076.98 Q2377.92 1073.42 2377.92 1066.31 Q2377.92 1059.18 2376.09 1055.64 Q2374.29 1052.07 2370.65 1052.07 M2370.65 1048.37 Q2376.46 1048.37 2379.52 1052.98 Q2382.6 1057.56 2382.6 1066.31 Q2382.6 1075.04 2379.52 1079.64 Q2376.46 1084.23 2370.65 1084.23 Q2364.84 1084.23 2361.76 1079.64 Q2358.71 1075.04 2358.71 1066.31 Q2358.71 1057.56 2361.76 1052.98 Q2364.84 1048.37 2370.65 1048.37 Z" fill="#000000" fill-rule="nonzero" fill-opacity="1" /><path clip-path="url(#clip370)" d="M2400.82 1052.07 Q2397.2 1052.07 2395.38 1055.64 Q2393.57 1059.18 2393.57 1066.31 Q2393.57 1073.42 2395.38 1076.98 Q2397.2 1080.52 2400.82 1080.52 Q2404.45 1080.52 2406.26 1076.98 Q2408.08 1073.42 2408.08 1066.31 Q2408.08 1059.18 2406.26 1055.64 Q2404.45 1052.07 2400.82 1052.07 M2400.82 1048.37 Q2406.63 1048.37 2409.68 1052.98 Q2412.76 1057.56 2412.76 1066.31 Q2412.76 1075.04 2409.68 1079.64 Q2406.63 1084.23 2400.82 1084.23 Q2395.01 1084.23 2391.93 1079.64 Q2388.87 1075.04 2388.87 1066.31 Q2388.87 1057.56 2391.93 1052.98 Q2395.01 1048.37 2400.82 1048.37 Z" fill="#000000" fill-rule="nonzero" fill-opacity="1" /><path clip-path="url(#clip370)" d="M2430.98 1052.07 Q2427.37 1052.07 2425.54 1055.64 Q2423.73 1059.18 2423.73 1066.31 Q2423.73 1073.42 2425.54 1076.98 Q2427.37 1080.52 2430.98 1080.52 Q2434.61 1080.52 2436.42 1076.98 Q2438.25 1073.42 2438.25 1066.31 Q2438.25 1059.18 2436.42 1055.64 Q2434.61 1052.07 2430.98 1052.07 M2430.98 1048.37 Q2436.79 1048.37 2439.84 1052.98 Q2442.92 1057.56 2442.92 1066.31 Q2442.92 1075.04 2439.84 1079.64 Q2436.79 1084.23 2430.98 1084.23 Q2425.17 1084.23 2422.09 1079.64 Q2419.03 1075.04 2419.03 1066.31 Q2419.03 1057.56 2422.09 1052.98 Q2425.17 1048.37 2430.98 1048.37 Z" fill="#000000" fill-rule="nonzero" fill-opacity="1" /><path clip-path="url(#clip370)" d="M2461.14 1052.07 Q2457.53 1052.07 2455.7 1055.64 Q2453.89 1059.18 2453.89 1066.31 Q2453.89 1073.42 2455.7 1076.98 Q2457.53 1080.52 2461.14 1080.52 Q2464.77 1080.52 2466.58 1076.98 Q2468.41 1073.42 2468.41 1066.31 Q2468.41 1059.18 2466.58 1055.64 Q2464.77 1052.07 2461.14 1052.07 M2461.14 1048.37 Q2466.95 1048.37 2470 1052.98 Q2473.08 1057.56 2473.08 1066.31 Q2473.08 1075.04 2470 1079.64 Q2466.95 1084.23 2461.14 1084.23 Q2455.33 1084.23 2452.25 1079.64 Q2449.19 1075.04 2449.19 1066.31 Q2449.19 1057.56 2452.25 1052.98 Q2455.33 1048.37 2461.14 1048.37 Z" fill="#000000" fill-rule="nonzero" fill-opacity="1" /><path clip-path="url(#clip370)" d="M2268.76 872.082 L2290.98 872.082 L2290.98 874.073 L2278.43 906.642 L2273.55 906.642 L2285.35 876.017 L2268.76 876.017 L2268.76 872.082 Z" fill="#000000" fill-rule="nonzero" fill-opacity="1" /><path clip-path="url(#clip370)" d="M2300.14 872.082 L2318.5 872.082 L2318.5 876.017 L2304.43 876.017 L2304.43 884.489 Q2305.45 884.142 2306.46 883.98 Q2307.48 883.795 2308.5 883.795 Q2314.29 883.795 2317.67 886.966 Q2321.05 890.137 2321.05 895.554 Q2321.05 901.133 2317.58 904.234 Q2314.1 907.313 2307.78 907.313 Q2305.61 907.313 2303.34 906.943 Q2301.09 906.572 2298.69 905.832 L2298.69 901.133 Q2300.77 902.267 2302.99 902.822 Q2305.21 903.378 2307.69 903.378 Q2311.7 903.378 2314.03 901.272 Q2316.37 899.165 2316.37 895.554 Q2316.37 891.943 2314.03 889.836 Q2311.7 887.73 2307.69 887.73 Q2305.82 887.73 2303.94 888.147 Q2302.09 888.563 2300.14 889.443 L2300.14 872.082 Z" fill="#000000" fill-rule="nonzero" fill-opacity="1" /><path clip-path="url(#clip370)" d="M2340.26 875.161 Q2336.65 875.161 2334.82 878.725 Q2333.01 882.267 2333.01 889.397 Q2333.01 896.503 2334.82 900.068 Q2336.65 903.609 2340.26 903.609 Q2343.89 903.609 2345.7 900.068 Q2347.53 896.503 2347.53 889.397 Q2347.53 882.267 2345.7 878.725 Q2343.89 875.161 2340.26 875.161 M2340.26 871.457 Q2346.07 871.457 2349.13 876.063 Q2352.2 880.647 2352.2 889.397 Q2352.2 898.123 2349.13 902.73 Q2346.07 907.313 2340.26 907.313 Q2334.45 907.313 2331.37 902.73 Q2328.32 898.123 2328.32 889.397 Q2328.32 880.647 2331.37 876.063 Q2334.45 871.457 2340.26 871.457 Z" fill="#000000" fill-rule="nonzero" fill-opacity="1" /><path clip-path="url(#clip370)" d="M2370.42 875.161 Q2366.81 875.161 2364.98 878.725 Q2363.18 882.267 2363.18 889.397 Q2363.18 896.503 2364.98 900.068 Q2366.81 903.609 2370.42 903.609 Q2374.06 903.609 2375.86 900.068 Q2377.69 896.503 2377.69 889.397 Q2377.69 882.267 2375.86 878.725 Q2374.06 875.161 2370.42 875.161 M2370.42 871.457 Q2376.23 871.457 2379.29 876.063 Q2382.37 880.647 2382.37 889.397 Q2382.37 898.123 2379.29 902.73 Q2376.23 907.313 2370.42 907.313 Q2364.61 907.313 2361.53 902.73 Q2358.48 898.123 2358.48 889.397 Q2358.48 880.647 2361.53 876.063 Q2364.61 871.457 2370.42 871.457 Z" fill="#000000" fill-rule="nonzero" fill-opacity="1" /><path clip-path="url(#clip370)" d="M2400.58 875.161 Q2396.97 875.161 2395.14 878.725 Q2393.34 882.267 2393.34 889.397 Q2393.34 896.503 2395.14 900.068 Q2396.97 903.609 2400.58 903.609 Q2404.22 903.609 2406.02 900.068 Q2407.85 896.503 2407.85 889.397 Q2407.85 882.267 2406.02 878.725 Q2404.22 875.161 2400.58 875.161 M2400.58 871.457 Q2406.39 871.457 2409.45 876.063 Q2412.53 880.647 2412.53 889.397 Q2412.53 898.123 2409.45 902.73 Q2406.39 907.313 2400.58 907.313 Q2394.77 907.313 2391.7 902.73 Q2388.64 898.123 2388.64 889.397 Q2388.64 880.647 2391.7 876.063 Q2394.77 871.457 2400.58 871.457 Z" fill="#000000" fill-rule="nonzero" fill-opacity="1" /><path clip-path="url(#clip370)" d="M2430.75 875.161 Q2427.13 875.161 2425.31 878.725 Q2423.5 882.267 2423.5 889.397 Q2423.5 896.503 2425.31 900.068 Q2427.13 903.609 2430.75 903.609 Q2434.38 903.609 2436.19 900.068 Q2438.01 896.503 2438.01 889.397 Q2438.01 882.267 2436.19 878.725 Q2434.38 875.161 2430.75 875.161 M2430.75 871.457 Q2436.56 871.457 2439.61 876.063 Q2442.69 880.647 2442.69 889.397 Q2442.69 898.123 2439.61 902.73 Q2436.56 907.313 2430.75 907.313 Q2424.94 907.313 2421.86 902.73 Q2418.8 898.123 2418.8 889.397 Q2418.8 880.647 2421.86 876.063 Q2424.94 871.457 2430.75 871.457 Z" fill="#000000" fill-rule="nonzero" fill-opacity="1" /><path clip-path="url(#clip370)" d="M2460.91 875.161 Q2457.3 875.161 2455.47 878.725 Q2453.66 882.267 2453.66 889.397 Q2453.66 896.503 2455.47 900.068 Q2457.3 903.609 2460.91 903.609 Q2464.54 903.609 2466.35 900.068 Q2468.18 896.503 2468.18 889.397 Q2468.18 882.267 2466.35 878.725 Q2464.54 875.161 2460.91 875.161 M2460.91 871.457 Q2466.72 871.457 2469.77 876.063 Q2472.85 880.647 2472.85 889.397 Q2472.85 898.123 2469.77 902.73 Q2466.72 907.313 2460.91 907.313 Q2455.1 907.313 2452.02 902.73 Q2448.96 898.123 2448.96 889.397 Q2448.96 880.647 2452.02 876.063 Q2455.1 871.457 2460.91 871.457 Z" fill="#000000" fill-rule="nonzero" fill-opacity="1" /><path clip-path="url(#clip370)" d="M2269.43 725.793 L2277.07 725.793 L2277.07 699.427 L2268.76 701.094 L2268.76 696.835 L2277.02 695.168 L2281.7 695.168 L2281.7 725.793 L2289.33 725.793 L2289.33 729.728 L2269.43 729.728 L2269.43 725.793 Z" fill="#000000" fill-rule="nonzero" fill-opacity="1" /><path clip-path="url(#clip370)" d="M2308.78 698.247 Q2305.17 698.247 2303.34 701.812 Q2301.53 705.353 2301.53 712.483 Q2301.53 719.589 2303.34 723.154 Q2305.17 726.696 2308.78 726.696 Q2312.41 726.696 2314.22 723.154 Q2316.05 719.589 2316.05 712.483 Q2316.05 705.353 2314.22 701.812 Q2312.41 698.247 2308.78 698.247 M2308.78 694.543 Q2314.59 694.543 2317.64 699.15 Q2320.72 703.733 2320.72 712.483 Q2320.72 721.21 2317.64 725.816 Q2314.59 730.399 2308.78 730.399 Q2302.97 730.399 2299.89 725.816 Q2296.83 721.21 2296.83 712.483 Q2296.83 703.733 2299.89 699.15 Q2302.97 694.543 2308.78 694.543 Z" fill="#000000" fill-rule="nonzero" fill-opacity="1" /><path clip-path="url(#clip370)" d="M2338.94 698.247 Q2335.33 698.247 2333.5 701.812 Q2331.7 705.353 2331.7 712.483 Q2331.7 719.589 2333.5 723.154 Q2335.33 726.696 2338.94 726.696 Q2342.57 726.696 2344.38 723.154 Q2346.21 719.589 2346.21 712.483 Q2346.21 705.353 2344.38 701.812 Q2342.57 698.247 2338.94 698.247 M2338.94 694.543 Q2344.75 694.543 2347.81 699.15 Q2350.89 703.733 2350.89 712.483 Q2350.89 721.21 2347.81 725.816 Q2344.75 730.399 2338.94 730.399 Q2333.13 730.399 2330.05 725.816 Q2327 721.21 2327 712.483 Q2327 703.733 2330.05 699.15 Q2333.13 694.543 2338.94 694.543 Z" fill="#000000" fill-rule="nonzero" fill-opacity="1" /><path clip-path="url(#clip370)" d="M2369.1 698.247 Q2365.49 698.247 2363.66 701.812 Q2361.86 705.353 2361.86 712.483 Q2361.86 719.589 2363.66 723.154 Q2365.49 726.696 2369.1 726.696 Q2372.74 726.696 2374.54 723.154 Q2376.37 719.589 2376.37 712.483 Q2376.37 705.353 2374.54 701.812 Q2372.74 698.247 2369.1 698.247 M2369.1 694.543 Q2374.91 694.543 2377.97 699.15 Q2381.05 703.733 2381.05 712.483 Q2381.05 721.21 2377.97 725.816 Q2374.91 730.399 2369.1 730.399 Q2363.29 730.399 2360.21 725.816 Q2357.16 721.21 2357.16 712.483 Q2357.16 703.733 2360.21 699.15 Q2363.29 694.543 2369.1 694.543 Z" fill="#000000" fill-rule="nonzero" fill-opacity="1" /><path clip-path="url(#clip370)" d="M2399.26 698.247 Q2395.65 698.247 2393.82 701.812 Q2392.02 705.353 2392.02 712.483 Q2392.02 719.589 2393.82 723.154 Q2395.65 726.696 2399.26 726.696 Q2402.9 726.696 2404.7 723.154 Q2406.53 719.589 2406.53 712.483 Q2406.53 705.353 2404.7 701.812 Q2402.9 698.247 2399.26 698.247 M2399.26 694.543 Q2405.07 694.543 2408.13 699.15 Q2411.21 703.733 2411.21 712.483 Q2411.21 721.21 2408.13 725.816 Q2405.07 730.399 2399.26 730.399 Q2393.45 730.399 2390.38 725.816 Q2387.32 721.21 2387.32 712.483 Q2387.32 703.733 2390.38 699.15 Q2393.45 694.543 2399.26 694.543 Z" fill="#000000" fill-rule="nonzero" fill-opacity="1" /><path clip-path="url(#clip370)" d="M2429.43 698.247 Q2425.82 698.247 2423.99 701.812 Q2422.18 705.353 2422.18 712.483 Q2422.18 719.589 2423.99 723.154 Q2425.82 726.696 2429.43 726.696 Q2433.06 726.696 2434.87 723.154 Q2436.69 719.589 2436.69 712.483 Q2436.69 705.353 2434.87 701.812 Q2433.06 698.247 2429.43 698.247 M2429.43 694.543 Q2435.24 694.543 2438.29 699.15 Q2441.37 703.733 2441.37 712.483 Q2441.37 721.21 2438.29 725.816 Q2435.24 730.399 2429.43 730.399 Q2423.62 730.399 2420.54 725.816 Q2417.48 721.21 2417.48 712.483 Q2417.48 703.733 2420.54 699.15 Q2423.62 694.543 2429.43 694.543 Z" fill="#000000" fill-rule="nonzero" fill-opacity="1" /><path clip-path="url(#clip370)" d="M2459.59 698.247 Q2455.98 698.247 2454.15 701.812 Q2452.34 705.353 2452.34 712.483 Q2452.34 719.589 2454.15 723.154 Q2455.98 726.696 2459.59 726.696 Q2463.22 726.696 2465.03 723.154 Q2466.86 719.589 2466.86 712.483 Q2466.86 705.353 2465.03 701.812 Q2463.22 698.247 2459.59 698.247 M2459.59 694.543 Q2465.4 694.543 2468.45 699.15 Q2471.53 703.733 2471.53 712.483 Q2471.53 721.21 2468.45 725.816 Q2465.4 730.399 2459.59 730.399 Q2453.78 730.399 2450.7 725.816 Q2447.64 721.21 2447.64 712.483 Q2447.64 703.733 2450.7 699.15 Q2453.78 694.543 2459.59 694.543 Z" fill="#000000" fill-rule="nonzero" fill-opacity="1" /><path clip-path="url(#clip370)" d="M2489.75 698.247 Q2486.14 698.247 2484.31 701.812 Q2482.5 705.353 2482.5 712.483 Q2482.5 719.589 2484.31 723.154 Q2486.14 726.696 2489.75 726.696 Q2493.38 726.696 2495.19 723.154 Q2497.02 719.589 2497.02 712.483 Q2497.02 705.353 2495.19 701.812 Q2493.38 698.247 2489.75 698.247 M2489.75 694.543 Q2495.56 694.543 2498.62 699.15 Q2501.69 703.733 2501.69 712.483 Q2501.69 721.21 2498.62 725.816 Q2495.56 730.399 2489.75 730.399 Q2483.94 730.399 2480.86 725.816 Q2477.81 721.21 2477.81 712.483 Q2477.81 703.733 2480.86 699.15 Q2483.94 694.543 2489.75 694.543 Z" fill="#000000" fill-rule="nonzero" fill-opacity="1" /><path clip-path="url(#clip370)" d="M2269.43 548.879 L2277.07 548.879 L2277.07 522.514 L2268.76 524.18 L2268.76 519.921 L2277.02 518.254 L2281.7 518.254 L2281.7 548.879 L2289.33 548.879 L2289.33 552.814 L2269.43 552.814 L2269.43 548.879 Z" fill="#000000" fill-rule="nonzero" fill-opacity="1" /><path clip-path="url(#clip370)" d="M2302.81 548.879 L2319.13 548.879 L2319.13 552.814 L2297.18 552.814 L2297.18 548.879 Q2299.84 546.125 2304.43 541.495 Q2309.03 536.842 2310.21 535.5 Q2312.46 532.977 2313.34 531.241 Q2314.24 529.481 2314.24 527.791 Q2314.24 525.037 2312.3 523.301 Q2310.38 521.565 2307.27 521.565 Q2305.08 521.565 2302.62 522.329 Q2300.19 523.092 2297.41 524.643 L2297.41 519.921 Q2300.24 518.787 2302.69 518.208 Q2305.14 517.629 2307.18 517.629 Q2312.55 517.629 2315.75 520.315 Q2318.94 523 2318.94 527.491 Q2318.94 529.62 2318.13 531.541 Q2317.34 533.44 2315.24 536.032 Q2314.66 536.703 2311.56 539.921 Q2308.45 543.115 2302.81 548.879 Z" fill="#000000" fill-rule="nonzero" fill-opacity="1" /><path clip-path="url(#clip370)" d="M2328.99 518.254 L2347.34 518.254 L2347.34 522.19 L2333.27 522.19 L2333.27 530.662 Q2334.29 530.315 2335.31 530.153 Q2336.32 529.967 2337.34 529.967 Q2343.13 529.967 2346.51 533.139 Q2349.89 536.31 2349.89 541.727 Q2349.89 547.305 2346.42 550.407 Q2342.95 553.486 2336.63 553.486 Q2334.45 553.486 2332.18 553.115 Q2329.94 552.745 2327.53 552.004 L2327.53 547.305 Q2329.61 548.439 2331.83 548.995 Q2334.06 549.551 2336.53 549.551 Q2340.54 549.551 2342.88 547.444 Q2345.21 545.338 2345.21 541.727 Q2345.21 538.115 2342.88 536.009 Q2340.54 533.903 2336.53 533.903 Q2334.66 533.903 2332.78 534.319 Q2330.93 534.736 2328.99 535.615 L2328.99 518.254 Z" fill="#000000" fill-rule="nonzero" fill-opacity="1" /><path clip-path="url(#clip370)" d="M2369.1 521.333 Q2365.49 521.333 2363.66 524.898 Q2361.86 528.44 2361.86 535.569 Q2361.86 542.676 2363.66 546.24 Q2365.49 549.782 2369.1 549.782 Q2372.74 549.782 2374.54 546.24 Q2376.37 542.676 2376.37 535.569 Q2376.37 528.44 2374.54 524.898 Q2372.74 521.333 2369.1 521.333 M2369.1 517.629 Q2374.91 517.629 2377.97 522.236 Q2381.05 526.819 2381.05 535.569 Q2381.05 544.296 2377.97 548.902 Q2374.91 553.486 2369.1 553.486 Q2363.29 553.486 2360.21 548.902 Q2357.16 544.296 2357.16 535.569 Q2357.16 526.819 2360.21 522.236 Q2363.29 517.629 2369.1 517.629 Z" fill="#000000" fill-rule="nonzero" fill-opacity="1" /><path clip-path="url(#clip370)" d="M2399.26 521.333 Q2395.65 521.333 2393.82 524.898 Q2392.02 528.44 2392.02 535.569 Q2392.02 542.676 2393.82 546.24 Q2395.65 549.782 2399.26 549.782 Q2402.9 549.782 2404.7 546.24 Q2406.53 542.676 2406.53 535.569 Q2406.53 528.44 2404.7 524.898 Q2402.9 521.333 2399.26 521.333 M2399.26 517.629 Q2405.07 517.629 2408.13 522.236 Q2411.21 526.819 2411.21 535.569 Q2411.21 544.296 2408.13 548.902 Q2405.07 553.486 2399.26 553.486 Q2393.45 553.486 2390.38 548.902 Q2387.32 544.296 2387.32 535.569 Q2387.32 526.819 2390.38 522.236 Q2393.45 517.629 2399.26 517.629 Z" fill="#000000" fill-rule="nonzero" fill-opacity="1" /><path clip-path="url(#clip370)" d="M2429.43 521.333 Q2425.82 521.333 2423.99 524.898 Q2422.18 528.44 2422.18 535.569 Q2422.18 542.676 2423.99 546.24 Q2425.82 549.782 2429.43 549.782 Q2433.06 549.782 2434.87 546.24 Q2436.69 542.676 2436.69 535.569 Q2436.69 528.44 2434.87 524.898 Q2433.06 521.333 2429.43 521.333 M2429.43 517.629 Q2435.24 517.629 2438.29 522.236 Q2441.37 526.819 2441.37 535.569 Q2441.37 544.296 2438.29 548.902 Q2435.24 553.486 2429.43 553.486 Q2423.62 553.486 2420.54 548.902 Q2417.48 544.296 2417.48 535.569 Q2417.48 526.819 2420.54 522.236 Q2423.62 517.629 2429.43 517.629 Z" fill="#000000" fill-rule="nonzero" fill-opacity="1" /><path clip-path="url(#clip370)" d="M2459.59 521.333 Q2455.98 521.333 2454.15 524.898 Q2452.34 528.44 2452.34 535.569 Q2452.34 542.676 2454.15 546.24 Q2455.98 549.782 2459.59 549.782 Q2463.22 549.782 2465.03 546.24 Q2466.86 542.676 2466.86 535.569 Q2466.86 528.44 2465.03 524.898 Q2463.22 521.333 2459.59 521.333 M2459.59 517.629 Q2465.4 517.629 2468.45 522.236 Q2471.53 526.819 2471.53 535.569 Q2471.53 544.296 2468.45 548.902 Q2465.4 553.486 2459.59 553.486 Q2453.78 553.486 2450.7 548.902 Q2447.64 544.296 2447.64 535.569 Q2447.64 526.819 2450.7 522.236 Q2453.78 517.629 2459.59 517.629 Z" fill="#000000" fill-rule="nonzero" fill-opacity="1" /><path clip-path="url(#clip370)" d="M2489.75 521.333 Q2486.14 521.333 2484.31 524.898 Q2482.5 528.44 2482.5 535.569 Q2482.5 542.676 2484.31 546.24 Q2486.14 549.782 2489.75 549.782 Q2493.38 549.782 2495.19 546.24 Q2497.02 542.676 2497.02 535.569 Q2497.02 528.44 2495.19 524.898 Q2493.38 521.333 2489.75 521.333 M2489.75 517.629 Q2495.56 517.629 2498.62 522.236 Q2501.69 526.819 2501.69 535.569 Q2501.69 544.296 2498.62 548.902 Q2495.56 553.486 2489.75 553.486 Q2483.94 553.486 2480.86 548.902 Q2477.81 544.296 2477.81 535.569 Q2477.81 526.819 2480.86 522.236 Q2483.94 517.629 2489.75 517.629 Z" fill="#000000" fill-rule="nonzero" fill-opacity="1" /><path clip-path="url(#clip370)" d="M2269.43 371.966 L2277.07 371.966 L2277.07 345.6 L2268.76 347.267 L2268.76 343.007 L2277.02 341.341 L2281.7 341.341 L2281.7 371.966 L2289.33 371.966 L2289.33 375.901 L2269.43 375.901 L2269.43 371.966 Z" fill="#000000" fill-rule="nonzero" fill-opacity="1" /><path clip-path="url(#clip370)" d="M2298.83 341.341 L2317.18 341.341 L2317.18 345.276 L2303.11 345.276 L2303.11 353.748 Q2304.13 353.401 2305.14 353.239 Q2306.16 353.054 2307.18 353.054 Q2312.97 353.054 2316.35 356.225 Q2319.73 359.396 2319.73 364.813 Q2319.73 370.392 2316.26 373.493 Q2312.78 376.572 2306.46 376.572 Q2304.29 376.572 2302.02 376.202 Q2299.77 375.831 2297.37 375.091 L2297.37 370.392 Q2299.45 371.526 2301.67 372.081 Q2303.89 372.637 2306.37 372.637 Q2310.38 372.637 2312.71 370.53 Q2315.05 368.424 2315.05 364.813 Q2315.05 361.202 2312.71 359.095 Q2310.38 356.989 2306.37 356.989 Q2304.5 356.989 2302.62 357.405 Q2300.77 357.822 2298.83 358.702 L2298.83 341.341 Z" fill="#000000" fill-rule="nonzero" fill-opacity="1" /><path clip-path="url(#clip370)" d="M2338.94 344.419 Q2335.33 344.419 2333.5 347.984 Q2331.7 351.526 2331.7 358.655 Q2331.7 365.762 2333.5 369.327 Q2335.33 372.868 2338.94 372.868 Q2342.57 372.868 2344.38 369.327 Q2346.21 365.762 2346.21 358.655 Q2346.21 351.526 2344.38 347.984 Q2342.57 344.419 2338.94 344.419 M2338.94 340.716 Q2344.75 340.716 2347.81 345.322 Q2350.89 349.906 2350.89 358.655 Q2350.89 367.382 2347.81 371.989 Q2344.75 376.572 2338.94 376.572 Q2333.13 376.572 2330.05 371.989 Q2327 367.382 2327 358.655 Q2327 349.906 2330.05 345.322 Q2333.13 340.716 2338.94 340.716 Z" fill="#000000" fill-rule="nonzero" fill-opacity="1" /><path clip-path="url(#clip370)" d="M2369.1 344.419 Q2365.49 344.419 2363.66 347.984 Q2361.86 351.526 2361.86 358.655 Q2361.86 365.762 2363.66 369.327 Q2365.49 372.868 2369.1 372.868 Q2372.74 372.868 2374.54 369.327 Q2376.37 365.762 2376.37 358.655 Q2376.37 351.526 2374.54 347.984 Q2372.74 344.419 2369.1 344.419 M2369.1 340.716 Q2374.91 340.716 2377.97 345.322 Q2381.05 349.906 2381.05 358.655 Q2381.05 367.382 2377.97 371.989 Q2374.91 376.572 2369.1 376.572 Q2363.29 376.572 2360.21 371.989 Q2357.16 367.382 2357.16 358.655 Q2357.16 349.906 2360.21 345.322 Q2363.29 340.716 2369.1 340.716 Z" fill="#000000" fill-rule="nonzero" fill-opacity="1" /><path clip-path="url(#clip370)" d="M2399.26 344.419 Q2395.65 344.419 2393.82 347.984 Q2392.02 351.526 2392.02 358.655 Q2392.02 365.762 2393.82 369.327 Q2395.65 372.868 2399.26 372.868 Q2402.9 372.868 2404.7 369.327 Q2406.53 365.762 2406.53 358.655 Q2406.53 351.526 2404.7 347.984 Q2402.9 344.419 2399.26 344.419 M2399.26 340.716 Q2405.07 340.716 2408.13 345.322 Q2411.21 349.906 2411.21 358.655 Q2411.21 367.382 2408.13 371.989 Q2405.07 376.572 2399.26 376.572 Q2393.45 376.572 2390.38 371.989 Q2387.32 367.382 2387.32 358.655 Q2387.32 349.906 2390.38 345.322 Q2393.45 340.716 2399.26 340.716 Z" fill="#000000" fill-rule="nonzero" fill-opacity="1" /><path clip-path="url(#clip370)" d="M2429.43 344.419 Q2425.82 344.419 2423.99 347.984 Q2422.18 351.526 2422.18 358.655 Q2422.18 365.762 2423.99 369.327 Q2425.82 372.868 2429.43 372.868 Q2433.06 372.868 2434.87 369.327 Q2436.69 365.762 2436.69 358.655 Q2436.69 351.526 2434.87 347.984 Q2433.06 344.419 2429.43 344.419 M2429.43 340.716 Q2435.24 340.716 2438.29 345.322 Q2441.37 349.906 2441.37 358.655 Q2441.37 367.382 2438.29 371.989 Q2435.24 376.572 2429.43 376.572 Q2423.62 376.572 2420.54 371.989 Q2417.48 367.382 2417.48 358.655 Q2417.48 349.906 2420.54 345.322 Q2423.62 340.716 2429.43 340.716 Z" fill="#000000" fill-rule="nonzero" fill-opacity="1" /><path clip-path="url(#clip370)" d="M2459.59 344.419 Q2455.98 344.419 2454.15 347.984 Q2452.34 351.526 2452.34 358.655 Q2452.34 365.762 2454.15 369.327 Q2455.98 372.868 2459.59 372.868 Q2463.22 372.868 2465.03 369.327 Q2466.86 365.762 2466.86 358.655 Q2466.86 351.526 2465.03 347.984 Q2463.22 344.419 2459.59 344.419 M2459.59 340.716 Q2465.4 340.716 2468.45 345.322 Q2471.53 349.906 2471.53 358.655 Q2471.53 367.382 2468.45 371.989 Q2465.4 376.572 2459.59 376.572 Q2453.78 376.572 2450.7 371.989 Q2447.64 367.382 2447.64 358.655 Q2447.64 349.906 2450.7 345.322 Q2453.78 340.716 2459.59 340.716 Z" fill="#000000" fill-rule="nonzero" fill-opacity="1" /><path clip-path="url(#clip370)" d="M2489.75 344.419 Q2486.14 344.419 2484.31 347.984 Q2482.5 351.526 2482.5 358.655 Q2482.5 365.762 2484.31 369.327 Q2486.14 372.868 2489.75 372.868 Q2493.38 372.868 2495.19 369.327 Q2497.02 365.762 2497.02 358.655 Q2497.02 351.526 2495.19 347.984 Q2493.38 344.419 2489.75 344.419 M2489.75 340.716 Q2495.56 340.716 2498.62 345.322 Q2501.69 349.906 2501.69 358.655 Q2501.69 367.382 2498.62 371.989 Q2495.56 376.572 2489.75 376.572 Q2483.94 376.572 2480.86 371.989 Q2477.81 367.382 2477.81 358.655 Q2477.81 349.906 2480.86 345.322 Q2483.94 340.716 2489.75 340.716 Z" fill="#000000" fill-rule="nonzero" fill-opacity="1" /><path clip-path="url(#clip370)" d="M2269.43 195.052 L2277.07 195.052 L2277.07 168.686 L2268.76 170.353 L2268.76 166.094 L2277.02 164.427 L2281.7 164.427 L2281.7 195.052 L2289.33 195.052 L2289.33 198.987 L2269.43 198.987 L2269.43 195.052 Z" fill="#000000" fill-rule="nonzero" fill-opacity="1" /><path clip-path="url(#clip370)" d="M2297.6 164.427 L2319.82 164.427 L2319.82 166.418 L2307.27 198.987 L2302.39 198.987 L2314.2 168.362 L2297.6 168.362 L2297.6 164.427 Z" fill="#000000" fill-rule="nonzero" fill-opacity="1" /><path clip-path="url(#clip370)" d="M2328.99 164.427 L2347.34 164.427 L2347.34 168.362 L2333.27 168.362 L2333.27 176.834 Q2334.29 176.487 2335.31 176.325 Q2336.32 176.14 2337.34 176.14 Q2343.13 176.14 2346.51 179.311 Q2349.89 182.483 2349.89 187.899 Q2349.89 193.478 2346.42 196.58 Q2342.95 199.658 2336.63 199.658 Q2334.45 199.658 2332.18 199.288 Q2329.94 198.918 2327.53 198.177 L2327.53 193.478 Q2329.61 194.612 2331.83 195.168 Q2334.06 195.723 2336.53 195.723 Q2340.54 195.723 2342.88 193.617 Q2345.21 191.51 2345.21 187.899 Q2345.21 184.288 2342.88 182.182 Q2340.54 180.075 2336.53 180.075 Q2334.66 180.075 2332.78 180.492 Q2330.93 180.908 2328.99 181.788 L2328.99 164.427 Z" fill="#000000" fill-rule="nonzero" fill-opacity="1" /><path clip-path="url(#clip370)" d="M2369.1 167.506 Q2365.49 167.506 2363.66 171.071 Q2361.86 174.612 2361.86 181.742 Q2361.86 188.848 2363.66 192.413 Q2365.49 195.955 2369.1 195.955 Q2372.74 195.955 2374.54 192.413 Q2376.37 188.848 2376.37 181.742 Q2376.37 174.612 2374.54 171.071 Q2372.74 167.506 2369.1 167.506 M2369.1 163.802 Q2374.91 163.802 2377.97 168.409 Q2381.05 172.992 2381.05 181.742 Q2381.05 190.469 2377.97 195.075 Q2374.91 199.658 2369.1 199.658 Q2363.29 199.658 2360.21 195.075 Q2357.16 190.469 2357.16 181.742 Q2357.16 172.992 2360.21 168.409 Q2363.29 163.802 2369.1 163.802 Z" fill="#000000" fill-rule="nonzero" fill-opacity="1" /><path clip-path="url(#clip370)" d="M2399.26 167.506 Q2395.65 167.506 2393.82 171.071 Q2392.02 174.612 2392.02 181.742 Q2392.02 188.848 2393.82 192.413 Q2395.65 195.955 2399.26 195.955 Q2402.9 195.955 2404.7 192.413 Q2406.53 188.848 2406.53 181.742 Q2406.53 174.612 2404.7 171.071 Q2402.9 167.506 2399.26 167.506 M2399.26 163.802 Q2405.07 163.802 2408.13 168.409 Q2411.21 172.992 2411.21 181.742 Q2411.21 190.469 2408.13 195.075 Q2405.07 199.658 2399.26 199.658 Q2393.45 199.658 2390.38 195.075 Q2387.32 190.469 2387.32 181.742 Q2387.32 172.992 2390.38 168.409 Q2393.45 163.802 2399.26 163.802 Z" fill="#000000" fill-rule="nonzero" fill-opacity="1" /><path clip-path="url(#clip370)" d="M2429.43 167.506 Q2425.82 167.506 2423.99 171.071 Q2422.18 174.612 2422.18 181.742 Q2422.18 188.848 2423.99 192.413 Q2425.82 195.955 2429.43 195.955 Q2433.06 195.955 2434.87 192.413 Q2436.69 188.848 2436.69 181.742 Q2436.69 174.612 2434.87 171.071 Q2433.06 167.506 2429.43 167.506 M2429.43 163.802 Q2435.24 163.802 2438.29 168.409 Q2441.37 172.992 2441.37 181.742 Q2441.37 190.469 2438.29 195.075 Q2435.24 199.658 2429.43 199.658 Q2423.62 199.658 2420.54 195.075 Q2417.48 190.469 2417.48 181.742 Q2417.48 172.992 2420.54 168.409 Q2423.62 163.802 2429.43 163.802 Z" fill="#000000" fill-rule="nonzero" fill-opacity="1" /><path clip-path="url(#clip370)" d="M2459.59 167.506 Q2455.98 167.506 2454.15 171.071 Q2452.34 174.612 2452.34 181.742 Q2452.34 188.848 2454.15 192.413 Q2455.98 195.955 2459.59 195.955 Q2463.22 195.955 2465.03 192.413 Q2466.86 188.848 2466.86 181.742 Q2466.86 174.612 2465.03 171.071 Q2463.22 167.506 2459.59 167.506 M2459.59 163.802 Q2465.4 163.802 2468.45 168.409 Q2471.53 172.992 2471.53 181.742 Q2471.53 190.469 2468.45 195.075 Q2465.4 199.658 2459.59 199.658 Q2453.78 199.658 2450.7 195.075 Q2447.64 190.469 2447.64 181.742 Q2447.64 172.992 2450.7 168.409 Q2453.78 163.802 2459.59 163.802 Z" fill="#000000" fill-rule="nonzero" fill-opacity="1" /><path clip-path="url(#clip370)" d="M2489.75 167.506 Q2486.14 167.506 2484.31 171.071 Q2482.5 174.612 2482.5 181.742 Q2482.5 188.848 2484.31 192.413 Q2486.14 195.955 2489.75 195.955 Q2493.38 195.955 2495.19 192.413 Q2497.02 188.848 2497.02 181.742 Q2497.02 174.612 2495.19 171.071 Q2493.38 167.506 2489.75 167.506 M2489.75 163.802 Q2495.56 163.802 2498.62 168.409 Q2501.69 172.992 2501.69 181.742 Q2501.69 190.469 2498.62 195.075 Q2495.56 199.658 2489.75 199.658 Q2483.94 199.658 2480.86 195.075 Q2477.81 190.469 2477.81 181.742 Q2477.81 172.992 2480.86 168.409 Q2483.94 163.802 2489.75 163.802 Z" fill="#000000" fill-rule="nonzero" fill-opacity="1" /><polyline clip-path="url(#clip370)" style="stroke:#000000; stroke-linecap:round; stroke-linejoin:round; stroke-width:4; stroke-opacity:1; fill:none" points="2232.76,1423.18 2232.76,1246.82 2256.76,1246.82 2232.76,1246.82 2232.76,1069.9 2256.76,1069.9 2232.76,1069.9 2232.76,892.991 2256.76,892.991 2232.76,892.991 2232.76,716.077 2256.76,716.077 2232.76,716.077 2232.76,539.163 2256.76,539.163 2232.76,539.163 2232.76,362.25 2256.76,362.25 2232.76,362.25 2232.76,185.336 2256.76,185.336 2232.76,185.336 2232.76,47.2441 "/>
</svg>
