<?xml version="1.0" encoding="utf-8"?>
<svg xmlns="http://www.w3.org/2000/svg" xmlns:xlink="http://www.w3.org/1999/xlink" width="600" height="400" viewBox="0 0 2400 1600">
<defs>
  <clipPath id="clip830">
    <rect x="0" y="0" width="2400" height="1600"/>
  </clipPath>
</defs>
<path clip-path="url(#clip830)" d="M0 1600 L2400 1600 L2400 0 L0 0  Z" fill="#ffffff" fill-rule="evenodd" fill-opacity="1"/>
<defs>
  <clipPath id="clip831">
    <rect x="480" y="0" width="1681" height="1600"/>
  </clipPath>
</defs>
<path clip-path="url(#clip830)" d="M219.033 1423.18 L2352.76 1423.18 L2352.76 47.2441 L219.033 47.2441  Z" fill="#ffffff" fill-rule="evenodd" fill-opacity="1"/>
<defs>
  <clipPath id="clip832">
    <rect x="219" y="47" width="2135" height="1377"/>
  </clipPath>
</defs>
<polyline clip-path="url(#clip832)" style="stroke:#000000; stroke-linecap:round; stroke-linejoin:round; stroke-width:2; stroke-opacity:0.1; fill:none" points="413.618,1423.18 413.618,47.2441 "/>
<polyline clip-path="url(#clip832)" style="stroke:#000000; stroke-linecap:round; stroke-linejoin:round; stroke-width:2; stroke-opacity:0.1; fill:none" points="682.011,1423.18 682.011,47.2441 "/>
<polyline clip-path="url(#clip832)" style="stroke:#000000; stroke-linecap:round; stroke-linejoin:round; stroke-width:2; stroke-opacity:0.1; fill:none" points="950.403,1423.18 950.403,47.2441 "/>
<polyline clip-path="url(#clip832)" style="stroke:#000000; stroke-linecap:round; stroke-linejoin:round; stroke-width:2; stroke-opacity:0.1; fill:none" points="1218.8,1423.18 1218.8,47.2441 "/>
<polyline clip-path="url(#clip832)" style="stroke:#000000; stroke-linecap:round; stroke-linejoin:round; stroke-width:2; stroke-opacity:0.1; fill:none" points="1487.19,1423.18 1487.19,47.2441 "/>
<polyline clip-path="url(#clip832)" style="stroke:#000000; stroke-linecap:round; stroke-linejoin:round; stroke-width:2; stroke-opacity:0.1; fill:none" points="1755.58,1423.18 1755.58,47.2441 "/>
<polyline clip-path="url(#clip832)" style="stroke:#000000; stroke-linecap:round; stroke-linejoin:round; stroke-width:2; stroke-opacity:0.1; fill:none" points="2023.97,1423.18 2023.97,47.2441 "/>
<polyline clip-path="url(#clip832)" style="stroke:#000000; stroke-linecap:round; stroke-linejoin:round; stroke-width:2; stroke-opacity:0.1; fill:none" points="2292.37,1423.18 2292.37,47.2441 "/>
<polyline clip-path="url(#clip830)" style="stroke:#000000; stroke-linecap:round; stroke-linejoin:round; stroke-width:4; stroke-opacity:1; fill:none" points="219.033,1423.18 2352.76,1423.18 "/>
<polyline clip-path="url(#clip830)" style="stroke:#000000; stroke-linecap:round; stroke-linejoin:round; stroke-width:4; stroke-opacity:1; fill:none" points="413.618,1423.18 413.618,1404.28 "/>
<polyline clip-path="url(#clip830)" style="stroke:#000000; stroke-linecap:round; stroke-linejoin:round; stroke-width:4; stroke-opacity:1; fill:none" points="682.011,1423.18 682.011,1404.28 "/>
<polyline clip-path="url(#clip830)" style="stroke:#000000; stroke-linecap:round; stroke-linejoin:round; stroke-width:4; stroke-opacity:1; fill:none" points="950.403,1423.18 950.403,1404.28 "/>
<polyline clip-path="url(#clip830)" style="stroke:#000000; stroke-linecap:round; stroke-linejoin:round; stroke-width:4; stroke-opacity:1; fill:none" points="1218.8,1423.18 1218.8,1404.28 "/>
<polyline clip-path="url(#clip830)" style="stroke:#000000; stroke-linecap:round; stroke-linejoin:round; stroke-width:4; stroke-opacity:1; fill:none" points="1487.19,1423.18 1487.19,1404.28 "/>
<polyline clip-path="url(#clip830)" style="stroke:#000000; stroke-linecap:round; stroke-linejoin:round; stroke-width:4; stroke-opacity:1; fill:none" points="1755.58,1423.18 1755.58,1404.28 "/>
<polyline clip-path="url(#clip830)" style="stroke:#000000; stroke-linecap:round; stroke-linejoin:round; stroke-width:4; stroke-opacity:1; fill:none" points="2023.97,1423.18 2023.97,1404.28 "/>
<polyline clip-path="url(#clip830)" style="stroke:#000000; stroke-linecap:round; stroke-linejoin:round; stroke-width:4; stroke-opacity:1; fill:none" points="2292.37,1423.18 2292.37,1404.28 "/>
<path clip-path="url(#clip830)" d="M402.287 1455.09 L390.481 1473.54 L402.287 1473.54 L402.287 1455.09 M401.06 1451.02 L406.94 1451.02 L406.94 1473.54 L411.87 1473.54 L411.87 1477.43 L406.94 1477.43 L406.94 1485.58 L402.287 1485.58 L402.287 1477.43 L386.685 1477.43 L386.685 1472.92 L401.06 1451.02 Z" fill="#000000" fill-rule="nonzero" fill-opacity="1" /><path clip-path="url(#clip830)" d="M419.648 1451.02 L438.004 1451.02 L438.004 1454.96 L423.93 1454.96 L423.93 1463.43 Q424.949 1463.08 425.967 1462.92 Q426.986 1462.73 428.004 1462.73 Q433.791 1462.73 437.171 1465.9 Q440.55 1469.08 440.55 1474.49 Q440.55 1480.07 437.078 1483.17 Q433.606 1486.25 427.287 1486.25 Q425.111 1486.25 422.842 1485.88 Q420.597 1485.51 418.189 1484.77 L418.189 1480.07 Q420.273 1481.2 422.495 1481.76 Q424.717 1482.32 427.194 1482.32 Q431.199 1482.32 433.537 1480.21 Q435.875 1478.1 435.875 1474.49 Q435.875 1470.88 433.537 1468.77 Q431.199 1466.67 427.194 1466.67 Q425.319 1466.67 423.444 1467.08 Q421.592 1467.5 419.648 1468.38 L419.648 1451.02 Z" fill="#000000" fill-rule="nonzero" fill-opacity="1" /><path clip-path="url(#clip830)" d="M670.275 1455.09 L658.469 1473.54 L670.275 1473.54 L670.275 1455.09 M669.048 1451.02 L674.927 1451.02 L674.927 1473.54 L679.858 1473.54 L679.858 1477.43 L674.927 1477.43 L674.927 1485.58 L670.275 1485.58 L670.275 1477.43 L654.673 1477.43 L654.673 1472.92 L669.048 1451.02 Z" fill="#000000" fill-rule="nonzero" fill-opacity="1" /><path clip-path="url(#clip830)" d="M687.728 1484.86 L687.728 1480.6 Q689.487 1481.44 691.293 1481.88 Q693.098 1482.32 694.835 1482.32 Q699.464 1482.32 701.895 1479.21 Q704.348 1476.09 704.696 1469.75 Q703.353 1471.74 701.293 1472.8 Q699.233 1473.87 696.733 1473.87 Q691.548 1473.87 688.515 1470.74 Q685.506 1467.59 685.506 1462.15 Q685.506 1456.83 688.654 1453.61 Q691.802 1450.39 697.034 1450.39 Q703.029 1450.39 706.177 1455 Q709.348 1459.58 709.348 1468.33 Q709.348 1476.51 705.46 1481.39 Q701.594 1486.25 695.043 1486.25 Q693.284 1486.25 691.478 1485.9 Q689.673 1485.56 687.728 1484.86 M697.034 1470.21 Q700.182 1470.21 702.01 1468.06 Q703.862 1465.9 703.862 1462.15 Q703.862 1458.43 702.01 1456.27 Q700.182 1454.1 697.034 1454.1 Q693.885 1454.1 692.034 1456.27 Q690.205 1458.43 690.205 1462.15 Q690.205 1465.9 692.034 1468.06 Q693.885 1470.21 697.034 1470.21 Z" fill="#000000" fill-rule="nonzero" fill-opacity="1" /><path clip-path="url(#clip830)" d="M935.276 1469.17 Q931.943 1469.17 930.022 1470.95 Q928.123 1472.73 928.123 1475.86 Q928.123 1478.98 930.022 1480.77 Q931.943 1482.55 935.276 1482.55 Q938.609 1482.55 940.531 1480.77 Q942.452 1478.96 942.452 1475.86 Q942.452 1472.73 940.531 1470.95 Q938.633 1469.17 935.276 1469.17 M930.6 1467.18 Q927.591 1466.44 925.901 1464.38 Q924.235 1462.32 924.235 1459.35 Q924.235 1455.21 927.174 1452.8 Q930.137 1450.39 935.276 1450.39 Q940.438 1450.39 943.378 1452.8 Q946.318 1455.21 946.318 1459.35 Q946.318 1462.32 944.628 1464.38 Q942.961 1466.44 939.975 1467.18 Q943.355 1467.96 945.23 1470.26 Q947.128 1472.55 947.128 1475.86 Q947.128 1480.88 944.049 1483.57 Q940.994 1486.25 935.276 1486.25 Q929.559 1486.25 926.48 1483.57 Q923.424 1480.88 923.424 1475.86 Q923.424 1472.55 925.323 1470.26 Q927.221 1467.96 930.6 1467.18 M928.887 1459.79 Q928.887 1462.48 930.554 1463.98 Q932.244 1465.49 935.276 1465.49 Q938.285 1465.49 939.975 1463.98 Q941.688 1462.48 941.688 1459.79 Q941.688 1457.11 939.975 1455.6 Q938.285 1454.1 935.276 1454.1 Q932.244 1454.1 930.554 1455.6 Q928.887 1457.11 928.887 1459.79 Z" fill="#000000" fill-rule="nonzero" fill-opacity="1" /><path clip-path="url(#clip830)" d="M965.438 1454.1 Q961.827 1454.1 959.998 1457.66 Q958.193 1461.2 958.193 1468.33 Q958.193 1475.44 959.998 1479.01 Q961.827 1482.55 965.438 1482.55 Q969.072 1482.55 970.878 1479.01 Q972.707 1475.44 972.707 1468.33 Q972.707 1461.2 970.878 1457.66 Q969.072 1454.1 965.438 1454.1 M965.438 1450.39 Q971.248 1450.39 974.304 1455 Q977.382 1459.58 977.382 1468.33 Q977.382 1477.06 974.304 1481.67 Q971.248 1486.25 965.438 1486.25 Q959.628 1486.25 956.549 1481.67 Q953.494 1477.06 953.494 1468.33 Q953.494 1459.58 956.549 1455 Q959.628 1450.39 965.438 1450.39 Z" fill="#000000" fill-rule="nonzero" fill-opacity="1" /><path clip-path="url(#clip830)" d="M1208.44 1466.95 Q1211.79 1467.66 1213.67 1469.93 Q1215.57 1472.2 1215.57 1475.53 Q1215.57 1480.65 1212.05 1483.45 Q1208.53 1486.25 1202.05 1486.25 Q1199.87 1486.25 1197.56 1485.81 Q1195.27 1485.39 1192.81 1484.54 L1192.81 1480.02 Q1194.76 1481.16 1197.07 1481.74 Q1199.39 1482.32 1201.91 1482.32 Q1206.31 1482.32 1208.6 1480.58 Q1210.91 1478.84 1210.91 1475.53 Q1210.91 1472.48 1208.76 1470.77 Q1206.63 1469.03 1202.81 1469.03 L1198.78 1469.03 L1198.78 1465.19 L1203 1465.19 Q1206.45 1465.19 1208.28 1463.82 Q1210.1 1462.43 1210.1 1459.84 Q1210.1 1457.18 1208.21 1455.77 Q1206.33 1454.33 1202.81 1454.33 Q1200.89 1454.33 1198.69 1454.75 Q1196.49 1455.16 1193.85 1456.04 L1193.85 1451.88 Q1196.52 1451.14 1198.83 1450.77 Q1201.17 1450.39 1203.23 1450.39 Q1208.55 1450.39 1211.66 1452.83 Q1214.76 1455.23 1214.76 1459.35 Q1214.76 1462.22 1213.11 1464.21 Q1211.47 1466.18 1208.44 1466.95 Z" fill="#000000" fill-rule="nonzero" fill-opacity="1" /><path clip-path="url(#clip830)" d="M1228.46 1481.64 L1244.78 1481.64 L1244.78 1485.58 L1222.84 1485.58 L1222.84 1481.64 Q1225.5 1478.89 1230.08 1474.26 Q1234.69 1469.61 1235.87 1468.27 Q1238.11 1465.74 1238.99 1464.01 Q1239.9 1462.25 1239.9 1460.56 Q1239.9 1457.8 1237.95 1456.07 Q1236.03 1454.33 1232.93 1454.33 Q1230.73 1454.33 1228.28 1455.09 Q1225.84 1455.86 1223.07 1457.41 L1223.07 1452.69 Q1225.89 1451.55 1228.34 1450.97 Q1230.8 1450.39 1232.84 1450.39 Q1238.21 1450.39 1241.4 1453.08 Q1244.59 1455.77 1244.59 1460.26 Q1244.59 1462.39 1243.78 1464.31 Q1243 1466.2 1240.89 1468.8 Q1240.31 1469.47 1237.21 1472.69 Q1234.11 1475.88 1228.46 1481.64 Z" fill="#000000" fill-rule="nonzero" fill-opacity="1" /><path clip-path="url(#clip830)" d="M1471.98 1469.17 Q1468.65 1469.17 1466.73 1470.95 Q1464.83 1472.73 1464.83 1475.86 Q1464.83 1478.98 1466.73 1480.77 Q1468.65 1482.55 1471.98 1482.55 Q1475.31 1482.55 1477.24 1480.77 Q1479.16 1478.96 1479.16 1475.86 Q1479.16 1472.73 1477.24 1470.95 Q1475.34 1469.17 1471.98 1469.17 M1467.3 1467.18 Q1464.3 1466.44 1462.61 1464.38 Q1460.94 1462.32 1460.94 1459.35 Q1460.94 1455.21 1463.88 1452.8 Q1466.84 1450.39 1471.98 1450.39 Q1477.14 1450.39 1480.08 1452.8 Q1483.02 1455.21 1483.02 1459.35 Q1483.02 1462.32 1481.33 1464.38 Q1479.67 1466.44 1476.68 1467.18 Q1480.06 1467.96 1481.93 1470.26 Q1483.83 1472.55 1483.83 1475.86 Q1483.83 1480.88 1480.75 1483.57 Q1477.7 1486.25 1471.98 1486.25 Q1466.26 1486.25 1463.18 1483.57 Q1460.13 1480.88 1460.13 1475.86 Q1460.13 1472.55 1462.03 1470.26 Q1463.93 1467.96 1467.3 1467.18 M1465.59 1459.79 Q1465.59 1462.48 1467.26 1463.98 Q1468.95 1465.49 1471.98 1465.49 Q1474.99 1465.49 1476.68 1463.98 Q1478.39 1462.48 1478.39 1459.79 Q1478.39 1457.11 1476.68 1455.6 Q1474.99 1454.1 1471.98 1454.1 Q1468.95 1454.1 1467.26 1455.6 Q1465.59 1457.11 1465.59 1459.79 Z" fill="#000000" fill-rule="nonzero" fill-opacity="1" /><path clip-path="url(#clip830)" d="M1502.72 1466.44 Q1499.57 1466.44 1497.72 1468.59 Q1495.89 1470.74 1495.89 1474.49 Q1495.89 1478.22 1497.72 1480.39 Q1499.57 1482.55 1502.72 1482.55 Q1505.87 1482.55 1507.7 1480.39 Q1509.55 1478.22 1509.55 1474.49 Q1509.55 1470.74 1507.7 1468.59 Q1505.87 1466.44 1502.72 1466.44 M1512 1451.78 L1512 1456.04 Q1510.24 1455.21 1508.44 1454.77 Q1506.66 1454.33 1504.9 1454.33 Q1500.27 1454.33 1497.81 1457.45 Q1495.38 1460.58 1495.04 1466.9 Q1496.4 1464.89 1498.46 1463.82 Q1500.52 1462.73 1503 1462.73 Q1508.21 1462.73 1511.22 1465.9 Q1514.25 1469.05 1514.25 1474.49 Q1514.25 1479.82 1511.1 1483.03 Q1507.95 1486.25 1502.72 1486.25 Q1496.73 1486.25 1493.55 1481.67 Q1490.38 1477.06 1490.38 1468.33 Q1490.38 1460.14 1494.27 1455.28 Q1498.16 1450.39 1504.71 1450.39 Q1506.47 1450.39 1508.25 1450.74 Q1510.06 1451.09 1512 1451.78 Z" fill="#000000" fill-rule="nonzero" fill-opacity="1" /><path clip-path="url(#clip830)" d="M1724.16 1451.02 L1730.45 1451.02 L1745.78 1479.93 L1745.78 1451.02 L1750.32 1451.02 L1750.32 1485.58 L1744.02 1485.58 L1728.7 1456.67 L1728.7 1485.58 L1724.16 1485.58 L1724.16 1451.02 Z" fill="#000000" fill-rule="nonzero" fill-opacity="1" /><path clip-path="url(#clip830)" d="M1771.17 1455.63 L1764.83 1472.83 L1777.54 1472.83 L1771.17 1455.63 M1768.53 1451.02 L1773.83 1451.02 L1787.01 1485.58 L1782.14 1485.58 L1779 1476.71 L1763.42 1476.71 L1760.27 1485.58 L1755.34 1485.58 L1768.53 1451.02 Z" fill="#000000" fill-rule="nonzero" fill-opacity="1" /><path clip-path="url(#clip830)" d="M1997.38 1451.02 L2019.6 1451.02 L2019.6 1453.01 L2007.05 1485.58 L2002.17 1485.58 L2013.97 1454.96 L1997.38 1454.96 L1997.38 1451.02 Z" fill="#000000" fill-rule="nonzero" fill-opacity="1" /><path clip-path="url(#clip830)" d="M2038.72 1469.17 Q2035.39 1469.17 2033.47 1470.95 Q2031.57 1472.73 2031.57 1475.86 Q2031.57 1478.98 2033.47 1480.77 Q2035.39 1482.55 2038.72 1482.55 Q2042.05 1482.55 2043.97 1480.77 Q2045.9 1478.96 2045.9 1475.86 Q2045.9 1472.73 2043.97 1470.95 Q2042.08 1469.17 2038.72 1469.17 M2034.04 1467.18 Q2031.03 1466.44 2029.35 1464.38 Q2027.68 1462.32 2027.68 1459.35 Q2027.68 1455.21 2030.62 1452.8 Q2033.58 1450.39 2038.72 1450.39 Q2043.88 1450.39 2046.82 1452.8 Q2049.76 1455.21 2049.76 1459.35 Q2049.76 1462.32 2048.07 1464.38 Q2046.41 1466.44 2043.42 1467.18 Q2046.8 1467.96 2048.67 1470.26 Q2050.57 1472.55 2050.57 1475.86 Q2050.57 1480.88 2047.49 1483.57 Q2044.44 1486.25 2038.72 1486.25 Q2033 1486.25 2029.92 1483.57 Q2026.87 1480.88 2026.87 1475.86 Q2026.87 1472.55 2028.77 1470.26 Q2030.66 1467.96 2034.04 1467.18 M2032.33 1459.79 Q2032.33 1462.48 2034 1463.98 Q2035.69 1465.49 2038.72 1465.49 Q2041.73 1465.49 2043.42 1463.98 Q2045.13 1462.48 2045.13 1459.79 Q2045.13 1457.11 2043.42 1455.6 Q2041.73 1454.1 2038.72 1454.1 Q2035.69 1454.1 2034 1455.6 Q2032.33 1457.11 2032.33 1459.79 Z" fill="#000000" fill-rule="nonzero" fill-opacity="1" /><path clip-path="url(#clip830)" d="M2267.07 1451.02 L2285.42 1451.02 L2285.42 1454.96 L2271.35 1454.96 L2271.35 1463.43 Q2272.37 1463.08 2273.39 1462.92 Q2274.4 1462.73 2275.42 1462.73 Q2281.21 1462.73 2284.59 1465.9 Q2287.97 1469.08 2287.97 1474.49 Q2287.97 1480.07 2284.5 1483.17 Q2281.02 1486.25 2274.71 1486.25 Q2272.53 1486.25 2270.26 1485.88 Q2268.02 1485.51 2265.61 1484.77 L2265.61 1480.07 Q2267.69 1481.2 2269.91 1481.76 Q2272.14 1482.32 2274.61 1482.32 Q2278.62 1482.32 2280.96 1480.21 Q2283.29 1478.1 2283.29 1474.49 Q2283.29 1470.88 2280.96 1468.77 Q2278.62 1466.67 2274.61 1466.67 Q2272.74 1466.67 2270.86 1467.08 Q2269.01 1467.5 2267.07 1468.38 L2267.07 1451.02 Z" fill="#000000" fill-rule="nonzero" fill-opacity="1" /><path clip-path="url(#clip830)" d="M2307.18 1454.1 Q2303.57 1454.1 2301.74 1457.66 Q2299.94 1461.2 2299.94 1468.33 Q2299.94 1475.44 2301.74 1479.01 Q2303.57 1482.55 2307.18 1482.55 Q2310.82 1482.55 2312.62 1479.01 Q2314.45 1475.44 2314.45 1468.33 Q2314.45 1461.2 2312.62 1457.66 Q2310.82 1454.1 2307.18 1454.1 M2307.18 1450.39 Q2312.99 1450.39 2316.05 1455 Q2319.13 1459.58 2319.13 1468.33 Q2319.13 1477.06 2316.05 1481.67 Q2312.99 1486.25 2307.18 1486.25 Q2301.37 1486.25 2298.29 1481.67 Q2295.24 1477.06 2295.24 1468.33 Q2295.24 1459.58 2298.29 1455 Q2301.37 1450.39 2307.18 1450.39 Z" fill="#000000" fill-rule="nonzero" fill-opacity="1" /><path clip-path="url(#clip830)" d="M1174.21 1520.52 L1180.7 1520.52 L1190.7 1560.69 L1200.66 1520.52 L1207.88 1520.52 L1217.88 1560.69 L1227.84 1520.52 L1234.36 1520.52 L1222.43 1568.04 L1214.34 1568.04 L1204.32 1526.79 L1194.2 1568.04 L1186.11 1568.04 L1174.21 1520.52 Z" fill="#000000" fill-rule="nonzero" fill-opacity="1" /><path clip-path="url(#clip830)" d="M1269.31 1548.76 L1269.31 1551.62 L1242.38 1551.62 Q1242.77 1557.67 1246.01 1560.85 Q1249.29 1564 1255.12 1564 Q1258.49 1564 1261.64 1563.17 Q1264.82 1562.35 1267.94 1560.69 L1267.94 1566.23 Q1264.79 1567.57 1261.48 1568.27 Q1258.17 1568.97 1254.77 1568.97 Q1246.24 1568.97 1241.24 1564 Q1236.27 1559.04 1236.27 1550.57 Q1236.27 1541.82 1240.98 1536.69 Q1245.73 1531.54 1253.75 1531.54 Q1260.94 1531.54 1265.11 1536.18 Q1269.31 1540.8 1269.31 1548.76 M1263.46 1547.04 Q1263.39 1542.23 1260.75 1539.37 Q1258.14 1536.5 1253.81 1536.5 Q1248.91 1536.5 1245.95 1539.27 Q1243.02 1542.04 1242.58 1547.07 L1263.46 1547.04 Z" fill="#000000" fill-rule="nonzero" fill-opacity="1" /><path clip-path="url(#clip830)" d="M1278.92 1532.4 L1284.78 1532.4 L1284.78 1568.04 L1278.92 1568.04 L1278.92 1532.4 M1278.92 1518.52 L1284.78 1518.52 L1284.78 1525.93 L1278.92 1525.93 L1278.92 1518.52 Z" fill="#000000" fill-rule="nonzero" fill-opacity="1" /><path clip-path="url(#clip830)" d="M1320.49 1549.81 Q1320.49 1543.44 1317.85 1539.94 Q1315.24 1536.44 1310.5 1536.44 Q1305.79 1536.44 1303.15 1539.94 Q1300.54 1543.44 1300.54 1549.81 Q1300.54 1556.14 1303.15 1559.64 Q1305.79 1563.14 1310.5 1563.14 Q1315.24 1563.14 1317.85 1559.64 Q1320.49 1556.14 1320.49 1549.81 M1326.35 1563.62 Q1326.35 1572.72 1322.31 1577.15 Q1318.26 1581.6 1309.92 1581.6 Q1306.84 1581.6 1304.1 1581.13 Q1301.36 1580.68 1298.78 1579.72 L1298.78 1574.03 Q1301.36 1575.43 1303.88 1576.1 Q1306.39 1576.76 1309 1576.76 Q1314.76 1576.76 1317.63 1573.74 Q1320.49 1570.75 1320.49 1564.67 L1320.49 1561.77 Q1318.68 1564.92 1315.85 1566.48 Q1313.01 1568.04 1309.07 1568.04 Q1302.51 1568.04 1298.5 1563.05 Q1294.49 1558.05 1294.49 1549.81 Q1294.49 1541.53 1298.5 1536.53 Q1302.51 1531.54 1309.07 1531.54 Q1313.01 1531.54 1315.85 1533.1 Q1318.68 1534.66 1320.49 1537.81 L1320.49 1532.4 L1326.35 1532.4 L1326.35 1563.62 Z" fill="#000000" fill-rule="nonzero" fill-opacity="1" /><path clip-path="url(#clip830)" d="M1368.04 1546.53 L1368.04 1568.04 L1362.19 1568.04 L1362.19 1546.72 Q1362.19 1541.66 1360.21 1539.14 Q1358.24 1536.63 1354.29 1536.63 Q1349.55 1536.63 1346.81 1539.65 Q1344.08 1542.68 1344.08 1547.9 L1344.08 1568.04 L1338.19 1568.04 L1338.19 1518.52 L1344.08 1518.52 L1344.08 1537.93 Q1346.18 1534.72 1349.01 1533.13 Q1351.87 1531.54 1355.6 1531.54 Q1361.74 1531.54 1364.89 1535.36 Q1368.04 1539.14 1368.04 1546.53 Z" fill="#000000" fill-rule="nonzero" fill-opacity="1" /><path clip-path="url(#clip830)" d="M1385.52 1522.27 L1385.52 1532.4 L1397.58 1532.4 L1397.58 1536.95 L1385.52 1536.95 L1385.52 1556.3 Q1385.52 1560.66 1386.7 1561.9 Q1387.9 1563.14 1391.57 1563.14 L1397.58 1563.14 L1397.58 1568.04 L1391.57 1568.04 Q1384.79 1568.04 1382.21 1565.53 Q1379.63 1562.98 1379.63 1556.3 L1379.63 1536.95 L1375.33 1536.95 L1375.33 1532.4 L1379.63 1532.4 L1379.63 1522.27 L1385.52 1522.27 Z" fill="#000000" fill-rule="nonzero" fill-opacity="1" /><polyline clip-path="url(#clip832)" style="stroke:#000000; stroke-linecap:round; stroke-linejoin:round; stroke-width:2; stroke-opacity:0.1; fill:none" points="219.033,1248.02 2352.76,1248.02 "/>
<polyline clip-path="url(#clip832)" style="stroke:#000000; stroke-linecap:round; stroke-linejoin:round; stroke-width:2; stroke-opacity:0.1; fill:none" points="219.033,1047.71 2352.76,1047.71 "/>
<polyline clip-path="url(#clip832)" style="stroke:#000000; stroke-linecap:round; stroke-linejoin:round; stroke-width:2; stroke-opacity:0.1; fill:none" points="219.033,847.389 2352.76,847.389 "/>
<polyline clip-path="url(#clip832)" style="stroke:#000000; stroke-linecap:round; stroke-linejoin:round; stroke-width:2; stroke-opacity:0.1; fill:none" points="219.033,647.073 2352.76,647.073 "/>
<polyline clip-path="url(#clip832)" style="stroke:#000000; stroke-linecap:round; stroke-linejoin:round; stroke-width:2; stroke-opacity:0.1; fill:none" points="219.033,446.756 2352.76,446.756 "/>
<polyline clip-path="url(#clip832)" style="stroke:#000000; stroke-linecap:round; stroke-linejoin:round; stroke-width:2; stroke-opacity:0.1; fill:none" points="219.033,246.439 2352.76,246.439 "/>
<polyline clip-path="url(#clip830)" style="stroke:#000000; stroke-linecap:round; stroke-linejoin:round; stroke-width:4; stroke-opacity:1; fill:none" points="219.033,1423.18 219.033,47.2441 "/>
<polyline clip-path="url(#clip830)" style="stroke:#000000; stroke-linecap:round; stroke-linejoin:round; stroke-width:4; stroke-opacity:1; fill:none" points="219.033,1248.02 237.931,1248.02 "/>
<polyline clip-path="url(#clip830)" style="stroke:#000000; stroke-linecap:round; stroke-linejoin:round; stroke-width:4; stroke-opacity:1; fill:none" points="219.033,1047.71 237.931,1047.71 "/>
<polyline clip-path="url(#clip830)" style="stroke:#000000; stroke-linecap:round; stroke-linejoin:round; stroke-width:4; stroke-opacity:1; fill:none" points="219.033,847.389 237.931,847.389 "/>
<polyline clip-path="url(#clip830)" style="stroke:#000000; stroke-linecap:round; stroke-linejoin:round; stroke-width:4; stroke-opacity:1; fill:none" points="219.033,647.073 237.931,647.073 "/>
<polyline clip-path="url(#clip830)" style="stroke:#000000; stroke-linecap:round; stroke-linejoin:round; stroke-width:4; stroke-opacity:1; fill:none" points="219.033,446.756 237.931,446.756 "/>
<polyline clip-path="url(#clip830)" style="stroke:#000000; stroke-linecap:round; stroke-linejoin:round; stroke-width:4; stroke-opacity:1; fill:none" points="219.033,246.439 237.931,246.439 "/>
<path clip-path="url(#clip830)" d="M116.668 1261.37 L124.306 1261.37 L124.306 1235 L115.996 1236.67 L115.996 1232.41 L124.26 1230.74 L128.936 1230.74 L128.936 1261.37 L136.575 1261.37 L136.575 1265.3 L116.668 1265.3 L116.668 1261.37 Z" fill="#000000" fill-rule="nonzero" fill-opacity="1" /><path clip-path="url(#clip830)" d="M146.019 1259.42 L150.903 1259.42 L150.903 1265.3 L146.019 1265.3 L146.019 1259.42 Z" fill="#000000" fill-rule="nonzero" fill-opacity="1" /><path clip-path="url(#clip830)" d="M171.089 1233.82 Q167.477 1233.82 165.649 1237.39 Q163.843 1240.93 163.843 1248.06 Q163.843 1255.16 165.649 1258.73 Q167.477 1262.27 171.089 1262.27 Q174.723 1262.27 176.528 1258.73 Q178.357 1255.16 178.357 1248.06 Q178.357 1240.93 176.528 1237.39 Q174.723 1233.82 171.089 1233.82 M171.089 1230.12 Q176.899 1230.12 179.954 1234.72 Q183.033 1239.31 183.033 1248.06 Q183.033 1256.78 179.954 1261.39 Q176.899 1265.97 171.089 1265.97 Q165.278 1265.97 162.2 1261.39 Q159.144 1256.78 159.144 1248.06 Q159.144 1239.31 162.2 1234.72 Q165.278 1230.12 171.089 1230.12 Z" fill="#000000" fill-rule="nonzero" fill-opacity="1" /><path clip-path="url(#clip830)" d="M117.663 1061.05 L125.302 1061.05 L125.302 1034.69 L116.992 1036.35 L116.992 1032.09 L125.255 1030.43 L129.931 1030.43 L129.931 1061.05 L137.57 1061.05 L137.57 1064.99 L117.663 1064.99 L117.663 1061.05 Z" fill="#000000" fill-rule="nonzero" fill-opacity="1" /><path clip-path="url(#clip830)" d="M147.015 1059.11 L151.899 1059.11 L151.899 1064.99 L147.015 1064.99 L147.015 1059.11 Z" fill="#000000" fill-rule="nonzero" fill-opacity="1" /><path clip-path="url(#clip830)" d="M162.13 1030.43 L180.487 1030.43 L180.487 1034.36 L166.413 1034.36 L166.413 1042.83 Q167.431 1042.49 168.45 1042.32 Q169.468 1042.14 170.487 1042.14 Q176.274 1042.14 179.653 1045.31 Q183.033 1048.48 183.033 1053.9 Q183.033 1059.48 179.561 1062.58 Q176.089 1065.66 169.769 1065.66 Q167.593 1065.66 165.325 1065.29 Q163.079 1064.92 160.672 1064.18 L160.672 1059.48 Q162.755 1060.61 164.977 1061.17 Q167.2 1061.72 169.677 1061.72 Q173.681 1061.72 176.019 1059.62 Q178.357 1057.51 178.357 1053.9 Q178.357 1050.29 176.019 1048.18 Q173.681 1046.07 169.677 1046.07 Q167.802 1046.07 165.927 1046.49 Q164.075 1046.91 162.13 1047.79 L162.13 1030.43 Z" fill="#000000" fill-rule="nonzero" fill-opacity="1" /><path clip-path="url(#clip830)" d="M119.885 860.734 L136.204 860.734 L136.204 864.669 L114.26 864.669 L114.26 860.734 Q116.922 857.98 121.505 853.35 Q126.112 848.697 127.292 847.355 Q129.538 844.831 130.417 843.095 Q131.32 841.336 131.32 839.646 Q131.32 836.892 129.376 835.156 Q127.455 833.42 124.353 833.42 Q122.154 833.42 119.7 834.183 Q117.269 834.947 114.492 836.498 L114.492 831.776 Q117.316 830.642 119.769 830.063 Q122.223 829.484 124.26 829.484 Q129.63 829.484 132.825 832.17 Q136.019 834.855 136.019 839.345 Q136.019 841.475 135.209 843.396 Q134.422 845.294 132.316 847.887 Q131.737 848.558 128.635 851.776 Q125.533 854.97 119.885 860.734 Z" fill="#000000" fill-rule="nonzero" fill-opacity="1" /><path clip-path="url(#clip830)" d="M146.019 858.79 L150.903 858.79 L150.903 864.669 L146.019 864.669 L146.019 858.79 Z" fill="#000000" fill-rule="nonzero" fill-opacity="1" /><path clip-path="url(#clip830)" d="M171.089 833.188 Q167.477 833.188 165.649 836.753 Q163.843 840.294 163.843 847.424 Q163.843 854.531 165.649 858.095 Q167.477 861.637 171.089 861.637 Q174.723 861.637 176.528 858.095 Q178.357 854.531 178.357 847.424 Q178.357 840.294 176.528 836.753 Q174.723 833.188 171.089 833.188 M171.089 829.484 Q176.899 829.484 179.954 834.091 Q183.033 838.674 183.033 847.424 Q183.033 856.151 179.954 860.757 Q176.899 865.341 171.089 865.341 Q165.278 865.341 162.2 860.757 Q159.144 856.151 159.144 847.424 Q159.144 838.674 162.2 834.091 Q165.278 829.484 171.089 829.484 Z" fill="#000000" fill-rule="nonzero" fill-opacity="1" /><path clip-path="url(#clip830)" d="M120.88 660.417 L137.2 660.417 L137.2 664.353 L115.256 664.353 L115.256 660.417 Q117.918 657.663 122.501 653.033 Q127.107 648.38 128.288 647.038 Q130.533 644.515 131.413 642.779 Q132.316 641.019 132.316 639.33 Q132.316 636.575 130.371 634.839 Q128.45 633.103 125.348 633.103 Q123.149 633.103 120.695 633.867 Q118.265 634.631 115.487 636.181 L115.487 631.459 Q118.311 630.325 120.765 629.746 Q123.218 629.168 125.255 629.168 Q130.626 629.168 133.82 631.853 Q137.015 634.538 137.015 639.029 Q137.015 641.158 136.204 643.08 Q135.417 644.978 133.311 647.57 Q132.732 648.242 129.63 651.459 Q126.529 654.654 120.88 660.417 Z" fill="#000000" fill-rule="nonzero" fill-opacity="1" /><path clip-path="url(#clip830)" d="M147.015 658.473 L151.899 658.473 L151.899 664.353 L147.015 664.353 L147.015 658.473 Z" fill="#000000" fill-rule="nonzero" fill-opacity="1" /><path clip-path="url(#clip830)" d="M162.13 629.793 L180.487 629.793 L180.487 633.728 L166.413 633.728 L166.413 642.2 Q167.431 641.853 168.45 641.691 Q169.468 641.505 170.487 641.505 Q176.274 641.505 179.653 644.677 Q183.033 647.848 183.033 653.265 Q183.033 658.843 179.561 661.945 Q176.089 665.024 169.769 665.024 Q167.593 665.024 165.325 664.654 Q163.079 664.283 160.672 663.542 L160.672 658.843 Q162.755 659.978 164.977 660.533 Q167.2 661.089 169.677 661.089 Q173.681 661.089 176.019 658.982 Q178.357 656.876 178.357 653.265 Q178.357 649.654 176.019 647.547 Q173.681 645.441 169.677 645.441 Q167.802 645.441 165.927 645.857 Q164.075 646.274 162.13 647.154 L162.13 629.793 Z" fill="#000000" fill-rule="nonzero" fill-opacity="1" /><path clip-path="url(#clip830)" d="M130.024 445.402 Q133.38 446.119 135.255 448.388 Q137.154 450.656 137.154 453.99 Q137.154 459.105 133.635 461.906 Q130.117 464.707 123.635 464.707 Q121.459 464.707 119.144 464.267 Q116.853 463.851 114.399 462.994 L114.399 458.48 Q116.343 459.615 118.658 460.193 Q120.973 460.772 123.496 460.772 Q127.894 460.772 130.186 459.036 Q132.501 457.3 132.501 453.99 Q132.501 450.934 130.348 449.221 Q128.218 447.485 124.399 447.485 L120.371 447.485 L120.371 443.642 L124.584 443.642 Q128.033 443.642 129.862 442.277 Q131.691 440.888 131.691 438.295 Q131.691 435.633 129.792 434.221 Q127.917 432.786 124.399 432.786 Q122.478 432.786 120.279 433.203 Q118.08 433.619 115.441 434.499 L115.441 430.332 Q118.103 429.592 120.418 429.221 Q122.755 428.851 124.816 428.851 Q130.14 428.851 133.242 431.281 Q136.343 433.689 136.343 437.809 Q136.343 440.679 134.7 442.67 Q133.056 444.638 130.024 445.402 Z" fill="#000000" fill-rule="nonzero" fill-opacity="1" /><path clip-path="url(#clip830)" d="M146.019 458.156 L150.903 458.156 L150.903 464.036 L146.019 464.036 L146.019 458.156 Z" fill="#000000" fill-rule="nonzero" fill-opacity="1" /><path clip-path="url(#clip830)" d="M171.089 432.555 Q167.477 432.555 165.649 436.119 Q163.843 439.661 163.843 446.791 Q163.843 453.897 165.649 457.462 Q167.477 461.003 171.089 461.003 Q174.723 461.003 176.528 457.462 Q178.357 453.897 178.357 446.791 Q178.357 439.661 176.528 436.119 Q174.723 432.555 171.089 432.555 M171.089 428.851 Q176.899 428.851 179.954 433.457 Q183.033 438.041 183.033 446.791 Q183.033 455.517 179.954 460.124 Q176.899 464.707 171.089 464.707 Q165.278 464.707 162.2 460.124 Q159.144 455.517 159.144 446.791 Q159.144 438.041 162.2 433.457 Q165.278 428.851 171.089 428.851 Z" fill="#000000" fill-rule="nonzero" fill-opacity="1" /><path clip-path="url(#clip830)" d="M131.019 245.085 Q134.376 245.803 136.251 248.071 Q138.149 250.34 138.149 253.673 Q138.149 258.789 134.63 261.589 Q131.112 264.39 124.63 264.39 Q122.455 264.39 120.14 263.951 Q117.848 263.534 115.394 262.677 L115.394 258.164 Q117.339 259.298 119.654 259.877 Q121.968 260.455 124.492 260.455 Q128.89 260.455 131.181 258.719 Q133.496 256.983 133.496 253.673 Q133.496 250.617 131.343 248.904 Q129.214 247.168 125.394 247.168 L121.367 247.168 L121.367 243.326 L125.58 243.326 Q129.029 243.326 130.857 241.96 Q132.686 240.571 132.686 237.978 Q132.686 235.316 130.788 233.904 Q128.913 232.469 125.394 232.469 Q123.473 232.469 121.274 232.886 Q119.075 233.303 116.436 234.182 L116.436 230.016 Q119.098 229.275 121.413 228.904 Q123.751 228.534 125.811 228.534 Q131.135 228.534 134.237 230.965 Q137.339 233.372 137.339 237.492 Q137.339 240.363 135.695 242.353 Q134.052 244.321 131.019 245.085 Z" fill="#000000" fill-rule="nonzero" fill-opacity="1" /><path clip-path="url(#clip830)" d="M147.015 257.839 L151.899 257.839 L151.899 263.719 L147.015 263.719 L147.015 257.839 Z" fill="#000000" fill-rule="nonzero" fill-opacity="1" /><path clip-path="url(#clip830)" d="M162.13 229.159 L180.487 229.159 L180.487 233.094 L166.413 233.094 L166.413 241.566 Q167.431 241.219 168.45 241.057 Q169.468 240.872 170.487 240.872 Q176.274 240.872 179.653 244.043 Q183.033 247.215 183.033 252.631 Q183.033 258.21 179.561 261.312 Q176.089 264.39 169.769 264.39 Q167.593 264.39 165.325 264.02 Q163.079 263.65 160.672 262.909 L160.672 258.21 Q162.755 259.344 164.977 259.9 Q167.2 260.455 169.677 260.455 Q173.681 260.455 176.019 258.349 Q178.357 256.242 178.357 252.631 Q178.357 249.02 176.019 246.914 Q173.681 244.807 169.677 244.807 Q167.802 244.807 165.927 245.224 Q164.075 245.64 162.13 246.52 L162.13 229.159 Z" fill="#000000" fill-rule="nonzero" fill-opacity="1" /><path clip-path="url(#clip830)" d="M16.4842 838.973 L16.4842 832.544 L35.9632 832.544 L35.9632 809.181 L16.4842 809.181 L16.4842 802.752 L64.0042 802.752 L64.0042 809.181 L41.3741 809.181 L41.3741 832.544 L64.0042 832.544 L64.0042 838.973 L16.4842 838.973 Z" fill="#000000" fill-rule="nonzero" fill-opacity="1" /><path clip-path="url(#clip830)" d="M44.7161 759.72 L47.5806 759.72 L47.5806 786.647 Q53.6281 786.265 56.8109 783.018 Q59.9619 779.74 59.9619 773.915 Q59.9619 770.542 59.1344 767.391 Q58.3069 764.208 56.6518 761.089 L62.1899 761.089 Q63.5267 764.24 64.227 767.55 Q64.9272 770.86 64.9272 774.266 Q64.9272 782.796 59.9619 787.793 Q54.9967 792.758 46.5303 792.758 Q37.7774 792.758 32.6531 788.047 Q27.4968 783.305 27.4968 775.284 Q27.4968 768.091 32.1438 763.921 Q36.7589 759.72 44.7161 759.72 M42.9973 765.576 Q38.1912 765.64 35.3266 768.282 Q32.4621 770.892 32.4621 775.22 Q32.4621 780.122 35.2312 783.082 Q38.0002 786.01 43.0292 786.456 L42.9973 765.576 Z" fill="#000000" fill-rule="nonzero" fill-opacity="1" /><path clip-path="url(#clip830)" d="M28.3562 750.108 L28.3562 744.251 L64.0042 744.251 L64.0042 750.108 L28.3562 750.108 M14.479 750.108 L14.479 744.251 L21.895 744.251 L21.895 750.108 L14.479 750.108 Z" fill="#000000" fill-rule="nonzero" fill-opacity="1" /><path clip-path="url(#clip830)" d="M45.7664 708.54 Q39.4007 708.54 35.8996 711.181 Q32.3984 713.791 32.3984 718.534 Q32.3984 723.244 35.8996 725.886 Q39.4007 728.496 45.7664 728.496 Q52.1003 728.496 55.6014 725.886 Q59.1026 723.244 59.1026 718.534 Q59.1026 713.791 55.6014 711.181 Q52.1003 708.54 45.7664 708.54 M59.58 702.683 Q68.683 702.683 73.1071 706.725 Q77.5631 710.768 77.5631 719.107 Q77.5631 722.194 77.0857 724.931 Q76.6401 727.669 75.6852 730.247 L69.9879 730.247 Q71.3884 727.669 72.0568 725.154 Q72.7252 722.64 72.7252 720.03 Q72.7252 714.269 69.7015 711.404 Q66.7096 708.54 60.6303 708.54 L57.7339 708.54 Q60.885 710.354 62.4446 713.187 Q64.0042 716.019 64.0042 719.966 Q64.0042 726.523 59.0071 730.533 Q54.01 734.544 45.7664 734.544 Q37.491 734.544 32.4939 730.533 Q27.4968 726.523 27.4968 719.966 Q27.4968 716.019 29.0564 713.187 Q30.616 710.354 33.7671 708.54 L28.3562 708.54 L28.3562 702.683 L59.58 702.683 Z" fill="#000000" fill-rule="nonzero" fill-opacity="1" /><path clip-path="url(#clip830)" d="M42.4881 660.988 L64.0042 660.988 L64.0042 666.844 L42.679 666.844 Q37.6183 666.844 35.1038 668.818 Q32.5894 670.791 32.5894 674.738 Q32.5894 679.48 35.6131 682.217 Q38.6368 684.955 43.8567 684.955 L64.0042 684.955 L64.0042 690.843 L14.479 690.843 L14.479 684.955 L33.8944 684.955 Q30.6797 682.854 29.0883 680.021 Q27.4968 677.157 27.4968 673.433 Q27.4968 667.29 31.3163 664.139 Q35.1038 660.988 42.4881 660.988 Z" fill="#000000" fill-rule="nonzero" fill-opacity="1" /><path clip-path="url(#clip830)" d="M18.2347 643.514 L28.3562 643.514 L28.3562 631.451 L32.9077 631.451 L32.9077 643.514 L52.2594 643.514 Q56.6199 643.514 57.8613 642.336 Q59.1026 641.127 59.1026 637.467 L59.1026 631.451 L64.0042 631.451 L64.0042 637.467 Q64.0042 644.246 61.4897 646.824 Q58.9434 649.402 52.2594 649.402 L32.9077 649.402 L32.9077 653.699 L28.3562 653.699 L28.3562 649.402 L18.2347 649.402 L18.2347 643.514 Z" fill="#000000" fill-rule="nonzero" fill-opacity="1" /><circle clip-path="url(#clip832)" cx="279.421" cy="895.465" r="14.4" fill="#009af9" fill-rule="evenodd" fill-opacity="1" stroke="#000000" stroke-opacity="1" stroke-width="3.2"/>
<circle clip-path="url(#clip832)" cx="413.618" cy="987.611" r="14.4" fill="#009af9" fill-rule="evenodd" fill-opacity="1" stroke="#000000" stroke-opacity="1" stroke-width="3.2"/>
<circle clip-path="url(#clip832)" cx="547.814" cy="959.567" r="14.4" fill="#009af9" fill-rule="evenodd" fill-opacity="1" stroke="#000000" stroke-opacity="1" stroke-width="3.2"/>
<circle clip-path="url(#clip832)" cx="682.011" cy="1047.71" r="14.4" fill="#009af9" fill-rule="evenodd" fill-opacity="1" stroke="#000000" stroke-opacity="1" stroke-width="3.2"/>
<circle clip-path="url(#clip832)" cx="816.207" cy="875.434" r="14.4" fill="#009af9" fill-rule="evenodd" fill-opacity="1" stroke="#000000" stroke-opacity="1" stroke-width="3.2"/>
<circle clip-path="url(#clip832)" cx="547.814" cy="919.503" r="14.4" fill="#009af9" fill-rule="evenodd" fill-opacity="1" stroke="#000000" stroke-opacity="1" stroke-width="3.2"/>
<circle clip-path="url(#clip832)" cx="950.403" cy="927.516" r="14.4" fill="#009af9" fill-rule="evenodd" fill-opacity="1" stroke="#000000" stroke-opacity="1" stroke-width="3.2"/>
<circle clip-path="url(#clip832)" cx="1084.6" cy="955.56" r="14.4" fill="#009af9" fill-rule="evenodd" fill-opacity="1" stroke="#000000" stroke-opacity="1" stroke-width="3.2"/>
<circle clip-path="url(#clip832)" cx="1218.8" cy="1264.05" r="14.4" fill="#009af9" fill-rule="evenodd" fill-opacity="1" stroke="#000000" stroke-opacity="1" stroke-width="3.2"/>
<circle clip-path="url(#clip832)" cx="1084.6" cy="979.598" r="14.4" fill="#009af9" fill-rule="evenodd" fill-opacity="1" stroke="#000000" stroke-opacity="1" stroke-width="3.2"/>
<circle clip-path="url(#clip832)" cx="1352.99" cy="1384.24" r="14.4" fill="#009af9" fill-rule="evenodd" fill-opacity="1" stroke="#000000" stroke-opacity="1" stroke-width="3.2"/>
<circle clip-path="url(#clip832)" cx="950.403" cy="947.548" r="14.4" fill="#009af9" fill-rule="evenodd" fill-opacity="1" stroke="#000000" stroke-opacity="1" stroke-width="3.2"/>
<circle clip-path="url(#clip832)" cx="1487.19" cy="875.434" r="14.4" fill="#009af9" fill-rule="evenodd" fill-opacity="1" stroke="#000000" stroke-opacity="1" stroke-width="3.2"/>
<circle clip-path="url(#clip832)" cx="1621.39" cy="735.212" r="14.4" fill="#009af9" fill-rule="evenodd" fill-opacity="1" stroke="#000000" stroke-opacity="1" stroke-width="3.2"/>
<circle clip-path="url(#clip832)" cx="1755.58" cy="86.1857" r="14.4" fill="#009af9" fill-rule="evenodd" fill-opacity="1" stroke="#000000" stroke-opacity="1" stroke-width="3.2"/>
<circle clip-path="url(#clip832)" cx="1889.78" cy="935.529" r="14.4" fill="#009af9" fill-rule="evenodd" fill-opacity="1" stroke="#000000" stroke-opacity="1" stroke-width="3.2"/>
<circle clip-path="url(#clip832)" cx="2023.97" cy="915.497" r="14.4" fill="#009af9" fill-rule="evenodd" fill-opacity="1" stroke="#000000" stroke-opacity="1" stroke-width="3.2"/>
<circle clip-path="url(#clip832)" cx="1889.78" cy="915.497" r="14.4" fill="#009af9" fill-rule="evenodd" fill-opacity="1" stroke="#000000" stroke-opacity="1" stroke-width="3.2"/>
<circle clip-path="url(#clip832)" cx="2158.17" cy="783.288" r="14.4" fill="#009af9" fill-rule="evenodd" fill-opacity="1" stroke="#000000" stroke-opacity="1" stroke-width="3.2"/>
<circle clip-path="url(#clip832)" cx="2292.37" cy="1248.02" r="14.4" fill="#009af9" fill-rule="evenodd" fill-opacity="1" stroke="#000000" stroke-opacity="1" stroke-width="3.2"/>
<path clip-path="url(#clip830)" d="M2015.83 196.789 L2281.63 196.789 L2281.63 93.1086 L2015.83 93.1086  Z" fill="#ffffff" fill-rule="evenodd" fill-opacity="1"/>
<polyline clip-path="url(#clip830)" style="stroke:#000000; stroke-linecap:round; stroke-linejoin:round; stroke-width:4; stroke-opacity:1; fill:none" points="2015.83,196.789 2281.63,196.789 2281.63,93.1086 2015.83,93.1086 2015.83,196.789 "/>
<circle clip-path="url(#clip830)" cx="2110.66" cy="144.949" r="20.48" fill="#009af9" fill-rule="evenodd" fill-opacity="1" stroke="#000000" stroke-opacity="1" stroke-width="4.55111"/>
<path clip-path="url(#clip830)" d="M2219.34 164.636 Q2217.53 169.266 2215.82 170.678 Q2214.1 172.09 2211.23 172.09 L2207.83 172.09 L2207.83 168.525 L2210.33 168.525 Q2212.09 168.525 2213.06 167.692 Q2214.04 166.858 2215.22 163.756 L2215.98 161.812 L2205.49 136.303 L2210.01 136.303 L2218.11 156.581 L2226.21 136.303 L2230.72 136.303 L2219.34 164.636 Z" fill="#000000" fill-rule="nonzero" fill-opacity="1" /><path clip-path="url(#clip830)" d="M2238.02 158.293 L2245.66 158.293 L2245.66 131.928 L2237.35 133.595 L2237.35 129.335 L2245.61 127.669 L2250.28 127.669 L2250.28 158.293 L2257.92 158.293 L2257.92 162.229 L2238.02 162.229 L2238.02 158.293 Z" fill="#000000" fill-rule="nonzero" fill-opacity="1" /></svg>
