<?xml version="1.0" encoding="utf-8"?>
<svg xmlns="http://www.w3.org/2000/svg" xmlns:xlink="http://www.w3.org/1999/xlink" width="600" height="400" viewBox="0 0 2400 1600">
<defs>
  <clipPath id="clip950">
    <rect x="0" y="0" width="2400" height="1600"/>
  </clipPath>
</defs>
<path clip-path="url(#clip950)" d="M0 1600 L2400 1600 L2400 0 L0 0  Z" fill="#ffffff" fill-rule="evenodd" fill-opacity="1"/>
<defs>
  <clipPath id="clip951">
    <rect x="480" y="0" width="1681" height="1600"/>
  </clipPath>
</defs>
<path clip-path="url(#clip950)" d="M175.445 1423.18 L2352.76 1423.18 L2352.76 47.2441 L175.445 47.2441  Z" fill="#ffffff" fill-rule="evenodd" fill-opacity="1"/>
<defs>
  <clipPath id="clip952">
    <rect x="175" y="47" width="2178" height="1377"/>
  </clipPath>
</defs>
<polyline clip-path="url(#clip952)" style="stroke:#000000; stroke-linecap:round; stroke-linejoin:round; stroke-width:2; stroke-opacity:0.1; fill:none" points="428.842,1423.18 428.842,47.2441 "/>
<polyline clip-path="url(#clip952)" style="stroke:#000000; stroke-linecap:round; stroke-linejoin:round; stroke-width:2; stroke-opacity:0.1; fill:none" points="762.946,1423.18 762.946,47.2441 "/>
<polyline clip-path="url(#clip952)" style="stroke:#000000; stroke-linecap:round; stroke-linejoin:round; stroke-width:2; stroke-opacity:0.1; fill:none" points="1097.05,1423.18 1097.05,47.2441 "/>
<polyline clip-path="url(#clip952)" style="stroke:#000000; stroke-linecap:round; stroke-linejoin:round; stroke-width:2; stroke-opacity:0.1; fill:none" points="1431.15,1423.18 1431.15,47.2441 "/>
<polyline clip-path="url(#clip952)" style="stroke:#000000; stroke-linecap:round; stroke-linejoin:round; stroke-width:2; stroke-opacity:0.1; fill:none" points="1765.26,1423.18 1765.26,47.2441 "/>
<polyline clip-path="url(#clip952)" style="stroke:#000000; stroke-linecap:round; stroke-linejoin:round; stroke-width:2; stroke-opacity:0.1; fill:none" points="2099.36,1423.18 2099.36,47.2441 "/>
<polyline clip-path="url(#clip950)" style="stroke:#000000; stroke-linecap:round; stroke-linejoin:round; stroke-width:4; stroke-opacity:1; fill:none" points="175.445,1423.18 2352.76,1423.18 "/>
<polyline clip-path="url(#clip950)" style="stroke:#000000; stroke-linecap:round; stroke-linejoin:round; stroke-width:4; stroke-opacity:1; fill:none" points="428.842,1423.18 428.842,1404.28 "/>
<polyline clip-path="url(#clip950)" style="stroke:#000000; stroke-linecap:round; stroke-linejoin:round; stroke-width:4; stroke-opacity:1; fill:none" points="762.946,1423.18 762.946,1404.28 "/>
<polyline clip-path="url(#clip950)" style="stroke:#000000; stroke-linecap:round; stroke-linejoin:round; stroke-width:4; stroke-opacity:1; fill:none" points="1097.05,1423.18 1097.05,1404.28 "/>
<polyline clip-path="url(#clip950)" style="stroke:#000000; stroke-linecap:round; stroke-linejoin:round; stroke-width:4; stroke-opacity:1; fill:none" points="1431.15,1423.18 1431.15,1404.28 "/>
<polyline clip-path="url(#clip950)" style="stroke:#000000; stroke-linecap:round; stroke-linejoin:round; stroke-width:4; stroke-opacity:1; fill:none" points="1765.26,1423.18 1765.26,1404.28 "/>
<polyline clip-path="url(#clip950)" style="stroke:#000000; stroke-linecap:round; stroke-linejoin:round; stroke-width:4; stroke-opacity:1; fill:none" points="2099.36,1423.18 2099.36,1404.28 "/>
<path clip-path="url(#clip950)" d="M378.6 1472.64 Q378.6 1467.94 376.655 1465.28 Q374.734 1462.59 371.354 1462.59 Q367.975 1462.59 366.03 1465.28 Q364.109 1467.94 364.109 1472.64 Q364.109 1477.34 366.03 1480.02 Q367.975 1482.69 371.354 1482.69 Q374.734 1482.69 376.655 1480.02 Q378.6 1477.34 378.6 1472.64 M364.109 1463.59 Q365.452 1461.27 367.489 1460.16 Q369.549 1459.03 372.396 1459.03 Q377.118 1459.03 380.058 1462.78 Q383.021 1466.53 383.021 1472.64 Q383.021 1478.75 380.058 1482.5 Q377.118 1486.25 372.396 1486.25 Q369.549 1486.25 367.489 1485.14 Q365.452 1484.01 364.109 1481.69 L364.109 1485.58 L359.827 1485.58 L359.827 1449.56 L364.109 1449.56 L364.109 1463.59 Z" fill="#000000" fill-rule="nonzero" fill-opacity="1" /><path clip-path="url(#clip950)" d="M405.104 1463.64 Q404.387 1463.22 403.53 1463.03 Q402.697 1462.83 401.678 1462.83 Q398.067 1462.83 396.123 1465.19 Q394.201 1467.52 394.201 1471.92 L394.201 1485.58 L389.919 1485.58 L389.919 1459.65 L394.201 1459.65 L394.201 1463.68 Q395.544 1461.32 397.697 1460.19 Q399.85 1459.03 402.928 1459.03 Q403.368 1459.03 403.9 1459.1 Q404.433 1459.14 405.081 1459.26 L405.104 1463.64 Z" fill="#000000" fill-rule="nonzero" fill-opacity="1" /><path clip-path="url(#clip950)" d="M418.576 1462.64 Q415.15 1462.64 413.16 1465.33 Q411.169 1467.99 411.169 1472.64 Q411.169 1477.29 413.137 1479.98 Q415.127 1482.64 418.576 1482.64 Q421.979 1482.64 423.97 1479.95 Q425.961 1477.27 425.961 1472.64 Q425.961 1468.03 423.97 1465.35 Q421.979 1462.64 418.576 1462.64 M418.576 1459.03 Q424.132 1459.03 427.303 1462.64 Q430.474 1466.25 430.474 1472.64 Q430.474 1479.01 427.303 1482.64 Q424.132 1486.25 418.576 1486.25 Q412.998 1486.25 409.826 1482.64 Q406.678 1479.01 406.678 1472.64 Q406.678 1466.25 409.826 1462.64 Q412.998 1459.03 418.576 1459.03 Z" fill="#000000" fill-rule="nonzero" fill-opacity="1" /><path clip-path="url(#clip950)" d="M435.058 1459.65 L439.317 1459.65 L444.641 1479.89 L449.942 1459.65 L454.965 1459.65 L460.289 1479.89 L465.59 1459.65 L469.849 1459.65 L463.067 1485.58 L458.044 1485.58 L452.465 1464.33 L446.863 1485.58 L441.84 1485.58 L435.058 1459.65 Z" fill="#000000" fill-rule="nonzero" fill-opacity="1" /><path clip-path="url(#clip950)" d="M497.858 1469.93 L497.858 1485.58 L493.599 1485.58 L493.599 1470.07 Q493.599 1466.39 492.164 1464.56 Q490.729 1462.73 487.858 1462.73 Q484.409 1462.73 482.419 1464.93 Q480.428 1467.13 480.428 1470.93 L480.428 1485.58 L476.145 1485.58 L476.145 1459.65 L480.428 1459.65 L480.428 1463.68 Q481.956 1461.34 484.016 1460.19 Q486.099 1459.03 488.807 1459.03 Q493.275 1459.03 495.567 1461.81 Q497.858 1464.56 497.858 1469.93 Z" fill="#000000" fill-rule="nonzero" fill-opacity="1" /><path clip-path="url(#clip950)" d="M733.895 1472.64 Q733.895 1467.94 731.95 1465.28 Q730.029 1462.59 726.65 1462.59 Q723.27 1462.59 721.326 1465.28 Q719.404 1467.94 719.404 1472.64 Q719.404 1477.34 721.326 1480.02 Q723.27 1482.69 726.65 1482.69 Q730.029 1482.69 731.95 1480.02 Q733.895 1477.34 733.895 1472.64 M719.404 1463.59 Q720.747 1461.27 722.784 1460.16 Q724.844 1459.03 727.691 1459.03 Q732.413 1459.03 735.353 1462.78 Q738.316 1466.53 738.316 1472.64 Q738.316 1478.75 735.353 1482.5 Q732.413 1486.25 727.691 1486.25 Q724.844 1486.25 722.784 1485.14 Q720.747 1484.01 719.404 1481.69 L719.404 1485.58 L715.122 1485.58 L715.122 1449.56 L719.404 1449.56 L719.404 1463.59 Z" fill="#000000" fill-rule="nonzero" fill-opacity="1" /><path clip-path="url(#clip950)" d="M745.376 1449.56 L749.636 1449.56 L749.636 1485.58 L745.376 1485.58 L745.376 1449.56 Z" fill="#000000" fill-rule="nonzero" fill-opacity="1" /><path clip-path="url(#clip950)" d="M758.108 1475.35 L758.108 1459.65 L762.367 1459.65 L762.367 1475.19 Q762.367 1478.87 763.802 1480.72 Q765.237 1482.55 768.108 1482.55 Q771.557 1482.55 773.547 1480.35 Q775.561 1478.15 775.561 1474.35 L775.561 1459.65 L779.821 1459.65 L779.821 1485.58 L775.561 1485.58 L775.561 1481.6 Q774.01 1483.96 771.95 1485.12 Q769.913 1486.25 767.205 1486.25 Q762.737 1486.25 760.423 1483.47 Q758.108 1480.7 758.108 1475.35 M768.825 1459.03 L768.825 1459.03 Z" fill="#000000" fill-rule="nonzero" fill-opacity="1" /><path clip-path="url(#clip950)" d="M810.77 1471.55 L810.77 1473.64 L791.186 1473.64 Q791.464 1478.03 793.825 1480.35 Q796.209 1482.64 800.446 1482.64 Q802.899 1482.64 805.191 1482.04 Q807.506 1481.44 809.774 1480.23 L809.774 1484.26 Q807.483 1485.23 805.075 1485.74 Q802.668 1486.25 800.191 1486.25 Q793.987 1486.25 790.353 1482.64 Q786.742 1479.03 786.742 1472.87 Q786.742 1466.51 790.168 1462.78 Q793.617 1459.03 799.45 1459.03 Q804.682 1459.03 807.714 1462.41 Q810.77 1465.77 810.77 1471.55 M806.51 1470.3 Q806.464 1466.81 804.543 1464.72 Q802.645 1462.64 799.496 1462.64 Q795.932 1462.64 793.779 1464.65 Q791.649 1466.67 791.325 1470.33 L806.51 1470.3 Z" fill="#000000" fill-rule="nonzero" fill-opacity="1" /><path clip-path="url(#clip950)" d="M1036.92 1487.99 Q1035.12 1492.62 1033.4 1494.03 Q1031.69 1495.44 1028.82 1495.44 L1025.42 1495.44 L1025.42 1491.88 L1027.92 1491.88 Q1029.68 1491.88 1030.65 1491.04 Q1031.62 1490.21 1032.8 1487.11 L1033.57 1485.16 L1023.08 1459.65 L1027.59 1459.65 L1035.7 1479.93 L1043.8 1459.65 L1048.31 1459.65 L1036.92 1487.99 Z" fill="#000000" fill-rule="nonzero" fill-opacity="1" /><path clip-path="url(#clip950)" d="M1076.37 1471.55 L1076.37 1473.64 L1056.78 1473.64 Q1057.06 1478.03 1059.42 1480.35 Q1061.81 1482.64 1066.04 1482.64 Q1068.5 1482.64 1070.79 1482.04 Q1073.1 1481.44 1075.37 1480.23 L1075.37 1484.26 Q1073.08 1485.23 1070.67 1485.74 Q1068.26 1486.25 1065.79 1486.25 Q1059.58 1486.25 1055.95 1482.64 Q1052.34 1479.03 1052.34 1472.87 Q1052.34 1466.51 1055.76 1462.78 Q1059.21 1459.03 1065.05 1459.03 Q1070.28 1459.03 1073.31 1462.41 Q1076.37 1465.77 1076.37 1471.55 M1072.11 1470.3 Q1072.06 1466.81 1070.14 1464.72 Q1068.24 1462.64 1065.09 1462.64 Q1061.53 1462.64 1059.38 1464.65 Q1057.25 1466.67 1056.92 1470.33 L1072.11 1470.3 Z" fill="#000000" fill-rule="nonzero" fill-opacity="1" /><path clip-path="url(#clip950)" d="M1083.36 1449.56 L1087.62 1449.56 L1087.62 1485.58 L1083.36 1485.58 L1083.36 1449.56 Z" fill="#000000" fill-rule="nonzero" fill-opacity="1" /><path clip-path="url(#clip950)" d="M1096.53 1449.56 L1100.79 1449.56 L1100.79 1485.58 L1096.53 1485.58 L1096.53 1449.56 Z" fill="#000000" fill-rule="nonzero" fill-opacity="1" /><path clip-path="url(#clip950)" d="M1119.75 1462.64 Q1116.32 1462.64 1114.33 1465.33 Q1112.34 1467.99 1112.34 1472.64 Q1112.34 1477.29 1114.31 1479.98 Q1116.3 1482.64 1119.75 1482.64 Q1123.15 1482.64 1125.14 1479.95 Q1127.13 1477.27 1127.13 1472.64 Q1127.13 1468.03 1125.14 1465.35 Q1123.15 1462.64 1119.75 1462.64 M1119.75 1459.03 Q1125.3 1459.03 1128.47 1462.64 Q1131.64 1466.25 1131.64 1472.64 Q1131.64 1479.01 1128.47 1482.64 Q1125.3 1486.25 1119.75 1486.25 Q1114.17 1486.25 1111 1482.64 Q1107.85 1479.01 1107.85 1472.64 Q1107.85 1466.25 1111 1462.64 Q1114.17 1459.03 1119.75 1459.03 Z" fill="#000000" fill-rule="nonzero" fill-opacity="1" /><path clip-path="url(#clip950)" d="M1136.23 1459.65 L1140.49 1459.65 L1145.81 1479.89 L1151.11 1459.65 L1156.13 1459.65 L1161.46 1479.89 L1166.76 1459.65 L1171.02 1459.65 L1164.24 1485.58 L1159.21 1485.58 L1153.63 1464.33 L1148.03 1485.58 L1143.01 1485.58 L1136.23 1459.65 Z" fill="#000000" fill-rule="nonzero" fill-opacity="1" /><path clip-path="url(#clip950)" d="M1348.2 1472.64 Q1348.2 1467.94 1346.26 1465.28 Q1344.34 1462.59 1340.96 1462.59 Q1337.58 1462.59 1335.63 1465.28 Q1333.71 1467.94 1333.71 1472.64 Q1333.71 1477.34 1335.63 1480.02 Q1337.58 1482.69 1340.96 1482.69 Q1344.34 1482.69 1346.26 1480.02 Q1348.2 1477.34 1348.2 1472.64 M1333.71 1463.59 Q1335.05 1461.27 1337.09 1460.16 Q1339.15 1459.03 1342 1459.03 Q1346.72 1459.03 1349.66 1462.78 Q1352.62 1466.53 1352.62 1472.64 Q1352.62 1478.75 1349.66 1482.5 Q1346.72 1486.25 1342 1486.25 Q1339.15 1486.25 1337.09 1485.14 Q1335.05 1484.01 1333.71 1481.69 L1333.71 1485.58 L1329.43 1485.58 L1329.43 1449.56 L1333.71 1449.56 L1333.71 1463.59 Z" fill="#000000" fill-rule="nonzero" fill-opacity="1" /><path clip-path="url(#clip950)" d="M1359.68 1449.56 L1363.94 1449.56 L1363.94 1485.58 L1359.68 1485.58 L1359.68 1449.56 Z" fill="#000000" fill-rule="nonzero" fill-opacity="1" /><path clip-path="url(#clip950)" d="M1372.41 1475.35 L1372.41 1459.65 L1376.67 1459.65 L1376.67 1475.19 Q1376.67 1478.87 1378.11 1480.72 Q1379.54 1482.55 1382.41 1482.55 Q1385.86 1482.55 1387.85 1480.35 Q1389.87 1478.15 1389.87 1474.35 L1389.87 1459.65 L1394.13 1459.65 L1394.13 1485.58 L1389.87 1485.58 L1389.87 1481.6 Q1388.32 1483.96 1386.26 1485.12 Q1384.22 1486.25 1381.51 1486.25 Q1377.04 1486.25 1374.73 1483.47 Q1372.41 1480.7 1372.41 1475.35 M1383.13 1459.03 L1383.13 1459.03 Z" fill="#000000" fill-rule="nonzero" fill-opacity="1" /><path clip-path="url(#clip950)" d="M1425.08 1471.55 L1425.08 1473.64 L1405.49 1473.64 Q1405.77 1478.03 1408.13 1480.35 Q1410.52 1482.64 1414.75 1482.64 Q1417.21 1482.64 1419.5 1482.04 Q1421.81 1481.44 1424.08 1480.23 L1424.08 1484.26 Q1421.79 1485.23 1419.38 1485.74 Q1416.97 1486.25 1414.5 1486.25 Q1408.29 1486.25 1404.66 1482.64 Q1401.05 1479.03 1401.05 1472.87 Q1401.05 1466.51 1404.47 1462.78 Q1407.92 1459.03 1413.76 1459.03 Q1418.99 1459.03 1422.02 1462.41 Q1425.08 1465.77 1425.08 1471.55 M1420.82 1470.3 Q1420.77 1466.81 1418.85 1464.72 Q1416.95 1462.64 1413.8 1462.64 Q1410.24 1462.64 1408.09 1464.65 Q1405.96 1466.67 1405.63 1470.33 L1420.82 1470.3 Z" fill="#000000" fill-rule="nonzero" fill-opacity="1" /><path clip-path="url(#clip950)" d="M1449.13 1472.32 Q1449.13 1467.69 1447.21 1465.14 Q1445.31 1462.59 1441.86 1462.59 Q1438.43 1462.59 1436.51 1465.14 Q1434.61 1467.69 1434.61 1472.32 Q1434.61 1476.92 1436.51 1479.47 Q1438.43 1482.02 1441.86 1482.02 Q1445.31 1482.02 1447.21 1479.47 Q1449.13 1476.92 1449.13 1472.32 M1453.39 1482.36 Q1453.39 1488.98 1450.45 1492.2 Q1447.51 1495.44 1441.44 1495.44 Q1439.2 1495.44 1437.21 1495.09 Q1435.21 1494.77 1433.34 1494.08 L1433.34 1489.93 Q1435.21 1490.95 1437.04 1491.44 Q1438.87 1491.92 1440.77 1491.92 Q1444.96 1491.92 1447.04 1489.72 Q1449.13 1487.55 1449.13 1483.13 L1449.13 1481.02 Q1447.81 1483.31 1445.75 1484.45 Q1443.69 1485.58 1440.82 1485.58 Q1436.05 1485.58 1433.13 1481.95 Q1430.21 1478.31 1430.21 1472.32 Q1430.21 1466.3 1433.13 1462.66 Q1436.05 1459.03 1440.82 1459.03 Q1443.69 1459.03 1445.75 1460.16 Q1447.81 1461.3 1449.13 1463.59 L1449.13 1459.65 L1453.39 1459.65 L1453.39 1482.36 Z" fill="#000000" fill-rule="nonzero" fill-opacity="1" /><path clip-path="url(#clip950)" d="M1477.18 1463.64 Q1476.46 1463.22 1475.61 1463.03 Q1474.77 1462.83 1473.76 1462.83 Q1470.15 1462.83 1468.2 1465.19 Q1466.28 1467.52 1466.28 1471.92 L1466.28 1485.58 L1462 1485.58 L1462 1459.65 L1466.28 1459.65 L1466.28 1463.68 Q1467.62 1461.32 1469.77 1460.19 Q1471.93 1459.03 1475.01 1459.03 Q1475.45 1459.03 1475.98 1459.1 Q1476.51 1459.14 1477.16 1459.26 L1477.18 1463.64 Z" fill="#000000" fill-rule="nonzero" fill-opacity="1" /><path clip-path="url(#clip950)" d="M1493.43 1472.55 Q1488.27 1472.55 1486.28 1473.73 Q1484.29 1474.91 1484.29 1477.76 Q1484.29 1480.02 1485.77 1481.37 Q1487.27 1482.69 1489.84 1482.69 Q1493.39 1482.69 1495.52 1480.19 Q1497.67 1477.66 1497.67 1473.5 L1497.67 1472.55 L1493.43 1472.55 M1501.93 1470.79 L1501.93 1485.58 L1497.67 1485.58 L1497.67 1481.64 Q1496.21 1484.01 1494.03 1485.14 Q1491.86 1486.25 1488.71 1486.25 Q1484.73 1486.25 1482.37 1484.03 Q1480.03 1481.78 1480.03 1478.03 Q1480.03 1473.66 1482.95 1471.44 Q1485.89 1469.21 1491.7 1469.21 L1497.67 1469.21 L1497.67 1468.8 Q1497.67 1465.86 1495.72 1464.26 Q1493.8 1462.64 1490.31 1462.64 Q1488.08 1462.64 1485.98 1463.17 Q1483.87 1463.7 1481.93 1464.77 L1481.93 1460.83 Q1484.27 1459.93 1486.46 1459.49 Q1488.66 1459.03 1490.75 1459.03 Q1496.37 1459.03 1499.15 1461.95 Q1501.93 1464.86 1501.93 1470.79 Z" fill="#000000" fill-rule="nonzero" fill-opacity="1" /><path clip-path="url(#clip950)" d="M1521.49 1487.99 Q1519.68 1492.62 1517.97 1494.03 Q1516.26 1495.44 1513.39 1495.44 L1509.98 1495.44 L1509.98 1491.88 L1512.48 1491.88 Q1514.24 1491.88 1515.21 1491.04 Q1516.19 1490.21 1517.37 1487.11 L1518.13 1485.16 L1507.64 1459.65 L1512.16 1459.65 L1520.26 1479.93 L1528.36 1459.65 L1532.88 1459.65 L1521.49 1487.99 Z" fill="#000000" fill-rule="nonzero" fill-opacity="1" /><path clip-path="url(#clip950)" d="M1736.45 1472.32 Q1736.45 1467.69 1734.53 1465.14 Q1732.63 1462.59 1729.18 1462.59 Q1725.75 1462.59 1723.83 1465.14 Q1721.93 1467.69 1721.93 1472.32 Q1721.93 1476.92 1723.83 1479.47 Q1725.75 1482.02 1729.18 1482.02 Q1732.63 1482.02 1734.53 1479.47 Q1736.45 1476.92 1736.45 1472.32 M1740.71 1482.36 Q1740.71 1488.98 1737.77 1492.2 Q1734.83 1495.44 1728.76 1495.44 Q1726.52 1495.44 1724.53 1495.09 Q1722.54 1494.77 1720.66 1494.08 L1720.66 1489.93 Q1722.54 1490.95 1724.36 1491.44 Q1726.19 1491.92 1728.09 1491.92 Q1732.28 1491.92 1734.36 1489.72 Q1736.45 1487.55 1736.45 1483.13 L1736.45 1481.02 Q1735.13 1483.31 1733.07 1484.45 Q1731.01 1485.58 1728.14 1485.58 Q1723.37 1485.58 1720.45 1481.95 Q1717.54 1478.31 1717.54 1472.32 Q1717.54 1466.3 1720.45 1462.66 Q1723.37 1459.03 1728.14 1459.03 Q1731.01 1459.03 1733.07 1460.16 Q1735.13 1461.3 1736.45 1463.59 L1736.45 1459.65 L1740.71 1459.65 L1740.71 1482.36 Z" fill="#000000" fill-rule="nonzero" fill-opacity="1" /><path clip-path="url(#clip950)" d="M1759.53 1462.64 Q1756.1 1462.64 1754.11 1465.33 Q1752.12 1467.99 1752.12 1472.64 Q1752.12 1477.29 1754.09 1479.98 Q1756.08 1482.64 1759.53 1482.64 Q1762.93 1482.64 1764.92 1479.95 Q1766.91 1477.27 1766.91 1472.64 Q1766.91 1468.03 1764.92 1465.35 Q1762.93 1462.64 1759.53 1462.64 M1759.53 1459.03 Q1765.08 1459.03 1768.25 1462.64 Q1771.42 1466.25 1771.42 1472.64 Q1771.42 1479.01 1768.25 1482.64 Q1765.08 1486.25 1759.53 1486.25 Q1753.95 1486.25 1750.78 1482.64 Q1747.63 1479.01 1747.63 1472.64 Q1747.63 1466.25 1750.78 1462.64 Q1753.95 1459.03 1759.53 1459.03 Z" fill="#000000" fill-rule="nonzero" fill-opacity="1" /><path clip-path="url(#clip950)" d="M1778.48 1449.56 L1782.74 1449.56 L1782.74 1485.58 L1778.48 1485.58 L1778.48 1449.56 Z" fill="#000000" fill-rule="nonzero" fill-opacity="1" /><path clip-path="url(#clip950)" d="M1808.72 1463.59 L1808.72 1449.56 L1812.98 1449.56 L1812.98 1485.58 L1808.72 1485.58 L1808.72 1481.69 Q1807.37 1484.01 1805.31 1485.14 Q1803.28 1486.25 1800.41 1486.25 Q1795.71 1486.25 1792.74 1482.5 Q1789.8 1478.75 1789.8 1472.64 Q1789.8 1466.53 1792.74 1462.78 Q1795.71 1459.03 1800.41 1459.03 Q1803.28 1459.03 1805.31 1460.16 Q1807.37 1461.27 1808.72 1463.59 M1794.2 1472.64 Q1794.2 1477.34 1796.12 1480.02 Q1798.07 1482.69 1801.45 1482.69 Q1804.83 1482.69 1806.77 1480.02 Q1808.72 1477.34 1808.72 1472.64 Q1808.72 1467.94 1806.77 1465.28 Q1804.83 1462.59 1801.45 1462.59 Q1798.07 1462.59 1796.12 1465.28 Q1794.2 1467.94 1794.2 1472.64 Z" fill="#000000" fill-rule="nonzero" fill-opacity="1" /><path clip-path="url(#clip950)" d="M2057.44 1472.64 Q2057.44 1467.94 2055.49 1465.28 Q2053.57 1462.59 2050.19 1462.59 Q2046.81 1462.59 2044.87 1465.28 Q2042.95 1467.94 2042.95 1472.64 Q2042.95 1477.34 2044.87 1480.02 Q2046.81 1482.69 2050.19 1482.69 Q2053.57 1482.69 2055.49 1480.02 Q2057.44 1477.34 2057.44 1472.64 M2042.95 1463.59 Q2044.29 1461.27 2046.33 1460.16 Q2048.39 1459.03 2051.23 1459.03 Q2055.96 1459.03 2058.9 1462.78 Q2061.86 1466.53 2061.86 1472.64 Q2061.86 1478.75 2058.9 1482.5 Q2055.96 1486.25 2051.23 1486.25 Q2048.39 1486.25 2046.33 1485.14 Q2044.29 1484.01 2042.95 1481.69 L2042.95 1485.58 L2038.66 1485.58 L2038.66 1449.56 L2042.95 1449.56 L2042.95 1463.59 Z" fill="#000000" fill-rule="nonzero" fill-opacity="1" /><path clip-path="url(#clip950)" d="M2068.92 1449.56 L2073.18 1449.56 L2073.18 1485.58 L2068.92 1485.58 L2068.92 1449.56 Z" fill="#000000" fill-rule="nonzero" fill-opacity="1" /><path clip-path="url(#clip950)" d="M2093.87 1472.55 Q2088.71 1472.55 2086.72 1473.73 Q2084.73 1474.91 2084.73 1477.76 Q2084.73 1480.02 2086.21 1481.37 Q2087.72 1482.69 2090.28 1482.69 Q2093.83 1482.69 2095.96 1480.19 Q2098.11 1477.66 2098.11 1473.5 L2098.11 1472.55 L2093.87 1472.55 M2102.37 1470.79 L2102.37 1485.58 L2098.11 1485.58 L2098.11 1481.64 Q2096.65 1484.01 2094.47 1485.14 Q2092.3 1486.25 2089.15 1486.25 Q2085.17 1486.25 2082.81 1484.03 Q2080.47 1481.78 2080.47 1478.03 Q2080.47 1473.66 2083.39 1471.44 Q2086.33 1469.21 2092.14 1469.21 L2098.11 1469.21 L2098.11 1468.8 Q2098.11 1465.86 2096.16 1464.26 Q2094.24 1462.64 2090.75 1462.64 Q2088.53 1462.64 2086.42 1463.17 Q2084.31 1463.7 2082.37 1464.77 L2082.37 1460.83 Q2084.71 1459.93 2086.91 1459.49 Q2089.1 1459.03 2091.19 1459.03 Q2096.81 1459.03 2099.59 1461.95 Q2102.37 1464.86 2102.37 1470.79 Z" fill="#000000" fill-rule="nonzero" fill-opacity="1" /><path clip-path="url(#clip950)" d="M2129.8 1460.65 L2129.8 1464.63 Q2127.99 1463.64 2126.16 1463.15 Q2124.36 1462.64 2122.51 1462.64 Q2118.36 1462.64 2116.07 1465.28 Q2113.78 1467.89 2113.78 1472.64 Q2113.78 1477.39 2116.07 1480.02 Q2118.36 1482.64 2122.51 1482.64 Q2124.36 1482.64 2126.16 1482.15 Q2127.99 1481.64 2129.8 1480.65 L2129.8 1484.58 Q2128.02 1485.42 2126.09 1485.83 Q2124.2 1486.25 2122.04 1486.25 Q2116.19 1486.25 2112.74 1482.57 Q2109.29 1478.89 2109.29 1472.64 Q2109.29 1466.3 2112.76 1462.66 Q2116.26 1459.03 2122.32 1459.03 Q2124.29 1459.03 2126.16 1459.45 Q2128.04 1459.84 2129.8 1460.65 Z" fill="#000000" fill-rule="nonzero" fill-opacity="1" /><path clip-path="url(#clip950)" d="M2137.04 1449.56 L2141.33 1449.56 L2141.33 1470.83 L2154.03 1459.65 L2159.47 1459.65 L2145.72 1471.78 L2160.05 1485.58 L2154.5 1485.58 L2141.33 1472.92 L2141.33 1485.58 L2137.04 1485.58 L2137.04 1449.56 Z" fill="#000000" fill-rule="nonzero" fill-opacity="1" /><path clip-path="url(#clip950)" d="M1116.75 1520.52 L1146.8 1520.52 L1146.8 1525.93 L1123.18 1525.93 L1123.18 1540 L1145.81 1540 L1145.81 1545.41 L1123.18 1545.41 L1123.18 1562.63 L1147.37 1562.63 L1147.37 1568.04 L1116.75 1568.04 L1116.75 1520.52 Z" fill="#000000" fill-rule="nonzero" fill-opacity="1" /><path clip-path="url(#clip950)" d="M1172.51 1571.35 Q1170.03 1577.72 1167.68 1579.66 Q1165.32 1581.6 1161.37 1581.6 L1156.7 1581.6 L1156.7 1576.7 L1160.13 1576.7 Q1162.55 1576.7 1163.89 1575.56 Q1165.23 1574.41 1166.85 1570.14 L1167.9 1567.47 L1153.48 1532.4 L1159.69 1532.4 L1170.83 1560.28 L1181.97 1532.4 L1188.17 1532.4 L1172.51 1571.35 Z" fill="#000000" fill-rule="nonzero" fill-opacity="1" /><path clip-path="url(#clip950)" d="M1226.75 1548.76 L1226.75 1551.62 L1199.82 1551.62 Q1200.2 1557.67 1203.45 1560.85 Q1206.73 1564 1212.55 1564 Q1215.93 1564 1219.08 1563.17 Q1222.26 1562.35 1225.38 1560.69 L1225.38 1566.23 Q1222.23 1567.57 1218.92 1568.27 Q1215.61 1568.97 1212.2 1568.97 Q1203.67 1568.97 1198.68 1564 Q1193.71 1559.04 1193.71 1550.57 Q1193.71 1541.82 1198.42 1536.69 Q1203.16 1531.54 1211.19 1531.54 Q1218.38 1531.54 1222.55 1536.18 Q1226.75 1540.8 1226.75 1548.76 M1220.89 1547.04 Q1220.83 1542.23 1218.19 1539.37 Q1215.58 1536.5 1211.25 1536.5 Q1206.35 1536.5 1203.39 1539.27 Q1200.46 1542.04 1200.01 1547.07 L1220.89 1547.04 Z" fill="#000000" fill-rule="nonzero" fill-opacity="1" /><path clip-path="url(#clip950)" d="M1282.74 1533.76 L1282.74 1539.24 Q1280.25 1537.87 1277.74 1537.2 Q1275.26 1536.5 1272.71 1536.5 Q1267.01 1536.5 1263.86 1540.13 Q1260.71 1543.73 1260.71 1550.25 Q1260.71 1556.78 1263.86 1560.4 Q1267.01 1564 1272.71 1564 Q1275.26 1564 1277.74 1563.33 Q1280.25 1562.63 1282.74 1561.26 L1282.74 1566.68 Q1280.29 1567.82 1277.64 1568.39 Q1275.03 1568.97 1272.07 1568.97 Q1264.02 1568.97 1259.28 1563.91 Q1254.54 1558.85 1254.54 1550.25 Q1254.54 1541.53 1259.31 1536.53 Q1264.12 1531.54 1272.46 1531.54 Q1275.16 1531.54 1277.74 1532.11 Q1280.32 1532.65 1282.74 1533.76 Z" fill="#000000" fill-rule="nonzero" fill-opacity="1" /><path clip-path="url(#clip950)" d="M1306.73 1536.5 Q1302.02 1536.5 1299.29 1540.19 Q1296.55 1543.85 1296.55 1550.25 Q1296.55 1556.65 1299.26 1560.34 Q1301.99 1564 1306.73 1564 Q1311.41 1564 1314.15 1560.31 Q1316.89 1556.62 1316.89 1550.25 Q1316.89 1543.92 1314.15 1540.23 Q1311.41 1536.5 1306.73 1536.5 M1306.73 1531.54 Q1314.37 1531.54 1318.73 1536.5 Q1323.09 1541.47 1323.09 1550.25 Q1323.09 1559 1318.73 1564 Q1314.37 1568.97 1306.73 1568.97 Q1299.06 1568.97 1294.7 1564 Q1290.38 1559 1290.38 1550.25 Q1290.38 1541.47 1294.7 1536.5 Q1299.06 1531.54 1306.73 1531.54 Z" fill="#000000" fill-rule="nonzero" fill-opacity="1" /><path clip-path="url(#clip950)" d="M1332.8 1518.52 L1338.66 1518.52 L1338.66 1568.04 L1332.8 1568.04 L1332.8 1518.52 Z" fill="#000000" fill-rule="nonzero" fill-opacity="1" /><path clip-path="url(#clip950)" d="M1364.73 1536.5 Q1360.02 1536.5 1357.28 1540.19 Q1354.54 1543.85 1354.54 1550.25 Q1354.54 1556.65 1357.25 1560.34 Q1359.98 1564 1364.73 1564 Q1369.41 1564 1372.14 1560.31 Q1374.88 1556.62 1374.88 1550.25 Q1374.88 1543.92 1372.14 1540.23 Q1369.41 1536.5 1364.73 1536.5 M1364.73 1531.54 Q1372.37 1531.54 1376.73 1536.5 Q1381.09 1541.47 1381.09 1550.25 Q1381.09 1559 1376.73 1564 Q1372.37 1568.97 1364.73 1568.97 Q1357.06 1568.97 1352.7 1564 Q1348.37 1559 1348.37 1550.25 Q1348.37 1541.47 1352.7 1536.5 Q1357.06 1531.54 1364.73 1531.54 Z" fill="#000000" fill-rule="nonzero" fill-opacity="1" /><path clip-path="url(#clip950)" d="M1411.45 1537.87 Q1410.46 1537.3 1409.29 1537.04 Q1408.14 1536.76 1406.74 1536.76 Q1401.77 1536.76 1399.1 1540 Q1396.46 1543.22 1396.46 1549.27 L1396.46 1568.04 L1390.57 1568.04 L1390.57 1532.4 L1396.46 1532.4 L1396.46 1537.93 Q1398.31 1534.69 1401.27 1533.13 Q1404.23 1531.54 1408.46 1531.54 Q1409.06 1531.54 1409.8 1531.63 Q1410.53 1531.7 1411.42 1531.85 L1411.45 1537.87 Z" fill="#000000" fill-rule="nonzero" fill-opacity="1" /><polyline clip-path="url(#clip952)" style="stroke:#000000; stroke-linecap:round; stroke-linejoin:round; stroke-width:2; stroke-opacity:0.1; fill:none" points="175.445,1423.18 2352.76,1423.18 "/>
<polyline clip-path="url(#clip952)" style="stroke:#000000; stroke-linecap:round; stroke-linejoin:round; stroke-width:2; stroke-opacity:0.1; fill:none" points="175.445,1079.2 2352.76,1079.2 "/>
<polyline clip-path="url(#clip952)" style="stroke:#000000; stroke-linecap:round; stroke-linejoin:round; stroke-width:2; stroke-opacity:0.1; fill:none" points="175.445,735.212 2352.76,735.212 "/>
<polyline clip-path="url(#clip952)" style="stroke:#000000; stroke-linecap:round; stroke-linejoin:round; stroke-width:2; stroke-opacity:0.1; fill:none" points="175.445,391.228 2352.76,391.228 "/>
<polyline clip-path="url(#clip952)" style="stroke:#000000; stroke-linecap:round; stroke-linejoin:round; stroke-width:2; stroke-opacity:0.1; fill:none" points="175.445,47.2441 2352.76,47.2441 "/>
<polyline clip-path="url(#clip950)" style="stroke:#000000; stroke-linecap:round; stroke-linejoin:round; stroke-width:4; stroke-opacity:1; fill:none" points="175.445,1423.18 175.445,47.2441 "/>
<polyline clip-path="url(#clip950)" style="stroke:#000000; stroke-linecap:round; stroke-linejoin:round; stroke-width:4; stroke-opacity:1; fill:none" points="175.445,1423.18 194.343,1423.18 "/>
<polyline clip-path="url(#clip950)" style="stroke:#000000; stroke-linecap:round; stroke-linejoin:round; stroke-width:4; stroke-opacity:1; fill:none" points="175.445,1079.2 194.343,1079.2 "/>
<polyline clip-path="url(#clip950)" style="stroke:#000000; stroke-linecap:round; stroke-linejoin:round; stroke-width:4; stroke-opacity:1; fill:none" points="175.445,735.212 194.343,735.212 "/>
<polyline clip-path="url(#clip950)" style="stroke:#000000; stroke-linecap:round; stroke-linejoin:round; stroke-width:4; stroke-opacity:1; fill:none" points="175.445,391.228 194.343,391.228 "/>
<polyline clip-path="url(#clip950)" style="stroke:#000000; stroke-linecap:round; stroke-linejoin:round; stroke-width:4; stroke-opacity:1; fill:none" points="175.445,47.2441 194.343,47.2441 "/>
<path clip-path="url(#clip950)" d="M127.501 1408.98 Q123.89 1408.98 122.061 1412.54 Q120.255 1416.08 120.255 1423.21 Q120.255 1430.32 122.061 1433.89 Q123.89 1437.43 127.501 1437.43 Q131.135 1437.43 132.941 1433.89 Q134.769 1430.32 134.769 1423.21 Q134.769 1416.08 132.941 1412.54 Q131.135 1408.98 127.501 1408.98 M127.501 1405.27 Q133.311 1405.27 136.367 1409.88 Q139.445 1414.46 139.445 1423.21 Q139.445 1431.94 136.367 1436.55 Q133.311 1441.13 127.501 1441.13 Q121.691 1441.13 118.612 1436.55 Q115.556 1431.94 115.556 1423.21 Q115.556 1414.46 118.612 1409.88 Q121.691 1405.27 127.501 1405.27 Z" fill="#000000" fill-rule="nonzero" fill-opacity="1" /><path clip-path="url(#clip950)" d="M123.126 1092.54 L139.445 1092.54 L139.445 1096.48 L117.501 1096.48 L117.501 1092.54 Q120.163 1089.79 124.746 1085.16 Q129.353 1080.5 130.533 1079.16 Q132.779 1076.64 133.658 1074.9 Q134.561 1073.14 134.561 1071.45 Q134.561 1068.7 132.617 1066.96 Q130.695 1065.23 127.593 1065.23 Q125.394 1065.23 122.941 1065.99 Q120.51 1066.75 117.732 1068.3 L117.732 1063.58 Q120.556 1062.45 123.01 1061.87 Q125.464 1061.29 127.501 1061.29 Q132.871 1061.29 136.066 1063.98 Q139.26 1066.66 139.26 1071.15 Q139.26 1073.28 138.45 1075.2 Q137.663 1077.1 135.556 1079.69 Q134.978 1080.36 131.876 1083.58 Q128.774 1086.78 123.126 1092.54 Z" fill="#000000" fill-rule="nonzero" fill-opacity="1" /><path clip-path="url(#clip950)" d="M129.862 722.006 L118.056 740.455 L129.862 740.455 L129.862 722.006 M128.635 717.932 L134.515 717.932 L134.515 740.455 L139.445 740.455 L139.445 744.344 L134.515 744.344 L134.515 752.492 L129.862 752.492 L129.862 744.344 L114.26 744.344 L114.26 739.83 L128.635 717.932 Z" fill="#000000" fill-rule="nonzero" fill-opacity="1" /><path clip-path="url(#clip950)" d="M127.917 389.365 Q124.769 389.365 122.918 391.517 Q121.089 393.67 121.089 397.42 Q121.089 401.147 122.918 403.323 Q124.769 405.476 127.917 405.476 Q131.066 405.476 132.894 403.323 Q134.746 401.147 134.746 397.42 Q134.746 393.67 132.894 391.517 Q131.066 389.365 127.917 389.365 M137.2 374.712 L137.2 378.971 Q135.441 378.138 133.635 377.698 Q131.853 377.258 130.093 377.258 Q125.464 377.258 123.01 380.383 Q120.58 383.508 120.232 389.828 Q121.598 387.814 123.658 386.749 Q125.718 385.661 128.195 385.661 Q133.404 385.661 136.413 388.832 Q139.445 391.98 139.445 397.42 Q139.445 402.744 136.297 405.962 Q133.149 409.179 127.917 409.179 Q121.922 409.179 118.751 404.596 Q115.58 399.99 115.58 391.263 Q115.58 383.068 119.468 378.207 Q123.357 373.323 129.908 373.323 Q131.667 373.323 133.45 373.67 Q135.255 374.017 137.2 374.712 Z" fill="#000000" fill-rule="nonzero" fill-opacity="1" /><path clip-path="url(#clip950)" d="M127.593 48.1121 Q124.26 48.1121 122.339 49.8945 Q120.441 51.6769 120.441 54.8019 Q120.441 57.9269 122.339 59.7093 Q124.26 61.4917 127.593 61.4917 Q130.927 61.4917 132.848 59.7093 Q134.769 57.9038 134.769 54.8019 Q134.769 51.6769 132.848 49.8945 Q130.95 48.1121 127.593 48.1121 M122.918 46.1214 Q119.908 45.3807 118.218 43.3205 Q116.552 41.2603 116.552 38.2974 Q116.552 34.1539 119.492 31.7465 Q122.455 29.3391 127.593 29.3391 Q132.755 29.3391 135.695 31.7465 Q138.635 34.1539 138.635 38.2974 Q138.635 41.2603 136.945 43.3205 Q135.279 45.3807 132.292 46.1214 Q135.672 46.9084 137.547 49.2001 Q139.445 51.4918 139.445 54.8019 Q139.445 59.825 136.367 62.5102 Q133.311 65.1954 127.593 65.1954 Q121.876 65.1954 118.797 62.5102 Q115.742 59.825 115.742 54.8019 Q115.742 51.4918 117.64 49.2001 Q119.538 46.9084 122.918 46.1214 M121.205 38.7372 Q121.205 41.4224 122.871 42.927 Q124.561 44.4316 127.593 44.4316 Q130.603 44.4316 132.292 42.927 Q134.005 41.4224 134.005 38.7372 Q134.005 36.052 132.292 34.5474 Q130.603 33.0428 127.593 33.0428 Q124.561 33.0428 122.871 34.5474 Q121.205 36.052 121.205 38.7372 Z" fill="#000000" fill-rule="nonzero" fill-opacity="1" /><path clip-path="url(#clip950)" d="M16.4842 1086.54 L16.4842 1077.88 L56.238 1056.81 L16.4842 1056.81 L16.4842 1050.57 L64.0042 1050.57 L64.0042 1059.23 L24.2503 1080.3 L64.0042 1080.3 L64.0042 1086.54 L16.4842 1086.54 Z" fill="#000000" fill-rule="nonzero" fill-opacity="1" /><path clip-path="url(#clip950)" d="M49.9359 1038.63 L28.3562 1038.63 L28.3562 1032.78 L49.7131 1032.78 Q54.7739 1032.78 57.3202 1030.8 Q59.8346 1028.83 59.8346 1024.88 Q59.8346 1020.14 56.8109 1017.4 Q53.7872 1014.63 48.5673 1014.63 L28.3562 1014.63 L28.3562 1008.78 L64.0042 1008.78 L64.0042 1014.63 L58.5296 1014.63 Q61.7762 1016.77 63.3676 1019.6 Q64.9272 1022.4 64.9272 1026.12 Q64.9272 1032.27 61.1078 1035.45 Q57.2883 1038.63 49.9359 1038.63 M27.4968 1023.9 L27.4968 1023.9 Z" fill="#000000" fill-rule="nonzero" fill-opacity="1" /><path clip-path="url(#clip950)" d="M35.1993 968.961 Q31.2526 966.765 29.3747 963.709 Q27.4968 960.653 27.4968 956.516 Q27.4968 950.946 31.4117 947.922 Q35.2948 944.898 42.4881 944.898 L64.0042 944.898 L64.0042 950.787 L42.679 950.787 Q37.5546 950.787 35.072 952.601 Q32.5894 954.415 32.5894 958.139 Q32.5894 962.69 35.6131 965.332 Q38.6368 967.974 43.8567 967.974 L64.0042 967.974 L64.0042 973.862 L42.679 973.862 Q37.5228 973.862 35.072 975.677 Q32.5894 977.491 32.5894 981.278 Q32.5894 985.766 35.6449 988.408 Q38.6686 991.05 43.8567 991.05 L64.0042 991.05 L64.0042 996.938 L28.3562 996.938 L28.3562 991.05 L33.8944 991.05 Q30.616 989.045 29.0564 986.244 Q27.4968 983.443 27.4968 979.591 Q27.4968 975.708 29.4702 973.003 Q31.4436 970.266 35.1993 968.961 Z" fill="#000000" fill-rule="nonzero" fill-opacity="1" /><path clip-path="url(#clip950)" d="M46.212 907.627 Q39.7508 907.627 36.0905 910.301 Q32.3984 912.942 32.3984 917.589 Q32.3984 922.236 36.0905 924.91 Q39.7508 927.552 46.212 927.552 Q52.6732 927.552 56.3653 924.91 Q60.0256 922.236 60.0256 917.589 Q60.0256 912.942 56.3653 910.301 Q52.6732 907.627 46.212 907.627 M33.7671 927.552 Q30.5842 925.706 29.0564 922.905 Q27.4968 920.072 27.4968 916.157 Q27.4968 909.664 32.6531 905.622 Q37.8093 901.548 46.212 901.548 Q54.6147 901.548 59.771 905.622 Q64.9272 909.664 64.9272 916.157 Q64.9272 920.072 63.3994 922.905 Q61.8398 925.706 58.657 927.552 L64.0042 927.552 L64.0042 933.44 L14.479 933.44 L14.479 927.552 L33.7671 927.552 Z" fill="#000000" fill-rule="nonzero" fill-opacity="1" /><path clip-path="url(#clip950)" d="M44.7161 861.348 L47.5806 861.348 L47.5806 888.275 Q53.6281 887.893 56.8109 884.647 Q59.9619 881.369 59.9619 875.544 Q59.9619 872.17 59.1344 869.019 Q58.3069 865.836 56.6518 862.717 L62.1899 862.717 Q63.5267 865.868 64.227 869.178 Q64.9272 872.488 64.9272 875.894 Q64.9272 884.424 59.9619 889.421 Q54.9967 894.386 46.5303 894.386 Q37.7774 894.386 32.6531 889.676 Q27.4968 884.933 27.4968 876.913 Q27.4968 869.719 32.1438 865.55 Q36.7589 861.348 44.7161 861.348 M42.9973 867.205 Q38.1912 867.269 35.3266 869.91 Q32.4621 872.52 32.4621 876.849 Q32.4621 881.751 35.2312 884.711 Q38.0002 887.639 43.0292 888.084 L42.9973 867.205 Z" fill="#000000" fill-rule="nonzero" fill-opacity="1" /><path clip-path="url(#clip950)" d="M33.8307 831.08 Q33.2578 832.066 33.0032 833.244 Q32.7167 834.39 32.7167 835.79 Q32.7167 840.755 35.9632 843.429 Q39.1779 846.071 45.2253 846.071 L64.0042 846.071 L64.0042 851.959 L28.3562 851.959 L28.3562 846.071 L33.8944 846.071 Q30.6479 844.225 29.0883 841.265 Q27.4968 838.305 27.4968 834.071 Q27.4968 833.467 27.5923 832.735 Q27.656 832.003 27.8151 831.111 L33.8307 831.08 Z" fill="#000000" fill-rule="nonzero" fill-opacity="1" /><path clip-path="url(#clip950)" d="M32.4621 790.403 Q32.4621 795.113 36.1542 797.851 Q39.8145 800.588 46.212 800.588 Q52.6095 800.588 56.3017 797.882 Q59.9619 795.145 59.9619 790.403 Q59.9619 785.724 56.2698 782.987 Q52.5777 780.249 46.212 780.249 Q39.8781 780.249 36.186 782.987 Q32.4621 785.724 32.4621 790.403 M27.4968 790.403 Q27.4968 782.764 32.4621 778.403 Q37.4273 774.043 46.212 774.043 Q54.9649 774.043 59.9619 778.403 Q64.9272 782.764 64.9272 790.403 Q64.9272 798.073 59.9619 802.434 Q54.9649 806.763 46.212 806.763 Q37.4273 806.763 32.4621 802.434 Q27.4968 798.073 27.4968 790.403 Z" fill="#000000" fill-rule="nonzero" fill-opacity="1" /><path clip-path="url(#clip950)" d="M14.479 746.288 L19.3487 746.288 L19.3487 751.89 Q19.3487 755.041 20.6219 756.282 Q21.895 757.492 25.2052 757.492 L28.3562 757.492 L28.3562 747.848 L32.9077 747.848 L32.9077 757.492 L64.0042 757.492 L64.0042 763.38 L32.9077 763.38 L32.9077 768.982 L28.3562 768.982 L28.3562 763.38 L25.8736 763.38 Q19.9216 763.38 17.2162 760.611 Q14.479 757.842 14.479 751.826 L14.479 746.288 Z" fill="#000000" fill-rule="nonzero" fill-opacity="1" /><path clip-path="url(#clip950)" d="M29.7248 695.013 L35.1993 695.013 Q33.8307 697.495 33.1623 700.01 Q32.4621 702.492 32.4621 705.039 Q32.4621 710.736 36.0905 713.887 Q39.6872 717.038 46.212 717.038 Q52.7369 717.038 56.3653 713.887 Q59.9619 710.736 59.9619 705.039 Q59.9619 702.492 59.2935 700.01 Q58.5933 697.495 57.2247 695.013 L62.6355 695.013 Q63.7814 697.463 64.3543 700.105 Q64.9272 702.715 64.9272 705.675 Q64.9272 713.728 59.8664 718.47 Q54.8057 723.213 46.212 723.213 Q37.491 723.213 32.4939 718.438 Q27.4968 713.632 27.4968 705.293 Q27.4968 702.588 28.0697 700.01 Q28.6108 697.431 29.7248 695.013 Z" fill="#000000" fill-rule="nonzero" fill-opacity="1" /><path clip-path="url(#clip950)" d="M42.4881 655.195 L64.0042 655.195 L64.0042 661.051 L42.679 661.051 Q37.6183 661.051 35.1038 663.025 Q32.5894 664.998 32.5894 668.945 Q32.5894 673.687 35.6131 676.425 Q38.6368 679.162 43.8567 679.162 L64.0042 679.162 L64.0042 685.05 L14.479 685.05 L14.479 679.162 L33.8944 679.162 Q30.6797 677.061 29.0883 674.228 Q27.4968 671.364 27.4968 667.64 Q27.4968 661.497 31.3163 658.346 Q35.1038 655.195 42.4881 655.195 Z" fill="#000000" fill-rule="nonzero" fill-opacity="1" /><path clip-path="url(#clip950)" d="M46.0847 627.313 Q46.0847 634.411 47.7079 637.148 Q49.3312 639.886 53.2461 639.886 Q56.3653 639.886 58.2114 637.848 Q60.0256 635.78 60.0256 632.247 Q60.0256 627.377 56.5881 624.449 Q53.1188 621.489 47.3897 621.489 L46.0847 621.489 L46.0847 627.313 M43.6657 615.632 L64.0042 615.632 L64.0042 621.489 L58.5933 621.489 Q61.8398 623.494 63.3994 626.486 Q64.9272 629.478 64.9272 633.806 Q64.9272 639.281 61.8716 642.527 Q58.7843 645.742 53.6281 645.742 Q47.6125 645.742 44.5569 641.732 Q41.5014 637.689 41.5014 629.7 L41.5014 621.489 L40.9285 621.489 Q36.8862 621.489 34.6901 624.162 Q32.4621 626.804 32.4621 631.61 Q32.4621 634.666 33.1941 637.562 Q33.9262 640.458 35.3903 643.132 L29.9795 643.132 Q28.7381 639.917 28.1334 636.894 Q27.4968 633.87 27.4968 631.005 Q27.4968 623.271 31.5072 619.452 Q35.5176 615.632 43.6657 615.632 Z" fill="#000000" fill-rule="nonzero" fill-opacity="1" /><path clip-path="url(#clip950)" d="M33.8307 582.912 Q33.2578 583.899 33.0032 585.077 Q32.7167 586.223 32.7167 587.623 Q32.7167 592.588 35.9632 595.262 Q39.1779 597.904 45.2253 597.904 L64.0042 597.904 L64.0042 603.792 L28.3562 603.792 L28.3562 597.904 L33.8944 597.904 Q30.6479 596.058 29.0883 593.098 Q27.4968 590.138 27.4968 585.904 Q27.4968 585.3 27.5923 584.568 Q27.656 583.835 27.8151 582.944 L33.8307 582.912 Z" fill="#000000" fill-rule="nonzero" fill-opacity="1" /><path clip-path="url(#clip950)" d="M46.0847 560.569 Q46.0847 567.667 47.7079 570.404 Q49.3312 573.141 53.2461 573.141 Q56.3653 573.141 58.2114 571.104 Q60.0256 569.035 60.0256 565.502 Q60.0256 560.632 56.5881 557.704 Q53.1188 554.744 47.3897 554.744 L46.0847 554.744 L46.0847 560.569 M43.6657 548.888 L64.0042 548.888 L64.0042 554.744 L58.5933 554.744 Q61.8398 556.749 63.3994 559.741 Q64.9272 562.733 64.9272 567.062 Q64.9272 572.536 61.8716 575.783 Q58.7843 578.998 53.6281 578.998 Q47.6125 578.998 44.5569 574.987 Q41.5014 570.945 41.5014 562.956 L41.5014 554.744 L40.9285 554.744 Q36.8862 554.744 34.6901 557.418 Q32.4621 560.06 32.4621 564.866 Q32.4621 567.921 33.1941 570.818 Q33.9262 573.714 35.3903 576.388 L29.9795 576.388 Q28.7381 573.173 28.1334 570.149 Q27.4968 567.125 27.4968 564.261 Q27.4968 556.527 31.5072 552.707 Q35.5176 548.888 43.6657 548.888 Z" fill="#000000" fill-rule="nonzero" fill-opacity="1" /><path clip-path="url(#clip950)" d="M29.7248 511.171 L35.1993 511.171 Q33.8307 513.654 33.1623 516.168 Q32.4621 518.651 32.4621 521.197 Q32.4621 526.894 36.0905 530.045 Q39.6872 533.196 46.212 533.196 Q52.7369 533.196 56.3653 530.045 Q59.9619 526.894 59.9619 521.197 Q59.9619 518.651 59.2935 516.168 Q58.5933 513.654 57.2247 511.171 L62.6355 511.171 Q63.7814 513.622 64.3543 516.263 Q64.9272 518.873 64.9272 521.833 Q64.9272 529.886 59.8664 534.629 Q54.8057 539.371 46.212 539.371 Q37.491 539.371 32.4939 534.597 Q27.4968 529.791 27.4968 521.452 Q27.4968 518.746 28.0697 516.168 Q28.6108 513.59 29.7248 511.171 Z" fill="#000000" fill-rule="nonzero" fill-opacity="1" /><path clip-path="url(#clip950)" d="M18.2347 495.193 L28.3562 495.193 L28.3562 483.13 L32.9077 483.13 L32.9077 495.193 L52.2594 495.193 Q56.6199 495.193 57.8613 494.015 Q59.1026 492.806 59.1026 489.146 L59.1026 483.13 L64.0042 483.13 L64.0042 489.146 Q64.0042 495.925 61.4897 498.503 Q58.9434 501.081 52.2594 501.081 L32.9077 501.081 L32.9077 505.378 L28.3562 505.378 L28.3562 501.081 L18.2347 501.081 L18.2347 495.193 Z" fill="#000000" fill-rule="nonzero" fill-opacity="1" /><path clip-path="url(#clip950)" d="M44.7161 444.936 L47.5806 444.936 L47.5806 471.863 Q53.6281 471.481 56.8109 468.234 Q59.9619 464.956 59.9619 459.131 Q59.9619 455.757 59.1344 452.606 Q58.3069 449.424 56.6518 446.304 L62.1899 446.304 Q63.5267 449.455 64.227 452.766 Q64.9272 456.076 64.9272 459.481 Q64.9272 468.011 59.9619 473.009 Q54.9967 477.974 46.5303 477.974 Q37.7774 477.974 32.6531 473.263 Q27.4968 468.521 27.4968 460.5 Q27.4968 453.307 32.1438 449.137 Q36.7589 444.936 44.7161 444.936 M42.9973 450.792 Q38.1912 450.856 35.3266 453.498 Q32.4621 456.108 32.4621 460.436 Q32.4621 465.338 35.2312 468.298 Q38.0002 471.226 43.0292 471.672 L42.9973 450.792 Z" fill="#000000" fill-rule="nonzero" fill-opacity="1" /><path clip-path="url(#clip950)" d="M33.8307 414.667 Q33.2578 415.653 33.0032 416.831 Q32.7167 417.977 32.7167 419.377 Q32.7167 424.343 35.9632 427.016 Q39.1779 429.658 45.2253 429.658 L64.0042 429.658 L64.0042 435.546 L28.3562 435.546 L28.3562 429.658 L33.8944 429.658 Q30.6479 427.812 29.0883 424.852 Q27.4968 421.892 27.4968 417.659 Q27.4968 417.054 27.5923 416.322 Q27.656 415.59 27.8151 414.699 L33.8307 414.667 Z" fill="#000000" fill-rule="nonzero" fill-opacity="1" /><path clip-path="url(#clip950)" d="M29.4065 385.798 L34.9447 385.798 Q33.6716 388.281 33.035 390.955 Q32.3984 393.628 32.3984 396.493 Q32.3984 400.853 33.7352 403.049 Q35.072 405.214 37.7456 405.214 Q39.7826 405.214 40.9603 403.654 Q42.1061 402.095 43.1565 397.384 L43.6021 395.379 Q44.9389 389.14 47.3897 386.53 Q49.8086 383.889 54.1691 383.889 Q59.1344 383.889 62.0308 387.835 Q64.9272 391.75 64.9272 398.625 Q64.9272 401.49 64.3543 404.609 Q63.8132 407.696 62.6992 411.134 L56.6518 411.134 Q58.3387 407.887 59.198 404.736 Q60.0256 401.585 60.0256 398.498 Q60.0256 394.36 58.6251 392.132 Q57.1929 389.904 54.6147 389.904 Q52.2276 389.904 50.9545 391.527 Q49.6813 393.119 48.5037 398.562 L48.0262 400.599 Q46.8804 406.041 44.5251 408.46 Q42.138 410.879 38.0002 410.879 Q32.9713 410.879 30.2341 407.314 Q27.4968 403.75 27.4968 397.193 Q27.4968 393.946 27.9743 391.082 Q28.4517 388.217 29.4065 385.798 Z" fill="#000000" fill-rule="nonzero" fill-opacity="1" /><path clip-path="url(#clip952)" d="M295.201 47.2441 L295.201 1423.18 L562.484 1423.18 L562.484 47.2441 L295.201 47.2441 L295.201 47.2441  Z" fill="#009af9" fill-rule="evenodd" fill-opacity="1"/>
<polyline clip-path="url(#clip952)" style="stroke:#000000; stroke-linecap:round; stroke-linejoin:round; stroke-width:4; stroke-opacity:1; fill:none" points="295.201,47.2441 295.201,1423.18 562.484,1423.18 562.484,47.2441 295.201,47.2441 "/>
<path clip-path="url(#clip952)" d="M629.304 563.22 L629.304 1423.18 L896.587 1423.18 L896.587 563.22 L629.304 563.22 L629.304 563.22  Z" fill="#009af9" fill-rule="evenodd" fill-opacity="1"/>
<polyline clip-path="url(#clip952)" style="stroke:#000000; stroke-linecap:round; stroke-linejoin:round; stroke-width:4; stroke-opacity:1; fill:none" points="629.304,563.22 629.304,1423.18 896.587,1423.18 896.587,563.22 629.304,563.22 "/>
<path clip-path="url(#clip952)" d="M963.408 1079.2 L963.408 1423.18 L1230.69 1423.18 L1230.69 1079.2 L963.408 1079.2 L963.408 1079.2  Z" fill="#009af9" fill-rule="evenodd" fill-opacity="1"/>
<polyline clip-path="url(#clip952)" style="stroke:#000000; stroke-linecap:round; stroke-linejoin:round; stroke-width:4; stroke-opacity:1; fill:none" points="963.408,1079.2 963.408,1423.18 1230.69,1423.18 1230.69,1079.2 963.408,1079.2 "/>
<path clip-path="url(#clip952)" d="M1297.51 1251.19 L1297.51 1423.18 L1564.79 1423.18 L1564.79 1251.19 L1297.51 1251.19 L1297.51 1251.19  Z" fill="#009af9" fill-rule="evenodd" fill-opacity="1"/>
<polyline clip-path="url(#clip952)" style="stroke:#000000; stroke-linecap:round; stroke-linejoin:round; stroke-width:4; stroke-opacity:1; fill:none" points="1297.51,1251.19 1297.51,1423.18 1564.79,1423.18 1564.79,1251.19 1297.51,1251.19 "/>
<path clip-path="url(#clip952)" d="M1631.61 1251.19 L1631.61 1423.18 L1898.9 1423.18 L1898.9 1251.19 L1631.61 1251.19 L1631.61 1251.19  Z" fill="#009af9" fill-rule="evenodd" fill-opacity="1"/>
<polyline clip-path="url(#clip952)" style="stroke:#000000; stroke-linecap:round; stroke-linejoin:round; stroke-width:4; stroke-opacity:1; fill:none" points="1631.61,1251.19 1631.61,1423.18 1898.9,1423.18 1898.9,1251.19 1631.61,1251.19 "/>
<path clip-path="url(#clip952)" d="M1965.72 1251.19 L1965.72 1423.18 L2233 1423.18 L2233 1251.19 L1965.72 1251.19 L1965.72 1251.19  Z" fill="#009af9" fill-rule="evenodd" fill-opacity="1"/>
<polyline clip-path="url(#clip952)" style="stroke:#000000; stroke-linecap:round; stroke-linejoin:round; stroke-width:4; stroke-opacity:1; fill:none" points="1965.72,1251.19 1965.72,1423.18 2233,1423.18 2233,1251.19 1965.72,1251.19 "/>
<circle clip-path="url(#clip952)" style="fill:#009af9; stroke:none; fill-opacity:0" cx="428.842" cy="47.2441" r="2"/>
<circle clip-path="url(#clip952)" style="fill:#009af9; stroke:none; fill-opacity:0" cx="762.946" cy="563.22" r="2"/>
<circle clip-path="url(#clip952)" style="fill:#009af9; stroke:none; fill-opacity:0" cx="1097.05" cy="1079.2" r="2"/>
<circle clip-path="url(#clip952)" style="fill:#009af9; stroke:none; fill-opacity:0" cx="1431.15" cy="1251.19" r="2"/>
<circle clip-path="url(#clip952)" style="fill:#009af9; stroke:none; fill-opacity:0" cx="1765.26" cy="1251.19" r="2"/>
<circle clip-path="url(#clip952)" style="fill:#009af9; stroke:none; fill-opacity:0" cx="2099.36" cy="1251.19" r="2"/>
</svg>
