<?xml version="1.0" encoding="utf-8"?>
<svg xmlns="http://www.w3.org/2000/svg" xmlns:xlink="http://www.w3.org/1999/xlink" width="600" height="600" viewBox="0 0 2400 2400">
<defs>
  <clipPath id="clip480">
    <rect x="0" y="0" width="2400" height="2400"/>
  </clipPath>
</defs>
<path clip-path="url(#clip480)" d="M0 2400 L2400 2400 L2400 0 L0 0  Z" fill="#ffffff" fill-rule="evenodd" fill-opacity="1"/>
<defs>
  <clipPath id="clip481">
    <rect x="480" y="240" width="1681" height="1681"/>
  </clipPath>
</defs>
<path clip-path="url(#clip480)" d="M148.057 2261.17 L2352.76 2261.17 L2352.76 47.2441 L148.057 47.2441  Z" fill="#ffffff" fill-rule="evenodd" fill-opacity="1"/>
<defs>
  <clipPath id="clip482">
    <rect x="148" y="47" width="2206" height="2215"/>
  </clipPath>
</defs>
<polyline clip-path="url(#clip482)" style="stroke:#000000; stroke-linecap:round; stroke-linejoin:round; stroke-width:2; stroke-opacity:0.1; fill:none" points="406.43,2261.17 406.43,47.2441 "/>
<polyline clip-path="url(#clip482)" style="stroke:#000000; stroke-linecap:round; stroke-linejoin:round; stroke-width:2; stroke-opacity:0.1; fill:none" points="838.578,2261.17 838.578,47.2441 "/>
<polyline clip-path="url(#clip482)" style="stroke:#000000; stroke-linecap:round; stroke-linejoin:round; stroke-width:2; stroke-opacity:0.1; fill:none" points="1270.73,2261.17 1270.73,47.2441 "/>
<polyline clip-path="url(#clip482)" style="stroke:#000000; stroke-linecap:round; stroke-linejoin:round; stroke-width:2; stroke-opacity:0.1; fill:none" points="1702.88,2261.17 1702.88,47.2441 "/>
<polyline clip-path="url(#clip482)" style="stroke:#000000; stroke-linecap:round; stroke-linejoin:round; stroke-width:2; stroke-opacity:0.1; fill:none" points="2135.02,2261.17 2135.02,47.2441 "/>
<polyline clip-path="url(#clip480)" style="stroke:#000000; stroke-linecap:round; stroke-linejoin:round; stroke-width:4; stroke-opacity:1; fill:none" points="148.057,2261.17 2352.76,2261.17 "/>
<polyline clip-path="url(#clip480)" style="stroke:#000000; stroke-linecap:round; stroke-linejoin:round; stroke-width:4; stroke-opacity:1; fill:none" points="406.43,2261.17 406.43,2242.27 "/>
<polyline clip-path="url(#clip480)" style="stroke:#000000; stroke-linecap:round; stroke-linejoin:round; stroke-width:4; stroke-opacity:1; fill:none" points="838.578,2261.17 838.578,2242.27 "/>
<polyline clip-path="url(#clip480)" style="stroke:#000000; stroke-linecap:round; stroke-linejoin:round; stroke-width:4; stroke-opacity:1; fill:none" points="1270.73,2261.17 1270.73,2242.27 "/>
<polyline clip-path="url(#clip480)" style="stroke:#000000; stroke-linecap:round; stroke-linejoin:round; stroke-width:4; stroke-opacity:1; fill:none" points="1702.88,2261.17 1702.88,2242.27 "/>
<polyline clip-path="url(#clip480)" style="stroke:#000000; stroke-linecap:round; stroke-linejoin:round; stroke-width:4; stroke-opacity:1; fill:none" points="2135.02,2261.17 2135.02,2242.27 "/>
<path clip-path="url(#clip480)" d="M376.187 2306.74 L405.862 2306.74 L405.862 2310.67 L376.187 2310.67 L376.187 2306.74 Z" fill="#000000" fill-rule="nonzero" fill-opacity="1" /><path clip-path="url(#clip480)" d="M416.765 2319.63 L424.404 2319.63 L424.404 2293.27 L416.094 2294.93 L416.094 2290.67 L424.358 2289.01 L429.034 2289.01 L429.034 2319.63 L436.672 2319.63 L436.672 2323.57 L416.765 2323.57 L416.765 2319.63 Z" fill="#000000" fill-rule="nonzero" fill-opacity="1" /><path clip-path="url(#clip480)" d="M838.578 2292.09 Q834.967 2292.09 833.138 2295.65 Q831.333 2299.19 831.333 2306.32 Q831.333 2313.43 833.138 2316.99 Q834.967 2320.54 838.578 2320.54 Q842.212 2320.54 844.018 2316.99 Q845.847 2313.43 845.847 2306.32 Q845.847 2299.19 844.018 2295.65 Q842.212 2292.09 838.578 2292.09 M838.578 2288.38 Q844.388 2288.38 847.444 2292.99 Q850.523 2297.57 850.523 2306.32 Q850.523 2315.05 847.444 2319.66 Q844.388 2324.24 838.578 2324.24 Q832.768 2324.24 829.689 2319.66 Q826.634 2315.05 826.634 2306.32 Q826.634 2297.57 829.689 2292.99 Q832.768 2288.38 838.578 2288.38 Z" fill="#000000" fill-rule="nonzero" fill-opacity="1" /><path clip-path="url(#clip480)" d="M1261.11 2319.63 L1268.75 2319.63 L1268.75 2293.27 L1260.44 2294.93 L1260.44 2290.67 L1268.7 2289.01 L1273.38 2289.01 L1273.38 2319.63 L1281.02 2319.63 L1281.02 2323.57 L1261.11 2323.57 L1261.11 2319.63 Z" fill="#000000" fill-rule="nonzero" fill-opacity="1" /><path clip-path="url(#clip480)" d="M1697.53 2319.63 L1713.85 2319.63 L1713.85 2323.57 L1691.9 2323.57 L1691.9 2319.63 Q1694.57 2316.88 1699.15 2312.25 Q1703.75 2307.6 1704.94 2306.25 Q1707.18 2303.73 1708.06 2301.99 Q1708.96 2300.23 1708.96 2298.54 Q1708.96 2295.79 1707.02 2294.05 Q1705.1 2292.32 1702 2292.32 Q1699.8 2292.32 1697.34 2293.08 Q1694.91 2293.85 1692.13 2295.4 L1692.13 2290.67 Q1694.96 2289.54 1697.41 2288.96 Q1699.87 2288.38 1701.9 2288.38 Q1707.27 2288.38 1710.47 2291.07 Q1713.66 2293.75 1713.66 2298.24 Q1713.66 2300.37 1712.85 2302.29 Q1712.07 2304.19 1709.96 2306.79 Q1709.38 2307.46 1706.28 2310.67 Q1703.18 2313.87 1697.53 2319.63 Z" fill="#000000" fill-rule="nonzero" fill-opacity="1" /><path clip-path="url(#clip480)" d="M2139.27 2304.93 Q2142.63 2305.65 2144.5 2307.92 Q2146.4 2310.19 2146.4 2313.52 Q2146.4 2318.64 2142.88 2321.44 Q2139.36 2324.24 2132.88 2324.24 Q2130.71 2324.24 2128.39 2323.8 Q2126.1 2323.38 2123.65 2322.53 L2123.65 2318.01 Q2125.59 2319.15 2127.91 2319.73 Q2130.22 2320.3 2132.74 2320.3 Q2137.14 2320.3 2139.43 2318.57 Q2141.75 2316.83 2141.75 2313.52 Q2141.75 2310.47 2139.6 2308.75 Q2137.47 2307.02 2133.65 2307.02 L2129.62 2307.02 L2129.62 2303.17 L2133.83 2303.17 Q2137.28 2303.17 2139.11 2301.81 Q2140.94 2300.42 2140.94 2297.83 Q2140.94 2295.17 2139.04 2293.75 Q2137.17 2292.32 2133.65 2292.32 Q2131.73 2292.32 2129.53 2292.73 Q2127.33 2293.15 2124.69 2294.03 L2124.69 2289.86 Q2127.35 2289.12 2129.67 2288.75 Q2132 2288.38 2134.06 2288.38 Q2139.39 2288.38 2142.49 2290.81 Q2145.59 2293.22 2145.59 2297.34 Q2145.59 2300.21 2143.95 2302.2 Q2142.3 2304.17 2139.27 2304.93 Z" fill="#000000" fill-rule="nonzero" fill-opacity="1" /><polyline clip-path="url(#clip482)" style="stroke:#000000; stroke-linecap:round; stroke-linejoin:round; stroke-width:2; stroke-opacity:0.1; fill:none" points="148.057,2190 2352.76,2190 "/>
<polyline clip-path="url(#clip482)" style="stroke:#000000; stroke-linecap:round; stroke-linejoin:round; stroke-width:2; stroke-opacity:0.1; fill:none" points="148.057,1864.99 2352.76,1864.99 "/>
<polyline clip-path="url(#clip482)" style="stroke:#000000; stroke-linecap:round; stroke-linejoin:round; stroke-width:2; stroke-opacity:0.1; fill:none" points="148.057,1539.98 2352.76,1539.98 "/>
<polyline clip-path="url(#clip482)" style="stroke:#000000; stroke-linecap:round; stroke-linejoin:round; stroke-width:2; stroke-opacity:0.1; fill:none" points="148.057,1214.97 2352.76,1214.97 "/>
<polyline clip-path="url(#clip482)" style="stroke:#000000; stroke-linecap:round; stroke-linejoin:round; stroke-width:2; stroke-opacity:0.1; fill:none" points="148.057,889.962 2352.76,889.962 "/>
<polyline clip-path="url(#clip482)" style="stroke:#000000; stroke-linecap:round; stroke-linejoin:round; stroke-width:2; stroke-opacity:0.1; fill:none" points="148.057,564.952 2352.76,564.952 "/>
<polyline clip-path="url(#clip482)" style="stroke:#000000; stroke-linecap:round; stroke-linejoin:round; stroke-width:2; stroke-opacity:0.1; fill:none" points="148.057,239.942 2352.76,239.942 "/>
<polyline clip-path="url(#clip480)" style="stroke:#000000; stroke-linecap:round; stroke-linejoin:round; stroke-width:4; stroke-opacity:1; fill:none" points="148.057,2261.17 148.057,47.2441 "/>
<polyline clip-path="url(#clip480)" style="stroke:#000000; stroke-linecap:round; stroke-linejoin:round; stroke-width:4; stroke-opacity:1; fill:none" points="148.057,2190 166.954,2190 "/>
<polyline clip-path="url(#clip480)" style="stroke:#000000; stroke-linecap:round; stroke-linejoin:round; stroke-width:4; stroke-opacity:1; fill:none" points="148.057,1864.99 166.954,1864.99 "/>
<polyline clip-path="url(#clip480)" style="stroke:#000000; stroke-linecap:round; stroke-linejoin:round; stroke-width:4; stroke-opacity:1; fill:none" points="148.057,1539.98 166.954,1539.98 "/>
<polyline clip-path="url(#clip480)" style="stroke:#000000; stroke-linecap:round; stroke-linejoin:round; stroke-width:4; stroke-opacity:1; fill:none" points="148.057,1214.97 166.954,1214.97 "/>
<polyline clip-path="url(#clip480)" style="stroke:#000000; stroke-linecap:round; stroke-linejoin:round; stroke-width:4; stroke-opacity:1; fill:none" points="148.057,889.962 166.954,889.962 "/>
<polyline clip-path="url(#clip480)" style="stroke:#000000; stroke-linecap:round; stroke-linejoin:round; stroke-width:4; stroke-opacity:1; fill:none" points="148.057,564.952 166.954,564.952 "/>
<polyline clip-path="url(#clip480)" style="stroke:#000000; stroke-linecap:round; stroke-linejoin:round; stroke-width:4; stroke-opacity:1; fill:none" points="148.057,239.942 166.954,239.942 "/>
<path clip-path="url(#clip480)" d="M50.9921 2190.45 L80.6679 2190.45 L80.6679 2194.39 L50.9921 2194.39 L50.9921 2190.45 Z" fill="#000000" fill-rule="nonzero" fill-opacity="1" /><path clip-path="url(#clip480)" d="M104.927 2188.65 Q108.283 2189.36 110.158 2191.63 Q112.057 2193.9 112.057 2197.23 Q112.057 2202.35 108.538 2205.15 Q105.02 2207.95 98.5382 2207.95 Q96.3623 2207.95 94.0475 2207.51 Q91.7558 2207.1 89.3021 2206.24 L89.3021 2201.72 Q91.2465 2202.86 93.5613 2203.44 Q95.8761 2204.02 98.3993 2204.02 Q102.797 2204.02 105.089 2202.28 Q107.404 2200.54 107.404 2197.23 Q107.404 2194.18 105.251 2192.47 Q103.121 2190.73 99.3021 2190.73 L95.2743 2190.73 L95.2743 2186.89 L99.4872 2186.89 Q102.936 2186.89 104.765 2185.52 Q106.594 2184.13 106.594 2181.54 Q106.594 2178.88 104.696 2177.47 Q102.821 2176.03 99.3021 2176.03 Q97.3808 2176.03 95.1817 2176.45 Q92.9826 2176.86 90.3438 2177.74 L90.3438 2173.58 Q93.0058 2172.84 95.3206 2172.47 Q97.6585 2172.1 99.7187 2172.1 Q105.043 2172.1 108.145 2174.53 Q111.246 2176.93 111.246 2181.05 Q111.246 2183.92 109.603 2185.91 Q107.959 2187.88 104.927 2188.65 Z" fill="#000000" fill-rule="nonzero" fill-opacity="1" /><path clip-path="url(#clip480)" d="M51.9412 1865.44 L81.617 1865.44 L81.617 1869.38 L51.9412 1869.38 L51.9412 1865.44 Z" fill="#000000" fill-rule="nonzero" fill-opacity="1" /><path clip-path="url(#clip480)" d="M95.7373 1878.34 L112.057 1878.34 L112.057 1882.27 L90.1123 1882.27 L90.1123 1878.34 Q92.7743 1875.58 97.3576 1870.95 Q101.964 1866.3 103.145 1864.96 Q105.39 1862.43 106.27 1860.7 Q107.172 1858.94 107.172 1857.25 Q107.172 1854.49 105.228 1852.76 Q103.307 1851.02 100.205 1851.02 Q98.0058 1851.02 95.5521 1851.78 Q93.1215 1852.55 90.3438 1854.1 L90.3438 1849.38 Q93.1678 1848.24 95.6215 1847.66 Q98.0752 1847.09 100.112 1847.09 Q105.483 1847.09 108.677 1849.77 Q111.871 1852.46 111.871 1856.95 Q111.871 1859.08 111.061 1861 Q110.274 1862.9 108.168 1865.49 Q107.589 1866.16 104.487 1869.38 Q101.385 1872.57 95.7373 1878.34 Z" fill="#000000" fill-rule="nonzero" fill-opacity="1" /><path clip-path="url(#clip480)" d="M51.5708 1540.43 L81.2466 1540.43 L81.2466 1544.37 L51.5708 1544.37 L51.5708 1540.43 Z" fill="#000000" fill-rule="nonzero" fill-opacity="1" /><path clip-path="url(#clip480)" d="M92.1493 1553.33 L99.7882 1553.33 L99.7882 1526.96 L91.478 1528.63 L91.478 1524.37 L99.7419 1522.7 L104.418 1522.7 L104.418 1553.33 L112.057 1553.33 L112.057 1557.26 L92.1493 1557.26 L92.1493 1553.33 Z" fill="#000000" fill-rule="nonzero" fill-opacity="1" /><path clip-path="url(#clip480)" d="M100.112 1200.77 Q96.5011 1200.77 94.6724 1204.33 Q92.8669 1207.88 92.8669 1215.01 Q92.8669 1222.11 94.6724 1225.68 Q96.5011 1229.22 100.112 1229.22 Q103.746 1229.22 105.552 1225.68 Q107.381 1222.11 107.381 1215.01 Q107.381 1207.88 105.552 1204.33 Q103.746 1200.77 100.112 1200.77 M100.112 1197.07 Q105.922 1197.07 108.978 1201.67 Q112.057 1206.26 112.057 1215.01 Q112.057 1223.73 108.978 1228.34 Q105.922 1232.92 100.112 1232.92 Q94.3021 1232.92 91.2234 1228.34 Q88.1679 1223.73 88.1679 1215.01 Q88.1679 1206.26 91.2234 1201.67 Q94.3021 1197.07 100.112 1197.07 Z" fill="#000000" fill-rule="nonzero" fill-opacity="1" /><path clip-path="url(#clip480)" d="M92.1493 903.307 L99.7882 903.307 L99.7882 876.941 L91.478 878.608 L91.478 874.348 L99.7419 872.682 L104.418 872.682 L104.418 903.307 L112.057 903.307 L112.057 907.242 L92.1493 907.242 L92.1493 903.307 Z" fill="#000000" fill-rule="nonzero" fill-opacity="1" /><path clip-path="url(#clip480)" d="M95.7373 578.297 L112.057 578.297 L112.057 582.232 L90.1123 582.232 L90.1123 578.297 Q92.7743 575.542 97.3576 570.913 Q101.964 566.26 103.145 564.917 Q105.39 562.394 106.27 560.658 Q107.172 558.899 107.172 557.209 Q107.172 554.454 105.228 552.718 Q103.307 550.982 100.205 550.982 Q98.0058 550.982 95.5521 551.746 Q93.1215 552.51 90.3438 554.061 L90.3438 549.339 Q93.1678 548.204 95.6215 547.626 Q98.0752 547.047 100.112 547.047 Q105.483 547.047 108.677 549.732 Q111.871 552.417 111.871 556.908 Q111.871 559.038 111.061 560.959 Q110.274 562.857 108.168 565.45 Q107.589 566.121 104.487 569.339 Q101.385 572.533 95.7373 578.297 Z" fill="#000000" fill-rule="nonzero" fill-opacity="1" /><path clip-path="url(#clip480)" d="M104.927 238.588 Q108.283 239.306 110.158 241.574 Q112.057 243.843 112.057 247.176 Q112.057 252.292 108.538 255.093 Q105.02 257.894 98.5382 257.894 Q96.3623 257.894 94.0475 257.454 Q91.7558 257.037 89.3021 256.181 L89.3021 251.667 Q91.2465 252.801 93.5613 253.38 Q95.8761 253.959 98.3993 253.959 Q102.797 253.959 105.089 252.222 Q107.404 250.486 107.404 247.176 Q107.404 244.121 105.251 242.408 Q103.121 240.672 99.3021 240.672 L95.2743 240.672 L95.2743 236.829 L99.4872 236.829 Q102.936 236.829 104.765 235.463 Q106.594 234.074 106.594 231.482 Q106.594 228.82 104.696 227.408 Q102.821 225.973 99.3021 225.973 Q97.3808 225.973 95.1817 226.389 Q92.9826 226.806 90.3438 227.686 L90.3438 223.519 Q93.0058 222.778 95.3206 222.408 Q97.6585 222.037 99.7187 222.037 Q105.043 222.037 108.145 224.468 Q111.246 226.875 111.246 230.996 Q111.246 233.866 109.603 235.857 Q107.959 237.824 104.927 238.588 Z" fill="#000000" fill-rule="nonzero" fill-opacity="1" /><polyline clip-path="url(#clip482)" style="stroke:#000080; stroke-linecap:round; stroke-linejoin:round; stroke-width:4; stroke-opacity:1; fill:none" points="786.163,1548.29 790.416,1532.67 794.146,1517.27 797.343,1502.11 799.998,1487.23 802.105,1472.68 803.658,1458.49 804.655,1444.69 805.092,1431.32 804.968,1418.42 804.284,1406 803.042,1394.11 801.243,1382.78 798.894,1372.03 795.999,1361.89 792.567,1352.39 788.605,1343.54 784.123,1335.38 779.133,1327.92 773.648,1321.18 767.68,1315.17 761.245,1309.92 754.359,1305.43 747.039,1301.73 739.303,1298.8 731.171,1296.67 722.663,1295.34 713.801,1294.81 704.606,1295.08 695.101,1296.16 685.311,1298.03 675.259,1300.71 664.971,1304.16 654.473,1308.4 643.79,1313.41 632.95,1319.18 621.979,1325.68 610.906,1332.92 599.757,1340.86 588.56,1349.49 577.344,1358.78 566.137,1368.72 554.966,1379.28 543.86,1390.43 532.846,1402.14 521.951,1414.39 511.204,1427.15 500.63,1440.37 490.257,1454.04 480.11,1468.11 470.214,1482.55 460.595,1497.32 451.276,1512.39 442.281,1527.72 433.632,1543.28 425.351,1559.01 417.458,1574.89 409.973,1590.87 402.916,1606.91 396.302,1622.98 390.15,1639.02 384.474,1655.02 379.289,1670.91 374.607,1686.67 370.441,1702.25 366.8,1717.62 363.695,1732.73 361.131,1747.55 359.117,1762.04 357.657,1776.17 356.754,1789.9 356.411,1803.2 356.629,1816.02 357.407,1828.35 358.744,1840.15 360.635,1851.38 363.076,1862.03 366.062,1872.07 369.584,1881.46 373.635,1890.19 378.202,1898.24 383.276,1905.58 388.844,1912.2 394.892,1918.08 401.404,1923.2 408.364,1927.56 415.755,1931.14 423.559,1933.93 431.755,1935.92 440.324,1937.12 449.244,1937.52 458.493,1937.11 468.047,1935.9 477.883,1933.89 487.977,1931.08 498.302,1927.49 508.833,1923.12 519.544,1917.99 530.408,1912.1 541.398,1905.47 552.486,1898.11 563.645,1890.05 574.847,1881.31 586.063,1871.91 597.266,1861.86 608.428,1851.2 619.521,1839.95 630.517,1828.15 641.389,1815.81 652.109,1802.98 662.65,1789.68 672.987,1775.94 683.094,1761.81 692.945,1747.31 702.515,1732.48 711.781,1717.36 720.719,1701.99 729.308,1686.41 737.526,1670.65 745.351,1654.75 752.765,1638.76 759.75,1622.71 766.286,1606.64 772.36,1590.6 777.954,1574.62 783.055,1558.74 787.651,1543.01 "/>
<polyline clip-path="url(#clip482)" style="stroke:#000080; stroke-linecap:round; stroke-linejoin:round; stroke-width:4; stroke-opacity:1; fill:none" points="2268.85,906.823 2276.2,896.762 2281.84,887.035 2285.76,877.664 2287.95,868.675 2288.4,860.089 2287.12,851.929 2284.1,844.213 2279.35,836.963 2272.89,830.195 2264.73,823.926 2254.89,818.173 2243.4,812.95 2230.29,808.27 2215.58,804.144 2199.31,800.582 2181.53,797.595 2162.29,795.188 2141.61,793.369 2119.57,792.142 2096.21,791.509 2071.6,791.472 2045.79,792.033 2018.85,793.188 1990.84,794.935 1961.84,797.27 1931.92,800.187 1901.15,803.679 1869.62,807.737 1837.39,812.35 1804.55,817.508 1771.18,823.197 1737.37,829.403 1703.2,836.111 1668.76,843.304 1634.12,850.964 1599.39,859.071 1564.63,867.606 1529.95,876.547 1495.43,885.872 1461.15,895.558 1427.21,905.58 1393.67,915.913 1360.64,926.531 1328.19,937.408 1296.4,948.517 1265.35,959.83 1235.12,971.319 1205.79,982.954 1177.43,994.708 1150.1,1006.55 1123.88,1018.45 1098.84,1030.38 1075.03,1042.31 1052.52,1054.21 1031.35,1066.05 1011.6,1077.79 993.294,1089.42 976.49,1100.91 961.228,1112.21 947.545,1123.31 935.476,1134.17 925.052,1144.78 916.297,1155.1 909.235,1165.11 903.882,1174.78 900.252,1184.08 898.355,1193.01 898.194,1201.52 899.771,1209.61 903.081,1217.25 908.116,1224.42 914.863,1231.1 923.306,1237.29 933.424,1242.95 945.191,1248.08 958.578,1252.67 973.551,1256.7 990.073,1260.17 1008.1,1263.06 1027.59,1265.37 1048.5,1267.09 1070.77,1268.22 1094.34,1268.75 1119.16,1268.68 1145.17,1268.02 1172.29,1266.77 1200.47,1264.92 1229.63,1262.49 1259.7,1259.47 1290.6,1255.89 1322.26,1251.73 1354.59,1247.03 1387.53,1241.78 1420.97,1236 1454.85,1229.71 1489.07,1222.92 1523.56,1215.65 1558.21,1207.91 1592.96,1199.73 1627.71,1191.13 1662.37,1182.12 1696.85,1172.73 1731.08,1162.99 1764.96,1152.91 1798.42,1142.53 1831.36,1131.87 1863.71,1120.95 1895.38,1109.8 1926.29,1098.46 1956.38,1086.94 1985.55,1075.29 2013.75,1063.52 2040.89,1051.66 2066.91,1039.75 2091.75,1027.82 2115.35,1015.9 2137.64,1004.01 2158.57,992.18 2178.08,980.449 2196.14,968.843 2212.69,957.389 2227.69,946.118 2241.1,935.056 2252.89,924.232 2263.04,913.673 2271.51,903.404 "/>
<polyline clip-path="url(#clip482)" style="stroke:#000080; stroke-linecap:round; stroke-linejoin:round; stroke-width:4; stroke-opacity:1; fill:none" points="1746.02,1735.77 1738.68,1715.77 1730.02,1695.57 1720.05,1675.23 1708.8,1654.78 1696.31,1634.28 1682.6,1613.79 1667.7,1593.35 1651.66,1573.02 1634.5,1552.84 1616.29,1532.87 1597.06,1513.15 1576.85,1493.74 1555.73,1474.69 1533.74,1456.03 1510.94,1437.83 1487.38,1420.11 1463.12,1402.94 1438.23,1386.35 1412.77,1370.38 1386.8,1355.07 1360.38,1340.46 1333.59,1326.6 1306.48,1313.5 1279.12,1301.2 1251.6,1289.75 1223.96,1279.15 1196.29,1269.45 1168.65,1260.66 1141.11,1252.81 1113.74,1245.92 1086.6,1239.99 1059.77,1235.06 1033.32,1231.13 1007.3,1228.21 981.787,1226.3 956.841,1225.42 932.525,1225.56 908.9,1226.73 886.024,1228.92 863.955,1232.12 842.748,1236.34 822.456,1241.55 803.13,1247.74 784.818,1254.91 767.566,1263.02 751.417,1272.07 736.411,1282.02 722.585,1292.86 709.976,1304.55 698.613,1317.07 688.525,1330.39 679.738,1344.47 672.273,1359.27 666.149,1374.77 661.382,1390.92 657.983,1407.68 655.961,1425 655.321,1442.86 656.065,1461.19 658.19,1479.96 661.691,1499.12 666.56,1518.62 672.784,1538.42 680.348,1558.45 689.233,1578.68 699.417,1599.05 710.874,1619.51 723.576,1640 737.49,1660.49 752.583,1680.92 768.816,1701.23 786.149,1721.38 804.538,1741.31 823.938,1760.97 844.3,1780.33 865.573,1799.32 887.704,1817.9 910.638,1836.03 934.317,1853.65 958.682,1870.73 983.673,1887.22 1009.23,1903.08 1035.28,1918.27 1061.76,1932.76 1088.62,1946.5 1115.77,1959.47 1143.16,1971.62 1170.71,1982.93 1198.35,1993.38 1226.03,2002.93 1253.66,2011.56 1281.17,2019.26 1308.51,2025.99 1335.6,2031.74 1362.37,2036.51 1388.75,2040.27 1414.69,2043.02 1440.11,2044.76 1464.96,2045.47 1489.16,2045.15 1512.66,2043.81 1535.41,2041.45 1557.34,2038.08 1578.39,2033.7 1598.53,2028.32 1617.69,2021.96 1635.82,2014.63 1652.89,2006.36 1668.85,1997.16 1683.66,1987.06 1697.28,1976.07 1709.69,1964.24 1720.84,1951.58 1730.71,1938.13 1739.27,1923.93 1746.52,1909.01 1752.41,1893.4 1756.95,1877.14 1760.12,1860.29 1761.91,1842.87 1762.31,1824.93 1761.34,1806.52 1758.98,1787.68 1755.25,1768.46 1750.15,1748.91 1743.7,1729.07 "/>
<polyline clip-path="url(#clip482)" style="stroke:#000080; stroke-linecap:round; stroke-linejoin:round; stroke-width:4; stroke-opacity:1; fill:none" points="806.932,1366.88 809.051,1362.15 810.756,1357.52 812.041,1353 812.904,1348.61 813.343,1344.34 813.356,1340.22 812.944,1336.25 812.108,1332.45 810.849,1328.82 809.17,1325.37 807.077,1322.12 804.574,1319.06 801.668,1316.21 798.365,1313.58 794.674,1311.16 790.604,1308.97 786.166,1307.02 781.37,1305.3 776.229,1303.82 770.755,1302.59 764.962,1301.6 758.864,1300.87 752.477,1300.39 745.817,1300.16 738.9,1300.19 731.743,1300.47 724.366,1301 716.785,1301.79 709.02,1302.82 701.09,1304.11 693.015,1305.64 684.816,1307.4 676.513,1309.41 668.126,1311.64 659.676,1314.1 651.185,1316.78 642.674,1319.68 634.164,1322.78 625.677,1326.07 617.233,1329.56 608.854,1333.22 600.56,1337.06 592.373,1341.06 584.313,1345.21 576.4,1349.5 568.653,1353.93 561.093,1358.47 553.737,1363.12 546.605,1367.87 539.715,1372.71 533.083,1377.61 526.725,1382.58 520.659,1387.6 514.899,1392.65 509.459,1397.72 504.354,1402.81 499.595,1407.89 495.195,1412.96 491.165,1417.99 487.514,1422.99 484.253,1427.94 481.388,1432.82 478.928,1437.62 476.879,1442.34 475.244,1446.95 474.03,1451.45 473.238,1455.83 472.871,1460.07 472.929,1464.16 473.412,1468.1 474.32,1471.88 475.65,1475.48 477.398,1478.89 479.561,1482.12 482.132,1485.14 485.106,1487.95 488.474,1490.55 492.23,1492.93 496.362,1495.08 500.861,1496.99 505.716,1498.67 510.914,1500.11 516.443,1501.3 522.288,1502.24 528.436,1502.93 534.87,1503.37 541.574,1503.56 548.533,1503.49 555.728,1503.17 563.141,1502.59 570.754,1501.76 578.548,1500.68 586.504,1499.36 594.601,1497.79 602.819,1495.98 611.138,1493.94 619.537,1491.67 627.995,1489.17 636.491,1486.45 645.003,1483.52 653.51,1480.39 661.992,1477.06 670.427,1473.55 678.793,1469.85 687.07,1465.98 695.237,1461.96 703.274,1457.78 711.161,1453.47 718.877,1449.02 726.404,1444.46 733.724,1439.79 740.816,1435.03 747.665,1430.18 754.252,1425.26 760.561,1420.29 766.577,1415.26 772.284,1410.21 777.668,1405.13 782.717,1400.05 787.416,1394.96 791.754,1389.9 795.721,1384.87 799.307,1379.88 802.502,1374.94 805.299,1370.07 807.691,1365.28 "/>
<polyline clip-path="url(#clip482)" style="stroke:#000080; stroke-linecap:round; stroke-linejoin:round; stroke-width:4; stroke-opacity:1; fill:none" points="1980.15,611.617 1983.01,584.925 1984.08,558.44 1983.35,532.23 1980.82,506.36 1976.5,480.894 1970.4,455.897 1962.54,431.43 1952.93,407.554 1941.59,384.33 1928.57,361.816 1913.89,340.067 1897.58,319.138 1879.69,299.082 1860.26,279.948 1839.34,261.785 1816.98,244.638 1793.24,228.549 1768.18,213.559 1741.86,199.705 1714.35,187.022 1685.71,175.542 1656.02,165.293 1625.35,156.301 1593.78,148.588 1561.38,142.174 1528.24,137.075 1494.44,133.303 1460.07,130.869 1425.21,129.777 1389.94,130.031 1354.36,131.63 1318.56,134.57 1282.62,138.844 1246.63,144.441 1210.69,151.347 1174.88,159.544 1139.29,169.013 1104.02,179.73 1069.15,191.668 1034.77,204.796 1000.96,219.083 967.805,234.492 935.394,250.985 903.805,268.521 873.117,287.056 843.407,306.544 814.749,326.935 787.214,348.18 760.872,370.224 735.788,393.013 712.026,416.489 689.643,440.595 668.697,465.269 649.24,490.451 631.319,516.077 614.981,542.083 600.266,568.404 587.211,594.975 575.848,621.728 566.205,648.598 558.308,675.517 552.175,702.417 547.822,729.232 545.26,755.894 544.495,782.336 545.529,808.494 548.36,834.301 552.98,859.692 559.378,884.605 567.538,908.977 577.439,932.747 589.057,955.855 602.363,978.245 617.324,999.859 633.901,1020.64 652.054,1040.55 671.738,1059.52 692.902,1077.52 715.495,1094.49 739.459,1110.4 764.735,1125.2 791.26,1138.86 818.967,1151.34 847.788,1162.62 877.649,1172.66 908.476,1181.43 940.193,1188.93 972.72,1195.12 1005.98,1200 1039.88,1203.55 1074.34,1205.76 1109.28,1206.62 1144.6,1206.14 1180.23,1204.32 1216.06,1201.15 1252.01,1196.66 1288,1190.84 1323.92,1183.71 1359.7,1175.3 1395.24,1165.62 1430.45,1154.7 1465.25,1142.56 1499.54,1129.23 1533.25,1114.75 1566.28,1099.16 1598.56,1082.49 1630,1064.78 1660.53,1046.08 1690.07,1026.44 1718.54,1005.9 1745.88,984.517 1772.01,962.344 1796.88,939.435 1820.42,915.848 1842.56,891.643 1863.26,866.879 1882.46,841.618 1900.12,815.924 1916.19,789.86 1930.63,763.492 1943.4,736.886 1954.47,710.108 1963.82,683.226 1971.43,656.306 1977.26,629.415 1981.31,602.621 "/>
<polyline clip-path="url(#clip482)" style="stroke:#000080; stroke-linecap:round; stroke-linejoin:round; stroke-width:4; stroke-opacity:1; fill:none" points="1982.85,1240.63 1983.21,1236.81 1982.59,1233.04 1980.98,1229.32 1978.39,1225.66 1974.82,1222.06 1970.29,1218.55 1964.81,1215.12 1958.38,1211.79 1951.03,1208.57 1942.78,1205.45 1933.64,1202.46 1923.64,1199.59 1912.8,1196.86 1901.15,1194.27 1888.72,1191.82 1875.55,1189.54 1861.65,1187.41 1847.07,1185.44 1831.85,1183.65 1816.01,1182.03 1799.62,1180.59 1782.69,1179.33 1765.28,1178.25 1747.42,1177.37 1729.17,1176.67 1710.57,1176.17 1691.67,1175.86 1672.5,1175.74 1653.13,1175.82 1633.6,1176.09 1613.95,1176.56 1594.24,1177.21 1574.52,1178.06 1554.83,1179.1 1535.23,1180.32 1515.76,1181.73 1496.47,1183.31 1477.42,1185.07 1458.64,1187 1440.19,1189.1 1422.11,1191.35 1404.44,1193.77 1387.24,1196.33 1370.54,1199.03 1354.38,1201.87 1338.81,1204.84 1323.86,1207.93 1309.58,1211.14 1295.99,1214.45 1283.14,1217.86 1271.05,1221.36 1259.75,1224.93 1249.28,1228.58 1239.65,1232.29 1230.9,1236.06 1223.04,1239.86 1216.1,1243.7 1210.08,1247.57 1205.01,1251.45 1200.91,1255.33 1197.77,1259.22 1195.61,1263.08 1194.43,1266.92 1194.23,1270.73 1195.02,1274.5 1196.8,1278.21 1199.56,1281.86 1203.28,1285.44 1207.98,1288.94 1213.62,1292.35 1220.2,1295.66 1227.7,1298.87 1236.11,1301.97 1245.39,1304.94 1255.53,1307.79 1266.51,1310.5 1278.29,1313.06 1290.85,1315.48 1304.15,1317.74 1318.17,1319.84 1332.85,1321.78 1348.18,1323.54 1364.11,1325.13 1380.61,1326.55 1397.62,1327.77 1415.11,1328.82 1433.03,1329.67 1451.34,1330.33 1470,1330.8 1488.95,1331.08 1508.15,1331.17 1527.55,1331.06 1547.11,1330.75 1566.77,1330.25 1586.48,1329.56 1606.2,1328.68 1625.88,1327.62 1645.46,1326.36 1664.91,1324.93 1684.16,1323.31 1703.17,1321.53 1721.9,1319.57 1740.29,1317.44 1758.3,1315.16 1775.9,1312.72 1793.02,1310.13 1809.63,1307.41 1825.69,1304.54 1841.16,1301.55 1855.99,1298.44 1870.16,1295.22 1883.63,1291.89 1896.36,1288.47 1908.32,1284.96 1919.48,1281.37 1929.81,1277.71 1939.29,1273.99 1947.89,1270.21 1955.6,1266.4 1962.39,1262.56 1968.25,1258.69 1973.15,1254.81 1977.1,1250.92 1980.07,1247.04 1982.07,1243.18 1983.09,1239.34 "/>
<polyline clip-path="url(#clip482)" style="stroke:#dc143c; stroke-linecap:round; stroke-linejoin:round; stroke-width:4; stroke-opacity:1; fill:none" points="2282.61,1056.92 2287.78,1005.07 2290.36,953.582 2290.34,902.599 2287.72,852.246 2282.51,802.647 2274.72,753.926 2264.37,706.206 2251.49,659.606 2236.1,614.242 2218.25,570.227 2197.98,527.672 2175.34,486.683 2150.4,447.362 2123.2,409.808 2093.82,374.115 2062.33,340.371 2028.82,308.661 1993.35,279.064 1956.04,251.655 1916.95,226.502 1876.21,203.667 1833.9,183.208 1790.13,165.176 1745.01,149.616 1698.65,136.567 1651.18,126.062 1602.7,118.126 1553.34,112.779 1503.23,110.036 1452.49,109.902 1401.24,112.379 1349.61,117.459 1297.73,125.131 1245.74,135.375 1193.76,148.165 1141.92,163.469 1090.35,181.25 1039.19,201.463 988.548,224.057 938.564,248.976 889.359,276.157 841.057,305.533 793.778,337.03 747.641,370.569 702.761,406.068 659.249,443.435 617.216,482.58 576.765,523.403 537.999,565.802 501.013,609.673 465.901,654.904 432.749,701.383 401.642,748.994 372.656,797.617 345.865,847.132 321.334,897.414 299.126,948.338 279.296,999.776 261.893,1051.6 246.962,1103.68 234.538,1155.89 224.654,1208.09 217.335,1260.16 212.597,1311.96 210.454,1363.37 210.91,1414.26 213.965,1464.49 219.61,1513.95 227.832,1562.51 238.611,1610.05 251.918,1656.45 267.721,1701.6 285.981,1745.37 306.652,1787.67 329.681,1828.39 355.013,1867.42 382.582,1904.67 412.321,1940.04 444.155,1973.45 478.004,2004.81 513.784,2034.04 551.406,2061.07 590.775,2085.84 631.792,2108.28 674.357,2128.34 718.361,2145.95 763.695,2161.09 810.246,2173.72 857.898,2183.79 906.531,2191.3 956.023,2196.2 1006.25,2198.51 1057.09,2198.2 1108.41,2195.29 1160.09,2189.77 1211.99,2181.67 1263.99,2170.99 1315.96,2157.78 1367.76,2142.05 1419.27,2123.86 1470.36,2103.24 1520.9,2080.25 1570.76,2054.95 1619.82,2027.4 1667.96,1997.66 1715.05,1965.81 1760.99,1931.94 1805.65,1896.12 1848.92,1858.44 1890.69,1819.01 1930.86,1777.92 1969.34,1735.26 2006.02,1691.15 2040.8,1645.71 2073.62,1599.03 2104.37,1551.24 2133,1502.46 2159.41,1452.8 2183.56,1402.41 2205.37,1351.39 2224.79,1299.87 2241.78,1248 2256.29,1195.89 2268.29,1143.67 2277.75,1091.48 2284.63,1039.45 "/>
</svg>
