<?xml version="1.0" encoding="utf-8"?>
<svg xmlns="http://www.w3.org/2000/svg" xmlns:xlink="http://www.w3.org/1999/xlink" width="600" height="600" viewBox="0 0 2400 2400">
<defs>
  <clipPath id="clip120">
    <rect x="0" y="0" width="2400" height="2400"/>
  </clipPath>
</defs>
<path clip-path="url(#clip120)" d="M0 2400 L2400 2400 L2400 0 L0 0  Z" fill="#ffffff" fill-rule="evenodd" fill-opacity="1"/>
<defs>
  <clipPath id="clip121">
    <rect x="480" y="240" width="1681" height="1681"/>
  </clipPath>
</defs>
<path clip-path="url(#clip120)" d="M156.112 2261.17 L2352.76 2261.17 L2352.76 47.2441 L156.112 47.2441  Z" fill="#ffffff" fill-rule="evenodd" fill-opacity="1"/>
<defs>
  <clipPath id="clip122">
    <rect x="156" y="47" width="2198" height="2215"/>
  </clipPath>
</defs>
<polyline clip-path="url(#clip122)" style="stroke:#000000; stroke-linecap:round; stroke-linejoin:round; stroke-width:2; stroke-opacity:0.1; fill:none" points="156.112,2261.17 156.112,47.2441 "/>
<polyline clip-path="url(#clip122)" style="stroke:#000000; stroke-linecap:round; stroke-linejoin:round; stroke-width:2; stroke-opacity:0.1; fill:none" points="699.836,2261.17 699.836,47.2441 "/>
<polyline clip-path="url(#clip122)" style="stroke:#000000; stroke-linecap:round; stroke-linejoin:round; stroke-width:2; stroke-opacity:0.1; fill:none" points="1243.56,2261.17 1243.56,47.2441 "/>
<polyline clip-path="url(#clip122)" style="stroke:#000000; stroke-linecap:round; stroke-linejoin:round; stroke-width:2; stroke-opacity:0.1; fill:none" points="1787.28,2261.17 1787.28,47.2441 "/>
<polyline clip-path="url(#clip122)" style="stroke:#000000; stroke-linecap:round; stroke-linejoin:round; stroke-width:2; stroke-opacity:0.1; fill:none" points="2331.01,2261.17 2331.01,47.2441 "/>
<polyline clip-path="url(#clip122)" style="stroke:#000000; stroke-linecap:round; stroke-linejoin:round; stroke-width:2; stroke-opacity:0.1; fill:none" points="156.112,2261.17 2352.76,2261.17 "/>
<polyline clip-path="url(#clip122)" style="stroke:#000000; stroke-linecap:round; stroke-linejoin:round; stroke-width:2; stroke-opacity:0.1; fill:none" points="156.112,1713.17 2352.76,1713.17 "/>
<polyline clip-path="url(#clip122)" style="stroke:#000000; stroke-linecap:round; stroke-linejoin:round; stroke-width:2; stroke-opacity:0.1; fill:none" points="156.112,1165.17 2352.76,1165.17 "/>
<polyline clip-path="url(#clip122)" style="stroke:#000000; stroke-linecap:round; stroke-linejoin:round; stroke-width:2; stroke-opacity:0.1; fill:none" points="156.112,617.165 2352.76,617.165 "/>
<polyline clip-path="url(#clip122)" style="stroke:#000000; stroke-linecap:round; stroke-linejoin:round; stroke-width:2; stroke-opacity:0.1; fill:none" points="156.112,69.1641 2352.76,69.1641 "/>
<polyline clip-path="url(#clip120)" style="stroke:#000000; stroke-linecap:round; stroke-linejoin:round; stroke-width:4; stroke-opacity:1; fill:none" points="156.112,2261.17 2352.76,2261.17 "/>
<polyline clip-path="url(#clip120)" style="stroke:#000000; stroke-linecap:round; stroke-linejoin:round; stroke-width:4; stroke-opacity:1; fill:none" points="156.112,2261.17 156.112,2242.27 "/>
<polyline clip-path="url(#clip120)" style="stroke:#000000; stroke-linecap:round; stroke-linejoin:round; stroke-width:4; stroke-opacity:1; fill:none" points="699.836,2261.17 699.836,2242.27 "/>
<polyline clip-path="url(#clip120)" style="stroke:#000000; stroke-linecap:round; stroke-linejoin:round; stroke-width:4; stroke-opacity:1; fill:none" points="1243.56,2261.17 1243.56,2242.27 "/>
<polyline clip-path="url(#clip120)" style="stroke:#000000; stroke-linecap:round; stroke-linejoin:round; stroke-width:4; stroke-opacity:1; fill:none" points="1787.28,2261.17 1787.28,2242.27 "/>
<polyline clip-path="url(#clip120)" style="stroke:#000000; stroke-linecap:round; stroke-linejoin:round; stroke-width:4; stroke-opacity:1; fill:none" points="2331.01,2261.17 2331.01,2242.27 "/>
<path clip-path="url(#clip120)" d="M133.497 2292.09 Q129.885 2292.09 128.057 2295.65 Q126.251 2299.19 126.251 2306.32 Q126.251 2313.43 128.057 2316.99 Q129.885 2320.54 133.497 2320.54 Q137.131 2320.54 138.936 2316.99 Q140.765 2313.43 140.765 2306.32 Q140.765 2299.19 138.936 2295.65 Q137.131 2292.09 133.497 2292.09 M133.497 2288.38 Q139.307 2288.38 142.362 2292.99 Q145.441 2297.57 145.441 2306.32 Q145.441 2315.05 142.362 2319.66 Q139.307 2324.24 133.497 2324.24 Q127.686 2324.24 124.608 2319.66 Q121.552 2315.05 121.552 2306.32 Q121.552 2297.57 124.608 2292.99 Q127.686 2288.38 133.497 2288.38 Z" fill="#000000" fill-rule="nonzero" fill-opacity="1" /><path clip-path="url(#clip120)" d="M153.658 2317.69 L158.543 2317.69 L158.543 2323.57 L153.658 2323.57 L153.658 2317.69 Z" fill="#000000" fill-rule="nonzero" fill-opacity="1" /><path clip-path="url(#clip120)" d="M178.728 2292.09 Q175.117 2292.09 173.288 2295.65 Q171.482 2299.19 171.482 2306.32 Q171.482 2313.43 173.288 2316.99 Q175.117 2320.54 178.728 2320.54 Q182.362 2320.54 184.168 2316.99 Q185.996 2313.43 185.996 2306.32 Q185.996 2299.19 184.168 2295.65 Q182.362 2292.09 178.728 2292.09 M178.728 2288.38 Q184.538 2288.38 187.593 2292.99 Q190.672 2297.57 190.672 2306.32 Q190.672 2315.05 187.593 2319.66 Q184.538 2324.24 178.728 2324.24 Q172.918 2324.24 169.839 2319.66 Q166.783 2315.05 166.783 2306.32 Q166.783 2297.57 169.839 2292.99 Q172.918 2288.38 178.728 2288.38 Z" fill="#000000" fill-rule="nonzero" fill-opacity="1" /><path clip-path="url(#clip120)" d="M677.718 2292.09 Q674.107 2292.09 672.278 2295.65 Q670.473 2299.19 670.473 2306.32 Q670.473 2313.43 672.278 2316.99 Q674.107 2320.54 677.718 2320.54 Q681.352 2320.54 683.158 2316.99 Q684.986 2313.43 684.986 2306.32 Q684.986 2299.19 683.158 2295.65 Q681.352 2292.09 677.718 2292.09 M677.718 2288.38 Q683.528 2288.38 686.584 2292.99 Q689.662 2297.57 689.662 2306.32 Q689.662 2315.05 686.584 2319.66 Q683.528 2324.24 677.718 2324.24 Q671.908 2324.24 668.829 2319.66 Q665.774 2315.05 665.774 2306.32 Q665.774 2297.57 668.829 2292.99 Q671.908 2288.38 677.718 2288.38 Z" fill="#000000" fill-rule="nonzero" fill-opacity="1" /><path clip-path="url(#clip120)" d="M697.88 2317.69 L702.764 2317.69 L702.764 2323.57 L697.88 2323.57 L697.88 2317.69 Z" fill="#000000" fill-rule="nonzero" fill-opacity="1" /><path clip-path="url(#clip120)" d="M712.995 2289.01 L731.352 2289.01 L731.352 2292.94 L717.278 2292.94 L717.278 2301.42 Q718.296 2301.07 719.315 2300.91 Q720.333 2300.72 721.352 2300.72 Q727.139 2300.72 730.519 2303.89 Q733.898 2307.06 733.898 2312.48 Q733.898 2318.06 730.426 2321.16 Q726.954 2324.24 720.634 2324.24 Q718.458 2324.24 716.19 2323.87 Q713.945 2323.5 711.537 2322.76 L711.537 2318.06 Q713.62 2319.19 715.843 2319.75 Q718.065 2320.3 720.542 2320.3 Q724.546 2320.3 726.884 2318.2 Q729.222 2316.09 729.222 2312.48 Q729.222 2308.87 726.884 2306.76 Q724.546 2304.66 720.542 2304.66 Q718.667 2304.66 716.792 2305.07 Q714.94 2305.49 712.995 2306.37 L712.995 2289.01 Z" fill="#000000" fill-rule="nonzero" fill-opacity="1" /><path clip-path="url(#clip120)" d="M1210.71 2319.63 L1218.35 2319.63 L1218.35 2293.27 L1210.04 2294.93 L1210.04 2290.67 L1218.31 2289.01 L1222.98 2289.01 L1222.98 2319.63 L1230.62 2319.63 L1230.62 2323.57 L1210.71 2323.57 L1210.71 2319.63 Z" fill="#000000" fill-rule="nonzero" fill-opacity="1" /><path clip-path="url(#clip120)" d="M1240.06 2317.69 L1244.95 2317.69 L1244.95 2323.57 L1240.06 2323.57 L1240.06 2317.69 Z" fill="#000000" fill-rule="nonzero" fill-opacity="1" /><path clip-path="url(#clip120)" d="M1265.13 2292.09 Q1261.52 2292.09 1259.69 2295.65 Q1257.89 2299.19 1257.89 2306.32 Q1257.89 2313.43 1259.69 2316.99 Q1261.52 2320.54 1265.13 2320.54 Q1268.77 2320.54 1270.57 2316.99 Q1272.4 2313.43 1272.4 2306.32 Q1272.4 2299.19 1270.57 2295.65 Q1268.77 2292.09 1265.13 2292.09 M1265.13 2288.38 Q1270.94 2288.38 1274 2292.99 Q1277.08 2297.57 1277.08 2306.32 Q1277.08 2315.05 1274 2319.66 Q1270.94 2324.24 1265.13 2324.24 Q1259.32 2324.24 1256.24 2319.66 Q1253.19 2315.05 1253.19 2306.32 Q1253.19 2297.57 1256.24 2292.99 Q1259.32 2288.38 1265.13 2288.38 Z" fill="#000000" fill-rule="nonzero" fill-opacity="1" /><path clip-path="url(#clip120)" d="M1754.93 2319.63 L1762.57 2319.63 L1762.57 2293.27 L1754.26 2294.93 L1754.26 2290.67 L1762.53 2289.01 L1767.2 2289.01 L1767.2 2319.63 L1774.84 2319.63 L1774.84 2323.57 L1754.93 2323.57 L1754.93 2319.63 Z" fill="#000000" fill-rule="nonzero" fill-opacity="1" /><path clip-path="url(#clip120)" d="M1784.29 2317.69 L1789.17 2317.69 L1789.17 2323.57 L1784.29 2323.57 L1784.29 2317.69 Z" fill="#000000" fill-rule="nonzero" fill-opacity="1" /><path clip-path="url(#clip120)" d="M1799.4 2289.01 L1817.76 2289.01 L1817.76 2292.94 L1803.68 2292.94 L1803.68 2301.42 Q1804.7 2301.07 1805.72 2300.91 Q1806.74 2300.72 1807.76 2300.72 Q1813.54 2300.72 1816.92 2303.89 Q1820.3 2307.06 1820.3 2312.48 Q1820.3 2318.06 1816.83 2321.16 Q1813.36 2324.24 1807.04 2324.24 Q1804.86 2324.24 1802.6 2323.87 Q1800.35 2323.5 1797.94 2322.76 L1797.94 2318.06 Q1800.03 2319.19 1802.25 2319.75 Q1804.47 2320.3 1806.95 2320.3 Q1810.95 2320.3 1813.29 2318.2 Q1815.63 2316.09 1815.63 2312.48 Q1815.63 2308.87 1813.29 2306.76 Q1810.95 2304.66 1806.95 2304.66 Q1805.07 2304.66 1803.2 2305.07 Q1801.35 2305.49 1799.4 2306.37 L1799.4 2289.01 Z" fill="#000000" fill-rule="nonzero" fill-opacity="1" /><path clip-path="url(#clip120)" d="M2302.25 2319.63 L2318.56 2319.63 L2318.56 2323.57 L2296.62 2323.57 L2296.62 2319.63 Q2299.28 2316.88 2303.87 2312.25 Q2308.47 2307.6 2309.65 2306.25 Q2311.9 2303.73 2312.78 2301.99 Q2313.68 2300.23 2313.68 2298.54 Q2313.68 2295.79 2311.74 2294.05 Q2309.81 2292.32 2306.71 2292.32 Q2304.51 2292.32 2302.06 2293.08 Q2299.63 2293.85 2296.85 2295.4 L2296.85 2290.67 Q2299.68 2289.54 2302.13 2288.96 Q2304.58 2288.38 2306.62 2288.38 Q2311.99 2288.38 2315.19 2291.07 Q2318.38 2293.75 2318.38 2298.24 Q2318.38 2300.37 2317.57 2302.29 Q2316.78 2304.19 2314.68 2306.79 Q2314.1 2307.46 2311 2310.67 Q2307.89 2313.87 2302.25 2319.63 Z" fill="#000000" fill-rule="nonzero" fill-opacity="1" /><path clip-path="url(#clip120)" d="M2328.38 2317.69 L2333.26 2317.69 L2333.26 2323.57 L2328.38 2323.57 L2328.38 2317.69 Z" fill="#000000" fill-rule="nonzero" fill-opacity="1" /><path clip-path="url(#clip120)" d="M2353.45 2292.09 Q2349.84 2292.09 2348.01 2295.65 Q2346.2 2299.19 2346.2 2306.32 Q2346.2 2313.43 2348.01 2316.99 Q2349.84 2320.54 2353.45 2320.54 Q2357.08 2320.54 2358.89 2316.99 Q2360.72 2313.43 2360.72 2306.32 Q2360.72 2299.19 2358.89 2295.65 Q2357.08 2292.09 2353.45 2292.09 M2353.45 2288.38 Q2359.26 2288.38 2362.31 2292.99 Q2365.39 2297.57 2365.39 2306.32 Q2365.39 2315.05 2362.31 2319.66 Q2359.26 2324.24 2353.45 2324.24 Q2347.64 2324.24 2344.56 2319.66 Q2341.5 2315.05 2341.5 2306.32 Q2341.5 2297.57 2344.56 2292.99 Q2347.64 2288.38 2353.45 2288.38 Z" fill="#000000" fill-rule="nonzero" fill-opacity="1" /><polyline clip-path="url(#clip120)" style="stroke:#000000; stroke-linecap:round; stroke-linejoin:round; stroke-width:4; stroke-opacity:1; fill:none" points="156.112,2261.17 156.112,47.2441 "/>
<polyline clip-path="url(#clip120)" style="stroke:#000000; stroke-linecap:round; stroke-linejoin:round; stroke-width:4; stroke-opacity:1; fill:none" points="156.112,2261.17 175.01,2261.17 "/>
<polyline clip-path="url(#clip120)" style="stroke:#000000; stroke-linecap:round; stroke-linejoin:round; stroke-width:4; stroke-opacity:1; fill:none" points="156.112,1713.17 175.01,1713.17 "/>
<polyline clip-path="url(#clip120)" style="stroke:#000000; stroke-linecap:round; stroke-linejoin:round; stroke-width:4; stroke-opacity:1; fill:none" points="156.112,1165.17 175.01,1165.17 "/>
<polyline clip-path="url(#clip120)" style="stroke:#000000; stroke-linecap:round; stroke-linejoin:round; stroke-width:4; stroke-opacity:1; fill:none" points="156.112,617.165 175.01,617.165 "/>
<polyline clip-path="url(#clip120)" style="stroke:#000000; stroke-linecap:round; stroke-linejoin:round; stroke-width:4; stroke-opacity:1; fill:none" points="156.112,69.1641 175.01,69.1641 "/>
<path clip-path="url(#clip120)" d="M62.9365 2246.97 Q59.3254 2246.97 57.4967 2250.53 Q55.6912 2254.07 55.6912 2261.2 Q55.6912 2268.31 57.4967 2271.87 Q59.3254 2275.42 62.9365 2275.42 Q66.5707 2275.42 68.3763 2271.87 Q70.205 2268.31 70.205 2261.2 Q70.205 2254.07 68.3763 2250.53 Q66.5707 2246.97 62.9365 2246.97 M62.9365 2243.26 Q68.7467 2243.26 71.8022 2247.87 Q74.8809 2252.45 74.8809 2261.2 Q74.8809 2269.93 71.8022 2274.54 Q68.7467 2279.12 62.9365 2279.12 Q57.1264 2279.12 54.0477 2274.54 Q50.9921 2269.93 50.9921 2261.2 Q50.9921 2252.45 54.0477 2247.87 Q57.1264 2243.26 62.9365 2243.26 Z" fill="#000000" fill-rule="nonzero" fill-opacity="1" /><path clip-path="url(#clip120)" d="M83.0984 2272.57 L87.9827 2272.57 L87.9827 2278.45 L83.0984 2278.45 L83.0984 2272.57 Z" fill="#000000" fill-rule="nonzero" fill-opacity="1" /><path clip-path="url(#clip120)" d="M108.168 2246.97 Q104.557 2246.97 102.728 2250.53 Q100.922 2254.07 100.922 2261.2 Q100.922 2268.31 102.728 2271.87 Q104.557 2275.42 108.168 2275.42 Q111.802 2275.42 113.608 2271.87 Q115.436 2268.31 115.436 2261.2 Q115.436 2254.07 113.608 2250.53 Q111.802 2246.97 108.168 2246.97 M108.168 2243.26 Q113.978 2243.26 117.033 2247.87 Q120.112 2252.45 120.112 2261.2 Q120.112 2269.93 117.033 2274.54 Q113.978 2279.12 108.168 2279.12 Q102.358 2279.12 99.2789 2274.54 Q96.2234 2269.93 96.2234 2261.2 Q96.2234 2252.45 99.2789 2247.87 Q102.358 2243.26 108.168 2243.26 Z" fill="#000000" fill-rule="nonzero" fill-opacity="1" /><path clip-path="url(#clip120)" d="M63.9319 1698.97 Q60.3208 1698.97 58.4921 1702.53 Q56.6865 1706.07 56.6865 1713.2 Q56.6865 1720.31 58.4921 1723.87 Q60.3208 1727.41 63.9319 1727.41 Q67.5661 1727.41 69.3717 1723.87 Q71.2004 1720.31 71.2004 1713.2 Q71.2004 1706.07 69.3717 1702.53 Q67.5661 1698.97 63.9319 1698.97 M63.9319 1695.26 Q69.742 1695.26 72.7976 1699.87 Q75.8763 1704.45 75.8763 1713.2 Q75.8763 1721.93 72.7976 1726.53 Q69.742 1731.12 63.9319 1731.12 Q58.1217 1731.12 55.043 1726.53 Q51.9875 1721.93 51.9875 1713.2 Q51.9875 1704.45 55.043 1699.87 Q58.1217 1695.26 63.9319 1695.26 Z" fill="#000000" fill-rule="nonzero" fill-opacity="1" /><path clip-path="url(#clip120)" d="M84.0938 1724.57 L88.978 1724.57 L88.978 1730.45 L84.0938 1730.45 L84.0938 1724.57 Z" fill="#000000" fill-rule="nonzero" fill-opacity="1" /><path clip-path="url(#clip120)" d="M99.2095 1695.89 L117.566 1695.89 L117.566 1699.82 L103.492 1699.82 L103.492 1708.29 Q104.51 1707.95 105.529 1707.79 Q106.547 1707.6 107.566 1707.6 Q113.353 1707.6 116.733 1710.77 Q120.112 1713.94 120.112 1719.36 Q120.112 1724.94 116.64 1728.04 Q113.168 1731.12 106.848 1731.12 Q104.672 1731.12 102.404 1730.75 Q100.159 1730.38 97.7511 1729.64 L97.7511 1724.94 Q99.8345 1726.07 102.057 1726.63 Q104.279 1727.18 106.756 1727.18 Q110.76 1727.18 113.098 1725.08 Q115.436 1722.97 115.436 1719.36 Q115.436 1715.75 113.098 1713.64 Q110.76 1711.54 106.756 1711.54 Q104.881 1711.54 103.006 1711.95 Q101.154 1712.37 99.2095 1713.25 L99.2095 1695.89 Z" fill="#000000" fill-rule="nonzero" fill-opacity="1" /><path clip-path="url(#clip120)" d="M53.7467 1178.51 L61.3856 1178.51 L61.3856 1152.15 L53.0754 1153.81 L53.0754 1149.55 L61.3393 1147.89 L66.0152 1147.89 L66.0152 1178.51 L73.654 1178.51 L73.654 1182.45 L53.7467 1182.45 L53.7467 1178.51 Z" fill="#000000" fill-rule="nonzero" fill-opacity="1" /><path clip-path="url(#clip120)" d="M83.0984 1176.57 L87.9827 1176.57 L87.9827 1182.45 L83.0984 1182.45 L83.0984 1176.57 Z" fill="#000000" fill-rule="nonzero" fill-opacity="1" /><path clip-path="url(#clip120)" d="M108.168 1150.96 Q104.557 1150.96 102.728 1154.53 Q100.922 1158.07 100.922 1165.2 Q100.922 1172.31 102.728 1175.87 Q104.557 1179.41 108.168 1179.41 Q111.802 1179.41 113.608 1175.87 Q115.436 1172.31 115.436 1165.2 Q115.436 1158.07 113.608 1154.53 Q111.802 1150.96 108.168 1150.96 M108.168 1147.26 Q113.978 1147.26 117.033 1151.87 Q120.112 1156.45 120.112 1165.2 Q120.112 1173.93 117.033 1178.53 Q113.978 1183.12 108.168 1183.12 Q102.358 1183.12 99.2789 1178.53 Q96.2234 1173.93 96.2234 1165.2 Q96.2234 1156.45 99.2789 1151.87 Q102.358 1147.26 108.168 1147.26 Z" fill="#000000" fill-rule="nonzero" fill-opacity="1" /><path clip-path="url(#clip120)" d="M54.7421 630.51 L62.381 630.51 L62.381 604.144 L54.0708 605.811 L54.0708 601.552 L62.3347 599.885 L67.0106 599.885 L67.0106 630.51 L74.6494 630.51 L74.6494 634.445 L54.7421 634.445 L54.7421 630.51 Z" fill="#000000" fill-rule="nonzero" fill-opacity="1" /><path clip-path="url(#clip120)" d="M84.0938 628.565 L88.978 628.565 L88.978 634.445 L84.0938 634.445 L84.0938 628.565 Z" fill="#000000" fill-rule="nonzero" fill-opacity="1" /><path clip-path="url(#clip120)" d="M99.2095 599.885 L117.566 599.885 L117.566 603.82 L103.492 603.82 L103.492 612.292 Q104.51 611.945 105.529 611.783 Q106.547 611.598 107.566 611.598 Q113.353 611.598 116.733 614.769 Q120.112 617.941 120.112 623.357 Q120.112 628.936 116.64 632.038 Q113.168 635.116 106.848 635.116 Q104.672 635.116 102.404 634.746 Q100.159 634.376 97.7511 633.635 L97.7511 628.936 Q99.8345 630.07 102.057 630.626 Q104.279 631.181 106.756 631.181 Q110.76 631.181 113.098 629.075 Q115.436 626.968 115.436 623.357 Q115.436 619.746 113.098 617.64 Q110.76 615.533 106.756 615.533 Q104.881 615.533 103.006 615.95 Q101.154 616.366 99.2095 617.246 L99.2095 599.885 Z" fill="#000000" fill-rule="nonzero" fill-opacity="1" /><path clip-path="url(#clip120)" d="M56.9643 82.509 L73.2837 82.509 L73.2837 86.4441 L51.3393 86.4441 L51.3393 82.509 Q54.0014 79.7544 58.5847 75.1247 Q63.1911 70.472 64.3717 69.1294 Q66.617 66.6063 67.4967 64.8702 Q68.3994 63.1109 68.3994 61.4211 Q68.3994 58.6665 66.455 56.9304 Q64.5337 55.1943 61.4319 55.1943 Q59.2328 55.1943 56.7791 55.9582 Q54.3486 56.7221 51.5708 58.273 L51.5708 53.5508 Q54.3949 52.4165 56.8486 51.8378 Q59.3023 51.2591 61.3393 51.2591 Q66.7096 51.2591 69.9041 53.9443 Q73.0985 56.6295 73.0985 61.1202 Q73.0985 63.2498 72.2883 65.1711 Q71.5013 67.0692 69.3948 69.6618 Q68.8161 70.3331 65.7143 73.5507 Q62.6124 76.7451 56.9643 82.509 Z" fill="#000000" fill-rule="nonzero" fill-opacity="1" /><path clip-path="url(#clip120)" d="M83.0984 80.5645 L87.9827 80.5645 L87.9827 86.4441 L83.0984 86.4441 L83.0984 80.5645 Z" fill="#000000" fill-rule="nonzero" fill-opacity="1" /><path clip-path="url(#clip120)" d="M108.168 54.9628 Q104.557 54.9628 102.728 58.5276 Q100.922 62.0693 100.922 69.1989 Q100.922 76.3053 102.728 79.8701 Q104.557 83.4117 108.168 83.4117 Q111.802 83.4117 113.608 79.8701 Q115.436 76.3053 115.436 69.1989 Q115.436 62.0693 113.608 58.5276 Q111.802 54.9628 108.168 54.9628 M108.168 51.2591 Q113.978 51.2591 117.033 55.8656 Q120.112 60.4489 120.112 69.1989 Q120.112 77.9257 117.033 82.5321 Q113.978 87.1154 108.168 87.1154 Q102.358 87.1154 99.2789 82.5321 Q96.2234 77.9257 96.2234 69.1989 Q96.2234 60.4489 99.2789 55.8656 Q102.358 51.2591 108.168 51.2591 Z" fill="#000000" fill-rule="nonzero" fill-opacity="1" /><circle clip-path="url(#clip122)" cx="371.731" cy="139.707" r="14.4" fill="#ffffff" fill-rule="evenodd" fill-opacity="1" stroke="#000000" stroke-opacity="1" stroke-width="4.8"/>
<circle clip-path="url(#clip122)" cx="1682.84" cy="1028.5" r="14.4" fill="#ffffff" fill-rule="evenodd" fill-opacity="1" stroke="#000000" stroke-opacity="1" stroke-width="4.8"/>
<circle clip-path="url(#clip122)" cx="1250.65" cy="782.741" r="14.4" fill="#ffffff" fill-rule="evenodd" fill-opacity="1" stroke="#000000" stroke-opacity="1" stroke-width="4.8"/>
<circle clip-path="url(#clip122)" cx="2060.97" cy="2105.28" r="14.4" fill="#ffffff" fill-rule="evenodd" fill-opacity="1" stroke="#000000" stroke-opacity="1" stroke-width="4.8"/>
<circle clip-path="url(#clip122)" cx="2229.8" cy="227.419" r="14.4" fill="#ffffff" fill-rule="evenodd" fill-opacity="1" stroke="#000000" stroke-opacity="1" stroke-width="4.8"/>
<circle clip-path="url(#clip122)" cx="1260.55" cy="1503.31" r="14.4" fill="#ffffff" fill-rule="evenodd" fill-opacity="1" stroke="#000000" stroke-opacity="1" stroke-width="4.8"/>
<circle clip-path="url(#clip122)" cx="1873.74" cy="583.537" r="14.4" fill="#ffffff" fill-rule="evenodd" fill-opacity="1" stroke="#000000" stroke-opacity="1" stroke-width="4.8"/>
<circle clip-path="url(#clip122)" cx="311.082" cy="1536.08" r="14.4" fill="#ffffff" fill-rule="evenodd" fill-opacity="1" stroke="#000000" stroke-opacity="1" stroke-width="4.8"/>
<circle clip-path="url(#clip122)" cx="457.07" cy="896.156" r="14.4" fill="#ffffff" fill-rule="evenodd" fill-opacity="1" stroke="#000000" stroke-opacity="1" stroke-width="4.8"/>
<circle clip-path="url(#clip122)" cx="1011.26" cy="1574.84" r="14.4" fill="#ffffff" fill-rule="evenodd" fill-opacity="1" stroke="#000000" stroke-opacity="1" stroke-width="4.8"/>
<circle clip-path="url(#clip122)" cx="542.662" cy="1979.92" r="14.4" fill="#ffffff" fill-rule="evenodd" fill-opacity="1" stroke="#000000" stroke-opacity="1" stroke-width="4.8"/>
<circle clip-path="url(#clip122)" cx="1992.06" cy="2038.17" r="14.4" fill="#ffffff" fill-rule="evenodd" fill-opacity="1" stroke="#000000" stroke-opacity="1" stroke-width="4.8"/>
<circle clip-path="url(#clip122)" cx="1944.52" cy="2088.19" r="14.4" fill="#ffffff" fill-rule="evenodd" fill-opacity="1" stroke="#000000" stroke-opacity="1" stroke-width="4.8"/>
<circle clip-path="url(#clip122)" cx="2286.25" cy="1934.76" r="14.4" fill="#ffffff" fill-rule="evenodd" fill-opacity="1" stroke="#000000" stroke-opacity="1" stroke-width="4.8"/>
<circle clip-path="url(#clip122)" cx="2291.77" cy="760.959" r="14.4" fill="#ffffff" fill-rule="evenodd" fill-opacity="1" stroke="#000000" stroke-opacity="1" stroke-width="4.8"/>
<circle clip-path="url(#clip122)" cx="2293.86" cy="450.052" r="14.4" fill="#ffffff" fill-rule="evenodd" fill-opacity="1" stroke="#000000" stroke-opacity="1" stroke-width="4.8"/>
<circle clip-path="url(#clip122)" cx="1295.16" cy="616.858" r="14.4" fill="#ffffff" fill-rule="evenodd" fill-opacity="1" stroke="#000000" stroke-opacity="1" stroke-width="4.8"/>
<circle clip-path="url(#clip122)" cx="1419.28" cy="632.051" r="14.4" fill="#ffffff" fill-rule="evenodd" fill-opacity="1" stroke="#000000" stroke-opacity="1" stroke-width="4.8"/>
<circle clip-path="url(#clip122)" cx="429.628" cy="239.24" r="14.4" fill="#ffffff" fill-rule="evenodd" fill-opacity="1" stroke="#000000" stroke-opacity="1" stroke-width="4.8"/>
<circle clip-path="url(#clip122)" cx="481.744" cy="540.436" r="14.4" fill="#ffffff" fill-rule="evenodd" fill-opacity="1" stroke="#000000" stroke-opacity="1" stroke-width="4.8"/>
<circle clip-path="url(#clip122)" cx="2000.91" cy="916.632" r="14.4" fill="#ffffff" fill-rule="evenodd" fill-opacity="1" stroke="#000000" stroke-opacity="1" stroke-width="4.8"/>
<circle clip-path="url(#clip122)" cx="1519.71" cy="670.883" r="14.4" fill="#ffffff" fill-rule="evenodd" fill-opacity="1" stroke="#000000" stroke-opacity="1" stroke-width="4.8"/>
<circle clip-path="url(#clip122)" cx="2257.18" cy="1745.61" r="14.4" fill="#ffffff" fill-rule="evenodd" fill-opacity="1" stroke="#000000" stroke-opacity="1" stroke-width="4.8"/>
<circle clip-path="url(#clip122)" cx="2038.51" cy="1798.22" r="14.4" fill="#ffffff" fill-rule="evenodd" fill-opacity="1" stroke="#000000" stroke-opacity="1" stroke-width="4.8"/>
<circle clip-path="url(#clip122)" cx="1950.97" cy="1867.53" r="14.4" fill="#ffffff" fill-rule="evenodd" fill-opacity="1" stroke="#000000" stroke-opacity="1" stroke-width="4.8"/>
<circle clip-path="url(#clip122)" cx="703.152" cy="2005.08" r="14.4" fill="#ffffff" fill-rule="evenodd" fill-opacity="1" stroke="#000000" stroke-opacity="1" stroke-width="4.8"/>
<circle clip-path="url(#clip122)" cx="1148.09" cy="2236.95" r="14.4" fill="#ffffff" fill-rule="evenodd" fill-opacity="1" stroke="#000000" stroke-opacity="1" stroke-width="4.8"/>
<circle clip-path="url(#clip122)" cx="2112.44" cy="873.722" r="14.4" fill="#ffffff" fill-rule="evenodd" fill-opacity="1" stroke="#000000" stroke-opacity="1" stroke-width="4.8"/>
<circle clip-path="url(#clip122)" cx="1584.08" cy="895.373" r="14.4" fill="#ffffff" fill-rule="evenodd" fill-opacity="1" stroke="#000000" stroke-opacity="1" stroke-width="4.8"/>
<circle clip-path="url(#clip122)" cx="736.111" cy="425.877" r="14.4" fill="#ffffff" fill-rule="evenodd" fill-opacity="1" stroke="#000000" stroke-opacity="1" stroke-width="4.8"/>
<circle clip-path="url(#clip122)" cx="659.459" cy="1703.71" r="14.4" fill="#ffffff" fill-rule="evenodd" fill-opacity="1" stroke="#000000" stroke-opacity="1" stroke-width="4.8"/>
<circle clip-path="url(#clip122)" cx="1958.08" cy="1510.19" r="14.4" fill="#ffffff" fill-rule="evenodd" fill-opacity="1" stroke="#000000" stroke-opacity="1" stroke-width="4.8"/>
<circle clip-path="url(#clip122)" cx="1922.39" cy="746.767" r="14.4" fill="#ffffff" fill-rule="evenodd" fill-opacity="1" stroke="#000000" stroke-opacity="1" stroke-width="4.8"/>
<circle clip-path="url(#clip122)" cx="809.311" cy="1230.43" r="14.4" fill="#ffffff" fill-rule="evenodd" fill-opacity="1" stroke="#000000" stroke-opacity="1" stroke-width="4.8"/>
<circle clip-path="url(#clip122)" cx="687.313" cy="725.2" r="14.4" fill="#ffffff" fill-rule="evenodd" fill-opacity="1" stroke="#000000" stroke-opacity="1" stroke-width="4.8"/>
<circle clip-path="url(#clip122)" cx="1835.03" cy="901.138" r="14.4" fill="#ffffff" fill-rule="evenodd" fill-opacity="1" stroke="#000000" stroke-opacity="1" stroke-width="4.8"/>
<circle clip-path="url(#clip122)" cx="1988.73" cy="1574.76" r="14.4" fill="#ffffff" fill-rule="evenodd" fill-opacity="1" stroke="#000000" stroke-opacity="1" stroke-width="4.8"/>
<circle clip-path="url(#clip122)" cx="1934.35" cy="1433.53" r="14.4" fill="#ffffff" fill-rule="evenodd" fill-opacity="1" stroke="#000000" stroke-opacity="1" stroke-width="4.8"/>
<circle clip-path="url(#clip122)" cx="2059.47" cy="796.334" r="14.4" fill="#ffffff" fill-rule="evenodd" fill-opacity="1" stroke="#000000" stroke-opacity="1" stroke-width="4.8"/>
<circle clip-path="url(#clip122)" cx="2053.08" cy="1721.65" r="14.4" fill="#ffffff" fill-rule="evenodd" fill-opacity="1" stroke="#000000" stroke-opacity="1" stroke-width="4.8"/>
<circle clip-path="url(#clip122)" cx="1179.99" cy="948.331" r="14.4" fill="#ffffff" fill-rule="evenodd" fill-opacity="1" stroke="#000000" stroke-opacity="1" stroke-width="4.8"/>
<circle clip-path="url(#clip122)" cx="1151.08" cy="242.703" r="14.4" fill="#ffffff" fill-rule="evenodd" fill-opacity="1" stroke="#000000" stroke-opacity="1" stroke-width="4.8"/>
<circle clip-path="url(#clip122)" cx="1011.27" cy="2083.96" r="14.4" fill="#ffffff" fill-rule="evenodd" fill-opacity="1" stroke="#000000" stroke-opacity="1" stroke-width="4.8"/>
<circle clip-path="url(#clip122)" cx="2223.38" cy="1287.73" r="14.4" fill="#ffffff" fill-rule="evenodd" fill-opacity="1" stroke="#000000" stroke-opacity="1" stroke-width="4.8"/>
<circle clip-path="url(#clip122)" cx="1860.31" cy="1240" r="14.4" fill="#ffffff" fill-rule="evenodd" fill-opacity="1" stroke="#000000" stroke-opacity="1" stroke-width="4.8"/>
<circle clip-path="url(#clip122)" cx="1569.77" cy="580.545" r="14.4" fill="#ffffff" fill-rule="evenodd" fill-opacity="1" stroke="#000000" stroke-opacity="1" stroke-width="4.8"/>
<circle clip-path="url(#clip122)" cx="442.482" cy="1933.5" r="14.4" fill="#ffffff" fill-rule="evenodd" fill-opacity="1" stroke="#000000" stroke-opacity="1" stroke-width="4.8"/>
<circle clip-path="url(#clip122)" cx="424.035" cy="799.352" r="14.4" fill="#ffffff" fill-rule="evenodd" fill-opacity="1" stroke="#000000" stroke-opacity="1" stroke-width="4.8"/>
<circle clip-path="url(#clip122)" cx="576.287" cy="331.589" r="14.4" fill="#ffffff" fill-rule="evenodd" fill-opacity="1" stroke="#000000" stroke-opacity="1" stroke-width="4.8"/>
<circle clip-path="url(#clip122)" cx="2175.51" cy="700.891" r="14.4" fill="#ffffff" fill-rule="evenodd" fill-opacity="1" stroke="#000000" stroke-opacity="1" stroke-width="4.8"/>
<circle clip-path="url(#clip122)" cx="979.496" cy="1698.96" r="14.4" fill="#ffffff" fill-rule="evenodd" fill-opacity="1" stroke="#000000" stroke-opacity="1" stroke-width="4.8"/>
<circle clip-path="url(#clip122)" cx="721.257" cy="1416.78" r="14.4" fill="#ffffff" fill-rule="evenodd" fill-opacity="1" stroke="#000000" stroke-opacity="1" stroke-width="4.8"/>
<circle clip-path="url(#clip122)" cx="1715.05" cy="2200.23" r="14.4" fill="#ffffff" fill-rule="evenodd" fill-opacity="1" stroke="#000000" stroke-opacity="1" stroke-width="4.8"/>
<circle clip-path="url(#clip122)" cx="179.816" cy="1228.84" r="14.4" fill="#ffffff" fill-rule="evenodd" fill-opacity="1" stroke="#000000" stroke-opacity="1" stroke-width="4.8"/>
<circle clip-path="url(#clip122)" cx="1999.96" cy="1882.09" r="14.4" fill="#ffffff" fill-rule="evenodd" fill-opacity="1" stroke="#000000" stroke-opacity="1" stroke-width="4.8"/>
<circle clip-path="url(#clip122)" cx="925.177" cy="1812.82" r="14.4" fill="#ffffff" fill-rule="evenodd" fill-opacity="1" stroke="#000000" stroke-opacity="1" stroke-width="4.8"/>
<circle clip-path="url(#clip122)" cx="2300.22" cy="656.627" r="14.4" fill="#ffffff" fill-rule="evenodd" fill-opacity="1" stroke="#000000" stroke-opacity="1" stroke-width="4.8"/>
<circle clip-path="url(#clip122)" cx="1758.08" cy="1032.32" r="14.4" fill="#ffffff" fill-rule="evenodd" fill-opacity="1" stroke="#000000" stroke-opacity="1" stroke-width="4.8"/>
<circle clip-path="url(#clip122)" cx="199.437" cy="437.729" r="14.4" fill="#ffffff" fill-rule="evenodd" fill-opacity="1" stroke="#000000" stroke-opacity="1" stroke-width="4.8"/>
<circle clip-path="url(#clip122)" cx="1694.28" cy="940.435" r="14.4" fill="#ffffff" fill-rule="evenodd" fill-opacity="1" stroke="#000000" stroke-opacity="1" stroke-width="4.8"/>
<circle clip-path="url(#clip122)" cx="1088.4" cy="415.213" r="14.4" fill="#ffffff" fill-rule="evenodd" fill-opacity="1" stroke="#000000" stroke-opacity="1" stroke-width="4.8"/>
<circle clip-path="url(#clip122)" cx="1517.5" cy="1988.52" r="14.4" fill="#ffffff" fill-rule="evenodd" fill-opacity="1" stroke="#000000" stroke-opacity="1" stroke-width="4.8"/>
<circle clip-path="url(#clip122)" cx="430.94" cy="137.747" r="14.4" fill="#ffffff" fill-rule="evenodd" fill-opacity="1" stroke="#000000" stroke-opacity="1" stroke-width="4.8"/>
<circle clip-path="url(#clip122)" cx="2215.76" cy="1208.29" r="14.4" fill="#ffffff" fill-rule="evenodd" fill-opacity="1" stroke="#000000" stroke-opacity="1" stroke-width="4.8"/>
<circle clip-path="url(#clip122)" cx="1884.7" cy="2169.89" r="14.4" fill="#ffffff" fill-rule="evenodd" fill-opacity="1" stroke="#000000" stroke-opacity="1" stroke-width="4.8"/>
<circle clip-path="url(#clip122)" cx="1860.23" cy="591.617" r="14.4" fill="#ffffff" fill-rule="evenodd" fill-opacity="1" stroke="#000000" stroke-opacity="1" stroke-width="4.8"/>
<circle clip-path="url(#clip122)" cx="1600.56" cy="1526.57" r="14.4" fill="#ffffff" fill-rule="evenodd" fill-opacity="1" stroke="#000000" stroke-opacity="1" stroke-width="4.8"/>
<circle clip-path="url(#clip122)" cx="913.242" cy="2162.85" r="14.4" fill="#ffffff" fill-rule="evenodd" fill-opacity="1" stroke="#000000" stroke-opacity="1" stroke-width="4.8"/>
<circle clip-path="url(#clip122)" cx="1012.6" cy="1346.18" r="14.4" fill="#ffffff" fill-rule="evenodd" fill-opacity="1" stroke="#000000" stroke-opacity="1" stroke-width="4.8"/>
<circle clip-path="url(#clip122)" cx="556.846" cy="1023.92" r="14.4" fill="#ffffff" fill-rule="evenodd" fill-opacity="1" stroke="#000000" stroke-opacity="1" stroke-width="4.8"/>
<circle clip-path="url(#clip122)" cx="1251.39" cy="2059.42" r="14.4" fill="#ffffff" fill-rule="evenodd" fill-opacity="1" stroke="#000000" stroke-opacity="1" stroke-width="4.8"/>
<circle clip-path="url(#clip122)" cx="1338.14" cy="1959.1" r="14.4" fill="#ffffff" fill-rule="evenodd" fill-opacity="1" stroke="#000000" stroke-opacity="1" stroke-width="4.8"/>
<circle clip-path="url(#clip122)" cx="618.824" cy="2047.8" r="14.4" fill="#ffffff" fill-rule="evenodd" fill-opacity="1" stroke="#000000" stroke-opacity="1" stroke-width="4.8"/>
<circle clip-path="url(#clip122)" cx="2079.26" cy="881.213" r="14.4" fill="#ffffff" fill-rule="evenodd" fill-opacity="1" stroke="#000000" stroke-opacity="1" stroke-width="4.8"/>
<circle clip-path="url(#clip122)" cx="1938.13" cy="1171.08" r="14.4" fill="#ffffff" fill-rule="evenodd" fill-opacity="1" stroke="#000000" stroke-opacity="1" stroke-width="4.8"/>
<circle clip-path="url(#clip122)" cx="919.159" cy="1544.26" r="14.4" fill="#ffffff" fill-rule="evenodd" fill-opacity="1" stroke="#000000" stroke-opacity="1" stroke-width="4.8"/>
<circle clip-path="url(#clip122)" cx="544.507" cy="1124.39" r="14.4" fill="#ffffff" fill-rule="evenodd" fill-opacity="1" stroke="#000000" stroke-opacity="1" stroke-width="4.8"/>
<circle clip-path="url(#clip122)" cx="223.584" cy="502.677" r="14.4" fill="#ffffff" fill-rule="evenodd" fill-opacity="1" stroke="#000000" stroke-opacity="1" stroke-width="4.8"/>
<circle clip-path="url(#clip122)" cx="323.09" cy="405.154" r="14.4" fill="#ffffff" fill-rule="evenodd" fill-opacity="1" stroke="#000000" stroke-opacity="1" stroke-width="4.8"/>
<circle clip-path="url(#clip122)" cx="624.034" cy="1515.27" r="14.4" fill="#ffffff" fill-rule="evenodd" fill-opacity="1" stroke="#000000" stroke-opacity="1" stroke-width="4.8"/>
<circle clip-path="url(#clip122)" cx="215.531" cy="948.337" r="14.4" fill="#ffffff" fill-rule="evenodd" fill-opacity="1" stroke="#000000" stroke-opacity="1" stroke-width="4.8"/>
<circle clip-path="url(#clip122)" cx="946.537" cy="1782.42" r="14.4" fill="#ffffff" fill-rule="evenodd" fill-opacity="1" stroke="#000000" stroke-opacity="1" stroke-width="4.8"/>
<circle clip-path="url(#clip122)" cx="2209.01" cy="453.729" r="14.4" fill="#ffffff" fill-rule="evenodd" fill-opacity="1" stroke="#000000" stroke-opacity="1" stroke-width="4.8"/>
<circle clip-path="url(#clip122)" cx="580.28" cy="2218.96" r="14.4" fill="#ffffff" fill-rule="evenodd" fill-opacity="1" stroke="#000000" stroke-opacity="1" stroke-width="4.8"/>
<circle clip-path="url(#clip122)" cx="788.482" cy="1433.41" r="14.4" fill="#ffffff" fill-rule="evenodd" fill-opacity="1" stroke="#000000" stroke-opacity="1" stroke-width="4.8"/>
<circle clip-path="url(#clip122)" cx="1124.91" cy="179.226" r="14.4" fill="#ffffff" fill-rule="evenodd" fill-opacity="1" stroke="#000000" stroke-opacity="1" stroke-width="4.8"/>
<circle clip-path="url(#clip122)" cx="676.943" cy="2087.38" r="14.4" fill="#ffffff" fill-rule="evenodd" fill-opacity="1" stroke="#000000" stroke-opacity="1" stroke-width="4.8"/>
<circle clip-path="url(#clip122)" cx="327.055" cy="1459.85" r="14.4" fill="#ffffff" fill-rule="evenodd" fill-opacity="1" stroke="#000000" stroke-opacity="1" stroke-width="4.8"/>
<circle clip-path="url(#clip122)" cx="1852.91" cy="1254.54" r="14.4" fill="#ffffff" fill-rule="evenodd" fill-opacity="1" stroke="#000000" stroke-opacity="1" stroke-width="4.8"/>
<circle clip-path="url(#clip122)" cx="753.787" cy="2169.46" r="14.4" fill="#ffffff" fill-rule="evenodd" fill-opacity="1" stroke="#000000" stroke-opacity="1" stroke-width="4.8"/>
<circle clip-path="url(#clip122)" cx="2002.03" cy="2229.46" r="14.4" fill="#ffffff" fill-rule="evenodd" fill-opacity="1" stroke="#000000" stroke-opacity="1" stroke-width="4.8"/>
<circle clip-path="url(#clip122)" cx="1497.61" cy="1334.96" r="14.4" fill="#ffffff" fill-rule="evenodd" fill-opacity="1" stroke="#000000" stroke-opacity="1" stroke-width="4.8"/>
<circle clip-path="url(#clip122)" cx="279.336" cy="1081.51" r="14.4" fill="#ffffff" fill-rule="evenodd" fill-opacity="1" stroke="#000000" stroke-opacity="1" stroke-width="4.8"/>
<circle clip-path="url(#clip122)" cx="495.886" cy="584.259" r="14.4" fill="#ffffff" fill-rule="evenodd" fill-opacity="1" stroke="#000000" stroke-opacity="1" stroke-width="4.8"/>
<circle clip-path="url(#clip122)" cx="958.815" cy="1653.05" r="14.4" fill="#ffffff" fill-rule="evenodd" fill-opacity="1" stroke="#000000" stroke-opacity="1" stroke-width="4.8"/>
<circle clip-path="url(#clip122)" cx="1680.19" cy="941.541" r="14.4" fill="#ffffff" fill-rule="evenodd" fill-opacity="1" stroke="#000000" stroke-opacity="1" stroke-width="4.8"/>
<circle clip-path="url(#clip122)" cx="1883.83" cy="1826.86" r="14.4" fill="#ffffff" fill-rule="evenodd" fill-opacity="1" stroke="#000000" stroke-opacity="1" stroke-width="4.8"/>
<circle clip-path="url(#clip122)" cx="1167.05" cy="275.101" r="14.4" fill="#ffffff" fill-rule="evenodd" fill-opacity="1" stroke="#000000" stroke-opacity="1" stroke-width="4.8"/>
<circle clip-path="url(#clip122)" cx="1647.89" cy="1579.4" r="14.4" fill="#ffffff" fill-rule="evenodd" fill-opacity="1" stroke="#000000" stroke-opacity="1" stroke-width="4.8"/>
<circle clip-path="url(#clip122)" cx="2041.72" cy="1798.98" r="14.4" fill="#ffffff" fill-rule="evenodd" fill-opacity="1" stroke="#000000" stroke-opacity="1" stroke-width="4.8"/>
<polyline clip-path="url(#clip122)" style="stroke:#e26f46; stroke-linecap:round; stroke-linejoin:round; stroke-width:20; stroke-opacity:1; fill:none" points="156.112,-661.504 178.79,-623.411 311.61,-400.302 373.398,-296.513 456.216,-157.395 524.65,-42.4417 588.287,64.4539 668.173,198.644 739.831,319.014 821.853,456.794 883.165,559.784 961.584,691.51 1033.16,811.737 1114.62,948.57 1179.19,1057.04 1259.42,1191.8 1320.86,1295.01 1407.48,1440.51 1472.21,1549.24 1545.82,1672.9 1618.72,1795.36 1698.93,1930.09 1760.19,2033 1837.5,2162.86 1909.01,2282.97 1982.75,2406.84 2057.5,2532.4 2135.54,2663.5 2197.03,2766.78 2337.05,3001.98 2352.76,3028.37 "/>
</svg>
