<?xml version="1.0" encoding="utf-8"?>
<svg xmlns="http://www.w3.org/2000/svg" xmlns:xlink="http://www.w3.org/1999/xlink" width="600" height="400" viewBox="0 0 2400 1600">
<defs>
  <clipPath id="clip270">
    <rect x="0" y="0" width="2400" height="1600"/>
  </clipPath>
</defs>
<path clip-path="url(#clip270)" d="M0 1600 L2400 1600 L2400 0 L0 0  Z" fill="#ffffff" fill-rule="evenodd" fill-opacity="1"/>
<defs>
  <clipPath id="clip271">
    <rect x="480" y="0" width="1681" height="1600"/>
  </clipPath>
</defs>
<path clip-path="url(#clip270)" d="M141.853 1486.45 L2352.76 1486.45 L2352.76 47.2441 L141.853 47.2441  Z" fill="#ffffff" fill-rule="evenodd" fill-opacity="1"/>
<defs>
  <clipPath id="clip272">
    <rect x="141" y="47" width="2212" height="1440"/>
  </clipPath>
</defs>
<polyline clip-path="url(#clip272)" style="stroke:#000000; stroke-linecap:round; stroke-linejoin:round; stroke-width:2; stroke-opacity:0.1; fill:none" points="498.977,1486.45 498.977,47.2441 "/>
<polyline clip-path="url(#clip272)" style="stroke:#000000; stroke-linecap:round; stroke-linejoin:round; stroke-width:2; stroke-opacity:0.1; fill:none" points="956.548,1486.45 956.548,47.2441 "/>
<polyline clip-path="url(#clip272)" style="stroke:#000000; stroke-linecap:round; stroke-linejoin:round; stroke-width:2; stroke-opacity:0.1; fill:none" points="1414.12,1486.45 1414.12,47.2441 "/>
<polyline clip-path="url(#clip272)" style="stroke:#000000; stroke-linecap:round; stroke-linejoin:round; stroke-width:2; stroke-opacity:0.1; fill:none" points="1871.69,1486.45 1871.69,47.2441 "/>
<polyline clip-path="url(#clip272)" style="stroke:#000000; stroke-linecap:round; stroke-linejoin:round; stroke-width:2; stroke-opacity:0.1; fill:none" points="2329.26,1486.45 2329.26,47.2441 "/>
<polyline clip-path="url(#clip272)" style="stroke:#000000; stroke-linecap:round; stroke-linejoin:round; stroke-width:2; stroke-opacity:0.1; fill:none" points="141.853,1318.99 2352.76,1318.99 "/>
<polyline clip-path="url(#clip272)" style="stroke:#000000; stroke-linecap:round; stroke-linejoin:round; stroke-width:2; stroke-opacity:0.1; fill:none" points="141.853,1134.17 2352.76,1134.17 "/>
<polyline clip-path="url(#clip272)" style="stroke:#000000; stroke-linecap:round; stroke-linejoin:round; stroke-width:2; stroke-opacity:0.1; fill:none" points="141.853,949.347 2352.76,949.347 "/>
<polyline clip-path="url(#clip272)" style="stroke:#000000; stroke-linecap:round; stroke-linejoin:round; stroke-width:2; stroke-opacity:0.1; fill:none" points="141.853,764.524 2352.76,764.524 "/>
<polyline clip-path="url(#clip272)" style="stroke:#000000; stroke-linecap:round; stroke-linejoin:round; stroke-width:2; stroke-opacity:0.1; fill:none" points="141.853,579.702 2352.76,579.702 "/>
<polyline clip-path="url(#clip272)" style="stroke:#000000; stroke-linecap:round; stroke-linejoin:round; stroke-width:2; stroke-opacity:0.1; fill:none" points="141.853,394.879 2352.76,394.879 "/>
<polyline clip-path="url(#clip272)" style="stroke:#000000; stroke-linecap:round; stroke-linejoin:round; stroke-width:2; stroke-opacity:0.1; fill:none" points="141.853,210.057 2352.76,210.057 "/>
<polyline clip-path="url(#clip270)" style="stroke:#000000; stroke-linecap:round; stroke-linejoin:round; stroke-width:4; stroke-opacity:1; fill:none" points="141.853,1486.45 2352.76,1486.45 "/>
<polyline clip-path="url(#clip270)" style="stroke:#000000; stroke-linecap:round; stroke-linejoin:round; stroke-width:4; stroke-opacity:1; fill:none" points="498.977,1486.45 498.977,1467.55 "/>
<polyline clip-path="url(#clip270)" style="stroke:#000000; stroke-linecap:round; stroke-linejoin:round; stroke-width:4; stroke-opacity:1; fill:none" points="956.548,1486.45 956.548,1467.55 "/>
<polyline clip-path="url(#clip270)" style="stroke:#000000; stroke-linecap:round; stroke-linejoin:round; stroke-width:4; stroke-opacity:1; fill:none" points="1414.12,1486.45 1414.12,1467.55 "/>
<polyline clip-path="url(#clip270)" style="stroke:#000000; stroke-linecap:round; stroke-linejoin:round; stroke-width:4; stroke-opacity:1; fill:none" points="1871.69,1486.45 1871.69,1467.55 "/>
<polyline clip-path="url(#clip270)" style="stroke:#000000; stroke-linecap:round; stroke-linejoin:round; stroke-width:4; stroke-opacity:1; fill:none" points="2329.26,1486.45 2329.26,1467.55 "/>
<path clip-path="url(#clip270)" d="M477.751 1544.91 L494.07 1544.91 L494.07 1548.85 L472.126 1548.85 L472.126 1544.91 Q474.788 1542.16 479.371 1537.53 Q483.977 1532.88 485.158 1531.53 Q487.403 1529.01 488.283 1527.27 Q489.186 1525.51 489.186 1523.82 Q489.186 1521.07 487.241 1519.33 Q485.32 1517.6 482.218 1517.6 Q480.019 1517.6 477.565 1518.36 Q475.135 1519.13 472.357 1520.68 L472.357 1515.95 Q475.181 1514.82 477.635 1514.24 Q480.088 1513.66 482.125 1513.66 Q487.496 1513.66 490.69 1516.35 Q493.885 1519.03 493.885 1523.52 Q493.885 1525.65 493.074 1527.57 Q492.287 1529.47 490.181 1532.07 Q489.602 1532.74 486.5 1535.95 Q483.399 1539.15 477.751 1544.91 Z" fill="#000000" fill-rule="nonzero" fill-opacity="1" /><path clip-path="url(#clip270)" d="M513.885 1517.37 Q510.273 1517.37 508.445 1520.93 Q506.639 1524.47 506.639 1531.6 Q506.639 1538.71 508.445 1542.27 Q510.273 1545.82 513.885 1545.82 Q517.519 1545.82 519.324 1542.27 Q521.153 1538.71 521.153 1531.6 Q521.153 1524.47 519.324 1520.93 Q517.519 1517.37 513.885 1517.37 M513.885 1513.66 Q519.695 1513.66 522.75 1518.27 Q525.829 1522.85 525.829 1531.6 Q525.829 1540.33 522.75 1544.94 Q519.695 1549.52 513.885 1549.52 Q508.074 1549.52 504.996 1544.94 Q501.94 1540.33 501.94 1531.6 Q501.94 1522.85 504.996 1518.27 Q508.074 1513.66 513.885 1513.66 Z" fill="#000000" fill-rule="nonzero" fill-opacity="1" /><path clip-path="url(#clip270)" d="M944.719 1518.36 L932.914 1536.81 L944.719 1536.81 L944.719 1518.36 M943.492 1514.29 L949.372 1514.29 L949.372 1536.81 L954.302 1536.81 L954.302 1540.7 L949.372 1540.7 L949.372 1548.85 L944.719 1548.85 L944.719 1540.7 L929.117 1540.7 L929.117 1536.19 L943.492 1514.29 Z" fill="#000000" fill-rule="nonzero" fill-opacity="1" /><path clip-path="url(#clip270)" d="M972.034 1517.37 Q968.423 1517.37 966.594 1520.93 Q964.788 1524.47 964.788 1531.6 Q964.788 1538.71 966.594 1542.27 Q968.423 1545.82 972.034 1545.82 Q975.668 1545.82 977.474 1542.27 Q979.302 1538.71 979.302 1531.6 Q979.302 1524.47 977.474 1520.93 Q975.668 1517.37 972.034 1517.37 M972.034 1513.66 Q977.844 1513.66 980.899 1518.27 Q983.978 1522.85 983.978 1531.6 Q983.978 1540.33 980.899 1544.94 Q977.844 1549.52 972.034 1549.52 Q966.224 1549.52 963.145 1544.94 Q960.089 1540.33 960.089 1531.6 Q960.089 1522.85 963.145 1518.27 Q966.224 1513.66 972.034 1513.66 Z" fill="#000000" fill-rule="nonzero" fill-opacity="1" /><path clip-path="url(#clip270)" d="M1399.52 1529.7 Q1396.38 1529.7 1394.52 1531.86 Q1392.69 1534.01 1392.69 1537.76 Q1392.69 1541.49 1394.52 1543.66 Q1396.38 1545.82 1399.52 1545.82 Q1402.67 1545.82 1404.5 1543.66 Q1406.35 1541.49 1406.35 1537.76 Q1406.35 1534.01 1404.5 1531.86 Q1402.67 1529.7 1399.52 1529.7 M1408.81 1515.05 L1408.81 1519.31 Q1407.05 1518.48 1405.24 1518.04 Q1403.46 1517.6 1401.7 1517.6 Q1397.07 1517.6 1394.62 1520.72 Q1392.19 1523.85 1391.84 1530.17 Q1393.2 1528.15 1395.26 1527.09 Q1397.32 1526 1399.8 1526 Q1405.01 1526 1408.02 1529.17 Q1411.05 1532.32 1411.05 1537.76 Q1411.05 1543.08 1407.9 1546.3 Q1404.75 1549.52 1399.52 1549.52 Q1393.53 1549.52 1390.36 1544.94 Q1387.19 1540.33 1387.19 1531.6 Q1387.19 1523.41 1391.07 1518.55 Q1394.96 1513.66 1401.51 1513.66 Q1403.27 1513.66 1405.06 1514.01 Q1406.86 1514.36 1408.81 1515.05 Z" fill="#000000" fill-rule="nonzero" fill-opacity="1" /><path clip-path="url(#clip270)" d="M1429.11 1517.37 Q1425.5 1517.37 1423.67 1520.93 Q1421.86 1524.47 1421.86 1531.6 Q1421.86 1538.71 1423.67 1542.27 Q1425.5 1545.82 1429.11 1545.82 Q1432.74 1545.82 1434.55 1542.27 Q1436.38 1538.71 1436.38 1531.6 Q1436.38 1524.47 1434.55 1520.93 Q1432.74 1517.37 1429.11 1517.37 M1429.11 1513.66 Q1434.92 1513.66 1437.97 1518.27 Q1441.05 1522.85 1441.05 1531.6 Q1441.05 1540.33 1437.97 1544.94 Q1434.92 1549.52 1429.11 1549.52 Q1423.3 1549.52 1420.22 1544.94 Q1417.16 1540.33 1417.16 1531.6 Q1417.16 1522.85 1420.22 1518.27 Q1423.3 1513.66 1429.11 1513.66 Z" fill="#000000" fill-rule="nonzero" fill-opacity="1" /><path clip-path="url(#clip270)" d="M1856.56 1532.44 Q1853.23 1532.44 1851.31 1534.22 Q1849.41 1536 1849.41 1539.13 Q1849.41 1542.25 1851.31 1544.03 Q1853.23 1545.82 1856.56 1545.82 Q1859.89 1545.82 1861.82 1544.03 Q1863.74 1542.23 1863.74 1539.13 Q1863.74 1536 1861.82 1534.22 Q1859.92 1532.44 1856.56 1532.44 M1851.89 1530.45 Q1848.88 1529.7 1847.19 1527.64 Q1845.52 1525.58 1845.52 1522.62 Q1845.52 1518.48 1848.46 1516.07 Q1851.42 1513.66 1856.56 1513.66 Q1861.72 1513.66 1864.66 1516.07 Q1867.6 1518.48 1867.6 1522.62 Q1867.6 1525.58 1865.91 1527.64 Q1864.25 1529.7 1861.26 1530.45 Q1864.64 1531.23 1866.52 1533.52 Q1868.41 1535.82 1868.41 1539.13 Q1868.41 1544.15 1865.33 1546.83 Q1862.28 1549.52 1856.56 1549.52 Q1850.84 1549.52 1847.77 1546.83 Q1844.71 1544.15 1844.71 1539.13 Q1844.71 1535.82 1846.61 1533.52 Q1848.51 1531.23 1851.89 1530.45 M1850.17 1523.06 Q1850.17 1525.75 1851.84 1527.25 Q1853.53 1528.76 1856.56 1528.76 Q1859.57 1528.76 1861.26 1527.25 Q1862.97 1525.75 1862.97 1523.06 Q1862.97 1520.38 1861.26 1518.87 Q1859.57 1517.37 1856.56 1517.37 Q1853.53 1517.37 1851.84 1518.87 Q1850.17 1520.38 1850.17 1523.06 Z" fill="#000000" fill-rule="nonzero" fill-opacity="1" /><path clip-path="url(#clip270)" d="M1886.72 1517.37 Q1883.11 1517.37 1881.28 1520.93 Q1879.48 1524.47 1879.48 1531.6 Q1879.48 1538.71 1881.28 1542.27 Q1883.11 1545.82 1886.72 1545.82 Q1890.36 1545.82 1892.16 1542.27 Q1893.99 1538.71 1893.99 1531.6 Q1893.99 1524.47 1892.16 1520.93 Q1890.36 1517.37 1886.72 1517.37 M1886.72 1513.66 Q1892.53 1513.66 1895.59 1518.27 Q1898.67 1522.85 1898.67 1531.6 Q1898.67 1540.33 1895.59 1544.94 Q1892.53 1549.52 1886.72 1549.52 Q1880.91 1549.52 1877.83 1544.94 Q1874.78 1540.33 1874.78 1531.6 Q1874.78 1522.85 1877.83 1518.27 Q1880.91 1513.66 1886.72 1513.66 Z" fill="#000000" fill-rule="nonzero" fill-opacity="1" /><path clip-path="url(#clip270)" d="M2288.87 1544.91 L2296.5 1544.91 L2296.5 1518.55 L2288.19 1520.21 L2288.19 1515.95 L2296.46 1514.29 L2301.13 1514.29 L2301.13 1544.91 L2308.77 1544.91 L2308.77 1548.85 L2288.87 1548.85 L2288.87 1544.91 Z" fill="#000000" fill-rule="nonzero" fill-opacity="1" /><path clip-path="url(#clip270)" d="M2328.22 1517.37 Q2324.61 1517.37 2322.78 1520.93 Q2320.97 1524.47 2320.97 1531.6 Q2320.97 1538.71 2322.78 1542.27 Q2324.61 1545.82 2328.22 1545.82 Q2331.85 1545.82 2333.66 1542.27 Q2335.49 1538.71 2335.49 1531.6 Q2335.49 1524.47 2333.66 1520.93 Q2331.85 1517.37 2328.22 1517.37 M2328.22 1513.66 Q2334.03 1513.66 2337.08 1518.27 Q2340.16 1522.85 2340.16 1531.6 Q2340.16 1540.33 2337.08 1544.94 Q2334.03 1549.52 2328.22 1549.52 Q2322.41 1549.52 2319.33 1544.94 Q2316.27 1540.33 2316.27 1531.6 Q2316.27 1522.85 2319.33 1518.27 Q2322.41 1513.66 2328.22 1513.66 Z" fill="#000000" fill-rule="nonzero" fill-opacity="1" /><path clip-path="url(#clip270)" d="M2358.38 1517.37 Q2354.77 1517.37 2352.94 1520.93 Q2351.13 1524.47 2351.13 1531.6 Q2351.13 1538.71 2352.94 1542.27 Q2354.77 1545.82 2358.38 1545.82 Q2362.01 1545.82 2363.82 1542.27 Q2365.65 1538.71 2365.65 1531.6 Q2365.65 1524.47 2363.82 1520.93 Q2362.01 1517.37 2358.38 1517.37 M2358.38 1513.66 Q2364.19 1513.66 2367.25 1518.27 Q2370.32 1522.85 2370.32 1531.6 Q2370.32 1540.33 2367.25 1544.94 Q2364.19 1549.52 2358.38 1549.52 Q2352.57 1549.52 2349.49 1544.94 Q2346.44 1540.33 2346.44 1531.6 Q2346.44 1522.85 2349.49 1518.27 Q2352.57 1513.66 2358.38 1513.66 Z" fill="#000000" fill-rule="nonzero" fill-opacity="1" /><polyline clip-path="url(#clip270)" style="stroke:#000000; stroke-linecap:round; stroke-linejoin:round; stroke-width:4; stroke-opacity:1; fill:none" points="141.853,1486.45 141.853,47.2441 "/>
<polyline clip-path="url(#clip270)" style="stroke:#000000; stroke-linecap:round; stroke-linejoin:round; stroke-width:4; stroke-opacity:1; fill:none" points="141.853,1318.99 160.751,1318.99 "/>
<polyline clip-path="url(#clip270)" style="stroke:#000000; stroke-linecap:round; stroke-linejoin:round; stroke-width:4; stroke-opacity:1; fill:none" points="141.853,1134.17 160.751,1134.17 "/>
<polyline clip-path="url(#clip270)" style="stroke:#000000; stroke-linecap:round; stroke-linejoin:round; stroke-width:4; stroke-opacity:1; fill:none" points="141.853,949.347 160.751,949.347 "/>
<polyline clip-path="url(#clip270)" style="stroke:#000000; stroke-linecap:round; stroke-linejoin:round; stroke-width:4; stroke-opacity:1; fill:none" points="141.853,764.524 160.751,764.524 "/>
<polyline clip-path="url(#clip270)" style="stroke:#000000; stroke-linecap:round; stroke-linejoin:round; stroke-width:4; stroke-opacity:1; fill:none" points="141.853,579.702 160.751,579.702 "/>
<polyline clip-path="url(#clip270)" style="stroke:#000000; stroke-linecap:round; stroke-linejoin:round; stroke-width:4; stroke-opacity:1; fill:none" points="141.853,394.879 160.751,394.879 "/>
<polyline clip-path="url(#clip270)" style="stroke:#000000; stroke-linecap:round; stroke-linejoin:round; stroke-width:4; stroke-opacity:1; fill:none" points="141.853,210.057 160.751,210.057 "/>
<path clip-path="url(#clip270)" d="M67.9133 1317.64 Q71.2698 1318.36 73.1448 1320.62 Q75.0429 1322.89 75.0429 1326.23 Q75.0429 1331.34 71.5244 1334.14 Q68.0059 1336.94 61.5245 1336.94 Q59.3486 1336.94 57.0338 1336.5 Q54.7421 1336.09 52.2884 1335.23 L52.2884 1330.72 Q54.2328 1331.85 56.5477 1332.43 Q58.8625 1333.01 61.3856 1333.01 Q65.7837 1333.01 68.0754 1331.27 Q70.3902 1329.54 70.3902 1326.23 Q70.3902 1323.17 68.2374 1321.46 Q66.1078 1319.72 62.2884 1319.72 L58.2606 1319.72 L58.2606 1315.88 L62.4735 1315.88 Q65.9226 1315.88 67.7513 1314.51 Q69.58 1313.12 69.58 1310.53 Q69.58 1307.87 67.6819 1306.46 Q65.8069 1305.02 62.2884 1305.02 Q60.3671 1305.02 58.168 1305.44 Q55.969 1305.86 53.3301 1306.74 L53.3301 1302.57 Q55.9921 1301.83 58.3069 1301.46 Q60.6449 1301.09 62.705 1301.09 Q68.0291 1301.09 71.1309 1303.52 Q74.2327 1305.92 74.2327 1310.05 Q74.2327 1312.92 72.5892 1314.91 Q70.9457 1316.87 67.9133 1317.64 Z" fill="#000000" fill-rule="nonzero" fill-opacity="1" /><path clip-path="url(#clip270)" d="M93.9086 1304.79 Q90.2975 1304.79 88.4688 1308.36 Q86.6632 1311.9 86.6632 1319.03 Q86.6632 1326.13 88.4688 1329.7 Q90.2975 1333.24 93.9086 1333.24 Q97.5428 1333.24 99.3483 1329.7 Q101.177 1326.13 101.177 1319.03 Q101.177 1311.9 99.3483 1308.36 Q97.5428 1304.79 93.9086 1304.79 M93.9086 1301.09 Q99.7187 1301.09 102.774 1305.69 Q105.853 1310.28 105.853 1319.03 Q105.853 1327.75 102.774 1332.36 Q99.7187 1336.94 93.9086 1336.94 Q88.0984 1336.94 85.0197 1332.36 Q81.9642 1327.75 81.9642 1319.03 Q81.9642 1310.28 85.0197 1305.69 Q88.0984 1301.09 93.9086 1301.09 Z" fill="#000000" fill-rule="nonzero" fill-opacity="1" /><path clip-path="url(#clip270)" d="M66.5939 1120.96 L54.7884 1139.41 L66.5939 1139.41 L66.5939 1120.96 M65.367 1116.89 L71.2466 1116.89 L71.2466 1139.41 L76.1772 1139.41 L76.1772 1143.3 L71.2466 1143.3 L71.2466 1151.45 L66.5939 1151.45 L66.5939 1143.3 L50.9921 1143.3 L50.9921 1138.79 L65.367 1116.89 Z" fill="#000000" fill-rule="nonzero" fill-opacity="1" /><path clip-path="url(#clip270)" d="M93.9086 1119.97 Q90.2975 1119.97 88.4688 1123.53 Q86.6632 1127.07 86.6632 1134.2 Q86.6632 1141.31 88.4688 1144.88 Q90.2975 1148.42 93.9086 1148.42 Q97.5428 1148.42 99.3483 1144.88 Q101.177 1141.31 101.177 1134.2 Q101.177 1127.07 99.3483 1123.53 Q97.5428 1119.97 93.9086 1119.97 M93.9086 1116.26 Q99.7187 1116.26 102.774 1120.87 Q105.853 1125.45 105.853 1134.2 Q105.853 1142.93 102.774 1147.54 Q99.7187 1152.12 93.9086 1152.12 Q88.0984 1152.12 85.0197 1147.54 Q81.9642 1142.93 81.9642 1134.2 Q81.9642 1125.45 85.0197 1120.87 Q88.0984 1116.26 93.9086 1116.26 Z" fill="#000000" fill-rule="nonzero" fill-opacity="1" /><path clip-path="url(#clip270)" d="M53.793 932.067 L72.1494 932.067 L72.1494 936.002 L58.0754 936.002 L58.0754 944.474 Q59.0939 944.127 60.1124 943.965 Q61.131 943.78 62.1495 943.78 Q67.9365 943.78 71.3161 946.951 Q74.6957 950.122 74.6957 955.539 Q74.6957 961.118 71.2235 964.22 Q67.7513 967.298 61.4319 967.298 Q59.256 967.298 56.9875 966.928 Q54.7421 966.558 52.3347 965.817 L52.3347 961.118 Q54.418 962.252 56.6402 962.808 Q58.8625 963.363 61.3393 963.363 Q65.3439 963.363 67.6819 961.257 Q70.0198 959.15 70.0198 955.539 Q70.0198 951.928 67.6819 949.821 Q65.3439 947.715 61.3393 947.715 Q59.4643 947.715 57.5893 948.132 Q55.7375 948.548 53.793 949.428 L53.793 932.067 Z" fill="#000000" fill-rule="nonzero" fill-opacity="1" /><path clip-path="url(#clip270)" d="M93.9086 935.146 Q90.2975 935.146 88.4688 938.71 Q86.6632 942.252 86.6632 949.382 Q86.6632 956.488 88.4688 960.053 Q90.2975 963.595 93.9086 963.595 Q97.5428 963.595 99.3483 960.053 Q101.177 956.488 101.177 949.382 Q101.177 942.252 99.3483 938.71 Q97.5428 935.146 93.9086 935.146 M93.9086 931.442 Q99.7187 931.442 102.774 936.048 Q105.853 940.632 105.853 949.382 Q105.853 958.108 102.774 962.715 Q99.7187 967.298 93.9086 967.298 Q88.0984 967.298 85.0197 962.715 Q81.9642 958.108 81.9642 949.382 Q81.9642 940.632 85.0197 936.048 Q88.0984 931.442 93.9086 931.442 Z" fill="#000000" fill-rule="nonzero" fill-opacity="1" /><path clip-path="url(#clip270)" d="M64.3254 762.661 Q61.1773 762.661 59.3254 764.814 Q57.4967 766.967 57.4967 770.717 Q57.4967 774.443 59.3254 776.619 Q61.1773 778.772 64.3254 778.772 Q67.4735 778.772 69.3022 776.619 Q71.1541 774.443 71.1541 770.717 Q71.1541 766.967 69.3022 764.814 Q67.4735 762.661 64.3254 762.661 M73.6077 748.008 L73.6077 752.268 Q71.8485 751.434 70.0429 750.994 Q68.2606 750.555 66.5013 750.555 Q61.8717 750.555 59.418 753.68 Q56.9875 756.805 56.6402 763.124 Q58.006 761.11 60.0662 760.045 Q62.1263 758.957 64.6032 758.957 Q69.8115 758.957 72.8207 762.129 Q75.8531 765.277 75.8531 770.717 Q75.8531 776.041 72.705 779.258 Q69.5568 782.476 64.3254 782.476 Q58.33 782.476 55.1588 777.892 Q51.9875 773.286 51.9875 764.559 Q51.9875 756.365 55.8764 751.504 Q59.7652 746.619 66.3161 746.619 Q68.0754 746.619 69.8578 746.967 Q71.6633 747.314 73.6077 748.008 Z" fill="#000000" fill-rule="nonzero" fill-opacity="1" /><path clip-path="url(#clip270)" d="M93.9086 750.323 Q90.2975 750.323 88.4688 753.888 Q86.6632 757.43 86.6632 764.559 Q86.6632 771.666 88.4688 775.23 Q90.2975 778.772 93.9086 778.772 Q97.5428 778.772 99.3483 775.23 Q101.177 771.666 101.177 764.559 Q101.177 757.43 99.3483 753.888 Q97.5428 750.323 93.9086 750.323 M93.9086 746.619 Q99.7187 746.619 102.774 751.226 Q105.853 755.809 105.853 764.559 Q105.853 773.286 102.774 777.892 Q99.7187 782.476 93.9086 782.476 Q88.0984 782.476 85.0197 777.892 Q81.9642 773.286 81.9642 764.559 Q81.9642 755.809 85.0197 751.226 Q88.0984 746.619 93.9086 746.619 Z" fill="#000000" fill-rule="nonzero" fill-opacity="1" /><path clip-path="url(#clip270)" d="M52.5662 562.422 L74.7883 562.422 L74.7883 564.413 L62.2421 596.982 L57.3578 596.982 L69.1633 566.357 L52.5662 566.357 L52.5662 562.422 Z" fill="#000000" fill-rule="nonzero" fill-opacity="1" /><path clip-path="url(#clip270)" d="M93.9086 565.501 Q90.2975 565.501 88.4688 569.065 Q86.6632 572.607 86.6632 579.737 Q86.6632 586.843 88.4688 590.408 Q90.2975 593.949 93.9086 593.949 Q97.5428 593.949 99.3483 590.408 Q101.177 586.843 101.177 579.737 Q101.177 572.607 99.3483 569.065 Q97.5428 565.501 93.9086 565.501 M93.9086 561.797 Q99.7187 561.797 102.774 566.403 Q105.853 570.987 105.853 579.737 Q105.853 588.463 102.774 593.07 Q99.7187 597.653 93.9086 597.653 Q88.0984 597.653 85.0197 593.07 Q81.9642 588.463 81.9642 579.737 Q81.9642 570.987 85.0197 566.403 Q88.0984 561.797 93.9086 561.797 Z" fill="#000000" fill-rule="nonzero" fill-opacity="1" /><path clip-path="url(#clip270)" d="M63.7467 395.747 Q60.4134 395.747 58.4921 397.53 Q56.5939 399.312 56.5939 402.437 Q56.5939 405.562 58.4921 407.345 Q60.4134 409.127 63.7467 409.127 Q67.08 409.127 69.0013 407.345 Q70.9226 405.539 70.9226 402.437 Q70.9226 399.312 69.0013 397.53 Q67.1032 395.747 63.7467 395.747 M59.0708 393.757 Q56.0615 393.016 54.3717 390.956 Q52.7051 388.896 52.7051 385.933 Q52.7051 381.789 55.6449 379.382 Q58.6078 376.974 63.7467 376.974 Q68.9087 376.974 71.8485 379.382 Q74.7883 381.789 74.7883 385.933 Q74.7883 388.896 73.0985 390.956 Q71.4318 393.016 68.4457 393.757 Q71.8253 394.544 73.7003 396.835 Q75.5985 399.127 75.5985 402.437 Q75.5985 407.46 72.5198 410.145 Q69.4642 412.831 63.7467 412.831 Q58.0291 412.831 54.9504 410.145 Q51.8949 407.46 51.8949 402.437 Q51.8949 399.127 53.793 396.835 Q55.6912 394.544 59.0708 393.757 M57.3578 386.372 Q57.3578 389.058 59.0245 390.562 Q60.7143 392.067 63.7467 392.067 Q66.7559 392.067 68.4457 390.562 Q70.1587 389.058 70.1587 386.372 Q70.1587 383.687 68.4457 382.183 Q66.7559 380.678 63.7467 380.678 Q60.7143 380.678 59.0245 382.183 Q57.3578 383.687 57.3578 386.372 Z" fill="#000000" fill-rule="nonzero" fill-opacity="1" /><path clip-path="url(#clip270)" d="M93.9086 380.678 Q90.2975 380.678 88.4688 384.243 Q86.6632 387.784 86.6632 394.914 Q86.6632 402.021 88.4688 405.585 Q90.2975 409.127 93.9086 409.127 Q97.5428 409.127 99.3483 405.585 Q101.177 402.021 101.177 394.914 Q101.177 387.784 99.3483 384.243 Q97.5428 380.678 93.9086 380.678 M93.9086 376.974 Q99.7187 376.974 102.774 381.581 Q105.853 386.164 105.853 394.914 Q105.853 403.641 102.774 408.247 Q99.7187 412.831 93.9086 412.831 Q88.0984 412.831 85.0197 408.247 Q81.9642 403.641 81.9642 394.914 Q81.9642 386.164 85.0197 381.581 Q88.0984 376.974 93.9086 376.974 Z" fill="#000000" fill-rule="nonzero" fill-opacity="1" /><path clip-path="url(#clip270)" d="M53.8856 226.619 L53.8856 222.36 Q55.6449 223.193 57.4504 223.633 Q59.256 224.073 60.9921 224.073 Q65.6217 224.073 68.0522 220.971 Q70.5059 217.846 70.8531 211.504 Q69.5105 213.494 67.4504 214.559 Q65.3902 215.624 62.8902 215.624 Q57.7051 215.624 54.6727 212.499 Q51.6634 209.351 51.6634 203.911 Q51.6634 198.587 54.8115 195.369 Q57.9597 192.152 63.1911 192.152 Q69.1865 192.152 72.3346 196.758 Q75.5059 201.342 75.5059 210.092 Q75.5059 218.263 71.617 223.147 Q67.7513 228.008 61.2004 228.008 Q59.4412 228.008 57.6356 227.661 Q55.8301 227.314 53.8856 226.619 M63.1911 211.967 Q66.3393 211.967 68.168 209.814 Q70.0198 207.661 70.0198 203.911 Q70.0198 200.184 68.168 198.031 Q66.3393 195.855 63.1911 195.855 Q60.043 195.855 58.1912 198.031 Q56.3625 200.184 56.3625 203.911 Q56.3625 207.661 58.1912 209.814 Q60.043 211.967 63.1911 211.967 Z" fill="#000000" fill-rule="nonzero" fill-opacity="1" /><path clip-path="url(#clip270)" d="M93.9086 195.855 Q90.2975 195.855 88.4688 199.42 Q86.6632 202.962 86.6632 210.092 Q86.6632 217.198 88.4688 220.763 Q90.2975 224.304 93.9086 224.304 Q97.5428 224.304 99.3483 220.763 Q101.177 217.198 101.177 210.092 Q101.177 202.962 99.3483 199.42 Q97.5428 195.855 93.9086 195.855 M93.9086 192.152 Q99.7187 192.152 102.774 196.758 Q105.853 201.342 105.853 210.092 Q105.853 218.818 102.774 223.425 Q99.7187 228.008 93.9086 228.008 Q88.0984 228.008 85.0197 223.425 Q81.9642 218.818 81.9642 210.092 Q81.9642 201.342 85.0197 196.758 Q88.0984 192.152 93.9086 192.152 Z" fill="#000000" fill-rule="nonzero" fill-opacity="1" /><polyline clip-path="url(#clip272)" style="stroke:#009af9; stroke-linecap:round; stroke-linejoin:round; stroke-width:4; stroke-opacity:1; fill:none" points="204.426,210.974 268.224,305.748 "/>
<polyline clip-path="url(#clip272)" style="stroke:#e26f46; stroke-linecap:round; stroke-linejoin:round; stroke-width:4; stroke-opacity:1; fill:none" points="357.995,659.97 268.224,305.748 "/>
<polyline clip-path="url(#clip272)" style="stroke:#3da44d; stroke-linecap:round; stroke-linejoin:round; stroke-width:4; stroke-opacity:1; fill:none" points="1848.24,1030.48 1647.43,714.677 "/>
<polyline clip-path="url(#clip272)" style="stroke:#c271d2; stroke-linecap:round; stroke-linejoin:round; stroke-width:4; stroke-opacity:1; fill:none" points="2290.18,446.714 1647.43,714.677 "/>
<polyline clip-path="url(#clip272)" style="stroke:#ac8d18; stroke-linecap:round; stroke-linejoin:round; stroke-width:4; stroke-opacity:1; fill:none" points="1239.61,316.105 1192.8,87.9763 "/>
<polyline clip-path="url(#clip272)" style="stroke:#00a9ad; stroke-linecap:round; stroke-linejoin:round; stroke-width:4; stroke-opacity:1; fill:none" points="383.951,261.415 1192.8,87.9763 "/>
<polyline clip-path="url(#clip272)" style="stroke:#ed5d92; stroke-linecap:round; stroke-linejoin:round; stroke-width:4; stroke-opacity:1; fill:none" points="2222.8,348.187 2045.2,273.8 "/>
<polyline clip-path="url(#clip272)" style="stroke:#c68125; stroke-linecap:round; stroke-linejoin:round; stroke-width:4; stroke-opacity:1; fill:none" points="1972.71,342.15 2045.2,273.8 "/>
<polyline clip-path="url(#clip272)" style="stroke:#00a98d; stroke-linecap:round; stroke-linejoin:round; stroke-width:4; stroke-opacity:1; fill:none" points="2045.2,273.8 2222.8,348.187 "/>
<polyline clip-path="url(#clip272)" style="stroke:#8e971d; stroke-linecap:round; stroke-linejoin:round; stroke-width:4; stroke-opacity:1; fill:none" points="2290.18,446.714 2222.8,348.187 "/>
<polyline clip-path="url(#clip272)" style="stroke:#00a8cb; stroke-linecap:round; stroke-linejoin:round; stroke-width:4; stroke-opacity:1; fill:none" points="940.966,1380.58 1203.2,1408.59 "/>
<polyline clip-path="url(#clip272)" style="stroke:#9b7fe8; stroke-linecap:round; stroke-linejoin:round; stroke-width:4; stroke-opacity:1; fill:none" points="2287.98,1422.05 1203.2,1408.59 "/>
<polyline clip-path="url(#clip272)" style="stroke:#608cf6; stroke-linecap:round; stroke-linejoin:round; stroke-width:4; stroke-opacity:1; fill:none" points="1647.43,714.677 1848.24,1030.48 "/>
<polyline clip-path="url(#clip272)" style="stroke:#f05f73; stroke-linecap:round; stroke-linejoin:round; stroke-width:4; stroke-opacity:1; fill:none" points="2282.18,1318.37 1848.24,1030.48 "/>
<polyline clip-path="url(#clip272)" style="stroke:#dd64b5; stroke-linecap:round; stroke-linejoin:round; stroke-width:4; stroke-opacity:1; fill:none" points="268.224,305.748 204.426,210.974 "/>
<polyline clip-path="url(#clip272)" style="stroke:#6b9e32; stroke-linecap:round; stroke-linejoin:round; stroke-width:4; stroke-opacity:1; fill:none" points="329.129,255.989 204.426,210.974 "/>
<polyline clip-path="url(#clip272)" style="stroke:#009af9; stroke-linecap:round; stroke-linejoin:round; stroke-width:4; stroke-opacity:1; fill:none" points="268.224,305.748 357.995,659.97 "/>
<polyline clip-path="url(#clip272)" style="stroke:#e26f46; stroke-linecap:round; stroke-linejoin:round; stroke-width:4; stroke-opacity:1; fill:none" points="448.033,1445.72 357.995,659.97 "/>
<polyline clip-path="url(#clip272)" style="stroke:#3da44d; stroke-linecap:round; stroke-linejoin:round; stroke-width:4; stroke-opacity:1; fill:none" points="1203.2,1408.59 940.966,1380.58 "/>
<polyline clip-path="url(#clip272)" style="stroke:#c271d2; stroke-linecap:round; stroke-linejoin:round; stroke-width:4; stroke-opacity:1; fill:none" points="448.033,1445.72 940.966,1380.58 "/>
<polyline clip-path="url(#clip272)" style="stroke:#ac8d18; stroke-linecap:round; stroke-linejoin:round; stroke-width:4; stroke-opacity:1; fill:none" points="357.995,659.97 448.033,1445.72 "/>
<polyline clip-path="url(#clip272)" style="stroke:#00a9ad; stroke-linecap:round; stroke-linejoin:round; stroke-width:4; stroke-opacity:1; fill:none" points="940.966,1380.58 448.033,1445.72 "/>
<polyline clip-path="url(#clip272)" style="stroke:#ed5d92; stroke-linecap:round; stroke-linejoin:round; stroke-width:4; stroke-opacity:1; fill:none" points="2045.2,273.8 1972.71,342.15 "/>
<polyline clip-path="url(#clip272)" style="stroke:#c68125; stroke-linecap:round; stroke-linejoin:round; stroke-width:4; stroke-opacity:1; fill:none" points="1922.7,372.475 1972.71,342.15 "/>
<polyline clip-path="url(#clip272)" style="stroke:#00a98d; stroke-linecap:round; stroke-linejoin:round; stroke-width:4; stroke-opacity:1; fill:none" points="1972.71,342.15 1922.7,372.475 "/>
<polyline clip-path="url(#clip272)" style="stroke:#8e971d; stroke-linecap:round; stroke-linejoin:round; stroke-width:4; stroke-opacity:1; fill:none" points="1370.18,362.316 1922.7,372.475 "/>
<polyline clip-path="url(#clip272)" style="stroke:#00a8cb; stroke-linecap:round; stroke-linejoin:round; stroke-width:4; stroke-opacity:1; fill:none" points="1848.24,1030.48 2282.18,1318.37 "/>
<polyline clip-path="url(#clip272)" style="stroke:#9b7fe8; stroke-linecap:round; stroke-linejoin:round; stroke-width:4; stroke-opacity:1; fill:none" points="2287.98,1422.05 2282.18,1318.37 "/>
<polyline clip-path="url(#clip272)" style="stroke:#608cf6; stroke-linecap:round; stroke-linejoin:round; stroke-width:4; stroke-opacity:1; fill:none" points="1203.2,1408.59 2287.98,1422.05 "/>
<polyline clip-path="url(#clip272)" style="stroke:#f05f73; stroke-linecap:round; stroke-linejoin:round; stroke-width:4; stroke-opacity:1; fill:none" points="2282.18,1318.37 2287.98,1422.05 "/>
<polyline clip-path="url(#clip272)" style="stroke:#dd64b5; stroke-linecap:round; stroke-linejoin:round; stroke-width:4; stroke-opacity:1; fill:none" points="1647.43,714.677 2290.18,446.714 "/>
<polyline clip-path="url(#clip272)" style="stroke:#6b9e32; stroke-linecap:round; stroke-linejoin:round; stroke-width:4; stroke-opacity:1; fill:none" points="2222.8,348.187 2290.18,446.714 "/>
<polyline clip-path="url(#clip272)" style="stroke:#009af9; stroke-linecap:round; stroke-linejoin:round; stroke-width:4; stroke-opacity:1; fill:none" points="1192.8,87.9763 1239.61,316.105 "/>
<polyline clip-path="url(#clip272)" style="stroke:#e26f46; stroke-linecap:round; stroke-linejoin:round; stroke-width:4; stroke-opacity:1; fill:none" points="1370.18,362.316 1239.61,316.105 "/>
<polyline clip-path="url(#clip272)" style="stroke:#3da44d; stroke-linecap:round; stroke-linejoin:round; stroke-width:4; stroke-opacity:1; fill:none" points="1922.7,372.475 1370.18,362.316 "/>
<polyline clip-path="url(#clip272)" style="stroke:#c271d2; stroke-linecap:round; stroke-linejoin:round; stroke-width:4; stroke-opacity:1; fill:none" points="1239.61,316.105 1370.18,362.316 "/>
<polyline clip-path="url(#clip272)" style="stroke:#ac8d18; stroke-linecap:round; stroke-linejoin:round; stroke-width:4; stroke-opacity:1; fill:none" points="204.426,210.974 329.129,255.989 "/>
<polyline clip-path="url(#clip272)" style="stroke:#00a9ad; stroke-linecap:round; stroke-linejoin:round; stroke-width:4; stroke-opacity:1; fill:none" points="383.951,261.415 329.129,255.989 "/>
<polyline clip-path="url(#clip272)" style="stroke:#ed5d92; stroke-linecap:round; stroke-linejoin:round; stroke-width:4; stroke-opacity:1; fill:none" points="1192.8,87.9763 383.951,261.415 "/>
<polyline clip-path="url(#clip272)" style="stroke:#c68125; stroke-linecap:round; stroke-linejoin:round; stroke-width:4; stroke-opacity:1; fill:none" points="329.129,255.989 383.951,261.415 "/>
</svg>
