<?xml version="1.0" encoding="utf-8"?>
<svg xmlns="http://www.w3.org/2000/svg" xmlns:xlink="http://www.w3.org/1999/xlink" width="600" height="400" viewBox="0 0 2400 1600">
<defs>
  <clipPath id="clip560">
    <rect x="0" y="0" width="2400" height="1600"/>
  </clipPath>
</defs>
<path clip-path="url(#clip560)" d="M0 1600 L2400 1600 L2400 0 L0 0  Z" fill="#ffffff" fill-rule="evenodd" fill-opacity="1"/>
<defs>
  <clipPath id="clip561">
    <rect x="480" y="0" width="1681" height="1600"/>
  </clipPath>
</defs>
<path clip-path="url(#clip560)" d="M141.853 1486.45 L2352.76 1486.45 L2352.76 47.2441 L141.853 47.2441  Z" fill="#ffffff" fill-rule="evenodd" fill-opacity="1"/>
<defs>
  <clipPath id="clip562">
    <rect x="141" y="47" width="2212" height="1440"/>
  </clipPath>
</defs>
<polyline clip-path="url(#clip562)" style="stroke:#000000; stroke-linecap:round; stroke-linejoin:round; stroke-width:2; stroke-opacity:0.1; fill:none" points="414.818,1486.45 414.818,47.2441 "/>
<polyline clip-path="url(#clip562)" style="stroke:#000000; stroke-linecap:round; stroke-linejoin:round; stroke-width:2; stroke-opacity:0.1; fill:none" points="717.54,1486.45 717.54,47.2441 "/>
<polyline clip-path="url(#clip562)" style="stroke:#000000; stroke-linecap:round; stroke-linejoin:round; stroke-width:2; stroke-opacity:0.1; fill:none" points="1020.26,1486.45 1020.26,47.2441 "/>
<polyline clip-path="url(#clip562)" style="stroke:#000000; stroke-linecap:round; stroke-linejoin:round; stroke-width:2; stroke-opacity:0.1; fill:none" points="1322.99,1486.45 1322.99,47.2441 "/>
<polyline clip-path="url(#clip562)" style="stroke:#000000; stroke-linecap:round; stroke-linejoin:round; stroke-width:2; stroke-opacity:0.1; fill:none" points="1625.71,1486.45 1625.71,47.2441 "/>
<polyline clip-path="url(#clip562)" style="stroke:#000000; stroke-linecap:round; stroke-linejoin:round; stroke-width:2; stroke-opacity:0.1; fill:none" points="1928.43,1486.45 1928.43,47.2441 "/>
<polyline clip-path="url(#clip562)" style="stroke:#000000; stroke-linecap:round; stroke-linejoin:round; stroke-width:2; stroke-opacity:0.1; fill:none" points="2231.15,1486.45 2231.15,47.2441 "/>
<polyline clip-path="url(#clip560)" style="stroke:#000000; stroke-linecap:round; stroke-linejoin:round; stroke-width:4; stroke-opacity:1; fill:none" points="141.853,1486.45 2352.76,1486.45 "/>
<polyline clip-path="url(#clip560)" style="stroke:#000000; stroke-linecap:round; stroke-linejoin:round; stroke-width:4; stroke-opacity:1; fill:none" points="414.818,1486.45 414.818,1467.55 "/>
<polyline clip-path="url(#clip560)" style="stroke:#000000; stroke-linecap:round; stroke-linejoin:round; stroke-width:4; stroke-opacity:1; fill:none" points="717.54,1486.45 717.54,1467.55 "/>
<polyline clip-path="url(#clip560)" style="stroke:#000000; stroke-linecap:round; stroke-linejoin:round; stroke-width:4; stroke-opacity:1; fill:none" points="1020.26,1486.45 1020.26,1467.55 "/>
<polyline clip-path="url(#clip560)" style="stroke:#000000; stroke-linecap:round; stroke-linejoin:round; stroke-width:4; stroke-opacity:1; fill:none" points="1322.99,1486.45 1322.99,1467.55 "/>
<polyline clip-path="url(#clip560)" style="stroke:#000000; stroke-linecap:round; stroke-linejoin:round; stroke-width:4; stroke-opacity:1; fill:none" points="1625.71,1486.45 1625.71,1467.55 "/>
<polyline clip-path="url(#clip560)" style="stroke:#000000; stroke-linecap:round; stroke-linejoin:round; stroke-width:4; stroke-opacity:1; fill:none" points="1928.43,1486.45 1928.43,1467.55 "/>
<polyline clip-path="url(#clip560)" style="stroke:#000000; stroke-linecap:round; stroke-linejoin:round; stroke-width:4; stroke-opacity:1; fill:none" points="2231.15,1486.45 2231.15,1467.55 "/>
<path clip-path="url(#clip560)" d="M388.579 1530.21 Q391.936 1530.93 393.811 1533.2 Q395.709 1535.47 395.709 1538.8 Q395.709 1543.92 392.191 1546.72 Q388.672 1549.52 382.191 1549.52 Q380.015 1549.52 377.7 1549.08 Q375.408 1548.66 372.955 1547.81 L372.955 1543.29 Q374.899 1544.43 377.214 1545.01 Q379.529 1545.58 382.052 1545.58 Q386.45 1545.58 388.742 1543.85 Q391.056 1542.11 391.056 1538.8 Q391.056 1535.75 388.904 1534.03 Q386.774 1532.3 382.954 1532.3 L378.927 1532.3 L378.927 1528.45 L383.14 1528.45 Q386.589 1528.45 388.417 1527.09 Q390.246 1525.7 390.246 1523.11 Q390.246 1520.45 388.348 1519.03 Q386.473 1517.6 382.954 1517.6 Q381.033 1517.6 378.834 1518.01 Q376.635 1518.43 373.996 1519.31 L373.996 1515.14 Q376.658 1514.4 378.973 1514.03 Q381.311 1513.66 383.371 1513.66 Q388.695 1513.66 391.797 1516.09 Q394.899 1518.5 394.899 1522.62 Q394.899 1525.49 393.255 1527.48 Q391.612 1529.45 388.579 1530.21 Z" fill="#000000" fill-rule="nonzero" fill-opacity="1" /><path clip-path="url(#clip560)" d="M404.621 1514.29 L422.977 1514.29 L422.977 1518.22 L408.903 1518.22 L408.903 1526.7 Q409.922 1526.35 410.94 1526.19 Q411.959 1526 412.977 1526 Q418.764 1526 422.144 1529.17 Q425.524 1532.34 425.524 1537.76 Q425.524 1543.34 422.052 1546.44 Q418.579 1549.52 412.26 1549.52 Q410.084 1549.52 407.815 1549.15 Q405.57 1548.78 403.163 1548.04 L403.163 1543.34 Q405.246 1544.47 407.468 1545.03 Q409.69 1545.58 412.167 1545.58 Q416.172 1545.58 418.51 1543.48 Q420.848 1541.37 420.848 1537.76 Q420.848 1534.15 418.51 1532.04 Q416.172 1529.94 412.167 1529.94 Q410.292 1529.94 408.417 1530.35 Q406.565 1530.77 404.621 1531.65 L404.621 1514.29 Z" fill="#000000" fill-rule="nonzero" fill-opacity="1" /><path clip-path="url(#clip560)" d="M444.737 1517.37 Q441.125 1517.37 439.297 1520.93 Q437.491 1524.47 437.491 1531.6 Q437.491 1538.71 439.297 1542.27 Q441.125 1545.82 444.737 1545.82 Q448.371 1545.82 450.176 1542.27 Q452.005 1538.71 452.005 1531.6 Q452.005 1524.47 450.176 1520.93 Q448.371 1517.37 444.737 1517.37 M444.737 1513.66 Q450.547 1513.66 453.602 1518.27 Q456.681 1522.85 456.681 1531.6 Q456.681 1540.33 453.602 1544.94 Q450.547 1549.52 444.737 1549.52 Q438.926 1549.52 435.848 1544.94 Q432.792 1540.33 432.792 1531.6 Q432.792 1522.85 435.848 1518.27 Q438.926 1513.66 444.737 1513.66 Z" fill="#000000" fill-rule="nonzero" fill-opacity="1" /><path clip-path="url(#clip560)" d="M690.631 1518.36 L678.825 1536.81 L690.631 1536.81 L690.631 1518.36 M689.404 1514.29 L695.283 1514.29 L695.283 1536.81 L700.214 1536.81 L700.214 1540.7 L695.283 1540.7 L695.283 1548.85 L690.631 1548.85 L690.631 1540.7 L675.029 1540.7 L675.029 1536.19 L689.404 1514.29 Z" fill="#000000" fill-rule="nonzero" fill-opacity="1" /><path clip-path="url(#clip560)" d="M717.945 1517.37 Q714.334 1517.37 712.505 1520.93 Q710.7 1524.47 710.7 1531.6 Q710.7 1538.71 712.505 1542.27 Q714.334 1545.82 717.945 1545.82 Q721.58 1545.82 723.385 1542.27 Q725.214 1538.71 725.214 1531.6 Q725.214 1524.47 723.385 1520.93 Q721.58 1517.37 717.945 1517.37 M717.945 1513.66 Q723.755 1513.66 726.811 1518.27 Q729.89 1522.85 729.89 1531.6 Q729.89 1540.33 726.811 1544.94 Q723.755 1549.52 717.945 1549.52 Q712.135 1549.52 709.056 1544.94 Q706.001 1540.33 706.001 1531.6 Q706.001 1522.85 709.056 1518.27 Q712.135 1513.66 717.945 1513.66 Z" fill="#000000" fill-rule="nonzero" fill-opacity="1" /><path clip-path="url(#clip560)" d="M748.107 1517.37 Q744.496 1517.37 742.667 1520.93 Q740.862 1524.47 740.862 1531.6 Q740.862 1538.71 742.667 1542.27 Q744.496 1545.82 748.107 1545.82 Q751.741 1545.82 753.547 1542.27 Q755.376 1538.71 755.376 1531.6 Q755.376 1524.47 753.547 1520.93 Q751.741 1517.37 748.107 1517.37 M748.107 1513.66 Q753.917 1513.66 756.973 1518.27 Q760.052 1522.85 760.052 1531.6 Q760.052 1540.33 756.973 1544.94 Q753.917 1549.52 748.107 1549.52 Q742.297 1549.52 739.218 1544.94 Q736.163 1540.33 736.163 1531.6 Q736.163 1522.85 739.218 1518.27 Q742.297 1513.66 748.107 1513.66 Z" fill="#000000" fill-rule="nonzero" fill-opacity="1" /><path clip-path="url(#clip560)" d="M993.353 1518.36 L981.548 1536.81 L993.353 1536.81 L993.353 1518.36 M992.126 1514.29 L998.006 1514.29 L998.006 1536.81 L1002.94 1536.81 L1002.94 1540.7 L998.006 1540.7 L998.006 1548.85 L993.353 1548.85 L993.353 1540.7 L977.751 1540.7 L977.751 1536.19 L992.126 1514.29 Z" fill="#000000" fill-rule="nonzero" fill-opacity="1" /><path clip-path="url(#clip560)" d="M1010.71 1514.29 L1029.07 1514.29 L1029.07 1518.22 L1015 1518.22 L1015 1526.7 Q1016.01 1526.35 1017.03 1526.19 Q1018.05 1526 1019.07 1526 Q1024.86 1526 1028.24 1529.17 Q1031.62 1532.34 1031.62 1537.76 Q1031.62 1543.34 1028.14 1546.44 Q1024.67 1549.52 1018.35 1549.52 Q1016.18 1549.52 1013.91 1549.15 Q1011.66 1548.78 1009.26 1548.04 L1009.26 1543.34 Q1011.34 1544.47 1013.56 1545.03 Q1015.78 1545.58 1018.26 1545.58 Q1022.26 1545.58 1024.6 1543.48 Q1026.94 1541.37 1026.94 1537.76 Q1026.94 1534.15 1024.6 1532.04 Q1022.26 1529.94 1018.26 1529.94 Q1016.39 1529.94 1014.51 1530.35 Q1012.66 1530.77 1010.71 1531.65 L1010.71 1514.29 Z" fill="#000000" fill-rule="nonzero" fill-opacity="1" /><path clip-path="url(#clip560)" d="M1050.83 1517.37 Q1047.22 1517.37 1045.39 1520.93 Q1043.58 1524.47 1043.58 1531.6 Q1043.58 1538.71 1045.39 1542.27 Q1047.22 1545.82 1050.83 1545.82 Q1054.46 1545.82 1056.27 1542.27 Q1058.1 1538.71 1058.1 1531.6 Q1058.1 1524.47 1056.27 1520.93 Q1054.46 1517.37 1050.83 1517.37 M1050.83 1513.66 Q1056.64 1513.66 1059.7 1518.27 Q1062.77 1522.85 1062.77 1531.6 Q1062.77 1540.33 1059.7 1544.94 Q1056.64 1549.52 1050.83 1549.52 Q1045.02 1549.52 1041.94 1544.94 Q1038.89 1540.33 1038.89 1531.6 Q1038.89 1522.85 1041.94 1518.27 Q1045.02 1513.66 1050.83 1513.66 Z" fill="#000000" fill-rule="nonzero" fill-opacity="1" /><path clip-path="url(#clip560)" d="M1282.6 1514.29 L1300.96 1514.29 L1300.96 1518.22 L1286.89 1518.22 L1286.89 1526.7 Q1287.9 1526.35 1288.92 1526.19 Q1289.94 1526 1290.96 1526 Q1296.75 1526 1300.13 1529.17 Q1303.51 1532.34 1303.51 1537.76 Q1303.51 1543.34 1300.03 1546.44 Q1296.56 1549.52 1290.24 1549.52 Q1288.07 1549.52 1285.8 1549.15 Q1283.55 1548.78 1281.14 1548.04 L1281.14 1543.34 Q1283.23 1544.47 1285.45 1545.03 Q1287.67 1545.58 1290.15 1545.58 Q1294.15 1545.58 1296.49 1543.48 Q1298.83 1541.37 1298.83 1537.76 Q1298.83 1534.15 1296.49 1532.04 Q1294.15 1529.94 1290.15 1529.94 Q1288.27 1529.94 1286.4 1530.35 Q1284.55 1530.77 1282.6 1531.65 L1282.6 1514.29 Z" fill="#000000" fill-rule="nonzero" fill-opacity="1" /><path clip-path="url(#clip560)" d="M1322.72 1517.37 Q1319.11 1517.37 1317.28 1520.93 Q1315.47 1524.47 1315.47 1531.6 Q1315.47 1538.71 1317.28 1542.27 Q1319.11 1545.82 1322.72 1545.82 Q1326.35 1545.82 1328.16 1542.27 Q1329.99 1538.71 1329.99 1531.6 Q1329.99 1524.47 1328.16 1520.93 Q1326.35 1517.37 1322.72 1517.37 M1322.72 1513.66 Q1328.53 1513.66 1331.58 1518.27 Q1334.66 1522.85 1334.66 1531.6 Q1334.66 1540.33 1331.58 1544.94 Q1328.53 1549.52 1322.72 1549.52 Q1316.91 1549.52 1313.83 1544.94 Q1310.77 1540.33 1310.77 1531.6 Q1310.77 1522.85 1313.83 1518.27 Q1316.91 1513.66 1322.72 1513.66 Z" fill="#000000" fill-rule="nonzero" fill-opacity="1" /><path clip-path="url(#clip560)" d="M1352.88 1517.37 Q1349.27 1517.37 1347.44 1520.93 Q1345.64 1524.47 1345.64 1531.6 Q1345.64 1538.71 1347.44 1542.27 Q1349.27 1545.82 1352.88 1545.82 Q1356.51 1545.82 1358.32 1542.27 Q1360.15 1538.71 1360.15 1531.6 Q1360.15 1524.47 1358.32 1520.93 Q1356.51 1517.37 1352.88 1517.37 M1352.88 1513.66 Q1358.69 1513.66 1361.75 1518.27 Q1364.83 1522.85 1364.83 1531.6 Q1364.83 1540.33 1361.75 1544.94 Q1358.69 1549.52 1352.88 1549.52 Q1347.07 1549.52 1343.99 1544.94 Q1340.94 1540.33 1340.94 1531.6 Q1340.94 1522.85 1343.99 1518.27 Q1347.07 1513.66 1352.88 1513.66 Z" fill="#000000" fill-rule="nonzero" fill-opacity="1" /><path clip-path="url(#clip560)" d="M1585.33 1514.29 L1603.68 1514.29 L1603.68 1518.22 L1589.61 1518.22 L1589.61 1526.7 Q1590.63 1526.35 1591.65 1526.19 Q1592.66 1526 1593.68 1526 Q1599.47 1526 1602.85 1529.17 Q1606.23 1532.34 1606.23 1537.76 Q1606.23 1543.34 1602.76 1546.44 Q1599.28 1549.52 1592.96 1549.52 Q1590.79 1549.52 1588.52 1549.15 Q1586.27 1548.78 1583.87 1548.04 L1583.87 1543.34 Q1585.95 1544.47 1588.17 1545.03 Q1590.4 1545.58 1592.87 1545.58 Q1596.88 1545.58 1599.21 1543.48 Q1601.55 1541.37 1601.55 1537.76 Q1601.55 1534.15 1599.21 1532.04 Q1596.88 1529.94 1592.87 1529.94 Q1591 1529.94 1589.12 1530.35 Q1587.27 1530.77 1585.33 1531.65 L1585.33 1514.29 Z" fill="#000000" fill-rule="nonzero" fill-opacity="1" /><path clip-path="url(#clip560)" d="M1615.49 1514.29 L1633.84 1514.29 L1633.84 1518.22 L1619.77 1518.22 L1619.77 1526.7 Q1620.79 1526.35 1621.81 1526.19 Q1622.83 1526 1623.84 1526 Q1629.63 1526 1633.01 1529.17 Q1636.39 1532.34 1636.39 1537.76 Q1636.39 1543.34 1632.92 1546.44 Q1629.45 1549.52 1623.13 1549.52 Q1620.95 1549.52 1618.68 1549.15 Q1616.44 1548.78 1614.03 1548.04 L1614.03 1543.34 Q1616.11 1544.47 1618.33 1545.03 Q1620.56 1545.58 1623.03 1545.58 Q1627.04 1545.58 1629.38 1543.48 Q1631.71 1541.37 1631.71 1537.76 Q1631.71 1534.15 1629.38 1532.04 Q1627.04 1529.94 1623.03 1529.94 Q1621.16 1529.94 1619.28 1530.35 Q1617.43 1530.77 1615.49 1531.65 L1615.49 1514.29 Z" fill="#000000" fill-rule="nonzero" fill-opacity="1" /><path clip-path="url(#clip560)" d="M1655.6 1517.37 Q1651.99 1517.37 1650.16 1520.93 Q1648.36 1524.47 1648.36 1531.6 Q1648.36 1538.71 1650.16 1542.27 Q1651.99 1545.82 1655.6 1545.82 Q1659.24 1545.82 1661.04 1542.27 Q1662.87 1538.71 1662.87 1531.6 Q1662.87 1524.47 1661.04 1520.93 Q1659.24 1517.37 1655.6 1517.37 M1655.6 1513.66 Q1661.41 1513.66 1664.47 1518.27 Q1667.55 1522.85 1667.55 1531.6 Q1667.55 1540.33 1664.47 1544.94 Q1661.41 1549.52 1655.6 1549.52 Q1649.79 1549.52 1646.71 1544.94 Q1643.66 1540.33 1643.66 1531.6 Q1643.66 1522.85 1646.71 1518.27 Q1649.79 1513.66 1655.6 1513.66 Z" fill="#000000" fill-rule="nonzero" fill-opacity="1" /><path clip-path="url(#clip560)" d="M1898.75 1529.7 Q1895.61 1529.7 1893.75 1531.86 Q1891.93 1534.01 1891.93 1537.76 Q1891.93 1541.49 1893.75 1543.66 Q1895.61 1545.82 1898.75 1545.82 Q1901.9 1545.82 1903.73 1543.66 Q1905.58 1541.49 1905.58 1537.76 Q1905.58 1534.01 1903.73 1531.86 Q1901.9 1529.7 1898.75 1529.7 M1908.04 1515.05 L1908.04 1519.31 Q1906.28 1518.48 1904.47 1518.04 Q1902.69 1517.6 1900.93 1517.6 Q1896.3 1517.6 1893.85 1520.72 Q1891.42 1523.85 1891.07 1530.17 Q1892.43 1528.15 1894.49 1527.09 Q1896.56 1526 1899.03 1526 Q1904.24 1526 1907.25 1529.17 Q1910.28 1532.32 1910.28 1537.76 Q1910.28 1543.08 1907.13 1546.3 Q1903.99 1549.52 1898.75 1549.52 Q1892.76 1549.52 1889.59 1544.94 Q1886.42 1540.33 1886.42 1531.6 Q1886.42 1523.41 1890.31 1518.55 Q1894.19 1513.66 1900.74 1513.66 Q1902.5 1513.66 1904.29 1514.01 Q1906.09 1514.36 1908.04 1515.05 Z" fill="#000000" fill-rule="nonzero" fill-opacity="1" /><path clip-path="url(#clip560)" d="M1928.34 1517.37 Q1924.73 1517.37 1922.9 1520.93 Q1921.09 1524.47 1921.09 1531.6 Q1921.09 1538.71 1922.9 1542.27 Q1924.73 1545.82 1928.34 1545.82 Q1931.97 1545.82 1933.78 1542.27 Q1935.61 1538.71 1935.61 1531.6 Q1935.61 1524.47 1933.78 1520.93 Q1931.97 1517.37 1928.34 1517.37 M1928.34 1513.66 Q1934.15 1513.66 1937.2 1518.27 Q1940.28 1522.85 1940.28 1531.6 Q1940.28 1540.33 1937.2 1544.94 Q1934.15 1549.52 1928.34 1549.52 Q1922.53 1549.52 1919.45 1544.94 Q1916.39 1540.33 1916.39 1531.6 Q1916.39 1522.85 1919.45 1518.27 Q1922.53 1513.66 1928.34 1513.66 Z" fill="#000000" fill-rule="nonzero" fill-opacity="1" /><path clip-path="url(#clip560)" d="M1958.5 1517.37 Q1954.89 1517.37 1953.06 1520.93 Q1951.25 1524.47 1951.25 1531.6 Q1951.25 1538.71 1953.06 1542.27 Q1954.89 1545.82 1958.5 1545.82 Q1962.13 1545.82 1963.94 1542.27 Q1965.77 1538.71 1965.77 1531.6 Q1965.77 1524.47 1963.94 1520.93 Q1962.13 1517.37 1958.5 1517.37 M1958.5 1513.66 Q1964.31 1513.66 1967.36 1518.27 Q1970.44 1522.85 1970.44 1531.6 Q1970.44 1540.33 1967.36 1544.94 Q1964.31 1549.52 1958.5 1549.52 Q1952.69 1549.52 1949.61 1544.94 Q1946.55 1540.33 1946.55 1531.6 Q1946.55 1522.85 1949.61 1518.27 Q1952.69 1513.66 1958.5 1513.66 Z" fill="#000000" fill-rule="nonzero" fill-opacity="1" /><path clip-path="url(#clip560)" d="M2201.48 1529.7 Q2198.33 1529.7 2196.48 1531.86 Q2194.65 1534.01 2194.65 1537.76 Q2194.65 1541.49 2196.48 1543.66 Q2198.33 1545.82 2201.48 1545.82 Q2204.62 1545.82 2206.45 1543.66 Q2208.31 1541.49 2208.31 1537.76 Q2208.31 1534.01 2206.45 1531.86 Q2204.62 1529.7 2201.48 1529.7 M2210.76 1515.05 L2210.76 1519.31 Q2209 1518.48 2207.19 1518.04 Q2205.41 1517.6 2203.65 1517.6 Q2199.02 1517.6 2196.57 1520.72 Q2194.14 1523.85 2193.79 1530.17 Q2195.16 1528.15 2197.22 1527.09 Q2199.28 1526 2201.75 1526 Q2206.96 1526 2209.97 1529.17 Q2213 1532.32 2213 1537.76 Q2213 1543.08 2209.86 1546.3 Q2206.71 1549.52 2201.48 1549.52 Q2195.48 1549.52 2192.31 1544.94 Q2189.14 1540.33 2189.14 1531.6 Q2189.14 1523.41 2193.03 1518.55 Q2196.92 1513.66 2203.47 1513.66 Q2205.23 1513.66 2207.01 1514.01 Q2208.81 1514.36 2210.76 1515.05 Z" fill="#000000" fill-rule="nonzero" fill-opacity="1" /><path clip-path="url(#clip560)" d="M2221.11 1514.29 L2239.46 1514.29 L2239.46 1518.22 L2225.39 1518.22 L2225.39 1526.7 Q2226.41 1526.35 2227.43 1526.19 Q2228.44 1526 2229.46 1526 Q2235.25 1526 2238.63 1529.17 Q2242.01 1532.34 2242.01 1537.76 Q2242.01 1543.34 2238.54 1546.44 Q2235.06 1549.52 2228.74 1549.52 Q2226.57 1549.52 2224.3 1549.15 Q2222.06 1548.78 2219.65 1548.04 L2219.65 1543.34 Q2221.73 1544.47 2223.95 1545.03 Q2226.18 1545.58 2228.65 1545.58 Q2232.66 1545.58 2234.99 1543.48 Q2237.33 1541.37 2237.33 1537.76 Q2237.33 1534.15 2234.99 1532.04 Q2232.66 1529.94 2228.65 1529.94 Q2226.78 1529.94 2224.9 1530.35 Q2223.05 1530.77 2221.11 1531.65 L2221.11 1514.29 Z" fill="#000000" fill-rule="nonzero" fill-opacity="1" /><path clip-path="url(#clip560)" d="M2261.22 1517.37 Q2257.61 1517.37 2255.78 1520.93 Q2253.98 1524.47 2253.98 1531.6 Q2253.98 1538.71 2255.78 1542.27 Q2257.61 1545.82 2261.22 1545.82 Q2264.86 1545.82 2266.66 1542.27 Q2268.49 1538.71 2268.49 1531.6 Q2268.49 1524.47 2266.66 1520.93 Q2264.86 1517.37 2261.22 1517.37 M2261.22 1513.66 Q2267.03 1513.66 2270.09 1518.27 Q2273.17 1522.85 2273.17 1531.6 Q2273.17 1540.33 2270.09 1544.94 Q2267.03 1549.52 2261.22 1549.52 Q2255.41 1549.52 2252.33 1544.94 Q2249.28 1540.33 2249.28 1531.6 Q2249.28 1522.85 2252.33 1518.27 Q2255.41 1513.66 2261.22 1513.66 Z" fill="#000000" fill-rule="nonzero" fill-opacity="1" /><polyline clip-path="url(#clip562)" style="stroke:#000000; stroke-linecap:round; stroke-linejoin:round; stroke-width:2; stroke-opacity:0.1; fill:none" points="141.853,1486.45 2352.76,1486.45 "/>
<polyline clip-path="url(#clip562)" style="stroke:#000000; stroke-linecap:round; stroke-linejoin:round; stroke-width:2; stroke-opacity:0.1; fill:none" points="141.853,1122.09 2352.76,1122.09 "/>
<polyline clip-path="url(#clip562)" style="stroke:#000000; stroke-linecap:round; stroke-linejoin:round; stroke-width:2; stroke-opacity:0.1; fill:none" points="141.853,757.737 2352.76,757.737 "/>
<polyline clip-path="url(#clip562)" style="stroke:#000000; stroke-linecap:round; stroke-linejoin:round; stroke-width:2; stroke-opacity:0.1; fill:none" points="141.853,393.382 2352.76,393.382 "/>
<polyline clip-path="url(#clip560)" style="stroke:#000000; stroke-linecap:round; stroke-linejoin:round; stroke-width:4; stroke-opacity:1; fill:none" points="141.853,1486.45 141.853,47.2441 "/>
<polyline clip-path="url(#clip560)" style="stroke:#000000; stroke-linecap:round; stroke-linejoin:round; stroke-width:4; stroke-opacity:1; fill:none" points="141.853,1486.45 160.751,1486.45 "/>
<polyline clip-path="url(#clip560)" style="stroke:#000000; stroke-linecap:round; stroke-linejoin:round; stroke-width:4; stroke-opacity:1; fill:none" points="141.853,1122.09 160.751,1122.09 "/>
<polyline clip-path="url(#clip560)" style="stroke:#000000; stroke-linecap:round; stroke-linejoin:round; stroke-width:4; stroke-opacity:1; fill:none" points="141.853,757.737 160.751,757.737 "/>
<polyline clip-path="url(#clip560)" style="stroke:#000000; stroke-linecap:round; stroke-linejoin:round; stroke-width:4; stroke-opacity:1; fill:none" points="141.853,393.382 160.751,393.382 "/>
<path clip-path="url(#clip560)" d="M93.9086 1472.25 Q90.2975 1472.25 88.4688 1475.81 Q86.6632 1479.35 86.6632 1486.48 Q86.6632 1493.59 88.4688 1497.15 Q90.2975 1500.7 93.9086 1500.7 Q97.5428 1500.7 99.3483 1497.15 Q101.177 1493.59 101.177 1486.48 Q101.177 1479.35 99.3483 1475.81 Q97.5428 1472.25 93.9086 1472.25 M93.9086 1468.54 Q99.7187 1468.54 102.774 1473.15 Q105.853 1477.73 105.853 1486.48 Q105.853 1495.21 102.774 1499.82 Q99.7187 1504.4 93.9086 1504.4 Q88.0984 1504.4 85.0197 1499.82 Q81.9642 1495.21 81.9642 1486.48 Q81.9642 1477.73 85.0197 1473.15 Q88.0984 1468.54 93.9086 1468.54 Z" fill="#000000" fill-rule="nonzero" fill-opacity="1" /><path clip-path="url(#clip560)" d="M57.7745 1135.44 L74.0939 1135.44 L74.0939 1139.37 L52.1495 1139.37 L52.1495 1135.44 Q54.8115 1132.68 59.3949 1128.05 Q64.0013 1123.4 65.1819 1122.06 Q67.4272 1119.53 68.3068 1117.8 Q69.2096 1116.04 69.2096 1114.35 Q69.2096 1111.59 67.2652 1109.86 Q65.3439 1108.12 62.2421 1108.12 Q60.043 1108.12 57.5893 1108.89 Q55.1588 1109.65 52.381 1111.2 L52.381 1106.48 Q55.2051 1105.34 57.6588 1104.77 Q60.1124 1104.19 62.1495 1104.19 Q67.5198 1104.19 70.7142 1106.87 Q73.9087 1109.56 73.9087 1114.05 Q73.9087 1116.18 73.0985 1118.1 Q72.3115 1120 70.205 1122.59 Q69.6263 1123.26 66.5245 1126.48 Q63.4226 1129.67 57.7745 1135.44 Z" fill="#000000" fill-rule="nonzero" fill-opacity="1" /><path clip-path="url(#clip560)" d="M93.9086 1107.89 Q90.2975 1107.89 88.4688 1111.46 Q86.6632 1115 86.6632 1122.13 Q86.6632 1129.23 88.4688 1132.8 Q90.2975 1136.34 93.9086 1136.34 Q97.5428 1136.34 99.3483 1132.8 Q101.177 1129.23 101.177 1122.13 Q101.177 1115 99.3483 1111.46 Q97.5428 1107.89 93.9086 1107.89 M93.9086 1104.19 Q99.7187 1104.19 102.774 1108.79 Q105.853 1113.38 105.853 1122.13 Q105.853 1130.85 102.774 1135.46 Q99.7187 1140.04 93.9086 1140.04 Q88.0984 1140.04 85.0197 1135.46 Q81.9642 1130.85 81.9642 1122.13 Q81.9642 1113.38 85.0197 1108.79 Q88.0984 1104.19 93.9086 1104.19 Z" fill="#000000" fill-rule="nonzero" fill-opacity="1" /><path clip-path="url(#clip560)" d="M66.5939 744.531 L54.7884 762.98 L66.5939 762.98 L66.5939 744.531 M65.367 740.457 L71.2466 740.457 L71.2466 762.98 L76.1772 762.98 L76.1772 766.869 L71.2466 766.869 L71.2466 775.017 L66.5939 775.017 L66.5939 766.869 L50.9921 766.869 L50.9921 762.355 L65.367 740.457 Z" fill="#000000" fill-rule="nonzero" fill-opacity="1" /><path clip-path="url(#clip560)" d="M93.9086 743.536 Q90.2975 743.536 88.4688 747.101 Q86.6632 750.642 86.6632 757.772 Q86.6632 764.878 88.4688 768.443 Q90.2975 771.985 93.9086 771.985 Q97.5428 771.985 99.3483 768.443 Q101.177 764.878 101.177 757.772 Q101.177 750.642 99.3483 747.101 Q97.5428 743.536 93.9086 743.536 M93.9086 739.832 Q99.7187 739.832 102.774 744.439 Q105.853 749.022 105.853 757.772 Q105.853 766.499 102.774 771.105 Q99.7187 775.688 93.9086 775.688 Q88.0984 775.688 85.0197 771.105 Q81.9642 766.499 81.9642 757.772 Q81.9642 749.022 85.0197 744.439 Q88.0984 739.832 93.9086 739.832 Z" fill="#000000" fill-rule="nonzero" fill-opacity="1" /><path clip-path="url(#clip560)" d="M64.3254 391.518 Q61.1773 391.518 59.3254 393.671 Q57.4967 395.824 57.4967 399.574 Q57.4967 403.301 59.3254 405.477 Q61.1773 407.629 64.3254 407.629 Q67.4735 407.629 69.3022 405.477 Q71.1541 403.301 71.1541 399.574 Q71.1541 395.824 69.3022 393.671 Q67.4735 391.518 64.3254 391.518 M73.6077 376.866 L73.6077 381.125 Q71.8485 380.292 70.0429 379.852 Q68.2606 379.412 66.5013 379.412 Q61.8717 379.412 59.418 382.537 Q56.9875 385.662 56.6402 391.981 Q58.006 389.967 60.0662 388.903 Q62.1263 387.815 64.6032 387.815 Q69.8115 387.815 72.8207 390.986 Q75.8531 394.134 75.8531 399.574 Q75.8531 404.898 72.705 408.115 Q69.5568 411.333 64.3254 411.333 Q58.33 411.333 55.1588 406.75 Q51.9875 402.143 51.9875 393.416 Q51.9875 385.222 55.8764 380.361 Q59.7652 375.477 66.3161 375.477 Q68.0754 375.477 69.8578 375.824 Q71.6633 376.171 73.6077 376.866 Z" fill="#000000" fill-rule="nonzero" fill-opacity="1" /><path clip-path="url(#clip560)" d="M93.9086 379.18 Q90.2975 379.18 88.4688 382.745 Q86.6632 386.287 86.6632 393.416 Q86.6632 400.523 88.4688 404.088 Q90.2975 407.629 93.9086 407.629 Q97.5428 407.629 99.3483 404.088 Q101.177 400.523 101.177 393.416 Q101.177 386.287 99.3483 382.745 Q97.5428 379.18 93.9086 379.18 M93.9086 375.477 Q99.7187 375.477 102.774 380.083 Q105.853 384.666 105.853 393.416 Q105.853 402.143 102.774 406.75 Q99.7187 411.333 93.9086 411.333 Q88.0984 411.333 85.0197 406.75 Q81.9642 402.143 81.9642 393.416 Q81.9642 384.666 85.0197 380.083 Q88.0984 375.477 93.9086 375.477 Z" fill="#000000" fill-rule="nonzero" fill-opacity="1" /><path clip-path="url(#clip562)" d="M263.457 1468.23 L263.457 1486.45 L414.818 1486.45 L414.818 1468.23 L263.457 1468.23 L263.457 1468.23  Z" fill="#009af9" fill-rule="evenodd" fill-opacity="1"/>
<polyline clip-path="url(#clip562)" style="stroke:#000000; stroke-linecap:round; stroke-linejoin:round; stroke-width:4; stroke-opacity:1; fill:none" points="263.457,1468.23 263.457,1486.45 414.818,1486.45 414.818,1468.23 263.457,1468.23 "/>
<path clip-path="url(#clip562)" d="M414.818 1468.23 L414.818 1486.45 L566.179 1486.45 L566.179 1468.23 L414.818 1468.23 L414.818 1468.23  Z" fill="#009af9" fill-rule="evenodd" fill-opacity="1"/>
<polyline clip-path="url(#clip562)" style="stroke:#000000; stroke-linecap:round; stroke-linejoin:round; stroke-width:4; stroke-opacity:1; fill:none" points="414.818,1468.23 414.818,1486.45 566.179,1486.45 566.179,1468.23 414.818,1468.23 "/>
<path clip-path="url(#clip562)" d="M566.179 1377.14 L566.179 1486.45 L717.54 1486.45 L717.54 1377.14 L566.179 1377.14 L566.179 1377.14  Z" fill="#009af9" fill-rule="evenodd" fill-opacity="1"/>
<polyline clip-path="url(#clip562)" style="stroke:#000000; stroke-linecap:round; stroke-linejoin:round; stroke-width:4; stroke-opacity:1; fill:none" points="566.179,1377.14 566.179,1486.45 717.54,1486.45 717.54,1377.14 566.179,1377.14 "/>
<path clip-path="url(#clip562)" d="M717.54 1431.79 L717.54 1486.45 L868.901 1486.45 L868.901 1431.79 L717.54 1431.79 L717.54 1431.79  Z" fill="#009af9" fill-rule="evenodd" fill-opacity="1"/>
<polyline clip-path="url(#clip562)" style="stroke:#000000; stroke-linecap:round; stroke-linejoin:round; stroke-width:4; stroke-opacity:1; fill:none" points="717.54,1431.79 717.54,1486.45 868.901,1486.45 868.901,1431.79 717.54,1431.79 "/>
<path clip-path="url(#clip562)" d="M868.901 1395.36 L868.901 1486.45 L1020.26 1486.45 L1020.26 1395.36 L868.901 1395.36 L868.901 1395.36  Z" fill="#009af9" fill-rule="evenodd" fill-opacity="1"/>
<polyline clip-path="url(#clip562)" style="stroke:#000000; stroke-linecap:round; stroke-linejoin:round; stroke-width:4; stroke-opacity:1; fill:none" points="868.901,1395.36 868.901,1486.45 1020.26,1486.45 1020.26,1395.36 868.901,1395.36 "/>
<path clip-path="url(#clip562)" d="M1020.26 1304.27 L1020.26 1486.45 L1171.62 1486.45 L1171.62 1304.27 L1020.26 1304.27 L1020.26 1304.27  Z" fill="#009af9" fill-rule="evenodd" fill-opacity="1"/>
<polyline clip-path="url(#clip562)" style="stroke:#000000; stroke-linecap:round; stroke-linejoin:round; stroke-width:4; stroke-opacity:1; fill:none" points="1020.26,1304.27 1020.26,1486.45 1171.62,1486.45 1171.62,1304.27 1020.26,1304.27 "/>
<path clip-path="url(#clip562)" d="M1171.62 1450.01 L1171.62 1486.45 L1322.99 1486.45 L1322.99 1450.01 L1171.62 1450.01 L1171.62 1450.01  Z" fill="#009af9" fill-rule="evenodd" fill-opacity="1"/>
<polyline clip-path="url(#clip562)" style="stroke:#000000; stroke-linecap:round; stroke-linejoin:round; stroke-width:4; stroke-opacity:1; fill:none" points="1171.62,1450.01 1171.62,1486.45 1322.99,1486.45 1322.99,1450.01 1171.62,1450.01 "/>
<path clip-path="url(#clip562)" d="M1322.99 1395.36 L1322.99 1486.45 L1474.35 1486.45 L1474.35 1395.36 L1322.99 1395.36 L1322.99 1395.36  Z" fill="#009af9" fill-rule="evenodd" fill-opacity="1"/>
<polyline clip-path="url(#clip562)" style="stroke:#000000; stroke-linecap:round; stroke-linejoin:round; stroke-width:4; stroke-opacity:1; fill:none" points="1322.99,1395.36 1322.99,1486.45 1474.35,1486.45 1474.35,1395.36 1322.99,1395.36 "/>
<path clip-path="url(#clip562)" d="M1474.35 1395.36 L1474.35 1486.45 L1625.71 1486.45 L1625.71 1395.36 L1474.35 1395.36 L1474.35 1395.36  Z" fill="#009af9" fill-rule="evenodd" fill-opacity="1"/>
<polyline clip-path="url(#clip562)" style="stroke:#000000; stroke-linecap:round; stroke-linejoin:round; stroke-width:4; stroke-opacity:1; fill:none" points="1474.35,1395.36 1474.35,1486.45 1625.71,1486.45 1625.71,1395.36 1474.35,1395.36 "/>
<path clip-path="url(#clip562)" d="M1625.71 1322.49 L1625.71 1486.45 L1777.07 1486.45 L1777.07 1322.49 L1625.71 1322.49 L1625.71 1322.49  Z" fill="#009af9" fill-rule="evenodd" fill-opacity="1"/>
<polyline clip-path="url(#clip562)" style="stroke:#000000; stroke-linecap:round; stroke-linejoin:round; stroke-width:4; stroke-opacity:1; fill:none" points="1625.71,1322.49 1625.71,1486.45 1777.07,1486.45 1777.07,1322.49 1625.71,1322.49 "/>
<path clip-path="url(#clip562)" d="M1777.07 1377.14 L1777.07 1486.45 L1928.43 1486.45 L1928.43 1377.14 L1777.07 1377.14 L1777.07 1377.14  Z" fill="#009af9" fill-rule="evenodd" fill-opacity="1"/>
<polyline clip-path="url(#clip562)" style="stroke:#000000; stroke-linecap:round; stroke-linejoin:round; stroke-width:4; stroke-opacity:1; fill:none" points="1777.07,1377.14 1777.07,1486.45 1928.43,1486.45 1928.43,1377.14 1777.07,1377.14 "/>
<path clip-path="url(#clip562)" d="M1928.43 1413.58 L1928.43 1486.45 L2079.79 1486.45 L2079.79 1413.58 L1928.43 1413.58 L1928.43 1413.58  Z" fill="#009af9" fill-rule="evenodd" fill-opacity="1"/>
<polyline clip-path="url(#clip562)" style="stroke:#000000; stroke-linecap:round; stroke-linejoin:round; stroke-width:4; stroke-opacity:1; fill:none" points="1928.43,1413.58 1928.43,1486.45 2079.79,1486.45 2079.79,1413.58 1928.43,1413.58 "/>
<path clip-path="url(#clip562)" d="M2079.79 703.084 L2079.79 1486.45 L2231.15 1486.45 L2231.15 703.084 L2079.79 703.084 L2079.79 703.084  Z" fill="#009af9" fill-rule="evenodd" fill-opacity="1"/>
<polyline clip-path="url(#clip562)" style="stroke:#000000; stroke-linecap:round; stroke-linejoin:round; stroke-width:4; stroke-opacity:1; fill:none" points="2079.79,703.084 2079.79,1486.45 2231.15,1486.45 2231.15,703.084 2079.79,703.084 "/>
<circle clip-path="url(#clip562)" style="fill:#009af9; stroke:none; fill-opacity:0" cx="339.137" cy="1468.23" r="2"/>
<circle clip-path="url(#clip562)" style="fill:#009af9; stroke:none; fill-opacity:0" cx="490.498" cy="1468.23" r="2"/>
<circle clip-path="url(#clip562)" style="fill:#009af9; stroke:none; fill-opacity:0" cx="641.86" cy="1377.14" r="2"/>
<circle clip-path="url(#clip562)" style="fill:#009af9; stroke:none; fill-opacity:0" cx="793.221" cy="1431.79" r="2"/>
<circle clip-path="url(#clip562)" style="fill:#009af9; stroke:none; fill-opacity:0" cx="944.582" cy="1395.36" r="2"/>
<circle clip-path="url(#clip562)" style="fill:#009af9; stroke:none; fill-opacity:0" cx="1095.94" cy="1304.27" r="2"/>
<circle clip-path="url(#clip562)" style="fill:#009af9; stroke:none; fill-opacity:0" cx="1247.3" cy="1450.01" r="2"/>
<circle clip-path="url(#clip562)" style="fill:#009af9; stroke:none; fill-opacity:0" cx="1398.67" cy="1395.36" r="2"/>
<circle clip-path="url(#clip562)" style="fill:#009af9; stroke:none; fill-opacity:0" cx="1550.03" cy="1395.36" r="2"/>
<circle clip-path="url(#clip562)" style="fill:#009af9; stroke:none; fill-opacity:0" cx="1701.39" cy="1322.49" r="2"/>
<circle clip-path="url(#clip562)" style="fill:#009af9; stroke:none; fill-opacity:0" cx="1852.75" cy="1377.14" r="2"/>
<circle clip-path="url(#clip562)" style="fill:#009af9; stroke:none; fill-opacity:0" cx="2004.11" cy="1413.58" r="2"/>
<circle clip-path="url(#clip562)" style="fill:#009af9; stroke:none; fill-opacity:0" cx="2155.47" cy="703.084" r="2"/>
<path clip-path="url(#clip562)" d="M263.457 1486.45 L263.457 1486.45 L414.818 1486.45 L414.818 1486.45 L263.457 1486.45 L263.457 1486.45  Z" fill="#e26f46" fill-rule="evenodd" fill-opacity="0.5"/>
<polyline clip-path="url(#clip562)" style="stroke:#000000; stroke-linecap:round; stroke-linejoin:round; stroke-width:4; stroke-opacity:0.5; fill:none" points="263.457,1486.45 263.457,1486.45 414.818,1486.45 263.457,1486.45 "/>
<path clip-path="url(#clip562)" d="M414.818 1486.45 L414.818 1486.45 L566.179 1486.45 L566.179 1486.45 L414.818 1486.45 L414.818 1486.45  Z" fill="#e26f46" fill-rule="evenodd" fill-opacity="0.5"/>
<polyline clip-path="url(#clip562)" style="stroke:#000000; stroke-linecap:round; stroke-linejoin:round; stroke-width:4; stroke-opacity:0.5; fill:none" points="414.818,1486.45 414.818,1486.45 566.179,1486.45 414.818,1486.45 "/>
<path clip-path="url(#clip562)" d="M566.179 1486.45 L566.179 1486.45 L717.54 1486.45 L717.54 1486.45 L566.179 1486.45 L566.179 1486.45  Z" fill="#e26f46" fill-rule="evenodd" fill-opacity="0.5"/>
<polyline clip-path="url(#clip562)" style="stroke:#000000; stroke-linecap:round; stroke-linejoin:round; stroke-width:4; stroke-opacity:0.5; fill:none" points="566.179,1486.45 566.179,1486.45 717.54,1486.45 566.179,1486.45 "/>
<path clip-path="url(#clip562)" d="M717.54 1468.23 L717.54 1486.45 L868.901 1486.45 L868.901 1468.23 L717.54 1468.23 L717.54 1468.23  Z" fill="#e26f46" fill-rule="evenodd" fill-opacity="0.5"/>
<polyline clip-path="url(#clip562)" style="stroke:#000000; stroke-linecap:round; stroke-linejoin:round; stroke-width:4; stroke-opacity:0.5; fill:none" points="717.54,1468.23 717.54,1486.45 868.901,1486.45 868.901,1468.23 717.54,1468.23 "/>
<path clip-path="url(#clip562)" d="M868.901 1413.58 L868.901 1486.45 L1020.26 1486.45 L1020.26 1413.58 L868.901 1413.58 L868.901 1413.58  Z" fill="#e26f46" fill-rule="evenodd" fill-opacity="0.5"/>
<polyline clip-path="url(#clip562)" style="stroke:#000000; stroke-linecap:round; stroke-linejoin:round; stroke-width:4; stroke-opacity:0.5; fill:none" points="868.901,1413.58 868.901,1486.45 1020.26,1486.45 1020.26,1413.58 868.901,1413.58 "/>
<path clip-path="url(#clip562)" d="M1020.26 1395.36 L1020.26 1486.45 L1171.62 1486.45 L1171.62 1395.36 L1020.26 1395.36 L1020.26 1395.36  Z" fill="#e26f46" fill-rule="evenodd" fill-opacity="0.5"/>
<polyline clip-path="url(#clip562)" style="stroke:#000000; stroke-linecap:round; stroke-linejoin:round; stroke-width:4; stroke-opacity:0.5; fill:none" points="1020.26,1395.36 1020.26,1486.45 1171.62,1486.45 1171.62,1395.36 1020.26,1395.36 "/>
<path clip-path="url(#clip562)" d="M1171.62 1413.58 L1171.62 1486.45 L1322.99 1486.45 L1322.99 1413.58 L1171.62 1413.58 L1171.62 1413.58  Z" fill="#e26f46" fill-rule="evenodd" fill-opacity="0.5"/>
<polyline clip-path="url(#clip562)" style="stroke:#000000; stroke-linecap:round; stroke-linejoin:round; stroke-width:4; stroke-opacity:0.5; fill:none" points="1171.62,1413.58 1171.62,1486.45 1322.99,1486.45 1322.99,1413.58 1171.62,1413.58 "/>
<path clip-path="url(#clip562)" d="M1322.99 1358.92 L1322.99 1486.45 L1474.35 1486.45 L1474.35 1358.92 L1322.99 1358.92 L1322.99 1358.92  Z" fill="#e26f46" fill-rule="evenodd" fill-opacity="0.5"/>
<polyline clip-path="url(#clip562)" style="stroke:#000000; stroke-linecap:round; stroke-linejoin:round; stroke-width:4; stroke-opacity:0.5; fill:none" points="1322.99,1358.92 1322.99,1486.45 1474.35,1486.45 1474.35,1358.92 1322.99,1358.92 "/>
<path clip-path="url(#clip562)" d="M1474.35 47.2441 L1474.35 1486.45 L1625.71 1486.45 L1625.71 47.2441 L1474.35 47.2441 L1474.35 47.2441  Z" fill="#e26f46" fill-rule="evenodd" fill-opacity="0.5"/>
<polyline clip-path="url(#clip562)" style="stroke:#000000; stroke-linecap:round; stroke-linejoin:round; stroke-width:4; stroke-opacity:0.5; fill:none" points="1474.35,47.2441 1474.35,1486.45 1625.71,1486.45 1625.71,47.2441 1474.35,47.2441 "/>
<path clip-path="url(#clip562)" d="M1625.71 1486.45 L1625.71 1486.45 L1777.07 1486.45 L1777.07 1486.45 L1625.71 1486.45 L1625.71 1486.45  Z" fill="#e26f46" fill-rule="evenodd" fill-opacity="0.5"/>
<polyline clip-path="url(#clip562)" style="stroke:#000000; stroke-linecap:round; stroke-linejoin:round; stroke-width:4; stroke-opacity:0.5; fill:none" points="1625.71,1486.45 1625.71,1486.45 1777.07,1486.45 1625.71,1486.45 "/>
<path clip-path="url(#clip562)" d="M1777.07 1486.45 L1777.07 1486.45 L1928.43 1486.45 L1928.43 1486.45 L1777.07 1486.45 L1777.07 1486.45  Z" fill="#e26f46" fill-rule="evenodd" fill-opacity="0.5"/>
<polyline clip-path="url(#clip562)" style="stroke:#000000; stroke-linecap:round; stroke-linejoin:round; stroke-width:4; stroke-opacity:0.5; fill:none" points="1777.07,1486.45 1777.07,1486.45 1928.43,1486.45 1777.07,1486.45 "/>
<path clip-path="url(#clip562)" d="M1928.43 1486.45 L1928.43 1486.45 L2079.79 1486.45 L2079.79 1486.45 L1928.43 1486.45 L1928.43 1486.45  Z" fill="#e26f46" fill-rule="evenodd" fill-opacity="0.5"/>
<polyline clip-path="url(#clip562)" style="stroke:#000000; stroke-linecap:round; stroke-linejoin:round; stroke-width:4; stroke-opacity:0.5; fill:none" points="1928.43,1486.45 1928.43,1486.45 2079.79,1486.45 1928.43,1486.45 "/>
<path clip-path="url(#clip562)" d="M2079.79 1486.45 L2079.79 1486.45 L2231.15 1486.45 L2231.15 1486.45 L2079.79 1486.45 L2079.79 1486.45  Z" fill="#e26f46" fill-rule="evenodd" fill-opacity="0.5"/>
<polyline clip-path="url(#clip562)" style="stroke:#000000; stroke-linecap:round; stroke-linejoin:round; stroke-width:4; stroke-opacity:0.5; fill:none" points="2079.79,1486.45 2079.79,1486.45 2231.15,1486.45 2079.79,1486.45 "/>
<circle clip-path="url(#clip562)" style="fill:#e26f46; stroke:none; fill-opacity:0" cx="339.137" cy="1486.45" r="2"/>
<circle clip-path="url(#clip562)" style="fill:#e26f46; stroke:none; fill-opacity:0" cx="490.498" cy="1486.45" r="2"/>
<circle clip-path="url(#clip562)" style="fill:#e26f46; stroke:none; fill-opacity:0" cx="641.86" cy="1486.45" r="2"/>
<circle clip-path="url(#clip562)" style="fill:#e26f46; stroke:none; fill-opacity:0" cx="793.221" cy="1468.23" r="2"/>
<circle clip-path="url(#clip562)" style="fill:#e26f46; stroke:none; fill-opacity:0" cx="944.582" cy="1413.58" r="2"/>
<circle clip-path="url(#clip562)" style="fill:#e26f46; stroke:none; fill-opacity:0" cx="1095.94" cy="1395.36" r="2"/>
<circle clip-path="url(#clip562)" style="fill:#e26f46; stroke:none; fill-opacity:0" cx="1247.3" cy="1413.58" r="2"/>
<circle clip-path="url(#clip562)" style="fill:#e26f46; stroke:none; fill-opacity:0" cx="1398.67" cy="1358.92" r="2"/>
<circle clip-path="url(#clip562)" style="fill:#e26f46; stroke:none; fill-opacity:0" cx="1550.03" cy="47.2441" r="2"/>
<circle clip-path="url(#clip562)" style="fill:#e26f46; stroke:none; fill-opacity:0" cx="1701.39" cy="1486.45" r="2"/>
<circle clip-path="url(#clip562)" style="fill:#e26f46; stroke:none; fill-opacity:0" cx="1852.75" cy="1486.45" r="2"/>
<circle clip-path="url(#clip562)" style="fill:#e26f46; stroke:none; fill-opacity:0" cx="2004.11" cy="1486.45" r="2"/>
<circle clip-path="url(#clip562)" style="fill:#e26f46; stroke:none; fill-opacity:0" cx="2155.47" cy="1486.45" r="2"/>
<path clip-path="url(#clip560)" d="M1784.87 250.738 L2279.06 250.738 L2279.06 95.2176 L1784.87 95.2176  Z" fill="#ffffff" fill-rule="evenodd" fill-opacity="1"/>
<polyline clip-path="url(#clip560)" style="stroke:#000000; stroke-linecap:round; stroke-linejoin:round; stroke-width:4; stroke-opacity:1; fill:none" points="1784.87,250.738 2279.06,250.738 2279.06,95.2176 1784.87,95.2176 1784.87,250.738 "/>
<path clip-path="url(#clip560)" d="M1809.43 167.794 L1956.83 167.794 L1956.83 126.322 L1809.43 126.322 L1809.43 167.794  Z" fill="#009af9" fill-rule="evenodd" fill-opacity="1"/>
<polyline clip-path="url(#clip560)" style="stroke:#000000; stroke-linecap:round; stroke-linejoin:round; stroke-width:4; stroke-opacity:1; fill:none" points="1809.43,167.794 1956.83,167.794 1956.83,126.322 1809.43,126.322 1809.43,167.794 "/>
<path clip-path="url(#clip560)" d="M1981.39 129.778 L2003.24 129.778 L2003.24 133.713 L1986.07 133.713 L1986.07 143.944 L2002.53 143.944 L2002.53 147.879 L1986.07 147.879 L1986.07 160.402 L2003.66 160.402 L2003.66 164.338 L1981.39 164.338 L1981.39 129.778 Z" fill="#000000" fill-rule="nonzero" fill-opacity="1" /><path clip-path="url(#clip560)" d="M2032.71 138.412 L2023.34 151.027 L2033.2 164.338 L2028.18 164.338 L2020.63 154.152 L2013.08 164.338 L2008.06 164.338 L2018.13 150.773 L2008.92 138.412 L2013.94 138.412 L2020.81 147.648 L2027.69 138.412 L2032.71 138.412 Z" fill="#000000" fill-rule="nonzero" fill-opacity="1" /><path clip-path="url(#clip560)" d="M2043.34 160.449 L2043.34 174.199 L2039.05 174.199 L2039.05 138.412 L2043.34 138.412 L2043.34 142.347 Q2044.68 140.032 2046.72 138.921 Q2048.78 137.787 2051.62 137.787 Q2056.35 137.787 2059.29 141.537 Q2062.25 145.287 2062.25 151.398 Q2062.25 157.509 2059.29 161.259 Q2056.35 165.009 2051.62 165.009 Q2048.78 165.009 2046.72 163.898 Q2044.68 162.763 2043.34 160.449 M2057.83 151.398 Q2057.83 146.699 2055.88 144.037 Q2053.96 141.352 2050.58 141.352 Q2047.2 141.352 2045.26 144.037 Q2043.34 146.699 2043.34 151.398 Q2043.34 156.097 2045.26 158.782 Q2047.2 161.444 2050.58 161.444 Q2053.96 161.444 2055.88 158.782 Q2057.83 156.097 2057.83 151.398 Z" fill="#000000" fill-rule="nonzero" fill-opacity="1" /><path clip-path="url(#clip560)" d="M2091.49 150.31 L2091.49 152.393 L2071.9 152.393 Q2072.18 156.791 2074.54 159.106 Q2076.93 161.398 2081.16 161.398 Q2083.61 161.398 2085.91 160.796 Q2088.22 160.194 2090.49 158.99 L2090.49 163.018 Q2088.2 163.99 2085.79 164.5 Q2083.38 165.009 2080.91 165.009 Q2074.7 165.009 2071.07 161.398 Q2067.46 157.787 2067.46 151.629 Q2067.46 145.264 2070.88 141.537 Q2074.33 137.787 2080.17 137.787 Q2085.4 137.787 2088.43 141.166 Q2091.49 144.523 2091.49 150.31 M2087.23 149.06 Q2087.18 145.565 2085.26 143.481 Q2083.36 141.398 2080.21 141.398 Q2076.65 141.398 2074.49 143.412 Q2072.36 145.426 2072.04 149.083 L2087.23 149.06 Z" fill="#000000" fill-rule="nonzero" fill-opacity="1" /><path clip-path="url(#clip560)" d="M2117.13 139.407 L2117.13 143.389 Q2115.33 142.393 2113.5 141.907 Q2111.69 141.398 2109.84 141.398 Q2105.7 141.398 2103.41 144.037 Q2101.11 146.652 2101.11 151.398 Q2101.11 156.143 2103.41 158.782 Q2105.7 161.398 2109.84 161.398 Q2111.69 161.398 2113.5 160.912 Q2115.33 160.402 2117.13 159.407 L2117.13 163.342 Q2115.35 164.176 2113.43 164.592 Q2111.53 165.009 2109.38 165.009 Q2103.52 165.009 2100.07 161.328 Q2096.62 157.648 2096.62 151.398 Q2096.62 145.055 2100.1 141.421 Q2103.59 137.787 2109.66 137.787 Q2111.62 137.787 2113.5 138.203 Q2115.37 138.597 2117.13 139.407 Z" fill="#000000" fill-rule="nonzero" fill-opacity="1" /><path clip-path="url(#clip560)" d="M2128.75 131.051 L2128.75 138.412 L2137.53 138.412 L2137.53 141.722 L2128.75 141.722 L2128.75 155.796 Q2128.75 158.967 2129.61 159.87 Q2130.49 160.773 2133.15 160.773 L2137.53 160.773 L2137.53 164.338 L2133.15 164.338 Q2128.22 164.338 2126.35 162.509 Q2124.47 160.657 2124.47 155.796 L2124.47 141.722 L2121.35 141.722 L2121.35 138.412 L2124.47 138.412 L2124.47 131.051 L2128.75 131.051 Z" fill="#000000" fill-rule="nonzero" fill-opacity="1" /><path clip-path="url(#clip560)" d="M2154.91 151.305 Q2149.75 151.305 2147.76 152.486 Q2145.77 153.666 2145.77 156.514 Q2145.77 158.782 2147.25 160.125 Q2148.75 161.444 2151.32 161.444 Q2154.86 161.444 2156.99 158.944 Q2159.15 156.421 2159.15 152.254 L2159.15 151.305 L2154.91 151.305 M2163.41 149.546 L2163.41 164.338 L2159.15 164.338 L2159.15 160.402 Q2157.69 162.763 2155.51 163.898 Q2153.34 165.009 2150.19 165.009 Q2146.21 165.009 2143.85 162.787 Q2141.51 160.541 2141.51 156.791 Q2141.51 152.416 2144.42 150.194 Q2147.36 147.972 2153.17 147.972 L2159.15 147.972 L2159.15 147.555 Q2159.15 144.615 2157.2 143.018 Q2155.28 141.398 2151.79 141.398 Q2149.56 141.398 2147.46 141.93 Q2145.35 142.463 2143.41 143.527 L2143.41 139.592 Q2145.74 138.69 2147.94 138.25 Q2150.14 137.787 2152.23 137.787 Q2157.85 137.787 2160.63 140.703 Q2163.41 143.62 2163.41 149.546 Z" fill="#000000" fill-rule="nonzero" fill-opacity="1" /><path clip-path="url(#clip560)" d="M2176.39 131.051 L2176.39 138.412 L2185.17 138.412 L2185.17 141.722 L2176.39 141.722 L2176.39 155.796 Q2176.39 158.967 2177.25 159.87 Q2178.13 160.773 2180.79 160.773 L2185.17 160.773 L2185.17 164.338 L2180.79 164.338 Q2175.86 164.338 2173.98 162.509 Q2172.11 160.657 2172.11 155.796 L2172.11 141.722 L2168.98 141.722 L2168.98 138.412 L2172.11 138.412 L2172.11 131.051 L2176.39 131.051 Z" fill="#000000" fill-rule="nonzero" fill-opacity="1" /><path clip-path="url(#clip560)" d="M2190.77 138.412 L2195.03 138.412 L2195.03 164.338 L2190.77 164.338 L2190.77 138.412 M2190.77 128.319 L2195.03 128.319 L2195.03 133.713 L2190.77 133.713 L2190.77 128.319 Z" fill="#000000" fill-rule="nonzero" fill-opacity="1" /><path clip-path="url(#clip560)" d="M2213.98 141.398 Q2210.56 141.398 2208.57 144.083 Q2206.58 146.745 2206.58 151.398 Q2206.58 156.051 2208.54 158.736 Q2210.54 161.398 2213.98 161.398 Q2217.39 161.398 2219.38 158.713 Q2221.37 156.027 2221.37 151.398 Q2221.37 146.791 2219.38 144.106 Q2217.39 141.398 2213.98 141.398 M2213.98 137.787 Q2219.54 137.787 2222.71 141.398 Q2225.88 145.009 2225.88 151.398 Q2225.88 157.764 2222.71 161.398 Q2219.54 165.009 2213.98 165.009 Q2208.41 165.009 2205.23 161.398 Q2202.09 157.764 2202.09 151.398 Q2202.09 145.009 2205.23 141.398 Q2208.41 137.787 2213.98 137.787 Z" fill="#000000" fill-rule="nonzero" fill-opacity="1" /><path clip-path="url(#clip560)" d="M2254.49 148.689 L2254.49 164.338 L2250.23 164.338 L2250.23 148.828 Q2250.23 145.148 2248.8 143.319 Q2247.36 141.49 2244.49 141.49 Q2241.04 141.49 2239.05 143.69 Q2237.06 145.889 2237.06 149.685 L2237.06 164.338 L2232.78 164.338 L2232.78 138.412 L2237.06 138.412 L2237.06 142.44 Q2238.59 140.102 2240.65 138.944 Q2242.73 137.787 2245.44 137.787 Q2249.91 137.787 2252.2 140.565 Q2254.49 143.319 2254.49 148.689 Z" fill="#000000" fill-rule="nonzero" fill-opacity="1" /><path clip-path="url(#clip560)" d="M1809.43 219.634 L1956.83 219.634 L1956.83 178.162 L1809.43 178.162 L1809.43 219.634  Z" fill="#e26f46" fill-rule="evenodd" fill-opacity="0.5"/>
<polyline clip-path="url(#clip560)" style="stroke:#000000; stroke-linecap:round; stroke-linejoin:round; stroke-width:4; stroke-opacity:1; fill:none" points="1809.43,219.634 1956.83,219.634 1956.83,178.162 1809.43,178.162 1809.43,219.634 "/>
<path clip-path="url(#clip560)" d="M2009.26 184.28 L2009.26 189.21 Q2006.9 187.011 2004.22 185.923 Q2001.56 184.835 1998.55 184.835 Q1992.62 184.835 1989.47 188.469 Q1986.32 192.08 1986.32 198.932 Q1986.32 205.761 1989.47 209.395 Q1992.62 213.006 1998.55 213.006 Q2001.56 213.006 2004.22 211.918 Q2006.9 210.83 2009.26 208.631 L2009.26 213.516 Q2006.81 215.182 2004.06 216.016 Q2001.32 216.849 1998.27 216.849 Q1990.42 216.849 1985.91 212.057 Q1981.39 207.242 1981.39 198.932 Q1981.39 190.599 1985.91 185.807 Q1990.42 180.993 1998.27 180.993 Q2001.37 180.993 2004.1 181.826 Q2006.86 182.636 2009.26 184.28 Z" fill="#000000" fill-rule="nonzero" fill-opacity="1" /><path clip-path="url(#clip560)" d="M2025.4 216.178 L2012.2 181.618 L2017.09 181.618 L2028.04 210.715 L2039.01 181.618 L2043.87 181.618 L2030.7 216.178 L2025.4 216.178 Z" fill="#000000" fill-rule="nonzero" fill-opacity="1" /><path clip-path="url(#clip560)" d="M2061.9 203.747 Q2061.9 207.057 2063.55 208.955 Q2065.19 210.83 2068.06 210.83 Q2070.91 210.83 2072.53 208.932 Q2074.17 207.034 2074.17 203.747 Q2074.17 200.506 2072.5 198.608 Q2070.84 196.687 2068.01 196.687 Q2065.21 196.687 2063.55 198.585 Q2061.9 200.483 2061.9 203.747 M2074.52 210.668 Q2073.13 212.451 2071.32 213.307 Q2069.54 214.141 2067.16 214.141 Q2063.18 214.141 2060.68 211.27 Q2058.2 208.377 2058.2 203.747 Q2058.2 199.117 2060.7 196.224 Q2063.2 193.33 2067.16 193.33 Q2069.54 193.33 2071.35 194.21 Q2073.15 195.067 2074.52 196.826 L2074.52 193.793 L2077.83 193.793 L2077.83 210.83 Q2081.21 210.321 2083.11 207.752 Q2085.03 205.159 2085.03 201.062 Q2085.03 198.585 2084.29 196.409 Q2083.57 194.233 2082.09 192.381 Q2079.68 189.349 2076.21 187.752 Q2072.76 186.131 2068.68 186.131 Q2065.84 186.131 2063.22 186.895 Q2060.61 187.636 2058.38 189.118 Q2054.75 191.479 2052.69 195.321 Q2050.65 199.141 2050.65 203.608 Q2050.65 207.289 2051.97 210.506 Q2053.31 213.724 2055.84 216.178 Q2058.27 218.585 2061.46 219.835 Q2064.66 221.108 2068.29 221.108 Q2071.28 221.108 2074.15 220.09 Q2077.04 219.094 2079.45 217.219 L2081.53 219.789 Q2078.64 222.034 2075.21 223.215 Q2071.81 224.418 2068.29 224.418 Q2064.01 224.418 2060.21 222.89 Q2056.42 221.386 2053.45 218.492 Q2050.49 215.599 2048.94 211.803 Q2047.39 207.983 2047.39 203.608 Q2047.39 199.395 2048.96 195.576 Q2050.54 191.756 2053.45 188.863 Q2056.44 185.923 2060.35 184.372 Q2064.26 182.798 2068.64 182.798 Q2073.55 182.798 2077.74 184.812 Q2081.95 186.826 2084.8 190.53 Q2086.53 192.798 2087.43 195.46 Q2088.36 198.122 2088.36 200.969 Q2088.36 207.057 2084.68 210.576 Q2081 214.094 2074.52 214.233 L2074.52 210.668 Z" fill="#000000" fill-rule="nonzero" fill-opacity="1" /><path clip-path="url(#clip560)" d="M2112.71 199.974 Q2114.22 200.483 2115.63 202.15 Q2117.06 203.817 2118.5 206.733 L2123.24 216.178 L2118.22 216.178 L2113.8 207.312 Q2112.09 203.84 2110.47 202.705 Q2108.87 201.571 2106.09 201.571 L2101 201.571 L2101 216.178 L2096.32 216.178 L2096.32 181.618 L2106.88 181.618 Q2112.8 181.618 2115.72 184.094 Q2118.64 186.571 2118.64 191.571 Q2118.64 194.835 2117.11 196.988 Q2115.61 199.141 2112.71 199.974 M2101 185.46 L2101 197.729 L2106.88 197.729 Q2110.26 197.729 2111.97 196.178 Q2113.71 194.604 2113.71 191.571 Q2113.71 188.539 2111.97 187.011 Q2110.26 185.46 2106.88 185.46 L2101 185.46 Z" fill="#000000" fill-rule="nonzero" fill-opacity="1" /></svg>
