<?xml version="1.0" encoding="utf-8"?>
<svg xmlns="http://www.w3.org/2000/svg" xmlns:xlink="http://www.w3.org/1999/xlink" width="600" height="400" viewBox="0 0 2400 1600">
<defs>
  <clipPath id="clip580">
    <rect x="0" y="0" width="2400" height="1600"/>
  </clipPath>
</defs>
<path clip-path="url(#clip580)" d="M0 1600 L2400 1600 L2400 0 L0 0  Z" fill="#ffffff" fill-rule="evenodd" fill-opacity="1"/>
<defs>
  <clipPath id="clip581">
    <rect x="480" y="0" width="1681" height="1600"/>
  </clipPath>
</defs>
<path clip-path="url(#clip580)" d="M110.881 1423.18 L2352.76 1423.18 L2352.76 47.2441 L110.881 47.2441  Z" fill="#ffffff" fill-rule="evenodd" fill-opacity="1"/>
<defs>
  <clipPath id="clip582">
    <rect x="110" y="47" width="2243" height="1377"/>
  </clipPath>
</defs>
<polyline clip-path="url(#clip582)" style="stroke:#000000; stroke-linecap:round; stroke-linejoin:round; stroke-width:2; stroke-opacity:0.1; fill:none" points="444.215,1423.18 444.215,47.2441 "/>
<polyline clip-path="url(#clip582)" style="stroke:#000000; stroke-linecap:round; stroke-linejoin:round; stroke-width:2; stroke-opacity:0.1; fill:none" points="864.27,1423.18 864.27,47.2441 "/>
<polyline clip-path="url(#clip582)" style="stroke:#000000; stroke-linecap:round; stroke-linejoin:round; stroke-width:2; stroke-opacity:0.1; fill:none" points="1284.33,1423.18 1284.33,47.2441 "/>
<polyline clip-path="url(#clip582)" style="stroke:#000000; stroke-linecap:round; stroke-linejoin:round; stroke-width:2; stroke-opacity:0.1; fill:none" points="1704.38,1423.18 1704.38,47.2441 "/>
<polyline clip-path="url(#clip582)" style="stroke:#000000; stroke-linecap:round; stroke-linejoin:round; stroke-width:2; stroke-opacity:0.1; fill:none" points="2124.44,1423.18 2124.44,47.2441 "/>
<polyline clip-path="url(#clip582)" style="stroke:#000000; stroke-linecap:round; stroke-linejoin:round; stroke-width:2; stroke-opacity:0.1; fill:none" points="110.881,1423.18 2352.76,1423.18 "/>
<polyline clip-path="url(#clip582)" style="stroke:#000000; stroke-linecap:round; stroke-linejoin:round; stroke-width:2; stroke-opacity:0.1; fill:none" points="110.881,964.535 2352.76,964.535 "/>
<polyline clip-path="url(#clip582)" style="stroke:#000000; stroke-linecap:round; stroke-linejoin:round; stroke-width:2; stroke-opacity:0.1; fill:none" points="110.881,505.889 2352.76,505.889 "/>
<polyline clip-path="url(#clip582)" style="stroke:#000000; stroke-linecap:round; stroke-linejoin:round; stroke-width:2; stroke-opacity:0.1; fill:none" points="110.881,47.2441 2352.76,47.2441 "/>
<polyline clip-path="url(#clip580)" style="stroke:#000000; stroke-linecap:round; stroke-linejoin:round; stroke-width:4; stroke-opacity:1; fill:none" points="110.881,1423.18 2352.76,1423.18 "/>
<polyline clip-path="url(#clip580)" style="stroke:#000000; stroke-linecap:round; stroke-linejoin:round; stroke-width:4; stroke-opacity:1; fill:none" points="444.215,1423.18 444.215,1404.28 "/>
<polyline clip-path="url(#clip580)" style="stroke:#000000; stroke-linecap:round; stroke-linejoin:round; stroke-width:4; stroke-opacity:1; fill:none" points="864.27,1423.18 864.27,1404.28 "/>
<polyline clip-path="url(#clip580)" style="stroke:#000000; stroke-linecap:round; stroke-linejoin:round; stroke-width:4; stroke-opacity:1; fill:none" points="1284.33,1423.18 1284.33,1404.28 "/>
<polyline clip-path="url(#clip580)" style="stroke:#000000; stroke-linecap:round; stroke-linejoin:round; stroke-width:4; stroke-opacity:1; fill:none" points="1704.38,1423.18 1704.38,1404.28 "/>
<polyline clip-path="url(#clip580)" style="stroke:#000000; stroke-linecap:round; stroke-linejoin:round; stroke-width:4; stroke-opacity:1; fill:none" points="2124.44,1423.18 2124.44,1404.28 "/>
<path clip-path="url(#clip580)" d="M403.822 1481.64 L411.461 1481.64 L411.461 1455.28 L403.151 1456.95 L403.151 1452.69 L411.415 1451.02 L416.091 1451.02 L416.091 1481.64 L423.729 1481.64 L423.729 1485.58 L403.822 1485.58 L403.822 1481.64 Z" fill="#000000" fill-rule="nonzero" fill-opacity="1" /><path clip-path="url(#clip580)" d="M443.752 1466.44 Q440.604 1466.44 438.753 1468.59 Q436.924 1470.74 436.924 1474.49 Q436.924 1478.22 438.753 1480.39 Q440.604 1482.55 443.752 1482.55 Q446.901 1482.55 448.729 1480.39 Q450.581 1478.22 450.581 1474.49 Q450.581 1470.74 448.729 1468.59 Q446.901 1466.44 443.752 1466.44 M453.035 1451.78 L453.035 1456.04 Q451.276 1455.21 449.47 1454.77 Q447.688 1454.33 445.928 1454.33 Q441.299 1454.33 438.845 1457.45 Q436.415 1460.58 436.067 1466.9 Q437.433 1464.89 439.493 1463.82 Q441.553 1462.73 444.03 1462.73 Q449.239 1462.73 452.248 1465.9 Q455.28 1469.05 455.28 1474.49 Q455.28 1479.82 452.132 1483.03 Q448.984 1486.25 443.752 1486.25 Q437.757 1486.25 434.586 1481.67 Q431.415 1477.06 431.415 1468.33 Q431.415 1460.14 435.303 1455.28 Q439.192 1450.39 445.743 1450.39 Q447.502 1450.39 449.285 1450.74 Q451.09 1451.09 453.035 1451.78 Z" fill="#000000" fill-rule="nonzero" fill-opacity="1" /><path clip-path="url(#clip580)" d="M473.336 1454.1 Q469.725 1454.1 467.896 1457.66 Q466.09 1461.2 466.09 1468.33 Q466.09 1475.44 467.896 1479.01 Q469.725 1482.55 473.336 1482.55 Q476.97 1482.55 478.775 1479.01 Q480.604 1475.44 480.604 1468.33 Q480.604 1461.2 478.775 1457.66 Q476.97 1454.1 473.336 1454.1 M473.336 1450.39 Q479.146 1450.39 482.201 1455 Q485.28 1459.58 485.28 1468.33 Q485.28 1477.06 482.201 1481.67 Q479.146 1486.25 473.336 1486.25 Q467.526 1486.25 464.447 1481.67 Q461.391 1477.06 461.391 1468.33 Q461.391 1459.58 464.447 1455 Q467.526 1450.39 473.336 1450.39 Z" fill="#000000" fill-rule="nonzero" fill-opacity="1" /><path clip-path="url(#clip580)" d="M823.877 1481.64 L831.516 1481.64 L831.516 1455.28 L823.206 1456.95 L823.206 1452.69 L831.47 1451.02 L836.146 1451.02 L836.146 1481.64 L843.784 1481.64 L843.784 1485.58 L823.877 1485.58 L823.877 1481.64 Z" fill="#000000" fill-rule="nonzero" fill-opacity="1" /><path clip-path="url(#clip580)" d="M863.229 1469.17 Q859.895 1469.17 857.974 1470.95 Q856.076 1472.73 856.076 1475.86 Q856.076 1478.98 857.974 1480.77 Q859.895 1482.55 863.229 1482.55 Q866.562 1482.55 868.483 1480.77 Q870.405 1478.96 870.405 1475.86 Q870.405 1472.73 868.483 1470.95 Q866.585 1469.17 863.229 1469.17 M858.553 1467.18 Q855.544 1466.44 853.854 1464.38 Q852.187 1462.32 852.187 1459.35 Q852.187 1455.21 855.127 1452.8 Q858.09 1450.39 863.229 1450.39 Q868.391 1450.39 871.331 1452.8 Q874.27 1455.21 874.27 1459.35 Q874.27 1462.32 872.58 1464.38 Q870.914 1466.44 867.928 1467.18 Q871.307 1467.96 873.182 1470.26 Q875.08 1472.55 875.08 1475.86 Q875.08 1480.88 872.002 1483.57 Q868.946 1486.25 863.229 1486.25 Q857.511 1486.25 854.432 1483.57 Q851.377 1480.88 851.377 1475.86 Q851.377 1472.55 853.275 1470.26 Q855.173 1467.96 858.553 1467.18 M856.84 1459.79 Q856.84 1462.48 858.506 1463.98 Q860.196 1465.49 863.229 1465.49 Q866.238 1465.49 867.928 1463.98 Q869.641 1462.48 869.641 1459.79 Q869.641 1457.11 867.928 1455.6 Q866.238 1454.1 863.229 1454.1 Q860.196 1454.1 858.506 1455.6 Q856.84 1457.11 856.84 1459.79 Z" fill="#000000" fill-rule="nonzero" fill-opacity="1" /><path clip-path="url(#clip580)" d="M893.391 1454.1 Q889.779 1454.1 887.951 1457.66 Q886.145 1461.2 886.145 1468.33 Q886.145 1475.44 887.951 1479.01 Q889.779 1482.55 893.391 1482.55 Q897.025 1482.55 898.83 1479.01 Q900.659 1475.44 900.659 1468.33 Q900.659 1461.2 898.83 1457.66 Q897.025 1454.1 893.391 1454.1 M893.391 1450.39 Q899.201 1450.39 902.256 1455 Q905.335 1459.58 905.335 1468.33 Q905.335 1477.06 902.256 1481.67 Q899.201 1486.25 893.391 1486.25 Q887.58 1486.25 884.502 1481.67 Q881.446 1477.06 881.446 1468.33 Q881.446 1459.58 884.502 1455 Q887.58 1450.39 893.391 1450.39 Z" fill="#000000" fill-rule="nonzero" fill-opacity="1" /><path clip-path="url(#clip580)" d="M1248.02 1481.64 L1264.34 1481.64 L1264.34 1485.58 L1242.39 1485.58 L1242.39 1481.64 Q1245.05 1478.89 1249.64 1474.26 Q1254.24 1469.61 1255.42 1468.27 Q1257.67 1465.74 1258.55 1464.01 Q1259.45 1462.25 1259.45 1460.56 Q1259.45 1457.8 1257.51 1456.07 Q1255.59 1454.33 1252.49 1454.33 Q1250.29 1454.33 1247.83 1455.09 Q1245.4 1455.86 1242.62 1457.41 L1242.62 1452.69 Q1245.45 1451.55 1247.9 1450.97 Q1250.36 1450.39 1252.39 1450.39 Q1257.76 1450.39 1260.96 1453.08 Q1264.15 1455.77 1264.15 1460.26 Q1264.15 1462.39 1263.34 1464.31 Q1262.55 1466.2 1260.45 1468.8 Q1259.87 1469.47 1256.77 1472.69 Q1253.67 1475.88 1248.02 1481.64 Z" fill="#000000" fill-rule="nonzero" fill-opacity="1" /><path clip-path="url(#clip580)" d="M1284.15 1454.1 Q1280.54 1454.1 1278.71 1457.66 Q1276.91 1461.2 1276.91 1468.33 Q1276.91 1475.44 1278.71 1479.01 Q1280.54 1482.55 1284.15 1482.55 Q1287.79 1482.55 1289.59 1479.01 Q1291.42 1475.44 1291.42 1468.33 Q1291.42 1461.2 1289.59 1457.66 Q1287.79 1454.1 1284.15 1454.1 M1284.15 1450.39 Q1289.96 1450.39 1293.02 1455 Q1296.1 1459.58 1296.1 1468.33 Q1296.1 1477.06 1293.02 1481.67 Q1289.96 1486.25 1284.15 1486.25 Q1278.34 1486.25 1275.26 1481.67 Q1272.21 1477.06 1272.21 1468.33 Q1272.21 1459.58 1275.26 1455 Q1278.34 1450.39 1284.15 1450.39 Z" fill="#000000" fill-rule="nonzero" fill-opacity="1" /><path clip-path="url(#clip580)" d="M1314.31 1454.1 Q1310.7 1454.1 1308.87 1457.66 Q1307.07 1461.2 1307.07 1468.33 Q1307.07 1475.44 1308.87 1479.01 Q1310.7 1482.55 1314.31 1482.55 Q1317.95 1482.55 1319.75 1479.01 Q1321.58 1475.44 1321.58 1468.33 Q1321.58 1461.2 1319.75 1457.66 Q1317.95 1454.1 1314.31 1454.1 M1314.31 1450.39 Q1320.12 1450.39 1323.18 1455 Q1326.26 1459.58 1326.26 1468.33 Q1326.26 1477.06 1323.18 1481.67 Q1320.12 1486.25 1314.31 1486.25 Q1308.5 1486.25 1305.42 1481.67 Q1302.37 1477.06 1302.37 1468.33 Q1302.37 1459.58 1305.42 1455 Q1308.5 1450.39 1314.31 1450.39 Z" fill="#000000" fill-rule="nonzero" fill-opacity="1" /><path clip-path="url(#clip580)" d="M1668.07 1481.64 L1684.39 1481.64 L1684.39 1485.58 L1662.45 1485.58 L1662.45 1481.64 Q1665.11 1478.89 1669.69 1474.26 Q1674.3 1469.61 1675.48 1468.27 Q1677.73 1465.74 1678.6 1464.01 Q1679.51 1462.25 1679.51 1460.56 Q1679.51 1457.8 1677.56 1456.07 Q1675.64 1454.33 1672.54 1454.33 Q1670.34 1454.33 1667.89 1455.09 Q1665.46 1455.86 1662.68 1457.41 L1662.68 1452.69 Q1665.5 1451.55 1667.96 1450.97 Q1670.41 1450.39 1672.45 1450.39 Q1677.82 1450.39 1681.01 1453.08 Q1684.21 1455.77 1684.21 1460.26 Q1684.21 1462.39 1683.4 1464.31 Q1682.61 1466.2 1680.5 1468.8 Q1679.92 1469.47 1676.82 1472.69 Q1673.72 1475.88 1668.07 1481.64 Z" fill="#000000" fill-rule="nonzero" fill-opacity="1" /><path clip-path="url(#clip580)" d="M1698.23 1481.64 L1714.55 1481.64 L1714.55 1485.58 L1692.61 1485.58 L1692.61 1481.64 Q1695.27 1478.89 1699.85 1474.26 Q1704.46 1469.61 1705.64 1468.27 Q1707.89 1465.74 1708.77 1464.01 Q1709.67 1462.25 1709.67 1460.56 Q1709.67 1457.8 1707.73 1456.07 Q1705.8 1454.33 1702.7 1454.33 Q1700.5 1454.33 1698.05 1455.09 Q1695.62 1455.86 1692.84 1457.41 L1692.84 1452.69 Q1695.66 1451.55 1698.12 1450.97 Q1700.57 1450.39 1702.61 1450.39 Q1707.98 1450.39 1711.17 1453.08 Q1714.37 1455.77 1714.37 1460.26 Q1714.37 1462.39 1713.56 1464.31 Q1712.77 1466.2 1710.66 1468.8 Q1710.09 1469.47 1706.98 1472.69 Q1703.88 1475.88 1698.23 1481.64 Z" fill="#000000" fill-rule="nonzero" fill-opacity="1" /><path clip-path="url(#clip580)" d="M1734.37 1454.1 Q1730.76 1454.1 1728.93 1457.66 Q1727.12 1461.2 1727.12 1468.33 Q1727.12 1475.44 1728.93 1479.01 Q1730.76 1482.55 1734.37 1482.55 Q1738 1482.55 1739.81 1479.01 Q1741.64 1475.44 1741.64 1468.33 Q1741.64 1461.2 1739.81 1457.66 Q1738 1454.1 1734.37 1454.1 M1734.37 1450.39 Q1740.18 1450.39 1743.23 1455 Q1746.31 1459.58 1746.31 1468.33 Q1746.31 1477.06 1743.23 1481.67 Q1740.18 1486.25 1734.37 1486.25 Q1728.56 1486.25 1725.48 1481.67 Q1722.42 1477.06 1722.42 1468.33 Q1722.42 1459.58 1725.48 1455 Q1728.56 1450.39 1734.37 1450.39 Z" fill="#000000" fill-rule="nonzero" fill-opacity="1" /><path clip-path="url(#clip580)" d="M2088.13 1481.64 L2104.45 1481.64 L2104.45 1485.58 L2082.5 1485.58 L2082.5 1481.64 Q2085.16 1478.89 2089.75 1474.26 Q2094.35 1469.61 2095.53 1468.27 Q2097.78 1465.74 2098.66 1464.01 Q2099.56 1462.25 2099.56 1460.56 Q2099.56 1457.8 2097.62 1456.07 Q2095.7 1454.33 2092.59 1454.33 Q2090.4 1454.33 2087.94 1455.09 Q2085.51 1455.86 2082.73 1457.41 L2082.73 1452.69 Q2085.56 1451.55 2088.01 1450.97 Q2090.47 1450.39 2092.5 1450.39 Q2097.87 1450.39 2101.07 1453.08 Q2104.26 1455.77 2104.26 1460.26 Q2104.26 1462.39 2103.45 1464.31 Q2102.66 1466.2 2100.56 1468.8 Q2099.98 1469.47 2096.88 1472.69 Q2093.78 1475.88 2088.13 1481.64 Z" fill="#000000" fill-rule="nonzero" fill-opacity="1" /><path clip-path="url(#clip580)" d="M2127.11 1455.09 L2115.3 1473.54 L2127.11 1473.54 L2127.11 1455.09 M2125.88 1451.02 L2131.76 1451.02 L2131.76 1473.54 L2136.69 1473.54 L2136.69 1477.43 L2131.76 1477.43 L2131.76 1485.58 L2127.11 1485.58 L2127.11 1477.43 L2111.51 1477.43 L2111.51 1472.92 L2125.88 1451.02 Z" fill="#000000" fill-rule="nonzero" fill-opacity="1" /><path clip-path="url(#clip580)" d="M2154.42 1454.1 Q2150.81 1454.1 2148.98 1457.66 Q2147.18 1461.2 2147.18 1468.33 Q2147.18 1475.44 2148.98 1479.01 Q2150.81 1482.55 2154.42 1482.55 Q2158.06 1482.55 2159.86 1479.01 Q2161.69 1475.44 2161.69 1468.33 Q2161.69 1461.2 2159.86 1457.66 Q2158.06 1454.1 2154.42 1454.1 M2154.42 1450.39 Q2160.23 1450.39 2163.29 1455 Q2166.37 1459.58 2166.37 1468.33 Q2166.37 1477.06 2163.29 1481.67 Q2160.23 1486.25 2154.42 1486.25 Q2148.61 1486.25 2145.53 1481.67 Q2142.48 1477.06 2142.48 1468.33 Q2142.48 1459.58 2145.53 1455 Q2148.61 1450.39 2154.42 1450.39 Z" fill="#000000" fill-rule="nonzero" fill-opacity="1" /><path clip-path="url(#clip580)" d="M1106.19 1525.81 L1106.19 1562.76 L1113.96 1562.76 Q1123.79 1562.76 1128.34 1558.3 Q1132.93 1553.85 1132.93 1544.24 Q1132.93 1534.69 1128.34 1530.26 Q1123.79 1525.81 1113.96 1525.81 L1106.19 1525.81 M1099.76 1520.52 L1112.97 1520.52 Q1126.78 1520.52 1133.25 1526.28 Q1139.71 1532.01 1139.71 1544.24 Q1139.71 1556.52 1133.21 1562.28 Q1126.72 1568.04 1112.97 1568.04 L1099.76 1568.04 L1099.76 1520.52 Z" fill="#000000" fill-rule="nonzero" fill-opacity="1" /><path clip-path="url(#clip580)" d="M1180.19 1548.76 L1180.19 1551.62 L1153.27 1551.62 Q1153.65 1557.67 1156.89 1560.85 Q1160.17 1564 1166 1564 Q1169.37 1564 1172.52 1563.17 Q1175.7 1562.35 1178.82 1560.69 L1178.82 1566.23 Q1175.67 1567.57 1172.36 1568.27 Q1169.05 1568.97 1165.65 1568.97 Q1157.12 1568.97 1152.12 1564 Q1147.15 1559.04 1147.15 1550.57 Q1147.15 1541.82 1151.87 1536.69 Q1156.61 1531.54 1164.63 1531.54 Q1171.82 1531.54 1175.99 1536.18 Q1180.19 1540.8 1180.19 1548.76 M1174.34 1547.04 Q1174.27 1542.23 1171.63 1539.37 Q1169.02 1536.5 1164.69 1536.5 Q1159.79 1536.5 1156.83 1539.27 Q1153.9 1542.04 1153.46 1547.07 L1174.34 1547.04 Z" fill="#000000" fill-rule="nonzero" fill-opacity="1" /><path clip-path="url(#clip580)" d="M1217.56 1539.24 Q1219.76 1535.29 1222.81 1533.41 Q1225.87 1531.54 1230 1531.54 Q1235.57 1531.54 1238.6 1535.45 Q1241.62 1539.33 1241.62 1546.53 L1241.62 1568.04 L1235.73 1568.04 L1235.73 1546.72 Q1235.73 1541.59 1233.92 1539.11 Q1232.1 1536.63 1228.38 1536.63 Q1223.83 1536.63 1221.19 1539.65 Q1218.55 1542.68 1218.55 1547.9 L1218.55 1568.04 L1212.66 1568.04 L1212.66 1546.72 Q1212.66 1541.56 1210.84 1539.11 Q1209.03 1536.63 1205.24 1536.63 Q1200.75 1536.63 1198.11 1539.68 Q1195.47 1542.71 1195.47 1547.9 L1195.47 1568.04 L1189.58 1568.04 L1189.58 1532.4 L1195.47 1532.4 L1195.47 1537.93 Q1197.48 1534.66 1200.28 1533.1 Q1203.08 1531.54 1206.93 1531.54 Q1210.81 1531.54 1213.52 1533.51 Q1216.25 1535.48 1217.56 1539.24 Z" fill="#000000" fill-rule="nonzero" fill-opacity="1" /><path clip-path="url(#clip580)" d="M1269.5 1550.12 Q1262.41 1550.12 1259.67 1551.75 Q1256.93 1553.37 1256.93 1557.29 Q1256.93 1560.4 1258.97 1562.25 Q1261.04 1564.07 1264.57 1564.07 Q1269.44 1564.07 1272.37 1560.63 Q1275.33 1557.16 1275.33 1551.43 L1275.33 1550.12 L1269.5 1550.12 M1281.18 1547.71 L1281.18 1568.04 L1275.33 1568.04 L1275.33 1562.63 Q1273.32 1565.88 1270.33 1567.44 Q1267.34 1568.97 1263.01 1568.97 Q1257.54 1568.97 1254.29 1565.91 Q1251.07 1562.82 1251.07 1557.67 Q1251.07 1551.65 1255.09 1548.6 Q1259.13 1545.54 1267.12 1545.54 L1275.33 1545.54 L1275.33 1544.97 Q1275.33 1540.93 1272.65 1538.73 Q1270.01 1536.5 1265.21 1536.5 Q1262.15 1536.5 1259.25 1537.23 Q1256.36 1537.97 1253.68 1539.43 L1253.68 1534.02 Q1256.9 1532.78 1259.92 1532.17 Q1262.95 1531.54 1265.81 1531.54 Q1273.55 1531.54 1277.37 1535.55 Q1281.18 1539.56 1281.18 1547.71 Z" fill="#000000" fill-rule="nonzero" fill-opacity="1" /><path clip-path="url(#clip580)" d="M1322.88 1546.53 L1322.88 1568.04 L1317.02 1568.04 L1317.02 1546.72 Q1317.02 1541.66 1315.05 1539.14 Q1313.08 1536.63 1309.13 1536.63 Q1304.39 1536.63 1301.65 1539.65 Q1298.91 1542.68 1298.91 1547.9 L1298.91 1568.04 L1293.02 1568.04 L1293.02 1532.4 L1298.91 1532.4 L1298.91 1537.93 Q1301.01 1534.72 1303.85 1533.13 Q1306.71 1531.54 1310.43 1531.54 Q1316.58 1531.54 1319.73 1535.36 Q1322.88 1539.14 1322.88 1546.53 Z" fill="#000000" fill-rule="nonzero" fill-opacity="1" /><path clip-path="url(#clip580)" d="M1358.02 1537.81 L1358.02 1518.52 L1363.87 1518.52 L1363.87 1568.04 L1358.02 1568.04 L1358.02 1562.7 Q1356.17 1565.88 1353.34 1567.44 Q1350.54 1568.97 1346.59 1568.97 Q1340.13 1568.97 1336.06 1563.81 Q1332.01 1558.65 1332.01 1550.25 Q1332.01 1541.85 1336.06 1536.69 Q1340.13 1531.54 1346.59 1531.54 Q1350.54 1531.54 1353.34 1533.1 Q1356.17 1534.62 1358.02 1537.81 M1338.06 1550.25 Q1338.06 1556.71 1340.7 1560.4 Q1343.38 1564.07 1348.02 1564.07 Q1352.67 1564.07 1355.34 1560.4 Q1358.02 1556.71 1358.02 1550.25 Q1358.02 1543.79 1355.34 1540.13 Q1352.67 1536.44 1348.02 1536.44 Q1343.38 1536.44 1340.7 1540.13 Q1338.06 1543.79 1338.06 1550.25 Z" fill="#000000" fill-rule="nonzero" fill-opacity="1" /><polyline clip-path="url(#clip580)" style="stroke:#000000; stroke-linecap:round; stroke-linejoin:round; stroke-width:4; stroke-opacity:1; fill:none" points="110.881,1423.18 110.881,47.2441 "/>
<polyline clip-path="url(#clip580)" style="stroke:#000000; stroke-linecap:round; stroke-linejoin:round; stroke-width:4; stroke-opacity:1; fill:none" points="110.881,1423.18 129.779,1423.18 "/>
<polyline clip-path="url(#clip580)" style="stroke:#000000; stroke-linecap:round; stroke-linejoin:round; stroke-width:4; stroke-opacity:1; fill:none" points="110.881,964.535 129.779,964.535 "/>
<polyline clip-path="url(#clip580)" style="stroke:#000000; stroke-linecap:round; stroke-linejoin:round; stroke-width:4; stroke-opacity:1; fill:none" points="110.881,505.889 129.779,505.889 "/>
<polyline clip-path="url(#clip580)" style="stroke:#000000; stroke-linecap:round; stroke-linejoin:round; stroke-width:4; stroke-opacity:1; fill:none" points="110.881,47.2441 129.779,47.2441 "/>
<path clip-path="url(#clip580)" d="M62.9365 1408.98 Q59.3254 1408.98 57.4967 1412.54 Q55.6912 1416.08 55.6912 1423.21 Q55.6912 1430.32 57.4967 1433.89 Q59.3254 1437.43 62.9365 1437.43 Q66.5707 1437.43 68.3763 1433.89 Q70.205 1430.32 70.205 1423.21 Q70.205 1416.08 68.3763 1412.54 Q66.5707 1408.98 62.9365 1408.98 M62.9365 1405.27 Q68.7467 1405.27 71.8022 1409.88 Q74.8809 1414.46 74.8809 1423.21 Q74.8809 1431.94 71.8022 1436.55 Q68.7467 1441.13 62.9365 1441.13 Q57.1264 1441.13 54.0477 1436.55 Q50.9921 1431.94 50.9921 1423.21 Q50.9921 1414.46 54.0477 1409.88 Q57.1264 1405.27 62.9365 1405.27 Z" fill="#000000" fill-rule="nonzero" fill-opacity="1" /><path clip-path="url(#clip580)" d="M67.7513 963.18 Q71.1078 963.898 72.9827 966.167 Q74.8809 968.435 74.8809 971.768 Q74.8809 976.884 71.3624 979.685 Q67.8439 982.486 61.3624 982.486 Q59.1865 982.486 56.8717 982.046 Q54.5801 981.629 52.1264 980.773 L52.1264 976.259 Q54.0708 977.393 56.3856 977.972 Q58.7004 978.551 61.2236 978.551 Q65.6217 978.551 67.9133 976.815 Q70.2281 975.079 70.2281 971.768 Q70.2281 968.713 68.0754 967 Q65.9457 965.264 62.1263 965.264 L58.0986 965.264 L58.0986 961.421 L62.3115 961.421 Q65.7606 961.421 67.5893 960.055 Q69.418 958.667 69.418 956.074 Q69.418 953.412 67.5198 952 Q65.6448 950.565 62.1263 950.565 Q60.205 950.565 58.006 950.981 Q55.8069 951.398 53.168 952.278 L53.168 948.111 Q55.8301 947.37 58.1449 947 Q60.4828 946.63 62.543 946.63 Q67.867 946.63 70.9689 949.06 Q74.0707 951.468 74.0707 955.588 Q74.0707 958.458 72.4272 960.449 Q70.7837 962.417 67.7513 963.18 Z" fill="#000000" fill-rule="nonzero" fill-opacity="1" /><path clip-path="url(#clip580)" d="M63.3532 504.026 Q60.205 504.026 58.3532 506.179 Q56.5245 508.331 56.5245 512.081 Q56.5245 515.808 58.3532 517.984 Q60.205 520.137 63.3532 520.137 Q66.5013 520.137 68.33 517.984 Q70.1818 515.808 70.1818 512.081 Q70.1818 508.331 68.33 506.179 Q66.5013 504.026 63.3532 504.026 M72.6355 489.373 L72.6355 493.632 Q70.8763 492.799 69.0707 492.359 Q67.2883 491.92 65.5291 491.92 Q60.8995 491.92 58.4458 495.044 Q56.0152 498.169 55.668 504.489 Q57.0338 502.475 59.0939 501.41 Q61.1541 500.322 63.6309 500.322 Q68.8393 500.322 71.8485 503.494 Q74.8809 506.642 74.8809 512.081 Q74.8809 517.405 71.7328 520.623 Q68.5846 523.841 63.3532 523.841 Q57.3578 523.841 54.1866 519.257 Q51.0153 514.651 51.0153 505.924 Q51.0153 497.73 54.9041 492.869 Q58.793 487.984 65.3439 487.984 Q67.1032 487.984 68.8855 488.332 Q70.6911 488.679 72.6355 489.373 Z" fill="#000000" fill-rule="nonzero" fill-opacity="1" /><path clip-path="url(#clip580)" d="M53.2606 63.8065 L53.2606 59.5473 Q55.0199 60.3806 56.8254 60.8204 Q58.631 61.2602 60.3671 61.2602 Q64.9967 61.2602 67.4272 58.1584 Q69.8809 55.0334 70.2281 48.6908 Q68.8855 50.6816 66.8254 51.7464 Q64.7652 52.8112 62.2652 52.8112 Q57.0801 52.8112 54.0477 49.6862 Q51.0384 46.5381 51.0384 41.0983 Q51.0384 35.7742 54.1866 32.5567 Q57.3347 29.3391 62.5661 29.3391 Q68.5615 29.3391 71.7096 33.9456 Q74.8809 38.5289 74.8809 47.2788 Q74.8809 55.4501 70.992 60.3343 Q67.1263 65.1954 60.5754 65.1954 Q58.8162 65.1954 57.0106 64.8482 Q55.2051 64.5009 53.2606 63.8065 M62.5661 49.1538 Q65.7143 49.1538 67.543 47.001 Q69.3948 44.8483 69.3948 41.0983 Q69.3948 37.3715 67.543 35.2187 Q65.7143 33.0428 62.5661 33.0428 Q59.418 33.0428 57.5662 35.2187 Q55.7375 37.3715 55.7375 41.0983 Q55.7375 44.8483 57.5662 47.001 Q59.418 49.1538 62.5661 49.1538 Z" fill="#000000" fill-rule="nonzero" fill-opacity="1" /><path clip-path="url(#clip582)" d="M234.188 1270.3 L234.188 1423.18 L339.202 1423.18 L339.202 1270.3 L234.188 1270.3 L234.188 1270.3  Z" fill="#009af9" fill-rule="evenodd" fill-opacity="1"/>
<polyline clip-path="url(#clip582)" style="stroke:#000000; stroke-linecap:round; stroke-linejoin:round; stroke-width:4; stroke-opacity:1; fill:none" points="234.188,1270.3 234.188,1423.18 339.202,1423.18 339.202,1270.3 234.188,1270.3 "/>
<path clip-path="url(#clip582)" d="M339.202 811.653 L339.202 1423.18 L444.215 1423.18 L444.215 811.653 L339.202 811.653 L339.202 811.653  Z" fill="#009af9" fill-rule="evenodd" fill-opacity="1"/>
<polyline clip-path="url(#clip582)" style="stroke:#000000; stroke-linecap:round; stroke-linejoin:round; stroke-width:4; stroke-opacity:1; fill:none" points="339.202,811.653 339.202,1423.18 444.215,1423.18 444.215,811.653 339.202,811.653 "/>
<path clip-path="url(#clip582)" d="M444.215 811.653 L444.215 1423.18 L549.229 1423.18 L549.229 811.653 L444.215 811.653 L444.215 811.653  Z" fill="#009af9" fill-rule="evenodd" fill-opacity="1"/>
<polyline clip-path="url(#clip582)" style="stroke:#000000; stroke-linecap:round; stroke-linejoin:round; stroke-width:4; stroke-opacity:1; fill:none" points="444.215,811.653 444.215,1423.18 549.229,1423.18 549.229,811.653 444.215,811.653 "/>
<path clip-path="url(#clip582)" d="M549.229 1117.42 L549.229 1423.18 L654.243 1423.18 L654.243 1117.42 L549.229 1117.42 L549.229 1117.42  Z" fill="#009af9" fill-rule="evenodd" fill-opacity="1"/>
<polyline clip-path="url(#clip582)" style="stroke:#000000; stroke-linecap:round; stroke-linejoin:round; stroke-width:4; stroke-opacity:1; fill:none" points="549.229,1117.42 549.229,1423.18 654.243,1423.18 654.243,1117.42 549.229,1117.42 "/>
<path clip-path="url(#clip582)" d="M654.243 964.535 L654.243 1423.18 L759.257 1423.18 L759.257 964.535 L654.243 964.535 L654.243 964.535  Z" fill="#009af9" fill-rule="evenodd" fill-opacity="1"/>
<polyline clip-path="url(#clip582)" style="stroke:#000000; stroke-linecap:round; stroke-linejoin:round; stroke-width:4; stroke-opacity:1; fill:none" points="654.243,964.535 654.243,1423.18 759.257,1423.18 759.257,964.535 654.243,964.535 "/>
<path clip-path="url(#clip582)" d="M759.257 1117.42 L759.257 1423.18 L864.27 1423.18 L864.27 1117.42 L759.257 1117.42 L759.257 1117.42  Z" fill="#009af9" fill-rule="evenodd" fill-opacity="1"/>
<polyline clip-path="url(#clip582)" style="stroke:#000000; stroke-linecap:round; stroke-linejoin:round; stroke-width:4; stroke-opacity:1; fill:none" points="759.257,1117.42 759.257,1423.18 864.27,1423.18 864.27,1117.42 759.257,1117.42 "/>
<path clip-path="url(#clip582)" d="M864.27 658.771 L864.27 1423.18 L969.284 1423.18 L969.284 658.771 L864.27 658.771 L864.27 658.771  Z" fill="#009af9" fill-rule="evenodd" fill-opacity="1"/>
<polyline clip-path="url(#clip582)" style="stroke:#000000; stroke-linecap:round; stroke-linejoin:round; stroke-width:4; stroke-opacity:1; fill:none" points="864.27,658.771 864.27,1423.18 969.284,1423.18 969.284,658.771 864.27,658.771 "/>
<path clip-path="url(#clip582)" d="M969.284 47.2441 L969.284 1423.18 L1074.3 1423.18 L1074.3 47.2441 L969.284 47.2441 L969.284 47.2441  Z" fill="#009af9" fill-rule="evenodd" fill-opacity="1"/>
<polyline clip-path="url(#clip582)" style="stroke:#000000; stroke-linecap:round; stroke-linejoin:round; stroke-width:4; stroke-opacity:1; fill:none" points="969.284,47.2441 969.284,1423.18 1074.3,1423.18 1074.3,47.2441 969.284,47.2441 "/>
<path clip-path="url(#clip582)" d="M1074.3 47.2441 L1074.3 1423.18 L1179.31 1423.18 L1179.31 47.2441 L1074.3 47.2441 L1074.3 47.2441  Z" fill="#009af9" fill-rule="evenodd" fill-opacity="1"/>
<polyline clip-path="url(#clip582)" style="stroke:#000000; stroke-linecap:round; stroke-linejoin:round; stroke-width:4; stroke-opacity:1; fill:none" points="1074.3,47.2441 1074.3,1423.18 1179.31,1423.18 1179.31,47.2441 1074.3,47.2441 "/>
<path clip-path="url(#clip582)" d="M1179.31 47.2441 L1179.31 1423.18 L1284.33 1423.18 L1284.33 47.2441 L1179.31 47.2441 L1179.31 47.2441  Z" fill="#009af9" fill-rule="evenodd" fill-opacity="1"/>
<polyline clip-path="url(#clip582)" style="stroke:#000000; stroke-linecap:round; stroke-linejoin:round; stroke-width:4; stroke-opacity:1; fill:none" points="1179.31,47.2441 1179.31,1423.18 1284.33,1423.18 1284.33,47.2441 1179.31,47.2441 "/>
<path clip-path="url(#clip582)" d="M1284.33 47.2441 L1284.33 1423.18 L1389.34 1423.18 L1389.34 47.2441 L1284.33 47.2441 L1284.33 47.2441  Z" fill="#009af9" fill-rule="evenodd" fill-opacity="1"/>
<polyline clip-path="url(#clip582)" style="stroke:#000000; stroke-linecap:round; stroke-linejoin:round; stroke-width:4; stroke-opacity:1; fill:none" points="1284.33,47.2441 1284.33,1423.18 1389.34,1423.18 1389.34,47.2441 1284.33,47.2441 "/>
<path clip-path="url(#clip582)" d="M1389.34 47.2441 L1389.34 1423.18 L1494.35 1423.18 L1494.35 47.2441 L1389.34 47.2441 L1389.34 47.2441  Z" fill="#009af9" fill-rule="evenodd" fill-opacity="1"/>
<polyline clip-path="url(#clip582)" style="stroke:#000000; stroke-linecap:round; stroke-linejoin:round; stroke-width:4; stroke-opacity:1; fill:none" points="1389.34,47.2441 1389.34,1423.18 1494.35,1423.18 1494.35,47.2441 1389.34,47.2441 "/>
<path clip-path="url(#clip582)" d="M1494.35 47.2441 L1494.35 1423.18 L1599.37 1423.18 L1599.37 47.2441 L1494.35 47.2441 L1494.35 47.2441  Z" fill="#009af9" fill-rule="evenodd" fill-opacity="1"/>
<polyline clip-path="url(#clip582)" style="stroke:#000000; stroke-linecap:round; stroke-linejoin:round; stroke-width:4; stroke-opacity:1; fill:none" points="1494.35,47.2441 1494.35,1423.18 1599.37,1423.18 1599.37,47.2441 1494.35,47.2441 "/>
<path clip-path="url(#clip582)" d="M1599.37 353.008 L1599.37 1423.18 L1704.38 1423.18 L1704.38 353.008 L1599.37 353.008 L1599.37 353.008  Z" fill="#009af9" fill-rule="evenodd" fill-opacity="1"/>
<polyline clip-path="url(#clip582)" style="stroke:#000000; stroke-linecap:round; stroke-linejoin:round; stroke-width:4; stroke-opacity:1; fill:none" points="1599.37,353.008 1599.37,1423.18 1704.38,1423.18 1704.38,353.008 1599.37,353.008 "/>
<path clip-path="url(#clip582)" d="M1704.38 505.889 L1704.38 1423.18 L1809.39 1423.18 L1809.39 505.889 L1704.38 505.889 L1704.38 505.889  Z" fill="#009af9" fill-rule="evenodd" fill-opacity="1"/>
<polyline clip-path="url(#clip582)" style="stroke:#000000; stroke-linecap:round; stroke-linejoin:round; stroke-width:4; stroke-opacity:1; fill:none" points="1704.38,505.889 1704.38,1423.18 1809.39,1423.18 1809.39,505.889 1704.38,505.889 "/>
<path clip-path="url(#clip582)" d="M1809.39 505.889 L1809.39 1423.18 L1914.41 1423.18 L1914.41 505.889 L1809.39 505.889 L1809.39 505.889  Z" fill="#009af9" fill-rule="evenodd" fill-opacity="1"/>
<polyline clip-path="url(#clip582)" style="stroke:#000000; stroke-linecap:round; stroke-linejoin:round; stroke-width:4; stroke-opacity:1; fill:none" points="1809.39,505.889 1809.39,1423.18 1914.41,1423.18 1914.41,505.889 1809.39,505.889 "/>
<path clip-path="url(#clip582)" d="M1914.41 1423.18 L1914.41 1423.18 L2019.42 1423.18 L2019.42 1423.18 L1914.41 1423.18 L1914.41 1423.18  Z" fill="#009af9" fill-rule="evenodd" fill-opacity="1"/>
<polyline clip-path="url(#clip582)" style="stroke:#000000; stroke-linecap:round; stroke-linejoin:round; stroke-width:4; stroke-opacity:1; fill:none" points="1914.41,1423.18 1914.41,1423.18 2019.42,1423.18 1914.41,1423.18 "/>
<path clip-path="url(#clip582)" d="M2019.42 1117.42 L2019.42 1423.18 L2124.44 1423.18 L2124.44 1117.42 L2019.42 1117.42 L2019.42 1117.42  Z" fill="#009af9" fill-rule="evenodd" fill-opacity="1"/>
<polyline clip-path="url(#clip582)" style="stroke:#000000; stroke-linecap:round; stroke-linejoin:round; stroke-width:4; stroke-opacity:1; fill:none" points="2019.42,1117.42 2019.42,1423.18 2124.44,1423.18 2124.44,1117.42 2019.42,1117.42 "/>
<path clip-path="url(#clip582)" d="M2124.44 811.653 L2124.44 1423.18 L2229.45 1423.18 L2229.45 811.653 L2124.44 811.653 L2124.44 811.653  Z" fill="#009af9" fill-rule="evenodd" fill-opacity="1"/>
<polyline clip-path="url(#clip582)" style="stroke:#000000; stroke-linecap:round; stroke-linejoin:round; stroke-width:4; stroke-opacity:1; fill:none" points="2124.44,811.653 2124.44,1423.18 2229.45,1423.18 2229.45,811.653 2124.44,811.653 "/>
<circle clip-path="url(#clip582)" style="fill:#009af9; stroke:none; fill-opacity:0" cx="286.695" cy="1270.3" r="2"/>
<circle clip-path="url(#clip582)" style="fill:#009af9; stroke:none; fill-opacity:0" cx="391.709" cy="811.653" r="2"/>
<circle clip-path="url(#clip582)" style="fill:#009af9; stroke:none; fill-opacity:0" cx="496.722" cy="811.653" r="2"/>
<circle clip-path="url(#clip582)" style="fill:#009af9; stroke:none; fill-opacity:0" cx="601.736" cy="1117.42" r="2"/>
<circle clip-path="url(#clip582)" style="fill:#009af9; stroke:none; fill-opacity:0" cx="706.75" cy="964.535" r="2"/>
<circle clip-path="url(#clip582)" style="fill:#009af9; stroke:none; fill-opacity:0" cx="811.763" cy="1117.42" r="2"/>
<circle clip-path="url(#clip582)" style="fill:#009af9; stroke:none; fill-opacity:0" cx="916.777" cy="658.771" r="2"/>
<circle clip-path="url(#clip582)" style="fill:#009af9; stroke:none; fill-opacity:0" cx="1021.79" cy="47.2441" r="2"/>
<circle clip-path="url(#clip582)" style="fill:#009af9; stroke:none; fill-opacity:0" cx="1126.8" cy="47.2441" r="2"/>
<circle clip-path="url(#clip582)" style="fill:#009af9; stroke:none; fill-opacity:0" cx="1231.82" cy="47.2441" r="2"/>
<circle clip-path="url(#clip582)" style="fill:#009af9; stroke:none; fill-opacity:0" cx="1336.83" cy="47.2441" r="2"/>
<circle clip-path="url(#clip582)" style="fill:#009af9; stroke:none; fill-opacity:0" cx="1441.85" cy="47.2441" r="2"/>
<circle clip-path="url(#clip582)" style="fill:#009af9; stroke:none; fill-opacity:0" cx="1546.86" cy="47.2441" r="2"/>
<circle clip-path="url(#clip582)" style="fill:#009af9; stroke:none; fill-opacity:0" cx="1651.87" cy="353.008" r="2"/>
<circle clip-path="url(#clip582)" style="fill:#009af9; stroke:none; fill-opacity:0" cx="1756.89" cy="505.889" r="2"/>
<circle clip-path="url(#clip582)" style="fill:#009af9; stroke:none; fill-opacity:0" cx="1861.9" cy="505.889" r="2"/>
<circle clip-path="url(#clip582)" style="fill:#009af9; stroke:none; fill-opacity:0" cx="1966.91" cy="1423.18" r="2"/>
<circle clip-path="url(#clip582)" style="fill:#009af9; stroke:none; fill-opacity:0" cx="2071.93" cy="1117.42" r="2"/>
<circle clip-path="url(#clip582)" style="fill:#009af9; stroke:none; fill-opacity:0" cx="2176.94" cy="811.653" r="2"/>
</svg>
