<?xml version="1.0" encoding="utf-8"?>
<svg xmlns="http://www.w3.org/2000/svg" xmlns:xlink="http://www.w3.org/1999/xlink" width="600" height="400" viewBox="0 0 2400 1600">
<defs>
  <clipPath id="clip640">
    <rect x="0" y="0" width="2400" height="1600"/>
  </clipPath>
</defs>
<path clip-path="url(#clip640)" d="M0 1600 L2400 1600 L2400 0 L0 0  Z" fill="#ffffff" fill-rule="evenodd" fill-opacity="1"/>
<defs>
  <clipPath id="clip641">
    <rect x="480" y="0" width="1681" height="1600"/>
  </clipPath>
</defs>
<path clip-path="url(#clip640)" d="M232.389 1423.18 L2352.76 1423.18 L2352.76 47.2441 L232.389 47.2441  Z" fill="#ffffff" fill-rule="evenodd" fill-opacity="1"/>
<defs>
  <clipPath id="clip642">
    <rect x="232" y="47" width="2121" height="1377"/>
  </clipPath>
</defs>
<polyline clip-path="url(#clip642)" style="stroke:#000000; stroke-linecap:round; stroke-linejoin:round; stroke-width:2; stroke-opacity:0.1; fill:none" points="232.389,1423.18 232.389,47.2441 "/>
<polyline clip-path="url(#clip642)" style="stroke:#000000; stroke-linecap:round; stroke-linejoin:round; stroke-width:2; stroke-opacity:0.1; fill:none" points="535.299,1423.18 535.299,47.2441 "/>
<polyline clip-path="url(#clip642)" style="stroke:#000000; stroke-linecap:round; stroke-linejoin:round; stroke-width:2; stroke-opacity:0.1; fill:none" points="838.208,1423.18 838.208,47.2441 "/>
<polyline clip-path="url(#clip642)" style="stroke:#000000; stroke-linecap:round; stroke-linejoin:round; stroke-width:2; stroke-opacity:0.1; fill:none" points="1141.12,1423.18 1141.12,47.2441 "/>
<polyline clip-path="url(#clip642)" style="stroke:#000000; stroke-linecap:round; stroke-linejoin:round; stroke-width:2; stroke-opacity:0.1; fill:none" points="1444.03,1423.18 1444.03,47.2441 "/>
<polyline clip-path="url(#clip642)" style="stroke:#000000; stroke-linecap:round; stroke-linejoin:round; stroke-width:2; stroke-opacity:0.1; fill:none" points="1746.94,1423.18 1746.94,47.2441 "/>
<polyline clip-path="url(#clip642)" style="stroke:#000000; stroke-linecap:round; stroke-linejoin:round; stroke-width:2; stroke-opacity:0.1; fill:none" points="2049.85,1423.18 2049.85,47.2441 "/>
<polyline clip-path="url(#clip642)" style="stroke:#000000; stroke-linecap:round; stroke-linejoin:round; stroke-width:2; stroke-opacity:0.1; fill:none" points="2352.76,1423.18 2352.76,47.2441 "/>
<polyline clip-path="url(#clip640)" style="stroke:#000000; stroke-linecap:round; stroke-linejoin:round; stroke-width:4; stroke-opacity:1; fill:none" points="232.389,1423.18 2352.76,1423.18 "/>
<polyline clip-path="url(#clip640)" style="stroke:#000000; stroke-linecap:round; stroke-linejoin:round; stroke-width:4; stroke-opacity:1; fill:none" points="232.389,1423.18 232.389,1404.28 "/>
<polyline clip-path="url(#clip640)" style="stroke:#000000; stroke-linecap:round; stroke-linejoin:round; stroke-width:4; stroke-opacity:1; fill:none" points="535.299,1423.18 535.299,1404.28 "/>
<polyline clip-path="url(#clip640)" style="stroke:#000000; stroke-linecap:round; stroke-linejoin:round; stroke-width:4; stroke-opacity:1; fill:none" points="838.208,1423.18 838.208,1404.28 "/>
<polyline clip-path="url(#clip640)" style="stroke:#000000; stroke-linecap:round; stroke-linejoin:round; stroke-width:4; stroke-opacity:1; fill:none" points="1141.12,1423.18 1141.12,1404.28 "/>
<polyline clip-path="url(#clip640)" style="stroke:#000000; stroke-linecap:round; stroke-linejoin:round; stroke-width:4; stroke-opacity:1; fill:none" points="1444.03,1423.18 1444.03,1404.28 "/>
<polyline clip-path="url(#clip640)" style="stroke:#000000; stroke-linecap:round; stroke-linejoin:round; stroke-width:4; stroke-opacity:1; fill:none" points="1746.94,1423.18 1746.94,1404.28 "/>
<polyline clip-path="url(#clip640)" style="stroke:#000000; stroke-linecap:round; stroke-linejoin:round; stroke-width:4; stroke-opacity:1; fill:none" points="2049.85,1423.18 2049.85,1404.28 "/>
<polyline clip-path="url(#clip640)" style="stroke:#000000; stroke-linecap:round; stroke-linejoin:round; stroke-width:4; stroke-opacity:1; fill:none" points="2352.76,1423.18 2352.76,1404.28 "/>
<path clip-path="url(#clip640)" d="M232.389 1454.1 Q228.778 1454.1 226.95 1457.66 Q225.144 1461.2 225.144 1468.33 Q225.144 1475.44 226.95 1479.01 Q228.778 1482.55 232.389 1482.55 Q236.024 1482.55 237.829 1479.01 Q239.658 1475.44 239.658 1468.33 Q239.658 1461.2 237.829 1457.66 Q236.024 1454.1 232.389 1454.1 M232.389 1450.39 Q238.2 1450.39 241.255 1455 Q244.334 1459.58 244.334 1468.33 Q244.334 1477.06 241.255 1481.67 Q238.2 1486.25 232.389 1486.25 Q226.579 1486.25 223.501 1481.67 Q220.445 1477.06 220.445 1468.33 Q220.445 1459.58 223.501 1455 Q226.579 1450.39 232.389 1450.39 Z" fill="#000000" fill-rule="nonzero" fill-opacity="1" /><path clip-path="url(#clip640)" d="M539.547 1466.95 Q542.903 1467.66 544.778 1469.93 Q546.676 1472.2 546.676 1475.53 Q546.676 1480.65 543.158 1483.45 Q539.639 1486.25 533.158 1486.25 Q530.982 1486.25 528.667 1485.81 Q526.375 1485.39 523.922 1484.54 L523.922 1480.02 Q525.866 1481.16 528.181 1481.74 Q530.496 1482.32 533.019 1482.32 Q537.417 1482.32 539.709 1480.58 Q542.023 1478.84 542.023 1475.53 Q542.023 1472.48 539.871 1470.77 Q537.741 1469.03 533.922 1469.03 L529.894 1469.03 L529.894 1465.19 L534.107 1465.19 Q537.556 1465.19 539.384 1463.82 Q541.213 1462.43 541.213 1459.84 Q541.213 1457.18 539.315 1455.77 Q537.44 1454.33 533.922 1454.33 Q532 1454.33 529.801 1454.75 Q527.602 1455.16 524.963 1456.04 L524.963 1451.88 Q527.625 1451.14 529.94 1450.77 Q532.278 1450.39 534.338 1450.39 Q539.662 1450.39 542.764 1452.83 Q545.866 1455.23 545.866 1459.35 Q545.866 1462.22 544.222 1464.21 Q542.579 1466.18 539.547 1466.95 Z" fill="#000000" fill-rule="nonzero" fill-opacity="1" /><path clip-path="url(#clip640)" d="M838.613 1466.44 Q835.465 1466.44 833.613 1468.59 Q831.785 1470.74 831.785 1474.49 Q831.785 1478.22 833.613 1480.39 Q835.465 1482.55 838.613 1482.55 Q841.762 1482.55 843.59 1480.39 Q845.442 1478.22 845.442 1474.49 Q845.442 1470.74 843.59 1468.59 Q841.762 1466.44 838.613 1466.44 M847.896 1451.78 L847.896 1456.04 Q846.137 1455.21 844.331 1454.77 Q842.549 1454.33 840.789 1454.33 Q836.16 1454.33 833.706 1457.45 Q831.276 1460.58 830.928 1466.9 Q832.294 1464.89 834.354 1463.82 Q836.414 1462.73 838.891 1462.73 Q844.1 1462.73 847.109 1465.9 Q850.141 1469.05 850.141 1474.49 Q850.141 1479.82 846.993 1483.03 Q843.845 1486.25 838.613 1486.25 Q832.618 1486.25 829.447 1481.67 Q826.276 1477.06 826.276 1468.33 Q826.276 1460.14 830.164 1455.28 Q834.053 1450.39 840.604 1450.39 Q842.363 1450.39 844.146 1450.74 Q845.951 1451.09 847.896 1451.78 Z" fill="#000000" fill-rule="nonzero" fill-opacity="1" /><path clip-path="url(#clip640)" d="M1131.42 1484.86 L1131.42 1480.6 Q1133.18 1481.44 1134.98 1481.88 Q1136.79 1482.32 1138.53 1482.32 Q1143.15 1482.32 1145.59 1479.21 Q1148.04 1476.09 1148.39 1469.75 Q1147.04 1471.74 1144.98 1472.8 Q1142.92 1473.87 1140.42 1473.87 Q1135.24 1473.87 1132.21 1470.74 Q1129.2 1467.59 1129.2 1462.15 Q1129.2 1456.83 1132.34 1453.61 Q1135.49 1450.39 1140.72 1450.39 Q1146.72 1450.39 1149.87 1455 Q1153.04 1459.58 1153.04 1468.33 Q1153.04 1476.51 1149.15 1481.39 Q1145.28 1486.25 1138.73 1486.25 Q1136.97 1486.25 1135.17 1485.9 Q1133.36 1485.56 1131.42 1484.86 M1140.72 1470.21 Q1143.87 1470.21 1145.7 1468.06 Q1147.55 1465.9 1147.55 1462.15 Q1147.55 1458.43 1145.7 1456.27 Q1143.87 1454.1 1140.72 1454.1 Q1137.58 1454.1 1135.72 1456.27 Q1133.9 1458.43 1133.9 1462.15 Q1133.9 1465.9 1135.72 1468.06 Q1137.58 1470.21 1140.72 1470.21 Z" fill="#000000" fill-rule="nonzero" fill-opacity="1" /><path clip-path="url(#clip640)" d="M1419.51 1481.64 L1427.15 1481.64 L1427.15 1455.28 L1418.84 1456.95 L1418.84 1452.69 L1427.11 1451.02 L1431.78 1451.02 L1431.78 1481.64 L1439.42 1481.64 L1439.42 1485.58 L1419.51 1485.58 L1419.51 1481.64 Z" fill="#000000" fill-rule="nonzero" fill-opacity="1" /><path clip-path="url(#clip640)" d="M1452.89 1481.64 L1469.21 1481.64 L1469.21 1485.58 L1447.27 1485.58 L1447.27 1481.64 Q1449.93 1478.89 1454.51 1474.26 Q1459.12 1469.61 1460.3 1468.27 Q1462.55 1465.74 1463.43 1464.01 Q1464.33 1462.25 1464.33 1460.56 Q1464.33 1457.8 1462.38 1456.07 Q1460.46 1454.33 1457.36 1454.33 Q1455.16 1454.33 1452.71 1455.09 Q1450.28 1455.86 1447.5 1457.41 L1447.5 1452.69 Q1450.32 1451.55 1452.78 1450.97 Q1455.23 1450.39 1457.27 1450.39 Q1462.64 1450.39 1465.83 1453.08 Q1469.03 1455.77 1469.03 1460.26 Q1469.03 1462.39 1468.22 1464.31 Q1467.43 1466.2 1465.32 1468.8 Q1464.74 1469.47 1461.64 1472.69 Q1458.54 1475.88 1452.89 1481.64 Z" fill="#000000" fill-rule="nonzero" fill-opacity="1" /><path clip-path="url(#clip640)" d="M1722.12 1481.64 L1729.76 1481.64 L1729.76 1455.28 L1721.45 1456.95 L1721.45 1452.69 L1729.71 1451.02 L1734.39 1451.02 L1734.39 1481.64 L1742.03 1481.64 L1742.03 1485.58 L1722.12 1485.58 L1722.12 1481.64 Z" fill="#000000" fill-rule="nonzero" fill-opacity="1" /><path clip-path="url(#clip640)" d="M1751.52 1451.02 L1769.88 1451.02 L1769.88 1454.96 L1755.8 1454.96 L1755.8 1463.43 Q1756.82 1463.08 1757.84 1462.92 Q1758.86 1462.73 1759.88 1462.73 Q1765.66 1462.73 1769.04 1465.9 Q1772.42 1469.08 1772.42 1474.49 Q1772.42 1480.07 1768.95 1483.17 Q1765.48 1486.25 1759.16 1486.25 Q1756.98 1486.25 1754.71 1485.88 Q1752.47 1485.51 1750.06 1484.77 L1750.06 1480.07 Q1752.15 1481.2 1754.37 1481.76 Q1756.59 1482.32 1759.07 1482.32 Q1763.07 1482.32 1765.41 1480.21 Q1767.75 1478.1 1767.75 1474.49 Q1767.75 1470.88 1765.41 1468.77 Q1763.07 1466.67 1759.07 1466.67 Q1757.19 1466.67 1755.32 1467.08 Q1753.46 1467.5 1751.52 1468.38 L1751.52 1451.02 Z" fill="#000000" fill-rule="nonzero" fill-opacity="1" /><path clip-path="url(#clip640)" d="M2024.58 1481.64 L2032.22 1481.64 L2032.22 1455.28 L2023.91 1456.95 L2023.91 1452.69 L2032.17 1451.02 L2036.85 1451.02 L2036.85 1481.64 L2044.49 1481.64 L2044.49 1485.58 L2024.58 1485.58 L2024.58 1481.64 Z" fill="#000000" fill-rule="nonzero" fill-opacity="1" /><path clip-path="url(#clip640)" d="M2063.93 1469.17 Q2060.6 1469.17 2058.68 1470.95 Q2056.78 1472.73 2056.78 1475.86 Q2056.78 1478.98 2058.68 1480.77 Q2060.6 1482.55 2063.93 1482.55 Q2067.27 1482.55 2069.19 1480.77 Q2071.11 1478.96 2071.11 1475.86 Q2071.11 1472.73 2069.19 1470.95 Q2067.29 1469.17 2063.93 1469.17 M2059.26 1467.18 Q2056.25 1466.44 2054.56 1464.38 Q2052.89 1462.32 2052.89 1459.35 Q2052.89 1455.21 2055.83 1452.8 Q2058.79 1450.39 2063.93 1450.39 Q2069.09 1450.39 2072.03 1452.8 Q2074.97 1455.21 2074.97 1459.35 Q2074.97 1462.32 2073.28 1464.38 Q2071.62 1466.44 2068.63 1467.18 Q2072.01 1467.96 2073.89 1470.26 Q2075.78 1472.55 2075.78 1475.86 Q2075.78 1480.88 2072.71 1483.57 Q2069.65 1486.25 2063.93 1486.25 Q2058.21 1486.25 2055.14 1483.57 Q2052.08 1480.88 2052.08 1475.86 Q2052.08 1472.55 2053.98 1470.26 Q2055.88 1467.96 2059.26 1467.18 M2057.54 1459.79 Q2057.54 1462.48 2059.21 1463.98 Q2060.9 1465.49 2063.93 1465.49 Q2066.94 1465.49 2068.63 1463.98 Q2070.34 1462.48 2070.34 1459.79 Q2070.34 1457.11 2068.63 1455.6 Q2066.94 1454.1 2063.93 1454.1 Q2060.9 1454.1 2059.21 1455.6 Q2057.54 1457.11 2057.54 1459.79 Z" fill="#000000" fill-rule="nonzero" fill-opacity="1" /><path clip-path="url(#clip640)" d="M2332.14 1481.64 L2348.46 1481.64 L2348.46 1485.58 L2326.52 1485.58 L2326.52 1481.64 Q2329.18 1478.89 2333.76 1474.26 Q2338.37 1469.61 2339.55 1468.27 Q2341.8 1465.74 2342.67 1464.01 Q2343.58 1462.25 2343.58 1460.56 Q2343.58 1457.8 2341.63 1456.07 Q2339.71 1454.33 2336.61 1454.33 Q2334.41 1454.33 2331.96 1455.09 Q2329.53 1455.86 2326.75 1457.41 L2326.75 1452.69 Q2329.57 1451.55 2332.03 1450.97 Q2334.48 1450.39 2336.52 1450.39 Q2341.89 1450.39 2345.08 1453.08 Q2348.28 1455.77 2348.28 1460.26 Q2348.28 1462.39 2347.47 1464.31 Q2346.68 1466.2 2344.57 1468.8 Q2343.99 1469.47 2340.89 1472.69 Q2337.79 1475.88 2332.14 1481.64 Z" fill="#000000" fill-rule="nonzero" fill-opacity="1" /><path clip-path="url(#clip640)" d="M2359.09 1481.64 L2366.73 1481.64 L2366.73 1455.28 L2358.42 1456.95 L2358.42 1452.69 L2366.68 1451.02 L2371.36 1451.02 L2371.36 1481.64 L2378.99 1481.64 L2378.99 1485.58 L2359.09 1485.58 L2359.09 1481.64 Z" fill="#000000" fill-rule="nonzero" fill-opacity="1" /><path clip-path="url(#clip640)" d="M1187.71 1525.81 L1187.71 1543.66 L1195.8 1543.66 Q1200.29 1543.66 1202.74 1541.34 Q1205.19 1539.02 1205.19 1534.72 Q1205.19 1530.45 1202.74 1528.13 Q1200.29 1525.81 1195.8 1525.81 L1187.71 1525.81 M1181.28 1520.52 L1195.8 1520.52 Q1203.79 1520.52 1207.86 1524.15 Q1211.97 1527.75 1211.97 1534.72 Q1211.97 1541.75 1207.86 1545.35 Q1203.79 1548.95 1195.8 1548.95 L1187.71 1548.95 L1187.71 1568.04 L1181.28 1568.04 L1181.28 1520.52 Z" fill="#000000" fill-rule="nonzero" fill-opacity="1" /><path clip-path="url(#clip640)" d="M1233.61 1550.12 Q1226.51 1550.12 1223.78 1551.75 Q1221.04 1553.37 1221.04 1557.29 Q1221.04 1560.4 1223.08 1562.25 Q1225.14 1564.07 1228.68 1564.07 Q1233.55 1564.07 1236.47 1560.63 Q1239.43 1557.16 1239.43 1551.43 L1239.43 1550.12 L1233.61 1550.12 M1245.29 1547.71 L1245.29 1568.04 L1239.43 1568.04 L1239.43 1562.63 Q1237.43 1565.88 1234.44 1567.44 Q1231.45 1568.97 1227.12 1568.97 Q1221.64 1568.97 1218.4 1565.91 Q1215.18 1562.82 1215.18 1557.67 Q1215.18 1551.65 1219.19 1548.6 Q1223.23 1545.54 1231.22 1545.54 L1239.43 1545.54 L1239.43 1544.97 Q1239.43 1540.93 1236.76 1538.73 Q1234.12 1536.5 1229.31 1536.5 Q1226.26 1536.5 1223.36 1537.23 Q1220.47 1537.97 1217.79 1539.43 L1217.79 1534.02 Q1221.01 1532.78 1224.03 1532.17 Q1227.05 1531.54 1229.92 1531.54 Q1237.65 1531.54 1241.47 1535.55 Q1245.29 1539.56 1245.29 1547.71 Z" fill="#000000" fill-rule="nonzero" fill-opacity="1" /><path clip-path="url(#clip640)" d="M1263.15 1522.27 L1263.15 1532.4 L1275.21 1532.4 L1275.21 1536.95 L1263.15 1536.95 L1263.15 1556.3 Q1263.15 1560.66 1264.32 1561.9 Q1265.53 1563.14 1269.19 1563.14 L1275.21 1563.14 L1275.21 1568.04 L1269.19 1568.04 Q1262.42 1568.04 1259.84 1565.53 Q1257.26 1562.98 1257.26 1556.3 L1257.26 1536.95 L1252.96 1536.95 L1252.96 1532.4 L1257.26 1532.4 L1257.26 1522.27 L1263.15 1522.27 Z" fill="#000000" fill-rule="nonzero" fill-opacity="1" /><path clip-path="url(#clip640)" d="M1288.71 1522.27 L1288.71 1532.4 L1300.77 1532.4 L1300.77 1536.95 L1288.71 1536.95 L1288.71 1556.3 Q1288.71 1560.66 1289.88 1561.9 Q1291.09 1563.14 1294.75 1563.14 L1300.77 1563.14 L1300.77 1568.04 L1294.75 1568.04 Q1287.97 1568.04 1285.4 1565.53 Q1282.82 1562.98 1282.82 1556.3 L1282.82 1536.95 L1278.52 1536.95 L1278.52 1532.4 L1282.82 1532.4 L1282.82 1522.27 L1288.71 1522.27 Z" fill="#000000" fill-rule="nonzero" fill-opacity="1" /><path clip-path="url(#clip640)" d="M1338.96 1548.76 L1338.96 1551.62 L1312.04 1551.62 Q1312.42 1557.67 1315.66 1560.85 Q1318.94 1564 1324.77 1564 Q1328.14 1564 1331.29 1563.17 Q1334.47 1562.35 1337.59 1560.69 L1337.59 1566.23 Q1334.44 1567.57 1331.13 1568.27 Q1327.82 1568.97 1324.42 1568.97 Q1315.89 1568.97 1310.89 1564 Q1305.92 1559.04 1305.92 1550.57 Q1305.92 1541.82 1310.64 1536.69 Q1315.38 1531.54 1323.4 1531.54 Q1330.59 1531.54 1334.76 1536.18 Q1338.96 1540.8 1338.96 1548.76 M1333.11 1547.04 Q1333.04 1542.23 1330.4 1539.37 Q1327.79 1536.5 1323.46 1536.5 Q1318.56 1536.5 1315.6 1539.27 Q1312.67 1542.04 1312.23 1547.07 L1333.11 1547.04 Z" fill="#000000" fill-rule="nonzero" fill-opacity="1" /><path clip-path="url(#clip640)" d="M1369.23 1537.87 Q1368.24 1537.3 1367.07 1537.04 Q1365.92 1536.76 1364.52 1536.76 Q1359.56 1536.76 1356.88 1540 Q1354.24 1543.22 1354.24 1549.27 L1354.24 1568.04 L1348.35 1568.04 L1348.35 1532.4 L1354.24 1532.4 L1354.24 1537.93 Q1356.09 1534.69 1359.05 1533.13 Q1362.01 1531.54 1366.24 1531.54 Q1366.84 1531.54 1367.58 1531.63 Q1368.31 1531.7 1369.2 1531.85 L1369.23 1537.87 Z" fill="#000000" fill-rule="nonzero" fill-opacity="1" /><path clip-path="url(#clip640)" d="M1403.86 1546.53 L1403.86 1568.04 L1398 1568.04 L1398 1546.72 Q1398 1541.66 1396.03 1539.14 Q1394.06 1536.63 1390.11 1536.63 Q1385.37 1536.63 1382.63 1539.65 Q1379.89 1542.68 1379.89 1547.9 L1379.89 1568.04 L1374.01 1568.04 L1374.01 1532.4 L1379.89 1532.4 L1379.89 1537.93 Q1381.99 1534.72 1384.83 1533.13 Q1387.69 1531.54 1391.42 1531.54 Q1397.56 1531.54 1400.71 1535.36 Q1403.86 1539.14 1403.86 1546.53 Z" fill="#000000" fill-rule="nonzero" fill-opacity="1" /><polyline clip-path="url(#clip642)" style="stroke:#000000; stroke-linecap:round; stroke-linejoin:round; stroke-width:2; stroke-opacity:0.1; fill:none" points="232.389,1423.18 2352.76,1423.18 "/>
<polyline clip-path="url(#clip642)" style="stroke:#000000; stroke-linecap:round; stroke-linejoin:round; stroke-width:2; stroke-opacity:0.1; fill:none" points="232.389,1147.99 2352.76,1147.99 "/>
<polyline clip-path="url(#clip642)" style="stroke:#000000; stroke-linecap:round; stroke-linejoin:round; stroke-width:2; stroke-opacity:0.1; fill:none" points="232.389,872.806 2352.76,872.806 "/>
<polyline clip-path="url(#clip642)" style="stroke:#000000; stroke-linecap:round; stroke-linejoin:round; stroke-width:2; stroke-opacity:0.1; fill:none" points="232.389,597.618 2352.76,597.618 "/>
<polyline clip-path="url(#clip642)" style="stroke:#000000; stroke-linecap:round; stroke-linejoin:round; stroke-width:2; stroke-opacity:0.1; fill:none" points="232.389,322.431 2352.76,322.431 "/>
<polyline clip-path="url(#clip642)" style="stroke:#000000; stroke-linecap:round; stroke-linejoin:round; stroke-width:2; stroke-opacity:0.1; fill:none" points="232.389,47.2441 2352.76,47.2441 "/>
<polyline clip-path="url(#clip640)" style="stroke:#000000; stroke-linecap:round; stroke-linejoin:round; stroke-width:4; stroke-opacity:1; fill:none" points="232.389,1423.18 232.389,47.2441 "/>
<polyline clip-path="url(#clip640)" style="stroke:#000000; stroke-linecap:round; stroke-linejoin:round; stroke-width:4; stroke-opacity:1; fill:none" points="232.389,1423.18 251.287,1423.18 "/>
<polyline clip-path="url(#clip640)" style="stroke:#000000; stroke-linecap:round; stroke-linejoin:round; stroke-width:4; stroke-opacity:1; fill:none" points="232.389,1147.99 251.287,1147.99 "/>
<polyline clip-path="url(#clip640)" style="stroke:#000000; stroke-linecap:round; stroke-linejoin:round; stroke-width:4; stroke-opacity:1; fill:none" points="232.389,872.806 251.287,872.806 "/>
<polyline clip-path="url(#clip640)" style="stroke:#000000; stroke-linecap:round; stroke-linejoin:round; stroke-width:4; stroke-opacity:1; fill:none" points="232.389,597.618 251.287,597.618 "/>
<polyline clip-path="url(#clip640)" style="stroke:#000000; stroke-linecap:round; stroke-linejoin:round; stroke-width:4; stroke-opacity:1; fill:none" points="232.389,322.431 251.287,322.431 "/>
<polyline clip-path="url(#clip640)" style="stroke:#000000; stroke-linecap:round; stroke-linejoin:round; stroke-width:4; stroke-opacity:1; fill:none" points="232.389,47.2441 251.287,47.2441 "/>
<path clip-path="url(#clip640)" d="M184.445 1408.98 Q180.834 1408.98 179.005 1412.54 Q177.2 1416.08 177.2 1423.21 Q177.2 1430.32 179.005 1433.89 Q180.834 1437.43 184.445 1437.43 Q188.079 1437.43 189.885 1433.89 Q191.713 1430.32 191.713 1423.21 Q191.713 1416.08 189.885 1412.54 Q188.079 1408.98 184.445 1408.98 M184.445 1405.27 Q190.255 1405.27 193.311 1409.88 Q196.389 1414.46 196.389 1423.21 Q196.389 1431.94 193.311 1436.55 Q190.255 1441.13 184.445 1441.13 Q178.635 1441.13 175.556 1436.55 Q172.501 1431.94 172.501 1423.21 Q172.501 1414.46 175.556 1409.88 Q178.635 1405.27 184.445 1405.27 Z" fill="#000000" fill-rule="nonzero" fill-opacity="1" /><path clip-path="url(#clip640)" d="M148.311 1161.34 L164.63 1161.34 L164.63 1165.27 L142.686 1165.27 L142.686 1161.34 Q145.348 1158.58 149.931 1153.95 Q154.538 1149.3 155.718 1147.96 Q157.964 1145.43 158.843 1143.7 Q159.746 1141.94 159.746 1140.25 Q159.746 1137.5 157.802 1135.76 Q155.88 1134.02 152.778 1134.02 Q150.579 1134.02 148.126 1134.79 Q145.695 1135.55 142.917 1137.1 L142.917 1132.38 Q145.741 1131.25 148.195 1130.67 Q150.649 1130.09 152.686 1130.09 Q158.056 1130.09 161.251 1132.77 Q164.445 1135.46 164.445 1139.95 Q164.445 1142.08 163.635 1144 Q162.848 1145.9 160.741 1148.49 Q160.163 1149.16 157.061 1152.38 Q153.959 1155.57 148.311 1161.34 Z" fill="#000000" fill-rule="nonzero" fill-opacity="1" /><path clip-path="url(#clip640)" d="M184.445 1133.79 Q180.834 1133.79 179.005 1137.36 Q177.2 1140.9 177.2 1148.03 Q177.2 1155.13 179.005 1158.7 Q180.834 1162.24 184.445 1162.24 Q188.079 1162.24 189.885 1158.7 Q191.713 1155.13 191.713 1148.03 Q191.713 1140.9 189.885 1137.36 Q188.079 1133.79 184.445 1133.79 M184.445 1130.09 Q190.255 1130.09 193.311 1134.69 Q196.389 1139.28 196.389 1148.03 Q196.389 1156.75 193.311 1161.36 Q190.255 1165.94 184.445 1165.94 Q178.635 1165.94 175.556 1161.36 Q172.501 1156.75 172.501 1148.03 Q172.501 1139.28 175.556 1134.69 Q178.635 1130.09 184.445 1130.09 Z" fill="#000000" fill-rule="nonzero" fill-opacity="1" /><path clip-path="url(#clip640)" d="M157.13 859.6 L145.325 878.049 L157.13 878.049 L157.13 859.6 M155.903 855.526 L161.783 855.526 L161.783 878.049 L166.714 878.049 L166.714 881.937 L161.783 881.937 L161.783 890.086 L157.13 890.086 L157.13 881.937 L141.529 881.937 L141.529 877.424 L155.903 855.526 Z" fill="#000000" fill-rule="nonzero" fill-opacity="1" /><path clip-path="url(#clip640)" d="M184.445 858.604 Q180.834 858.604 179.005 862.169 Q177.2 865.711 177.2 872.84 Q177.2 879.947 179.005 883.512 Q180.834 887.053 184.445 887.053 Q188.079 887.053 189.885 883.512 Q191.713 879.947 191.713 872.84 Q191.713 865.711 189.885 862.169 Q188.079 858.604 184.445 858.604 M184.445 854.901 Q190.255 854.901 193.311 859.507 Q196.389 864.09 196.389 872.84 Q196.389 881.567 193.311 886.174 Q190.255 890.757 184.445 890.757 Q178.635 890.757 175.556 886.174 Q172.501 881.567 172.501 872.84 Q172.501 864.09 175.556 859.507 Q178.635 854.901 184.445 854.901 Z" fill="#000000" fill-rule="nonzero" fill-opacity="1" /><path clip-path="url(#clip640)" d="M154.862 595.755 Q151.714 595.755 149.862 597.908 Q148.033 600.061 148.033 603.81 Q148.033 607.537 149.862 609.713 Q151.714 611.866 154.862 611.866 Q158.01 611.866 159.839 609.713 Q161.69 607.537 161.69 603.81 Q161.69 600.061 159.839 597.908 Q158.01 595.755 154.862 595.755 M164.144 581.102 L164.144 585.362 Q162.385 584.528 160.579 584.088 Q158.797 583.649 157.038 583.649 Q152.408 583.649 149.954 586.774 Q147.524 589.899 147.177 596.218 Q148.542 594.204 150.603 593.139 Q152.663 592.051 155.14 592.051 Q160.348 592.051 163.357 595.223 Q166.39 598.371 166.39 603.81 Q166.39 609.135 163.241 612.352 Q160.093 615.57 154.862 615.57 Q148.866 615.57 145.695 610.986 Q142.524 606.38 142.524 597.653 Q142.524 589.459 146.413 584.598 Q150.302 579.713 156.853 579.713 Q158.612 579.713 160.394 580.061 Q162.2 580.408 164.144 581.102 Z" fill="#000000" fill-rule="nonzero" fill-opacity="1" /><path clip-path="url(#clip640)" d="M184.445 583.417 Q180.834 583.417 179.005 586.982 Q177.2 590.524 177.2 597.653 Q177.2 604.76 179.005 608.324 Q180.834 611.866 184.445 611.866 Q188.079 611.866 189.885 608.324 Q191.713 604.76 191.713 597.653 Q191.713 590.524 189.885 586.982 Q188.079 583.417 184.445 583.417 M184.445 579.713 Q190.255 579.713 193.311 584.32 Q196.389 588.903 196.389 597.653 Q196.389 606.38 193.311 610.986 Q190.255 615.57 184.445 615.57 Q178.635 615.57 175.556 610.986 Q172.501 606.38 172.501 597.653 Q172.501 588.903 175.556 584.32 Q178.635 579.713 184.445 579.713 Z" fill="#000000" fill-rule="nonzero" fill-opacity="1" /><path clip-path="url(#clip640)" d="M154.283 323.299 Q150.95 323.299 149.028 325.082 Q147.13 326.864 147.13 329.989 Q147.13 333.114 149.028 334.896 Q150.95 336.679 154.283 336.679 Q157.616 336.679 159.538 334.896 Q161.459 333.091 161.459 329.989 Q161.459 326.864 159.538 325.082 Q157.64 323.299 154.283 323.299 M149.607 321.309 Q146.598 320.568 144.908 318.508 Q143.241 316.447 143.241 313.485 Q143.241 309.341 146.181 306.934 Q149.144 304.526 154.283 304.526 Q159.445 304.526 162.385 306.934 Q165.325 309.341 165.325 313.485 Q165.325 316.447 163.635 318.508 Q161.968 320.568 158.982 321.309 Q162.362 322.096 164.237 324.387 Q166.135 326.679 166.135 329.989 Q166.135 335.012 163.056 337.697 Q160.001 340.383 154.283 340.383 Q148.566 340.383 145.487 337.697 Q142.431 335.012 142.431 329.989 Q142.431 326.679 144.329 324.387 Q146.228 322.096 149.607 321.309 M147.894 313.924 Q147.894 316.61 149.561 318.114 Q151.251 319.619 154.283 319.619 Q157.292 319.619 158.982 318.114 Q160.695 316.61 160.695 313.924 Q160.695 311.239 158.982 309.735 Q157.292 308.23 154.283 308.23 Q151.251 308.23 149.561 309.735 Q147.894 311.239 147.894 313.924 Z" fill="#000000" fill-rule="nonzero" fill-opacity="1" /><path clip-path="url(#clip640)" d="M184.445 308.23 Q180.834 308.23 179.005 311.795 Q177.2 315.336 177.2 322.466 Q177.2 329.572 179.005 333.137 Q180.834 336.679 184.445 336.679 Q188.079 336.679 189.885 333.137 Q191.713 329.572 191.713 322.466 Q191.713 315.336 189.885 311.795 Q188.079 308.23 184.445 308.23 M184.445 304.526 Q190.255 304.526 193.311 309.133 Q196.389 313.716 196.389 322.466 Q196.389 331.193 193.311 335.799 Q190.255 340.383 184.445 340.383 Q178.635 340.383 175.556 335.799 Q172.501 331.193 172.501 322.466 Q172.501 313.716 175.556 309.133 Q178.635 304.526 184.445 304.526 Z" fill="#000000" fill-rule="nonzero" fill-opacity="1" /><path clip-path="url(#clip640)" d="M114.931 60.5889 L122.57 60.5889 L122.57 34.2233 L114.26 35.89 L114.26 31.6308 L122.524 29.9641 L127.2 29.9641 L127.2 60.5889 L134.839 60.5889 L134.839 64.5241 L114.931 64.5241 L114.931 60.5889 Z" fill="#000000" fill-rule="nonzero" fill-opacity="1" /><path clip-path="url(#clip640)" d="M154.283 33.0428 Q150.672 33.0428 148.843 36.6076 Q147.038 40.1492 147.038 47.2788 Q147.038 54.3853 148.843 57.9501 Q150.672 61.4917 154.283 61.4917 Q157.917 61.4917 159.723 57.9501 Q161.552 54.3853 161.552 47.2788 Q161.552 40.1492 159.723 36.6076 Q157.917 33.0428 154.283 33.0428 M154.283 29.3391 Q160.093 29.3391 163.149 33.9456 Q166.227 38.5289 166.227 47.2788 Q166.227 56.0056 163.149 60.6121 Q160.093 65.1954 154.283 65.1954 Q148.473 65.1954 145.394 60.6121 Q142.339 56.0056 142.339 47.2788 Q142.339 38.5289 145.394 33.9456 Q148.473 29.3391 154.283 29.3391 Z" fill="#000000" fill-rule="nonzero" fill-opacity="1" /><path clip-path="url(#clip640)" d="M184.445 33.0428 Q180.834 33.0428 179.005 36.6076 Q177.2 40.1492 177.2 47.2788 Q177.2 54.3853 179.005 57.9501 Q180.834 61.4917 184.445 61.4917 Q188.079 61.4917 189.885 57.9501 Q191.713 54.3853 191.713 47.2788 Q191.713 40.1492 189.885 36.6076 Q188.079 33.0428 184.445 33.0428 M184.445 29.3391 Q190.255 29.3391 193.311 33.9456 Q196.389 38.5289 196.389 47.2788 Q196.389 56.0056 193.311 60.6121 Q190.255 65.1954 184.445 65.1954 Q178.635 65.1954 175.556 60.6121 Q172.501 56.0056 172.501 47.2788 Q172.501 38.5289 175.556 33.9456 Q178.635 29.3391 184.445 29.3391 Z" fill="#000000" fill-rule="nonzero" fill-opacity="1" /><path clip-path="url(#clip640)" d="M41.7242 880.191 Q42.4244 878.122 44.7161 876.181 Q47.0077 874.207 51.0181 872.234 L64.0042 865.709 L64.0042 872.616 L51.8138 878.695 Q47.0395 881.05 45.48 883.278 Q43.9204 885.474 43.9204 889.294 L43.9204 896.296 L64.0042 896.296 L64.0042 902.726 L16.4842 902.726 L16.4842 888.212 Q16.4842 880.064 19.8898 876.053 Q23.2955 872.043 30.1704 872.043 Q34.6582 872.043 37.6183 874.144 Q40.5784 876.212 41.7242 880.191 M21.7677 896.296 L38.6368 896.296 L38.6368 888.212 Q38.6368 883.565 36.5043 881.209 Q34.34 878.822 30.1704 878.822 Q26.0009 878.822 23.9002 881.209 Q21.7677 883.565 21.7677 888.212 L21.7677 896.296 Z" fill="#000000" fill-rule="nonzero" fill-opacity="1" /><path clip-path="url(#clip640)" d="M32.4621 846.803 Q32.4621 851.513 36.1542 854.251 Q39.8145 856.988 46.212 856.988 Q52.6095 856.988 56.3017 854.283 Q59.9619 851.545 59.9619 846.803 Q59.9619 842.124 56.2698 839.387 Q52.5777 836.65 46.212 836.65 Q39.8781 836.65 36.186 839.387 Q32.4621 842.124 32.4621 846.803 M27.4968 846.803 Q27.4968 839.164 32.4621 834.803 Q37.4273 830.443 46.212 830.443 Q54.9649 830.443 59.9619 834.803 Q64.9272 839.164 64.9272 846.803 Q64.9272 854.473 59.9619 858.834 Q54.9649 863.163 46.212 863.163 Q37.4273 863.163 32.4621 858.834 Q27.4968 854.473 27.4968 846.803 Z" fill="#000000" fill-rule="nonzero" fill-opacity="1" /><path clip-path="url(#clip640)" d="M14.479 820.735 L14.479 814.879 L64.0042 814.879 L64.0042 820.735 L14.479 820.735 Z" fill="#000000" fill-rule="nonzero" fill-opacity="1" /><path clip-path="url(#clip640)" d="M14.479 802.625 L14.479 796.768 L64.0042 796.768 L64.0042 802.625 L14.479 802.625 Z" fill="#000000" fill-rule="nonzero" fill-opacity="1" /><path clip-path="url(#clip640)" d="M14.479 763.794 L14.479 757.938 L64.0042 757.938 L64.0042 763.794 L14.479 763.794 Z" fill="#000000" fill-rule="nonzero" fill-opacity="1" /><path clip-path="url(#clip640)" d="M44.7161 715.192 L47.5806 715.192 L47.5806 742.119 Q53.6281 741.737 56.8109 738.49 Q59.9619 735.212 59.9619 729.387 Q59.9619 726.014 59.1344 722.862 Q58.3069 719.68 56.6518 716.56 L62.1899 716.56 Q63.5267 719.711 64.227 723.022 Q64.9272 726.332 64.9272 729.737 Q64.9272 738.268 59.9619 743.265 Q54.9967 748.23 46.5303 748.23 Q37.7774 748.23 32.6531 743.519 Q27.4968 738.777 27.4968 730.756 Q27.4968 723.563 32.1438 719.393 Q36.7589 715.192 44.7161 715.192 M42.9973 721.048 Q38.1912 721.112 35.3266 723.754 Q32.4621 726.364 32.4621 730.692 Q32.4621 735.594 35.2312 738.554 Q38.0002 741.482 43.0292 741.928 L42.9973 721.048 Z" fill="#000000" fill-rule="nonzero" fill-opacity="1" /><path clip-path="url(#clip640)" d="M42.4881 675.947 L64.0042 675.947 L64.0042 681.804 L42.679 681.804 Q37.6183 681.804 35.1038 683.777 Q32.5894 685.75 32.5894 689.697 Q32.5894 694.44 35.6131 697.177 Q38.6368 699.914 43.8567 699.914 L64.0042 699.914 L64.0042 705.802 L28.3562 705.802 L28.3562 699.914 L33.8944 699.914 Q30.6797 697.813 29.0883 694.981 Q27.4968 692.116 27.4968 688.392 Q27.4968 682.249 31.3163 679.098 Q35.1038 675.947 42.4881 675.947 Z" fill="#000000" fill-rule="nonzero" fill-opacity="1" /><path clip-path="url(#clip640)" d="M45.7664 640.809 Q39.4007 640.809 35.8996 643.45 Q32.3984 646.06 32.3984 650.803 Q32.3984 655.513 35.8996 658.155 Q39.4007 660.765 45.7664 660.765 Q52.1003 660.765 55.6014 658.155 Q59.1026 655.513 59.1026 650.803 Q59.1026 646.06 55.6014 643.45 Q52.1003 640.809 45.7664 640.809 M59.58 634.952 Q68.683 634.952 73.1071 638.994 Q77.5631 643.037 77.5631 651.376 Q77.5631 654.463 77.0857 657.2 Q76.6401 659.937 75.6852 662.516 L69.9879 662.516 Q71.3884 659.937 72.0568 657.423 Q72.7252 654.909 72.7252 652.299 Q72.7252 646.538 69.7015 643.673 Q66.7096 640.809 60.6303 640.809 L57.7339 640.809 Q60.885 642.623 62.4446 645.456 Q64.0042 648.288 64.0042 652.235 Q64.0042 658.792 59.0071 662.802 Q54.01 666.812 45.7664 666.812 Q37.491 666.812 32.4939 662.802 Q27.4968 658.792 27.4968 652.235 Q27.4968 648.288 29.0564 645.456 Q30.616 642.623 33.7671 640.809 L28.3562 640.809 L28.3562 634.952 L59.58 634.952 Z" fill="#000000" fill-rule="nonzero" fill-opacity="1" /><path clip-path="url(#clip640)" d="M18.2347 617.096 L28.3562 617.096 L28.3562 605.033 L32.9077 605.033 L32.9077 617.096 L52.2594 617.096 Q56.6199 617.096 57.8613 615.919 Q59.1026 614.709 59.1026 611.049 L59.1026 605.033 L64.0042 605.033 L64.0042 611.049 Q64.0042 617.828 61.4897 620.406 Q58.9434 622.985 52.2594 622.985 L32.9077 622.985 L32.9077 627.281 L28.3562 627.281 L28.3562 622.985 L18.2347 622.985 L18.2347 617.096 Z" fill="#000000" fill-rule="nonzero" fill-opacity="1" /><path clip-path="url(#clip640)" d="M42.4881 567.698 L64.0042 567.698 L64.0042 573.555 L42.679 573.555 Q37.6183 573.555 35.1038 575.528 Q32.5894 577.502 32.5894 581.448 Q32.5894 586.191 35.6131 588.928 Q38.6368 591.665 43.8567 591.665 L64.0042 591.665 L64.0042 597.554 L14.479 597.554 L14.479 591.665 L33.8944 591.665 Q30.6797 589.565 29.0883 586.732 Q27.4968 583.867 27.4968 580.143 Q27.4968 574 31.3163 570.849 Q35.1038 567.698 42.4881 567.698 Z" fill="#000000" fill-rule="nonzero" fill-opacity="1" /><path clip-path="url(#clip642)" d="M303.068 391.228 L303.068 1423.18 L363.65 1423.18 L363.65 391.228 L303.068 391.228 L303.068 391.228  Z" fill="#90caf9" fill-rule="evenodd" fill-opacity="1"/>
<polyline clip-path="url(#clip642)" style="stroke:#000000; stroke-linecap:round; stroke-linejoin:round; stroke-width:4; stroke-opacity:1; fill:none" points="303.068,391.228 303.068,1423.18 363.65,1423.18 363.65,391.228 303.068,391.228 "/>
<circle clip-path="url(#clip642)" style="fill:#90caf9; stroke:none; fill-opacity:0" cx="333.359" cy="391.228" r="2"/>
<path clip-path="url(#clip642)" d="M404.038 391.228 L404.038 1423.18 L464.62 1423.18 L464.62 391.228 L404.038 391.228 L404.038 391.228  Z" fill="#90caf9" fill-rule="evenodd" fill-opacity="1"/>
<polyline clip-path="url(#clip642)" style="stroke:#000000; stroke-linecap:round; stroke-linejoin:round; stroke-width:4; stroke-opacity:1; fill:none" points="404.038,391.228 404.038,1423.18 464.62,1423.18 464.62,391.228 404.038,391.228 "/>
<circle clip-path="url(#clip642)" style="fill:#90caf9; stroke:none; fill-opacity:0" cx="434.329" cy="391.228" r="2"/>
<path clip-path="url(#clip642)" d="M505.008 391.228 L505.008 1423.18 L565.59 1423.18 L565.59 391.228 L505.008 391.228 L505.008 391.228  Z" fill="#90caf9" fill-rule="evenodd" fill-opacity="1"/>
<polyline clip-path="url(#clip642)" style="stroke:#000000; stroke-linecap:round; stroke-linejoin:round; stroke-width:4; stroke-opacity:1; fill:none" points="505.008,391.228 505.008,1423.18 565.59,1423.18 565.59,391.228 505.008,391.228 "/>
<circle clip-path="url(#clip642)" style="fill:#90caf9; stroke:none; fill-opacity:0" cx="535.299" cy="391.228" r="2"/>
<path clip-path="url(#clip642)" d="M605.978 391.228 L605.978 1423.18 L666.56 1423.18 L666.56 391.228 L605.978 391.228 L605.978 391.228  Z" fill="#90caf9" fill-rule="evenodd" fill-opacity="1"/>
<polyline clip-path="url(#clip642)" style="stroke:#000000; stroke-linecap:round; stroke-linejoin:round; stroke-width:4; stroke-opacity:1; fill:none" points="605.978,391.228 605.978,1423.18 666.56,1423.18 666.56,391.228 605.978,391.228 "/>
<circle clip-path="url(#clip642)" style="fill:#90caf9; stroke:none; fill-opacity:0" cx="636.269" cy="391.228" r="2"/>
<path clip-path="url(#clip642)" d="M706.948 391.228 L706.948 1423.18 L767.529 1423.18 L767.529 391.228 L706.948 391.228 L706.948 391.228  Z" fill="#90caf9" fill-rule="evenodd" fill-opacity="1"/>
<polyline clip-path="url(#clip642)" style="stroke:#000000; stroke-linecap:round; stroke-linejoin:round; stroke-width:4; stroke-opacity:1; fill:none" points="706.948,391.228 706.948,1423.18 767.529,1423.18 767.529,391.228 706.948,391.228 "/>
<circle clip-path="url(#clip642)" style="fill:#90caf9; stroke:none; fill-opacity:0" cx="737.239" cy="391.228" r="2"/>
<path clip-path="url(#clip642)" d="M807.917 682.926 L807.917 1423.18 L868.499 1423.18 L868.499 682.926 L807.917 682.926 L807.917 682.926  Z" fill="#90caf9" fill-rule="evenodd" fill-opacity="1"/>
<polyline clip-path="url(#clip642)" style="stroke:#000000; stroke-linecap:round; stroke-linejoin:round; stroke-width:4; stroke-opacity:1; fill:none" points="807.917,682.926 807.917,1423.18 868.499,1423.18 868.499,682.926 807.917,682.926 "/>
<circle clip-path="url(#clip642)" style="fill:#90caf9; stroke:none; fill-opacity:0" cx="838.208" cy="682.926" r="2"/>
<path clip-path="url(#clip642)" d="M908.887 693.934 L908.887 1423.18 L969.469 1423.18 L969.469 693.934 L908.887 693.934 L908.887 693.934  Z" fill="#90caf9" fill-rule="evenodd" fill-opacity="1"/>
<polyline clip-path="url(#clip642)" style="stroke:#000000; stroke-linecap:round; stroke-linejoin:round; stroke-width:4; stroke-opacity:1; fill:none" points="908.887,693.934 908.887,1423.18 969.469,1423.18 969.469,693.934 908.887,693.934 "/>
<circle clip-path="url(#clip642)" style="fill:#90caf9; stroke:none; fill-opacity:0" cx="939.178" cy="693.934" r="2"/>
<path clip-path="url(#clip642)" d="M1009.86 721.453 L1009.86 1423.18 L1070.44 1423.18 L1070.44 721.453 L1009.86 721.453 L1009.86 721.453  Z" fill="#90caf9" fill-rule="evenodd" fill-opacity="1"/>
<polyline clip-path="url(#clip642)" style="stroke:#000000; stroke-linecap:round; stroke-linejoin:round; stroke-width:4; stroke-opacity:1; fill:none" points="1009.86,721.453 1009.86,1423.18 1070.44,1423.18 1070.44,721.453 1009.86,721.453 "/>
<circle clip-path="url(#clip642)" style="fill:#90caf9; stroke:none; fill-opacity:0" cx="1040.15" cy="721.453" r="2"/>
<path clip-path="url(#clip642)" d="M1110.83 732.46 L1110.83 1423.18 L1171.41 1423.18 L1171.41 732.46 L1110.83 732.46 L1110.83 732.46  Z" fill="#90caf9" fill-rule="evenodd" fill-opacity="1"/>
<polyline clip-path="url(#clip642)" style="stroke:#000000; stroke-linecap:round; stroke-linejoin:round; stroke-width:4; stroke-opacity:1; fill:none" points="1110.83,732.46 1110.83,1423.18 1171.41,1423.18 1171.41,732.46 1110.83,732.46 "/>
<circle clip-path="url(#clip642)" style="fill:#90caf9; stroke:none; fill-opacity:0" cx="1141.12" cy="732.46" r="2"/>
<path clip-path="url(#clip642)" d="M1211.8 94.0259 L1211.8 1423.18 L1272.38 1423.18 L1272.38 94.0259 L1211.8 94.0259 L1211.8 94.0259  Z" fill="#90caf9" fill-rule="evenodd" fill-opacity="1"/>
<polyline clip-path="url(#clip642)" style="stroke:#000000; stroke-linecap:round; stroke-linejoin:round; stroke-width:4; stroke-opacity:1; fill:none" points="1211.8,94.0259 1211.8,1423.18 1272.38,1423.18 1272.38,94.0259 1211.8,94.0259 "/>
<path clip-path="url(#clip642)" d="M1211.8 537.077 L1211.8 1423.18 L1272.38 1423.18 L1272.38 537.077 L1211.8 537.077 L1211.8 537.077  Z" fill="#90caf9" fill-rule="evenodd" fill-opacity="1"/>
<polyline clip-path="url(#clip642)" style="stroke:#000000; stroke-linecap:round; stroke-linejoin:round; stroke-width:4; stroke-opacity:1; fill:none" points="1211.8,537.077 1211.8,1423.18 1272.38,1423.18 1272.38,537.077 1211.8,537.077 "/>
<path clip-path="url(#clip642)" d="M1211.8 980.129 L1211.8 1423.18 L1272.38 1423.18 L1272.38 980.129 L1211.8 980.129 L1211.8 980.129  Z" fill="#90caf9" fill-rule="evenodd" fill-opacity="1"/>
<polyline clip-path="url(#clip642)" style="stroke:#000000; stroke-linecap:round; stroke-linejoin:round; stroke-width:4; stroke-opacity:1; fill:none" points="1211.8,980.129 1211.8,1423.18 1272.38,1423.18 1272.38,980.129 1211.8,980.129 "/>
<circle clip-path="url(#clip642)" style="fill:#90caf9; stroke:none; fill-opacity:0" cx="1242.09" cy="94.0259" r="2"/>
<circle clip-path="url(#clip642)" style="fill:#90caf9; stroke:none; fill-opacity:0" cx="1242.09" cy="537.077" r="2"/>
<circle clip-path="url(#clip642)" style="fill:#90caf9; stroke:none; fill-opacity:0" cx="1242.09" cy="980.129" r="2"/>
<path clip-path="url(#clip642)" d="M1312.77 151.815 L1312.77 1423.18 L1373.35 1423.18 L1373.35 151.815 L1312.77 151.815 L1312.77 151.815  Z" fill="#90caf9" fill-rule="evenodd" fill-opacity="1"/>
<polyline clip-path="url(#clip642)" style="stroke:#000000; stroke-linecap:round; stroke-linejoin:round; stroke-width:4; stroke-opacity:1; fill:none" points="1312.77,151.815 1312.77,1423.18 1373.35,1423.18 1373.35,151.815 1312.77,151.815 "/>
<path clip-path="url(#clip642)" d="M1312.77 575.603 L1312.77 1423.18 L1373.35 1423.18 L1373.35 575.603 L1312.77 575.603 L1312.77 575.603  Z" fill="#90caf9" fill-rule="evenodd" fill-opacity="1"/>
<polyline clip-path="url(#clip642)" style="stroke:#000000; stroke-linecap:round; stroke-linejoin:round; stroke-width:4; stroke-opacity:1; fill:none" points="1312.77,575.603 1312.77,1423.18 1373.35,1423.18 1373.35,575.603 1312.77,575.603 "/>
<path clip-path="url(#clip642)" d="M1312.77 999.392 L1312.77 1423.18 L1373.35 1423.18 L1373.35 999.392 L1312.77 999.392 L1312.77 999.392  Z" fill="#90caf9" fill-rule="evenodd" fill-opacity="1"/>
<polyline clip-path="url(#clip642)" style="stroke:#000000; stroke-linecap:round; stroke-linejoin:round; stroke-width:4; stroke-opacity:1; fill:none" points="1312.77,999.392 1312.77,1423.18 1373.35,1423.18 1373.35,999.392 1312.77,999.392 "/>
<circle clip-path="url(#clip642)" style="fill:#90caf9; stroke:none; fill-opacity:0" cx="1343.06" cy="151.815" r="2"/>
<circle clip-path="url(#clip642)" style="fill:#90caf9; stroke:none; fill-opacity:0" cx="1343.06" cy="575.603" r="2"/>
<circle clip-path="url(#clip642)" style="fill:#90caf9; stroke:none; fill-opacity:0" cx="1343.06" cy="999.392" r="2"/>
<path clip-path="url(#clip642)" d="M1413.74 193.093 L1413.74 1423.18 L1474.32 1423.18 L1474.32 193.093 L1413.74 193.093 L1413.74 193.093  Z" fill="#90caf9" fill-rule="evenodd" fill-opacity="1"/>
<polyline clip-path="url(#clip642)" style="stroke:#000000; stroke-linecap:round; stroke-linejoin:round; stroke-width:4; stroke-opacity:1; fill:none" points="1413.74,193.093 1413.74,1423.18 1474.32,1423.18 1474.32,193.093 1413.74,193.093 "/>
<path clip-path="url(#clip642)" d="M1413.74 603.122 L1413.74 1423.18 L1474.32 1423.18 L1474.32 603.122 L1413.74 603.122 L1413.74 603.122  Z" fill="#90caf9" fill-rule="evenodd" fill-opacity="1"/>
<polyline clip-path="url(#clip642)" style="stroke:#000000; stroke-linecap:round; stroke-linejoin:round; stroke-width:4; stroke-opacity:1; fill:none" points="1413.74,603.122 1413.74,1423.18 1474.32,1423.18 1474.32,603.122 1413.74,603.122 "/>
<path clip-path="url(#clip642)" d="M1413.74 1013.15 L1413.74 1423.18 L1474.32 1423.18 L1474.32 1013.15 L1413.74 1013.15 L1413.74 1013.15  Z" fill="#90caf9" fill-rule="evenodd" fill-opacity="1"/>
<polyline clip-path="url(#clip642)" style="stroke:#000000; stroke-linecap:round; stroke-linejoin:round; stroke-width:4; stroke-opacity:1; fill:none" points="1413.74,1013.15 1413.74,1423.18 1474.32,1423.18 1474.32,1013.15 1413.74,1013.15 "/>
<circle clip-path="url(#clip642)" style="fill:#90caf9; stroke:none; fill-opacity:0" cx="1444.03" cy="193.093" r="2"/>
<circle clip-path="url(#clip642)" style="fill:#90caf9; stroke:none; fill-opacity:0" cx="1444.03" cy="603.122" r="2"/>
<circle clip-path="url(#clip642)" style="fill:#90caf9; stroke:none; fill-opacity:0" cx="1444.03" cy="1013.15" r="2"/>
<path clip-path="url(#clip642)" d="M1514.71 316.928 L1514.71 1423.18 L1575.29 1423.18 L1575.29 316.928 L1514.71 316.928 L1514.71 316.928  Z" fill="#90caf9" fill-rule="evenodd" fill-opacity="1"/>
<polyline clip-path="url(#clip642)" style="stroke:#000000; stroke-linecap:round; stroke-linejoin:round; stroke-width:4; stroke-opacity:1; fill:none" points="1514.71,316.928 1514.71,1423.18 1575.29,1423.18 1575.29,316.928 1514.71,316.928 "/>
<path clip-path="url(#clip642)" d="M1514.71 593.491 L1514.71 1423.18 L1575.29 1423.18 L1575.29 593.491 L1514.71 593.491 L1514.71 593.491  Z" fill="#90caf9" fill-rule="evenodd" fill-opacity="1"/>
<polyline clip-path="url(#clip642)" style="stroke:#000000; stroke-linecap:round; stroke-linejoin:round; stroke-width:4; stroke-opacity:1; fill:none" points="1514.71,593.491 1514.71,1423.18 1575.29,1423.18 1575.29,593.491 1514.71,593.491 "/>
<path clip-path="url(#clip642)" d="M1514.71 870.054 L1514.71 1423.18 L1575.29 1423.18 L1575.29 870.054 L1514.71 870.054 L1514.71 870.054  Z" fill="#90caf9" fill-rule="evenodd" fill-opacity="1"/>
<polyline clip-path="url(#clip642)" style="stroke:#000000; stroke-linecap:round; stroke-linejoin:round; stroke-width:4; stroke-opacity:1; fill:none" points="1514.71,870.054 1514.71,1423.18 1575.29,1423.18 1575.29,870.054 1514.71,870.054 "/>
<path clip-path="url(#clip642)" d="M1514.71 1146.62 L1514.71 1423.18 L1575.29 1423.18 L1575.29 1146.62 L1514.71 1146.62 L1514.71 1146.62  Z" fill="#90caf9" fill-rule="evenodd" fill-opacity="1"/>
<polyline clip-path="url(#clip642)" style="stroke:#000000; stroke-linecap:round; stroke-linejoin:round; stroke-width:4; stroke-opacity:1; fill:none" points="1514.71,1146.62 1514.71,1423.18 1575.29,1423.18 1575.29,1146.62 1514.71,1146.62 "/>
<circle clip-path="url(#clip642)" style="fill:#90caf9; stroke:none; fill-opacity:0" cx="1545" cy="316.928" r="2"/>
<circle clip-path="url(#clip642)" style="fill:#90caf9; stroke:none; fill-opacity:0" cx="1545" cy="593.491" r="2"/>
<circle clip-path="url(#clip642)" style="fill:#90caf9; stroke:none; fill-opacity:0" cx="1545" cy="870.054" r="2"/>
<circle clip-path="url(#clip642)" style="fill:#90caf9; stroke:none; fill-opacity:0" cx="1545" cy="1146.62" r="2"/>
<path clip-path="url(#clip642)" d="M1615.68 85.7703 L1615.68 1423.18 L1676.26 1423.18 L1676.26 85.7703 L1615.68 85.7703 L1615.68 85.7703  Z" fill="#90caf9" fill-rule="evenodd" fill-opacity="1"/>
<polyline clip-path="url(#clip642)" style="stroke:#000000; stroke-linecap:round; stroke-linejoin:round; stroke-width:4; stroke-opacity:1; fill:none" points="1615.68,85.7703 1615.68,1423.18 1676.26,1423.18 1676.26,85.7703 1615.68,85.7703 "/>
<path clip-path="url(#clip642)" d="M1615.68 308.672 L1615.68 1423.18 L1676.26 1423.18 L1676.26 308.672 L1615.68 308.672 L1615.68 308.672  Z" fill="#90caf9" fill-rule="evenodd" fill-opacity="1"/>
<polyline clip-path="url(#clip642)" style="stroke:#000000; stroke-linecap:round; stroke-linejoin:round; stroke-width:4; stroke-opacity:1; fill:none" points="1615.68,308.672 1615.68,1423.18 1676.26,1423.18 1676.26,308.672 1615.68,308.672 "/>
<path clip-path="url(#clip642)" d="M1615.68 531.573 L1615.68 1423.18 L1676.26 1423.18 L1676.26 531.573 L1615.68 531.573 L1615.68 531.573  Z" fill="#90caf9" fill-rule="evenodd" fill-opacity="1"/>
<polyline clip-path="url(#clip642)" style="stroke:#000000; stroke-linecap:round; stroke-linejoin:round; stroke-width:4; stroke-opacity:1; fill:none" points="1615.68,531.573 1615.68,1423.18 1676.26,1423.18 1676.26,531.573 1615.68,531.573 "/>
<path clip-path="url(#clip642)" d="M1615.68 754.475 L1615.68 1423.18 L1676.26 1423.18 L1676.26 754.475 L1615.68 754.475 L1615.68 754.475  Z" fill="#90caf9" fill-rule="evenodd" fill-opacity="1"/>
<polyline clip-path="url(#clip642)" style="stroke:#000000; stroke-linecap:round; stroke-linejoin:round; stroke-width:4; stroke-opacity:1; fill:none" points="1615.68,754.475 1615.68,1423.18 1676.26,1423.18 1676.26,754.475 1615.68,754.475 "/>
<path clip-path="url(#clip642)" d="M1615.68 977.377 L1615.68 1423.18 L1676.26 1423.18 L1676.26 977.377 L1615.68 977.377 L1615.68 977.377  Z" fill="#90caf9" fill-rule="evenodd" fill-opacity="1"/>
<polyline clip-path="url(#clip642)" style="stroke:#000000; stroke-linecap:round; stroke-linejoin:round; stroke-width:4; stroke-opacity:1; fill:none" points="1615.68,977.377 1615.68,1423.18 1676.26,1423.18 1676.26,977.377 1615.68,977.377 "/>
<path clip-path="url(#clip642)" d="M1615.68 1200.28 L1615.68 1423.18 L1676.26 1423.18 L1676.26 1200.28 L1615.68 1200.28 L1615.68 1200.28  Z" fill="#90caf9" fill-rule="evenodd" fill-opacity="1"/>
<polyline clip-path="url(#clip642)" style="stroke:#000000; stroke-linecap:round; stroke-linejoin:round; stroke-width:4; stroke-opacity:1; fill:none" points="1615.68,1200.28 1615.68,1423.18 1676.26,1423.18 1676.26,1200.28 1615.68,1200.28 "/>
<circle clip-path="url(#clip642)" style="fill:#90caf9; stroke:none; fill-opacity:0" cx="1645.97" cy="85.7703" r="2"/>
<circle clip-path="url(#clip642)" style="fill:#90caf9; stroke:none; fill-opacity:0" cx="1645.97" cy="308.672" r="2"/>
<circle clip-path="url(#clip642)" style="fill:#90caf9; stroke:none; fill-opacity:0" cx="1645.97" cy="531.573" r="2"/>
<circle clip-path="url(#clip642)" style="fill:#90caf9; stroke:none; fill-opacity:0" cx="1645.97" cy="754.475" r="2"/>
<circle clip-path="url(#clip642)" style="fill:#90caf9; stroke:none; fill-opacity:0" cx="1645.97" cy="977.377" r="2"/>
<circle clip-path="url(#clip642)" style="fill:#90caf9; stroke:none; fill-opacity:0" cx="1645.97" cy="1200.28" r="2"/>
<path clip-path="url(#clip642)" d="M1716.65 226.116 L1716.65 1423.18 L1777.23 1423.18 L1777.23 226.116 L1716.65 226.116 L1716.65 226.116  Z" fill="#90caf9" fill-rule="evenodd" fill-opacity="1"/>
<polyline clip-path="url(#clip642)" style="stroke:#000000; stroke-linecap:round; stroke-linejoin:round; stroke-width:4; stroke-opacity:1; fill:none" points="1716.65,226.116 1716.65,1423.18 1777.23,1423.18 1777.23,226.116 1716.65,226.116 "/>
<path clip-path="url(#clip642)" d="M1716.65 425.626 L1716.65 1423.18 L1777.23 1423.18 L1777.23 425.626 L1716.65 425.626 L1716.65 425.626  Z" fill="#90caf9" fill-rule="evenodd" fill-opacity="1"/>
<polyline clip-path="url(#clip642)" style="stroke:#000000; stroke-linecap:round; stroke-linejoin:round; stroke-width:4; stroke-opacity:1; fill:none" points="1716.65,425.626 1716.65,1423.18 1777.23,1423.18 1777.23,425.626 1716.65,425.626 "/>
<path clip-path="url(#clip642)" d="M1716.65 625.137 L1716.65 1423.18 L1777.23 1423.18 L1777.23 625.137 L1716.65 625.137 L1716.65 625.137  Z" fill="#90caf9" fill-rule="evenodd" fill-opacity="1"/>
<polyline clip-path="url(#clip642)" style="stroke:#000000; stroke-linecap:round; stroke-linejoin:round; stroke-width:4; stroke-opacity:1; fill:none" points="1716.65,625.137 1716.65,1423.18 1777.23,1423.18 1777.23,625.137 1716.65,625.137 "/>
<path clip-path="url(#clip642)" d="M1716.65 824.648 L1716.65 1423.18 L1777.23 1423.18 L1777.23 824.648 L1716.65 824.648 L1716.65 824.648  Z" fill="#90caf9" fill-rule="evenodd" fill-opacity="1"/>
<polyline clip-path="url(#clip642)" style="stroke:#000000; stroke-linecap:round; stroke-linejoin:round; stroke-width:4; stroke-opacity:1; fill:none" points="1716.65,824.648 1716.65,1423.18 1777.23,1423.18 1777.23,824.648 1716.65,824.648 "/>
<path clip-path="url(#clip642)" d="M1716.65 1024.16 L1716.65 1423.18 L1777.23 1423.18 L1777.23 1024.16 L1716.65 1024.16 L1716.65 1024.16  Z" fill="#90caf9" fill-rule="evenodd" fill-opacity="1"/>
<polyline clip-path="url(#clip642)" style="stroke:#000000; stroke-linecap:round; stroke-linejoin:round; stroke-width:4; stroke-opacity:1; fill:none" points="1716.65,1024.16 1716.65,1423.18 1777.23,1423.18 1777.23,1024.16 1716.65,1024.16 "/>
<path clip-path="url(#clip642)" d="M1716.65 1223.67 L1716.65 1423.18 L1777.23 1423.18 L1777.23 1223.67 L1716.65 1223.67 L1716.65 1223.67  Z" fill="#90caf9" fill-rule="evenodd" fill-opacity="1"/>
<polyline clip-path="url(#clip642)" style="stroke:#000000; stroke-linecap:round; stroke-linejoin:round; stroke-width:4; stroke-opacity:1; fill:none" points="1716.65,1223.67 1716.65,1423.18 1777.23,1423.18 1777.23,1223.67 1716.65,1223.67 "/>
<circle clip-path="url(#clip642)" style="fill:#90caf9; stroke:none; fill-opacity:0" cx="1746.94" cy="226.116" r="2"/>
<circle clip-path="url(#clip642)" style="fill:#90caf9; stroke:none; fill-opacity:0" cx="1746.94" cy="425.626" r="2"/>
<circle clip-path="url(#clip642)" style="fill:#90caf9; stroke:none; fill-opacity:0" cx="1746.94" cy="625.137" r="2"/>
<circle clip-path="url(#clip642)" style="fill:#90caf9; stroke:none; fill-opacity:0" cx="1746.94" cy="824.648" r="2"/>
<circle clip-path="url(#clip642)" style="fill:#90caf9; stroke:none; fill-opacity:0" cx="1746.94" cy="1024.16" r="2"/>
<circle clip-path="url(#clip642)" style="fill:#90caf9; stroke:none; fill-opacity:0" cx="1746.94" cy="1223.67" r="2"/>
<path clip-path="url(#clip642)" d="M1817.62 61.0035 L1817.62 1423.18 L1878.2 1423.18 L1878.2 61.0035 L1817.62 61.0035 L1817.62 61.0035  Z" fill="#90caf9" fill-rule="evenodd" fill-opacity="1"/>
<polyline clip-path="url(#clip642)" style="stroke:#000000; stroke-linecap:round; stroke-linejoin:round; stroke-width:4; stroke-opacity:1; fill:none" points="1817.62,61.0035 1817.62,1423.18 1878.2,1423.18 1878.2,61.0035 1817.62,61.0035 "/>
<path clip-path="url(#clip642)" d="M1817.62 212.356 L1817.62 1423.18 L1878.2 1423.18 L1878.2 212.356 L1817.62 212.356 L1817.62 212.356  Z" fill="#90caf9" fill-rule="evenodd" fill-opacity="1"/>
<polyline clip-path="url(#clip642)" style="stroke:#000000; stroke-linecap:round; stroke-linejoin:round; stroke-width:4; stroke-opacity:1; fill:none" points="1817.62,212.356 1817.62,1423.18 1878.2,1423.18 1878.2,212.356 1817.62,212.356 "/>
<path clip-path="url(#clip642)" d="M1817.62 363.709 L1817.62 1423.18 L1878.2 1423.18 L1878.2 363.709 L1817.62 363.709 L1817.62 363.709  Z" fill="#90caf9" fill-rule="evenodd" fill-opacity="1"/>
<polyline clip-path="url(#clip642)" style="stroke:#000000; stroke-linecap:round; stroke-linejoin:round; stroke-width:4; stroke-opacity:1; fill:none" points="1817.62,363.709 1817.62,1423.18 1878.2,1423.18 1878.2,363.709 1817.62,363.709 "/>
<path clip-path="url(#clip642)" d="M1817.62 515.062 L1817.62 1423.18 L1878.2 1423.18 L1878.2 515.062 L1817.62 515.062 L1817.62 515.062  Z" fill="#90caf9" fill-rule="evenodd" fill-opacity="1"/>
<polyline clip-path="url(#clip642)" style="stroke:#000000; stroke-linecap:round; stroke-linejoin:round; stroke-width:4; stroke-opacity:1; fill:none" points="1817.62,515.062 1817.62,1423.18 1878.2,1423.18 1878.2,515.062 1817.62,515.062 "/>
<path clip-path="url(#clip642)" d="M1817.62 666.415 L1817.62 1423.18 L1878.2 1423.18 L1878.2 666.415 L1817.62 666.415 L1817.62 666.415  Z" fill="#90caf9" fill-rule="evenodd" fill-opacity="1"/>
<polyline clip-path="url(#clip642)" style="stroke:#000000; stroke-linecap:round; stroke-linejoin:round; stroke-width:4; stroke-opacity:1; fill:none" points="1817.62,666.415 1817.62,1423.18 1878.2,1423.18 1878.2,666.415 1817.62,666.415 "/>
<path clip-path="url(#clip642)" d="M1817.62 817.768 L1817.62 1423.18 L1878.2 1423.18 L1878.2 817.768 L1817.62 817.768 L1817.62 817.768  Z" fill="#90caf9" fill-rule="evenodd" fill-opacity="1"/>
<polyline clip-path="url(#clip642)" style="stroke:#000000; stroke-linecap:round; stroke-linejoin:round; stroke-width:4; stroke-opacity:1; fill:none" points="1817.62,817.768 1817.62,1423.18 1878.2,1423.18 1878.2,817.768 1817.62,817.768 "/>
<path clip-path="url(#clip642)" d="M1817.62 969.121 L1817.62 1423.18 L1878.2 1423.18 L1878.2 969.121 L1817.62 969.121 L1817.62 969.121  Z" fill="#90caf9" fill-rule="evenodd" fill-opacity="1"/>
<polyline clip-path="url(#clip642)" style="stroke:#000000; stroke-linecap:round; stroke-linejoin:round; stroke-width:4; stroke-opacity:1; fill:none" points="1817.62,969.121 1817.62,1423.18 1878.2,1423.18 1878.2,969.121 1817.62,969.121 "/>
<path clip-path="url(#clip642)" d="M1817.62 1120.47 L1817.62 1423.18 L1878.2 1423.18 L1878.2 1120.47 L1817.62 1120.47 L1817.62 1120.47  Z" fill="#90caf9" fill-rule="evenodd" fill-opacity="1"/>
<polyline clip-path="url(#clip642)" style="stroke:#000000; stroke-linecap:round; stroke-linejoin:round; stroke-width:4; stroke-opacity:1; fill:none" points="1817.62,1120.47 1817.62,1423.18 1878.2,1423.18 1878.2,1120.47 1817.62,1120.47 "/>
<path clip-path="url(#clip642)" d="M1817.62 1271.83 L1817.62 1423.18 L1878.2 1423.18 L1878.2 1271.83 L1817.62 1271.83 L1817.62 1271.83  Z" fill="#90caf9" fill-rule="evenodd" fill-opacity="1"/>
<polyline clip-path="url(#clip642)" style="stroke:#000000; stroke-linecap:round; stroke-linejoin:round; stroke-width:4; stroke-opacity:1; fill:none" points="1817.62,1271.83 1817.62,1423.18 1878.2,1423.18 1878.2,1271.83 1817.62,1271.83 "/>
<circle clip-path="url(#clip642)" style="fill:#90caf9; stroke:none; fill-opacity:0" cx="1847.91" cy="61.0035" r="2"/>
<circle clip-path="url(#clip642)" style="fill:#90caf9; stroke:none; fill-opacity:0" cx="1847.91" cy="212.356" r="2"/>
<circle clip-path="url(#clip642)" style="fill:#90caf9; stroke:none; fill-opacity:0" cx="1847.91" cy="363.709" r="2"/>
<circle clip-path="url(#clip642)" style="fill:#90caf9; stroke:none; fill-opacity:0" cx="1847.91" cy="515.062" r="2"/>
<circle clip-path="url(#clip642)" style="fill:#90caf9; stroke:none; fill-opacity:0" cx="1847.91" cy="666.415" r="2"/>
<circle clip-path="url(#clip642)" style="fill:#90caf9; stroke:none; fill-opacity:0" cx="1847.91" cy="817.768" r="2"/>
<circle clip-path="url(#clip642)" style="fill:#90caf9; stroke:none; fill-opacity:0" cx="1847.91" cy="969.121" r="2"/>
<circle clip-path="url(#clip642)" style="fill:#90caf9; stroke:none; fill-opacity:0" cx="1847.91" cy="1120.47" r="2"/>
<circle clip-path="url(#clip642)" style="fill:#90caf9; stroke:none; fill-opacity:0" cx="1847.91" cy="1271.83" r="2"/>
<path clip-path="url(#clip642)" d="M1918.59 121.545 L1918.59 1423.18 L1979.17 1423.18 L1979.17 121.545 L1918.59 121.545 L1918.59 121.545  Z" fill="#90caf9" fill-rule="evenodd" fill-opacity="1"/>
<polyline clip-path="url(#clip642)" style="stroke:#000000; stroke-linecap:round; stroke-linejoin:round; stroke-width:4; stroke-opacity:1; fill:none" points="1918.59,121.545 1918.59,1423.18 1979.17,1423.18 1979.17,121.545 1918.59,121.545 "/>
<path clip-path="url(#clip642)" d="M1918.59 239.875 L1918.59 1423.18 L1979.17 1423.18 L1979.17 239.875 L1918.59 239.875 L1918.59 239.875  Z" fill="#90caf9" fill-rule="evenodd" fill-opacity="1"/>
<polyline clip-path="url(#clip642)" style="stroke:#000000; stroke-linecap:round; stroke-linejoin:round; stroke-width:4; stroke-opacity:1; fill:none" points="1918.59,239.875 1918.59,1423.18 1979.17,1423.18 1979.17,239.875 1918.59,239.875 "/>
<path clip-path="url(#clip642)" d="M1918.59 358.206 L1918.59 1423.18 L1979.17 1423.18 L1979.17 358.206 L1918.59 358.206 L1918.59 358.206  Z" fill="#90caf9" fill-rule="evenodd" fill-opacity="1"/>
<polyline clip-path="url(#clip642)" style="stroke:#000000; stroke-linecap:round; stroke-linejoin:round; stroke-width:4; stroke-opacity:1; fill:none" points="1918.59,358.206 1918.59,1423.18 1979.17,1423.18 1979.17,358.206 1918.59,358.206 "/>
<path clip-path="url(#clip642)" d="M1918.59 476.536 L1918.59 1423.18 L1979.17 1423.18 L1979.17 476.536 L1918.59 476.536 L1918.59 476.536  Z" fill="#90caf9" fill-rule="evenodd" fill-opacity="1"/>
<polyline clip-path="url(#clip642)" style="stroke:#000000; stroke-linecap:round; stroke-linejoin:round; stroke-width:4; stroke-opacity:1; fill:none" points="1918.59,476.536 1918.59,1423.18 1979.17,1423.18 1979.17,476.536 1918.59,476.536 "/>
<path clip-path="url(#clip642)" d="M1918.59 594.867 L1918.59 1423.18 L1979.17 1423.18 L1979.17 594.867 L1918.59 594.867 L1918.59 594.867  Z" fill="#90caf9" fill-rule="evenodd" fill-opacity="1"/>
<polyline clip-path="url(#clip642)" style="stroke:#000000; stroke-linecap:round; stroke-linejoin:round; stroke-width:4; stroke-opacity:1; fill:none" points="1918.59,594.867 1918.59,1423.18 1979.17,1423.18 1979.17,594.867 1918.59,594.867 "/>
<path clip-path="url(#clip642)" d="M1918.59 713.197 L1918.59 1423.18 L1979.17 1423.18 L1979.17 713.197 L1918.59 713.197 L1918.59 713.197  Z" fill="#90caf9" fill-rule="evenodd" fill-opacity="1"/>
<polyline clip-path="url(#clip642)" style="stroke:#000000; stroke-linecap:round; stroke-linejoin:round; stroke-width:4; stroke-opacity:1; fill:none" points="1918.59,713.197 1918.59,1423.18 1979.17,1423.18 1979.17,713.197 1918.59,713.197 "/>
<path clip-path="url(#clip642)" d="M1918.59 831.527 L1918.59 1423.18 L1979.17 1423.18 L1979.17 831.527 L1918.59 831.527 L1918.59 831.527  Z" fill="#90caf9" fill-rule="evenodd" fill-opacity="1"/>
<polyline clip-path="url(#clip642)" style="stroke:#000000; stroke-linecap:round; stroke-linejoin:round; stroke-width:4; stroke-opacity:1; fill:none" points="1918.59,831.527 1918.59,1423.18 1979.17,1423.18 1979.17,831.527 1918.59,831.527 "/>
<path clip-path="url(#clip642)" d="M1918.59 949.858 L1918.59 1423.18 L1979.17 1423.18 L1979.17 949.858 L1918.59 949.858 L1918.59 949.858  Z" fill="#90caf9" fill-rule="evenodd" fill-opacity="1"/>
<polyline clip-path="url(#clip642)" style="stroke:#000000; stroke-linecap:round; stroke-linejoin:round; stroke-width:4; stroke-opacity:1; fill:none" points="1918.59,949.858 1918.59,1423.18 1979.17,1423.18 1979.17,949.858 1918.59,949.858 "/>
<path clip-path="url(#clip642)" d="M1918.59 1068.19 L1918.59 1423.18 L1979.17 1423.18 L1979.17 1068.19 L1918.59 1068.19 L1918.59 1068.19  Z" fill="#90caf9" fill-rule="evenodd" fill-opacity="1"/>
<polyline clip-path="url(#clip642)" style="stroke:#000000; stroke-linecap:round; stroke-linejoin:round; stroke-width:4; stroke-opacity:1; fill:none" points="1918.59,1068.19 1918.59,1423.18 1979.17,1423.18 1979.17,1068.19 1918.59,1068.19 "/>
<path clip-path="url(#clip642)" d="M1918.59 1186.52 L1918.59 1423.18 L1979.17 1423.18 L1979.17 1186.52 L1918.59 1186.52 L1918.59 1186.52  Z" fill="#90caf9" fill-rule="evenodd" fill-opacity="1"/>
<polyline clip-path="url(#clip642)" style="stroke:#000000; stroke-linecap:round; stroke-linejoin:round; stroke-width:4; stroke-opacity:1; fill:none" points="1918.59,1186.52 1918.59,1423.18 1979.17,1423.18 1979.17,1186.52 1918.59,1186.52 "/>
<path clip-path="url(#clip642)" d="M1918.59 1304.85 L1918.59 1423.18 L1979.17 1423.18 L1979.17 1304.85 L1918.59 1304.85 L1918.59 1304.85  Z" fill="#90caf9" fill-rule="evenodd" fill-opacity="1"/>
<polyline clip-path="url(#clip642)" style="stroke:#000000; stroke-linecap:round; stroke-linejoin:round; stroke-width:4; stroke-opacity:1; fill:none" points="1918.59,1304.85 1918.59,1423.18 1979.17,1423.18 1979.17,1304.85 1918.59,1304.85 "/>
<circle clip-path="url(#clip642)" style="fill:#90caf9; stroke:none; fill-opacity:0" cx="1948.88" cy="121.545" r="2"/>
<circle clip-path="url(#clip642)" style="fill:#90caf9; stroke:none; fill-opacity:0" cx="1948.88" cy="239.875" r="2"/>
<circle clip-path="url(#clip642)" style="fill:#90caf9; stroke:none; fill-opacity:0" cx="1948.88" cy="358.206" r="2"/>
<circle clip-path="url(#clip642)" style="fill:#90caf9; stroke:none; fill-opacity:0" cx="1948.88" cy="476.536" r="2"/>
<circle clip-path="url(#clip642)" style="fill:#90caf9; stroke:none; fill-opacity:0" cx="1948.88" cy="594.867" r="2"/>
<circle clip-path="url(#clip642)" style="fill:#90caf9; stroke:none; fill-opacity:0" cx="1948.88" cy="713.197" r="2"/>
<circle clip-path="url(#clip642)" style="fill:#90caf9; stroke:none; fill-opacity:0" cx="1948.88" cy="831.527" r="2"/>
<circle clip-path="url(#clip642)" style="fill:#90caf9; stroke:none; fill-opacity:0" cx="1948.88" cy="949.858" r="2"/>
<circle clip-path="url(#clip642)" style="fill:#90caf9; stroke:none; fill-opacity:0" cx="1948.88" cy="1068.19" r="2"/>
<circle clip-path="url(#clip642)" style="fill:#90caf9; stroke:none; fill-opacity:0" cx="1948.88" cy="1186.52" r="2"/>
<circle clip-path="url(#clip642)" style="fill:#90caf9; stroke:none; fill-opacity:0" cx="1948.88" cy="1304.85" r="2"/>
<path clip-path="url(#clip642)" d="M2019.56 69.2591 L2019.56 1423.18 L2080.14 1423.18 L2080.14 69.2591 L2019.56 69.2591 L2019.56 69.2591  Z" fill="#90caf9" fill-rule="evenodd" fill-opacity="1"/>
<polyline clip-path="url(#clip642)" style="stroke:#000000; stroke-linecap:round; stroke-linejoin:round; stroke-width:4; stroke-opacity:1; fill:none" points="2019.56,69.2591 2019.56,1423.18 2080.14,1423.18 2080.14,69.2591 2019.56,69.2591 "/>
<path clip-path="url(#clip642)" d="M2019.56 182.086 L2019.56 1423.18 L2080.14 1423.18 L2080.14 182.086 L2019.56 182.086 L2019.56 182.086  Z" fill="#90caf9" fill-rule="evenodd" fill-opacity="1"/>
<polyline clip-path="url(#clip642)" style="stroke:#000000; stroke-linecap:round; stroke-linejoin:round; stroke-width:4; stroke-opacity:1; fill:none" points="2019.56,182.086 2019.56,1423.18 2080.14,1423.18 2080.14,182.086 2019.56,182.086 "/>
<path clip-path="url(#clip642)" d="M2019.56 294.913 L2019.56 1423.18 L2080.14 1423.18 L2080.14 294.913 L2019.56 294.913 L2019.56 294.913  Z" fill="#90caf9" fill-rule="evenodd" fill-opacity="1"/>
<polyline clip-path="url(#clip642)" style="stroke:#000000; stroke-linecap:round; stroke-linejoin:round; stroke-width:4; stroke-opacity:1; fill:none" points="2019.56,294.913 2019.56,1423.18 2080.14,1423.18 2080.14,294.913 2019.56,294.913 "/>
<path clip-path="url(#clip642)" d="M2019.56 407.739 L2019.56 1423.18 L2080.14 1423.18 L2080.14 407.739 L2019.56 407.739 L2019.56 407.739  Z" fill="#90caf9" fill-rule="evenodd" fill-opacity="1"/>
<polyline clip-path="url(#clip642)" style="stroke:#000000; stroke-linecap:round; stroke-linejoin:round; stroke-width:4; stroke-opacity:1; fill:none" points="2019.56,407.739 2019.56,1423.18 2080.14,1423.18 2080.14,407.739 2019.56,407.739 "/>
<path clip-path="url(#clip642)" d="M2019.56 520.566 L2019.56 1423.18 L2080.14 1423.18 L2080.14 520.566 L2019.56 520.566 L2019.56 520.566  Z" fill="#90caf9" fill-rule="evenodd" fill-opacity="1"/>
<polyline clip-path="url(#clip642)" style="stroke:#000000; stroke-linecap:round; stroke-linejoin:round; stroke-width:4; stroke-opacity:1; fill:none" points="2019.56,520.566 2019.56,1423.18 2080.14,1423.18 2080.14,520.566 2019.56,520.566 "/>
<path clip-path="url(#clip642)" d="M2019.56 633.393 L2019.56 1423.18 L2080.14 1423.18 L2080.14 633.393 L2019.56 633.393 L2019.56 633.393  Z" fill="#90caf9" fill-rule="evenodd" fill-opacity="1"/>
<polyline clip-path="url(#clip642)" style="stroke:#000000; stroke-linecap:round; stroke-linejoin:round; stroke-width:4; stroke-opacity:1; fill:none" points="2019.56,633.393 2019.56,1423.18 2080.14,1423.18 2080.14,633.393 2019.56,633.393 "/>
<path clip-path="url(#clip642)" d="M2019.56 746.219 L2019.56 1423.18 L2080.14 1423.18 L2080.14 746.219 L2019.56 746.219 L2019.56 746.219  Z" fill="#90caf9" fill-rule="evenodd" fill-opacity="1"/>
<polyline clip-path="url(#clip642)" style="stroke:#000000; stroke-linecap:round; stroke-linejoin:round; stroke-width:4; stroke-opacity:1; fill:none" points="2019.56,746.219 2019.56,1423.18 2080.14,1423.18 2080.14,746.219 2019.56,746.219 "/>
<path clip-path="url(#clip642)" d="M2019.56 859.046 L2019.56 1423.18 L2080.14 1423.18 L2080.14 859.046 L2019.56 859.046 L2019.56 859.046  Z" fill="#90caf9" fill-rule="evenodd" fill-opacity="1"/>
<polyline clip-path="url(#clip642)" style="stroke:#000000; stroke-linecap:round; stroke-linejoin:round; stroke-width:4; stroke-opacity:1; fill:none" points="2019.56,859.046 2019.56,1423.18 2080.14,1423.18 2080.14,859.046 2019.56,859.046 "/>
<path clip-path="url(#clip642)" d="M2019.56 971.873 L2019.56 1423.18 L2080.14 1423.18 L2080.14 971.873 L2019.56 971.873 L2019.56 971.873  Z" fill="#90caf9" fill-rule="evenodd" fill-opacity="1"/>
<polyline clip-path="url(#clip642)" style="stroke:#000000; stroke-linecap:round; stroke-linejoin:round; stroke-width:4; stroke-opacity:1; fill:none" points="2019.56,971.873 2019.56,1423.18 2080.14,1423.18 2080.14,971.873 2019.56,971.873 "/>
<path clip-path="url(#clip642)" d="M2019.56 1084.7 L2019.56 1423.18 L2080.14 1423.18 L2080.14 1084.7 L2019.56 1084.7 L2019.56 1084.7  Z" fill="#90caf9" fill-rule="evenodd" fill-opacity="1"/>
<polyline clip-path="url(#clip642)" style="stroke:#000000; stroke-linecap:round; stroke-linejoin:round; stroke-width:4; stroke-opacity:1; fill:none" points="2019.56,1084.7 2019.56,1423.18 2080.14,1423.18 2080.14,1084.7 2019.56,1084.7 "/>
<path clip-path="url(#clip642)" d="M2019.56 1197.53 L2019.56 1423.18 L2080.14 1423.18 L2080.14 1197.53 L2019.56 1197.53 L2019.56 1197.53  Z" fill="#90caf9" fill-rule="evenodd" fill-opacity="1"/>
<polyline clip-path="url(#clip642)" style="stroke:#000000; stroke-linecap:round; stroke-linejoin:round; stroke-width:4; stroke-opacity:1; fill:none" points="2019.56,1197.53 2019.56,1423.18 2080.14,1423.18 2080.14,1197.53 2019.56,1197.53 "/>
<path clip-path="url(#clip642)" d="M2019.56 1310.35 L2019.56 1423.18 L2080.14 1423.18 L2080.14 1310.35 L2019.56 1310.35 L2019.56 1310.35  Z" fill="#90caf9" fill-rule="evenodd" fill-opacity="1"/>
<polyline clip-path="url(#clip642)" style="stroke:#000000; stroke-linecap:round; stroke-linejoin:round; stroke-width:4; stroke-opacity:1; fill:none" points="2019.56,1310.35 2019.56,1423.18 2080.14,1423.18 2080.14,1310.35 2019.56,1310.35 "/>
<circle clip-path="url(#clip642)" style="fill:#90caf9; stroke:none; fill-opacity:0" cx="2049.85" cy="69.2591" r="2"/>
<circle clip-path="url(#clip642)" style="fill:#90caf9; stroke:none; fill-opacity:0" cx="2049.85" cy="182.086" r="2"/>
<circle clip-path="url(#clip642)" style="fill:#90caf9; stroke:none; fill-opacity:0" cx="2049.85" cy="294.913" r="2"/>
<circle clip-path="url(#clip642)" style="fill:#90caf9; stroke:none; fill-opacity:0" cx="2049.85" cy="407.739" r="2"/>
<circle clip-path="url(#clip642)" style="fill:#90caf9; stroke:none; fill-opacity:0" cx="2049.85" cy="520.566" r="2"/>
<circle clip-path="url(#clip642)" style="fill:#90caf9; stroke:none; fill-opacity:0" cx="2049.85" cy="633.393" r="2"/>
<circle clip-path="url(#clip642)" style="fill:#90caf9; stroke:none; fill-opacity:0" cx="2049.85" cy="746.219" r="2"/>
<circle clip-path="url(#clip642)" style="fill:#90caf9; stroke:none; fill-opacity:0" cx="2049.85" cy="859.046" r="2"/>
<circle clip-path="url(#clip642)" style="fill:#90caf9; stroke:none; fill-opacity:0" cx="2049.85" cy="971.873" r="2"/>
<circle clip-path="url(#clip642)" style="fill:#90caf9; stroke:none; fill-opacity:0" cx="2049.85" cy="1084.7" r="2"/>
<circle clip-path="url(#clip642)" style="fill:#90caf9; stroke:none; fill-opacity:0" cx="2049.85" cy="1197.53" r="2"/>
<circle clip-path="url(#clip642)" style="fill:#90caf9; stroke:none; fill-opacity:0" cx="2049.85" cy="1310.35" r="2"/>
<path clip-path="url(#clip642)" d="M2120.53 61.0035 L2120.53 1423.18 L2181.11 1423.18 L2181.11 61.0035 L2120.53 61.0035 L2120.53 61.0035  Z" fill="#90caf9" fill-rule="evenodd" fill-opacity="1"/>
<polyline clip-path="url(#clip642)" style="stroke:#000000; stroke-linecap:round; stroke-linejoin:round; stroke-width:4; stroke-opacity:1; fill:none" points="2120.53,61.0035 2120.53,1423.18 2181.11,1423.18 2181.11,61.0035 2120.53,61.0035 "/>
<path clip-path="url(#clip642)" d="M2120.53 151.815 L2120.53 1423.18 L2181.11 1423.18 L2181.11 151.815 L2120.53 151.815 L2120.53 151.815  Z" fill="#90caf9" fill-rule="evenodd" fill-opacity="1"/>
<polyline clip-path="url(#clip642)" style="stroke:#000000; stroke-linecap:round; stroke-linejoin:round; stroke-width:4; stroke-opacity:1; fill:none" points="2120.53,151.815 2120.53,1423.18 2181.11,1423.18 2181.11,151.815 2120.53,151.815 "/>
<path clip-path="url(#clip642)" d="M2120.53 242.627 L2120.53 1423.18 L2181.11 1423.18 L2181.11 242.627 L2120.53 242.627 L2120.53 242.627  Z" fill="#90caf9" fill-rule="evenodd" fill-opacity="1"/>
<polyline clip-path="url(#clip642)" style="stroke:#000000; stroke-linecap:round; stroke-linejoin:round; stroke-width:4; stroke-opacity:1; fill:none" points="2120.53,242.627 2120.53,1423.18 2181.11,1423.18 2181.11,242.627 2120.53,242.627 "/>
<path clip-path="url(#clip642)" d="M2120.53 333.439 L2120.53 1423.18 L2181.11 1423.18 L2181.11 333.439 L2120.53 333.439 L2120.53 333.439  Z" fill="#90caf9" fill-rule="evenodd" fill-opacity="1"/>
<polyline clip-path="url(#clip642)" style="stroke:#000000; stroke-linecap:round; stroke-linejoin:round; stroke-width:4; stroke-opacity:1; fill:none" points="2120.53,333.439 2120.53,1423.18 2181.11,1423.18 2181.11,333.439 2120.53,333.439 "/>
<path clip-path="url(#clip642)" d="M2120.53 424.25 L2120.53 1423.18 L2181.11 1423.18 L2181.11 424.25 L2120.53 424.25 L2120.53 424.25  Z" fill="#90caf9" fill-rule="evenodd" fill-opacity="1"/>
<polyline clip-path="url(#clip642)" style="stroke:#000000; stroke-linecap:round; stroke-linejoin:round; stroke-width:4; stroke-opacity:1; fill:none" points="2120.53,424.25 2120.53,1423.18 2181.11,1423.18 2181.11,424.25 2120.53,424.25 "/>
<path clip-path="url(#clip642)" d="M2120.53 515.062 L2120.53 1423.18 L2181.11 1423.18 L2181.11 515.062 L2120.53 515.062 L2120.53 515.062  Z" fill="#90caf9" fill-rule="evenodd" fill-opacity="1"/>
<polyline clip-path="url(#clip642)" style="stroke:#000000; stroke-linecap:round; stroke-linejoin:round; stroke-width:4; stroke-opacity:1; fill:none" points="2120.53,515.062 2120.53,1423.18 2181.11,1423.18 2181.11,515.062 2120.53,515.062 "/>
<path clip-path="url(#clip642)" d="M2120.53 605.874 L2120.53 1423.18 L2181.11 1423.18 L2181.11 605.874 L2120.53 605.874 L2120.53 605.874  Z" fill="#90caf9" fill-rule="evenodd" fill-opacity="1"/>
<polyline clip-path="url(#clip642)" style="stroke:#000000; stroke-linecap:round; stroke-linejoin:round; stroke-width:4; stroke-opacity:1; fill:none" points="2120.53,605.874 2120.53,1423.18 2181.11,1423.18 2181.11,605.874 2120.53,605.874 "/>
<path clip-path="url(#clip642)" d="M2120.53 696.686 L2120.53 1423.18 L2181.11 1423.18 L2181.11 696.686 L2120.53 696.686 L2120.53 696.686  Z" fill="#90caf9" fill-rule="evenodd" fill-opacity="1"/>
<polyline clip-path="url(#clip642)" style="stroke:#000000; stroke-linecap:round; stroke-linejoin:round; stroke-width:4; stroke-opacity:1; fill:none" points="2120.53,696.686 2120.53,1423.18 2181.11,1423.18 2181.11,696.686 2120.53,696.686 "/>
<path clip-path="url(#clip642)" d="M2120.53 787.498 L2120.53 1423.18 L2181.11 1423.18 L2181.11 787.498 L2120.53 787.498 L2120.53 787.498  Z" fill="#90caf9" fill-rule="evenodd" fill-opacity="1"/>
<polyline clip-path="url(#clip642)" style="stroke:#000000; stroke-linecap:round; stroke-linejoin:round; stroke-width:4; stroke-opacity:1; fill:none" points="2120.53,787.498 2120.53,1423.18 2181.11,1423.18 2181.11,787.498 2120.53,787.498 "/>
<path clip-path="url(#clip642)" d="M2120.53 878.309 L2120.53 1423.18 L2181.11 1423.18 L2181.11 878.309 L2120.53 878.309 L2120.53 878.309  Z" fill="#90caf9" fill-rule="evenodd" fill-opacity="1"/>
<polyline clip-path="url(#clip642)" style="stroke:#000000; stroke-linecap:round; stroke-linejoin:round; stroke-width:4; stroke-opacity:1; fill:none" points="2120.53,878.309 2120.53,1423.18 2181.11,1423.18 2181.11,878.309 2120.53,878.309 "/>
<path clip-path="url(#clip642)" d="M2120.53 969.121 L2120.53 1423.18 L2181.11 1423.18 L2181.11 969.121 L2120.53 969.121 L2120.53 969.121  Z" fill="#90caf9" fill-rule="evenodd" fill-opacity="1"/>
<polyline clip-path="url(#clip642)" style="stroke:#000000; stroke-linecap:round; stroke-linejoin:round; stroke-width:4; stroke-opacity:1; fill:none" points="2120.53,969.121 2120.53,1423.18 2181.11,1423.18 2181.11,969.121 2120.53,969.121 "/>
<path clip-path="url(#clip642)" d="M2120.53 1059.93 L2120.53 1423.18 L2181.11 1423.18 L2181.11 1059.93 L2120.53 1059.93 L2120.53 1059.93  Z" fill="#90caf9" fill-rule="evenodd" fill-opacity="1"/>
<polyline clip-path="url(#clip642)" style="stroke:#000000; stroke-linecap:round; stroke-linejoin:round; stroke-width:4; stroke-opacity:1; fill:none" points="2120.53,1059.93 2120.53,1423.18 2181.11,1423.18 2181.11,1059.93 2120.53,1059.93 "/>
<path clip-path="url(#clip642)" d="M2120.53 1150.74 L2120.53 1423.18 L2181.11 1423.18 L2181.11 1150.74 L2120.53 1150.74 L2120.53 1150.74  Z" fill="#90caf9" fill-rule="evenodd" fill-opacity="1"/>
<polyline clip-path="url(#clip642)" style="stroke:#000000; stroke-linecap:round; stroke-linejoin:round; stroke-width:4; stroke-opacity:1; fill:none" points="2120.53,1150.74 2120.53,1423.18 2181.11,1423.18 2181.11,1150.74 2120.53,1150.74 "/>
<path clip-path="url(#clip642)" d="M2120.53 1241.56 L2120.53 1423.18 L2181.11 1423.18 L2181.11 1241.56 L2120.53 1241.56 L2120.53 1241.56  Z" fill="#90caf9" fill-rule="evenodd" fill-opacity="1"/>
<polyline clip-path="url(#clip642)" style="stroke:#000000; stroke-linecap:round; stroke-linejoin:round; stroke-width:4; stroke-opacity:1; fill:none" points="2120.53,1241.56 2120.53,1423.18 2181.11,1423.18 2181.11,1241.56 2120.53,1241.56 "/>
<path clip-path="url(#clip642)" d="M2120.53 1332.37 L2120.53 1423.18 L2181.11 1423.18 L2181.11 1332.37 L2120.53 1332.37 L2120.53 1332.37  Z" fill="#90caf9" fill-rule="evenodd" fill-opacity="1"/>
<polyline clip-path="url(#clip642)" style="stroke:#000000; stroke-linecap:round; stroke-linejoin:round; stroke-width:4; stroke-opacity:1; fill:none" points="2120.53,1332.37 2120.53,1423.18 2181.11,1423.18 2181.11,1332.37 2120.53,1332.37 "/>
<circle clip-path="url(#clip642)" style="fill:#90caf9; stroke:none; fill-opacity:0" cx="2150.82" cy="61.0035" r="2"/>
<circle clip-path="url(#clip642)" style="fill:#90caf9; stroke:none; fill-opacity:0" cx="2150.82" cy="151.815" r="2"/>
<circle clip-path="url(#clip642)" style="fill:#90caf9; stroke:none; fill-opacity:0" cx="2150.82" cy="242.627" r="2"/>
<circle clip-path="url(#clip642)" style="fill:#90caf9; stroke:none; fill-opacity:0" cx="2150.82" cy="333.439" r="2"/>
<circle clip-path="url(#clip642)" style="fill:#90caf9; stroke:none; fill-opacity:0" cx="2150.82" cy="424.25" r="2"/>
<circle clip-path="url(#clip642)" style="fill:#90caf9; stroke:none; fill-opacity:0" cx="2150.82" cy="515.062" r="2"/>
<circle clip-path="url(#clip642)" style="fill:#90caf9; stroke:none; fill-opacity:0" cx="2150.82" cy="605.874" r="2"/>
<circle clip-path="url(#clip642)" style="fill:#90caf9; stroke:none; fill-opacity:0" cx="2150.82" cy="696.686" r="2"/>
<circle clip-path="url(#clip642)" style="fill:#90caf9; stroke:none; fill-opacity:0" cx="2150.82" cy="787.498" r="2"/>
<circle clip-path="url(#clip642)" style="fill:#90caf9; stroke:none; fill-opacity:0" cx="2150.82" cy="878.309" r="2"/>
<circle clip-path="url(#clip642)" style="fill:#90caf9; stroke:none; fill-opacity:0" cx="2150.82" cy="969.121" r="2"/>
<circle clip-path="url(#clip642)" style="fill:#90caf9; stroke:none; fill-opacity:0" cx="2150.82" cy="1059.93" r="2"/>
<circle clip-path="url(#clip642)" style="fill:#90caf9; stroke:none; fill-opacity:0" cx="2150.82" cy="1150.74" r="2"/>
<circle clip-path="url(#clip642)" style="fill:#90caf9; stroke:none; fill-opacity:0" cx="2150.82" cy="1241.56" r="2"/>
<circle clip-path="url(#clip642)" style="fill:#90caf9; stroke:none; fill-opacity:0" cx="2150.82" cy="1332.37" r="2"/>
<path clip-path="url(#clip642)" d="M2221.5 89.8981 L2221.5 1423.18 L2282.08 1423.18 L2282.08 89.8981 L2221.5 89.8981 L2221.5 89.8981  Z" fill="#90caf9" fill-rule="evenodd" fill-opacity="1"/>
<polyline clip-path="url(#clip642)" style="stroke:#000000; stroke-linecap:round; stroke-linejoin:round; stroke-width:4; stroke-opacity:1; fill:none" points="2221.5,89.8981 2221.5,1423.18 2282.08,1423.18 2282.08,89.8981 2221.5,89.8981 "/>
<path clip-path="url(#clip642)" d="M2221.5 160.071 L2221.5 1423.18 L2282.08 1423.18 L2282.08 160.071 L2221.5 160.071 L2221.5 160.071  Z" fill="#90caf9" fill-rule="evenodd" fill-opacity="1"/>
<polyline clip-path="url(#clip642)" style="stroke:#000000; stroke-linecap:round; stroke-linejoin:round; stroke-width:4; stroke-opacity:1; fill:none" points="2221.5,160.071 2221.5,1423.18 2282.08,1423.18 2282.08,160.071 2221.5,160.071 "/>
<path clip-path="url(#clip642)" d="M2221.5 230.244 L2221.5 1423.18 L2282.08 1423.18 L2282.08 230.244 L2221.5 230.244 L2221.5 230.244  Z" fill="#90caf9" fill-rule="evenodd" fill-opacity="1"/>
<polyline clip-path="url(#clip642)" style="stroke:#000000; stroke-linecap:round; stroke-linejoin:round; stroke-width:4; stroke-opacity:1; fill:none" points="2221.5,230.244 2221.5,1423.18 2282.08,1423.18 2282.08,230.244 2221.5,230.244 "/>
<path clip-path="url(#clip642)" d="M2221.5 300.416 L2221.5 1423.18 L2282.08 1423.18 L2282.08 300.416 L2221.5 300.416 L2221.5 300.416  Z" fill="#90caf9" fill-rule="evenodd" fill-opacity="1"/>
<polyline clip-path="url(#clip642)" style="stroke:#000000; stroke-linecap:round; stroke-linejoin:round; stroke-width:4; stroke-opacity:1; fill:none" points="2221.5,300.416 2221.5,1423.18 2282.08,1423.18 2282.08,300.416 2221.5,300.416 "/>
<path clip-path="url(#clip642)" d="M2221.5 370.589 L2221.5 1423.18 L2282.08 1423.18 L2282.08 370.589 L2221.5 370.589 L2221.5 370.589  Z" fill="#90caf9" fill-rule="evenodd" fill-opacity="1"/>
<polyline clip-path="url(#clip642)" style="stroke:#000000; stroke-linecap:round; stroke-linejoin:round; stroke-width:4; stroke-opacity:1; fill:none" points="2221.5,370.589 2221.5,1423.18 2282.08,1423.18 2282.08,370.589 2221.5,370.589 "/>
<path clip-path="url(#clip642)" d="M2221.5 440.762 L2221.5 1423.18 L2282.08 1423.18 L2282.08 440.762 L2221.5 440.762 L2221.5 440.762  Z" fill="#90caf9" fill-rule="evenodd" fill-opacity="1"/>
<polyline clip-path="url(#clip642)" style="stroke:#000000; stroke-linecap:round; stroke-linejoin:round; stroke-width:4; stroke-opacity:1; fill:none" points="2221.5,440.762 2221.5,1423.18 2282.08,1423.18 2282.08,440.762 2221.5,440.762 "/>
<path clip-path="url(#clip642)" d="M2221.5 510.934 L2221.5 1423.18 L2282.08 1423.18 L2282.08 510.934 L2221.5 510.934 L2221.5 510.934  Z" fill="#90caf9" fill-rule="evenodd" fill-opacity="1"/>
<polyline clip-path="url(#clip642)" style="stroke:#000000; stroke-linecap:round; stroke-linejoin:round; stroke-width:4; stroke-opacity:1; fill:none" points="2221.5,510.934 2221.5,1423.18 2282.08,1423.18 2282.08,510.934 2221.5,510.934 "/>
<path clip-path="url(#clip642)" d="M2221.5 581.107 L2221.5 1423.18 L2282.08 1423.18 L2282.08 581.107 L2221.5 581.107 L2221.5 581.107  Z" fill="#90caf9" fill-rule="evenodd" fill-opacity="1"/>
<polyline clip-path="url(#clip642)" style="stroke:#000000; stroke-linecap:round; stroke-linejoin:round; stroke-width:4; stroke-opacity:1; fill:none" points="2221.5,581.107 2221.5,1423.18 2282.08,1423.18 2282.08,581.107 2221.5,581.107 "/>
<path clip-path="url(#clip642)" d="M2221.5 651.28 L2221.5 1423.18 L2282.08 1423.18 L2282.08 651.28 L2221.5 651.28 L2221.5 651.28  Z" fill="#90caf9" fill-rule="evenodd" fill-opacity="1"/>
<polyline clip-path="url(#clip642)" style="stroke:#000000; stroke-linecap:round; stroke-linejoin:round; stroke-width:4; stroke-opacity:1; fill:none" points="2221.5,651.28 2221.5,1423.18 2282.08,1423.18 2282.08,651.28 2221.5,651.28 "/>
<path clip-path="url(#clip642)" d="M2221.5 721.453 L2221.5 1423.18 L2282.08 1423.18 L2282.08 721.453 L2221.5 721.453 L2221.5 721.453  Z" fill="#90caf9" fill-rule="evenodd" fill-opacity="1"/>
<polyline clip-path="url(#clip642)" style="stroke:#000000; stroke-linecap:round; stroke-linejoin:round; stroke-width:4; stroke-opacity:1; fill:none" points="2221.5,721.453 2221.5,1423.18 2282.08,1423.18 2282.08,721.453 2221.5,721.453 "/>
<path clip-path="url(#clip642)" d="M2221.5 791.625 L2221.5 1423.18 L2282.08 1423.18 L2282.08 791.625 L2221.5 791.625 L2221.5 791.625  Z" fill="#90caf9" fill-rule="evenodd" fill-opacity="1"/>
<polyline clip-path="url(#clip642)" style="stroke:#000000; stroke-linecap:round; stroke-linejoin:round; stroke-width:4; stroke-opacity:1; fill:none" points="2221.5,791.625 2221.5,1423.18 2282.08,1423.18 2282.08,791.625 2221.5,791.625 "/>
<path clip-path="url(#clip642)" d="M2221.5 861.798 L2221.5 1423.18 L2282.08 1423.18 L2282.08 861.798 L2221.5 861.798 L2221.5 861.798  Z" fill="#90caf9" fill-rule="evenodd" fill-opacity="1"/>
<polyline clip-path="url(#clip642)" style="stroke:#000000; stroke-linecap:round; stroke-linejoin:round; stroke-width:4; stroke-opacity:1; fill:none" points="2221.5,861.798 2221.5,1423.18 2282.08,1423.18 2282.08,861.798 2221.5,861.798 "/>
<path clip-path="url(#clip642)" d="M2221.5 931.971 L2221.5 1423.18 L2282.08 1423.18 L2282.08 931.971 L2221.5 931.971 L2221.5 931.971  Z" fill="#90caf9" fill-rule="evenodd" fill-opacity="1"/>
<polyline clip-path="url(#clip642)" style="stroke:#000000; stroke-linecap:round; stroke-linejoin:round; stroke-width:4; stroke-opacity:1; fill:none" points="2221.5,931.971 2221.5,1423.18 2282.08,1423.18 2282.08,931.971 2221.5,931.971 "/>
<path clip-path="url(#clip642)" d="M2221.5 1002.14 L2221.5 1423.18 L2282.08 1423.18 L2282.08 1002.14 L2221.5 1002.14 L2221.5 1002.14  Z" fill="#90caf9" fill-rule="evenodd" fill-opacity="1"/>
<polyline clip-path="url(#clip642)" style="stroke:#000000; stroke-linecap:round; stroke-linejoin:round; stroke-width:4; stroke-opacity:1; fill:none" points="2221.5,1002.14 2221.5,1423.18 2282.08,1423.18 2282.08,1002.14 2221.5,1002.14 "/>
<path clip-path="url(#clip642)" d="M2221.5 1072.32 L2221.5 1423.18 L2282.08 1423.18 L2282.08 1072.32 L2221.5 1072.32 L2221.5 1072.32  Z" fill="#90caf9" fill-rule="evenodd" fill-opacity="1"/>
<polyline clip-path="url(#clip642)" style="stroke:#000000; stroke-linecap:round; stroke-linejoin:round; stroke-width:4; stroke-opacity:1; fill:none" points="2221.5,1072.32 2221.5,1423.18 2282.08,1423.18 2282.08,1072.32 2221.5,1072.32 "/>
<path clip-path="url(#clip642)" d="M2221.5 1142.49 L2221.5 1423.18 L2282.08 1423.18 L2282.08 1142.49 L2221.5 1142.49 L2221.5 1142.49  Z" fill="#90caf9" fill-rule="evenodd" fill-opacity="1"/>
<polyline clip-path="url(#clip642)" style="stroke:#000000; stroke-linecap:round; stroke-linejoin:round; stroke-width:4; stroke-opacity:1; fill:none" points="2221.5,1142.49 2221.5,1423.18 2282.08,1423.18 2282.08,1142.49 2221.5,1142.49 "/>
<path clip-path="url(#clip642)" d="M2221.5 1212.66 L2221.5 1423.18 L2282.08 1423.18 L2282.08 1212.66 L2221.5 1212.66 L2221.5 1212.66  Z" fill="#90caf9" fill-rule="evenodd" fill-opacity="1"/>
<polyline clip-path="url(#clip642)" style="stroke:#000000; stroke-linecap:round; stroke-linejoin:round; stroke-width:4; stroke-opacity:1; fill:none" points="2221.5,1212.66 2221.5,1423.18 2282.08,1423.18 2282.08,1212.66 2221.5,1212.66 "/>
<path clip-path="url(#clip642)" d="M2221.5 1282.83 L2221.5 1423.18 L2282.08 1423.18 L2282.08 1282.83 L2221.5 1282.83 L2221.5 1282.83  Z" fill="#90caf9" fill-rule="evenodd" fill-opacity="1"/>
<polyline clip-path="url(#clip642)" style="stroke:#000000; stroke-linecap:round; stroke-linejoin:round; stroke-width:4; stroke-opacity:1; fill:none" points="2221.5,1282.83 2221.5,1423.18 2282.08,1423.18 2282.08,1282.83 2221.5,1282.83 "/>
<path clip-path="url(#clip642)" d="M2221.5 1353.01 L2221.5 1423.18 L2282.08 1423.18 L2282.08 1353.01 L2221.5 1353.01 L2221.5 1353.01  Z" fill="#90caf9" fill-rule="evenodd" fill-opacity="1"/>
<polyline clip-path="url(#clip642)" style="stroke:#000000; stroke-linecap:round; stroke-linejoin:round; stroke-width:4; stroke-opacity:1; fill:none" points="2221.5,1353.01 2221.5,1423.18 2282.08,1423.18 2282.08,1353.01 2221.5,1353.01 "/>
<circle clip-path="url(#clip642)" style="fill:#90caf9; stroke:none; fill-opacity:0" cx="2251.79" cy="89.8981" r="2"/>
<circle clip-path="url(#clip642)" style="fill:#90caf9; stroke:none; fill-opacity:0" cx="2251.79" cy="160.071" r="2"/>
<circle clip-path="url(#clip642)" style="fill:#90caf9; stroke:none; fill-opacity:0" cx="2251.79" cy="230.244" r="2"/>
<circle clip-path="url(#clip642)" style="fill:#90caf9; stroke:none; fill-opacity:0" cx="2251.79" cy="300.416" r="2"/>
<circle clip-path="url(#clip642)" style="fill:#90caf9; stroke:none; fill-opacity:0" cx="2251.79" cy="370.589" r="2"/>
<circle clip-path="url(#clip642)" style="fill:#90caf9; stroke:none; fill-opacity:0" cx="2251.79" cy="440.762" r="2"/>
<circle clip-path="url(#clip642)" style="fill:#90caf9; stroke:none; fill-opacity:0" cx="2251.79" cy="510.934" r="2"/>
<circle clip-path="url(#clip642)" style="fill:#90caf9; stroke:none; fill-opacity:0" cx="2251.79" cy="581.107" r="2"/>
<circle clip-path="url(#clip642)" style="fill:#90caf9; stroke:none; fill-opacity:0" cx="2251.79" cy="651.28" r="2"/>
<circle clip-path="url(#clip642)" style="fill:#90caf9; stroke:none; fill-opacity:0" cx="2251.79" cy="721.453" r="2"/>
<circle clip-path="url(#clip642)" style="fill:#90caf9; stroke:none; fill-opacity:0" cx="2251.79" cy="791.625" r="2"/>
<circle clip-path="url(#clip642)" style="fill:#90caf9; stroke:none; fill-opacity:0" cx="2251.79" cy="861.798" r="2"/>
<circle clip-path="url(#clip642)" style="fill:#90caf9; stroke:none; fill-opacity:0" cx="2251.79" cy="931.971" r="2"/>
<circle clip-path="url(#clip642)" style="fill:#90caf9; stroke:none; fill-opacity:0" cx="2251.79" cy="1002.14" r="2"/>
<circle clip-path="url(#clip642)" style="fill:#90caf9; stroke:none; fill-opacity:0" cx="2251.79" cy="1072.32" r="2"/>
<circle clip-path="url(#clip642)" style="fill:#90caf9; stroke:none; fill-opacity:0" cx="2251.79" cy="1142.49" r="2"/>
<circle clip-path="url(#clip642)" style="fill:#90caf9; stroke:none; fill-opacity:0" cx="2251.79" cy="1212.66" r="2"/>
<circle clip-path="url(#clip642)" style="fill:#90caf9; stroke:none; fill-opacity:0" cx="2251.79" cy="1282.83" r="2"/>
<circle clip-path="url(#clip642)" style="fill:#90caf9; stroke:none; fill-opacity:0" cx="2251.79" cy="1353.01" r="2"/>
</svg>
