<?xml version="1.0" encoding="utf-8"?>
<svg xmlns="http://www.w3.org/2000/svg" xmlns:xlink="http://www.w3.org/1999/xlink" width="600" height="400" viewBox="0 0 2400 1600">
<defs>
  <clipPath id="clip040">
    <rect x="0" y="0" width="2400" height="1600"/>
  </clipPath>
</defs>
<path clip-path="url(#clip040)" d="M0 1600 L2400 1600 L2400 0 L0 0  Z" fill="#ffffff" fill-rule="evenodd" fill-opacity="1"/>
<defs>
  <clipPath id="clip041">
    <rect x="480" y="0" width="1681" height="1600"/>
  </clipPath>
</defs>
<path clip-path="url(#clip040)" d="M138.959 1423.18 L2352.76 1423.18 L2352.76 47.2441 L138.959 47.2441  Z" fill="#ffffff" fill-rule="evenodd" fill-opacity="1"/>
<defs>
  <clipPath id="clip042">
    <rect x="138" y="47" width="2215" height="1377"/>
  </clipPath>
</defs>
<polyline clip-path="url(#clip042)" style="stroke:#000000; stroke-linecap:round; stroke-linejoin:round; stroke-width:2; stroke-opacity:0.1; fill:none" points="364.421,1423.18 364.421,47.2441 "/>
<polyline clip-path="url(#clip042)" style="stroke:#000000; stroke-linecap:round; stroke-linejoin:round; stroke-width:2; stroke-opacity:0.1; fill:none" points="779.215,1423.18 779.215,47.2441 "/>
<polyline clip-path="url(#clip042)" style="stroke:#000000; stroke-linecap:round; stroke-linejoin:round; stroke-width:2; stroke-opacity:0.1; fill:none" points="1194.01,1423.18 1194.01,47.2441 "/>
<polyline clip-path="url(#clip042)" style="stroke:#000000; stroke-linecap:round; stroke-linejoin:round; stroke-width:2; stroke-opacity:0.1; fill:none" points="1608.8,1423.18 1608.8,47.2441 "/>
<polyline clip-path="url(#clip042)" style="stroke:#000000; stroke-linecap:round; stroke-linejoin:round; stroke-width:2; stroke-opacity:0.1; fill:none" points="2023.6,1423.18 2023.6,47.2441 "/>
<polyline clip-path="url(#clip042)" style="stroke:#000000; stroke-linecap:round; stroke-linejoin:round; stroke-width:2; stroke-opacity:0.1; fill:none" points="138.959,1423.18 2352.76,1423.18 "/>
<polyline clip-path="url(#clip042)" style="stroke:#000000; stroke-linecap:round; stroke-linejoin:round; stroke-width:2; stroke-opacity:0.1; fill:none" points="138.959,1211.5 2352.76,1211.5 "/>
<polyline clip-path="url(#clip042)" style="stroke:#000000; stroke-linecap:round; stroke-linejoin:round; stroke-width:2; stroke-opacity:0.1; fill:none" points="138.959,999.815 2352.76,999.815 "/>
<polyline clip-path="url(#clip042)" style="stroke:#000000; stroke-linecap:round; stroke-linejoin:round; stroke-width:2; stroke-opacity:0.1; fill:none" points="138.959,788.133 2352.76,788.133 "/>
<polyline clip-path="url(#clip042)" style="stroke:#000000; stroke-linecap:round; stroke-linejoin:round; stroke-width:2; stroke-opacity:0.1; fill:none" points="138.959,576.45 2352.76,576.45 "/>
<polyline clip-path="url(#clip042)" style="stroke:#000000; stroke-linecap:round; stroke-linejoin:round; stroke-width:2; stroke-opacity:0.1; fill:none" points="138.959,364.768 2352.76,364.768 "/>
<polyline clip-path="url(#clip042)" style="stroke:#000000; stroke-linecap:round; stroke-linejoin:round; stroke-width:2; stroke-opacity:0.1; fill:none" points="138.959,153.085 2352.76,153.085 "/>
<polyline clip-path="url(#clip040)" style="stroke:#000000; stroke-linecap:round; stroke-linejoin:round; stroke-width:4; stroke-opacity:1; fill:none" points="138.959,1423.18 2352.76,1423.18 "/>
<polyline clip-path="url(#clip040)" style="stroke:#000000; stroke-linecap:round; stroke-linejoin:round; stroke-width:4; stroke-opacity:1; fill:none" points="364.421,1423.18 364.421,1404.28 "/>
<polyline clip-path="url(#clip040)" style="stroke:#000000; stroke-linecap:round; stroke-linejoin:round; stroke-width:4; stroke-opacity:1; fill:none" points="779.215,1423.18 779.215,1404.28 "/>
<polyline clip-path="url(#clip040)" style="stroke:#000000; stroke-linecap:round; stroke-linejoin:round; stroke-width:4; stroke-opacity:1; fill:none" points="1194.01,1423.18 1194.01,1404.28 "/>
<polyline clip-path="url(#clip040)" style="stroke:#000000; stroke-linecap:round; stroke-linejoin:round; stroke-width:4; stroke-opacity:1; fill:none" points="1608.8,1423.18 1608.8,1404.28 "/>
<polyline clip-path="url(#clip040)" style="stroke:#000000; stroke-linecap:round; stroke-linejoin:round; stroke-width:4; stroke-opacity:1; fill:none" points="2023.6,1423.18 2023.6,1404.28 "/>
<path clip-path="url(#clip040)" d="M324.027 1481.64 L331.666 1481.64 L331.666 1455.28 L323.356 1456.95 L323.356 1452.69 L331.62 1451.02 L336.296 1451.02 L336.296 1481.64 L343.935 1481.64 L343.935 1485.58 L324.027 1485.58 L324.027 1481.64 Z" fill="#000000" fill-rule="nonzero" fill-opacity="1" /><path clip-path="url(#clip040)" d="M363.958 1466.44 Q360.81 1466.44 358.958 1468.59 Q357.129 1470.74 357.129 1474.49 Q357.129 1478.22 358.958 1480.39 Q360.81 1482.55 363.958 1482.55 Q367.106 1482.55 368.935 1480.39 Q370.786 1478.22 370.786 1474.49 Q370.786 1470.74 368.935 1468.59 Q367.106 1466.44 363.958 1466.44 M373.24 1451.78 L373.24 1456.04 Q371.481 1455.21 369.675 1454.77 Q367.893 1454.33 366.134 1454.33 Q361.504 1454.33 359.05 1457.45 Q356.62 1460.58 356.273 1466.9 Q357.638 1464.89 359.698 1463.82 Q361.759 1462.73 364.235 1462.73 Q369.444 1462.73 372.453 1465.9 Q375.485 1469.05 375.485 1474.49 Q375.485 1479.82 372.337 1483.03 Q369.189 1486.25 363.958 1486.25 Q357.962 1486.25 354.791 1481.67 Q351.62 1477.06 351.62 1468.33 Q351.62 1460.14 355.509 1455.28 Q359.398 1450.39 365.948 1450.39 Q367.708 1450.39 369.49 1450.74 Q371.296 1451.09 373.24 1451.78 Z" fill="#000000" fill-rule="nonzero" fill-opacity="1" /><path clip-path="url(#clip040)" d="M393.541 1454.1 Q389.93 1454.1 388.101 1457.66 Q386.296 1461.2 386.296 1468.33 Q386.296 1475.44 388.101 1479.01 Q389.93 1482.55 393.541 1482.55 Q397.175 1482.55 398.981 1479.01 Q400.809 1475.44 400.809 1468.33 Q400.809 1461.2 398.981 1457.66 Q397.175 1454.1 393.541 1454.1 M393.541 1450.39 Q399.351 1450.39 402.407 1455 Q405.485 1459.58 405.485 1468.33 Q405.485 1477.06 402.407 1481.67 Q399.351 1486.25 393.541 1486.25 Q387.731 1486.25 384.652 1481.67 Q381.596 1477.06 381.596 1468.33 Q381.596 1459.58 384.652 1455 Q387.731 1450.39 393.541 1450.39 Z" fill="#000000" fill-rule="nonzero" fill-opacity="1" /><path clip-path="url(#clip040)" d="M738.821 1481.64 L746.46 1481.64 L746.46 1455.28 L738.15 1456.95 L738.15 1452.69 L746.414 1451.02 L751.09 1451.02 L751.09 1481.64 L758.729 1481.64 L758.729 1485.58 L738.821 1485.58 L738.821 1481.64 Z" fill="#000000" fill-rule="nonzero" fill-opacity="1" /><path clip-path="url(#clip040)" d="M778.173 1469.17 Q774.84 1469.17 772.918 1470.95 Q771.02 1472.73 771.02 1475.86 Q771.02 1478.98 772.918 1480.77 Q774.84 1482.55 778.173 1482.55 Q781.506 1482.55 783.427 1480.77 Q785.349 1478.96 785.349 1475.86 Q785.349 1472.73 783.427 1470.95 Q781.529 1469.17 778.173 1469.17 M773.497 1467.18 Q770.488 1466.44 768.798 1464.38 Q767.131 1462.32 767.131 1459.35 Q767.131 1455.21 770.071 1452.8 Q773.034 1450.39 778.173 1450.39 Q783.335 1450.39 786.275 1452.8 Q789.214 1455.21 789.214 1459.35 Q789.214 1462.32 787.525 1464.38 Q785.858 1466.44 782.872 1467.18 Q786.252 1467.96 788.127 1470.26 Q790.025 1472.55 790.025 1475.86 Q790.025 1480.88 786.946 1483.57 Q783.89 1486.25 778.173 1486.25 Q772.455 1486.25 769.377 1483.57 Q766.321 1480.88 766.321 1475.86 Q766.321 1472.55 768.219 1470.26 Q770.117 1467.96 773.497 1467.18 M771.784 1459.79 Q771.784 1462.48 773.451 1463.98 Q775.14 1465.49 778.173 1465.49 Q781.182 1465.49 782.872 1463.98 Q784.585 1462.48 784.585 1459.79 Q784.585 1457.11 782.872 1455.6 Q781.182 1454.1 778.173 1454.1 Q775.14 1454.1 773.451 1455.6 Q771.784 1457.11 771.784 1459.79 Z" fill="#000000" fill-rule="nonzero" fill-opacity="1" /><path clip-path="url(#clip040)" d="M808.335 1454.1 Q804.724 1454.1 802.895 1457.66 Q801.089 1461.2 801.089 1468.33 Q801.089 1475.44 802.895 1479.01 Q804.724 1482.55 808.335 1482.55 Q811.969 1482.55 813.775 1479.01 Q815.603 1475.44 815.603 1468.33 Q815.603 1461.2 813.775 1457.66 Q811.969 1454.1 808.335 1454.1 M808.335 1450.39 Q814.145 1450.39 817.2 1455 Q820.279 1459.58 820.279 1468.33 Q820.279 1477.06 817.2 1481.67 Q814.145 1486.25 808.335 1486.25 Q802.525 1486.25 799.446 1481.67 Q796.39 1477.06 796.39 1468.33 Q796.39 1459.58 799.446 1455 Q802.525 1450.39 808.335 1450.39 Z" fill="#000000" fill-rule="nonzero" fill-opacity="1" /><path clip-path="url(#clip040)" d="M1157.7 1481.64 L1174.02 1481.64 L1174.02 1485.58 L1152.08 1485.58 L1152.08 1481.64 Q1154.74 1478.89 1159.32 1474.26 Q1163.93 1469.61 1165.11 1468.27 Q1167.35 1465.74 1168.23 1464.01 Q1169.14 1462.25 1169.14 1460.56 Q1169.14 1457.8 1167.19 1456.07 Q1165.27 1454.33 1162.17 1454.33 Q1159.97 1454.33 1157.52 1455.09 Q1155.09 1455.86 1152.31 1457.41 L1152.31 1452.69 Q1155.13 1451.55 1157.59 1450.97 Q1160.04 1450.39 1162.08 1450.39 Q1167.45 1450.39 1170.64 1453.08 Q1173.83 1455.77 1173.83 1460.26 Q1173.83 1462.39 1173.02 1464.31 Q1172.24 1466.2 1170.13 1468.8 Q1169.55 1469.47 1166.45 1472.69 Q1163.35 1475.88 1157.7 1481.64 Z" fill="#000000" fill-rule="nonzero" fill-opacity="1" /><path clip-path="url(#clip040)" d="M1193.83 1454.1 Q1190.22 1454.1 1188.4 1457.66 Q1186.59 1461.2 1186.59 1468.33 Q1186.59 1475.44 1188.4 1479.01 Q1190.22 1482.55 1193.83 1482.55 Q1197.47 1482.55 1199.27 1479.01 Q1201.1 1475.44 1201.1 1468.33 Q1201.1 1461.2 1199.27 1457.66 Q1197.47 1454.1 1193.83 1454.1 M1193.83 1450.39 Q1199.64 1450.39 1202.7 1455 Q1205.78 1459.58 1205.78 1468.33 Q1205.78 1477.06 1202.7 1481.67 Q1199.64 1486.25 1193.83 1486.25 Q1188.02 1486.25 1184.95 1481.67 Q1181.89 1477.06 1181.89 1468.33 Q1181.89 1459.58 1184.95 1455 Q1188.02 1450.39 1193.83 1450.39 Z" fill="#000000" fill-rule="nonzero" fill-opacity="1" /><path clip-path="url(#clip040)" d="M1224 1454.1 Q1220.39 1454.1 1218.56 1457.66 Q1216.75 1461.2 1216.75 1468.33 Q1216.75 1475.44 1218.56 1479.01 Q1220.39 1482.55 1224 1482.55 Q1227.63 1482.55 1229.44 1479.01 Q1231.27 1475.44 1231.27 1468.33 Q1231.27 1461.2 1229.44 1457.66 Q1227.63 1454.1 1224 1454.1 M1224 1450.39 Q1229.81 1450.39 1232.86 1455 Q1235.94 1459.58 1235.94 1468.33 Q1235.94 1477.06 1232.86 1481.67 Q1229.81 1486.25 1224 1486.25 Q1218.19 1486.25 1215.11 1481.67 Q1212.05 1477.06 1212.05 1468.33 Q1212.05 1459.58 1215.11 1455 Q1218.19 1450.39 1224 1450.39 Z" fill="#000000" fill-rule="nonzero" fill-opacity="1" /><path clip-path="url(#clip040)" d="M1572.49 1481.64 L1588.81 1481.64 L1588.81 1485.58 L1566.87 1485.58 L1566.87 1481.64 Q1569.53 1478.89 1574.12 1474.26 Q1578.72 1469.61 1579.9 1468.27 Q1582.15 1465.74 1583.03 1464.01 Q1583.93 1462.25 1583.93 1460.56 Q1583.93 1457.8 1581.99 1456.07 Q1580.06 1454.33 1576.96 1454.33 Q1574.76 1454.33 1572.31 1455.09 Q1569.88 1455.86 1567.1 1457.41 L1567.1 1452.69 Q1569.93 1451.55 1572.38 1450.97 Q1574.83 1450.39 1576.87 1450.39 Q1582.24 1450.39 1585.43 1453.08 Q1588.63 1455.77 1588.63 1460.26 Q1588.63 1462.39 1587.82 1464.31 Q1587.03 1466.2 1584.93 1468.8 Q1584.35 1469.47 1581.24 1472.69 Q1578.14 1475.88 1572.49 1481.64 Z" fill="#000000" fill-rule="nonzero" fill-opacity="1" /><path clip-path="url(#clip040)" d="M1602.66 1481.64 L1618.98 1481.64 L1618.98 1485.58 L1597.03 1485.58 L1597.03 1481.64 Q1599.69 1478.89 1604.28 1474.26 Q1608.88 1469.61 1610.06 1468.27 Q1612.31 1465.74 1613.19 1464.01 Q1614.09 1462.25 1614.09 1460.56 Q1614.09 1457.8 1612.15 1456.07 Q1610.23 1454.33 1607.12 1454.33 Q1604.93 1454.33 1602.47 1455.09 Q1600.04 1455.86 1597.26 1457.41 L1597.26 1452.69 Q1600.09 1451.55 1602.54 1450.97 Q1604.99 1450.39 1607.03 1450.39 Q1612.4 1450.39 1615.6 1453.08 Q1618.79 1455.77 1618.79 1460.26 Q1618.79 1462.39 1617.98 1464.31 Q1617.19 1466.2 1615.09 1468.8 Q1614.51 1469.47 1611.41 1472.69 Q1608.3 1475.88 1602.66 1481.64 Z" fill="#000000" fill-rule="nonzero" fill-opacity="1" /><path clip-path="url(#clip040)" d="M1638.79 1454.1 Q1635.18 1454.1 1633.35 1457.66 Q1631.55 1461.2 1631.55 1468.33 Q1631.55 1475.44 1633.35 1479.01 Q1635.18 1482.55 1638.79 1482.55 Q1642.42 1482.55 1644.23 1479.01 Q1646.06 1475.44 1646.06 1468.33 Q1646.06 1461.2 1644.23 1457.66 Q1642.42 1454.1 1638.79 1454.1 M1638.79 1450.39 Q1644.6 1450.39 1647.66 1455 Q1650.73 1459.58 1650.73 1468.33 Q1650.73 1477.06 1647.66 1481.67 Q1644.6 1486.25 1638.79 1486.25 Q1632.98 1486.25 1629.9 1481.67 Q1626.85 1477.06 1626.85 1468.33 Q1626.85 1459.58 1629.9 1455 Q1632.98 1450.39 1638.79 1450.39 Z" fill="#000000" fill-rule="nonzero" fill-opacity="1" /><path clip-path="url(#clip040)" d="M1987.29 1481.64 L2003.61 1481.64 L2003.61 1485.58 L1981.66 1485.58 L1981.66 1481.64 Q1984.33 1478.89 1988.91 1474.26 Q1993.52 1469.61 1994.7 1468.27 Q1996.94 1465.74 1997.82 1464.01 Q1998.72 1462.25 1998.72 1460.56 Q1998.72 1457.8 1996.78 1456.07 Q1994.86 1454.33 1991.76 1454.33 Q1989.56 1454.33 1987.1 1455.09 Q1984.67 1455.86 1981.9 1457.41 L1981.9 1452.69 Q1984.72 1451.55 1987.17 1450.97 Q1989.63 1450.39 1991.66 1450.39 Q1997.03 1450.39 2000.23 1453.08 Q2003.42 1455.77 2003.42 1460.26 Q2003.42 1462.39 2002.61 1464.31 Q2001.83 1466.2 1999.72 1468.8 Q1999.14 1469.47 1996.04 1472.69 Q1992.94 1475.88 1987.29 1481.64 Z" fill="#000000" fill-rule="nonzero" fill-opacity="1" /><path clip-path="url(#clip040)" d="M2026.27 1455.09 L2014.46 1473.54 L2026.27 1473.54 L2026.27 1455.09 M2025.04 1451.02 L2030.92 1451.02 L2030.92 1473.54 L2035.85 1473.54 L2035.85 1477.43 L2030.92 1477.43 L2030.92 1485.58 L2026.27 1485.58 L2026.27 1477.43 L2010.67 1477.43 L2010.67 1472.92 L2025.04 1451.02 Z" fill="#000000" fill-rule="nonzero" fill-opacity="1" /><path clip-path="url(#clip040)" d="M2053.58 1454.1 Q2049.97 1454.1 2048.14 1457.66 Q2046.34 1461.2 2046.34 1468.33 Q2046.34 1475.44 2048.14 1479.01 Q2049.97 1482.55 2053.58 1482.55 Q2057.22 1482.55 2059.02 1479.01 Q2060.85 1475.44 2060.85 1468.33 Q2060.85 1461.2 2059.02 1457.66 Q2057.22 1454.1 2053.58 1454.1 M2053.58 1450.39 Q2059.39 1450.39 2062.45 1455 Q2065.53 1459.58 2065.53 1468.33 Q2065.53 1477.06 2062.45 1481.67 Q2059.39 1486.25 2053.58 1486.25 Q2047.77 1486.25 2044.7 1481.67 Q2041.64 1477.06 2041.64 1468.33 Q2041.64 1459.58 2044.7 1455 Q2047.77 1450.39 2053.58 1450.39 Z" fill="#000000" fill-rule="nonzero" fill-opacity="1" /><path clip-path="url(#clip040)" d="M1120.23 1525.81 L1120.23 1562.76 L1128 1562.76 Q1137.83 1562.76 1142.38 1558.3 Q1146.97 1553.85 1146.97 1544.24 Q1146.97 1534.69 1142.38 1530.26 Q1137.83 1525.81 1128 1525.81 L1120.23 1525.81 M1113.8 1520.52 L1127.01 1520.52 Q1140.82 1520.52 1147.28 1526.28 Q1153.75 1532.01 1153.75 1544.24 Q1153.75 1556.52 1147.25 1562.28 Q1140.76 1568.04 1127.01 1568.04 L1113.8 1568.04 L1113.8 1520.52 Z" fill="#000000" fill-rule="nonzero" fill-opacity="1" /><path clip-path="url(#clip040)" d="M1194.23 1548.76 L1194.23 1551.62 L1167.3 1551.62 Q1167.69 1557.67 1170.93 1560.85 Q1174.21 1564 1180.04 1564 Q1183.41 1564 1186.56 1563.17 Q1189.74 1562.35 1192.86 1560.69 L1192.86 1566.23 Q1189.71 1567.57 1186.4 1568.27 Q1183.09 1568.97 1179.69 1568.97 Q1171.16 1568.97 1166.16 1564 Q1161.19 1559.04 1161.19 1550.57 Q1161.19 1541.82 1165.9 1536.69 Q1170.65 1531.54 1178.67 1531.54 Q1185.86 1531.54 1190.03 1536.18 Q1194.23 1540.8 1194.23 1548.76 M1188.38 1547.04 Q1188.31 1542.23 1185.67 1539.37 Q1183.06 1536.5 1178.73 1536.5 Q1173.83 1536.5 1170.87 1539.27 Q1167.94 1542.04 1167.5 1547.07 L1188.38 1547.04 Z" fill="#000000" fill-rule="nonzero" fill-opacity="1" /><path clip-path="url(#clip040)" d="M1231.6 1539.24 Q1233.79 1535.29 1236.85 1533.41 Q1239.91 1531.54 1244.04 1531.54 Q1249.61 1531.54 1252.64 1535.45 Q1255.66 1539.33 1255.66 1546.53 L1255.66 1568.04 L1249.77 1568.04 L1249.77 1546.72 Q1249.77 1541.59 1247.96 1539.11 Q1246.14 1536.63 1242.42 1536.63 Q1237.87 1536.63 1235.23 1539.65 Q1232.59 1542.68 1232.59 1547.9 L1232.59 1568.04 L1226.7 1568.04 L1226.7 1546.72 Q1226.7 1541.56 1224.88 1539.11 Q1223.07 1536.63 1219.28 1536.63 Q1214.79 1536.63 1212.15 1539.68 Q1209.51 1542.71 1209.51 1547.9 L1209.51 1568.04 L1203.62 1568.04 L1203.62 1532.4 L1209.51 1532.4 L1209.51 1537.93 Q1211.51 1534.66 1214.32 1533.1 Q1217.12 1531.54 1220.97 1531.54 Q1224.85 1531.54 1227.56 1533.51 Q1230.29 1535.48 1231.6 1539.24 Z" fill="#000000" fill-rule="nonzero" fill-opacity="1" /><path clip-path="url(#clip040)" d="M1283.54 1550.12 Q1276.44 1550.12 1273.71 1551.75 Q1270.97 1553.37 1270.97 1557.29 Q1270.97 1560.4 1273.01 1562.25 Q1275.08 1564.07 1278.61 1564.07 Q1283.48 1564.07 1286.41 1560.63 Q1289.37 1557.16 1289.37 1551.43 L1289.37 1550.12 L1283.54 1550.12 M1295.22 1547.71 L1295.22 1568.04 L1289.37 1568.04 L1289.37 1562.63 Q1287.36 1565.88 1284.37 1567.44 Q1281.38 1568.97 1277.05 1568.97 Q1271.58 1568.97 1268.33 1565.91 Q1265.11 1562.82 1265.11 1557.67 Q1265.11 1551.65 1269.12 1548.6 Q1273.17 1545.54 1281.16 1545.54 L1289.37 1545.54 L1289.37 1544.97 Q1289.37 1540.93 1286.69 1538.73 Q1284.05 1536.5 1279.25 1536.5 Q1276.19 1536.5 1273.29 1537.23 Q1270.4 1537.97 1267.72 1539.43 L1267.72 1534.02 Q1270.94 1532.78 1273.96 1532.17 Q1276.99 1531.54 1279.85 1531.54 Q1287.58 1531.54 1291.4 1535.55 Q1295.22 1539.56 1295.22 1547.71 Z" fill="#000000" fill-rule="nonzero" fill-opacity="1" /><path clip-path="url(#clip040)" d="M1336.92 1546.53 L1336.92 1568.04 L1331.06 1568.04 L1331.06 1546.72 Q1331.06 1541.66 1329.09 1539.14 Q1327.12 1536.63 1323.17 1536.63 Q1318.43 1536.63 1315.69 1539.65 Q1312.95 1542.68 1312.95 1547.9 L1312.95 1568.04 L1307.06 1568.04 L1307.06 1532.4 L1312.95 1532.4 L1312.95 1537.93 Q1315.05 1534.72 1317.89 1533.13 Q1320.75 1531.54 1324.47 1531.54 Q1330.62 1531.54 1333.77 1535.36 Q1336.92 1539.14 1336.92 1546.53 Z" fill="#000000" fill-rule="nonzero" fill-opacity="1" /><path clip-path="url(#clip040)" d="M1372.06 1537.81 L1372.06 1518.52 L1377.91 1518.52 L1377.91 1568.04 L1372.06 1568.04 L1372.06 1562.7 Q1370.21 1565.88 1367.38 1567.44 Q1364.58 1568.97 1360.63 1568.97 Q1354.17 1568.97 1350.1 1563.81 Q1346.05 1558.65 1346.05 1550.25 Q1346.05 1541.85 1350.1 1536.69 Q1354.17 1531.54 1360.63 1531.54 Q1364.58 1531.54 1367.38 1533.1 Q1370.21 1534.62 1372.06 1537.81 M1352.1 1550.25 Q1352.1 1556.71 1354.74 1560.4 Q1357.42 1564.07 1362.06 1564.07 Q1366.71 1564.07 1369.38 1560.4 Q1372.06 1556.71 1372.06 1550.25 Q1372.06 1543.79 1369.38 1540.13 Q1366.71 1536.44 1362.06 1536.44 Q1357.42 1536.44 1354.74 1540.13 Q1352.1 1543.79 1352.1 1550.25 Z" fill="#000000" fill-rule="nonzero" fill-opacity="1" /><polyline clip-path="url(#clip040)" style="stroke:#000000; stroke-linecap:round; stroke-linejoin:round; stroke-width:4; stroke-opacity:1; fill:none" points="138.959,1423.18 138.959,47.2441 "/>
<polyline clip-path="url(#clip040)" style="stroke:#000000; stroke-linecap:round; stroke-linejoin:round; stroke-width:4; stroke-opacity:1; fill:none" points="138.959,1423.18 157.857,1423.18 "/>
<polyline clip-path="url(#clip040)" style="stroke:#000000; stroke-linecap:round; stroke-linejoin:round; stroke-width:4; stroke-opacity:1; fill:none" points="138.959,1211.5 157.857,1211.5 "/>
<polyline clip-path="url(#clip040)" style="stroke:#000000; stroke-linecap:round; stroke-linejoin:round; stroke-width:4; stroke-opacity:1; fill:none" points="138.959,999.815 157.857,999.815 "/>
<polyline clip-path="url(#clip040)" style="stroke:#000000; stroke-linecap:round; stroke-linejoin:round; stroke-width:4; stroke-opacity:1; fill:none" points="138.959,788.133 157.857,788.133 "/>
<polyline clip-path="url(#clip040)" style="stroke:#000000; stroke-linecap:round; stroke-linejoin:round; stroke-width:4; stroke-opacity:1; fill:none" points="138.959,576.45 157.857,576.45 "/>
<polyline clip-path="url(#clip040)" style="stroke:#000000; stroke-linecap:round; stroke-linejoin:round; stroke-width:4; stroke-opacity:1; fill:none" points="138.959,364.768 157.857,364.768 "/>
<polyline clip-path="url(#clip040)" style="stroke:#000000; stroke-linecap:round; stroke-linejoin:round; stroke-width:4; stroke-opacity:1; fill:none" points="138.959,153.085 157.857,153.085 "/>
<path clip-path="url(#clip040)" d="M91.0151 1408.98 Q87.404 1408.98 85.5753 1412.54 Q83.7697 1416.08 83.7697 1423.21 Q83.7697 1430.32 85.5753 1433.89 Q87.404 1437.43 91.0151 1437.43 Q94.6493 1437.43 96.4548 1433.89 Q98.2835 1430.32 98.2835 1423.21 Q98.2835 1416.08 96.4548 1412.54 Q94.6493 1408.98 91.0151 1408.98 M91.0151 1405.27 Q96.8252 1405.27 99.8808 1409.88 Q102.959 1414.46 102.959 1423.21 Q102.959 1431.94 99.8808 1436.55 Q96.8252 1441.13 91.0151 1441.13 Q85.2049 1441.13 82.1262 1436.55 Q79.0707 1431.94 79.0707 1423.21 Q79.0707 1414.46 82.1262 1409.88 Q85.2049 1405.27 91.0151 1405.27 Z" fill="#000000" fill-rule="nonzero" fill-opacity="1" /><path clip-path="url(#clip040)" d="M86.6401 1224.84 L102.959 1224.84 L102.959 1228.78 L81.0151 1228.78 L81.0151 1224.84 Q83.6771 1222.09 88.2604 1217.46 Q92.8669 1212.81 94.0475 1211.46 Q96.2928 1208.94 97.1724 1207.2 Q98.0752 1205.44 98.0752 1203.75 Q98.0752 1201 96.1308 1199.26 Q94.2095 1197.53 91.1077 1197.53 Q88.9086 1197.53 86.4549 1198.29 Q84.0244 1199.06 81.2466 1200.61 L81.2466 1195.88 Q84.0707 1194.75 86.5243 1194.17 Q88.978 1193.59 91.0151 1193.59 Q96.3854 1193.59 99.5798 1196.28 Q102.774 1198.96 102.774 1203.45 Q102.774 1205.58 101.964 1207.5 Q101.177 1209.4 99.0706 1212 Q98.4919 1212.67 95.39 1215.88 Q92.2882 1219.08 86.6401 1224.84 Z" fill="#000000" fill-rule="nonzero" fill-opacity="1" /><path clip-path="url(#clip040)" d="M93.3762 986.609 L81.5707 1005.06 L93.3762 1005.06 L93.3762 986.609 M92.1493 982.535 L98.0289 982.535 L98.0289 1005.06 L102.959 1005.06 L102.959 1008.95 L98.0289 1008.95 L98.0289 1017.09 L93.3762 1017.09 L93.3762 1008.95 L77.7744 1008.95 L77.7744 1004.43 L92.1493 982.535 Z" fill="#000000" fill-rule="nonzero" fill-opacity="1" /><path clip-path="url(#clip040)" d="M91.4317 786.269 Q88.2836 786.269 86.4318 788.422 Q84.6031 790.575 84.6031 794.325 Q84.6031 798.052 86.4318 800.227 Q88.2836 802.38 91.4317 802.38 Q94.5799 802.38 96.4085 800.227 Q98.2604 798.052 98.2604 794.325 Q98.2604 790.575 96.4085 788.422 Q94.5799 786.269 91.4317 786.269 M100.714 771.616 L100.714 775.876 Q98.9548 775.042 97.1493 774.603 Q95.3669 774.163 93.6076 774.163 Q88.978 774.163 86.5243 777.288 Q84.0938 780.413 83.7466 786.732 Q85.1123 784.718 87.1725 783.653 Q89.2327 782.565 91.7095 782.565 Q96.9178 782.565 99.927 785.737 Q102.959 788.885 102.959 794.325 Q102.959 799.649 99.8113 802.866 Q96.6632 806.084 91.4317 806.084 Q85.4364 806.084 82.2651 801.501 Q79.0938 796.894 79.0938 788.167 Q79.0938 779.973 82.9827 775.112 Q86.8716 770.228 93.4225 770.228 Q95.1817 770.228 96.9641 770.575 Q98.7696 770.922 100.714 771.616 Z" fill="#000000" fill-rule="nonzero" fill-opacity="1" /><path clip-path="url(#clip040)" d="M91.1077 577.318 Q87.7743 577.318 85.8531 579.101 Q83.9549 580.883 83.9549 584.008 Q83.9549 587.133 85.8531 588.915 Q87.7743 590.698 91.1077 590.698 Q94.441 590.698 96.3623 588.915 Q98.2835 587.11 98.2835 584.008 Q98.2835 580.883 96.3623 579.101 Q94.4641 577.318 91.1077 577.318 M86.4318 575.327 Q83.4225 574.587 81.7327 572.527 Q80.066 570.466 80.066 567.503 Q80.066 563.36 83.0058 560.953 Q85.9688 558.545 91.1077 558.545 Q96.2697 558.545 99.2095 560.953 Q102.149 563.36 102.149 567.503 Q102.149 570.466 100.459 572.527 Q98.7928 574.587 95.8067 575.327 Q99.1863 576.115 101.061 578.406 Q102.959 580.698 102.959 584.008 Q102.959 589.031 99.8808 591.716 Q96.8252 594.401 91.1077 594.401 Q85.3901 594.401 82.3114 591.716 Q79.2559 589.031 79.2559 584.008 Q79.2559 580.698 81.154 578.406 Q83.0521 576.115 86.4318 575.327 M84.7188 567.943 Q84.7188 570.628 86.3855 572.133 Q88.0753 573.638 91.1077 573.638 Q94.1169 573.638 95.8067 572.133 Q97.5197 570.628 97.5197 567.943 Q97.5197 565.258 95.8067 563.753 Q94.1169 562.249 91.1077 562.249 Q88.0753 562.249 86.3855 563.753 Q84.7188 565.258 84.7188 567.943 Z" fill="#000000" fill-rule="nonzero" fill-opacity="1" /><path clip-path="url(#clip040)" d="M51.6634 378.113 L59.3023 378.113 L59.3023 351.747 L50.9921 353.414 L50.9921 349.154 L59.256 347.488 L63.9319 347.488 L63.9319 378.113 L71.5707 378.113 L71.5707 382.048 L51.6634 382.048 L51.6634 378.113 Z" fill="#000000" fill-rule="nonzero" fill-opacity="1" /><path clip-path="url(#clip040)" d="M91.0151 350.566 Q87.404 350.566 85.5753 354.131 Q83.7697 357.673 83.7697 364.802 Q83.7697 371.909 85.5753 375.474 Q87.404 379.015 91.0151 379.015 Q94.6493 379.015 96.4548 375.474 Q98.2835 371.909 98.2835 364.802 Q98.2835 357.673 96.4548 354.131 Q94.6493 350.566 91.0151 350.566 M91.0151 346.863 Q96.8252 346.863 99.8808 351.469 Q102.959 356.052 102.959 364.802 Q102.959 373.529 99.8808 378.136 Q96.8252 382.719 91.0151 382.719 Q85.2049 382.719 82.1262 378.136 Q79.0707 373.529 79.0707 364.802 Q79.0707 356.052 82.1262 351.469 Q85.2049 346.863 91.0151 346.863 Z" fill="#000000" fill-rule="nonzero" fill-opacity="1" /><path clip-path="url(#clip040)" d="M53.2606 166.43 L60.8995 166.43 L60.8995 140.065 L52.5893 141.731 L52.5893 137.472 L60.8532 135.805 L65.5291 135.805 L65.5291 166.43 L73.1679 166.43 L73.1679 170.365 L53.2606 170.365 L53.2606 166.43 Z" fill="#000000" fill-rule="nonzero" fill-opacity="1" /><path clip-path="url(#clip040)" d="M86.6401 166.43 L102.959 166.43 L102.959 170.365 L81.0151 170.365 L81.0151 166.43 Q83.6771 163.676 88.2604 159.046 Q92.8669 154.393 94.0475 153.051 Q96.2928 150.527 97.1724 148.791 Q98.0752 147.032 98.0752 145.342 Q98.0752 142.588 96.1308 140.852 Q94.2095 139.115 91.1077 139.115 Q88.9086 139.115 86.4549 139.879 Q84.0244 140.643 81.2466 142.194 L81.2466 137.472 Q84.0707 136.338 86.5243 135.759 Q88.978 135.18 91.0151 135.18 Q96.3854 135.18 99.5798 137.865 Q102.774 140.551 102.774 145.041 Q102.774 147.171 101.964 149.092 Q101.177 150.99 99.0706 153.583 Q98.4919 154.254 95.39 157.472 Q92.2882 160.666 86.6401 166.43 Z" fill="#000000" fill-rule="nonzero" fill-opacity="1" /><path clip-path="url(#clip042)" d="M260.722 1317.34 L260.722 1423.18 L364.421 1423.18 L364.421 1317.34 L260.722 1317.34 L260.722 1317.34  Z" fill="#009af9" fill-rule="evenodd" fill-opacity="1"/>
<polyline clip-path="url(#clip042)" style="stroke:#000000; stroke-linecap:round; stroke-linejoin:round; stroke-width:4; stroke-opacity:1; fill:none" points="260.722,1317.34 260.722,1423.18 364.421,1423.18 364.421,1317.34 260.722,1317.34 "/>
<path clip-path="url(#clip042)" d="M364.421 1211.5 L364.421 1423.18 L468.119 1423.18 L468.119 1211.5 L364.421 1211.5 L364.421 1211.5  Z" fill="#009af9" fill-rule="evenodd" fill-opacity="1"/>
<polyline clip-path="url(#clip042)" style="stroke:#000000; stroke-linecap:round; stroke-linejoin:round; stroke-width:4; stroke-opacity:1; fill:none" points="364.421,1211.5 364.421,1423.18 468.119,1423.18 468.119,1211.5 364.421,1211.5 "/>
<path clip-path="url(#clip042)" d="M468.119 1105.66 L468.119 1423.18 L571.818 1423.18 L571.818 1105.66 L468.119 1105.66 L468.119 1105.66  Z" fill="#009af9" fill-rule="evenodd" fill-opacity="1"/>
<polyline clip-path="url(#clip042)" style="stroke:#000000; stroke-linecap:round; stroke-linejoin:round; stroke-width:4; stroke-opacity:1; fill:none" points="468.119,1105.66 468.119,1423.18 571.818,1423.18 571.818,1105.66 468.119,1105.66 "/>
<path clip-path="url(#clip042)" d="M571.818 999.815 L571.818 1423.18 L675.516 1423.18 L675.516 999.815 L571.818 999.815 L571.818 999.815  Z" fill="#009af9" fill-rule="evenodd" fill-opacity="1"/>
<polyline clip-path="url(#clip042)" style="stroke:#000000; stroke-linecap:round; stroke-linejoin:round; stroke-width:4; stroke-opacity:1; fill:none" points="571.818,999.815 571.818,1423.18 675.516,1423.18 675.516,999.815 571.818,999.815 "/>
<path clip-path="url(#clip042)" d="M675.516 788.133 L675.516 1423.18 L779.215 1423.18 L779.215 788.133 L675.516 788.133 L675.516 788.133  Z" fill="#009af9" fill-rule="evenodd" fill-opacity="1"/>
<polyline clip-path="url(#clip042)" style="stroke:#000000; stroke-linecap:round; stroke-linejoin:round; stroke-width:4; stroke-opacity:1; fill:none" points="675.516,788.133 675.516,1423.18 779.215,1423.18 779.215,788.133 675.516,788.133 "/>
<path clip-path="url(#clip042)" d="M779.215 788.133 L779.215 1423.18 L882.913 1423.18 L882.913 788.133 L779.215 788.133 L779.215 788.133  Z" fill="#009af9" fill-rule="evenodd" fill-opacity="1"/>
<polyline clip-path="url(#clip042)" style="stroke:#000000; stroke-linecap:round; stroke-linejoin:round; stroke-width:4; stroke-opacity:1; fill:none" points="779.215,788.133 779.215,1423.18 882.913,1423.18 882.913,788.133 779.215,788.133 "/>
<path clip-path="url(#clip042)" d="M882.913 576.45 L882.913 1423.18 L986.611 1423.18 L986.611 576.45 L882.913 576.45 L882.913 576.45  Z" fill="#009af9" fill-rule="evenodd" fill-opacity="1"/>
<polyline clip-path="url(#clip042)" style="stroke:#000000; stroke-linecap:round; stroke-linejoin:round; stroke-width:4; stroke-opacity:1; fill:none" points="882.913,576.45 882.913,1423.18 986.611,1423.18 986.611,576.45 882.913,576.45 "/>
<path clip-path="url(#clip042)" d="M986.611 576.45 L986.611 1423.18 L1090.31 1423.18 L1090.31 576.45 L986.611 576.45 L986.611 576.45  Z" fill="#009af9" fill-rule="evenodd" fill-opacity="1"/>
<polyline clip-path="url(#clip042)" style="stroke:#000000; stroke-linecap:round; stroke-linejoin:round; stroke-width:4; stroke-opacity:1; fill:none" points="986.611,576.45 986.611,1423.18 1090.31,1423.18 1090.31,576.45 986.611,576.45 "/>
<path clip-path="url(#clip042)" d="M1090.31 576.45 L1090.31 1423.18 L1194.01 1423.18 L1194.01 576.45 L1090.31 576.45 L1090.31 576.45  Z" fill="#009af9" fill-rule="evenodd" fill-opacity="1"/>
<polyline clip-path="url(#clip042)" style="stroke:#000000; stroke-linecap:round; stroke-linejoin:round; stroke-width:4; stroke-opacity:1; fill:none" points="1090.31,576.45 1090.31,1423.18 1194.01,1423.18 1194.01,576.45 1090.31,576.45 "/>
<path clip-path="url(#clip042)" d="M1194.01 682.291 L1194.01 1423.18 L1297.71 1423.18 L1297.71 682.291 L1194.01 682.291 L1194.01 682.291  Z" fill="#009af9" fill-rule="evenodd" fill-opacity="1"/>
<polyline clip-path="url(#clip042)" style="stroke:#000000; stroke-linecap:round; stroke-linejoin:round; stroke-width:4; stroke-opacity:1; fill:none" points="1194.01,682.291 1194.01,1423.18 1297.71,1423.18 1297.71,682.291 1194.01,682.291 "/>
<path clip-path="url(#clip042)" d="M1297.71 47.2441 L1297.71 1423.18 L1401.41 1423.18 L1401.41 47.2441 L1297.71 47.2441 L1297.71 47.2441  Z" fill="#009af9" fill-rule="evenodd" fill-opacity="1"/>
<polyline clip-path="url(#clip042)" style="stroke:#000000; stroke-linecap:round; stroke-linejoin:round; stroke-width:4; stroke-opacity:1; fill:none" points="1297.71,47.2441 1297.71,1423.18 1401.41,1423.18 1401.41,47.2441 1297.71,47.2441 "/>
<path clip-path="url(#clip042)" d="M1401.41 1105.66 L1401.41 1423.18 L1505.1 1423.18 L1505.1 1105.66 L1401.41 1105.66 L1401.41 1105.66  Z" fill="#009af9" fill-rule="evenodd" fill-opacity="1"/>
<polyline clip-path="url(#clip042)" style="stroke:#000000; stroke-linecap:round; stroke-linejoin:round; stroke-width:4; stroke-opacity:1; fill:none" points="1401.41,1105.66 1401.41,1423.18 1505.1,1423.18 1505.1,1105.66 1401.41,1105.66 "/>
<path clip-path="url(#clip042)" d="M1505.1 470.609 L1505.1 1423.18 L1608.8 1423.18 L1608.8 470.609 L1505.1 470.609 L1505.1 470.609  Z" fill="#009af9" fill-rule="evenodd" fill-opacity="1"/>
<polyline clip-path="url(#clip042)" style="stroke:#000000; stroke-linecap:round; stroke-linejoin:round; stroke-width:4; stroke-opacity:1; fill:none" points="1505.1,470.609 1505.1,1423.18 1608.8,1423.18 1608.8,470.609 1505.1,470.609 "/>
<path clip-path="url(#clip042)" d="M1608.8 893.974 L1608.8 1423.18 L1712.5 1423.18 L1712.5 893.974 L1608.8 893.974 L1608.8 893.974  Z" fill="#009af9" fill-rule="evenodd" fill-opacity="1"/>
<polyline clip-path="url(#clip042)" style="stroke:#000000; stroke-linecap:round; stroke-linejoin:round; stroke-width:4; stroke-opacity:1; fill:none" points="1608.8,893.974 1608.8,1423.18 1712.5,1423.18 1712.5,893.974 1608.8,893.974 "/>
<path clip-path="url(#clip042)" d="M1712.5 788.133 L1712.5 1423.18 L1816.2 1423.18 L1816.2 788.133 L1712.5 788.133 L1712.5 788.133  Z" fill="#009af9" fill-rule="evenodd" fill-opacity="1"/>
<polyline clip-path="url(#clip042)" style="stroke:#000000; stroke-linecap:round; stroke-linejoin:round; stroke-width:4; stroke-opacity:1; fill:none" points="1712.5,788.133 1712.5,1423.18 1816.2,1423.18 1816.2,788.133 1712.5,788.133 "/>
<path clip-path="url(#clip042)" d="M1816.2 893.974 L1816.2 1423.18 L1919.9 1423.18 L1919.9 893.974 L1816.2 893.974 L1816.2 893.974  Z" fill="#009af9" fill-rule="evenodd" fill-opacity="1"/>
<polyline clip-path="url(#clip042)" style="stroke:#000000; stroke-linecap:round; stroke-linejoin:round; stroke-width:4; stroke-opacity:1; fill:none" points="1816.2,893.974 1816.2,1423.18 1919.9,1423.18 1919.9,893.974 1816.2,893.974 "/>
<path clip-path="url(#clip042)" d="M1919.9 1105.66 L1919.9 1423.18 L2023.6 1423.18 L2023.6 1105.66 L1919.9 1105.66 L1919.9 1105.66  Z" fill="#009af9" fill-rule="evenodd" fill-opacity="1"/>
<polyline clip-path="url(#clip042)" style="stroke:#000000; stroke-linecap:round; stroke-linejoin:round; stroke-width:4; stroke-opacity:1; fill:none" points="1919.9,1105.66 1919.9,1423.18 2023.6,1423.18 2023.6,1105.66 1919.9,1105.66 "/>
<path clip-path="url(#clip042)" d="M2023.6 1211.5 L2023.6 1423.18 L2127.29 1423.18 L2127.29 1211.5 L2023.6 1211.5 L2023.6 1211.5  Z" fill="#009af9" fill-rule="evenodd" fill-opacity="1"/>
<polyline clip-path="url(#clip042)" style="stroke:#000000; stroke-linecap:round; stroke-linejoin:round; stroke-width:4; stroke-opacity:1; fill:none" points="2023.6,1211.5 2023.6,1423.18 2127.29,1423.18 2127.29,1211.5 2023.6,1211.5 "/>
<path clip-path="url(#clip042)" d="M2127.29 1317.34 L2127.29 1423.18 L2230.99 1423.18 L2230.99 1317.34 L2127.29 1317.34 L2127.29 1317.34  Z" fill="#009af9" fill-rule="evenodd" fill-opacity="1"/>
<polyline clip-path="url(#clip042)" style="stroke:#000000; stroke-linecap:round; stroke-linejoin:round; stroke-width:4; stroke-opacity:1; fill:none" points="2127.29,1317.34 2127.29,1423.18 2230.99,1423.18 2230.99,1317.34 2127.29,1317.34 "/>
<circle clip-path="url(#clip042)" style="fill:#009af9; stroke:none; fill-opacity:0" cx="312.571" cy="1317.34" r="2"/>
<circle clip-path="url(#clip042)" style="fill:#009af9; stroke:none; fill-opacity:0" cx="416.27" cy="1211.5" r="2"/>
<circle clip-path="url(#clip042)" style="fill:#009af9; stroke:none; fill-opacity:0" cx="519.968" cy="1105.66" r="2"/>
<circle clip-path="url(#clip042)" style="fill:#009af9; stroke:none; fill-opacity:0" cx="623.667" cy="999.815" r="2"/>
<circle clip-path="url(#clip042)" style="fill:#009af9; stroke:none; fill-opacity:0" cx="727.365" cy="788.133" r="2"/>
<circle clip-path="url(#clip042)" style="fill:#009af9; stroke:none; fill-opacity:0" cx="831.064" cy="788.133" r="2"/>
<circle clip-path="url(#clip042)" style="fill:#009af9; stroke:none; fill-opacity:0" cx="934.762" cy="576.45" r="2"/>
<circle clip-path="url(#clip042)" style="fill:#009af9; stroke:none; fill-opacity:0" cx="1038.46" cy="576.45" r="2"/>
<circle clip-path="url(#clip042)" style="fill:#009af9; stroke:none; fill-opacity:0" cx="1142.16" cy="576.45" r="2"/>
<circle clip-path="url(#clip042)" style="fill:#009af9; stroke:none; fill-opacity:0" cx="1245.86" cy="682.291" r="2"/>
<circle clip-path="url(#clip042)" style="fill:#009af9; stroke:none; fill-opacity:0" cx="1349.56" cy="47.2441" r="2"/>
<circle clip-path="url(#clip042)" style="fill:#009af9; stroke:none; fill-opacity:0" cx="1453.25" cy="1105.66" r="2"/>
<circle clip-path="url(#clip042)" style="fill:#009af9; stroke:none; fill-opacity:0" cx="1556.95" cy="470.609" r="2"/>
<circle clip-path="url(#clip042)" style="fill:#009af9; stroke:none; fill-opacity:0" cx="1660.65" cy="893.974" r="2"/>
<circle clip-path="url(#clip042)" style="fill:#009af9; stroke:none; fill-opacity:0" cx="1764.35" cy="788.133" r="2"/>
<circle clip-path="url(#clip042)" style="fill:#009af9; stroke:none; fill-opacity:0" cx="1868.05" cy="893.974" r="2"/>
<circle clip-path="url(#clip042)" style="fill:#009af9; stroke:none; fill-opacity:0" cx="1971.75" cy="1105.66" r="2"/>
<circle clip-path="url(#clip042)" style="fill:#009af9; stroke:none; fill-opacity:0" cx="2075.45" cy="1211.5" r="2"/>
<circle clip-path="url(#clip042)" style="fill:#009af9; stroke:none; fill-opacity:0" cx="2179.14" cy="1317.34" r="2"/>
</svg>
