<?xml version="1.0" encoding="utf-8"?>
<svg xmlns="http://www.w3.org/2000/svg" xmlns:xlink="http://www.w3.org/1999/xlink" width="600" height="400" viewBox="0 0 2400 1600">
<defs>
  <clipPath id="clip200">
    <rect x="0" y="0" width="2400" height="1600"/>
  </clipPath>
</defs>
<path clip-path="url(#clip200)" d="M0 1600 L2400 1600 L2400 0 L0 0  Z" fill="#ffffff" fill-rule="evenodd" fill-opacity="1"/>
<defs>
  <clipPath id="clip201">
    <rect x="480" y="0" width="1681" height="1600"/>
  </clipPath>
</defs>
<path clip-path="url(#clip200)" d="M369.518 1423.18 L2352.76 1423.18 L2352.76 47.2441 L369.518 47.2441  Z" fill="#ffffff" fill-rule="evenodd" fill-opacity="1"/>
<defs>
  <clipPath id="clip202">
    <rect x="369" y="47" width="1984" height="1377"/>
  </clipPath>
</defs>
<polyline clip-path="url(#clip202)" style="stroke:#000000; stroke-linecap:round; stroke-linejoin:round; stroke-width:2; stroke-opacity:0.1; fill:none" points="388.85,1423.18 388.85,47.2441 "/>
<polyline clip-path="url(#clip202)" style="stroke:#000000; stroke-linecap:round; stroke-linejoin:round; stroke-width:2; stroke-opacity:0.1; fill:none" points="688.015,1423.18 688.015,47.2441 "/>
<polyline clip-path="url(#clip202)" style="stroke:#000000; stroke-linecap:round; stroke-linejoin:round; stroke-width:2; stroke-opacity:0.1; fill:none" points="987.181,1423.18 987.181,47.2441 "/>
<polyline clip-path="url(#clip202)" style="stroke:#000000; stroke-linecap:round; stroke-linejoin:round; stroke-width:2; stroke-opacity:0.1; fill:none" points="1286.35,1423.18 1286.35,47.2441 "/>
<polyline clip-path="url(#clip202)" style="stroke:#000000; stroke-linecap:round; stroke-linejoin:round; stroke-width:2; stroke-opacity:0.1; fill:none" points="1585.51,1423.18 1585.51,47.2441 "/>
<polyline clip-path="url(#clip202)" style="stroke:#000000; stroke-linecap:round; stroke-linejoin:round; stroke-width:2; stroke-opacity:0.1; fill:none" points="1884.68,1423.18 1884.68,47.2441 "/>
<polyline clip-path="url(#clip202)" style="stroke:#000000; stroke-linecap:round; stroke-linejoin:round; stroke-width:2; stroke-opacity:0.1; fill:none" points="2183.84,1423.18 2183.84,47.2441 "/>
<polyline clip-path="url(#clip200)" style="stroke:#000000; stroke-linecap:round; stroke-linejoin:round; stroke-width:4; stroke-opacity:1; fill:none" points="369.518,1423.18 2352.76,1423.18 "/>
<polyline clip-path="url(#clip200)" style="stroke:#000000; stroke-linecap:round; stroke-linejoin:round; stroke-width:4; stroke-opacity:1; fill:none" points="388.85,1423.18 388.85,1404.28 "/>
<polyline clip-path="url(#clip200)" style="stroke:#000000; stroke-linecap:round; stroke-linejoin:round; stroke-width:4; stroke-opacity:1; fill:none" points="688.015,1423.18 688.015,1404.28 "/>
<polyline clip-path="url(#clip200)" style="stroke:#000000; stroke-linecap:round; stroke-linejoin:round; stroke-width:4; stroke-opacity:1; fill:none" points="987.181,1423.18 987.181,1404.28 "/>
<polyline clip-path="url(#clip200)" style="stroke:#000000; stroke-linecap:round; stroke-linejoin:round; stroke-width:4; stroke-opacity:1; fill:none" points="1286.35,1423.18 1286.35,1404.28 "/>
<polyline clip-path="url(#clip200)" style="stroke:#000000; stroke-linecap:round; stroke-linejoin:round; stroke-width:4; stroke-opacity:1; fill:none" points="1585.51,1423.18 1585.51,1404.28 "/>
<polyline clip-path="url(#clip200)" style="stroke:#000000; stroke-linecap:round; stroke-linejoin:round; stroke-width:4; stroke-opacity:1; fill:none" points="1884.68,1423.18 1884.68,1404.28 "/>
<polyline clip-path="url(#clip200)" style="stroke:#000000; stroke-linecap:round; stroke-linejoin:round; stroke-width:4; stroke-opacity:1; fill:none" points="2183.84,1423.18 2183.84,1404.28 "/>
<path clip-path="url(#clip200)" d="M388.85 1454.1 Q385.239 1454.1 383.411 1457.66 Q381.605 1461.2 381.605 1468.33 Q381.605 1475.44 383.411 1479.01 Q385.239 1482.55 388.85 1482.55 Q392.485 1482.55 394.29 1479.01 Q396.119 1475.44 396.119 1468.33 Q396.119 1461.2 394.29 1457.66 Q392.485 1454.1 388.85 1454.1 M388.85 1450.39 Q394.66 1450.39 397.716 1455 Q400.795 1459.58 400.795 1468.33 Q400.795 1477.06 397.716 1481.67 Q394.66 1486.25 388.85 1486.25 Q383.04 1486.25 379.961 1481.67 Q376.906 1477.06 376.906 1468.33 Q376.906 1459.58 379.961 1455 Q383.04 1450.39 388.85 1450.39 Z" fill="#000000" fill-rule="nonzero" fill-opacity="1" /><path clip-path="url(#clip200)" d="M682.668 1481.64 L698.988 1481.64 L698.988 1485.58 L677.043 1485.58 L677.043 1481.64 Q679.705 1478.89 684.289 1474.26 Q688.895 1469.61 690.076 1468.27 Q692.321 1465.74 693.201 1464.01 Q694.103 1462.25 694.103 1460.56 Q694.103 1457.8 692.159 1456.07 Q690.238 1454.33 687.136 1454.33 Q684.937 1454.33 682.483 1455.09 Q680.053 1455.86 677.275 1457.41 L677.275 1452.69 Q680.099 1451.55 682.553 1450.97 Q685.006 1450.39 687.043 1450.39 Q692.414 1450.39 695.608 1453.08 Q698.802 1455.77 698.802 1460.26 Q698.802 1462.39 697.992 1464.31 Q697.205 1466.2 695.099 1468.8 Q694.52 1469.47 691.418 1472.69 Q688.316 1475.88 682.668 1481.64 Z" fill="#000000" fill-rule="nonzero" fill-opacity="1" /><path clip-path="url(#clip200)" d="M990.19 1455.09 L978.384 1473.54 L990.19 1473.54 L990.19 1455.09 M988.963 1451.02 L994.843 1451.02 L994.843 1473.54 L999.773 1473.54 L999.773 1477.43 L994.843 1477.43 L994.843 1485.58 L990.19 1485.58 L990.19 1477.43 L974.588 1477.43 L974.588 1472.92 L988.963 1451.02 Z" fill="#000000" fill-rule="nonzero" fill-opacity="1" /><path clip-path="url(#clip200)" d="M1286.75 1466.44 Q1283.6 1466.44 1281.75 1468.59 Q1279.92 1470.74 1279.92 1474.49 Q1279.92 1478.22 1281.75 1480.39 Q1283.6 1482.55 1286.75 1482.55 Q1289.9 1482.55 1291.73 1480.39 Q1293.58 1478.22 1293.58 1474.49 Q1293.58 1470.74 1291.73 1468.59 Q1289.9 1466.44 1286.75 1466.44 M1296.03 1451.78 L1296.03 1456.04 Q1294.27 1455.21 1292.47 1454.77 Q1290.69 1454.33 1288.93 1454.33 Q1284.3 1454.33 1281.84 1457.45 Q1279.41 1460.58 1279.07 1466.9 Q1280.43 1464.89 1282.49 1463.82 Q1284.55 1462.73 1287.03 1462.73 Q1292.24 1462.73 1295.25 1465.9 Q1298.28 1469.05 1298.28 1474.49 Q1298.28 1479.82 1295.13 1483.03 Q1291.98 1486.25 1286.75 1486.25 Q1280.76 1486.25 1277.58 1481.67 Q1274.41 1477.06 1274.41 1468.33 Q1274.41 1460.14 1278.3 1455.28 Q1282.19 1450.39 1288.74 1450.39 Q1290.5 1450.39 1292.28 1450.74 Q1294.09 1451.09 1296.03 1451.78 Z" fill="#000000" fill-rule="nonzero" fill-opacity="1" /><path clip-path="url(#clip200)" d="M1585.51 1469.17 Q1582.18 1469.17 1580.26 1470.95 Q1578.36 1472.73 1578.36 1475.86 Q1578.36 1478.98 1580.26 1480.77 Q1582.18 1482.55 1585.51 1482.55 Q1588.84 1482.55 1590.77 1480.77 Q1592.69 1478.96 1592.69 1475.86 Q1592.69 1472.73 1590.77 1470.95 Q1588.87 1469.17 1585.51 1469.17 M1580.84 1467.18 Q1577.83 1466.44 1576.14 1464.38 Q1574.47 1462.32 1574.47 1459.35 Q1574.47 1455.21 1577.41 1452.8 Q1580.37 1450.39 1585.51 1450.39 Q1590.67 1450.39 1593.61 1452.8 Q1596.55 1455.21 1596.55 1459.35 Q1596.55 1462.32 1594.86 1464.38 Q1593.2 1466.44 1590.21 1467.18 Q1593.59 1467.96 1595.46 1470.26 Q1597.36 1472.55 1597.36 1475.86 Q1597.36 1480.88 1594.28 1483.57 Q1591.23 1486.25 1585.51 1486.25 Q1579.79 1486.25 1576.71 1483.57 Q1573.66 1480.88 1573.66 1475.86 Q1573.66 1472.55 1575.56 1470.26 Q1577.46 1467.96 1580.84 1467.18 M1579.12 1459.79 Q1579.12 1462.48 1580.79 1463.98 Q1582.48 1465.49 1585.51 1465.49 Q1588.52 1465.49 1590.21 1463.98 Q1591.92 1462.48 1591.92 1459.79 Q1591.92 1457.11 1590.21 1455.6 Q1588.52 1454.1 1585.51 1454.1 Q1582.48 1454.1 1580.79 1455.6 Q1579.12 1457.11 1579.12 1459.79 Z" fill="#000000" fill-rule="nonzero" fill-opacity="1" /><path clip-path="url(#clip200)" d="M1859.36 1481.64 L1867 1481.64 L1867 1455.28 L1858.69 1456.95 L1858.69 1452.69 L1866.96 1451.02 L1871.63 1451.02 L1871.63 1481.64 L1879.27 1481.64 L1879.27 1485.58 L1859.36 1485.58 L1859.36 1481.64 Z" fill="#000000" fill-rule="nonzero" fill-opacity="1" /><path clip-path="url(#clip200)" d="M1898.72 1454.1 Q1895.1 1454.1 1893.28 1457.66 Q1891.47 1461.2 1891.47 1468.33 Q1891.47 1475.44 1893.28 1479.01 Q1895.1 1482.55 1898.72 1482.55 Q1902.35 1482.55 1904.16 1479.01 Q1905.98 1475.44 1905.98 1468.33 Q1905.98 1461.2 1904.16 1457.66 Q1902.35 1454.1 1898.72 1454.1 M1898.72 1450.39 Q1904.53 1450.39 1907.58 1455 Q1910.66 1459.58 1910.66 1468.33 Q1910.66 1477.06 1907.58 1481.67 Q1904.53 1486.25 1898.72 1486.25 Q1892.91 1486.25 1889.83 1481.67 Q1886.77 1477.06 1886.77 1468.33 Q1886.77 1459.58 1889.83 1455 Q1892.91 1450.39 1898.72 1450.39 Z" fill="#000000" fill-rule="nonzero" fill-opacity="1" /><path clip-path="url(#clip200)" d="M2159.33 1481.64 L2166.97 1481.64 L2166.97 1455.28 L2158.66 1456.95 L2158.66 1452.69 L2166.92 1451.02 L2171.6 1451.02 L2171.6 1481.64 L2179.23 1481.64 L2179.23 1485.58 L2159.33 1485.58 L2159.33 1481.64 Z" fill="#000000" fill-rule="nonzero" fill-opacity="1" /><path clip-path="url(#clip200)" d="M2192.71 1481.64 L2209.03 1481.64 L2209.03 1485.58 L2187.08 1485.58 L2187.08 1481.64 Q2189.74 1478.89 2194.33 1474.26 Q2198.93 1469.61 2200.11 1468.27 Q2202.36 1465.74 2203.24 1464.01 Q2204.14 1462.25 2204.14 1460.56 Q2204.14 1457.8 2202.2 1456.07 Q2200.28 1454.33 2197.17 1454.33 Q2194.98 1454.33 2192.52 1455.09 Q2190.09 1455.86 2187.31 1457.41 L2187.31 1452.69 Q2190.14 1451.55 2192.59 1450.97 Q2195.04 1450.39 2197.08 1450.39 Q2202.45 1450.39 2205.65 1453.08 Q2208.84 1455.77 2208.84 1460.26 Q2208.84 1462.39 2208.03 1464.31 Q2207.24 1466.2 2205.14 1468.8 Q2204.56 1469.47 2201.46 1472.69 Q2198.36 1475.88 2192.71 1481.64 Z" fill="#000000" fill-rule="nonzero" fill-opacity="1" /><path clip-path="url(#clip200)" d="M1264.95 1520.52 L1274.53 1520.52 L1286.66 1552.86 L1298.85 1520.52 L1308.43 1520.52 L1308.43 1568.04 L1302.16 1568.04 L1302.16 1526.32 L1289.9 1558.91 L1283.44 1558.91 L1271.19 1526.32 L1271.19 1568.04 L1264.95 1568.04 L1264.95 1520.52 Z" fill="#000000" fill-rule="nonzero" fill-opacity="1" /><path clip-path="url(#clip200)" d="M1334.75 1536.5 Q1330.04 1536.5 1327.3 1540.19 Q1324.57 1543.85 1324.57 1550.25 Q1324.57 1556.65 1327.27 1560.34 Q1330.01 1564 1334.75 1564 Q1339.43 1564 1342.17 1560.31 Q1344.9 1556.62 1344.9 1550.25 Q1344.9 1543.92 1342.17 1540.23 Q1339.43 1536.5 1334.75 1536.5 M1334.75 1531.54 Q1342.39 1531.54 1346.75 1536.5 Q1351.11 1541.47 1351.11 1550.25 Q1351.11 1559 1346.75 1564 Q1342.39 1568.97 1334.75 1568.97 Q1327.08 1568.97 1322.72 1564 Q1318.39 1559 1318.39 1550.25 Q1318.39 1541.47 1322.72 1536.5 Q1327.08 1531.54 1334.75 1531.54 Z" fill="#000000" fill-rule="nonzero" fill-opacity="1" /><path clip-path="url(#clip200)" d="M1390.45 1546.53 L1390.45 1568.04 L1384.59 1568.04 L1384.59 1546.72 Q1384.59 1541.66 1382.62 1539.14 Q1380.65 1536.63 1376.7 1536.63 Q1371.96 1536.63 1369.22 1539.65 Q1366.48 1542.68 1366.48 1547.9 L1366.48 1568.04 L1360.6 1568.04 L1360.6 1532.4 L1366.48 1532.4 L1366.48 1537.93 Q1368.58 1534.72 1371.42 1533.13 Q1374.28 1531.54 1378.01 1531.54 Q1384.15 1531.54 1387.3 1535.36 Q1390.45 1539.14 1390.45 1546.53 Z" fill="#000000" fill-rule="nonzero" fill-opacity="1" /><path clip-path="url(#clip200)" d="M1407.93 1522.27 L1407.93 1532.4 L1419.99 1532.4 L1419.99 1536.95 L1407.93 1536.95 L1407.93 1556.3 Q1407.93 1560.66 1409.1 1561.9 Q1410.31 1563.14 1413.97 1563.14 L1419.99 1563.14 L1419.99 1568.04 L1413.97 1568.04 Q1407.19 1568.04 1404.61 1565.53 Q1402.04 1562.98 1402.04 1556.3 L1402.04 1536.95 L1397.74 1536.95 L1397.74 1532.4 L1402.04 1532.4 L1402.04 1522.27 L1407.93 1522.27 Z" fill="#000000" fill-rule="nonzero" fill-opacity="1" /><path clip-path="url(#clip200)" d="M1457.32 1546.53 L1457.32 1568.04 L1451.47 1568.04 L1451.47 1546.72 Q1451.47 1541.66 1449.49 1539.14 Q1447.52 1536.63 1443.57 1536.63 Q1438.83 1536.63 1436.09 1539.65 Q1433.36 1542.68 1433.36 1547.9 L1433.36 1568.04 L1427.47 1568.04 L1427.47 1518.52 L1433.36 1518.52 L1433.36 1537.93 Q1435.46 1534.72 1438.29 1533.13 Q1441.15 1531.54 1444.88 1531.54 Q1451.02 1531.54 1454.17 1535.36 Q1457.32 1539.14 1457.32 1546.53 Z" fill="#000000" fill-rule="nonzero" fill-opacity="1" /><polyline clip-path="url(#clip202)" style="stroke:#000000; stroke-linecap:round; stroke-linejoin:round; stroke-width:2; stroke-opacity:0.1; fill:none" points="369.518,1423.18 2352.76,1423.18 "/>
<polyline clip-path="url(#clip202)" style="stroke:#000000; stroke-linecap:round; stroke-linejoin:round; stroke-width:2; stroke-opacity:0.1; fill:none" points="369.518,1079.2 2352.76,1079.2 "/>
<polyline clip-path="url(#clip202)" style="stroke:#000000; stroke-linecap:round; stroke-linejoin:round; stroke-width:2; stroke-opacity:0.1; fill:none" points="369.518,735.212 2352.76,735.212 "/>
<polyline clip-path="url(#clip202)" style="stroke:#000000; stroke-linecap:round; stroke-linejoin:round; stroke-width:2; stroke-opacity:0.1; fill:none" points="369.518,391.228 2352.76,391.228 "/>
<polyline clip-path="url(#clip202)" style="stroke:#000000; stroke-linecap:round; stroke-linejoin:round; stroke-width:2; stroke-opacity:0.1; fill:none" points="369.518,47.2441 2352.76,47.2441 "/>
<polyline clip-path="url(#clip200)" style="stroke:#000000; stroke-linecap:round; stroke-linejoin:round; stroke-width:4; stroke-opacity:1; fill:none" points="369.518,1423.18 369.518,47.2441 "/>
<polyline clip-path="url(#clip200)" style="stroke:#000000; stroke-linecap:round; stroke-linejoin:round; stroke-width:4; stroke-opacity:1; fill:none" points="369.518,1423.18 388.416,1423.18 "/>
<polyline clip-path="url(#clip200)" style="stroke:#000000; stroke-linecap:round; stroke-linejoin:round; stroke-width:4; stroke-opacity:1; fill:none" points="369.518,1079.2 388.416,1079.2 "/>
<polyline clip-path="url(#clip200)" style="stroke:#000000; stroke-linecap:round; stroke-linejoin:round; stroke-width:4; stroke-opacity:1; fill:none" points="369.518,735.212 388.416,735.212 "/>
<polyline clip-path="url(#clip200)" style="stroke:#000000; stroke-linecap:round; stroke-linejoin:round; stroke-width:4; stroke-opacity:1; fill:none" points="369.518,391.228 388.416,391.228 "/>
<polyline clip-path="url(#clip200)" style="stroke:#000000; stroke-linecap:round; stroke-linejoin:round; stroke-width:4; stroke-opacity:1; fill:none" points="369.518,47.2441 388.416,47.2441 "/>
<path clip-path="url(#clip200)" d="M321.574 1408.98 Q317.963 1408.98 316.134 1412.54 Q314.329 1416.08 314.329 1423.21 Q314.329 1430.32 316.134 1433.89 Q317.963 1437.43 321.574 1437.43 Q325.208 1437.43 327.014 1433.89 Q328.842 1430.32 328.842 1423.21 Q328.842 1416.08 327.014 1412.54 Q325.208 1408.98 321.574 1408.98 M321.574 1405.27 Q327.384 1405.27 330.44 1409.88 Q333.518 1414.46 333.518 1423.21 Q333.518 1431.94 330.44 1436.55 Q327.384 1441.13 321.574 1441.13 Q315.764 1441.13 312.685 1436.55 Q309.629 1431.94 309.629 1423.21 Q309.629 1414.46 312.685 1409.88 Q315.764 1405.27 321.574 1405.27 Z" fill="#000000" fill-rule="nonzero" fill-opacity="1" /><path clip-path="url(#clip200)" d="M115.718 1068.36 L134.075 1068.36 L134.075 1072.3 L120.001 1072.3 L120.001 1080.77 Q121.019 1080.42 122.038 1080.26 Q123.056 1080.08 124.075 1080.08 Q129.862 1080.08 133.242 1083.25 Q136.621 1086.42 136.621 1091.84 Q136.621 1097.41 133.149 1100.52 Q129.677 1103.59 123.357 1103.59 Q121.181 1103.59 118.913 1103.22 Q116.668 1102.85 114.26 1102.11 L114.26 1097.41 Q116.343 1098.55 118.566 1099.1 Q120.788 1099.66 123.265 1099.66 Q127.269 1099.66 129.607 1097.55 Q131.945 1095.45 131.945 1091.84 Q131.945 1088.22 129.607 1086.12 Q127.269 1084.01 123.265 1084.01 Q121.39 1084.01 119.515 1084.43 Q117.663 1084.84 115.718 1085.72 L115.718 1068.36 Z" fill="#000000" fill-rule="nonzero" fill-opacity="1" /><path clip-path="url(#clip200)" d="M145.834 1097.04 L150.718 1097.04 L150.718 1102.92 L145.834 1102.92 L145.834 1097.04 Z" fill="#000000" fill-rule="nonzero" fill-opacity="1" /><path clip-path="url(#clip200)" d="M170.903 1071.44 Q167.292 1071.44 165.464 1075.01 Q163.658 1078.55 163.658 1085.68 Q163.658 1092.78 165.464 1096.35 Q167.292 1099.89 170.903 1099.89 Q174.538 1099.89 176.343 1096.35 Q178.172 1092.78 178.172 1085.68 Q178.172 1078.55 176.343 1075.01 Q174.538 1071.44 170.903 1071.44 M170.903 1067.74 Q176.714 1067.74 179.769 1072.34 Q182.848 1076.93 182.848 1085.68 Q182.848 1094.41 179.769 1099.01 Q176.714 1103.59 170.903 1103.59 Q165.093 1103.59 162.015 1099.01 Q158.959 1094.41 158.959 1085.68 Q158.959 1076.93 162.015 1072.34 Q165.093 1067.74 170.903 1067.74 Z" fill="#000000" fill-rule="nonzero" fill-opacity="1" /><path clip-path="url(#clip200)" d="M201.065 1071.44 Q197.454 1071.44 195.625 1075.01 Q193.82 1078.55 193.82 1085.68 Q193.82 1092.78 195.625 1096.35 Q197.454 1099.89 201.065 1099.89 Q204.699 1099.89 206.505 1096.35 Q208.334 1092.78 208.334 1085.68 Q208.334 1078.55 206.505 1075.01 Q204.699 1071.44 201.065 1071.44 M201.065 1067.74 Q206.875 1067.74 209.931 1072.34 Q213.01 1076.93 213.01 1085.68 Q213.01 1094.41 209.931 1099.01 Q206.875 1103.59 201.065 1103.59 Q195.255 1103.59 192.176 1099.01 Q189.121 1094.41 189.121 1085.68 Q189.121 1076.93 192.176 1072.34 Q195.255 1067.74 201.065 1067.74 Z" fill="#000000" fill-rule="nonzero" fill-opacity="1" /><path clip-path="url(#clip200)" d="M249.398 1077.46 L238.82 1088.09 L249.398 1098.66 L246.644 1101.47 L236.019 1090.84 L225.394 1101.47 L222.662 1098.66 L233.218 1088.09 L222.662 1077.46 L225.394 1074.66 L236.019 1085.28 L246.644 1074.66 L249.398 1077.46 Z" fill="#000000" fill-rule="nonzero" fill-opacity="1" /><path clip-path="url(#clip200)" d="M261.759 1098.99 L269.398 1098.99 L269.398 1072.62 L261.088 1074.29 L261.088 1070.03 L269.352 1068.36 L274.028 1068.36 L274.028 1098.99 L281.667 1098.99 L281.667 1102.92 L261.759 1102.92 L261.759 1098.99 Z" fill="#000000" fill-rule="nonzero" fill-opacity="1" /><path clip-path="url(#clip200)" d="M301.111 1071.44 Q297.5 1071.44 295.671 1075.01 Q293.866 1078.55 293.866 1085.68 Q293.866 1092.78 295.671 1096.35 Q297.5 1099.89 301.111 1099.89 Q304.745 1099.89 306.551 1096.35 Q308.379 1092.78 308.379 1085.68 Q308.379 1078.55 306.551 1075.01 Q304.745 1071.44 301.111 1071.44 M301.111 1067.74 Q306.921 1067.74 309.977 1072.34 Q313.055 1076.93 313.055 1085.68 Q313.055 1094.41 309.977 1099.01 Q306.921 1103.59 301.111 1103.59 Q295.301 1103.59 292.222 1099.01 Q289.167 1094.41 289.167 1085.68 Q289.167 1076.93 292.222 1072.34 Q295.301 1067.74 301.111 1067.74 Z" fill="#000000" fill-rule="nonzero" fill-opacity="1" /><path clip-path="url(#clip200)" d="M325.732 1050.74 L316.14 1065.73 L325.732 1065.73 L325.732 1050.74 M324.735 1047.43 L329.512 1047.43 L329.512 1065.73 L333.518 1065.73 L333.518 1068.89 L329.512 1068.89 L329.512 1075.51 L325.732 1075.51 L325.732 1068.89 L313.055 1068.89 L313.055 1065.23 L324.735 1047.43 Z" fill="#000000" fill-rule="nonzero" fill-opacity="1" /><path clip-path="url(#clip200)" d="M118.777 755.004 L126.416 755.004 L126.416 728.639 L118.106 730.305 L118.106 726.046 L126.369 724.38 L131.045 724.38 L131.045 755.004 L138.684 755.004 L138.684 758.94 L118.777 758.94 L118.777 755.004 Z" fill="#000000" fill-rule="nonzero" fill-opacity="1" /><path clip-path="url(#clip200)" d="M148.129 753.06 L153.013 753.06 L153.013 758.94 L148.129 758.94 L148.129 753.06 Z" fill="#000000" fill-rule="nonzero" fill-opacity="1" /><path clip-path="url(#clip200)" d="M173.198 727.458 Q169.587 727.458 167.758 731.023 Q165.953 734.565 165.953 741.694 Q165.953 748.801 167.758 752.366 Q169.587 755.907 173.198 755.907 Q176.832 755.907 178.638 752.366 Q180.466 748.801 180.466 741.694 Q180.466 734.565 178.638 731.023 Q176.832 727.458 173.198 727.458 M173.198 723.755 Q179.008 723.755 182.064 728.361 Q185.142 732.944 185.142 741.694 Q185.142 750.421 182.064 755.028 Q179.008 759.611 173.198 759.611 Q167.388 759.611 164.309 755.028 Q161.254 750.421 161.254 741.694 Q161.254 732.944 164.309 728.361 Q167.388 723.755 173.198 723.755 Z" fill="#000000" fill-rule="nonzero" fill-opacity="1" /><path clip-path="url(#clip200)" d="M203.36 727.458 Q199.749 727.458 197.92 731.023 Q196.114 734.565 196.114 741.694 Q196.114 748.801 197.92 752.366 Q199.749 755.907 203.36 755.907 Q206.994 755.907 208.8 752.366 Q210.628 748.801 210.628 741.694 Q210.628 734.565 208.8 731.023 Q206.994 727.458 203.36 727.458 M203.36 723.755 Q209.17 723.755 212.225 728.361 Q215.304 732.944 215.304 741.694 Q215.304 750.421 212.225 755.028 Q209.17 759.611 203.36 759.611 Q197.55 759.611 194.471 755.028 Q191.415 750.421 191.415 741.694 Q191.415 732.944 194.471 728.361 Q197.55 723.755 203.36 723.755 Z" fill="#000000" fill-rule="nonzero" fill-opacity="1" /><path clip-path="url(#clip200)" d="M251.693 733.477 L241.114 744.102 L251.693 754.68 L248.938 757.481 L238.313 746.856 L227.688 757.481 L224.957 754.68 L235.512 744.102 L224.957 733.477 L227.688 730.676 L238.313 741.301 L248.938 730.676 L251.693 733.477 Z" fill="#000000" fill-rule="nonzero" fill-opacity="1" /><path clip-path="url(#clip200)" d="M264.054 755.004 L271.693 755.004 L271.693 728.639 L263.383 730.305 L263.383 726.046 L271.646 724.38 L276.322 724.38 L276.322 755.004 L283.961 755.004 L283.961 758.94 L264.054 758.94 L264.054 755.004 Z" fill="#000000" fill-rule="nonzero" fill-opacity="1" /><path clip-path="url(#clip200)" d="M303.406 727.458 Q299.794 727.458 297.966 731.023 Q296.16 734.565 296.16 741.694 Q296.16 748.801 297.966 752.366 Q299.794 755.907 303.406 755.907 Q307.04 755.907 308.845 752.366 Q310.674 748.801 310.674 741.694 Q310.674 734.565 308.845 731.023 Q307.04 727.458 303.406 727.458 M303.406 723.755 Q309.216 723.755 312.271 728.361 Q315.35 732.944 315.35 741.694 Q315.35 750.421 312.271 755.028 Q309.216 759.611 303.406 759.611 Q297.595 759.611 294.517 755.028 Q291.461 750.421 291.461 741.694 Q291.461 732.944 294.517 728.361 Q297.595 723.755 303.406 723.755 Z" fill="#000000" fill-rule="nonzero" fill-opacity="1" /><path clip-path="url(#clip200)" d="M316.535 703.449 L331.449 703.449 L331.449 706.646 L320.014 706.646 L320.014 713.53 Q320.842 713.248 321.669 713.116 Q322.497 712.966 323.324 712.966 Q328.026 712.966 330.772 715.543 Q333.518 718.119 333.518 722.52 Q333.518 727.053 330.697 729.573 Q327.876 732.075 322.741 732.075 Q320.973 732.075 319.13 731.774 Q317.306 731.473 315.35 730.871 L315.35 727.053 Q317.043 727.975 318.848 728.426 Q320.654 728.877 322.666 728.877 Q325.92 728.877 327.819 727.166 Q329.719 725.454 329.719 722.52 Q329.719 719.586 327.819 717.875 Q325.92 716.163 322.666 716.163 Q321.143 716.163 319.619 716.502 Q318.115 716.84 316.535 717.555 L316.535 703.449 Z" fill="#000000" fill-rule="nonzero" fill-opacity="1" /><path clip-path="url(#clip200)" d="M118.777 411.02 L126.416 411.02 L126.416 384.655 L118.106 386.322 L118.106 382.062 L126.369 380.396 L131.045 380.396 L131.045 411.02 L138.684 411.02 L138.684 414.956 L118.777 414.956 L118.777 411.02 Z" fill="#000000" fill-rule="nonzero" fill-opacity="1" /><path clip-path="url(#clip200)" d="M148.129 409.076 L153.013 409.076 L153.013 414.956 L148.129 414.956 L148.129 409.076 Z" fill="#000000" fill-rule="nonzero" fill-opacity="1" /><path clip-path="url(#clip200)" d="M163.244 380.396 L181.601 380.396 L181.601 384.331 L167.527 384.331 L167.527 392.803 Q168.545 392.456 169.564 392.294 Q170.582 392.109 171.601 392.109 Q177.388 392.109 180.767 395.28 Q184.147 398.451 184.147 403.868 Q184.147 409.446 180.675 412.548 Q177.203 415.627 170.883 415.627 Q168.707 415.627 166.439 415.257 Q164.193 414.886 161.786 414.145 L161.786 409.446 Q163.869 410.581 166.091 411.136 Q168.314 411.692 170.791 411.692 Q174.795 411.692 177.133 409.585 Q179.471 407.479 179.471 403.868 Q179.471 400.257 177.133 398.15 Q174.795 396.044 170.791 396.044 Q168.916 396.044 167.041 396.46 Q165.189 396.877 163.244 397.757 L163.244 380.396 Z" fill="#000000" fill-rule="nonzero" fill-opacity="1" /><path clip-path="url(#clip200)" d="M203.36 383.474 Q199.749 383.474 197.92 387.039 Q196.114 390.581 196.114 397.71 Q196.114 404.817 197.92 408.382 Q199.749 411.923 203.36 411.923 Q206.994 411.923 208.8 408.382 Q210.628 404.817 210.628 397.71 Q210.628 390.581 208.8 387.039 Q206.994 383.474 203.36 383.474 M203.36 379.771 Q209.17 379.771 212.225 384.377 Q215.304 388.96 215.304 397.71 Q215.304 406.437 212.225 411.044 Q209.17 415.627 203.36 415.627 Q197.55 415.627 194.471 411.044 Q191.415 406.437 191.415 397.71 Q191.415 388.96 194.471 384.377 Q197.55 379.771 203.36 379.771 Z" fill="#000000" fill-rule="nonzero" fill-opacity="1" /><path clip-path="url(#clip200)" d="M251.693 389.493 L241.114 400.118 L251.693 410.696 L248.938 413.497 L238.313 402.872 L227.688 413.497 L224.957 410.696 L235.512 400.118 L224.957 389.493 L227.688 386.692 L238.313 397.317 L248.938 386.692 L251.693 389.493 Z" fill="#000000" fill-rule="nonzero" fill-opacity="1" /><path clip-path="url(#clip200)" d="M264.054 411.02 L271.693 411.02 L271.693 384.655 L263.383 386.322 L263.383 382.062 L271.646 380.396 L276.322 380.396 L276.322 411.02 L283.961 411.02 L283.961 414.956 L264.054 414.956 L264.054 411.02 Z" fill="#000000" fill-rule="nonzero" fill-opacity="1" /><path clip-path="url(#clip200)" d="M303.406 383.474 Q299.794 383.474 297.966 387.039 Q296.16 390.581 296.16 397.71 Q296.16 404.817 297.966 408.382 Q299.794 411.923 303.406 411.923 Q307.04 411.923 308.845 408.382 Q310.674 404.817 310.674 397.71 Q310.674 390.581 308.845 387.039 Q307.04 383.474 303.406 383.474 M303.406 379.771 Q309.216 379.771 312.271 384.377 Q315.35 388.96 315.35 397.71 Q315.35 406.437 312.271 411.044 Q309.216 415.627 303.406 415.627 Q297.595 415.627 294.517 411.044 Q291.461 406.437 291.461 397.71 Q291.461 388.96 294.517 384.377 Q297.595 379.771 303.406 379.771 Z" fill="#000000" fill-rule="nonzero" fill-opacity="1" /><path clip-path="url(#clip200)" d="M316.535 359.465 L331.449 359.465 L331.449 362.663 L320.014 362.663 L320.014 369.546 Q320.842 369.264 321.669 369.132 Q322.497 368.982 323.324 368.982 Q328.026 368.982 330.772 371.559 Q333.518 374.135 333.518 378.536 Q333.518 383.069 330.697 385.589 Q327.876 388.091 322.741 388.091 Q320.973 388.091 319.13 387.79 Q317.306 387.489 315.35 386.887 L315.35 383.069 Q317.043 383.991 318.848 384.442 Q320.654 384.893 322.666 384.893 Q325.92 384.893 327.819 383.182 Q329.719 381.47 329.719 378.536 Q329.719 375.602 327.819 373.891 Q325.92 372.179 322.666 372.179 Q321.143 372.179 319.619 372.518 Q318.115 372.856 316.535 373.571 L316.535 359.465 Z" fill="#000000" fill-rule="nonzero" fill-opacity="1" /><path clip-path="url(#clip200)" d="M121.994 67.0365 L138.314 67.0365 L138.314 70.9717 L116.37 70.9717 L116.37 67.0365 Q119.032 64.2819 123.615 59.6523 Q128.221 54.9996 129.402 53.657 Q131.647 51.1338 132.527 49.3977 Q133.43 47.6385 133.43 45.9487 Q133.43 43.1941 131.485 41.458 Q129.564 39.7219 126.462 39.7219 Q124.263 39.7219 121.809 40.4857 Q119.379 41.2496 116.601 42.8005 L116.601 38.0784 Q119.425 36.9441 121.879 36.3654 Q124.332 35.7867 126.369 35.7867 Q131.74 35.7867 134.934 38.4719 Q138.129 41.157 138.129 45.6478 Q138.129 47.7774 137.318 49.6987 Q136.531 51.5968 134.425 54.1894 Q133.846 54.8607 130.744 58.0782 Q127.643 61.2727 121.994 67.0365 Z" fill="#000000" fill-rule="nonzero" fill-opacity="1" /><path clip-path="url(#clip200)" d="M148.129 65.0921 L153.013 65.0921 L153.013 70.9717 L148.129 70.9717 L148.129 65.0921 Z" fill="#000000" fill-rule="nonzero" fill-opacity="1" /><path clip-path="url(#clip200)" d="M173.198 39.4904 Q169.587 39.4904 167.758 43.0552 Q165.953 46.5968 165.953 53.7264 Q165.953 60.8329 167.758 64.3977 Q169.587 67.9393 173.198 67.9393 Q176.832 67.9393 178.638 64.3977 Q180.466 60.8329 180.466 53.7264 Q180.466 46.5968 178.638 43.0552 Q176.832 39.4904 173.198 39.4904 M173.198 35.7867 Q179.008 35.7867 182.064 40.3932 Q185.142 44.9765 185.142 53.7264 Q185.142 62.4532 182.064 67.0597 Q179.008 71.643 173.198 71.643 Q167.388 71.643 164.309 67.0597 Q161.254 62.4532 161.254 53.7264 Q161.254 44.9765 164.309 40.3932 Q167.388 35.7867 173.198 35.7867 Z" fill="#000000" fill-rule="nonzero" fill-opacity="1" /><path clip-path="url(#clip200)" d="M203.36 39.4904 Q199.749 39.4904 197.92 43.0552 Q196.114 46.5968 196.114 53.7264 Q196.114 60.8329 197.92 64.3977 Q199.749 67.9393 203.36 67.9393 Q206.994 67.9393 208.8 64.3977 Q210.628 60.8329 210.628 53.7264 Q210.628 46.5968 208.8 43.0552 Q206.994 39.4904 203.36 39.4904 M203.36 35.7867 Q209.17 35.7867 212.225 40.3932 Q215.304 44.9765 215.304 53.7264 Q215.304 62.4532 212.225 67.0597 Q209.17 71.643 203.36 71.643 Q197.55 71.643 194.471 67.0597 Q191.415 62.4532 191.415 53.7264 Q191.415 44.9765 194.471 40.3932 Q197.55 35.7867 203.36 35.7867 Z" fill="#000000" fill-rule="nonzero" fill-opacity="1" /><path clip-path="url(#clip200)" d="M251.693 45.5089 L241.114 56.1338 L251.693 66.7125 L248.938 69.5134 L238.313 58.8884 L227.688 69.5134 L224.957 66.7125 L235.512 56.1338 L224.957 45.5089 L227.688 42.708 L238.313 53.3329 L248.938 42.708 L251.693 45.5089 Z" fill="#000000" fill-rule="nonzero" fill-opacity="1" /><path clip-path="url(#clip200)" d="M264.054 67.0365 L271.693 67.0365 L271.693 40.6709 L263.383 42.3376 L263.383 38.0784 L271.646 36.4117 L276.322 36.4117 L276.322 67.0365 L283.961 67.0365 L283.961 70.9717 L264.054 70.9717 L264.054 67.0365 Z" fill="#000000" fill-rule="nonzero" fill-opacity="1" /><path clip-path="url(#clip200)" d="M303.406 39.4904 Q299.794 39.4904 297.966 43.0552 Q296.16 46.5968 296.16 53.7264 Q296.16 60.8329 297.966 64.3977 Q299.794 67.9393 303.406 67.9393 Q307.04 67.9393 308.845 64.3977 Q310.674 60.8329 310.674 53.7264 Q310.674 46.5968 308.845 43.0552 Q307.04 39.4904 303.406 39.4904 M303.406 35.7867 Q309.216 35.7867 312.271 40.3932 Q315.35 44.9765 315.35 53.7264 Q315.35 62.4532 312.271 67.0597 Q309.216 71.643 303.406 71.643 Q297.595 71.643 294.517 67.0597 Q291.461 62.4532 291.461 53.7264 Q291.461 44.9765 294.517 40.3932 Q297.595 35.7867 303.406 35.7867 Z" fill="#000000" fill-rule="nonzero" fill-opacity="1" /><path clip-path="url(#clip200)" d="M316.535 15.4813 L331.449 15.4813 L331.449 18.6786 L320.014 18.6786 L320.014 25.5623 Q320.842 25.2801 321.669 25.1485 Q322.497 24.998 323.324 24.998 Q328.026 24.998 330.772 27.5747 Q333.518 30.1514 333.518 34.5524 Q333.518 39.085 330.697 41.6053 Q327.876 44.1067 322.741 44.1067 Q320.973 44.1067 319.13 43.8058 Q317.306 43.5049 315.35 42.903 L315.35 39.085 Q317.043 40.0066 318.848 40.458 Q320.654 40.9094 322.666 40.9094 Q325.92 40.9094 327.819 39.1979 Q329.719 37.4864 329.719 34.5524 Q329.719 31.6184 327.819 29.9069 Q325.92 28.1953 322.666 28.1953 Q321.143 28.1953 319.619 28.5339 Q318.115 28.8724 316.535 29.5871 L316.535 15.4813 Z" fill="#000000" fill-rule="nonzero" fill-opacity="1" /><path clip-path="url(#clip200)" d="M21.7677 896.217 L39.6235 896.217 L39.6235 888.132 Q39.6235 883.644 37.3 881.194 Q34.9765 878.743 30.6797 878.743 Q26.4147 878.743 24.0912 881.194 Q21.7677 883.644 21.7677 888.132 L21.7677 896.217 M16.4842 902.646 L16.4842 888.132 Q16.4842 880.143 20.1126 876.069 Q23.7092 871.963 30.6797 871.963 Q37.7138 871.963 41.3104 876.069 Q44.907 880.143 44.907 888.132 L44.907 896.217 L64.0042 896.217 L64.0042 902.646 L16.4842 902.646 Z" fill="#000000" fill-rule="nonzero" fill-opacity="1" /><path clip-path="url(#clip200)" d="M33.8307 844.081 Q33.2578 845.068 33.0032 846.246 Q32.7167 847.392 32.7167 848.792 Q32.7167 853.757 35.9632 856.431 Q39.1779 859.073 45.2253 859.073 L64.0042 859.073 L64.0042 864.961 L28.3562 864.961 L28.3562 859.073 L33.8944 859.073 Q30.6479 857.227 29.0883 854.267 Q27.4968 851.307 27.4968 847.073 Q27.4968 846.469 27.5923 845.737 Q27.656 845.004 27.8151 844.113 L33.8307 844.081 Z" fill="#000000" fill-rule="nonzero" fill-opacity="1" /><path clip-path="url(#clip200)" d="M32.4621 825.557 Q32.4621 830.268 36.1542 833.005 Q39.8145 835.742 46.212 835.742 Q52.6095 835.742 56.3017 833.037 Q59.9619 830.3 59.9619 825.557 Q59.9619 820.878 56.2698 818.141 Q52.5777 815.404 46.212 815.404 Q39.8781 815.404 36.186 818.141 Q32.4621 820.878 32.4621 825.557 M27.4968 825.557 Q27.4968 817.918 32.4621 813.558 Q37.4273 809.197 46.212 809.197 Q54.9649 809.197 59.9619 813.558 Q64.9272 817.918 64.9272 825.557 Q64.9272 833.228 59.9619 837.588 Q54.9649 841.917 46.212 841.917 Q37.4273 841.917 32.4621 837.588 Q27.4968 833.228 27.4968 825.557 Z" fill="#000000" fill-rule="nonzero" fill-opacity="1" /><path clip-path="url(#clip200)" d="M33.7671 776.032 L14.479 776.032 L14.479 770.176 L64.0042 770.176 L64.0042 776.032 L58.657 776.032 Q61.8398 777.878 63.3994 780.711 Q64.9272 783.512 64.9272 787.459 Q64.9272 793.92 59.771 797.994 Q54.6147 802.036 46.212 802.036 Q37.8093 802.036 32.6531 797.994 Q27.4968 793.92 27.4968 787.459 Q27.4968 783.512 29.0564 780.711 Q30.5842 777.878 33.7671 776.032 M46.212 795.989 Q52.6732 795.989 56.3653 793.347 Q60.0256 790.673 60.0256 786.026 Q60.0256 781.379 56.3653 778.706 Q52.6732 776.032 46.212 776.032 Q39.7508 776.032 36.0905 778.706 Q32.3984 781.379 32.3984 786.026 Q32.3984 790.673 36.0905 793.347 Q39.7508 795.989 46.212 795.989 Z" fill="#000000" fill-rule="nonzero" fill-opacity="1" /><path clip-path="url(#clip200)" d="M49.9359 758.717 L28.3562 758.717 L28.3562 752.861 L49.7131 752.861 Q54.7739 752.861 57.3202 750.888 Q59.8346 748.914 59.8346 744.967 Q59.8346 740.225 56.8109 737.488 Q53.7872 734.719 48.5673 734.719 L28.3562 734.719 L28.3562 728.862 L64.0042 728.862 L64.0042 734.719 L58.5296 734.719 Q61.7762 736.851 63.3676 739.684 Q64.9272 742.485 64.9272 746.209 Q64.9272 752.352 61.1078 755.534 Q57.2883 758.717 49.9359 758.717 M27.4968 743.981 L27.4968 743.981 Z" fill="#000000" fill-rule="nonzero" fill-opacity="1" /><path clip-path="url(#clip200)" d="M29.7248 691.145 L35.1993 691.145 Q33.8307 693.628 33.1623 696.142 Q32.4621 698.625 32.4621 701.171 Q32.4621 706.869 36.0905 710.02 Q39.6872 713.171 46.212 713.171 Q52.7369 713.171 56.3653 710.02 Q59.9619 706.869 59.9619 701.171 Q59.9619 698.625 59.2935 696.142 Q58.5933 693.628 57.2247 691.145 L62.6355 691.145 Q63.7814 693.596 64.3543 696.238 Q64.9272 698.848 64.9272 701.808 Q64.9272 709.861 59.8664 714.603 Q54.8057 719.345 46.212 719.345 Q37.491 719.345 32.4939 714.571 Q27.4968 709.765 27.4968 701.426 Q27.4968 698.721 28.0697 696.142 Q28.6108 693.564 29.7248 691.145 Z" fill="#000000" fill-rule="nonzero" fill-opacity="1" /><path clip-path="url(#clip200)" d="M18.2347 675.167 L28.3562 675.167 L28.3562 663.104 L32.9077 663.104 L32.9077 675.167 L52.2594 675.167 Q56.6199 675.167 57.8613 673.99 Q59.1026 672.78 59.1026 669.12 L59.1026 663.104 L64.0042 663.104 L64.0042 669.12 Q64.0042 675.899 61.4897 678.478 Q58.9434 681.056 52.2594 681.056 L32.9077 681.056 L32.9077 685.353 L28.3562 685.353 L28.3562 681.056 L18.2347 681.056 L18.2347 675.167 Z" fill="#000000" fill-rule="nonzero" fill-opacity="1" /><path clip-path="url(#clip200)" d="M28.3562 655.402 L28.3562 649.545 L64.0042 649.545 L64.0042 655.402 L28.3562 655.402 M14.479 655.402 L14.479 649.545 L21.895 649.545 L21.895 655.402 L14.479 655.402 Z" fill="#000000" fill-rule="nonzero" fill-opacity="1" /><path clip-path="url(#clip200)" d="M32.4621 623.478 Q32.4621 628.189 36.1542 630.926 Q39.8145 633.663 46.212 633.663 Q52.6095 633.663 56.3017 630.958 Q59.9619 628.22 59.9619 623.478 Q59.9619 618.799 56.2698 616.062 Q52.5777 613.325 46.212 613.325 Q39.8781 613.325 36.186 616.062 Q32.4621 618.799 32.4621 623.478 M27.4968 623.478 Q27.4968 615.839 32.4621 611.479 Q37.4273 607.118 46.212 607.118 Q54.9649 607.118 59.9619 611.479 Q64.9272 615.839 64.9272 623.478 Q64.9272 631.149 59.9619 635.509 Q54.9649 639.838 46.212 639.838 Q37.4273 639.838 32.4621 635.509 Q27.4968 631.149 27.4968 623.478 Z" fill="#000000" fill-rule="nonzero" fill-opacity="1" /><path clip-path="url(#clip200)" d="M42.4881 567.778 L64.0042 567.778 L64.0042 573.634 L42.679 573.634 Q37.6183 573.634 35.1038 575.608 Q32.5894 577.581 32.5894 581.528 Q32.5894 586.27 35.6131 589.008 Q38.6368 591.745 43.8567 591.745 L64.0042 591.745 L64.0042 597.633 L28.3562 597.633 L28.3562 591.745 L33.8944 591.745 Q30.6797 589.644 29.0883 586.811 Q27.4968 583.947 27.4968 580.223 Q27.4968 574.08 31.3163 570.929 Q35.1038 567.778 42.4881 567.778 Z" fill="#000000" fill-rule="nonzero" fill-opacity="1" /><path clip-path="url(#clip202)" d="M478.6 597.618 L478.6 597.618 L598.266 597.618 L598.266 597.618 L478.6 597.618 L478.6 597.618  Z" fill="#20326c" fill-rule="evenodd" fill-opacity="1"/>
<polyline clip-path="url(#clip202)" style="stroke:#000000; stroke-linecap:round; stroke-linejoin:round; stroke-width:4; stroke-opacity:1; fill:none" points="478.6,597.618 478.6,597.618 598.266,597.618 478.6,597.618 "/>
<path clip-path="url(#clip202)" d="M628.182 735.212 L628.182 735.212 L747.848 735.212 L747.848 735.212 L628.182 735.212 L628.182 735.212  Z" fill="#20326c" fill-rule="evenodd" fill-opacity="1"/>
<polyline clip-path="url(#clip202)" style="stroke:#000000; stroke-linecap:round; stroke-linejoin:round; stroke-width:4; stroke-opacity:1; fill:none" points="628.182,735.212 628.182,735.212 747.848,735.212 628.182,735.212 "/>
<path clip-path="url(#clip202)" d="M777.765 528.822 L777.765 528.822 L897.431 528.822 L897.431 528.822 L777.765 528.822 L777.765 528.822  Z" fill="#20326c" fill-rule="evenodd" fill-opacity="1"/>
<polyline clip-path="url(#clip202)" style="stroke:#000000; stroke-linecap:round; stroke-linejoin:round; stroke-width:4; stroke-opacity:1; fill:none" points="777.765,528.822 777.765,528.822 897.431,528.822 777.765,528.822 "/>
<path clip-path="url(#clip202)" d="M927.348 528.822 L927.348 528.822 L1047.01 528.822 L1047.01 528.822 L927.348 528.822 L927.348 528.822  Z" fill="#20326c" fill-rule="evenodd" fill-opacity="1"/>
<polyline clip-path="url(#clip202)" style="stroke:#000000; stroke-linecap:round; stroke-linejoin:round; stroke-width:4; stroke-opacity:1; fill:none" points="927.348,528.822 927.348,528.822 1047.01,528.822 927.348,528.822 "/>
<path clip-path="url(#clip202)" d="M1076.93 460.025 L1076.93 460.025 L1196.6 460.025 L1196.6 460.025 L1076.93 460.025 L1076.93 460.025  Z" fill="#20326c" fill-rule="evenodd" fill-opacity="1"/>
<polyline clip-path="url(#clip202)" style="stroke:#000000; stroke-linecap:round; stroke-linejoin:round; stroke-width:4; stroke-opacity:1; fill:none" points="1076.93,460.025 1076.93,460.025 1196.6,460.025 1076.93,460.025 "/>
<path clip-path="url(#clip202)" d="M1226.51 528.822 L1226.51 528.822 L1346.18 528.822 L1346.18 528.822 L1226.51 528.822 L1226.51 528.822  Z" fill="#20326c" fill-rule="evenodd" fill-opacity="1"/>
<polyline clip-path="url(#clip202)" style="stroke:#000000; stroke-linecap:round; stroke-linejoin:round; stroke-width:4; stroke-opacity:1; fill:none" points="1226.51,528.822 1226.51,528.822 1346.18,528.822 1226.51,528.822 "/>
<path clip-path="url(#clip202)" d="M1376.1 391.228 L1376.1 391.228 L1495.76 391.228 L1495.76 391.228 L1376.1 391.228 L1376.1 391.228  Z" fill="#20326c" fill-rule="evenodd" fill-opacity="1"/>
<polyline clip-path="url(#clip202)" style="stroke:#000000; stroke-linecap:round; stroke-linejoin:round; stroke-width:4; stroke-opacity:1; fill:none" points="1376.1,391.228 1376.1,391.228 1495.76,391.228 1376.1,391.228 "/>
<path clip-path="url(#clip202)" d="M1525.68 253.634 L1525.68 253.634 L1645.34 253.634 L1645.34 253.634 L1525.68 253.634 L1525.68 253.634  Z" fill="#20326c" fill-rule="evenodd" fill-opacity="1"/>
<polyline clip-path="url(#clip202)" style="stroke:#000000; stroke-linecap:round; stroke-linejoin:round; stroke-width:4; stroke-opacity:1; fill:none" points="1525.68,253.634 1525.68,253.634 1645.34,253.634 1525.68,253.634 "/>
<path clip-path="url(#clip202)" d="M1675.26 47.2441 L1675.26 47.2441 L1794.93 47.2441 L1794.93 47.2441 L1675.26 47.2441 L1675.26 47.2441  Z" fill="#20326c" fill-rule="evenodd" fill-opacity="1"/>
<polyline clip-path="url(#clip202)" style="stroke:#000000; stroke-linecap:round; stroke-linejoin:round; stroke-width:4; stroke-opacity:1; fill:none" points="1675.26,47.2441 1675.26,47.2441 1794.93,47.2441 1675.26,47.2441 "/>
<path clip-path="url(#clip202)" d="M1824.84 116.041 L1824.84 116.041 L1944.51 116.041 L1944.51 116.041 L1824.84 116.041 L1824.84 116.041  Z" fill="#20326c" fill-rule="evenodd" fill-opacity="1"/>
<polyline clip-path="url(#clip202)" style="stroke:#000000; stroke-linecap:round; stroke-linejoin:round; stroke-width:4; stroke-opacity:1; fill:none" points="1824.84,116.041 1824.84,116.041 1944.51,116.041 1824.84,116.041 "/>
<path clip-path="url(#clip202)" d="M1974.43 460.025 L1974.43 460.025 L2094.09 460.025 L2094.09 460.025 L1974.43 460.025 L1974.43 460.025  Z" fill="#20326c" fill-rule="evenodd" fill-opacity="1"/>
<polyline clip-path="url(#clip202)" style="stroke:#000000; stroke-linecap:round; stroke-linejoin:round; stroke-width:4; stroke-opacity:1; fill:none" points="1974.43,460.025 1974.43,460.025 2094.09,460.025 1974.43,460.025 "/>
<path clip-path="url(#clip202)" d="M2124.01 735.212 L2124.01 735.212 L2243.67 735.212 L2243.67 735.212 L2124.01 735.212 L2124.01 735.212  Z" fill="#20326c" fill-rule="evenodd" fill-opacity="1"/>
<polyline clip-path="url(#clip202)" style="stroke:#000000; stroke-linecap:round; stroke-linejoin:round; stroke-width:4; stroke-opacity:1; fill:none" points="2124.01,735.212 2124.01,735.212 2243.67,735.212 2124.01,735.212 "/>
<circle clip-path="url(#clip202)" style="fill:#20326c; stroke:none; fill-opacity:0" cx="538.433" cy="597.618" r="2"/>
<circle clip-path="url(#clip202)" style="fill:#20326c; stroke:none; fill-opacity:0" cx="688.015" cy="735.212" r="2"/>
<circle clip-path="url(#clip202)" style="fill:#20326c; stroke:none; fill-opacity:0" cx="837.598" cy="528.822" r="2"/>
<circle clip-path="url(#clip202)" style="fill:#20326c; stroke:none; fill-opacity:0" cx="987.181" cy="528.822" r="2"/>
<circle clip-path="url(#clip202)" style="fill:#20326c; stroke:none; fill-opacity:0" cx="1136.76" cy="460.025" r="2"/>
<circle clip-path="url(#clip202)" style="fill:#20326c; stroke:none; fill-opacity:0" cx="1286.35" cy="528.822" r="2"/>
<circle clip-path="url(#clip202)" style="fill:#20326c; stroke:none; fill-opacity:0" cx="1435.93" cy="391.228" r="2"/>
<circle clip-path="url(#clip202)" style="fill:#20326c; stroke:none; fill-opacity:0" cx="1585.51" cy="253.634" r="2"/>
<circle clip-path="url(#clip202)" style="fill:#20326c; stroke:none; fill-opacity:0" cx="1735.09" cy="47.2441" r="2"/>
<circle clip-path="url(#clip202)" style="fill:#20326c; stroke:none; fill-opacity:0" cx="1884.68" cy="116.041" r="2"/>
<circle clip-path="url(#clip202)" style="fill:#20326c; stroke:none; fill-opacity:0" cx="2034.26" cy="460.025" r="2"/>
<circle clip-path="url(#clip202)" style="fill:#20326c; stroke:none; fill-opacity:0" cx="2183.84" cy="735.212" r="2"/>
<path clip-path="url(#clip202)" d="M478.6 597.618 L478.6 1079.2 L598.266 1079.2 L598.266 597.618 L478.6 597.618 L478.6 597.618  Z" fill="#4063d8" fill-rule="evenodd" fill-opacity="1"/>
<polyline clip-path="url(#clip202)" style="stroke:#000000; stroke-linecap:round; stroke-linejoin:round; stroke-width:4; stroke-opacity:1; fill:none" points="478.6,597.618 478.6,1079.2 598.266,1079.2 598.266,597.618 478.6,597.618 "/>
<path clip-path="url(#clip202)" d="M628.182 735.212 L628.182 1044.8 L747.848 1044.8 L747.848 735.212 L628.182 735.212 L628.182 735.212  Z" fill="#4063d8" fill-rule="evenodd" fill-opacity="1"/>
<polyline clip-path="url(#clip202)" style="stroke:#000000; stroke-linecap:round; stroke-linejoin:round; stroke-width:4; stroke-opacity:1; fill:none" points="628.182,735.212 628.182,1044.8 747.848,1044.8 747.848,735.212 628.182,735.212 "/>
<path clip-path="url(#clip202)" d="M777.765 528.822 L777.765 1010.4 L897.431 1010.4 L897.431 528.822 L777.765 528.822 L777.765 528.822  Z" fill="#4063d8" fill-rule="evenodd" fill-opacity="1"/>
<polyline clip-path="url(#clip202)" style="stroke:#000000; stroke-linecap:round; stroke-linejoin:round; stroke-width:4; stroke-opacity:1; fill:none" points="777.765,528.822 777.765,1010.4 897.431,1010.4 897.431,528.822 777.765,528.822 "/>
<path clip-path="url(#clip202)" d="M927.348 528.822 L927.348 735.212 L1047.01 735.212 L1047.01 528.822 L927.348 528.822 L927.348 528.822  Z" fill="#4063d8" fill-rule="evenodd" fill-opacity="1"/>
<polyline clip-path="url(#clip202)" style="stroke:#000000; stroke-linecap:round; stroke-linejoin:round; stroke-width:4; stroke-opacity:1; fill:none" points="927.348,528.822 927.348,735.212 1047.01,735.212 1047.01,528.822 927.348,528.822 "/>
<path clip-path="url(#clip202)" d="M1076.93 460.025 L1076.93 1423.18 L1196.6 1423.18 L1196.6 460.025 L1076.93 460.025 L1076.93 460.025  Z" fill="#4063d8" fill-rule="evenodd" fill-opacity="1"/>
<polyline clip-path="url(#clip202)" style="stroke:#000000; stroke-linecap:round; stroke-linejoin:round; stroke-width:4; stroke-opacity:1; fill:none" points="1076.93,460.025 1076.93,1423.18 1196.6,1423.18 1196.6,460.025 1076.93,460.025 "/>
<path clip-path="url(#clip202)" d="M1226.51 528.822 L1226.51 941.602 L1346.18 941.602 L1346.18 528.822 L1226.51 528.822 L1226.51 528.822  Z" fill="#4063d8" fill-rule="evenodd" fill-opacity="1"/>
<polyline clip-path="url(#clip202)" style="stroke:#000000; stroke-linecap:round; stroke-linejoin:round; stroke-width:4; stroke-opacity:1; fill:none" points="1226.51,528.822 1226.51,941.602 1346.18,941.602 1346.18,528.822 1226.51,528.822 "/>
<path clip-path="url(#clip202)" d="M1376.1 391.228 L1376.1 1010.4 L1495.76 1010.4 L1495.76 391.228 L1376.1 391.228 L1376.1 391.228  Z" fill="#4063d8" fill-rule="evenodd" fill-opacity="1"/>
<polyline clip-path="url(#clip202)" style="stroke:#000000; stroke-linecap:round; stroke-linejoin:round; stroke-width:4; stroke-opacity:1; fill:none" points="1376.1,391.228 1376.1,1010.4 1495.76,1010.4 1495.76,391.228 1376.1,391.228 "/>
<path clip-path="url(#clip202)" d="M1525.68 253.634 L1525.68 735.212 L1645.34 735.212 L1645.34 253.634 L1525.68 253.634 L1525.68 253.634  Z" fill="#4063d8" fill-rule="evenodd" fill-opacity="1"/>
<polyline clip-path="url(#clip202)" style="stroke:#000000; stroke-linecap:round; stroke-linejoin:round; stroke-width:4; stroke-opacity:1; fill:none" points="1525.68,253.634 1525.68,735.212 1645.34,735.212 1645.34,253.634 1525.68,253.634 "/>
<path clip-path="url(#clip202)" d="M1675.26 47.2441 L1675.26 735.212 L1794.93 735.212 L1794.93 47.2441 L1675.26 47.2441 L1675.26 47.2441  Z" fill="#4063d8" fill-rule="evenodd" fill-opacity="1"/>
<polyline clip-path="url(#clip202)" style="stroke:#000000; stroke-linecap:round; stroke-linejoin:round; stroke-width:4; stroke-opacity:1; fill:none" points="1675.26,47.2441 1675.26,735.212 1794.93,735.212 1794.93,47.2441 1675.26,47.2441 "/>
<path clip-path="url(#clip202)" d="M1824.84 116.041 L1824.84 1423.18 L1944.51 1423.18 L1944.51 116.041 L1824.84 116.041 L1824.84 116.041  Z" fill="#4063d8" fill-rule="evenodd" fill-opacity="1"/>
<polyline clip-path="url(#clip202)" style="stroke:#000000; stroke-linecap:round; stroke-linejoin:round; stroke-width:4; stroke-opacity:1; fill:none" points="1824.84,116.041 1824.84,1423.18 1944.51,1423.18 1944.51,116.041 1824.84,116.041 "/>
<path clip-path="url(#clip202)" d="M1974.43 460.025 L1974.43 1010.4 L2094.09 1010.4 L2094.09 460.025 L1974.43 460.025 L1974.43 460.025  Z" fill="#4063d8" fill-rule="evenodd" fill-opacity="1"/>
<polyline clip-path="url(#clip202)" style="stroke:#000000; stroke-linecap:round; stroke-linejoin:round; stroke-width:4; stroke-opacity:1; fill:none" points="1974.43,460.025 1974.43,1010.4 2094.09,1010.4 2094.09,460.025 1974.43,460.025 "/>
<path clip-path="url(#clip202)" d="M2124.01 735.212 L2124.01 1423.18 L2243.67 1423.18 L2243.67 735.212 L2124.01 735.212 L2124.01 735.212  Z" fill="#4063d8" fill-rule="evenodd" fill-opacity="1"/>
<polyline clip-path="url(#clip202)" style="stroke:#000000; stroke-linecap:round; stroke-linejoin:round; stroke-width:4; stroke-opacity:1; fill:none" points="2124.01,735.212 2124.01,1423.18 2243.67,1423.18 2243.67,735.212 2124.01,735.212 "/>
<circle clip-path="url(#clip202)" style="fill:#4063d8; stroke:none; fill-opacity:0" cx="538.433" cy="597.618" r="2"/>
<circle clip-path="url(#clip202)" style="fill:#4063d8; stroke:none; fill-opacity:0" cx="688.015" cy="735.212" r="2"/>
<circle clip-path="url(#clip202)" style="fill:#4063d8; stroke:none; fill-opacity:0" cx="837.598" cy="528.822" r="2"/>
<circle clip-path="url(#clip202)" style="fill:#4063d8; stroke:none; fill-opacity:0" cx="987.181" cy="528.822" r="2"/>
<circle clip-path="url(#clip202)" style="fill:#4063d8; stroke:none; fill-opacity:0" cx="1136.76" cy="460.025" r="2"/>
<circle clip-path="url(#clip202)" style="fill:#4063d8; stroke:none; fill-opacity:0" cx="1286.35" cy="528.822" r="2"/>
<circle clip-path="url(#clip202)" style="fill:#4063d8; stroke:none; fill-opacity:0" cx="1435.93" cy="391.228" r="2"/>
<circle clip-path="url(#clip202)" style="fill:#4063d8; stroke:none; fill-opacity:0" cx="1585.51" cy="253.634" r="2"/>
<circle clip-path="url(#clip202)" style="fill:#4063d8; stroke:none; fill-opacity:0" cx="1735.09" cy="47.2441" r="2"/>
<circle clip-path="url(#clip202)" style="fill:#4063d8; stroke:none; fill-opacity:0" cx="1884.68" cy="116.041" r="2"/>
<circle clip-path="url(#clip202)" style="fill:#4063d8; stroke:none; fill-opacity:0" cx="2034.26" cy="460.025" r="2"/>
<circle clip-path="url(#clip202)" style="fill:#4063d8; stroke:none; fill-opacity:0" cx="2183.84" cy="735.212" r="2"/>
<path clip-path="url(#clip202)" d="M478.6 1079.2 L478.6 1423.18 L598.266 1423.18 L598.266 1079.2 L478.6 1079.2 L478.6 1079.2  Z" fill="#a0b1ec" fill-rule="evenodd" fill-opacity="1"/>
<polyline clip-path="url(#clip202)" style="stroke:#000000; stroke-linecap:round; stroke-linejoin:round; stroke-width:4; stroke-opacity:1; fill:none" points="478.6,1079.2 478.6,1423.18 598.266,1423.18 598.266,1079.2 478.6,1079.2 "/>
<path clip-path="url(#clip202)" d="M628.182 1044.8 L628.182 1423.18 L747.848 1423.18 L747.848 1044.8 L628.182 1044.8 L628.182 1044.8  Z" fill="#a0b1ec" fill-rule="evenodd" fill-opacity="1"/>
<polyline clip-path="url(#clip202)" style="stroke:#000000; stroke-linecap:round; stroke-linejoin:round; stroke-width:4; stroke-opacity:1; fill:none" points="628.182,1044.8 628.182,1423.18 747.848,1423.18 747.848,1044.8 628.182,1044.8 "/>
<path clip-path="url(#clip202)" d="M777.765 1010.4 L777.765 1423.18 L897.431 1423.18 L897.431 1010.4 L777.765 1010.4 L777.765 1010.4  Z" fill="#a0b1ec" fill-rule="evenodd" fill-opacity="1"/>
<polyline clip-path="url(#clip202)" style="stroke:#000000; stroke-linecap:round; stroke-linejoin:round; stroke-width:4; stroke-opacity:1; fill:none" points="777.765,1010.4 777.765,1423.18 897.431,1423.18 897.431,1010.4 777.765,1010.4 "/>
<path clip-path="url(#clip202)" d="M927.348 735.212 L927.348 1423.18 L1047.01 1423.18 L1047.01 735.212 L927.348 735.212 L927.348 735.212  Z" fill="#a0b1ec" fill-rule="evenodd" fill-opacity="1"/>
<polyline clip-path="url(#clip202)" style="stroke:#000000; stroke-linecap:round; stroke-linejoin:round; stroke-width:4; stroke-opacity:1; fill:none" points="927.348,735.212 927.348,1423.18 1047.01,1423.18 1047.01,735.212 927.348,735.212 "/>
<path clip-path="url(#clip202)" d="M1076.93 1423.18 L1076.93 1423.18 L1196.6 1423.18 L1196.6 1423.18 L1076.93 1423.18 L1076.93 1423.18  Z" fill="#a0b1ec" fill-rule="evenodd" fill-opacity="1"/>
<polyline clip-path="url(#clip202)" style="stroke:#000000; stroke-linecap:round; stroke-linejoin:round; stroke-width:4; stroke-opacity:1; fill:none" points="1076.93,1423.18 1076.93,1423.18 1196.6,1423.18 1076.93,1423.18 "/>
<path clip-path="url(#clip202)" d="M1226.51 941.602 L1226.51 1423.18 L1346.18 1423.18 L1346.18 941.602 L1226.51 941.602 L1226.51 941.602  Z" fill="#a0b1ec" fill-rule="evenodd" fill-opacity="1"/>
<polyline clip-path="url(#clip202)" style="stroke:#000000; stroke-linecap:round; stroke-linejoin:round; stroke-width:4; stroke-opacity:1; fill:none" points="1226.51,941.602 1226.51,1423.18 1346.18,1423.18 1346.18,941.602 1226.51,941.602 "/>
<path clip-path="url(#clip202)" d="M1376.1 1010.4 L1376.1 1423.18 L1495.76 1423.18 L1495.76 1010.4 L1376.1 1010.4 L1376.1 1010.4  Z" fill="#a0b1ec" fill-rule="evenodd" fill-opacity="1"/>
<polyline clip-path="url(#clip202)" style="stroke:#000000; stroke-linecap:round; stroke-linejoin:round; stroke-width:4; stroke-opacity:1; fill:none" points="1376.1,1010.4 1376.1,1423.18 1495.76,1423.18 1495.76,1010.4 1376.1,1010.4 "/>
<path clip-path="url(#clip202)" d="M1525.68 735.212 L1525.68 1423.18 L1645.34 1423.18 L1645.34 735.212 L1525.68 735.212 L1525.68 735.212  Z" fill="#a0b1ec" fill-rule="evenodd" fill-opacity="1"/>
<polyline clip-path="url(#clip202)" style="stroke:#000000; stroke-linecap:round; stroke-linejoin:round; stroke-width:4; stroke-opacity:1; fill:none" points="1525.68,735.212 1525.68,1423.18 1645.34,1423.18 1645.34,735.212 1525.68,735.212 "/>
<path clip-path="url(#clip202)" d="M1675.26 735.212 L1675.26 1423.18 L1794.93 1423.18 L1794.93 735.212 L1675.26 735.212 L1675.26 735.212  Z" fill="#a0b1ec" fill-rule="evenodd" fill-opacity="1"/>
<polyline clip-path="url(#clip202)" style="stroke:#000000; stroke-linecap:round; stroke-linejoin:round; stroke-width:4; stroke-opacity:1; fill:none" points="1675.26,735.212 1675.26,1423.18 1794.93,1423.18 1794.93,735.212 1675.26,735.212 "/>
<path clip-path="url(#clip202)" d="M1824.84 1423.18 L1824.84 1423.18 L1944.51 1423.18 L1944.51 1423.18 L1824.84 1423.18 L1824.84 1423.18  Z" fill="#a0b1ec" fill-rule="evenodd" fill-opacity="1"/>
<polyline clip-path="url(#clip202)" style="stroke:#000000; stroke-linecap:round; stroke-linejoin:round; stroke-width:4; stroke-opacity:1; fill:none" points="1824.84,1423.18 1824.84,1423.18 1944.51,1423.18 1824.84,1423.18 "/>
<path clip-path="url(#clip202)" d="M1974.43 1010.4 L1974.43 1423.18 L2094.09 1423.18 L2094.09 1010.4 L1974.43 1010.4 L1974.43 1010.4  Z" fill="#a0b1ec" fill-rule="evenodd" fill-opacity="1"/>
<polyline clip-path="url(#clip202)" style="stroke:#000000; stroke-linecap:round; stroke-linejoin:round; stroke-width:4; stroke-opacity:1; fill:none" points="1974.43,1010.4 1974.43,1423.18 2094.09,1423.18 2094.09,1010.4 1974.43,1010.4 "/>
<path clip-path="url(#clip202)" d="M2124.01 1423.18 L2124.01 1423.18 L2243.67 1423.18 L2243.67 1423.18 L2124.01 1423.18 L2124.01 1423.18  Z" fill="#a0b1ec" fill-rule="evenodd" fill-opacity="1"/>
<polyline clip-path="url(#clip202)" style="stroke:#000000; stroke-linecap:round; stroke-linejoin:round; stroke-width:4; stroke-opacity:1; fill:none" points="2124.01,1423.18 2124.01,1423.18 2243.67,1423.18 2124.01,1423.18 "/>
<circle clip-path="url(#clip202)" style="fill:#a0b1ec; stroke:none; fill-opacity:0" cx="538.433" cy="1079.2" r="2"/>
<circle clip-path="url(#clip202)" style="fill:#a0b1ec; stroke:none; fill-opacity:0" cx="688.015" cy="1044.8" r="2"/>
<circle clip-path="url(#clip202)" style="fill:#a0b1ec; stroke:none; fill-opacity:0" cx="837.598" cy="1010.4" r="2"/>
<circle clip-path="url(#clip202)" style="fill:#a0b1ec; stroke:none; fill-opacity:0" cx="987.181" cy="735.212" r="2"/>
<circle clip-path="url(#clip202)" style="fill:#a0b1ec; stroke:none; fill-opacity:0" cx="1136.76" cy="1423.18" r="2"/>
<circle clip-path="url(#clip202)" style="fill:#a0b1ec; stroke:none; fill-opacity:0" cx="1286.35" cy="941.602" r="2"/>
<circle clip-path="url(#clip202)" style="fill:#a0b1ec; stroke:none; fill-opacity:0" cx="1435.93" cy="1010.4" r="2"/>
<circle clip-path="url(#clip202)" style="fill:#a0b1ec; stroke:none; fill-opacity:0" cx="1585.51" cy="735.212" r="2"/>
<circle clip-path="url(#clip202)" style="fill:#a0b1ec; stroke:none; fill-opacity:0" cx="1735.09" cy="735.212" r="2"/>
<circle clip-path="url(#clip202)" style="fill:#a0b1ec; stroke:none; fill-opacity:0" cx="1884.68" cy="1423.18" r="2"/>
<circle clip-path="url(#clip202)" style="fill:#a0b1ec; stroke:none; fill-opacity:0" cx="2034.26" cy="1010.4" r="2"/>
<circle clip-path="url(#clip202)" style="fill:#a0b1ec; stroke:none; fill-opacity:0" cx="2183.84" cy="1423.18" r="2"/>
<path clip-path="url(#clip200)" d="M435.626 300.469 L989.342 300.469 L989.342 93.1086 L435.626 93.1086  Z" fill="#ffffff" fill-rule="evenodd" fill-opacity="1"/>
<polyline clip-path="url(#clip200)" style="stroke:#000000; stroke-linecap:round; stroke-linejoin:round; stroke-width:4; stroke-opacity:1; fill:none" points="435.626,300.469 989.342,300.469 989.342,93.1086 435.626,93.1086 435.626,300.469 "/>
<path clip-path="url(#clip200)" d="M457.662 165.685 L589.878 165.685 L589.878 124.213 L457.662 124.213 L457.662 165.685  Z" fill="#20326c" fill-rule="evenodd" fill-opacity="1"/>
<polyline clip-path="url(#clip200)" style="stroke:#000000; stroke-linecap:round; stroke-linejoin:round; stroke-width:4; stroke-opacity:1; fill:none" points="457.662,165.685 589.878,165.685 589.878,124.213 457.662,124.213 457.662,165.685 "/>
<path clip-path="url(#clip200)" d="M611.914 151.997 L611.914 136.303 L616.173 136.303 L616.173 151.835 Q616.173 155.516 617.608 157.368 Q619.044 159.196 621.914 159.196 Q625.363 159.196 627.354 156.997 Q629.368 154.798 629.368 151.002 L629.368 136.303 L633.627 136.303 L633.627 162.229 L629.368 162.229 L629.368 158.247 Q627.817 160.608 625.756 161.766 Q623.719 162.9 621.011 162.9 Q616.544 162.9 614.229 160.122 Q611.914 157.344 611.914 151.997 M622.631 135.678 L622.631 135.678 Z" fill="#000000" fill-rule="nonzero" fill-opacity="1" /><path clip-path="url(#clip200)" d="M663.951 146.581 L663.951 162.229 L659.691 162.229 L659.691 146.719 Q659.691 143.039 658.256 141.21 Q656.821 139.382 653.951 139.382 Q650.502 139.382 648.511 141.581 Q646.52 143.78 646.52 147.576 L646.52 162.229 L642.238 162.229 L642.238 136.303 L646.52 136.303 L646.52 140.331 Q648.048 137.993 650.108 136.835 Q652.192 135.678 654.9 135.678 Q659.367 135.678 661.659 138.456 Q663.951 141.21 663.951 146.581 Z" fill="#000000" fill-rule="nonzero" fill-opacity="1" /><path clip-path="url(#clip200)" d="M692.631 141.28 Q694.228 138.409 696.451 137.044 Q698.673 135.678 701.682 135.678 Q705.733 135.678 707.932 138.525 Q710.131 141.349 710.131 146.581 L710.131 162.229 L705.849 162.229 L705.849 146.719 Q705.849 142.993 704.529 141.187 Q703.21 139.382 700.501 139.382 Q697.191 139.382 695.27 141.581 Q693.349 143.78 693.349 147.576 L693.349 162.229 L689.066 162.229 L689.066 146.719 Q689.066 142.969 687.747 141.187 Q686.427 139.382 683.673 139.382 Q680.409 139.382 678.488 141.604 Q676.566 143.803 676.566 147.576 L676.566 162.229 L672.284 162.229 L672.284 136.303 L676.566 136.303 L676.566 140.331 Q678.025 137.946 680.062 136.812 Q682.099 135.678 684.9 135.678 Q687.724 135.678 689.691 137.113 Q691.682 138.548 692.631 141.28 Z" fill="#000000" fill-rule="nonzero" fill-opacity="1" /><path clip-path="url(#clip200)" d="M740.802 148.201 L740.802 150.284 L721.219 150.284 Q721.497 154.682 723.858 156.997 Q726.242 159.289 730.478 159.289 Q732.932 159.289 735.223 158.687 Q737.538 158.085 739.807 156.881 L739.807 160.909 Q737.515 161.881 735.108 162.391 Q732.7 162.9 730.224 162.9 Q724.02 162.9 720.386 159.289 Q716.775 155.678 716.775 149.52 Q716.775 143.155 720.2 139.428 Q723.649 135.678 729.483 135.678 Q734.714 135.678 737.747 139.057 Q740.802 142.414 740.802 148.201 M736.543 146.951 Q736.497 143.456 734.575 141.372 Q732.677 139.289 729.529 139.289 Q725.964 139.289 723.812 141.303 Q721.682 143.317 721.358 146.974 L736.543 146.951 Z" fill="#000000" fill-rule="nonzero" fill-opacity="1" /><path clip-path="url(#clip200)" d="M752.006 128.942 L752.006 136.303 L760.779 136.303 L760.779 139.613 L752.006 139.613 L752.006 153.687 Q752.006 156.858 752.862 157.761 Q753.742 158.664 756.404 158.664 L760.779 158.664 L760.779 162.229 L756.404 162.229 Q751.473 162.229 749.598 160.4 Q747.723 158.548 747.723 153.687 L747.723 139.613 L744.598 139.613 L744.598 136.303 L747.723 136.303 L747.723 128.942 L752.006 128.942 Z" fill="#000000" fill-rule="nonzero" fill-opacity="1" /><path clip-path="url(#clip200)" d="M798.51 140.238 L798.51 126.21 L802.769 126.21 L802.769 162.229 L798.51 162.229 L798.51 158.34 Q797.168 160.655 795.107 161.789 Q793.07 162.9 790.2 162.9 Q785.501 162.9 782.538 159.15 Q779.598 155.4 779.598 149.289 Q779.598 143.178 782.538 139.428 Q785.501 135.678 790.2 135.678 Q793.07 135.678 795.107 136.812 Q797.168 137.923 798.51 140.238 M783.996 149.289 Q783.996 153.988 785.918 156.673 Q787.862 159.335 791.242 159.335 Q794.621 159.335 796.566 156.673 Q798.51 153.988 798.51 149.289 Q798.51 144.59 796.566 141.928 Q794.621 139.243 791.242 139.243 Q787.862 139.243 785.918 141.928 Q783.996 144.59 783.996 149.289 Z" fill="#000000" fill-rule="nonzero" fill-opacity="1" /><path clip-path="url(#clip200)" d="M833.718 148.201 L833.718 150.284 L814.135 150.284 Q814.413 154.682 816.774 156.997 Q819.158 159.289 823.394 159.289 Q825.848 159.289 828.14 158.687 Q830.454 158.085 832.723 156.881 L832.723 160.909 Q830.431 161.881 828.024 162.391 Q825.617 162.9 823.14 162.9 Q816.936 162.9 813.302 159.289 Q809.691 155.678 809.691 149.52 Q809.691 143.155 813.117 139.428 Q816.566 135.678 822.399 135.678 Q827.63 135.678 830.663 139.057 Q833.718 142.414 833.718 148.201 M829.459 146.951 Q829.413 143.456 827.492 141.372 Q825.593 139.289 822.445 139.289 Q818.88 139.289 816.728 141.303 Q814.598 143.317 814.274 146.974 L829.459 146.951 Z" fill="#000000" fill-rule="nonzero" fill-opacity="1" /><path clip-path="url(#clip200)" d="M860.894 141.28 Q862.491 138.409 864.714 137.044 Q866.936 135.678 869.945 135.678 Q873.996 135.678 876.195 138.525 Q878.394 141.349 878.394 146.581 L878.394 162.229 L874.112 162.229 L874.112 146.719 Q874.112 142.993 872.792 141.187 Q871.473 139.382 868.764 139.382 Q865.454 139.382 863.533 141.581 Q861.612 143.78 861.612 147.576 L861.612 162.229 L857.329 162.229 L857.329 146.719 Q857.329 142.969 856.01 141.187 Q854.69 139.382 851.936 139.382 Q848.672 139.382 846.751 141.604 Q844.829 143.803 844.829 147.576 L844.829 162.229 L840.547 162.229 L840.547 136.303 L844.829 136.303 L844.829 140.331 Q846.288 137.946 848.325 136.812 Q850.362 135.678 853.163 135.678 Q855.987 135.678 857.954 137.113 Q859.945 138.548 860.894 141.28 Z" fill="#000000" fill-rule="nonzero" fill-opacity="1" /><path clip-path="url(#clip200)" d="M898.672 149.196 Q893.51 149.196 891.519 150.377 Q889.528 151.557 889.528 154.405 Q889.528 156.673 891.01 158.016 Q892.514 159.335 895.084 159.335 Q898.625 159.335 900.755 156.835 Q902.908 154.312 902.908 150.145 L902.908 149.196 L898.672 149.196 M907.167 147.437 L907.167 162.229 L902.908 162.229 L902.908 158.293 Q901.449 160.655 899.274 161.789 Q897.098 162.9 893.949 162.9 Q889.968 162.9 887.607 160.678 Q885.269 158.432 885.269 154.682 Q885.269 150.307 888.186 148.085 Q891.125 145.863 896.936 145.863 L902.908 145.863 L902.908 145.446 Q902.908 142.507 900.963 140.909 Q899.042 139.289 895.547 139.289 Q893.324 139.289 891.218 139.821 Q889.112 140.354 887.167 141.419 L887.167 137.483 Q889.505 136.581 891.704 136.141 Q893.903 135.678 895.987 135.678 Q901.611 135.678 904.389 138.594 Q907.167 141.511 907.167 147.437 Z" fill="#000000" fill-rule="nonzero" fill-opacity="1" /><path clip-path="url(#clip200)" d="M937.491 146.581 L937.491 162.229 L933.232 162.229 L933.232 146.719 Q933.232 143.039 931.797 141.21 Q930.361 139.382 927.491 139.382 Q924.042 139.382 922.051 141.581 Q920.06 143.78 920.06 147.576 L920.06 162.229 L915.778 162.229 L915.778 136.303 L920.06 136.303 L920.06 140.331 Q921.588 137.993 923.648 136.835 Q925.732 135.678 928.44 135.678 Q932.908 135.678 935.199 138.456 Q937.491 141.21 937.491 146.581 Z" fill="#000000" fill-rule="nonzero" fill-opacity="1" /><path clip-path="url(#clip200)" d="M963.046 140.238 L963.046 126.21 L967.306 126.21 L967.306 162.229 L963.046 162.229 L963.046 158.34 Q961.704 160.655 959.644 161.789 Q957.607 162.9 954.736 162.9 Q950.037 162.9 947.074 159.15 Q944.134 155.4 944.134 149.289 Q944.134 143.178 947.074 139.428 Q950.037 135.678 954.736 135.678 Q957.607 135.678 959.644 136.812 Q961.704 137.923 963.046 140.238 M948.533 149.289 Q948.533 153.988 950.454 156.673 Q952.398 159.335 955.778 159.335 Q959.157 159.335 961.102 156.673 Q963.046 153.988 963.046 149.289 Q963.046 144.59 961.102 141.928 Q959.157 139.243 955.778 139.243 Q952.398 139.243 950.454 141.928 Q948.533 144.59 948.533 149.289 Z" fill="#000000" fill-rule="nonzero" fill-opacity="1" /><path clip-path="url(#clip200)" d="M457.662 217.525 L589.878 217.525 L589.878 176.053 L457.662 176.053 L457.662 217.525  Z" fill="#4063d8" fill-rule="evenodd" fill-opacity="1"/>
<polyline clip-path="url(#clip200)" style="stroke:#000000; stroke-linecap:round; stroke-linejoin:round; stroke-width:4; stroke-opacity:1; fill:none" points="457.662,217.525 589.878,217.525 589.878,176.053 457.662,176.053 457.662,217.525 "/>
<path clip-path="url(#clip200)" d="M627.747 184.115 L621.405 201.314 L634.113 201.314 L627.747 184.115 M625.108 179.509 L630.409 179.509 L643.58 214.069 L638.719 214.069 L635.571 205.203 L619.993 205.203 L616.844 214.069 L611.914 214.069 L625.108 179.509 Z" fill="#000000" fill-rule="nonzero" fill-opacity="1" /><path clip-path="url(#clip200)" d="M457.662 269.365 L589.878 269.365 L589.878 227.893 L457.662 227.893 L457.662 269.365  Z" fill="#a0b1ec" fill-rule="evenodd" fill-opacity="1"/>
<polyline clip-path="url(#clip200)" style="stroke:#000000; stroke-linecap:round; stroke-linejoin:round; stroke-width:4; stroke-opacity:1; fill:none" points="457.662,269.365 589.878,269.365 589.878,227.893 457.662,227.893 457.662,269.365 "/>
<path clip-path="url(#clip200)" d="M616.59 249.404 L616.59 262.066 L624.09 262.066 Q627.863 262.066 629.668 260.515 Q631.497 258.941 631.497 255.723 Q631.497 252.483 629.668 250.955 Q627.863 249.404 624.09 249.404 L616.59 249.404 M616.59 235.191 L616.59 245.608 L623.511 245.608 Q626.937 245.608 628.604 244.335 Q630.293 243.038 630.293 240.399 Q630.293 237.784 628.604 236.487 Q626.937 235.191 623.511 235.191 L616.59 235.191 M611.914 231.349 L623.858 231.349 Q629.206 231.349 632.099 233.571 Q634.993 235.793 634.993 239.89 Q634.993 243.062 633.511 244.937 Q632.03 246.811 629.159 247.274 Q632.608 248.015 634.506 250.376 Q636.428 252.714 636.428 256.233 Q636.428 260.862 633.28 263.385 Q630.131 265.909 624.321 265.909 L611.914 265.909 L611.914 231.349 Z" fill="#000000" fill-rule="nonzero" fill-opacity="1" /></svg>
