<?xml version="1.0" encoding="utf-8"?>
<svg xmlns="http://www.w3.org/2000/svg" xmlns:xlink="http://www.w3.org/1999/xlink" width="600" height="400" viewBox="0 0 2400 1600">
<defs>
  <clipPath id="clip730">
    <rect x="0" y="0" width="2400" height="1600"/>
  </clipPath>
</defs>
<path clip-path="url(#clip730)" d="M0 1600 L2400 1600 L2400 0 L0 0  Z" fill="#ffffff" fill-rule="evenodd" fill-opacity="1"/>
<defs>
  <clipPath id="clip731">
    <rect x="480" y="0" width="1681" height="1600"/>
  </clipPath>
</defs>
<path clip-path="url(#clip730)" d="M148.057 1486.45 L2352.76 1486.45 L2352.76 47.2441 L148.057 47.2441  Z" fill="#ffffff" fill-rule="evenodd" fill-opacity="1"/>
<defs>
  <clipPath id="clip732">
    <rect x="148" y="47" width="2206" height="1440"/>
  </clipPath>
</defs>
<polyline clip-path="url(#clip732)" style="stroke:#000000; stroke-linecap:round; stroke-linejoin:round; stroke-width:2; stroke-opacity:0.1; fill:none" points="442.017,1486.45 442.017,47.2441 "/>
<polyline clip-path="url(#clip732)" style="stroke:#000000; stroke-linecap:round; stroke-linejoin:round; stroke-width:2; stroke-opacity:0.1; fill:none" points="882.956,1486.45 882.956,47.2441 "/>
<polyline clip-path="url(#clip732)" style="stroke:#000000; stroke-linecap:round; stroke-linejoin:round; stroke-width:2; stroke-opacity:0.1; fill:none" points="1323.9,1486.45 1323.9,47.2441 "/>
<polyline clip-path="url(#clip732)" style="stroke:#000000; stroke-linecap:round; stroke-linejoin:round; stroke-width:2; stroke-opacity:0.1; fill:none" points="1764.84,1486.45 1764.84,47.2441 "/>
<polyline clip-path="url(#clip732)" style="stroke:#000000; stroke-linecap:round; stroke-linejoin:round; stroke-width:2; stroke-opacity:0.1; fill:none" points="2205.78,1486.45 2205.78,47.2441 "/>
<polyline clip-path="url(#clip730)" style="stroke:#000000; stroke-linecap:round; stroke-linejoin:round; stroke-width:4; stroke-opacity:1; fill:none" points="148.057,1486.45 2352.76,1486.45 "/>
<polyline clip-path="url(#clip730)" style="stroke:#000000; stroke-linecap:round; stroke-linejoin:round; stroke-width:4; stroke-opacity:1; fill:none" points="442.017,1486.45 442.017,1467.55 "/>
<polyline clip-path="url(#clip730)" style="stroke:#000000; stroke-linecap:round; stroke-linejoin:round; stroke-width:4; stroke-opacity:1; fill:none" points="882.956,1486.45 882.956,1467.55 "/>
<polyline clip-path="url(#clip730)" style="stroke:#000000; stroke-linecap:round; stroke-linejoin:round; stroke-width:4; stroke-opacity:1; fill:none" points="1323.9,1486.45 1323.9,1467.55 "/>
<polyline clip-path="url(#clip730)" style="stroke:#000000; stroke-linecap:round; stroke-linejoin:round; stroke-width:4; stroke-opacity:1; fill:none" points="1764.84,1486.45 1764.84,1467.55 "/>
<polyline clip-path="url(#clip730)" style="stroke:#000000; stroke-linecap:round; stroke-linejoin:round; stroke-width:4; stroke-opacity:1; fill:none" points="2205.78,1486.45 2205.78,1467.55 "/>
<path clip-path="url(#clip730)" d="M419.725 1517.37 Q416.114 1517.37 414.285 1520.93 Q412.48 1524.47 412.48 1531.6 Q412.48 1538.71 414.285 1542.27 Q416.114 1545.82 419.725 1545.82 Q423.359 1545.82 425.165 1542.27 Q426.993 1538.71 426.993 1531.6 Q426.993 1524.47 425.165 1520.93 Q423.359 1517.37 419.725 1517.37 M419.725 1513.66 Q425.535 1513.66 428.591 1518.27 Q431.669 1522.85 431.669 1531.6 Q431.669 1540.33 428.591 1544.94 Q425.535 1549.52 419.725 1549.52 Q413.915 1549.52 410.836 1544.94 Q407.781 1540.33 407.781 1531.6 Q407.781 1522.85 410.836 1518.27 Q413.915 1513.66 419.725 1513.66 Z" fill="#000000" fill-rule="nonzero" fill-opacity="1" /><path clip-path="url(#clip730)" d="M439.887 1542.97 L444.771 1542.97 L444.771 1548.85 L439.887 1548.85 L439.887 1542.97 Z" fill="#000000" fill-rule="nonzero" fill-opacity="1" /><path clip-path="url(#clip730)" d="M469.123 1530.21 Q472.479 1530.93 474.354 1533.2 Q476.252 1535.47 476.252 1538.8 Q476.252 1543.92 472.734 1546.72 Q469.215 1549.52 462.734 1549.52 Q460.558 1549.52 458.243 1549.08 Q455.952 1548.66 453.498 1547.81 L453.498 1543.29 Q455.442 1544.43 457.757 1545.01 Q460.072 1545.58 462.595 1545.58 Q466.993 1545.58 469.285 1543.85 Q471.6 1542.11 471.6 1538.8 Q471.6 1535.75 469.447 1534.03 Q467.317 1532.3 463.498 1532.3 L459.47 1532.3 L459.47 1528.45 L463.683 1528.45 Q467.132 1528.45 468.961 1527.09 Q470.79 1525.7 470.79 1523.11 Q470.79 1520.45 468.891 1519.03 Q467.016 1517.6 463.498 1517.6 Q461.577 1517.6 459.378 1518.01 Q457.178 1518.43 454.54 1519.31 L454.54 1515.14 Q457.202 1514.4 459.516 1514.03 Q461.854 1513.66 463.915 1513.66 Q469.239 1513.66 472.34 1516.09 Q475.442 1518.5 475.442 1522.62 Q475.442 1525.49 473.799 1527.48 Q472.155 1529.45 469.123 1530.21 Z" fill="#000000" fill-rule="nonzero" fill-opacity="1" /><path clip-path="url(#clip730)" d="M860.26 1517.37 Q856.649 1517.37 854.82 1520.93 Q853.014 1524.47 853.014 1531.6 Q853.014 1538.71 854.82 1542.27 Q856.649 1545.82 860.26 1545.82 Q863.894 1545.82 865.7 1542.27 Q867.528 1538.71 867.528 1531.6 Q867.528 1524.47 865.7 1520.93 Q863.894 1517.37 860.26 1517.37 M860.26 1513.66 Q866.07 1513.66 869.125 1518.27 Q872.204 1522.85 872.204 1531.6 Q872.204 1540.33 869.125 1544.94 Q866.07 1549.52 860.26 1549.52 Q854.45 1549.52 851.371 1544.94 Q848.315 1540.33 848.315 1531.6 Q848.315 1522.85 851.371 1518.27 Q854.45 1513.66 860.26 1513.66 Z" fill="#000000" fill-rule="nonzero" fill-opacity="1" /><path clip-path="url(#clip730)" d="M880.422 1542.97 L885.306 1542.97 L885.306 1548.85 L880.422 1548.85 L880.422 1542.97 Z" fill="#000000" fill-rule="nonzero" fill-opacity="1" /><path clip-path="url(#clip730)" d="M906.07 1529.7 Q902.922 1529.7 901.07 1531.86 Q899.241 1534.01 899.241 1537.76 Q899.241 1541.49 901.07 1543.66 Q902.922 1545.82 906.07 1545.82 Q909.218 1545.82 911.047 1543.66 Q912.898 1541.49 912.898 1537.76 Q912.898 1534.01 911.047 1531.86 Q909.218 1529.7 906.07 1529.7 M915.352 1515.05 L915.352 1519.31 Q913.593 1518.48 911.787 1518.04 Q910.005 1517.6 908.246 1517.6 Q903.616 1517.6 901.162 1520.72 Q898.732 1523.85 898.385 1530.17 Q899.75 1528.15 901.81 1527.09 Q903.871 1526 906.347 1526 Q911.556 1526 914.565 1529.17 Q917.597 1532.32 917.597 1537.76 Q917.597 1543.08 914.449 1546.3 Q911.301 1549.52 906.07 1549.52 Q900.074 1549.52 896.903 1544.94 Q893.732 1540.33 893.732 1531.6 Q893.732 1523.41 897.621 1518.55 Q901.51 1513.66 908.06 1513.66 Q909.82 1513.66 911.602 1514.01 Q913.408 1514.36 915.352 1515.05 Z" fill="#000000" fill-rule="nonzero" fill-opacity="1" /><path clip-path="url(#clip730)" d="M1301.37 1517.37 Q1297.76 1517.37 1295.93 1520.93 Q1294.13 1524.47 1294.13 1531.6 Q1294.13 1538.71 1295.93 1542.27 Q1297.76 1545.82 1301.37 1545.82 Q1305.01 1545.82 1306.81 1542.27 Q1308.64 1538.71 1308.64 1531.6 Q1308.64 1524.47 1306.81 1520.93 Q1305.01 1517.37 1301.37 1517.37 M1301.37 1513.66 Q1307.18 1513.66 1310.24 1518.27 Q1313.32 1522.85 1313.32 1531.6 Q1313.32 1540.33 1310.24 1544.94 Q1307.18 1549.52 1301.37 1549.52 Q1295.56 1549.52 1292.48 1544.94 Q1289.43 1540.33 1289.43 1531.6 Q1289.43 1522.85 1292.48 1518.27 Q1295.56 1513.66 1301.37 1513.66 Z" fill="#000000" fill-rule="nonzero" fill-opacity="1" /><path clip-path="url(#clip730)" d="M1321.54 1542.97 L1326.42 1542.97 L1326.42 1548.85 L1321.54 1548.85 L1321.54 1542.97 Z" fill="#000000" fill-rule="nonzero" fill-opacity="1" /><path clip-path="url(#clip730)" d="M1336.74 1548.13 L1336.74 1543.87 Q1338.5 1544.7 1340.31 1545.14 Q1342.11 1545.58 1343.85 1545.58 Q1348.48 1545.58 1350.91 1542.48 Q1353.36 1539.36 1353.71 1533.01 Q1352.37 1535.01 1350.31 1536.07 Q1348.25 1537.13 1345.75 1537.13 Q1340.56 1537.13 1337.53 1534.01 Q1334.52 1530.86 1334.52 1525.42 Q1334.52 1520.1 1337.67 1516.88 Q1340.82 1513.66 1346.05 1513.66 Q1352.04 1513.66 1355.19 1518.27 Q1358.36 1522.85 1358.36 1531.6 Q1358.36 1539.77 1354.47 1544.66 Q1350.61 1549.52 1344.06 1549.52 Q1342.3 1549.52 1340.49 1549.17 Q1338.69 1548.82 1336.74 1548.13 M1346.05 1533.48 Q1349.2 1533.48 1351.03 1531.32 Q1352.88 1529.17 1352.88 1525.42 Q1352.88 1521.7 1351.03 1519.54 Q1349.2 1517.37 1346.05 1517.37 Q1342.9 1517.37 1341.05 1519.54 Q1339.22 1521.7 1339.22 1525.42 Q1339.22 1529.17 1341.05 1531.32 Q1342.9 1533.48 1346.05 1533.48 Z" fill="#000000" fill-rule="nonzero" fill-opacity="1" /><path clip-path="url(#clip730)" d="M1732.79 1544.91 L1740.43 1544.91 L1740.43 1518.55 L1732.12 1520.21 L1732.12 1515.95 L1740.38 1514.29 L1745.06 1514.29 L1745.06 1544.91 L1752.69 1544.91 L1752.69 1548.85 L1732.79 1548.85 L1732.79 1544.91 Z" fill="#000000" fill-rule="nonzero" fill-opacity="1" /><path clip-path="url(#clip730)" d="M1762.14 1542.97 L1767.02 1542.97 L1767.02 1548.85 L1762.14 1548.85 L1762.14 1542.97 Z" fill="#000000" fill-rule="nonzero" fill-opacity="1" /><path clip-path="url(#clip730)" d="M1781.24 1544.91 L1797.56 1544.91 L1797.56 1548.85 L1775.61 1548.85 L1775.61 1544.91 Q1778.27 1542.16 1782.86 1537.53 Q1787.46 1532.88 1788.64 1531.53 Q1790.89 1529.01 1791.77 1527.27 Q1792.67 1525.51 1792.67 1523.82 Q1792.67 1521.07 1790.73 1519.33 Q1788.81 1517.6 1785.7 1517.6 Q1783.5 1517.6 1781.05 1518.36 Q1778.62 1519.13 1775.84 1520.68 L1775.84 1515.95 Q1778.67 1514.82 1781.12 1514.24 Q1783.57 1513.66 1785.61 1513.66 Q1790.98 1513.66 1794.18 1516.35 Q1797.37 1519.03 1797.37 1523.52 Q1797.37 1525.65 1796.56 1527.57 Q1795.77 1529.47 1793.67 1532.07 Q1793.09 1532.74 1789.99 1535.95 Q1786.88 1539.15 1781.24 1544.91 Z" fill="#000000" fill-rule="nonzero" fill-opacity="1" /><path clip-path="url(#clip730)" d="M2173.43 1544.91 L2181.07 1544.91 L2181.07 1518.55 L2172.76 1520.21 L2172.76 1515.95 L2181.02 1514.29 L2185.7 1514.29 L2185.7 1544.91 L2193.33 1544.91 L2193.33 1548.85 L2173.43 1548.85 L2173.43 1544.91 Z" fill="#000000" fill-rule="nonzero" fill-opacity="1" /><path clip-path="url(#clip730)" d="M2202.78 1542.97 L2207.66 1542.97 L2207.66 1548.85 L2202.78 1548.85 L2202.78 1542.97 Z" fill="#000000" fill-rule="nonzero" fill-opacity="1" /><path clip-path="url(#clip730)" d="M2217.89 1514.29 L2236.25 1514.29 L2236.25 1518.22 L2222.18 1518.22 L2222.18 1526.7 Q2223.19 1526.35 2224.21 1526.19 Q2225.23 1526 2226.25 1526 Q2232.04 1526 2235.42 1529.17 Q2238.8 1532.34 2238.8 1537.76 Q2238.8 1543.34 2235.32 1546.44 Q2231.85 1549.52 2225.53 1549.52 Q2223.36 1549.52 2221.09 1549.15 Q2218.84 1548.78 2216.44 1548.04 L2216.44 1543.34 Q2218.52 1544.47 2220.74 1545.03 Q2222.96 1545.58 2225.44 1545.58 Q2229.44 1545.58 2231.78 1543.48 Q2234.12 1541.37 2234.12 1537.76 Q2234.12 1534.15 2231.78 1532.04 Q2229.44 1529.94 2225.44 1529.94 Q2223.57 1529.94 2221.69 1530.35 Q2219.84 1530.77 2217.89 1531.65 L2217.89 1514.29 Z" fill="#000000" fill-rule="nonzero" fill-opacity="1" /><polyline clip-path="url(#clip732)" style="stroke:#000000; stroke-linecap:round; stroke-linejoin:round; stroke-width:2; stroke-opacity:0.1; fill:none" points="148.057,1486.45 2352.76,1486.45 "/>
<polyline clip-path="url(#clip732)" style="stroke:#000000; stroke-linecap:round; stroke-linejoin:round; stroke-width:2; stroke-opacity:0.1; fill:none" points="148.057,1071.69 2352.76,1071.69 "/>
<polyline clip-path="url(#clip732)" style="stroke:#000000; stroke-linecap:round; stroke-linejoin:round; stroke-width:2; stroke-opacity:0.1; fill:none" points="148.057,656.936 2352.76,656.936 "/>
<polyline clip-path="url(#clip732)" style="stroke:#000000; stroke-linecap:round; stroke-linejoin:round; stroke-width:2; stroke-opacity:0.1; fill:none" points="148.057,242.181 2352.76,242.181 "/>
<polyline clip-path="url(#clip730)" style="stroke:#000000; stroke-linecap:round; stroke-linejoin:round; stroke-width:4; stroke-opacity:1; fill:none" points="148.057,1486.45 148.057,47.2441 "/>
<polyline clip-path="url(#clip730)" style="stroke:#000000; stroke-linecap:round; stroke-linejoin:round; stroke-width:4; stroke-opacity:1; fill:none" points="148.057,1486.45 166.954,1486.45 "/>
<polyline clip-path="url(#clip730)" style="stroke:#000000; stroke-linecap:round; stroke-linejoin:round; stroke-width:4; stroke-opacity:1; fill:none" points="148.057,1071.69 166.954,1071.69 "/>
<polyline clip-path="url(#clip730)" style="stroke:#000000; stroke-linecap:round; stroke-linejoin:round; stroke-width:4; stroke-opacity:1; fill:none" points="148.057,656.936 166.954,656.936 "/>
<polyline clip-path="url(#clip730)" style="stroke:#000000; stroke-linecap:round; stroke-linejoin:round; stroke-width:4; stroke-opacity:1; fill:none" points="148.057,242.181 166.954,242.181 "/>
<path clip-path="url(#clip730)" d="M50.9921 1486.9 L80.6679 1486.9 L80.6679 1490.83 L50.9921 1490.83 L50.9921 1486.9 Z" fill="#000000" fill-rule="nonzero" fill-opacity="1" /><path clip-path="url(#clip730)" d="M104.927 1485.09 Q108.283 1485.81 110.158 1488.08 Q112.057 1490.35 112.057 1493.68 Q112.057 1498.8 108.538 1501.6 Q105.02 1504.4 98.5382 1504.4 Q96.3623 1504.4 94.0475 1503.96 Q91.7558 1503.54 89.3021 1502.69 L89.3021 1498.17 Q91.2465 1499.31 93.5613 1499.89 Q95.8761 1500.46 98.3993 1500.46 Q102.797 1500.46 105.089 1498.73 Q107.404 1496.99 107.404 1493.68 Q107.404 1490.63 105.251 1488.91 Q103.121 1487.18 99.3021 1487.18 L95.2743 1487.18 L95.2743 1483.33 L99.4872 1483.33 Q102.936 1483.33 104.765 1481.97 Q106.594 1480.58 106.594 1477.99 Q106.594 1475.33 104.696 1473.91 Q102.821 1472.48 99.3021 1472.48 Q97.3808 1472.48 95.1817 1472.89 Q92.9826 1473.31 90.3438 1474.19 L90.3438 1470.02 Q93.0058 1469.28 95.3206 1468.91 Q97.6585 1468.54 99.7187 1468.54 Q105.043 1468.54 108.145 1470.97 Q111.246 1473.38 111.246 1477.5 Q111.246 1480.37 109.603 1482.36 Q107.959 1484.33 104.927 1485.09 Z" fill="#000000" fill-rule="nonzero" fill-opacity="1" /><path clip-path="url(#clip730)" d="M51.9412 1072.14 L81.617 1072.14 L81.617 1076.08 L51.9412 1076.08 L51.9412 1072.14 Z" fill="#000000" fill-rule="nonzero" fill-opacity="1" /><path clip-path="url(#clip730)" d="M95.7373 1085.04 L112.057 1085.04 L112.057 1088.97 L90.1123 1088.97 L90.1123 1085.04 Q92.7743 1082.28 97.3576 1077.65 Q101.964 1073 103.145 1071.66 Q105.39 1069.13 106.27 1067.4 Q107.172 1065.64 107.172 1063.95 Q107.172 1061.19 105.228 1059.46 Q103.307 1057.72 100.205 1057.72 Q98.0058 1057.72 95.5521 1058.49 Q93.1215 1059.25 90.3438 1060.8 L90.3438 1056.08 Q93.1678 1054.94 95.6215 1054.37 Q98.0752 1053.79 100.112 1053.79 Q105.483 1053.79 108.677 1056.47 Q111.871 1059.16 111.871 1063.65 Q111.871 1065.78 111.061 1067.7 Q110.274 1069.6 108.168 1072.19 Q107.589 1072.86 104.487 1076.08 Q101.385 1079.27 95.7373 1085.04 Z" fill="#000000" fill-rule="nonzero" fill-opacity="1" /><path clip-path="url(#clip730)" d="M51.5708 657.388 L81.2466 657.388 L81.2466 661.323 L51.5708 661.323 L51.5708 657.388 Z" fill="#000000" fill-rule="nonzero" fill-opacity="1" /><path clip-path="url(#clip730)" d="M92.1493 670.281 L99.7882 670.281 L99.7882 643.916 L91.478 645.582 L91.478 641.323 L99.7419 639.656 L104.418 639.656 L104.418 670.281 L112.057 670.281 L112.057 674.216 L92.1493 674.216 L92.1493 670.281 Z" fill="#000000" fill-rule="nonzero" fill-opacity="1" /><path clip-path="url(#clip730)" d="M100.112 227.979 Q96.5011 227.979 94.6724 231.544 Q92.8669 235.086 92.8669 242.216 Q92.8669 249.322 94.6724 252.887 Q96.5011 256.428 100.112 256.428 Q103.746 256.428 105.552 252.887 Q107.381 249.322 107.381 242.216 Q107.381 235.086 105.552 231.544 Q103.746 227.979 100.112 227.979 M100.112 224.276 Q105.922 224.276 108.978 228.882 Q112.057 233.466 112.057 242.216 Q112.057 250.942 108.978 255.549 Q105.922 260.132 100.112 260.132 Q94.3021 260.132 91.2234 255.549 Q88.1679 250.942 88.1679 242.216 Q88.1679 233.466 91.2234 228.882 Q94.3021 224.276 100.112 224.276 Z" fill="#000000" fill-rule="nonzero" fill-opacity="1" /><polyline clip-path="url(#clip732)" style="stroke:#009af9; stroke-linecap:round; stroke-linejoin:round; stroke-width:12; stroke-opacity:1; fill:none" points="148.057,1197.19 295.037,909.704 442.017,741.535 588.996,622.218 735.976,529.668 882.956,454.049 1029.94,390.114 1176.92,334.731 1323.9,285.88 1470.88,242.181 1617.86,202.65 1764.84,166.562 1911.82,133.364 2058.8,102.627 2205.78,74.0118 2352.76,47.2441 "/>
<polyline clip-path="url(#clip732)" style="stroke:#ff0000; stroke-linecap:round; stroke-linejoin:round; stroke-width:12; stroke-opacity:1; fill:none" points="148.057,1197.19 295.037,782.435 442.017,367.68 588.996,-47.076 735.976,-461.832 882.956,-876.587 1029.94,-1291.34 1176.92,-1706.1 1323.9,-2120.85 1470.88,-2535.61 1617.86,-2950.37 1764.84,-3365.12 1911.82,-3779.88 2058.8,-4194.63 2205.78,-4609.39 2352.76,-5024.14 "/>
<polyline clip-path="url(#clip732)" style="stroke:#ff0000; stroke-linecap:round; stroke-linejoin:round; stroke-width:12; stroke-opacity:1; fill:none" points="148.057,799.678 295.037,730.552 442.017,661.426 588.996,592.301 735.976,523.175 882.956,454.049 1029.94,384.923 1176.92,315.797 1323.9,246.671 1470.88,177.545 1617.86,108.419 1764.84,39.2929 1911.82,-29.833 2058.8,-98.959 2205.78,-168.085 2352.76,-237.211 "/>
<polyline clip-path="url(#clip732)" style="stroke:#ff0000; stroke-linecap:round; stroke-linejoin:round; stroke-width:12; stroke-opacity:1; fill:none" points="148.057,579.701 295.037,541.996 442.017,504.291 588.996,466.586 735.976,428.881 882.956,391.176 1029.94,353.471 1176.92,315.766 1323.9,278.06 1470.88,240.355 1617.86,202.65 1764.84,164.945 1911.82,127.24 2058.8,89.5351 2205.78,51.8301 2352.76,14.125 "/>
<polyline clip-path="url(#clip732)" style="stroke:#ff0000; stroke-linecap:round; stroke-linejoin:round; stroke-width:12; stroke-opacity:1; fill:none" points="148.057,436.078 295.037,410.155 442.017,384.233 588.996,358.311 735.976,332.389 882.956,306.466 1029.94,280.544 1176.92,254.622 1323.9,228.7 1470.88,202.777 1617.86,176.855 1764.84,150.933 1911.82,125.011 2058.8,99.0886 2205.78,73.1663 2352.76,47.2441 "/>
</svg>
