<?xml version="1.0" encoding="utf-8"?>
<svg xmlns="http://www.w3.org/2000/svg" xmlns:xlink="http://www.w3.org/1999/xlink" width="600" height="400" viewBox="0 0 2400 1600">
<defs>
  <clipPath id="clip670">
    <rect x="0" y="0" width="2400" height="1600"/>
  </clipPath>
</defs>
<path clip-path="url(#clip670)" d="M0 1600 L2400 1600 L2400 0 L0 0  Z" fill="#ffffff" fill-rule="evenodd" fill-opacity="1"/>
<defs>
  <clipPath id="clip671">
    <rect x="480" y="0" width="1681" height="1600"/>
  </clipPath>
</defs>
<path clip-path="url(#clip670)" d="M112.177 1486.45 L2352.76 1486.45 L2352.76 47.2441 L112.177 47.2441  Z" fill="#ffffff" fill-rule="evenodd" fill-opacity="1"/>
<defs>
  <clipPath id="clip672">
    <rect x="112" y="47" width="2242" height="1440"/>
  </clipPath>
</defs>
<polyline clip-path="url(#clip672)" style="stroke:#000000; stroke-linecap:round; stroke-linejoin:round; stroke-width:2; stroke-opacity:0.1; fill:none" points="175.59,1486.45 175.59,47.2441 "/>
<polyline clip-path="url(#clip672)" style="stroke:#000000; stroke-linecap:round; stroke-linejoin:round; stroke-width:2; stroke-opacity:0.1; fill:none" points="704.028,1486.45 704.028,47.2441 "/>
<polyline clip-path="url(#clip672)" style="stroke:#000000; stroke-linecap:round; stroke-linejoin:round; stroke-width:2; stroke-opacity:0.1; fill:none" points="1232.47,1486.45 1232.47,47.2441 "/>
<polyline clip-path="url(#clip672)" style="stroke:#000000; stroke-linecap:round; stroke-linejoin:round; stroke-width:2; stroke-opacity:0.1; fill:none" points="1760.9,1486.45 1760.9,47.2441 "/>
<polyline clip-path="url(#clip672)" style="stroke:#000000; stroke-linecap:round; stroke-linejoin:round; stroke-width:2; stroke-opacity:0.1; fill:none" points="2289.34,1486.45 2289.34,47.2441 "/>
<polyline clip-path="url(#clip670)" style="stroke:#000000; stroke-linecap:round; stroke-linejoin:round; stroke-width:4; stroke-opacity:1; fill:none" points="112.177,1486.45 2352.76,1486.45 "/>
<polyline clip-path="url(#clip670)" style="stroke:#000000; stroke-linecap:round; stroke-linejoin:round; stroke-width:4; stroke-opacity:1; fill:none" points="175.59,1486.45 175.59,1467.55 "/>
<polyline clip-path="url(#clip670)" style="stroke:#000000; stroke-linecap:round; stroke-linejoin:round; stroke-width:4; stroke-opacity:1; fill:none" points="704.028,1486.45 704.028,1467.55 "/>
<polyline clip-path="url(#clip670)" style="stroke:#000000; stroke-linecap:round; stroke-linejoin:round; stroke-width:4; stroke-opacity:1; fill:none" points="1232.47,1486.45 1232.47,1467.55 "/>
<polyline clip-path="url(#clip670)" style="stroke:#000000; stroke-linecap:round; stroke-linejoin:round; stroke-width:4; stroke-opacity:1; fill:none" points="1760.9,1486.45 1760.9,1467.55 "/>
<polyline clip-path="url(#clip670)" style="stroke:#000000; stroke-linecap:round; stroke-linejoin:round; stroke-width:4; stroke-opacity:1; fill:none" points="2289.34,1486.45 2289.34,1467.55 "/>
<path clip-path="url(#clip670)" d="M145.532 1532.02 L175.208 1532.02 L175.208 1535.95 L145.532 1535.95 L145.532 1532.02 Z" fill="#000000" fill-rule="nonzero" fill-opacity="1" /><path clip-path="url(#clip670)" d="M189.328 1544.91 L205.647 1544.91 L205.647 1548.85 L183.703 1548.85 L183.703 1544.91 Q186.365 1542.16 190.948 1537.53 Q195.555 1532.88 196.736 1531.53 Q198.981 1529.01 199.86 1527.27 Q200.763 1525.51 200.763 1523.82 Q200.763 1521.07 198.819 1519.33 Q196.898 1517.6 193.796 1517.6 Q191.597 1517.6 189.143 1518.36 Q186.712 1519.13 183.935 1520.68 L183.935 1515.95 Q186.759 1514.82 189.212 1514.24 Q191.666 1513.66 193.703 1513.66 Q199.073 1513.66 202.268 1516.35 Q205.462 1519.03 205.462 1523.52 Q205.462 1525.65 204.652 1527.57 Q203.865 1529.47 201.759 1532.07 Q201.18 1532.74 198.078 1535.95 Q194.976 1539.15 189.328 1544.91 Z" fill="#000000" fill-rule="nonzero" fill-opacity="1" /><path clip-path="url(#clip670)" d="M673.785 1532.02 L703.461 1532.02 L703.461 1535.95 L673.785 1535.95 L673.785 1532.02 Z" fill="#000000" fill-rule="nonzero" fill-opacity="1" /><path clip-path="url(#clip670)" d="M714.364 1544.91 L722.003 1544.91 L722.003 1518.55 L713.692 1520.21 L713.692 1515.95 L721.956 1514.29 L726.632 1514.29 L726.632 1544.91 L734.271 1544.91 L734.271 1548.85 L714.364 1548.85 L714.364 1544.91 Z" fill="#000000" fill-rule="nonzero" fill-opacity="1" /><path clip-path="url(#clip670)" d="M1232.47 1517.37 Q1228.86 1517.37 1227.03 1520.93 Q1225.22 1524.47 1225.22 1531.6 Q1225.22 1538.71 1227.03 1542.27 Q1228.86 1545.82 1232.47 1545.82 Q1236.1 1545.82 1237.91 1542.27 Q1239.74 1538.71 1239.74 1531.6 Q1239.74 1524.47 1237.91 1520.93 Q1236.1 1517.37 1232.47 1517.37 M1232.47 1513.66 Q1238.28 1513.66 1241.33 1518.27 Q1244.41 1522.85 1244.41 1531.6 Q1244.41 1540.33 1241.33 1544.94 Q1238.28 1549.52 1232.47 1549.52 Q1226.66 1549.52 1223.58 1544.94 Q1220.52 1540.33 1220.52 1531.6 Q1220.52 1522.85 1223.58 1518.27 Q1226.66 1513.66 1232.47 1513.66 Z" fill="#000000" fill-rule="nonzero" fill-opacity="1" /><path clip-path="url(#clip670)" d="M1751.29 1544.91 L1758.93 1544.91 L1758.93 1518.55 L1750.62 1520.21 L1750.62 1515.95 L1758.88 1514.29 L1763.56 1514.29 L1763.56 1544.91 L1771.19 1544.91 L1771.19 1548.85 L1751.29 1548.85 L1751.29 1544.91 Z" fill="#000000" fill-rule="nonzero" fill-opacity="1" /><path clip-path="url(#clip670)" d="M2284 1544.91 L2300.32 1544.91 L2300.32 1548.85 L2278.37 1548.85 L2278.37 1544.91 Q2281.03 1542.16 2285.62 1537.53 Q2290.22 1532.88 2291.4 1531.53 Q2293.65 1529.01 2294.53 1527.27 Q2295.43 1525.51 2295.43 1523.82 Q2295.43 1521.07 2293.49 1519.33 Q2291.57 1517.6 2288.46 1517.6 Q2286.26 1517.6 2283.81 1518.36 Q2281.38 1519.13 2278.6 1520.68 L2278.6 1515.95 Q2281.43 1514.82 2283.88 1514.24 Q2286.33 1513.66 2288.37 1513.66 Q2293.74 1513.66 2296.94 1516.35 Q2300.13 1519.03 2300.13 1523.52 Q2300.13 1525.65 2299.32 1527.57 Q2298.53 1529.47 2296.43 1532.07 Q2295.85 1532.74 2292.75 1535.95 Q2289.64 1539.15 2284 1544.91 Z" fill="#000000" fill-rule="nonzero" fill-opacity="1" /><polyline clip-path="url(#clip672)" style="stroke:#000000; stroke-linecap:round; stroke-linejoin:round; stroke-width:2; stroke-opacity:0.1; fill:none" points="112.177,1326.54 2352.76,1326.54 "/>
<polyline clip-path="url(#clip672)" style="stroke:#000000; stroke-linecap:round; stroke-linejoin:round; stroke-width:2; stroke-opacity:0.1; fill:none" points="112.177,1006.71 2352.76,1006.71 "/>
<polyline clip-path="url(#clip672)" style="stroke:#000000; stroke-linecap:round; stroke-linejoin:round; stroke-width:2; stroke-opacity:0.1; fill:none" points="112.177,686.89 2352.76,686.89 "/>
<polyline clip-path="url(#clip672)" style="stroke:#000000; stroke-linecap:round; stroke-linejoin:round; stroke-width:2; stroke-opacity:0.1; fill:none" points="112.177,367.067 2352.76,367.067 "/>
<polyline clip-path="url(#clip672)" style="stroke:#000000; stroke-linecap:round; stroke-linejoin:round; stroke-width:2; stroke-opacity:0.1; fill:none" points="112.177,47.2441 2352.76,47.2441 "/>
<polyline clip-path="url(#clip670)" style="stroke:#000000; stroke-linecap:round; stroke-linejoin:round; stroke-width:4; stroke-opacity:1; fill:none" points="112.177,1486.45 112.177,47.2441 "/>
<polyline clip-path="url(#clip670)" style="stroke:#000000; stroke-linecap:round; stroke-linejoin:round; stroke-width:4; stroke-opacity:1; fill:none" points="112.177,1326.54 131.075,1326.54 "/>
<polyline clip-path="url(#clip670)" style="stroke:#000000; stroke-linecap:round; stroke-linejoin:round; stroke-width:4; stroke-opacity:1; fill:none" points="112.177,1006.71 131.075,1006.71 "/>
<polyline clip-path="url(#clip670)" style="stroke:#000000; stroke-linecap:round; stroke-linejoin:round; stroke-width:4; stroke-opacity:1; fill:none" points="112.177,686.89 131.075,686.89 "/>
<polyline clip-path="url(#clip670)" style="stroke:#000000; stroke-linecap:round; stroke-linejoin:round; stroke-width:4; stroke-opacity:1; fill:none" points="112.177,367.067 131.075,367.067 "/>
<polyline clip-path="url(#clip670)" style="stroke:#000000; stroke-linecap:round; stroke-linejoin:round; stroke-width:4; stroke-opacity:1; fill:none" points="112.177,47.2441 131.075,47.2441 "/>
<path clip-path="url(#clip670)" d="M64.2328 1312.34 Q60.6217 1312.34 58.793 1315.9 Q56.9875 1319.44 56.9875 1326.57 Q56.9875 1333.68 58.793 1337.24 Q60.6217 1340.78 64.2328 1340.78 Q67.867 1340.78 69.6726 1337.24 Q71.5013 1333.68 71.5013 1326.57 Q71.5013 1319.44 69.6726 1315.9 Q67.867 1312.34 64.2328 1312.34 M64.2328 1308.63 Q70.0429 1308.63 73.0985 1313.24 Q76.1772 1317.82 76.1772 1326.57 Q76.1772 1335.3 73.0985 1339.9 Q70.0429 1344.49 64.2328 1344.49 Q58.4226 1344.49 55.344 1339.9 Q52.2884 1335.3 52.2884 1326.57 Q52.2884 1317.82 55.344 1313.24 Q58.4226 1308.63 64.2328 1308.63 Z" fill="#000000" fill-rule="nonzero" fill-opacity="1" /><path clip-path="url(#clip670)" d="M56.2699 1020.06 L63.9087 1020.06 L63.9087 993.693 L55.5986 995.359 L55.5986 991.1 L63.8624 989.433 L68.5383 989.433 L68.5383 1020.06 L76.1772 1020.06 L76.1772 1023.99 L56.2699 1023.99 L56.2699 1020.06 Z" fill="#000000" fill-rule="nonzero" fill-opacity="1" /><path clip-path="url(#clip670)" d="M59.8578 700.235 L76.1772 700.235 L76.1772 704.17 L54.2328 704.17 L54.2328 700.235 Q56.8949 697.48 61.4782 692.851 Q66.0846 688.198 67.2652 686.855 Q69.5105 684.332 70.3902 682.596 Q71.2929 680.837 71.2929 679.147 Q71.2929 676.393 69.3485 674.656 Q67.4272 672.92 64.3254 672.92 Q62.1263 672.92 59.6726 673.684 Q57.2421 674.448 54.4643 675.999 L54.4643 671.277 Q57.2884 670.143 59.7421 669.564 Q62.1958 668.985 64.2328 668.985 Q69.6031 668.985 72.7976 671.67 Q75.992 674.356 75.992 678.846 Q75.992 680.976 75.1818 682.897 Q74.3948 684.795 72.2883 687.388 Q71.7096 688.059 68.6078 691.277 Q65.5059 694.471 59.8578 700.235 Z" fill="#000000" fill-rule="nonzero" fill-opacity="1" /><path clip-path="url(#clip670)" d="M69.0476 365.713 Q72.404 366.431 74.279 368.699 Q76.1772 370.968 76.1772 374.301 Q76.1772 379.417 72.6587 382.218 Q69.1402 385.018 62.6587 385.018 Q60.4828 385.018 58.168 384.579 Q55.8764 384.162 53.4227 383.305 L53.4227 378.792 Q55.3671 379.926 57.6819 380.505 Q59.9967 381.083 62.5198 381.083 Q66.918 381.083 69.2096 379.347 Q71.5244 377.611 71.5244 374.301 Q71.5244 371.245 69.3717 369.532 Q67.242 367.796 63.4226 367.796 L59.3949 367.796 L59.3949 363.954 L63.6078 363.954 Q67.0569 363.954 68.8855 362.588 Q70.7142 361.199 70.7142 358.607 Q70.7142 355.945 68.8161 354.533 Q66.9411 353.097 63.4226 353.097 Q61.5013 353.097 59.3023 353.514 Q57.1032 353.931 54.4643 354.81 L54.4643 350.644 Q57.1264 349.903 59.4412 349.533 Q61.7791 349.162 63.8393 349.162 Q69.1633 349.162 72.2652 351.593 Q75.367 354 75.367 358.12 Q75.367 360.991 73.7235 362.982 Q72.08 364.949 69.0476 365.713 Z" fill="#000000" fill-rule="nonzero" fill-opacity="1" /><path clip-path="url(#clip670)" d="M66.5939 34.0381 L54.7884 52.4871 L66.5939 52.4871 L66.5939 34.0381 M65.367 29.9641 L71.2466 29.9641 L71.2466 52.4871 L76.1772 52.4871 L76.1772 56.376 L71.2466 56.376 L71.2466 64.5241 L66.5939 64.5241 L66.5939 56.376 L50.9921 56.376 L50.9921 51.8621 L65.367 29.9641 Z" fill="#000000" fill-rule="nonzero" fill-opacity="1" /><polyline clip-path="url(#clip672)" style="stroke:#009af9; stroke-linecap:round; stroke-linejoin:round; stroke-width:12; stroke-opacity:1; fill:none" points="175.59,47.2441 180.874,60.005 186.159,72.702 191.443,85.335 196.727,97.9041 202.012,110.409 207.296,122.85 212.58,135.227 217.865,147.541 223.149,159.79 228.434,171.975 233.718,184.096 239.002,196.154 244.287,208.147 249.571,220.076 254.856,231.942 260.14,243.743 265.424,255.481 270.709,267.154 275.993,278.764 281.277,290.31 286.562,301.791 291.846,313.209 297.131,324.563 302.415,335.852 307.699,347.078 312.984,358.24 318.268,369.338 323.553,380.372 328.837,391.342 334.121,402.248 339.406,413.09 344.69,423.868 349.974,434.582 355.259,445.232 360.543,455.818 365.828,466.34 371.112,476.798 376.396,487.193 381.681,497.523 386.965,507.789 392.25,517.992 397.534,528.13 402.818,538.204 408.103,548.215 413.387,558.161 418.671,568.044 423.956,577.863 429.24,587.617 434.525,597.308 439.809,606.934 445.093,616.497 450.378,625.996 455.662,635.431 460.947,644.802 466.231,654.108 471.515,663.351 476.8,672.53 482.084,681.645 487.368,690.696 492.653,699.683 497.937,708.606 503.222,717.465 508.506,726.26 513.79,734.992 519.075,743.659 524.359,752.262 529.643,760.801 534.928,769.277 540.212,777.688 545.497,786.035 550.781,794.319 556.065,802.538 561.35,810.694 566.634,818.785 571.919,826.813 577.203,834.776 582.487,842.676 587.772,850.512 593.056,858.283 598.34,865.991 603.625,873.635 608.909,881.215 614.194,888.731 619.478,896.182 624.762,903.57 630.047,910.894 635.331,918.154 640.616,925.35 645.9,932.482 651.184,939.55 656.469,946.555 661.753,953.495 667.037,960.371 672.322,967.183 677.606,973.931 682.891,980.616 688.175,987.236 693.459,993.792 698.744,1000.28 704.028,1006.71 709.313,1013.08 714.597,1019.38 719.881,1025.61 725.166,1031.79 730.45,1037.9 735.734,1043.94 741.019,1049.92 746.303,1055.84 751.588,1061.69 756.872,1067.48 762.156,1073.2 767.441,1078.87 772.725,1084.46 778.01,1090 783.294,1095.46 788.578,1100.87 793.863,1106.21 799.147,1111.49 804.431,1116.7 809.716,1121.85 815,1126.93 820.285,1131.96 825.569,1136.91 830.853,1141.81 836.138,1146.64 841.422,1151.4 846.707,1156.1 851.991,1160.74 857.275,1165.31 862.56,1169.82 867.844,1174.27 873.128,1178.65 878.413,1182.97 883.697,1187.22 888.982,1191.41 894.266,1195.54 899.55,1199.6 904.835,1203.6 910.119,1207.53 915.404,1211.4 920.688,1215.21 925.972,1218.95 931.257,1222.63 936.541,1226.24 941.825,1229.79 947.11,1233.28 952.394,1236.7 957.679,1240.06 962.963,1243.35 968.247,1246.58 973.532,1249.75 978.816,1252.85 984.101,1255.89 989.385,1258.86 994.669,1261.77 999.954,1264.62 1005.24,1267.4 1010.52,1270.12 1015.81,1272.77 1021.09,1275.36 1026.38,1277.89 1031.66,1280.35 1036.94,1282.75 1042.23,1285.09 1047.51,1287.36 1052.8,1289.56 1058.08,1291.71 1063.37,1293.79 1068.65,1295.8 1073.94,1297.75 1079.22,1299.64 1084.5,1301.46 1089.79,1303.22 1095.07,1304.92 1100.36,1306.55 1105.64,1308.11 1110.93,1309.62 1116.21,1311.06 1121.49,1312.43 1126.78,1313.74 1132.06,1314.99 1137.35,1316.17 1142.63,1317.29 1147.92,1318.35 1153.2,1319.34 1158.49,1320.27 1163.77,1321.13 1169.05,1321.93 1174.34,1322.67 1179.62,1323.34 1184.91,1323.95 1190.19,1324.49 1195.48,1324.97 1200.76,1325.38 1206.04,1325.74 1211.33,1326.02 1216.61,1326.25 1221.9,1326.41 1227.18,1326.5 1232.47,1326.54 1237.75,1326.5 1243.04,1326.41 1248.32,1326.25 1253.6,1326.02 1258.89,1325.74 1264.17,1325.38 1269.46,1324.97 1274.74,1324.49 1280.03,1323.95 1285.31,1323.34 1290.59,1322.67 1295.88,1321.93 1301.16,1321.13 1306.45,1320.27 1311.73,1319.34 1317.02,1318.35 1322.3,1317.29 1327.59,1316.17 1332.87,1314.99 1338.15,1313.74 1343.44,1312.43 1348.72,1311.06 1354.01,1309.62 1359.29,1308.11 1364.58,1306.55 1369.86,1304.92 1375.14,1303.22 1380.43,1301.46 1385.71,1299.64 1391,1297.75 1396.28,1295.8 1401.57,1293.79 1406.85,1291.71 1412.14,1289.56 1417.42,1287.36 1422.7,1285.09 1427.99,1282.75 1433.27,1280.35 1438.56,1277.89 1443.84,1275.36 1449.13,1272.77 1454.41,1270.12 1459.7,1267.4 1464.98,1264.62 1470.26,1261.77 1475.55,1258.86 1480.83,1255.89 1486.12,1252.85 1491.4,1249.75 1496.69,1246.58 1501.97,1243.35 1507.25,1240.06 1512.54,1236.7 1517.82,1233.28 1523.11,1229.79 1528.39,1226.24 1533.68,1222.63 1538.96,1218.95 1544.25,1215.21 1549.53,1211.4 1554.81,1207.53 1560.1,1203.6 1565.38,1199.6 1570.67,1195.54 1575.95,1191.41 1581.24,1187.22 1586.52,1182.97 1591.8,1178.65 1597.09,1174.27 1602.37,1169.82 1607.66,1165.31 1612.94,1160.74 1618.23,1156.1 1623.51,1151.4 1628.8,1146.64 1634.08,1141.81 1639.36,1136.91 1644.65,1131.96 1649.93,1126.93 1655.22,1121.85 1660.5,1116.7 1665.79,1111.49 1671.07,1106.21 1676.35,1100.87 1681.64,1095.46 1686.92,1090 1692.21,1084.46 1697.49,1078.87 1702.78,1073.2 1708.06,1067.48 1713.35,1061.69 1718.63,1055.84 1723.91,1049.92 1729.2,1043.94 1734.48,1037.9 1739.77,1031.79 1745.05,1025.61 1750.34,1019.38 1755.62,1013.08 1760.9,1006.71 1766.19,1000.28 1771.47,993.792 1776.76,987.236 1782.04,980.616 1787.33,973.931 1792.61,967.183 1797.9,960.371 1803.18,953.495 1808.46,946.555 1813.75,939.55 1819.03,932.482 1824.32,925.35 1829.6,918.154 1834.89,910.894 1840.17,903.57 1845.46,896.182 1850.74,888.731 1856.02,881.215 1861.31,873.635 1866.59,865.991 1871.88,858.283 1877.16,850.512 1882.45,842.676 1887.73,834.776 1893.01,826.813 1898.3,818.785 1903.58,810.694 1908.87,802.538 1914.15,794.319 1919.44,786.035 1924.72,777.688 1930.01,769.277 1935.29,760.801 1940.57,752.262 1945.86,743.659 1951.14,734.992 1956.43,726.26 1961.71,717.465 1967,708.606 1972.28,699.683 1977.56,690.696 1982.85,681.645 1988.13,672.53 1993.42,663.351 1998.7,654.108 2003.99,644.802 2009.27,635.431 2014.56,625.996 2019.84,616.497 2025.12,606.934 2030.41,597.308 2035.69,587.617 2040.98,577.863 2046.26,568.044 2051.55,558.161 2056.83,548.215 2062.11,538.204 2067.4,528.13 2072.68,517.992 2077.97,507.789 2083.25,497.523 2088.54,487.193 2093.82,476.798 2099.11,466.34 2104.39,455.818 2109.67,445.232 2114.96,434.582 2120.24,423.868 2125.53,413.09 2130.81,402.248 2136.1,391.342 2141.38,380.372 2146.66,369.338 2151.95,358.24 2157.23,347.078 2162.52,335.852 2167.8,324.563 2173.09,313.209 2178.37,301.791 2183.66,290.31 2188.94,278.764 2194.22,267.154 2199.51,255.481 2204.79,243.743 2210.08,231.942 2215.36,220.076 2220.65,208.147 2225.93,196.154 2231.22,184.096 2236.5,171.975 2241.78,159.79 2247.07,147.541 2252.35,135.227 2257.64,122.85 2262.92,110.409 2268.21,97.9041 2273.49,85.335 2278.77,72.702 2284.06,60.005 2289.34,47.2441 "/>
<polyline clip-path="url(#clip672)" style="stroke:#ff0000; stroke-linecap:round; stroke-linejoin:round; stroke-width:12; stroke-opacity:1; fill:none" points="175.59,47.2441 180.874,60.037 186.159,72.8299 191.443,85.6229 196.727,98.4158 202.012,111.209 207.296,124.002 212.58,136.795 217.865,149.587 223.149,162.38 228.434,175.173 233.718,187.966 239.002,200.759 244.287,213.552 249.571,226.345 254.856,239.138 260.14,251.931 265.424,264.724 270.709,277.517 275.993,290.31 281.277,303.103 286.562,315.895 291.846,328.688 297.131,341.481 302.415,354.274 307.699,367.067 312.984,379.86 318.268,392.653 323.553,405.446 328.837,418.239 334.121,431.032 339.406,443.825 344.69,456.618 349.974,469.411 355.259,482.203 360.543,494.996 365.828,507.789 371.112,520.582 376.396,533.375 381.681,546.168 386.965,558.961 392.25,571.754 397.534,584.547 402.818,597.34 408.103,610.133 413.387,622.926 418.671,635.719 423.956,648.511 429.24,661.304 434.525,674.097 439.809,686.89 445.093,699.683 450.378,712.476 455.662,725.269 460.947,738.062 466.231,750.855 471.515,763.648 476.8,776.441 482.084,789.234 487.368,802.027 492.653,814.819 497.937,827.612 503.222,840.405 508.506,853.198 513.79,865.991 519.075,878.784 524.359,891.577 529.643,904.37 534.928,917.163 540.212,929.956 545.497,942.749 550.781,955.542 556.065,968.335 561.35,981.127 566.634,993.92 571.919,1006.71 577.203,1019.51 582.487,1032.3 587.772,1045.09 593.056,1057.88 598.34,1070.68 603.625,1083.47 608.909,1096.26 614.194,1109.06 619.478,1121.85 624.762,1134.64 630.047,1147.44 635.331,1160.23 640.616,1173.02 645.9,1185.81 651.184,1198.61 656.469,1211.4 661.753,1224.19 667.037,1236.99 672.322,1249.78 677.606,1262.57 682.891,1275.36 688.175,1288.16 693.459,1300.95 698.744,1313.74 704.028,1326.54 709.313,1339.33 714.597,1352.12 719.881,1364.92 725.166,1377.71 730.45,1390.5 735.734,1403.29 741.019,1416.09 746.303,1428.88 751.588,1441.67 756.872,1454.47 762.156,1467.26 767.441,1480.05 772.725,1492.84 778.01,1505.64 783.294,1518.43 788.578,1531.22 793.863,1544.02 799.147,1556.81 804.431,1569.6 809.716,1582.39 815,1595.19 820.285,1607.98 825.569,1620.77 830.853,1633.57 836.138,1646.36 841.422,1659.15 846.707,1671.95 851.991,1684.74 857.275,1697.53 862.56,1710.32 867.844,1723.12 873.128,1735.91 878.413,1748.7 883.697,1761.5 888.982,1774.29 894.266,1787.08 899.55,1799.87 904.835,1812.67 910.119,1825.46 915.404,1838.25 920.688,1851.05 925.972,1863.84 931.257,1876.63 936.541,1889.42 941.825,1902.22 947.11,1915.01 952.394,1927.8 957.679,1940.6 962.963,1953.39 968.247,1966.18 973.532,1978.98 978.816,1991.77 984.101,2004.56 989.385,2017.35 994.669,2030.15 999.954,2042.94 1005.24,2055.73 1010.52,2068.53 1015.81,2081.32 1021.09,2094.11 1026.38,2106.9 1031.66,2119.7 1036.94,2132.49 1042.23,2145.28 1047.51,2158.08 1052.8,2170.87 1058.08,2183.66 1063.37,2196.46 1068.65,2209.25 1073.94,2222.04 1079.22,2234.83 1084.5,2247.63 1089.79,2260.42 1095.07,2273.21 1100.36,2286.01 1105.64,2298.8 1110.93,2311.59 1116.21,2324.38 1121.49,2337.18 1126.78,2349.97 1132.06,2362.76 1137.35,2375.56 1142.63,2388.35 1147.92,2401.14 1153.2,2413.93 1158.49,2426.73 1163.77,2439.52 1169.05,2452.31 1174.34,2465.11 1179.62,2477.9 1184.91,2490.69 1190.19,2503.49 1195.48,2516.28 1200.76,2529.07 1206.04,2541.86 1211.33,2554.66 1216.61,2567.45 1221.9,2580.24 1227.18,2593.04 1232.47,2605.83 1237.75,2618.62 1243.04,2631.41 1248.32,2644.21 1253.6,2657 1258.89,2669.79 1264.17,2682.59 1269.46,2695.38 1274.74,2708.17 1280.03,2720.96 1285.31,2733.76 1290.59,2746.55 1295.88,2759.34 1301.16,2772.14 1306.45,2784.93 1311.73,2797.72 1317.02,2810.52 1322.3,2823.31 1327.59,2836.1 1332.87,2848.89 1338.15,2861.69 1343.44,2874.48 1348.72,2887.27 1354.01,2900.07 1359.29,2912.86 1364.58,2925.65 1369.86,2938.44 1375.14,2951.24 1380.43,2964.03 1385.71,2976.82 1391,2989.62 1396.28,3002.41 1401.57,3015.2 1406.85,3028 1412.14,3040.79 1417.42,3053.58 1422.7,3066.37 1427.99,3079.17 1433.27,3091.96 1438.56,3104.75 1443.84,3117.55 1449.13,3130.34 1454.41,3143.13 1459.7,3155.92 1464.98,3168.72 1470.26,3181.51 1475.55,3194.3 1480.83,3207.1 1486.12,3219.89 1491.4,3232.68 1496.69,3245.47 1501.97,3258.27 1507.25,3271.06 1512.54,3283.85 1517.82,3296.65 1523.11,3309.44 1528.39,3322.23 1533.68,3335.03 1538.96,3347.82 1544.25,3360.61 1549.53,3373.4 1554.81,3386.2 1560.1,3398.99 1565.38,3411.78 1570.67,3424.58 1575.95,3437.37 1581.24,3450.16 1586.52,3462.95 1591.8,3475.75 1597.09,3488.54 1602.37,3501.33 1607.66,3514.13 1612.94,3526.92 1618.23,3539.71 1623.51,3552.5 1628.8,3565.3 1634.08,3578.09 1639.36,3590.88 1644.65,3603.68 1649.93,3616.47 1655.22,3629.26 1660.5,3642.06 1665.79,3654.85 1671.07,3667.64 1676.35,3680.43 1681.64,3693.23 1686.92,3706.02 1692.21,3718.81 1697.49,3731.61 1702.78,3744.4 1708.06,3757.19 1713.35,3769.98 1718.63,3782.78 1723.91,3795.57 1729.2,3808.36 1734.48,3821.16 1739.77,3833.95 1745.05,3846.74 1750.34,3859.53 1755.62,3872.33 1760.9,3885.12 1766.19,3897.91 1771.47,3910.71 1776.76,3923.5 1782.04,3936.29 1787.33,3949.09 1792.61,3961.88 1797.9,3974.67 1803.18,3987.46 1808.46,4000.26 1813.75,4013.05 1819.03,4025.84 1824.32,4038.64 1829.6,4051.43 1834.89,4064.22 1840.17,4077.01 1845.46,4089.81 1850.74,4102.6 1856.02,4115.39 1861.31,4128.19 1866.59,4140.98 1871.88,4153.77 1877.16,4166.57 1882.45,4179.36 1887.73,4192.15 1893.01,4204.94 1898.3,4217.74 1903.58,4230.53 1908.87,4243.32 1914.15,4256.12 1919.44,4268.91 1924.72,4281.7 1930.01,4294.49 1935.29,4307.29 1940.57,4320.08 1945.86,4332.87 1951.14,4345.67 1956.43,4358.46 1961.71,4371.25 1967,4384.04 1972.28,4396.84 1977.56,4409.63 1982.85,4422.42 1988.13,4435.22 1993.42,4448.01 1998.7,4460.8 2003.99,4473.6 2009.27,4486.39 2014.56,4499.18 2019.84,4511.97 2025.12,4524.77 2030.41,4537.56 2035.69,4550.35 2040.98,4563.15 2046.26,4575.94 2051.55,4588.73 2056.83,4601.52 2062.11,4614.32 2067.4,4627.11 2072.68,4639.9 2077.97,4652.7 2083.25,4665.49 2088.54,4678.28 2093.82,4691.07 2099.11,4703.87 2104.39,4716.66 2109.67,4729.45 2114.96,4742.25 2120.24,4755.04 2125.53,4767.83 2130.81,4780.63 2136.1,4793.42 2141.38,4806.21 2146.66,4819 2151.95,4831.8 2157.23,4844.59 2162.52,4857.38 2167.8,4870.18 2173.09,4882.97 2178.37,4895.76 2183.66,4908.55 2188.94,4921.35 2194.22,4934.14 2199.51,4946.93 2204.79,4959.73 2210.08,4972.52 2215.36,4985.31 2220.65,4998.11 2225.93,5010.9 2231.22,5023.69 2236.5,5036.48 2241.78,5049.28 2247.07,5062.07 2252.35,5074.86 2257.64,5087.66 2262.92,5100.45 2268.21,5113.24 2273.49,5126.03 2278.77,5138.83 2284.06,5151.62 2289.34,5164.41 "/>
<polyline clip-path="url(#clip672)" style="stroke:#ff0000; stroke-linecap:round; stroke-linejoin:round; stroke-width:12; stroke-opacity:1; fill:none" points="175.59,367.067 180.874,373.464 186.159,379.86 191.443,386.257 196.727,392.653 202.012,399.049 207.296,405.446 212.58,411.842 217.865,418.239 223.149,424.635 228.434,431.032 233.718,437.428 239.002,443.825 244.287,450.221 249.571,456.618 254.856,463.014 260.14,469.411 265.424,475.807 270.709,482.203 275.993,488.6 281.277,494.996 286.562,501.393 291.846,507.789 297.131,514.186 302.415,520.582 307.699,526.979 312.984,533.375 318.268,539.772 323.553,546.168 328.837,552.565 334.121,558.961 339.406,565.357 344.69,571.754 349.974,578.15 355.259,584.547 360.543,590.943 365.828,597.34 371.112,603.736 376.396,610.133 381.681,616.529 386.965,622.926 392.25,629.322 397.534,635.719 402.818,642.115 408.103,648.511 413.387,654.908 418.671,661.304 423.956,667.701 429.24,674.097 434.525,680.494 439.809,686.89 445.093,693.287 450.378,699.683 455.662,706.08 460.947,712.476 466.231,718.873 471.515,725.269 476.8,731.665 482.084,738.062 487.368,744.458 492.653,750.855 497.937,757.251 503.222,763.648 508.506,770.044 513.79,776.441 519.075,782.837 524.359,789.234 529.643,795.63 534.928,802.027 540.212,808.423 545.497,814.819 550.781,821.216 556.065,827.612 561.35,834.009 566.634,840.405 571.919,846.802 577.203,853.198 582.487,859.595 587.772,865.991 593.056,872.388 598.34,878.784 603.625,885.181 608.909,891.577 614.194,897.973 619.478,904.37 624.762,910.766 630.047,917.163 635.331,923.559 640.616,929.956 645.9,936.352 651.184,942.749 656.469,949.145 661.753,955.542 667.037,961.938 672.322,968.335 677.606,974.731 682.891,981.127 688.175,987.524 693.459,993.92 698.744,1000.32 704.028,1006.71 709.313,1013.11 714.597,1019.51 719.881,1025.9 725.166,1032.3 730.45,1038.7 735.734,1045.09 741.019,1051.49 746.303,1057.88 751.588,1064.28 756.872,1070.68 762.156,1077.07 767.441,1083.47 772.725,1089.87 778.01,1096.26 783.294,1102.66 788.578,1109.06 793.863,1115.45 799.147,1121.85 804.431,1128.25 809.716,1134.64 815,1141.04 820.285,1147.44 825.569,1153.83 830.853,1160.23 836.138,1166.62 841.422,1173.02 846.707,1179.42 851.991,1185.81 857.275,1192.21 862.56,1198.61 867.844,1205 873.128,1211.4 878.413,1217.8 883.697,1224.19 888.982,1230.59 894.266,1236.99 899.55,1243.38 904.835,1249.78 910.119,1256.18 915.404,1262.57 920.688,1268.97 925.972,1275.36 931.257,1281.76 936.541,1288.16 941.825,1294.55 947.11,1300.95 952.394,1307.35 957.679,1313.74 962.963,1320.14 968.247,1326.54 973.532,1332.93 978.816,1339.33 984.101,1345.73 989.385,1352.12 994.669,1358.52 999.954,1364.92 1005.24,1371.31 1010.52,1377.71 1015.81,1384.1 1021.09,1390.5 1026.38,1396.9 1031.66,1403.29 1036.94,1409.69 1042.23,1416.09 1047.51,1422.48 1052.8,1428.88 1058.08,1435.28 1063.37,1441.67 1068.65,1448.07 1073.94,1454.47 1079.22,1460.86 1084.5,1467.26 1089.79,1473.65 1095.07,1480.05 1100.36,1486.45 1105.64,1492.84 1110.93,1499.24 1116.21,1505.64 1121.49,1512.03 1126.78,1518.43 1132.06,1524.83 1137.35,1531.22 1142.63,1537.62 1147.92,1544.02 1153.2,1550.41 1158.49,1556.81 1163.77,1563.21 1169.05,1569.6 1174.34,1576 1179.62,1582.39 1184.91,1588.79 1190.19,1595.19 1195.48,1601.58 1200.76,1607.98 1206.04,1614.38 1211.33,1620.77 1216.61,1627.17 1221.9,1633.57 1227.18,1639.96 1232.47,1646.36 1237.75,1652.76 1243.04,1659.15 1248.32,1665.55 1253.6,1671.95 1258.89,1678.34 1264.17,1684.74 1269.46,1691.13 1274.74,1697.53 1280.03,1703.93 1285.31,1710.32 1290.59,1716.72 1295.88,1723.12 1301.16,1729.51 1306.45,1735.91 1311.73,1742.31 1317.02,1748.7 1322.3,1755.1 1327.59,1761.5 1332.87,1767.89 1338.15,1774.29 1343.44,1780.69 1348.72,1787.08 1354.01,1793.48 1359.29,1799.87 1364.58,1806.27 1369.86,1812.67 1375.14,1819.06 1380.43,1825.46 1385.71,1831.86 1391,1838.25 1396.28,1844.65 1401.57,1851.05 1406.85,1857.44 1412.14,1863.84 1417.42,1870.24 1422.7,1876.63 1427.99,1883.03 1433.27,1889.42 1438.56,1895.82 1443.84,1902.22 1449.13,1908.61 1454.41,1915.01 1459.7,1921.41 1464.98,1927.8 1470.26,1934.2 1475.55,1940.6 1480.83,1946.99 1486.12,1953.39 1491.4,1959.79 1496.69,1966.18 1501.97,1972.58 1507.25,1978.98 1512.54,1985.37 1517.82,1991.77 1523.11,1998.16 1528.39,2004.56 1533.68,2010.96 1538.96,2017.35 1544.25,2023.75 1549.53,2030.15 1554.81,2036.54 1560.1,2042.94 1565.38,2049.34 1570.67,2055.73 1575.95,2062.13 1581.24,2068.53 1586.52,2074.92 1591.8,2081.32 1597.09,2087.72 1602.37,2094.11 1607.66,2100.51 1612.94,2106.9 1618.23,2113.3 1623.51,2119.7 1628.8,2126.09 1634.08,2132.49 1639.36,2138.89 1644.65,2145.28 1649.93,2151.68 1655.22,2158.08 1660.5,2164.47 1665.79,2170.87 1671.07,2177.27 1676.35,2183.66 1681.64,2190.06 1686.92,2196.46 1692.21,2202.85 1697.49,2209.25 1702.78,2215.64 1708.06,2222.04 1713.35,2228.44 1718.63,2234.83 1723.91,2241.23 1729.2,2247.63 1734.48,2254.02 1739.77,2260.42 1745.05,2266.82 1750.34,2273.21 1755.62,2279.61 1760.9,2286.01 1766.19,2292.4 1771.47,2298.8 1776.76,2305.19 1782.04,2311.59 1787.33,2317.99 1792.61,2324.38 1797.9,2330.78 1803.18,2337.18 1808.46,2343.57 1813.75,2349.97 1819.03,2356.37 1824.32,2362.76 1829.6,2369.16 1834.89,2375.56 1840.17,2381.95 1845.46,2388.35 1850.74,2394.75 1856.02,2401.14 1861.31,2407.54 1866.59,2413.93 1871.88,2420.33 1877.16,2426.73 1882.45,2433.12 1887.73,2439.52 1893.01,2445.92 1898.3,2452.31 1903.58,2458.71 1908.87,2465.11 1914.15,2471.5 1919.44,2477.9 1924.72,2484.3 1930.01,2490.69 1935.29,2497.09 1940.57,2503.49 1945.86,2509.88 1951.14,2516.28 1956.43,2522.67 1961.71,2529.07 1967,2535.47 1972.28,2541.86 1977.56,2548.26 1982.85,2554.66 1988.13,2561.05 1993.42,2567.45 1998.7,2573.85 2003.99,2580.24 2009.27,2586.64 2014.56,2593.04 2019.84,2599.43 2025.12,2605.83 2030.41,2612.23 2035.69,2618.62 2040.98,2625.02 2046.26,2631.41 2051.55,2637.81 2056.83,2644.21 2062.11,2650.6 2067.4,2657 2072.68,2663.4 2077.97,2669.79 2083.25,2676.19 2088.54,2682.59 2093.82,2688.98 2099.11,2695.38 2104.39,2701.78 2109.67,2708.17 2114.96,2714.57 2120.24,2720.96 2125.53,2727.36 2130.81,2733.76 2136.1,2740.15 2141.38,2746.55 2146.66,2752.95 2151.95,2759.34 2157.23,2765.74 2162.52,2772.14 2167.8,2778.53 2173.09,2784.93 2178.37,2791.33 2183.66,2797.72 2188.94,2804.12 2194.22,2810.52 2199.51,2816.91 2204.79,2823.31 2210.08,2829.7 2215.36,2836.1 2220.65,2842.5 2225.93,2848.89 2231.22,2855.29 2236.5,2861.69 2241.78,2868.08 2247.07,2874.48 2252.35,2880.88 2257.64,2887.27 2262.92,2893.67 2268.21,2900.07 2273.49,2906.46 2278.77,2912.86 2284.06,2919.26 2289.34,2925.65 "/>
<polyline clip-path="url(#clip672)" style="stroke:#ff0000; stroke-linecap:round; stroke-linejoin:round; stroke-width:12; stroke-opacity:1; fill:none" points="175.59,1326.54 180.874,1326.54 186.159,1326.54 191.443,1326.54 196.727,1326.54 202.012,1326.54 207.296,1326.54 212.58,1326.54 217.865,1326.54 223.149,1326.54 228.434,1326.54 233.718,1326.54 239.002,1326.54 244.287,1326.54 249.571,1326.54 254.856,1326.54 260.14,1326.54 265.424,1326.54 270.709,1326.54 275.993,1326.54 281.277,1326.54 286.562,1326.54 291.846,1326.54 297.131,1326.54 302.415,1326.54 307.699,1326.54 312.984,1326.54 318.268,1326.54 323.553,1326.54 328.837,1326.54 334.121,1326.54 339.406,1326.54 344.69,1326.54 349.974,1326.54 355.259,1326.54 360.543,1326.54 365.828,1326.54 371.112,1326.54 376.396,1326.54 381.681,1326.54 386.965,1326.54 392.25,1326.54 397.534,1326.54 402.818,1326.54 408.103,1326.54 413.387,1326.54 418.671,1326.54 423.956,1326.54 429.24,1326.54 434.525,1326.54 439.809,1326.54 445.093,1326.54 450.378,1326.54 455.662,1326.54 460.947,1326.54 466.231,1326.54 471.515,1326.54 476.8,1326.54 482.084,1326.54 487.368,1326.54 492.653,1326.54 497.937,1326.54 503.222,1326.54 508.506,1326.54 513.79,1326.54 519.075,1326.54 524.359,1326.54 529.643,1326.54 534.928,1326.54 540.212,1326.54 545.497,1326.54 550.781,1326.54 556.065,1326.54 561.35,1326.54 566.634,1326.54 571.919,1326.54 577.203,1326.54 582.487,1326.54 587.772,1326.54 593.056,1326.54 598.34,1326.54 603.625,1326.54 608.909,1326.54 614.194,1326.54 619.478,1326.54 624.762,1326.54 630.047,1326.54 635.331,1326.54 640.616,1326.54 645.9,1326.54 651.184,1326.54 656.469,1326.54 661.753,1326.54 667.037,1326.54 672.322,1326.54 677.606,1326.54 682.891,1326.54 688.175,1326.54 693.459,1326.54 698.744,1326.54 704.028,1326.54 709.313,1326.54 714.597,1326.54 719.881,1326.54 725.166,1326.54 730.45,1326.54 735.734,1326.54 741.019,1326.54 746.303,1326.54 751.588,1326.54 756.872,1326.54 762.156,1326.54 767.441,1326.54 772.725,1326.54 778.01,1326.54 783.294,1326.54 788.578,1326.54 793.863,1326.54 799.147,1326.54 804.431,1326.54 809.716,1326.54 815,1326.54 820.285,1326.54 825.569,1326.54 830.853,1326.54 836.138,1326.54 841.422,1326.54 846.707,1326.54 851.991,1326.54 857.275,1326.54 862.56,1326.54 867.844,1326.54 873.128,1326.54 878.413,1326.54 883.697,1326.54 888.982,1326.54 894.266,1326.54 899.55,1326.54 904.835,1326.54 910.119,1326.54 915.404,1326.54 920.688,1326.54 925.972,1326.54 931.257,1326.54 936.541,1326.54 941.825,1326.54 947.11,1326.54 952.394,1326.54 957.679,1326.54 962.963,1326.54 968.247,1326.54 973.532,1326.54 978.816,1326.54 984.101,1326.54 989.385,1326.54 994.669,1326.54 999.954,1326.54 1005.24,1326.54 1010.52,1326.54 1015.81,1326.54 1021.09,1326.54 1026.38,1326.54 1031.66,1326.54 1036.94,1326.54 1042.23,1326.54 1047.51,1326.54 1052.8,1326.54 1058.08,1326.54 1063.37,1326.54 1068.65,1326.54 1073.94,1326.54 1079.22,1326.54 1084.5,1326.54 1089.79,1326.54 1095.07,1326.54 1100.36,1326.54 1105.64,1326.54 1110.93,1326.54 1116.21,1326.54 1121.49,1326.54 1126.78,1326.54 1132.06,1326.54 1137.35,1326.54 1142.63,1326.54 1147.92,1326.54 1153.2,1326.54 1158.49,1326.54 1163.77,1326.54 1169.05,1326.54 1174.34,1326.54 1179.62,1326.54 1184.91,1326.54 1190.19,1326.54 1195.48,1326.54 1200.76,1326.54 1206.04,1326.54 1211.33,1326.54 1216.61,1326.54 1221.9,1326.54 1227.18,1326.54 1232.47,1326.54 1237.75,1326.54 1243.04,1326.54 1248.32,1326.54 1253.6,1326.54 1258.89,1326.54 1264.17,1326.54 1269.46,1326.54 1274.74,1326.54 1280.03,1326.54 1285.31,1326.54 1290.59,1326.54 1295.88,1326.54 1301.16,1326.54 1306.45,1326.54 1311.73,1326.54 1317.02,1326.54 1322.3,1326.54 1327.59,1326.54 1332.87,1326.54 1338.15,1326.54 1343.44,1326.54 1348.72,1326.54 1354.01,1326.54 1359.29,1326.54 1364.58,1326.54 1369.86,1326.54 1375.14,1326.54 1380.43,1326.54 1385.71,1326.54 1391,1326.54 1396.28,1326.54 1401.57,1326.54 1406.85,1326.54 1412.14,1326.54 1417.42,1326.54 1422.7,1326.54 1427.99,1326.54 1433.27,1326.54 1438.56,1326.54 1443.84,1326.54 1449.13,1326.54 1454.41,1326.54 1459.7,1326.54 1464.98,1326.54 1470.26,1326.54 1475.55,1326.54 1480.83,1326.54 1486.12,1326.54 1491.4,1326.54 1496.69,1326.54 1501.97,1326.54 1507.25,1326.54 1512.54,1326.54 1517.82,1326.54 1523.11,1326.54 1528.39,1326.54 1533.68,1326.54 1538.96,1326.54 1544.25,1326.54 1549.53,1326.54 1554.81,1326.54 1560.1,1326.54 1565.38,1326.54 1570.67,1326.54 1575.95,1326.54 1581.24,1326.54 1586.52,1326.54 1591.8,1326.54 1597.09,1326.54 1602.37,1326.54 1607.66,1326.54 1612.94,1326.54 1618.23,1326.54 1623.51,1326.54 1628.8,1326.54 1634.08,1326.54 1639.36,1326.54 1644.65,1326.54 1649.93,1326.54 1655.22,1326.54 1660.5,1326.54 1665.79,1326.54 1671.07,1326.54 1676.35,1326.54 1681.64,1326.54 1686.92,1326.54 1692.21,1326.54 1697.49,1326.54 1702.78,1326.54 1708.06,1326.54 1713.35,1326.54 1718.63,1326.54 1723.91,1326.54 1729.2,1326.54 1734.48,1326.54 1739.77,1326.54 1745.05,1326.54 1750.34,1326.54 1755.62,1326.54 1760.9,1326.54 1766.19,1326.54 1771.47,1326.54 1776.76,1326.54 1782.04,1326.54 1787.33,1326.54 1792.61,1326.54 1797.9,1326.54 1803.18,1326.54 1808.46,1326.54 1813.75,1326.54 1819.03,1326.54 1824.32,1326.54 1829.6,1326.54 1834.89,1326.54 1840.17,1326.54 1845.46,1326.54 1850.74,1326.54 1856.02,1326.54 1861.31,1326.54 1866.59,1326.54 1871.88,1326.54 1877.16,1326.54 1882.45,1326.54 1887.73,1326.54 1893.01,1326.54 1898.3,1326.54 1903.58,1326.54 1908.87,1326.54 1914.15,1326.54 1919.44,1326.54 1924.72,1326.54 1930.01,1326.54 1935.29,1326.54 1940.57,1326.54 1945.86,1326.54 1951.14,1326.54 1956.43,1326.54 1961.71,1326.54 1967,1326.54 1972.28,1326.54 1977.56,1326.54 1982.85,1326.54 1988.13,1326.54 1993.42,1326.54 1998.7,1326.54 2003.99,1326.54 2009.27,1326.54 2014.56,1326.54 2019.84,1326.54 2025.12,1326.54 2030.41,1326.54 2035.69,1326.54 2040.98,1326.54 2046.26,1326.54 2051.55,1326.54 2056.83,1326.54 2062.11,1326.54 2067.4,1326.54 2072.68,1326.54 2077.97,1326.54 2083.25,1326.54 2088.54,1326.54 2093.82,1326.54 2099.11,1326.54 2104.39,1326.54 2109.67,1326.54 2114.96,1326.54 2120.24,1326.54 2125.53,1326.54 2130.81,1326.54 2136.1,1326.54 2141.38,1326.54 2146.66,1326.54 2151.95,1326.54 2157.23,1326.54 2162.52,1326.54 2167.8,1326.54 2173.09,1326.54 2178.37,1326.54 2183.66,1326.54 2188.94,1326.54 2194.22,1326.54 2199.51,1326.54 2204.79,1326.54 2210.08,1326.54 2215.36,1326.54 2220.65,1326.54 2225.93,1326.54 2231.22,1326.54 2236.5,1326.54 2241.78,1326.54 2247.07,1326.54 2252.35,1326.54 2257.64,1326.54 2262.92,1326.54 2268.21,1326.54 2273.49,1326.54 2278.77,1326.54 2284.06,1326.54 2289.34,1326.54 "/>
<polyline clip-path="url(#clip672)" style="stroke:#ff0000; stroke-linecap:round; stroke-linejoin:round; stroke-width:12; stroke-opacity:1; fill:none" points="175.59,2925.65 180.874,2919.26 186.159,2912.86 191.443,2906.46 196.727,2900.07 202.012,2893.67 207.296,2887.27 212.58,2880.88 217.865,2874.48 223.149,2868.08 228.434,2861.69 233.718,2855.29 239.002,2848.89 244.287,2842.5 249.571,2836.1 254.856,2829.7 260.14,2823.31 265.424,2816.91 270.709,2810.52 275.993,2804.12 281.277,2797.72 286.562,2791.33 291.846,2784.93 297.131,2778.53 302.415,2772.14 307.699,2765.74 312.984,2759.34 318.268,2752.95 323.553,2746.55 328.837,2740.15 334.121,2733.76 339.406,2727.36 344.69,2720.96 349.974,2714.57 355.259,2708.17 360.543,2701.78 365.828,2695.38 371.112,2688.98 376.396,2682.59 381.681,2676.19 386.965,2669.79 392.25,2663.4 397.534,2657 402.818,2650.6 408.103,2644.21 413.387,2637.81 418.671,2631.41 423.956,2625.02 429.24,2618.62 434.525,2612.23 439.809,2605.83 445.093,2599.43 450.378,2593.04 455.662,2586.64 460.947,2580.24 466.231,2573.85 471.515,2567.45 476.8,2561.05 482.084,2554.66 487.368,2548.26 492.653,2541.86 497.937,2535.47 503.222,2529.07 508.506,2522.67 513.79,2516.28 519.075,2509.88 524.359,2503.49 529.643,2497.09 534.928,2490.69 540.212,2484.3 545.497,2477.9 550.781,2471.5 556.065,2465.11 561.35,2458.71 566.634,2452.31 571.919,2445.92 577.203,2439.52 582.487,2433.12 587.772,2426.73 593.056,2420.33 598.34,2413.93 603.625,2407.54 608.909,2401.14 614.194,2394.75 619.478,2388.35 624.762,2381.95 630.047,2375.56 635.331,2369.16 640.616,2362.76 645.9,2356.37 651.184,2349.97 656.469,2343.57 661.753,2337.18 667.037,2330.78 672.322,2324.38 677.606,2317.99 682.891,2311.59 688.175,2305.19 693.459,2298.8 698.744,2292.4 704.028,2286.01 709.313,2279.61 714.597,2273.21 719.881,2266.82 725.166,2260.42 730.45,2254.02 735.734,2247.63 741.019,2241.23 746.303,2234.83 751.588,2228.44 756.872,2222.04 762.156,2215.64 767.441,2209.25 772.725,2202.85 778.01,2196.46 783.294,2190.06 788.578,2183.66 793.863,2177.27 799.147,2170.87 804.431,2164.47 809.716,2158.08 815,2151.68 820.285,2145.28 825.569,2138.89 830.853,2132.49 836.138,2126.09 841.422,2119.7 846.707,2113.3 851.991,2106.9 857.275,2100.51 862.56,2094.11 867.844,2087.72 873.128,2081.32 878.413,2074.92 883.697,2068.53 888.982,2062.13 894.266,2055.73 899.55,2049.34 904.835,2042.94 910.119,2036.54 915.404,2030.15 920.688,2023.75 925.972,2017.35 931.257,2010.96 936.541,2004.56 941.825,1998.16 947.11,1991.77 952.394,1985.37 957.679,1978.98 962.963,1972.58 968.247,1966.18 973.532,1959.79 978.816,1953.39 984.101,1946.99 989.385,1940.6 994.669,1934.2 999.954,1927.8 1005.24,1921.41 1010.52,1915.01 1015.81,1908.61 1021.09,1902.22 1026.38,1895.82 1031.66,1889.42 1036.94,1883.03 1042.23,1876.63 1047.51,1870.24 1052.8,1863.84 1058.08,1857.44 1063.37,1851.05 1068.65,1844.65 1073.94,1838.25 1079.22,1831.86 1084.5,1825.46 1089.79,1819.06 1095.07,1812.67 1100.36,1806.27 1105.64,1799.87 1110.93,1793.48 1116.21,1787.08 1121.49,1780.69 1126.78,1774.29 1132.06,1767.89 1137.35,1761.5 1142.63,1755.1 1147.92,1748.7 1153.2,1742.31 1158.49,1735.91 1163.77,1729.51 1169.05,1723.12 1174.34,1716.72 1179.62,1710.32 1184.91,1703.93 1190.19,1697.53 1195.48,1691.13 1200.76,1684.74 1206.04,1678.34 1211.33,1671.95 1216.61,1665.55 1221.9,1659.15 1227.18,1652.76 1232.47,1646.36 1237.75,1639.96 1243.04,1633.57 1248.32,1627.17 1253.6,1620.77 1258.89,1614.38 1264.17,1607.98 1269.46,1601.58 1274.74,1595.19 1280.03,1588.79 1285.31,1582.39 1290.59,1576 1295.88,1569.6 1301.16,1563.21 1306.45,1556.81 1311.73,1550.41 1317.02,1544.02 1322.3,1537.62 1327.59,1531.22 1332.87,1524.83 1338.15,1518.43 1343.44,1512.03 1348.72,1505.64 1354.01,1499.24 1359.29,1492.84 1364.58,1486.45 1369.86,1480.05 1375.14,1473.65 1380.43,1467.26 1385.71,1460.86 1391,1454.47 1396.28,1448.07 1401.57,1441.67 1406.85,1435.28 1412.14,1428.88 1417.42,1422.48 1422.7,1416.09 1427.99,1409.69 1433.27,1403.29 1438.56,1396.9 1443.84,1390.5 1449.13,1384.1 1454.41,1377.71 1459.7,1371.31 1464.98,1364.92 1470.26,1358.52 1475.55,1352.12 1480.83,1345.73 1486.12,1339.33 1491.4,1332.93 1496.69,1326.54 1501.97,1320.14 1507.25,1313.74 1512.54,1307.35 1517.82,1300.95 1523.11,1294.55 1528.39,1288.16 1533.68,1281.76 1538.96,1275.36 1544.25,1268.97 1549.53,1262.57 1554.81,1256.18 1560.1,1249.78 1565.38,1243.38 1570.67,1236.99 1575.95,1230.59 1581.24,1224.19 1586.52,1217.8 1591.8,1211.4 1597.09,1205 1602.37,1198.61 1607.66,1192.21 1612.94,1185.81 1618.23,1179.42 1623.51,1173.02 1628.8,1166.62 1634.08,1160.23 1639.36,1153.83 1644.65,1147.44 1649.93,1141.04 1655.22,1134.64 1660.5,1128.25 1665.79,1121.85 1671.07,1115.45 1676.35,1109.06 1681.64,1102.66 1686.92,1096.26 1692.21,1089.87 1697.49,1083.47 1702.78,1077.07 1708.06,1070.68 1713.35,1064.28 1718.63,1057.88 1723.91,1051.49 1729.2,1045.09 1734.48,1038.7 1739.77,1032.3 1745.05,1025.9 1750.34,1019.51 1755.62,1013.11 1760.9,1006.71 1766.19,1000.32 1771.47,993.92 1776.76,987.524 1782.04,981.127 1787.33,974.731 1792.61,968.335 1797.9,961.938 1803.18,955.542 1808.46,949.145 1813.75,942.749 1819.03,936.352 1824.32,929.956 1829.6,923.559 1834.89,917.163 1840.17,910.766 1845.46,904.37 1850.74,897.973 1856.02,891.577 1861.31,885.181 1866.59,878.784 1871.88,872.388 1877.16,865.991 1882.45,859.595 1887.73,853.198 1893.01,846.802 1898.3,840.405 1903.58,834.009 1908.87,827.612 1914.15,821.216 1919.44,814.819 1924.72,808.423 1930.01,802.027 1935.29,795.63 1940.57,789.234 1945.86,782.837 1951.14,776.441 1956.43,770.044 1961.71,763.648 1967,757.251 1972.28,750.855 1977.56,744.458 1982.85,738.062 1988.13,731.665 1993.42,725.269 1998.7,718.873 2003.99,712.476 2009.27,706.08 2014.56,699.683 2019.84,693.287 2025.12,686.89 2030.41,680.494 2035.69,674.097 2040.98,667.701 2046.26,661.304 2051.55,654.908 2056.83,648.511 2062.11,642.115 2067.4,635.719 2072.68,629.322 2077.97,622.926 2083.25,616.529 2088.54,610.133 2093.82,603.736 2099.11,597.34 2104.39,590.943 2109.67,584.547 2114.96,578.15 2120.24,571.754 2125.53,565.357 2130.81,558.961 2136.1,552.565 2141.38,546.168 2146.66,539.772 2151.95,533.375 2157.23,526.979 2162.52,520.582 2167.8,514.186 2173.09,507.789 2178.37,501.393 2183.66,494.996 2188.94,488.6 2194.22,482.203 2199.51,475.807 2204.79,469.411 2210.08,463.014 2215.36,456.618 2220.65,450.221 2225.93,443.825 2231.22,437.428 2236.5,431.032 2241.78,424.635 2247.07,418.239 2252.35,411.842 2257.64,405.446 2262.92,399.049 2268.21,392.653 2273.49,386.257 2278.77,379.86 2284.06,373.464 2289.34,367.067 "/>
<polyline clip-path="url(#clip672)" style="stroke:#ff0000; stroke-linecap:round; stroke-linejoin:round; stroke-width:12; stroke-opacity:1; fill:none" points="175.59,5164.41 180.874,5151.62 186.159,5138.83 191.443,5126.03 196.727,5113.24 202.012,5100.45 207.296,5087.66 212.58,5074.86 217.865,5062.07 223.149,5049.28 228.434,5036.48 233.718,5023.69 239.002,5010.9 244.287,4998.11 249.571,4985.31 254.856,4972.52 260.14,4959.73 265.424,4946.93 270.709,4934.14 275.993,4921.35 281.277,4908.55 286.562,4895.76 291.846,4882.97 297.131,4870.18 302.415,4857.38 307.699,4844.59 312.984,4831.8 318.268,4819 323.553,4806.21 328.837,4793.42 334.121,4780.63 339.406,4767.83 344.69,4755.04 349.974,4742.25 355.259,4729.45 360.543,4716.66 365.828,4703.87 371.112,4691.07 376.396,4678.28 381.681,4665.49 386.965,4652.7 392.25,4639.9 397.534,4627.11 402.818,4614.32 408.103,4601.52 413.387,4588.73 418.671,4575.94 423.956,4563.15 429.24,4550.35 434.525,4537.56 439.809,4524.77 445.093,4511.97 450.378,4499.18 455.662,4486.39 460.947,4473.6 466.231,4460.8 471.515,4448.01 476.8,4435.22 482.084,4422.42 487.368,4409.63 492.653,4396.84 497.937,4384.04 503.222,4371.25 508.506,4358.46 513.79,4345.67 519.075,4332.87 524.359,4320.08 529.643,4307.29 534.928,4294.49 540.212,4281.7 545.497,4268.91 550.781,4256.12 556.065,4243.32 561.35,4230.53 566.634,4217.74 571.919,4204.94 577.203,4192.15 582.487,4179.36 587.772,4166.57 593.056,4153.77 598.34,4140.98 603.625,4128.19 608.909,4115.39 614.194,4102.6 619.478,4089.81 624.762,4077.01 630.047,4064.22 635.331,4051.43 640.616,4038.64 645.9,4025.84 651.184,4013.05 656.469,4000.26 661.753,3987.46 667.037,3974.67 672.322,3961.88 677.606,3949.09 682.891,3936.29 688.175,3923.5 693.459,3910.71 698.744,3897.91 704.028,3885.12 709.313,3872.33 714.597,3859.53 719.881,3846.74 725.166,3833.95 730.45,3821.16 735.734,3808.36 741.019,3795.57 746.303,3782.78 751.588,3769.98 756.872,3757.19 762.156,3744.4 767.441,3731.61 772.725,3718.81 778.01,3706.02 783.294,3693.23 788.578,3680.43 793.863,3667.64 799.147,3654.85 804.431,3642.06 809.716,3629.26 815,3616.47 820.285,3603.68 825.569,3590.88 830.853,3578.09 836.138,3565.3 841.422,3552.5 846.707,3539.71 851.991,3526.92 857.275,3514.13 862.56,3501.33 867.844,3488.54 873.128,3475.75 878.413,3462.95 883.697,3450.16 888.982,3437.37 894.266,3424.58 899.55,3411.78 904.835,3398.99 910.119,3386.2 915.404,3373.4 920.688,3360.61 925.972,3347.82 931.257,3335.03 936.541,3322.23 941.825,3309.44 947.11,3296.65 952.394,3283.85 957.679,3271.06 962.963,3258.27 968.247,3245.47 973.532,3232.68 978.816,3219.89 984.101,3207.1 989.385,3194.3 994.669,3181.51 999.954,3168.72 1005.24,3155.92 1010.52,3143.13 1015.81,3130.34 1021.09,3117.55 1026.38,3104.75 1031.66,3091.96 1036.94,3079.17 1042.23,3066.37 1047.51,3053.58 1052.8,3040.79 1058.08,3028 1063.37,3015.2 1068.65,3002.41 1073.94,2989.62 1079.22,2976.82 1084.5,2964.03 1089.79,2951.24 1095.07,2938.44 1100.36,2925.65 1105.64,2912.86 1110.93,2900.07 1116.21,2887.27 1121.49,2874.48 1126.78,2861.69 1132.06,2848.89 1137.35,2836.1 1142.63,2823.31 1147.92,2810.52 1153.2,2797.72 1158.49,2784.93 1163.77,2772.14 1169.05,2759.34 1174.34,2746.55 1179.62,2733.76 1184.91,2720.96 1190.19,2708.17 1195.48,2695.38 1200.76,2682.59 1206.04,2669.79 1211.33,2657 1216.61,2644.21 1221.9,2631.41 1227.18,2618.62 1232.47,2605.83 1237.75,2593.04 1243.04,2580.24 1248.32,2567.45 1253.6,2554.66 1258.89,2541.86 1264.17,2529.07 1269.46,2516.28 1274.74,2503.49 1280.03,2490.69 1285.31,2477.9 1290.59,2465.11 1295.88,2452.31 1301.16,2439.52 1306.45,2426.73 1311.73,2413.93 1317.02,2401.14 1322.3,2388.35 1327.59,2375.56 1332.87,2362.76 1338.15,2349.97 1343.44,2337.18 1348.72,2324.38 1354.01,2311.59 1359.29,2298.8 1364.58,2286.01 1369.86,2273.21 1375.14,2260.42 1380.43,2247.63 1385.71,2234.83 1391,2222.04 1396.28,2209.25 1401.57,2196.46 1406.85,2183.66 1412.14,2170.87 1417.42,2158.08 1422.7,2145.28 1427.99,2132.49 1433.27,2119.7 1438.56,2106.9 1443.84,2094.11 1449.13,2081.32 1454.41,2068.53 1459.7,2055.73 1464.98,2042.94 1470.26,2030.15 1475.55,2017.35 1480.83,2004.56 1486.12,1991.77 1491.4,1978.98 1496.69,1966.18 1501.97,1953.39 1507.25,1940.6 1512.54,1927.8 1517.82,1915.01 1523.11,1902.22 1528.39,1889.42 1533.68,1876.63 1538.96,1863.84 1544.25,1851.05 1549.53,1838.25 1554.81,1825.46 1560.1,1812.67 1565.38,1799.87 1570.67,1787.08 1575.95,1774.29 1581.24,1761.5 1586.52,1748.7 1591.8,1735.91 1597.09,1723.12 1602.37,1710.32 1607.66,1697.53 1612.94,1684.74 1618.23,1671.95 1623.51,1659.15 1628.8,1646.36 1634.08,1633.57 1639.36,1620.77 1644.65,1607.98 1649.93,1595.19 1655.22,1582.39 1660.5,1569.6 1665.79,1556.81 1671.07,1544.02 1676.35,1531.22 1681.64,1518.43 1686.92,1505.64 1692.21,1492.84 1697.49,1480.05 1702.78,1467.26 1708.06,1454.47 1713.35,1441.67 1718.63,1428.88 1723.91,1416.09 1729.2,1403.29 1734.48,1390.5 1739.77,1377.71 1745.05,1364.92 1750.34,1352.12 1755.62,1339.33 1760.9,1326.54 1766.19,1313.74 1771.47,1300.95 1776.76,1288.16 1782.04,1275.36 1787.33,1262.57 1792.61,1249.78 1797.9,1236.99 1803.18,1224.19 1808.46,1211.4 1813.75,1198.61 1819.03,1185.81 1824.32,1173.02 1829.6,1160.23 1834.89,1147.44 1840.17,1134.64 1845.46,1121.85 1850.74,1109.06 1856.02,1096.26 1861.31,1083.47 1866.59,1070.68 1871.88,1057.88 1877.16,1045.09 1882.45,1032.3 1887.73,1019.51 1893.01,1006.71 1898.3,993.92 1903.58,981.127 1908.87,968.335 1914.15,955.542 1919.44,942.749 1924.72,929.956 1930.01,917.163 1935.29,904.37 1940.57,891.577 1945.86,878.784 1951.14,865.991 1956.43,853.198 1961.71,840.405 1967,827.612 1972.28,814.819 1977.56,802.027 1982.85,789.234 1988.13,776.441 1993.42,763.648 1998.7,750.855 2003.99,738.062 2009.27,725.269 2014.56,712.476 2019.84,699.683 2025.12,686.89 2030.41,674.097 2035.69,661.304 2040.98,648.511 2046.26,635.719 2051.55,622.926 2056.83,610.133 2062.11,597.34 2067.4,584.547 2072.68,571.754 2077.97,558.961 2083.25,546.168 2088.54,533.375 2093.82,520.582 2099.11,507.789 2104.39,494.996 2109.67,482.203 2114.96,469.411 2120.24,456.618 2125.53,443.825 2130.81,431.032 2136.1,418.239 2141.38,405.446 2146.66,392.653 2151.95,379.86 2157.23,367.067 2162.52,354.274 2167.8,341.481 2173.09,328.688 2178.37,315.895 2183.66,303.103 2188.94,290.31 2194.22,277.517 2199.51,264.724 2204.79,251.931 2210.08,239.138 2215.36,226.345 2220.65,213.552 2225.93,200.759 2231.22,187.966 2236.5,175.173 2241.78,162.38 2247.07,149.587 2252.35,136.795 2257.64,124.002 2262.92,111.209 2268.21,98.4158 2273.49,85.6229 2278.77,72.8299 2284.06,60.037 2289.34,47.2441 "/>
<circle clip-path="url(#clip672)" cx="175.59" cy="47.2441" r="14.4" fill="#000000" fill-rule="evenodd" fill-opacity="1" stroke="none"/>
<circle clip-path="url(#clip672)" cx="326.572" cy="412.756" r="14.4" fill="#000000" fill-rule="evenodd" fill-opacity="1" stroke="none"/>
<circle clip-path="url(#clip672)" cx="477.555" cy="732.579" r="14.4" fill="#000000" fill-rule="evenodd" fill-opacity="1" stroke="none"/>
<circle clip-path="url(#clip672)" cx="628.537" cy="915.335" r="14.4" fill="#000000" fill-rule="evenodd" fill-opacity="1" stroke="none"/>
<circle clip-path="url(#clip672)" cx="779.519" cy="1098.09" r="14.4" fill="#000000" fill-rule="evenodd" fill-opacity="1" stroke="none"/>
<circle clip-path="url(#clip672)" cx="930.502" cy="1280.85" r="14.4" fill="#000000" fill-rule="evenodd" fill-opacity="1" stroke="none"/>
<circle clip-path="url(#clip672)" cx="1081.48" cy="1326.54" r="14.4" fill="#000000" fill-rule="evenodd" fill-opacity="1" stroke="none"/>
<circle clip-path="url(#clip672)" cx="1232.47" cy="1326.54" r="14.4" fill="#000000" fill-rule="evenodd" fill-opacity="1" stroke="none"/>
<circle clip-path="url(#clip672)" cx="1383.45" cy="1326.54" r="14.4" fill="#000000" fill-rule="evenodd" fill-opacity="1" stroke="none"/>
<circle clip-path="url(#clip672)" cx="1534.43" cy="1280.85" r="14.4" fill="#000000" fill-rule="evenodd" fill-opacity="1" stroke="none"/>
<circle clip-path="url(#clip672)" cx="1685.41" cy="1098.09" r="14.4" fill="#000000" fill-rule="evenodd" fill-opacity="1" stroke="none"/>
<circle clip-path="url(#clip672)" cx="1836.4" cy="915.335" r="14.4" fill="#000000" fill-rule="evenodd" fill-opacity="1" stroke="none"/>
<circle clip-path="url(#clip672)" cx="1987.38" cy="732.579" r="14.4" fill="#000000" fill-rule="evenodd" fill-opacity="1" stroke="none"/>
<circle clip-path="url(#clip672)" cx="2138.36" cy="412.756" r="14.4" fill="#000000" fill-rule="evenodd" fill-opacity="1" stroke="none"/>
<circle clip-path="url(#clip672)" cx="2289.34" cy="47.2441" r="14.4" fill="#000000" fill-rule="evenodd" fill-opacity="1" stroke="none"/>
</svg>
