<?xml version="1.0" encoding="utf-8"?>
<svg xmlns="http://www.w3.org/2000/svg" xmlns:xlink="http://www.w3.org/1999/xlink" width="600" height="400" viewBox="0 0 2400 1600">
<defs>
  <clipPath id="clip560">
    <rect x="0" y="0" width="2400" height="1600"/>
  </clipPath>
</defs>
<path clip-path="url(#clip560)" d="M0 1600 L2400 1600 L2400 0 L0 0  Z" fill="#ffffff" fill-rule="evenodd" fill-opacity="1"/>
<defs>
  <clipPath id="clip561">
    <rect x="480" y="0" width="1681" height="1600"/>
  </clipPath>
</defs>
<path clip-path="url(#clip560)" d="M140.696 1423.18 L2352.76 1423.18 L2352.76 47.2441 L140.696 47.2441  Z" fill="#ffffff" fill-rule="evenodd" fill-opacity="1"/>
<defs>
  <clipPath id="clip562">
    <rect x="140" y="47" width="2213" height="1377"/>
  </clipPath>
</defs>
<polyline clip-path="url(#clip562)" style="stroke:#000000; stroke-linecap:round; stroke-linejoin:round; stroke-width:2; stroke-opacity:0.1; fill:none" points="469.597,1423.18 469.597,47.2441 "/>
<polyline clip-path="url(#clip562)" style="stroke:#000000; stroke-linecap:round; stroke-linejoin:round; stroke-width:2; stroke-opacity:0.1; fill:none" points="884.066,1423.18 884.066,47.2441 "/>
<polyline clip-path="url(#clip562)" style="stroke:#000000; stroke-linecap:round; stroke-linejoin:round; stroke-width:2; stroke-opacity:0.1; fill:none" points="1298.53,1423.18 1298.53,47.2441 "/>
<polyline clip-path="url(#clip562)" style="stroke:#000000; stroke-linecap:round; stroke-linejoin:round; stroke-width:2; stroke-opacity:0.1; fill:none" points="1713,1423.18 1713,47.2441 "/>
<polyline clip-path="url(#clip562)" style="stroke:#000000; stroke-linecap:round; stroke-linejoin:round; stroke-width:2; stroke-opacity:0.1; fill:none" points="2127.47,1423.18 2127.47,47.2441 "/>
<polyline clip-path="url(#clip560)" style="stroke:#000000; stroke-linecap:round; stroke-linejoin:round; stroke-width:4; stroke-opacity:1; fill:none" points="140.696,1423.18 2352.76,1423.18 "/>
<polyline clip-path="url(#clip560)" style="stroke:#000000; stroke-linecap:round; stroke-linejoin:round; stroke-width:4; stroke-opacity:1; fill:none" points="469.597,1423.18 469.597,1404.28 "/>
<polyline clip-path="url(#clip560)" style="stroke:#000000; stroke-linecap:round; stroke-linejoin:round; stroke-width:4; stroke-opacity:1; fill:none" points="884.066,1423.18 884.066,1404.28 "/>
<polyline clip-path="url(#clip560)" style="stroke:#000000; stroke-linecap:round; stroke-linejoin:round; stroke-width:4; stroke-opacity:1; fill:none" points="1298.53,1423.18 1298.53,1404.28 "/>
<polyline clip-path="url(#clip560)" style="stroke:#000000; stroke-linecap:round; stroke-linejoin:round; stroke-width:4; stroke-opacity:1; fill:none" points="1713,1423.18 1713,1404.28 "/>
<polyline clip-path="url(#clip560)" style="stroke:#000000; stroke-linecap:round; stroke-linejoin:round; stroke-width:4; stroke-opacity:1; fill:none" points="2127.47,1423.18 2127.47,1404.28 "/>
<path clip-path="url(#clip560)" d="M429.204 1481.64 L436.843 1481.64 L436.843 1455.28 L428.533 1456.95 L428.533 1452.69 L436.796 1451.02 L441.472 1451.02 L441.472 1481.64 L449.111 1481.64 L449.111 1485.58 L429.204 1485.58 L429.204 1481.64 Z" fill="#000000" fill-rule="nonzero" fill-opacity="1" /><path clip-path="url(#clip560)" d="M469.134 1466.44 Q465.986 1466.44 464.134 1468.59 Q462.305 1470.74 462.305 1474.49 Q462.305 1478.22 464.134 1480.39 Q465.986 1482.55 469.134 1482.55 Q472.282 1482.55 474.111 1480.39 Q475.963 1478.22 475.963 1474.49 Q475.963 1470.74 474.111 1468.59 Q472.282 1466.44 469.134 1466.44 M478.416 1451.78 L478.416 1456.04 Q476.657 1455.21 474.852 1454.77 Q473.069 1454.33 471.31 1454.33 Q466.68 1454.33 464.227 1457.45 Q461.796 1460.58 461.449 1466.9 Q462.815 1464.89 464.875 1463.82 Q466.935 1462.73 469.412 1462.73 Q474.62 1462.73 477.629 1465.9 Q480.662 1469.05 480.662 1474.49 Q480.662 1479.82 477.514 1483.03 Q474.366 1486.25 469.134 1486.25 Q463.139 1486.25 459.968 1481.67 Q456.796 1477.06 456.796 1468.33 Q456.796 1460.14 460.685 1455.28 Q464.574 1450.39 471.125 1450.39 Q472.884 1450.39 474.667 1450.74 Q476.472 1451.09 478.416 1451.78 Z" fill="#000000" fill-rule="nonzero" fill-opacity="1" /><path clip-path="url(#clip560)" d="M498.717 1454.1 Q495.106 1454.1 493.278 1457.66 Q491.472 1461.2 491.472 1468.33 Q491.472 1475.44 493.278 1479.01 Q495.106 1482.55 498.717 1482.55 Q502.352 1482.55 504.157 1479.01 Q505.986 1475.44 505.986 1468.33 Q505.986 1461.2 504.157 1457.66 Q502.352 1454.1 498.717 1454.1 M498.717 1450.39 Q504.527 1450.39 507.583 1455 Q510.662 1459.58 510.662 1468.33 Q510.662 1477.06 507.583 1481.67 Q504.527 1486.25 498.717 1486.25 Q492.907 1486.25 489.828 1481.67 Q486.773 1477.06 486.773 1468.33 Q486.773 1459.58 489.828 1455 Q492.907 1450.39 498.717 1450.39 Z" fill="#000000" fill-rule="nonzero" fill-opacity="1" /><path clip-path="url(#clip560)" d="M843.672 1481.64 L851.311 1481.64 L851.311 1455.28 L843.001 1456.95 L843.001 1452.69 L851.265 1451.02 L855.941 1451.02 L855.941 1481.64 L863.58 1481.64 L863.58 1485.58 L843.672 1485.58 L843.672 1481.64 Z" fill="#000000" fill-rule="nonzero" fill-opacity="1" /><path clip-path="url(#clip560)" d="M883.024 1469.17 Q879.691 1469.17 877.769 1470.95 Q875.871 1472.73 875.871 1475.86 Q875.871 1478.98 877.769 1480.77 Q879.691 1482.55 883.024 1482.55 Q886.357 1482.55 888.279 1480.77 Q890.2 1478.96 890.2 1475.86 Q890.2 1472.73 888.279 1470.95 Q886.381 1469.17 883.024 1469.17 M878.348 1467.18 Q875.339 1466.44 873.649 1464.38 Q871.982 1462.32 871.982 1459.35 Q871.982 1455.21 874.922 1452.8 Q877.885 1450.39 883.024 1450.39 Q888.186 1450.39 891.126 1452.8 Q894.066 1455.21 894.066 1459.35 Q894.066 1462.32 892.376 1464.38 Q890.709 1466.44 887.723 1467.18 Q891.103 1467.96 892.978 1470.26 Q894.876 1472.55 894.876 1475.86 Q894.876 1480.88 891.797 1483.57 Q888.742 1486.25 883.024 1486.25 Q877.306 1486.25 874.228 1483.57 Q871.172 1480.88 871.172 1475.86 Q871.172 1472.55 873.07 1470.26 Q874.969 1467.96 878.348 1467.18 M876.635 1459.79 Q876.635 1462.48 878.302 1463.98 Q879.992 1465.49 883.024 1465.49 Q886.033 1465.49 887.723 1463.98 Q889.436 1462.48 889.436 1459.79 Q889.436 1457.11 887.723 1455.6 Q886.033 1454.1 883.024 1454.1 Q879.992 1454.1 878.302 1455.6 Q876.635 1457.11 876.635 1459.79 Z" fill="#000000" fill-rule="nonzero" fill-opacity="1" /><path clip-path="url(#clip560)" d="M913.186 1454.1 Q909.575 1454.1 907.746 1457.66 Q905.941 1461.2 905.941 1468.33 Q905.941 1475.44 907.746 1479.01 Q909.575 1482.55 913.186 1482.55 Q916.82 1482.55 918.626 1479.01 Q920.454 1475.44 920.454 1468.33 Q920.454 1461.2 918.626 1457.66 Q916.82 1454.1 913.186 1454.1 M913.186 1450.39 Q918.996 1450.39 922.052 1455 Q925.13 1459.58 925.13 1468.33 Q925.13 1477.06 922.052 1481.67 Q918.996 1486.25 913.186 1486.25 Q907.376 1486.25 904.297 1481.67 Q901.242 1477.06 901.242 1468.33 Q901.242 1459.58 904.297 1455 Q907.376 1450.39 913.186 1450.39 Z" fill="#000000" fill-rule="nonzero" fill-opacity="1" /><path clip-path="url(#clip560)" d="M1262.23 1481.64 L1278.55 1481.64 L1278.55 1485.58 L1256.6 1485.58 L1256.6 1481.64 Q1259.26 1478.89 1263.85 1474.26 Q1268.45 1469.61 1269.63 1468.27 Q1271.88 1465.74 1272.76 1464.01 Q1273.66 1462.25 1273.66 1460.56 Q1273.66 1457.8 1271.72 1456.07 Q1269.8 1454.33 1266.69 1454.33 Q1264.5 1454.33 1262.04 1455.09 Q1259.61 1455.86 1256.83 1457.41 L1256.83 1452.69 Q1259.66 1451.55 1262.11 1450.97 Q1264.56 1450.39 1266.6 1450.39 Q1271.97 1450.39 1275.17 1453.08 Q1278.36 1455.77 1278.36 1460.26 Q1278.36 1462.39 1277.55 1464.31 Q1276.76 1466.2 1274.66 1468.8 Q1274.08 1469.47 1270.98 1472.69 Q1267.87 1475.88 1262.23 1481.64 Z" fill="#000000" fill-rule="nonzero" fill-opacity="1" /><path clip-path="url(#clip560)" d="M1298.36 1454.1 Q1294.75 1454.1 1292.92 1457.66 Q1291.12 1461.2 1291.12 1468.33 Q1291.12 1475.44 1292.92 1479.01 Q1294.75 1482.55 1298.36 1482.55 Q1301.99 1482.55 1303.8 1479.01 Q1305.63 1475.44 1305.63 1468.33 Q1305.63 1461.2 1303.8 1457.66 Q1301.99 1454.1 1298.36 1454.1 M1298.36 1450.39 Q1304.17 1450.39 1307.23 1455 Q1310.31 1459.58 1310.31 1468.33 Q1310.31 1477.06 1307.23 1481.67 Q1304.17 1486.25 1298.36 1486.25 Q1292.55 1486.25 1289.47 1481.67 Q1286.42 1477.06 1286.42 1468.33 Q1286.42 1459.58 1289.47 1455 Q1292.55 1450.39 1298.36 1450.39 Z" fill="#000000" fill-rule="nonzero" fill-opacity="1" /><path clip-path="url(#clip560)" d="M1328.52 1454.1 Q1324.91 1454.1 1323.08 1457.66 Q1321.28 1461.2 1321.28 1468.33 Q1321.28 1475.44 1323.08 1479.01 Q1324.91 1482.55 1328.52 1482.55 Q1332.16 1482.55 1333.96 1479.01 Q1335.79 1475.44 1335.79 1468.33 Q1335.79 1461.2 1333.96 1457.66 Q1332.16 1454.1 1328.52 1454.1 M1328.52 1450.39 Q1334.33 1450.39 1337.39 1455 Q1340.47 1459.58 1340.47 1468.33 Q1340.47 1477.06 1337.39 1481.67 Q1334.33 1486.25 1328.52 1486.25 Q1322.71 1486.25 1319.63 1481.67 Q1316.58 1477.06 1316.58 1468.33 Q1316.58 1459.58 1319.63 1455 Q1322.71 1450.39 1328.52 1450.39 Z" fill="#000000" fill-rule="nonzero" fill-opacity="1" /><path clip-path="url(#clip560)" d="M1676.7 1481.64 L1693.01 1481.64 L1693.01 1485.58 L1671.07 1485.58 L1671.07 1481.64 Q1673.73 1478.89 1678.32 1474.26 Q1682.92 1469.61 1684.1 1468.27 Q1686.35 1465.74 1687.23 1464.01 Q1688.13 1462.25 1688.13 1460.56 Q1688.13 1457.8 1686.19 1456.07 Q1684.26 1454.33 1681.16 1454.33 Q1678.96 1454.33 1676.51 1455.09 Q1674.08 1455.86 1671.3 1457.41 L1671.3 1452.69 Q1674.13 1451.55 1676.58 1450.97 Q1679.03 1450.39 1681.07 1450.39 Q1686.44 1450.39 1689.63 1453.08 Q1692.83 1455.77 1692.83 1460.26 Q1692.83 1462.39 1692.02 1464.31 Q1691.23 1466.2 1689.13 1468.8 Q1688.55 1469.47 1685.45 1472.69 Q1682.34 1475.88 1676.7 1481.64 Z" fill="#000000" fill-rule="nonzero" fill-opacity="1" /><path clip-path="url(#clip560)" d="M1706.86 1481.64 L1723.18 1481.64 L1723.18 1485.58 L1701.23 1485.58 L1701.23 1481.64 Q1703.89 1478.89 1708.48 1474.26 Q1713.08 1469.61 1714.26 1468.27 Q1716.51 1465.74 1717.39 1464.01 Q1718.29 1462.25 1718.29 1460.56 Q1718.29 1457.8 1716.35 1456.07 Q1714.43 1454.33 1711.32 1454.33 Q1709.13 1454.33 1706.67 1455.09 Q1704.24 1455.86 1701.46 1457.41 L1701.46 1452.69 Q1704.29 1451.55 1706.74 1450.97 Q1709.2 1450.39 1711.23 1450.39 Q1716.6 1450.39 1719.8 1453.08 Q1722.99 1455.77 1722.99 1460.26 Q1722.99 1462.39 1722.18 1464.31 Q1721.39 1466.2 1719.29 1468.8 Q1718.71 1469.47 1715.61 1472.69 Q1712.51 1475.88 1706.86 1481.64 Z" fill="#000000" fill-rule="nonzero" fill-opacity="1" /><path clip-path="url(#clip560)" d="M1742.99 1454.1 Q1739.38 1454.1 1737.55 1457.66 Q1735.75 1461.2 1735.75 1468.33 Q1735.75 1475.44 1737.55 1479.01 Q1739.38 1482.55 1742.99 1482.55 Q1746.63 1482.55 1748.43 1479.01 Q1750.26 1475.44 1750.26 1468.33 Q1750.26 1461.2 1748.43 1457.66 Q1746.63 1454.1 1742.99 1454.1 M1742.99 1450.39 Q1748.8 1450.39 1751.86 1455 Q1754.94 1459.58 1754.94 1468.33 Q1754.94 1477.06 1751.86 1481.67 Q1748.8 1486.25 1742.99 1486.25 Q1737.18 1486.25 1734.1 1481.67 Q1731.05 1477.06 1731.05 1468.33 Q1731.05 1459.58 1734.1 1455 Q1737.18 1450.39 1742.99 1450.39 Z" fill="#000000" fill-rule="nonzero" fill-opacity="1" /><path clip-path="url(#clip560)" d="M2091.16 1481.64 L2107.48 1481.64 L2107.48 1485.58 L2085.54 1485.58 L2085.54 1481.64 Q2088.2 1478.89 2092.78 1474.26 Q2097.39 1469.61 2098.57 1468.27 Q2100.82 1465.74 2101.7 1464.01 Q2102.6 1462.25 2102.6 1460.56 Q2102.6 1457.8 2100.65 1456.07 Q2098.73 1454.33 2095.63 1454.33 Q2093.43 1454.33 2090.98 1455.09 Q2088.55 1455.86 2085.77 1457.41 L2085.77 1452.69 Q2088.59 1451.55 2091.05 1450.97 Q2093.5 1450.39 2095.54 1450.39 Q2100.91 1450.39 2104.1 1453.08 Q2107.3 1455.77 2107.3 1460.26 Q2107.3 1462.39 2106.49 1464.31 Q2105.7 1466.2 2103.59 1468.8 Q2103.02 1469.47 2099.91 1472.69 Q2096.81 1475.88 2091.16 1481.64 Z" fill="#000000" fill-rule="nonzero" fill-opacity="1" /><path clip-path="url(#clip560)" d="M2130.15 1455.09 L2118.34 1473.54 L2130.15 1473.54 L2130.15 1455.09 M2128.92 1451.02 L2134.8 1451.02 L2134.8 1473.54 L2139.73 1473.54 L2139.73 1477.43 L2134.8 1477.43 L2134.8 1485.58 L2130.15 1485.58 L2130.15 1477.43 L2114.54 1477.43 L2114.54 1472.92 L2128.92 1451.02 Z" fill="#000000" fill-rule="nonzero" fill-opacity="1" /><path clip-path="url(#clip560)" d="M2157.46 1454.1 Q2153.85 1454.1 2152.02 1457.66 Q2150.21 1461.2 2150.21 1468.33 Q2150.21 1475.44 2152.02 1479.01 Q2153.85 1482.55 2157.46 1482.55 Q2161.09 1482.55 2162.9 1479.01 Q2164.73 1475.44 2164.73 1468.33 Q2164.73 1461.2 2162.9 1457.66 Q2161.09 1454.1 2157.46 1454.1 M2157.46 1450.39 Q2163.27 1450.39 2166.33 1455 Q2169.4 1459.58 2169.4 1468.33 Q2169.4 1477.06 2166.33 1481.67 Q2163.27 1486.25 2157.46 1486.25 Q2151.65 1486.25 2148.57 1481.67 Q2145.52 1477.06 2145.52 1468.33 Q2145.52 1459.58 2148.57 1455 Q2151.65 1450.39 2157.46 1450.39 Z" fill="#000000" fill-rule="nonzero" fill-opacity="1" /><path clip-path="url(#clip560)" d="M1121.1 1525.81 L1121.1 1562.76 L1128.86 1562.76 Q1138.7 1562.76 1143.25 1558.3 Q1147.83 1553.85 1147.83 1544.24 Q1147.83 1534.69 1143.25 1530.26 Q1138.7 1525.81 1128.86 1525.81 L1121.1 1525.81 M1114.67 1520.52 L1127.88 1520.52 Q1141.69 1520.52 1148.15 1526.28 Q1154.61 1532.01 1154.61 1544.24 Q1154.61 1556.52 1148.12 1562.28 Q1141.63 1568.04 1127.88 1568.04 L1114.67 1568.04 L1114.67 1520.52 Z" fill="#000000" fill-rule="nonzero" fill-opacity="1" /><path clip-path="url(#clip560)" d="M1195.1 1548.76 L1195.1 1551.62 L1168.17 1551.62 Q1168.55 1557.67 1171.8 1560.85 Q1175.08 1564 1180.9 1564 Q1184.28 1564 1187.43 1563.17 Q1190.61 1562.35 1193.73 1560.69 L1193.73 1566.23 Q1190.58 1567.57 1187.27 1568.27 Q1183.96 1568.97 1180.55 1568.97 Q1172.02 1568.97 1167.03 1564 Q1162.06 1559.04 1162.06 1550.57 Q1162.06 1541.82 1166.77 1536.69 Q1171.51 1531.54 1179.54 1531.54 Q1186.73 1531.54 1190.9 1536.18 Q1195.1 1540.8 1195.1 1548.76 M1189.24 1547.04 Q1189.18 1542.23 1186.54 1539.37 Q1183.93 1536.5 1179.6 1536.5 Q1174.7 1536.5 1171.74 1539.27 Q1168.81 1542.04 1168.36 1547.07 L1189.24 1547.04 Z" fill="#000000" fill-rule="nonzero" fill-opacity="1" /><path clip-path="url(#clip560)" d="M1232.47 1539.24 Q1234.66 1535.29 1237.72 1533.41 Q1240.77 1531.54 1244.91 1531.54 Q1250.48 1531.54 1253.51 1535.45 Q1256.53 1539.33 1256.53 1546.53 L1256.53 1568.04 L1250.64 1568.04 L1250.64 1546.72 Q1250.64 1541.59 1248.83 1539.11 Q1247.01 1536.63 1243.29 1536.63 Q1238.74 1536.63 1236.09 1539.65 Q1233.45 1542.68 1233.45 1547.9 L1233.45 1568.04 L1227.56 1568.04 L1227.56 1546.72 Q1227.56 1541.56 1225.75 1539.11 Q1223.94 1536.63 1220.15 1536.63 Q1215.66 1536.63 1213.02 1539.68 Q1210.38 1542.71 1210.38 1547.9 L1210.38 1568.04 L1204.49 1568.04 L1204.49 1532.4 L1210.38 1532.4 L1210.38 1537.93 Q1212.38 1534.66 1215.18 1533.1 Q1217.98 1531.54 1221.84 1531.54 Q1225.72 1531.54 1228.42 1533.51 Q1231.16 1535.48 1232.47 1539.24 Z" fill="#000000" fill-rule="nonzero" fill-opacity="1" /><path clip-path="url(#clip560)" d="M1284.41 1550.12 Q1277.31 1550.12 1274.58 1551.75 Q1271.84 1553.37 1271.84 1557.29 Q1271.84 1560.4 1273.88 1562.25 Q1275.94 1564.07 1279.48 1564.07 Q1284.35 1564.07 1287.28 1560.63 Q1290.24 1557.16 1290.24 1551.43 L1290.24 1550.12 L1284.41 1550.12 M1296.09 1547.71 L1296.09 1568.04 L1290.24 1568.04 L1290.24 1562.63 Q1288.23 1565.88 1285.24 1567.44 Q1282.25 1568.97 1277.92 1568.97 Q1272.44 1568.97 1269.2 1565.91 Q1265.98 1562.82 1265.98 1557.67 Q1265.98 1551.65 1269.99 1548.6 Q1274.03 1545.54 1282.02 1545.54 L1290.24 1545.54 L1290.24 1544.97 Q1290.24 1540.93 1287.56 1538.73 Q1284.92 1536.5 1280.11 1536.5 Q1277.06 1536.5 1274.16 1537.23 Q1271.27 1537.97 1268.59 1539.43 L1268.59 1534.02 Q1271.81 1532.78 1274.83 1532.17 Q1277.85 1531.54 1280.72 1531.54 Q1288.45 1531.54 1292.27 1535.55 Q1296.09 1539.56 1296.09 1547.71 Z" fill="#000000" fill-rule="nonzero" fill-opacity="1" /><path clip-path="url(#clip560)" d="M1337.79 1546.53 L1337.79 1568.04 L1331.93 1568.04 L1331.93 1546.72 Q1331.93 1541.66 1329.96 1539.14 Q1327.98 1536.63 1324.04 1536.63 Q1319.29 1536.63 1316.56 1539.65 Q1313.82 1542.68 1313.82 1547.9 L1313.82 1568.04 L1307.93 1568.04 L1307.93 1532.4 L1313.82 1532.4 L1313.82 1537.93 Q1315.92 1534.72 1318.75 1533.13 Q1321.62 1531.54 1325.34 1531.54 Q1331.49 1531.54 1334.64 1535.36 Q1337.79 1539.14 1337.79 1546.53 Z" fill="#000000" fill-rule="nonzero" fill-opacity="1" /><path clip-path="url(#clip560)" d="M1372.93 1537.81 L1372.93 1518.52 L1378.78 1518.52 L1378.78 1568.04 L1372.93 1568.04 L1372.93 1562.7 Q1371.08 1565.88 1368.25 1567.44 Q1365.45 1568.97 1361.5 1568.97 Q1355.04 1568.97 1350.96 1563.81 Q1346.92 1558.65 1346.92 1550.25 Q1346.92 1541.85 1350.96 1536.69 Q1355.04 1531.54 1361.5 1531.54 Q1365.45 1531.54 1368.25 1533.1 Q1371.08 1534.62 1372.93 1537.81 M1352.97 1550.25 Q1352.97 1556.71 1355.61 1560.4 Q1358.28 1564.07 1362.93 1564.07 Q1367.58 1564.07 1370.25 1560.4 Q1372.93 1556.71 1372.93 1550.25 Q1372.93 1543.79 1370.25 1540.13 Q1367.58 1536.44 1362.93 1536.44 Q1358.28 1536.44 1355.61 1540.13 Q1352.97 1543.79 1352.97 1550.25 Z" fill="#000000" fill-rule="nonzero" fill-opacity="1" /><polyline clip-path="url(#clip562)" style="stroke:#000000; stroke-linecap:round; stroke-linejoin:round; stroke-width:2; stroke-opacity:0.1; fill:none" points="140.696,1423.18 2352.76,1423.18 "/>
<polyline clip-path="url(#clip562)" style="stroke:#000000; stroke-linecap:round; stroke-linejoin:round; stroke-width:2; stroke-opacity:0.1; fill:none" points="140.696,1079.2 2352.76,1079.2 "/>
<polyline clip-path="url(#clip562)" style="stroke:#000000; stroke-linecap:round; stroke-linejoin:round; stroke-width:2; stroke-opacity:0.1; fill:none" points="140.696,735.212 2352.76,735.212 "/>
<polyline clip-path="url(#clip562)" style="stroke:#000000; stroke-linecap:round; stroke-linejoin:round; stroke-width:2; stroke-opacity:0.1; fill:none" points="140.696,391.228 2352.76,391.228 "/>
<polyline clip-path="url(#clip562)" style="stroke:#000000; stroke-linecap:round; stroke-linejoin:round; stroke-width:2; stroke-opacity:0.1; fill:none" points="140.696,47.2441 2352.76,47.2441 "/>
<polyline clip-path="url(#clip560)" style="stroke:#000000; stroke-linecap:round; stroke-linejoin:round; stroke-width:4; stroke-opacity:1; fill:none" points="140.696,1423.18 140.696,47.2441 "/>
<polyline clip-path="url(#clip560)" style="stroke:#000000; stroke-linecap:round; stroke-linejoin:round; stroke-width:4; stroke-opacity:1; fill:none" points="140.696,1423.18 159.593,1423.18 "/>
<polyline clip-path="url(#clip560)" style="stroke:#000000; stroke-linecap:round; stroke-linejoin:round; stroke-width:4; stroke-opacity:1; fill:none" points="140.696,1079.2 159.593,1079.2 "/>
<polyline clip-path="url(#clip560)" style="stroke:#000000; stroke-linecap:round; stroke-linejoin:round; stroke-width:4; stroke-opacity:1; fill:none" points="140.696,735.212 159.593,735.212 "/>
<polyline clip-path="url(#clip560)" style="stroke:#000000; stroke-linecap:round; stroke-linejoin:round; stroke-width:4; stroke-opacity:1; fill:none" points="140.696,391.228 159.593,391.228 "/>
<polyline clip-path="url(#clip560)" style="stroke:#000000; stroke-linecap:round; stroke-linejoin:round; stroke-width:4; stroke-opacity:1; fill:none" points="140.696,47.2441 159.593,47.2441 "/>
<path clip-path="url(#clip560)" d="M92.7512 1408.98 Q89.1401 1408.98 87.3114 1412.54 Q85.5058 1416.08 85.5058 1423.21 Q85.5058 1430.32 87.3114 1433.89 Q89.1401 1437.43 92.7512 1437.43 Q96.3854 1437.43 98.1909 1433.89 Q100.02 1430.32 100.02 1423.21 Q100.02 1416.08 98.1909 1412.54 Q96.3854 1408.98 92.7512 1408.98 M92.7512 1405.27 Q98.5613 1405.27 101.617 1409.88 Q104.696 1414.46 104.696 1423.21 Q104.696 1431.94 101.617 1436.55 Q98.5613 1441.13 92.7512 1441.13 Q86.941 1441.13 83.8623 1436.55 Q80.8068 1431.94 80.8068 1423.21 Q80.8068 1414.46 83.8623 1409.88 Q86.941 1405.27 92.7512 1405.27 Z" fill="#000000" fill-rule="nonzero" fill-opacity="1" /><path clip-path="url(#clip560)" d="M83.7929 1061.92 L102.149 1061.92 L102.149 1065.85 L88.0753 1065.85 L88.0753 1074.32 Q89.0938 1073.98 90.1123 1073.81 Q91.1308 1073.63 92.1493 1073.63 Q97.9363 1073.63 101.316 1076.8 Q104.696 1079.97 104.696 1085.39 Q104.696 1090.97 101.223 1094.07 Q97.7511 1097.15 91.4317 1097.15 Q89.2558 1097.15 86.9873 1096.78 Q84.7419 1096.41 82.3346 1095.67 L82.3346 1090.97 Q84.4179 1092.1 86.6401 1092.66 Q88.8623 1093.21 91.3391 1093.21 Q95.3437 1093.21 97.6817 1091.11 Q100.02 1089 100.02 1085.39 Q100.02 1081.78 97.6817 1079.67 Q95.3437 1077.56 91.3391 1077.56 Q89.4641 1077.56 87.5892 1077.98 Q85.7373 1078.4 83.7929 1079.28 L83.7929 1061.92 Z" fill="#000000" fill-rule="nonzero" fill-opacity="1" /><path clip-path="url(#clip560)" d="M53.3995 748.557 L61.0384 748.557 L61.0384 722.191 L52.7282 723.858 L52.7282 719.599 L60.9921 717.932 L65.668 717.932 L65.668 748.557 L73.3068 748.557 L73.3068 752.492 L53.3995 752.492 L53.3995 748.557 Z" fill="#000000" fill-rule="nonzero" fill-opacity="1" /><path clip-path="url(#clip560)" d="M92.7512 721.011 Q89.1401 721.011 87.3114 724.575 Q85.5058 728.117 85.5058 735.247 Q85.5058 742.353 87.3114 745.918 Q89.1401 749.46 92.7512 749.46 Q96.3854 749.46 98.1909 745.918 Q100.02 742.353 100.02 735.247 Q100.02 728.117 98.1909 724.575 Q96.3854 721.011 92.7512 721.011 M92.7512 717.307 Q98.5613 717.307 101.617 721.913 Q104.696 726.497 104.696 735.247 Q104.696 743.973 101.617 748.58 Q98.5613 753.163 92.7512 753.163 Q86.941 753.163 83.8623 748.58 Q80.8068 743.973 80.8068 735.247 Q80.8068 726.497 83.8623 721.913 Q86.941 717.307 92.7512 717.307 Z" fill="#000000" fill-rule="nonzero" fill-opacity="1" /><path clip-path="url(#clip560)" d="M54.3949 404.573 L62.0337 404.573 L62.0337 378.207 L53.7236 379.874 L53.7236 375.615 L61.9874 373.948 L66.6633 373.948 L66.6633 404.573 L74.3022 404.573 L74.3022 408.508 L54.3949 408.508 L54.3949 404.573 Z" fill="#000000" fill-rule="nonzero" fill-opacity="1" /><path clip-path="url(#clip560)" d="M83.7929 373.948 L102.149 373.948 L102.149 377.883 L88.0753 377.883 L88.0753 386.355 Q89.0938 386.008 90.1123 385.846 Q91.1308 385.661 92.1493 385.661 Q97.9363 385.661 101.316 388.832 Q104.696 392.003 104.696 397.42 Q104.696 402.999 101.223 406.101 Q97.7511 409.179 91.4317 409.179 Q89.2558 409.179 86.9873 408.809 Q84.7419 408.439 82.3346 407.698 L82.3346 402.999 Q84.4179 404.133 86.6401 404.689 Q88.8623 405.244 91.3391 405.244 Q95.3437 405.244 97.6817 403.138 Q100.02 401.031 100.02 397.42 Q100.02 393.809 97.6817 391.703 Q95.3437 389.596 91.3391 389.596 Q89.4641 389.596 87.5892 390.013 Q85.7373 390.429 83.7929 391.309 L83.7929 373.948 Z" fill="#000000" fill-rule="nonzero" fill-opacity="1" /><path clip-path="url(#clip560)" d="M56.6171 60.5889 L72.9365 60.5889 L72.9365 64.5241 L50.9921 64.5241 L50.9921 60.5889 Q53.6541 57.8343 58.2375 53.2047 Q62.8439 48.552 64.0245 47.2094 Q66.2698 44.6862 67.1494 42.9501 Q68.0522 41.1909 68.0522 39.5011 Q68.0522 36.7465 66.1078 35.0104 Q64.1865 33.2743 61.0847 33.2743 Q58.8856 33.2743 56.4319 34.0381 Q54.0014 34.802 51.2236 36.3529 L51.2236 31.6308 Q54.0477 30.4965 56.5014 29.9178 Q58.955 29.3391 60.9921 29.3391 Q66.3624 29.3391 69.5568 32.0243 Q72.7513 34.7094 72.7513 39.2002 Q72.7513 41.3298 71.9411 43.2511 Q71.1541 45.1492 69.0476 47.7418 Q68.4689 48.4131 65.367 51.6306 Q62.2652 54.8251 56.6171 60.5889 Z" fill="#000000" fill-rule="nonzero" fill-opacity="1" /><path clip-path="url(#clip560)" d="M92.7512 33.0428 Q89.1401 33.0428 87.3114 36.6076 Q85.5058 40.1492 85.5058 47.2788 Q85.5058 54.3853 87.3114 57.9501 Q89.1401 61.4917 92.7512 61.4917 Q96.3854 61.4917 98.1909 57.9501 Q100.02 54.3853 100.02 47.2788 Q100.02 40.1492 98.1909 36.6076 Q96.3854 33.0428 92.7512 33.0428 M92.7512 29.3391 Q98.5613 29.3391 101.617 33.9456 Q104.696 38.5289 104.696 47.2788 Q104.696 56.0056 101.617 60.6121 Q98.5613 65.1954 92.7512 65.1954 Q86.941 65.1954 83.8623 60.6121 Q80.8068 56.0056 80.8068 47.2788 Q80.8068 38.5289 83.8623 33.9456 Q86.941 29.3391 92.7512 29.3391 Z" fill="#000000" fill-rule="nonzero" fill-opacity="1" /><path clip-path="url(#clip562)" d="M262.363 1354.38 L262.363 1423.18 L365.98 1423.18 L365.98 1354.38 L262.363 1354.38 L262.363 1354.38  Z" fill="#009af9" fill-rule="evenodd" fill-opacity="1"/>
<polyline clip-path="url(#clip562)" style="stroke:#000000; stroke-linecap:round; stroke-linejoin:round; stroke-width:4; stroke-opacity:1; fill:none" points="262.363,1354.38 262.363,1423.18 365.98,1423.18 365.98,1354.38 262.363,1354.38 "/>
<path clip-path="url(#clip562)" d="M365.98 1423.18 L365.98 1423.18 L469.597 1423.18 L469.597 1423.18 L365.98 1423.18 L365.98 1423.18  Z" fill="#009af9" fill-rule="evenodd" fill-opacity="1"/>
<polyline clip-path="url(#clip562)" style="stroke:#000000; stroke-linecap:round; stroke-linejoin:round; stroke-width:4; stroke-opacity:1; fill:none" points="365.98,1423.18 365.98,1423.18 469.597,1423.18 365.98,1423.18 "/>
<path clip-path="url(#clip562)" d="M469.597 1423.18 L469.597 1423.18 L573.214 1423.18 L573.214 1423.18 L469.597 1423.18 L469.597 1423.18  Z" fill="#009af9" fill-rule="evenodd" fill-opacity="1"/>
<polyline clip-path="url(#clip562)" style="stroke:#000000; stroke-linecap:round; stroke-linejoin:round; stroke-width:4; stroke-opacity:1; fill:none" points="469.597,1423.18 469.597,1423.18 573.214,1423.18 469.597,1423.18 "/>
<path clip-path="url(#clip562)" d="M573.214 1079.2 L573.214 1423.18 L676.831 1423.18 L676.831 1079.2 L573.214 1079.2 L573.214 1079.2  Z" fill="#009af9" fill-rule="evenodd" fill-opacity="1"/>
<polyline clip-path="url(#clip562)" style="stroke:#000000; stroke-linecap:round; stroke-linejoin:round; stroke-width:4; stroke-opacity:1; fill:none" points="573.214,1079.2 573.214,1423.18 676.831,1423.18 676.831,1079.2 573.214,1079.2 "/>
<path clip-path="url(#clip562)" d="M676.831 1216.79 L676.831 1423.18 L780.449 1423.18 L780.449 1216.79 L676.831 1216.79 L676.831 1216.79  Z" fill="#009af9" fill-rule="evenodd" fill-opacity="1"/>
<polyline clip-path="url(#clip562)" style="stroke:#000000; stroke-linecap:round; stroke-linejoin:round; stroke-width:4; stroke-opacity:1; fill:none" points="676.831,1216.79 676.831,1423.18 780.449,1423.18 780.449,1216.79 676.831,1216.79 "/>
<path clip-path="url(#clip562)" d="M780.449 1147.99 L780.449 1423.18 L884.066 1423.18 L884.066 1147.99 L780.449 1147.99 L780.449 1147.99  Z" fill="#009af9" fill-rule="evenodd" fill-opacity="1"/>
<polyline clip-path="url(#clip562)" style="stroke:#000000; stroke-linecap:round; stroke-linejoin:round; stroke-width:4; stroke-opacity:1; fill:none" points="780.449,1147.99 780.449,1423.18 884.066,1423.18 884.066,1147.99 780.449,1147.99 "/>
<path clip-path="url(#clip562)" d="M884.066 1216.79 L884.066 1423.18 L987.683 1423.18 L987.683 1216.79 L884.066 1216.79 L884.066 1216.79  Z" fill="#009af9" fill-rule="evenodd" fill-opacity="1"/>
<polyline clip-path="url(#clip562)" style="stroke:#000000; stroke-linecap:round; stroke-linejoin:round; stroke-width:4; stroke-opacity:1; fill:none" points="884.066,1216.79 884.066,1423.18 987.683,1423.18 987.683,1216.79 884.066,1216.79 "/>
<path clip-path="url(#clip562)" d="M987.683 804.009 L987.683 1423.18 L1091.3 1423.18 L1091.3 804.009 L987.683 804.009 L987.683 804.009  Z" fill="#009af9" fill-rule="evenodd" fill-opacity="1"/>
<polyline clip-path="url(#clip562)" style="stroke:#000000; stroke-linecap:round; stroke-linejoin:round; stroke-width:4; stroke-opacity:1; fill:none" points="987.683,804.009 987.683,1423.18 1091.3,1423.18 1091.3,804.009 987.683,804.009 "/>
<path clip-path="url(#clip562)" d="M1091.3 872.806 L1091.3 1423.18 L1194.92 1423.18 L1194.92 872.806 L1091.3 872.806 L1091.3 872.806  Z" fill="#009af9" fill-rule="evenodd" fill-opacity="1"/>
<polyline clip-path="url(#clip562)" style="stroke:#000000; stroke-linecap:round; stroke-linejoin:round; stroke-width:4; stroke-opacity:1; fill:none" points="1091.3,872.806 1091.3,1423.18 1194.92,1423.18 1194.92,872.806 1091.3,872.806 "/>
<path clip-path="url(#clip562)" d="M1194.92 47.2441 L1194.92 1423.18 L1298.53 1423.18 L1298.53 47.2441 L1194.92 47.2441 L1194.92 47.2441  Z" fill="#009af9" fill-rule="evenodd" fill-opacity="1"/>
<polyline clip-path="url(#clip562)" style="stroke:#000000; stroke-linecap:round; stroke-linejoin:round; stroke-width:4; stroke-opacity:1; fill:none" points="1194.92,47.2441 1194.92,1423.18 1298.53,1423.18 1298.53,47.2441 1194.92,47.2441 "/>
<path clip-path="url(#clip562)" d="M1298.53 804.009 L1298.53 1423.18 L1402.15 1423.18 L1402.15 804.009 L1298.53 804.009 L1298.53 804.009  Z" fill="#009af9" fill-rule="evenodd" fill-opacity="1"/>
<polyline clip-path="url(#clip562)" style="stroke:#000000; stroke-linecap:round; stroke-linejoin:round; stroke-width:4; stroke-opacity:1; fill:none" points="1298.53,804.009 1298.53,1423.18 1402.15,1423.18 1402.15,804.009 1298.53,804.009 "/>
<path clip-path="url(#clip562)" d="M1402.15 1079.2 L1402.15 1423.18 L1505.77 1423.18 L1505.77 1079.2 L1402.15 1079.2 L1402.15 1079.2  Z" fill="#009af9" fill-rule="evenodd" fill-opacity="1"/>
<polyline clip-path="url(#clip562)" style="stroke:#000000; stroke-linecap:round; stroke-linejoin:round; stroke-width:4; stroke-opacity:1; fill:none" points="1402.15,1079.2 1402.15,1423.18 1505.77,1423.18 1505.77,1079.2 1402.15,1079.2 "/>
<path clip-path="url(#clip562)" d="M1505.77 941.602 L1505.77 1423.18 L1609.39 1423.18 L1609.39 941.602 L1505.77 941.602 L1505.77 941.602  Z" fill="#009af9" fill-rule="evenodd" fill-opacity="1"/>
<polyline clip-path="url(#clip562)" style="stroke:#000000; stroke-linecap:round; stroke-linejoin:round; stroke-width:4; stroke-opacity:1; fill:none" points="1505.77,941.602 1505.77,1423.18 1609.39,1423.18 1609.39,941.602 1505.77,941.602 "/>
<path clip-path="url(#clip562)" d="M1609.39 1079.2 L1609.39 1423.18 L1713 1423.18 L1713 1079.2 L1609.39 1079.2 L1609.39 1079.2  Z" fill="#009af9" fill-rule="evenodd" fill-opacity="1"/>
<polyline clip-path="url(#clip562)" style="stroke:#000000; stroke-linecap:round; stroke-linejoin:round; stroke-width:4; stroke-opacity:1; fill:none" points="1609.39,1079.2 1609.39,1423.18 1713,1423.18 1713,1079.2 1609.39,1079.2 "/>
<path clip-path="url(#clip562)" d="M1713 941.602 L1713 1423.18 L1816.62 1423.18 L1816.62 941.602 L1713 941.602 L1713 941.602  Z" fill="#009af9" fill-rule="evenodd" fill-opacity="1"/>
<polyline clip-path="url(#clip562)" style="stroke:#000000; stroke-linecap:round; stroke-linejoin:round; stroke-width:4; stroke-opacity:1; fill:none" points="1713,941.602 1713,1423.18 1816.62,1423.18 1816.62,941.602 1713,941.602 "/>
<path clip-path="url(#clip562)" d="M1816.62 941.602 L1816.62 1423.18 L1920.24 1423.18 L1920.24 941.602 L1816.62 941.602 L1816.62 941.602  Z" fill="#009af9" fill-rule="evenodd" fill-opacity="1"/>
<polyline clip-path="url(#clip562)" style="stroke:#000000; stroke-linecap:round; stroke-linejoin:round; stroke-width:4; stroke-opacity:1; fill:none" points="1816.62,941.602 1816.62,1423.18 1920.24,1423.18 1920.24,941.602 1816.62,941.602 "/>
<path clip-path="url(#clip562)" d="M1920.24 1285.59 L1920.24 1423.18 L2023.85 1423.18 L2023.85 1285.59 L1920.24 1285.59 L1920.24 1285.59  Z" fill="#009af9" fill-rule="evenodd" fill-opacity="1"/>
<polyline clip-path="url(#clip562)" style="stroke:#000000; stroke-linecap:round; stroke-linejoin:round; stroke-width:4; stroke-opacity:1; fill:none" points="1920.24,1285.59 1920.24,1423.18 2023.85,1423.18 2023.85,1285.59 1920.24,1285.59 "/>
<path clip-path="url(#clip562)" d="M2023.85 1147.99 L2023.85 1423.18 L2127.47 1423.18 L2127.47 1147.99 L2023.85 1147.99 L2023.85 1147.99  Z" fill="#009af9" fill-rule="evenodd" fill-opacity="1"/>
<polyline clip-path="url(#clip562)" style="stroke:#000000; stroke-linecap:round; stroke-linejoin:round; stroke-width:4; stroke-opacity:1; fill:none" points="2023.85,1147.99 2023.85,1423.18 2127.47,1423.18 2127.47,1147.99 2023.85,1147.99 "/>
<path clip-path="url(#clip562)" d="M2127.47 1354.38 L2127.47 1423.18 L2231.09 1423.18 L2231.09 1354.38 L2127.47 1354.38 L2127.47 1354.38  Z" fill="#009af9" fill-rule="evenodd" fill-opacity="1"/>
<polyline clip-path="url(#clip562)" style="stroke:#000000; stroke-linecap:round; stroke-linejoin:round; stroke-width:4; stroke-opacity:1; fill:none" points="2127.47,1354.38 2127.47,1423.18 2231.09,1423.18 2231.09,1354.38 2127.47,1354.38 "/>
<circle clip-path="url(#clip562)" style="fill:#009af9; stroke:none; fill-opacity:0" cx="314.171" cy="1354.38" r="2"/>
<circle clip-path="url(#clip562)" style="fill:#009af9; stroke:none; fill-opacity:0" cx="417.789" cy="1423.18" r="2"/>
<circle clip-path="url(#clip562)" style="fill:#009af9; stroke:none; fill-opacity:0" cx="521.406" cy="1423.18" r="2"/>
<circle clip-path="url(#clip562)" style="fill:#009af9; stroke:none; fill-opacity:0" cx="625.023" cy="1079.2" r="2"/>
<circle clip-path="url(#clip562)" style="fill:#009af9; stroke:none; fill-opacity:0" cx="728.64" cy="1216.79" r="2"/>
<circle clip-path="url(#clip562)" style="fill:#009af9; stroke:none; fill-opacity:0" cx="832.257" cy="1147.99" r="2"/>
<circle clip-path="url(#clip562)" style="fill:#009af9; stroke:none; fill-opacity:0" cx="935.874" cy="1216.79" r="2"/>
<circle clip-path="url(#clip562)" style="fill:#009af9; stroke:none; fill-opacity:0" cx="1039.49" cy="804.009" r="2"/>
<circle clip-path="url(#clip562)" style="fill:#009af9; stroke:none; fill-opacity:0" cx="1143.11" cy="872.806" r="2"/>
<circle clip-path="url(#clip562)" style="fill:#009af9; stroke:none; fill-opacity:0" cx="1246.73" cy="47.2441" r="2"/>
<circle clip-path="url(#clip562)" style="fill:#009af9; stroke:none; fill-opacity:0" cx="1350.34" cy="804.009" r="2"/>
<circle clip-path="url(#clip562)" style="fill:#009af9; stroke:none; fill-opacity:0" cx="1453.96" cy="1079.2" r="2"/>
<circle clip-path="url(#clip562)" style="fill:#009af9; stroke:none; fill-opacity:0" cx="1557.58" cy="941.602" r="2"/>
<circle clip-path="url(#clip562)" style="fill:#009af9; stroke:none; fill-opacity:0" cx="1661.19" cy="1079.2" r="2"/>
<circle clip-path="url(#clip562)" style="fill:#009af9; stroke:none; fill-opacity:0" cx="1764.81" cy="941.602" r="2"/>
<circle clip-path="url(#clip562)" style="fill:#009af9; stroke:none; fill-opacity:0" cx="1868.43" cy="941.602" r="2"/>
<circle clip-path="url(#clip562)" style="fill:#009af9; stroke:none; fill-opacity:0" cx="1972.05" cy="1285.59" r="2"/>
<circle clip-path="url(#clip562)" style="fill:#009af9; stroke:none; fill-opacity:0" cx="2075.66" cy="1147.99" r="2"/>
<circle clip-path="url(#clip562)" style="fill:#009af9; stroke:none; fill-opacity:0" cx="2179.28" cy="1354.38" r="2"/>
</svg>
