<?xml version="1.0" encoding="utf-8"?>
<svg xmlns="http://www.w3.org/2000/svg" xmlns:xlink="http://www.w3.org/1999/xlink" width="600" height="400" viewBox="0 0 2400 1600">
<defs>
  <clipPath id="clip740">
    <rect x="0" y="0" width="2400" height="1600"/>
  </clipPath>
</defs>
<path clip-path="url(#clip740)" d="M0 1600 L2400 1600 L2400 0 L0 0  Z" fill="#ffffff" fill-rule="evenodd" fill-opacity="1"/>
<defs>
  <clipPath id="clip741">
    <rect x="480" y="0" width="1681" height="1600"/>
  </clipPath>
</defs>
<path clip-path="url(#clip740)" d="M141.853 1486.45 L2352.76 1486.45 L2352.76 47.2441 L141.853 47.2441  Z" fill="#ffffff" fill-rule="evenodd" fill-opacity="1"/>
<defs>
  <clipPath id="clip742">
    <rect x="141" y="47" width="2212" height="1440"/>
  </clipPath>
</defs>
<polyline clip-path="url(#clip742)" style="stroke:#000000; stroke-linecap:round; stroke-linejoin:round; stroke-width:2; stroke-opacity:0.1; fill:none" points="427.431,1486.45 427.431,47.2441 "/>
<polyline clip-path="url(#clip742)" style="stroke:#000000; stroke-linecap:round; stroke-linejoin:round; stroke-width:2; stroke-opacity:0.1; fill:none" points="755.38,1486.45 755.38,47.2441 "/>
<polyline clip-path="url(#clip742)" style="stroke:#000000; stroke-linecap:round; stroke-linejoin:round; stroke-width:2; stroke-opacity:0.1; fill:none" points="1083.33,1486.45 1083.33,47.2441 "/>
<polyline clip-path="url(#clip742)" style="stroke:#000000; stroke-linecap:round; stroke-linejoin:round; stroke-width:2; stroke-opacity:0.1; fill:none" points="1411.28,1486.45 1411.28,47.2441 "/>
<polyline clip-path="url(#clip742)" style="stroke:#000000; stroke-linecap:round; stroke-linejoin:round; stroke-width:2; stroke-opacity:0.1; fill:none" points="1739.23,1486.45 1739.23,47.2441 "/>
<polyline clip-path="url(#clip742)" style="stroke:#000000; stroke-linecap:round; stroke-linejoin:round; stroke-width:2; stroke-opacity:0.1; fill:none" points="2067.18,1486.45 2067.18,47.2441 "/>
<polyline clip-path="url(#clip740)" style="stroke:#000000; stroke-linecap:round; stroke-linejoin:round; stroke-width:4; stroke-opacity:1; fill:none" points="141.853,1486.45 2352.76,1486.45 "/>
<polyline clip-path="url(#clip740)" style="stroke:#000000; stroke-linecap:round; stroke-linejoin:round; stroke-width:4; stroke-opacity:1; fill:none" points="427.431,1486.45 427.431,1467.55 "/>
<polyline clip-path="url(#clip740)" style="stroke:#000000; stroke-linecap:round; stroke-linejoin:round; stroke-width:4; stroke-opacity:1; fill:none" points="755.38,1486.45 755.38,1467.55 "/>
<polyline clip-path="url(#clip740)" style="stroke:#000000; stroke-linecap:round; stroke-linejoin:round; stroke-width:4; stroke-opacity:1; fill:none" points="1083.33,1486.45 1083.33,1467.55 "/>
<polyline clip-path="url(#clip740)" style="stroke:#000000; stroke-linecap:round; stroke-linejoin:round; stroke-width:4; stroke-opacity:1; fill:none" points="1411.28,1486.45 1411.28,1467.55 "/>
<polyline clip-path="url(#clip740)" style="stroke:#000000; stroke-linecap:round; stroke-linejoin:round; stroke-width:4; stroke-opacity:1; fill:none" points="1739.23,1486.45 1739.23,1467.55 "/>
<polyline clip-path="url(#clip740)" style="stroke:#000000; stroke-linecap:round; stroke-linejoin:round; stroke-width:4; stroke-opacity:1; fill:none" points="2067.18,1486.45 2067.18,1467.55 "/>
<path clip-path="url(#clip740)" d="M401.193 1530.21 Q404.549 1530.93 406.424 1533.2 Q408.322 1535.47 408.322 1538.8 Q408.322 1543.92 404.804 1546.72 Q401.285 1549.52 394.804 1549.52 Q392.628 1549.52 390.313 1549.08 Q388.022 1548.66 385.568 1547.81 L385.568 1543.29 Q387.512 1544.43 389.827 1545.01 Q392.142 1545.58 394.665 1545.58 Q399.063 1545.58 401.355 1543.85 Q403.67 1542.11 403.67 1538.8 Q403.67 1535.75 401.517 1534.03 Q399.387 1532.3 395.568 1532.3 L391.54 1532.3 L391.54 1528.45 L395.753 1528.45 Q399.202 1528.45 401.031 1527.09 Q402.86 1525.7 402.86 1523.11 Q402.86 1520.45 400.961 1519.03 Q399.086 1517.6 395.568 1517.6 Q393.647 1517.6 391.448 1518.01 Q389.249 1518.43 386.61 1519.31 L386.61 1515.14 Q389.272 1514.4 391.586 1514.03 Q393.924 1513.66 395.985 1513.66 Q401.309 1513.66 404.41 1516.09 Q407.512 1518.5 407.512 1522.62 Q407.512 1525.49 405.869 1527.48 Q404.225 1529.45 401.193 1530.21 Z" fill="#000000" fill-rule="nonzero" fill-opacity="1" /><path clip-path="url(#clip740)" d="M417.234 1514.29 L435.591 1514.29 L435.591 1518.22 L421.517 1518.22 L421.517 1526.7 Q422.535 1526.35 423.554 1526.19 Q424.572 1526 425.591 1526 Q431.378 1526 434.758 1529.17 Q438.137 1532.34 438.137 1537.76 Q438.137 1543.34 434.665 1546.44 Q431.193 1549.52 424.873 1549.52 Q422.697 1549.52 420.429 1549.15 Q418.184 1548.78 415.776 1548.04 L415.776 1543.34 Q417.859 1544.47 420.082 1545.03 Q422.304 1545.58 424.781 1545.58 Q428.785 1545.58 431.123 1543.48 Q433.461 1541.37 433.461 1537.76 Q433.461 1534.15 431.123 1532.04 Q428.785 1529.94 424.781 1529.94 Q422.906 1529.94 421.031 1530.35 Q419.179 1530.77 417.234 1531.65 L417.234 1514.29 Z" fill="#000000" fill-rule="nonzero" fill-opacity="1" /><path clip-path="url(#clip740)" d="M457.35 1517.37 Q453.739 1517.37 451.91 1520.93 Q450.105 1524.47 450.105 1531.6 Q450.105 1538.71 451.91 1542.27 Q453.739 1545.82 457.35 1545.82 Q460.984 1545.82 462.79 1542.27 Q464.618 1538.71 464.618 1531.6 Q464.618 1524.47 462.79 1520.93 Q460.984 1517.37 457.35 1517.37 M457.35 1513.66 Q463.16 1513.66 466.216 1518.27 Q469.294 1522.85 469.294 1531.6 Q469.294 1540.33 466.216 1544.94 Q463.16 1549.52 457.35 1549.52 Q451.54 1549.52 448.461 1544.94 Q445.406 1540.33 445.406 1531.6 Q445.406 1522.85 448.461 1518.27 Q451.54 1513.66 457.35 1513.66 Z" fill="#000000" fill-rule="nonzero" fill-opacity="1" /><path clip-path="url(#clip740)" d="M728.471 1518.36 L716.665 1536.81 L728.471 1536.81 L728.471 1518.36 M727.244 1514.29 L733.124 1514.29 L733.124 1536.81 L738.054 1536.81 L738.054 1540.7 L733.124 1540.7 L733.124 1548.85 L728.471 1548.85 L728.471 1540.7 L712.869 1540.7 L712.869 1536.19 L727.244 1514.29 Z" fill="#000000" fill-rule="nonzero" fill-opacity="1" /><path clip-path="url(#clip740)" d="M755.786 1517.37 Q752.174 1517.37 750.346 1520.93 Q748.54 1524.47 748.54 1531.6 Q748.54 1538.71 750.346 1542.27 Q752.174 1545.82 755.786 1545.82 Q759.42 1545.82 761.225 1542.27 Q763.054 1538.71 763.054 1531.6 Q763.054 1524.47 761.225 1520.93 Q759.42 1517.37 755.786 1517.37 M755.786 1513.66 Q761.596 1513.66 764.651 1518.27 Q767.73 1522.85 767.73 1531.6 Q767.73 1540.33 764.651 1544.94 Q761.596 1549.52 755.786 1549.52 Q749.975 1549.52 746.897 1544.94 Q743.841 1540.33 743.841 1531.6 Q743.841 1522.85 746.897 1518.27 Q749.975 1513.66 755.786 1513.66 Z" fill="#000000" fill-rule="nonzero" fill-opacity="1" /><path clip-path="url(#clip740)" d="M785.947 1517.37 Q782.336 1517.37 780.508 1520.93 Q778.702 1524.47 778.702 1531.6 Q778.702 1538.71 780.508 1542.27 Q782.336 1545.82 785.947 1545.82 Q789.582 1545.82 791.387 1542.27 Q793.216 1538.71 793.216 1531.6 Q793.216 1524.47 791.387 1520.93 Q789.582 1517.37 785.947 1517.37 M785.947 1513.66 Q791.758 1513.66 794.813 1518.27 Q797.892 1522.85 797.892 1531.6 Q797.892 1540.33 794.813 1544.94 Q791.758 1549.52 785.947 1549.52 Q780.137 1549.52 777.059 1544.94 Q774.003 1540.33 774.003 1531.6 Q774.003 1522.85 777.059 1518.27 Q780.137 1513.66 785.947 1513.66 Z" fill="#000000" fill-rule="nonzero" fill-opacity="1" /><path clip-path="url(#clip740)" d="M1056.42 1518.36 L1044.61 1536.81 L1056.42 1536.81 L1056.42 1518.36 M1055.19 1514.29 L1061.07 1514.29 L1061.07 1536.81 L1066 1536.81 L1066 1540.7 L1061.07 1540.7 L1061.07 1548.85 L1056.42 1548.85 L1056.42 1540.7 L1040.82 1540.7 L1040.82 1536.19 L1055.19 1514.29 Z" fill="#000000" fill-rule="nonzero" fill-opacity="1" /><path clip-path="url(#clip740)" d="M1073.78 1514.29 L1092.14 1514.29 L1092.14 1518.22 L1078.06 1518.22 L1078.06 1526.7 Q1079.08 1526.35 1080.1 1526.19 Q1081.12 1526 1082.14 1526 Q1087.92 1526 1091.3 1529.17 Q1094.68 1532.34 1094.68 1537.76 Q1094.68 1543.34 1091.21 1546.44 Q1087.74 1549.52 1081.42 1549.52 Q1079.24 1549.52 1076.98 1549.15 Q1074.73 1548.78 1072.32 1548.04 L1072.32 1543.34 Q1074.41 1544.47 1076.63 1545.03 Q1078.85 1545.58 1081.33 1545.58 Q1085.33 1545.58 1087.67 1543.48 Q1090.01 1541.37 1090.01 1537.76 Q1090.01 1534.15 1087.67 1532.04 Q1085.33 1529.94 1081.33 1529.94 Q1079.45 1529.94 1077.58 1530.35 Q1075.73 1530.77 1073.78 1531.65 L1073.78 1514.29 Z" fill="#000000" fill-rule="nonzero" fill-opacity="1" /><path clip-path="url(#clip740)" d="M1113.9 1517.37 Q1110.29 1517.37 1108.46 1520.93 Q1106.65 1524.47 1106.65 1531.6 Q1106.65 1538.71 1108.46 1542.27 Q1110.29 1545.82 1113.9 1545.82 Q1117.53 1545.82 1119.34 1542.27 Q1121.17 1538.71 1121.17 1531.6 Q1121.17 1524.47 1119.34 1520.93 Q1117.53 1517.37 1113.9 1517.37 M1113.9 1513.66 Q1119.71 1513.66 1122.76 1518.27 Q1125.84 1522.85 1125.84 1531.6 Q1125.84 1540.33 1122.76 1544.94 Q1119.71 1549.52 1113.9 1549.52 Q1108.09 1549.52 1105.01 1544.94 Q1101.95 1540.33 1101.95 1531.6 Q1101.95 1522.85 1105.01 1518.27 Q1108.09 1513.66 1113.9 1513.66 Z" fill="#000000" fill-rule="nonzero" fill-opacity="1" /><path clip-path="url(#clip740)" d="M1370.9 1514.29 L1389.25 1514.29 L1389.25 1518.22 L1375.18 1518.22 L1375.18 1526.7 Q1376.2 1526.35 1377.22 1526.19 Q1378.24 1526 1379.25 1526 Q1385.04 1526 1388.42 1529.17 Q1391.8 1532.34 1391.8 1537.76 Q1391.8 1543.34 1388.33 1546.44 Q1384.86 1549.52 1378.54 1549.52 Q1376.36 1549.52 1374.09 1549.15 Q1371.85 1548.78 1369.44 1548.04 L1369.44 1543.34 Q1371.52 1544.47 1373.74 1545.03 Q1375.97 1545.58 1378.44 1545.58 Q1382.45 1545.58 1384.79 1543.48 Q1387.12 1541.37 1387.12 1537.76 Q1387.12 1534.15 1384.79 1532.04 Q1382.45 1529.94 1378.44 1529.94 Q1376.57 1529.94 1374.69 1530.35 Q1372.84 1530.77 1370.9 1531.65 L1370.9 1514.29 Z" fill="#000000" fill-rule="nonzero" fill-opacity="1" /><path clip-path="url(#clip740)" d="M1411.01 1517.37 Q1407.4 1517.37 1405.57 1520.93 Q1403.77 1524.47 1403.77 1531.6 Q1403.77 1538.71 1405.57 1542.27 Q1407.4 1545.82 1411.01 1545.82 Q1414.65 1545.82 1416.45 1542.27 Q1418.28 1538.71 1418.28 1531.6 Q1418.28 1524.47 1416.45 1520.93 Q1414.65 1517.37 1411.01 1517.37 M1411.01 1513.66 Q1416.82 1513.66 1419.88 1518.27 Q1422.96 1522.85 1422.96 1531.6 Q1422.96 1540.33 1419.88 1544.94 Q1416.82 1549.52 1411.01 1549.52 Q1405.2 1549.52 1402.12 1544.94 Q1399.07 1540.33 1399.07 1531.6 Q1399.07 1522.85 1402.12 1518.27 Q1405.2 1513.66 1411.01 1513.66 Z" fill="#000000" fill-rule="nonzero" fill-opacity="1" /><path clip-path="url(#clip740)" d="M1441.17 1517.37 Q1437.56 1517.37 1435.73 1520.93 Q1433.93 1524.47 1433.93 1531.6 Q1433.93 1538.71 1435.73 1542.27 Q1437.56 1545.82 1441.17 1545.82 Q1444.81 1545.82 1446.61 1542.27 Q1448.44 1538.71 1448.44 1531.6 Q1448.44 1524.47 1446.61 1520.93 Q1444.81 1517.37 1441.17 1517.37 M1441.17 1513.66 Q1446.98 1513.66 1450.04 1518.27 Q1453.12 1522.85 1453.12 1531.6 Q1453.12 1540.33 1450.04 1544.94 Q1446.98 1549.52 1441.17 1549.52 Q1435.36 1549.52 1432.29 1544.94 Q1429.23 1540.33 1429.23 1531.6 Q1429.23 1522.85 1432.29 1518.27 Q1435.36 1513.66 1441.17 1513.66 Z" fill="#000000" fill-rule="nonzero" fill-opacity="1" /><path clip-path="url(#clip740)" d="M1698.85 1514.29 L1717.2 1514.29 L1717.2 1518.22 L1703.13 1518.22 L1703.13 1526.7 Q1704.15 1526.35 1705.17 1526.19 Q1706.18 1526 1707.2 1526 Q1712.99 1526 1716.37 1529.17 Q1719.75 1532.34 1719.75 1537.76 Q1719.75 1543.34 1716.28 1546.44 Q1712.8 1549.52 1706.49 1549.52 Q1704.31 1549.52 1702.04 1549.15 Q1699.8 1548.78 1697.39 1548.04 L1697.39 1543.34 Q1699.47 1544.47 1701.69 1545.03 Q1703.92 1545.58 1706.39 1545.58 Q1710.4 1545.58 1712.74 1543.48 Q1715.07 1541.37 1715.07 1537.76 Q1715.07 1534.15 1712.74 1532.04 Q1710.4 1529.94 1706.39 1529.94 Q1704.52 1529.94 1702.64 1530.35 Q1700.79 1530.77 1698.85 1531.65 L1698.85 1514.29 Z" fill="#000000" fill-rule="nonzero" fill-opacity="1" /><path clip-path="url(#clip740)" d="M1729.01 1514.29 L1747.36 1514.29 L1747.36 1518.22 L1733.29 1518.22 L1733.29 1526.7 Q1734.31 1526.35 1735.33 1526.19 Q1736.35 1526 1737.36 1526 Q1743.15 1526 1746.53 1529.17 Q1749.91 1532.34 1749.91 1537.76 Q1749.91 1543.34 1746.44 1546.44 Q1742.97 1549.52 1736.65 1549.52 Q1734.47 1549.52 1732.2 1549.15 Q1729.96 1548.78 1727.55 1548.04 L1727.55 1543.34 Q1729.63 1544.47 1731.86 1545.03 Q1734.08 1545.58 1736.55 1545.58 Q1740.56 1545.58 1742.9 1543.48 Q1745.24 1541.37 1745.24 1537.76 Q1745.24 1534.15 1742.9 1532.04 Q1740.56 1529.94 1736.55 1529.94 Q1734.68 1529.94 1732.8 1530.35 Q1730.95 1530.77 1729.01 1531.65 L1729.01 1514.29 Z" fill="#000000" fill-rule="nonzero" fill-opacity="1" /><path clip-path="url(#clip740)" d="M1769.12 1517.37 Q1765.51 1517.37 1763.68 1520.93 Q1761.88 1524.47 1761.88 1531.6 Q1761.88 1538.71 1763.68 1542.27 Q1765.51 1545.82 1769.12 1545.82 Q1772.76 1545.82 1774.56 1542.27 Q1776.39 1538.71 1776.39 1531.6 Q1776.39 1524.47 1774.56 1520.93 Q1772.76 1517.37 1769.12 1517.37 M1769.12 1513.66 Q1774.93 1513.66 1777.99 1518.27 Q1781.07 1522.85 1781.07 1531.6 Q1781.07 1540.33 1777.99 1544.94 Q1774.93 1549.52 1769.12 1549.52 Q1763.31 1549.52 1760.24 1544.94 Q1757.18 1540.33 1757.18 1531.6 Q1757.18 1522.85 1760.24 1518.27 Q1763.31 1513.66 1769.12 1513.66 Z" fill="#000000" fill-rule="nonzero" fill-opacity="1" /><path clip-path="url(#clip740)" d="M2037.5 1529.7 Q2034.35 1529.7 2032.5 1531.86 Q2030.67 1534.01 2030.67 1537.76 Q2030.67 1541.49 2032.5 1543.66 Q2034.35 1545.82 2037.5 1545.82 Q2040.65 1545.82 2042.48 1543.66 Q2044.33 1541.49 2044.33 1537.76 Q2044.33 1534.01 2042.48 1531.86 Q2040.65 1529.7 2037.5 1529.7 M2046.78 1515.05 L2046.78 1519.31 Q2045.03 1518.48 2043.22 1518.04 Q2041.44 1517.6 2039.68 1517.6 Q2035.05 1517.6 2032.59 1520.72 Q2030.16 1523.85 2029.82 1530.17 Q2031.18 1528.15 2033.24 1527.09 Q2035.3 1526 2037.78 1526 Q2042.99 1526 2046 1529.17 Q2049.03 1532.32 2049.03 1537.76 Q2049.03 1543.08 2045.88 1546.3 Q2042.73 1549.52 2037.5 1549.52 Q2031.51 1549.52 2028.34 1544.94 Q2025.16 1540.33 2025.16 1531.6 Q2025.16 1523.41 2029.05 1518.55 Q2032.94 1513.66 2039.49 1513.66 Q2041.25 1513.66 2043.03 1514.01 Q2044.84 1514.36 2046.78 1515.05 Z" fill="#000000" fill-rule="nonzero" fill-opacity="1" /><path clip-path="url(#clip740)" d="M2067.09 1517.37 Q2063.47 1517.37 2061.65 1520.93 Q2059.84 1524.47 2059.84 1531.6 Q2059.84 1538.71 2061.65 1542.27 Q2063.47 1545.82 2067.09 1545.82 Q2070.72 1545.82 2072.52 1542.27 Q2074.35 1538.71 2074.35 1531.6 Q2074.35 1524.47 2072.52 1520.93 Q2070.72 1517.37 2067.09 1517.37 M2067.09 1513.66 Q2072.9 1513.66 2075.95 1518.27 Q2079.03 1522.85 2079.03 1531.6 Q2079.03 1540.33 2075.95 1544.94 Q2072.9 1549.52 2067.09 1549.52 Q2061.27 1549.52 2058.2 1544.94 Q2055.14 1540.33 2055.14 1531.6 Q2055.14 1522.85 2058.2 1518.27 Q2061.27 1513.66 2067.09 1513.66 Z" fill="#000000" fill-rule="nonzero" fill-opacity="1" /><path clip-path="url(#clip740)" d="M2097.25 1517.37 Q2093.64 1517.37 2091.81 1520.93 Q2090 1524.47 2090 1531.6 Q2090 1538.71 2091.81 1542.27 Q2093.64 1545.82 2097.25 1545.82 Q2100.88 1545.82 2102.69 1542.27 Q2104.52 1538.71 2104.52 1531.6 Q2104.52 1524.47 2102.69 1520.93 Q2100.88 1517.37 2097.25 1517.37 M2097.25 1513.66 Q2103.06 1513.66 2106.11 1518.27 Q2109.19 1522.85 2109.19 1531.6 Q2109.19 1540.33 2106.11 1544.94 Q2103.06 1549.52 2097.25 1549.52 Q2091.44 1549.52 2088.36 1544.94 Q2085.3 1540.33 2085.3 1531.6 Q2085.3 1522.85 2088.36 1518.27 Q2091.44 1513.66 2097.25 1513.66 Z" fill="#000000" fill-rule="nonzero" fill-opacity="1" /><polyline clip-path="url(#clip742)" style="stroke:#000000; stroke-linecap:round; stroke-linejoin:round; stroke-width:2; stroke-opacity:0.1; fill:none" points="141.853,1486.45 2352.76,1486.45 "/>
<polyline clip-path="url(#clip742)" style="stroke:#000000; stroke-linecap:round; stroke-linejoin:round; stroke-width:2; stroke-opacity:0.1; fill:none" points="141.853,1139.65 2352.76,1139.65 "/>
<polyline clip-path="url(#clip742)" style="stroke:#000000; stroke-linecap:round; stroke-linejoin:round; stroke-width:2; stroke-opacity:0.1; fill:none" points="141.853,792.856 2352.76,792.856 "/>
<polyline clip-path="url(#clip742)" style="stroke:#000000; stroke-linecap:round; stroke-linejoin:round; stroke-width:2; stroke-opacity:0.1; fill:none" points="141.853,446.06 2352.76,446.06 "/>
<polyline clip-path="url(#clip742)" style="stroke:#000000; stroke-linecap:round; stroke-linejoin:round; stroke-width:2; stroke-opacity:0.1; fill:none" points="141.853,99.2635 2352.76,99.2635 "/>
<polyline clip-path="url(#clip740)" style="stroke:#000000; stroke-linecap:round; stroke-linejoin:round; stroke-width:4; stroke-opacity:1; fill:none" points="141.853,1486.45 141.853,47.2441 "/>
<polyline clip-path="url(#clip740)" style="stroke:#000000; stroke-linecap:round; stroke-linejoin:round; stroke-width:4; stroke-opacity:1; fill:none" points="141.853,1486.45 160.751,1486.45 "/>
<polyline clip-path="url(#clip740)" style="stroke:#000000; stroke-linecap:round; stroke-linejoin:round; stroke-width:4; stroke-opacity:1; fill:none" points="141.853,1139.65 160.751,1139.65 "/>
<polyline clip-path="url(#clip740)" style="stroke:#000000; stroke-linecap:round; stroke-linejoin:round; stroke-width:4; stroke-opacity:1; fill:none" points="141.853,792.856 160.751,792.856 "/>
<polyline clip-path="url(#clip740)" style="stroke:#000000; stroke-linecap:round; stroke-linejoin:round; stroke-width:4; stroke-opacity:1; fill:none" points="141.853,446.06 160.751,446.06 "/>
<polyline clip-path="url(#clip740)" style="stroke:#000000; stroke-linecap:round; stroke-linejoin:round; stroke-width:4; stroke-opacity:1; fill:none" points="141.853,99.2635 160.751,99.2635 "/>
<path clip-path="url(#clip740)" d="M93.9086 1472.25 Q90.2975 1472.25 88.4688 1475.81 Q86.6632 1479.35 86.6632 1486.48 Q86.6632 1493.59 88.4688 1497.15 Q90.2975 1500.7 93.9086 1500.7 Q97.5428 1500.7 99.3483 1497.15 Q101.177 1493.59 101.177 1486.48 Q101.177 1479.35 99.3483 1475.81 Q97.5428 1472.25 93.9086 1472.25 M93.9086 1468.54 Q99.7187 1468.54 102.774 1473.15 Q105.853 1477.73 105.853 1486.48 Q105.853 1495.21 102.774 1499.82 Q99.7187 1504.4 93.9086 1504.4 Q88.0984 1504.4 85.0197 1499.82 Q81.9642 1495.21 81.9642 1486.48 Q81.9642 1477.73 85.0197 1473.15 Q88.0984 1468.54 93.9086 1468.54 Z" fill="#000000" fill-rule="nonzero" fill-opacity="1" /><path clip-path="url(#clip740)" d="M57.7745 1153 L74.0939 1153 L74.0939 1156.93 L52.1495 1156.93 L52.1495 1153 Q54.8115 1150.24 59.3949 1145.61 Q64.0013 1140.96 65.1819 1139.62 Q67.4272 1137.09 68.3068 1135.36 Q69.2096 1133.6 69.2096 1131.91 Q69.2096 1129.15 67.2652 1127.42 Q65.3439 1125.68 62.2421 1125.68 Q60.043 1125.68 57.5893 1126.45 Q55.1588 1127.21 52.381 1128.76 L52.381 1124.04 Q55.2051 1122.9 57.6588 1122.33 Q60.1124 1121.75 62.1495 1121.75 Q67.5198 1121.75 70.7142 1124.43 Q73.9087 1127.12 73.9087 1131.61 Q73.9087 1133.74 73.0985 1135.66 Q72.3115 1137.56 70.205 1140.15 Q69.6263 1140.82 66.5245 1144.04 Q63.4226 1147.23 57.7745 1153 Z" fill="#000000" fill-rule="nonzero" fill-opacity="1" /><path clip-path="url(#clip740)" d="M93.9086 1125.45 Q90.2975 1125.45 88.4688 1129.02 Q86.6632 1132.56 86.6632 1139.69 Q86.6632 1146.79 88.4688 1150.36 Q90.2975 1153.9 93.9086 1153.9 Q97.5428 1153.9 99.3483 1150.36 Q101.177 1146.79 101.177 1139.69 Q101.177 1132.56 99.3483 1129.02 Q97.5428 1125.45 93.9086 1125.45 M93.9086 1121.75 Q99.7187 1121.75 102.774 1126.35 Q105.853 1130.94 105.853 1139.69 Q105.853 1148.41 102.774 1153.02 Q99.7187 1157.6 93.9086 1157.6 Q88.0984 1157.6 85.0197 1153.02 Q81.9642 1148.41 81.9642 1139.69 Q81.9642 1130.94 85.0197 1126.35 Q88.0984 1121.75 93.9086 1121.75 Z" fill="#000000" fill-rule="nonzero" fill-opacity="1" /><path clip-path="url(#clip740)" d="M66.5939 779.65 L54.7884 798.099 L66.5939 798.099 L66.5939 779.65 M65.367 775.576 L71.2466 775.576 L71.2466 798.099 L76.1772 798.099 L76.1772 801.988 L71.2466 801.988 L71.2466 810.136 L66.5939 810.136 L66.5939 801.988 L50.9921 801.988 L50.9921 797.474 L65.367 775.576 Z" fill="#000000" fill-rule="nonzero" fill-opacity="1" /><path clip-path="url(#clip740)" d="M93.9086 778.654 Q90.2975 778.654 88.4688 782.219 Q86.6632 785.761 86.6632 792.89 Q86.6632 799.997 88.4688 803.562 Q90.2975 807.103 93.9086 807.103 Q97.5428 807.103 99.3483 803.562 Q101.177 799.997 101.177 792.89 Q101.177 785.761 99.3483 782.219 Q97.5428 778.654 93.9086 778.654 M93.9086 774.951 Q99.7187 774.951 102.774 779.557 Q105.853 784.14 105.853 792.89 Q105.853 801.617 102.774 806.224 Q99.7187 810.807 93.9086 810.807 Q88.0984 810.807 85.0197 806.224 Q81.9642 801.617 81.9642 792.89 Q81.9642 784.14 85.0197 779.557 Q88.0984 774.951 93.9086 774.951 Z" fill="#000000" fill-rule="nonzero" fill-opacity="1" /><path clip-path="url(#clip740)" d="M64.3254 444.196 Q61.1773 444.196 59.3254 446.349 Q57.4967 448.502 57.4967 452.252 Q57.4967 455.979 59.3254 458.154 Q61.1773 460.307 64.3254 460.307 Q67.4735 460.307 69.3022 458.154 Q71.1541 455.979 71.1541 452.252 Q71.1541 448.502 69.3022 446.349 Q67.4735 444.196 64.3254 444.196 M73.6077 429.543 L73.6077 433.803 Q71.8485 432.969 70.0429 432.53 Q68.2606 432.09 66.5013 432.09 Q61.8717 432.09 59.418 435.215 Q56.9875 438.34 56.6402 444.659 Q58.006 442.645 60.0662 441.58 Q62.1263 440.492 64.6032 440.492 Q69.8115 440.492 72.8207 443.664 Q75.8531 446.812 75.8531 452.252 Q75.8531 457.576 72.705 460.793 Q69.5568 464.011 64.3254 464.011 Q58.33 464.011 55.1588 459.428 Q51.9875 454.821 51.9875 446.094 Q51.9875 437.9 55.8764 433.039 Q59.7652 428.155 66.3161 428.155 Q68.0754 428.155 69.8578 428.502 Q71.6633 428.849 73.6077 429.543 Z" fill="#000000" fill-rule="nonzero" fill-opacity="1" /><path clip-path="url(#clip740)" d="M93.9086 431.858 Q90.2975 431.858 88.4688 435.423 Q86.6632 438.965 86.6632 446.094 Q86.6632 453.201 88.4688 456.766 Q90.2975 460.307 93.9086 460.307 Q97.5428 460.307 99.3483 456.766 Q101.177 453.201 101.177 446.094 Q101.177 438.965 99.3483 435.423 Q97.5428 431.858 93.9086 431.858 M93.9086 428.155 Q99.7187 428.155 102.774 432.761 Q105.853 437.344 105.853 446.094 Q105.853 454.821 102.774 459.428 Q99.7187 464.011 93.9086 464.011 Q88.0984 464.011 85.0197 459.428 Q81.9642 454.821 81.9642 446.094 Q81.9642 437.344 85.0197 432.761 Q88.0984 428.155 93.9086 428.155 Z" fill="#000000" fill-rule="nonzero" fill-opacity="1" /><path clip-path="url(#clip740)" d="M63.7467 100.132 Q60.4134 100.132 58.4921 101.914 Q56.5939 103.696 56.5939 106.821 Q56.5939 109.946 58.4921 111.729 Q60.4134 113.511 63.7467 113.511 Q67.08 113.511 69.0013 111.729 Q70.9226 109.923 70.9226 106.821 Q70.9226 103.696 69.0013 101.914 Q67.1032 100.132 63.7467 100.132 M59.0708 98.1408 Q56.0615 97.4001 54.3717 95.3399 Q52.7051 93.2797 52.7051 90.3168 Q52.7051 86.1733 55.6449 83.7659 Q58.6078 81.3585 63.7467 81.3585 Q68.9087 81.3585 71.8485 83.7659 Q74.7883 86.1733 74.7883 90.3168 Q74.7883 93.2797 73.0985 95.3399 Q71.4318 97.4001 68.4457 98.1408 Q71.8253 98.9279 73.7003 101.22 Q75.5985 103.511 75.5985 106.821 Q75.5985 111.844 72.5198 114.53 Q69.4642 117.215 63.7467 117.215 Q58.0291 117.215 54.9504 114.53 Q51.8949 111.844 51.8949 106.821 Q51.8949 103.511 53.793 101.22 Q55.6912 98.9279 59.0708 98.1408 M57.3578 90.7566 Q57.3578 93.4418 59.0245 94.9464 Q60.7143 96.451 63.7467 96.451 Q66.7559 96.451 68.4457 94.9464 Q70.1587 93.4418 70.1587 90.7566 Q70.1587 88.0714 68.4457 86.5668 Q66.7559 85.0622 63.7467 85.0622 Q60.7143 85.0622 59.0245 86.5668 Q57.3578 88.0714 57.3578 90.7566 Z" fill="#000000" fill-rule="nonzero" fill-opacity="1" /><path clip-path="url(#clip740)" d="M93.9086 85.0622 Q90.2975 85.0622 88.4688 88.627 Q86.6632 92.1686 86.6632 99.2982 Q86.6632 106.405 88.4688 109.969 Q90.2975 113.511 93.9086 113.511 Q97.5428 113.511 99.3483 109.969 Q101.177 106.405 101.177 99.2982 Q101.177 92.1686 99.3483 88.627 Q97.5428 85.0622 93.9086 85.0622 M93.9086 81.3585 Q99.7187 81.3585 102.774 85.965 Q105.853 90.5483 105.853 99.2982 Q105.853 108.025 102.774 112.631 Q99.7187 117.215 93.9086 117.215 Q88.0984 117.215 85.0197 112.631 Q81.9642 108.025 81.9642 99.2982 Q81.9642 90.5483 85.0197 85.965 Q88.0984 81.3585 93.9086 81.3585 Z" fill="#000000" fill-rule="nonzero" fill-opacity="1" /><path clip-path="url(#clip742)" d="M263.457 1469.11 L263.457 1486.45 L427.431 1486.45 L427.431 1469.11 L263.457 1469.11 L263.457 1469.11  Z" fill="#009af9" fill-rule="evenodd" fill-opacity="1"/>
<polyline clip-path="url(#clip742)" style="stroke:#000000; stroke-linecap:round; stroke-linejoin:round; stroke-width:4; stroke-opacity:1; fill:none" points="263.457,1469.11 263.457,1486.45 427.431,1486.45 427.431,1469.11 263.457,1469.11 "/>
<path clip-path="url(#clip742)" d="M427.431 1486.45 L427.431 1486.45 L591.406 1486.45 L591.406 1486.45 L427.431 1486.45 L427.431 1486.45  Z" fill="#009af9" fill-rule="evenodd" fill-opacity="1"/>
<polyline clip-path="url(#clip742)" style="stroke:#000000; stroke-linecap:round; stroke-linejoin:round; stroke-width:4; stroke-opacity:1; fill:none" points="427.431,1486.45 427.431,1486.45 591.406,1486.45 427.431,1486.45 "/>
<path clip-path="url(#clip742)" d="M591.406 1486.45 L591.406 1486.45 L755.38 1486.45 L755.38 1486.45 L591.406 1486.45 L591.406 1486.45  Z" fill="#009af9" fill-rule="evenodd" fill-opacity="1"/>
<polyline clip-path="url(#clip742)" style="stroke:#000000; stroke-linecap:round; stroke-linejoin:round; stroke-width:4; stroke-opacity:1; fill:none" points="591.406,1486.45 591.406,1486.45 755.38,1486.45 591.406,1486.45 "/>
<path clip-path="url(#clip742)" d="M755.38 1469.11 L755.38 1486.45 L919.355 1486.45 L919.355 1469.11 L755.38 1469.11 L755.38 1469.11  Z" fill="#009af9" fill-rule="evenodd" fill-opacity="1"/>
<polyline clip-path="url(#clip742)" style="stroke:#000000; stroke-linecap:round; stroke-linejoin:round; stroke-width:4; stroke-opacity:1; fill:none" points="755.38,1469.11 755.38,1486.45 919.355,1486.45 919.355,1469.11 755.38,1469.11 "/>
<path clip-path="url(#clip742)" d="M919.355 1417.09 L919.355 1486.45 L1083.33 1486.45 L1083.33 1417.09 L919.355 1417.09 L919.355 1417.09  Z" fill="#009af9" fill-rule="evenodd" fill-opacity="1"/>
<polyline clip-path="url(#clip742)" style="stroke:#000000; stroke-linecap:round; stroke-linejoin:round; stroke-width:4; stroke-opacity:1; fill:none" points="919.355,1417.09 919.355,1486.45 1083.33,1486.45 1083.33,1417.09 919.355,1417.09 "/>
<path clip-path="url(#clip742)" d="M1083.33 1417.09 L1083.33 1486.45 L1247.3 1486.45 L1247.3 1417.09 L1083.33 1417.09 L1083.33 1417.09  Z" fill="#009af9" fill-rule="evenodd" fill-opacity="1"/>
<polyline clip-path="url(#clip742)" style="stroke:#000000; stroke-linecap:round; stroke-linejoin:round; stroke-width:4; stroke-opacity:1; fill:none" points="1083.33,1417.09 1083.33,1486.45 1247.3,1486.45 1247.3,1417.09 1083.33,1417.09 "/>
<path clip-path="url(#clip742)" d="M1247.3 1417.09 L1247.3 1486.45 L1411.28 1486.45 L1411.28 1417.09 L1247.3 1417.09 L1247.3 1417.09  Z" fill="#009af9" fill-rule="evenodd" fill-opacity="1"/>
<polyline clip-path="url(#clip742)" style="stroke:#000000; stroke-linecap:round; stroke-linejoin:round; stroke-width:4; stroke-opacity:1; fill:none" points="1247.3,1417.09 1247.3,1486.45 1411.28,1486.45 1411.28,1417.09 1247.3,1417.09 "/>
<path clip-path="url(#clip742)" d="M1411.28 1365.07 L1411.28 1486.45 L1575.25 1486.45 L1575.25 1365.07 L1411.28 1365.07 L1411.28 1365.07  Z" fill="#009af9" fill-rule="evenodd" fill-opacity="1"/>
<polyline clip-path="url(#clip742)" style="stroke:#000000; stroke-linecap:round; stroke-linejoin:round; stroke-width:4; stroke-opacity:1; fill:none" points="1411.28,1365.07 1411.28,1486.45 1575.25,1486.45 1575.25,1365.07 1411.28,1365.07 "/>
<path clip-path="url(#clip742)" d="M1575.25 1382.41 L1575.25 1486.45 L1739.23 1486.45 L1739.23 1382.41 L1575.25 1382.41 L1575.25 1382.41  Z" fill="#009af9" fill-rule="evenodd" fill-opacity="1"/>
<polyline clip-path="url(#clip742)" style="stroke:#000000; stroke-linecap:round; stroke-linejoin:round; stroke-width:4; stroke-opacity:1; fill:none" points="1575.25,1382.41 1575.25,1486.45 1739.23,1486.45 1739.23,1382.41 1575.25,1382.41 "/>
<path clip-path="url(#clip742)" d="M1739.23 1330.39 L1739.23 1486.45 L1903.2 1486.45 L1903.2 1330.39 L1739.23 1330.39 L1739.23 1330.39  Z" fill="#009af9" fill-rule="evenodd" fill-opacity="1"/>
<polyline clip-path="url(#clip742)" style="stroke:#000000; stroke-linecap:round; stroke-linejoin:round; stroke-width:4; stroke-opacity:1; fill:none" points="1739.23,1330.39 1739.23,1486.45 1903.2,1486.45 1903.2,1330.39 1739.23,1330.39 "/>
<path clip-path="url(#clip742)" d="M1903.2 1156.99 L1903.2 1486.45 L2067.18 1486.45 L2067.18 1156.99 L1903.2 1156.99 L1903.2 1156.99  Z" fill="#009af9" fill-rule="evenodd" fill-opacity="1"/>
<polyline clip-path="url(#clip742)" style="stroke:#000000; stroke-linecap:round; stroke-linejoin:round; stroke-width:4; stroke-opacity:1; fill:none" points="1903.2,1156.99 1903.2,1486.45 2067.18,1486.45 2067.18,1156.99 1903.2,1156.99 "/>
<path clip-path="url(#clip742)" d="M2067.18 706.157 L2067.18 1486.45 L2231.15 1486.45 L2231.15 706.157 L2067.18 706.157 L2067.18 706.157  Z" fill="#009af9" fill-rule="evenodd" fill-opacity="1"/>
<polyline clip-path="url(#clip742)" style="stroke:#000000; stroke-linecap:round; stroke-linejoin:round; stroke-width:4; stroke-opacity:1; fill:none" points="2067.18,706.157 2067.18,1486.45 2231.15,1486.45 2231.15,706.157 2067.18,706.157 "/>
<circle clip-path="url(#clip742)" style="fill:#009af9; stroke:none; fill-opacity:0" cx="345.444" cy="1469.11" r="2"/>
<circle clip-path="url(#clip742)" style="fill:#009af9; stroke:none; fill-opacity:0" cx="509.419" cy="1486.45" r="2"/>
<circle clip-path="url(#clip742)" style="fill:#009af9; stroke:none; fill-opacity:0" cx="673.393" cy="1486.45" r="2"/>
<circle clip-path="url(#clip742)" style="fill:#009af9; stroke:none; fill-opacity:0" cx="837.368" cy="1469.11" r="2"/>
<circle clip-path="url(#clip742)" style="fill:#009af9; stroke:none; fill-opacity:0" cx="1001.34" cy="1417.09" r="2"/>
<circle clip-path="url(#clip742)" style="fill:#009af9; stroke:none; fill-opacity:0" cx="1165.32" cy="1417.09" r="2"/>
<circle clip-path="url(#clip742)" style="fill:#009af9; stroke:none; fill-opacity:0" cx="1329.29" cy="1417.09" r="2"/>
<circle clip-path="url(#clip742)" style="fill:#009af9; stroke:none; fill-opacity:0" cx="1493.27" cy="1365.07" r="2"/>
<circle clip-path="url(#clip742)" style="fill:#009af9; stroke:none; fill-opacity:0" cx="1657.24" cy="1382.41" r="2"/>
<circle clip-path="url(#clip742)" style="fill:#009af9; stroke:none; fill-opacity:0" cx="1821.22" cy="1330.39" r="2"/>
<circle clip-path="url(#clip742)" style="fill:#009af9; stroke:none; fill-opacity:0" cx="1985.19" cy="1156.99" r="2"/>
<circle clip-path="url(#clip742)" style="fill:#009af9; stroke:none; fill-opacity:0" cx="2149.16" cy="706.157" r="2"/>
<path clip-path="url(#clip742)" d="M263.457 1486.45 L263.457 1486.45 L427.431 1486.45 L427.431 1486.45 L263.457 1486.45 L263.457 1486.45  Z" fill="#e26f46" fill-rule="evenodd" fill-opacity="0.5"/>
<polyline clip-path="url(#clip742)" style="stroke:#000000; stroke-linecap:round; stroke-linejoin:round; stroke-width:4; stroke-opacity:0.5; fill:none" points="263.457,1486.45 263.457,1486.45 427.431,1486.45 263.457,1486.45 "/>
<path clip-path="url(#clip742)" d="M427.431 1469.11 L427.431 1486.45 L591.406 1486.45 L591.406 1469.11 L427.431 1469.11 L427.431 1469.11  Z" fill="#e26f46" fill-rule="evenodd" fill-opacity="0.5"/>
<polyline clip-path="url(#clip742)" style="stroke:#000000; stroke-linecap:round; stroke-linejoin:round; stroke-width:4; stroke-opacity:0.5; fill:none" points="427.431,1469.11 427.431,1486.45 591.406,1486.45 591.406,1469.11 427.431,1469.11 "/>
<path clip-path="url(#clip742)" d="M591.406 1486.45 L591.406 1486.45 L755.38 1486.45 L755.38 1486.45 L591.406 1486.45 L591.406 1486.45  Z" fill="#e26f46" fill-rule="evenodd" fill-opacity="0.5"/>
<polyline clip-path="url(#clip742)" style="stroke:#000000; stroke-linecap:round; stroke-linejoin:round; stroke-width:4; stroke-opacity:0.5; fill:none" points="591.406,1486.45 591.406,1486.45 755.38,1486.45 591.406,1486.45 "/>
<path clip-path="url(#clip742)" d="M755.38 1486.45 L755.38 1486.45 L919.355 1486.45 L919.355 1486.45 L755.38 1486.45 L755.38 1486.45  Z" fill="#e26f46" fill-rule="evenodd" fill-opacity="0.5"/>
<polyline clip-path="url(#clip742)" style="stroke:#000000; stroke-linecap:round; stroke-linejoin:round; stroke-width:4; stroke-opacity:0.5; fill:none" points="755.38,1486.45 755.38,1486.45 919.355,1486.45 755.38,1486.45 "/>
<path clip-path="url(#clip742)" d="M919.355 1486.45 L919.355 1486.45 L1083.33 1486.45 L1083.33 1486.45 L919.355 1486.45 L919.355 1486.45  Z" fill="#e26f46" fill-rule="evenodd" fill-opacity="0.5"/>
<polyline clip-path="url(#clip742)" style="stroke:#000000; stroke-linecap:round; stroke-linejoin:round; stroke-width:4; stroke-opacity:0.5; fill:none" points="919.355,1486.45 919.355,1486.45 1083.33,1486.45 919.355,1486.45 "/>
<path clip-path="url(#clip742)" d="M1083.33 1399.75 L1083.33 1486.45 L1247.3 1486.45 L1247.3 1399.75 L1083.33 1399.75 L1083.33 1399.75  Z" fill="#e26f46" fill-rule="evenodd" fill-opacity="0.5"/>
<polyline clip-path="url(#clip742)" style="stroke:#000000; stroke-linecap:round; stroke-linejoin:round; stroke-width:4; stroke-opacity:0.5; fill:none" points="1083.33,1399.75 1083.33,1486.45 1247.3,1486.45 1247.3,1399.75 1083.33,1399.75 "/>
<path clip-path="url(#clip742)" d="M1247.3 1417.09 L1247.3 1486.45 L1411.28 1486.45 L1411.28 1417.09 L1247.3 1417.09 L1247.3 1417.09  Z" fill="#e26f46" fill-rule="evenodd" fill-opacity="0.5"/>
<polyline clip-path="url(#clip742)" style="stroke:#000000; stroke-linecap:round; stroke-linejoin:round; stroke-width:4; stroke-opacity:0.5; fill:none" points="1247.3,1417.09 1247.3,1486.45 1411.28,1486.45 1411.28,1417.09 1247.3,1417.09 "/>
<path clip-path="url(#clip742)" d="M1411.28 1434.43 L1411.28 1486.45 L1575.25 1486.45 L1575.25 1434.43 L1411.28 1434.43 L1411.28 1434.43  Z" fill="#e26f46" fill-rule="evenodd" fill-opacity="0.5"/>
<polyline clip-path="url(#clip742)" style="stroke:#000000; stroke-linecap:round; stroke-linejoin:round; stroke-width:4; stroke-opacity:0.5; fill:none" points="1411.28,1434.43 1411.28,1486.45 1575.25,1486.45 1575.25,1434.43 1411.28,1434.43 "/>
<path clip-path="url(#clip742)" d="M1575.25 1417.09 L1575.25 1486.45 L1739.23 1486.45 L1739.23 1417.09 L1575.25 1417.09 L1575.25 1417.09  Z" fill="#e26f46" fill-rule="evenodd" fill-opacity="0.5"/>
<polyline clip-path="url(#clip742)" style="stroke:#000000; stroke-linecap:round; stroke-linejoin:round; stroke-width:4; stroke-opacity:0.5; fill:none" points="1575.25,1417.09 1575.25,1486.45 1739.23,1486.45 1739.23,1417.09 1575.25,1417.09 "/>
<path clip-path="url(#clip742)" d="M1739.23 47.2441 L1739.23 1486.45 L1903.2 1486.45 L1903.2 47.2441 L1739.23 47.2441 L1739.23 47.2441  Z" fill="#e26f46" fill-rule="evenodd" fill-opacity="0.5"/>
<polyline clip-path="url(#clip742)" style="stroke:#000000; stroke-linecap:round; stroke-linejoin:round; stroke-width:4; stroke-opacity:0.5; fill:none" points="1739.23,47.2441 1739.23,1486.45 1903.2,1486.45 1903.2,47.2441 1739.23,47.2441 "/>
<path clip-path="url(#clip742)" d="M1903.2 1486.45 L1903.2 1486.45 L2067.18 1486.45 L2067.18 1486.45 L1903.2 1486.45 L1903.2 1486.45  Z" fill="#e26f46" fill-rule="evenodd" fill-opacity="0.5"/>
<polyline clip-path="url(#clip742)" style="stroke:#000000; stroke-linecap:round; stroke-linejoin:round; stroke-width:4; stroke-opacity:0.5; fill:none" points="1903.2,1486.45 1903.2,1486.45 2067.18,1486.45 1903.2,1486.45 "/>
<path clip-path="url(#clip742)" d="M2067.18 1486.45 L2067.18 1486.45 L2231.15 1486.45 L2231.15 1486.45 L2067.18 1486.45 L2067.18 1486.45  Z" fill="#e26f46" fill-rule="evenodd" fill-opacity="0.5"/>
<polyline clip-path="url(#clip742)" style="stroke:#000000; stroke-linecap:round; stroke-linejoin:round; stroke-width:4; stroke-opacity:0.5; fill:none" points="2067.18,1486.45 2067.18,1486.45 2231.15,1486.45 2067.18,1486.45 "/>
<circle clip-path="url(#clip742)" style="fill:#e26f46; stroke:none; fill-opacity:0" cx="345.444" cy="1486.45" r="2"/>
<circle clip-path="url(#clip742)" style="fill:#e26f46; stroke:none; fill-opacity:0" cx="509.419" cy="1469.11" r="2"/>
<circle clip-path="url(#clip742)" style="fill:#e26f46; stroke:none; fill-opacity:0" cx="673.393" cy="1486.45" r="2"/>
<circle clip-path="url(#clip742)" style="fill:#e26f46; stroke:none; fill-opacity:0" cx="837.368" cy="1486.45" r="2"/>
<circle clip-path="url(#clip742)" style="fill:#e26f46; stroke:none; fill-opacity:0" cx="1001.34" cy="1486.45" r="2"/>
<circle clip-path="url(#clip742)" style="fill:#e26f46; stroke:none; fill-opacity:0" cx="1165.32" cy="1399.75" r="2"/>
<circle clip-path="url(#clip742)" style="fill:#e26f46; stroke:none; fill-opacity:0" cx="1329.29" cy="1417.09" r="2"/>
<circle clip-path="url(#clip742)" style="fill:#e26f46; stroke:none; fill-opacity:0" cx="1493.27" cy="1434.43" r="2"/>
<circle clip-path="url(#clip742)" style="fill:#e26f46; stroke:none; fill-opacity:0" cx="1657.24" cy="1417.09" r="2"/>
<circle clip-path="url(#clip742)" style="fill:#e26f46; stroke:none; fill-opacity:0" cx="1821.22" cy="47.2441" r="2"/>
<circle clip-path="url(#clip742)" style="fill:#e26f46; stroke:none; fill-opacity:0" cx="1985.19" cy="1486.45" r="2"/>
<circle clip-path="url(#clip742)" style="fill:#e26f46; stroke:none; fill-opacity:0" cx="2149.16" cy="1486.45" r="2"/>
<path clip-path="url(#clip740)" d="M215.55 250.738 L709.74 250.738 L709.74 95.2176 L215.55 95.2176  Z" fill="#ffffff" fill-rule="evenodd" fill-opacity="1"/>
<polyline clip-path="url(#clip740)" style="stroke:#000000; stroke-linecap:round; stroke-linejoin:round; stroke-width:4; stroke-opacity:1; fill:none" points="215.55,250.738 709.74,250.738 709.74,95.2176 215.55,95.2176 215.55,250.738 "/>
<path clip-path="url(#clip740)" d="M240.115 167.794 L387.509 167.794 L387.509 126.322 L240.115 126.322 L240.115 167.794  Z" fill="#009af9" fill-rule="evenodd" fill-opacity="1"/>
<polyline clip-path="url(#clip740)" style="stroke:#000000; stroke-linecap:round; stroke-linejoin:round; stroke-width:4; stroke-opacity:1; fill:none" points="240.115,167.794 387.509,167.794 387.509,126.322 240.115,126.322 240.115,167.794 "/>
<path clip-path="url(#clip740)" d="M412.074 129.778 L433.926 129.778 L433.926 133.713 L416.75 133.713 L416.75 143.944 L433.209 143.944 L433.209 147.879 L416.75 147.879 L416.75 160.402 L434.343 160.402 L434.343 164.338 L412.074 164.338 L412.074 129.778 Z" fill="#000000" fill-rule="nonzero" fill-opacity="1" /><path clip-path="url(#clip740)" d="M463.394 138.412 L454.019 151.027 L463.88 164.338 L458.857 164.338 L451.31 154.152 L443.764 164.338 L438.741 164.338 L448.81 150.773 L439.597 138.412 L444.621 138.412 L451.496 147.648 L458.37 138.412 L463.394 138.412 Z" fill="#000000" fill-rule="nonzero" fill-opacity="1" /><path clip-path="url(#clip740)" d="M474.019 160.449 L474.019 174.199 L469.736 174.199 L469.736 138.412 L474.019 138.412 L474.019 142.347 Q475.361 140.032 477.398 138.921 Q479.458 137.787 482.306 137.787 Q487.028 137.787 489.968 141.537 Q492.93 145.287 492.93 151.398 Q492.93 157.509 489.968 161.259 Q487.028 165.009 482.306 165.009 Q479.458 165.009 477.398 163.898 Q475.361 162.763 474.019 160.449 M488.509 151.398 Q488.509 146.699 486.565 144.037 Q484.643 141.352 481.264 141.352 Q477.884 141.352 475.94 144.037 Q474.019 146.699 474.019 151.398 Q474.019 156.097 475.94 158.782 Q477.884 161.444 481.264 161.444 Q484.643 161.444 486.565 158.782 Q488.509 156.097 488.509 151.398 Z" fill="#000000" fill-rule="nonzero" fill-opacity="1" /><path clip-path="url(#clip740)" d="M522.166 150.31 L522.166 152.393 L502.583 152.393 Q502.861 156.791 505.222 159.106 Q507.606 161.398 511.842 161.398 Q514.296 161.398 516.588 160.796 Q518.903 160.194 521.171 158.99 L521.171 163.018 Q518.879 163.99 516.472 164.5 Q514.065 165.009 511.588 165.009 Q505.384 165.009 501.75 161.398 Q498.139 157.787 498.139 151.629 Q498.139 145.264 501.565 141.537 Q505.014 137.787 510.847 137.787 Q516.078 137.787 519.111 141.166 Q522.166 144.523 522.166 150.31 M517.907 149.06 Q517.861 145.565 515.94 143.481 Q514.041 141.398 510.893 141.398 Q507.329 141.398 505.176 143.412 Q503.046 145.426 502.722 149.083 L517.907 149.06 Z" fill="#000000" fill-rule="nonzero" fill-opacity="1" /><path clip-path="url(#clip740)" d="M547.814 139.407 L547.814 143.389 Q546.009 142.393 544.18 141.907 Q542.375 141.398 540.523 141.398 Q536.379 141.398 534.088 144.037 Q531.796 146.652 531.796 151.398 Q531.796 156.143 534.088 158.782 Q536.379 161.398 540.523 161.398 Q542.375 161.398 544.18 160.912 Q546.009 160.402 547.814 159.407 L547.814 163.342 Q546.032 164.176 544.111 164.592 Q542.213 165.009 540.06 165.009 Q534.203 165.009 530.754 161.328 Q527.305 157.648 527.305 151.398 Q527.305 145.055 530.777 141.421 Q534.273 137.787 540.338 137.787 Q542.305 137.787 544.18 138.203 Q546.055 138.597 547.814 139.407 Z" fill="#000000" fill-rule="nonzero" fill-opacity="1" /><path clip-path="url(#clip740)" d="M559.435 131.051 L559.435 138.412 L568.208 138.412 L568.208 141.722 L559.435 141.722 L559.435 155.796 Q559.435 158.967 560.291 159.87 Q561.171 160.773 563.833 160.773 L568.208 160.773 L568.208 164.338 L563.833 164.338 Q558.902 164.338 557.027 162.509 Q555.152 160.657 555.152 155.796 L555.152 141.722 L552.027 141.722 L552.027 138.412 L555.152 138.412 L555.152 131.051 L559.435 131.051 Z" fill="#000000" fill-rule="nonzero" fill-opacity="1" /><path clip-path="url(#clip740)" d="M585.592 151.305 Q580.43 151.305 578.439 152.486 Q576.449 153.666 576.449 156.514 Q576.449 158.782 577.93 160.125 Q579.435 161.444 582.004 161.444 Q585.546 161.444 587.675 158.944 Q589.828 156.421 589.828 152.254 L589.828 151.305 L585.592 151.305 M594.087 149.546 L594.087 164.338 L589.828 164.338 L589.828 160.402 Q588.37 162.763 586.194 163.898 Q584.018 165.009 580.87 165.009 Q576.888 165.009 574.527 162.787 Q572.189 160.541 572.189 156.791 Q572.189 152.416 575.106 150.194 Q578.046 147.972 583.856 147.972 L589.828 147.972 L589.828 147.555 Q589.828 144.615 587.884 143.018 Q585.962 141.398 582.467 141.398 Q580.245 141.398 578.138 141.93 Q576.032 142.463 574.087 143.527 L574.087 139.592 Q576.425 138.69 578.624 138.25 Q580.824 137.787 582.907 137.787 Q588.532 137.787 591.31 140.703 Q594.087 143.62 594.087 149.546 Z" fill="#000000" fill-rule="nonzero" fill-opacity="1" /><path clip-path="url(#clip740)" d="M607.073 131.051 L607.073 138.412 L615.846 138.412 L615.846 141.722 L607.073 141.722 L607.073 155.796 Q607.073 158.967 607.93 159.87 Q608.809 160.773 611.471 160.773 L615.846 160.773 L615.846 164.338 L611.471 164.338 Q606.541 164.338 604.666 162.509 Q602.791 160.657 602.791 155.796 L602.791 141.722 L599.666 141.722 L599.666 138.412 L602.791 138.412 L602.791 131.051 L607.073 131.051 Z" fill="#000000" fill-rule="nonzero" fill-opacity="1" /><path clip-path="url(#clip740)" d="M621.448 138.412 L625.708 138.412 L625.708 164.338 L621.448 164.338 L621.448 138.412 M621.448 128.319 L625.708 128.319 L625.708 133.713 L621.448 133.713 L621.448 128.319 Z" fill="#000000" fill-rule="nonzero" fill-opacity="1" /><path clip-path="url(#clip740)" d="M644.666 141.398 Q641.24 141.398 639.249 144.083 Q637.258 146.745 637.258 151.398 Q637.258 156.051 639.226 158.736 Q641.217 161.398 644.666 161.398 Q648.069 161.398 650.059 158.713 Q652.05 156.027 652.05 151.398 Q652.05 146.791 650.059 144.106 Q648.069 141.398 644.666 141.398 M644.666 137.787 Q650.221 137.787 653.393 141.398 Q656.564 145.009 656.564 151.398 Q656.564 157.764 653.393 161.398 Q650.221 165.009 644.666 165.009 Q639.087 165.009 635.916 161.398 Q632.768 157.764 632.768 151.398 Q632.768 145.009 635.916 141.398 Q639.087 137.787 644.666 137.787 Z" fill="#000000" fill-rule="nonzero" fill-opacity="1" /><path clip-path="url(#clip740)" d="M685.175 148.689 L685.175 164.338 L680.916 164.338 L680.916 148.828 Q680.916 145.148 679.48 143.319 Q678.045 141.49 675.175 141.49 Q671.726 141.49 669.735 143.69 Q667.744 145.889 667.744 149.685 L667.744 164.338 L663.462 164.338 L663.462 138.412 L667.744 138.412 L667.744 142.44 Q669.272 140.102 671.332 138.944 Q673.416 137.787 676.124 137.787 Q680.591 137.787 682.883 140.565 Q685.175 143.319 685.175 148.689 Z" fill="#000000" fill-rule="nonzero" fill-opacity="1" /><path clip-path="url(#clip740)" d="M240.115 219.634 L387.509 219.634 L387.509 178.162 L240.115 178.162 L240.115 219.634  Z" fill="#e26f46" fill-rule="evenodd" fill-opacity="0.5"/>
<polyline clip-path="url(#clip740)" style="stroke:#000000; stroke-linecap:round; stroke-linejoin:round; stroke-width:4; stroke-opacity:1; fill:none" points="240.115,219.634 387.509,219.634 387.509,178.162 240.115,178.162 240.115,219.634 "/>
<path clip-path="url(#clip740)" d="M439.945 184.28 L439.945 189.21 Q437.584 187.011 434.898 185.923 Q432.236 184.835 429.227 184.835 Q423.301 184.835 420.153 188.469 Q417.005 192.08 417.005 198.932 Q417.005 205.761 420.153 209.395 Q423.301 213.006 429.227 213.006 Q432.236 213.006 434.898 211.918 Q437.584 210.83 439.945 208.631 L439.945 213.516 Q437.491 215.182 434.736 216.016 Q432.005 216.849 428.949 216.849 Q421.102 216.849 416.588 212.057 Q412.074 207.242 412.074 198.932 Q412.074 190.599 416.588 185.807 Q421.102 180.993 428.949 180.993 Q432.051 180.993 434.783 181.826 Q437.537 182.636 439.945 184.28 Z" fill="#000000" fill-rule="nonzero" fill-opacity="1" /><path clip-path="url(#clip740)" d="M456.079 216.178 L442.884 181.618 L447.769 181.618 L458.718 210.715 L469.69 181.618 L474.551 181.618 L461.38 216.178 L456.079 216.178 Z" fill="#000000" fill-rule="nonzero" fill-opacity="1" /><path clip-path="url(#clip740)" d="M492.583 203.747 Q492.583 207.057 494.227 208.955 Q495.87 210.83 498.741 210.83 Q501.588 210.83 503.208 208.932 Q504.852 207.034 504.852 203.747 Q504.852 200.506 503.185 198.608 Q501.518 196.687 498.694 196.687 Q495.893 196.687 494.227 198.585 Q492.583 200.483 492.583 203.747 M505.199 210.668 Q503.81 212.451 502.004 213.307 Q500.222 214.141 497.838 214.141 Q493.856 214.141 491.356 211.27 Q488.88 208.377 488.88 203.747 Q488.88 199.117 491.38 196.224 Q493.88 193.33 497.838 193.33 Q500.222 193.33 502.028 194.21 Q503.833 195.067 505.199 196.826 L505.199 193.793 L508.509 193.793 L508.509 210.83 Q511.889 210.321 513.787 207.752 Q515.708 205.159 515.708 201.062 Q515.708 198.585 514.967 196.409 Q514.25 194.233 512.768 192.381 Q510.361 189.349 506.889 187.752 Q503.44 186.131 499.366 186.131 Q496.518 186.131 493.903 186.895 Q491.287 187.636 489.065 189.118 Q485.431 191.479 483.37 195.321 Q481.333 199.141 481.333 203.608 Q481.333 207.289 482.653 210.506 Q483.995 213.724 486.518 216.178 Q488.949 218.585 492.143 219.835 Q495.338 221.108 498.972 221.108 Q501.958 221.108 504.829 220.09 Q507.722 219.094 510.129 217.219 L512.213 219.789 Q509.319 222.034 505.893 223.215 Q502.491 224.418 498.972 224.418 Q494.69 224.418 490.893 222.89 Q487.097 221.386 484.134 218.492 Q481.171 215.599 479.62 211.803 Q478.069 207.983 478.069 203.608 Q478.069 199.395 479.643 195.576 Q481.218 191.756 484.134 188.863 Q487.12 185.923 491.032 184.372 Q494.944 182.798 499.319 182.798 Q504.227 182.798 508.416 184.812 Q512.629 186.826 515.477 190.53 Q517.213 192.798 518.116 195.46 Q519.041 198.122 519.041 200.969 Q519.041 207.057 515.361 210.576 Q511.68 214.094 505.199 214.233 L505.199 210.668 Z" fill="#000000" fill-rule="nonzero" fill-opacity="1" /><path clip-path="url(#clip740)" d="M543.393 199.974 Q544.898 200.483 546.31 202.15 Q547.745 203.817 549.18 206.733 L553.926 216.178 L548.902 216.178 L544.481 207.312 Q542.768 203.84 541.148 202.705 Q539.551 201.571 536.773 201.571 L531.68 201.571 L531.68 216.178 L527.004 216.178 L527.004 181.618 L537.56 181.618 Q543.486 181.618 546.402 184.094 Q549.319 186.571 549.319 191.571 Q549.319 194.835 547.791 196.988 Q546.287 199.141 543.393 199.974 M531.68 185.46 L531.68 197.729 L537.56 197.729 Q540.939 197.729 542.652 196.178 Q544.389 194.604 544.389 191.571 Q544.389 188.539 542.652 187.011 Q540.939 185.46 537.56 185.46 L531.68 185.46 Z" fill="#000000" fill-rule="nonzero" fill-opacity="1" /></svg>
