<?xml version="1.0" encoding="utf-8"?>
<svg xmlns="http://www.w3.org/2000/svg" xmlns:xlink="http://www.w3.org/1999/xlink" width="600" height="400" viewBox="0 0 2400 1600">
<defs>
  <clipPath id="clip210">
    <rect x="0" y="0" width="2400" height="1600"/>
  </clipPath>
</defs>
<path clip-path="url(#clip210)" d="M0 1600 L2400 1600 L2400 0 L0 0  Z" fill="#ffffff" fill-rule="evenodd" fill-opacity="1"/>
<defs>
  <clipPath id="clip211">
    <rect x="480" y="0" width="1681" height="1600"/>
  </clipPath>
</defs>
<path clip-path="url(#clip210)" d="M138.959 1423.18 L2352.76 1423.18 L2352.76 47.2441 L138.959 47.2441  Z" fill="#ffffff" fill-rule="evenodd" fill-opacity="1"/>
<defs>
  <clipPath id="clip212">
    <rect x="138" y="47" width="2215" height="1377"/>
  </clipPath>
</defs>
<polyline clip-path="url(#clip212)" style="stroke:#000000; stroke-linecap:round; stroke-linejoin:round; stroke-width:2; stroke-opacity:0.1; fill:none" points="260.722,1423.18 260.722,47.2441 "/>
<polyline clip-path="url(#clip212)" style="stroke:#000000; stroke-linecap:round; stroke-linejoin:round; stroke-width:2; stroke-opacity:0.1; fill:none" points="724.315,1423.18 724.315,47.2441 "/>
<polyline clip-path="url(#clip212)" style="stroke:#000000; stroke-linecap:round; stroke-linejoin:round; stroke-width:2; stroke-opacity:0.1; fill:none" points="1187.91,1423.18 1187.91,47.2441 "/>
<polyline clip-path="url(#clip212)" style="stroke:#000000; stroke-linecap:round; stroke-linejoin:round; stroke-width:2; stroke-opacity:0.1; fill:none" points="1651.5,1423.18 1651.5,47.2441 "/>
<polyline clip-path="url(#clip212)" style="stroke:#000000; stroke-linecap:round; stroke-linejoin:round; stroke-width:2; stroke-opacity:0.1; fill:none" points="2115.09,1423.18 2115.09,47.2441 "/>
<polyline clip-path="url(#clip210)" style="stroke:#000000; stroke-linecap:round; stroke-linejoin:round; stroke-width:4; stroke-opacity:1; fill:none" points="138.959,1423.18 2352.76,1423.18 "/>
<polyline clip-path="url(#clip210)" style="stroke:#000000; stroke-linecap:round; stroke-linejoin:round; stroke-width:4; stroke-opacity:1; fill:none" points="260.722,1423.18 260.722,1404.28 "/>
<polyline clip-path="url(#clip210)" style="stroke:#000000; stroke-linecap:round; stroke-linejoin:round; stroke-width:4; stroke-opacity:1; fill:none" points="724.315,1423.18 724.315,1404.28 "/>
<polyline clip-path="url(#clip210)" style="stroke:#000000; stroke-linecap:round; stroke-linejoin:round; stroke-width:4; stroke-opacity:1; fill:none" points="1187.91,1423.18 1187.91,1404.28 "/>
<polyline clip-path="url(#clip210)" style="stroke:#000000; stroke-linecap:round; stroke-linejoin:round; stroke-width:4; stroke-opacity:1; fill:none" points="1651.5,1423.18 1651.5,1404.28 "/>
<polyline clip-path="url(#clip210)" style="stroke:#000000; stroke-linecap:round; stroke-linejoin:round; stroke-width:4; stroke-opacity:1; fill:none" points="2115.09,1423.18 2115.09,1404.28 "/>
<path clip-path="url(#clip210)" d="M220.329 1481.64 L227.968 1481.64 L227.968 1455.28 L219.658 1456.95 L219.658 1452.69 L227.921 1451.02 L232.597 1451.02 L232.597 1481.64 L240.236 1481.64 L240.236 1485.58 L220.329 1485.58 L220.329 1481.64 Z" fill="#000000" fill-rule="nonzero" fill-opacity="1" /><path clip-path="url(#clip210)" d="M260.259 1466.44 Q257.111 1466.44 255.259 1468.59 Q253.431 1470.74 253.431 1474.49 Q253.431 1478.22 255.259 1480.39 Q257.111 1482.55 260.259 1482.55 Q263.407 1482.55 265.236 1480.39 Q267.088 1478.22 267.088 1474.49 Q267.088 1470.74 265.236 1468.59 Q263.407 1466.44 260.259 1466.44 M269.542 1451.78 L269.542 1456.04 Q267.782 1455.21 265.977 1454.77 Q264.194 1454.33 262.435 1454.33 Q257.806 1454.33 255.352 1457.45 Q252.921 1460.58 252.574 1466.9 Q253.94 1464.89 256 1463.82 Q258.06 1462.73 260.537 1462.73 Q265.745 1462.73 268.755 1465.9 Q271.787 1469.05 271.787 1474.49 Q271.787 1479.82 268.639 1483.03 Q265.491 1486.25 260.259 1486.25 Q254.264 1486.25 251.093 1481.67 Q247.921 1477.06 247.921 1468.33 Q247.921 1460.14 251.81 1455.28 Q255.699 1450.39 262.25 1450.39 Q264.009 1450.39 265.792 1450.74 Q267.597 1451.09 269.542 1451.78 Z" fill="#000000" fill-rule="nonzero" fill-opacity="1" /><path clip-path="url(#clip210)" d="M289.842 1454.1 Q286.231 1454.1 284.403 1457.66 Q282.597 1461.2 282.597 1468.33 Q282.597 1475.44 284.403 1479.01 Q286.231 1482.55 289.842 1482.55 Q293.477 1482.55 295.282 1479.01 Q297.111 1475.44 297.111 1468.33 Q297.111 1461.2 295.282 1457.66 Q293.477 1454.1 289.842 1454.1 M289.842 1450.39 Q295.653 1450.39 298.708 1455 Q301.787 1459.58 301.787 1468.33 Q301.787 1477.06 298.708 1481.67 Q295.653 1486.25 289.842 1486.25 Q284.032 1486.25 280.954 1481.67 Q277.898 1477.06 277.898 1468.33 Q277.898 1459.58 280.954 1455 Q284.032 1450.39 289.842 1450.39 Z" fill="#000000" fill-rule="nonzero" fill-opacity="1" /><path clip-path="url(#clip210)" d="M683.922 1481.64 L691.561 1481.64 L691.561 1455.28 L683.251 1456.95 L683.251 1452.69 L691.515 1451.02 L696.191 1451.02 L696.191 1481.64 L703.829 1481.64 L703.829 1485.58 L683.922 1485.58 L683.922 1481.64 Z" fill="#000000" fill-rule="nonzero" fill-opacity="1" /><path clip-path="url(#clip210)" d="M723.274 1469.17 Q719.94 1469.17 718.019 1470.95 Q716.121 1472.73 716.121 1475.86 Q716.121 1478.98 718.019 1480.77 Q719.94 1482.55 723.274 1482.55 Q726.607 1482.55 728.528 1480.77 Q730.45 1478.96 730.45 1475.86 Q730.45 1472.73 728.528 1470.95 Q726.63 1469.17 723.274 1469.17 M718.598 1467.18 Q715.589 1466.44 713.899 1464.38 Q712.232 1462.32 712.232 1459.35 Q712.232 1455.21 715.172 1452.8 Q718.135 1450.39 723.274 1450.39 Q728.436 1450.39 731.376 1452.8 Q734.315 1455.21 734.315 1459.35 Q734.315 1462.32 732.625 1464.38 Q730.959 1466.44 727.973 1467.18 Q731.352 1467.96 733.227 1470.26 Q735.125 1472.55 735.125 1475.86 Q735.125 1480.88 732.047 1483.57 Q728.991 1486.25 723.274 1486.25 Q717.556 1486.25 714.477 1483.57 Q711.422 1480.88 711.422 1475.86 Q711.422 1472.55 713.32 1470.26 Q715.218 1467.96 718.598 1467.18 M716.885 1459.79 Q716.885 1462.48 718.551 1463.98 Q720.241 1465.49 723.274 1465.49 Q726.283 1465.49 727.973 1463.98 Q729.686 1462.48 729.686 1459.79 Q729.686 1457.11 727.973 1455.6 Q726.283 1454.1 723.274 1454.1 Q720.241 1454.1 718.551 1455.6 Q716.885 1457.11 716.885 1459.79 Z" fill="#000000" fill-rule="nonzero" fill-opacity="1" /><path clip-path="url(#clip210)" d="M753.436 1454.1 Q749.824 1454.1 747.996 1457.66 Q746.19 1461.2 746.19 1468.33 Q746.19 1475.44 747.996 1479.01 Q749.824 1482.55 753.436 1482.55 Q757.07 1482.55 758.875 1479.01 Q760.704 1475.44 760.704 1468.33 Q760.704 1461.2 758.875 1457.66 Q757.07 1454.1 753.436 1454.1 M753.436 1450.39 Q759.246 1450.39 762.301 1455 Q765.38 1459.58 765.38 1468.33 Q765.38 1477.06 762.301 1481.67 Q759.246 1486.25 753.436 1486.25 Q747.625 1486.25 744.547 1481.67 Q741.491 1477.06 741.491 1468.33 Q741.491 1459.58 744.547 1455 Q747.625 1450.39 753.436 1450.39 Z" fill="#000000" fill-rule="nonzero" fill-opacity="1" /><path clip-path="url(#clip210)" d="M1151.6 1481.64 L1167.92 1481.64 L1167.92 1485.58 L1145.98 1485.58 L1145.98 1481.64 Q1148.64 1478.89 1153.22 1474.26 Q1157.83 1469.61 1159.01 1468.27 Q1161.25 1465.74 1162.13 1464.01 Q1163.04 1462.25 1163.04 1460.56 Q1163.04 1457.8 1161.09 1456.07 Q1159.17 1454.33 1156.07 1454.33 Q1153.87 1454.33 1151.42 1455.09 Q1148.99 1455.86 1146.21 1457.41 L1146.21 1452.69 Q1149.03 1451.55 1151.49 1450.97 Q1153.94 1450.39 1155.98 1450.39 Q1161.35 1450.39 1164.54 1453.08 Q1167.74 1455.77 1167.74 1460.26 Q1167.74 1462.39 1166.92 1464.31 Q1166.14 1466.2 1164.03 1468.8 Q1163.45 1469.47 1160.35 1472.69 Q1157.25 1475.88 1151.6 1481.64 Z" fill="#000000" fill-rule="nonzero" fill-opacity="1" /><path clip-path="url(#clip210)" d="M1187.73 1454.1 Q1184.12 1454.1 1182.3 1457.66 Q1180.49 1461.2 1180.49 1468.33 Q1180.49 1475.44 1182.3 1479.01 Q1184.12 1482.55 1187.73 1482.55 Q1191.37 1482.55 1193.17 1479.01 Q1195 1475.44 1195 1468.33 Q1195 1461.2 1193.17 1457.66 Q1191.37 1454.1 1187.73 1454.1 M1187.73 1450.39 Q1193.55 1450.39 1196.6 1455 Q1199.68 1459.58 1199.68 1468.33 Q1199.68 1477.06 1196.6 1481.67 Q1193.55 1486.25 1187.73 1486.25 Q1181.92 1486.25 1178.85 1481.67 Q1175.79 1477.06 1175.79 1468.33 Q1175.79 1459.58 1178.85 1455 Q1181.92 1450.39 1187.73 1450.39 Z" fill="#000000" fill-rule="nonzero" fill-opacity="1" /><path clip-path="url(#clip210)" d="M1217.9 1454.1 Q1214.29 1454.1 1212.46 1457.66 Q1210.65 1461.2 1210.65 1468.33 Q1210.65 1475.44 1212.46 1479.01 Q1214.29 1482.55 1217.9 1482.55 Q1221.53 1482.55 1223.34 1479.01 Q1225.17 1475.44 1225.17 1468.33 Q1225.17 1461.2 1223.34 1457.66 Q1221.53 1454.1 1217.9 1454.1 M1217.9 1450.39 Q1223.71 1450.39 1226.76 1455 Q1229.84 1459.58 1229.84 1468.33 Q1229.84 1477.06 1226.76 1481.67 Q1223.71 1486.25 1217.9 1486.25 Q1212.09 1486.25 1209.01 1481.67 Q1205.95 1477.06 1205.95 1468.33 Q1205.95 1459.58 1209.01 1455 Q1212.09 1450.39 1217.9 1450.39 Z" fill="#000000" fill-rule="nonzero" fill-opacity="1" /><path clip-path="url(#clip210)" d="M1615.19 1481.64 L1631.51 1481.64 L1631.51 1485.58 L1609.57 1485.58 L1609.57 1481.64 Q1612.23 1478.89 1616.81 1474.26 Q1621.42 1469.61 1622.6 1468.27 Q1624.85 1465.74 1625.73 1464.01 Q1626.63 1462.25 1626.63 1460.56 Q1626.63 1457.8 1624.68 1456.07 Q1622.76 1454.33 1619.66 1454.33 Q1617.46 1454.33 1615.01 1455.09 Q1612.58 1455.86 1609.8 1457.41 L1609.8 1452.69 Q1612.62 1451.55 1615.08 1450.97 Q1617.53 1450.39 1619.57 1450.39 Q1624.94 1450.39 1628.13 1453.08 Q1631.33 1455.77 1631.33 1460.26 Q1631.33 1462.39 1630.52 1464.31 Q1629.73 1466.2 1627.62 1468.8 Q1627.05 1469.47 1623.94 1472.69 Q1620.84 1475.88 1615.19 1481.64 Z" fill="#000000" fill-rule="nonzero" fill-opacity="1" /><path clip-path="url(#clip210)" d="M1645.36 1481.64 L1661.68 1481.64 L1661.68 1485.58 L1639.73 1485.58 L1639.73 1481.64 Q1642.39 1478.89 1646.98 1474.26 Q1651.58 1469.61 1652.76 1468.27 Q1655.01 1465.74 1655.89 1464.01 Q1656.79 1462.25 1656.79 1460.56 Q1656.79 1457.8 1654.85 1456.07 Q1652.93 1454.33 1649.82 1454.33 Q1647.62 1454.33 1645.17 1455.09 Q1642.74 1455.86 1639.96 1457.41 L1639.96 1452.69 Q1642.79 1451.55 1645.24 1450.97 Q1647.69 1450.39 1649.73 1450.39 Q1655.1 1450.39 1658.3 1453.08 Q1661.49 1455.77 1661.49 1460.26 Q1661.49 1462.39 1660.68 1464.31 Q1659.89 1466.2 1657.79 1468.8 Q1657.21 1469.47 1654.11 1472.69 Q1651 1475.88 1645.36 1481.64 Z" fill="#000000" fill-rule="nonzero" fill-opacity="1" /><path clip-path="url(#clip210)" d="M1681.49 1454.1 Q1677.88 1454.1 1676.05 1457.66 Q1674.24 1461.2 1674.24 1468.33 Q1674.24 1475.44 1676.05 1479.01 Q1677.88 1482.55 1681.49 1482.55 Q1685.12 1482.55 1686.93 1479.01 Q1688.76 1475.44 1688.76 1468.33 Q1688.76 1461.2 1686.93 1457.66 Q1685.12 1454.1 1681.49 1454.1 M1681.49 1450.39 Q1687.3 1450.39 1690.36 1455 Q1693.43 1459.58 1693.43 1468.33 Q1693.43 1477.06 1690.36 1481.67 Q1687.3 1486.25 1681.49 1486.25 Q1675.68 1486.25 1672.6 1481.67 Q1669.55 1477.06 1669.55 1468.33 Q1669.55 1459.58 1672.6 1455 Q1675.68 1450.39 1681.49 1450.39 Z" fill="#000000" fill-rule="nonzero" fill-opacity="1" /><path clip-path="url(#clip210)" d="M2078.79 1481.64 L2095.11 1481.64 L2095.11 1485.58 L2073.16 1485.58 L2073.16 1481.64 Q2075.82 1478.89 2080.41 1474.26 Q2085.01 1469.61 2086.19 1468.27 Q2088.44 1465.74 2089.32 1464.01 Q2090.22 1462.25 2090.22 1460.56 Q2090.22 1457.8 2088.28 1456.07 Q2086.36 1454.33 2083.25 1454.33 Q2081.06 1454.33 2078.6 1455.09 Q2076.17 1455.86 2073.39 1457.41 L2073.39 1452.69 Q2076.22 1451.55 2078.67 1450.97 Q2081.13 1450.39 2083.16 1450.39 Q2088.53 1450.39 2091.73 1453.08 Q2094.92 1455.77 2094.92 1460.26 Q2094.92 1462.39 2094.11 1464.31 Q2093.32 1466.2 2091.22 1468.8 Q2090.64 1469.47 2087.54 1472.69 Q2084.44 1475.88 2078.79 1481.64 Z" fill="#000000" fill-rule="nonzero" fill-opacity="1" /><path clip-path="url(#clip210)" d="M2117.77 1455.09 L2105.96 1473.54 L2117.77 1473.54 L2117.77 1455.09 M2116.54 1451.02 L2122.42 1451.02 L2122.42 1473.54 L2127.35 1473.54 L2127.35 1477.43 L2122.42 1477.43 L2122.42 1485.58 L2117.77 1485.58 L2117.77 1477.43 L2102.17 1477.43 L2102.17 1472.92 L2116.54 1451.02 Z" fill="#000000" fill-rule="nonzero" fill-opacity="1" /><path clip-path="url(#clip210)" d="M2145.08 1454.1 Q2141.47 1454.1 2139.64 1457.66 Q2137.84 1461.2 2137.84 1468.33 Q2137.84 1475.44 2139.64 1479.01 Q2141.47 1482.55 2145.08 1482.55 Q2148.72 1482.55 2150.52 1479.01 Q2152.35 1475.44 2152.35 1468.33 Q2152.35 1461.2 2150.52 1457.66 Q2148.72 1454.1 2145.08 1454.1 M2145.08 1450.39 Q2150.89 1450.39 2153.95 1455 Q2157.03 1459.58 2157.03 1468.33 Q2157.03 1477.06 2153.95 1481.67 Q2150.89 1486.25 2145.08 1486.25 Q2139.27 1486.25 2136.19 1481.67 Q2133.14 1477.06 2133.14 1468.33 Q2133.14 1459.58 2136.19 1455 Q2139.27 1450.39 2145.08 1450.39 Z" fill="#000000" fill-rule="nonzero" fill-opacity="1" /><path clip-path="url(#clip210)" d="M1120.23 1525.81 L1120.23 1562.76 L1128 1562.76 Q1137.83 1562.76 1142.38 1558.3 Q1146.97 1553.85 1146.97 1544.24 Q1146.97 1534.69 1142.38 1530.26 Q1137.83 1525.81 1128 1525.81 L1120.23 1525.81 M1113.8 1520.52 L1127.01 1520.52 Q1140.82 1520.52 1147.28 1526.28 Q1153.75 1532.01 1153.75 1544.24 Q1153.75 1556.52 1147.25 1562.28 Q1140.76 1568.04 1127.01 1568.04 L1113.8 1568.04 L1113.8 1520.52 Z" fill="#000000" fill-rule="nonzero" fill-opacity="1" /><path clip-path="url(#clip210)" d="M1194.23 1548.76 L1194.23 1551.62 L1167.3 1551.62 Q1167.69 1557.67 1170.93 1560.85 Q1174.21 1564 1180.04 1564 Q1183.41 1564 1186.56 1563.17 Q1189.74 1562.35 1192.86 1560.69 L1192.86 1566.23 Q1189.71 1567.57 1186.4 1568.27 Q1183.09 1568.97 1179.69 1568.97 Q1171.16 1568.97 1166.16 1564 Q1161.19 1559.04 1161.19 1550.57 Q1161.19 1541.82 1165.9 1536.69 Q1170.65 1531.54 1178.67 1531.54 Q1185.86 1531.54 1190.03 1536.18 Q1194.23 1540.8 1194.23 1548.76 M1188.38 1547.04 Q1188.31 1542.23 1185.67 1539.37 Q1183.06 1536.5 1178.73 1536.5 Q1173.83 1536.5 1170.87 1539.27 Q1167.94 1542.04 1167.5 1547.07 L1188.38 1547.04 Z" fill="#000000" fill-rule="nonzero" fill-opacity="1" /><path clip-path="url(#clip210)" d="M1231.6 1539.24 Q1233.79 1535.29 1236.85 1533.41 Q1239.91 1531.54 1244.04 1531.54 Q1249.61 1531.54 1252.64 1535.45 Q1255.66 1539.33 1255.66 1546.53 L1255.66 1568.04 L1249.77 1568.04 L1249.77 1546.72 Q1249.77 1541.59 1247.96 1539.11 Q1246.14 1536.63 1242.42 1536.63 Q1237.87 1536.63 1235.23 1539.65 Q1232.59 1542.68 1232.59 1547.9 L1232.59 1568.04 L1226.7 1568.04 L1226.7 1546.72 Q1226.7 1541.56 1224.88 1539.11 Q1223.07 1536.63 1219.28 1536.63 Q1214.79 1536.63 1212.15 1539.68 Q1209.51 1542.71 1209.51 1547.9 L1209.51 1568.04 L1203.62 1568.04 L1203.62 1532.4 L1209.51 1532.4 L1209.51 1537.93 Q1211.51 1534.66 1214.32 1533.1 Q1217.12 1531.54 1220.97 1531.54 Q1224.85 1531.54 1227.56 1533.51 Q1230.29 1535.48 1231.6 1539.24 Z" fill="#000000" fill-rule="nonzero" fill-opacity="1" /><path clip-path="url(#clip210)" d="M1283.54 1550.12 Q1276.44 1550.12 1273.71 1551.75 Q1270.97 1553.37 1270.97 1557.29 Q1270.97 1560.4 1273.01 1562.25 Q1275.08 1564.07 1278.61 1564.07 Q1283.48 1564.07 1286.41 1560.63 Q1289.37 1557.16 1289.37 1551.43 L1289.37 1550.12 L1283.54 1550.12 M1295.22 1547.71 L1295.22 1568.04 L1289.37 1568.04 L1289.37 1562.63 Q1287.36 1565.88 1284.37 1567.44 Q1281.38 1568.97 1277.05 1568.97 Q1271.58 1568.97 1268.33 1565.91 Q1265.11 1562.82 1265.11 1557.67 Q1265.11 1551.65 1269.12 1548.6 Q1273.17 1545.54 1281.16 1545.54 L1289.37 1545.54 L1289.37 1544.97 Q1289.37 1540.93 1286.69 1538.73 Q1284.05 1536.5 1279.25 1536.5 Q1276.19 1536.5 1273.29 1537.23 Q1270.4 1537.97 1267.72 1539.43 L1267.72 1534.02 Q1270.94 1532.78 1273.96 1532.17 Q1276.99 1531.54 1279.85 1531.54 Q1287.58 1531.54 1291.4 1535.55 Q1295.22 1539.56 1295.22 1547.71 Z" fill="#000000" fill-rule="nonzero" fill-opacity="1" /><path clip-path="url(#clip210)" d="M1336.92 1546.53 L1336.92 1568.04 L1331.06 1568.04 L1331.06 1546.72 Q1331.06 1541.66 1329.09 1539.14 Q1327.12 1536.63 1323.17 1536.63 Q1318.43 1536.63 1315.69 1539.65 Q1312.95 1542.68 1312.95 1547.9 L1312.95 1568.04 L1307.06 1568.04 L1307.06 1532.4 L1312.95 1532.4 L1312.95 1537.93 Q1315.05 1534.72 1317.89 1533.13 Q1320.75 1531.54 1324.47 1531.54 Q1330.62 1531.54 1333.77 1535.36 Q1336.92 1539.14 1336.92 1546.53 Z" fill="#000000" fill-rule="nonzero" fill-opacity="1" /><path clip-path="url(#clip210)" d="M1372.06 1537.81 L1372.06 1518.52 L1377.91 1518.52 L1377.91 1568.04 L1372.06 1568.04 L1372.06 1562.7 Q1370.21 1565.88 1367.38 1567.44 Q1364.58 1568.97 1360.63 1568.97 Q1354.17 1568.97 1350.1 1563.81 Q1346.05 1558.65 1346.05 1550.25 Q1346.05 1541.85 1350.1 1536.69 Q1354.17 1531.54 1360.63 1531.54 Q1364.58 1531.54 1367.38 1533.1 Q1370.21 1534.62 1372.06 1537.81 M1352.1 1550.25 Q1352.1 1556.71 1354.74 1560.4 Q1357.42 1564.07 1362.06 1564.07 Q1366.71 1564.07 1369.38 1560.4 Q1372.06 1556.71 1372.06 1550.25 Q1372.06 1543.79 1369.38 1540.13 Q1366.71 1536.44 1362.06 1536.44 Q1357.42 1536.44 1354.74 1540.13 Q1352.1 1543.79 1352.1 1550.25 Z" fill="#000000" fill-rule="nonzero" fill-opacity="1" /><polyline clip-path="url(#clip212)" style="stroke:#000000; stroke-linecap:round; stroke-linejoin:round; stroke-width:2; stroke-opacity:0.1; fill:none" points="138.959,1423.18 2352.76,1423.18 "/>
<polyline clip-path="url(#clip212)" style="stroke:#000000; stroke-linecap:round; stroke-linejoin:round; stroke-width:2; stroke-opacity:0.1; fill:none" points="138.959,1193.86 2352.76,1193.86 "/>
<polyline clip-path="url(#clip212)" style="stroke:#000000; stroke-linecap:round; stroke-linejoin:round; stroke-width:2; stroke-opacity:0.1; fill:none" points="138.959,964.535 2352.76,964.535 "/>
<polyline clip-path="url(#clip212)" style="stroke:#000000; stroke-linecap:round; stroke-linejoin:round; stroke-width:2; stroke-opacity:0.1; fill:none" points="138.959,735.212 2352.76,735.212 "/>
<polyline clip-path="url(#clip212)" style="stroke:#000000; stroke-linecap:round; stroke-linejoin:round; stroke-width:2; stroke-opacity:0.1; fill:none" points="138.959,505.889 2352.76,505.889 "/>
<polyline clip-path="url(#clip212)" style="stroke:#000000; stroke-linecap:round; stroke-linejoin:round; stroke-width:2; stroke-opacity:0.1; fill:none" points="138.959,276.567 2352.76,276.567 "/>
<polyline clip-path="url(#clip212)" style="stroke:#000000; stroke-linecap:round; stroke-linejoin:round; stroke-width:2; stroke-opacity:0.1; fill:none" points="138.959,47.2441 2352.76,47.2441 "/>
<polyline clip-path="url(#clip210)" style="stroke:#000000; stroke-linecap:round; stroke-linejoin:round; stroke-width:4; stroke-opacity:1; fill:none" points="138.959,1423.18 138.959,47.2441 "/>
<polyline clip-path="url(#clip210)" style="stroke:#000000; stroke-linecap:round; stroke-linejoin:round; stroke-width:4; stroke-opacity:1; fill:none" points="138.959,1423.18 157.857,1423.18 "/>
<polyline clip-path="url(#clip210)" style="stroke:#000000; stroke-linecap:round; stroke-linejoin:round; stroke-width:4; stroke-opacity:1; fill:none" points="138.959,1193.86 157.857,1193.86 "/>
<polyline clip-path="url(#clip210)" style="stroke:#000000; stroke-linecap:round; stroke-linejoin:round; stroke-width:4; stroke-opacity:1; fill:none" points="138.959,964.535 157.857,964.535 "/>
<polyline clip-path="url(#clip210)" style="stroke:#000000; stroke-linecap:round; stroke-linejoin:round; stroke-width:4; stroke-opacity:1; fill:none" points="138.959,735.212 157.857,735.212 "/>
<polyline clip-path="url(#clip210)" style="stroke:#000000; stroke-linecap:round; stroke-linejoin:round; stroke-width:4; stroke-opacity:1; fill:none" points="138.959,505.889 157.857,505.889 "/>
<polyline clip-path="url(#clip210)" style="stroke:#000000; stroke-linecap:round; stroke-linejoin:round; stroke-width:4; stroke-opacity:1; fill:none" points="138.959,276.567 157.857,276.567 "/>
<polyline clip-path="url(#clip210)" style="stroke:#000000; stroke-linecap:round; stroke-linejoin:round; stroke-width:4; stroke-opacity:1; fill:none" points="138.959,47.2441 157.857,47.2441 "/>
<path clip-path="url(#clip210)" d="M91.0151 1408.98 Q87.404 1408.98 85.5753 1412.54 Q83.7697 1416.08 83.7697 1423.21 Q83.7697 1430.32 85.5753 1433.89 Q87.404 1437.43 91.0151 1437.43 Q94.6493 1437.43 96.4548 1433.89 Q98.2835 1430.32 98.2835 1423.21 Q98.2835 1416.08 96.4548 1412.54 Q94.6493 1408.98 91.0151 1408.98 M91.0151 1405.27 Q96.8252 1405.27 99.8808 1409.88 Q102.959 1414.46 102.959 1423.21 Q102.959 1431.94 99.8808 1436.55 Q96.8252 1441.13 91.0151 1441.13 Q85.2049 1441.13 82.1262 1436.55 Q79.0707 1431.94 79.0707 1423.21 Q79.0707 1414.46 82.1262 1409.88 Q85.2049 1405.27 91.0151 1405.27 Z" fill="#000000" fill-rule="nonzero" fill-opacity="1" /><path clip-path="url(#clip210)" d="M86.6401 1207.2 L102.959 1207.2 L102.959 1211.14 L81.0151 1211.14 L81.0151 1207.2 Q83.6771 1204.45 88.2604 1199.82 Q92.8669 1195.17 94.0475 1193.82 Q96.2928 1191.3 97.1724 1189.56 Q98.0752 1187.8 98.0752 1186.11 Q98.0752 1183.36 96.1308 1181.62 Q94.2095 1179.89 91.1077 1179.89 Q88.9086 1179.89 86.4549 1180.65 Q84.0244 1181.42 81.2466 1182.97 L81.2466 1178.24 Q84.0707 1177.11 86.5243 1176.53 Q88.978 1175.95 91.0151 1175.95 Q96.3854 1175.95 99.5798 1178.64 Q102.774 1181.32 102.774 1185.81 Q102.774 1187.94 101.964 1189.86 Q101.177 1191.76 99.0706 1194.35 Q98.4919 1195.03 95.39 1198.24 Q92.2882 1201.44 86.6401 1207.2 Z" fill="#000000" fill-rule="nonzero" fill-opacity="1" /><path clip-path="url(#clip210)" d="M93.3762 951.329 L81.5707 969.778 L93.3762 969.778 L93.3762 951.329 M92.1493 947.255 L98.0289 947.255 L98.0289 969.778 L102.959 969.778 L102.959 973.666 L98.0289 973.666 L98.0289 981.815 L93.3762 981.815 L93.3762 973.666 L77.7744 973.666 L77.7744 969.153 L92.1493 947.255 Z" fill="#000000" fill-rule="nonzero" fill-opacity="1" /><path clip-path="url(#clip210)" d="M91.4317 733.349 Q88.2836 733.349 86.4318 735.501 Q84.6031 737.654 84.6031 741.404 Q84.6031 745.131 86.4318 747.307 Q88.2836 749.46 91.4317 749.46 Q94.5799 749.46 96.4085 747.307 Q98.2604 745.131 98.2604 741.404 Q98.2604 737.654 96.4085 735.501 Q94.5799 733.349 91.4317 733.349 M100.714 718.696 L100.714 722.955 Q98.9548 722.122 97.1493 721.682 Q95.3669 721.242 93.6076 721.242 Q88.978 721.242 86.5243 724.367 Q84.0938 727.492 83.7466 733.812 Q85.1123 731.798 87.1725 730.733 Q89.2327 729.645 91.7095 729.645 Q96.9178 729.645 99.927 732.816 Q102.959 735.964 102.959 741.404 Q102.959 746.728 99.8113 749.946 Q96.6632 753.163 91.4317 753.163 Q85.4364 753.163 82.2651 748.58 Q79.0938 743.973 79.0938 735.247 Q79.0938 727.052 82.9827 722.191 Q86.8716 717.307 93.4225 717.307 Q95.1817 717.307 96.9641 717.654 Q98.7696 718.001 100.714 718.696 Z" fill="#000000" fill-rule="nonzero" fill-opacity="1" /><path clip-path="url(#clip210)" d="M91.1077 506.757 Q87.7743 506.757 85.8531 508.54 Q83.9549 510.322 83.9549 513.447 Q83.9549 516.572 85.8531 518.355 Q87.7743 520.137 91.1077 520.137 Q94.441 520.137 96.3623 518.355 Q98.2835 516.549 98.2835 513.447 Q98.2835 510.322 96.3623 508.54 Q94.4641 506.757 91.1077 506.757 M86.4318 504.767 Q83.4225 504.026 81.7327 501.966 Q80.066 499.906 80.066 496.943 Q80.066 492.799 83.0058 490.392 Q85.9688 487.984 91.1077 487.984 Q96.2697 487.984 99.2095 490.392 Q102.149 492.799 102.149 496.943 Q102.149 499.906 100.459 501.966 Q98.7928 504.026 95.8067 504.767 Q99.1863 505.554 101.061 507.845 Q102.959 510.137 102.959 513.447 Q102.959 518.47 99.8808 521.155 Q96.8252 523.841 91.1077 523.841 Q85.3901 523.841 82.3114 521.155 Q79.2559 518.47 79.2559 513.447 Q79.2559 510.137 81.154 507.845 Q83.0521 505.554 86.4318 504.767 M84.7188 497.382 Q84.7188 500.068 86.3855 501.572 Q88.0753 503.077 91.1077 503.077 Q94.1169 503.077 95.8067 501.572 Q97.5197 500.068 97.5197 497.382 Q97.5197 494.697 95.8067 493.193 Q94.1169 491.688 91.1077 491.688 Q88.0753 491.688 86.3855 493.193 Q84.7188 494.697 84.7188 497.382 Z" fill="#000000" fill-rule="nonzero" fill-opacity="1" /><path clip-path="url(#clip210)" d="M51.6634 289.912 L59.3023 289.912 L59.3023 263.546 L50.9921 265.213 L50.9921 260.953 L59.256 259.287 L63.9319 259.287 L63.9319 289.912 L71.5707 289.912 L71.5707 293.847 L51.6634 293.847 L51.6634 289.912 Z" fill="#000000" fill-rule="nonzero" fill-opacity="1" /><path clip-path="url(#clip210)" d="M91.0151 262.365 Q87.404 262.365 85.5753 265.93 Q83.7697 269.472 83.7697 276.601 Q83.7697 283.708 85.5753 287.273 Q87.404 290.814 91.0151 290.814 Q94.6493 290.814 96.4548 287.273 Q98.2835 283.708 98.2835 276.601 Q98.2835 269.472 96.4548 265.93 Q94.6493 262.365 91.0151 262.365 M91.0151 258.662 Q96.8252 258.662 99.8808 263.268 Q102.959 267.851 102.959 276.601 Q102.959 285.328 99.8808 289.935 Q96.8252 294.518 91.0151 294.518 Q85.2049 294.518 82.1262 289.935 Q79.0707 285.328 79.0707 276.601 Q79.0707 267.851 82.1262 263.268 Q85.2049 258.662 91.0151 258.662 Z" fill="#000000" fill-rule="nonzero" fill-opacity="1" /><path clip-path="url(#clip210)" d="M53.2606 60.5889 L60.8995 60.5889 L60.8995 34.2233 L52.5893 35.89 L52.5893 31.6308 L60.8532 29.9641 L65.5291 29.9641 L65.5291 60.5889 L73.1679 60.5889 L73.1679 64.5241 L53.2606 64.5241 L53.2606 60.5889 Z" fill="#000000" fill-rule="nonzero" fill-opacity="1" /><path clip-path="url(#clip210)" d="M86.6401 60.5889 L102.959 60.5889 L102.959 64.5241 L81.0151 64.5241 L81.0151 60.5889 Q83.6771 57.8343 88.2604 53.2047 Q92.8669 48.552 94.0475 47.2094 Q96.2928 44.6862 97.1724 42.9501 Q98.0752 41.1909 98.0752 39.5011 Q98.0752 36.7465 96.1308 35.0104 Q94.2095 33.2743 91.1077 33.2743 Q88.9086 33.2743 86.4549 34.0381 Q84.0244 34.802 81.2466 36.3529 L81.2466 31.6308 Q84.0707 30.4965 86.5243 29.9178 Q88.978 29.3391 91.0151 29.3391 Q96.3854 29.3391 99.5798 32.0243 Q102.774 34.7094 102.774 39.2002 Q102.774 41.3298 101.964 43.2511 Q101.177 45.1492 99.0706 47.7418 Q98.4919 48.4131 95.39 51.6306 Q92.2882 54.8251 86.6401 60.5889 Z" fill="#000000" fill-rule="nonzero" fill-opacity="1" /><path clip-path="url(#clip212)" d="M260.722 964.535 L260.722 1423.18 L376.62 1423.18 L376.62 964.535 L260.722 964.535 L260.722 964.535  Z" fill="#009af9" fill-rule="evenodd" fill-opacity="1"/>
<polyline clip-path="url(#clip212)" style="stroke:#000000; stroke-linecap:round; stroke-linejoin:round; stroke-width:4; stroke-opacity:1; fill:none" points="260.722,964.535 260.722,1423.18 376.62,1423.18 376.62,964.535 260.722,964.535 "/>
<path clip-path="url(#clip212)" d="M376.62 1079.2 L376.62 1423.18 L492.519 1423.18 L492.519 1079.2 L376.62 1079.2 L376.62 1079.2  Z" fill="#009af9" fill-rule="evenodd" fill-opacity="1"/>
<polyline clip-path="url(#clip212)" style="stroke:#000000; stroke-linecap:round; stroke-linejoin:round; stroke-width:4; stroke-opacity:1; fill:none" points="376.62,1079.2 376.62,1423.18 492.519,1423.18 492.519,1079.2 376.62,1079.2 "/>
<path clip-path="url(#clip212)" d="M492.519 620.551 L492.519 1423.18 L608.417 1423.18 L608.417 620.551 L492.519 620.551 L492.519 620.551  Z" fill="#009af9" fill-rule="evenodd" fill-opacity="1"/>
<polyline clip-path="url(#clip212)" style="stroke:#000000; stroke-linecap:round; stroke-linejoin:round; stroke-width:4; stroke-opacity:1; fill:none" points="492.519,620.551 492.519,1423.18 608.417,1423.18 608.417,620.551 492.519,620.551 "/>
<path clip-path="url(#clip212)" d="M608.417 849.873 L608.417 1423.18 L724.315 1423.18 L724.315 849.873 L608.417 849.873 L608.417 849.873  Z" fill="#009af9" fill-rule="evenodd" fill-opacity="1"/>
<polyline clip-path="url(#clip212)" style="stroke:#000000; stroke-linecap:round; stroke-linejoin:round; stroke-width:4; stroke-opacity:1; fill:none" points="608.417,849.873 608.417,1423.18 724.315,1423.18 724.315,849.873 608.417,849.873 "/>
<path clip-path="url(#clip212)" d="M724.315 47.2441 L724.315 1423.18 L840.214 1423.18 L840.214 47.2441 L724.315 47.2441 L724.315 47.2441  Z" fill="#009af9" fill-rule="evenodd" fill-opacity="1"/>
<polyline clip-path="url(#clip212)" style="stroke:#000000; stroke-linecap:round; stroke-linejoin:round; stroke-width:4; stroke-opacity:1; fill:none" points="724.315,47.2441 724.315,1423.18 840.214,1423.18 840.214,47.2441 724.315,47.2441 "/>
<path clip-path="url(#clip212)" d="M840.214 161.905 L840.214 1423.18 L956.112 1423.18 L956.112 161.905 L840.214 161.905 L840.214 161.905  Z" fill="#009af9" fill-rule="evenodd" fill-opacity="1"/>
<polyline clip-path="url(#clip212)" style="stroke:#000000; stroke-linecap:round; stroke-linejoin:round; stroke-width:4; stroke-opacity:1; fill:none" points="840.214,161.905 840.214,1423.18 956.112,1423.18 956.112,161.905 840.214,161.905 "/>
<path clip-path="url(#clip212)" d="M956.112 964.535 L956.112 1423.18 L1072.01 1423.18 L1072.01 964.535 L956.112 964.535 L956.112 964.535  Z" fill="#009af9" fill-rule="evenodd" fill-opacity="1"/>
<polyline clip-path="url(#clip212)" style="stroke:#000000; stroke-linecap:round; stroke-linejoin:round; stroke-width:4; stroke-opacity:1; fill:none" points="956.112,964.535 956.112,1423.18 1072.01,1423.18 1072.01,964.535 956.112,964.535 "/>
<path clip-path="url(#clip212)" d="M1072.01 276.567 L1072.01 1423.18 L1187.91 1423.18 L1187.91 276.567 L1072.01 276.567 L1072.01 276.567  Z" fill="#009af9" fill-rule="evenodd" fill-opacity="1"/>
<polyline clip-path="url(#clip212)" style="stroke:#000000; stroke-linecap:round; stroke-linejoin:round; stroke-width:4; stroke-opacity:1; fill:none" points="1072.01,276.567 1072.01,1423.18 1187.91,1423.18 1187.91,276.567 1072.01,276.567 "/>
<path clip-path="url(#clip212)" d="M1187.91 735.212 L1187.91 1423.18 L1303.81 1423.18 L1303.81 735.212 L1187.91 735.212 L1187.91 735.212  Z" fill="#009af9" fill-rule="evenodd" fill-opacity="1"/>
<polyline clip-path="url(#clip212)" style="stroke:#000000; stroke-linecap:round; stroke-linejoin:round; stroke-width:4; stroke-opacity:1; fill:none" points="1187.91,735.212 1187.91,1423.18 1303.81,1423.18 1303.81,735.212 1187.91,735.212 "/>
<path clip-path="url(#clip212)" d="M1303.81 391.228 L1303.81 1423.18 L1419.71 1423.18 L1419.71 391.228 L1303.81 391.228 L1303.81 391.228  Z" fill="#009af9" fill-rule="evenodd" fill-opacity="1"/>
<polyline clip-path="url(#clip212)" style="stroke:#000000; stroke-linecap:round; stroke-linejoin:round; stroke-width:4; stroke-opacity:1; fill:none" points="1303.81,391.228 1303.81,1423.18 1419.71,1423.18 1419.71,391.228 1303.81,391.228 "/>
<path clip-path="url(#clip212)" d="M1419.71 964.535 L1419.71 1423.18 L1535.6 1423.18 L1535.6 964.535 L1419.71 964.535 L1419.71 964.535  Z" fill="#009af9" fill-rule="evenodd" fill-opacity="1"/>
<polyline clip-path="url(#clip212)" style="stroke:#000000; stroke-linecap:round; stroke-linejoin:round; stroke-width:4; stroke-opacity:1; fill:none" points="1419.71,964.535 1419.71,1423.18 1535.6,1423.18 1535.6,964.535 1419.71,964.535 "/>
<path clip-path="url(#clip212)" d="M1535.6 735.212 L1535.6 1423.18 L1651.5 1423.18 L1651.5 735.212 L1535.6 735.212 L1535.6 735.212  Z" fill="#009af9" fill-rule="evenodd" fill-opacity="1"/>
<polyline clip-path="url(#clip212)" style="stroke:#000000; stroke-linecap:round; stroke-linejoin:round; stroke-width:4; stroke-opacity:1; fill:none" points="1535.6,735.212 1535.6,1423.18 1651.5,1423.18 1651.5,735.212 1535.6,735.212 "/>
<path clip-path="url(#clip212)" d="M1651.5 620.551 L1651.5 1423.18 L1767.4 1423.18 L1767.4 620.551 L1651.5 620.551 L1651.5 620.551  Z" fill="#009af9" fill-rule="evenodd" fill-opacity="1"/>
<polyline clip-path="url(#clip212)" style="stroke:#000000; stroke-linecap:round; stroke-linejoin:round; stroke-width:4; stroke-opacity:1; fill:none" points="1651.5,620.551 1651.5,1423.18 1767.4,1423.18 1767.4,620.551 1651.5,620.551 "/>
<path clip-path="url(#clip212)" d="M1767.4 964.535 L1767.4 1423.18 L1883.3 1423.18 L1883.3 964.535 L1767.4 964.535 L1767.4 964.535  Z" fill="#009af9" fill-rule="evenodd" fill-opacity="1"/>
<polyline clip-path="url(#clip212)" style="stroke:#000000; stroke-linecap:round; stroke-linejoin:round; stroke-width:4; stroke-opacity:1; fill:none" points="1767.4,964.535 1767.4,1423.18 1883.3,1423.18 1883.3,964.535 1767.4,964.535 "/>
<path clip-path="url(#clip212)" d="M1883.3 964.535 L1883.3 1423.18 L1999.2 1423.18 L1999.2 964.535 L1883.3 964.535 L1883.3 964.535  Z" fill="#009af9" fill-rule="evenodd" fill-opacity="1"/>
<polyline clip-path="url(#clip212)" style="stroke:#000000; stroke-linecap:round; stroke-linejoin:round; stroke-width:4; stroke-opacity:1; fill:none" points="1883.3,964.535 1883.3,1423.18 1999.2,1423.18 1999.2,964.535 1883.3,964.535 "/>
<path clip-path="url(#clip212)" d="M1999.2 1193.86 L1999.2 1423.18 L2115.09 1423.18 L2115.09 1193.86 L1999.2 1193.86 L1999.2 1193.86  Z" fill="#009af9" fill-rule="evenodd" fill-opacity="1"/>
<polyline clip-path="url(#clip212)" style="stroke:#000000; stroke-linecap:round; stroke-linejoin:round; stroke-width:4; stroke-opacity:1; fill:none" points="1999.2,1193.86 1999.2,1423.18 2115.09,1423.18 2115.09,1193.86 1999.2,1193.86 "/>
<path clip-path="url(#clip212)" d="M2115.09 1193.86 L2115.09 1423.18 L2230.99 1423.18 L2230.99 1193.86 L2115.09 1193.86 L2115.09 1193.86  Z" fill="#009af9" fill-rule="evenodd" fill-opacity="1"/>
<polyline clip-path="url(#clip212)" style="stroke:#000000; stroke-linecap:round; stroke-linejoin:round; stroke-width:4; stroke-opacity:1; fill:none" points="2115.09,1193.86 2115.09,1423.18 2230.99,1423.18 2230.99,1193.86 2115.09,1193.86 "/>
<circle clip-path="url(#clip212)" style="fill:#009af9; stroke:none; fill-opacity:0" cx="318.671" cy="964.535" r="2"/>
<circle clip-path="url(#clip212)" style="fill:#009af9; stroke:none; fill-opacity:0" cx="434.57" cy="1079.2" r="2"/>
<circle clip-path="url(#clip212)" style="fill:#009af9; stroke:none; fill-opacity:0" cx="550.468" cy="620.551" r="2"/>
<circle clip-path="url(#clip212)" style="fill:#009af9; stroke:none; fill-opacity:0" cx="666.366" cy="849.873" r="2"/>
<circle clip-path="url(#clip212)" style="fill:#009af9; stroke:none; fill-opacity:0" cx="782.265" cy="47.2441" r="2"/>
<circle clip-path="url(#clip212)" style="fill:#009af9; stroke:none; fill-opacity:0" cx="898.163" cy="161.905" r="2"/>
<circle clip-path="url(#clip212)" style="fill:#009af9; stroke:none; fill-opacity:0" cx="1014.06" cy="964.535" r="2"/>
<circle clip-path="url(#clip212)" style="fill:#009af9; stroke:none; fill-opacity:0" cx="1129.96" cy="276.567" r="2"/>
<circle clip-path="url(#clip212)" style="fill:#009af9; stroke:none; fill-opacity:0" cx="1245.86" cy="735.212" r="2"/>
<circle clip-path="url(#clip212)" style="fill:#009af9; stroke:none; fill-opacity:0" cx="1361.76" cy="391.228" r="2"/>
<circle clip-path="url(#clip212)" style="fill:#009af9; stroke:none; fill-opacity:0" cx="1477.65" cy="964.535" r="2"/>
<circle clip-path="url(#clip212)" style="fill:#009af9; stroke:none; fill-opacity:0" cx="1593.55" cy="735.212" r="2"/>
<circle clip-path="url(#clip212)" style="fill:#009af9; stroke:none; fill-opacity:0" cx="1709.45" cy="620.551" r="2"/>
<circle clip-path="url(#clip212)" style="fill:#009af9; stroke:none; fill-opacity:0" cx="1825.35" cy="964.535" r="2"/>
<circle clip-path="url(#clip212)" style="fill:#009af9; stroke:none; fill-opacity:0" cx="1941.25" cy="964.535" r="2"/>
<circle clip-path="url(#clip212)" style="fill:#009af9; stroke:none; fill-opacity:0" cx="2057.15" cy="1193.86" r="2"/>
<circle clip-path="url(#clip212)" style="fill:#009af9; stroke:none; fill-opacity:0" cx="2173.04" cy="1193.86" r="2"/>
</svg>
