<?xml version="1.0" encoding="UTF-8" standalone="no"?>
<!DOCTYPE svg PUBLIC "-//W3C//DTD SVG 1.1//EN"
 "http://www.w3.org/Graphics/SVG/1.1/DTD/svg11.dtd">
<!-- Generated by graphviz version 2.38.0 (20140413.2041)
 -->
<!-- Title: %3 Pages: 1 -->
<svg width="642pt" height="1080pt"
 viewBox="0.00 0.00 641.94 1080.00" xmlns="http://www.w3.org/2000/svg" xmlns:xlink="http://www.w3.org/1999/xlink">
<g id="graph0" class="graph" transform="scale(2.7551 2.7551) rotate(0) translate(4 388)">
<title>%3</title>
<polygon fill="white" stroke="none" points="-4,4 -4,-388 229,-388 229,4 -4,4"/>
<!-- 1 -->
<g id="node1" class="node"><title>1</title>
<ellipse fill="none" stroke="black" cx="27" cy="-366" rx="27" ry="18"/>
<text text-anchor="middle" x="27" y="-362.3" font-family="Times,serif" font-size="14.00">1</text>
</g>
<!-- 2 -->
<g id="node2" class="node"><title>2</title>
<ellipse fill="none" stroke="black" cx="27" cy="-279" rx="27" ry="18"/>
<text text-anchor="middle" x="27" y="-275.3" font-family="Times,serif" font-size="14.00">2</text>
</g>
<!-- 1&#45;&gt;2 -->
<g id="edge1" class="edge"><title>1&#45;&gt;2</title>
<path fill="none" stroke="black" d="M27,-347.799C27,-336.163 27,-320.548 27,-307.237"/>
<polygon fill="black" stroke="black" points="30.5001,-307.175 27,-297.175 23.5001,-307.175 30.5001,-307.175"/>
<text text-anchor="middle" x="37.5" y="-318.8" font-family="Times,serif" font-size="14.00">100</text>
</g>
<!-- 3 -->
<g id="node3" class="node"><title>3</title>
<ellipse fill="none" stroke="black" cx="198" cy="-192" rx="27" ry="18"/>
<text text-anchor="middle" x="198" y="-188.3" font-family="Times,serif" font-size="14.00">3</text>
</g>
<!-- 1&#45;&gt;3 -->
<g id="edge2" class="edge"><title>1&#45;&gt;3</title>
<path fill="none" stroke="black" d="M42.6997,-351.185C49.869,-344.806 58.4307,-337.09 66,-330 106.371,-292.185 117.153,-283.341 155,-243 163.073,-234.395 171.616,-224.614 178.941,-216"/>
<polygon fill="black" stroke="black" points="181.768,-218.076 185.536,-208.174 176.415,-213.565 181.768,-218.076"/>
<text text-anchor="middle" x="144" y="-275.3" font-family="Times,serif" font-size="14.00">30</text>
</g>
<!-- 2&#45;&gt;3 -->
<g id="edge3" class="edge"><title>2&#45;&gt;3</title>
<path fill="none" stroke="black" d="M47.968,-267.577C77.967,-252.666 133.306,-225.158 167.741,-208.041"/>
<polygon fill="black" stroke="black" points="169.464,-211.093 176.861,-203.508 166.348,-204.825 169.464,-211.093"/>
<text text-anchor="middle" x="130" y="-231.8" font-family="Times,serif" font-size="14.00">20</text>
</g>
<!-- 4 -->
<g id="node4" class="node"><title>4</title>
<ellipse fill="none" stroke="black" cx="27" cy="-105" rx="27" ry="18"/>
<text text-anchor="middle" x="27" y="-101.3" font-family="Times,serif" font-size="14.00">4</text>
</g>
<!-- 3&#45;&gt;4 -->
<g id="edge4" class="edge"><title>3&#45;&gt;4</title>
<path fill="none" stroke="black" d="M177.032,-180.577C147.033,-165.666 91.6939,-138.158 57.2591,-121.041"/>
<polygon fill="black" stroke="black" points="58.6521,-117.825 48.1395,-116.508 55.5363,-124.093 58.6521,-117.825"/>
<text text-anchor="middle" x="130" y="-144.8" font-family="Times,serif" font-size="14.00">10</text>
</g>
<!-- 5 -->
<g id="node5" class="node"><title>5</title>
<ellipse fill="none" stroke="black" cx="198" cy="-18" rx="27" ry="18"/>
<text text-anchor="middle" x="198" y="-14.3" font-family="Times,serif" font-size="14.00">5</text>
</g>
<!-- 3&#45;&gt;5 -->
<g id="edge5" class="edge"><title>3&#45;&gt;5</title>
<path fill="none" stroke="black" d="M198,-173.879C198,-144.001 198,-82.1129 198,-46.2736"/>
<polygon fill="black" stroke="black" points="201.5,-46.0516 198,-36.0516 194.5,-46.0516 201.5,-46.0516"/>
<text text-anchor="middle" x="205" y="-101.3" font-family="Times,serif" font-size="14.00">60</text>
</g>
<!-- 4&#45;&gt;2 -->
<g id="edge6" class="edge"><title>4&#45;&gt;2</title>
<path fill="none" stroke="black" d="M27,-123.052C27,-152.88 27,-214.764 27,-250.643"/>
<polygon fill="black" stroke="black" points="23.5001,-250.879 27,-260.879 30.5001,-250.879 23.5001,-250.879"/>
<text text-anchor="middle" x="34" y="-188.3" font-family="Times,serif" font-size="14.00">15</text>
</g>
<!-- 4&#45;&gt;5 -->
<g id="edge7" class="edge"><title>4&#45;&gt;5</title>
<path fill="none" stroke="black" d="M47.968,-93.5773C77.967,-78.6655 133.306,-51.1578 167.741,-34.0411"/>
<polygon fill="black" stroke="black" points="169.464,-37.0933 176.861,-29.5079 166.348,-30.825 169.464,-37.0933"/>
<text text-anchor="middle" x="130" y="-57.8" font-family="Times,serif" font-size="14.00">50</text>
</g>
</g>
</svg>
