<?xml version="1.0" encoding="UTF-8" standalone="no"?>
<!DOCTYPE svg PUBLIC "-//W3C//DTD SVG 1.1//EN"
 "http://www.w3.org/Graphics/SVG/1.1/DTD/svg11.dtd">
<!-- Generated by graphviz version 2.38.0 (20140413.2041)
 -->
<!-- Title: %3 Pages: 1 -->
<svg width="1080pt" height="426pt"
 viewBox="0.00 0.00 1080.00 426.14" xmlns="http://www.w3.org/2000/svg" xmlns:xlink="http://www.w3.org/1999/xlink">
<g id="graph0" class="graph" transform="scale(3.25301 3.25301) rotate(0) translate(4 127)">
<title>%3</title>
<polygon fill="white" stroke="none" points="-4,4 -4,-127 328,-127 328,4 -4,4"/>
<!-- j1 -->
<g id="node1" class="node"><title>j1</title>
<ellipse fill="none" stroke="black" cx="207" cy="-18" rx="27" ry="18"/>
<text text-anchor="start" x="201.5" y="-15.3" font-family="Times,serif" font-size="14.00">j</text>
<text text-anchor="start" x="205.5" y="-15.3" font-family="Times,serif" baseline-shift="sub" font-size="14.00">1</text>
</g>
<!-- j2 -->
<g id="node2" class="node"><title>j2</title>
<ellipse fill="none" stroke="black" cx="27" cy="-18" rx="27" ry="18"/>
<text text-anchor="start" x="21.5" y="-15.3" font-family="Times,serif" font-size="14.00">j</text>
<text text-anchor="start" x="25.5" y="-15.3" font-family="Times,serif" baseline-shift="sub" font-size="14.00">2</text>
</g>
<!-- j3 -->
<g id="node3" class="node"><title>j3</title>
<ellipse fill="none" stroke="black" cx="99" cy="-18" rx="27" ry="18"/>
<text text-anchor="start" x="93.5" y="-15.3" font-family="Times,serif" font-size="14.00">j</text>
<text text-anchor="start" x="97.5" y="-15.3" font-family="Times,serif" baseline-shift="sub" font-size="14.00">3</text>
</g>
<!-- j4 -->
<g id="node4" class="node"><title>j4</title>
<ellipse fill="none" stroke="black" cx="279" cy="-18" rx="27" ry="18"/>
<text text-anchor="start" x="273.5" y="-15.3" font-family="Times,serif" font-size="14.00">j</text>
<text text-anchor="start" x="277.5" y="-15.3" font-family="Times,serif" baseline-shift="sub" font-size="14.00">4</text>
</g>
<!-- 1 -->
<g id="node5" class="node"><title>1</title>
<ellipse fill="none" stroke="black" cx="108" cy="-105" rx="27" ry="18"/>
<text text-anchor="middle" x="108" y="-101.3" font-family="Times,serif" font-size="14.00">1</text>
</g>
<!-- 1&#45;&gt;j1 -->
<g id="edge1" class="edge"><title>1&#45;&gt;j1</title>
<path fill="none" stroke="black" d="M123.906,-90.3433C139.927,-76.588 164.837,-55.2004 183.208,-39.4273"/>
<polygon fill="black" stroke="black" points="185.826,-41.7926 191.133,-32.6228 181.266,-36.4816 185.826,-41.7926"/>
<text text-anchor="middle" x="173.5" y="-57.8" font-family="Times,serif" font-size="14.00">6</text>
</g>
<!-- 1&#45;&gt;j2 -->
<g id="edge2" class="edge"><title>1&#45;&gt;j2</title>
<path fill="none" stroke="black" d="M93.8909,-89.1941C81.2307,-75.9087 62.4765,-56.2284 48.045,-41.0842"/>
<polygon fill="black" stroke="black" points="50.3799,-38.461 40.9474,-33.6362 45.3124,-43.2901 50.3799,-38.461"/>
<text text-anchor="middle" x="55.5" y="-57.8" font-family="Times,serif" font-size="14.00">4</text>
</g>
<!-- 1&#45;&gt;j3 -->
<g id="edge3" class="edge"><title>1&#45;&gt;j3</title>
<path fill="none" stroke="black" d="M106.179,-86.799C104.947,-75.1626 103.293,-59.5479 101.884,-46.2368"/>
<polygon fill="black" stroke="black" points="105.352,-45.7513 100.819,-36.1754 98.3911,-46.4884 105.352,-45.7513"/>
<text text-anchor="middle" x="93.5" y="-57.8" font-family="Times,serif" font-size="14.00">5</text>
</g>
<!-- 2 -->
<g id="node6" class="node"><title>2</title>
<ellipse fill="none" stroke="black" cx="36" cy="-105" rx="27" ry="18"/>
<text text-anchor="middle" x="36" y="-101.3" font-family="Times,serif" font-size="14.00">2</text>
</g>
<!-- 2&#45;&gt;j2 -->
<g id="edge4" class="edge"><title>2&#45;&gt;j2</title>
<path fill="none" stroke="black" d="M34.1787,-86.799C32.9466,-75.1626 31.2933,-59.5479 29.8839,-46.2368"/>
<polygon fill="black" stroke="black" points="33.3521,-45.7513 28.8186,-36.1754 26.3911,-46.4884 33.3521,-45.7513"/>
<text text-anchor="middle" x="3.5" y="-57.8" font-family="Times,serif" font-size="14.00">3</text>
</g>
<!-- 2&#45;&gt;j3 -->
<g id="edge5" class="edge"><title>2&#45;&gt;j3</title>
<path fill="none" stroke="black" d="M47.5552,-88.4097C57.0575,-75.5891 70.6733,-57.2186 81.5105,-42.597"/>
<polygon fill="black" stroke="black" points="84.3754,-44.6095 87.5181,-34.4915 78.7516,-40.4413 84.3754,-44.6095"/>
<text text-anchor="middle" x="74.5" y="-57.8" font-family="Times,serif" font-size="14.00">6</text>
</g>
<!-- 3 -->
<g id="node7" class="node"><title>3</title>
<ellipse fill="none" stroke="black" cx="297" cy="-105" rx="27" ry="18"/>
<text text-anchor="middle" x="297" y="-101.3" font-family="Times,serif" font-size="14.00">3</text>
</g>
<!-- 3&#45;&gt;j1 -->
<g id="edge6" class="edge"><title>3&#45;&gt;j1</title>
<path fill="none" stroke="black" d="M282.138,-89.964C267.808,-76.4296 245.93,-55.7675 229.471,-40.223"/>
<polygon fill="black" stroke="black" points="231.557,-37.3786 221.884,-33.0569 226.751,-42.4677 231.557,-37.3786"/>
<text text-anchor="middle" x="278.5" y="-57.8" font-family="Times,serif" font-size="14.00">5</text>
</g>
<!-- 3&#45;&gt;j3 -->
<g id="edge7" class="edge"><title>3&#45;&gt;j3</title>
<path fill="none" stroke="black" d="M274.672,-94.4146C239.448,-79.2931 170.857,-49.8477 130.594,-32.563"/>
<polygon fill="black" stroke="black" points="131.816,-29.279 121.247,-28.5503 129.055,-35.7113 131.816,-29.279"/>
<text text-anchor="middle" x="242.5" y="-57.8" font-family="Times,serif" font-size="14.00">4</text>
</g>
<!-- 3&#45;&gt;j4 -->
<g id="edge8" class="edge"><title>3&#45;&gt;j4</title>
<path fill="none" stroke="black" d="M293.357,-86.799C290.877,-75.086 287.543,-59.3423 284.712,-45.9744"/>
<polygon fill="black" stroke="black" points="288.072,-44.9433 282.576,-35.8854 281.223,-46.3935 288.072,-44.9433"/>
<text text-anchor="middle" x="308.5" y="-57.8" font-family="Times,serif" font-size="14.00">3</text>
</g>
<!-- 4 -->
<g id="node8" class="node"><title>4</title>
<ellipse fill="none" stroke="black" cx="207" cy="-105" rx="27" ry="18"/>
<text text-anchor="middle" x="207" y="-101.3" font-family="Times,serif" font-size="14.00">4</text>
</g>
<!-- 4&#45;&gt;j1 -->
<g id="edge9" class="edge"><title>4&#45;&gt;j1</title>
<path fill="none" stroke="black" d="M207,-86.799C207,-75.1626 207,-59.5479 207,-46.2368"/>
<polygon fill="black" stroke="black" points="210.5,-46.1754 207,-36.1754 203.5,-46.1755 210.5,-46.1754"/>
<text text-anchor="middle" x="210.5" y="-57.8" font-family="Times,serif" font-size="14.00">7</text>
</g>
<!-- 4&#45;&gt;j2 -->
<g id="edge10" class="edge"><title>4&#45;&gt;j2</title>
<path fill="none" stroke="black" d="M185.645,-93.9156C153.844,-78.8985 93.8918,-50.5878 57.4862,-33.3963"/>
<polygon fill="black" stroke="black" points="58.8645,-30.1765 48.3274,-29.0713 55.8754,-36.5063 58.8645,-30.1765"/>
<text text-anchor="middle" x="126.5" y="-57.8" font-family="Times,serif" font-size="14.00">5</text>
</g>
<!-- 4&#45;&gt;j3 -->
<g id="edge11" class="edge"><title>4&#45;&gt;j3</title>
<path fill="none" stroke="black" d="M190.125,-90.7188C172.292,-76.6838 143.991,-54.4092 123.658,-38.4071"/>
<polygon fill="black" stroke="black" points="125.779,-35.6223 115.757,-32.188 121.45,-41.123 125.779,-35.6223"/>
<text text-anchor="middle" x="153.5" y="-57.8" font-family="Times,serif" font-size="14.00">5</text>
</g>
<!-- 4&#45;&gt;j4 -->
<g id="edge12" class="edge"><title>4&#45;&gt;j4</title>
<path fill="none" stroke="black" d="M219.872,-88.8037C230.93,-75.7495 247.036,-56.7354 259.647,-41.8473"/>
<polygon fill="black" stroke="black" points="262.446,-43.9574 266.239,-34.0647 257.105,-39.433 262.446,-43.9574"/>
<text text-anchor="middle" x="258.5" y="-57.8" font-family="Times,serif" font-size="14.00">5</text>
</g>
</g>
</svg>
