<?xml version="1.0" encoding="utf-8"?>
<svg xmlns="http://www.w3.org/2000/svg" xmlns:xlink="http://www.w3.org/1999/xlink" width="600" height="400" viewBox="0 0 2400 1600">
<defs>
  <clipPath id="clip910">
    <rect x="0" y="0" width="2400" height="1600"/>
  </clipPath>
</defs>
<path clip-path="url(#clip910)" d="M0 1600 L2400 1600 L2400 0 L0 0  Z" fill="#ffffff" fill-rule="evenodd" fill-opacity="1"/>
<defs>
  <clipPath id="clip911">
    <rect x="480" y="0" width="1681" height="1600"/>
  </clipPath>
</defs>
<path clip-path="url(#clip910)" d="M249.542 1423.18 L2352.76 1423.18 L2352.76 47.2441 L249.542 47.2441  Z" fill="#ffffff" fill-rule="evenodd" fill-opacity="1"/>
<defs>
  <clipPath id="clip912">
    <rect x="249" y="47" width="2104" height="1377"/>
  </clipPath>
</defs>
<polyline clip-path="url(#clip912)" style="stroke:#000000; stroke-linecap:round; stroke-linejoin:round; stroke-width:2; stroke-opacity:0.1; fill:none" points="529.53,1423.18 529.53,47.2441 "/>
<polyline clip-path="url(#clip912)" style="stroke:#000000; stroke-linecap:round; stroke-linejoin:round; stroke-width:2; stroke-opacity:0.1; fill:none" points="970.455,1423.18 970.455,47.2441 "/>
<polyline clip-path="url(#clip912)" style="stroke:#000000; stroke-linecap:round; stroke-linejoin:round; stroke-width:2; stroke-opacity:0.1; fill:none" points="1411.38,1423.18 1411.38,47.2441 "/>
<polyline clip-path="url(#clip912)" style="stroke:#000000; stroke-linecap:round; stroke-linejoin:round; stroke-width:2; stroke-opacity:0.1; fill:none" points="1852.31,1423.18 1852.31,47.2441 "/>
<polyline clip-path="url(#clip912)" style="stroke:#000000; stroke-linecap:round; stroke-linejoin:round; stroke-width:2; stroke-opacity:0.1; fill:none" points="2293.23,1423.18 2293.23,47.2441 "/>
<polyline clip-path="url(#clip912)" style="stroke:#000000; stroke-linecap:round; stroke-linejoin:round; stroke-width:2; stroke-opacity:0.1; fill:none" points="249.542,1383.19 2352.76,1383.19 "/>
<polyline clip-path="url(#clip912)" style="stroke:#000000; stroke-linecap:round; stroke-linejoin:round; stroke-width:2; stroke-opacity:0.1; fill:none" points="249.542,1074.45 2352.76,1074.45 "/>
<polyline clip-path="url(#clip912)" style="stroke:#000000; stroke-linecap:round; stroke-linejoin:round; stroke-width:2; stroke-opacity:0.1; fill:none" points="249.542,765.709 2352.76,765.709 "/>
<polyline clip-path="url(#clip912)" style="stroke:#000000; stroke-linecap:round; stroke-linejoin:round; stroke-width:2; stroke-opacity:0.1; fill:none" points="249.542,456.971 2352.76,456.971 "/>
<polyline clip-path="url(#clip912)" style="stroke:#000000; stroke-linecap:round; stroke-linejoin:round; stroke-width:2; stroke-opacity:0.1; fill:none" points="249.542,148.232 2352.76,148.232 "/>
<polyline clip-path="url(#clip910)" style="stroke:#000000; stroke-linecap:round; stroke-linejoin:round; stroke-width:4; stroke-opacity:1; fill:none" points="249.542,1423.18 2352.76,1423.18 "/>
<polyline clip-path="url(#clip910)" style="stroke:#000000; stroke-linecap:round; stroke-linejoin:round; stroke-width:4; stroke-opacity:1; fill:none" points="529.53,1423.18 529.53,1404.28 "/>
<polyline clip-path="url(#clip910)" style="stroke:#000000; stroke-linecap:round; stroke-linejoin:round; stroke-width:4; stroke-opacity:1; fill:none" points="970.455,1423.18 970.455,1404.28 "/>
<polyline clip-path="url(#clip910)" style="stroke:#000000; stroke-linecap:round; stroke-linejoin:round; stroke-width:4; stroke-opacity:1; fill:none" points="1411.38,1423.18 1411.38,1404.28 "/>
<polyline clip-path="url(#clip910)" style="stroke:#000000; stroke-linecap:round; stroke-linejoin:round; stroke-width:4; stroke-opacity:1; fill:none" points="1852.31,1423.18 1852.31,1404.28 "/>
<polyline clip-path="url(#clip910)" style="stroke:#000000; stroke-linecap:round; stroke-linejoin:round; stroke-width:4; stroke-opacity:1; fill:none" points="2293.23,1423.18 2293.23,1404.28 "/>
<path clip-path="url(#clip910)" d="M524.182 1481.64 L540.502 1481.64 L540.502 1485.58 L518.557 1485.58 L518.557 1481.64 Q521.219 1478.89 525.803 1474.26 Q530.409 1469.61 531.59 1468.27 Q533.835 1465.74 534.715 1464.01 Q535.618 1462.25 535.618 1460.56 Q535.618 1457.8 533.673 1456.07 Q531.752 1454.33 528.65 1454.33 Q526.451 1454.33 523.997 1455.09 Q521.567 1455.86 518.789 1457.41 L518.789 1452.69 Q521.613 1451.55 524.067 1450.97 Q526.52 1450.39 528.557 1450.39 Q533.928 1450.39 537.122 1453.08 Q540.317 1455.77 540.317 1460.26 Q540.317 1462.39 539.506 1464.31 Q538.719 1466.2 536.613 1468.8 Q536.034 1469.47 532.932 1472.69 Q529.831 1475.88 524.182 1481.64 Z" fill="#000000" fill-rule="nonzero" fill-opacity="1" /><path clip-path="url(#clip910)" d="M973.464 1455.09 L961.659 1473.54 L973.464 1473.54 L973.464 1455.09 M972.237 1451.02 L978.117 1451.02 L978.117 1473.54 L983.047 1473.54 L983.047 1477.43 L978.117 1477.43 L978.117 1485.58 L973.464 1485.58 L973.464 1477.43 L957.862 1477.43 L957.862 1472.92 L972.237 1451.02 Z" fill="#000000" fill-rule="nonzero" fill-opacity="1" /><path clip-path="url(#clip910)" d="M1411.79 1466.44 Q1408.64 1466.44 1406.79 1468.59 Q1404.96 1470.74 1404.96 1474.49 Q1404.96 1478.22 1406.79 1480.39 Q1408.64 1482.55 1411.79 1482.55 Q1414.93 1482.55 1416.76 1480.39 Q1418.61 1478.22 1418.61 1474.49 Q1418.61 1470.74 1416.76 1468.59 Q1414.93 1466.44 1411.79 1466.44 M1421.07 1451.78 L1421.07 1456.04 Q1419.31 1455.21 1417.5 1454.77 Q1415.72 1454.33 1413.96 1454.33 Q1409.33 1454.33 1406.88 1457.45 Q1404.45 1460.58 1404.1 1466.9 Q1405.47 1464.89 1407.53 1463.82 Q1409.59 1462.73 1412.06 1462.73 Q1417.27 1462.73 1420.28 1465.9 Q1423.31 1469.05 1423.31 1474.49 Q1423.31 1479.82 1420.16 1483.03 Q1417.02 1486.25 1411.79 1486.25 Q1405.79 1486.25 1402.62 1481.67 Q1399.45 1477.06 1399.45 1468.33 Q1399.45 1460.14 1403.34 1455.28 Q1407.23 1450.39 1413.78 1450.39 Q1415.54 1450.39 1417.32 1450.74 Q1419.12 1451.09 1421.07 1451.78 Z" fill="#000000" fill-rule="nonzero" fill-opacity="1" /><path clip-path="url(#clip910)" d="M1852.31 1469.17 Q1848.97 1469.17 1847.05 1470.95 Q1845.15 1472.73 1845.15 1475.86 Q1845.15 1478.98 1847.05 1480.77 Q1848.97 1482.55 1852.31 1482.55 Q1855.64 1482.55 1857.56 1480.77 Q1859.48 1478.96 1859.48 1475.86 Q1859.48 1472.73 1857.56 1470.95 Q1855.66 1469.17 1852.31 1469.17 M1847.63 1467.18 Q1844.62 1466.44 1842.93 1464.38 Q1841.26 1462.32 1841.26 1459.35 Q1841.26 1455.21 1844.2 1452.8 Q1847.17 1450.39 1852.31 1450.39 Q1857.47 1450.39 1860.41 1452.8 Q1863.35 1455.21 1863.35 1459.35 Q1863.35 1462.32 1861.66 1464.38 Q1859.99 1466.44 1857 1467.18 Q1860.38 1467.96 1862.26 1470.26 Q1864.16 1472.55 1864.16 1475.86 Q1864.16 1480.88 1861.08 1483.57 Q1858.02 1486.25 1852.31 1486.25 Q1846.59 1486.25 1843.51 1483.57 Q1840.45 1480.88 1840.45 1475.86 Q1840.45 1472.55 1842.35 1470.26 Q1844.25 1467.96 1847.63 1467.18 M1845.92 1459.79 Q1845.92 1462.48 1847.58 1463.98 Q1849.27 1465.49 1852.31 1465.49 Q1855.31 1465.49 1857 1463.98 Q1858.72 1462.48 1858.72 1459.79 Q1858.72 1457.11 1857 1455.6 Q1855.31 1454.1 1852.31 1454.1 Q1849.27 1454.1 1847.58 1455.6 Q1845.92 1457.11 1845.92 1459.79 Z" fill="#000000" fill-rule="nonzero" fill-opacity="1" /><path clip-path="url(#clip910)" d="M2267.92 1481.64 L2275.56 1481.64 L2275.56 1455.28 L2267.25 1456.95 L2267.25 1452.69 L2275.51 1451.02 L2280.19 1451.02 L2280.19 1481.64 L2287.83 1481.64 L2287.83 1485.58 L2267.92 1485.58 L2267.92 1481.64 Z" fill="#000000" fill-rule="nonzero" fill-opacity="1" /><path clip-path="url(#clip910)" d="M2307.27 1454.1 Q2303.66 1454.1 2301.83 1457.66 Q2300.02 1461.2 2300.02 1468.33 Q2300.02 1475.44 2301.83 1479.01 Q2303.66 1482.55 2307.27 1482.55 Q2310.9 1482.55 2312.71 1479.01 Q2314.54 1475.44 2314.54 1468.33 Q2314.54 1461.2 2312.71 1457.66 Q2310.9 1454.1 2307.27 1454.1 M2307.27 1450.39 Q2313.08 1450.39 2316.14 1455 Q2319.21 1459.58 2319.21 1468.33 Q2319.21 1477.06 2316.14 1481.67 Q2313.08 1486.25 2307.27 1486.25 Q2301.46 1486.25 2298.38 1481.67 Q2295.33 1477.06 2295.33 1468.33 Q2295.33 1459.58 2298.38 1455 Q2301.46 1450.39 2307.27 1450.39 Z" fill="#000000" fill-rule="nonzero" fill-opacity="1" /><path clip-path="url(#clip910)" d="M1204.58 1520.52 L1231.89 1520.52 L1231.89 1525.93 L1211.01 1525.93 L1211.01 1539.94 L1229.85 1539.94 L1229.85 1545.35 L1211.01 1545.35 L1211.01 1568.04 L1204.58 1568.04 L1204.58 1520.52 Z" fill="#000000" fill-rule="nonzero" fill-opacity="1" /><path clip-path="url(#clip910)" d="M1252.04 1550.12 Q1244.94 1550.12 1242.2 1551.75 Q1239.47 1553.37 1239.47 1557.29 Q1239.47 1560.4 1241.5 1562.25 Q1243.57 1564.07 1247.1 1564.07 Q1251.97 1564.07 1254.9 1560.63 Q1257.86 1557.16 1257.86 1551.43 L1257.86 1550.12 L1252.04 1550.12 M1263.72 1547.71 L1263.72 1568.04 L1257.86 1568.04 L1257.86 1562.63 Q1255.86 1565.88 1252.87 1567.44 Q1249.87 1568.97 1245.54 1568.97 Q1240.07 1568.97 1236.82 1565.91 Q1233.61 1562.82 1233.61 1557.67 Q1233.61 1551.65 1237.62 1548.6 Q1241.66 1545.54 1249.65 1545.54 L1257.86 1545.54 L1257.86 1544.97 Q1257.86 1540.93 1255.19 1538.73 Q1252.55 1536.5 1247.74 1536.5 Q1244.69 1536.5 1241.79 1537.23 Q1238.89 1537.97 1236.22 1539.43 L1236.22 1534.02 Q1239.43 1532.78 1242.46 1532.17 Q1245.48 1531.54 1248.35 1531.54 Q1256.08 1531.54 1259.9 1535.55 Q1263.72 1539.56 1263.72 1547.71 Z" fill="#000000" fill-rule="nonzero" fill-opacity="1" /><path clip-path="url(#clip910)" d="M1301.44 1533.76 L1301.44 1539.24 Q1298.95 1537.87 1296.44 1537.2 Q1293.96 1536.5 1291.41 1536.5 Q1285.71 1536.5 1282.56 1540.13 Q1279.41 1543.73 1279.41 1550.25 Q1279.41 1556.78 1282.56 1560.4 Q1285.71 1564 1291.41 1564 Q1293.96 1564 1296.44 1563.33 Q1298.95 1562.63 1301.44 1561.26 L1301.44 1566.68 Q1298.98 1567.82 1296.34 1568.39 Q1293.73 1568.97 1290.77 1568.97 Q1282.72 1568.97 1277.98 1563.91 Q1273.24 1558.85 1273.24 1550.25 Q1273.24 1541.53 1278.01 1536.53 Q1282.82 1531.54 1291.15 1531.54 Q1293.86 1531.54 1296.44 1532.11 Q1299.02 1532.65 1301.44 1533.76 Z" fill="#000000" fill-rule="nonzero" fill-opacity="1" /><path clip-path="url(#clip910)" d="M1317.41 1522.27 L1317.41 1532.4 L1329.48 1532.4 L1329.48 1536.95 L1317.41 1536.95 L1317.41 1556.3 Q1317.41 1560.66 1318.59 1561.9 Q1319.8 1563.14 1323.46 1563.14 L1329.48 1563.14 L1329.48 1568.04 L1323.46 1568.04 Q1316.68 1568.04 1314.1 1565.53 Q1311.53 1562.98 1311.53 1556.3 L1311.53 1536.95 L1307.23 1536.95 L1307.23 1532.4 L1311.53 1532.4 L1311.53 1522.27 L1317.41 1522.27 Z" fill="#000000" fill-rule="nonzero" fill-opacity="1" /><path clip-path="url(#clip910)" d="M1350.99 1536.5 Q1346.28 1536.5 1343.54 1540.19 Q1340.81 1543.85 1340.81 1550.25 Q1340.81 1556.65 1343.51 1560.34 Q1346.25 1564 1350.99 1564 Q1355.67 1564 1358.41 1560.31 Q1361.15 1556.62 1361.15 1550.25 Q1361.15 1543.92 1358.41 1540.23 Q1355.67 1536.5 1350.99 1536.5 M1350.99 1531.54 Q1358.63 1531.54 1362.99 1536.5 Q1367.35 1541.47 1367.35 1550.25 Q1367.35 1559 1362.99 1564 Q1358.63 1568.97 1350.99 1568.97 Q1343.32 1568.97 1338.96 1564 Q1334.63 1559 1334.63 1550.25 Q1334.63 1541.47 1338.96 1536.5 Q1343.32 1531.54 1350.99 1531.54 Z" fill="#000000" fill-rule="nonzero" fill-opacity="1" /><path clip-path="url(#clip910)" d="M1397.72 1537.87 Q1396.73 1537.3 1395.55 1537.04 Q1394.41 1536.76 1393.01 1536.76 Q1388.04 1536.76 1385.37 1540 Q1382.73 1543.22 1382.73 1549.27 L1382.73 1568.04 L1376.84 1568.04 L1376.84 1532.4 L1382.73 1532.4 L1382.73 1537.93 Q1384.57 1534.69 1387.53 1533.13 Q1390.49 1531.54 1394.72 1531.54 Q1395.33 1531.54 1396.06 1531.63 Q1396.79 1531.7 1397.68 1531.85 L1397.72 1537.87 Z" fill="#000000" fill-rule="nonzero" fill-opacity="1" /><polyline clip-path="url(#clip910)" style="stroke:#000000; stroke-linecap:round; stroke-linejoin:round; stroke-width:4; stroke-opacity:1; fill:none" points="249.542,1423.18 249.542,47.2441 "/>
<polyline clip-path="url(#clip910)" style="stroke:#000000; stroke-linecap:round; stroke-linejoin:round; stroke-width:4; stroke-opacity:1; fill:none" points="249.542,1383.19 268.44,1383.19 "/>
<polyline clip-path="url(#clip910)" style="stroke:#000000; stroke-linecap:round; stroke-linejoin:round; stroke-width:4; stroke-opacity:1; fill:none" points="249.542,1074.45 268.44,1074.45 "/>
<polyline clip-path="url(#clip910)" style="stroke:#000000; stroke-linecap:round; stroke-linejoin:round; stroke-width:4; stroke-opacity:1; fill:none" points="249.542,765.709 268.44,765.709 "/>
<polyline clip-path="url(#clip910)" style="stroke:#000000; stroke-linecap:round; stroke-linejoin:round; stroke-width:4; stroke-opacity:1; fill:none" points="249.542,456.971 268.44,456.971 "/>
<polyline clip-path="url(#clip910)" style="stroke:#000000; stroke-linecap:round; stroke-linejoin:round; stroke-width:4; stroke-opacity:1; fill:none" points="249.542,148.232 268.44,148.232 "/>
<path clip-path="url(#clip910)" d="M126.205 1368.98 Q122.593 1368.98 120.765 1372.55 Q118.959 1376.09 118.959 1383.22 Q118.959 1390.33 120.765 1393.89 Q122.593 1397.43 126.205 1397.43 Q129.839 1397.43 131.644 1393.89 Q133.473 1390.33 133.473 1383.22 Q133.473 1376.09 131.644 1372.55 Q129.839 1368.98 126.205 1368.98 M126.205 1365.28 Q132.015 1365.28 135.07 1369.89 Q138.149 1374.47 138.149 1383.22 Q138.149 1391.95 135.07 1396.55 Q132.015 1401.14 126.205 1401.14 Q120.394 1401.14 117.316 1396.55 Q114.26 1391.95 114.26 1383.22 Q114.26 1374.47 117.316 1369.89 Q120.394 1365.28 126.205 1365.28 Z" fill="#000000" fill-rule="nonzero" fill-opacity="1" /><path clip-path="url(#clip910)" d="M146.366 1394.59 L151.251 1394.59 L151.251 1400.47 L146.366 1400.47 L146.366 1394.59 Z" fill="#000000" fill-rule="nonzero" fill-opacity="1" /><path clip-path="url(#clip910)" d="M171.436 1368.98 Q167.825 1368.98 165.996 1372.55 Q164.19 1376.09 164.19 1383.22 Q164.19 1390.33 165.996 1393.89 Q167.825 1397.43 171.436 1397.43 Q175.07 1397.43 176.876 1393.89 Q178.704 1390.33 178.704 1383.22 Q178.704 1376.09 176.876 1372.55 Q175.07 1368.98 171.436 1368.98 M171.436 1365.28 Q177.246 1365.28 180.301 1369.89 Q183.38 1374.47 183.38 1383.22 Q183.38 1391.95 180.301 1396.55 Q177.246 1401.14 171.436 1401.14 Q165.626 1401.14 162.547 1396.55 Q159.491 1391.95 159.491 1383.22 Q159.491 1374.47 162.547 1369.89 Q165.626 1365.28 171.436 1365.28 Z" fill="#000000" fill-rule="nonzero" fill-opacity="1" /><path clip-path="url(#clip910)" d="M201.598 1368.98 Q197.987 1368.98 196.158 1372.55 Q194.352 1376.09 194.352 1383.22 Q194.352 1390.33 196.158 1393.89 Q197.987 1397.43 201.598 1397.43 Q205.232 1397.43 207.037 1393.89 Q208.866 1390.33 208.866 1383.22 Q208.866 1376.09 207.037 1372.55 Q205.232 1368.98 201.598 1368.98 M201.598 1365.28 Q207.408 1365.28 210.463 1369.89 Q213.542 1374.47 213.542 1383.22 Q213.542 1391.95 210.463 1396.55 Q207.408 1401.14 201.598 1401.14 Q195.787 1401.14 192.709 1396.55 Q189.653 1391.95 189.653 1383.22 Q189.653 1374.47 192.709 1369.89 Q195.787 1365.28 201.598 1365.28 Z" fill="#000000" fill-rule="nonzero" fill-opacity="1" /><path clip-path="url(#clip910)" d="M127.2 1060.25 Q123.589 1060.25 121.76 1063.81 Q119.955 1067.35 119.955 1074.48 Q119.955 1081.59 121.76 1085.15 Q123.589 1088.7 127.2 1088.7 Q130.834 1088.7 132.64 1085.15 Q134.468 1081.59 134.468 1074.48 Q134.468 1067.35 132.64 1063.81 Q130.834 1060.25 127.2 1060.25 M127.2 1056.54 Q133.01 1056.54 136.066 1061.15 Q139.144 1065.73 139.144 1074.48 Q139.144 1083.21 136.066 1087.82 Q133.01 1092.4 127.2 1092.4 Q121.39 1092.4 118.311 1087.82 Q115.256 1083.21 115.256 1074.48 Q115.256 1065.73 118.311 1061.15 Q121.39 1056.54 127.2 1056.54 Z" fill="#000000" fill-rule="nonzero" fill-opacity="1" /><path clip-path="url(#clip910)" d="M147.362 1085.85 L152.246 1085.85 L152.246 1091.73 L147.362 1091.73 L147.362 1085.85 Z" fill="#000000" fill-rule="nonzero" fill-opacity="1" /><path clip-path="url(#clip910)" d="M166.459 1087.79 L182.778 1087.79 L182.778 1091.73 L160.834 1091.73 L160.834 1087.79 Q163.496 1085.04 168.079 1080.41 Q172.686 1075.76 173.866 1074.41 Q176.112 1071.89 176.991 1070.15 Q177.894 1068.39 177.894 1066.7 Q177.894 1063.95 175.95 1062.21 Q174.028 1060.48 170.927 1060.48 Q168.727 1060.48 166.274 1061.24 Q163.843 1062.01 161.065 1063.56 L161.065 1058.83 Q163.89 1057.7 166.343 1057.12 Q168.797 1056.54 170.834 1056.54 Q176.204 1056.54 179.399 1059.23 Q182.593 1061.91 182.593 1066.4 Q182.593 1068.53 181.783 1070.45 Q180.996 1072.35 178.889 1074.95 Q178.311 1075.62 175.209 1078.83 Q172.107 1082.03 166.459 1087.79 Z" fill="#000000" fill-rule="nonzero" fill-opacity="1" /><path clip-path="url(#clip910)" d="M192.639 1057.17 L210.996 1057.17 L210.996 1061.1 L196.922 1061.1 L196.922 1069.57 Q197.94 1069.23 198.959 1069.07 Q199.977 1068.88 200.996 1068.88 Q206.783 1068.88 210.162 1072.05 Q213.542 1075.22 213.542 1080.64 Q213.542 1086.22 210.07 1089.32 Q206.598 1092.4 200.278 1092.4 Q198.102 1092.4 195.834 1092.03 Q193.588 1091.66 191.181 1090.92 L191.181 1086.22 Q193.264 1087.35 195.487 1087.91 Q197.709 1088.46 200.186 1088.46 Q204.19 1088.46 206.528 1086.36 Q208.866 1084.25 208.866 1080.64 Q208.866 1077.03 206.528 1074.92 Q204.19 1072.82 200.186 1072.82 Q198.311 1072.82 196.436 1073.23 Q194.584 1073.65 192.639 1074.53 L192.639 1057.17 Z" fill="#000000" fill-rule="nonzero" fill-opacity="1" /><path clip-path="url(#clip910)" d="M126.205 751.508 Q122.593 751.508 120.765 755.073 Q118.959 758.614 118.959 765.744 Q118.959 772.85 120.765 776.415 Q122.593 779.957 126.205 779.957 Q129.839 779.957 131.644 776.415 Q133.473 772.85 133.473 765.744 Q133.473 758.614 131.644 755.073 Q129.839 751.508 126.205 751.508 M126.205 747.804 Q132.015 747.804 135.07 752.411 Q138.149 756.994 138.149 765.744 Q138.149 774.471 135.07 779.077 Q132.015 783.66 126.205 783.66 Q120.394 783.66 117.316 779.077 Q114.26 774.471 114.26 765.744 Q114.26 756.994 117.316 752.411 Q120.394 747.804 126.205 747.804 Z" fill="#000000" fill-rule="nonzero" fill-opacity="1" /><path clip-path="url(#clip910)" d="M146.366 777.109 L151.251 777.109 L151.251 782.989 L146.366 782.989 L146.366 777.109 Z" fill="#000000" fill-rule="nonzero" fill-opacity="1" /><path clip-path="url(#clip910)" d="M161.482 748.429 L179.839 748.429 L179.839 752.364 L165.765 752.364 L165.765 760.836 Q166.783 760.489 167.802 760.327 Q168.82 760.142 169.839 760.142 Q175.626 760.142 179.005 763.313 Q182.385 766.485 182.385 771.901 Q182.385 777.48 178.913 780.582 Q175.44 783.66 169.121 783.66 Q166.945 783.66 164.677 783.29 Q162.431 782.92 160.024 782.179 L160.024 777.48 Q162.107 778.614 164.329 779.17 Q166.552 779.725 169.028 779.725 Q173.033 779.725 175.371 777.619 Q177.709 775.512 177.709 771.901 Q177.709 768.29 175.371 766.184 Q173.033 764.077 169.028 764.077 Q167.153 764.077 165.278 764.494 Q163.427 764.91 161.482 765.79 L161.482 748.429 Z" fill="#000000" fill-rule="nonzero" fill-opacity="1" /><path clip-path="url(#clip910)" d="M201.598 751.508 Q197.987 751.508 196.158 755.073 Q194.352 758.614 194.352 765.744 Q194.352 772.85 196.158 776.415 Q197.987 779.957 201.598 779.957 Q205.232 779.957 207.037 776.415 Q208.866 772.85 208.866 765.744 Q208.866 758.614 207.037 755.073 Q205.232 751.508 201.598 751.508 M201.598 747.804 Q207.408 747.804 210.463 752.411 Q213.542 756.994 213.542 765.744 Q213.542 774.471 210.463 779.077 Q207.408 783.66 201.598 783.66 Q195.787 783.66 192.709 779.077 Q189.653 774.471 189.653 765.744 Q189.653 756.994 192.709 752.411 Q195.787 747.804 201.598 747.804 Z" fill="#000000" fill-rule="nonzero" fill-opacity="1" /><path clip-path="url(#clip910)" d="M127.2 442.769 Q123.589 442.769 121.76 446.334 Q119.955 449.876 119.955 457.005 Q119.955 464.112 121.76 467.677 Q123.589 471.218 127.2 471.218 Q130.834 471.218 132.64 467.677 Q134.468 464.112 134.468 457.005 Q134.468 449.876 132.64 446.334 Q130.834 442.769 127.2 442.769 M127.2 439.066 Q133.01 439.066 136.066 443.672 Q139.144 448.255 139.144 457.005 Q139.144 465.732 136.066 470.339 Q133.01 474.922 127.2 474.922 Q121.39 474.922 118.311 470.339 Q115.256 465.732 115.256 457.005 Q115.256 448.255 118.311 443.672 Q121.39 439.066 127.2 439.066 Z" fill="#000000" fill-rule="nonzero" fill-opacity="1" /><path clip-path="url(#clip910)" d="M147.362 468.371 L152.246 468.371 L152.246 474.251 L147.362 474.251 L147.362 468.371 Z" fill="#000000" fill-rule="nonzero" fill-opacity="1" /><path clip-path="url(#clip910)" d="M161.251 439.691 L183.473 439.691 L183.473 441.681 L170.927 474.251 L166.042 474.251 L177.848 443.626 L161.251 443.626 L161.251 439.691 Z" fill="#000000" fill-rule="nonzero" fill-opacity="1" /><path clip-path="url(#clip910)" d="M192.639 439.691 L210.996 439.691 L210.996 443.626 L196.922 443.626 L196.922 452.098 Q197.94 451.751 198.959 451.589 Q199.977 451.404 200.996 451.404 Q206.783 451.404 210.162 454.575 Q213.542 457.746 213.542 463.163 Q213.542 468.741 210.07 471.843 Q206.598 474.922 200.278 474.922 Q198.102 474.922 195.834 474.552 Q193.588 474.181 191.181 473.44 L191.181 468.741 Q193.264 469.876 195.487 470.431 Q197.709 470.987 200.186 470.987 Q204.19 470.987 206.528 468.88 Q208.866 466.774 208.866 463.163 Q208.866 459.552 206.528 457.445 Q204.19 455.339 200.186 455.339 Q198.311 455.339 196.436 455.755 Q194.584 456.172 192.639 457.052 L192.639 439.691 Z" fill="#000000" fill-rule="nonzero" fill-opacity="1" /><path clip-path="url(#clip910)" d="M117.015 161.577 L124.654 161.577 L124.654 135.211 L116.343 136.878 L116.343 132.619 L124.607 130.952 L129.283 130.952 L129.283 161.577 L136.922 161.577 L136.922 165.512 L117.015 165.512 L117.015 161.577 Z" fill="#000000" fill-rule="nonzero" fill-opacity="1" /><path clip-path="url(#clip910)" d="M146.366 159.633 L151.251 159.633 L151.251 165.512 L146.366 165.512 L146.366 159.633 Z" fill="#000000" fill-rule="nonzero" fill-opacity="1" /><path clip-path="url(#clip910)" d="M171.436 134.031 Q167.825 134.031 165.996 137.596 Q164.19 141.137 164.19 148.267 Q164.19 155.373 165.996 158.938 Q167.825 162.48 171.436 162.48 Q175.07 162.48 176.876 158.938 Q178.704 155.373 178.704 148.267 Q178.704 141.137 176.876 137.596 Q175.07 134.031 171.436 134.031 M171.436 130.327 Q177.246 130.327 180.301 134.934 Q183.38 139.517 183.38 148.267 Q183.38 156.994 180.301 161.6 Q177.246 166.184 171.436 166.184 Q165.626 166.184 162.547 161.6 Q159.491 156.994 159.491 148.267 Q159.491 139.517 162.547 134.934 Q165.626 130.327 171.436 130.327 Z" fill="#000000" fill-rule="nonzero" fill-opacity="1" /><path clip-path="url(#clip910)" d="M201.598 134.031 Q197.987 134.031 196.158 137.596 Q194.352 141.137 194.352 148.267 Q194.352 155.373 196.158 158.938 Q197.987 162.48 201.598 162.48 Q205.232 162.48 207.037 158.938 Q208.866 155.373 208.866 148.267 Q208.866 141.137 207.037 137.596 Q205.232 134.031 201.598 134.031 M201.598 130.327 Q207.408 130.327 210.463 134.934 Q213.542 139.517 213.542 148.267 Q213.542 156.994 210.463 161.6 Q207.408 166.184 201.598 166.184 Q195.787 166.184 192.709 161.6 Q189.653 156.994 189.653 148.267 Q189.653 139.517 192.709 134.934 Q195.787 130.327 201.598 130.327 Z" fill="#000000" fill-rule="nonzero" fill-opacity="1" /><path clip-path="url(#clip910)" d="M41.7242 895.58 Q42.4244 893.511 44.7161 891.57 Q47.0077 889.596 51.0181 887.623 L64.0042 881.098 L64.0042 888.005 L51.8138 894.084 Q47.0395 896.439 45.48 898.667 Q43.9204 900.864 43.9204 904.683 L43.9204 911.685 L64.0042 911.685 L64.0042 918.115 L16.4842 918.115 L16.4842 903.601 Q16.4842 895.453 19.8898 891.442 Q23.2955 887.432 30.1704 887.432 Q34.6582 887.432 37.6183 889.533 Q40.5784 891.601 41.7242 895.58 M21.7677 911.685 L38.6368 911.685 L38.6368 903.601 Q38.6368 898.954 36.5043 896.599 Q34.34 894.211 30.1704 894.211 Q26.0009 894.211 23.9002 896.599 Q21.7677 898.954 21.7677 903.601 L21.7677 911.685 Z" fill="#000000" fill-rule="nonzero" fill-opacity="1" /><path clip-path="url(#clip910)" d="M49.9359 876.61 L28.3562 876.61 L28.3562 870.754 L49.7131 870.754 Q54.7739 870.754 57.3202 868.78 Q59.8346 866.807 59.8346 862.86 Q59.8346 858.118 56.8109 855.381 Q53.7872 852.612 48.5673 852.612 L28.3562 852.612 L28.3562 846.755 L64.0042 846.755 L64.0042 852.612 L58.5296 852.612 Q61.7762 854.744 63.3676 857.577 Q64.9272 860.378 64.9272 864.102 Q64.9272 870.245 61.1078 873.427 Q57.2883 876.61 49.9359 876.61 M27.4968 861.874 L27.4968 861.874 Z" fill="#000000" fill-rule="nonzero" fill-opacity="1" /><path clip-path="url(#clip910)" d="M42.4881 805.06 L64.0042 805.06 L64.0042 810.916 L42.679 810.916 Q37.6183 810.916 35.1038 812.89 Q32.5894 814.863 32.5894 818.81 Q32.5894 823.552 35.6131 826.289 Q38.6368 829.027 43.8567 829.027 L64.0042 829.027 L64.0042 834.915 L28.3562 834.915 L28.3562 829.027 L33.8944 829.027 Q30.6797 826.926 29.0883 824.093 Q27.4968 821.229 27.4968 817.505 Q27.4968 811.362 31.3163 808.211 Q35.1038 805.06 42.4881 805.06 Z" fill="#000000" fill-rule="nonzero" fill-opacity="1" /><path clip-path="url(#clip910)" d="M18.2347 787.586 L28.3562 787.586 L28.3562 775.523 L32.9077 775.523 L32.9077 787.586 L52.2594 787.586 Q56.6199 787.586 57.8613 786.408 Q59.1026 785.199 59.1026 781.538 L59.1026 775.523 L64.0042 775.523 L64.0042 781.538 Q64.0042 788.318 61.4897 790.896 Q58.9434 793.474 52.2594 793.474 L32.9077 793.474 L32.9077 797.771 L28.3562 797.771 L28.3562 793.474 L18.2347 793.474 L18.2347 787.586 Z" fill="#000000" fill-rule="nonzero" fill-opacity="1" /><path clip-path="url(#clip910)" d="M28.3562 767.82 L28.3562 761.964 L64.0042 761.964 L64.0042 767.82 L28.3562 767.82 M14.479 767.82 L14.479 761.964 L21.895 761.964 L21.895 767.82 L14.479 767.82 Z" fill="#000000" fill-rule="nonzero" fill-opacity="1" /><path clip-path="url(#clip910)" d="M35.1993 721.955 Q31.2526 719.759 29.3747 716.704 Q27.4968 713.648 27.4968 709.51 Q27.4968 703.94 31.4117 700.917 Q35.2948 697.893 42.4881 697.893 L64.0042 697.893 L64.0042 703.781 L42.679 703.781 Q37.5546 703.781 35.072 705.596 Q32.5894 707.41 32.5894 711.134 Q32.5894 715.685 35.6131 718.327 Q38.6368 720.969 43.8567 720.969 L64.0042 720.969 L64.0042 726.857 L42.679 726.857 Q37.5228 726.857 35.072 728.671 Q32.5894 730.485 32.5894 734.273 Q32.5894 738.761 35.6449 741.403 Q38.6686 744.044 43.8567 744.044 L64.0042 744.044 L64.0042 749.933 L28.3562 749.933 L28.3562 744.044 L33.8944 744.044 Q30.616 742.039 29.0564 739.238 Q27.4968 736.437 27.4968 732.586 Q27.4968 728.703 29.4702 725.998 Q31.4436 723.26 35.1993 721.955 Z" fill="#000000" fill-rule="nonzero" fill-opacity="1" /><path clip-path="url(#clip910)" d="M44.7161 655.72 L47.5806 655.72 L47.5806 682.647 Q53.6281 682.265 56.8109 679.019 Q59.9619 675.74 59.9619 669.916 Q59.9619 666.542 59.1344 663.391 Q58.3069 660.208 56.6518 657.089 L62.1899 657.089 Q63.5267 660.24 64.227 663.55 Q64.9272 666.86 64.9272 670.266 Q64.9272 678.796 59.9619 683.793 Q54.9967 688.758 46.5303 688.758 Q37.7774 688.758 32.6531 684.048 Q27.4968 679.305 27.4968 671.284 Q27.4968 664.091 32.1438 659.922 Q36.7589 655.72 44.7161 655.72 M42.9973 661.577 Q38.1912 661.64 35.3266 664.282 Q32.4621 666.892 32.4621 671.221 Q32.4621 676.122 35.2312 679.082 Q38.0002 682.011 43.0292 682.456 L42.9973 661.577 Z" fill="#000000" fill-rule="nonzero" fill-opacity="1" /><path clip-path="url(#clip910)" d="M14.479 625.929 L14.479 612.433 L19.0304 612.433 L19.0304 620.072 L68.0464 620.072 L68.0464 612.433 L72.5979 612.433 L72.5979 625.929 L14.479 625.929 Z" fill="#000000" fill-rule="nonzero" fill-opacity="1" /><path clip-path="url(#clip910)" d="M29.4065 577.231 L34.9447 577.231 Q33.6716 579.714 33.035 582.387 Q32.3984 585.061 32.3984 587.925 Q32.3984 592.286 33.7352 594.482 Q35.072 596.646 37.7456 596.646 Q39.7826 596.646 40.9603 595.087 Q42.1061 593.527 43.1565 588.817 L43.6021 586.811 Q44.9389 580.573 47.3897 577.963 Q49.8086 575.321 54.1691 575.321 Q59.1344 575.321 62.0308 579.268 Q64.9272 583.183 64.9272 590.058 Q64.9272 592.923 64.3543 596.042 Q63.8132 599.129 62.6992 602.567 L56.6518 602.567 Q58.3387 599.32 59.198 596.169 Q60.0256 593.018 60.0256 589.931 Q60.0256 585.793 58.6251 583.565 Q57.1929 581.337 54.6147 581.337 Q52.2276 581.337 50.9545 582.96 Q49.6813 584.552 48.5037 589.994 L48.0262 592.031 Q46.8804 597.474 44.5251 599.893 Q42.138 602.312 38.0002 602.312 Q32.9713 602.312 30.2341 598.747 Q27.4968 595.182 27.4968 588.626 Q27.4968 585.379 27.9743 582.515 Q28.4517 579.65 29.4065 577.231 Z" fill="#000000" fill-rule="nonzero" fill-opacity="1" /><path clip-path="url(#clip910)" d="M14.479 552.309 L72.5979 552.309 L72.5979 565.805 L68.0464 565.805 L68.0464 558.198 L19.0304 558.198 L19.0304 565.805 L14.479 565.805 L14.479 552.309 Z" fill="#000000" fill-rule="nonzero" fill-opacity="1" /><circle clip-path="url(#clip912)" cx="309.067" cy="1368.14" r="14.4" fill="#009af9" fill-rule="evenodd" fill-opacity="1" stroke="#000000" stroke-opacity="1" stroke-width="3.2"/>
<circle clip-path="url(#clip912)" cx="529.53" cy="1335.89" r="14.4" fill="#009af9" fill-rule="evenodd" fill-opacity="1" stroke="#000000" stroke-opacity="1" stroke-width="3.2"/>
<circle clip-path="url(#clip912)" cx="749.992" cy="1289.46" r="14.4" fill="#009af9" fill-rule="evenodd" fill-opacity="1" stroke="#000000" stroke-opacity="1" stroke-width="3.2"/>
<circle clip-path="url(#clip912)" cx="970.455" cy="86.1857" r="14.4" fill="#009af9" fill-rule="evenodd" fill-opacity="1" stroke="#000000" stroke-opacity="1" stroke-width="3.2"/>
<circle clip-path="url(#clip912)" cx="1190.92" cy="1134.47" r="14.4" fill="#009af9" fill-rule="evenodd" fill-opacity="1" stroke="#000000" stroke-opacity="1" stroke-width="3.2"/>
<circle clip-path="url(#clip912)" cx="1411.38" cy="1044.87" r="14.4" fill="#009af9" fill-rule="evenodd" fill-opacity="1" stroke="#000000" stroke-opacity="1" stroke-width="3.2"/>
<circle clip-path="url(#clip912)" cx="1631.84" cy="929.363" r="14.4" fill="#009af9" fill-rule="evenodd" fill-opacity="1" stroke="#000000" stroke-opacity="1" stroke-width="3.2"/>
<circle clip-path="url(#clip912)" cx="1852.31" cy="801.693" r="14.4" fill="#009af9" fill-rule="evenodd" fill-opacity="1" stroke="#000000" stroke-opacity="1" stroke-width="3.2"/>
<circle clip-path="url(#clip912)" cx="2072.77" cy="623.215" r="14.4" fill="#009af9" fill-rule="evenodd" fill-opacity="1" stroke="#000000" stroke-opacity="1" stroke-width="3.2"/>
<circle clip-path="url(#clip912)" cx="2293.23" cy="493.648" r="14.4" fill="#009af9" fill-rule="evenodd" fill-opacity="1" stroke="#000000" stroke-opacity="1" stroke-width="3.2"/>
<polyline clip-path="url(#clip912)" style="stroke:#e26f46; stroke-linecap:round; stroke-linejoin:round; stroke-width:4; stroke-opacity:1; fill:none" points="309.067,1154.21 529.53,1134.73 749.992,1102.26 970.455,1056.8 1190.92,998.359 1411.38,926.928 1631.84,842.51 1852.31,745.105 2072.77,634.712 2293.23,511.331 "/>
<circle clip-path="url(#clip912)" cx="309.067" cy="1375.57" r="14.4" fill="#3da44d" fill-rule="evenodd" fill-opacity="1" stroke="#000000" stroke-opacity="1" stroke-width="3.2"/>
<circle clip-path="url(#clip912)" cx="529.53" cy="1367.84" r="14.4" fill="#3da44d" fill-rule="evenodd" fill-opacity="1" stroke="#000000" stroke-opacity="1" stroke-width="3.2"/>
<circle clip-path="url(#clip912)" cx="749.992" cy="1360.26" r="14.4" fill="#3da44d" fill-rule="evenodd" fill-opacity="1" stroke="#000000" stroke-opacity="1" stroke-width="3.2"/>
<circle clip-path="url(#clip912)" cx="970.455" cy="1354.39" r="14.4" fill="#3da44d" fill-rule="evenodd" fill-opacity="1" stroke="#000000" stroke-opacity="1" stroke-width="3.2"/>
<circle clip-path="url(#clip912)" cx="1190.92" cy="1347.3" r="14.4" fill="#3da44d" fill-rule="evenodd" fill-opacity="1" stroke="#000000" stroke-opacity="1" stroke-width="3.2"/>
<circle clip-path="url(#clip912)" cx="1411.38" cy="1336.29" r="14.4" fill="#3da44d" fill-rule="evenodd" fill-opacity="1" stroke="#000000" stroke-opacity="1" stroke-width="3.2"/>
<circle clip-path="url(#clip912)" cx="1631.84" cy="1323.96" r="14.4" fill="#3da44d" fill-rule="evenodd" fill-opacity="1" stroke="#000000" stroke-opacity="1" stroke-width="3.2"/>
<circle clip-path="url(#clip912)" cx="1852.31" cy="1327.23" r="14.4" fill="#3da44d" fill-rule="evenodd" fill-opacity="1" stroke="#000000" stroke-opacity="1" stroke-width="3.2"/>
<circle clip-path="url(#clip912)" cx="2072.77" cy="1225.12" r="14.4" fill="#3da44d" fill-rule="evenodd" fill-opacity="1" stroke="#000000" stroke-opacity="1" stroke-width="3.2"/>
<circle clip-path="url(#clip912)" cx="2293.23" cy="1304.47" r="14.4" fill="#3da44d" fill-rule="evenodd" fill-opacity="1" stroke="#000000" stroke-opacity="1" stroke-width="3.2"/>
<polyline clip-path="url(#clip912)" style="stroke:#c271d2; stroke-linecap:round; stroke-linejoin:round; stroke-width:4; stroke-opacity:1; fill:none" points="309.067,1384.24 529.53,1372.68 749.992,1361.13 970.455,1349.58 1190.92,1338.02 1411.38,1326.47 1631.84,1314.91 1852.31,1303.36 2072.77,1291.8 2293.23,1280.25 "/>
<path clip-path="url(#clip910)" d="M1779.74 352.309 L2282.65 352.309 L2282.65 93.1086 L1779.74 93.1086  Z" fill="#ffffff" fill-rule="evenodd" fill-opacity="1"/>
<polyline clip-path="url(#clip910)" style="stroke:#000000; stroke-linecap:round; stroke-linejoin:round; stroke-width:4; stroke-opacity:1; fill:none" points="1779.74,352.309 2282.65,352.309 2282.65,93.1086 1779.74,93.1086 1779.74,352.309 "/>
<circle clip-path="url(#clip910)" cx="1873.21" cy="144.949" r="20.48" fill="#009af9" fill-rule="evenodd" fill-opacity="1" stroke="#000000" stroke-opacity="1" stroke-width="4.55111"/>
<path clip-path="url(#clip910)" d="M1982.52 132.275 L1976.18 149.474 L1988.89 149.474 L1982.52 132.275 M1979.88 127.669 L1985.18 127.669 L1998.36 162.229 L1993.49 162.229 L1990.35 153.363 L1974.77 153.363 L1971.62 162.229 L1966.69 162.229 L1979.88 127.669 Z" fill="#000000" fill-rule="nonzero" fill-opacity="1" /><path clip-path="url(#clip910)" d="M2021.04 137.298 L2021.04 141.28 Q2019.23 140.284 2017.41 139.798 Q2015.6 139.289 2013.75 139.289 Q2009.61 139.289 2007.31 141.928 Q2005.02 144.544 2005.02 149.289 Q2005.02 154.034 2007.31 156.673 Q2009.61 159.289 2013.75 159.289 Q2015.6 159.289 2017.41 158.803 Q2019.23 158.293 2021.04 157.298 L2021.04 161.233 Q2019.26 162.067 2017.34 162.483 Q2015.44 162.9 2013.29 162.9 Q2007.43 162.9 2003.98 159.219 Q2000.53 155.539 2000.53 149.289 Q2000.53 142.946 2004 139.312 Q2007.5 135.678 2013.56 135.678 Q2015.53 135.678 2017.41 136.095 Q2019.28 136.488 2021.04 137.298 Z" fill="#000000" fill-rule="nonzero" fill-opacity="1" /><path clip-path="url(#clip910)" d="M2032.66 128.942 L2032.66 136.303 L2041.43 136.303 L2041.43 139.613 L2032.66 139.613 L2032.66 153.687 Q2032.66 156.858 2033.52 157.761 Q2034.4 158.664 2037.06 158.664 L2041.43 158.664 L2041.43 162.229 L2037.06 162.229 Q2032.13 162.229 2030.25 160.4 Q2028.38 158.548 2028.38 153.687 L2028.38 139.613 L2025.25 139.613 L2025.25 136.303 L2028.38 136.303 L2028.38 128.942 L2032.66 128.942 Z" fill="#000000" fill-rule="nonzero" fill-opacity="1" /><path clip-path="url(#clip910)" d="M2046.6 151.997 L2046.6 136.303 L2050.85 136.303 L2050.85 151.835 Q2050.85 155.516 2052.29 157.368 Q2053.73 159.196 2056.6 159.196 Q2060.04 159.196 2062.04 156.997 Q2064.05 154.798 2064.05 151.002 L2064.05 136.303 L2068.31 136.303 L2068.31 162.229 L2064.05 162.229 L2064.05 158.247 Q2062.5 160.608 2060.44 161.766 Q2058.4 162.9 2055.69 162.9 Q2051.23 162.9 2048.91 160.122 Q2046.6 157.344 2046.6 151.997 M2057.31 135.678 L2057.31 135.678 Z" fill="#000000" fill-rule="nonzero" fill-opacity="1" /><path clip-path="url(#clip910)" d="M2088.86 149.196 Q2083.7 149.196 2081.71 150.377 Q2079.72 151.557 2079.72 154.405 Q2079.72 156.673 2081.2 158.016 Q2082.71 159.335 2085.28 159.335 Q2088.82 159.335 2090.95 156.835 Q2093.1 154.312 2093.1 150.145 L2093.1 149.196 L2088.86 149.196 M2097.36 147.437 L2097.36 162.229 L2093.1 162.229 L2093.1 158.293 Q2091.64 160.655 2089.47 161.789 Q2087.29 162.9 2084.14 162.9 Q2080.16 162.9 2077.8 160.678 Q2075.46 158.432 2075.46 154.682 Q2075.46 150.307 2078.38 148.085 Q2081.32 145.863 2087.13 145.863 L2093.1 145.863 L2093.1 145.446 Q2093.1 142.507 2091.16 140.909 Q2089.23 139.289 2085.74 139.289 Q2083.52 139.289 2081.41 139.821 Q2079.3 140.354 2077.36 141.419 L2077.36 137.483 Q2079.7 136.581 2081.9 136.141 Q2084.1 135.678 2086.18 135.678 Q2091.8 135.678 2094.58 138.594 Q2097.36 141.511 2097.36 147.437 Z" fill="#000000" fill-rule="nonzero" fill-opacity="1" /><path clip-path="url(#clip910)" d="M2106.13 126.21 L2110.39 126.21 L2110.39 162.229 L2106.13 162.229 L2106.13 126.21 Z" fill="#000000" fill-rule="nonzero" fill-opacity="1" /><polyline clip-path="url(#clip910)" style="stroke:#e26f46; stroke-linecap:round; stroke-linejoin:round; stroke-width:4; stroke-opacity:1; fill:none" points="1803.11,196.789 1943.32,196.789 "/>
<path clip-path="url(#clip910)" d="M1982.71 182.68 Q1977.61 182.68 1974.61 186.476 Q1971.62 190.272 1971.62 196.823 Q1971.62 203.351 1974.61 207.147 Q1977.61 210.944 1982.71 210.944 Q1987.8 210.944 1990.76 207.147 Q1993.75 203.351 1993.75 196.823 Q1993.75 190.272 1990.76 186.476 Q1987.8 182.68 1982.71 182.68 M1989.26 213.444 L1995.42 220.18 L1989.77 220.18 L1984.65 214.647 Q1983.89 214.694 1983.47 214.717 Q1983.08 214.74 1982.71 214.74 Q1975.42 214.74 1971.04 209.879 Q1966.69 204.995 1966.69 196.823 Q1966.69 188.629 1971.04 183.768 Q1975.42 178.884 1982.71 178.884 Q1989.98 178.884 1994.33 183.768 Q1998.68 188.629 1998.68 196.823 Q1998.68 202.842 1996.25 207.124 Q1993.84 211.407 1989.26 213.444 Z" fill="#000000" fill-rule="nonzero" fill-opacity="1" /><path clip-path="url(#clip910)" d="M2005.37 203.837 L2005.37 188.143 L2009.63 188.143 L2009.63 203.675 Q2009.63 207.356 2011.06 209.208 Q2012.5 211.036 2015.37 211.036 Q2018.82 211.036 2020.81 208.837 Q2022.82 206.638 2022.82 202.842 L2022.82 188.143 L2027.08 188.143 L2027.08 214.069 L2022.82 214.069 L2022.82 210.087 Q2021.27 212.448 2019.21 213.606 Q2017.17 214.74 2014.47 214.74 Q2010 214.74 2007.68 211.962 Q2005.37 209.184 2005.37 203.837 M2016.09 187.518 L2016.09 187.518 Z" fill="#000000" fill-rule="nonzero" fill-opacity="1" /><path clip-path="url(#clip910)" d="M2047.64 201.036 Q2042.48 201.036 2040.48 202.217 Q2038.49 203.397 2038.49 206.245 Q2038.49 208.513 2039.98 209.856 Q2041.48 211.175 2044.05 211.175 Q2047.59 211.175 2049.72 208.675 Q2051.87 206.152 2051.87 201.985 L2051.87 201.036 L2047.64 201.036 M2056.13 199.277 L2056.13 214.069 L2051.87 214.069 L2051.87 210.133 Q2050.42 212.495 2048.24 213.629 Q2046.06 214.74 2042.92 214.74 Q2038.93 214.74 2036.57 212.518 Q2034.23 210.272 2034.23 206.522 Q2034.23 202.147 2037.15 199.925 Q2040.09 197.703 2045.9 197.703 L2051.87 197.703 L2051.87 197.286 Q2051.87 194.347 2049.93 192.749 Q2048.01 191.129 2044.51 191.129 Q2042.29 191.129 2040.18 191.661 Q2038.08 192.194 2036.13 193.259 L2036.13 189.323 Q2038.47 188.421 2040.67 187.981 Q2042.87 187.518 2044.95 187.518 Q2050.58 187.518 2053.35 190.434 Q2056.13 193.351 2056.13 199.277 Z" fill="#000000" fill-rule="nonzero" fill-opacity="1" /><path clip-path="url(#clip910)" d="M2081.97 192.078 L2081.97 178.05 L2086.23 178.05 L2086.23 214.069 L2081.97 214.069 L2081.97 210.18 Q2080.62 212.495 2078.56 213.629 Q2076.53 214.74 2073.66 214.74 Q2068.96 214.74 2065.99 210.99 Q2063.05 207.24 2063.05 201.129 Q2063.05 195.018 2065.99 191.268 Q2068.96 187.518 2073.66 187.518 Q2076.53 187.518 2078.56 188.652 Q2080.62 189.763 2081.97 192.078 M2067.45 201.129 Q2067.45 205.828 2069.37 208.513 Q2071.32 211.175 2074.7 211.175 Q2078.08 211.175 2080.02 208.513 Q2081.97 205.828 2081.97 201.129 Q2081.97 196.43 2080.02 193.768 Q2078.08 191.083 2074.7 191.083 Q2071.32 191.083 2069.37 193.768 Q2067.45 196.43 2067.45 201.129 Z" fill="#000000" fill-rule="nonzero" fill-opacity="1" /><path clip-path="url(#clip910)" d="M2110.02 192.124 Q2109.3 191.708 2108.45 191.522 Q2107.61 191.314 2106.6 191.314 Q2102.98 191.314 2101.04 193.675 Q2099.12 196.013 2099.12 200.411 L2099.12 214.069 L2094.84 214.069 L2094.84 188.143 L2099.12 188.143 L2099.12 192.171 Q2100.46 189.809 2102.61 188.675 Q2104.77 187.518 2107.85 187.518 Q2108.29 187.518 2108.82 187.587 Q2109.35 187.634 2110 187.749 L2110.02 192.124 Z" fill="#000000" fill-rule="nonzero" fill-opacity="1" /><path clip-path="url(#clip910)" d="M2126.27 201.036 Q2121.11 201.036 2119.12 202.217 Q2117.13 203.397 2117.13 206.245 Q2117.13 208.513 2118.61 209.856 Q2120.11 211.175 2122.68 211.175 Q2126.22 211.175 2128.35 208.675 Q2130.51 206.152 2130.51 201.985 L2130.51 201.036 L2126.27 201.036 M2134.77 199.277 L2134.77 214.069 L2130.51 214.069 L2130.51 210.133 Q2129.05 212.495 2126.87 213.629 Q2124.7 214.74 2121.55 214.74 Q2117.57 214.74 2115.21 212.518 Q2112.87 210.272 2112.87 206.522 Q2112.87 202.147 2115.79 199.925 Q2118.72 197.703 2124.54 197.703 L2130.51 197.703 L2130.51 197.286 Q2130.51 194.347 2128.56 192.749 Q2126.64 191.129 2123.15 191.129 Q2120.92 191.129 2118.82 191.661 Q2116.71 192.194 2114.77 193.259 L2114.77 189.323 Q2117.1 188.421 2119.3 187.981 Q2121.5 187.518 2123.59 187.518 Q2129.21 187.518 2131.99 190.434 Q2134.77 193.351 2134.77 199.277 Z" fill="#000000" fill-rule="nonzero" fill-opacity="1" /><path clip-path="url(#clip910)" d="M2147.75 180.782 L2147.75 188.143 L2156.53 188.143 L2156.53 191.453 L2147.75 191.453 L2147.75 205.527 Q2147.75 208.698 2148.61 209.601 Q2149.49 210.504 2152.15 210.504 L2156.53 210.504 L2156.53 214.069 L2152.15 214.069 Q2147.22 214.069 2145.35 212.24 Q2143.47 210.388 2143.47 205.527 L2143.47 191.453 L2140.35 191.453 L2140.35 188.143 L2143.47 188.143 L2143.47 180.782 L2147.75 180.782 Z" fill="#000000" fill-rule="nonzero" fill-opacity="1" /><path clip-path="url(#clip910)" d="M2162.13 188.143 L2166.39 188.143 L2166.39 214.069 L2162.13 214.069 L2162.13 188.143 M2162.13 178.05 L2166.39 178.05 L2166.39 183.444 L2162.13 183.444 L2162.13 178.05 Z" fill="#000000" fill-rule="nonzero" fill-opacity="1" /><path clip-path="url(#clip910)" d="M2193.96 189.138 L2193.96 193.12 Q2192.15 192.124 2190.32 191.638 Q2188.52 191.129 2186.66 191.129 Q2182.52 191.129 2180.23 193.768 Q2177.94 196.384 2177.94 201.129 Q2177.94 205.874 2180.23 208.513 Q2182.52 211.129 2186.66 211.129 Q2188.52 211.129 2190.32 210.643 Q2192.15 210.133 2193.96 209.138 L2193.96 213.073 Q2192.17 213.907 2190.25 214.323 Q2188.35 214.74 2186.2 214.74 Q2180.34 214.74 2176.9 211.059 Q2173.45 207.379 2173.45 201.129 Q2173.45 194.786 2176.92 191.152 Q2180.41 187.518 2186.48 187.518 Q2188.45 187.518 2190.32 187.935 Q2192.2 188.328 2193.96 189.138 Z" fill="#000000" fill-rule="nonzero" fill-opacity="1" /><path clip-path="url(#clip910)" d="M2229.56 178.05 L2229.56 181.592 L2225.48 181.592 Q2223.19 181.592 2222.29 182.518 Q2221.41 183.444 2221.41 185.851 L2221.41 188.143 L2228.42 188.143 L2228.42 191.453 L2221.41 191.453 L2221.41 214.069 L2217.13 214.069 L2217.13 191.453 L2213.05 191.453 L2213.05 188.143 L2217.13 188.143 L2217.13 186.337 Q2217.13 182.009 2219.14 180.041 Q2221.15 178.05 2225.53 178.05 L2229.56 178.05 Z" fill="#000000" fill-rule="nonzero" fill-opacity="1" /><path clip-path="url(#clip910)" d="M2233.12 188.143 L2237.38 188.143 L2237.38 214.069 L2233.12 214.069 L2233.12 188.143 M2233.12 178.05 L2237.38 178.05 L2237.38 183.444 L2233.12 183.444 L2233.12 178.05 Z" fill="#000000" fill-rule="nonzero" fill-opacity="1" /><path clip-path="url(#clip910)" d="M2250.51 180.782 L2250.51 188.143 L2259.28 188.143 L2259.28 191.453 L2250.51 191.453 L2250.51 205.527 Q2250.51 208.698 2251.36 209.601 Q2252.24 210.504 2254.9 210.504 L2259.28 210.504 L2259.28 214.069 L2254.9 214.069 Q2249.97 214.069 2248.1 212.24 Q2246.22 210.388 2246.22 205.527 L2246.22 191.453 L2243.1 191.453 L2243.1 188.143 L2246.22 188.143 L2246.22 180.782 L2250.51 180.782 Z" fill="#000000" fill-rule="nonzero" fill-opacity="1" /><circle clip-path="url(#clip910)" cx="1873.21" cy="248.629" r="20.48" fill="#3da44d" fill-rule="evenodd" fill-opacity="1" stroke="#000000" stroke-opacity="1" stroke-width="4.55111"/>
<path clip-path="url(#clip910)" d="M1994.56 234.011 L1994.56 238.941 Q1992.2 236.742 1989.51 235.654 Q1986.85 234.566 1983.84 234.566 Q1977.92 234.566 1974.77 238.2 Q1971.62 241.812 1971.62 248.663 Q1971.62 255.492 1974.77 259.126 Q1977.92 262.737 1983.84 262.737 Q1986.85 262.737 1989.51 261.649 Q1992.2 260.561 1994.56 258.362 L1994.56 263.247 Q1992.11 264.913 1989.35 265.747 Q1986.62 266.58 1983.56 266.58 Q1975.72 266.58 1971.2 261.788 Q1966.69 256.973 1966.69 248.663 Q1966.69 240.33 1971.2 235.538 Q1975.72 230.724 1983.56 230.724 Q1986.67 230.724 1989.4 231.557 Q1992.15 232.367 1994.56 234.011 Z" fill="#000000" fill-rule="nonzero" fill-opacity="1" /><path clip-path="url(#clip910)" d="M2013.38 252.876 Q2008.22 252.876 2006.23 254.057 Q2004.23 255.237 2004.23 258.085 Q2004.23 260.353 2005.72 261.696 Q2007.22 263.015 2009.79 263.015 Q2013.33 263.015 2015.46 260.515 Q2017.61 257.992 2017.61 253.825 L2017.61 252.876 L2013.38 252.876 M2021.87 251.117 L2021.87 265.909 L2017.61 265.909 L2017.61 261.973 Q2016.16 264.335 2013.98 265.469 Q2011.8 266.58 2008.66 266.58 Q2004.67 266.58 2002.31 264.358 Q1999.98 262.112 1999.98 258.362 Q1999.98 253.987 2002.89 251.765 Q2005.83 249.543 2011.64 249.543 L2017.61 249.543 L2017.61 249.126 Q2017.61 246.187 2015.67 244.589 Q2013.75 242.969 2010.25 242.969 Q2008.03 242.969 2005.92 243.501 Q2003.82 244.034 2001.87 245.099 L2001.87 241.163 Q2004.21 240.261 2006.41 239.821 Q2008.61 239.358 2010.69 239.358 Q2016.32 239.358 2019.1 242.274 Q2021.87 245.191 2021.87 251.117 Z" fill="#000000" fill-rule="nonzero" fill-opacity="1" /><path clip-path="url(#clip910)" d="M2049.3 240.978 L2049.3 244.96 Q2047.5 243.964 2045.67 243.478 Q2043.86 242.969 2042.01 242.969 Q2037.87 242.969 2035.58 245.608 Q2033.29 248.224 2033.29 252.969 Q2033.29 257.714 2035.58 260.353 Q2037.87 262.969 2042.01 262.969 Q2043.86 262.969 2045.67 262.483 Q2047.5 261.973 2049.3 260.978 L2049.3 264.913 Q2047.52 265.747 2045.6 266.163 Q2043.7 266.58 2041.55 266.58 Q2035.69 266.58 2032.24 262.899 Q2028.79 259.219 2028.79 252.969 Q2028.79 246.626 2032.27 242.992 Q2035.76 239.358 2041.83 239.358 Q2043.79 239.358 2045.67 239.775 Q2047.54 240.168 2049.3 240.978 Z" fill="#000000" fill-rule="nonzero" fill-opacity="1" /><path clip-path="url(#clip910)" d="M2078.26 250.261 L2078.26 265.909 L2074 265.909 L2074 250.399 Q2074 246.719 2072.57 244.89 Q2071.13 243.062 2068.26 243.062 Q2064.81 243.062 2062.82 245.261 Q2060.83 247.46 2060.83 251.256 L2060.83 265.909 L2056.55 265.909 L2056.55 229.89 L2060.83 229.89 L2060.83 244.011 Q2062.36 241.673 2064.42 240.515 Q2066.5 239.358 2069.21 239.358 Q2073.68 239.358 2075.97 242.136 Q2078.26 244.89 2078.26 250.261 Z" fill="#000000" fill-rule="nonzero" fill-opacity="1" /><path clip-path="url(#clip910)" d="M2108.93 251.881 L2108.93 253.964 L2089.35 253.964 Q2089.63 258.362 2091.99 260.677 Q2094.37 262.969 2098.61 262.969 Q2101.06 262.969 2103.35 262.367 Q2105.67 261.765 2107.94 260.561 L2107.94 264.589 Q2105.65 265.561 2103.24 266.071 Q2100.83 266.58 2098.35 266.58 Q2092.15 266.58 2088.52 262.969 Q2084.91 259.358 2084.91 253.2 Q2084.91 246.835 2088.33 243.108 Q2091.78 239.358 2097.61 239.358 Q2102.85 239.358 2105.88 242.737 Q2108.93 246.094 2108.93 251.881 M2104.67 250.631 Q2104.63 247.136 2102.71 245.052 Q2100.81 242.969 2097.66 242.969 Q2094.1 242.969 2091.94 244.983 Q2089.81 246.997 2089.49 250.654 L2104.67 250.631 Z" fill="#000000" fill-rule="nonzero" fill-opacity="1" /><path clip-path="url(#clip910)" d="M2132.98 243.918 L2132.98 229.89 L2137.24 229.89 L2137.24 265.909 L2132.98 265.909 L2132.98 262.02 Q2131.64 264.335 2129.58 265.469 Q2127.54 266.58 2124.67 266.58 Q2119.97 266.58 2117.01 262.83 Q2114.07 259.08 2114.07 252.969 Q2114.07 246.858 2117.01 243.108 Q2119.97 239.358 2124.67 239.358 Q2127.54 239.358 2129.58 240.492 Q2131.64 241.603 2132.98 243.918 M2118.47 252.969 Q2118.47 257.668 2120.39 260.353 Q2122.34 263.015 2125.72 263.015 Q2129.1 263.015 2131.04 260.353 Q2132.98 257.668 2132.98 252.969 Q2132.98 248.27 2131.04 245.608 Q2129.1 242.923 2125.72 242.923 Q2122.34 242.923 2120.39 245.608 Q2118.47 248.27 2118.47 252.969 Z" fill="#000000" fill-rule="nonzero" fill-opacity="1" /><polyline clip-path="url(#clip910)" style="stroke:#c271d2; stroke-linecap:round; stroke-linejoin:round; stroke-width:4; stroke-opacity:1; fill:none" points="1803.11,300.469 1943.32,300.469 "/>
<path clip-path="url(#clip910)" d="M1966.69 283.189 L1971.36 283.189 L1971.36 313.813 L1988.19 313.813 L1988.19 317.749 L1966.69 317.749 L1966.69 283.189 Z" fill="#000000" fill-rule="nonzero" fill-opacity="1" /><path clip-path="url(#clip910)" d="M1992.92 291.823 L1997.17 291.823 L1997.17 317.749 L1992.92 317.749 L1992.92 291.823 M1992.92 281.73 L1997.17 281.73 L1997.17 287.124 L1992.92 287.124 L1992.92 281.73 Z" fill="#000000" fill-rule="nonzero" fill-opacity="1" /><path clip-path="url(#clip910)" d="M2027.64 302.101 L2027.64 317.749 L2023.38 317.749 L2023.38 302.239 Q2023.38 298.559 2021.94 296.73 Q2020.51 294.902 2017.64 294.902 Q2014.19 294.902 2012.2 297.101 Q2010.21 299.3 2010.21 303.096 L2010.21 317.749 L2005.92 317.749 L2005.92 291.823 L2010.21 291.823 L2010.21 295.851 Q2011.73 293.513 2013.79 292.355 Q2015.88 291.198 2018.59 291.198 Q2023.05 291.198 2025.35 293.976 Q2027.64 296.73 2027.64 302.101 Z" fill="#000000" fill-rule="nonzero" fill-opacity="1" /><path clip-path="url(#clip910)" d="M2058.31 303.721 L2058.31 305.804 L2038.73 305.804 Q2039 310.202 2041.36 312.517 Q2043.75 314.809 2047.98 314.809 Q2050.44 314.809 2052.73 314.207 Q2055.04 313.605 2057.31 312.401 L2057.31 316.429 Q2055.02 317.401 2052.61 317.911 Q2050.21 318.42 2047.73 318.42 Q2041.53 318.42 2037.89 314.809 Q2034.28 311.198 2034.28 305.04 Q2034.28 298.675 2037.71 294.948 Q2041.16 291.198 2046.99 291.198 Q2052.22 291.198 2055.25 294.577 Q2058.31 297.934 2058.31 303.721 M2054.05 302.471 Q2054 298.976 2052.08 296.892 Q2050.18 294.809 2047.04 294.809 Q2043.47 294.809 2041.32 296.823 Q2039.19 298.837 2038.86 302.494 L2054.05 302.471 Z" fill="#000000" fill-rule="nonzero" fill-opacity="1" /><path clip-path="url(#clip910)" d="M2077.08 304.716 Q2071.92 304.716 2069.93 305.897 Q2067.94 307.077 2067.94 309.925 Q2067.94 312.193 2069.42 313.536 Q2070.92 314.855 2073.49 314.855 Q2077.04 314.855 2079.16 312.355 Q2081.32 309.832 2081.32 305.665 L2081.32 304.716 L2077.08 304.716 M2085.58 302.957 L2085.58 317.749 L2081.32 317.749 L2081.32 313.813 Q2079.86 316.175 2077.68 317.309 Q2075.51 318.42 2072.36 318.42 Q2068.38 318.42 2066.02 316.198 Q2063.68 313.952 2063.68 310.202 Q2063.68 305.827 2066.6 303.605 Q2069.54 301.383 2075.35 301.383 L2081.32 301.383 L2081.32 300.966 Q2081.32 298.027 2079.37 296.429 Q2077.45 294.809 2073.96 294.809 Q2071.73 294.809 2069.63 295.341 Q2067.52 295.874 2065.58 296.939 L2065.58 293.003 Q2067.92 292.101 2070.11 291.661 Q2072.31 291.198 2074.4 291.198 Q2080.02 291.198 2082.8 294.114 Q2085.58 297.031 2085.58 302.957 Z" fill="#000000" fill-rule="nonzero" fill-opacity="1" /><path clip-path="url(#clip910)" d="M2109.37 295.804 Q2108.66 295.388 2107.8 295.202 Q2106.97 294.994 2105.95 294.994 Q2102.34 294.994 2100.39 297.355 Q2098.47 299.693 2098.47 304.091 L2098.47 317.749 L2094.19 317.749 L2094.19 291.823 L2098.47 291.823 L2098.47 295.851 Q2099.81 293.489 2101.97 292.355 Q2104.12 291.198 2107.2 291.198 Q2107.64 291.198 2108.17 291.267 Q2108.7 291.314 2109.35 291.429 L2109.37 295.804 Z" fill="#000000" fill-rule="nonzero" fill-opacity="1" /><path clip-path="url(#clip910)" d="M2142.03 281.73 L2142.03 285.272 L2137.96 285.272 Q2135.67 285.272 2134.77 286.198 Q2133.89 287.124 2133.89 289.531 L2133.89 291.823 L2140.9 291.823 L2140.9 295.133 L2133.89 295.133 L2133.89 317.749 L2129.6 317.749 L2129.6 295.133 L2125.53 295.133 L2125.53 291.823 L2129.6 291.823 L2129.6 290.017 Q2129.6 285.689 2131.62 283.721 Q2133.63 281.73 2138.01 281.73 L2142.03 281.73 Z" fill="#000000" fill-rule="nonzero" fill-opacity="1" /><path clip-path="url(#clip910)" d="M2145.6 291.823 L2149.86 291.823 L2149.86 317.749 L2145.6 317.749 L2145.6 291.823 M2145.6 281.73 L2149.86 281.73 L2149.86 287.124 L2145.6 287.124 L2145.6 281.73 Z" fill="#000000" fill-rule="nonzero" fill-opacity="1" /><path clip-path="url(#clip910)" d="M2162.98 284.462 L2162.98 291.823 L2171.76 291.823 L2171.76 295.133 L2162.98 295.133 L2162.98 309.207 Q2162.98 312.378 2163.84 313.281 Q2164.72 314.184 2167.38 314.184 L2171.76 314.184 L2171.76 317.749 L2167.38 317.749 Q2162.45 317.749 2160.58 315.92 Q2158.7 314.068 2158.7 309.207 L2158.7 295.133 L2155.58 295.133 L2155.58 291.823 L2158.7 291.823 L2158.7 284.462 L2162.98 284.462 Z" fill="#000000" fill-rule="nonzero" fill-opacity="1" /></svg>
