<?xml version="1.0" encoding="utf-8"?>
<svg xmlns="http://www.w3.org/2000/svg" xmlns:xlink="http://www.w3.org/1999/xlink" width="600" height="400" viewBox="0 0 2400 1600">
<defs>
  <clipPath id="clip870">
    <rect x="0" y="0" width="2400" height="1600"/>
  </clipPath>
</defs>
<path clip-path="url(#clip870)" d="M0 1600 L2400 1600 L2400 0 L0 0  Z" fill="#ffffff" fill-rule="evenodd" fill-opacity="1"/>
<defs>
  <clipPath id="clip871">
    <rect x="480" y="0" width="1681" height="1600"/>
  </clipPath>
</defs>
<path clip-path="url(#clip870)" d="M138.959 1423.18 L2352.76 1423.18 L2352.76 47.2441 L138.959 47.2441  Z" fill="#ffffff" fill-rule="evenodd" fill-opacity="1"/>
<defs>
  <clipPath id="clip872">
    <rect x="138" y="47" width="2215" height="1377"/>
  </clipPath>
</defs>
<polyline clip-path="url(#clip872)" style="stroke:#000000; stroke-linecap:round; stroke-linejoin:round; stroke-width:2; stroke-opacity:0.1; fill:none" points="479.641,1423.18 479.641,47.2441 "/>
<polyline clip-path="url(#clip872)" style="stroke:#000000; stroke-linecap:round; stroke-linejoin:round; stroke-width:2; stroke-opacity:0.1; fill:none" points="917.479,1423.18 917.479,47.2441 "/>
<polyline clip-path="url(#clip872)" style="stroke:#000000; stroke-linecap:round; stroke-linejoin:round; stroke-width:2; stroke-opacity:0.1; fill:none" points="1355.32,1423.18 1355.32,47.2441 "/>
<polyline clip-path="url(#clip872)" style="stroke:#000000; stroke-linecap:round; stroke-linejoin:round; stroke-width:2; stroke-opacity:0.1; fill:none" points="1793.16,1423.18 1793.16,47.2441 "/>
<polyline clip-path="url(#clip872)" style="stroke:#000000; stroke-linecap:round; stroke-linejoin:round; stroke-width:2; stroke-opacity:0.1; fill:none" points="2230.99,1423.18 2230.99,47.2441 "/>
<polyline clip-path="url(#clip872)" style="stroke:#000000; stroke-linecap:round; stroke-linejoin:round; stroke-width:2; stroke-opacity:0.1; fill:none" points="138.959,1423.18 2352.76,1423.18 "/>
<polyline clip-path="url(#clip872)" style="stroke:#000000; stroke-linecap:round; stroke-linejoin:round; stroke-width:2; stroke-opacity:0.1; fill:none" points="138.959,1193.86 2352.76,1193.86 "/>
<polyline clip-path="url(#clip872)" style="stroke:#000000; stroke-linecap:round; stroke-linejoin:round; stroke-width:2; stroke-opacity:0.1; fill:none" points="138.959,964.535 2352.76,964.535 "/>
<polyline clip-path="url(#clip872)" style="stroke:#000000; stroke-linecap:round; stroke-linejoin:round; stroke-width:2; stroke-opacity:0.1; fill:none" points="138.959,735.212 2352.76,735.212 "/>
<polyline clip-path="url(#clip872)" style="stroke:#000000; stroke-linecap:round; stroke-linejoin:round; stroke-width:2; stroke-opacity:0.1; fill:none" points="138.959,505.889 2352.76,505.889 "/>
<polyline clip-path="url(#clip872)" style="stroke:#000000; stroke-linecap:round; stroke-linejoin:round; stroke-width:2; stroke-opacity:0.1; fill:none" points="138.959,276.567 2352.76,276.567 "/>
<polyline clip-path="url(#clip872)" style="stroke:#000000; stroke-linecap:round; stroke-linejoin:round; stroke-width:2; stroke-opacity:0.1; fill:none" points="138.959,47.2441 2352.76,47.2441 "/>
<polyline clip-path="url(#clip870)" style="stroke:#000000; stroke-linecap:round; stroke-linejoin:round; stroke-width:4; stroke-opacity:1; fill:none" points="138.959,1423.18 2352.76,1423.18 "/>
<polyline clip-path="url(#clip870)" style="stroke:#000000; stroke-linecap:round; stroke-linejoin:round; stroke-width:4; stroke-opacity:1; fill:none" points="479.641,1423.18 479.641,1404.28 "/>
<polyline clip-path="url(#clip870)" style="stroke:#000000; stroke-linecap:round; stroke-linejoin:round; stroke-width:4; stroke-opacity:1; fill:none" points="917.479,1423.18 917.479,1404.28 "/>
<polyline clip-path="url(#clip870)" style="stroke:#000000; stroke-linecap:round; stroke-linejoin:round; stroke-width:4; stroke-opacity:1; fill:none" points="1355.32,1423.18 1355.32,1404.28 "/>
<polyline clip-path="url(#clip870)" style="stroke:#000000; stroke-linecap:round; stroke-linejoin:round; stroke-width:4; stroke-opacity:1; fill:none" points="1793.16,1423.18 1793.16,1404.28 "/>
<polyline clip-path="url(#clip870)" style="stroke:#000000; stroke-linecap:round; stroke-linejoin:round; stroke-width:4; stroke-opacity:1; fill:none" points="2230.99,1423.18 2230.99,1404.28 "/>
<path clip-path="url(#clip870)" d="M439.248 1481.64 L446.887 1481.64 L446.887 1455.28 L438.577 1456.95 L438.577 1452.69 L446.84 1451.02 L451.516 1451.02 L451.516 1481.64 L459.155 1481.64 L459.155 1485.58 L439.248 1485.58 L439.248 1481.64 Z" fill="#000000" fill-rule="nonzero" fill-opacity="1" /><path clip-path="url(#clip870)" d="M479.178 1466.44 Q476.03 1466.44 474.178 1468.59 Q472.35 1470.74 472.35 1474.49 Q472.35 1478.22 474.178 1480.39 Q476.03 1482.55 479.178 1482.55 Q482.326 1482.55 484.155 1480.39 Q486.007 1478.22 486.007 1474.49 Q486.007 1470.74 484.155 1468.59 Q482.326 1466.44 479.178 1466.44 M488.461 1451.78 L488.461 1456.04 Q486.701 1455.21 484.896 1454.77 Q483.113 1454.33 481.354 1454.33 Q476.725 1454.33 474.271 1457.45 Q471.84 1460.58 471.493 1466.9 Q472.859 1464.89 474.919 1463.82 Q476.979 1462.73 479.456 1462.73 Q484.664 1462.73 487.674 1465.9 Q490.706 1469.05 490.706 1474.49 Q490.706 1479.82 487.558 1483.03 Q484.41 1486.25 479.178 1486.25 Q473.183 1486.25 470.012 1481.67 Q466.84 1477.06 466.84 1468.33 Q466.84 1460.14 470.729 1455.28 Q474.618 1450.39 481.169 1450.39 Q482.928 1450.39 484.711 1450.74 Q486.516 1451.09 488.461 1451.78 Z" fill="#000000" fill-rule="nonzero" fill-opacity="1" /><path clip-path="url(#clip870)" d="M508.761 1454.1 Q505.15 1454.1 503.322 1457.66 Q501.516 1461.2 501.516 1468.33 Q501.516 1475.44 503.322 1479.01 Q505.15 1482.55 508.761 1482.55 Q512.396 1482.55 514.201 1479.01 Q516.03 1475.44 516.03 1468.33 Q516.03 1461.2 514.201 1457.66 Q512.396 1454.1 508.761 1454.1 M508.761 1450.39 Q514.572 1450.39 517.627 1455 Q520.706 1459.58 520.706 1468.33 Q520.706 1477.06 517.627 1481.67 Q514.572 1486.25 508.761 1486.25 Q502.951 1486.25 499.873 1481.67 Q496.817 1477.06 496.817 1468.33 Q496.817 1459.58 499.873 1455 Q502.951 1450.39 508.761 1450.39 Z" fill="#000000" fill-rule="nonzero" fill-opacity="1" /><path clip-path="url(#clip870)" d="M877.086 1481.64 L884.725 1481.64 L884.725 1455.28 L876.415 1456.95 L876.415 1452.69 L884.678 1451.02 L889.354 1451.02 L889.354 1481.64 L896.993 1481.64 L896.993 1485.58 L877.086 1485.58 L877.086 1481.64 Z" fill="#000000" fill-rule="nonzero" fill-opacity="1" /><path clip-path="url(#clip870)" d="M916.438 1469.17 Q913.104 1469.17 911.183 1470.95 Q909.285 1472.73 909.285 1475.86 Q909.285 1478.98 911.183 1480.77 Q913.104 1482.55 916.438 1482.55 Q919.771 1482.55 921.692 1480.77 Q923.613 1478.96 923.613 1475.86 Q923.613 1472.73 921.692 1470.95 Q919.794 1469.17 916.438 1469.17 M911.762 1467.18 Q908.752 1466.44 907.063 1464.38 Q905.396 1462.32 905.396 1459.35 Q905.396 1455.21 908.336 1452.8 Q911.299 1450.39 916.438 1450.39 Q921.6 1450.39 924.539 1452.8 Q927.479 1455.21 927.479 1459.35 Q927.479 1462.32 925.789 1464.38 Q924.123 1466.44 921.137 1467.18 Q924.516 1467.96 926.391 1470.26 Q928.289 1472.55 928.289 1475.86 Q928.289 1480.88 925.211 1483.57 Q922.155 1486.25 916.438 1486.25 Q910.72 1486.25 907.641 1483.57 Q904.586 1480.88 904.586 1475.86 Q904.586 1472.55 906.484 1470.26 Q908.382 1467.96 911.762 1467.18 M910.049 1459.79 Q910.049 1462.48 911.715 1463.98 Q913.405 1465.49 916.438 1465.49 Q919.447 1465.49 921.137 1463.98 Q922.85 1462.48 922.85 1459.79 Q922.85 1457.11 921.137 1455.6 Q919.447 1454.1 916.438 1454.1 Q913.405 1454.1 911.715 1455.6 Q910.049 1457.11 910.049 1459.79 Z" fill="#000000" fill-rule="nonzero" fill-opacity="1" /><path clip-path="url(#clip870)" d="M946.599 1454.1 Q942.988 1454.1 941.16 1457.66 Q939.354 1461.2 939.354 1468.33 Q939.354 1475.44 941.16 1479.01 Q942.988 1482.55 946.599 1482.55 Q950.234 1482.55 952.039 1479.01 Q953.868 1475.44 953.868 1468.33 Q953.868 1461.2 952.039 1457.66 Q950.234 1454.1 946.599 1454.1 M946.599 1450.39 Q952.41 1450.39 955.465 1455 Q958.544 1459.58 958.544 1468.33 Q958.544 1477.06 955.465 1481.67 Q952.41 1486.25 946.599 1486.25 Q940.789 1486.25 937.711 1481.67 Q934.655 1477.06 934.655 1468.33 Q934.655 1459.58 937.711 1455 Q940.789 1450.39 946.599 1450.39 Z" fill="#000000" fill-rule="nonzero" fill-opacity="1" /><path clip-path="url(#clip870)" d="M1319.01 1481.64 L1335.33 1481.64 L1335.33 1485.58 L1313.38 1485.58 L1313.38 1481.64 Q1316.05 1478.89 1320.63 1474.26 Q1325.24 1469.61 1326.42 1468.27 Q1328.66 1465.74 1329.54 1464.01 Q1330.44 1462.25 1330.44 1460.56 Q1330.44 1457.8 1328.5 1456.07 Q1326.58 1454.33 1323.48 1454.33 Q1321.28 1454.33 1318.82 1455.09 Q1316.39 1455.86 1313.62 1457.41 L1313.62 1452.69 Q1316.44 1451.55 1318.89 1450.97 Q1321.35 1450.39 1323.38 1450.39 Q1328.75 1450.39 1331.95 1453.08 Q1335.14 1455.77 1335.14 1460.26 Q1335.14 1462.39 1334.33 1464.31 Q1333.55 1466.2 1331.44 1468.8 Q1330.86 1469.47 1327.76 1472.69 Q1324.66 1475.88 1319.01 1481.64 Z" fill="#000000" fill-rule="nonzero" fill-opacity="1" /><path clip-path="url(#clip870)" d="M1355.14 1454.1 Q1351.53 1454.1 1349.7 1457.66 Q1347.9 1461.2 1347.9 1468.33 Q1347.9 1475.44 1349.7 1479.01 Q1351.53 1482.55 1355.14 1482.55 Q1358.78 1482.55 1360.58 1479.01 Q1362.41 1475.44 1362.41 1468.33 Q1362.41 1461.2 1360.58 1457.66 Q1358.78 1454.1 1355.14 1454.1 M1355.14 1450.39 Q1360.95 1450.39 1364.01 1455 Q1367.09 1459.58 1367.09 1468.33 Q1367.09 1477.06 1364.01 1481.67 Q1360.95 1486.25 1355.14 1486.25 Q1349.33 1486.25 1346.25 1481.67 Q1343.2 1477.06 1343.2 1468.33 Q1343.2 1459.58 1346.25 1455 Q1349.33 1450.39 1355.14 1450.39 Z" fill="#000000" fill-rule="nonzero" fill-opacity="1" /><path clip-path="url(#clip870)" d="M1385.31 1454.1 Q1381.69 1454.1 1379.87 1457.66 Q1378.06 1461.2 1378.06 1468.33 Q1378.06 1475.44 1379.87 1479.01 Q1381.69 1482.55 1385.31 1482.55 Q1388.94 1482.55 1390.75 1479.01 Q1392.57 1475.44 1392.57 1468.33 Q1392.57 1461.2 1390.75 1457.66 Q1388.94 1454.1 1385.31 1454.1 M1385.31 1450.39 Q1391.12 1450.39 1394.17 1455 Q1397.25 1459.58 1397.25 1468.33 Q1397.25 1477.06 1394.17 1481.67 Q1391.12 1486.25 1385.31 1486.25 Q1379.5 1486.25 1376.42 1481.67 Q1373.36 1477.06 1373.36 1468.33 Q1373.36 1459.58 1376.42 1455 Q1379.5 1450.39 1385.31 1450.39 Z" fill="#000000" fill-rule="nonzero" fill-opacity="1" /><path clip-path="url(#clip870)" d="M1756.85 1481.64 L1773.17 1481.64 L1773.17 1485.58 L1751.22 1485.58 L1751.22 1481.64 Q1753.88 1478.89 1758.47 1474.26 Q1763.07 1469.61 1764.25 1468.27 Q1766.5 1465.74 1767.38 1464.01 Q1768.28 1462.25 1768.28 1460.56 Q1768.28 1457.8 1766.34 1456.07 Q1764.42 1454.33 1761.32 1454.33 Q1759.12 1454.33 1756.66 1455.09 Q1754.23 1455.86 1751.45 1457.41 L1751.45 1452.69 Q1754.28 1451.55 1756.73 1450.97 Q1759.19 1450.39 1761.22 1450.39 Q1766.59 1450.39 1769.79 1453.08 Q1772.98 1455.77 1772.98 1460.26 Q1772.98 1462.39 1772.17 1464.31 Q1771.38 1466.2 1769.28 1468.8 Q1768.7 1469.47 1765.6 1472.69 Q1762.5 1475.88 1756.85 1481.64 Z" fill="#000000" fill-rule="nonzero" fill-opacity="1" /><path clip-path="url(#clip870)" d="M1787.01 1481.64 L1803.33 1481.64 L1803.33 1485.58 L1781.38 1485.58 L1781.38 1481.64 Q1784.05 1478.89 1788.63 1474.26 Q1793.24 1469.61 1794.42 1468.27 Q1796.66 1465.74 1797.54 1464.01 Q1798.44 1462.25 1798.44 1460.56 Q1798.44 1457.8 1796.5 1456.07 Q1794.58 1454.33 1791.48 1454.33 Q1789.28 1454.33 1786.82 1455.09 Q1784.39 1455.86 1781.62 1457.41 L1781.62 1452.69 Q1784.44 1451.55 1786.89 1450.97 Q1789.35 1450.39 1791.38 1450.39 Q1796.75 1450.39 1799.95 1453.08 Q1803.14 1455.77 1803.14 1460.26 Q1803.14 1462.39 1802.33 1464.31 Q1801.55 1466.2 1799.44 1468.8 Q1798.86 1469.47 1795.76 1472.69 Q1792.66 1475.88 1787.01 1481.64 Z" fill="#000000" fill-rule="nonzero" fill-opacity="1" /><path clip-path="url(#clip870)" d="M1823.14 1454.1 Q1819.53 1454.1 1817.7 1457.66 Q1815.9 1461.2 1815.9 1468.33 Q1815.9 1475.44 1817.7 1479.01 Q1819.53 1482.55 1823.14 1482.55 Q1826.78 1482.55 1828.58 1479.01 Q1830.41 1475.44 1830.41 1468.33 Q1830.41 1461.2 1828.58 1457.66 Q1826.78 1454.1 1823.14 1454.1 M1823.14 1450.39 Q1828.95 1450.39 1832.01 1455 Q1835.09 1459.58 1835.09 1468.33 Q1835.09 1477.06 1832.01 1481.67 Q1828.95 1486.25 1823.14 1486.25 Q1817.33 1486.25 1814.25 1481.67 Q1811.2 1477.06 1811.2 1468.33 Q1811.2 1459.58 1814.25 1455 Q1817.33 1450.39 1823.14 1450.39 Z" fill="#000000" fill-rule="nonzero" fill-opacity="1" /><path clip-path="url(#clip870)" d="M2194.69 1481.64 L2211 1481.64 L2211 1485.58 L2189.06 1485.58 L2189.06 1481.64 Q2191.72 1478.89 2196.31 1474.26 Q2200.91 1469.61 2202.09 1468.27 Q2204.34 1465.74 2205.22 1464.01 Q2206.12 1462.25 2206.12 1460.56 Q2206.12 1457.8 2204.18 1456.07 Q2202.25 1454.33 2199.15 1454.33 Q2196.95 1454.33 2194.5 1455.09 Q2192.07 1455.86 2189.29 1457.41 L2189.29 1452.69 Q2192.12 1451.55 2194.57 1450.97 Q2197.02 1450.39 2199.06 1450.39 Q2204.43 1450.39 2207.63 1453.08 Q2210.82 1455.77 2210.82 1460.26 Q2210.82 1462.39 2210.01 1464.31 Q2209.22 1466.2 2207.12 1468.8 Q2206.54 1469.47 2203.44 1472.69 Q2200.33 1475.88 2194.69 1481.64 Z" fill="#000000" fill-rule="nonzero" fill-opacity="1" /><path clip-path="url(#clip870)" d="M2233.67 1455.09 L2221.86 1473.54 L2233.67 1473.54 L2233.67 1455.09 M2232.44 1451.02 L2238.32 1451.02 L2238.32 1473.54 L2243.25 1473.54 L2243.25 1477.43 L2238.32 1477.43 L2238.32 1485.58 L2233.67 1485.58 L2233.67 1477.43 L2218.06 1477.43 L2218.06 1472.92 L2232.44 1451.02 Z" fill="#000000" fill-rule="nonzero" fill-opacity="1" /><path clip-path="url(#clip870)" d="M2260.98 1454.1 Q2257.37 1454.1 2255.54 1457.66 Q2253.74 1461.2 2253.74 1468.33 Q2253.74 1475.44 2255.54 1479.01 Q2257.37 1482.55 2260.98 1482.55 Q2264.62 1482.55 2266.42 1479.01 Q2268.25 1475.44 2268.25 1468.33 Q2268.25 1461.2 2266.42 1457.66 Q2264.62 1454.1 2260.98 1454.1 M2260.98 1450.39 Q2266.79 1450.39 2269.85 1455 Q2272.93 1459.58 2272.93 1468.33 Q2272.93 1477.06 2269.85 1481.67 Q2266.79 1486.25 2260.98 1486.25 Q2255.17 1486.25 2252.09 1481.67 Q2249.04 1477.06 2249.04 1468.33 Q2249.04 1459.58 2252.09 1455 Q2255.17 1450.39 2260.98 1450.39 Z" fill="#000000" fill-rule="nonzero" fill-opacity="1" /><path clip-path="url(#clip870)" d="M1120.23 1525.81 L1120.23 1562.76 L1128 1562.76 Q1137.83 1562.76 1142.38 1558.3 Q1146.97 1553.85 1146.97 1544.24 Q1146.97 1534.69 1142.38 1530.26 Q1137.83 1525.81 1128 1525.81 L1120.23 1525.81 M1113.8 1520.52 L1127.01 1520.52 Q1140.82 1520.52 1147.28 1526.28 Q1153.75 1532.01 1153.75 1544.24 Q1153.75 1556.52 1147.25 1562.28 Q1140.76 1568.04 1127.01 1568.04 L1113.8 1568.04 L1113.8 1520.52 Z" fill="#000000" fill-rule="nonzero" fill-opacity="1" /><path clip-path="url(#clip870)" d="M1194.23 1548.76 L1194.23 1551.62 L1167.3 1551.62 Q1167.69 1557.67 1170.93 1560.85 Q1174.21 1564 1180.04 1564 Q1183.41 1564 1186.56 1563.17 Q1189.74 1562.35 1192.86 1560.69 L1192.86 1566.23 Q1189.71 1567.57 1186.4 1568.27 Q1183.09 1568.97 1179.69 1568.97 Q1171.16 1568.97 1166.16 1564 Q1161.19 1559.04 1161.19 1550.57 Q1161.19 1541.82 1165.9 1536.69 Q1170.65 1531.54 1178.67 1531.54 Q1185.86 1531.54 1190.03 1536.18 Q1194.23 1540.8 1194.23 1548.76 M1188.38 1547.04 Q1188.31 1542.23 1185.67 1539.37 Q1183.06 1536.5 1178.73 1536.5 Q1173.83 1536.5 1170.87 1539.27 Q1167.94 1542.04 1167.5 1547.07 L1188.38 1547.04 Z" fill="#000000" fill-rule="nonzero" fill-opacity="1" /><path clip-path="url(#clip870)" d="M1231.6 1539.24 Q1233.79 1535.29 1236.85 1533.41 Q1239.91 1531.54 1244.04 1531.54 Q1249.61 1531.54 1252.64 1535.45 Q1255.66 1539.33 1255.66 1546.53 L1255.66 1568.04 L1249.77 1568.04 L1249.77 1546.72 Q1249.77 1541.59 1247.96 1539.11 Q1246.14 1536.63 1242.42 1536.63 Q1237.87 1536.63 1235.23 1539.65 Q1232.59 1542.68 1232.59 1547.9 L1232.59 1568.04 L1226.7 1568.04 L1226.7 1546.72 Q1226.7 1541.56 1224.88 1539.11 Q1223.07 1536.63 1219.28 1536.63 Q1214.79 1536.63 1212.15 1539.68 Q1209.51 1542.71 1209.51 1547.9 L1209.51 1568.04 L1203.62 1568.04 L1203.62 1532.4 L1209.51 1532.4 L1209.51 1537.93 Q1211.51 1534.66 1214.32 1533.1 Q1217.12 1531.54 1220.97 1531.54 Q1224.85 1531.54 1227.56 1533.51 Q1230.29 1535.48 1231.6 1539.24 Z" fill="#000000" fill-rule="nonzero" fill-opacity="1" /><path clip-path="url(#clip870)" d="M1283.54 1550.12 Q1276.44 1550.12 1273.71 1551.75 Q1270.97 1553.37 1270.97 1557.29 Q1270.97 1560.4 1273.01 1562.25 Q1275.08 1564.07 1278.61 1564.07 Q1283.48 1564.07 1286.41 1560.63 Q1289.37 1557.16 1289.37 1551.43 L1289.37 1550.12 L1283.54 1550.12 M1295.22 1547.71 L1295.22 1568.04 L1289.37 1568.04 L1289.37 1562.63 Q1287.36 1565.88 1284.37 1567.44 Q1281.38 1568.97 1277.05 1568.97 Q1271.58 1568.97 1268.33 1565.91 Q1265.11 1562.82 1265.11 1557.67 Q1265.11 1551.65 1269.12 1548.6 Q1273.17 1545.54 1281.16 1545.54 L1289.37 1545.54 L1289.37 1544.97 Q1289.37 1540.93 1286.69 1538.73 Q1284.05 1536.5 1279.25 1536.5 Q1276.19 1536.5 1273.29 1537.23 Q1270.4 1537.97 1267.72 1539.43 L1267.72 1534.02 Q1270.94 1532.78 1273.96 1532.17 Q1276.99 1531.54 1279.85 1531.54 Q1287.58 1531.54 1291.4 1535.55 Q1295.22 1539.56 1295.22 1547.71 Z" fill="#000000" fill-rule="nonzero" fill-opacity="1" /><path clip-path="url(#clip870)" d="M1336.92 1546.53 L1336.92 1568.04 L1331.06 1568.04 L1331.06 1546.72 Q1331.06 1541.66 1329.09 1539.14 Q1327.12 1536.63 1323.17 1536.63 Q1318.43 1536.63 1315.69 1539.65 Q1312.95 1542.68 1312.95 1547.9 L1312.95 1568.04 L1307.06 1568.04 L1307.06 1532.4 L1312.95 1532.4 L1312.95 1537.93 Q1315.05 1534.72 1317.89 1533.13 Q1320.75 1531.54 1324.47 1531.54 Q1330.62 1531.54 1333.77 1535.36 Q1336.92 1539.14 1336.92 1546.53 Z" fill="#000000" fill-rule="nonzero" fill-opacity="1" /><path clip-path="url(#clip870)" d="M1372.06 1537.81 L1372.06 1518.52 L1377.91 1518.52 L1377.91 1568.04 L1372.06 1568.04 L1372.06 1562.7 Q1370.21 1565.88 1367.38 1567.44 Q1364.58 1568.97 1360.63 1568.97 Q1354.17 1568.97 1350.1 1563.81 Q1346.05 1558.65 1346.05 1550.25 Q1346.05 1541.85 1350.1 1536.69 Q1354.17 1531.54 1360.63 1531.54 Q1364.58 1531.54 1367.38 1533.1 Q1370.21 1534.62 1372.06 1537.81 M1352.1 1550.25 Q1352.1 1556.71 1354.74 1560.4 Q1357.42 1564.07 1362.06 1564.07 Q1366.71 1564.07 1369.38 1560.4 Q1372.06 1556.71 1372.06 1550.25 Q1372.06 1543.79 1369.38 1540.13 Q1366.71 1536.44 1362.06 1536.44 Q1357.42 1536.44 1354.74 1540.13 Q1352.1 1543.79 1352.1 1550.25 Z" fill="#000000" fill-rule="nonzero" fill-opacity="1" /><polyline clip-path="url(#clip870)" style="stroke:#000000; stroke-linecap:round; stroke-linejoin:round; stroke-width:4; stroke-opacity:1; fill:none" points="138.959,1423.18 138.959,47.2441 "/>
<polyline clip-path="url(#clip870)" style="stroke:#000000; stroke-linecap:round; stroke-linejoin:round; stroke-width:4; stroke-opacity:1; fill:none" points="138.959,1423.18 157.857,1423.18 "/>
<polyline clip-path="url(#clip870)" style="stroke:#000000; stroke-linecap:round; stroke-linejoin:round; stroke-width:4; stroke-opacity:1; fill:none" points="138.959,1193.86 157.857,1193.86 "/>
<polyline clip-path="url(#clip870)" style="stroke:#000000; stroke-linecap:round; stroke-linejoin:round; stroke-width:4; stroke-opacity:1; fill:none" points="138.959,964.535 157.857,964.535 "/>
<polyline clip-path="url(#clip870)" style="stroke:#000000; stroke-linecap:round; stroke-linejoin:round; stroke-width:4; stroke-opacity:1; fill:none" points="138.959,735.212 157.857,735.212 "/>
<polyline clip-path="url(#clip870)" style="stroke:#000000; stroke-linecap:round; stroke-linejoin:round; stroke-width:4; stroke-opacity:1; fill:none" points="138.959,505.889 157.857,505.889 "/>
<polyline clip-path="url(#clip870)" style="stroke:#000000; stroke-linecap:round; stroke-linejoin:round; stroke-width:4; stroke-opacity:1; fill:none" points="138.959,276.567 157.857,276.567 "/>
<polyline clip-path="url(#clip870)" style="stroke:#000000; stroke-linecap:round; stroke-linejoin:round; stroke-width:4; stroke-opacity:1; fill:none" points="138.959,47.2441 157.857,47.2441 "/>
<path clip-path="url(#clip870)" d="M91.0151 1408.98 Q87.404 1408.98 85.5753 1412.54 Q83.7697 1416.08 83.7697 1423.21 Q83.7697 1430.32 85.5753 1433.89 Q87.404 1437.43 91.0151 1437.43 Q94.6493 1437.43 96.4548 1433.89 Q98.2835 1430.32 98.2835 1423.21 Q98.2835 1416.08 96.4548 1412.54 Q94.6493 1408.98 91.0151 1408.98 M91.0151 1405.27 Q96.8252 1405.27 99.8808 1409.88 Q102.959 1414.46 102.959 1423.21 Q102.959 1431.94 99.8808 1436.55 Q96.8252 1441.13 91.0151 1441.13 Q85.2049 1441.13 82.1262 1436.55 Q79.0707 1431.94 79.0707 1423.21 Q79.0707 1414.46 82.1262 1409.88 Q85.2049 1405.27 91.0151 1405.27 Z" fill="#000000" fill-rule="nonzero" fill-opacity="1" /><path clip-path="url(#clip870)" d="M86.6401 1207.2 L102.959 1207.2 L102.959 1211.14 L81.0151 1211.14 L81.0151 1207.2 Q83.6771 1204.45 88.2604 1199.82 Q92.8669 1195.17 94.0475 1193.82 Q96.2928 1191.3 97.1724 1189.56 Q98.0752 1187.8 98.0752 1186.11 Q98.0752 1183.36 96.1308 1181.62 Q94.2095 1179.89 91.1077 1179.89 Q88.9086 1179.89 86.4549 1180.65 Q84.0244 1181.42 81.2466 1182.97 L81.2466 1178.24 Q84.0707 1177.11 86.5243 1176.53 Q88.978 1175.95 91.0151 1175.95 Q96.3854 1175.95 99.5798 1178.64 Q102.774 1181.32 102.774 1185.81 Q102.774 1187.94 101.964 1189.86 Q101.177 1191.76 99.0706 1194.35 Q98.4919 1195.03 95.39 1198.24 Q92.2882 1201.44 86.6401 1207.2 Z" fill="#000000" fill-rule="nonzero" fill-opacity="1" /><path clip-path="url(#clip870)" d="M93.3762 951.329 L81.5707 969.778 L93.3762 969.778 L93.3762 951.329 M92.1493 947.255 L98.0289 947.255 L98.0289 969.778 L102.959 969.778 L102.959 973.666 L98.0289 973.666 L98.0289 981.815 L93.3762 981.815 L93.3762 973.666 L77.7744 973.666 L77.7744 969.153 L92.1493 947.255 Z" fill="#000000" fill-rule="nonzero" fill-opacity="1" /><path clip-path="url(#clip870)" d="M91.4317 733.349 Q88.2836 733.349 86.4318 735.501 Q84.6031 737.654 84.6031 741.404 Q84.6031 745.131 86.4318 747.307 Q88.2836 749.46 91.4317 749.46 Q94.5799 749.46 96.4085 747.307 Q98.2604 745.131 98.2604 741.404 Q98.2604 737.654 96.4085 735.501 Q94.5799 733.349 91.4317 733.349 M100.714 718.696 L100.714 722.955 Q98.9548 722.122 97.1493 721.682 Q95.3669 721.242 93.6076 721.242 Q88.978 721.242 86.5243 724.367 Q84.0938 727.492 83.7466 733.812 Q85.1123 731.798 87.1725 730.733 Q89.2327 729.645 91.7095 729.645 Q96.9178 729.645 99.927 732.816 Q102.959 735.964 102.959 741.404 Q102.959 746.728 99.8113 749.946 Q96.6632 753.163 91.4317 753.163 Q85.4364 753.163 82.2651 748.58 Q79.0938 743.973 79.0938 735.247 Q79.0938 727.052 82.9827 722.191 Q86.8716 717.307 93.4225 717.307 Q95.1817 717.307 96.9641 717.654 Q98.7696 718.001 100.714 718.696 Z" fill="#000000" fill-rule="nonzero" fill-opacity="1" /><path clip-path="url(#clip870)" d="M91.1077 506.757 Q87.7743 506.757 85.8531 508.54 Q83.9549 510.322 83.9549 513.447 Q83.9549 516.572 85.8531 518.355 Q87.7743 520.137 91.1077 520.137 Q94.441 520.137 96.3623 518.355 Q98.2835 516.549 98.2835 513.447 Q98.2835 510.322 96.3623 508.54 Q94.4641 506.757 91.1077 506.757 M86.4318 504.767 Q83.4225 504.026 81.7327 501.966 Q80.066 499.906 80.066 496.943 Q80.066 492.799 83.0058 490.392 Q85.9688 487.984 91.1077 487.984 Q96.2697 487.984 99.2095 490.392 Q102.149 492.799 102.149 496.943 Q102.149 499.906 100.459 501.966 Q98.7928 504.026 95.8067 504.767 Q99.1863 505.554 101.061 507.845 Q102.959 510.137 102.959 513.447 Q102.959 518.47 99.8808 521.155 Q96.8252 523.841 91.1077 523.841 Q85.3901 523.841 82.3114 521.155 Q79.2559 518.47 79.2559 513.447 Q79.2559 510.137 81.154 507.845 Q83.0521 505.554 86.4318 504.767 M84.7188 497.382 Q84.7188 500.068 86.3855 501.572 Q88.0753 503.077 91.1077 503.077 Q94.1169 503.077 95.8067 501.572 Q97.5197 500.068 97.5197 497.382 Q97.5197 494.697 95.8067 493.193 Q94.1169 491.688 91.1077 491.688 Q88.0753 491.688 86.3855 493.193 Q84.7188 494.697 84.7188 497.382 Z" fill="#000000" fill-rule="nonzero" fill-opacity="1" /><path clip-path="url(#clip870)" d="M51.6634 289.912 L59.3023 289.912 L59.3023 263.546 L50.9921 265.213 L50.9921 260.953 L59.256 259.287 L63.9319 259.287 L63.9319 289.912 L71.5707 289.912 L71.5707 293.847 L51.6634 293.847 L51.6634 289.912 Z" fill="#000000" fill-rule="nonzero" fill-opacity="1" /><path clip-path="url(#clip870)" d="M91.0151 262.365 Q87.404 262.365 85.5753 265.93 Q83.7697 269.472 83.7697 276.601 Q83.7697 283.708 85.5753 287.273 Q87.404 290.814 91.0151 290.814 Q94.6493 290.814 96.4548 287.273 Q98.2835 283.708 98.2835 276.601 Q98.2835 269.472 96.4548 265.93 Q94.6493 262.365 91.0151 262.365 M91.0151 258.662 Q96.8252 258.662 99.8808 263.268 Q102.959 267.851 102.959 276.601 Q102.959 285.328 99.8808 289.935 Q96.8252 294.518 91.0151 294.518 Q85.2049 294.518 82.1262 289.935 Q79.0707 285.328 79.0707 276.601 Q79.0707 267.851 82.1262 263.268 Q85.2049 258.662 91.0151 258.662 Z" fill="#000000" fill-rule="nonzero" fill-opacity="1" /><path clip-path="url(#clip870)" d="M53.2606 60.5889 L60.8995 60.5889 L60.8995 34.2233 L52.5893 35.89 L52.5893 31.6308 L60.8532 29.9641 L65.5291 29.9641 L65.5291 60.5889 L73.1679 60.5889 L73.1679 64.5241 L53.2606 64.5241 L53.2606 60.5889 Z" fill="#000000" fill-rule="nonzero" fill-opacity="1" /><path clip-path="url(#clip870)" d="M86.6401 60.5889 L102.959 60.5889 L102.959 64.5241 L81.0151 64.5241 L81.0151 60.5889 Q83.6771 57.8343 88.2604 53.2047 Q92.8669 48.552 94.0475 47.2094 Q96.2928 44.6862 97.1724 42.9501 Q98.0752 41.1909 98.0752 39.5011 Q98.0752 36.7465 96.1308 35.0104 Q94.2095 33.2743 91.1077 33.2743 Q88.9086 33.2743 86.4549 34.0381 Q84.0244 34.802 81.2466 36.3529 L81.2466 31.6308 Q84.0707 30.4965 86.5243 29.9178 Q88.978 29.3391 91.0151 29.3391 Q96.3854 29.3391 99.5798 32.0243 Q102.774 34.7094 102.774 39.2002 Q102.774 41.3298 101.964 43.2511 Q101.177 45.1492 99.0706 47.7418 Q98.4919 48.4131 95.39 51.6306 Q92.2882 54.8251 86.6401 60.5889 Z" fill="#000000" fill-rule="nonzero" fill-opacity="1" /><path clip-path="url(#clip872)" d="M260.722 1308.52 L260.722 1423.18 L370.182 1423.18 L370.182 1308.52 L260.722 1308.52 L260.722 1308.52  Z" fill="#009af9" fill-rule="evenodd" fill-opacity="1"/>
<polyline clip-path="url(#clip872)" style="stroke:#000000; stroke-linecap:round; stroke-linejoin:round; stroke-width:4; stroke-opacity:1; fill:none" points="260.722,1308.52 260.722,1423.18 370.182,1423.18 370.182,1308.52 260.722,1308.52 "/>
<path clip-path="url(#clip872)" d="M370.182 1308.52 L370.182 1423.18 L479.641 1423.18 L479.641 1308.52 L370.182 1308.52 L370.182 1308.52  Z" fill="#009af9" fill-rule="evenodd" fill-opacity="1"/>
<polyline clip-path="url(#clip872)" style="stroke:#000000; stroke-linecap:round; stroke-linejoin:round; stroke-width:4; stroke-opacity:1; fill:none" points="370.182,1308.52 370.182,1423.18 479.641,1423.18 479.641,1308.52 370.182,1308.52 "/>
<path clip-path="url(#clip872)" d="M479.641 1193.86 L479.641 1423.18 L589.101 1423.18 L589.101 1193.86 L479.641 1193.86 L479.641 1193.86  Z" fill="#009af9" fill-rule="evenodd" fill-opacity="1"/>
<polyline clip-path="url(#clip872)" style="stroke:#000000; stroke-linecap:round; stroke-linejoin:round; stroke-width:4; stroke-opacity:1; fill:none" points="479.641,1193.86 479.641,1423.18 589.101,1423.18 589.101,1193.86 479.641,1193.86 "/>
<path clip-path="url(#clip872)" d="M589.101 1423.18 L589.101 1423.18 L698.56 1423.18 L698.56 1423.18 L589.101 1423.18 L589.101 1423.18  Z" fill="#009af9" fill-rule="evenodd" fill-opacity="1"/>
<polyline clip-path="url(#clip872)" style="stroke:#000000; stroke-linecap:round; stroke-linejoin:round; stroke-width:4; stroke-opacity:1; fill:none" points="589.101,1423.18 589.101,1423.18 698.56,1423.18 589.101,1423.18 "/>
<path clip-path="url(#clip872)" d="M698.56 735.212 L698.56 1423.18 L808.02 1423.18 L808.02 735.212 L698.56 735.212 L698.56 735.212  Z" fill="#009af9" fill-rule="evenodd" fill-opacity="1"/>
<polyline clip-path="url(#clip872)" style="stroke:#000000; stroke-linecap:round; stroke-linejoin:round; stroke-width:4; stroke-opacity:1; fill:none" points="698.56,735.212 698.56,1423.18 808.02,1423.18 808.02,735.212 698.56,735.212 "/>
<path clip-path="url(#clip872)" d="M808.02 849.873 L808.02 1423.18 L917.479 1423.18 L917.479 849.873 L808.02 849.873 L808.02 849.873  Z" fill="#009af9" fill-rule="evenodd" fill-opacity="1"/>
<polyline clip-path="url(#clip872)" style="stroke:#000000; stroke-linecap:round; stroke-linejoin:round; stroke-width:4; stroke-opacity:1; fill:none" points="808.02,849.873 808.02,1423.18 917.479,1423.18 917.479,849.873 808.02,849.873 "/>
<path clip-path="url(#clip872)" d="M917.479 505.889 L917.479 1423.18 L1026.94 1423.18 L1026.94 505.889 L917.479 505.889 L917.479 505.889  Z" fill="#009af9" fill-rule="evenodd" fill-opacity="1"/>
<polyline clip-path="url(#clip872)" style="stroke:#000000; stroke-linecap:round; stroke-linejoin:round; stroke-width:4; stroke-opacity:1; fill:none" points="917.479,505.889 917.479,1423.18 1026.94,1423.18 1026.94,505.889 917.479,505.889 "/>
<path clip-path="url(#clip872)" d="M1026.94 505.889 L1026.94 1423.18 L1136.4 1423.18 L1136.4 505.889 L1026.94 505.889 L1026.94 505.889  Z" fill="#009af9" fill-rule="evenodd" fill-opacity="1"/>
<polyline clip-path="url(#clip872)" style="stroke:#000000; stroke-linecap:round; stroke-linejoin:round; stroke-width:4; stroke-opacity:1; fill:none" points="1026.94,505.889 1026.94,1423.18 1136.4,1423.18 1136.4,505.889 1026.94,505.889 "/>
<path clip-path="url(#clip872)" d="M1136.4 849.873 L1136.4 1423.18 L1245.86 1423.18 L1245.86 849.873 L1136.4 849.873 L1136.4 849.873  Z" fill="#009af9" fill-rule="evenodd" fill-opacity="1"/>
<polyline clip-path="url(#clip872)" style="stroke:#000000; stroke-linecap:round; stroke-linejoin:round; stroke-width:4; stroke-opacity:1; fill:none" points="1136.4,849.873 1136.4,1423.18 1245.86,1423.18 1245.86,849.873 1136.4,849.873 "/>
<path clip-path="url(#clip872)" d="M1245.86 47.2441 L1245.86 1423.18 L1355.32 1423.18 L1355.32 47.2441 L1245.86 47.2441 L1245.86 47.2441  Z" fill="#009af9" fill-rule="evenodd" fill-opacity="1"/>
<polyline clip-path="url(#clip872)" style="stroke:#000000; stroke-linecap:round; stroke-linejoin:round; stroke-width:4; stroke-opacity:1; fill:none" points="1245.86,47.2441 1245.86,1423.18 1355.32,1423.18 1355.32,47.2441 1245.86,47.2441 "/>
<path clip-path="url(#clip872)" d="M1355.32 47.2441 L1355.32 1423.18 L1464.78 1423.18 L1464.78 47.2441 L1355.32 47.2441 L1355.32 47.2441  Z" fill="#009af9" fill-rule="evenodd" fill-opacity="1"/>
<polyline clip-path="url(#clip872)" style="stroke:#000000; stroke-linecap:round; stroke-linejoin:round; stroke-width:4; stroke-opacity:1; fill:none" points="1355.32,47.2441 1355.32,1423.18 1464.78,1423.18 1464.78,47.2441 1355.32,47.2441 "/>
<path clip-path="url(#clip872)" d="M1464.78 505.889 L1464.78 1423.18 L1574.24 1423.18 L1574.24 505.889 L1464.78 505.889 L1464.78 505.889  Z" fill="#009af9" fill-rule="evenodd" fill-opacity="1"/>
<polyline clip-path="url(#clip872)" style="stroke:#000000; stroke-linecap:round; stroke-linejoin:round; stroke-width:4; stroke-opacity:1; fill:none" points="1464.78,505.889 1464.78,1423.18 1574.24,1423.18 1574.24,505.889 1464.78,505.889 "/>
<path clip-path="url(#clip872)" d="M1574.24 161.905 L1574.24 1423.18 L1683.7 1423.18 L1683.7 161.905 L1574.24 161.905 L1574.24 161.905  Z" fill="#009af9" fill-rule="evenodd" fill-opacity="1"/>
<polyline clip-path="url(#clip872)" style="stroke:#000000; stroke-linecap:round; stroke-linejoin:round; stroke-width:4; stroke-opacity:1; fill:none" points="1574.24,161.905 1574.24,1423.18 1683.7,1423.18 1683.7,161.905 1574.24,161.905 "/>
<path clip-path="url(#clip872)" d="M1683.7 735.212 L1683.7 1423.18 L1793.16 1423.18 L1793.16 735.212 L1683.7 735.212 L1683.7 735.212  Z" fill="#009af9" fill-rule="evenodd" fill-opacity="1"/>
<polyline clip-path="url(#clip872)" style="stroke:#000000; stroke-linecap:round; stroke-linejoin:round; stroke-width:4; stroke-opacity:1; fill:none" points="1683.7,735.212 1683.7,1423.18 1793.16,1423.18 1793.16,735.212 1683.7,735.212 "/>
<path clip-path="url(#clip872)" d="M1793.16 620.551 L1793.16 1423.18 L1902.61 1423.18 L1902.61 620.551 L1793.16 620.551 L1793.16 620.551  Z" fill="#009af9" fill-rule="evenodd" fill-opacity="1"/>
<polyline clip-path="url(#clip872)" style="stroke:#000000; stroke-linecap:round; stroke-linejoin:round; stroke-width:4; stroke-opacity:1; fill:none" points="1793.16,620.551 1793.16,1423.18 1902.61,1423.18 1902.61,620.551 1793.16,620.551 "/>
<path clip-path="url(#clip872)" d="M1902.61 964.535 L1902.61 1423.18 L2012.07 1423.18 L2012.07 964.535 L1902.61 964.535 L1902.61 964.535  Z" fill="#009af9" fill-rule="evenodd" fill-opacity="1"/>
<polyline clip-path="url(#clip872)" style="stroke:#000000; stroke-linecap:round; stroke-linejoin:round; stroke-width:4; stroke-opacity:1; fill:none" points="1902.61,964.535 1902.61,1423.18 2012.07,1423.18 2012.07,964.535 1902.61,964.535 "/>
<path clip-path="url(#clip872)" d="M2012.07 1079.2 L2012.07 1423.18 L2121.53 1423.18 L2121.53 1079.2 L2012.07 1079.2 L2012.07 1079.2  Z" fill="#009af9" fill-rule="evenodd" fill-opacity="1"/>
<polyline clip-path="url(#clip872)" style="stroke:#000000; stroke-linecap:round; stroke-linejoin:round; stroke-width:4; stroke-opacity:1; fill:none" points="2012.07,1079.2 2012.07,1423.18 2121.53,1423.18 2121.53,1079.2 2012.07,1079.2 "/>
<path clip-path="url(#clip872)" d="M2121.53 1308.52 L2121.53 1423.18 L2230.99 1423.18 L2230.99 1308.52 L2121.53 1308.52 L2121.53 1308.52  Z" fill="#009af9" fill-rule="evenodd" fill-opacity="1"/>
<polyline clip-path="url(#clip872)" style="stroke:#000000; stroke-linecap:round; stroke-linejoin:round; stroke-width:4; stroke-opacity:1; fill:none" points="2121.53,1308.52 2121.53,1423.18 2230.99,1423.18 2230.99,1308.52 2121.53,1308.52 "/>
<circle clip-path="url(#clip872)" style="fill:#009af9; stroke:none; fill-opacity:0" cx="315.452" cy="1308.52" r="2"/>
<circle clip-path="url(#clip872)" style="fill:#009af9; stroke:none; fill-opacity:0" cx="424.911" cy="1308.52" r="2"/>
<circle clip-path="url(#clip872)" style="fill:#009af9; stroke:none; fill-opacity:0" cx="534.371" cy="1193.86" r="2"/>
<circle clip-path="url(#clip872)" style="fill:#009af9; stroke:none; fill-opacity:0" cx="643.83" cy="1423.18" r="2"/>
<circle clip-path="url(#clip872)" style="fill:#009af9; stroke:none; fill-opacity:0" cx="753.29" cy="735.212" r="2"/>
<circle clip-path="url(#clip872)" style="fill:#009af9; stroke:none; fill-opacity:0" cx="862.749" cy="849.873" r="2"/>
<circle clip-path="url(#clip872)" style="fill:#009af9; stroke:none; fill-opacity:0" cx="972.209" cy="505.889" r="2"/>
<circle clip-path="url(#clip872)" style="fill:#009af9; stroke:none; fill-opacity:0" cx="1081.67" cy="505.889" r="2"/>
<circle clip-path="url(#clip872)" style="fill:#009af9; stroke:none; fill-opacity:0" cx="1191.13" cy="849.873" r="2"/>
<circle clip-path="url(#clip872)" style="fill:#009af9; stroke:none; fill-opacity:0" cx="1300.59" cy="47.2441" r="2"/>
<circle clip-path="url(#clip872)" style="fill:#009af9; stroke:none; fill-opacity:0" cx="1410.05" cy="47.2441" r="2"/>
<circle clip-path="url(#clip872)" style="fill:#009af9; stroke:none; fill-opacity:0" cx="1519.51" cy="505.889" r="2"/>
<circle clip-path="url(#clip872)" style="fill:#009af9; stroke:none; fill-opacity:0" cx="1628.97" cy="161.905" r="2"/>
<circle clip-path="url(#clip872)" style="fill:#009af9; stroke:none; fill-opacity:0" cx="1738.43" cy="735.212" r="2"/>
<circle clip-path="url(#clip872)" style="fill:#009af9; stroke:none; fill-opacity:0" cx="1847.88" cy="620.551" r="2"/>
<circle clip-path="url(#clip872)" style="fill:#009af9; stroke:none; fill-opacity:0" cx="1957.34" cy="964.535" r="2"/>
<circle clip-path="url(#clip872)" style="fill:#009af9; stroke:none; fill-opacity:0" cx="2066.8" cy="1079.2" r="2"/>
<circle clip-path="url(#clip872)" style="fill:#009af9; stroke:none; fill-opacity:0" cx="2176.26" cy="1308.52" r="2"/>
</svg>
