<?xml version="1.0" encoding="utf-8"?>
<svg xmlns="http://www.w3.org/2000/svg" xmlns:xlink="http://www.w3.org/1999/xlink" width="600" height="400" viewBox="0 0 2400 1600">
<defs>
  <clipPath id="clip610">
    <rect x="0" y="0" width="2400" height="1600"/>
  </clipPath>
</defs>
<path clip-path="url(#clip610)" d="M0 1600 L2400 1600 L2400 0 L0 0  Z" fill="#ffffff" fill-rule="evenodd" fill-opacity="1"/>
<defs>
  <clipPath id="clip611">
    <rect x="480" y="0" width="1681" height="1600"/>
  </clipPath>
</defs>
<path clip-path="url(#clip610)" d="M205.121 1423.18 L2352.76 1423.18 L2352.76 47.2441 L205.121 47.2441  Z" fill="#ffffff" fill-rule="evenodd" fill-opacity="1"/>
<defs>
  <clipPath id="clip612">
    <rect x="205" y="47" width="2149" height="1377"/>
  </clipPath>
</defs>
<polyline clip-path="url(#clip612)" style="stroke:#000000; stroke-linecap:round; stroke-linejoin:round; stroke-width:2; stroke-opacity:0.1; fill:none" points="323.245,1423.18 323.245,47.2441 "/>
<polyline clip-path="url(#clip612)" style="stroke:#000000; stroke-linecap:round; stroke-linejoin:round; stroke-width:2; stroke-opacity:0.1; fill:none" points="670.77,1423.18 670.77,47.2441 "/>
<polyline clip-path="url(#clip612)" style="stroke:#000000; stroke-linecap:round; stroke-linejoin:round; stroke-width:2; stroke-opacity:0.1; fill:none" points="1018.29,1423.18 1018.29,47.2441 "/>
<polyline clip-path="url(#clip612)" style="stroke:#000000; stroke-linecap:round; stroke-linejoin:round; stroke-width:2; stroke-opacity:0.1; fill:none" points="1365.82,1423.18 1365.82,47.2441 "/>
<polyline clip-path="url(#clip612)" style="stroke:#000000; stroke-linecap:round; stroke-linejoin:round; stroke-width:2; stroke-opacity:0.1; fill:none" points="1713.34,1423.18 1713.34,47.2441 "/>
<polyline clip-path="url(#clip612)" style="stroke:#000000; stroke-linecap:round; stroke-linejoin:round; stroke-width:2; stroke-opacity:0.1; fill:none" points="2060.87,1423.18 2060.87,47.2441 "/>
<polyline clip-path="url(#clip610)" style="stroke:#000000; stroke-linecap:round; stroke-linejoin:round; stroke-width:4; stroke-opacity:1; fill:none" points="205.121,1423.18 2352.76,1423.18 "/>
<polyline clip-path="url(#clip610)" style="stroke:#000000; stroke-linecap:round; stroke-linejoin:round; stroke-width:4; stroke-opacity:1; fill:none" points="323.245,1423.18 323.245,1404.28 "/>
<polyline clip-path="url(#clip610)" style="stroke:#000000; stroke-linecap:round; stroke-linejoin:round; stroke-width:4; stroke-opacity:1; fill:none" points="670.77,1423.18 670.77,1404.28 "/>
<polyline clip-path="url(#clip610)" style="stroke:#000000; stroke-linecap:round; stroke-linejoin:round; stroke-width:4; stroke-opacity:1; fill:none" points="1018.29,1423.18 1018.29,1404.28 "/>
<polyline clip-path="url(#clip610)" style="stroke:#000000; stroke-linecap:round; stroke-linejoin:round; stroke-width:4; stroke-opacity:1; fill:none" points="1365.82,1423.18 1365.82,1404.28 "/>
<polyline clip-path="url(#clip610)" style="stroke:#000000; stroke-linecap:round; stroke-linejoin:round; stroke-width:4; stroke-opacity:1; fill:none" points="1713.34,1423.18 1713.34,1404.28 "/>
<polyline clip-path="url(#clip610)" style="stroke:#000000; stroke-linecap:round; stroke-linejoin:round; stroke-width:4; stroke-opacity:1; fill:none" points="2060.87,1423.18 2060.87,1404.28 "/>
<path clip-path="url(#clip610)" d="M297.006 1466.95 Q300.363 1467.66 302.238 1469.93 Q304.136 1472.2 304.136 1475.53 Q304.136 1480.65 300.618 1483.45 Q297.099 1486.25 290.618 1486.25 Q288.442 1486.25 286.127 1485.81 Q283.835 1485.39 281.382 1484.54 L281.382 1480.02 Q283.326 1481.16 285.641 1481.74 Q287.956 1482.32 290.479 1482.32 Q294.877 1482.32 297.168 1480.58 Q299.483 1478.84 299.483 1475.53 Q299.483 1472.48 297.331 1470.77 Q295.201 1469.03 291.381 1469.03 L287.354 1469.03 L287.354 1465.19 L291.567 1465.19 Q295.016 1465.19 296.844 1463.82 Q298.673 1462.43 298.673 1459.84 Q298.673 1457.18 296.775 1455.77 Q294.9 1454.33 291.381 1454.33 Q289.46 1454.33 287.261 1454.75 Q285.062 1455.16 282.423 1456.04 L282.423 1451.88 Q285.085 1451.14 287.4 1450.77 Q289.738 1450.39 291.798 1450.39 Q297.122 1450.39 300.224 1452.83 Q303.326 1455.23 303.326 1459.35 Q303.326 1462.22 301.682 1464.21 Q300.039 1466.18 297.006 1466.95 Z" fill="#000000" fill-rule="nonzero" fill-opacity="1" /><path clip-path="url(#clip610)" d="M313.048 1451.02 L331.404 1451.02 L331.404 1454.96 L317.33 1454.96 L317.33 1463.43 Q318.349 1463.08 319.367 1462.92 Q320.386 1462.73 321.404 1462.73 Q327.191 1462.73 330.571 1465.9 Q333.951 1469.08 333.951 1474.49 Q333.951 1480.07 330.478 1483.17 Q327.006 1486.25 320.687 1486.25 Q318.511 1486.25 316.242 1485.88 Q313.997 1485.51 311.59 1484.77 L311.59 1480.07 Q313.673 1481.2 315.895 1481.76 Q318.117 1482.32 320.594 1482.32 Q324.599 1482.32 326.937 1480.21 Q329.275 1478.1 329.275 1474.49 Q329.275 1470.88 326.937 1468.77 Q324.599 1466.67 320.594 1466.67 Q318.719 1466.67 316.844 1467.08 Q314.992 1467.5 313.048 1468.38 L313.048 1451.02 Z" fill="#000000" fill-rule="nonzero" fill-opacity="1" /><path clip-path="url(#clip610)" d="M353.164 1454.1 Q349.552 1454.1 347.724 1457.66 Q345.918 1461.2 345.918 1468.33 Q345.918 1475.44 347.724 1479.01 Q349.552 1482.55 353.164 1482.55 Q356.798 1482.55 358.603 1479.01 Q360.432 1475.44 360.432 1468.33 Q360.432 1461.2 358.603 1457.66 Q356.798 1454.1 353.164 1454.1 M353.164 1450.39 Q358.974 1450.39 362.029 1455 Q365.108 1459.58 365.108 1468.33 Q365.108 1477.06 362.029 1481.67 Q358.974 1486.25 353.164 1486.25 Q347.353 1486.25 344.275 1481.67 Q341.219 1477.06 341.219 1468.33 Q341.219 1459.58 344.275 1455 Q347.353 1450.39 353.164 1450.39 Z" fill="#000000" fill-rule="nonzero" fill-opacity="1" /><path clip-path="url(#clip610)" d="M643.86 1455.09 L632.055 1473.54 L643.86 1473.54 L643.86 1455.09 M642.633 1451.02 L648.513 1451.02 L648.513 1473.54 L653.443 1473.54 L653.443 1477.43 L648.513 1477.43 L648.513 1485.58 L643.86 1485.58 L643.86 1477.43 L628.258 1477.43 L628.258 1472.92 L642.633 1451.02 Z" fill="#000000" fill-rule="nonzero" fill-opacity="1" /><path clip-path="url(#clip610)" d="M671.175 1454.1 Q667.564 1454.1 665.735 1457.66 Q663.929 1461.2 663.929 1468.33 Q663.929 1475.44 665.735 1479.01 Q667.564 1482.55 671.175 1482.55 Q674.809 1482.55 676.615 1479.01 Q678.443 1475.44 678.443 1468.33 Q678.443 1461.2 676.615 1457.66 Q674.809 1454.1 671.175 1454.1 M671.175 1450.39 Q676.985 1450.39 680.04 1455 Q683.119 1459.58 683.119 1468.33 Q683.119 1477.06 680.04 1481.67 Q676.985 1486.25 671.175 1486.25 Q665.365 1486.25 662.286 1481.67 Q659.23 1477.06 659.23 1468.33 Q659.23 1459.58 662.286 1455 Q665.365 1450.39 671.175 1450.39 Z" fill="#000000" fill-rule="nonzero" fill-opacity="1" /><path clip-path="url(#clip610)" d="M701.337 1454.1 Q697.726 1454.1 695.897 1457.66 Q694.091 1461.2 694.091 1468.33 Q694.091 1475.44 695.897 1479.01 Q697.726 1482.55 701.337 1482.55 Q704.971 1482.55 706.776 1479.01 Q708.605 1475.44 708.605 1468.33 Q708.605 1461.2 706.776 1457.66 Q704.971 1454.1 701.337 1454.1 M701.337 1450.39 Q707.147 1450.39 710.202 1455 Q713.281 1459.58 713.281 1468.33 Q713.281 1477.06 710.202 1481.67 Q707.147 1486.25 701.337 1486.25 Q695.527 1486.25 692.448 1481.67 Q689.392 1477.06 689.392 1468.33 Q689.392 1459.58 692.448 1455 Q695.527 1450.39 701.337 1450.39 Z" fill="#000000" fill-rule="nonzero" fill-opacity="1" /><path clip-path="url(#clip610)" d="M991.385 1455.09 L979.58 1473.54 L991.385 1473.54 L991.385 1455.09 M990.158 1451.02 L996.038 1451.02 L996.038 1473.54 L1000.97 1473.54 L1000.97 1477.43 L996.038 1477.43 L996.038 1485.58 L991.385 1485.58 L991.385 1477.43 L975.783 1477.43 L975.783 1472.92 L990.158 1451.02 Z" fill="#000000" fill-rule="nonzero" fill-opacity="1" /><path clip-path="url(#clip610)" d="M1008.75 1451.02 L1027.1 1451.02 L1027.1 1454.96 L1013.03 1454.96 L1013.03 1463.43 Q1014.05 1463.08 1015.07 1462.92 Q1016.08 1462.73 1017.1 1462.73 Q1022.89 1462.73 1026.27 1465.9 Q1029.65 1469.08 1029.65 1474.49 Q1029.65 1480.07 1026.18 1483.17 Q1022.7 1486.25 1016.38 1486.25 Q1014.21 1486.25 1011.94 1485.88 Q1009.7 1485.51 1007.29 1484.77 L1007.29 1480.07 Q1009.37 1481.2 1011.59 1481.76 Q1013.82 1482.32 1016.29 1482.32 Q1020.3 1482.32 1022.63 1480.21 Q1024.97 1478.1 1024.97 1474.49 Q1024.97 1470.88 1022.63 1468.77 Q1020.3 1466.67 1016.29 1466.67 Q1014.42 1466.67 1012.54 1467.08 Q1010.69 1467.5 1008.75 1468.38 L1008.75 1451.02 Z" fill="#000000" fill-rule="nonzero" fill-opacity="1" /><path clip-path="url(#clip610)" d="M1048.86 1454.1 Q1045.25 1454.1 1043.42 1457.66 Q1041.62 1461.2 1041.62 1468.33 Q1041.62 1475.44 1043.42 1479.01 Q1045.25 1482.55 1048.86 1482.55 Q1052.5 1482.55 1054.3 1479.01 Q1056.13 1475.44 1056.13 1468.33 Q1056.13 1461.2 1054.3 1457.66 Q1052.5 1454.1 1048.86 1454.1 M1048.86 1450.39 Q1054.67 1450.39 1057.73 1455 Q1060.81 1459.58 1060.81 1468.33 Q1060.81 1477.06 1057.73 1481.67 Q1054.67 1486.25 1048.86 1486.25 Q1043.05 1486.25 1039.97 1481.67 Q1036.92 1477.06 1036.92 1468.33 Q1036.92 1459.58 1039.97 1455 Q1043.05 1450.39 1048.86 1450.39 Z" fill="#000000" fill-rule="nonzero" fill-opacity="1" /><path clip-path="url(#clip610)" d="M1325.44 1451.02 L1343.79 1451.02 L1343.79 1454.96 L1329.72 1454.96 L1329.72 1463.43 Q1330.74 1463.08 1331.76 1462.92 Q1332.78 1462.73 1333.79 1462.73 Q1339.58 1462.73 1342.96 1465.9 Q1346.34 1469.08 1346.34 1474.49 Q1346.34 1480.07 1342.87 1483.17 Q1339.4 1486.25 1333.08 1486.25 Q1330.9 1486.25 1328.63 1485.88 Q1326.39 1485.51 1323.98 1484.77 L1323.98 1480.07 Q1326.06 1481.2 1328.29 1481.76 Q1330.51 1482.32 1332.98 1482.32 Q1336.99 1482.32 1339.33 1480.21 Q1341.66 1478.1 1341.66 1474.49 Q1341.66 1470.88 1339.33 1468.77 Q1336.99 1466.67 1332.98 1466.67 Q1331.11 1466.67 1329.23 1467.08 Q1327.38 1467.5 1325.44 1468.38 L1325.44 1451.02 Z" fill="#000000" fill-rule="nonzero" fill-opacity="1" /><path clip-path="url(#clip610)" d="M1365.55 1454.1 Q1361.94 1454.1 1360.11 1457.66 Q1358.31 1461.2 1358.31 1468.33 Q1358.31 1475.44 1360.11 1479.01 Q1361.94 1482.55 1365.55 1482.55 Q1369.19 1482.55 1370.99 1479.01 Q1372.82 1475.44 1372.82 1468.33 Q1372.82 1461.2 1370.99 1457.66 Q1369.19 1454.1 1365.55 1454.1 M1365.55 1450.39 Q1371.36 1450.39 1374.42 1455 Q1377.5 1459.58 1377.5 1468.33 Q1377.5 1477.06 1374.42 1481.67 Q1371.36 1486.25 1365.55 1486.25 Q1359.74 1486.25 1356.66 1481.67 Q1353.61 1477.06 1353.61 1468.33 Q1353.61 1459.58 1356.66 1455 Q1359.74 1450.39 1365.55 1450.39 Z" fill="#000000" fill-rule="nonzero" fill-opacity="1" /><path clip-path="url(#clip610)" d="M1395.72 1454.1 Q1392.1 1454.1 1390.28 1457.66 Q1388.47 1461.2 1388.47 1468.33 Q1388.47 1475.44 1390.28 1479.01 Q1392.1 1482.55 1395.72 1482.55 Q1399.35 1482.55 1401.16 1479.01 Q1402.98 1475.44 1402.98 1468.33 Q1402.98 1461.2 1401.16 1457.66 Q1399.35 1454.1 1395.72 1454.1 M1395.72 1450.39 Q1401.53 1450.39 1404.58 1455 Q1407.66 1459.58 1407.66 1468.33 Q1407.66 1477.06 1404.58 1481.67 Q1401.53 1486.25 1395.72 1486.25 Q1389.91 1486.25 1386.83 1481.67 Q1383.77 1477.06 1383.77 1468.33 Q1383.77 1459.58 1386.83 1455 Q1389.91 1450.39 1395.72 1450.39 Z" fill="#000000" fill-rule="nonzero" fill-opacity="1" /><path clip-path="url(#clip610)" d="M1672.96 1451.02 L1691.32 1451.02 L1691.32 1454.96 L1677.25 1454.96 L1677.25 1463.43 Q1678.26 1463.08 1679.28 1462.92 Q1680.3 1462.73 1681.32 1462.73 Q1687.11 1462.73 1690.49 1465.9 Q1693.87 1469.08 1693.87 1474.49 Q1693.87 1480.07 1690.39 1483.17 Q1686.92 1486.25 1680.6 1486.25 Q1678.43 1486.25 1676.16 1485.88 Q1673.91 1485.51 1671.5 1484.77 L1671.5 1480.07 Q1673.59 1481.2 1675.81 1481.76 Q1678.03 1482.32 1680.51 1482.32 Q1684.51 1482.32 1686.85 1480.21 Q1689.19 1478.1 1689.19 1474.49 Q1689.19 1470.88 1686.85 1468.77 Q1684.51 1466.67 1680.51 1466.67 Q1678.63 1466.67 1676.76 1467.08 Q1674.91 1467.5 1672.96 1468.38 L1672.96 1451.02 Z" fill="#000000" fill-rule="nonzero" fill-opacity="1" /><path clip-path="url(#clip610)" d="M1703.12 1451.02 L1721.48 1451.02 L1721.48 1454.96 L1707.41 1454.96 L1707.41 1463.43 Q1708.43 1463.08 1709.44 1462.92 Q1710.46 1462.73 1711.48 1462.73 Q1717.27 1462.73 1720.65 1465.9 Q1724.03 1469.08 1724.03 1474.49 Q1724.03 1480.07 1720.56 1483.17 Q1717.08 1486.25 1710.76 1486.25 Q1708.59 1486.25 1706.32 1485.88 Q1704.07 1485.51 1701.67 1484.77 L1701.67 1480.07 Q1703.75 1481.2 1705.97 1481.76 Q1708.19 1482.32 1710.67 1482.32 Q1714.68 1482.32 1717.01 1480.21 Q1719.35 1478.1 1719.35 1474.49 Q1719.35 1470.88 1717.01 1468.77 Q1714.68 1466.67 1710.67 1466.67 Q1708.8 1466.67 1706.92 1467.08 Q1705.07 1467.5 1703.12 1468.38 L1703.12 1451.02 Z" fill="#000000" fill-rule="nonzero" fill-opacity="1" /><path clip-path="url(#clip610)" d="M1743.24 1454.1 Q1739.63 1454.1 1737.8 1457.66 Q1736 1461.2 1736 1468.33 Q1736 1475.44 1737.8 1479.01 Q1739.63 1482.55 1743.24 1482.55 Q1746.87 1482.55 1748.68 1479.01 Q1750.51 1475.44 1750.51 1468.33 Q1750.51 1461.2 1748.68 1457.66 Q1746.87 1454.1 1743.24 1454.1 M1743.24 1450.39 Q1749.05 1450.39 1752.11 1455 Q1755.18 1459.58 1755.18 1468.33 Q1755.18 1477.06 1752.11 1481.67 Q1749.05 1486.25 1743.24 1486.25 Q1737.43 1486.25 1734.35 1481.67 Q1731.3 1477.06 1731.3 1468.33 Q1731.3 1459.58 1734.35 1455 Q1737.43 1450.39 1743.24 1450.39 Z" fill="#000000" fill-rule="nonzero" fill-opacity="1" /><path clip-path="url(#clip610)" d="M2031.19 1466.44 Q2028.05 1466.44 2026.19 1468.59 Q2024.37 1470.74 2024.37 1474.49 Q2024.37 1478.22 2026.19 1480.39 Q2028.05 1482.55 2031.19 1482.55 Q2034.34 1482.55 2036.17 1480.39 Q2038.02 1478.22 2038.02 1474.49 Q2038.02 1470.74 2036.17 1468.59 Q2034.34 1466.44 2031.19 1466.44 M2040.48 1451.78 L2040.48 1456.04 Q2038.72 1455.21 2036.91 1454.77 Q2035.13 1454.33 2033.37 1454.33 Q2028.74 1454.33 2026.29 1457.45 Q2023.86 1460.58 2023.51 1466.9 Q2024.87 1464.89 2026.93 1463.82 Q2028.99 1462.73 2031.47 1462.73 Q2036.68 1462.73 2039.69 1465.9 Q2042.72 1469.05 2042.72 1474.49 Q2042.72 1479.82 2039.57 1483.03 Q2036.43 1486.25 2031.19 1486.25 Q2025.2 1486.25 2022.03 1481.67 Q2018.86 1477.06 2018.86 1468.33 Q2018.86 1460.14 2022.74 1455.28 Q2026.63 1450.39 2033.18 1450.39 Q2034.94 1450.39 2036.73 1450.74 Q2038.53 1451.09 2040.48 1451.78 Z" fill="#000000" fill-rule="nonzero" fill-opacity="1" /><path clip-path="url(#clip610)" d="M2060.78 1454.1 Q2057.17 1454.1 2055.34 1457.66 Q2053.53 1461.2 2053.53 1468.33 Q2053.53 1475.44 2055.34 1479.01 Q2057.17 1482.55 2060.78 1482.55 Q2064.41 1482.55 2066.22 1479.01 Q2068.05 1475.44 2068.05 1468.33 Q2068.05 1461.2 2066.22 1457.66 Q2064.41 1454.1 2060.78 1454.1 M2060.78 1450.39 Q2066.59 1450.39 2069.64 1455 Q2072.72 1459.58 2072.72 1468.33 Q2072.72 1477.06 2069.64 1481.67 Q2066.59 1486.25 2060.78 1486.25 Q2054.97 1486.25 2051.89 1481.67 Q2048.83 1477.06 2048.83 1468.33 Q2048.83 1459.58 2051.89 1455 Q2054.97 1450.39 2060.78 1450.39 Z" fill="#000000" fill-rule="nonzero" fill-opacity="1" /><path clip-path="url(#clip610)" d="M2090.94 1454.1 Q2087.33 1454.1 2085.5 1457.66 Q2083.69 1461.2 2083.69 1468.33 Q2083.69 1475.44 2085.5 1479.01 Q2087.33 1482.55 2090.94 1482.55 Q2094.57 1482.55 2096.38 1479.01 Q2098.21 1475.44 2098.21 1468.33 Q2098.21 1461.2 2096.38 1457.66 Q2094.57 1454.1 2090.94 1454.1 M2090.94 1450.39 Q2096.75 1450.39 2099.8 1455 Q2102.88 1459.58 2102.88 1468.33 Q2102.88 1477.06 2099.8 1481.67 Q2096.75 1486.25 2090.94 1486.25 Q2085.13 1486.25 2082.05 1481.67 Q2078.99 1477.06 2078.99 1468.33 Q2078.99 1459.58 2082.05 1455 Q2085.13 1450.39 2090.94 1450.39 Z" fill="#000000" fill-rule="nonzero" fill-opacity="1" /><path clip-path="url(#clip610)" d="M1149.83 1525.81 L1149.83 1543.66 L1157.91 1543.66 Q1162.4 1543.66 1164.85 1541.34 Q1167.3 1539.02 1167.3 1534.72 Q1167.3 1530.45 1164.85 1528.13 Q1162.4 1525.81 1157.91 1525.81 L1149.83 1525.81 M1143.4 1520.52 L1157.91 1520.52 Q1165.9 1520.52 1169.97 1524.15 Q1174.08 1527.75 1174.08 1534.72 Q1174.08 1541.75 1169.97 1545.35 Q1165.9 1548.95 1157.91 1548.95 L1149.83 1548.95 L1149.83 1568.04 L1143.4 1568.04 L1143.4 1520.52 Z" fill="#000000" fill-rule="nonzero" fill-opacity="1" /><path clip-path="url(#clip610)" d="M1201.96 1537.87 Q1200.97 1537.3 1199.8 1537.04 Q1198.65 1536.76 1197.25 1536.76 Q1192.29 1536.76 1189.61 1540 Q1186.97 1543.22 1186.97 1549.27 L1186.97 1568.04 L1181.08 1568.04 L1181.08 1532.4 L1186.97 1532.4 L1186.97 1537.93 Q1188.82 1534.69 1191.78 1533.13 Q1194.74 1531.54 1198.97 1531.54 Q1199.57 1531.54 1200.31 1531.63 Q1201.04 1531.7 1201.93 1531.85 L1201.96 1537.87 Z" fill="#000000" fill-rule="nonzero" fill-opacity="1" /><path clip-path="url(#clip610)" d="M1220.49 1536.5 Q1215.77 1536.5 1213.04 1540.19 Q1210.3 1543.85 1210.3 1550.25 Q1210.3 1556.65 1213.01 1560.34 Q1215.74 1564 1220.49 1564 Q1225.16 1564 1227.9 1560.31 Q1230.64 1556.62 1230.64 1550.25 Q1230.64 1543.92 1227.9 1540.23 Q1225.16 1536.5 1220.49 1536.5 M1220.49 1531.54 Q1228.12 1531.54 1232.48 1536.5 Q1236.85 1541.47 1236.85 1550.25 Q1236.85 1559 1232.48 1564 Q1228.12 1568.97 1220.49 1568.97 Q1212.81 1568.97 1208.45 1564 Q1204.13 1559 1204.13 1550.25 Q1204.13 1541.47 1208.45 1536.5 Q1212.81 1531.54 1220.49 1531.54 Z" fill="#000000" fill-rule="nonzero" fill-opacity="1" /><path clip-path="url(#clip610)" d="M1264.6 1518.52 L1264.6 1523.39 L1259 1523.39 Q1255.85 1523.39 1254.61 1524.66 Q1253.4 1525.93 1253.4 1529.24 L1253.4 1532.4 L1263.04 1532.4 L1263.04 1536.95 L1253.4 1536.95 L1253.4 1568.04 L1247.51 1568.04 L1247.51 1536.95 L1241.91 1536.95 L1241.91 1532.4 L1247.51 1532.4 L1247.51 1529.91 Q1247.51 1523.96 1250.28 1521.26 Q1253.05 1518.52 1259.06 1518.52 L1264.6 1518.52 Z" fill="#000000" fill-rule="nonzero" fill-opacity="1" /><path clip-path="url(#clip610)" d="M1269.5 1532.4 L1275.36 1532.4 L1275.36 1568.04 L1269.5 1568.04 L1269.5 1532.4 M1269.5 1518.52 L1275.36 1518.52 L1275.36 1525.93 L1269.5 1525.93 L1269.5 1518.52 Z" fill="#000000" fill-rule="nonzero" fill-opacity="1" /><path clip-path="url(#clip610)" d="M1293.4 1522.27 L1293.4 1532.4 L1305.47 1532.4 L1305.47 1536.95 L1293.4 1536.95 L1293.4 1556.3 Q1293.4 1560.66 1294.58 1561.9 Q1295.79 1563.14 1299.45 1563.14 L1305.47 1563.14 L1305.47 1568.04 L1299.45 1568.04 Q1292.67 1568.04 1290.09 1565.53 Q1287.52 1562.98 1287.52 1556.3 L1287.52 1536.95 L1283.22 1536.95 L1283.22 1532.4 L1287.52 1532.4 L1287.52 1522.27 L1293.4 1522.27 Z" fill="#000000" fill-rule="nonzero" fill-opacity="1" /><path clip-path="url(#clip610)" d="M1333.35 1518.52 L1346.84 1518.52 L1346.84 1523.07 L1339.21 1523.07 L1339.21 1572.09 L1346.84 1572.09 L1346.84 1576.64 L1333.35 1576.64 L1333.35 1518.52 Z" fill="#000000" fill-rule="nonzero" fill-opacity="1" /><path clip-path="url(#clip610)" d="M1375.2 1577.62 L1372.02 1577.62 L1371.99 1568.04 Q1368.65 1567.98 1365.31 1567.28 Q1361.96 1566.55 1358.59 1565.12 L1358.59 1559.39 Q1361.84 1561.42 1365.15 1562.47 Q1368.49 1563.49 1372.02 1563.52 L1372.02 1549.01 Q1364.99 1547.86 1361.77 1545.13 Q1358.59 1542.39 1358.59 1537.62 Q1358.59 1532.43 1362.06 1529.44 Q1365.53 1526.44 1372.02 1526 L1372.02 1518.52 L1375.2 1518.52 L1375.2 1525.9 Q1378.16 1526.03 1380.93 1526.54 Q1383.7 1527.02 1386.34 1527.88 L1386.34 1533.45 Q1383.7 1532.11 1380.9 1531.38 Q1378.13 1530.65 1375.2 1530.52 L1375.2 1544.11 Q1382.43 1545.22 1385.83 1548.09 Q1389.24 1550.95 1389.24 1555.92 Q1389.24 1561.3 1385.61 1564.42 Q1382.02 1567.5 1375.2 1567.98 L1375.2 1577.62 M1372.02 1543.54 L1372.02 1530.49 Q1368.33 1530.9 1366.39 1532.59 Q1364.45 1534.27 1364.45 1537.07 Q1364.45 1539.81 1366.23 1541.34 Q1368.04 1542.87 1372.02 1543.54 M1375.2 1549.65 L1375.2 1563.43 Q1379.25 1562.89 1381.28 1561.14 Q1383.35 1559.39 1383.35 1556.52 Q1383.35 1553.72 1381.38 1552.07 Q1379.44 1550.41 1375.2 1549.65 Z" fill="#000000" fill-rule="nonzero" fill-opacity="1" /><path clip-path="url(#clip610)" d="M1414.48 1518.52 L1414.48 1576.64 L1400.98 1576.64 L1400.98 1572.09 L1408.59 1572.09 L1408.59 1523.07 L1400.98 1523.07 L1400.98 1518.52 L1414.48 1518.52 Z" fill="#000000" fill-rule="nonzero" fill-opacity="1" /><polyline clip-path="url(#clip612)" style="stroke:#000000; stroke-linecap:round; stroke-linejoin:round; stroke-width:2; stroke-opacity:0.1; fill:none" points="205.121,1423.18 2352.76,1423.18 "/>
<polyline clip-path="url(#clip612)" style="stroke:#000000; stroke-linecap:round; stroke-linejoin:round; stroke-width:2; stroke-opacity:0.1; fill:none" points="205.121,1110.47 2352.76,1110.47 "/>
<polyline clip-path="url(#clip612)" style="stroke:#000000; stroke-linecap:round; stroke-linejoin:round; stroke-width:2; stroke-opacity:0.1; fill:none" points="205.121,797.755 2352.76,797.755 "/>
<polyline clip-path="url(#clip612)" style="stroke:#000000; stroke-linecap:round; stroke-linejoin:round; stroke-width:2; stroke-opacity:0.1; fill:none" points="205.121,485.042 2352.76,485.042 "/>
<polyline clip-path="url(#clip612)" style="stroke:#000000; stroke-linecap:round; stroke-linejoin:round; stroke-width:2; stroke-opacity:0.1; fill:none" points="205.121,172.329 2352.76,172.329 "/>
<polyline clip-path="url(#clip610)" style="stroke:#000000; stroke-linecap:round; stroke-linejoin:round; stroke-width:4; stroke-opacity:1; fill:none" points="205.121,1423.18 205.121,47.2441 "/>
<polyline clip-path="url(#clip610)" style="stroke:#000000; stroke-linecap:round; stroke-linejoin:round; stroke-width:4; stroke-opacity:1; fill:none" points="205.121,1423.18 224.019,1423.18 "/>
<polyline clip-path="url(#clip610)" style="stroke:#000000; stroke-linecap:round; stroke-linejoin:round; stroke-width:4; stroke-opacity:1; fill:none" points="205.121,1110.47 224.019,1110.47 "/>
<polyline clip-path="url(#clip610)" style="stroke:#000000; stroke-linecap:round; stroke-linejoin:round; stroke-width:4; stroke-opacity:1; fill:none" points="205.121,797.755 224.019,797.755 "/>
<polyline clip-path="url(#clip610)" style="stroke:#000000; stroke-linecap:round; stroke-linejoin:round; stroke-width:4; stroke-opacity:1; fill:none" points="205.121,485.042 224.019,485.042 "/>
<polyline clip-path="url(#clip610)" style="stroke:#000000; stroke-linecap:round; stroke-linejoin:round; stroke-width:4; stroke-opacity:1; fill:none" points="205.121,172.329 224.019,172.329 "/>
<path clip-path="url(#clip610)" d="M157.177 1408.98 Q153.566 1408.98 151.737 1412.54 Q149.931 1416.08 149.931 1423.21 Q149.931 1430.32 151.737 1433.89 Q153.566 1437.43 157.177 1437.43 Q160.811 1437.43 162.616 1433.89 Q164.445 1430.32 164.445 1423.21 Q164.445 1416.08 162.616 1412.54 Q160.811 1408.98 157.177 1408.98 M157.177 1405.27 Q162.987 1405.27 166.042 1409.88 Q169.121 1414.46 169.121 1423.21 Q169.121 1431.94 166.042 1436.55 Q162.987 1441.13 157.177 1441.13 Q151.366 1441.13 148.288 1436.55 Q145.232 1431.94 145.232 1423.21 Q145.232 1414.46 148.288 1409.88 Q151.366 1405.27 157.177 1405.27 Z" fill="#000000" fill-rule="nonzero" fill-opacity="1" /><path clip-path="url(#clip610)" d="M117.825 1123.81 L125.464 1123.81 L125.464 1097.45 L117.154 1099.11 L117.154 1094.85 L125.418 1093.19 L130.093 1093.19 L130.093 1123.81 L137.732 1123.81 L137.732 1127.75 L117.825 1127.75 L117.825 1123.81 Z" fill="#000000" fill-rule="nonzero" fill-opacity="1" /><path clip-path="url(#clip610)" d="M157.177 1096.27 Q153.566 1096.27 151.737 1099.83 Q149.931 1103.37 149.931 1110.5 Q149.931 1117.61 151.737 1121.17 Q153.566 1124.71 157.177 1124.71 Q160.811 1124.71 162.616 1121.17 Q164.445 1117.61 164.445 1110.5 Q164.445 1103.37 162.616 1099.83 Q160.811 1096.27 157.177 1096.27 M157.177 1092.56 Q162.987 1092.56 166.042 1097.17 Q169.121 1101.75 169.121 1110.5 Q169.121 1119.23 166.042 1123.84 Q162.987 1128.42 157.177 1128.42 Q151.366 1128.42 148.288 1123.84 Q145.232 1119.23 145.232 1110.5 Q145.232 1101.75 148.288 1097.17 Q151.366 1092.56 157.177 1092.56 Z" fill="#000000" fill-rule="nonzero" fill-opacity="1" /><path clip-path="url(#clip610)" d="M121.043 811.099 L137.362 811.099 L137.362 815.035 L115.418 815.035 L115.418 811.099 Q118.08 808.345 122.663 803.715 Q127.269 799.062 128.45 797.72 Q130.695 795.197 131.575 793.461 Q132.478 791.701 132.478 790.011 Q132.478 787.257 130.533 785.521 Q128.612 783.785 125.51 783.785 Q123.311 783.785 120.857 784.549 Q118.427 785.312 115.649 786.863 L115.649 782.141 Q118.473 781.007 120.927 780.428 Q123.38 779.85 125.418 779.85 Q130.788 779.85 133.982 782.535 Q137.177 785.22 137.177 789.711 Q137.177 791.84 136.367 793.761 Q135.579 795.66 133.473 798.252 Q132.894 798.923 129.792 802.141 Q126.691 805.335 121.043 811.099 Z" fill="#000000" fill-rule="nonzero" fill-opacity="1" /><path clip-path="url(#clip610)" d="M157.177 783.553 Q153.566 783.553 151.737 787.118 Q149.931 790.66 149.931 797.789 Q149.931 804.896 151.737 808.46 Q153.566 812.002 157.177 812.002 Q160.811 812.002 162.616 808.46 Q164.445 804.896 164.445 797.789 Q164.445 790.66 162.616 787.118 Q160.811 783.553 157.177 783.553 M157.177 779.85 Q162.987 779.85 166.042 784.456 Q169.121 789.039 169.121 797.789 Q169.121 806.516 166.042 811.122 Q162.987 815.706 157.177 815.706 Q151.366 815.706 148.288 811.122 Q145.232 806.516 145.232 797.789 Q145.232 789.039 148.288 784.456 Q151.366 779.85 157.177 779.85 Z" fill="#000000" fill-rule="nonzero" fill-opacity="1" /><path clip-path="url(#clip610)" d="M131.181 483.688 Q134.538 484.405 136.413 486.674 Q138.311 488.942 138.311 492.276 Q138.311 497.391 134.792 500.192 Q131.274 502.993 124.793 502.993 Q122.617 502.993 120.302 502.553 Q118.01 502.137 115.556 501.28 L115.556 496.766 Q117.501 497.901 119.816 498.479 Q122.13 499.058 124.654 499.058 Q129.052 499.058 131.343 497.322 Q133.658 495.586 133.658 492.276 Q133.658 489.22 131.505 487.507 Q129.376 485.771 125.556 485.771 L121.529 485.771 L121.529 481.928 L125.742 481.928 Q129.191 481.928 131.019 480.563 Q132.848 479.174 132.848 476.581 Q132.848 473.919 130.95 472.507 Q129.075 471.072 125.556 471.072 Q123.635 471.072 121.436 471.489 Q119.237 471.905 116.598 472.785 L116.598 468.618 Q119.26 467.878 121.575 467.507 Q123.913 467.137 125.973 467.137 Q131.297 467.137 134.399 469.567 Q137.501 471.975 137.501 476.095 Q137.501 478.965 135.857 480.956 Q134.214 482.924 131.181 483.688 Z" fill="#000000" fill-rule="nonzero" fill-opacity="1" /><path clip-path="url(#clip610)" d="M157.177 470.841 Q153.566 470.841 151.737 474.405 Q149.931 477.947 149.931 485.077 Q149.931 492.183 151.737 495.748 Q153.566 499.289 157.177 499.289 Q160.811 499.289 162.616 495.748 Q164.445 492.183 164.445 485.077 Q164.445 477.947 162.616 474.405 Q160.811 470.841 157.177 470.841 M157.177 467.137 Q162.987 467.137 166.042 471.743 Q169.121 476.327 169.121 485.077 Q169.121 493.803 166.042 498.41 Q162.987 502.993 157.177 502.993 Q151.366 502.993 148.288 498.41 Q145.232 493.803 145.232 485.077 Q145.232 476.327 148.288 471.743 Q151.366 467.137 157.177 467.137 Z" fill="#000000" fill-rule="nonzero" fill-opacity="1" /><path clip-path="url(#clip610)" d="M129.862 159.123 L118.056 177.572 L129.862 177.572 L129.862 159.123 M128.635 155.049 L134.515 155.049 L134.515 177.572 L139.445 177.572 L139.445 181.461 L134.515 181.461 L134.515 189.609 L129.862 189.609 L129.862 181.461 L114.26 181.461 L114.26 176.947 L128.635 155.049 Z" fill="#000000" fill-rule="nonzero" fill-opacity="1" /><path clip-path="url(#clip610)" d="M157.177 158.128 Q153.566 158.128 151.737 161.693 Q149.931 165.234 149.931 172.364 Q149.931 179.47 151.737 183.035 Q153.566 186.577 157.177 186.577 Q160.811 186.577 162.616 183.035 Q164.445 179.47 164.445 172.364 Q164.445 165.234 162.616 161.693 Q160.811 158.128 157.177 158.128 M157.177 154.424 Q162.987 154.424 166.042 159.031 Q169.121 163.614 169.121 172.364 Q169.121 181.091 166.042 185.697 Q162.987 190.28 157.177 190.28 Q151.366 190.28 148.288 185.697 Q145.232 181.091 145.232 172.364 Q145.232 163.614 148.288 159.031 Q151.366 154.424 157.177 154.424 Z" fill="#000000" fill-rule="nonzero" fill-opacity="1" /><path clip-path="url(#clip610)" d="M16.4842 1073.5 L16.4842 1064.84 L56.238 1043.77 L16.4842 1043.77 L16.4842 1037.54 L64.0042 1037.54 L64.0042 1046.19 L24.2503 1067.26 L64.0042 1067.26 L64.0042 1073.5 L16.4842 1073.5 Z" fill="#000000" fill-rule="nonzero" fill-opacity="1" /><path clip-path="url(#clip610)" d="M49.9359 1025.6 L28.3562 1025.6 L28.3562 1019.74 L49.7131 1019.74 Q54.7739 1019.74 57.3202 1017.77 Q59.8346 1015.8 59.8346 1011.85 Q59.8346 1007.11 56.8109 1004.37 Q53.7872 1001.6 48.5673 1001.6 L28.3562 1001.6 L28.3562 995.744 L64.0042 995.744 L64.0042 1001.6 L58.5296 1001.6 Q61.7762 1003.73 63.3676 1006.57 Q64.9272 1009.37 64.9272 1013.09 Q64.9272 1019.23 61.1078 1022.42 Q57.2883 1025.6 49.9359 1025.6 M27.4968 1010.86 L27.4968 1010.86 Z" fill="#000000" fill-rule="nonzero" fill-opacity="1" /><path clip-path="url(#clip610)" d="M35.1993 955.927 Q31.2526 953.731 29.3747 950.675 Q27.4968 947.62 27.4968 943.482 Q27.4968 937.912 31.4117 934.888 Q35.2948 931.865 42.4881 931.865 L64.0042 931.865 L64.0042 937.753 L42.679 937.753 Q37.5546 937.753 35.072 939.567 Q32.5894 941.381 32.5894 945.105 Q32.5894 949.657 35.6131 952.298 Q38.6368 954.94 43.8567 954.94 L64.0042 954.94 L64.0042 960.829 L42.679 960.829 Q37.5228 960.829 35.072 962.643 Q32.5894 964.457 32.5894 968.245 Q32.5894 972.732 35.6449 975.374 Q38.6686 978.016 43.8567 978.016 L64.0042 978.016 L64.0042 983.904 L28.3562 983.904 L28.3562 978.016 L33.8944 978.016 Q30.616 976.011 29.0564 973.21 Q27.4968 970.409 27.4968 966.558 Q27.4968 962.675 29.4702 959.969 Q31.4436 957.232 35.1993 955.927 Z" fill="#000000" fill-rule="nonzero" fill-opacity="1" /><path clip-path="url(#clip610)" d="M46.212 894.593 Q39.7508 894.593 36.0905 897.267 Q32.3984 899.909 32.3984 904.556 Q32.3984 909.203 36.0905 911.876 Q39.7508 914.518 46.212 914.518 Q52.6732 914.518 56.3653 911.876 Q60.0256 909.203 60.0256 904.556 Q60.0256 899.909 56.3653 897.267 Q52.6732 894.593 46.212 894.593 M33.7671 914.518 Q30.5842 912.672 29.0564 909.871 Q27.4968 907.038 27.4968 903.123 Q27.4968 896.63 32.6531 892.588 Q37.8093 888.514 46.212 888.514 Q54.6147 888.514 59.771 892.588 Q64.9272 896.63 64.9272 903.123 Q64.9272 907.038 63.3994 909.871 Q61.8398 912.672 58.657 914.518 L64.0042 914.518 L64.0042 920.406 L14.479 920.406 L14.479 914.518 L33.7671 914.518 Z" fill="#000000" fill-rule="nonzero" fill-opacity="1" /><path clip-path="url(#clip610)" d="M44.7161 848.315 L47.5806 848.315 L47.5806 875.242 Q53.6281 874.86 56.8109 871.613 Q59.9619 868.335 59.9619 862.51 Q59.9619 859.136 59.1344 855.985 Q58.3069 852.802 56.6518 849.683 L62.1899 849.683 Q63.5267 852.834 64.227 856.144 Q64.9272 859.455 64.9272 862.86 Q64.9272 871.39 59.9619 876.387 Q54.9967 881.353 46.5303 881.353 Q37.7774 881.353 32.6531 876.642 Q27.4968 871.9 27.4968 863.879 Q27.4968 856.686 32.1438 852.516 Q36.7589 848.315 44.7161 848.315 M42.9973 854.171 Q38.1912 854.235 35.3266 856.877 Q32.4621 859.486 32.4621 863.815 Q32.4621 868.717 35.2312 871.677 Q38.0002 874.605 43.0292 875.051 L42.9973 854.171 Z" fill="#000000" fill-rule="nonzero" fill-opacity="1" /><path clip-path="url(#clip610)" d="M33.8307 818.046 Q33.2578 819.032 33.0032 820.21 Q32.7167 821.356 32.7167 822.756 Q32.7167 827.722 35.9632 830.395 Q39.1779 833.037 45.2253 833.037 L64.0042 833.037 L64.0042 838.925 L28.3562 838.925 L28.3562 833.037 L33.8944 833.037 Q30.6479 831.191 29.0883 828.231 Q27.4968 825.271 27.4968 821.038 Q27.4968 820.433 27.5923 819.701 Q27.656 818.969 27.8151 818.078 L33.8307 818.046 Z" fill="#000000" fill-rule="nonzero" fill-opacity="1" /><path clip-path="url(#clip610)" d="M32.4621 777.369 Q32.4621 782.079 36.1542 784.817 Q39.8145 787.554 46.212 787.554 Q52.6095 787.554 56.3017 784.849 Q59.9619 782.111 59.9619 777.369 Q59.9619 772.69 56.2698 769.953 Q52.5777 767.216 46.212 767.216 Q39.8781 767.216 36.186 769.953 Q32.4621 772.69 32.4621 777.369 M27.4968 777.369 Q27.4968 769.73 32.4621 765.37 Q37.4273 761.009 46.212 761.009 Q54.9649 761.009 59.9619 765.37 Q64.9272 769.73 64.9272 777.369 Q64.9272 785.04 59.9619 789.4 Q54.9649 793.729 46.212 793.729 Q37.4273 793.729 32.4621 789.4 Q27.4968 785.04 27.4968 777.369 Z" fill="#000000" fill-rule="nonzero" fill-opacity="1" /><path clip-path="url(#clip610)" d="M14.479 733.255 L19.3487 733.255 L19.3487 738.856 Q19.3487 742.007 20.6219 743.249 Q21.895 744.458 25.2052 744.458 L28.3562 744.458 L28.3562 734.814 L32.9077 734.814 L32.9077 744.458 L64.0042 744.458 L64.0042 750.346 L32.9077 750.346 L32.9077 755.948 L28.3562 755.948 L28.3562 750.346 L25.8736 750.346 Q19.9216 750.346 17.2162 747.577 Q14.479 744.808 14.479 738.793 L14.479 733.255 Z" fill="#000000" fill-rule="nonzero" fill-opacity="1" /><path clip-path="url(#clip610)" d="M32.4621 693.819 Q32.4621 698.53 36.1542 701.267 Q39.8145 704.004 46.212 704.004 Q52.6095 704.004 56.3017 701.299 Q59.9619 698.561 59.9619 693.819 Q59.9619 689.14 56.2698 686.403 Q52.5777 683.666 46.212 683.666 Q39.8781 683.666 36.186 686.403 Q32.4621 689.14 32.4621 693.819 M27.4968 693.819 Q27.4968 686.18 32.4621 681.82 Q37.4273 677.459 46.212 677.459 Q54.9649 677.459 59.9619 681.82 Q64.9272 686.18 64.9272 693.819 Q64.9272 701.49 59.9619 705.85 Q54.9649 710.179 46.212 710.179 Q37.4273 710.179 32.4621 705.85 Q27.4968 701.49 27.4968 693.819 Z" fill="#000000" fill-rule="nonzero" fill-opacity="1" /><path clip-path="url(#clip610)" d="M49.9359 668.356 L28.3562 668.356 L28.3562 662.5 L49.7131 662.5 Q54.7739 662.5 57.3202 660.526 Q59.8346 658.553 59.8346 654.606 Q59.8346 649.864 56.8109 647.127 Q53.7872 644.357 48.5673 644.357 L28.3562 644.357 L28.3562 638.501 L64.0042 638.501 L64.0042 644.357 L58.5296 644.357 Q61.7762 646.49 63.3676 649.323 Q64.9272 652.124 64.9272 655.848 Q64.9272 661.99 61.1078 665.173 Q57.2883 668.356 49.9359 668.356 M27.4968 653.62 L27.4968 653.62 Z" fill="#000000" fill-rule="nonzero" fill-opacity="1" /><path clip-path="url(#clip610)" d="M18.2347 620.645 L28.3562 620.645 L28.3562 608.582 L32.9077 608.582 L32.9077 620.645 L52.2594 620.645 Q56.6199 620.645 57.8613 619.468 Q59.1026 618.258 59.1026 614.598 L59.1026 608.582 L64.0042 608.582 L64.0042 614.598 Q64.0042 621.377 61.4897 623.955 Q58.9434 626.533 52.2594 626.533 L32.9077 626.533 L32.9077 630.83 L28.3562 630.83 L28.3562 626.533 L18.2347 626.533 L18.2347 620.645 Z" fill="#000000" fill-rule="nonzero" fill-opacity="1" /><path clip-path="url(#clip610)" d="M29.7248 575.226 L35.1993 575.226 Q33.8307 577.708 33.1623 580.223 Q32.4621 582.706 32.4621 585.252 Q32.4621 590.949 36.0905 594.1 Q39.6872 597.251 46.212 597.251 Q52.7369 597.251 56.3653 594.1 Q59.9619 590.949 59.9619 585.252 Q59.9619 582.706 59.2935 580.223 Q58.5933 577.708 57.2247 575.226 L62.6355 575.226 Q63.7814 577.677 64.3543 580.318 Q64.9272 582.928 64.9272 585.888 Q64.9272 593.941 59.8664 598.683 Q54.8057 603.426 46.212 603.426 Q37.491 603.426 32.4939 598.652 Q27.4968 593.846 27.4968 585.506 Q27.4968 582.801 28.0697 580.223 Q28.6108 577.645 29.7248 575.226 Z" fill="#000000" fill-rule="nonzero" fill-opacity="1" /><path clip-path="url(#clip610)" d="M32.4621 551.227 Q32.4621 555.938 36.1542 558.675 Q39.8145 561.412 46.212 561.412 Q52.6095 561.412 56.3017 558.707 Q59.9619 555.97 59.9619 551.227 Q59.9619 546.548 56.2698 543.811 Q52.5777 541.074 46.212 541.074 Q39.8781 541.074 36.186 543.811 Q32.4621 546.548 32.4621 551.227 M27.4968 551.227 Q27.4968 543.588 32.4621 539.228 Q37.4273 534.867 46.212 534.867 Q54.9649 534.867 59.9619 539.228 Q64.9272 543.588 64.9272 551.227 Q64.9272 558.898 59.9619 563.258 Q54.9649 567.587 46.212 567.587 Q37.4273 567.587 32.4621 563.258 Q27.4968 558.898 27.4968 551.227 Z" fill="#000000" fill-rule="nonzero" fill-opacity="1" /><path clip-path="url(#clip610)" d="M35.1993 497.405 Q31.2526 495.209 29.3747 492.153 Q27.4968 489.098 27.4968 484.96 Q27.4968 479.39 31.4117 476.366 Q35.2948 473.343 42.4881 473.343 L64.0042 473.343 L64.0042 479.231 L42.679 479.231 Q37.5546 479.231 35.072 481.045 Q32.5894 482.859 32.5894 486.583 Q32.5894 491.135 35.6131 493.777 Q38.6368 496.418 43.8567 496.418 L64.0042 496.418 L64.0042 502.307 L42.679 502.307 Q37.5228 502.307 35.072 504.121 Q32.5894 505.935 32.5894 509.723 Q32.5894 514.211 35.6449 516.852 Q38.6686 519.494 43.8567 519.494 L64.0042 519.494 L64.0042 525.382 L28.3562 525.382 L28.3562 519.494 L33.8944 519.494 Q30.616 517.489 29.0564 514.688 Q27.4968 511.887 27.4968 508.036 Q27.4968 504.153 29.4702 501.447 Q31.4436 498.71 35.1993 497.405 Z" fill="#000000" fill-rule="nonzero" fill-opacity="1" /><path clip-path="url(#clip610)" d="M44.7161 431.17 L47.5806 431.17 L47.5806 458.097 Q53.6281 457.715 56.8109 454.468 Q59.9619 451.19 59.9619 445.365 Q59.9619 441.992 59.1344 438.841 Q58.3069 435.658 56.6518 432.539 L62.1899 432.539 Q63.5267 435.69 64.227 439 Q64.9272 442.31 64.9272 445.716 Q64.9272 454.246 59.9619 459.243 Q54.9967 464.208 46.5303 464.208 Q37.7774 464.208 32.6531 459.497 Q27.4968 454.755 27.4968 446.734 Q27.4968 439.541 32.1438 435.371 Q36.7589 431.17 44.7161 431.17 M42.9973 437.026 Q38.1912 437.09 35.3266 439.732 Q32.4621 442.342 32.4621 446.67 Q32.4621 451.572 35.2312 454.532 Q38.0002 457.46 43.0292 457.906 L42.9973 437.026 Z" fill="#000000" fill-rule="nonzero" fill-opacity="1" /><path clip-path="url(#clip610)" d="M29.4065 398.832 L34.9447 398.832 Q33.6716 401.315 33.035 403.988 Q32.3984 406.662 32.3984 409.527 Q32.3984 413.887 33.7352 416.083 Q35.072 418.248 37.7456 418.248 Q39.7826 418.248 40.9603 416.688 Q42.1061 415.128 43.1565 410.418 L43.6021 408.413 Q44.9389 402.174 47.3897 399.564 Q49.8086 396.922 54.1691 396.922 Q59.1344 396.922 62.0308 400.869 Q64.9272 404.784 64.9272 411.659 Q64.9272 414.524 64.3543 417.643 Q63.8132 420.73 62.6992 424.168 L56.6518 424.168 Q58.3387 420.921 59.198 417.77 Q60.0256 414.619 60.0256 411.532 Q60.0256 407.394 58.6251 405.166 Q57.1929 402.938 54.6147 402.938 Q52.2276 402.938 50.9545 404.561 Q49.6813 406.153 48.5037 411.595 L48.0262 413.632 Q46.8804 419.075 44.5251 421.494 Q42.138 423.913 38.0002 423.913 Q32.9713 423.913 30.2341 420.348 Q27.4968 416.783 27.4968 410.227 Q27.4968 406.98 27.9743 404.116 Q28.4517 401.251 29.4065 398.832 Z" fill="#000000" fill-rule="nonzero" fill-opacity="1" /><path clip-path="url(#clip612)" d="M323.245 1329.37 L323.245 1423.18 L497.007 1423.18 L497.007 1329.37 L323.245 1329.37 L323.245 1329.37  Z" fill="#009af9" fill-rule="evenodd" fill-opacity="1"/>
<polyline clip-path="url(#clip612)" style="stroke:#000000; stroke-linecap:round; stroke-linejoin:round; stroke-width:4; stroke-opacity:1; fill:none" points="323.245,1329.37 323.245,1423.18 497.007,1423.18 497.007,1329.37 323.245,1329.37 "/>
<path clip-path="url(#clip612)" d="M497.007 1360.64 L497.007 1423.18 L670.77 1423.18 L670.77 1360.64 L497.007 1360.64 L497.007 1360.64  Z" fill="#009af9" fill-rule="evenodd" fill-opacity="1"/>
<polyline clip-path="url(#clip612)" style="stroke:#000000; stroke-linecap:round; stroke-linejoin:round; stroke-width:4; stroke-opacity:1; fill:none" points="497.007,1360.64 497.007,1423.18 670.77,1423.18 670.77,1360.64 497.007,1360.64 "/>
<path clip-path="url(#clip612)" d="M670.77 1360.64 L670.77 1423.18 L844.532 1423.18 L844.532 1360.64 L670.77 1360.64 L670.77 1360.64  Z" fill="#009af9" fill-rule="evenodd" fill-opacity="1"/>
<polyline clip-path="url(#clip612)" style="stroke:#000000; stroke-linecap:round; stroke-linejoin:round; stroke-width:4; stroke-opacity:1; fill:none" points="670.77,1360.64 670.77,1423.18 844.532,1423.18 844.532,1360.64 670.77,1360.64 "/>
<path clip-path="url(#clip612)" d="M844.532 1235.55 L844.532 1423.18 L1018.29 1423.18 L1018.29 1235.55 L844.532 1235.55 L844.532 1235.55  Z" fill="#009af9" fill-rule="evenodd" fill-opacity="1"/>
<polyline clip-path="url(#clip612)" style="stroke:#000000; stroke-linecap:round; stroke-linejoin:round; stroke-width:4; stroke-opacity:1; fill:none" points="844.532,1235.55 844.532,1423.18 1018.29,1423.18 1018.29,1235.55 844.532,1235.55 "/>
<path clip-path="url(#clip612)" d="M1018.29 1298.09 L1018.29 1423.18 L1192.06 1423.18 L1192.06 1298.09 L1018.29 1298.09 L1018.29 1298.09  Z" fill="#009af9" fill-rule="evenodd" fill-opacity="1"/>
<polyline clip-path="url(#clip612)" style="stroke:#000000; stroke-linecap:round; stroke-linejoin:round; stroke-width:4; stroke-opacity:1; fill:none" points="1018.29,1298.09 1018.29,1423.18 1192.06,1423.18 1192.06,1298.09 1018.29,1298.09 "/>
<path clip-path="url(#clip612)" d="M1192.06 1204.28 L1192.06 1423.18 L1365.82 1423.18 L1365.82 1204.28 L1192.06 1204.28 L1192.06 1204.28  Z" fill="#009af9" fill-rule="evenodd" fill-opacity="1"/>
<polyline clip-path="url(#clip612)" style="stroke:#000000; stroke-linecap:round; stroke-linejoin:round; stroke-width:4; stroke-opacity:1; fill:none" points="1192.06,1204.28 1192.06,1423.18 1365.82,1423.18 1365.82,1204.28 1192.06,1204.28 "/>
<path clip-path="url(#clip612)" d="M1365.82 1110.47 L1365.82 1423.18 L1539.58 1423.18 L1539.58 1110.47 L1365.82 1110.47 L1365.82 1110.47  Z" fill="#009af9" fill-rule="evenodd" fill-opacity="1"/>
<polyline clip-path="url(#clip612)" style="stroke:#000000; stroke-linecap:round; stroke-linejoin:round; stroke-width:4; stroke-opacity:1; fill:none" points="1365.82,1110.47 1365.82,1423.18 1539.58,1423.18 1539.58,1110.47 1365.82,1110.47 "/>
<path clip-path="url(#clip612)" d="M1539.58 1329.37 L1539.58 1423.18 L1713.34 1423.18 L1713.34 1329.37 L1539.58 1329.37 L1539.58 1329.37  Z" fill="#009af9" fill-rule="evenodd" fill-opacity="1"/>
<polyline clip-path="url(#clip612)" style="stroke:#000000; stroke-linecap:round; stroke-linejoin:round; stroke-width:4; stroke-opacity:1; fill:none" points="1539.58,1329.37 1539.58,1423.18 1713.34,1423.18 1713.34,1329.37 1539.58,1329.37 "/>
<path clip-path="url(#clip612)" d="M1713.34 1110.47 L1713.34 1423.18 L1887.11 1423.18 L1887.11 1110.47 L1713.34 1110.47 L1713.34 1110.47  Z" fill="#009af9" fill-rule="evenodd" fill-opacity="1"/>
<polyline clip-path="url(#clip612)" style="stroke:#000000; stroke-linecap:round; stroke-linejoin:round; stroke-width:4; stroke-opacity:1; fill:none" points="1713.34,1110.47 1713.34,1423.18 1887.11,1423.18 1887.11,1110.47 1713.34,1110.47 "/>
<path clip-path="url(#clip612)" d="M1887.11 1141.74 L1887.11 1423.18 L2060.87 1423.18 L2060.87 1141.74 L1887.11 1141.74 L1887.11 1141.74  Z" fill="#009af9" fill-rule="evenodd" fill-opacity="1"/>
<polyline clip-path="url(#clip612)" style="stroke:#000000; stroke-linecap:round; stroke-linejoin:round; stroke-width:4; stroke-opacity:1; fill:none" points="1887.11,1141.74 1887.11,1423.18 2060.87,1423.18 2060.87,1141.74 1887.11,1141.74 "/>
<path clip-path="url(#clip612)" d="M2060.87 47.2441 L2060.87 1423.18 L2234.63 1423.18 L2234.63 47.2441 L2060.87 47.2441 L2060.87 47.2441  Z" fill="#009af9" fill-rule="evenodd" fill-opacity="1"/>
<polyline clip-path="url(#clip612)" style="stroke:#000000; stroke-linecap:round; stroke-linejoin:round; stroke-width:4; stroke-opacity:1; fill:none" points="2060.87,47.2441 2060.87,1423.18 2234.63,1423.18 2234.63,47.2441 2060.87,47.2441 "/>
<circle clip-path="url(#clip612)" style="fill:#009af9; stroke:none; fill-opacity:0" cx="410.126" cy="1329.37" r="2"/>
<circle clip-path="url(#clip612)" style="fill:#009af9; stroke:none; fill-opacity:0" cx="583.888" cy="1360.64" r="2"/>
<circle clip-path="url(#clip612)" style="fill:#009af9; stroke:none; fill-opacity:0" cx="757.651" cy="1360.64" r="2"/>
<circle clip-path="url(#clip612)" style="fill:#009af9; stroke:none; fill-opacity:0" cx="931.413" cy="1235.55" r="2"/>
<circle clip-path="url(#clip612)" style="fill:#009af9; stroke:none; fill-opacity:0" cx="1105.18" cy="1298.09" r="2"/>
<circle clip-path="url(#clip612)" style="fill:#009af9; stroke:none; fill-opacity:0" cx="1278.94" cy="1204.28" r="2"/>
<circle clip-path="url(#clip612)" style="fill:#009af9; stroke:none; fill-opacity:0" cx="1452.7" cy="1110.47" r="2"/>
<circle clip-path="url(#clip612)" style="fill:#009af9; stroke:none; fill-opacity:0" cx="1626.46" cy="1329.37" r="2"/>
<circle clip-path="url(#clip612)" style="fill:#009af9; stroke:none; fill-opacity:0" cx="1800.23" cy="1110.47" r="2"/>
<circle clip-path="url(#clip612)" style="fill:#009af9; stroke:none; fill-opacity:0" cx="1973.99" cy="1141.74" r="2"/>
<circle clip-path="url(#clip612)" style="fill:#009af9; stroke:none; fill-opacity:0" cx="2147.75" cy="47.2441" r="2"/>
<polyline clip-path="url(#clip612)" style="stroke:#e26f46; stroke-linecap:round; stroke-linejoin:round; stroke-width:12; stroke-opacity:1; fill:none" points="1704.9,2799.12 1704.9,-1328.69 "/>
<polyline clip-path="url(#clip612)" style="stroke:#3da44d; stroke-linecap:round; stroke-linejoin:round; stroke-width:12; stroke-opacity:1; fill:none" points="1334.01,2799.12 1334.01,-1328.69 "/>
<polyline clip-path="url(#clip612)" style="stroke:#c271d2; stroke-linecap:round; stroke-linejoin:round; stroke-width:12; stroke-opacity:1; fill:none" points="386.129,2799.12 386.129,-1328.69 "/>
<path clip-path="url(#clip610)" d="M276.709 300.469 L660.893 300.469 L660.893 93.1086 L276.709 93.1086  Z" fill="#ffffff" fill-rule="evenodd" fill-opacity="1"/>
<polyline clip-path="url(#clip610)" style="stroke:#000000; stroke-linecap:round; stroke-linejoin:round; stroke-width:4; stroke-opacity:1; fill:none" points="276.709,300.469 660.893,300.469 660.893,93.1086 276.709,93.1086 276.709,300.469 "/>
<polyline clip-path="url(#clip610)" style="stroke:#e26f46; stroke-linecap:round; stroke-linejoin:round; stroke-width:12; stroke-opacity:1; fill:none" points="300.571,144.949 443.747,144.949 "/>
<path clip-path="url(#clip610)" d="M475.225 140.377 L480.897 156.395 L488.998 136.303 L493.512 136.303 L483.026 162.229 L483.026 172.09 L478.767 172.09 L478.767 162.229 L471.962 142.877 Q470.943 139.96 468.744 139.96 L467.61 139.96 L467.61 136.303 L469.23 136.303 Q473.79 136.303 475.225 140.377 Z" fill="#000000" fill-rule="nonzero" fill-opacity="1" /><path clip-path="url(#clip610)" d="M515.017 140.701 L544.693 140.701 L544.693 144.59 L515.017 144.59 L515.017 140.701 M515.017 150.145 L544.693 150.145 L544.693 154.081 L515.017 154.081 L515.017 150.145 Z" fill="#000000" fill-rule="nonzero" fill-opacity="1" /><path clip-path="url(#clip610)" d="M570.665 158.293 L578.304 158.293 L578.304 131.928 L569.993 133.595 L569.993 129.335 L578.257 127.669 L582.933 127.669 L582.933 158.293 L590.572 158.293 L590.572 162.229 L570.665 162.229 L570.665 158.293 Z" fill="#000000" fill-rule="nonzero" fill-opacity="1" /><path clip-path="url(#clip610)" d="M600.016 156.349 L604.901 156.349 L604.901 162.229 L600.016 162.229 L600.016 156.349 Z" fill="#000000" fill-rule="nonzero" fill-opacity="1" /><path clip-path="url(#clip610)" d="M625.086 130.747 Q621.475 130.747 619.646 134.312 Q617.84 137.854 617.84 144.983 Q617.84 152.09 619.646 155.655 Q621.475 159.196 625.086 159.196 Q628.72 159.196 630.525 155.655 Q632.354 152.09 632.354 144.983 Q632.354 137.854 630.525 134.312 Q628.72 130.747 625.086 130.747 M625.086 127.044 Q630.896 127.044 633.951 131.65 Q637.03 136.233 637.03 144.983 Q637.03 153.71 633.951 158.317 Q630.896 162.9 625.086 162.9 Q619.276 162.9 616.197 158.317 Q613.141 153.71 613.141 144.983 Q613.141 136.233 616.197 131.65 Q619.276 127.044 625.086 127.044 Z" fill="#000000" fill-rule="nonzero" fill-opacity="1" /><polyline clip-path="url(#clip610)" style="stroke:#3da44d; stroke-linecap:round; stroke-linejoin:round; stroke-width:12; stroke-opacity:1; fill:none" points="300.571,196.789 443.747,196.789 "/>
<path clip-path="url(#clip610)" d="M475.225 192.217 L480.897 208.235 L488.998 188.143 L493.512 188.143 L483.026 214.069 L483.026 223.93 L478.767 223.93 L478.767 214.069 L471.962 194.717 Q470.943 191.8 468.744 191.8 L467.61 191.8 L467.61 188.143 L469.23 188.143 Q473.79 188.143 475.225 192.217 Z" fill="#000000" fill-rule="nonzero" fill-opacity="1" /><path clip-path="url(#clip610)" d="M515.017 192.541 L544.693 192.541 L544.693 196.43 L515.017 196.43 L515.017 192.541 M515.017 201.985 L544.693 201.985 L544.693 205.921 L515.017 205.921 L515.017 201.985 Z" fill="#000000" fill-rule="nonzero" fill-opacity="1" /><path clip-path="url(#clip610)" d="M579.854 182.587 Q576.243 182.587 574.415 186.152 Q572.609 189.694 572.609 196.823 Q572.609 203.93 574.415 207.495 Q576.243 211.036 579.854 211.036 Q583.489 211.036 585.294 207.495 Q587.123 203.93 587.123 196.823 Q587.123 189.694 585.294 186.152 Q583.489 182.587 579.854 182.587 M579.854 178.884 Q585.665 178.884 588.72 183.49 Q591.799 188.073 591.799 196.823 Q591.799 205.55 588.72 210.157 Q585.665 214.74 579.854 214.74 Q574.044 214.74 570.966 210.157 Q567.91 205.55 567.91 196.823 Q567.91 188.073 570.966 183.49 Q574.044 178.884 579.854 178.884 Z" fill="#000000" fill-rule="nonzero" fill-opacity="1" /><path clip-path="url(#clip610)" d="M600.016 208.189 L604.901 208.189 L604.901 214.069 L600.016 214.069 L600.016 208.189 Z" fill="#000000" fill-rule="nonzero" fill-opacity="1" /><path clip-path="url(#clip610)" d="M615.132 179.509 L633.488 179.509 L633.488 183.444 L619.414 183.444 L619.414 191.916 Q620.433 191.569 621.451 191.407 Q622.47 191.222 623.488 191.222 Q629.275 191.222 632.655 194.393 Q636.035 197.564 636.035 202.981 Q636.035 208.559 632.563 211.661 Q629.09 214.74 622.771 214.74 Q620.595 214.74 618.326 214.37 Q616.081 213.999 613.674 213.258 L613.674 208.559 Q615.757 209.694 617.979 210.249 Q620.201 210.805 622.678 210.805 Q626.683 210.805 629.021 208.698 Q631.359 206.592 631.359 202.981 Q631.359 199.37 629.021 197.263 Q626.683 195.157 622.678 195.157 Q620.803 195.157 618.928 195.573 Q617.076 195.99 615.132 196.87 L615.132 179.509 Z" fill="#000000" fill-rule="nonzero" fill-opacity="1" /><polyline clip-path="url(#clip610)" style="stroke:#c271d2; stroke-linecap:round; stroke-linejoin:round; stroke-width:12; stroke-opacity:1; fill:none" points="300.571,248.629 443.747,248.629 "/>
<path clip-path="url(#clip610)" d="M475.225 244.057 L480.897 260.075 L488.998 239.983 L493.512 239.983 L483.026 265.909 L483.026 275.77 L478.767 275.77 L478.767 265.909 L471.962 246.557 Q470.943 243.64 468.744 243.64 L467.61 243.64 L467.61 239.983 L469.23 239.983 Q473.79 239.983 475.225 244.057 Z" fill="#000000" fill-rule="nonzero" fill-opacity="1" /><path clip-path="url(#clip610)" d="M515.017 244.381 L544.693 244.381 L544.693 248.27 L515.017 248.27 L515.017 244.381 M515.017 253.825 L544.693 253.825 L544.693 257.761 L515.017 257.761 L515.017 253.825 Z" fill="#000000" fill-rule="nonzero" fill-opacity="1" /><path clip-path="url(#clip610)" d="M579.854 234.427 Q576.243 234.427 574.415 237.992 Q572.609 241.534 572.609 248.663 Q572.609 255.77 574.415 259.335 Q576.243 262.876 579.854 262.876 Q583.489 262.876 585.294 259.335 Q587.123 255.77 587.123 248.663 Q587.123 241.534 585.294 237.992 Q583.489 234.427 579.854 234.427 M579.854 230.724 Q585.665 230.724 588.72 235.33 Q591.799 239.913 591.799 248.663 Q591.799 257.39 588.72 261.997 Q585.665 266.58 579.854 266.58 Q574.044 266.58 570.966 261.997 Q567.91 257.39 567.91 248.663 Q567.91 239.913 570.966 235.33 Q574.044 230.724 579.854 230.724 Z" fill="#000000" fill-rule="nonzero" fill-opacity="1" /><path clip-path="url(#clip610)" d="M600.016 260.029 L604.901 260.029 L604.901 265.909 L600.016 265.909 L600.016 260.029 Z" fill="#000000" fill-rule="nonzero" fill-opacity="1" /><path clip-path="url(#clip610)" d="M625.086 234.427 Q621.475 234.427 619.646 237.992 Q617.84 241.534 617.84 248.663 Q617.84 255.77 619.646 259.335 Q621.475 262.876 625.086 262.876 Q628.72 262.876 630.525 259.335 Q632.354 255.77 632.354 248.663 Q632.354 241.534 630.525 237.992 Q628.72 234.427 625.086 234.427 M625.086 230.724 Q630.896 230.724 633.951 235.33 Q637.03 239.913 637.03 248.663 Q637.03 257.39 633.951 261.997 Q630.896 266.58 625.086 266.58 Q619.276 266.58 616.197 261.997 Q613.141 257.39 613.141 248.663 Q613.141 239.913 616.197 235.33 Q619.276 230.724 625.086 230.724 Z" fill="#000000" fill-rule="nonzero" fill-opacity="1" /></svg>
