<?xml version="1.0" encoding="utf-8"?>
<svg xmlns="http://www.w3.org/2000/svg" xmlns:xlink="http://www.w3.org/1999/xlink" width="600" height="400" viewBox="0 0 2400 1600">
<defs>
  <clipPath id="clip490">
    <rect x="0" y="0" width="2400" height="1600"/>
  </clipPath>
</defs>
<path clip-path="url(#clip490)" d="M0 1600 L2400 1600 L2400 0 L0 0  Z" fill="#ffffff" fill-rule="evenodd" fill-opacity="1"/>
<defs>
  <clipPath id="clip491">
    <rect x="480" y="0" width="1681" height="1600"/>
  </clipPath>
</defs>
<path clip-path="url(#clip490)" d="M138.959 1423.18 L2352.76 1423.18 L2352.76 47.2441 L138.959 47.2441  Z" fill="#ffffff" fill-rule="evenodd" fill-opacity="1"/>
<defs>
  <clipPath id="clip492">
    <rect x="138" y="47" width="2215" height="1377"/>
  </clipPath>
</defs>
<polyline clip-path="url(#clip492)" style="stroke:#000000; stroke-linecap:round; stroke-linejoin:round; stroke-width:2; stroke-opacity:0.1; fill:none" points="468.119,1423.18 468.119,47.2441 "/>
<polyline clip-path="url(#clip492)" style="stroke:#000000; stroke-linecap:round; stroke-linejoin:round; stroke-width:2; stroke-opacity:0.1; fill:none" points="882.913,1423.18 882.913,47.2441 "/>
<polyline clip-path="url(#clip492)" style="stroke:#000000; stroke-linecap:round; stroke-linejoin:round; stroke-width:2; stroke-opacity:0.1; fill:none" points="1297.71,1423.18 1297.71,47.2441 "/>
<polyline clip-path="url(#clip492)" style="stroke:#000000; stroke-linecap:round; stroke-linejoin:round; stroke-width:2; stroke-opacity:0.1; fill:none" points="1712.5,1423.18 1712.5,47.2441 "/>
<polyline clip-path="url(#clip492)" style="stroke:#000000; stroke-linecap:round; stroke-linejoin:round; stroke-width:2; stroke-opacity:0.1; fill:none" points="2127.29,1423.18 2127.29,47.2441 "/>
<polyline clip-path="url(#clip490)" style="stroke:#000000; stroke-linecap:round; stroke-linejoin:round; stroke-width:4; stroke-opacity:1; fill:none" points="138.959,1423.18 2352.76,1423.18 "/>
<polyline clip-path="url(#clip490)" style="stroke:#000000; stroke-linecap:round; stroke-linejoin:round; stroke-width:4; stroke-opacity:1; fill:none" points="468.119,1423.18 468.119,1404.28 "/>
<polyline clip-path="url(#clip490)" style="stroke:#000000; stroke-linecap:round; stroke-linejoin:round; stroke-width:4; stroke-opacity:1; fill:none" points="882.913,1423.18 882.913,1404.28 "/>
<polyline clip-path="url(#clip490)" style="stroke:#000000; stroke-linecap:round; stroke-linejoin:round; stroke-width:4; stroke-opacity:1; fill:none" points="1297.71,1423.18 1297.71,1404.28 "/>
<polyline clip-path="url(#clip490)" style="stroke:#000000; stroke-linecap:round; stroke-linejoin:round; stroke-width:4; stroke-opacity:1; fill:none" points="1712.5,1423.18 1712.5,1404.28 "/>
<polyline clip-path="url(#clip490)" style="stroke:#000000; stroke-linecap:round; stroke-linejoin:round; stroke-width:4; stroke-opacity:1; fill:none" points="2127.29,1423.18 2127.29,1404.28 "/>
<path clip-path="url(#clip490)" d="M427.726 1481.64 L435.365 1481.64 L435.365 1455.28 L427.055 1456.95 L427.055 1452.69 L435.318 1451.02 L439.994 1451.02 L439.994 1481.64 L447.633 1481.64 L447.633 1485.58 L427.726 1485.58 L427.726 1481.64 Z" fill="#000000" fill-rule="nonzero" fill-opacity="1" /><path clip-path="url(#clip490)" d="M467.656 1466.44 Q464.508 1466.44 462.656 1468.59 Q460.828 1470.74 460.828 1474.49 Q460.828 1478.22 462.656 1480.39 Q464.508 1482.55 467.656 1482.55 Q470.804 1482.55 472.633 1480.39 Q474.485 1478.22 474.485 1474.49 Q474.485 1470.74 472.633 1468.59 Q470.804 1466.44 467.656 1466.44 M476.939 1451.78 L476.939 1456.04 Q475.179 1455.21 473.374 1454.77 Q471.591 1454.33 469.832 1454.33 Q465.202 1454.33 462.749 1457.45 Q460.318 1460.58 459.971 1466.9 Q461.337 1464.89 463.397 1463.82 Q465.457 1462.73 467.934 1462.73 Q473.142 1462.73 476.151 1465.9 Q479.184 1469.05 479.184 1474.49 Q479.184 1479.82 476.036 1483.03 Q472.888 1486.25 467.656 1486.25 Q461.661 1486.25 458.49 1481.67 Q455.318 1477.06 455.318 1468.33 Q455.318 1460.14 459.207 1455.28 Q463.096 1450.39 469.647 1450.39 Q471.406 1450.39 473.189 1450.74 Q474.994 1451.09 476.939 1451.78 Z" fill="#000000" fill-rule="nonzero" fill-opacity="1" /><path clip-path="url(#clip490)" d="M497.239 1454.1 Q493.628 1454.1 491.8 1457.66 Q489.994 1461.2 489.994 1468.33 Q489.994 1475.44 491.8 1479.01 Q493.628 1482.55 497.239 1482.55 Q500.874 1482.55 502.679 1479.01 Q504.508 1475.44 504.508 1468.33 Q504.508 1461.2 502.679 1457.66 Q500.874 1454.1 497.239 1454.1 M497.239 1450.39 Q503.049 1450.39 506.105 1455 Q509.184 1459.58 509.184 1468.33 Q509.184 1477.06 506.105 1481.67 Q503.049 1486.25 497.239 1486.25 Q491.429 1486.25 488.351 1481.67 Q485.295 1477.06 485.295 1468.33 Q485.295 1459.58 488.351 1455 Q491.429 1450.39 497.239 1450.39 Z" fill="#000000" fill-rule="nonzero" fill-opacity="1" /><path clip-path="url(#clip490)" d="M842.52 1481.64 L850.159 1481.64 L850.159 1455.28 L841.848 1456.95 L841.848 1452.69 L850.112 1451.02 L854.788 1451.02 L854.788 1481.64 L862.427 1481.64 L862.427 1485.58 L842.52 1485.58 L842.52 1481.64 Z" fill="#000000" fill-rule="nonzero" fill-opacity="1" /><path clip-path="url(#clip490)" d="M881.871 1469.17 Q878.538 1469.17 876.617 1470.95 Q874.719 1472.73 874.719 1475.86 Q874.719 1478.98 876.617 1480.77 Q878.538 1482.55 881.871 1482.55 Q885.205 1482.55 887.126 1480.77 Q889.047 1478.96 889.047 1475.86 Q889.047 1472.73 887.126 1470.95 Q885.228 1469.17 881.871 1469.17 M877.195 1467.18 Q874.186 1466.44 872.496 1464.38 Q870.83 1462.32 870.83 1459.35 Q870.83 1455.21 873.77 1452.8 Q876.732 1450.39 881.871 1450.39 Q887.033 1450.39 889.973 1452.8 Q892.913 1455.21 892.913 1459.35 Q892.913 1462.32 891.223 1464.38 Q889.557 1466.44 886.57 1467.18 Q889.95 1467.96 891.825 1470.26 Q893.723 1472.55 893.723 1475.86 Q893.723 1480.88 890.644 1483.57 Q887.589 1486.25 881.871 1486.25 Q876.154 1486.25 873.075 1483.57 Q870.02 1480.88 870.02 1475.86 Q870.02 1472.55 871.918 1470.26 Q873.816 1467.96 877.195 1467.18 M875.483 1459.79 Q875.483 1462.48 877.149 1463.98 Q878.839 1465.49 881.871 1465.49 Q884.881 1465.49 886.57 1463.98 Q888.283 1462.48 888.283 1459.79 Q888.283 1457.11 886.57 1455.6 Q884.881 1454.1 881.871 1454.1 Q878.839 1454.1 877.149 1455.6 Q875.483 1457.11 875.483 1459.79 Z" fill="#000000" fill-rule="nonzero" fill-opacity="1" /><path clip-path="url(#clip490)" d="M912.033 1454.1 Q908.422 1454.1 906.593 1457.66 Q904.788 1461.2 904.788 1468.33 Q904.788 1475.44 906.593 1479.01 Q908.422 1482.55 912.033 1482.55 Q915.667 1482.55 917.473 1479.01 Q919.302 1475.44 919.302 1468.33 Q919.302 1461.2 917.473 1457.66 Q915.667 1454.1 912.033 1454.1 M912.033 1450.39 Q917.843 1450.39 920.899 1455 Q923.978 1459.58 923.978 1468.33 Q923.978 1477.06 920.899 1481.67 Q917.843 1486.25 912.033 1486.25 Q906.223 1486.25 903.144 1481.67 Q900.089 1477.06 900.089 1468.33 Q900.089 1459.58 903.144 1455 Q906.223 1450.39 912.033 1450.39 Z" fill="#000000" fill-rule="nonzero" fill-opacity="1" /><path clip-path="url(#clip490)" d="M1261.4 1481.64 L1277.72 1481.64 L1277.72 1485.58 L1255.77 1485.58 L1255.77 1481.64 Q1258.44 1478.89 1263.02 1474.26 Q1267.63 1469.61 1268.81 1468.27 Q1271.05 1465.74 1271.93 1464.01 Q1272.83 1462.25 1272.83 1460.56 Q1272.83 1457.8 1270.89 1456.07 Q1268.97 1454.33 1265.87 1454.33 Q1263.67 1454.33 1261.21 1455.09 Q1258.78 1455.86 1256.01 1457.41 L1256.01 1452.69 Q1258.83 1451.55 1261.28 1450.97 Q1263.74 1450.39 1265.77 1450.39 Q1271.14 1450.39 1274.34 1453.08 Q1277.53 1455.77 1277.53 1460.26 Q1277.53 1462.39 1276.72 1464.31 Q1275.94 1466.2 1273.83 1468.8 Q1273.25 1469.47 1270.15 1472.69 Q1267.05 1475.88 1261.4 1481.64 Z" fill="#000000" fill-rule="nonzero" fill-opacity="1" /><path clip-path="url(#clip490)" d="M1297.53 1454.1 Q1293.92 1454.1 1292.09 1457.66 Q1290.29 1461.2 1290.29 1468.33 Q1290.29 1475.44 1292.09 1479.01 Q1293.92 1482.55 1297.53 1482.55 Q1301.17 1482.55 1302.97 1479.01 Q1304.8 1475.44 1304.8 1468.33 Q1304.8 1461.2 1302.97 1457.66 Q1301.17 1454.1 1297.53 1454.1 M1297.53 1450.39 Q1303.34 1450.39 1306.4 1455 Q1309.48 1459.58 1309.48 1468.33 Q1309.48 1477.06 1306.4 1481.67 Q1303.34 1486.25 1297.53 1486.25 Q1291.72 1486.25 1288.64 1481.67 Q1285.59 1477.06 1285.59 1468.33 Q1285.59 1459.58 1288.64 1455 Q1291.72 1450.39 1297.53 1450.39 Z" fill="#000000" fill-rule="nonzero" fill-opacity="1" /><path clip-path="url(#clip490)" d="M1327.7 1454.1 Q1324.08 1454.1 1322.26 1457.66 Q1320.45 1461.2 1320.45 1468.33 Q1320.45 1475.44 1322.26 1479.01 Q1324.08 1482.55 1327.7 1482.55 Q1331.33 1482.55 1333.13 1479.01 Q1334.96 1475.44 1334.96 1468.33 Q1334.96 1461.2 1333.13 1457.66 Q1331.33 1454.1 1327.7 1454.1 M1327.7 1450.39 Q1333.51 1450.39 1336.56 1455 Q1339.64 1459.58 1339.64 1468.33 Q1339.64 1477.06 1336.56 1481.67 Q1333.51 1486.25 1327.7 1486.25 Q1321.89 1486.25 1318.81 1481.67 Q1315.75 1477.06 1315.75 1468.33 Q1315.75 1459.58 1318.81 1455 Q1321.89 1450.39 1327.7 1450.39 Z" fill="#000000" fill-rule="nonzero" fill-opacity="1" /><path clip-path="url(#clip490)" d="M1676.19 1481.64 L1692.51 1481.64 L1692.51 1485.58 L1670.57 1485.58 L1670.57 1481.64 Q1673.23 1478.89 1677.81 1474.26 Q1682.42 1469.61 1683.6 1468.27 Q1685.85 1465.74 1686.73 1464.01 Q1687.63 1462.25 1687.63 1460.56 Q1687.63 1457.8 1685.68 1456.07 Q1683.76 1454.33 1680.66 1454.33 Q1678.46 1454.33 1676.01 1455.09 Q1673.58 1455.86 1670.8 1457.41 L1670.8 1452.69 Q1673.62 1451.55 1676.08 1450.97 Q1678.53 1450.39 1680.57 1450.39 Q1685.94 1450.39 1689.13 1453.08 Q1692.33 1455.77 1692.33 1460.26 Q1692.33 1462.39 1691.52 1464.31 Q1690.73 1466.2 1688.62 1468.8 Q1688.04 1469.47 1684.94 1472.69 Q1681.84 1475.88 1676.19 1481.64 Z" fill="#000000" fill-rule="nonzero" fill-opacity="1" /><path clip-path="url(#clip490)" d="M1706.35 1481.64 L1722.67 1481.64 L1722.67 1485.58 L1700.73 1485.58 L1700.73 1481.64 Q1703.39 1478.89 1707.98 1474.26 Q1712.58 1469.61 1713.76 1468.27 Q1716.01 1465.74 1716.89 1464.01 Q1717.79 1462.25 1717.79 1460.56 Q1717.79 1457.8 1715.85 1456.07 Q1713.92 1454.33 1710.82 1454.33 Q1708.62 1454.33 1706.17 1455.09 Q1703.74 1455.86 1700.96 1457.41 L1700.96 1452.69 Q1703.79 1451.55 1706.24 1450.97 Q1708.69 1450.39 1710.73 1450.39 Q1716.1 1450.39 1719.29 1453.08 Q1722.49 1455.77 1722.49 1460.26 Q1722.49 1462.39 1721.68 1464.31 Q1720.89 1466.2 1718.79 1468.8 Q1718.21 1469.47 1715.1 1472.69 Q1712 1475.88 1706.35 1481.64 Z" fill="#000000" fill-rule="nonzero" fill-opacity="1" /><path clip-path="url(#clip490)" d="M1742.49 1454.1 Q1738.88 1454.1 1737.05 1457.66 Q1735.24 1461.2 1735.24 1468.33 Q1735.24 1475.44 1737.05 1479.01 Q1738.88 1482.55 1742.49 1482.55 Q1746.12 1482.55 1747.93 1479.01 Q1749.76 1475.44 1749.76 1468.33 Q1749.76 1461.2 1747.93 1457.66 Q1746.12 1454.1 1742.49 1454.1 M1742.49 1450.39 Q1748.3 1450.39 1751.35 1455 Q1754.43 1459.58 1754.43 1468.33 Q1754.43 1477.06 1751.35 1481.67 Q1748.3 1486.25 1742.49 1486.25 Q1736.68 1486.25 1733.6 1481.67 Q1730.54 1477.06 1730.54 1468.33 Q1730.54 1459.58 1733.6 1455 Q1736.68 1450.39 1742.49 1450.39 Z" fill="#000000" fill-rule="nonzero" fill-opacity="1" /><path clip-path="url(#clip490)" d="M2090.99 1481.64 L2107.31 1481.64 L2107.31 1485.58 L2085.36 1485.58 L2085.36 1481.64 Q2088.02 1478.89 2092.61 1474.26 Q2097.21 1469.61 2098.39 1468.27 Q2100.64 1465.74 2101.52 1464.01 Q2102.42 1462.25 2102.42 1460.56 Q2102.42 1457.8 2100.48 1456.07 Q2098.56 1454.33 2095.45 1454.33 Q2093.26 1454.33 2090.8 1455.09 Q2088.37 1455.86 2085.59 1457.41 L2085.59 1452.69 Q2088.42 1451.55 2090.87 1450.97 Q2093.32 1450.39 2095.36 1450.39 Q2100.73 1450.39 2103.93 1453.08 Q2107.12 1455.77 2107.12 1460.26 Q2107.12 1462.39 2106.31 1464.31 Q2105.52 1466.2 2103.42 1468.8 Q2102.84 1469.47 2099.74 1472.69 Q2096.64 1475.88 2090.99 1481.64 Z" fill="#000000" fill-rule="nonzero" fill-opacity="1" /><path clip-path="url(#clip490)" d="M2129.97 1455.09 L2118.16 1473.54 L2129.97 1473.54 L2129.97 1455.09 M2128.74 1451.02 L2134.62 1451.02 L2134.62 1473.54 L2139.55 1473.54 L2139.55 1477.43 L2134.62 1477.43 L2134.62 1485.58 L2129.97 1485.58 L2129.97 1477.43 L2114.37 1477.43 L2114.37 1472.92 L2128.74 1451.02 Z" fill="#000000" fill-rule="nonzero" fill-opacity="1" /><path clip-path="url(#clip490)" d="M2157.28 1454.1 Q2153.67 1454.1 2151.84 1457.66 Q2150.04 1461.2 2150.04 1468.33 Q2150.04 1475.44 2151.84 1479.01 Q2153.67 1482.55 2157.28 1482.55 Q2160.92 1482.55 2162.72 1479.01 Q2164.55 1475.44 2164.55 1468.33 Q2164.55 1461.2 2162.72 1457.66 Q2160.92 1454.1 2157.28 1454.1 M2157.28 1450.39 Q2163.09 1450.39 2166.15 1455 Q2169.23 1459.58 2169.23 1468.33 Q2169.23 1477.06 2166.15 1481.67 Q2163.09 1486.25 2157.28 1486.25 Q2151.47 1486.25 2148.39 1481.67 Q2145.34 1477.06 2145.34 1468.33 Q2145.34 1459.58 2148.39 1455 Q2151.47 1450.39 2157.28 1450.39 Z" fill="#000000" fill-rule="nonzero" fill-opacity="1" /><path clip-path="url(#clip490)" d="M1120.23 1525.81 L1120.23 1562.76 L1128 1562.76 Q1137.83 1562.76 1142.38 1558.3 Q1146.97 1553.85 1146.97 1544.24 Q1146.97 1534.69 1142.38 1530.26 Q1137.83 1525.81 1128 1525.81 L1120.23 1525.81 M1113.8 1520.52 L1127.01 1520.52 Q1140.82 1520.52 1147.28 1526.28 Q1153.75 1532.01 1153.75 1544.24 Q1153.75 1556.52 1147.25 1562.28 Q1140.76 1568.04 1127.01 1568.04 L1113.8 1568.04 L1113.8 1520.52 Z" fill="#000000" fill-rule="nonzero" fill-opacity="1" /><path clip-path="url(#clip490)" d="M1194.23 1548.76 L1194.23 1551.62 L1167.3 1551.62 Q1167.69 1557.67 1170.93 1560.85 Q1174.21 1564 1180.04 1564 Q1183.41 1564 1186.56 1563.17 Q1189.74 1562.35 1192.86 1560.69 L1192.86 1566.23 Q1189.71 1567.57 1186.4 1568.27 Q1183.09 1568.97 1179.69 1568.97 Q1171.16 1568.97 1166.16 1564 Q1161.19 1559.04 1161.19 1550.57 Q1161.19 1541.82 1165.9 1536.69 Q1170.65 1531.54 1178.67 1531.54 Q1185.86 1531.54 1190.03 1536.18 Q1194.23 1540.8 1194.23 1548.76 M1188.38 1547.04 Q1188.31 1542.23 1185.67 1539.37 Q1183.06 1536.5 1178.73 1536.5 Q1173.83 1536.5 1170.87 1539.27 Q1167.94 1542.04 1167.5 1547.07 L1188.38 1547.04 Z" fill="#000000" fill-rule="nonzero" fill-opacity="1" /><path clip-path="url(#clip490)" d="M1231.6 1539.24 Q1233.79 1535.29 1236.85 1533.41 Q1239.91 1531.54 1244.04 1531.54 Q1249.61 1531.54 1252.64 1535.45 Q1255.66 1539.33 1255.66 1546.53 L1255.66 1568.04 L1249.77 1568.04 L1249.77 1546.72 Q1249.77 1541.59 1247.96 1539.11 Q1246.14 1536.63 1242.42 1536.63 Q1237.87 1536.63 1235.23 1539.65 Q1232.59 1542.68 1232.59 1547.9 L1232.59 1568.04 L1226.7 1568.04 L1226.7 1546.72 Q1226.7 1541.56 1224.88 1539.11 Q1223.07 1536.63 1219.28 1536.63 Q1214.79 1536.63 1212.15 1539.68 Q1209.51 1542.71 1209.51 1547.9 L1209.51 1568.04 L1203.62 1568.04 L1203.62 1532.4 L1209.51 1532.4 L1209.51 1537.93 Q1211.51 1534.66 1214.32 1533.1 Q1217.12 1531.54 1220.97 1531.54 Q1224.85 1531.54 1227.56 1533.51 Q1230.29 1535.48 1231.6 1539.24 Z" fill="#000000" fill-rule="nonzero" fill-opacity="1" /><path clip-path="url(#clip490)" d="M1283.54 1550.12 Q1276.44 1550.12 1273.71 1551.75 Q1270.97 1553.37 1270.97 1557.29 Q1270.97 1560.4 1273.01 1562.25 Q1275.08 1564.07 1278.61 1564.07 Q1283.48 1564.07 1286.41 1560.63 Q1289.37 1557.16 1289.37 1551.43 L1289.37 1550.12 L1283.54 1550.12 M1295.22 1547.71 L1295.22 1568.04 L1289.37 1568.04 L1289.37 1562.63 Q1287.36 1565.88 1284.37 1567.44 Q1281.38 1568.97 1277.05 1568.97 Q1271.58 1568.97 1268.33 1565.91 Q1265.11 1562.82 1265.11 1557.67 Q1265.11 1551.65 1269.12 1548.6 Q1273.17 1545.54 1281.16 1545.54 L1289.37 1545.54 L1289.37 1544.97 Q1289.37 1540.93 1286.69 1538.73 Q1284.05 1536.5 1279.25 1536.5 Q1276.19 1536.5 1273.29 1537.23 Q1270.4 1537.97 1267.72 1539.43 L1267.72 1534.02 Q1270.94 1532.78 1273.96 1532.17 Q1276.99 1531.54 1279.85 1531.54 Q1287.58 1531.54 1291.4 1535.55 Q1295.22 1539.56 1295.22 1547.71 Z" fill="#000000" fill-rule="nonzero" fill-opacity="1" /><path clip-path="url(#clip490)" d="M1336.92 1546.53 L1336.92 1568.04 L1331.06 1568.04 L1331.06 1546.72 Q1331.06 1541.66 1329.09 1539.14 Q1327.12 1536.63 1323.17 1536.63 Q1318.43 1536.63 1315.69 1539.65 Q1312.95 1542.68 1312.95 1547.9 L1312.95 1568.04 L1307.06 1568.04 L1307.06 1532.4 L1312.95 1532.4 L1312.95 1537.93 Q1315.05 1534.72 1317.89 1533.13 Q1320.75 1531.54 1324.47 1531.54 Q1330.62 1531.54 1333.77 1535.36 Q1336.92 1539.14 1336.92 1546.53 Z" fill="#000000" fill-rule="nonzero" fill-opacity="1" /><path clip-path="url(#clip490)" d="M1372.06 1537.81 L1372.06 1518.52 L1377.91 1518.52 L1377.91 1568.04 L1372.06 1568.04 L1372.06 1562.7 Q1370.21 1565.88 1367.38 1567.44 Q1364.58 1568.97 1360.63 1568.97 Q1354.17 1568.97 1350.1 1563.81 Q1346.05 1558.65 1346.05 1550.25 Q1346.05 1541.85 1350.1 1536.69 Q1354.17 1531.54 1360.63 1531.54 Q1364.58 1531.54 1367.38 1533.1 Q1370.21 1534.62 1372.06 1537.81 M1352.1 1550.25 Q1352.1 1556.71 1354.74 1560.4 Q1357.42 1564.07 1362.06 1564.07 Q1366.71 1564.07 1369.38 1560.4 Q1372.06 1556.71 1372.06 1550.25 Q1372.06 1543.79 1369.38 1540.13 Q1366.71 1536.44 1362.06 1536.44 Q1357.42 1536.44 1354.74 1540.13 Q1352.1 1543.79 1352.1 1550.25 Z" fill="#000000" fill-rule="nonzero" fill-opacity="1" /><polyline clip-path="url(#clip492)" style="stroke:#000000; stroke-linecap:round; stroke-linejoin:round; stroke-width:2; stroke-opacity:0.1; fill:none" points="138.959,1423.18 2352.76,1423.18 "/>
<polyline clip-path="url(#clip492)" style="stroke:#000000; stroke-linecap:round; stroke-linejoin:round; stroke-width:2; stroke-opacity:0.1; fill:none" points="138.959,1211.5 2352.76,1211.5 "/>
<polyline clip-path="url(#clip492)" style="stroke:#000000; stroke-linecap:round; stroke-linejoin:round; stroke-width:2; stroke-opacity:0.1; fill:none" points="138.959,999.815 2352.76,999.815 "/>
<polyline clip-path="url(#clip492)" style="stroke:#000000; stroke-linecap:round; stroke-linejoin:round; stroke-width:2; stroke-opacity:0.1; fill:none" points="138.959,788.133 2352.76,788.133 "/>
<polyline clip-path="url(#clip492)" style="stroke:#000000; stroke-linecap:round; stroke-linejoin:round; stroke-width:2; stroke-opacity:0.1; fill:none" points="138.959,576.45 2352.76,576.45 "/>
<polyline clip-path="url(#clip492)" style="stroke:#000000; stroke-linecap:round; stroke-linejoin:round; stroke-width:2; stroke-opacity:0.1; fill:none" points="138.959,364.768 2352.76,364.768 "/>
<polyline clip-path="url(#clip492)" style="stroke:#000000; stroke-linecap:round; stroke-linejoin:round; stroke-width:2; stroke-opacity:0.1; fill:none" points="138.959,153.085 2352.76,153.085 "/>
<polyline clip-path="url(#clip490)" style="stroke:#000000; stroke-linecap:round; stroke-linejoin:round; stroke-width:4; stroke-opacity:1; fill:none" points="138.959,1423.18 138.959,47.2441 "/>
<polyline clip-path="url(#clip490)" style="stroke:#000000; stroke-linecap:round; stroke-linejoin:round; stroke-width:4; stroke-opacity:1; fill:none" points="138.959,1423.18 157.857,1423.18 "/>
<polyline clip-path="url(#clip490)" style="stroke:#000000; stroke-linecap:round; stroke-linejoin:round; stroke-width:4; stroke-opacity:1; fill:none" points="138.959,1211.5 157.857,1211.5 "/>
<polyline clip-path="url(#clip490)" style="stroke:#000000; stroke-linecap:round; stroke-linejoin:round; stroke-width:4; stroke-opacity:1; fill:none" points="138.959,999.815 157.857,999.815 "/>
<polyline clip-path="url(#clip490)" style="stroke:#000000; stroke-linecap:round; stroke-linejoin:round; stroke-width:4; stroke-opacity:1; fill:none" points="138.959,788.133 157.857,788.133 "/>
<polyline clip-path="url(#clip490)" style="stroke:#000000; stroke-linecap:round; stroke-linejoin:round; stroke-width:4; stroke-opacity:1; fill:none" points="138.959,576.45 157.857,576.45 "/>
<polyline clip-path="url(#clip490)" style="stroke:#000000; stroke-linecap:round; stroke-linejoin:round; stroke-width:4; stroke-opacity:1; fill:none" points="138.959,364.768 157.857,364.768 "/>
<polyline clip-path="url(#clip490)" style="stroke:#000000; stroke-linecap:round; stroke-linejoin:round; stroke-width:4; stroke-opacity:1; fill:none" points="138.959,153.085 157.857,153.085 "/>
<path clip-path="url(#clip490)" d="M91.0151 1408.98 Q87.404 1408.98 85.5753 1412.54 Q83.7697 1416.08 83.7697 1423.21 Q83.7697 1430.32 85.5753 1433.89 Q87.404 1437.43 91.0151 1437.43 Q94.6493 1437.43 96.4548 1433.89 Q98.2835 1430.32 98.2835 1423.21 Q98.2835 1416.08 96.4548 1412.54 Q94.6493 1408.98 91.0151 1408.98 M91.0151 1405.27 Q96.8252 1405.27 99.8808 1409.88 Q102.959 1414.46 102.959 1423.21 Q102.959 1431.94 99.8808 1436.55 Q96.8252 1441.13 91.0151 1441.13 Q85.2049 1441.13 82.1262 1436.55 Q79.0707 1431.94 79.0707 1423.21 Q79.0707 1414.46 82.1262 1409.88 Q85.2049 1405.27 91.0151 1405.27 Z" fill="#000000" fill-rule="nonzero" fill-opacity="1" /><path clip-path="url(#clip490)" d="M86.6401 1224.84 L102.959 1224.84 L102.959 1228.78 L81.0151 1228.78 L81.0151 1224.84 Q83.6771 1222.09 88.2604 1217.46 Q92.8669 1212.81 94.0475 1211.46 Q96.2928 1208.94 97.1724 1207.2 Q98.0752 1205.44 98.0752 1203.75 Q98.0752 1201 96.1308 1199.26 Q94.2095 1197.53 91.1077 1197.53 Q88.9086 1197.53 86.4549 1198.29 Q84.0244 1199.06 81.2466 1200.61 L81.2466 1195.88 Q84.0707 1194.75 86.5243 1194.17 Q88.978 1193.59 91.0151 1193.59 Q96.3854 1193.59 99.5798 1196.28 Q102.774 1198.96 102.774 1203.45 Q102.774 1205.58 101.964 1207.5 Q101.177 1209.4 99.0706 1212 Q98.4919 1212.67 95.39 1215.88 Q92.2882 1219.08 86.6401 1224.84 Z" fill="#000000" fill-rule="nonzero" fill-opacity="1" /><path clip-path="url(#clip490)" d="M93.3762 986.609 L81.5707 1005.06 L93.3762 1005.06 L93.3762 986.609 M92.1493 982.535 L98.0289 982.535 L98.0289 1005.06 L102.959 1005.06 L102.959 1008.95 L98.0289 1008.95 L98.0289 1017.09 L93.3762 1017.09 L93.3762 1008.95 L77.7744 1008.95 L77.7744 1004.43 L92.1493 982.535 Z" fill="#000000" fill-rule="nonzero" fill-opacity="1" /><path clip-path="url(#clip490)" d="M91.4317 786.269 Q88.2836 786.269 86.4318 788.422 Q84.6031 790.575 84.6031 794.325 Q84.6031 798.052 86.4318 800.227 Q88.2836 802.38 91.4317 802.38 Q94.5799 802.38 96.4085 800.227 Q98.2604 798.052 98.2604 794.325 Q98.2604 790.575 96.4085 788.422 Q94.5799 786.269 91.4317 786.269 M100.714 771.616 L100.714 775.876 Q98.9548 775.042 97.1493 774.603 Q95.3669 774.163 93.6076 774.163 Q88.978 774.163 86.5243 777.288 Q84.0938 780.413 83.7466 786.732 Q85.1123 784.718 87.1725 783.653 Q89.2327 782.565 91.7095 782.565 Q96.9178 782.565 99.927 785.737 Q102.959 788.885 102.959 794.325 Q102.959 799.649 99.8113 802.866 Q96.6632 806.084 91.4317 806.084 Q85.4364 806.084 82.2651 801.501 Q79.0938 796.894 79.0938 788.167 Q79.0938 779.973 82.9827 775.112 Q86.8716 770.228 93.4225 770.228 Q95.1817 770.228 96.9641 770.575 Q98.7696 770.922 100.714 771.616 Z" fill="#000000" fill-rule="nonzero" fill-opacity="1" /><path clip-path="url(#clip490)" d="M91.1077 577.318 Q87.7743 577.318 85.8531 579.101 Q83.9549 580.883 83.9549 584.008 Q83.9549 587.133 85.8531 588.915 Q87.7743 590.698 91.1077 590.698 Q94.441 590.698 96.3623 588.915 Q98.2835 587.11 98.2835 584.008 Q98.2835 580.883 96.3623 579.101 Q94.4641 577.318 91.1077 577.318 M86.4318 575.327 Q83.4225 574.587 81.7327 572.527 Q80.066 570.466 80.066 567.503 Q80.066 563.36 83.0058 560.953 Q85.9688 558.545 91.1077 558.545 Q96.2697 558.545 99.2095 560.953 Q102.149 563.36 102.149 567.503 Q102.149 570.466 100.459 572.527 Q98.7928 574.587 95.8067 575.327 Q99.1863 576.115 101.061 578.406 Q102.959 580.698 102.959 584.008 Q102.959 589.031 99.8808 591.716 Q96.8252 594.401 91.1077 594.401 Q85.3901 594.401 82.3114 591.716 Q79.2559 589.031 79.2559 584.008 Q79.2559 580.698 81.154 578.406 Q83.0521 576.115 86.4318 575.327 M84.7188 567.943 Q84.7188 570.628 86.3855 572.133 Q88.0753 573.638 91.1077 573.638 Q94.1169 573.638 95.8067 572.133 Q97.5197 570.628 97.5197 567.943 Q97.5197 565.258 95.8067 563.753 Q94.1169 562.249 91.1077 562.249 Q88.0753 562.249 86.3855 563.753 Q84.7188 565.258 84.7188 567.943 Z" fill="#000000" fill-rule="nonzero" fill-opacity="1" /><path clip-path="url(#clip490)" d="M51.6634 378.113 L59.3023 378.113 L59.3023 351.747 L50.9921 353.414 L50.9921 349.154 L59.256 347.488 L63.9319 347.488 L63.9319 378.113 L71.5707 378.113 L71.5707 382.048 L51.6634 382.048 L51.6634 378.113 Z" fill="#000000" fill-rule="nonzero" fill-opacity="1" /><path clip-path="url(#clip490)" d="M91.0151 350.566 Q87.404 350.566 85.5753 354.131 Q83.7697 357.673 83.7697 364.802 Q83.7697 371.909 85.5753 375.474 Q87.404 379.015 91.0151 379.015 Q94.6493 379.015 96.4548 375.474 Q98.2835 371.909 98.2835 364.802 Q98.2835 357.673 96.4548 354.131 Q94.6493 350.566 91.0151 350.566 M91.0151 346.863 Q96.8252 346.863 99.8808 351.469 Q102.959 356.052 102.959 364.802 Q102.959 373.529 99.8808 378.136 Q96.8252 382.719 91.0151 382.719 Q85.2049 382.719 82.1262 378.136 Q79.0707 373.529 79.0707 364.802 Q79.0707 356.052 82.1262 351.469 Q85.2049 346.863 91.0151 346.863 Z" fill="#000000" fill-rule="nonzero" fill-opacity="1" /><path clip-path="url(#clip490)" d="M53.2606 166.43 L60.8995 166.43 L60.8995 140.065 L52.5893 141.731 L52.5893 137.472 L60.8532 135.805 L65.5291 135.805 L65.5291 166.43 L73.1679 166.43 L73.1679 170.365 L53.2606 170.365 L53.2606 166.43 Z" fill="#000000" fill-rule="nonzero" fill-opacity="1" /><path clip-path="url(#clip490)" d="M86.6401 166.43 L102.959 166.43 L102.959 170.365 L81.0151 170.365 L81.0151 166.43 Q83.6771 163.676 88.2604 159.046 Q92.8669 154.393 94.0475 153.051 Q96.2928 150.527 97.1724 148.791 Q98.0752 147.032 98.0752 145.342 Q98.0752 142.588 96.1308 140.852 Q94.2095 139.115 91.1077 139.115 Q88.9086 139.115 86.4549 139.879 Q84.0244 140.643 81.2466 142.194 L81.2466 137.472 Q84.0707 136.338 86.5243 135.759 Q88.978 135.18 91.0151 135.18 Q96.3854 135.18 99.5798 137.865 Q102.774 140.551 102.774 145.041 Q102.774 147.171 101.964 149.092 Q101.177 150.99 99.0706 153.583 Q98.4919 154.254 95.39 157.472 Q92.2882 160.666 86.6401 166.43 Z" fill="#000000" fill-rule="nonzero" fill-opacity="1" /><path clip-path="url(#clip492)" d="M260.722 1211.5 L260.722 1423.18 L364.421 1423.18 L364.421 1211.5 L260.722 1211.5 L260.722 1211.5  Z" fill="#009af9" fill-rule="evenodd" fill-opacity="1"/>
<polyline clip-path="url(#clip492)" style="stroke:#000000; stroke-linecap:round; stroke-linejoin:round; stroke-width:4; stroke-opacity:1; fill:none" points="260.722,1211.5 260.722,1423.18 364.421,1423.18 364.421,1211.5 260.722,1211.5 "/>
<path clip-path="url(#clip492)" d="M364.421 1211.5 L364.421 1423.18 L468.119 1423.18 L468.119 1211.5 L364.421 1211.5 L364.421 1211.5  Z" fill="#009af9" fill-rule="evenodd" fill-opacity="1"/>
<polyline clip-path="url(#clip492)" style="stroke:#000000; stroke-linecap:round; stroke-linejoin:round; stroke-width:4; stroke-opacity:1; fill:none" points="364.421,1211.5 364.421,1423.18 468.119,1423.18 468.119,1211.5 364.421,1211.5 "/>
<path clip-path="url(#clip492)" d="M468.119 1105.66 L468.119 1423.18 L571.818 1423.18 L571.818 1105.66 L468.119 1105.66 L468.119 1105.66  Z" fill="#009af9" fill-rule="evenodd" fill-opacity="1"/>
<polyline clip-path="url(#clip492)" style="stroke:#000000; stroke-linecap:round; stroke-linejoin:round; stroke-width:4; stroke-opacity:1; fill:none" points="468.119,1105.66 468.119,1423.18 571.818,1423.18 571.818,1105.66 468.119,1105.66 "/>
<path clip-path="url(#clip492)" d="M571.818 893.974 L571.818 1423.18 L675.516 1423.18 L675.516 893.974 L571.818 893.974 L571.818 893.974  Z" fill="#009af9" fill-rule="evenodd" fill-opacity="1"/>
<polyline clip-path="url(#clip492)" style="stroke:#000000; stroke-linecap:round; stroke-linejoin:round; stroke-width:4; stroke-opacity:1; fill:none" points="571.818,893.974 571.818,1423.18 675.516,1423.18 675.516,893.974 571.818,893.974 "/>
<path clip-path="url(#clip492)" d="M675.516 999.815 L675.516 1423.18 L779.215 1423.18 L779.215 999.815 L675.516 999.815 L675.516 999.815  Z" fill="#009af9" fill-rule="evenodd" fill-opacity="1"/>
<polyline clip-path="url(#clip492)" style="stroke:#000000; stroke-linecap:round; stroke-linejoin:round; stroke-width:4; stroke-opacity:1; fill:none" points="675.516,999.815 675.516,1423.18 779.215,1423.18 779.215,999.815 675.516,999.815 "/>
<path clip-path="url(#clip492)" d="M779.215 576.45 L779.215 1423.18 L882.913 1423.18 L882.913 576.45 L779.215 576.45 L779.215 576.45  Z" fill="#009af9" fill-rule="evenodd" fill-opacity="1"/>
<polyline clip-path="url(#clip492)" style="stroke:#000000; stroke-linecap:round; stroke-linejoin:round; stroke-width:4; stroke-opacity:1; fill:none" points="779.215,576.45 779.215,1423.18 882.913,1423.18 882.913,576.45 779.215,576.45 "/>
<path clip-path="url(#clip492)" d="M882.913 470.609 L882.913 1423.18 L986.611 1423.18 L986.611 470.609 L882.913 470.609 L882.913 470.609  Z" fill="#009af9" fill-rule="evenodd" fill-opacity="1"/>
<polyline clip-path="url(#clip492)" style="stroke:#000000; stroke-linecap:round; stroke-linejoin:round; stroke-width:4; stroke-opacity:1; fill:none" points="882.913,470.609 882.913,1423.18 986.611,1423.18 986.611,470.609 882.913,470.609 "/>
<path clip-path="url(#clip492)" d="M986.611 1211.5 L986.611 1423.18 L1090.31 1423.18 L1090.31 1211.5 L986.611 1211.5 L986.611 1211.5  Z" fill="#009af9" fill-rule="evenodd" fill-opacity="1"/>
<polyline clip-path="url(#clip492)" style="stroke:#000000; stroke-linecap:round; stroke-linejoin:round; stroke-width:4; stroke-opacity:1; fill:none" points="986.611,1211.5 986.611,1423.18 1090.31,1423.18 1090.31,1211.5 986.611,1211.5 "/>
<path clip-path="url(#clip492)" d="M1090.31 364.768 L1090.31 1423.18 L1194.01 1423.18 L1194.01 364.768 L1090.31 364.768 L1090.31 364.768  Z" fill="#009af9" fill-rule="evenodd" fill-opacity="1"/>
<polyline clip-path="url(#clip492)" style="stroke:#000000; stroke-linecap:round; stroke-linejoin:round; stroke-width:4; stroke-opacity:1; fill:none" points="1090.31,364.768 1090.31,1423.18 1194.01,1423.18 1194.01,364.768 1090.31,364.768 "/>
<path clip-path="url(#clip492)" d="M1194.01 364.768 L1194.01 1423.18 L1297.71 1423.18 L1297.71 364.768 L1194.01 364.768 L1194.01 364.768  Z" fill="#009af9" fill-rule="evenodd" fill-opacity="1"/>
<polyline clip-path="url(#clip492)" style="stroke:#000000; stroke-linecap:round; stroke-linejoin:round; stroke-width:4; stroke-opacity:1; fill:none" points="1194.01,364.768 1194.01,1423.18 1297.71,1423.18 1297.71,364.768 1194.01,364.768 "/>
<path clip-path="url(#clip492)" d="M1297.71 576.45 L1297.71 1423.18 L1401.41 1423.18 L1401.41 576.45 L1297.71 576.45 L1297.71 576.45  Z" fill="#009af9" fill-rule="evenodd" fill-opacity="1"/>
<polyline clip-path="url(#clip492)" style="stroke:#000000; stroke-linecap:round; stroke-linejoin:round; stroke-width:4; stroke-opacity:1; fill:none" points="1297.71,576.45 1297.71,1423.18 1401.41,1423.18 1401.41,576.45 1297.71,576.45 "/>
<path clip-path="url(#clip492)" d="M1401.41 47.2441 L1401.41 1423.18 L1505.1 1423.18 L1505.1 47.2441 L1401.41 47.2441 L1401.41 47.2441  Z" fill="#009af9" fill-rule="evenodd" fill-opacity="1"/>
<polyline clip-path="url(#clip492)" style="stroke:#000000; stroke-linecap:round; stroke-linejoin:round; stroke-width:4; stroke-opacity:1; fill:none" points="1401.41,47.2441 1401.41,1423.18 1505.1,1423.18 1505.1,47.2441 1401.41,47.2441 "/>
<path clip-path="url(#clip492)" d="M1505.1 999.815 L1505.1 1423.18 L1608.8 1423.18 L1608.8 999.815 L1505.1 999.815 L1505.1 999.815  Z" fill="#009af9" fill-rule="evenodd" fill-opacity="1"/>
<polyline clip-path="url(#clip492)" style="stroke:#000000; stroke-linecap:round; stroke-linejoin:round; stroke-width:4; stroke-opacity:1; fill:none" points="1505.1,999.815 1505.1,1423.18 1608.8,1423.18 1608.8,999.815 1505.1,999.815 "/>
<path clip-path="url(#clip492)" d="M1608.8 1105.66 L1608.8 1423.18 L1712.5 1423.18 L1712.5 1105.66 L1608.8 1105.66 L1608.8 1105.66  Z" fill="#009af9" fill-rule="evenodd" fill-opacity="1"/>
<polyline clip-path="url(#clip492)" style="stroke:#000000; stroke-linecap:round; stroke-linejoin:round; stroke-width:4; stroke-opacity:1; fill:none" points="1608.8,1105.66 1608.8,1423.18 1712.5,1423.18 1712.5,1105.66 1608.8,1105.66 "/>
<path clip-path="url(#clip492)" d="M1712.5 576.45 L1712.5 1423.18 L1816.2 1423.18 L1816.2 576.45 L1712.5 576.45 L1712.5 576.45  Z" fill="#009af9" fill-rule="evenodd" fill-opacity="1"/>
<polyline clip-path="url(#clip492)" style="stroke:#000000; stroke-linecap:round; stroke-linejoin:round; stroke-width:4; stroke-opacity:1; fill:none" points="1712.5,576.45 1712.5,1423.18 1816.2,1423.18 1816.2,576.45 1712.5,576.45 "/>
<path clip-path="url(#clip492)" d="M1816.2 1211.5 L1816.2 1423.18 L1919.9 1423.18 L1919.9 1211.5 L1816.2 1211.5 L1816.2 1211.5  Z" fill="#009af9" fill-rule="evenodd" fill-opacity="1"/>
<polyline clip-path="url(#clip492)" style="stroke:#000000; stroke-linecap:round; stroke-linejoin:round; stroke-width:4; stroke-opacity:1; fill:none" points="1816.2,1211.5 1816.2,1423.18 1919.9,1423.18 1919.9,1211.5 1816.2,1211.5 "/>
<path clip-path="url(#clip492)" d="M1919.9 999.815 L1919.9 1423.18 L2023.6 1423.18 L2023.6 999.815 L1919.9 999.815 L1919.9 999.815  Z" fill="#009af9" fill-rule="evenodd" fill-opacity="1"/>
<polyline clip-path="url(#clip492)" style="stroke:#000000; stroke-linecap:round; stroke-linejoin:round; stroke-width:4; stroke-opacity:1; fill:none" points="1919.9,999.815 1919.9,1423.18 2023.6,1423.18 2023.6,999.815 1919.9,999.815 "/>
<path clip-path="url(#clip492)" d="M2023.6 1317.34 L2023.6 1423.18 L2127.29 1423.18 L2127.29 1317.34 L2023.6 1317.34 L2023.6 1317.34  Z" fill="#009af9" fill-rule="evenodd" fill-opacity="1"/>
<polyline clip-path="url(#clip492)" style="stroke:#000000; stroke-linecap:round; stroke-linejoin:round; stroke-width:4; stroke-opacity:1; fill:none" points="2023.6,1317.34 2023.6,1423.18 2127.29,1423.18 2127.29,1317.34 2023.6,1317.34 "/>
<path clip-path="url(#clip492)" d="M2127.29 1211.5 L2127.29 1423.18 L2230.99 1423.18 L2230.99 1211.5 L2127.29 1211.5 L2127.29 1211.5  Z" fill="#009af9" fill-rule="evenodd" fill-opacity="1"/>
<polyline clip-path="url(#clip492)" style="stroke:#000000; stroke-linecap:round; stroke-linejoin:round; stroke-width:4; stroke-opacity:1; fill:none" points="2127.29,1211.5 2127.29,1423.18 2230.99,1423.18 2230.99,1211.5 2127.29,1211.5 "/>
<circle clip-path="url(#clip492)" style="fill:#009af9; stroke:none; fill-opacity:0" cx="312.571" cy="1211.5" r="2"/>
<circle clip-path="url(#clip492)" style="fill:#009af9; stroke:none; fill-opacity:0" cx="416.27" cy="1211.5" r="2"/>
<circle clip-path="url(#clip492)" style="fill:#009af9; stroke:none; fill-opacity:0" cx="519.968" cy="1105.66" r="2"/>
<circle clip-path="url(#clip492)" style="fill:#009af9; stroke:none; fill-opacity:0" cx="623.667" cy="893.974" r="2"/>
<circle clip-path="url(#clip492)" style="fill:#009af9; stroke:none; fill-opacity:0" cx="727.365" cy="999.815" r="2"/>
<circle clip-path="url(#clip492)" style="fill:#009af9; stroke:none; fill-opacity:0" cx="831.064" cy="576.45" r="2"/>
<circle clip-path="url(#clip492)" style="fill:#009af9; stroke:none; fill-opacity:0" cx="934.762" cy="470.609" r="2"/>
<circle clip-path="url(#clip492)" style="fill:#009af9; stroke:none; fill-opacity:0" cx="1038.46" cy="1211.5" r="2"/>
<circle clip-path="url(#clip492)" style="fill:#009af9; stroke:none; fill-opacity:0" cx="1142.16" cy="364.768" r="2"/>
<circle clip-path="url(#clip492)" style="fill:#009af9; stroke:none; fill-opacity:0" cx="1245.86" cy="364.768" r="2"/>
<circle clip-path="url(#clip492)" style="fill:#009af9; stroke:none; fill-opacity:0" cx="1349.56" cy="576.45" r="2"/>
<circle clip-path="url(#clip492)" style="fill:#009af9; stroke:none; fill-opacity:0" cx="1453.25" cy="47.2441" r="2"/>
<circle clip-path="url(#clip492)" style="fill:#009af9; stroke:none; fill-opacity:0" cx="1556.95" cy="999.815" r="2"/>
<circle clip-path="url(#clip492)" style="fill:#009af9; stroke:none; fill-opacity:0" cx="1660.65" cy="1105.66" r="2"/>
<circle clip-path="url(#clip492)" style="fill:#009af9; stroke:none; fill-opacity:0" cx="1764.35" cy="576.45" r="2"/>
<circle clip-path="url(#clip492)" style="fill:#009af9; stroke:none; fill-opacity:0" cx="1868.05" cy="1211.5" r="2"/>
<circle clip-path="url(#clip492)" style="fill:#009af9; stroke:none; fill-opacity:0" cx="1971.75" cy="999.815" r="2"/>
<circle clip-path="url(#clip492)" style="fill:#009af9; stroke:none; fill-opacity:0" cx="2075.45" cy="1317.34" r="2"/>
<circle clip-path="url(#clip492)" style="fill:#009af9; stroke:none; fill-opacity:0" cx="2179.14" cy="1211.5" r="2"/>
</svg>
