<?xml version="1.0" encoding="utf-8"?>
<svg xmlns="http://www.w3.org/2000/svg" xmlns:xlink="http://www.w3.org/1999/xlink" width="600" height="400" viewBox="0 0 2400 1600">
<defs>
  <clipPath id="clip130">
    <rect x="0" y="0" width="2400" height="1600"/>
  </clipPath>
</defs>
<path clip-path="url(#clip130)" d="M0 1600 L2400 1600 L2400 0 L0 0  Z" fill="#ffffff" fill-rule="evenodd" fill-opacity="1"/>
<defs>
  <clipPath id="clip131">
    <rect x="480" y="0" width="1681" height="1600"/>
  </clipPath>
</defs>
<path clip-path="url(#clip130)" d="M139.446 1423.18 L2352.76 1423.18 L2352.76 47.2441 L139.446 47.2441  Z" fill="#ffffff" fill-rule="evenodd" fill-opacity="1"/>
<defs>
  <clipPath id="clip132">
    <rect x="139" y="47" width="2214" height="1377"/>
  </clipPath>
</defs>
<polyline clip-path="url(#clip132)" style="stroke:#000000; stroke-linecap:round; stroke-linejoin:round; stroke-width:2; stroke-opacity:0.1; fill:none" points="468.533,1423.18 468.533,47.2441 "/>
<polyline clip-path="url(#clip132)" style="stroke:#000000; stroke-linecap:round; stroke-linejoin:round; stroke-width:2; stroke-opacity:0.1; fill:none" points="883.236,1423.18 883.236,47.2441 "/>
<polyline clip-path="url(#clip132)" style="stroke:#000000; stroke-linecap:round; stroke-linejoin:round; stroke-width:2; stroke-opacity:0.1; fill:none" points="1297.94,1423.18 1297.94,47.2441 "/>
<polyline clip-path="url(#clip132)" style="stroke:#000000; stroke-linecap:round; stroke-linejoin:round; stroke-width:2; stroke-opacity:0.1; fill:none" points="1712.64,1423.18 1712.64,47.2441 "/>
<polyline clip-path="url(#clip132)" style="stroke:#000000; stroke-linecap:round; stroke-linejoin:round; stroke-width:2; stroke-opacity:0.1; fill:none" points="2127.34,1423.18 2127.34,47.2441 "/>
<polyline clip-path="url(#clip132)" style="stroke:#000000; stroke-linecap:round; stroke-linejoin:round; stroke-width:2; stroke-opacity:0.1; fill:none" points="139.446,1423.18 2352.76,1423.18 "/>
<polyline clip-path="url(#clip132)" style="stroke:#000000; stroke-linecap:round; stroke-linejoin:round; stroke-width:2; stroke-opacity:0.1; fill:none" points="139.446,1226.62 2352.76,1226.62 "/>
<polyline clip-path="url(#clip132)" style="stroke:#000000; stroke-linecap:round; stroke-linejoin:round; stroke-width:2; stroke-opacity:0.1; fill:none" points="139.446,1030.06 2352.76,1030.06 "/>
<polyline clip-path="url(#clip132)" style="stroke:#000000; stroke-linecap:round; stroke-linejoin:round; stroke-width:2; stroke-opacity:0.1; fill:none" points="139.446,833.493 2352.76,833.493 "/>
<polyline clip-path="url(#clip132)" style="stroke:#000000; stroke-linecap:round; stroke-linejoin:round; stroke-width:2; stroke-opacity:0.1; fill:none" points="139.446,636.931 2352.76,636.931 "/>
<polyline clip-path="url(#clip132)" style="stroke:#000000; stroke-linecap:round; stroke-linejoin:round; stroke-width:2; stroke-opacity:0.1; fill:none" points="139.446,440.369 2352.76,440.369 "/>
<polyline clip-path="url(#clip132)" style="stroke:#000000; stroke-linecap:round; stroke-linejoin:round; stroke-width:2; stroke-opacity:0.1; fill:none" points="139.446,243.806 2352.76,243.806 "/>
<polyline clip-path="url(#clip132)" style="stroke:#000000; stroke-linecap:round; stroke-linejoin:round; stroke-width:2; stroke-opacity:0.1; fill:none" points="139.446,47.2441 2352.76,47.2441 "/>
<polyline clip-path="url(#clip130)" style="stroke:#000000; stroke-linecap:round; stroke-linejoin:round; stroke-width:4; stroke-opacity:1; fill:none" points="139.446,1423.18 2352.76,1423.18 "/>
<polyline clip-path="url(#clip130)" style="stroke:#000000; stroke-linecap:round; stroke-linejoin:round; stroke-width:4; stroke-opacity:1; fill:none" points="468.533,1423.18 468.533,1404.28 "/>
<polyline clip-path="url(#clip130)" style="stroke:#000000; stroke-linecap:round; stroke-linejoin:round; stroke-width:4; stroke-opacity:1; fill:none" points="883.236,1423.18 883.236,1404.28 "/>
<polyline clip-path="url(#clip130)" style="stroke:#000000; stroke-linecap:round; stroke-linejoin:round; stroke-width:4; stroke-opacity:1; fill:none" points="1297.94,1423.18 1297.94,1404.28 "/>
<polyline clip-path="url(#clip130)" style="stroke:#000000; stroke-linecap:round; stroke-linejoin:round; stroke-width:4; stroke-opacity:1; fill:none" points="1712.64,1423.18 1712.64,1404.28 "/>
<polyline clip-path="url(#clip130)" style="stroke:#000000; stroke-linecap:round; stroke-linejoin:round; stroke-width:4; stroke-opacity:1; fill:none" points="2127.34,1423.18 2127.34,1404.28 "/>
<path clip-path="url(#clip130)" d="M428.14 1481.64 L435.779 1481.64 L435.779 1455.28 L427.468 1456.95 L427.468 1452.69 L435.732 1451.02 L440.408 1451.02 L440.408 1481.64 L448.047 1481.64 L448.047 1485.58 L428.14 1485.58 L428.14 1481.64 Z" fill="#000000" fill-rule="nonzero" fill-opacity="1" /><path clip-path="url(#clip130)" d="M468.07 1466.44 Q464.922 1466.44 463.07 1468.59 Q461.241 1470.74 461.241 1474.49 Q461.241 1478.22 463.07 1480.39 Q464.922 1482.55 468.07 1482.55 Q471.218 1482.55 473.047 1480.39 Q474.899 1478.22 474.899 1474.49 Q474.899 1470.74 473.047 1468.59 Q471.218 1466.44 468.07 1466.44 M477.352 1451.78 L477.352 1456.04 Q475.593 1455.21 473.788 1454.77 Q472.005 1454.33 470.246 1454.33 Q465.616 1454.33 463.163 1457.45 Q460.732 1460.58 460.385 1466.9 Q461.751 1464.89 463.811 1463.82 Q465.871 1462.73 468.348 1462.73 Q473.556 1462.73 476.565 1465.9 Q479.598 1469.05 479.598 1474.49 Q479.598 1479.82 476.45 1483.03 Q473.301 1486.25 468.07 1486.25 Q462.075 1486.25 458.903 1481.67 Q455.732 1477.06 455.732 1468.33 Q455.732 1460.14 459.621 1455.28 Q463.51 1450.39 470.061 1450.39 Q471.82 1450.39 473.602 1450.74 Q475.408 1451.09 477.352 1451.78 Z" fill="#000000" fill-rule="nonzero" fill-opacity="1" /><path clip-path="url(#clip130)" d="M497.653 1454.1 Q494.042 1454.1 492.213 1457.66 Q490.408 1461.2 490.408 1468.33 Q490.408 1475.44 492.213 1479.01 Q494.042 1482.55 497.653 1482.55 Q501.287 1482.55 503.093 1479.01 Q504.922 1475.44 504.922 1468.33 Q504.922 1461.2 503.093 1457.66 Q501.287 1454.1 497.653 1454.1 M497.653 1450.39 Q503.463 1450.39 506.519 1455 Q509.598 1459.58 509.598 1468.33 Q509.598 1477.06 506.519 1481.67 Q503.463 1486.25 497.653 1486.25 Q491.843 1486.25 488.764 1481.67 Q485.709 1477.06 485.709 1468.33 Q485.709 1459.58 488.764 1455 Q491.843 1450.39 497.653 1450.39 Z" fill="#000000" fill-rule="nonzero" fill-opacity="1" /><path clip-path="url(#clip130)" d="M842.842 1481.64 L850.481 1481.64 L850.481 1455.28 L842.171 1456.95 L842.171 1452.69 L850.435 1451.02 L855.111 1451.02 L855.111 1481.64 L862.75 1481.64 L862.75 1485.58 L842.842 1485.58 L842.842 1481.64 Z" fill="#000000" fill-rule="nonzero" fill-opacity="1" /><path clip-path="url(#clip130)" d="M882.194 1469.17 Q878.861 1469.17 876.94 1470.95 Q875.041 1472.73 875.041 1475.86 Q875.041 1478.98 876.94 1480.77 Q878.861 1482.55 882.194 1482.55 Q885.527 1482.55 887.449 1480.77 Q889.37 1478.96 889.37 1475.86 Q889.37 1472.73 887.449 1470.95 Q885.551 1469.17 882.194 1469.17 M877.518 1467.18 Q874.509 1466.44 872.819 1464.38 Q871.153 1462.32 871.153 1459.35 Q871.153 1455.21 874.092 1452.8 Q877.055 1450.39 882.194 1450.39 Q887.356 1450.39 890.296 1452.8 Q893.236 1455.21 893.236 1459.35 Q893.236 1462.32 891.546 1464.38 Q889.879 1466.44 886.893 1467.18 Q890.273 1467.96 892.148 1470.26 Q894.046 1472.55 894.046 1475.86 Q894.046 1480.88 890.967 1483.57 Q887.912 1486.25 882.194 1486.25 Q876.477 1486.25 873.398 1483.57 Q870.342 1480.88 870.342 1475.86 Q870.342 1472.55 872.24 1470.26 Q874.139 1467.96 877.518 1467.18 M875.805 1459.79 Q875.805 1462.48 877.472 1463.98 Q879.162 1465.49 882.194 1465.49 Q885.203 1465.49 886.893 1463.98 Q888.606 1462.48 888.606 1459.79 Q888.606 1457.11 886.893 1455.6 Q885.203 1454.1 882.194 1454.1 Q879.162 1454.1 877.472 1455.6 Q875.805 1457.11 875.805 1459.79 Z" fill="#000000" fill-rule="nonzero" fill-opacity="1" /><path clip-path="url(#clip130)" d="M912.356 1454.1 Q908.745 1454.1 906.916 1457.66 Q905.111 1461.2 905.111 1468.33 Q905.111 1475.44 906.916 1479.01 Q908.745 1482.55 912.356 1482.55 Q915.99 1482.55 917.796 1479.01 Q919.624 1475.44 919.624 1468.33 Q919.624 1461.2 917.796 1457.66 Q915.99 1454.1 912.356 1454.1 M912.356 1450.39 Q918.166 1450.39 921.222 1455 Q924.3 1459.58 924.3 1468.33 Q924.3 1477.06 921.222 1481.67 Q918.166 1486.25 912.356 1486.25 Q906.546 1486.25 903.467 1481.67 Q900.412 1477.06 900.412 1468.33 Q900.412 1459.58 903.467 1455 Q906.546 1450.39 912.356 1450.39 Z" fill="#000000" fill-rule="nonzero" fill-opacity="1" /><path clip-path="url(#clip130)" d="M1261.63 1481.64 L1277.95 1481.64 L1277.95 1485.58 L1256.01 1485.58 L1256.01 1481.64 Q1258.67 1478.89 1263.25 1474.26 Q1267.86 1469.61 1269.04 1468.27 Q1271.28 1465.74 1272.16 1464.01 Q1273.07 1462.25 1273.07 1460.56 Q1273.07 1457.8 1271.12 1456.07 Q1269.2 1454.33 1266.1 1454.33 Q1263.9 1454.33 1261.45 1455.09 Q1259.02 1455.86 1256.24 1457.41 L1256.24 1452.69 Q1259.06 1451.55 1261.52 1450.97 Q1263.97 1450.39 1266.01 1450.39 Q1271.38 1450.39 1274.57 1453.08 Q1277.77 1455.77 1277.77 1460.26 Q1277.77 1462.39 1276.95 1464.31 Q1276.17 1466.2 1274.06 1468.8 Q1273.48 1469.47 1270.38 1472.69 Q1267.28 1475.88 1261.63 1481.64 Z" fill="#000000" fill-rule="nonzero" fill-opacity="1" /><path clip-path="url(#clip130)" d="M1297.76 1454.1 Q1294.15 1454.1 1292.33 1457.66 Q1290.52 1461.2 1290.52 1468.33 Q1290.52 1475.44 1292.33 1479.01 Q1294.15 1482.55 1297.76 1482.55 Q1301.4 1482.55 1303.2 1479.01 Q1305.03 1475.44 1305.03 1468.33 Q1305.03 1461.2 1303.2 1457.66 Q1301.4 1454.1 1297.76 1454.1 M1297.76 1450.39 Q1303.58 1450.39 1306.63 1455 Q1309.71 1459.58 1309.71 1468.33 Q1309.71 1477.06 1306.63 1481.67 Q1303.58 1486.25 1297.76 1486.25 Q1291.95 1486.25 1288.88 1481.67 Q1285.82 1477.06 1285.82 1468.33 Q1285.82 1459.58 1288.88 1455 Q1291.95 1450.39 1297.76 1450.39 Z" fill="#000000" fill-rule="nonzero" fill-opacity="1" /><path clip-path="url(#clip130)" d="M1327.93 1454.1 Q1324.32 1454.1 1322.49 1457.66 Q1320.68 1461.2 1320.68 1468.33 Q1320.68 1475.44 1322.49 1479.01 Q1324.32 1482.55 1327.93 1482.55 Q1331.56 1482.55 1333.37 1479.01 Q1335.2 1475.44 1335.2 1468.33 Q1335.2 1461.2 1333.37 1457.66 Q1331.56 1454.1 1327.93 1454.1 M1327.93 1450.39 Q1333.74 1450.39 1336.79 1455 Q1339.87 1459.58 1339.87 1468.33 Q1339.87 1477.06 1336.79 1481.67 Q1333.74 1486.25 1327.93 1486.25 Q1322.12 1486.25 1319.04 1481.67 Q1315.98 1477.06 1315.98 1468.33 Q1315.98 1459.58 1319.04 1455 Q1322.12 1450.39 1327.93 1450.39 Z" fill="#000000" fill-rule="nonzero" fill-opacity="1" /><path clip-path="url(#clip130)" d="M1676.33 1481.64 L1692.65 1481.64 L1692.65 1485.58 L1670.71 1485.58 L1670.71 1481.64 Q1673.37 1478.89 1677.95 1474.26 Q1682.56 1469.61 1683.74 1468.27 Q1685.99 1465.74 1686.87 1464.01 Q1687.77 1462.25 1687.77 1460.56 Q1687.77 1457.8 1685.82 1456.07 Q1683.9 1454.33 1680.8 1454.33 Q1678.6 1454.33 1676.15 1455.09 Q1673.72 1455.86 1670.94 1457.41 L1670.94 1452.69 Q1673.76 1451.55 1676.22 1450.97 Q1678.67 1450.39 1680.71 1450.39 Q1686.08 1450.39 1689.27 1453.08 Q1692.47 1455.77 1692.47 1460.26 Q1692.47 1462.39 1691.66 1464.31 Q1690.87 1466.2 1688.76 1468.8 Q1688.19 1469.47 1685.08 1472.69 Q1681.98 1475.88 1676.33 1481.64 Z" fill="#000000" fill-rule="nonzero" fill-opacity="1" /><path clip-path="url(#clip130)" d="M1706.5 1481.64 L1722.81 1481.64 L1722.81 1485.58 L1700.87 1485.58 L1700.87 1481.64 Q1703.53 1478.89 1708.12 1474.26 Q1712.72 1469.61 1713.9 1468.27 Q1716.15 1465.74 1717.03 1464.01 Q1717.93 1462.25 1717.93 1460.56 Q1717.93 1457.8 1715.99 1456.07 Q1714.06 1454.33 1710.96 1454.33 Q1708.76 1454.33 1706.31 1455.09 Q1703.88 1455.86 1701.1 1457.41 L1701.1 1452.69 Q1703.93 1451.55 1706.38 1450.97 Q1708.83 1450.39 1710.87 1450.39 Q1716.24 1450.39 1719.44 1453.08 Q1722.63 1455.77 1722.63 1460.26 Q1722.63 1462.39 1721.82 1464.31 Q1721.03 1466.2 1718.93 1468.8 Q1718.35 1469.47 1715.25 1472.69 Q1712.14 1475.88 1706.5 1481.64 Z" fill="#000000" fill-rule="nonzero" fill-opacity="1" /><path clip-path="url(#clip130)" d="M1742.63 1454.1 Q1739.02 1454.1 1737.19 1457.66 Q1735.38 1461.2 1735.38 1468.33 Q1735.38 1475.44 1737.19 1479.01 Q1739.02 1482.55 1742.63 1482.55 Q1746.26 1482.55 1748.07 1479.01 Q1749.9 1475.44 1749.9 1468.33 Q1749.9 1461.2 1748.07 1457.66 Q1746.26 1454.1 1742.63 1454.1 M1742.63 1450.39 Q1748.44 1450.39 1751.5 1455 Q1754.57 1459.58 1754.57 1468.33 Q1754.57 1477.06 1751.5 1481.67 Q1748.44 1486.25 1742.63 1486.25 Q1736.82 1486.25 1733.74 1481.67 Q1730.69 1477.06 1730.69 1468.33 Q1730.69 1459.58 1733.74 1455 Q1736.82 1450.39 1742.63 1450.39 Z" fill="#000000" fill-rule="nonzero" fill-opacity="1" /><path clip-path="url(#clip130)" d="M2091.04 1481.64 L2107.36 1481.64 L2107.36 1485.58 L2085.41 1485.58 L2085.41 1481.64 Q2088.07 1478.89 2092.66 1474.26 Q2097.26 1469.61 2098.44 1468.27 Q2100.69 1465.74 2101.57 1464.01 Q2102.47 1462.25 2102.47 1460.56 Q2102.47 1457.8 2100.53 1456.07 Q2098.61 1454.33 2095.5 1454.33 Q2093.31 1454.33 2090.85 1455.09 Q2088.42 1455.86 2085.64 1457.41 L2085.64 1452.69 Q2088.47 1451.55 2090.92 1450.97 Q2093.37 1450.39 2095.41 1450.39 Q2100.78 1450.39 2103.98 1453.08 Q2107.17 1455.77 2107.17 1460.26 Q2107.17 1462.39 2106.36 1464.31 Q2105.57 1466.2 2103.47 1468.8 Q2102.89 1469.47 2099.79 1472.69 Q2096.68 1475.88 2091.04 1481.64 Z" fill="#000000" fill-rule="nonzero" fill-opacity="1" /><path clip-path="url(#clip130)" d="M2130.02 1455.09 L2118.21 1473.54 L2130.02 1473.54 L2130.02 1455.09 M2128.79 1451.02 L2134.67 1451.02 L2134.67 1473.54 L2139.6 1473.54 L2139.6 1477.43 L2134.67 1477.43 L2134.67 1485.58 L2130.02 1485.58 L2130.02 1477.43 L2114.42 1477.43 L2114.42 1472.92 L2128.79 1451.02 Z" fill="#000000" fill-rule="nonzero" fill-opacity="1" /><path clip-path="url(#clip130)" d="M2157.33 1454.1 Q2153.72 1454.1 2151.89 1457.66 Q2150.09 1461.2 2150.09 1468.33 Q2150.09 1475.44 2151.89 1479.01 Q2153.72 1482.55 2157.33 1482.55 Q2160.97 1482.55 2162.77 1479.01 Q2164.6 1475.44 2164.6 1468.33 Q2164.6 1461.2 2162.77 1457.66 Q2160.97 1454.1 2157.33 1454.1 M2157.33 1450.39 Q2163.14 1450.39 2166.2 1455 Q2169.28 1459.58 2169.28 1468.33 Q2169.28 1477.06 2166.2 1481.67 Q2163.14 1486.25 2157.33 1486.25 Q2151.52 1486.25 2148.44 1481.67 Q2145.39 1477.06 2145.39 1468.33 Q2145.39 1459.58 2148.44 1455 Q2151.52 1450.39 2157.33 1450.39 Z" fill="#000000" fill-rule="nonzero" fill-opacity="1" /><path clip-path="url(#clip130)" d="M1120.47 1525.81 L1120.47 1562.76 L1128.24 1562.76 Q1138.07 1562.76 1142.63 1558.3 Q1147.21 1553.85 1147.21 1544.24 Q1147.21 1534.69 1142.63 1530.26 Q1138.07 1525.81 1128.24 1525.81 L1120.47 1525.81 M1114.04 1520.52 L1127.25 1520.52 Q1141.07 1520.52 1147.53 1526.28 Q1153.99 1532.01 1153.99 1544.24 Q1153.99 1556.52 1147.5 1562.28 Q1141 1568.04 1127.25 1568.04 L1114.04 1568.04 L1114.04 1520.52 Z" fill="#000000" fill-rule="nonzero" fill-opacity="1" /><path clip-path="url(#clip130)" d="M1194.47 1548.76 L1194.47 1551.62 L1167.55 1551.62 Q1167.93 1557.67 1171.18 1560.85 Q1174.45 1564 1180.28 1564 Q1183.65 1564 1186.8 1563.17 Q1189.99 1562.35 1193.11 1560.69 L1193.11 1566.23 Q1189.96 1567.57 1186.65 1568.27 Q1183.33 1568.97 1179.93 1568.97 Q1171.4 1568.97 1166.4 1564 Q1161.44 1559.04 1161.44 1550.57 Q1161.44 1541.82 1166.15 1536.69 Q1170.89 1531.54 1178.91 1531.54 Q1186.1 1531.54 1190.27 1536.18 Q1194.47 1540.8 1194.47 1548.76 M1188.62 1547.04 Q1188.55 1542.23 1185.91 1539.37 Q1183.3 1536.5 1178.97 1536.5 Q1174.07 1536.5 1171.11 1539.27 Q1168.18 1542.04 1167.74 1547.07 L1188.62 1547.04 Z" fill="#000000" fill-rule="nonzero" fill-opacity="1" /><path clip-path="url(#clip130)" d="M1231.84 1539.24 Q1234.04 1535.29 1237.09 1533.41 Q1240.15 1531.54 1244.29 1531.54 Q1249.86 1531.54 1252.88 1535.45 Q1255.9 1539.33 1255.9 1546.53 L1255.9 1568.04 L1250.02 1568.04 L1250.02 1546.72 Q1250.02 1541.59 1248.2 1539.11 Q1246.39 1536.63 1242.66 1536.63 Q1238.11 1536.63 1235.47 1539.65 Q1232.83 1542.68 1232.83 1547.9 L1232.83 1568.04 L1226.94 1568.04 L1226.94 1546.72 Q1226.94 1541.56 1225.13 1539.11 Q1223.31 1536.63 1219.52 1536.63 Q1215.04 1536.63 1212.39 1539.68 Q1209.75 1542.71 1209.75 1547.9 L1209.75 1568.04 L1203.86 1568.04 L1203.86 1532.4 L1209.75 1532.4 L1209.75 1537.93 Q1211.76 1534.66 1214.56 1533.1 Q1217.36 1531.54 1221.21 1531.54 Q1225.09 1531.54 1227.8 1533.51 Q1230.54 1535.48 1231.84 1539.24 Z" fill="#000000" fill-rule="nonzero" fill-opacity="1" /><path clip-path="url(#clip130)" d="M1283.79 1550.12 Q1276.69 1550.12 1273.95 1551.75 Q1271.21 1553.37 1271.21 1557.29 Q1271.21 1560.4 1273.25 1562.25 Q1275.32 1564.07 1278.85 1564.07 Q1283.72 1564.07 1286.65 1560.63 Q1289.61 1557.16 1289.61 1551.43 L1289.61 1550.12 L1283.79 1550.12 M1295.47 1547.71 L1295.47 1568.04 L1289.61 1568.04 L1289.61 1562.63 Q1287.61 1565.88 1284.61 1567.44 Q1281.62 1568.97 1277.29 1568.97 Q1271.82 1568.97 1268.57 1565.91 Q1265.36 1562.82 1265.36 1557.67 Q1265.36 1551.65 1269.37 1548.6 Q1273.41 1545.54 1281.4 1545.54 L1289.61 1545.54 L1289.61 1544.97 Q1289.61 1540.93 1286.94 1538.73 Q1284.29 1536.5 1279.49 1536.5 Q1276.43 1536.5 1273.54 1537.23 Q1270.64 1537.97 1267.97 1539.43 L1267.97 1534.02 Q1271.18 1532.78 1274.21 1532.17 Q1277.23 1531.54 1280.09 1531.54 Q1287.83 1531.54 1291.65 1535.55 Q1295.47 1539.56 1295.47 1547.71 Z" fill="#000000" fill-rule="nonzero" fill-opacity="1" /><path clip-path="url(#clip130)" d="M1337.16 1546.53 L1337.16 1568.04 L1331.31 1568.04 L1331.31 1546.72 Q1331.31 1541.66 1329.33 1539.14 Q1327.36 1536.63 1323.41 1536.63 Q1318.67 1536.63 1315.93 1539.65 Q1313.2 1542.68 1313.2 1547.9 L1313.2 1568.04 L1307.31 1568.04 L1307.31 1532.4 L1313.2 1532.4 L1313.2 1537.93 Q1315.3 1534.72 1318.13 1533.13 Q1320.99 1531.54 1324.72 1531.54 Q1330.86 1531.54 1334.01 1535.36 Q1337.16 1539.14 1337.16 1546.53 Z" fill="#000000" fill-rule="nonzero" fill-opacity="1" /><path clip-path="url(#clip130)" d="M1372.3 1537.81 L1372.3 1518.52 L1378.16 1518.52 L1378.16 1568.04 L1372.3 1568.04 L1372.3 1562.7 Q1370.45 1565.88 1367.62 1567.44 Q1364.82 1568.97 1360.87 1568.97 Q1354.41 1568.97 1350.34 1563.81 Q1346.3 1558.65 1346.3 1550.25 Q1346.3 1541.85 1350.34 1536.69 Q1354.41 1531.54 1360.87 1531.54 Q1364.82 1531.54 1367.62 1533.1 Q1370.45 1534.62 1372.3 1537.81 M1352.34 1550.25 Q1352.34 1556.71 1354.99 1560.4 Q1357.66 1564.07 1362.31 1564.07 Q1366.95 1564.07 1369.63 1560.4 Q1372.3 1556.71 1372.3 1550.25 Q1372.3 1543.79 1369.63 1540.13 Q1366.95 1536.44 1362.31 1536.44 Q1357.66 1536.44 1354.99 1540.13 Q1352.34 1543.79 1352.34 1550.25 Z" fill="#000000" fill-rule="nonzero" fill-opacity="1" /><polyline clip-path="url(#clip130)" style="stroke:#000000; stroke-linecap:round; stroke-linejoin:round; stroke-width:4; stroke-opacity:1; fill:none" points="139.446,1423.18 139.446,47.2441 "/>
<polyline clip-path="url(#clip130)" style="stroke:#000000; stroke-linecap:round; stroke-linejoin:round; stroke-width:4; stroke-opacity:1; fill:none" points="139.446,1423.18 158.343,1423.18 "/>
<polyline clip-path="url(#clip130)" style="stroke:#000000; stroke-linecap:round; stroke-linejoin:round; stroke-width:4; stroke-opacity:1; fill:none" points="139.446,1226.62 158.343,1226.62 "/>
<polyline clip-path="url(#clip130)" style="stroke:#000000; stroke-linecap:round; stroke-linejoin:round; stroke-width:4; stroke-opacity:1; fill:none" points="139.446,1030.06 158.343,1030.06 "/>
<polyline clip-path="url(#clip130)" style="stroke:#000000; stroke-linecap:round; stroke-linejoin:round; stroke-width:4; stroke-opacity:1; fill:none" points="139.446,833.493 158.343,833.493 "/>
<polyline clip-path="url(#clip130)" style="stroke:#000000; stroke-linecap:round; stroke-linejoin:round; stroke-width:4; stroke-opacity:1; fill:none" points="139.446,636.931 158.343,636.931 "/>
<polyline clip-path="url(#clip130)" style="stroke:#000000; stroke-linecap:round; stroke-linejoin:round; stroke-width:4; stroke-opacity:1; fill:none" points="139.446,440.369 158.343,440.369 "/>
<polyline clip-path="url(#clip130)" style="stroke:#000000; stroke-linecap:round; stroke-linejoin:round; stroke-width:4; stroke-opacity:1; fill:none" points="139.446,243.806 158.343,243.806 "/>
<polyline clip-path="url(#clip130)" style="stroke:#000000; stroke-linecap:round; stroke-linejoin:round; stroke-width:4; stroke-opacity:1; fill:none" points="139.446,47.2441 158.343,47.2441 "/>
<path clip-path="url(#clip130)" d="M91.5012 1408.98 Q87.8901 1408.98 86.0614 1412.54 Q84.2558 1416.08 84.2558 1423.21 Q84.2558 1430.32 86.0614 1433.89 Q87.8901 1437.43 91.5012 1437.43 Q95.1354 1437.43 96.941 1433.89 Q98.7696 1430.32 98.7696 1423.21 Q98.7696 1416.08 96.941 1412.54 Q95.1354 1408.98 91.5012 1408.98 M91.5012 1405.27 Q97.3113 1405.27 100.367 1409.88 Q103.446 1414.46 103.446 1423.21 Q103.446 1431.94 100.367 1436.55 Q97.3113 1441.13 91.5012 1441.13 Q85.691 1441.13 82.6123 1436.55 Q79.5568 1431.94 79.5568 1423.21 Q79.5568 1414.46 82.6123 1409.88 Q85.691 1405.27 91.5012 1405.27 Z" fill="#000000" fill-rule="nonzero" fill-opacity="1" /><path clip-path="url(#clip130)" d="M87.1262 1239.96 L103.446 1239.96 L103.446 1243.9 L81.5012 1243.9 L81.5012 1239.96 Q84.1632 1237.21 88.7466 1232.58 Q93.353 1227.93 94.5336 1226.58 Q96.7789 1224.06 97.6585 1222.32 Q98.5613 1220.56 98.5613 1218.87 Q98.5613 1216.12 96.6169 1214.38 Q94.6956 1212.65 91.5938 1212.65 Q89.3947 1212.65 86.941 1213.41 Q84.5105 1214.18 81.7327 1215.73 L81.7327 1211 Q84.5568 1209.87 87.0105 1209.29 Q89.4641 1208.71 91.5012 1208.71 Q96.8715 1208.71 100.066 1211.4 Q103.26 1214.08 103.26 1218.57 Q103.26 1220.7 102.45 1222.62 Q101.663 1224.52 99.5567 1227.12 Q98.978 1227.79 95.8761 1231 Q92.7743 1234.2 87.1262 1239.96 Z" fill="#000000" fill-rule="nonzero" fill-opacity="1" /><path clip-path="url(#clip130)" d="M93.8623 1016.85 L82.0568 1035.3 L93.8623 1035.3 L93.8623 1016.85 M92.6354 1012.78 L98.515 1012.78 L98.515 1035.3 L103.446 1035.3 L103.446 1039.19 L98.515 1039.19 L98.515 1047.34 L93.8623 1047.34 L93.8623 1039.19 L78.2605 1039.19 L78.2605 1034.67 L92.6354 1012.78 Z" fill="#000000" fill-rule="nonzero" fill-opacity="1" /><path clip-path="url(#clip130)" d="M91.9178 831.63 Q88.7697 831.63 86.9179 833.782 Q85.0892 835.935 85.0892 839.685 Q85.0892 843.412 86.9179 845.588 Q88.7697 847.741 91.9178 847.741 Q95.066 847.741 96.8947 845.588 Q98.7465 843.412 98.7465 839.685 Q98.7465 835.935 96.8947 833.782 Q95.066 831.63 91.9178 831.63 M101.2 816.977 L101.2 821.236 Q99.4409 820.403 97.6354 819.963 Q95.853 819.523 94.0937 819.523 Q89.4641 819.523 87.0105 822.648 Q84.5799 825.773 84.2327 832.093 Q85.5984 830.079 87.6586 829.014 Q89.7188 827.926 92.1956 827.926 Q97.4039 827.926 100.413 831.097 Q103.446 834.245 103.446 839.685 Q103.446 845.009 100.297 848.227 Q97.1493 851.444 91.9178 851.444 Q85.9225 851.444 82.7512 846.861 Q79.5799 842.255 79.5799 833.528 Q79.5799 825.333 83.4688 820.472 Q87.3577 815.588 93.9086 815.588 Q95.6678 815.588 97.4502 815.935 Q99.2558 816.283 101.2 816.977 Z" fill="#000000" fill-rule="nonzero" fill-opacity="1" /><path clip-path="url(#clip130)" d="M91.5938 637.799 Q88.2604 637.799 86.3392 639.581 Q84.441 641.364 84.441 644.489 Q84.441 647.614 86.3392 649.396 Q88.2604 651.178 91.5938 651.178 Q94.9271 651.178 96.8484 649.396 Q98.7696 647.591 98.7696 644.489 Q98.7696 641.364 96.8484 639.581 Q94.9502 637.799 91.5938 637.799 M86.9179 635.808 Q83.9086 635.067 82.2188 633.007 Q80.5522 630.947 80.5522 627.984 Q80.5522 623.841 83.492 621.433 Q86.4549 619.026 91.5938 619.026 Q96.7558 619.026 99.6956 621.433 Q102.635 623.841 102.635 627.984 Q102.635 630.947 100.946 633.007 Q99.2789 635.067 96.2928 635.808 Q99.6724 636.595 101.547 638.887 Q103.446 641.179 103.446 644.489 Q103.446 649.512 100.367 652.197 Q97.3113 654.882 91.5938 654.882 Q85.8762 654.882 82.7975 652.197 Q79.742 649.512 79.742 644.489 Q79.742 641.179 81.6401 638.887 Q83.5382 636.595 86.9179 635.808 M85.2049 628.424 Q85.2049 631.109 86.8716 632.614 Q88.5614 634.118 91.5938 634.118 Q94.603 634.118 96.2928 632.614 Q98.0058 631.109 98.0058 628.424 Q98.0058 625.739 96.2928 624.234 Q94.603 622.73 91.5938 622.73 Q88.5614 622.73 86.8716 624.234 Q85.2049 625.739 85.2049 628.424 Z" fill="#000000" fill-rule="nonzero" fill-opacity="1" /><path clip-path="url(#clip130)" d="M52.1495 453.713 L59.7884 453.713 L59.7884 427.348 L51.4782 429.014 L51.4782 424.755 L59.7421 423.089 L64.418 423.089 L64.418 453.713 L72.0568 453.713 L72.0568 457.649 L52.1495 457.649 L52.1495 453.713 Z" fill="#000000" fill-rule="nonzero" fill-opacity="1" /><path clip-path="url(#clip130)" d="M91.5012 426.167 Q87.8901 426.167 86.0614 429.732 Q84.2558 433.274 84.2558 440.403 Q84.2558 447.51 86.0614 451.075 Q87.8901 454.616 91.5012 454.616 Q95.1354 454.616 96.941 451.075 Q98.7696 447.51 98.7696 440.403 Q98.7696 433.274 96.941 429.732 Q95.1354 426.167 91.5012 426.167 M91.5012 422.464 Q97.3113 422.464 100.367 427.07 Q103.446 431.653 103.446 440.403 Q103.446 449.13 100.367 453.737 Q97.3113 458.32 91.5012 458.32 Q85.691 458.32 82.6123 453.737 Q79.5568 449.13 79.5568 440.403 Q79.5568 431.653 82.6123 427.07 Q85.691 422.464 91.5012 422.464 Z" fill="#000000" fill-rule="nonzero" fill-opacity="1" /><path clip-path="url(#clip130)" d="M53.7467 257.151 L61.3856 257.151 L61.3856 230.786 L53.0754 232.452 L53.0754 228.193 L61.3393 226.526 L66.0152 226.526 L66.0152 257.151 L73.654 257.151 L73.654 261.086 L53.7467 261.086 L53.7467 257.151 Z" fill="#000000" fill-rule="nonzero" fill-opacity="1" /><path clip-path="url(#clip130)" d="M87.1262 257.151 L103.446 257.151 L103.446 261.086 L81.5012 261.086 L81.5012 257.151 Q84.1632 254.397 88.7466 249.767 Q93.353 245.114 94.5336 243.772 Q96.7789 241.248 97.6585 239.512 Q98.5613 237.753 98.5613 236.063 Q98.5613 233.309 96.6169 231.573 Q94.6956 229.837 91.5938 229.837 Q89.3947 229.837 86.941 230.6 Q84.5105 231.364 81.7327 232.915 L81.7327 228.193 Q84.5568 227.059 87.0105 226.48 Q89.4641 225.901 91.5012 225.901 Q96.8715 225.901 100.066 228.587 Q103.26 231.272 103.26 235.762 Q103.26 237.892 102.45 239.813 Q101.663 241.711 99.5567 244.304 Q98.978 244.975 95.8761 248.193 Q92.7743 251.387 87.1262 257.151 Z" fill="#000000" fill-rule="nonzero" fill-opacity="1" /><path clip-path="url(#clip130)" d="M51.6634 60.5889 L59.3023 60.5889 L59.3023 34.2233 L50.9921 35.89 L50.9921 31.6308 L59.256 29.9641 L63.9319 29.9641 L63.9319 60.5889 L71.5707 60.5889 L71.5707 64.5241 L51.6634 64.5241 L51.6634 60.5889 Z" fill="#000000" fill-rule="nonzero" fill-opacity="1" /><path clip-path="url(#clip130)" d="M93.8623 34.0381 L82.0568 52.4871 L93.8623 52.4871 L93.8623 34.0381 M92.6354 29.9641 L98.515 29.9641 L98.515 52.4871 L103.446 52.4871 L103.446 56.376 L98.515 56.376 L98.515 64.5241 L93.8623 64.5241 L93.8623 56.376 L78.2605 56.376 L78.2605 51.8621 L92.6354 29.9641 Z" fill="#000000" fill-rule="nonzero" fill-opacity="1" /><path clip-path="url(#clip132)" d="M261.182 1324.9 L261.182 1423.18 L364.857 1423.18 L364.857 1324.9 L261.182 1324.9 L261.182 1324.9  Z" fill="#009af9" fill-rule="evenodd" fill-opacity="1"/>
<polyline clip-path="url(#clip132)" style="stroke:#000000; stroke-linecap:round; stroke-linejoin:round; stroke-width:4; stroke-opacity:1; fill:none" points="261.182,1324.9 261.182,1423.18 364.857,1423.18 364.857,1324.9 261.182,1324.9 "/>
<path clip-path="url(#clip132)" d="M364.857 1226.62 L364.857 1423.18 L468.533 1423.18 L468.533 1226.62 L364.857 1226.62 L364.857 1226.62  Z" fill="#009af9" fill-rule="evenodd" fill-opacity="1"/>
<polyline clip-path="url(#clip132)" style="stroke:#000000; stroke-linecap:round; stroke-linejoin:round; stroke-width:4; stroke-opacity:1; fill:none" points="364.857,1226.62 364.857,1423.18 468.533,1423.18 468.533,1226.62 364.857,1226.62 "/>
<path clip-path="url(#clip132)" d="M468.533 1226.62 L468.533 1423.18 L572.209 1423.18 L572.209 1226.62 L468.533 1226.62 L468.533 1226.62  Z" fill="#009af9" fill-rule="evenodd" fill-opacity="1"/>
<polyline clip-path="url(#clip132)" style="stroke:#000000; stroke-linecap:round; stroke-linejoin:round; stroke-width:4; stroke-opacity:1; fill:none" points="468.533,1226.62 468.533,1423.18 572.209,1423.18 572.209,1226.62 468.533,1226.62 "/>
<path clip-path="url(#clip132)" d="M572.209 1324.9 L572.209 1423.18 L675.884 1423.18 L675.884 1324.9 L572.209 1324.9 L572.209 1324.9  Z" fill="#009af9" fill-rule="evenodd" fill-opacity="1"/>
<polyline clip-path="url(#clip132)" style="stroke:#000000; stroke-linecap:round; stroke-linejoin:round; stroke-width:4; stroke-opacity:1; fill:none" points="572.209,1324.9 572.209,1423.18 675.884,1423.18 675.884,1324.9 572.209,1324.9 "/>
<path clip-path="url(#clip132)" d="M675.884 931.774 L675.884 1423.18 L779.56 1423.18 L779.56 931.774 L675.884 931.774 L675.884 931.774  Z" fill="#009af9" fill-rule="evenodd" fill-opacity="1"/>
<polyline clip-path="url(#clip132)" style="stroke:#000000; stroke-linecap:round; stroke-linejoin:round; stroke-width:4; stroke-opacity:1; fill:none" points="675.884,931.774 675.884,1423.18 779.56,1423.18 779.56,931.774 675.884,931.774 "/>
<path clip-path="url(#clip132)" d="M779.56 735.212 L779.56 1423.18 L883.236 1423.18 L883.236 735.212 L779.56 735.212 L779.56 735.212  Z" fill="#009af9" fill-rule="evenodd" fill-opacity="1"/>
<polyline clip-path="url(#clip132)" style="stroke:#000000; stroke-linecap:round; stroke-linejoin:round; stroke-width:4; stroke-opacity:1; fill:none" points="779.56,735.212 779.56,1423.18 883.236,1423.18 883.236,735.212 779.56,735.212 "/>
<path clip-path="url(#clip132)" d="M883.236 636.931 L883.236 1423.18 L986.911 1423.18 L986.911 636.931 L883.236 636.931 L883.236 636.931  Z" fill="#009af9" fill-rule="evenodd" fill-opacity="1"/>
<polyline clip-path="url(#clip132)" style="stroke:#000000; stroke-linecap:round; stroke-linejoin:round; stroke-width:4; stroke-opacity:1; fill:none" points="883.236,636.931 883.236,1423.18 986.911,1423.18 986.911,636.931 883.236,636.931 "/>
<path clip-path="url(#clip132)" d="M986.911 735.212 L986.911 1423.18 L1090.59 1423.18 L1090.59 735.212 L986.911 735.212 L986.911 735.212  Z" fill="#009af9" fill-rule="evenodd" fill-opacity="1"/>
<polyline clip-path="url(#clip132)" style="stroke:#000000; stroke-linecap:round; stroke-linejoin:round; stroke-width:4; stroke-opacity:1; fill:none" points="986.911,735.212 986.911,1423.18 1090.59,1423.18 1090.59,735.212 986.911,735.212 "/>
<path clip-path="url(#clip132)" d="M1090.59 931.774 L1090.59 1423.18 L1194.26 1423.18 L1194.26 931.774 L1090.59 931.774 L1090.59 931.774  Z" fill="#009af9" fill-rule="evenodd" fill-opacity="1"/>
<polyline clip-path="url(#clip132)" style="stroke:#000000; stroke-linecap:round; stroke-linejoin:round; stroke-width:4; stroke-opacity:1; fill:none" points="1090.59,931.774 1090.59,1423.18 1194.26,1423.18 1194.26,931.774 1090.59,931.774 "/>
<path clip-path="url(#clip132)" d="M1194.26 735.212 L1194.26 1423.18 L1297.94 1423.18 L1297.94 735.212 L1194.26 735.212 L1194.26 735.212  Z" fill="#009af9" fill-rule="evenodd" fill-opacity="1"/>
<polyline clip-path="url(#clip132)" style="stroke:#000000; stroke-linecap:round; stroke-linejoin:round; stroke-width:4; stroke-opacity:1; fill:none" points="1194.26,735.212 1194.26,1423.18 1297.94,1423.18 1297.94,735.212 1194.26,735.212 "/>
<path clip-path="url(#clip132)" d="M1297.94 47.2441 L1297.94 1423.18 L1401.61 1423.18 L1401.61 47.2441 L1297.94 47.2441 L1297.94 47.2441  Z" fill="#009af9" fill-rule="evenodd" fill-opacity="1"/>
<polyline clip-path="url(#clip132)" style="stroke:#000000; stroke-linecap:round; stroke-linejoin:round; stroke-width:4; stroke-opacity:1; fill:none" points="1297.94,47.2441 1297.94,1423.18 1401.61,1423.18 1401.61,47.2441 1297.94,47.2441 "/>
<path clip-path="url(#clip132)" d="M1401.61 735.212 L1401.61 1423.18 L1505.29 1423.18 L1505.29 735.212 L1401.61 735.212 L1401.61 735.212  Z" fill="#009af9" fill-rule="evenodd" fill-opacity="1"/>
<polyline clip-path="url(#clip132)" style="stroke:#000000; stroke-linecap:round; stroke-linejoin:round; stroke-width:4; stroke-opacity:1; fill:none" points="1401.61,735.212 1401.61,1423.18 1505.29,1423.18 1505.29,735.212 1401.61,735.212 "/>
<path clip-path="url(#clip132)" d="M1505.29 342.087 L1505.29 1423.18 L1608.97 1423.18 L1608.97 342.087 L1505.29 342.087 L1505.29 342.087  Z" fill="#009af9" fill-rule="evenodd" fill-opacity="1"/>
<polyline clip-path="url(#clip132)" style="stroke:#000000; stroke-linecap:round; stroke-linejoin:round; stroke-width:4; stroke-opacity:1; fill:none" points="1505.29,342.087 1505.29,1423.18 1608.97,1423.18 1608.97,342.087 1505.29,342.087 "/>
<path clip-path="url(#clip132)" d="M1608.97 636.931 L1608.97 1423.18 L1712.64 1423.18 L1712.64 636.931 L1608.97 636.931 L1608.97 636.931  Z" fill="#009af9" fill-rule="evenodd" fill-opacity="1"/>
<polyline clip-path="url(#clip132)" style="stroke:#000000; stroke-linecap:round; stroke-linejoin:round; stroke-width:4; stroke-opacity:1; fill:none" points="1608.97,636.931 1608.97,1423.18 1712.64,1423.18 1712.64,636.931 1608.97,636.931 "/>
<path clip-path="url(#clip132)" d="M1712.64 735.212 L1712.64 1423.18 L1816.32 1423.18 L1816.32 735.212 L1712.64 735.212 L1712.64 735.212  Z" fill="#009af9" fill-rule="evenodd" fill-opacity="1"/>
<polyline clip-path="url(#clip132)" style="stroke:#000000; stroke-linecap:round; stroke-linejoin:round; stroke-width:4; stroke-opacity:1; fill:none" points="1712.64,735.212 1712.64,1423.18 1816.32,1423.18 1816.32,735.212 1712.64,735.212 "/>
<path clip-path="url(#clip132)" d="M1816.32 1324.9 L1816.32 1423.18 L1919.99 1423.18 L1919.99 1324.9 L1816.32 1324.9 L1816.32 1324.9  Z" fill="#009af9" fill-rule="evenodd" fill-opacity="1"/>
<polyline clip-path="url(#clip132)" style="stroke:#000000; stroke-linecap:round; stroke-linejoin:round; stroke-width:4; stroke-opacity:1; fill:none" points="1816.32,1324.9 1816.32,1423.18 1919.99,1423.18 1919.99,1324.9 1816.32,1324.9 "/>
<path clip-path="url(#clip132)" d="M1919.99 1128.34 L1919.99 1423.18 L2023.67 1423.18 L2023.67 1128.34 L1919.99 1128.34 L1919.99 1128.34  Z" fill="#009af9" fill-rule="evenodd" fill-opacity="1"/>
<polyline clip-path="url(#clip132)" style="stroke:#000000; stroke-linecap:round; stroke-linejoin:round; stroke-width:4; stroke-opacity:1; fill:none" points="1919.99,1128.34 1919.99,1423.18 2023.67,1423.18 2023.67,1128.34 1919.99,1128.34 "/>
<path clip-path="url(#clip132)" d="M2023.67 1128.34 L2023.67 1423.18 L2127.34 1423.18 L2127.34 1128.34 L2023.67 1128.34 L2023.67 1128.34  Z" fill="#009af9" fill-rule="evenodd" fill-opacity="1"/>
<polyline clip-path="url(#clip132)" style="stroke:#000000; stroke-linecap:round; stroke-linejoin:round; stroke-width:4; stroke-opacity:1; fill:none" points="2023.67,1128.34 2023.67,1423.18 2127.34,1423.18 2127.34,1128.34 2023.67,1128.34 "/>
<path clip-path="url(#clip132)" d="M2127.34 1324.9 L2127.34 1423.18 L2231.02 1423.18 L2231.02 1324.9 L2127.34 1324.9 L2127.34 1324.9  Z" fill="#009af9" fill-rule="evenodd" fill-opacity="1"/>
<polyline clip-path="url(#clip132)" style="stroke:#000000; stroke-linecap:round; stroke-linejoin:round; stroke-width:4; stroke-opacity:1; fill:none" points="2127.34,1324.9 2127.34,1423.18 2231.02,1423.18 2231.02,1324.9 2127.34,1324.9 "/>
<circle clip-path="url(#clip132)" style="fill:#009af9; stroke:none; fill-opacity:0" cx="313.019" cy="1324.9" r="2"/>
<circle clip-path="url(#clip132)" style="fill:#009af9; stroke:none; fill-opacity:0" cx="416.695" cy="1226.62" r="2"/>
<circle clip-path="url(#clip132)" style="fill:#009af9; stroke:none; fill-opacity:0" cx="520.371" cy="1226.62" r="2"/>
<circle clip-path="url(#clip132)" style="fill:#009af9; stroke:none; fill-opacity:0" cx="624.047" cy="1324.9" r="2"/>
<circle clip-path="url(#clip132)" style="fill:#009af9; stroke:none; fill-opacity:0" cx="727.722" cy="931.774" r="2"/>
<circle clip-path="url(#clip132)" style="fill:#009af9; stroke:none; fill-opacity:0" cx="831.398" cy="735.212" r="2"/>
<circle clip-path="url(#clip132)" style="fill:#009af9; stroke:none; fill-opacity:0" cx="935.074" cy="636.931" r="2"/>
<circle clip-path="url(#clip132)" style="fill:#009af9; stroke:none; fill-opacity:0" cx="1038.75" cy="735.212" r="2"/>
<circle clip-path="url(#clip132)" style="fill:#009af9; stroke:none; fill-opacity:0" cx="1142.43" cy="931.774" r="2"/>
<circle clip-path="url(#clip132)" style="fill:#009af9; stroke:none; fill-opacity:0" cx="1246.1" cy="735.212" r="2"/>
<circle clip-path="url(#clip132)" style="fill:#009af9; stroke:none; fill-opacity:0" cx="1349.78" cy="47.2441" r="2"/>
<circle clip-path="url(#clip132)" style="fill:#009af9; stroke:none; fill-opacity:0" cx="1453.45" cy="735.212" r="2"/>
<circle clip-path="url(#clip132)" style="fill:#009af9; stroke:none; fill-opacity:0" cx="1557.13" cy="342.087" r="2"/>
<circle clip-path="url(#clip132)" style="fill:#009af9; stroke:none; fill-opacity:0" cx="1660.8" cy="636.931" r="2"/>
<circle clip-path="url(#clip132)" style="fill:#009af9; stroke:none; fill-opacity:0" cx="1764.48" cy="735.212" r="2"/>
<circle clip-path="url(#clip132)" style="fill:#009af9; stroke:none; fill-opacity:0" cx="1868.15" cy="1324.9" r="2"/>
<circle clip-path="url(#clip132)" style="fill:#009af9; stroke:none; fill-opacity:0" cx="1971.83" cy="1128.34" r="2"/>
<circle clip-path="url(#clip132)" style="fill:#009af9; stroke:none; fill-opacity:0" cx="2075.51" cy="1128.34" r="2"/>
<circle clip-path="url(#clip132)" style="fill:#009af9; stroke:none; fill-opacity:0" cx="2179.18" cy="1324.9" r="2"/>
</svg>
