<?xml version="1.0" encoding="utf-8"?>
<svg xmlns="http://www.w3.org/2000/svg" xmlns:xlink="http://www.w3.org/1999/xlink" width="600" height="400" viewBox="0 0 2400 1600">
<defs>
  <clipPath id="clip640">
    <rect x="0" y="0" width="2400" height="1600"/>
  </clipPath>
</defs>
<path clip-path="url(#clip640)" d="M0 1600 L2400 1600 L2400 0 L0 0  Z" fill="#ffffff" fill-rule="evenodd" fill-opacity="1"/>
<defs>
  <clipPath id="clip641">
    <rect x="480" y="0" width="1681" height="1600"/>
  </clipPath>
</defs>
<path clip-path="url(#clip640)" d="M112.177 1486.45 L2352.76 1486.45 L2352.76 47.2441 L112.177 47.2441  Z" fill="#ffffff" fill-rule="evenodd" fill-opacity="1"/>
<defs>
  <clipPath id="clip642">
    <rect x="112" y="47" width="2242" height="1440"/>
  </clipPath>
</defs>
<polyline clip-path="url(#clip642)" style="stroke:#000000; stroke-linecap:round; stroke-linejoin:round; stroke-width:2; stroke-opacity:0.1; fill:none" points="175.59,1486.45 175.59,47.2441 "/>
<polyline clip-path="url(#clip642)" style="stroke:#000000; stroke-linecap:round; stroke-linejoin:round; stroke-width:2; stroke-opacity:0.1; fill:none" points="704.028,1486.45 704.028,47.2441 "/>
<polyline clip-path="url(#clip642)" style="stroke:#000000; stroke-linecap:round; stroke-linejoin:round; stroke-width:2; stroke-opacity:0.1; fill:none" points="1232.47,1486.45 1232.47,47.2441 "/>
<polyline clip-path="url(#clip642)" style="stroke:#000000; stroke-linecap:round; stroke-linejoin:round; stroke-width:2; stroke-opacity:0.1; fill:none" points="1760.9,1486.45 1760.9,47.2441 "/>
<polyline clip-path="url(#clip642)" style="stroke:#000000; stroke-linecap:round; stroke-linejoin:round; stroke-width:2; stroke-opacity:0.1; fill:none" points="2289.34,1486.45 2289.34,47.2441 "/>
<polyline clip-path="url(#clip640)" style="stroke:#000000; stroke-linecap:round; stroke-linejoin:round; stroke-width:4; stroke-opacity:1; fill:none" points="112.177,1486.45 2352.76,1486.45 "/>
<polyline clip-path="url(#clip640)" style="stroke:#000000; stroke-linecap:round; stroke-linejoin:round; stroke-width:4; stroke-opacity:1; fill:none" points="175.59,1486.45 175.59,1467.55 "/>
<polyline clip-path="url(#clip640)" style="stroke:#000000; stroke-linecap:round; stroke-linejoin:round; stroke-width:4; stroke-opacity:1; fill:none" points="704.028,1486.45 704.028,1467.55 "/>
<polyline clip-path="url(#clip640)" style="stroke:#000000; stroke-linecap:round; stroke-linejoin:round; stroke-width:4; stroke-opacity:1; fill:none" points="1232.47,1486.45 1232.47,1467.55 "/>
<polyline clip-path="url(#clip640)" style="stroke:#000000; stroke-linecap:round; stroke-linejoin:round; stroke-width:4; stroke-opacity:1; fill:none" points="1760.9,1486.45 1760.9,1467.55 "/>
<polyline clip-path="url(#clip640)" style="stroke:#000000; stroke-linecap:round; stroke-linejoin:round; stroke-width:4; stroke-opacity:1; fill:none" points="2289.34,1486.45 2289.34,1467.55 "/>
<path clip-path="url(#clip640)" d="M145.532 1532.02 L175.208 1532.02 L175.208 1535.95 L145.532 1535.95 L145.532 1532.02 Z" fill="#000000" fill-rule="nonzero" fill-opacity="1" /><path clip-path="url(#clip640)" d="M189.328 1544.91 L205.647 1544.91 L205.647 1548.85 L183.703 1548.85 L183.703 1544.91 Q186.365 1542.16 190.948 1537.53 Q195.555 1532.88 196.736 1531.53 Q198.981 1529.01 199.86 1527.27 Q200.763 1525.51 200.763 1523.82 Q200.763 1521.07 198.819 1519.33 Q196.898 1517.6 193.796 1517.6 Q191.597 1517.6 189.143 1518.36 Q186.712 1519.13 183.935 1520.68 L183.935 1515.95 Q186.759 1514.82 189.212 1514.24 Q191.666 1513.66 193.703 1513.66 Q199.073 1513.66 202.268 1516.35 Q205.462 1519.03 205.462 1523.52 Q205.462 1525.65 204.652 1527.57 Q203.865 1529.47 201.759 1532.07 Q201.18 1532.74 198.078 1535.95 Q194.976 1539.15 189.328 1544.91 Z" fill="#000000" fill-rule="nonzero" fill-opacity="1" /><path clip-path="url(#clip640)" d="M673.785 1532.02 L703.461 1532.02 L703.461 1535.95 L673.785 1535.95 L673.785 1532.02 Z" fill="#000000" fill-rule="nonzero" fill-opacity="1" /><path clip-path="url(#clip640)" d="M714.364 1544.91 L722.003 1544.91 L722.003 1518.55 L713.692 1520.21 L713.692 1515.95 L721.956 1514.29 L726.632 1514.29 L726.632 1544.91 L734.271 1544.91 L734.271 1548.85 L714.364 1548.85 L714.364 1544.91 Z" fill="#000000" fill-rule="nonzero" fill-opacity="1" /><path clip-path="url(#clip640)" d="M1232.47 1517.37 Q1228.86 1517.37 1227.03 1520.93 Q1225.22 1524.47 1225.22 1531.6 Q1225.22 1538.71 1227.03 1542.27 Q1228.86 1545.82 1232.47 1545.82 Q1236.1 1545.82 1237.91 1542.27 Q1239.74 1538.71 1239.74 1531.6 Q1239.74 1524.47 1237.91 1520.93 Q1236.1 1517.37 1232.47 1517.37 M1232.47 1513.66 Q1238.28 1513.66 1241.33 1518.27 Q1244.41 1522.85 1244.41 1531.6 Q1244.41 1540.33 1241.33 1544.94 Q1238.28 1549.52 1232.47 1549.52 Q1226.66 1549.52 1223.58 1544.94 Q1220.52 1540.33 1220.52 1531.6 Q1220.52 1522.85 1223.58 1518.27 Q1226.66 1513.66 1232.47 1513.66 Z" fill="#000000" fill-rule="nonzero" fill-opacity="1" /><path clip-path="url(#clip640)" d="M1751.29 1544.91 L1758.93 1544.91 L1758.93 1518.55 L1750.62 1520.21 L1750.62 1515.95 L1758.88 1514.29 L1763.56 1514.29 L1763.56 1544.91 L1771.19 1544.91 L1771.19 1548.85 L1751.29 1548.85 L1751.29 1544.91 Z" fill="#000000" fill-rule="nonzero" fill-opacity="1" /><path clip-path="url(#clip640)" d="M2284 1544.91 L2300.32 1544.91 L2300.32 1548.85 L2278.37 1548.85 L2278.37 1544.91 Q2281.03 1542.16 2285.62 1537.53 Q2290.22 1532.88 2291.4 1531.53 Q2293.65 1529.01 2294.53 1527.27 Q2295.43 1525.51 2295.43 1523.82 Q2295.43 1521.07 2293.49 1519.33 Q2291.57 1517.6 2288.46 1517.6 Q2286.26 1517.6 2283.81 1518.36 Q2281.38 1519.13 2278.6 1520.68 L2278.6 1515.95 Q2281.43 1514.82 2283.88 1514.24 Q2286.33 1513.66 2288.37 1513.66 Q2293.74 1513.66 2296.94 1516.35 Q2300.13 1519.03 2300.13 1523.52 Q2300.13 1525.65 2299.32 1527.57 Q2298.53 1529.47 2296.43 1532.07 Q2295.85 1532.74 2292.75 1535.95 Q2289.64 1539.15 2284 1544.91 Z" fill="#000000" fill-rule="nonzero" fill-opacity="1" /><polyline clip-path="url(#clip642)" style="stroke:#000000; stroke-linecap:round; stroke-linejoin:round; stroke-width:2; stroke-opacity:0.1; fill:none" points="112.177,1326.54 2352.76,1326.54 "/>
<polyline clip-path="url(#clip642)" style="stroke:#000000; stroke-linecap:round; stroke-linejoin:round; stroke-width:2; stroke-opacity:0.1; fill:none" points="112.177,1006.71 2352.76,1006.71 "/>
<polyline clip-path="url(#clip642)" style="stroke:#000000; stroke-linecap:round; stroke-linejoin:round; stroke-width:2; stroke-opacity:0.1; fill:none" points="112.177,686.89 2352.76,686.89 "/>
<polyline clip-path="url(#clip642)" style="stroke:#000000; stroke-linecap:round; stroke-linejoin:round; stroke-width:2; stroke-opacity:0.1; fill:none" points="112.177,367.067 2352.76,367.067 "/>
<polyline clip-path="url(#clip642)" style="stroke:#000000; stroke-linecap:round; stroke-linejoin:round; stroke-width:2; stroke-opacity:0.1; fill:none" points="112.177,47.2441 2352.76,47.2441 "/>
<polyline clip-path="url(#clip640)" style="stroke:#000000; stroke-linecap:round; stroke-linejoin:round; stroke-width:4; stroke-opacity:1; fill:none" points="112.177,1486.45 112.177,47.2441 "/>
<polyline clip-path="url(#clip640)" style="stroke:#000000; stroke-linecap:round; stroke-linejoin:round; stroke-width:4; stroke-opacity:1; fill:none" points="112.177,1326.54 131.075,1326.54 "/>
<polyline clip-path="url(#clip640)" style="stroke:#000000; stroke-linecap:round; stroke-linejoin:round; stroke-width:4; stroke-opacity:1; fill:none" points="112.177,1006.71 131.075,1006.71 "/>
<polyline clip-path="url(#clip640)" style="stroke:#000000; stroke-linecap:round; stroke-linejoin:round; stroke-width:4; stroke-opacity:1; fill:none" points="112.177,686.89 131.075,686.89 "/>
<polyline clip-path="url(#clip640)" style="stroke:#000000; stroke-linecap:round; stroke-linejoin:round; stroke-width:4; stroke-opacity:1; fill:none" points="112.177,367.067 131.075,367.067 "/>
<polyline clip-path="url(#clip640)" style="stroke:#000000; stroke-linecap:round; stroke-linejoin:round; stroke-width:4; stroke-opacity:1; fill:none" points="112.177,47.2441 131.075,47.2441 "/>
<path clip-path="url(#clip640)" d="M64.2328 1312.34 Q60.6217 1312.34 58.793 1315.9 Q56.9875 1319.44 56.9875 1326.57 Q56.9875 1333.68 58.793 1337.24 Q60.6217 1340.78 64.2328 1340.78 Q67.867 1340.78 69.6726 1337.24 Q71.5013 1333.68 71.5013 1326.57 Q71.5013 1319.44 69.6726 1315.9 Q67.867 1312.34 64.2328 1312.34 M64.2328 1308.63 Q70.0429 1308.63 73.0985 1313.24 Q76.1772 1317.82 76.1772 1326.57 Q76.1772 1335.3 73.0985 1339.9 Q70.0429 1344.49 64.2328 1344.49 Q58.4226 1344.49 55.344 1339.9 Q52.2884 1335.3 52.2884 1326.57 Q52.2884 1317.82 55.344 1313.24 Q58.4226 1308.63 64.2328 1308.63 Z" fill="#000000" fill-rule="nonzero" fill-opacity="1" /><path clip-path="url(#clip640)" d="M56.2699 1020.06 L63.9087 1020.06 L63.9087 993.693 L55.5986 995.359 L55.5986 991.1 L63.8624 989.433 L68.5383 989.433 L68.5383 1020.06 L76.1772 1020.06 L76.1772 1023.99 L56.2699 1023.99 L56.2699 1020.06 Z" fill="#000000" fill-rule="nonzero" fill-opacity="1" /><path clip-path="url(#clip640)" d="M59.8578 700.235 L76.1772 700.235 L76.1772 704.17 L54.2328 704.17 L54.2328 700.235 Q56.8949 697.48 61.4782 692.851 Q66.0846 688.198 67.2652 686.855 Q69.5105 684.332 70.3902 682.596 Q71.2929 680.837 71.2929 679.147 Q71.2929 676.393 69.3485 674.656 Q67.4272 672.92 64.3254 672.92 Q62.1263 672.92 59.6726 673.684 Q57.2421 674.448 54.4643 675.999 L54.4643 671.277 Q57.2884 670.143 59.7421 669.564 Q62.1958 668.985 64.2328 668.985 Q69.6031 668.985 72.7976 671.67 Q75.992 674.356 75.992 678.846 Q75.992 680.976 75.1818 682.897 Q74.3948 684.795 72.2883 687.388 Q71.7096 688.059 68.6078 691.277 Q65.5059 694.471 59.8578 700.235 Z" fill="#000000" fill-rule="nonzero" fill-opacity="1" /><path clip-path="url(#clip640)" d="M69.0476 365.713 Q72.404 366.431 74.279 368.699 Q76.1772 370.968 76.1772 374.301 Q76.1772 379.417 72.6587 382.218 Q69.1402 385.018 62.6587 385.018 Q60.4828 385.018 58.168 384.579 Q55.8764 384.162 53.4227 383.305 L53.4227 378.792 Q55.3671 379.926 57.6819 380.505 Q59.9967 381.083 62.5198 381.083 Q66.918 381.083 69.2096 379.347 Q71.5244 377.611 71.5244 374.301 Q71.5244 371.245 69.3717 369.532 Q67.242 367.796 63.4226 367.796 L59.3949 367.796 L59.3949 363.954 L63.6078 363.954 Q67.0569 363.954 68.8855 362.588 Q70.7142 361.199 70.7142 358.607 Q70.7142 355.945 68.8161 354.533 Q66.9411 353.097 63.4226 353.097 Q61.5013 353.097 59.3023 353.514 Q57.1032 353.931 54.4643 354.81 L54.4643 350.644 Q57.1264 349.903 59.4412 349.533 Q61.7791 349.162 63.8393 349.162 Q69.1633 349.162 72.2652 351.593 Q75.367 354 75.367 358.12 Q75.367 360.991 73.7235 362.982 Q72.08 364.949 69.0476 365.713 Z" fill="#000000" fill-rule="nonzero" fill-opacity="1" /><path clip-path="url(#clip640)" d="M66.5939 34.0381 L54.7884 52.4871 L66.5939 52.4871 L66.5939 34.0381 M65.367 29.9641 L71.2466 29.9641 L71.2466 52.4871 L76.1772 52.4871 L76.1772 56.376 L71.2466 56.376 L71.2466 64.5241 L66.5939 64.5241 L66.5939 56.376 L50.9921 56.376 L50.9921 51.8621 L65.367 29.9641 Z" fill="#000000" fill-rule="nonzero" fill-opacity="1" /><polyline clip-path="url(#clip642)" style="stroke:#009af9; stroke-linecap:round; stroke-linejoin:round; stroke-width:12; stroke-opacity:1; fill:none" points="175.59,47.2441 180.874,60.005 186.159,72.702 191.443,85.335 196.727,97.9041 202.012,110.409 207.296,122.85 212.58,135.227 217.865,147.541 223.149,159.79 228.434,171.975 233.718,184.096 239.002,196.154 244.287,208.147 249.571,220.076 254.856,231.942 260.14,243.743 265.424,255.481 270.709,267.154 275.993,278.764 281.277,290.31 286.562,301.791 291.846,313.209 297.131,324.563 302.415,335.852 307.699,347.078 312.984,358.24 318.268,369.338 323.553,380.372 328.837,391.342 334.121,402.248 339.406,413.09 344.69,423.868 349.974,434.582 355.259,445.232 360.543,455.818 365.828,466.34 371.112,476.798 376.396,487.193 381.681,497.523 386.965,507.789 392.25,517.992 397.534,528.13 402.818,538.204 408.103,548.215 413.387,558.161 418.671,568.044 423.956,577.863 429.24,587.617 434.525,597.308 439.809,606.934 445.093,616.497 450.378,625.996 455.662,635.431 460.947,644.802 466.231,654.108 471.515,663.351 476.8,672.53 482.084,681.645 487.368,690.696 492.653,699.683 497.937,708.606 503.222,717.465 508.506,726.26 513.79,734.992 519.075,743.659 524.359,752.262 529.643,760.801 534.928,769.277 540.212,777.688 545.497,786.035 550.781,794.319 556.065,802.538 561.35,810.694 566.634,818.785 571.919,826.813 577.203,834.776 582.487,842.676 587.772,850.512 593.056,858.283 598.34,865.991 603.625,873.635 608.909,881.215 614.194,888.731 619.478,896.182 624.762,903.57 630.047,910.894 635.331,918.154 640.616,925.35 645.9,932.482 651.184,939.55 656.469,946.555 661.753,953.495 667.037,960.371 672.322,967.183 677.606,973.931 682.891,980.616 688.175,987.236 693.459,993.792 698.744,1000.28 704.028,1006.71 709.313,1013.08 714.597,1019.38 719.881,1025.61 725.166,1031.79 730.45,1037.9 735.734,1043.94 741.019,1049.92 746.303,1055.84 751.588,1061.69 756.872,1067.48 762.156,1073.2 767.441,1078.87 772.725,1084.46 778.01,1090 783.294,1095.46 788.578,1100.87 793.863,1106.21 799.147,1111.49 804.431,1116.7 809.716,1121.85 815,1126.93 820.285,1131.96 825.569,1136.91 830.853,1141.81 836.138,1146.64 841.422,1151.4 846.707,1156.1 851.991,1160.74 857.275,1165.31 862.56,1169.82 867.844,1174.27 873.128,1178.65 878.413,1182.97 883.697,1187.22 888.982,1191.41 894.266,1195.54 899.55,1199.6 904.835,1203.6 910.119,1207.53 915.404,1211.4 920.688,1215.21 925.972,1218.95 931.257,1222.63 936.541,1226.24 941.825,1229.79 947.11,1233.28 952.394,1236.7 957.679,1240.06 962.963,1243.35 968.247,1246.58 973.532,1249.75 978.816,1252.85 984.101,1255.89 989.385,1258.86 994.669,1261.77 999.954,1264.62 1005.24,1267.4 1010.52,1270.12 1015.81,1272.77 1021.09,1275.36 1026.38,1277.89 1031.66,1280.35 1036.94,1282.75 1042.23,1285.09 1047.51,1287.36 1052.8,1289.56 1058.08,1291.71 1063.37,1293.79 1068.65,1295.8 1073.94,1297.75 1079.22,1299.64 1084.5,1301.46 1089.79,1303.22 1095.07,1304.92 1100.36,1306.55 1105.64,1308.11 1110.93,1309.62 1116.21,1311.06 1121.49,1312.43 1126.78,1313.74 1132.06,1314.99 1137.35,1316.17 1142.63,1317.29 1147.92,1318.35 1153.2,1319.34 1158.49,1320.27 1163.77,1321.13 1169.05,1321.93 1174.34,1322.67 1179.62,1323.34 1184.91,1323.95 1190.19,1324.49 1195.48,1324.97 1200.76,1325.38 1206.04,1325.74 1211.33,1326.02 1216.61,1326.25 1221.9,1326.41 1227.18,1326.5 1232.47,1326.54 1237.75,1326.5 1243.04,1326.41 1248.32,1326.25 1253.6,1326.02 1258.89,1325.74 1264.17,1325.38 1269.46,1324.97 1274.74,1324.49 1280.03,1323.95 1285.31,1323.34 1290.59,1322.67 1295.88,1321.93 1301.16,1321.13 1306.45,1320.27 1311.73,1319.34 1317.02,1318.35 1322.3,1317.29 1327.59,1316.17 1332.87,1314.99 1338.15,1313.74 1343.44,1312.43 1348.72,1311.06 1354.01,1309.62 1359.29,1308.11 1364.58,1306.55 1369.86,1304.92 1375.14,1303.22 1380.43,1301.46 1385.71,1299.64 1391,1297.75 1396.28,1295.8 1401.57,1293.79 1406.85,1291.71 1412.14,1289.56 1417.42,1287.36 1422.7,1285.09 1427.99,1282.75 1433.27,1280.35 1438.56,1277.89 1443.84,1275.36 1449.13,1272.77 1454.41,1270.12 1459.7,1267.4 1464.98,1264.62 1470.26,1261.77 1475.55,1258.86 1480.83,1255.89 1486.12,1252.85 1491.4,1249.75 1496.69,1246.58 1501.97,1243.35 1507.25,1240.06 1512.54,1236.7 1517.82,1233.28 1523.11,1229.79 1528.39,1226.24 1533.68,1222.63 1538.96,1218.95 1544.25,1215.21 1549.53,1211.4 1554.81,1207.53 1560.1,1203.6 1565.38,1199.6 1570.67,1195.54 1575.95,1191.41 1581.24,1187.22 1586.52,1182.97 1591.8,1178.65 1597.09,1174.27 1602.37,1169.82 1607.66,1165.31 1612.94,1160.74 1618.23,1156.1 1623.51,1151.4 1628.8,1146.64 1634.08,1141.81 1639.36,1136.91 1644.65,1131.96 1649.93,1126.93 1655.22,1121.85 1660.5,1116.7 1665.79,1111.49 1671.07,1106.21 1676.35,1100.87 1681.64,1095.46 1686.92,1090 1692.21,1084.46 1697.49,1078.87 1702.78,1073.2 1708.06,1067.48 1713.35,1061.69 1718.63,1055.84 1723.91,1049.92 1729.2,1043.94 1734.48,1037.9 1739.77,1031.79 1745.05,1025.61 1750.34,1019.38 1755.62,1013.08 1760.9,1006.71 1766.19,1000.28 1771.47,993.792 1776.76,987.236 1782.04,980.616 1787.33,973.931 1792.61,967.183 1797.9,960.371 1803.18,953.495 1808.46,946.555 1813.75,939.55 1819.03,932.482 1824.32,925.35 1829.6,918.154 1834.89,910.894 1840.17,903.57 1845.46,896.182 1850.74,888.731 1856.02,881.215 1861.31,873.635 1866.59,865.991 1871.88,858.283 1877.16,850.512 1882.45,842.676 1887.73,834.776 1893.01,826.813 1898.3,818.785 1903.58,810.694 1908.87,802.538 1914.15,794.319 1919.44,786.035 1924.72,777.688 1930.01,769.277 1935.29,760.801 1940.57,752.262 1945.86,743.659 1951.14,734.992 1956.43,726.26 1961.71,717.465 1967,708.606 1972.28,699.683 1977.56,690.696 1982.85,681.645 1988.13,672.53 1993.42,663.351 1998.7,654.108 2003.99,644.802 2009.27,635.431 2014.56,625.996 2019.84,616.497 2025.12,606.934 2030.41,597.308 2035.69,587.617 2040.98,577.863 2046.26,568.044 2051.55,558.161 2056.83,548.215 2062.11,538.204 2067.4,528.13 2072.68,517.992 2077.97,507.789 2083.25,497.523 2088.54,487.193 2093.82,476.798 2099.11,466.34 2104.39,455.818 2109.67,445.232 2114.96,434.582 2120.24,423.868 2125.53,413.09 2130.81,402.248 2136.1,391.342 2141.38,380.372 2146.66,369.338 2151.95,358.24 2157.23,347.078 2162.52,335.852 2167.8,324.563 2173.09,313.209 2178.37,301.791 2183.66,290.31 2188.94,278.764 2194.22,267.154 2199.51,255.481 2204.79,243.743 2210.08,231.942 2215.36,220.076 2220.65,208.147 2225.93,196.154 2231.22,184.096 2236.5,171.975 2241.78,159.79 2247.07,147.541 2252.35,135.227 2257.64,122.85 2262.92,110.409 2268.21,97.9041 2273.49,85.335 2278.77,72.702 2284.06,60.005 2289.34,47.2441 "/>
</svg>
