<?xml version="1.0" encoding="utf-8"?>
<svg xmlns="http://www.w3.org/2000/svg" xmlns:xlink="http://www.w3.org/1999/xlink" width="600" height="400" viewBox="0 0 2400 1600">
<defs>
  <clipPath id="clip910">
    <rect x="0" y="0" width="2400" height="1600"/>
  </clipPath>
</defs>
<path clip-path="url(#clip910)" d="M0 1600 L2400 1600 L2400 0 L0 0  Z" fill="#ffffff" fill-rule="evenodd" fill-opacity="1"/>
<defs>
  <clipPath id="clip911">
    <rect x="480" y="0" width="1681" height="1600"/>
  </clipPath>
</defs>
<path clip-path="url(#clip910)" d="M193.936 1486.45 L2352.76 1486.45 L2352.76 47.2441 L193.936 47.2441  Z" fill="#ffffff" fill-rule="evenodd" fill-opacity="1"/>
<defs>
  <clipPath id="clip912">
    <rect x="193" y="47" width="2160" height="1440"/>
  </clipPath>
</defs>
<polyline clip-path="url(#clip912)" style="stroke:#000000; stroke-linecap:round; stroke-linejoin:round; stroke-width:2; stroke-opacity:0.1; fill:none" points="255.035,1486.45 255.035,47.2441 "/>
<polyline clip-path="url(#clip912)" style="stroke:#000000; stroke-linecap:round; stroke-linejoin:round; stroke-width:2; stroke-opacity:0.1; fill:none" points="579.173,1486.45 579.173,47.2441 "/>
<polyline clip-path="url(#clip912)" style="stroke:#000000; stroke-linecap:round; stroke-linejoin:round; stroke-width:2; stroke-opacity:0.1; fill:none" points="903.312,1486.45 903.312,47.2441 "/>
<polyline clip-path="url(#clip912)" style="stroke:#000000; stroke-linecap:round; stroke-linejoin:round; stroke-width:2; stroke-opacity:0.1; fill:none" points="1227.45,1486.45 1227.45,47.2441 "/>
<polyline clip-path="url(#clip912)" style="stroke:#000000; stroke-linecap:round; stroke-linejoin:round; stroke-width:2; stroke-opacity:0.1; fill:none" points="1551.59,1486.45 1551.59,47.2441 "/>
<polyline clip-path="url(#clip912)" style="stroke:#000000; stroke-linecap:round; stroke-linejoin:round; stroke-width:2; stroke-opacity:0.1; fill:none" points="1875.73,1486.45 1875.73,47.2441 "/>
<polyline clip-path="url(#clip912)" style="stroke:#000000; stroke-linecap:round; stroke-linejoin:round; stroke-width:2; stroke-opacity:0.1; fill:none" points="2199.87,1486.45 2199.87,47.2441 "/>
<polyline clip-path="url(#clip910)" style="stroke:#000000; stroke-linecap:round; stroke-linejoin:round; stroke-width:4; stroke-opacity:1; fill:none" points="193.936,1486.45 2352.76,1486.45 "/>
<polyline clip-path="url(#clip910)" style="stroke:#000000; stroke-linecap:round; stroke-linejoin:round; stroke-width:4; stroke-opacity:1; fill:none" points="255.035,1486.45 255.035,1467.55 "/>
<polyline clip-path="url(#clip910)" style="stroke:#000000; stroke-linecap:round; stroke-linejoin:round; stroke-width:4; stroke-opacity:1; fill:none" points="579.173,1486.45 579.173,1467.55 "/>
<polyline clip-path="url(#clip910)" style="stroke:#000000; stroke-linecap:round; stroke-linejoin:round; stroke-width:4; stroke-opacity:1; fill:none" points="903.312,1486.45 903.312,1467.55 "/>
<polyline clip-path="url(#clip910)" style="stroke:#000000; stroke-linecap:round; stroke-linejoin:round; stroke-width:4; stroke-opacity:1; fill:none" points="1227.45,1486.45 1227.45,1467.55 "/>
<polyline clip-path="url(#clip910)" style="stroke:#000000; stroke-linecap:round; stroke-linejoin:round; stroke-width:4; stroke-opacity:1; fill:none" points="1551.59,1486.45 1551.59,1467.55 "/>
<polyline clip-path="url(#clip910)" style="stroke:#000000; stroke-linecap:round; stroke-linejoin:round; stroke-width:4; stroke-opacity:1; fill:none" points="1875.73,1486.45 1875.73,1467.55 "/>
<polyline clip-path="url(#clip910)" style="stroke:#000000; stroke-linecap:round; stroke-linejoin:round; stroke-width:4; stroke-opacity:1; fill:none" points="2199.87,1486.45 2199.87,1467.55 "/>
<path clip-path="url(#clip910)" d="M255.035 1517.37 Q251.424 1517.37 249.595 1520.93 Q247.789 1524.47 247.789 1531.6 Q247.789 1538.71 249.595 1542.27 Q251.424 1545.82 255.035 1545.82 Q258.669 1545.82 260.474 1542.27 Q262.303 1538.71 262.303 1531.6 Q262.303 1524.47 260.474 1520.93 Q258.669 1517.37 255.035 1517.37 M255.035 1513.66 Q260.845 1513.66 263.9 1518.27 Q266.979 1522.85 266.979 1531.6 Q266.979 1540.33 263.9 1544.94 Q260.845 1549.52 255.035 1549.52 Q249.225 1549.52 246.146 1544.94 Q243.09 1540.33 243.09 1531.6 Q243.09 1522.85 246.146 1518.27 Q249.225 1513.66 255.035 1513.66 Z" fill="#000000" fill-rule="nonzero" fill-opacity="1" /><path clip-path="url(#clip910)" d="M569.555 1544.91 L577.194 1544.91 L577.194 1518.55 L568.884 1520.21 L568.884 1515.95 L577.148 1514.29 L581.824 1514.29 L581.824 1544.91 L589.463 1544.91 L589.463 1548.85 L569.555 1548.85 L569.555 1544.91 Z" fill="#000000" fill-rule="nonzero" fill-opacity="1" /><path clip-path="url(#clip910)" d="M897.965 1544.91 L914.284 1544.91 L914.284 1548.85 L892.34 1548.85 L892.34 1544.91 Q895.002 1542.16 899.585 1537.53 Q904.191 1532.88 905.372 1531.53 Q907.617 1529.01 908.497 1527.27 Q909.4 1525.51 909.4 1523.82 Q909.4 1521.07 907.455 1519.33 Q905.534 1517.6 902.432 1517.6 Q900.233 1517.6 897.779 1518.36 Q895.349 1519.13 892.571 1520.68 L892.571 1515.95 Q895.395 1514.82 897.849 1514.24 Q900.303 1513.66 902.34 1513.66 Q907.71 1513.66 910.904 1516.35 Q914.099 1519.03 914.099 1523.52 Q914.099 1525.65 913.289 1527.57 Q912.502 1529.47 910.395 1532.07 Q909.816 1532.74 906.715 1535.95 Q903.613 1539.15 897.965 1544.91 Z" fill="#000000" fill-rule="nonzero" fill-opacity="1" /><path clip-path="url(#clip910)" d="M1231.7 1530.21 Q1235.05 1530.93 1236.93 1533.2 Q1238.83 1535.47 1238.83 1538.8 Q1238.83 1543.92 1235.31 1546.72 Q1231.79 1549.52 1225.31 1549.52 Q1223.13 1549.52 1220.82 1549.08 Q1218.53 1548.66 1216.07 1547.81 L1216.07 1543.29 Q1218.02 1544.43 1220.33 1545.01 Q1222.65 1545.58 1225.17 1545.58 Q1229.57 1545.58 1231.86 1543.85 Q1234.17 1542.11 1234.17 1538.8 Q1234.17 1535.75 1232.02 1534.03 Q1229.89 1532.3 1226.07 1532.3 L1222.05 1532.3 L1222.05 1528.45 L1226.26 1528.45 Q1229.71 1528.45 1231.54 1527.09 Q1233.36 1525.7 1233.36 1523.11 Q1233.36 1520.45 1231.47 1519.03 Q1229.59 1517.6 1226.07 1517.6 Q1224.15 1517.6 1221.95 1518.01 Q1219.75 1518.43 1217.11 1519.31 L1217.11 1515.14 Q1219.78 1514.4 1222.09 1514.03 Q1224.43 1513.66 1226.49 1513.66 Q1231.81 1513.66 1234.92 1516.09 Q1238.02 1518.5 1238.02 1522.62 Q1238.02 1525.49 1236.37 1527.48 Q1234.73 1529.45 1231.7 1530.21 Z" fill="#000000" fill-rule="nonzero" fill-opacity="1" /><path clip-path="url(#clip910)" d="M1554.6 1518.36 L1542.79 1536.81 L1554.6 1536.81 L1554.6 1518.36 M1553.37 1514.29 L1559.25 1514.29 L1559.25 1536.81 L1564.18 1536.81 L1564.18 1540.7 L1559.25 1540.7 L1559.25 1548.85 L1554.6 1548.85 L1554.6 1540.7 L1539 1540.7 L1539 1536.19 L1553.37 1514.29 Z" fill="#000000" fill-rule="nonzero" fill-opacity="1" /><path clip-path="url(#clip910)" d="M1866.01 1514.29 L1884.36 1514.29 L1884.36 1518.22 L1870.29 1518.22 L1870.29 1526.7 Q1871.31 1526.35 1872.32 1526.19 Q1873.34 1526 1874.36 1526 Q1880.15 1526 1883.53 1529.17 Q1886.91 1532.34 1886.91 1537.76 Q1886.91 1543.34 1883.44 1546.44 Q1879.96 1549.52 1873.64 1549.52 Q1871.47 1549.52 1869.2 1549.15 Q1866.95 1548.78 1864.55 1548.04 L1864.55 1543.34 Q1866.63 1544.47 1868.85 1545.03 Q1871.07 1545.58 1873.55 1545.58 Q1877.56 1545.58 1879.89 1543.48 Q1882.23 1541.37 1882.23 1537.76 Q1882.23 1534.15 1879.89 1532.04 Q1877.56 1529.94 1873.55 1529.94 Q1871.68 1529.94 1869.8 1530.35 Q1867.95 1530.77 1866.01 1531.65 L1866.01 1514.29 Z" fill="#000000" fill-rule="nonzero" fill-opacity="1" /><path clip-path="url(#clip910)" d="M2200.27 1529.7 Q2197.12 1529.7 2195.27 1531.86 Q2193.44 1534.01 2193.44 1537.76 Q2193.44 1541.49 2195.27 1543.66 Q2197.12 1545.82 2200.27 1545.82 Q2203.42 1545.82 2205.25 1543.66 Q2207.1 1541.49 2207.1 1537.76 Q2207.1 1534.01 2205.25 1531.86 Q2203.42 1529.7 2200.27 1529.7 M2209.55 1515.05 L2209.55 1519.31 Q2207.79 1518.48 2205.99 1518.04 Q2204.21 1517.6 2202.45 1517.6 Q2197.82 1517.6 2195.36 1520.72 Q2192.93 1523.85 2192.59 1530.17 Q2193.95 1528.15 2196.01 1527.09 Q2198.07 1526 2200.55 1526 Q2205.76 1526 2208.77 1529.17 Q2211.8 1532.32 2211.8 1537.76 Q2211.8 1543.08 2208.65 1546.3 Q2205.5 1549.52 2200.27 1549.52 Q2194.28 1549.52 2191.1 1544.94 Q2187.93 1540.33 2187.93 1531.6 Q2187.93 1523.41 2191.82 1518.55 Q2195.71 1513.66 2202.26 1513.66 Q2204.02 1513.66 2205.8 1514.01 Q2207.61 1514.36 2209.55 1515.05 Z" fill="#000000" fill-rule="nonzero" fill-opacity="1" /><polyline clip-path="url(#clip912)" style="stroke:#000000; stroke-linecap:round; stroke-linejoin:round; stroke-width:2; stroke-opacity:0.1; fill:none" points="193.936,1445.72 2352.76,1445.72 "/>
<polyline clip-path="url(#clip912)" style="stroke:#000000; stroke-linecap:round; stroke-linejoin:round; stroke-width:2; stroke-opacity:0.1; fill:none" points="193.936,1106.28 2352.76,1106.28 "/>
<polyline clip-path="url(#clip912)" style="stroke:#000000; stroke-linecap:round; stroke-linejoin:round; stroke-width:2; stroke-opacity:0.1; fill:none" points="193.936,766.847 2352.76,766.847 "/>
<polyline clip-path="url(#clip912)" style="stroke:#000000; stroke-linecap:round; stroke-linejoin:round; stroke-width:2; stroke-opacity:0.1; fill:none" points="193.936,427.411 2352.76,427.411 "/>
<polyline clip-path="url(#clip912)" style="stroke:#000000; stroke-linecap:round; stroke-linejoin:round; stroke-width:2; stroke-opacity:0.1; fill:none" points="193.936,87.9761 2352.76,87.9761 "/>
<polyline clip-path="url(#clip910)" style="stroke:#000000; stroke-linecap:round; stroke-linejoin:round; stroke-width:4; stroke-opacity:1; fill:none" points="193.936,1486.45 193.936,47.2441 "/>
<polyline clip-path="url(#clip910)" style="stroke:#000000; stroke-linecap:round; stroke-linejoin:round; stroke-width:4; stroke-opacity:1; fill:none" points="193.936,1445.72 212.834,1445.72 "/>
<polyline clip-path="url(#clip910)" style="stroke:#000000; stroke-linecap:round; stroke-linejoin:round; stroke-width:4; stroke-opacity:1; fill:none" points="193.936,1106.28 212.834,1106.28 "/>
<polyline clip-path="url(#clip910)" style="stroke:#000000; stroke-linecap:round; stroke-linejoin:round; stroke-width:4; stroke-opacity:1; fill:none" points="193.936,766.847 212.834,766.847 "/>
<polyline clip-path="url(#clip910)" style="stroke:#000000; stroke-linecap:round; stroke-linejoin:round; stroke-width:4; stroke-opacity:1; fill:none" points="193.936,427.411 212.834,427.411 "/>
<polyline clip-path="url(#clip910)" style="stroke:#000000; stroke-linecap:round; stroke-linejoin:round; stroke-width:4; stroke-opacity:1; fill:none" points="193.936,87.9761 212.834,87.9761 "/>
<path clip-path="url(#clip910)" d="M50.9921 1446.17 L80.6679 1446.17 L80.6679 1450.1 L50.9921 1450.1 L50.9921 1446.17 Z" fill="#000000" fill-rule="nonzero" fill-opacity="1" /><path clip-path="url(#clip910)" d="M91.5706 1459.06 L99.2095 1459.06 L99.2095 1432.7 L90.8993 1434.36 L90.8993 1430.1 L99.1632 1428.44 L103.839 1428.44 L103.839 1459.06 L111.478 1459.06 L111.478 1463 L91.5706 1463 L91.5706 1459.06 Z" fill="#000000" fill-rule="nonzero" fill-opacity="1" /><path clip-path="url(#clip910)" d="M120.922 1457.12 L125.807 1457.12 L125.807 1463 L120.922 1463 L120.922 1457.12 Z" fill="#000000" fill-rule="nonzero" fill-opacity="1" /><path clip-path="url(#clip910)" d="M145.992 1431.52 Q142.381 1431.52 140.552 1435.08 Q138.746 1438.62 138.746 1445.75 Q138.746 1452.86 140.552 1456.42 Q142.381 1459.97 145.992 1459.97 Q149.626 1459.97 151.431 1456.42 Q153.26 1452.86 153.26 1445.75 Q153.26 1438.62 151.431 1435.08 Q149.626 1431.52 145.992 1431.52 M145.992 1427.81 Q151.802 1427.81 154.857 1432.42 Q157.936 1437 157.936 1445.75 Q157.936 1454.48 154.857 1459.09 Q151.802 1463.67 145.992 1463.67 Q140.181 1463.67 137.103 1459.09 Q134.047 1454.48 134.047 1445.75 Q134.047 1437 137.103 1432.42 Q140.181 1427.81 145.992 1427.81 Z" fill="#000000" fill-rule="nonzero" fill-opacity="1" /><path clip-path="url(#clip910)" d="M51.9875 1106.73 L81.6633 1106.73 L81.6633 1110.67 L51.9875 1110.67 L51.9875 1106.73 Z" fill="#000000" fill-rule="nonzero" fill-opacity="1" /><path clip-path="url(#clip910)" d="M101.756 1092.08 Q98.1447 1092.08 96.316 1095.65 Q94.5104 1099.19 94.5104 1106.32 Q94.5104 1113.42 96.316 1116.99 Q98.1447 1120.53 101.756 1120.53 Q105.39 1120.53 107.196 1116.99 Q109.024 1113.42 109.024 1106.32 Q109.024 1099.19 107.196 1095.65 Q105.39 1092.08 101.756 1092.08 M101.756 1088.38 Q107.566 1088.38 110.621 1092.98 Q113.7 1097.57 113.7 1106.32 Q113.7 1115.04 110.621 1119.65 Q107.566 1124.23 101.756 1124.23 Q95.9456 1124.23 92.8669 1119.65 Q89.8114 1115.04 89.8114 1106.32 Q89.8114 1097.57 92.8669 1092.98 Q95.9456 1088.38 101.756 1088.38 Z" fill="#000000" fill-rule="nonzero" fill-opacity="1" /><path clip-path="url(#clip910)" d="M121.918 1117.68 L126.802 1117.68 L126.802 1123.56 L121.918 1123.56 L121.918 1117.68 Z" fill="#000000" fill-rule="nonzero" fill-opacity="1" /><path clip-path="url(#clip910)" d="M137.033 1089 L155.39 1089 L155.39 1092.94 L141.316 1092.94 L141.316 1101.41 Q142.334 1101.06 143.353 1100.9 Q144.371 1100.72 145.39 1100.72 Q151.177 1100.72 154.556 1103.89 Q157.936 1107.06 157.936 1112.47 Q157.936 1118.05 154.464 1121.15 Q150.992 1124.23 144.672 1124.23 Q142.496 1124.23 140.228 1123.86 Q137.982 1123.49 135.575 1122.75 L135.575 1118.05 Q137.658 1119.19 139.881 1119.74 Q142.103 1120.3 144.58 1120.3 Q148.584 1120.3 150.922 1118.19 Q153.26 1116.09 153.26 1112.47 Q153.26 1108.86 150.922 1106.76 Q148.584 1104.65 144.58 1104.65 Q142.705 1104.65 140.83 1105.07 Q138.978 1105.48 137.033 1106.36 L137.033 1089 Z" fill="#000000" fill-rule="nonzero" fill-opacity="1" /><path clip-path="url(#clip910)" d="M100.76 752.646 Q97.1493 752.646 95.3206 756.21 Q93.515 759.752 93.515 766.882 Q93.515 773.988 95.3206 777.553 Q97.1493 781.094 100.76 781.094 Q104.395 781.094 106.2 777.553 Q108.029 773.988 108.029 766.882 Q108.029 759.752 106.2 756.21 Q104.395 752.646 100.76 752.646 M100.76 748.942 Q106.571 748.942 109.626 753.548 Q112.705 758.132 112.705 766.882 Q112.705 775.608 109.626 780.215 Q106.571 784.798 100.76 784.798 Q94.9502 784.798 91.8715 780.215 Q88.816 775.608 88.816 766.882 Q88.816 758.132 91.8715 753.548 Q94.9502 748.942 100.76 748.942 Z" fill="#000000" fill-rule="nonzero" fill-opacity="1" /><path clip-path="url(#clip910)" d="M120.922 778.247 L125.807 778.247 L125.807 784.127 L120.922 784.127 L120.922 778.247 Z" fill="#000000" fill-rule="nonzero" fill-opacity="1" /><path clip-path="url(#clip910)" d="M145.992 752.646 Q142.381 752.646 140.552 756.21 Q138.746 759.752 138.746 766.882 Q138.746 773.988 140.552 777.553 Q142.381 781.094 145.992 781.094 Q149.626 781.094 151.431 777.553 Q153.26 773.988 153.26 766.882 Q153.26 759.752 151.431 756.21 Q149.626 752.646 145.992 752.646 M145.992 748.942 Q151.802 748.942 154.857 753.548 Q157.936 758.132 157.936 766.882 Q157.936 775.608 154.857 780.215 Q151.802 784.798 145.992 784.798 Q140.181 784.798 137.103 780.215 Q134.047 775.608 134.047 766.882 Q134.047 758.132 137.103 753.548 Q140.181 748.942 145.992 748.942 Z" fill="#000000" fill-rule="nonzero" fill-opacity="1" /><path clip-path="url(#clip910)" d="M101.756 413.21 Q98.1447 413.21 96.316 416.775 Q94.5104 420.317 94.5104 427.446 Q94.5104 434.553 96.316 438.117 Q98.1447 441.659 101.756 441.659 Q105.39 441.659 107.196 438.117 Q109.024 434.553 109.024 427.446 Q109.024 420.317 107.196 416.775 Q105.39 413.21 101.756 413.21 M101.756 409.506 Q107.566 409.506 110.621 414.113 Q113.7 418.696 113.7 427.446 Q113.7 436.173 110.621 440.779 Q107.566 445.363 101.756 445.363 Q95.9456 445.363 92.8669 440.779 Q89.8114 436.173 89.8114 427.446 Q89.8114 418.696 92.8669 414.113 Q95.9456 409.506 101.756 409.506 Z" fill="#000000" fill-rule="nonzero" fill-opacity="1" /><path clip-path="url(#clip910)" d="M121.918 438.812 L126.802 438.812 L126.802 444.691 L121.918 444.691 L121.918 438.812 Z" fill="#000000" fill-rule="nonzero" fill-opacity="1" /><path clip-path="url(#clip910)" d="M137.033 410.131 L155.39 410.131 L155.39 414.067 L141.316 414.067 L141.316 422.539 Q142.334 422.192 143.353 422.03 Q144.371 421.844 145.39 421.844 Q151.177 421.844 154.556 425.016 Q157.936 428.187 157.936 433.604 Q157.936 439.182 154.464 442.284 Q150.992 445.363 144.672 445.363 Q142.496 445.363 140.228 444.992 Q137.982 444.622 135.575 443.881 L135.575 439.182 Q137.658 440.316 139.881 440.872 Q142.103 441.428 144.58 441.428 Q148.584 441.428 150.922 439.321 Q153.26 437.215 153.26 433.604 Q153.26 429.992 150.922 427.886 Q148.584 425.78 144.58 425.78 Q142.705 425.78 140.83 426.196 Q138.978 426.613 137.033 427.492 L137.033 410.131 Z" fill="#000000" fill-rule="nonzero" fill-opacity="1" /><path clip-path="url(#clip910)" d="M91.5706 101.321 L99.2095 101.321 L99.2095 74.9553 L90.8993 76.622 L90.8993 72.3627 L99.1632 70.6961 L103.839 70.6961 L103.839 101.321 L111.478 101.321 L111.478 105.256 L91.5706 105.256 L91.5706 101.321 Z" fill="#000000" fill-rule="nonzero" fill-opacity="1" /><path clip-path="url(#clip910)" d="M120.922 99.3765 L125.807 99.3765 L125.807 105.256 L120.922 105.256 L120.922 99.3765 Z" fill="#000000" fill-rule="nonzero" fill-opacity="1" /><path clip-path="url(#clip910)" d="M145.992 73.7747 Q142.381 73.7747 140.552 77.3395 Q138.746 80.8812 138.746 88.0108 Q138.746 95.1172 140.552 98.682 Q142.381 102.224 145.992 102.224 Q149.626 102.224 151.431 98.682 Q153.26 95.1172 153.26 88.0108 Q153.26 80.8812 151.431 77.3395 Q149.626 73.7747 145.992 73.7747 M145.992 70.0711 Q151.802 70.0711 154.857 74.6775 Q157.936 79.2608 157.936 88.0108 Q157.936 96.7376 154.857 101.344 Q151.802 105.927 145.992 105.927 Q140.181 105.927 137.103 101.344 Q134.047 96.7376 134.047 88.0108 Q134.047 79.2608 137.103 74.6775 Q140.181 70.0711 145.992 70.0711 Z" fill="#000000" fill-rule="nonzero" fill-opacity="1" /><polyline clip-path="url(#clip912)" style="stroke:#009af9; stroke-linecap:round; stroke-linejoin:round; stroke-width:4; stroke-opacity:1; fill:none" points="255.035,766.847 258.276,760.058 261.517,753.27 264.759,746.484 268,739.699 271.242,732.917 274.483,726.139 277.724,719.365 280.966,712.595 284.207,705.831 287.449,699.073 290.69,692.322 293.931,685.578 297.173,678.842 300.414,672.115 303.655,665.398 306.897,658.69 310.138,651.994 313.38,645.309 316.621,638.636 319.862,631.976 323.104,625.33 326.345,618.697 329.587,612.08 332.828,605.477 336.069,598.892 339.311,592.322 342.552,585.771 345.793,579.237 349.035,572.722 352.276,566.227 355.518,559.751 358.759,553.297 362,546.864 365.242,540.452 368.483,534.064 371.725,527.698 374.966,521.357 378.207,515.04 381.449,508.748 384.69,502.482 387.931,496.243 391.173,490.03 394.414,483.845 397.656,477.689 400.897,471.561 404.138,465.463 407.38,459.396 410.621,453.358 413.863,447.353 417.104,441.379 420.345,435.438 423.587,429.529 426.828,423.655 430.069,417.815 433.311,412.01 436.552,406.24 439.794,400.506 443.035,394.809 446.276,389.15 449.518,383.528 452.759,377.944 456.001,372.399 459.242,366.894 462.483,361.428 465.725,356.003 468.966,350.62 472.208,345.278 475.449,339.978 478.69,334.72 481.932,329.506 485.173,324.336 488.414,319.21 491.656,314.129 494.897,309.092 498.139,304.102 501.38,299.158 504.621,294.261 507.863,289.411 511.104,284.609 514.346,279.855 517.587,275.149 520.828,270.493 524.07,265.887 527.311,261.33 530.552,256.825 533.794,252.37 537.035,247.966 540.277,243.615 543.518,239.316 546.759,235.069 550.001,230.876 553.242,226.736 556.484,222.65 559.725,218.619 562.966,214.643 566.208,210.722 569.449,206.856 572.69,203.046 575.932,199.293 579.173,195.597 582.415,191.957 585.656,188.376 588.897,184.852 592.139,181.386 595.38,177.979 598.622,174.63 601.863,171.341 605.104,168.111 608.346,164.942 611.587,161.832 614.828,158.783 618.07,155.795 621.311,152.868 624.553,150.002 627.794,147.198 631.035,144.456 634.277,141.776 637.518,139.159 640.76,136.604 644.001,134.113 647.242,131.684 650.484,129.32 653.725,127.019 656.966,124.782 660.208,122.609 663.449,120.501 666.691,118.457 669.932,116.478 673.173,114.564 676.415,112.715 679.656,110.932 682.898,109.214 686.139,107.563 689.38,105.977 692.622,104.457 695.863,103.003 699.104,101.616 702.346,100.295 705.587,99.0411 708.829,97.8538 712.07,96.7334 715.311,95.68 718.553,94.6938 721.794,93.7747 725.036,92.923 728.277,92.1387 731.518,91.4218 734.76,90.7724 738.001,90.1907 741.242,89.6766 744.484,89.2303 747.725,88.8517 750.967,88.5409 754.208,88.298 757.449,88.1229 760.691,88.0156 763.932,87.9763 767.174,88.0048 770.415,88.1012 773.656,88.2655 776.898,88.4977 780.139,88.7977 783.381,89.1655 786.622,89.601 789.863,90.1043 793.105,90.6753 796.346,91.3138 799.587,92.02 802.829,92.7936 806.07,93.6346 809.312,94.5429 812.553,95.5185 815.794,96.5612 819.036,97.6709 822.277,98.8475 825.519,100.091 828.76,101.401 832.001,102.778 835.243,104.221 838.484,105.73 841.725,107.306 844.967,108.947 848.208,110.654 851.45,112.427 854.691,114.265 857.932,116.169 861.174,118.137 864.415,120.171 867.657,122.269 870.898,124.431 874.139,126.658 877.381,128.949 880.622,131.304 883.863,133.722 887.105,136.203 890.346,138.748 893.588,141.355 896.829,144.025 900.07,146.757 903.312,149.551 906.553,152.407 909.795,155.325 913.036,158.303 916.277,161.343 919.519,164.442 922.76,167.603 926.001,170.823 929.243,174.102 932.484,177.441 935.726,180.839 938.967,184.296 942.208,187.81 945.45,191.383 948.691,195.013 951.933,198.701 955.174,202.445 958.415,206.246 961.657,210.102 964.898,214.015 968.139,217.982 971.381,222.005 974.622,226.082 977.864,230.213 981.105,234.398 984.346,238.636 987.588,242.927 990.829,247.27 994.071,251.665 997.312,256.112 1000.55,260.609 1003.79,265.158 1007.04,269.756 1010.28,274.405 1013.52,279.102 1016.76,283.848 1020,288.643 1023.24,293.485 1026.48,298.375 1029.73,303.312 1032.97,308.295 1036.21,313.323 1039.45,318.398 1042.69,323.517 1045.93,328.68 1049.17,333.887 1052.42,339.137 1055.66,344.431 1058.9,349.766 1062.14,355.143 1065.38,360.562 1068.62,366.021 1071.86,371.52 1075.11,377.058 1078.35,382.636 1081.59,388.252 1084.83,393.905 1088.07,399.597 1091.31,405.324 1094.55,411.088 1097.79,416.888 1101.04,422.723 1104.28,428.592 1107.52,434.494 1110.76,440.43 1114,446.399 1117.24,452.4 1120.48,458.432 1123.73,464.495 1126.97,470.588 1130.21,476.711 1133.45,482.863 1136.69,489.043 1139.93,495.251 1143.17,501.487 1146.42,507.748 1149.66,514.036 1152.9,520.349 1156.14,526.687 1159.38,533.048 1162.62,539.433 1165.86,545.841 1169.11,552.271 1172.35,558.722 1175.59,565.194 1178.83,571.686 1182.07,578.198 1185.31,584.729 1188.55,591.278 1191.8,597.844 1195.04,604.427 1198.28,611.027 1201.52,617.642 1204.76,624.272 1208,630.917 1211.24,637.574 1214.48,644.245 1217.73,650.928 1220.97,657.623 1224.21,664.329 1227.45,671.045 1230.69,677.77 1233.93,684.504 1237.17,691.247 1240.42,697.997 1243.66,704.754 1246.9,711.517 1250.14,718.286 1253.38,725.06 1256.62,731.838 1259.86,738.619 1263.11,745.403 1266.35,752.189 1269.59,758.977 1272.83,765.766 1276.07,772.554 1279.31,779.342 1282.55,786.129 1285.8,792.914 1289.04,799.696 1292.28,806.475 1295.52,813.25 1298.76,820.021 1302,826.786 1305.24,833.545 1308.48,840.297 1311.73,847.042 1314.97,853.779 1318.21,860.508 1321.45,867.227 1324.69,873.936 1327.93,880.634 1331.17,887.321 1334.42,893.996 1337.66,900.658 1340.9,907.307 1344.14,913.941 1347.38,920.561 1350.62,927.166 1353.86,933.754 1357.11,940.326 1360.35,946.881 1363.59,953.417 1366.83,959.935 1370.07,966.434 1373.31,972.912 1376.55,979.37 1379.8,985.807 1383.04,992.222 1386.28,998.614 1389.52,1004.98 1392.76,1011.33 1396,1017.65 1399.24,1023.95 1402.49,1030.22 1405.73,1036.46 1408.97,1042.68 1412.21,1048.87 1415.45,1055.03 1418.69,1061.16 1421.93,1067.26 1425.17,1073.33 1428.42,1079.38 1431.66,1085.39 1434.9,1091.37 1438.14,1097.31 1441.38,1103.23 1444.62,1109.11 1447.86,1114.95 1451.11,1120.76 1454.35,1126.54 1457.59,1132.28 1460.83,1137.98 1464.07,1143.65 1467.31,1149.27 1470.55,1154.86 1473.8,1160.41 1477.04,1165.93 1480.28,1171.4 1483.52,1176.83 1486.76,1182.22 1490,1187.57 1493.24,1192.87 1496.49,1198.14 1499.73,1203.36 1502.97,1208.54 1506.21,1213.67 1509.45,1218.76 1512.69,1223.8 1515.93,1228.8 1519.18,1233.75 1522.42,1238.66 1525.66,1243.51 1528.9,1248.32 1532.14,1253.09 1535.38,1257.8 1538.62,1262.46 1541.86,1267.08 1545.11,1271.64 1548.35,1276.15 1551.59,1280.62 1554.83,1285.03 1558.07,1289.39 1561.31,1293.7 1564.55,1297.95 1567.8,1302.15 1571.04,1306.3 1574.28,1310.4 1577.52,1314.44 1580.76,1318.42 1584,1322.35 1587.24,1326.23 1590.49,1330.04 1593.73,1333.81 1596.97,1337.51 1600.21,1341.16 1603.45,1344.75 1606.69,1348.28 1609.93,1351.76 1613.18,1355.18 1616.42,1358.53 1619.66,1361.83 1622.9,1365.07 1626.14,1368.25 1629.38,1371.37 1632.62,1374.43 1635.86,1377.43 1639.11,1380.36 1642.35,1383.24 1645.59,1386.05 1648.83,1388.81 1652.07,1391.49 1655.31,1394.12 1658.55,1396.69 1661.8,1399.19 1665.04,1401.63 1668.28,1404 1671.52,1406.31 1674.76,1408.56 1678,1410.74 1681.24,1412.86 1684.49,1414.92 1687.73,1416.91 1690.97,1418.83 1694.21,1420.69 1697.45,1422.48 1700.69,1424.21 1703.93,1425.87 1707.18,1427.47 1710.42,1429 1713.66,1430.46 1716.9,1431.86 1720.14,1433.19 1723.38,1434.46 1726.62,1435.66 1729.87,1436.79 1733.11,1437.85 1736.35,1438.85 1739.59,1439.78 1742.83,1440.64 1746.07,1441.43 1749.31,1442.16 1752.55,1442.82 1755.8,1443.41 1759.04,1443.94 1762.28,1444.4 1765.52,1444.79 1768.76,1445.11 1772,1445.36 1775.24,1445.55 1778.49,1445.67 1781.73,1445.72 1784.97,1445.7 1788.21,1445.61 1791.45,1445.46 1794.69,1445.24 1797.93,1444.95 1801.18,1444.59 1804.42,1444.17 1807.66,1443.67 1810.9,1443.11 1814.14,1442.49 1817.38,1441.79 1820.62,1441.03 1823.87,1440.2 1827.11,1439.3 1830.35,1438.34 1833.59,1437.3 1836.83,1436.2 1840.07,1435.04 1843.31,1433.81 1846.55,1432.51 1849.8,1431.14 1853.04,1429.71 1856.28,1428.21 1859.52,1426.64 1862.76,1425.01 1866,1423.32 1869.24,1421.55 1872.49,1419.73 1875.73,1417.83 1878.97,1415.87 1882.21,1413.85 1885.45,1411.76 1888.69,1409.61 1891.93,1407.39 1895.18,1405.11 1898.42,1402.77 1901.66,1400.36 1904.9,1397.89 1908.14,1395.36 1911.38,1392.76 1914.62,1390.1 1917.87,1387.38 1921.11,1384.59 1924.35,1381.75 1927.59,1378.84 1930.83,1375.87 1934.07,1372.84 1937.31,1369.75 1940.56,1366.6 1943.8,1363.39 1947.04,1360.12 1950.28,1356.79 1953.52,1353.4 1956.76,1349.95 1960,1346.45 1963.24,1342.88 1966.49,1339.26 1969.73,1335.58 1972.97,1331.85 1976.21,1328.06 1979.45,1324.21 1982.69,1320.31 1985.93,1316.35 1989.18,1312.33 1992.42,1308.26 1995.66,1304.14 1998.9,1299.97 2002.14,1295.74 2005.38,1291.45 2008.62,1287.12 2011.87,1282.73 2015.11,1278.29 2018.35,1273.8 2021.59,1269.26 2024.83,1264.67 2028.07,1260.03 2031.31,1255.34 2034.56,1250.6 2037.8,1245.82 2041.04,1240.98 2044.28,1236.1 2047.52,1231.17 2050.76,1226.2 2054,1221.17 2057.24,1216.11 2060.49,1211 2063.73,1205.84 2066.97,1200.64 2070.21,1195.4 2073.45,1190.11 2076.69,1184.78 2079.93,1179.41 2083.18,1174 2086.42,1168.55 2089.66,1163.05 2092.9,1157.52 2096.14,1151.95 2099.38,1146.34 2102.62,1140.69 2105.87,1135.01 2109.11,1129.28 2112.35,1123.53 2115.59,1117.73 2118.83,1111.9 2122.07,1106.04 2125.31,1100.14 2128.56,1094.21 2131.8,1088.25 2135.04,1082.25 2138.28,1076.22 2141.52,1070.17 2144.76,1064.08 2148,1057.96 2151.25,1051.81 2154.49,1045.64 2157.73,1039.43 2160.97,1033.2 2164.21,1026.94 2167.45,1020.66 2170.69,1014.35 2173.93,1008.02 2177.18,1001.66 2180.42,995.279 2183.66,988.875 2186.9,982.448 2190.14,976.001 2193.38,969.532 2196.62,963.043 2199.87,956.534 2203.11,950.006 2206.35,943.46 2209.59,936.896 2212.83,930.316 2216.07,923.719 2219.31,917.106 2222.56,910.478 2225.8,903.836 2229.04,897.18 2232.28,890.512 2235.52,883.83 2238.76,877.138 2242,870.434 2245.25,863.719 2248.49,856.995 2251.73,850.262 2254.97,843.521 2258.21,836.772 2261.45,830.016 2264.69,823.254 2267.94,816.486 2271.18,809.713 2274.42,802.936 2277.66,796.155 2280.9,789.371 2284.14,782.585 2287.38,775.798 2290.62,769.009 "/>
<polyline clip-path="url(#clip912)" style="stroke:#ff0000; stroke-linecap:round; stroke-linejoin:round; stroke-width:12; stroke-opacity:1; fill:none" points="255.035,766.847 594.472,178.928 933.909,178.928 1273.35,766.847 1612.78,1354.77 1952.22,1354.77 2291.66,766.847 "/>
<path clip-path="url(#clip912)" d="M255.035 766.847 L1612.78 1354.77 L1952.22 1354.77 L2291.66 766.847 L933.909 178.928 L594.472 178.928 L255.035 766.847 L255.035 766.847 L594.472 766.847 L933.909 766.847 L2291.66 766.847 L1952.22 766.847 L1612.78 766.847 L255.035 766.847  Z" fill="#ff0000" fill-rule="evenodd" fill-opacity="0.266667"/>
<polyline clip-path="url(#clip912)" style="stroke:#3da44d; stroke-linecap:round; stroke-linejoin:round; stroke-width:0; stroke-opacity:1; fill:none" points="255.035,766.847 1612.78,1354.77 1952.22,1354.77 2291.66,766.847 933.909,178.928 594.472,178.928 255.035,766.847 "/>
<circle clip-path="url(#clip912)" cx="255.035" cy="766.847" r="14.4" fill="#000000" fill-rule="evenodd" fill-opacity="1" stroke="none"/>
<circle clip-path="url(#clip912)" cx="400.508" cy="514.881" r="14.4" fill="#000000" fill-rule="evenodd" fill-opacity="1" stroke="none"/>
<circle clip-path="url(#clip912)" cx="545.981" cy="262.916" r="14.4" fill="#000000" fill-rule="evenodd" fill-opacity="1" stroke="none"/>
<circle clip-path="url(#clip912)" cx="691.454" cy="178.928" r="14.4" fill="#000000" fill-rule="evenodd" fill-opacity="1" stroke="none"/>
<circle clip-path="url(#clip912)" cx="836.927" cy="178.928" r="14.4" fill="#000000" fill-rule="evenodd" fill-opacity="1" stroke="none"/>
<circle clip-path="url(#clip912)" cx="982.4" cy="262.916" r="14.4" fill="#000000" fill-rule="evenodd" fill-opacity="1" stroke="none"/>
<circle clip-path="url(#clip912)" cx="1127.87" cy="514.881" r="14.4" fill="#000000" fill-rule="evenodd" fill-opacity="1" stroke="none"/>
<circle clip-path="url(#clip912)" cx="1273.35" cy="766.847" r="14.4" fill="#000000" fill-rule="evenodd" fill-opacity="1" stroke="none"/>
<circle clip-path="url(#clip912)" cx="1418.82" cy="1018.81" r="14.4" fill="#000000" fill-rule="evenodd" fill-opacity="1" stroke="none"/>
<circle clip-path="url(#clip912)" cx="1564.29" cy="1270.78" r="14.4" fill="#000000" fill-rule="evenodd" fill-opacity="1" stroke="none"/>
<circle clip-path="url(#clip912)" cx="1709.77" cy="1354.77" r="14.4" fill="#000000" fill-rule="evenodd" fill-opacity="1" stroke="none"/>
<circle clip-path="url(#clip912)" cx="1855.24" cy="1354.77" r="14.4" fill="#000000" fill-rule="evenodd" fill-opacity="1" stroke="none"/>
<circle clip-path="url(#clip912)" cx="2000.71" cy="1270.78" r="14.4" fill="#000000" fill-rule="evenodd" fill-opacity="1" stroke="none"/>
<circle clip-path="url(#clip912)" cx="2146.18" cy="1018.81" r="14.4" fill="#000000" fill-rule="evenodd" fill-opacity="1" stroke="none"/>
<circle clip-path="url(#clip912)" cx="2291.66" cy="766.847" r="14.4" fill="#000000" fill-rule="evenodd" fill-opacity="1" stroke="none"/>
</svg>
