<?xml version="1.0" encoding="utf-8"?>
<svg xmlns="http://www.w3.org/2000/svg" xmlns:xlink="http://www.w3.org/1999/xlink" width="600" height="400" viewBox="0 0 2400 1600">
<defs>
  <clipPath id="clip730">
    <rect x="0" y="0" width="2400" height="1600"/>
  </clipPath>
</defs>
<path clip-path="url(#clip730)" d="M0 1600 L2400 1600 L2400 0 L0 0  Z" fill="#ffffff" fill-rule="evenodd" fill-opacity="1"/>
<defs>
  <clipPath id="clip731">
    <rect x="480" y="0" width="1681" height="1600"/>
  </clipPath>
</defs>
<path clip-path="url(#clip730)" d="M193.936 1486.45 L2352.76 1486.45 L2352.76 47.2441 L193.936 47.2441  Z" fill="#ffffff" fill-rule="evenodd" fill-opacity="1"/>
<defs>
  <clipPath id="clip732">
    <rect x="193" y="47" width="2160" height="1440"/>
  </clipPath>
</defs>
<polyline clip-path="url(#clip732)" style="stroke:#000000; stroke-linecap:round; stroke-linejoin:round; stroke-width:2; stroke-opacity:0.1; fill:none" points="526.584,1486.45 526.584,47.2441 "/>
<polyline clip-path="url(#clip732)" style="stroke:#000000; stroke-linecap:round; stroke-linejoin:round; stroke-width:2; stroke-opacity:0.1; fill:none" points="933.909,1486.45 933.909,47.2441 "/>
<polyline clip-path="url(#clip732)" style="stroke:#000000; stroke-linecap:round; stroke-linejoin:round; stroke-width:2; stroke-opacity:0.1; fill:none" points="1341.23,1486.45 1341.23,47.2441 "/>
<polyline clip-path="url(#clip732)" style="stroke:#000000; stroke-linecap:round; stroke-linejoin:round; stroke-width:2; stroke-opacity:0.1; fill:none" points="1748.56,1486.45 1748.56,47.2441 "/>
<polyline clip-path="url(#clip732)" style="stroke:#000000; stroke-linecap:round; stroke-linejoin:round; stroke-width:2; stroke-opacity:0.1; fill:none" points="2155.88,1486.45 2155.88,47.2441 "/>
<polyline clip-path="url(#clip730)" style="stroke:#000000; stroke-linecap:round; stroke-linejoin:round; stroke-width:4; stroke-opacity:1; fill:none" points="193.936,1486.45 2352.76,1486.45 "/>
<polyline clip-path="url(#clip730)" style="stroke:#000000; stroke-linecap:round; stroke-linejoin:round; stroke-width:4; stroke-opacity:1; fill:none" points="526.584,1486.45 526.584,1467.55 "/>
<polyline clip-path="url(#clip730)" style="stroke:#000000; stroke-linecap:round; stroke-linejoin:round; stroke-width:4; stroke-opacity:1; fill:none" points="933.909,1486.45 933.909,1467.55 "/>
<polyline clip-path="url(#clip730)" style="stroke:#000000; stroke-linecap:round; stroke-linejoin:round; stroke-width:4; stroke-opacity:1; fill:none" points="1341.23,1486.45 1341.23,1467.55 "/>
<polyline clip-path="url(#clip730)" style="stroke:#000000; stroke-linecap:round; stroke-linejoin:round; stroke-width:4; stroke-opacity:1; fill:none" points="1748.56,1486.45 1748.56,1467.55 "/>
<polyline clip-path="url(#clip730)" style="stroke:#000000; stroke-linecap:round; stroke-linejoin:round; stroke-width:4; stroke-opacity:1; fill:none" points="2155.88,1486.45 2155.88,1467.55 "/>
<path clip-path="url(#clip730)" d="M504.293 1517.37 Q500.682 1517.37 498.853 1520.93 Q497.047 1524.47 497.047 1531.6 Q497.047 1538.71 498.853 1542.27 Q500.682 1545.82 504.293 1545.82 Q507.927 1545.82 509.733 1542.27 Q511.561 1538.71 511.561 1531.6 Q511.561 1524.47 509.733 1520.93 Q507.927 1517.37 504.293 1517.37 M504.293 1513.66 Q510.103 1513.66 513.158 1518.27 Q516.237 1522.85 516.237 1531.6 Q516.237 1540.33 513.158 1544.94 Q510.103 1549.52 504.293 1549.52 Q498.483 1549.52 495.404 1544.94 Q492.348 1540.33 492.348 1531.6 Q492.348 1522.85 495.404 1518.27 Q498.483 1513.66 504.293 1513.66 Z" fill="#000000" fill-rule="nonzero" fill-opacity="1" /><path clip-path="url(#clip730)" d="M524.455 1542.97 L529.339 1542.97 L529.339 1548.85 L524.455 1548.85 L524.455 1542.97 Z" fill="#000000" fill-rule="nonzero" fill-opacity="1" /><path clip-path="url(#clip730)" d="M553.691 1530.21 Q557.047 1530.93 558.922 1533.2 Q560.82 1535.47 560.82 1538.8 Q560.82 1543.92 557.302 1546.72 Q553.783 1549.52 547.302 1549.52 Q545.126 1549.52 542.811 1549.08 Q540.519 1548.66 538.066 1547.81 L538.066 1543.29 Q540.01 1544.43 542.325 1545.01 Q544.64 1545.58 547.163 1545.58 Q551.561 1545.58 553.853 1543.85 Q556.168 1542.11 556.168 1538.8 Q556.168 1535.75 554.015 1534.03 Q551.885 1532.3 548.066 1532.3 L544.038 1532.3 L544.038 1528.45 L548.251 1528.45 Q551.7 1528.45 553.529 1527.09 Q555.357 1525.7 555.357 1523.11 Q555.357 1520.45 553.459 1519.03 Q551.584 1517.6 548.066 1517.6 Q546.144 1517.6 543.945 1518.01 Q541.746 1518.43 539.107 1519.31 L539.107 1515.14 Q541.769 1514.4 544.084 1514.03 Q546.422 1513.66 548.482 1513.66 Q553.806 1513.66 556.908 1516.09 Q560.01 1518.5 560.01 1522.62 Q560.01 1525.49 558.367 1527.48 Q556.723 1529.45 553.691 1530.21 Z" fill="#000000" fill-rule="nonzero" fill-opacity="1" /><path clip-path="url(#clip730)" d="M911.212 1517.37 Q907.601 1517.37 905.772 1520.93 Q903.967 1524.47 903.967 1531.6 Q903.967 1538.71 905.772 1542.27 Q907.601 1545.82 911.212 1545.82 Q914.846 1545.82 916.652 1542.27 Q918.481 1538.71 918.481 1531.6 Q918.481 1524.47 916.652 1520.93 Q914.846 1517.37 911.212 1517.37 M911.212 1513.66 Q917.022 1513.66 920.078 1518.27 Q923.157 1522.85 923.157 1531.6 Q923.157 1540.33 920.078 1544.94 Q917.022 1549.52 911.212 1549.52 Q905.402 1549.52 902.323 1544.94 Q899.268 1540.33 899.268 1531.6 Q899.268 1522.85 902.323 1518.27 Q905.402 1513.66 911.212 1513.66 Z" fill="#000000" fill-rule="nonzero" fill-opacity="1" /><path clip-path="url(#clip730)" d="M931.374 1542.97 L936.258 1542.97 L936.258 1548.85 L931.374 1548.85 L931.374 1542.97 Z" fill="#000000" fill-rule="nonzero" fill-opacity="1" /><path clip-path="url(#clip730)" d="M957.022 1529.7 Q953.874 1529.7 952.022 1531.86 Q950.193 1534.01 950.193 1537.76 Q950.193 1541.49 952.022 1543.66 Q953.874 1545.82 957.022 1545.82 Q960.17 1545.82 961.999 1543.66 Q963.851 1541.49 963.851 1537.76 Q963.851 1534.01 961.999 1531.86 Q960.17 1529.7 957.022 1529.7 M966.305 1515.05 L966.305 1519.31 Q964.545 1518.48 962.74 1518.04 Q960.957 1517.6 959.198 1517.6 Q954.568 1517.6 952.115 1520.72 Q949.684 1523.85 949.337 1530.17 Q950.703 1528.15 952.763 1527.09 Q954.823 1526 957.3 1526 Q962.508 1526 965.517 1529.17 Q968.55 1532.32 968.55 1537.76 Q968.55 1543.08 965.402 1546.3 Q962.254 1549.52 957.022 1549.52 Q951.027 1549.52 947.856 1544.94 Q944.684 1540.33 944.684 1531.6 Q944.684 1523.41 948.573 1518.55 Q952.462 1513.66 959.013 1513.66 Q960.772 1513.66 962.555 1514.01 Q964.36 1514.36 966.305 1515.05 Z" fill="#000000" fill-rule="nonzero" fill-opacity="1" /><path clip-path="url(#clip730)" d="M1318.71 1517.37 Q1315.1 1517.37 1313.27 1520.93 Q1311.47 1524.47 1311.47 1531.6 Q1311.47 1538.71 1313.27 1542.27 Q1315.1 1545.82 1318.71 1545.82 Q1322.34 1545.82 1324.15 1542.27 Q1325.98 1538.71 1325.98 1531.6 Q1325.98 1524.47 1324.15 1520.93 Q1322.34 1517.37 1318.71 1517.37 M1318.71 1513.66 Q1324.52 1513.66 1327.58 1518.27 Q1330.65 1522.85 1330.65 1531.6 Q1330.65 1540.33 1327.58 1544.94 Q1324.52 1549.52 1318.71 1549.52 Q1312.9 1549.52 1309.82 1544.94 Q1306.77 1540.33 1306.77 1531.6 Q1306.77 1522.85 1309.82 1518.27 Q1312.9 1513.66 1318.71 1513.66 Z" fill="#000000" fill-rule="nonzero" fill-opacity="1" /><path clip-path="url(#clip730)" d="M1338.87 1542.97 L1343.76 1542.97 L1343.76 1548.85 L1338.87 1548.85 L1338.87 1542.97 Z" fill="#000000" fill-rule="nonzero" fill-opacity="1" /><path clip-path="url(#clip730)" d="M1354.08 1548.13 L1354.08 1543.87 Q1355.84 1544.7 1357.65 1545.14 Q1359.45 1545.58 1361.19 1545.58 Q1365.82 1545.58 1368.25 1542.48 Q1370.7 1539.36 1371.05 1533.01 Q1369.71 1535.01 1367.65 1536.07 Q1365.59 1537.13 1363.09 1537.13 Q1357.9 1537.13 1354.87 1534.01 Q1351.86 1530.86 1351.86 1525.42 Q1351.86 1520.1 1355.01 1516.88 Q1358.15 1513.66 1363.39 1513.66 Q1369.38 1513.66 1372.53 1518.27 Q1375.7 1522.85 1375.7 1531.6 Q1375.7 1539.77 1371.81 1544.66 Q1367.95 1549.52 1361.4 1549.52 Q1359.64 1549.52 1357.83 1549.17 Q1356.02 1548.82 1354.08 1548.13 M1363.39 1533.48 Q1366.53 1533.48 1368.36 1531.32 Q1370.21 1529.17 1370.21 1525.42 Q1370.21 1521.7 1368.36 1519.54 Q1366.53 1517.37 1363.39 1517.37 Q1360.24 1517.37 1358.39 1519.54 Q1356.56 1521.7 1356.56 1525.42 Q1356.56 1529.17 1358.39 1531.32 Q1360.24 1533.48 1363.39 1533.48 Z" fill="#000000" fill-rule="nonzero" fill-opacity="1" /><path clip-path="url(#clip730)" d="M1716.51 1544.91 L1724.15 1544.91 L1724.15 1518.55 L1715.84 1520.21 L1715.84 1515.95 L1724.1 1514.29 L1728.78 1514.29 L1728.78 1544.91 L1736.42 1544.91 L1736.42 1548.85 L1716.51 1548.85 L1716.51 1544.91 Z" fill="#000000" fill-rule="nonzero" fill-opacity="1" /><path clip-path="url(#clip730)" d="M1745.86 1542.97 L1750.75 1542.97 L1750.75 1548.85 L1745.86 1548.85 L1745.86 1542.97 Z" fill="#000000" fill-rule="nonzero" fill-opacity="1" /><path clip-path="url(#clip730)" d="M1764.96 1544.91 L1781.28 1544.91 L1781.28 1548.85 L1759.33 1548.85 L1759.33 1544.91 Q1762 1542.16 1766.58 1537.53 Q1771.19 1532.88 1772.37 1531.53 Q1774.61 1529.01 1775.49 1527.27 Q1776.39 1525.51 1776.39 1523.82 Q1776.39 1521.07 1774.45 1519.33 Q1772.53 1517.6 1769.43 1517.6 Q1767.23 1517.6 1764.77 1518.36 Q1762.34 1519.13 1759.56 1520.68 L1759.56 1515.95 Q1762.39 1514.82 1764.84 1514.24 Q1767.3 1513.66 1769.33 1513.66 Q1774.7 1513.66 1777.9 1516.35 Q1781.09 1519.03 1781.09 1523.52 Q1781.09 1525.65 1780.28 1527.57 Q1779.5 1529.47 1777.39 1532.07 Q1776.81 1532.74 1773.71 1535.95 Q1770.61 1539.15 1764.96 1544.91 Z" fill="#000000" fill-rule="nonzero" fill-opacity="1" /><path clip-path="url(#clip730)" d="M2123.53 1544.91 L2131.17 1544.91 L2131.17 1518.55 L2122.86 1520.21 L2122.86 1515.95 L2131.13 1514.29 L2135.8 1514.29 L2135.8 1544.91 L2143.44 1544.91 L2143.44 1548.85 L2123.53 1548.85 L2123.53 1544.91 Z" fill="#000000" fill-rule="nonzero" fill-opacity="1" /><path clip-path="url(#clip730)" d="M2152.88 1542.97 L2157.77 1542.97 L2157.77 1548.85 L2152.88 1548.85 L2152.88 1542.97 Z" fill="#000000" fill-rule="nonzero" fill-opacity="1" /><path clip-path="url(#clip730)" d="M2168 1514.29 L2186.36 1514.29 L2186.36 1518.22 L2172.28 1518.22 L2172.28 1526.7 Q2173.3 1526.35 2174.32 1526.19 Q2175.34 1526 2176.36 1526 Q2182.14 1526 2185.52 1529.17 Q2188.9 1532.34 2188.9 1537.76 Q2188.9 1543.34 2185.43 1546.44 Q2181.96 1549.52 2175.64 1549.52 Q2173.46 1549.52 2171.19 1549.15 Q2168.95 1548.78 2166.54 1548.04 L2166.54 1543.34 Q2168.63 1544.47 2170.85 1545.03 Q2173.07 1545.58 2175.55 1545.58 Q2179.55 1545.58 2181.89 1543.48 Q2184.23 1541.37 2184.23 1537.76 Q2184.23 1534.15 2181.89 1532.04 Q2179.55 1529.94 2175.55 1529.94 Q2173.67 1529.94 2171.8 1530.35 Q2169.94 1530.77 2168 1531.65 L2168 1514.29 Z" fill="#000000" fill-rule="nonzero" fill-opacity="1" /><polyline clip-path="url(#clip732)" style="stroke:#000000; stroke-linecap:round; stroke-linejoin:round; stroke-width:2; stroke-opacity:0.1; fill:none" points="193.936,1297.54 2352.76,1297.54 "/>
<polyline clip-path="url(#clip732)" style="stroke:#000000; stroke-linecap:round; stroke-linejoin:round; stroke-width:2; stroke-opacity:0.1; fill:none" points="193.936,1052.69 2352.76,1052.69 "/>
<polyline clip-path="url(#clip732)" style="stroke:#000000; stroke-linecap:round; stroke-linejoin:round; stroke-width:2; stroke-opacity:0.1; fill:none" points="193.936,807.838 2352.76,807.838 "/>
<polyline clip-path="url(#clip732)" style="stroke:#000000; stroke-linecap:round; stroke-linejoin:round; stroke-width:2; stroke-opacity:0.1; fill:none" points="193.936,562.988 2352.76,562.988 "/>
<polyline clip-path="url(#clip732)" style="stroke:#000000; stroke-linecap:round; stroke-linejoin:round; stroke-width:2; stroke-opacity:0.1; fill:none" points="193.936,318.138 2352.76,318.138 "/>
<polyline clip-path="url(#clip732)" style="stroke:#000000; stroke-linecap:round; stroke-linejoin:round; stroke-width:2; stroke-opacity:0.1; fill:none" points="193.936,73.287 2352.76,73.287 "/>
<polyline clip-path="url(#clip730)" style="stroke:#000000; stroke-linecap:round; stroke-linejoin:round; stroke-width:4; stroke-opacity:1; fill:none" points="193.936,1486.45 193.936,47.2441 "/>
<polyline clip-path="url(#clip730)" style="stroke:#000000; stroke-linecap:round; stroke-linejoin:round; stroke-width:4; stroke-opacity:1; fill:none" points="193.936,1297.54 212.834,1297.54 "/>
<polyline clip-path="url(#clip730)" style="stroke:#000000; stroke-linecap:round; stroke-linejoin:round; stroke-width:4; stroke-opacity:1; fill:none" points="193.936,1052.69 212.834,1052.69 "/>
<polyline clip-path="url(#clip730)" style="stroke:#000000; stroke-linecap:round; stroke-linejoin:round; stroke-width:4; stroke-opacity:1; fill:none" points="193.936,807.838 212.834,807.838 "/>
<polyline clip-path="url(#clip730)" style="stroke:#000000; stroke-linecap:round; stroke-linejoin:round; stroke-width:4; stroke-opacity:1; fill:none" points="193.936,562.988 212.834,562.988 "/>
<polyline clip-path="url(#clip730)" style="stroke:#000000; stroke-linecap:round; stroke-linejoin:round; stroke-width:4; stroke-opacity:1; fill:none" points="193.936,318.138 212.834,318.138 "/>
<polyline clip-path="url(#clip730)" style="stroke:#000000; stroke-linecap:round; stroke-linejoin:round; stroke-width:4; stroke-opacity:1; fill:none" points="193.936,73.287 212.834,73.287 "/>
<path clip-path="url(#clip730)" d="M50.9921 1297.99 L80.6679 1297.99 L80.6679 1301.93 L50.9921 1301.93 L50.9921 1297.99 Z" fill="#000000" fill-rule="nonzero" fill-opacity="1" /><path clip-path="url(#clip730)" d="M94.7882 1310.88 L111.108 1310.88 L111.108 1314.82 L89.1632 1314.82 L89.1632 1310.88 Q91.8252 1308.13 96.4085 1303.5 Q101.015 1298.85 102.196 1297.5 Q104.441 1294.98 105.321 1293.25 Q106.223 1291.49 106.223 1289.8 Q106.223 1287.04 104.279 1285.31 Q102.358 1283.57 99.2558 1283.57 Q97.0567 1283.57 94.603 1284.33 Q92.1725 1285.1 89.3947 1286.65 L89.3947 1281.93 Q92.2188 1280.79 94.6724 1280.21 Q97.1261 1279.63 99.1632 1279.63 Q104.534 1279.63 107.728 1282.32 Q110.922 1285 110.922 1289.5 Q110.922 1291.63 110.112 1293.55 Q109.325 1295.44 107.219 1298.04 Q106.64 1298.71 103.538 1301.93 Q100.436 1305.12 94.7882 1310.88 Z" fill="#000000" fill-rule="nonzero" fill-opacity="1" /><path clip-path="url(#clip730)" d="M120.922 1308.94 L125.807 1308.94 L125.807 1314.82 L120.922 1314.82 L120.922 1308.94 Z" fill="#000000" fill-rule="nonzero" fill-opacity="1" /><path clip-path="url(#clip730)" d="M145.992 1283.34 Q142.381 1283.34 140.552 1286.9 Q138.746 1290.44 138.746 1297.57 Q138.746 1304.68 140.552 1308.25 Q142.381 1311.79 145.992 1311.79 Q149.626 1311.79 151.431 1308.25 Q153.26 1304.68 153.26 1297.57 Q153.26 1290.44 151.431 1286.9 Q149.626 1283.34 145.992 1283.34 M145.992 1279.63 Q151.802 1279.63 154.857 1284.24 Q157.936 1288.82 157.936 1297.57 Q157.936 1306.3 154.857 1310.91 Q151.802 1315.49 145.992 1315.49 Q140.181 1315.49 137.103 1310.91 Q134.047 1306.3 134.047 1297.57 Q134.047 1288.82 137.103 1284.24 Q140.181 1279.63 145.992 1279.63 Z" fill="#000000" fill-rule="nonzero" fill-opacity="1" /><path clip-path="url(#clip730)" d="M51.9875 1053.14 L81.6633 1053.14 L81.6633 1057.08 L51.9875 1057.08 L51.9875 1053.14 Z" fill="#000000" fill-rule="nonzero" fill-opacity="1" /><path clip-path="url(#clip730)" d="M92.566 1066.03 L100.205 1066.03 L100.205 1039.67 L91.8947 1041.33 L91.8947 1037.08 L100.159 1035.41 L104.834 1035.41 L104.834 1066.03 L112.473 1066.03 L112.473 1069.97 L92.566 1069.97 L92.566 1066.03 Z" fill="#000000" fill-rule="nonzero" fill-opacity="1" /><path clip-path="url(#clip730)" d="M121.918 1064.09 L126.802 1064.09 L126.802 1069.97 L121.918 1069.97 L121.918 1064.09 Z" fill="#000000" fill-rule="nonzero" fill-opacity="1" /><path clip-path="url(#clip730)" d="M137.033 1035.41 L155.39 1035.41 L155.39 1039.34 L141.316 1039.34 L141.316 1047.82 Q142.334 1047.47 143.353 1047.31 Q144.371 1047.12 145.39 1047.12 Q151.177 1047.12 154.556 1050.29 Q157.936 1053.46 157.936 1058.88 Q157.936 1064.46 154.464 1067.56 Q150.992 1070.64 144.672 1070.64 Q142.496 1070.64 140.228 1070.27 Q137.982 1069.9 135.575 1069.16 L135.575 1064.46 Q137.658 1065.59 139.881 1066.15 Q142.103 1066.71 144.58 1066.71 Q148.584 1066.71 150.922 1064.6 Q153.26 1062.49 153.26 1058.88 Q153.26 1055.27 150.922 1053.16 Q148.584 1051.06 144.58 1051.06 Q142.705 1051.06 140.83 1051.47 Q138.978 1051.89 137.033 1052.77 L137.033 1035.41 Z" fill="#000000" fill-rule="nonzero" fill-opacity="1" /><path clip-path="url(#clip730)" d="M50.9921 808.29 L80.6679 808.29 L80.6679 812.225 L50.9921 812.225 L50.9921 808.29 Z" fill="#000000" fill-rule="nonzero" fill-opacity="1" /><path clip-path="url(#clip730)" d="M91.5706 821.183 L99.2095 821.183 L99.2095 794.818 L90.8993 796.484 L90.8993 792.225 L99.1632 790.558 L103.839 790.558 L103.839 821.183 L111.478 821.183 L111.478 825.118 L91.5706 825.118 L91.5706 821.183 Z" fill="#000000" fill-rule="nonzero" fill-opacity="1" /><path clip-path="url(#clip730)" d="M120.922 819.239 L125.807 819.239 L125.807 825.118 L120.922 825.118 L120.922 819.239 Z" fill="#000000" fill-rule="nonzero" fill-opacity="1" /><path clip-path="url(#clip730)" d="M145.992 793.637 Q142.381 793.637 140.552 797.202 Q138.746 800.744 138.746 807.873 Q138.746 814.98 140.552 818.544 Q142.381 822.086 145.992 822.086 Q149.626 822.086 151.431 818.544 Q153.26 814.98 153.26 807.873 Q153.26 800.744 151.431 797.202 Q149.626 793.637 145.992 793.637 M145.992 789.933 Q151.802 789.933 154.857 794.54 Q157.936 799.123 157.936 807.873 Q157.936 816.6 154.857 821.206 Q151.802 825.79 145.992 825.79 Q140.181 825.79 137.103 821.206 Q134.047 816.6 134.047 807.873 Q134.047 799.123 137.103 794.54 Q140.181 789.933 145.992 789.933 Z" fill="#000000" fill-rule="nonzero" fill-opacity="1" /><path clip-path="url(#clip730)" d="M51.9875 563.439 L81.6633 563.439 L81.6633 567.375 L51.9875 567.375 L51.9875 563.439 Z" fill="#000000" fill-rule="nonzero" fill-opacity="1" /><path clip-path="url(#clip730)" d="M101.756 548.787 Q98.1447 548.787 96.316 552.351 Q94.5104 555.893 94.5104 563.023 Q94.5104 570.129 96.316 573.694 Q98.1447 577.236 101.756 577.236 Q105.39 577.236 107.196 573.694 Q109.024 570.129 109.024 563.023 Q109.024 555.893 107.196 552.351 Q105.39 548.787 101.756 548.787 M101.756 545.083 Q107.566 545.083 110.621 549.689 Q113.7 554.273 113.7 563.023 Q113.7 571.75 110.621 576.356 Q107.566 580.939 101.756 580.939 Q95.9456 580.939 92.8669 576.356 Q89.8114 571.75 89.8114 563.023 Q89.8114 554.273 92.8669 549.689 Q95.9456 545.083 101.756 545.083 Z" fill="#000000" fill-rule="nonzero" fill-opacity="1" /><path clip-path="url(#clip730)" d="M121.918 574.388 L126.802 574.388 L126.802 580.268 L121.918 580.268 L121.918 574.388 Z" fill="#000000" fill-rule="nonzero" fill-opacity="1" /><path clip-path="url(#clip730)" d="M137.033 545.708 L155.39 545.708 L155.39 549.643 L141.316 549.643 L141.316 558.115 Q142.334 557.768 143.353 557.606 Q144.371 557.421 145.39 557.421 Q151.177 557.421 154.556 560.592 Q157.936 563.763 157.936 569.18 Q157.936 574.759 154.464 577.861 Q150.992 580.939 144.672 580.939 Q142.496 580.939 140.228 580.569 Q137.982 580.199 135.575 579.458 L135.575 574.759 Q137.658 575.893 139.881 576.449 Q142.103 577.004 144.58 577.004 Q148.584 577.004 150.922 574.898 Q153.26 572.791 153.26 569.18 Q153.26 565.569 150.922 563.463 Q148.584 561.356 144.58 561.356 Q142.705 561.356 140.83 561.773 Q138.978 562.189 137.033 563.069 L137.033 545.708 Z" fill="#000000" fill-rule="nonzero" fill-opacity="1" /><path clip-path="url(#clip730)" d="M100.76 303.936 Q97.1493 303.936 95.3206 307.501 Q93.515 311.043 93.515 318.172 Q93.515 325.279 95.3206 328.843 Q97.1493 332.385 100.76 332.385 Q104.395 332.385 106.2 328.843 Q108.029 325.279 108.029 318.172 Q108.029 311.043 106.2 307.501 Q104.395 303.936 100.76 303.936 M100.76 300.233 Q106.571 300.233 109.626 304.839 Q112.705 309.422 112.705 318.172 Q112.705 326.899 109.626 331.505 Q106.571 336.089 100.76 336.089 Q94.9502 336.089 91.8715 331.505 Q88.816 326.899 88.816 318.172 Q88.816 309.422 91.8715 304.839 Q94.9502 300.233 100.76 300.233 Z" fill="#000000" fill-rule="nonzero" fill-opacity="1" /><path clip-path="url(#clip730)" d="M120.922 329.538 L125.807 329.538 L125.807 335.418 L120.922 335.418 L120.922 329.538 Z" fill="#000000" fill-rule="nonzero" fill-opacity="1" /><path clip-path="url(#clip730)" d="M145.992 303.936 Q142.381 303.936 140.552 307.501 Q138.746 311.043 138.746 318.172 Q138.746 325.279 140.552 328.843 Q142.381 332.385 145.992 332.385 Q149.626 332.385 151.431 328.843 Q153.26 325.279 153.26 318.172 Q153.26 311.043 151.431 307.501 Q149.626 303.936 145.992 303.936 M145.992 300.233 Q151.802 300.233 154.857 304.839 Q157.936 309.422 157.936 318.172 Q157.936 326.899 154.857 331.505 Q151.802 336.089 145.992 336.089 Q140.181 336.089 137.103 331.505 Q134.047 326.899 134.047 318.172 Q134.047 309.422 137.103 304.839 Q140.181 300.233 145.992 300.233 Z" fill="#000000" fill-rule="nonzero" fill-opacity="1" /><path clip-path="url(#clip730)" d="M101.756 59.0857 Q98.1447 59.0857 96.316 62.6505 Q94.5104 66.1922 94.5104 73.3217 Q94.5104 80.4282 96.316 83.993 Q98.1447 87.5346 101.756 87.5346 Q105.39 87.5346 107.196 83.993 Q109.024 80.4282 109.024 73.3217 Q109.024 66.1922 107.196 62.6505 Q105.39 59.0857 101.756 59.0857 M101.756 55.382 Q107.566 55.382 110.621 59.9885 Q113.7 64.5718 113.7 73.3217 Q113.7 82.0486 110.621 86.655 Q107.566 91.2383 101.756 91.2383 Q95.9456 91.2383 92.8669 86.655 Q89.8114 82.0486 89.8114 73.3217 Q89.8114 64.5718 92.8669 59.9885 Q95.9456 55.382 101.756 55.382 Z" fill="#000000" fill-rule="nonzero" fill-opacity="1" /><path clip-path="url(#clip730)" d="M121.918 84.6874 L126.802 84.6874 L126.802 90.567 L121.918 90.567 L121.918 84.6874 Z" fill="#000000" fill-rule="nonzero" fill-opacity="1" /><path clip-path="url(#clip730)" d="M137.033 56.007 L155.39 56.007 L155.39 59.9422 L141.316 59.9422 L141.316 68.4144 Q142.334 68.0671 143.353 67.9051 Q144.371 67.7199 145.39 67.7199 Q151.177 67.7199 154.556 70.8912 Q157.936 74.0625 157.936 79.4791 Q157.936 85.0578 154.464 88.1596 Q150.992 91.2383 144.672 91.2383 Q142.496 91.2383 140.228 90.8679 Q137.982 90.4976 135.575 89.7568 L135.575 85.0578 Q137.658 86.192 139.881 86.7476 Q142.103 87.3032 144.58 87.3032 Q148.584 87.3032 150.922 85.1967 Q153.26 83.0902 153.26 79.4791 Q153.26 75.868 150.922 73.7616 Q148.584 71.6551 144.58 71.6551 Q142.705 71.6551 140.83 72.0718 Q138.978 72.4884 137.033 73.368 L137.033 56.007 Z" fill="#000000" fill-rule="nonzero" fill-opacity="1" /><polyline clip-path="url(#clip732)" style="stroke:#009af9; stroke-linecap:round; stroke-linejoin:round; stroke-width:12; stroke-opacity:1; fill:none" points="255.035,1445.72 268.612,1399.04 282.19,1356.43 295.767,1317.24 309.345,1280.94 322.922,1247.16 336.5,1215.55 350.077,1185.87 363.655,1157.88 377.232,1131.4 390.81,1106.28 404.387,1082.39 417.964,1059.61 431.542,1037.84 445.119,1017 458.697,997.007 472.274,977.801 485.852,959.319 499.429,941.51 513.007,924.326 526.584,907.724 540.162,891.667 553.739,876.12 567.317,861.051 580.894,846.432 594.472,832.236 608.049,818.441 621.627,805.024 635.204,791.964 648.782,779.244 662.359,766.846 675.937,754.754 689.514,742.953 703.092,731.43 716.669,720.172 730.247,709.168 743.824,698.404 757.402,687.873 770.979,677.563 784.557,667.466 798.134,657.572 811.712,647.875 825.289,638.366 838.866,629.038 852.444,619.884 866.021,610.899 879.599,602.075 893.176,593.408 906.754,584.891 920.331,576.52 933.909,568.289 947.486,560.195 961.064,552.232 974.641,544.397 988.219,536.685 1001.8,529.092 1015.37,521.616 1028.95,514.252 1042.53,506.997 1056.11,499.848 1069.68,492.802 1083.26,485.855 1096.84,479.006 1110.42,472.252 1123.99,465.589 1137.57,459.016 1151.15,452.53 1164.73,446.128 1178.3,439.809 1191.88,433.571 1205.46,427.411 1219.04,421.328 1232.61,415.319 1246.19,409.383 1259.77,403.519 1273.35,397.723 1286.92,391.996 1300.5,386.334 1314.08,380.738 1327.66,375.204 1341.23,369.733 1354.81,364.322 1368.39,358.97 1381.97,353.675 1395.54,348.438 1409.12,343.256 1422.7,338.128 1436.28,333.053 1449.85,328.031 1463.43,323.059 1477.01,318.138 1490.59,313.265 1504.16,308.44 1517.74,303.663 1531.32,298.931 1544.9,294.245 1558.47,289.603 1572.05,285.005 1585.63,280.45 1599.21,275.936 1612.78,271.464 1626.36,267.032 1639.94,262.64 1653.52,258.287 1667.09,253.973 1680.67,249.696 1694.25,245.456 1707.83,241.253 1721.4,237.085 1734.98,232.952 1748.56,228.854 1762.14,224.791 1775.71,220.76 1789.29,216.762 1802.87,212.797 1816.45,208.864 1830.02,204.962 1843.6,201.091 1857.18,197.25 1870.76,193.439 1884.33,189.657 1897.91,185.905 1911.49,182.181 1925.07,178.485 1938.64,174.817 1952.22,171.176 1965.8,167.562 1979.38,163.974 1992.95,160.413 2006.53,156.877 2020.11,153.367 2033.69,149.881 2047.26,146.421 2060.84,142.984 2074.42,139.571 2087.99,136.182 2101.57,132.817 2115.15,129.474 2128.73,126.154 2142.3,122.856 2155.88,119.581 2169.46,116.327 2183.04,113.095 2196.61,109.883 2210.19,106.693 2223.77,103.524 2237.35,100.374 2250.92,97.2453 2264.5,94.1361 2278.08,91.0465 2291.66,87.9763 "/>
<polyline clip-path="url(#clip732)" style="stroke:#ff0000; stroke-linecap:round; stroke-linejoin:round; stroke-width:12; stroke-opacity:1; fill:none" points="255.035,1445.72 933.909,568.289 1612.78,271.464 2291.66,87.9763 "/>
<path clip-path="url(#clip732)" d="M255.035 1445.72 L933.909 568.289 L1612.78 271.464 L2291.66 87.9763 L255.035 1445.72 L255.035 318.138 L2291.66 318.138 L1612.78 318.138 L933.909 318.138 L255.035 318.138  Z" fill="#ff0000" fill-rule="evenodd" fill-opacity="0.266667"/>
<polyline clip-path="url(#clip732)" style="stroke:#3da44d; stroke-linecap:round; stroke-linejoin:round; stroke-width:0; stroke-opacity:1; fill:none" points="255.035,1445.72 933.909,568.289 1612.78,271.464 2291.66,87.9763 255.035,1445.72 "/>
</svg>
