<?xml version="1.0" encoding="UTF-8"?>
<svg xmlns:svg="http://www.w3.org/2000/svg"
  xmlns:rdf="http://www.w3.org/1999/02/22-rdf-syntax-ns#"
  xmlns:cc="http://creativecommons.org/ns#"
  xmlns:dc="http://purl.org/dc/elements/1.1/"
xmlns="http://www.w3.org/2000/svg" xmlns:xlink="http://www.w3.org/1999/xlink" width="200pt" height="200pt" viewBox="0 0 200 200" version="1.1">
<g id="surface191">
<path style="fill:none;stroke-width:8;stroke-linecap:round;stroke-linejoin:miter;stroke:rgb(100%,100%,93.333333%);stroke-opacity:1;stroke-miterlimit:10;" d="M 63 71.199219 L 153 35.199219 "/>
<path style="fill:none;stroke-width:8;stroke-linecap:round;stroke-linejoin:miter;stroke:rgb(100%,100%,93.333333%);stroke-opacity:1;stroke-miterlimit:10;" d="M 48.601562 118 L 153 13.601562 "/>
<path style=" stroke:none;fill-rule:nonzero;fill:rgb(79.6%,23.5%,20%);fill-opacity:1;" d="M 119.699219 103.601562 C 119.699219 112.050781 112.851562 118.898438 104.398438 118.898438 C 95.949219 118.898438 89.101562 112.050781 89.101562 103.601562 C 89.101562 95.148438 95.949219 88.300781 104.398438 88.300781 C 112.851562 88.300781 119.699219 95.148438 119.699219 103.601562 "/>
<path style=" stroke:none;fill-rule:nonzero;fill:rgb(22%,59.6%,14.9%);fill-opacity:1;" d="M 155.699219 67.601562 C 155.699219 76.050781 148.851562 82.898438 140.398438 82.898438 C 131.949219 82.898438 125.101562 76.050781 125.101562 67.601562 C 125.101562 59.148438 131.949219 52.300781 140.398438 52.300781 C 148.851562 52.300781 155.699219 59.148438 155.699219 67.601562 "/>
<path style=" stroke:none;fill-rule:nonzero;fill:rgb(58.4%,34.5%,69.8%);fill-opacity:1;" d="M 155.699219 103.601562 C 155.699219 112.050781 148.851562 118.898438 140.398438 118.898438 C 131.949219 118.898438 125.101562 112.050781 125.101562 103.601562 C 125.101562 95.148438 131.949219 88.300781 140.398438 88.300781 C 148.851562 88.300781 155.699219 95.148438 155.699219 103.601562 "/>
<path style=" stroke:none;fill-rule:nonzero;fill:rgb(100%,100%,93.333333%);fill-opacity:1;" d="M 27.554688 137 L 37.882812 137 L 37.882812 171.691406 C 37.882812 174.816406 38.117188 177.9375 37.355469 181.007812 C 36.46875 184.726562 34.242188 187.996094 31.101562 190.183594 C 28.921875 191.703125 26.398438 192.65625 23.753906 192.953125 C 15.246094 193.914062 7.285156 188.257812 5.394531 179.90625 L 15.421875 177.34375 C 15.902344 179.585938 17.476562 181.441406 19.609375 182.277344 C 20.558594 182.628906 21.574219 182.753906 22.582031 182.644531 C 23.507812 182.542969 24.398438 182.222656 25.171875 181.703125 C 27.417969 180.140625 27.554688 177.378906 27.554688 174.949219 Z M 48.988281 137 L 59.128906 137 L 59.128906 156.285156 C 59.128906 160.019531 59.378906 162.636719 59.898438 164.085938 C 60.347656 165.449219 61.214844 166.636719 62.375 167.480469 C 63.617188 168.320312 65.089844 168.75 66.589844 168.703125 C 68.089844 168.746094 69.570312 168.328125 70.832031 167.511719 C 72.046875 166.644531 72.957031 165.414062 73.425781 163.996094 C 73.835938 162.847656 74.039062 160.382812 74.039062 156.609375 L 74.039062 137.023438 L 84.109375 137.023438 L 84.109375 153.96875 C 84.109375 160.941406 83.550781 165.730469 82.488281 168.296875 C 81.292969 171.253906 79.21875 173.769531 76.542969 175.507812 C 73.917969 177.1875 70.585938 178.027344 66.546875 178.027344 C 62.15625 178.027344 58.613281 177.046875 55.914062 175.09375 C 53.160156 173.0625 51.152344 170.179688 50.195312 166.894531 C 49.433594 164.464844 49.019531 160.058594 49.019531 153.675781 Z M 141.976562 191 L 152.171875 191 L 152.171875 136.992188 L 140.507812 136.992188 L 123.589844 160.214844 L 106.667969 136.992188 L 94.921875 136.992188 L 94.921875 191 L 105.121094 191 L 105.121094 151.726562 L 122.347656 175.261719 L 124.359375 175.261719 L 141.976562 151.796875 Z M 161.472656 137 L 172.375 137 C 178.3125 137 182.570312 137.539062 185.140625 138.617188 C 187.714844 139.675781 189.882812 141.535156 191.320312 143.917969 C 192.878906 146.5625 193.664062 149.59375 193.582031 152.664062 C 193.699219 156.042969 192.65625 159.367188 190.625 162.070312 C 188.585938 164.644531 185.769531 166.496094 182.597656 167.339844 C 180.621094 167.882812 177.011719 168.152344 171.765625 168.152344 L 171.765625 191.042969 L 161.472656 191.042969 Z M 171.765625 158.125 L 175.007812 158.125 C 176.816406 158.207031 178.625 158.023438 180.378906 157.574219 C 181.34375 157.238281 182.171875 156.597656 182.742188 155.75 C 183.339844 154.839844 183.644531 153.769531 183.609375 152.679688 C 183.71875 150.828125 182.777344 149.066406 181.179688 148.128906 C 180.027344 147.421875 177.851562 147.089844 174.660156 147.089844 L 171.765625 147.089844 Z M 171.765625 158.125 "/>
</g>
<metadata
    id="metadata21">
    <rdf:RDF>
        <cc:Work
            rdf:about="">
        <dc:creator>
            <cc:Agent>
            <dc:title>JuMP project</dc:title>
            </cc:Agent>
        </dc:creator>
        <dc:title>Logo for JuMP</dc:title>
        <cc:license
            rdf:resource="http://creativecommons.org/licenses/by/4.0/" />
        <dc:description>Logo for JuMP, an algebraic modeling language and a collection of supporting packages for mathematical optimization embedded in the Julia programming language</dc:description>
        <dc:date>August 2018</dc:date>
        </cc:Work>
        <cc:License
            rdf:about="http://creativecommons.org/licenses/by/4.0/">
        <cc:permits
            rdf:resource="http://creativecommons.org/ns#Reproduction" />
        <cc:permits
            rdf:resource="http://creativecommons.org/ns#Distribution" />
        <cc:requires
            rdf:resource="http://creativecommons.org/ns#Notice" />
        <cc:requires
            rdf:resource="http://creativecommons.org/ns#Attribution" />
        <cc:permits
            rdf:resource="http://creativecommons.org/ns#DerivativeWorks" />
        </cc:License>
    </rdf:RDF>
</metadata>
</svg>

