<?xml version="1.0" encoding="utf-8"?>
<svg xmlns="http://www.w3.org/2000/svg" xmlns:xlink="http://www.w3.org/1999/xlink" width="600" height="400" viewBox="0 0 2400 1600">
<defs>
  <clipPath id="clip720">
    <rect x="0" y="0" width="2400" height="1600"/>
  </clipPath>
</defs>
<path clip-path="url(#clip720)" d="M0 1600 L2400 1600 L2400 0 L0 0  Z" fill="#ffffff" fill-rule="evenodd" fill-opacity="1"/>
<defs>
  <clipPath id="clip721">
    <rect x="480" y="0" width="1681" height="1600"/>
  </clipPath>
</defs>
<path clip-path="url(#clip720)" d="M141.853 1486.45 L2352.76 1486.45 L2352.76 47.2441 L141.853 47.2441  Z" fill="#ffffff" fill-rule="evenodd" fill-opacity="1"/>
<defs>
  <clipPath id="clip722">
    <rect x="141" y="47" width="2212" height="1440"/>
  </clipPath>
</defs>
<polyline clip-path="url(#clip722)" style="stroke:#000000; stroke-linecap:round; stroke-linejoin:round; stroke-width:2; stroke-opacity:0.1; fill:none" points="263.457,1486.45 263.457,47.2441 "/>
<polyline clip-path="url(#clip722)" style="stroke:#000000; stroke-linecap:round; stroke-linejoin:round; stroke-width:2; stroke-opacity:0.1; fill:none" points="621.219,1486.45 621.219,47.2441 "/>
<polyline clip-path="url(#clip722)" style="stroke:#000000; stroke-linecap:round; stroke-linejoin:round; stroke-width:2; stroke-opacity:0.1; fill:none" points="978.982,1486.45 978.982,47.2441 "/>
<polyline clip-path="url(#clip722)" style="stroke:#000000; stroke-linecap:round; stroke-linejoin:round; stroke-width:2; stroke-opacity:0.1; fill:none" points="1336.75,1486.45 1336.75,47.2441 "/>
<polyline clip-path="url(#clip722)" style="stroke:#000000; stroke-linecap:round; stroke-linejoin:round; stroke-width:2; stroke-opacity:0.1; fill:none" points="1694.51,1486.45 1694.51,47.2441 "/>
<polyline clip-path="url(#clip722)" style="stroke:#000000; stroke-linecap:round; stroke-linejoin:round; stroke-width:2; stroke-opacity:0.1; fill:none" points="2052.27,1486.45 2052.27,47.2441 "/>
<polyline clip-path="url(#clip722)" style="stroke:#000000; stroke-linecap:round; stroke-linejoin:round; stroke-width:2; stroke-opacity:0.1; fill:none" points="141.853,1486.45 2352.76,1486.45 "/>
<polyline clip-path="url(#clip722)" style="stroke:#000000; stroke-linecap:round; stroke-linejoin:round; stroke-width:2; stroke-opacity:0.1; fill:none" points="141.853,1147.81 2352.76,1147.81 "/>
<polyline clip-path="url(#clip722)" style="stroke:#000000; stroke-linecap:round; stroke-linejoin:round; stroke-width:2; stroke-opacity:0.1; fill:none" points="141.853,809.176 2352.76,809.176 "/>
<polyline clip-path="url(#clip722)" style="stroke:#000000; stroke-linecap:round; stroke-linejoin:round; stroke-width:2; stroke-opacity:0.1; fill:none" points="141.853,470.539 2352.76,470.539 "/>
<polyline clip-path="url(#clip722)" style="stroke:#000000; stroke-linecap:round; stroke-linejoin:round; stroke-width:2; stroke-opacity:0.1; fill:none" points="141.853,131.903 2352.76,131.903 "/>
<polyline clip-path="url(#clip720)" style="stroke:#000000; stroke-linecap:round; stroke-linejoin:round; stroke-width:4; stroke-opacity:1; fill:none" points="141.853,1486.45 2352.76,1486.45 "/>
<polyline clip-path="url(#clip720)" style="stroke:#000000; stroke-linecap:round; stroke-linejoin:round; stroke-width:4; stroke-opacity:1; fill:none" points="263.457,1486.45 263.457,1467.55 "/>
<polyline clip-path="url(#clip720)" style="stroke:#000000; stroke-linecap:round; stroke-linejoin:round; stroke-width:4; stroke-opacity:1; fill:none" points="621.219,1486.45 621.219,1467.55 "/>
<polyline clip-path="url(#clip720)" style="stroke:#000000; stroke-linecap:round; stroke-linejoin:round; stroke-width:4; stroke-opacity:1; fill:none" points="978.982,1486.45 978.982,1467.55 "/>
<polyline clip-path="url(#clip720)" style="stroke:#000000; stroke-linecap:round; stroke-linejoin:round; stroke-width:4; stroke-opacity:1; fill:none" points="1336.75,1486.45 1336.75,1467.55 "/>
<polyline clip-path="url(#clip720)" style="stroke:#000000; stroke-linecap:round; stroke-linejoin:round; stroke-width:4; stroke-opacity:1; fill:none" points="1694.51,1486.45 1694.51,1467.55 "/>
<polyline clip-path="url(#clip720)" style="stroke:#000000; stroke-linecap:round; stroke-linejoin:round; stroke-width:4; stroke-opacity:1; fill:none" points="2052.27,1486.45 2052.27,1467.55 "/>
<path clip-path="url(#clip720)" d="M237.218 1530.21 Q240.575 1530.93 242.45 1533.2 Q244.348 1535.47 244.348 1538.8 Q244.348 1543.92 240.829 1546.72 Q237.311 1549.52 230.829 1549.52 Q228.653 1549.52 226.339 1549.08 Q224.047 1548.66 221.593 1547.81 L221.593 1543.29 Q223.538 1544.43 225.853 1545.01 Q228.167 1545.58 230.691 1545.58 Q235.089 1545.58 237.38 1543.85 Q239.695 1542.11 239.695 1538.8 Q239.695 1535.75 237.542 1534.03 Q235.413 1532.3 231.593 1532.3 L227.566 1532.3 L227.566 1528.45 L231.778 1528.45 Q235.228 1528.45 237.056 1527.09 Q238.885 1525.7 238.885 1523.11 Q238.885 1520.45 236.987 1519.03 Q235.112 1517.6 231.593 1517.6 Q229.672 1517.6 227.473 1518.01 Q225.274 1518.43 222.635 1519.31 L222.635 1515.14 Q225.297 1514.4 227.612 1514.03 Q229.95 1513.66 232.01 1513.66 Q237.334 1513.66 240.436 1516.09 Q243.538 1518.5 243.538 1522.62 Q243.538 1525.49 241.894 1527.48 Q240.251 1529.45 237.218 1530.21 Z" fill="#000000" fill-rule="nonzero" fill-opacity="1" /><path clip-path="url(#clip720)" d="M253.26 1514.29 L271.616 1514.29 L271.616 1518.22 L257.542 1518.22 L257.542 1526.7 Q258.561 1526.35 259.579 1526.19 Q260.598 1526 261.616 1526 Q267.403 1526 270.783 1529.17 Q274.163 1532.34 274.163 1537.76 Q274.163 1543.34 270.69 1546.44 Q267.218 1549.52 260.899 1549.52 Q258.723 1549.52 256.454 1549.15 Q254.209 1548.78 251.802 1548.04 L251.802 1543.34 Q253.885 1544.47 256.107 1545.03 Q258.329 1545.58 260.806 1545.58 Q264.811 1545.58 267.149 1543.48 Q269.487 1541.37 269.487 1537.76 Q269.487 1534.15 267.149 1532.04 Q264.811 1529.94 260.806 1529.94 Q258.931 1529.94 257.056 1530.35 Q255.204 1530.77 253.26 1531.65 L253.26 1514.29 Z" fill="#000000" fill-rule="nonzero" fill-opacity="1" /><path clip-path="url(#clip720)" d="M293.375 1517.37 Q289.764 1517.37 287.936 1520.93 Q286.13 1524.47 286.13 1531.6 Q286.13 1538.71 287.936 1542.27 Q289.764 1545.82 293.375 1545.82 Q297.01 1545.82 298.815 1542.27 Q300.644 1538.71 300.644 1531.6 Q300.644 1524.47 298.815 1520.93 Q297.01 1517.37 293.375 1517.37 M293.375 1513.66 Q299.186 1513.66 302.241 1518.27 Q305.32 1522.85 305.32 1531.6 Q305.32 1540.33 302.241 1544.94 Q299.186 1549.52 293.375 1549.52 Q287.565 1549.52 284.487 1544.94 Q281.431 1540.33 281.431 1531.6 Q281.431 1522.85 284.487 1518.27 Q287.565 1513.66 293.375 1513.66 Z" fill="#000000" fill-rule="nonzero" fill-opacity="1" /><path clip-path="url(#clip720)" d="M594.31 1518.36 L582.504 1536.81 L594.31 1536.81 L594.31 1518.36 M593.083 1514.29 L598.963 1514.29 L598.963 1536.81 L603.893 1536.81 L603.893 1540.7 L598.963 1540.7 L598.963 1548.85 L594.31 1548.85 L594.31 1540.7 L578.708 1540.7 L578.708 1536.19 L593.083 1514.29 Z" fill="#000000" fill-rule="nonzero" fill-opacity="1" /><path clip-path="url(#clip720)" d="M621.624 1517.37 Q618.013 1517.37 616.185 1520.93 Q614.379 1524.47 614.379 1531.6 Q614.379 1538.71 616.185 1542.27 Q618.013 1545.82 621.624 1545.82 Q625.259 1545.82 627.064 1542.27 Q628.893 1538.71 628.893 1531.6 Q628.893 1524.47 627.064 1520.93 Q625.259 1517.37 621.624 1517.37 M621.624 1513.66 Q627.435 1513.66 630.49 1518.27 Q633.569 1522.85 633.569 1531.6 Q633.569 1540.33 630.49 1544.94 Q627.435 1549.52 621.624 1549.52 Q615.814 1549.52 612.736 1544.94 Q609.68 1540.33 609.68 1531.6 Q609.68 1522.85 612.736 1518.27 Q615.814 1513.66 621.624 1513.66 Z" fill="#000000" fill-rule="nonzero" fill-opacity="1" /><path clip-path="url(#clip720)" d="M651.786 1517.37 Q648.175 1517.37 646.347 1520.93 Q644.541 1524.47 644.541 1531.6 Q644.541 1538.71 646.347 1542.27 Q648.175 1545.82 651.786 1545.82 Q655.421 1545.82 657.226 1542.27 Q659.055 1538.71 659.055 1531.6 Q659.055 1524.47 657.226 1520.93 Q655.421 1517.37 651.786 1517.37 M651.786 1513.66 Q657.597 1513.66 660.652 1518.27 Q663.731 1522.85 663.731 1531.6 Q663.731 1540.33 660.652 1544.94 Q657.597 1549.52 651.786 1549.52 Q645.976 1549.52 642.898 1544.94 Q639.842 1540.33 639.842 1531.6 Q639.842 1522.85 642.898 1518.27 Q645.976 1513.66 651.786 1513.66 Z" fill="#000000" fill-rule="nonzero" fill-opacity="1" /><path clip-path="url(#clip720)" d="M952.073 1518.36 L940.267 1536.81 L952.073 1536.81 L952.073 1518.36 M950.846 1514.29 L956.725 1514.29 L956.725 1536.81 L961.656 1536.81 L961.656 1540.7 L956.725 1540.7 L956.725 1548.85 L952.073 1548.85 L952.073 1540.7 L936.471 1540.7 L936.471 1536.19 L950.846 1514.29 Z" fill="#000000" fill-rule="nonzero" fill-opacity="1" /><path clip-path="url(#clip720)" d="M969.434 1514.29 L987.79 1514.29 L987.79 1518.22 L973.716 1518.22 L973.716 1526.7 Q974.735 1526.35 975.753 1526.19 Q976.772 1526 977.79 1526 Q983.577 1526 986.957 1529.17 Q990.336 1532.34 990.336 1537.76 Q990.336 1543.34 986.864 1546.44 Q983.392 1549.52 977.073 1549.52 Q974.897 1549.52 972.628 1549.15 Q970.383 1548.78 967.975 1548.04 L967.975 1543.34 Q970.059 1544.47 972.281 1545.03 Q974.503 1545.58 976.98 1545.58 Q980.985 1545.58 983.323 1543.48 Q985.66 1541.37 985.66 1537.76 Q985.66 1534.15 983.323 1532.04 Q980.985 1529.94 976.98 1529.94 Q975.105 1529.94 973.23 1530.35 Q971.378 1530.77 969.434 1531.65 L969.434 1514.29 Z" fill="#000000" fill-rule="nonzero" fill-opacity="1" /><path clip-path="url(#clip720)" d="M1009.55 1517.37 Q1005.94 1517.37 1004.11 1520.93 Q1002.3 1524.47 1002.3 1531.6 Q1002.3 1538.71 1004.11 1542.27 Q1005.94 1545.82 1009.55 1545.82 Q1013.18 1545.82 1014.99 1542.27 Q1016.82 1538.71 1016.82 1531.6 Q1016.82 1524.47 1014.99 1520.93 Q1013.18 1517.37 1009.55 1517.37 M1009.55 1513.66 Q1015.36 1513.66 1018.41 1518.27 Q1021.49 1522.85 1021.49 1531.6 Q1021.49 1540.33 1018.41 1544.94 Q1015.36 1549.52 1009.55 1549.52 Q1003.74 1549.52 1000.66 1544.94 Q997.605 1540.33 997.605 1531.6 Q997.605 1522.85 1000.66 1518.27 Q1003.74 1513.66 1009.55 1513.66 Z" fill="#000000" fill-rule="nonzero" fill-opacity="1" /><path clip-path="url(#clip720)" d="M1296.36 1514.29 L1314.72 1514.29 L1314.72 1518.22 L1300.65 1518.22 L1300.65 1526.7 Q1301.66 1526.35 1302.68 1526.19 Q1303.7 1526 1304.72 1526 Q1310.51 1526 1313.89 1529.17 Q1317.27 1532.34 1317.27 1537.76 Q1317.27 1543.34 1313.79 1546.44 Q1310.32 1549.52 1304 1549.52 Q1301.83 1549.52 1299.56 1549.15 Q1297.31 1548.78 1294.91 1548.04 L1294.91 1543.34 Q1296.99 1544.47 1299.21 1545.03 Q1301.43 1545.58 1303.91 1545.58 Q1307.91 1545.58 1310.25 1543.48 Q1312.59 1541.37 1312.59 1537.76 Q1312.59 1534.15 1310.25 1532.04 Q1307.91 1529.94 1303.91 1529.94 Q1302.03 1529.94 1300.16 1530.35 Q1298.31 1530.77 1296.36 1531.65 L1296.36 1514.29 Z" fill="#000000" fill-rule="nonzero" fill-opacity="1" /><path clip-path="url(#clip720)" d="M1336.48 1517.37 Q1332.87 1517.37 1331.04 1520.93 Q1329.23 1524.47 1329.23 1531.6 Q1329.23 1538.71 1331.04 1542.27 Q1332.87 1545.82 1336.48 1545.82 Q1340.11 1545.82 1341.92 1542.27 Q1343.75 1538.71 1343.75 1531.6 Q1343.75 1524.47 1341.92 1520.93 Q1340.11 1517.37 1336.48 1517.37 M1336.48 1513.66 Q1342.29 1513.66 1345.34 1518.27 Q1348.42 1522.85 1348.42 1531.6 Q1348.42 1540.33 1345.34 1544.94 Q1342.29 1549.52 1336.48 1549.52 Q1330.67 1549.52 1327.59 1544.94 Q1324.53 1540.33 1324.53 1531.6 Q1324.53 1522.85 1327.59 1518.27 Q1330.67 1513.66 1336.48 1513.66 Z" fill="#000000" fill-rule="nonzero" fill-opacity="1" /><path clip-path="url(#clip720)" d="M1366.64 1517.37 Q1363.03 1517.37 1361.2 1520.93 Q1359.4 1524.47 1359.4 1531.6 Q1359.4 1538.71 1361.2 1542.27 Q1363.03 1545.82 1366.64 1545.82 Q1370.28 1545.82 1372.08 1542.27 Q1373.91 1538.71 1373.91 1531.6 Q1373.91 1524.47 1372.08 1520.93 Q1370.28 1517.37 1366.64 1517.37 M1366.64 1513.66 Q1372.45 1513.66 1375.51 1518.27 Q1378.59 1522.85 1378.59 1531.6 Q1378.59 1540.33 1375.51 1544.94 Q1372.45 1549.52 1366.64 1549.52 Q1360.83 1549.52 1357.75 1544.94 Q1354.7 1540.33 1354.7 1531.6 Q1354.7 1522.85 1357.75 1518.27 Q1360.83 1513.66 1366.64 1513.66 Z" fill="#000000" fill-rule="nonzero" fill-opacity="1" /><path clip-path="url(#clip720)" d="M1654.13 1514.29 L1672.48 1514.29 L1672.48 1518.22 L1658.41 1518.22 L1658.41 1526.7 Q1659.43 1526.35 1660.45 1526.19 Q1661.46 1526 1662.48 1526 Q1668.27 1526 1671.65 1529.17 Q1675.03 1532.34 1675.03 1537.76 Q1675.03 1543.34 1671.56 1546.44 Q1668.08 1549.52 1661.77 1549.52 Q1659.59 1549.52 1657.32 1549.15 Q1655.08 1548.78 1652.67 1548.04 L1652.67 1543.34 Q1654.75 1544.47 1656.97 1545.03 Q1659.2 1545.58 1661.67 1545.58 Q1665.68 1545.58 1668.02 1543.48 Q1670.35 1541.37 1670.35 1537.76 Q1670.35 1534.15 1668.02 1532.04 Q1665.68 1529.94 1661.67 1529.94 Q1659.8 1529.94 1657.92 1530.35 Q1656.07 1530.77 1654.13 1531.65 L1654.13 1514.29 Z" fill="#000000" fill-rule="nonzero" fill-opacity="1" /><path clip-path="url(#clip720)" d="M1684.29 1514.29 L1702.64 1514.29 L1702.64 1518.22 L1688.57 1518.22 L1688.57 1526.7 Q1689.59 1526.35 1690.61 1526.19 Q1691.63 1526 1692.64 1526 Q1698.43 1526 1701.81 1529.17 Q1705.19 1532.34 1705.19 1537.76 Q1705.19 1543.34 1701.72 1546.44 Q1698.25 1549.52 1691.93 1549.52 Q1689.75 1549.52 1687.48 1549.15 Q1685.24 1548.78 1682.83 1548.04 L1682.83 1543.34 Q1684.91 1544.47 1687.14 1545.03 Q1689.36 1545.58 1691.83 1545.58 Q1695.84 1545.58 1698.18 1543.48 Q1700.51 1541.37 1700.51 1537.76 Q1700.51 1534.15 1698.18 1532.04 Q1695.84 1529.94 1691.83 1529.94 Q1689.96 1529.94 1688.08 1530.35 Q1686.23 1530.77 1684.29 1531.65 L1684.29 1514.29 Z" fill="#000000" fill-rule="nonzero" fill-opacity="1" /><path clip-path="url(#clip720)" d="M1724.4 1517.37 Q1720.79 1517.37 1718.96 1520.93 Q1717.16 1524.47 1717.16 1531.6 Q1717.16 1538.71 1718.96 1542.27 Q1720.79 1545.82 1724.4 1545.82 Q1728.04 1545.82 1729.84 1542.27 Q1731.67 1538.71 1731.67 1531.6 Q1731.67 1524.47 1729.84 1520.93 Q1728.04 1517.37 1724.4 1517.37 M1724.4 1513.66 Q1730.21 1513.66 1733.27 1518.27 Q1736.35 1522.85 1736.35 1531.6 Q1736.35 1540.33 1733.27 1544.94 Q1730.21 1549.52 1724.4 1549.52 Q1718.59 1549.52 1715.51 1544.94 Q1712.46 1540.33 1712.46 1531.6 Q1712.46 1522.85 1715.51 1518.27 Q1718.59 1513.66 1724.4 1513.66 Z" fill="#000000" fill-rule="nonzero" fill-opacity="1" /><path clip-path="url(#clip720)" d="M2022.6 1529.7 Q2019.45 1529.7 2017.6 1531.86 Q2015.77 1534.01 2015.77 1537.76 Q2015.77 1541.49 2017.6 1543.66 Q2019.45 1545.82 2022.6 1545.82 Q2025.74 1545.82 2027.57 1543.66 Q2029.42 1541.49 2029.42 1537.76 Q2029.42 1534.01 2027.57 1531.86 Q2025.74 1529.7 2022.6 1529.7 M2031.88 1515.05 L2031.88 1519.31 Q2030.12 1518.48 2028.31 1518.04 Q2026.53 1517.6 2024.77 1517.6 Q2020.14 1517.6 2017.69 1520.72 Q2015.26 1523.85 2014.91 1530.17 Q2016.28 1528.15 2018.34 1527.09 Q2020.4 1526 2022.87 1526 Q2028.08 1526 2031.09 1529.17 Q2034.12 1532.32 2034.12 1537.76 Q2034.12 1543.08 2030.97 1546.3 Q2027.83 1549.52 2022.6 1549.52 Q2016.6 1549.52 2013.43 1544.94 Q2010.26 1540.33 2010.26 1531.6 Q2010.26 1523.41 2014.15 1518.55 Q2018.03 1513.66 2024.59 1513.66 Q2026.35 1513.66 2028.13 1514.01 Q2029.93 1514.36 2031.88 1515.05 Z" fill="#000000" fill-rule="nonzero" fill-opacity="1" /><path clip-path="url(#clip720)" d="M2052.18 1517.37 Q2048.57 1517.37 2046.74 1520.93 Q2044.93 1524.47 2044.93 1531.6 Q2044.93 1538.71 2046.74 1542.27 Q2048.57 1545.82 2052.18 1545.82 Q2055.81 1545.82 2057.62 1542.27 Q2059.45 1538.71 2059.45 1531.6 Q2059.45 1524.47 2057.62 1520.93 Q2055.81 1517.37 2052.18 1517.37 M2052.18 1513.66 Q2057.99 1513.66 2061.04 1518.27 Q2064.12 1522.85 2064.12 1531.6 Q2064.12 1540.33 2061.04 1544.94 Q2057.99 1549.52 2052.18 1549.52 Q2046.37 1549.52 2043.29 1544.94 Q2040.23 1540.33 2040.23 1531.6 Q2040.23 1522.85 2043.29 1518.27 Q2046.37 1513.66 2052.18 1513.66 Z" fill="#000000" fill-rule="nonzero" fill-opacity="1" /><path clip-path="url(#clip720)" d="M2082.34 1517.37 Q2078.73 1517.37 2076.9 1520.93 Q2075.09 1524.47 2075.09 1531.6 Q2075.09 1538.71 2076.9 1542.27 Q2078.73 1545.82 2082.34 1545.82 Q2085.97 1545.82 2087.78 1542.27 Q2089.61 1538.71 2089.61 1531.6 Q2089.61 1524.47 2087.78 1520.93 Q2085.97 1517.37 2082.34 1517.37 M2082.34 1513.66 Q2088.15 1513.66 2091.21 1518.27 Q2094.28 1522.85 2094.28 1531.6 Q2094.28 1540.33 2091.21 1544.94 Q2088.15 1549.52 2082.34 1549.52 Q2076.53 1549.52 2073.45 1544.94 Q2070.4 1540.33 2070.4 1531.6 Q2070.4 1522.85 2073.45 1518.27 Q2076.53 1513.66 2082.34 1513.66 Z" fill="#000000" fill-rule="nonzero" fill-opacity="1" /><polyline clip-path="url(#clip720)" style="stroke:#000000; stroke-linecap:round; stroke-linejoin:round; stroke-width:4; stroke-opacity:1; fill:none" points="141.853,1486.45 141.853,47.2441 "/>
<polyline clip-path="url(#clip720)" style="stroke:#000000; stroke-linecap:round; stroke-linejoin:round; stroke-width:4; stroke-opacity:1; fill:none" points="141.853,1486.45 160.751,1486.45 "/>
<polyline clip-path="url(#clip720)" style="stroke:#000000; stroke-linecap:round; stroke-linejoin:round; stroke-width:4; stroke-opacity:1; fill:none" points="141.853,1147.81 160.751,1147.81 "/>
<polyline clip-path="url(#clip720)" style="stroke:#000000; stroke-linecap:round; stroke-linejoin:round; stroke-width:4; stroke-opacity:1; fill:none" points="141.853,809.176 160.751,809.176 "/>
<polyline clip-path="url(#clip720)" style="stroke:#000000; stroke-linecap:round; stroke-linejoin:round; stroke-width:4; stroke-opacity:1; fill:none" points="141.853,470.539 160.751,470.539 "/>
<polyline clip-path="url(#clip720)" style="stroke:#000000; stroke-linecap:round; stroke-linejoin:round; stroke-width:4; stroke-opacity:1; fill:none" points="141.853,131.903 160.751,131.903 "/>
<path clip-path="url(#clip720)" d="M93.9086 1472.25 Q90.2975 1472.25 88.4688 1475.81 Q86.6632 1479.35 86.6632 1486.48 Q86.6632 1493.59 88.4688 1497.15 Q90.2975 1500.7 93.9086 1500.7 Q97.5428 1500.7 99.3483 1497.15 Q101.177 1493.59 101.177 1486.48 Q101.177 1479.35 99.3483 1475.81 Q97.5428 1472.25 93.9086 1472.25 M93.9086 1468.54 Q99.7187 1468.54 102.774 1473.15 Q105.853 1477.73 105.853 1486.48 Q105.853 1495.21 102.774 1499.82 Q99.7187 1504.4 93.9086 1504.4 Q88.0984 1504.4 85.0197 1499.82 Q81.9642 1495.21 81.9642 1486.48 Q81.9642 1477.73 85.0197 1473.15 Q88.0984 1468.54 93.9086 1468.54 Z" fill="#000000" fill-rule="nonzero" fill-opacity="1" /><path clip-path="url(#clip720)" d="M57.7745 1161.16 L74.0939 1161.16 L74.0939 1165.09 L52.1495 1165.09 L52.1495 1161.16 Q54.8115 1158.4 59.3949 1153.77 Q64.0013 1149.12 65.1819 1147.78 Q67.4272 1145.25 68.3068 1143.52 Q69.2096 1141.76 69.2096 1140.07 Q69.2096 1137.31 67.2652 1135.58 Q65.3439 1133.84 62.2421 1133.84 Q60.043 1133.84 57.5893 1134.61 Q55.1588 1135.37 52.381 1136.92 L52.381 1132.2 Q55.2051 1131.06 57.6588 1130.49 Q60.1124 1129.91 62.1495 1129.91 Q67.5198 1129.91 70.7142 1132.59 Q73.9087 1135.28 73.9087 1139.77 Q73.9087 1141.9 73.0985 1143.82 Q72.3115 1145.72 70.205 1148.31 Q69.6263 1148.98 66.5245 1152.2 Q63.4226 1155.39 57.7745 1161.16 Z" fill="#000000" fill-rule="nonzero" fill-opacity="1" /><path clip-path="url(#clip720)" d="M93.9086 1133.61 Q90.2975 1133.61 88.4688 1137.18 Q86.6632 1140.72 86.6632 1147.85 Q86.6632 1154.95 88.4688 1158.52 Q90.2975 1162.06 93.9086 1162.06 Q97.5428 1162.06 99.3483 1158.52 Q101.177 1154.95 101.177 1147.85 Q101.177 1140.72 99.3483 1137.18 Q97.5428 1133.61 93.9086 1133.61 M93.9086 1129.91 Q99.7187 1129.91 102.774 1134.51 Q105.853 1139.1 105.853 1147.85 Q105.853 1156.57 102.774 1161.18 Q99.7187 1165.76 93.9086 1165.76 Q88.0984 1165.76 85.0197 1161.18 Q81.9642 1156.57 81.9642 1147.85 Q81.9642 1139.1 85.0197 1134.51 Q88.0984 1129.91 93.9086 1129.91 Z" fill="#000000" fill-rule="nonzero" fill-opacity="1" /><path clip-path="url(#clip720)" d="M66.5939 795.97 L54.7884 814.419 L66.5939 814.419 L66.5939 795.97 M65.367 791.896 L71.2466 791.896 L71.2466 814.419 L76.1772 814.419 L76.1772 818.307 L71.2466 818.307 L71.2466 826.456 L66.5939 826.456 L66.5939 818.307 L50.9921 818.307 L50.9921 813.794 L65.367 791.896 Z" fill="#000000" fill-rule="nonzero" fill-opacity="1" /><path clip-path="url(#clip720)" d="M93.9086 794.974 Q90.2975 794.974 88.4688 798.539 Q86.6632 802.081 86.6632 809.21 Q86.6632 816.317 88.4688 819.881 Q90.2975 823.423 93.9086 823.423 Q97.5428 823.423 99.3483 819.881 Q101.177 816.317 101.177 809.21 Q101.177 802.081 99.3483 798.539 Q97.5428 794.974 93.9086 794.974 M93.9086 791.271 Q99.7187 791.271 102.774 795.877 Q105.853 800.46 105.853 809.21 Q105.853 817.937 102.774 822.543 Q99.7187 827.127 93.9086 827.127 Q88.0984 827.127 85.0197 822.543 Q81.9642 817.937 81.9642 809.21 Q81.9642 800.46 85.0197 795.877 Q88.0984 791.271 93.9086 791.271 Z" fill="#000000" fill-rule="nonzero" fill-opacity="1" /><path clip-path="url(#clip720)" d="M64.3254 468.676 Q61.1773 468.676 59.3254 470.829 Q57.4967 472.981 57.4967 476.731 Q57.4967 480.458 59.3254 482.634 Q61.1773 484.787 64.3254 484.787 Q67.4735 484.787 69.3022 482.634 Q71.1541 480.458 71.1541 476.731 Q71.1541 472.981 69.3022 470.829 Q67.4735 468.676 64.3254 468.676 M73.6077 454.023 L73.6077 458.282 Q71.8485 457.449 70.0429 457.009 Q68.2606 456.569 66.5013 456.569 Q61.8717 456.569 59.418 459.694 Q56.9875 462.819 56.6402 469.139 Q58.006 467.125 60.0662 466.06 Q62.1263 464.972 64.6032 464.972 Q69.8115 464.972 72.8207 468.144 Q75.8531 471.292 75.8531 476.731 Q75.8531 482.055 72.705 485.273 Q69.5568 488.491 64.3254 488.491 Q58.33 488.491 55.1588 483.907 Q51.9875 479.301 51.9875 470.574 Q51.9875 462.38 55.8764 457.519 Q59.7652 452.634 66.3161 452.634 Q68.0754 452.634 69.8578 452.982 Q71.6633 453.329 73.6077 454.023 Z" fill="#000000" fill-rule="nonzero" fill-opacity="1" /><path clip-path="url(#clip720)" d="M93.9086 456.338 Q90.2975 456.338 88.4688 459.903 Q86.6632 463.444 86.6632 470.574 Q86.6632 477.68 88.4688 481.245 Q90.2975 484.787 93.9086 484.787 Q97.5428 484.787 99.3483 481.245 Q101.177 477.68 101.177 470.574 Q101.177 463.444 99.3483 459.903 Q97.5428 456.338 93.9086 456.338 M93.9086 452.634 Q99.7187 452.634 102.774 457.241 Q105.853 461.824 105.853 470.574 Q105.853 479.301 102.774 483.907 Q99.7187 488.491 93.9086 488.491 Q88.0984 488.491 85.0197 483.907 Q81.9642 479.301 81.9642 470.574 Q81.9642 461.824 85.0197 457.241 Q88.0984 452.634 93.9086 452.634 Z" fill="#000000" fill-rule="nonzero" fill-opacity="1" /><path clip-path="url(#clip720)" d="M63.7467 132.771 Q60.4134 132.771 58.4921 134.554 Q56.5939 136.336 56.5939 139.461 Q56.5939 142.586 58.4921 144.368 Q60.4134 146.151 63.7467 146.151 Q67.08 146.151 69.0013 144.368 Q70.9226 142.563 70.9226 139.461 Q70.9226 136.336 69.0013 134.554 Q67.1032 132.771 63.7467 132.771 M59.0708 130.78 Q56.0615 130.04 54.3717 127.98 Q52.7051 125.919 52.7051 122.956 Q52.7051 118.813 55.6449 116.406 Q58.6078 113.998 63.7467 113.998 Q68.9087 113.998 71.8485 116.406 Q74.7883 118.813 74.7883 122.956 Q74.7883 125.919 73.0985 127.98 Q71.4318 130.04 68.4457 130.78 Q71.8253 131.567 73.7003 133.859 Q75.5985 136.151 75.5985 139.461 Q75.5985 144.484 72.5198 147.169 Q69.4642 149.854 63.7467 149.854 Q58.0291 149.854 54.9504 147.169 Q51.8949 144.484 51.8949 139.461 Q51.8949 136.151 53.793 133.859 Q55.6912 131.567 59.0708 130.78 M57.3578 123.396 Q57.3578 126.081 59.0245 127.586 Q60.7143 129.091 63.7467 129.091 Q66.7559 129.091 68.4457 127.586 Q70.1587 126.081 70.1587 123.396 Q70.1587 120.711 68.4457 119.206 Q66.7559 117.702 63.7467 117.702 Q60.7143 117.702 59.0245 119.206 Q57.3578 120.711 57.3578 123.396 Z" fill="#000000" fill-rule="nonzero" fill-opacity="1" /><path clip-path="url(#clip720)" d="M93.9086 117.702 Q90.2975 117.702 88.4688 121.267 Q86.6632 124.808 86.6632 131.938 Q86.6632 139.044 88.4688 142.609 Q90.2975 146.151 93.9086 146.151 Q97.5428 146.151 99.3483 142.609 Q101.177 139.044 101.177 131.938 Q101.177 124.808 99.3483 121.267 Q97.5428 117.702 93.9086 117.702 M93.9086 113.998 Q99.7187 113.998 102.774 118.605 Q105.853 123.188 105.853 131.938 Q105.853 140.665 102.774 145.271 Q99.7187 149.854 93.9086 149.854 Q88.0984 149.854 85.0197 145.271 Q81.9642 140.665 81.9642 131.938 Q81.9642 123.188 85.0197 118.605 Q88.0984 113.998 93.9086 113.998 Z" fill="#000000" fill-rule="nonzero" fill-opacity="1" /><path clip-path="url(#clip722)" d="M263.457 1469.52 L263.457 1486.45 L442.338 1486.45 L442.338 1469.52 L263.457 1469.52 L263.457 1469.52  Z" fill="#009af9" fill-rule="evenodd" fill-opacity="1"/>
<polyline clip-path="url(#clip722)" style="stroke:#000000; stroke-linecap:round; stroke-linejoin:round; stroke-width:4; stroke-opacity:1; fill:none" points="263.457,1469.52 263.457,1486.45 442.338,1486.45 442.338,1469.52 263.457,1469.52 "/>
<path clip-path="url(#clip722)" d="M442.338 1452.58 L442.338 1486.45 L621.219 1486.45 L621.219 1452.58 L442.338 1452.58 L442.338 1452.58  Z" fill="#009af9" fill-rule="evenodd" fill-opacity="1"/>
<polyline clip-path="url(#clip722)" style="stroke:#000000; stroke-linecap:round; stroke-linejoin:round; stroke-width:4; stroke-opacity:1; fill:none" points="442.338,1452.58 442.338,1486.45 621.219,1486.45 621.219,1452.58 442.338,1452.58 "/>
<path clip-path="url(#clip722)" d="M621.219 1452.58 L621.219 1486.45 L800.101 1486.45 L800.101 1452.58 L621.219 1452.58 L621.219 1452.58  Z" fill="#009af9" fill-rule="evenodd" fill-opacity="1"/>
<polyline clip-path="url(#clip722)" style="stroke:#000000; stroke-linecap:round; stroke-linejoin:round; stroke-width:4; stroke-opacity:1; fill:none" points="621.219,1452.58 621.219,1486.45 800.101,1486.45 800.101,1452.58 621.219,1452.58 "/>
<path clip-path="url(#clip722)" d="M800.101 1401.79 L800.101 1486.45 L978.982 1486.45 L978.982 1401.79 L800.101 1401.79 L800.101 1401.79  Z" fill="#009af9" fill-rule="evenodd" fill-opacity="1"/>
<polyline clip-path="url(#clip722)" style="stroke:#000000; stroke-linecap:round; stroke-linejoin:round; stroke-width:4; stroke-opacity:1; fill:none" points="800.101,1401.79 800.101,1486.45 978.982,1486.45 978.982,1401.79 800.101,1401.79 "/>
<path clip-path="url(#clip722)" d="M978.982 1401.79 L978.982 1486.45 L1157.86 1486.45 L1157.86 1401.79 L978.982 1401.79 L978.982 1401.79  Z" fill="#009af9" fill-rule="evenodd" fill-opacity="1"/>
<polyline clip-path="url(#clip722)" style="stroke:#000000; stroke-linecap:round; stroke-linejoin:round; stroke-width:4; stroke-opacity:1; fill:none" points="978.982,1401.79 978.982,1486.45 1157.86,1486.45 1157.86,1401.79 978.982,1401.79 "/>
<path clip-path="url(#clip722)" d="M1157.86 1317.13 L1157.86 1486.45 L1336.75 1486.45 L1336.75 1317.13 L1157.86 1317.13 L1157.86 1317.13  Z" fill="#009af9" fill-rule="evenodd" fill-opacity="1"/>
<polyline clip-path="url(#clip722)" style="stroke:#000000; stroke-linecap:round; stroke-linejoin:round; stroke-width:4; stroke-opacity:1; fill:none" points="1157.86,1317.13 1157.86,1486.45 1336.75,1486.45 1336.75,1317.13 1157.86,1317.13 "/>
<path clip-path="url(#clip722)" d="M1336.75 1435.65 L1336.75 1486.45 L1515.63 1486.45 L1515.63 1435.65 L1336.75 1435.65 L1336.75 1435.65  Z" fill="#009af9" fill-rule="evenodd" fill-opacity="1"/>
<polyline clip-path="url(#clip722)" style="stroke:#000000; stroke-linecap:round; stroke-linejoin:round; stroke-width:4; stroke-opacity:1; fill:none" points="1336.75,1435.65 1336.75,1486.45 1515.63,1486.45 1515.63,1435.65 1336.75,1435.65 "/>
<path clip-path="url(#clip722)" d="M1515.63 1283.27 L1515.63 1486.45 L1694.51 1486.45 L1694.51 1283.27 L1515.63 1283.27 L1515.63 1283.27  Z" fill="#009af9" fill-rule="evenodd" fill-opacity="1"/>
<polyline clip-path="url(#clip722)" style="stroke:#000000; stroke-linecap:round; stroke-linejoin:round; stroke-width:4; stroke-opacity:1; fill:none" points="1515.63,1283.27 1515.63,1486.45 1694.51,1486.45 1694.51,1283.27 1515.63,1283.27 "/>
<path clip-path="url(#clip722)" d="M1694.51 1384.86 L1694.51 1486.45 L1873.39 1486.45 L1873.39 1384.86 L1694.51 1384.86 L1694.51 1384.86  Z" fill="#009af9" fill-rule="evenodd" fill-opacity="1"/>
<polyline clip-path="url(#clip722)" style="stroke:#000000; stroke-linecap:round; stroke-linejoin:round; stroke-width:4; stroke-opacity:1; fill:none" points="1694.51,1384.86 1694.51,1486.45 1873.39,1486.45 1873.39,1384.86 1694.51,1384.86 "/>
<path clip-path="url(#clip722)" d="M1873.39 1384.86 L1873.39 1486.45 L2052.27 1486.45 L2052.27 1384.86 L1873.39 1384.86 L1873.39 1384.86  Z" fill="#009af9" fill-rule="evenodd" fill-opacity="1"/>
<polyline clip-path="url(#clip722)" style="stroke:#000000; stroke-linecap:round; stroke-linejoin:round; stroke-width:4; stroke-opacity:1; fill:none" points="1873.39,1384.86 1873.39,1486.45 2052.27,1486.45 2052.27,1384.86 1873.39,1384.86 "/>
<path clip-path="url(#clip722)" d="M2052.27 673.721 L2052.27 1486.45 L2231.15 1486.45 L2231.15 673.721 L2052.27 673.721 L2052.27 673.721  Z" fill="#009af9" fill-rule="evenodd" fill-opacity="1"/>
<polyline clip-path="url(#clip722)" style="stroke:#000000; stroke-linecap:round; stroke-linejoin:round; stroke-width:4; stroke-opacity:1; fill:none" points="2052.27,673.721 2052.27,1486.45 2231.15,1486.45 2231.15,673.721 2052.27,673.721 "/>
<circle clip-path="url(#clip722)" style="fill:#009af9; stroke:none; fill-opacity:0" cx="352.897" cy="1469.52" r="2"/>
<circle clip-path="url(#clip722)" style="fill:#009af9; stroke:none; fill-opacity:0" cx="531.779" cy="1452.58" r="2"/>
<circle clip-path="url(#clip722)" style="fill:#009af9; stroke:none; fill-opacity:0" cx="710.66" cy="1452.58" r="2"/>
<circle clip-path="url(#clip722)" style="fill:#009af9; stroke:none; fill-opacity:0" cx="889.542" cy="1401.79" r="2"/>
<circle clip-path="url(#clip722)" style="fill:#009af9; stroke:none; fill-opacity:0" cx="1068.42" cy="1401.79" r="2"/>
<circle clip-path="url(#clip722)" style="fill:#009af9; stroke:none; fill-opacity:0" cx="1247.3" cy="1317.13" r="2"/>
<circle clip-path="url(#clip722)" style="fill:#009af9; stroke:none; fill-opacity:0" cx="1426.19" cy="1435.65" r="2"/>
<circle clip-path="url(#clip722)" style="fill:#009af9; stroke:none; fill-opacity:0" cx="1605.07" cy="1283.27" r="2"/>
<circle clip-path="url(#clip722)" style="fill:#009af9; stroke:none; fill-opacity:0" cx="1783.95" cy="1384.86" r="2"/>
<circle clip-path="url(#clip722)" style="fill:#009af9; stroke:none; fill-opacity:0" cx="1962.83" cy="1384.86" r="2"/>
<circle clip-path="url(#clip722)" style="fill:#009af9; stroke:none; fill-opacity:0" cx="2141.71" cy="673.721" r="2"/>
<path clip-path="url(#clip722)" d="M263.457 1486.45 L263.457 1486.45 L442.338 1486.45 L442.338 1486.45 L263.457 1486.45 L263.457 1486.45  Z" fill="#e26f46" fill-rule="evenodd" fill-opacity="0.5"/>
<polyline clip-path="url(#clip722)" style="stroke:#000000; stroke-linecap:round; stroke-linejoin:round; stroke-width:4; stroke-opacity:0.5; fill:none" points="263.457,1486.45 263.457,1486.45 442.338,1486.45 263.457,1486.45 "/>
<path clip-path="url(#clip722)" d="M442.338 1486.45 L442.338 1486.45 L621.219 1486.45 L621.219 1486.45 L442.338 1486.45 L442.338 1486.45  Z" fill="#e26f46" fill-rule="evenodd" fill-opacity="0.5"/>
<polyline clip-path="url(#clip722)" style="stroke:#000000; stroke-linecap:round; stroke-linejoin:round; stroke-width:4; stroke-opacity:0.5; fill:none" points="442.338,1486.45 442.338,1486.45 621.219,1486.45 442.338,1486.45 "/>
<path clip-path="url(#clip722)" d="M621.219 1469.52 L621.219 1486.45 L800.101 1486.45 L800.101 1469.52 L621.219 1469.52 L621.219 1469.52  Z" fill="#e26f46" fill-rule="evenodd" fill-opacity="0.5"/>
<polyline clip-path="url(#clip722)" style="stroke:#000000; stroke-linecap:round; stroke-linejoin:round; stroke-width:4; stroke-opacity:0.5; fill:none" points="621.219,1469.52 621.219,1486.45 800.101,1486.45 800.101,1469.52 621.219,1469.52 "/>
<path clip-path="url(#clip722)" d="M800.101 1452.58 L800.101 1486.45 L978.982 1486.45 L978.982 1452.58 L800.101 1452.58 L800.101 1452.58  Z" fill="#e26f46" fill-rule="evenodd" fill-opacity="0.5"/>
<polyline clip-path="url(#clip722)" style="stroke:#000000; stroke-linecap:round; stroke-linejoin:round; stroke-width:4; stroke-opacity:0.5; fill:none" points="800.101,1452.58 800.101,1486.45 978.982,1486.45 978.982,1452.58 800.101,1452.58 "/>
<path clip-path="url(#clip722)" d="M978.982 1452.58 L978.982 1486.45 L1157.86 1486.45 L1157.86 1452.58 L978.982 1452.58 L978.982 1452.58  Z" fill="#e26f46" fill-rule="evenodd" fill-opacity="0.5"/>
<polyline clip-path="url(#clip722)" style="stroke:#000000; stroke-linecap:round; stroke-linejoin:round; stroke-width:4; stroke-opacity:0.5; fill:none" points="978.982,1452.58 978.982,1486.45 1157.86,1486.45 1157.86,1452.58 978.982,1452.58 "/>
<path clip-path="url(#clip722)" d="M1157.86 1401.79 L1157.86 1486.45 L1336.75 1486.45 L1336.75 1401.79 L1157.86 1401.79 L1157.86 1401.79  Z" fill="#e26f46" fill-rule="evenodd" fill-opacity="0.5"/>
<polyline clip-path="url(#clip722)" style="stroke:#000000; stroke-linecap:round; stroke-linejoin:round; stroke-width:4; stroke-opacity:0.5; fill:none" points="1157.86,1401.79 1157.86,1486.45 1336.75,1486.45 1336.75,1401.79 1157.86,1401.79 "/>
<path clip-path="url(#clip722)" d="M1336.75 1401.79 L1336.75 1486.45 L1515.63 1486.45 L1515.63 1401.79 L1336.75 1401.79 L1336.75 1401.79  Z" fill="#e26f46" fill-rule="evenodd" fill-opacity="0.5"/>
<polyline clip-path="url(#clip722)" style="stroke:#000000; stroke-linecap:round; stroke-linejoin:round; stroke-width:4; stroke-opacity:0.5; fill:none" points="1336.75,1401.79 1336.75,1486.45 1515.63,1486.45 1515.63,1401.79 1336.75,1401.79 "/>
<path clip-path="url(#clip722)" d="M1515.63 47.2441 L1515.63 1486.45 L1694.51 1486.45 L1694.51 47.2441 L1515.63 47.2441 L1515.63 47.2441  Z" fill="#e26f46" fill-rule="evenodd" fill-opacity="0.5"/>
<polyline clip-path="url(#clip722)" style="stroke:#000000; stroke-linecap:round; stroke-linejoin:round; stroke-width:4; stroke-opacity:0.5; fill:none" points="1515.63,47.2441 1515.63,1486.45 1694.51,1486.45 1694.51,47.2441 1515.63,47.2441 "/>
<path clip-path="url(#clip722)" d="M1694.51 1486.45 L1694.51 1486.45 L1873.39 1486.45 L1873.39 1486.45 L1694.51 1486.45 L1694.51 1486.45  Z" fill="#e26f46" fill-rule="evenodd" fill-opacity="0.5"/>
<polyline clip-path="url(#clip722)" style="stroke:#000000; stroke-linecap:round; stroke-linejoin:round; stroke-width:4; stroke-opacity:0.5; fill:none" points="1694.51,1486.45 1694.51,1486.45 1873.39,1486.45 1694.51,1486.45 "/>
<path clip-path="url(#clip722)" d="M1873.39 1486.45 L1873.39 1486.45 L2052.27 1486.45 L2052.27 1486.45 L1873.39 1486.45 L1873.39 1486.45  Z" fill="#e26f46" fill-rule="evenodd" fill-opacity="0.5"/>
<polyline clip-path="url(#clip722)" style="stroke:#000000; stroke-linecap:round; stroke-linejoin:round; stroke-width:4; stroke-opacity:0.5; fill:none" points="1873.39,1486.45 1873.39,1486.45 2052.27,1486.45 1873.39,1486.45 "/>
<path clip-path="url(#clip722)" d="M2052.27 1486.45 L2052.27 1486.45 L2231.15 1486.45 L2231.15 1486.45 L2052.27 1486.45 L2052.27 1486.45  Z" fill="#e26f46" fill-rule="evenodd" fill-opacity="0.5"/>
<polyline clip-path="url(#clip722)" style="stroke:#000000; stroke-linecap:round; stroke-linejoin:round; stroke-width:4; stroke-opacity:0.5; fill:none" points="2052.27,1486.45 2052.27,1486.45 2231.15,1486.45 2052.27,1486.45 "/>
<circle clip-path="url(#clip722)" style="fill:#e26f46; stroke:none; fill-opacity:0" cx="352.897" cy="1486.45" r="2"/>
<circle clip-path="url(#clip722)" style="fill:#e26f46; stroke:none; fill-opacity:0" cx="531.779" cy="1486.45" r="2"/>
<circle clip-path="url(#clip722)" style="fill:#e26f46; stroke:none; fill-opacity:0" cx="710.66" cy="1469.52" r="2"/>
<circle clip-path="url(#clip722)" style="fill:#e26f46; stroke:none; fill-opacity:0" cx="889.542" cy="1452.58" r="2"/>
<circle clip-path="url(#clip722)" style="fill:#e26f46; stroke:none; fill-opacity:0" cx="1068.42" cy="1452.58" r="2"/>
<circle clip-path="url(#clip722)" style="fill:#e26f46; stroke:none; fill-opacity:0" cx="1247.3" cy="1401.79" r="2"/>
<circle clip-path="url(#clip722)" style="fill:#e26f46; stroke:none; fill-opacity:0" cx="1426.19" cy="1401.79" r="2"/>
<circle clip-path="url(#clip722)" style="fill:#e26f46; stroke:none; fill-opacity:0" cx="1605.07" cy="47.2441" r="2"/>
<circle clip-path="url(#clip722)" style="fill:#e26f46; stroke:none; fill-opacity:0" cx="1783.95" cy="1486.45" r="2"/>
<circle clip-path="url(#clip722)" style="fill:#e26f46; stroke:none; fill-opacity:0" cx="1962.83" cy="1486.45" r="2"/>
<circle clip-path="url(#clip722)" style="fill:#e26f46; stroke:none; fill-opacity:0" cx="2141.71" cy="1486.45" r="2"/>
<path clip-path="url(#clip720)" d="M1784.87 250.738 L2279.06 250.738 L2279.06 95.2176 L1784.87 95.2176  Z" fill="#ffffff" fill-rule="evenodd" fill-opacity="1"/>
<polyline clip-path="url(#clip720)" style="stroke:#000000; stroke-linecap:round; stroke-linejoin:round; stroke-width:4; stroke-opacity:1; fill:none" points="1784.87,250.738 2279.06,250.738 2279.06,95.2176 1784.87,95.2176 1784.87,250.738 "/>
<path clip-path="url(#clip720)" d="M1809.43 167.794 L1956.83 167.794 L1956.83 126.322 L1809.43 126.322 L1809.43 167.794  Z" fill="#009af9" fill-rule="evenodd" fill-opacity="1"/>
<polyline clip-path="url(#clip720)" style="stroke:#000000; stroke-linecap:round; stroke-linejoin:round; stroke-width:4; stroke-opacity:1; fill:none" points="1809.43,167.794 1956.83,167.794 1956.83,126.322 1809.43,126.322 1809.43,167.794 "/>
<path clip-path="url(#clip720)" d="M1981.39 129.778 L2003.24 129.778 L2003.24 133.713 L1986.07 133.713 L1986.07 143.944 L2002.53 143.944 L2002.53 147.879 L1986.07 147.879 L1986.07 160.402 L2003.66 160.402 L2003.66 164.338 L1981.39 164.338 L1981.39 129.778 Z" fill="#000000" fill-rule="nonzero" fill-opacity="1" /><path clip-path="url(#clip720)" d="M2032.71 138.412 L2023.34 151.027 L2033.2 164.338 L2028.18 164.338 L2020.63 154.152 L2013.08 164.338 L2008.06 164.338 L2018.13 150.773 L2008.92 138.412 L2013.94 138.412 L2020.81 147.648 L2027.69 138.412 L2032.71 138.412 Z" fill="#000000" fill-rule="nonzero" fill-opacity="1" /><path clip-path="url(#clip720)" d="M2043.34 160.449 L2043.34 174.199 L2039.05 174.199 L2039.05 138.412 L2043.34 138.412 L2043.34 142.347 Q2044.68 140.032 2046.72 138.921 Q2048.78 137.787 2051.62 137.787 Q2056.35 137.787 2059.29 141.537 Q2062.25 145.287 2062.25 151.398 Q2062.25 157.509 2059.29 161.259 Q2056.35 165.009 2051.62 165.009 Q2048.78 165.009 2046.72 163.898 Q2044.68 162.763 2043.34 160.449 M2057.83 151.398 Q2057.83 146.699 2055.88 144.037 Q2053.96 141.352 2050.58 141.352 Q2047.2 141.352 2045.26 144.037 Q2043.34 146.699 2043.34 151.398 Q2043.34 156.097 2045.26 158.782 Q2047.2 161.444 2050.58 161.444 Q2053.96 161.444 2055.88 158.782 Q2057.83 156.097 2057.83 151.398 Z" fill="#000000" fill-rule="nonzero" fill-opacity="1" /><path clip-path="url(#clip720)" d="M2091.49 150.31 L2091.49 152.393 L2071.9 152.393 Q2072.18 156.791 2074.54 159.106 Q2076.93 161.398 2081.16 161.398 Q2083.61 161.398 2085.91 160.796 Q2088.22 160.194 2090.49 158.99 L2090.49 163.018 Q2088.2 163.99 2085.79 164.5 Q2083.38 165.009 2080.91 165.009 Q2074.7 165.009 2071.07 161.398 Q2067.46 157.787 2067.46 151.629 Q2067.46 145.264 2070.88 141.537 Q2074.33 137.787 2080.17 137.787 Q2085.4 137.787 2088.43 141.166 Q2091.49 144.523 2091.49 150.31 M2087.23 149.06 Q2087.18 145.565 2085.26 143.481 Q2083.36 141.398 2080.21 141.398 Q2076.65 141.398 2074.49 143.412 Q2072.36 145.426 2072.04 149.083 L2087.23 149.06 Z" fill="#000000" fill-rule="nonzero" fill-opacity="1" /><path clip-path="url(#clip720)" d="M2117.13 139.407 L2117.13 143.389 Q2115.33 142.393 2113.5 141.907 Q2111.69 141.398 2109.84 141.398 Q2105.7 141.398 2103.41 144.037 Q2101.11 146.652 2101.11 151.398 Q2101.11 156.143 2103.41 158.782 Q2105.7 161.398 2109.84 161.398 Q2111.69 161.398 2113.5 160.912 Q2115.33 160.402 2117.13 159.407 L2117.13 163.342 Q2115.35 164.176 2113.43 164.592 Q2111.53 165.009 2109.38 165.009 Q2103.52 165.009 2100.07 161.328 Q2096.62 157.648 2096.62 151.398 Q2096.62 145.055 2100.1 141.421 Q2103.59 137.787 2109.66 137.787 Q2111.62 137.787 2113.5 138.203 Q2115.37 138.597 2117.13 139.407 Z" fill="#000000" fill-rule="nonzero" fill-opacity="1" /><path clip-path="url(#clip720)" d="M2128.75 131.051 L2128.75 138.412 L2137.53 138.412 L2137.53 141.722 L2128.75 141.722 L2128.75 155.796 Q2128.75 158.967 2129.61 159.87 Q2130.49 160.773 2133.15 160.773 L2137.53 160.773 L2137.53 164.338 L2133.15 164.338 Q2128.22 164.338 2126.35 162.509 Q2124.47 160.657 2124.47 155.796 L2124.47 141.722 L2121.35 141.722 L2121.35 138.412 L2124.47 138.412 L2124.47 131.051 L2128.75 131.051 Z" fill="#000000" fill-rule="nonzero" fill-opacity="1" /><path clip-path="url(#clip720)" d="M2154.91 151.305 Q2149.75 151.305 2147.76 152.486 Q2145.77 153.666 2145.77 156.514 Q2145.77 158.782 2147.25 160.125 Q2148.75 161.444 2151.32 161.444 Q2154.86 161.444 2156.99 158.944 Q2159.15 156.421 2159.15 152.254 L2159.15 151.305 L2154.91 151.305 M2163.41 149.546 L2163.41 164.338 L2159.15 164.338 L2159.15 160.402 Q2157.69 162.763 2155.51 163.898 Q2153.34 165.009 2150.19 165.009 Q2146.21 165.009 2143.85 162.787 Q2141.51 160.541 2141.51 156.791 Q2141.51 152.416 2144.42 150.194 Q2147.36 147.972 2153.17 147.972 L2159.15 147.972 L2159.15 147.555 Q2159.15 144.615 2157.2 143.018 Q2155.28 141.398 2151.79 141.398 Q2149.56 141.398 2147.46 141.93 Q2145.35 142.463 2143.41 143.527 L2143.41 139.592 Q2145.74 138.69 2147.94 138.25 Q2150.14 137.787 2152.23 137.787 Q2157.85 137.787 2160.63 140.703 Q2163.41 143.62 2163.41 149.546 Z" fill="#000000" fill-rule="nonzero" fill-opacity="1" /><path clip-path="url(#clip720)" d="M2176.39 131.051 L2176.39 138.412 L2185.17 138.412 L2185.17 141.722 L2176.39 141.722 L2176.39 155.796 Q2176.39 158.967 2177.25 159.87 Q2178.13 160.773 2180.79 160.773 L2185.17 160.773 L2185.17 164.338 L2180.79 164.338 Q2175.86 164.338 2173.98 162.509 Q2172.11 160.657 2172.11 155.796 L2172.11 141.722 L2168.98 141.722 L2168.98 138.412 L2172.11 138.412 L2172.11 131.051 L2176.39 131.051 Z" fill="#000000" fill-rule="nonzero" fill-opacity="1" /><path clip-path="url(#clip720)" d="M2190.77 138.412 L2195.03 138.412 L2195.03 164.338 L2190.77 164.338 L2190.77 138.412 M2190.77 128.319 L2195.03 128.319 L2195.03 133.713 L2190.77 133.713 L2190.77 128.319 Z" fill="#000000" fill-rule="nonzero" fill-opacity="1" /><path clip-path="url(#clip720)" d="M2213.98 141.398 Q2210.56 141.398 2208.57 144.083 Q2206.58 146.745 2206.58 151.398 Q2206.58 156.051 2208.54 158.736 Q2210.54 161.398 2213.98 161.398 Q2217.39 161.398 2219.38 158.713 Q2221.37 156.027 2221.37 151.398 Q2221.37 146.791 2219.38 144.106 Q2217.39 141.398 2213.98 141.398 M2213.98 137.787 Q2219.54 137.787 2222.71 141.398 Q2225.88 145.009 2225.88 151.398 Q2225.88 157.764 2222.71 161.398 Q2219.54 165.009 2213.98 165.009 Q2208.41 165.009 2205.23 161.398 Q2202.09 157.764 2202.09 151.398 Q2202.09 145.009 2205.23 141.398 Q2208.41 137.787 2213.98 137.787 Z" fill="#000000" fill-rule="nonzero" fill-opacity="1" /><path clip-path="url(#clip720)" d="M2254.49 148.689 L2254.49 164.338 L2250.23 164.338 L2250.23 148.828 Q2250.23 145.148 2248.8 143.319 Q2247.36 141.49 2244.49 141.49 Q2241.04 141.49 2239.05 143.69 Q2237.06 145.889 2237.06 149.685 L2237.06 164.338 L2232.78 164.338 L2232.78 138.412 L2237.06 138.412 L2237.06 142.44 Q2238.59 140.102 2240.65 138.944 Q2242.73 137.787 2245.44 137.787 Q2249.91 137.787 2252.2 140.565 Q2254.49 143.319 2254.49 148.689 Z" fill="#000000" fill-rule="nonzero" fill-opacity="1" /><path clip-path="url(#clip720)" d="M1809.43 219.634 L1956.83 219.634 L1956.83 178.162 L1809.43 178.162 L1809.43 219.634  Z" fill="#e26f46" fill-rule="evenodd" fill-opacity="0.5"/>
<polyline clip-path="url(#clip720)" style="stroke:#000000; stroke-linecap:round; stroke-linejoin:round; stroke-width:4; stroke-opacity:1; fill:none" points="1809.43,219.634 1956.83,219.634 1956.83,178.162 1809.43,178.162 1809.43,219.634 "/>
<path clip-path="url(#clip720)" d="M2009.26 184.28 L2009.26 189.21 Q2006.9 187.011 2004.22 185.923 Q2001.56 184.835 1998.55 184.835 Q1992.62 184.835 1989.47 188.469 Q1986.32 192.08 1986.32 198.932 Q1986.32 205.761 1989.47 209.395 Q1992.62 213.006 1998.55 213.006 Q2001.56 213.006 2004.22 211.918 Q2006.9 210.83 2009.26 208.631 L2009.26 213.516 Q2006.81 215.182 2004.06 216.016 Q2001.32 216.849 1998.27 216.849 Q1990.42 216.849 1985.91 212.057 Q1981.39 207.242 1981.39 198.932 Q1981.39 190.599 1985.91 185.807 Q1990.42 180.993 1998.27 180.993 Q2001.37 180.993 2004.1 181.826 Q2006.86 182.636 2009.26 184.28 Z" fill="#000000" fill-rule="nonzero" fill-opacity="1" /><path clip-path="url(#clip720)" d="M2025.4 216.178 L2012.2 181.618 L2017.09 181.618 L2028.04 210.715 L2039.01 181.618 L2043.87 181.618 L2030.7 216.178 L2025.4 216.178 Z" fill="#000000" fill-rule="nonzero" fill-opacity="1" /><path clip-path="url(#clip720)" d="M2061.9 203.747 Q2061.9 207.057 2063.55 208.955 Q2065.19 210.83 2068.06 210.83 Q2070.91 210.83 2072.53 208.932 Q2074.17 207.034 2074.17 203.747 Q2074.17 200.506 2072.5 198.608 Q2070.84 196.687 2068.01 196.687 Q2065.21 196.687 2063.55 198.585 Q2061.9 200.483 2061.9 203.747 M2074.52 210.668 Q2073.13 212.451 2071.32 213.307 Q2069.54 214.141 2067.16 214.141 Q2063.18 214.141 2060.68 211.27 Q2058.2 208.377 2058.2 203.747 Q2058.2 199.117 2060.7 196.224 Q2063.2 193.33 2067.16 193.33 Q2069.54 193.33 2071.35 194.21 Q2073.15 195.067 2074.52 196.826 L2074.52 193.793 L2077.83 193.793 L2077.83 210.83 Q2081.21 210.321 2083.11 207.752 Q2085.03 205.159 2085.03 201.062 Q2085.03 198.585 2084.29 196.409 Q2083.57 194.233 2082.09 192.381 Q2079.68 189.349 2076.21 187.752 Q2072.76 186.131 2068.68 186.131 Q2065.84 186.131 2063.22 186.895 Q2060.61 187.636 2058.38 189.118 Q2054.75 191.479 2052.69 195.321 Q2050.65 199.141 2050.65 203.608 Q2050.65 207.289 2051.97 210.506 Q2053.31 213.724 2055.84 216.178 Q2058.27 218.585 2061.46 219.835 Q2064.66 221.108 2068.29 221.108 Q2071.28 221.108 2074.15 220.09 Q2077.04 219.094 2079.45 217.219 L2081.53 219.789 Q2078.64 222.034 2075.21 223.215 Q2071.81 224.418 2068.29 224.418 Q2064.01 224.418 2060.21 222.89 Q2056.42 221.386 2053.45 218.492 Q2050.49 215.599 2048.94 211.803 Q2047.39 207.983 2047.39 203.608 Q2047.39 199.395 2048.96 195.576 Q2050.54 191.756 2053.45 188.863 Q2056.44 185.923 2060.35 184.372 Q2064.26 182.798 2068.64 182.798 Q2073.55 182.798 2077.74 184.812 Q2081.95 186.826 2084.8 190.53 Q2086.53 192.798 2087.43 195.46 Q2088.36 198.122 2088.36 200.969 Q2088.36 207.057 2084.68 210.576 Q2081 214.094 2074.52 214.233 L2074.52 210.668 Z" fill="#000000" fill-rule="nonzero" fill-opacity="1" /><path clip-path="url(#clip720)" d="M2112.71 199.974 Q2114.22 200.483 2115.63 202.15 Q2117.06 203.817 2118.5 206.733 L2123.24 216.178 L2118.22 216.178 L2113.8 207.312 Q2112.09 203.84 2110.47 202.705 Q2108.87 201.571 2106.09 201.571 L2101 201.571 L2101 216.178 L2096.32 216.178 L2096.32 181.618 L2106.88 181.618 Q2112.8 181.618 2115.72 184.094 Q2118.64 186.571 2118.64 191.571 Q2118.64 194.835 2117.11 196.988 Q2115.61 199.141 2112.71 199.974 M2101 185.46 L2101 197.729 L2106.88 197.729 Q2110.26 197.729 2111.97 196.178 Q2113.71 194.604 2113.71 191.571 Q2113.71 188.539 2111.97 187.011 Q2110.26 185.46 2106.88 185.46 L2101 185.46 Z" fill="#000000" fill-rule="nonzero" fill-opacity="1" /></svg>
