<?xml version="1.0" encoding="utf-8"?>
<svg xmlns="http://www.w3.org/2000/svg" xmlns:xlink="http://www.w3.org/1999/xlink" width="600" height="400" viewBox="0 0 2400 1600">
<defs>
  <clipPath id="clip580">
    <rect x="0" y="0" width="2400" height="1600"/>
  </clipPath>
</defs>
<path clip-path="url(#clip580)" d="M0 1600 L2400 1600 L2400 0 L0 0  Z" fill="#ffffff" fill-rule="evenodd" fill-opacity="1"/>
<defs>
  <clipPath id="clip581">
    <rect x="480" y="0" width="1681" height="1600"/>
  </clipPath>
</defs>
<path clip-path="url(#clip580)" d="M184.191 1423.18 L2352.76 1423.18 L2352.76 47.2441 L184.191 47.2441  Z" fill="#ffffff" fill-rule="evenodd" fill-opacity="1"/>
<defs>
  <clipPath id="clip582">
    <rect x="184" y="47" width="2170" height="1377"/>
  </clipPath>
</defs>
<polyline clip-path="url(#clip582)" style="stroke:#000000; stroke-linecap:round; stroke-linejoin:round; stroke-width:2; stroke-opacity:0.1; fill:none" points="303.466,1423.18 303.466,47.2441 "/>
<polyline clip-path="url(#clip582)" style="stroke:#000000; stroke-linecap:round; stroke-linejoin:round; stroke-width:2; stroke-opacity:0.1; fill:none" points="757.587,1423.18 757.587,47.2441 "/>
<polyline clip-path="url(#clip582)" style="stroke:#000000; stroke-linecap:round; stroke-linejoin:round; stroke-width:2; stroke-opacity:0.1; fill:none" points="1211.71,1423.18 1211.71,47.2441 "/>
<polyline clip-path="url(#clip582)" style="stroke:#000000; stroke-linecap:round; stroke-linejoin:round; stroke-width:2; stroke-opacity:0.1; fill:none" points="1665.83,1423.18 1665.83,47.2441 "/>
<polyline clip-path="url(#clip582)" style="stroke:#000000; stroke-linecap:round; stroke-linejoin:round; stroke-width:2; stroke-opacity:0.1; fill:none" points="2119.95,1423.18 2119.95,47.2441 "/>
<polyline clip-path="url(#clip580)" style="stroke:#000000; stroke-linecap:round; stroke-linejoin:round; stroke-width:4; stroke-opacity:1; fill:none" points="184.191,1423.18 2352.76,1423.18 "/>
<polyline clip-path="url(#clip580)" style="stroke:#000000; stroke-linecap:round; stroke-linejoin:round; stroke-width:4; stroke-opacity:1; fill:none" points="303.466,1423.18 303.466,1404.28 "/>
<polyline clip-path="url(#clip580)" style="stroke:#000000; stroke-linecap:round; stroke-linejoin:round; stroke-width:4; stroke-opacity:1; fill:none" points="757.587,1423.18 757.587,1404.28 "/>
<polyline clip-path="url(#clip580)" style="stroke:#000000; stroke-linecap:round; stroke-linejoin:round; stroke-width:4; stroke-opacity:1; fill:none" points="1211.71,1423.18 1211.71,1404.28 "/>
<polyline clip-path="url(#clip580)" style="stroke:#000000; stroke-linecap:round; stroke-linejoin:round; stroke-width:4; stroke-opacity:1; fill:none" points="1665.83,1423.18 1665.83,1404.28 "/>
<polyline clip-path="url(#clip580)" style="stroke:#000000; stroke-linecap:round; stroke-linejoin:round; stroke-width:4; stroke-opacity:1; fill:none" points="2119.95,1423.18 2119.95,1404.28 "/>
<path clip-path="url(#clip580)" d="M263.072 1481.64 L270.711 1481.64 L270.711 1455.28 L262.401 1456.95 L262.401 1452.69 L270.665 1451.02 L275.341 1451.02 L275.341 1481.64 L282.98 1481.64 L282.98 1485.58 L263.072 1485.58 L263.072 1481.64 Z" fill="#000000" fill-rule="nonzero" fill-opacity="1" /><path clip-path="url(#clip580)" d="M303.003 1466.44 Q299.855 1466.44 298.003 1468.59 Q296.174 1470.74 296.174 1474.49 Q296.174 1478.22 298.003 1480.39 Q299.855 1482.55 303.003 1482.55 Q306.151 1482.55 307.979 1480.39 Q309.831 1478.22 309.831 1474.49 Q309.831 1470.74 307.979 1468.59 Q306.151 1466.44 303.003 1466.44 M312.285 1451.78 L312.285 1456.04 Q310.526 1455.21 308.72 1454.77 Q306.938 1454.33 305.179 1454.33 Q300.549 1454.33 298.095 1457.45 Q295.665 1460.58 295.318 1466.9 Q296.683 1464.89 298.743 1463.82 Q300.804 1462.73 303.28 1462.73 Q308.489 1462.73 311.498 1465.9 Q314.53 1469.05 314.53 1474.49 Q314.53 1479.82 311.382 1483.03 Q308.234 1486.25 303.003 1486.25 Q297.007 1486.25 293.836 1481.67 Q290.665 1477.06 290.665 1468.33 Q290.665 1460.14 294.554 1455.28 Q298.443 1450.39 304.993 1450.39 Q306.753 1450.39 308.535 1450.74 Q310.341 1451.09 312.285 1451.78 Z" fill="#000000" fill-rule="nonzero" fill-opacity="1" /><path clip-path="url(#clip580)" d="M332.586 1454.1 Q328.975 1454.1 327.146 1457.66 Q325.341 1461.2 325.341 1468.33 Q325.341 1475.44 327.146 1479.01 Q328.975 1482.55 332.586 1482.55 Q336.22 1482.55 338.026 1479.01 Q339.854 1475.44 339.854 1468.33 Q339.854 1461.2 338.026 1457.66 Q336.22 1454.1 332.586 1454.1 M332.586 1450.39 Q338.396 1450.39 341.452 1455 Q344.53 1459.58 344.53 1468.33 Q344.53 1477.06 341.452 1481.67 Q338.396 1486.25 332.586 1486.25 Q326.776 1486.25 323.697 1481.67 Q320.641 1477.06 320.641 1468.33 Q320.641 1459.58 323.697 1455 Q326.776 1450.39 332.586 1450.39 Z" fill="#000000" fill-rule="nonzero" fill-opacity="1" /><path clip-path="url(#clip580)" d="M717.194 1481.64 L724.832 1481.64 L724.832 1455.28 L716.522 1456.95 L716.522 1452.69 L724.786 1451.02 L729.462 1451.02 L729.462 1481.64 L737.101 1481.64 L737.101 1485.58 L717.194 1485.58 L717.194 1481.64 Z" fill="#000000" fill-rule="nonzero" fill-opacity="1" /><path clip-path="url(#clip580)" d="M756.545 1469.17 Q753.212 1469.17 751.291 1470.95 Q749.392 1472.73 749.392 1475.86 Q749.392 1478.98 751.291 1480.77 Q753.212 1482.55 756.545 1482.55 Q759.879 1482.55 761.8 1480.77 Q763.721 1478.96 763.721 1475.86 Q763.721 1472.73 761.8 1470.95 Q759.902 1469.17 756.545 1469.17 M751.869 1467.18 Q748.86 1466.44 747.17 1464.38 Q745.504 1462.32 745.504 1459.35 Q745.504 1455.21 748.443 1452.8 Q751.406 1450.39 756.545 1450.39 Q761.707 1450.39 764.647 1452.8 Q767.587 1455.21 767.587 1459.35 Q767.587 1462.32 765.897 1464.38 Q764.23 1466.44 761.244 1467.18 Q764.624 1467.96 766.499 1470.26 Q768.397 1472.55 768.397 1475.86 Q768.397 1480.88 765.318 1483.57 Q762.263 1486.25 756.545 1486.25 Q750.828 1486.25 747.749 1483.57 Q744.693 1480.88 744.693 1475.86 Q744.693 1472.55 746.592 1470.26 Q748.49 1467.96 751.869 1467.18 M750.156 1459.79 Q750.156 1462.48 751.823 1463.98 Q753.513 1465.49 756.545 1465.49 Q759.554 1465.49 761.244 1463.98 Q762.957 1462.48 762.957 1459.79 Q762.957 1457.11 761.244 1455.6 Q759.554 1454.1 756.545 1454.1 Q753.513 1454.1 751.823 1455.6 Q750.156 1457.11 750.156 1459.79 Z" fill="#000000" fill-rule="nonzero" fill-opacity="1" /><path clip-path="url(#clip580)" d="M786.707 1454.1 Q783.096 1454.1 781.267 1457.66 Q779.462 1461.2 779.462 1468.33 Q779.462 1475.44 781.267 1479.01 Q783.096 1482.55 786.707 1482.55 Q790.341 1482.55 792.147 1479.01 Q793.976 1475.44 793.976 1468.33 Q793.976 1461.2 792.147 1457.66 Q790.341 1454.1 786.707 1454.1 M786.707 1450.39 Q792.517 1450.39 795.573 1455 Q798.651 1459.58 798.651 1468.33 Q798.651 1477.06 795.573 1481.67 Q792.517 1486.25 786.707 1486.25 Q780.897 1486.25 777.818 1481.67 Q774.763 1477.06 774.763 1468.33 Q774.763 1459.58 777.818 1455 Q780.897 1450.39 786.707 1450.39 Z" fill="#000000" fill-rule="nonzero" fill-opacity="1" /><path clip-path="url(#clip580)" d="M1175.4 1481.64 L1191.72 1481.64 L1191.72 1485.58 L1169.78 1485.58 L1169.78 1481.64 Q1172.44 1478.89 1177.02 1474.26 Q1181.63 1469.61 1182.81 1468.27 Q1185.05 1465.74 1185.93 1464.01 Q1186.84 1462.25 1186.84 1460.56 Q1186.84 1457.8 1184.89 1456.07 Q1182.97 1454.33 1179.87 1454.33 Q1177.67 1454.33 1175.22 1455.09 Q1172.78 1455.86 1170.01 1457.41 L1170.01 1452.69 Q1172.83 1451.55 1175.28 1450.97 Q1177.74 1450.39 1179.78 1450.39 Q1185.15 1450.39 1188.34 1453.08 Q1191.53 1455.77 1191.53 1460.26 Q1191.53 1462.39 1190.72 1464.31 Q1189.94 1466.2 1187.83 1468.8 Q1187.25 1469.47 1184.15 1472.69 Q1181.05 1475.88 1175.4 1481.64 Z" fill="#000000" fill-rule="nonzero" fill-opacity="1" /><path clip-path="url(#clip580)" d="M1211.53 1454.1 Q1207.92 1454.1 1206.09 1457.66 Q1204.29 1461.2 1204.29 1468.33 Q1204.29 1475.44 1206.09 1479.01 Q1207.92 1482.55 1211.53 1482.55 Q1215.17 1482.55 1216.97 1479.01 Q1218.8 1475.44 1218.8 1468.33 Q1218.8 1461.2 1216.97 1457.66 Q1215.17 1454.1 1211.53 1454.1 M1211.53 1450.39 Q1217.34 1450.39 1220.4 1455 Q1223.48 1459.58 1223.48 1468.33 Q1223.48 1477.06 1220.4 1481.67 Q1217.34 1486.25 1211.53 1486.25 Q1205.72 1486.25 1202.65 1481.67 Q1199.59 1477.06 1199.59 1468.33 Q1199.59 1459.58 1202.65 1455 Q1205.72 1450.39 1211.53 1450.39 Z" fill="#000000" fill-rule="nonzero" fill-opacity="1" /><path clip-path="url(#clip580)" d="M1241.7 1454.1 Q1238.09 1454.1 1236.26 1457.66 Q1234.45 1461.2 1234.45 1468.33 Q1234.45 1475.44 1236.26 1479.01 Q1238.09 1482.55 1241.7 1482.55 Q1245.33 1482.55 1247.14 1479.01 Q1248.96 1475.44 1248.96 1468.33 Q1248.96 1461.2 1247.14 1457.66 Q1245.33 1454.1 1241.7 1454.1 M1241.7 1450.39 Q1247.51 1450.39 1250.56 1455 Q1253.64 1459.58 1253.64 1468.33 Q1253.64 1477.06 1250.56 1481.67 Q1247.51 1486.25 1241.7 1486.25 Q1235.89 1486.25 1232.81 1481.67 Q1229.75 1477.06 1229.75 1468.33 Q1229.75 1459.58 1232.81 1455 Q1235.89 1450.39 1241.7 1450.39 Z" fill="#000000" fill-rule="nonzero" fill-opacity="1" /><path clip-path="url(#clip580)" d="M1629.52 1481.64 L1645.84 1481.64 L1645.84 1485.58 L1623.9 1485.58 L1623.9 1481.64 Q1626.56 1478.89 1631.14 1474.26 Q1635.75 1469.61 1636.93 1468.27 Q1639.17 1465.74 1640.05 1464.01 Q1640.96 1462.25 1640.96 1460.56 Q1640.96 1457.8 1639.01 1456.07 Q1637.09 1454.33 1633.99 1454.33 Q1631.79 1454.33 1629.34 1455.09 Q1626.91 1455.86 1624.13 1457.41 L1624.13 1452.69 Q1626.95 1451.55 1629.41 1450.97 Q1631.86 1450.39 1633.9 1450.39 Q1639.27 1450.39 1642.46 1453.08 Q1645.66 1455.77 1645.66 1460.26 Q1645.66 1462.39 1644.85 1464.31 Q1644.06 1466.2 1641.95 1468.8 Q1641.37 1469.47 1638.27 1472.69 Q1635.17 1475.88 1629.52 1481.64 Z" fill="#000000" fill-rule="nonzero" fill-opacity="1" /><path clip-path="url(#clip580)" d="M1659.68 1481.64 L1676 1481.64 L1676 1485.58 L1654.06 1485.58 L1654.06 1481.64 Q1656.72 1478.89 1661.3 1474.26 Q1665.91 1469.61 1667.09 1468.27 Q1669.34 1465.74 1670.22 1464.01 Q1671.12 1462.25 1671.12 1460.56 Q1671.12 1457.8 1669.17 1456.07 Q1667.25 1454.33 1664.15 1454.33 Q1661.95 1454.33 1659.5 1455.09 Q1657.07 1455.86 1654.29 1457.41 L1654.29 1452.69 Q1657.11 1451.55 1659.57 1450.97 Q1662.02 1450.39 1664.06 1450.39 Q1669.43 1450.39 1672.62 1453.08 Q1675.82 1455.77 1675.82 1460.26 Q1675.82 1462.39 1675.01 1464.31 Q1674.22 1466.2 1672.11 1468.8 Q1671.54 1469.47 1668.43 1472.69 Q1665.33 1475.88 1659.68 1481.64 Z" fill="#000000" fill-rule="nonzero" fill-opacity="1" /><path clip-path="url(#clip580)" d="M1695.82 1454.1 Q1692.21 1454.1 1690.38 1457.66 Q1688.57 1461.2 1688.57 1468.33 Q1688.57 1475.44 1690.38 1479.01 Q1692.21 1482.55 1695.82 1482.55 Q1699.45 1482.55 1701.26 1479.01 Q1703.09 1475.44 1703.09 1468.33 Q1703.09 1461.2 1701.26 1457.66 Q1699.45 1454.1 1695.82 1454.1 M1695.82 1450.39 Q1701.63 1450.39 1704.68 1455 Q1707.76 1459.58 1707.76 1468.33 Q1707.76 1477.06 1704.68 1481.67 Q1701.63 1486.25 1695.82 1486.25 Q1690.01 1486.25 1686.93 1481.67 Q1683.87 1477.06 1683.87 1468.33 Q1683.87 1459.58 1686.93 1455 Q1690.01 1450.39 1695.82 1450.39 Z" fill="#000000" fill-rule="nonzero" fill-opacity="1" /><path clip-path="url(#clip580)" d="M2083.64 1481.64 L2099.96 1481.64 L2099.96 1485.58 L2078.02 1485.58 L2078.02 1481.64 Q2080.68 1478.89 2085.26 1474.26 Q2089.87 1469.61 2091.05 1468.27 Q2093.3 1465.74 2094.18 1464.01 Q2095.08 1462.25 2095.08 1460.56 Q2095.08 1457.8 2093.13 1456.07 Q2091.21 1454.33 2088.11 1454.33 Q2085.91 1454.33 2083.46 1455.09 Q2081.03 1455.86 2078.25 1457.41 L2078.25 1452.69 Q2081.07 1451.55 2083.53 1450.97 Q2085.98 1450.39 2088.02 1450.39 Q2093.39 1450.39 2096.58 1453.08 Q2099.78 1455.77 2099.78 1460.26 Q2099.78 1462.39 2098.97 1464.31 Q2098.18 1466.2 2096.07 1468.8 Q2095.49 1469.47 2092.39 1472.69 Q2089.29 1475.88 2083.64 1481.64 Z" fill="#000000" fill-rule="nonzero" fill-opacity="1" /><path clip-path="url(#clip580)" d="M2122.62 1455.09 L2110.82 1473.54 L2122.62 1473.54 L2122.62 1455.09 M2121.4 1451.02 L2127.28 1451.02 L2127.28 1473.54 L2132.21 1473.54 L2132.21 1477.43 L2127.28 1477.43 L2127.28 1485.58 L2122.62 1485.58 L2122.62 1477.43 L2107.02 1477.43 L2107.02 1472.92 L2121.4 1451.02 Z" fill="#000000" fill-rule="nonzero" fill-opacity="1" /><path clip-path="url(#clip580)" d="M2149.94 1454.1 Q2146.33 1454.1 2144.5 1457.66 Q2142.69 1461.2 2142.69 1468.33 Q2142.69 1475.44 2144.5 1479.01 Q2146.33 1482.55 2149.94 1482.55 Q2153.57 1482.55 2155.38 1479.01 Q2157.21 1475.44 2157.21 1468.33 Q2157.21 1461.2 2155.38 1457.66 Q2153.57 1454.1 2149.94 1454.1 M2149.94 1450.39 Q2155.75 1450.39 2158.8 1455 Q2161.88 1459.58 2161.88 1468.33 Q2161.88 1477.06 2158.8 1481.67 Q2155.75 1486.25 2149.94 1486.25 Q2144.13 1486.25 2141.05 1481.67 Q2137.99 1477.06 2137.99 1468.33 Q2137.99 1459.58 2141.05 1455 Q2144.13 1450.39 2149.94 1450.39 Z" fill="#000000" fill-rule="nonzero" fill-opacity="1" /><path clip-path="url(#clip580)" d="M1142.85 1525.81 L1142.85 1562.76 L1150.61 1562.76 Q1160.45 1562.76 1165 1558.3 Q1169.58 1553.85 1169.58 1544.24 Q1169.58 1534.69 1165 1530.26 Q1160.45 1525.81 1150.61 1525.81 L1142.85 1525.81 M1136.42 1520.52 L1149.63 1520.52 Q1163.44 1520.52 1169.9 1526.28 Q1176.36 1532.01 1176.36 1544.24 Q1176.36 1556.52 1169.87 1562.28 Q1163.38 1568.04 1149.63 1568.04 L1136.42 1568.04 L1136.42 1520.52 Z" fill="#000000" fill-rule="nonzero" fill-opacity="1" /><path clip-path="url(#clip580)" d="M1216.85 1548.76 L1216.85 1551.62 L1189.92 1551.62 Q1190.3 1557.67 1193.55 1560.85 Q1196.83 1564 1202.65 1564 Q1206.03 1564 1209.18 1563.17 Q1212.36 1562.35 1215.48 1560.69 L1215.48 1566.23 Q1212.33 1567.57 1209.02 1568.27 Q1205.71 1568.97 1202.3 1568.97 Q1193.77 1568.97 1188.77 1564 Q1183.81 1559.04 1183.81 1550.57 Q1183.81 1541.82 1188.52 1536.69 Q1193.26 1531.54 1201.28 1531.54 Q1208.48 1531.54 1212.65 1536.18 Q1216.85 1540.8 1216.85 1548.76 M1210.99 1547.04 Q1210.93 1542.23 1208.29 1539.37 Q1205.68 1536.5 1201.35 1536.5 Q1196.45 1536.5 1193.49 1539.27 Q1190.56 1542.04 1190.11 1547.07 L1210.99 1547.04 Z" fill="#000000" fill-rule="nonzero" fill-opacity="1" /><path clip-path="url(#clip580)" d="M1254.21 1539.24 Q1256.41 1535.29 1259.47 1533.41 Q1262.52 1531.54 1266.66 1531.54 Q1272.23 1531.54 1275.25 1535.45 Q1278.28 1539.33 1278.28 1546.53 L1278.28 1568.04 L1272.39 1568.04 L1272.39 1546.72 Q1272.39 1541.59 1270.57 1539.11 Q1268.76 1536.63 1265.04 1536.63 Q1260.48 1536.63 1257.84 1539.65 Q1255.2 1542.68 1255.2 1547.9 L1255.2 1568.04 L1249.31 1568.04 L1249.31 1546.72 Q1249.31 1541.56 1247.5 1539.11 Q1245.68 1536.63 1241.9 1536.63 Q1237.41 1536.63 1234.77 1539.68 Q1232.13 1542.71 1232.13 1547.9 L1232.13 1568.04 L1226.24 1568.04 L1226.24 1532.4 L1232.13 1532.4 L1232.13 1537.93 Q1234.13 1534.66 1236.93 1533.1 Q1239.73 1531.54 1243.58 1531.54 Q1247.47 1531.54 1250.17 1533.51 Q1252.91 1535.48 1254.21 1539.24 Z" fill="#000000" fill-rule="nonzero" fill-opacity="1" /><path clip-path="url(#clip580)" d="M1306.16 1550.12 Q1299.06 1550.12 1296.32 1551.75 Q1293.59 1553.37 1293.59 1557.29 Q1293.59 1560.4 1295.62 1562.25 Q1297.69 1564.07 1301.22 1564.07 Q1306.09 1564.07 1309.02 1560.63 Q1311.98 1557.16 1311.98 1551.43 L1311.98 1550.12 L1306.16 1550.12 M1317.84 1547.71 L1317.84 1568.04 L1311.98 1568.04 L1311.98 1562.63 Q1309.98 1565.88 1306.99 1567.44 Q1303.99 1568.97 1299.67 1568.97 Q1294.19 1568.97 1290.94 1565.91 Q1287.73 1562.82 1287.73 1557.67 Q1287.73 1551.65 1291.74 1548.6 Q1295.78 1545.54 1303.77 1545.54 L1311.98 1545.54 L1311.98 1544.97 Q1311.98 1540.93 1309.31 1538.73 Q1306.67 1536.5 1301.86 1536.5 Q1298.81 1536.5 1295.91 1537.23 Q1293.01 1537.97 1290.34 1539.43 L1290.34 1534.02 Q1293.55 1532.78 1296.58 1532.17 Q1299.6 1531.54 1302.47 1531.54 Q1310.2 1531.54 1314.02 1535.55 Q1317.84 1539.56 1317.84 1547.71 Z" fill="#000000" fill-rule="nonzero" fill-opacity="1" /><path clip-path="url(#clip580)" d="M1359.53 1546.53 L1359.53 1568.04 L1353.68 1568.04 L1353.68 1546.72 Q1353.68 1541.66 1351.7 1539.14 Q1349.73 1536.63 1345.78 1536.63 Q1341.04 1536.63 1338.31 1539.65 Q1335.57 1542.68 1335.57 1547.9 L1335.57 1568.04 L1329.68 1568.04 L1329.68 1532.4 L1335.57 1532.4 L1335.57 1537.93 Q1337.67 1534.72 1340.5 1533.13 Q1343.37 1531.54 1347.09 1531.54 Q1353.23 1531.54 1356.38 1535.36 Q1359.53 1539.14 1359.53 1546.53 Z" fill="#000000" fill-rule="nonzero" fill-opacity="1" /><path clip-path="url(#clip580)" d="M1394.67 1537.81 L1394.67 1518.52 L1400.53 1518.52 L1400.53 1568.04 L1394.67 1568.04 L1394.67 1562.7 Q1392.83 1565.88 1389.99 1567.44 Q1387.19 1568.97 1383.25 1568.97 Q1376.79 1568.97 1372.71 1563.81 Q1368.67 1558.65 1368.67 1550.25 Q1368.67 1541.85 1372.71 1536.69 Q1376.79 1531.54 1383.25 1531.54 Q1387.19 1531.54 1389.99 1533.1 Q1392.83 1534.62 1394.67 1537.81 M1374.72 1550.25 Q1374.72 1556.71 1377.36 1560.4 Q1380.03 1564.07 1384.68 1564.07 Q1389.33 1564.07 1392 1560.4 Q1394.67 1556.71 1394.67 1550.25 Q1394.67 1543.79 1392 1540.13 Q1389.33 1536.44 1384.68 1536.44 Q1380.03 1536.44 1377.36 1540.13 Q1374.72 1543.79 1374.72 1550.25 Z" fill="#000000" fill-rule="nonzero" fill-opacity="1" /><polyline clip-path="url(#clip582)" style="stroke:#000000; stroke-linecap:round; stroke-linejoin:round; stroke-width:2; stroke-opacity:0.1; fill:none" points="184.191,1423.18 2352.76,1423.18 "/>
<polyline clip-path="url(#clip582)" style="stroke:#000000; stroke-linecap:round; stroke-linejoin:round; stroke-width:2; stroke-opacity:0.1; fill:none" points="184.191,1110.47 2352.76,1110.47 "/>
<polyline clip-path="url(#clip582)" style="stroke:#000000; stroke-linecap:round; stroke-linejoin:round; stroke-width:2; stroke-opacity:0.1; fill:none" points="184.191,797.755 2352.76,797.755 "/>
<polyline clip-path="url(#clip582)" style="stroke:#000000; stroke-linecap:round; stroke-linejoin:round; stroke-width:2; stroke-opacity:0.1; fill:none" points="184.191,485.042 2352.76,485.042 "/>
<polyline clip-path="url(#clip582)" style="stroke:#000000; stroke-linecap:round; stroke-linejoin:round; stroke-width:2; stroke-opacity:0.1; fill:none" points="184.191,172.329 2352.76,172.329 "/>
<polyline clip-path="url(#clip580)" style="stroke:#000000; stroke-linecap:round; stroke-linejoin:round; stroke-width:4; stroke-opacity:1; fill:none" points="184.191,1423.18 184.191,47.2441 "/>
<polyline clip-path="url(#clip580)" style="stroke:#000000; stroke-linecap:round; stroke-linejoin:round; stroke-width:4; stroke-opacity:1; fill:none" points="184.191,1423.18 203.088,1423.18 "/>
<polyline clip-path="url(#clip580)" style="stroke:#000000; stroke-linecap:round; stroke-linejoin:round; stroke-width:4; stroke-opacity:1; fill:none" points="184.191,1110.47 203.088,1110.47 "/>
<polyline clip-path="url(#clip580)" style="stroke:#000000; stroke-linecap:round; stroke-linejoin:round; stroke-width:4; stroke-opacity:1; fill:none" points="184.191,797.755 203.088,797.755 "/>
<polyline clip-path="url(#clip580)" style="stroke:#000000; stroke-linecap:round; stroke-linejoin:round; stroke-width:4; stroke-opacity:1; fill:none" points="184.191,485.042 203.088,485.042 "/>
<polyline clip-path="url(#clip580)" style="stroke:#000000; stroke-linecap:round; stroke-linejoin:round; stroke-width:4; stroke-opacity:1; fill:none" points="184.191,172.329 203.088,172.329 "/>
<path clip-path="url(#clip580)" d="M91.0151 1408.98 Q87.404 1408.98 85.5753 1412.54 Q83.7697 1416.08 83.7697 1423.21 Q83.7697 1430.32 85.5753 1433.89 Q87.404 1437.43 91.0151 1437.43 Q94.6493 1437.43 96.4548 1433.89 Q98.2835 1430.32 98.2835 1423.21 Q98.2835 1416.08 96.4548 1412.54 Q94.6493 1408.98 91.0151 1408.98 M91.0151 1405.27 Q96.8252 1405.27 99.8808 1409.88 Q102.959 1414.46 102.959 1423.21 Q102.959 1431.94 99.8808 1436.55 Q96.8252 1441.13 91.0151 1441.13 Q85.2049 1441.13 82.1262 1436.55 Q79.0707 1431.94 79.0707 1423.21 Q79.0707 1414.46 82.1262 1409.88 Q85.2049 1405.27 91.0151 1405.27 Z" fill="#000000" fill-rule="nonzero" fill-opacity="1" /><path clip-path="url(#clip580)" d="M111.177 1434.58 L116.061 1434.58 L116.061 1440.46 L111.177 1440.46 L111.177 1434.58 Z" fill="#000000" fill-rule="nonzero" fill-opacity="1" /><path clip-path="url(#clip580)" d="M136.246 1408.98 Q132.635 1408.98 130.807 1412.54 Q129.001 1416.08 129.001 1423.21 Q129.001 1430.32 130.807 1433.89 Q132.635 1437.43 136.246 1437.43 Q139.881 1437.43 141.686 1433.89 Q143.515 1430.32 143.515 1423.21 Q143.515 1416.08 141.686 1412.54 Q139.881 1408.98 136.246 1408.98 M136.246 1405.27 Q142.056 1405.27 145.112 1409.88 Q148.191 1414.46 148.191 1423.21 Q148.191 1431.94 145.112 1436.55 Q142.056 1441.13 136.246 1441.13 Q130.436 1441.13 127.357 1436.55 Q124.302 1431.94 124.302 1423.21 Q124.302 1414.46 127.357 1409.88 Q130.436 1405.27 136.246 1405.27 Z" fill="#000000" fill-rule="nonzero" fill-opacity="1" /><path clip-path="url(#clip580)" d="M86.0382 1123.81 L102.358 1123.81 L102.358 1127.75 L80.4133 1127.75 L80.4133 1123.81 Q83.0753 1121.06 87.6586 1116.43 Q92.2651 1111.78 93.4456 1110.43 Q95.691 1107.91 96.5706 1106.17 Q97.4734 1104.41 97.4734 1102.72 Q97.4734 1099.97 95.5289 1098.23 Q93.6076 1096.5 90.5058 1096.5 Q88.3067 1096.5 85.8531 1097.26 Q83.4225 1098.03 80.6447 1099.58 L80.6447 1094.85 Q83.4688 1093.72 85.9225 1093.14 Q88.3762 1092.56 90.4132 1092.56 Q95.7836 1092.56 98.978 1095.25 Q102.172 1097.93 102.172 1102.42 Q102.172 1104.55 101.362 1106.47 Q100.575 1108.37 98.4687 1110.96 Q97.89 1111.64 94.7882 1114.85 Q91.6864 1118.05 86.0382 1123.81 Z" fill="#000000" fill-rule="nonzero" fill-opacity="1" /><path clip-path="url(#clip580)" d="M112.172 1121.87 L117.057 1121.87 L117.057 1127.75 L112.172 1127.75 L112.172 1121.87 Z" fill="#000000" fill-rule="nonzero" fill-opacity="1" /><path clip-path="url(#clip580)" d="M127.288 1093.19 L145.644 1093.19 L145.644 1097.12 L131.57 1097.12 L131.57 1105.59 Q132.589 1105.25 133.607 1105.09 Q134.626 1104.9 135.644 1104.9 Q141.431 1104.9 144.811 1108.07 Q148.191 1111.24 148.191 1116.66 Q148.191 1122.24 144.718 1125.34 Q141.246 1128.42 134.927 1128.42 Q132.751 1128.42 130.482 1128.05 Q128.237 1127.68 125.83 1126.94 L125.83 1122.24 Q127.913 1123.37 130.135 1123.93 Q132.357 1124.48 134.834 1124.48 Q138.839 1124.48 141.177 1122.38 Q143.515 1120.27 143.515 1116.66 Q143.515 1113.05 141.177 1110.94 Q138.839 1108.84 134.834 1108.84 Q132.959 1108.84 131.084 1109.25 Q129.232 1109.67 127.288 1110.55 L127.288 1093.19 Z" fill="#000000" fill-rule="nonzero" fill-opacity="1" /><path clip-path="url(#clip580)" d="M81.0614 780.475 L99.4178 780.475 L99.4178 784.41 L85.3438 784.41 L85.3438 792.882 Q86.3623 792.535 87.3808 792.373 Q88.3993 792.187 89.4178 792.187 Q95.2049 792.187 98.5845 795.359 Q101.964 798.53 101.964 803.947 Q101.964 809.525 98.4919 812.627 Q95.0197 815.706 88.7003 815.706 Q86.5243 815.706 84.2558 815.335 Q82.0105 814.965 79.6031 814.224 L79.6031 809.525 Q81.6864 810.66 83.9086 811.215 Q86.1308 811.771 88.6077 811.771 Q92.6123 811.771 94.9502 809.664 Q97.2882 807.558 97.2882 803.947 Q97.2882 800.336 94.9502 798.229 Q92.6123 796.123 88.6077 796.123 Q86.7327 796.123 84.8577 796.539 Q83.0058 796.956 81.0614 797.836 L81.0614 780.475 Z" fill="#000000" fill-rule="nonzero" fill-opacity="1" /><path clip-path="url(#clip580)" d="M111.177 809.155 L116.061 809.155 L116.061 815.035 L111.177 815.035 L111.177 809.155 Z" fill="#000000" fill-rule="nonzero" fill-opacity="1" /><path clip-path="url(#clip580)" d="M136.246 783.553 Q132.635 783.553 130.807 787.118 Q129.001 790.66 129.001 797.789 Q129.001 804.896 130.807 808.46 Q132.635 812.002 136.246 812.002 Q139.881 812.002 141.686 808.46 Q143.515 804.896 143.515 797.789 Q143.515 790.66 141.686 787.118 Q139.881 783.553 136.246 783.553 M136.246 779.85 Q142.056 779.85 145.112 784.456 Q148.191 789.039 148.191 797.789 Q148.191 806.516 145.112 811.122 Q142.056 815.706 136.246 815.706 Q130.436 815.706 127.357 811.122 Q124.302 806.516 124.302 797.789 Q124.302 789.039 127.357 784.456 Q130.436 779.85 136.246 779.85 Z" fill="#000000" fill-rule="nonzero" fill-opacity="1" /><path clip-path="url(#clip580)" d="M80.8299 467.762 L103.052 467.762 L103.052 469.753 L90.5058 502.322 L85.6216 502.322 L97.4271 471.697 L80.8299 471.697 L80.8299 467.762 Z" fill="#000000" fill-rule="nonzero" fill-opacity="1" /><path clip-path="url(#clip580)" d="M112.172 496.442 L117.057 496.442 L117.057 502.322 L112.172 502.322 L112.172 496.442 Z" fill="#000000" fill-rule="nonzero" fill-opacity="1" /><path clip-path="url(#clip580)" d="M127.288 467.762 L145.644 467.762 L145.644 471.697 L131.57 471.697 L131.57 480.169 Q132.589 479.822 133.607 479.66 Q134.626 479.475 135.644 479.475 Q141.431 479.475 144.811 482.646 Q148.191 485.817 148.191 491.234 Q148.191 496.813 144.718 499.914 Q141.246 502.993 134.927 502.993 Q132.751 502.993 130.482 502.623 Q128.237 502.252 125.83 501.512 L125.83 496.813 Q127.913 497.947 130.135 498.502 Q132.357 499.058 134.834 499.058 Q138.839 499.058 141.177 496.951 Q143.515 494.845 143.515 491.234 Q143.515 487.623 141.177 485.516 Q138.839 483.41 134.834 483.41 Q132.959 483.41 131.084 483.827 Q129.232 484.243 127.288 485.123 L127.288 467.762 Z" fill="#000000" fill-rule="nonzero" fill-opacity="1" /><path clip-path="url(#clip580)" d="M51.6634 185.674 L59.3023 185.674 L59.3023 159.308 L50.9921 160.975 L50.9921 156.716 L59.256 155.049 L63.9319 155.049 L63.9319 185.674 L71.5707 185.674 L71.5707 189.609 L51.6634 189.609 L51.6634 185.674 Z" fill="#000000" fill-rule="nonzero" fill-opacity="1" /><path clip-path="url(#clip580)" d="M91.0151 158.128 Q87.404 158.128 85.5753 161.693 Q83.7697 165.234 83.7697 172.364 Q83.7697 179.47 85.5753 183.035 Q87.404 186.577 91.0151 186.577 Q94.6493 186.577 96.4548 183.035 Q98.2835 179.47 98.2835 172.364 Q98.2835 165.234 96.4548 161.693 Q94.6493 158.128 91.0151 158.128 M91.0151 154.424 Q96.8252 154.424 99.8808 159.031 Q102.959 163.614 102.959 172.364 Q102.959 181.091 99.8808 185.697 Q96.8252 190.28 91.0151 190.28 Q85.2049 190.28 82.1262 185.697 Q79.0707 181.091 79.0707 172.364 Q79.0707 163.614 82.1262 159.031 Q85.2049 154.424 91.0151 154.424 Z" fill="#000000" fill-rule="nonzero" fill-opacity="1" /><path clip-path="url(#clip580)" d="M111.177 183.73 L116.061 183.73 L116.061 189.609 L111.177 189.609 L111.177 183.73 Z" fill="#000000" fill-rule="nonzero" fill-opacity="1" /><path clip-path="url(#clip580)" d="M136.246 158.128 Q132.635 158.128 130.807 161.693 Q129.001 165.234 129.001 172.364 Q129.001 179.47 130.807 183.035 Q132.635 186.577 136.246 186.577 Q139.881 186.577 141.686 183.035 Q143.515 179.47 143.515 172.364 Q143.515 165.234 141.686 161.693 Q139.881 158.128 136.246 158.128 M136.246 154.424 Q142.056 154.424 145.112 159.031 Q148.191 163.614 148.191 172.364 Q148.191 181.091 145.112 185.697 Q142.056 190.28 136.246 190.28 Q130.436 190.28 127.357 185.697 Q124.302 181.091 124.302 172.364 Q124.302 163.614 127.357 159.031 Q130.436 154.424 136.246 154.424 Z" fill="#000000" fill-rule="nonzero" fill-opacity="1" /><path clip-path="url(#clip582)" d="M303.466 1047.92 L303.466 1423.18 L416.996 1423.18 L416.996 1047.92 L303.466 1047.92 L303.466 1047.92  Z" fill="#009af9" fill-rule="evenodd" fill-opacity="1"/>
<polyline clip-path="url(#clip582)" style="stroke:#000000; stroke-linecap:round; stroke-linejoin:round; stroke-width:4; stroke-opacity:1; fill:none" points="303.466,1047.92 303.466,1423.18 416.996,1423.18 416.996,1047.92 303.466,1047.92 "/>
<path clip-path="url(#clip582)" d="M416.996 422.499 L416.996 1423.18 L530.526 1423.18 L530.526 422.499 L416.996 422.499 L416.996 422.499  Z" fill="#009af9" fill-rule="evenodd" fill-opacity="1"/>
<polyline clip-path="url(#clip582)" style="stroke:#000000; stroke-linecap:round; stroke-linejoin:round; stroke-width:4; stroke-opacity:1; fill:none" points="416.996,422.499 416.996,1423.18 530.526,1423.18 530.526,422.499 416.996,422.499 "/>
<path clip-path="url(#clip582)" d="M530.526 1047.92 L530.526 1423.18 L644.057 1423.18 L644.057 1047.92 L530.526 1047.92 L530.526 1047.92  Z" fill="#009af9" fill-rule="evenodd" fill-opacity="1"/>
<polyline clip-path="url(#clip582)" style="stroke:#000000; stroke-linecap:round; stroke-linejoin:round; stroke-width:4; stroke-opacity:1; fill:none" points="530.526,1047.92 530.526,1423.18 644.057,1423.18 644.057,1047.92 530.526,1047.92 "/>
<path clip-path="url(#clip582)" d="M644.057 922.84 L644.057 1423.18 L757.587 1423.18 L757.587 922.84 L644.057 922.84 L644.057 922.84  Z" fill="#009af9" fill-rule="evenodd" fill-opacity="1"/>
<polyline clip-path="url(#clip582)" style="stroke:#000000; stroke-linecap:round; stroke-linejoin:round; stroke-width:4; stroke-opacity:1; fill:none" points="644.057,922.84 644.057,1423.18 757.587,1423.18 757.587,922.84 644.057,922.84 "/>
<path clip-path="url(#clip582)" d="M757.587 422.499 L757.587 1423.18 L871.117 1423.18 L871.117 422.499 L757.587 422.499 L757.587 422.499  Z" fill="#009af9" fill-rule="evenodd" fill-opacity="1"/>
<polyline clip-path="url(#clip582)" style="stroke:#000000; stroke-linecap:round; stroke-linejoin:round; stroke-width:4; stroke-opacity:1; fill:none" points="757.587,422.499 757.587,1423.18 871.117,1423.18 871.117,422.499 757.587,422.499 "/>
<path clip-path="url(#clip582)" d="M871.117 297.414 L871.117 1423.18 L984.648 1423.18 L984.648 297.414 L871.117 297.414 L871.117 297.414  Z" fill="#009af9" fill-rule="evenodd" fill-opacity="1"/>
<polyline clip-path="url(#clip582)" style="stroke:#000000; stroke-linecap:round; stroke-linejoin:round; stroke-width:4; stroke-opacity:1; fill:none" points="871.117,297.414 871.117,1423.18 984.648,1423.18 984.648,297.414 871.117,297.414 "/>
<path clip-path="url(#clip582)" d="M984.648 422.499 L984.648 1423.18 L1098.18 1423.18 L1098.18 422.499 L984.648 422.499 L984.648 422.499  Z" fill="#009af9" fill-rule="evenodd" fill-opacity="1"/>
<polyline clip-path="url(#clip582)" style="stroke:#000000; stroke-linecap:round; stroke-linejoin:round; stroke-width:4; stroke-opacity:1; fill:none" points="984.648,422.499 984.648,1423.18 1098.18,1423.18 1098.18,422.499 984.648,422.499 "/>
<path clip-path="url(#clip582)" d="M1098.18 297.414 L1098.18 1423.18 L1211.71 1423.18 L1211.71 297.414 L1098.18 297.414 L1098.18 297.414  Z" fill="#009af9" fill-rule="evenodd" fill-opacity="1"/>
<polyline clip-path="url(#clip582)" style="stroke:#000000; stroke-linecap:round; stroke-linejoin:round; stroke-width:4; stroke-opacity:1; fill:none" points="1098.18,297.414 1098.18,1423.18 1211.71,1423.18 1211.71,297.414 1098.18,297.414 "/>
<path clip-path="url(#clip582)" d="M1211.71 922.84 L1211.71 1423.18 L1325.24 1423.18 L1325.24 922.84 L1211.71 922.84 L1211.71 922.84  Z" fill="#009af9" fill-rule="evenodd" fill-opacity="1"/>
<polyline clip-path="url(#clip582)" style="stroke:#000000; stroke-linecap:round; stroke-linejoin:round; stroke-width:4; stroke-opacity:1; fill:none" points="1211.71,922.84 1211.71,1423.18 1325.24,1423.18 1325.24,922.84 1211.71,922.84 "/>
<path clip-path="url(#clip582)" d="M1325.24 47.2441 L1325.24 1423.18 L1438.77 1423.18 L1438.77 47.2441 L1325.24 47.2441 L1325.24 47.2441  Z" fill="#009af9" fill-rule="evenodd" fill-opacity="1"/>
<polyline clip-path="url(#clip582)" style="stroke:#000000; stroke-linecap:round; stroke-linejoin:round; stroke-width:4; stroke-opacity:1; fill:none" points="1325.24,47.2441 1325.24,1423.18 1438.77,1423.18 1438.77,47.2441 1325.24,47.2441 "/>
<path clip-path="url(#clip582)" d="M1438.77 1047.92 L1438.77 1423.18 L1552.3 1423.18 L1552.3 1047.92 L1438.77 1047.92 L1438.77 1047.92  Z" fill="#009af9" fill-rule="evenodd" fill-opacity="1"/>
<polyline clip-path="url(#clip582)" style="stroke:#000000; stroke-linecap:round; stroke-linejoin:round; stroke-width:4; stroke-opacity:1; fill:none" points="1438.77,1047.92 1438.77,1423.18 1552.3,1423.18 1552.3,1047.92 1438.77,1047.92 "/>
<path clip-path="url(#clip582)" d="M1552.3 672.669 L1552.3 1423.18 L1665.83 1423.18 L1665.83 672.669 L1552.3 672.669 L1552.3 672.669  Z" fill="#009af9" fill-rule="evenodd" fill-opacity="1"/>
<polyline clip-path="url(#clip582)" style="stroke:#000000; stroke-linecap:round; stroke-linejoin:round; stroke-width:4; stroke-opacity:1; fill:none" points="1552.3,672.669 1552.3,1423.18 1665.83,1423.18 1665.83,672.669 1552.3,672.669 "/>
<path clip-path="url(#clip582)" d="M1665.83 672.669 L1665.83 1423.18 L1779.36 1423.18 L1779.36 672.669 L1665.83 672.669 L1665.83 672.669  Z" fill="#009af9" fill-rule="evenodd" fill-opacity="1"/>
<polyline clip-path="url(#clip582)" style="stroke:#000000; stroke-linecap:round; stroke-linejoin:round; stroke-width:4; stroke-opacity:1; fill:none" points="1665.83,672.669 1665.83,1423.18 1779.36,1423.18 1779.36,672.669 1665.83,672.669 "/>
<path clip-path="url(#clip582)" d="M1779.36 672.669 L1779.36 1423.18 L1892.89 1423.18 L1892.89 672.669 L1779.36 672.669 L1779.36 672.669  Z" fill="#009af9" fill-rule="evenodd" fill-opacity="1"/>
<polyline clip-path="url(#clip582)" style="stroke:#000000; stroke-linecap:round; stroke-linejoin:round; stroke-width:4; stroke-opacity:1; fill:none" points="1779.36,672.669 1779.36,1423.18 1892.89,1423.18 1892.89,672.669 1779.36,672.669 "/>
<path clip-path="url(#clip582)" d="M1892.89 672.669 L1892.89 1423.18 L2006.42 1423.18 L2006.42 672.669 L1892.89 672.669 L1892.89 672.669  Z" fill="#009af9" fill-rule="evenodd" fill-opacity="1"/>
<polyline clip-path="url(#clip582)" style="stroke:#000000; stroke-linecap:round; stroke-linejoin:round; stroke-width:4; stroke-opacity:1; fill:none" points="1892.89,672.669 1892.89,1423.18 2006.42,1423.18 2006.42,672.669 1892.89,672.669 "/>
<path clip-path="url(#clip582)" d="M2006.42 797.755 L2006.42 1423.18 L2119.95 1423.18 L2119.95 797.755 L2006.42 797.755 L2006.42 797.755  Z" fill="#009af9" fill-rule="evenodd" fill-opacity="1"/>
<polyline clip-path="url(#clip582)" style="stroke:#000000; stroke-linecap:round; stroke-linejoin:round; stroke-width:4; stroke-opacity:1; fill:none" points="2006.42,797.755 2006.42,1423.18 2119.95,1423.18 2119.95,797.755 2006.42,797.755 "/>
<path clip-path="url(#clip582)" d="M2119.95 1298.09 L2119.95 1423.18 L2233.48 1423.18 L2233.48 1298.09 L2119.95 1298.09 L2119.95 1298.09  Z" fill="#009af9" fill-rule="evenodd" fill-opacity="1"/>
<polyline clip-path="url(#clip582)" style="stroke:#000000; stroke-linecap:round; stroke-linejoin:round; stroke-width:4; stroke-opacity:1; fill:none" points="2119.95,1298.09 2119.95,1423.18 2233.48,1423.18 2233.48,1298.09 2119.95,1298.09 "/>
<circle clip-path="url(#clip582)" style="fill:#009af9; stroke:none; fill-opacity:0" cx="360.231" cy="1047.92" r="2"/>
<circle clip-path="url(#clip582)" style="fill:#009af9; stroke:none; fill-opacity:0" cx="473.761" cy="422.499" r="2"/>
<circle clip-path="url(#clip582)" style="fill:#009af9; stroke:none; fill-opacity:0" cx="587.291" cy="1047.92" r="2"/>
<circle clip-path="url(#clip582)" style="fill:#009af9; stroke:none; fill-opacity:0" cx="700.822" cy="922.84" r="2"/>
<circle clip-path="url(#clip582)" style="fill:#009af9; stroke:none; fill-opacity:0" cx="814.352" cy="422.499" r="2"/>
<circle clip-path="url(#clip582)" style="fill:#009af9; stroke:none; fill-opacity:0" cx="927.882" cy="297.414" r="2"/>
<circle clip-path="url(#clip582)" style="fill:#009af9; stroke:none; fill-opacity:0" cx="1041.41" cy="422.499" r="2"/>
<circle clip-path="url(#clip582)" style="fill:#009af9; stroke:none; fill-opacity:0" cx="1154.94" cy="297.414" r="2"/>
<circle clip-path="url(#clip582)" style="fill:#009af9; stroke:none; fill-opacity:0" cx="1268.47" cy="922.84" r="2"/>
<circle clip-path="url(#clip582)" style="fill:#009af9; stroke:none; fill-opacity:0" cx="1382" cy="47.2441" r="2"/>
<circle clip-path="url(#clip582)" style="fill:#009af9; stroke:none; fill-opacity:0" cx="1495.53" cy="1047.92" r="2"/>
<circle clip-path="url(#clip582)" style="fill:#009af9; stroke:none; fill-opacity:0" cx="1609.06" cy="672.669" r="2"/>
<circle clip-path="url(#clip582)" style="fill:#009af9; stroke:none; fill-opacity:0" cx="1722.59" cy="672.669" r="2"/>
<circle clip-path="url(#clip582)" style="fill:#009af9; stroke:none; fill-opacity:0" cx="1836.12" cy="672.669" r="2"/>
<circle clip-path="url(#clip582)" style="fill:#009af9; stroke:none; fill-opacity:0" cx="1949.66" cy="672.669" r="2"/>
<circle clip-path="url(#clip582)" style="fill:#009af9; stroke:none; fill-opacity:0" cx="2063.19" cy="797.755" r="2"/>
<circle clip-path="url(#clip582)" style="fill:#009af9; stroke:none; fill-opacity:0" cx="2176.72" cy="1298.09" r="2"/>
</svg>
