<?xml version="1.0" encoding="utf-8"?>
<svg xmlns="http://www.w3.org/2000/svg" xmlns:xlink="http://www.w3.org/1999/xlink" width="600" height="400" viewBox="0 0 2400 1600">
<defs>
  <clipPath id="clip640">
    <rect x="0" y="0" width="2400" height="1600"/>
  </clipPath>
</defs>
<path clip-path="url(#clip640)" d="M0 1600 L2400 1600 L2400 0 L0 0  Z" fill="#ffffff" fill-rule="evenodd" fill-opacity="1"/>
<defs>
  <clipPath id="clip641">
    <rect x="182" y="123" width="2172" height="1301"/>
  </clipPath>
</defs>
<path clip-path="url(#clip640)" d="M182.251 1423.18 L2352.76 1423.18 L2352.76 123.472 L182.251 123.472  Z" fill="#ffffff" fill-rule="evenodd" fill-opacity="1"/>
<polyline clip-path="url(#clip641)" style="stroke:#000000; stroke-linecap:round; stroke-linejoin:round; stroke-width:2; stroke-opacity:0.1; fill:none" points="243.68,1423.18 243.68,123.472 "/>
<polyline clip-path="url(#clip641)" style="stroke:#000000; stroke-linecap:round; stroke-linejoin:round; stroke-width:2; stroke-opacity:0.1; fill:none" points="688.821,1423.18 688.821,123.472 "/>
<polyline clip-path="url(#clip641)" style="stroke:#000000; stroke-linecap:round; stroke-linejoin:round; stroke-width:2; stroke-opacity:0.1; fill:none" points="1133.96,1423.18 1133.96,123.472 "/>
<polyline clip-path="url(#clip641)" style="stroke:#000000; stroke-linecap:round; stroke-linejoin:round; stroke-width:2; stroke-opacity:0.1; fill:none" points="1579.1,1423.18 1579.1,123.472 "/>
<polyline clip-path="url(#clip641)" style="stroke:#000000; stroke-linecap:round; stroke-linejoin:round; stroke-width:2; stroke-opacity:0.1; fill:none" points="2024.24,1423.18 2024.24,123.472 "/>
<polyline clip-path="url(#clip641)" style="stroke:#000000; stroke-linecap:round; stroke-linejoin:round; stroke-width:2; stroke-opacity:0.1; fill:none" points="182.251,1360.31 2352.76,1360.31 "/>
<polyline clip-path="url(#clip641)" style="stroke:#000000; stroke-linecap:round; stroke-linejoin:round; stroke-width:2; stroke-opacity:0.1; fill:none" points="182.251,1295.09 2352.76,1295.09 "/>
<polyline clip-path="url(#clip641)" style="stroke:#000000; stroke-linecap:round; stroke-linejoin:round; stroke-width:2; stroke-opacity:0.1; fill:none" points="182.251,1229.87 2352.76,1229.87 "/>
<polyline clip-path="url(#clip641)" style="stroke:#000000; stroke-linecap:round; stroke-linejoin:round; stroke-width:2; stroke-opacity:0.1; fill:none" points="182.251,1164.65 2352.76,1164.65 "/>
<polyline clip-path="url(#clip641)" style="stroke:#000000; stroke-linecap:round; stroke-linejoin:round; stroke-width:2; stroke-opacity:0.1; fill:none" points="182.251,1099.43 2352.76,1099.43 "/>
<polyline clip-path="url(#clip641)" style="stroke:#000000; stroke-linecap:round; stroke-linejoin:round; stroke-width:2; stroke-opacity:0.1; fill:none" points="182.251,1034.21 2352.76,1034.21 "/>
<polyline clip-path="url(#clip641)" style="stroke:#000000; stroke-linecap:round; stroke-linejoin:round; stroke-width:2; stroke-opacity:0.1; fill:none" points="182.251,968.987 2352.76,968.987 "/>
<polyline clip-path="url(#clip641)" style="stroke:#000000; stroke-linecap:round; stroke-linejoin:round; stroke-width:2; stroke-opacity:0.1; fill:none" points="182.251,903.766 2352.76,903.766 "/>
<polyline clip-path="url(#clip641)" style="stroke:#000000; stroke-linecap:round; stroke-linejoin:round; stroke-width:2; stroke-opacity:0.1; fill:none" points="182.251,838.546 2352.76,838.546 "/>
<polyline clip-path="url(#clip641)" style="stroke:#000000; stroke-linecap:round; stroke-linejoin:round; stroke-width:2; stroke-opacity:0.1; fill:none" points="182.251,773.326 2352.76,773.326 "/>
<polyline clip-path="url(#clip641)" style="stroke:#000000; stroke-linecap:round; stroke-linejoin:round; stroke-width:2; stroke-opacity:0.1; fill:none" points="182.251,708.106 2352.76,708.106 "/>
<polyline clip-path="url(#clip641)" style="stroke:#000000; stroke-linecap:round; stroke-linejoin:round; stroke-width:2; stroke-opacity:0.1; fill:none" points="182.251,642.886 2352.76,642.886 "/>
<polyline clip-path="url(#clip641)" style="stroke:#000000; stroke-linecap:round; stroke-linejoin:round; stroke-width:2; stroke-opacity:0.1; fill:none" points="182.251,577.665 2352.76,577.665 "/>
<polyline clip-path="url(#clip641)" style="stroke:#000000; stroke-linecap:round; stroke-linejoin:round; stroke-width:2; stroke-opacity:0.1; fill:none" points="182.251,512.445 2352.76,512.445 "/>
<polyline clip-path="url(#clip641)" style="stroke:#000000; stroke-linecap:round; stroke-linejoin:round; stroke-width:2; stroke-opacity:0.1; fill:none" points="182.251,447.225 2352.76,447.225 "/>
<polyline clip-path="url(#clip641)" style="stroke:#000000; stroke-linecap:round; stroke-linejoin:round; stroke-width:2; stroke-opacity:0.1; fill:none" points="182.251,382.005 2352.76,382.005 "/>
<polyline clip-path="url(#clip641)" style="stroke:#000000; stroke-linecap:round; stroke-linejoin:round; stroke-width:2; stroke-opacity:0.1; fill:none" points="182.251,316.785 2352.76,316.785 "/>
<polyline clip-path="url(#clip641)" style="stroke:#000000; stroke-linecap:round; stroke-linejoin:round; stroke-width:2; stroke-opacity:0.1; fill:none" points="182.251,251.565 2352.76,251.565 "/>
<polyline clip-path="url(#clip641)" style="stroke:#000000; stroke-linecap:round; stroke-linejoin:round; stroke-width:2; stroke-opacity:0.1; fill:none" points="182.251,186.344 2352.76,186.344 "/>
<polyline clip-path="url(#clip640)" style="stroke:#000000; stroke-linecap:round; stroke-linejoin:round; stroke-width:4; stroke-opacity:1; fill:none" points="182.251,1423.18 2352.76,1423.18 "/>
<polyline clip-path="url(#clip640)" style="stroke:#000000; stroke-linecap:round; stroke-linejoin:round; stroke-width:4; stroke-opacity:1; fill:none" points="243.68,1423.18 243.68,1404.28 "/>
<polyline clip-path="url(#clip640)" style="stroke:#000000; stroke-linecap:round; stroke-linejoin:round; stroke-width:4; stroke-opacity:1; fill:none" points="688.821,1423.18 688.821,1404.28 "/>
<polyline clip-path="url(#clip640)" style="stroke:#000000; stroke-linecap:round; stroke-linejoin:round; stroke-width:4; stroke-opacity:1; fill:none" points="1133.96,1423.18 1133.96,1404.28 "/>
<polyline clip-path="url(#clip640)" style="stroke:#000000; stroke-linecap:round; stroke-linejoin:round; stroke-width:4; stroke-opacity:1; fill:none" points="1579.1,1423.18 1579.1,1404.28 "/>
<polyline clip-path="url(#clip640)" style="stroke:#000000; stroke-linecap:round; stroke-linejoin:round; stroke-width:4; stroke-opacity:1; fill:none" points="2024.24,1423.18 2024.24,1404.28 "/>
<path clip-path="url(#clip640)" d="M243.68 1454.1 Q240.069 1454.1 238.24 1457.66 Q236.435 1461.2 236.435 1468.33 Q236.435 1475.44 238.24 1479.01 Q240.069 1482.55 243.68 1482.55 Q247.314 1482.55 249.12 1479.01 Q250.949 1475.44 250.949 1468.33 Q250.949 1461.2 249.12 1457.66 Q247.314 1454.1 243.68 1454.1 M243.68 1450.39 Q249.49 1450.39 252.546 1455 Q255.624 1459.58 255.624 1468.33 Q255.624 1477.06 252.546 1481.67 Q249.49 1486.25 243.68 1486.25 Q237.87 1486.25 234.791 1481.67 Q231.736 1477.06 231.736 1468.33 Q231.736 1459.58 234.791 1455 Q237.87 1450.39 243.68 1450.39 Z" fill="#000000" fill-rule="nonzero" fill-opacity="1" /><path clip-path="url(#clip640)" d="M667.594 1481.64 L683.913 1481.64 L683.913 1485.58 L661.969 1485.58 L661.969 1481.64 Q664.631 1478.89 669.214 1474.26 Q673.821 1469.61 675.001 1468.27 Q677.247 1465.74 678.126 1464.01 Q679.029 1462.25 679.029 1460.56 Q679.029 1457.8 677.085 1456.07 Q675.163 1454.33 672.061 1454.33 Q669.862 1454.33 667.409 1455.09 Q664.978 1455.86 662.2 1457.41 L662.2 1452.69 Q665.024 1451.55 667.478 1450.97 Q669.932 1450.39 671.969 1450.39 Q677.339 1450.39 680.534 1453.08 Q683.728 1455.77 683.728 1460.26 Q683.728 1462.39 682.918 1464.31 Q682.131 1466.2 680.024 1468.8 Q679.446 1469.47 676.344 1472.69 Q673.242 1475.88 667.594 1481.64 Z" fill="#000000" fill-rule="nonzero" fill-opacity="1" /><path clip-path="url(#clip640)" d="M703.728 1454.1 Q700.117 1454.1 698.288 1457.66 Q696.483 1461.2 696.483 1468.33 Q696.483 1475.44 698.288 1479.01 Q700.117 1482.55 703.728 1482.55 Q707.362 1482.55 709.168 1479.01 Q710.996 1475.44 710.996 1468.33 Q710.996 1461.2 709.168 1457.66 Q707.362 1454.1 703.728 1454.1 M703.728 1450.39 Q709.538 1450.39 712.594 1455 Q715.672 1459.58 715.672 1468.33 Q715.672 1477.06 712.594 1481.67 Q709.538 1486.25 703.728 1486.25 Q697.918 1486.25 694.839 1481.67 Q691.784 1477.06 691.784 1468.33 Q691.784 1459.58 694.839 1455 Q697.918 1450.39 703.728 1450.39 Z" fill="#000000" fill-rule="nonzero" fill-opacity="1" /><path clip-path="url(#clip640)" d="M1122.13 1455.09 L1110.33 1473.54 L1122.13 1473.54 L1122.13 1455.09 M1120.91 1451.02 L1126.79 1451.02 L1126.79 1473.54 L1131.72 1473.54 L1131.72 1477.43 L1126.79 1477.43 L1126.79 1485.58 L1122.13 1485.58 L1122.13 1477.43 L1106.53 1477.43 L1106.53 1472.92 L1120.91 1451.02 Z" fill="#000000" fill-rule="nonzero" fill-opacity="1" /><path clip-path="url(#clip640)" d="M1149.45 1454.1 Q1145.84 1454.1 1144.01 1457.66 Q1142.2 1461.2 1142.2 1468.33 Q1142.2 1475.44 1144.01 1479.01 Q1145.84 1482.55 1149.45 1482.55 Q1153.08 1482.55 1154.89 1479.01 Q1156.72 1475.44 1156.72 1468.33 Q1156.72 1461.2 1154.89 1457.66 Q1153.08 1454.1 1149.45 1454.1 M1149.45 1450.39 Q1155.26 1450.39 1158.31 1455 Q1161.39 1459.58 1161.39 1468.33 Q1161.39 1477.06 1158.31 1481.67 Q1155.26 1486.25 1149.45 1486.25 Q1143.64 1486.25 1140.56 1481.67 Q1137.5 1477.06 1137.5 1468.33 Q1137.5 1459.58 1140.56 1455 Q1143.64 1450.39 1149.45 1450.39 Z" fill="#000000" fill-rule="nonzero" fill-opacity="1" /><path clip-path="url(#clip640)" d="M1564.51 1466.44 Q1561.36 1466.44 1559.51 1468.59 Q1557.68 1470.74 1557.68 1474.49 Q1557.68 1478.22 1559.51 1480.39 Q1561.36 1482.55 1564.51 1482.55 Q1567.65 1482.55 1569.48 1480.39 Q1571.34 1478.22 1571.34 1474.49 Q1571.34 1470.74 1569.48 1468.59 Q1567.65 1466.44 1564.51 1466.44 M1573.79 1451.78 L1573.79 1456.04 Q1572.03 1455.21 1570.22 1454.77 Q1568.44 1454.33 1566.68 1454.33 Q1562.05 1454.33 1559.6 1457.45 Q1557.17 1460.58 1556.82 1466.9 Q1558.19 1464.89 1560.25 1463.82 Q1562.31 1462.73 1564.78 1462.73 Q1569.99 1462.73 1573 1465.9 Q1576.03 1469.05 1576.03 1474.49 Q1576.03 1479.82 1572.89 1483.03 Q1569.74 1486.25 1564.51 1486.25 Q1558.51 1486.25 1555.34 1481.67 Q1552.17 1477.06 1552.17 1468.33 Q1552.17 1460.14 1556.06 1455.28 Q1559.95 1450.39 1566.5 1450.39 Q1568.26 1450.39 1570.04 1450.74 Q1571.84 1451.09 1573.79 1451.78 Z" fill="#000000" fill-rule="nonzero" fill-opacity="1" /><path clip-path="url(#clip640)" d="M1594.09 1454.1 Q1590.48 1454.1 1588.65 1457.66 Q1586.84 1461.2 1586.84 1468.33 Q1586.84 1475.44 1588.65 1479.01 Q1590.48 1482.55 1594.09 1482.55 Q1597.72 1482.55 1599.53 1479.01 Q1601.36 1475.44 1601.36 1468.33 Q1601.36 1461.2 1599.53 1457.66 Q1597.72 1454.1 1594.09 1454.1 M1594.09 1450.39 Q1599.9 1450.39 1602.96 1455 Q1606.03 1459.58 1606.03 1468.33 Q1606.03 1477.06 1602.96 1481.67 Q1599.9 1486.25 1594.09 1486.25 Q1588.28 1486.25 1585.2 1481.67 Q1582.15 1477.06 1582.15 1468.33 Q1582.15 1459.58 1585.2 1455 Q1588.28 1450.39 1594.09 1450.39 Z" fill="#000000" fill-rule="nonzero" fill-opacity="1" /><path clip-path="url(#clip640)" d="M2009.11 1469.17 Q2005.78 1469.17 2003.86 1470.95 Q2001.96 1472.73 2001.96 1475.86 Q2001.96 1478.98 2003.86 1480.77 Q2005.78 1482.55 2009.11 1482.55 Q2012.45 1482.55 2014.37 1480.77 Q2016.29 1478.96 2016.29 1475.86 Q2016.29 1472.73 2014.37 1470.95 Q2012.47 1469.17 2009.11 1469.17 M2004.44 1467.18 Q2001.43 1466.44 1999.74 1464.38 Q1998.07 1462.32 1998.07 1459.35 Q1998.07 1455.21 2001.01 1452.8 Q2003.98 1450.39 2009.11 1450.39 Q2014.28 1450.39 2017.22 1452.8 Q2020.16 1455.21 2020.16 1459.35 Q2020.16 1462.32 2018.47 1464.38 Q2016.8 1466.44 2013.81 1467.18 Q2017.19 1467.96 2019.07 1470.26 Q2020.97 1472.55 2020.97 1475.86 Q2020.97 1480.88 2017.89 1483.57 Q2014.83 1486.25 2009.11 1486.25 Q2003.4 1486.25 2000.32 1483.57 Q1997.26 1480.88 1997.26 1475.86 Q1997.26 1472.55 1999.16 1470.26 Q2001.06 1467.96 2004.44 1467.18 M2002.73 1459.79 Q2002.73 1462.48 2004.39 1463.98 Q2006.08 1465.49 2009.11 1465.49 Q2012.12 1465.49 2013.81 1463.98 Q2015.53 1462.48 2015.53 1459.79 Q2015.53 1457.11 2013.81 1455.6 Q2012.12 1454.1 2009.11 1454.1 Q2006.08 1454.1 2004.39 1455.6 Q2002.73 1457.11 2002.73 1459.79 Z" fill="#000000" fill-rule="nonzero" fill-opacity="1" /><path clip-path="url(#clip640)" d="M2039.28 1454.1 Q2035.67 1454.1 2033.84 1457.66 Q2032.03 1461.2 2032.03 1468.33 Q2032.03 1475.44 2033.84 1479.01 Q2035.67 1482.55 2039.28 1482.55 Q2042.91 1482.55 2044.72 1479.01 Q2046.55 1475.44 2046.55 1468.33 Q2046.55 1461.2 2044.72 1457.66 Q2042.91 1454.1 2039.28 1454.1 M2039.28 1450.39 Q2045.09 1450.39 2048.14 1455 Q2051.22 1459.58 2051.22 1468.33 Q2051.22 1477.06 2048.14 1481.67 Q2045.09 1486.25 2039.28 1486.25 Q2033.47 1486.25 2030.39 1481.67 Q2027.33 1477.06 2027.33 1468.33 Q2027.33 1459.58 2030.39 1455 Q2033.47 1450.39 2039.28 1450.39 Z" fill="#000000" fill-rule="nonzero" fill-opacity="1" /><path clip-path="url(#clip640)" d="M1189.38 1520.52 L1229.58 1520.52 L1229.58 1525.93 L1212.71 1525.93 L1212.71 1568.04 L1206.25 1568.04 L1206.25 1525.93 L1189.38 1525.93 L1189.38 1520.52 Z" fill="#000000" fill-rule="nonzero" fill-opacity="1" /><path clip-path="url(#clip640)" d="M1233.53 1532.4 L1239.38 1532.4 L1239.38 1568.04 L1233.53 1568.04 L1233.53 1532.4 M1233.53 1518.52 L1239.38 1518.52 L1239.38 1525.93 L1233.53 1525.93 L1233.53 1518.52 Z" fill="#000000" fill-rule="nonzero" fill-opacity="1" /><path clip-path="url(#clip640)" d="M1279.39 1539.24 Q1281.59 1535.29 1284.64 1533.41 Q1287.7 1531.54 1291.84 1531.54 Q1297.41 1531.54 1300.43 1535.45 Q1303.45 1539.33 1303.45 1546.53 L1303.45 1568.04 L1297.57 1568.04 L1297.57 1546.72 Q1297.57 1541.59 1295.75 1539.11 Q1293.94 1536.63 1290.21 1536.63 Q1285.66 1536.63 1283.02 1539.65 Q1280.38 1542.68 1280.38 1547.9 L1280.38 1568.04 L1274.49 1568.04 L1274.49 1546.72 Q1274.49 1541.56 1272.68 1539.11 Q1270.86 1536.63 1267.07 1536.63 Q1262.59 1536.63 1259.94 1539.68 Q1257.3 1542.71 1257.3 1547.9 L1257.3 1568.04 L1251.41 1568.04 L1251.41 1532.4 L1257.3 1532.4 L1257.3 1537.93 Q1259.31 1534.66 1262.11 1533.1 Q1264.91 1531.54 1268.76 1531.54 Q1272.64 1531.54 1275.35 1533.51 Q1278.09 1535.48 1279.39 1539.24 Z" fill="#000000" fill-rule="nonzero" fill-opacity="1" /><path clip-path="url(#clip640)" d="M1345.63 1548.76 L1345.63 1551.62 L1318.7 1551.62 Q1319.08 1557.67 1322.33 1560.85 Q1325.61 1564 1331.43 1564 Q1334.8 1564 1337.96 1563.17 Q1341.14 1562.35 1344.26 1560.69 L1344.26 1566.23 Q1341.11 1567.57 1337.8 1568.27 Q1334.49 1568.97 1331.08 1568.97 Q1322.55 1568.97 1317.55 1564 Q1312.59 1559.04 1312.59 1550.57 Q1312.59 1541.82 1317.3 1536.69 Q1322.04 1531.54 1330.06 1531.54 Q1337.26 1531.54 1341.43 1536.18 Q1345.63 1540.8 1345.63 1548.76 M1339.77 1547.04 Q1339.71 1542.23 1337.06 1539.37 Q1334.45 1536.5 1330.13 1536.5 Q1325.22 1536.5 1322.26 1539.27 Q1319.34 1542.04 1318.89 1547.07 L1339.77 1547.04 Z" fill="#000000" fill-rule="nonzero" fill-opacity="1" /><polyline clip-path="url(#clip640)" style="stroke:#000000; stroke-linecap:round; stroke-linejoin:round; stroke-width:4; stroke-opacity:1; fill:none" points="182.251,1423.18 182.251,123.472 "/>
<polyline clip-path="url(#clip640)" style="stroke:#000000; stroke-linecap:round; stroke-linejoin:round; stroke-width:4; stroke-opacity:1; fill:none" points="182.251,1360.31 201.148,1360.31 "/>
<polyline clip-path="url(#clip640)" style="stroke:#000000; stroke-linecap:round; stroke-linejoin:round; stroke-width:4; stroke-opacity:1; fill:none" points="182.251,1295.09 201.148,1295.09 "/>
<polyline clip-path="url(#clip640)" style="stroke:#000000; stroke-linecap:round; stroke-linejoin:round; stroke-width:4; stroke-opacity:1; fill:none" points="182.251,1229.87 201.148,1229.87 "/>
<polyline clip-path="url(#clip640)" style="stroke:#000000; stroke-linecap:round; stroke-linejoin:round; stroke-width:4; stroke-opacity:1; fill:none" points="182.251,1164.65 201.148,1164.65 "/>
<polyline clip-path="url(#clip640)" style="stroke:#000000; stroke-linecap:round; stroke-linejoin:round; stroke-width:4; stroke-opacity:1; fill:none" points="182.251,1099.43 201.148,1099.43 "/>
<polyline clip-path="url(#clip640)" style="stroke:#000000; stroke-linecap:round; stroke-linejoin:round; stroke-width:4; stroke-opacity:1; fill:none" points="182.251,1034.21 201.148,1034.21 "/>
<polyline clip-path="url(#clip640)" style="stroke:#000000; stroke-linecap:round; stroke-linejoin:round; stroke-width:4; stroke-opacity:1; fill:none" points="182.251,968.987 201.148,968.987 "/>
<polyline clip-path="url(#clip640)" style="stroke:#000000; stroke-linecap:round; stroke-linejoin:round; stroke-width:4; stroke-opacity:1; fill:none" points="182.251,903.766 201.148,903.766 "/>
<polyline clip-path="url(#clip640)" style="stroke:#000000; stroke-linecap:round; stroke-linejoin:round; stroke-width:4; stroke-opacity:1; fill:none" points="182.251,838.546 201.148,838.546 "/>
<polyline clip-path="url(#clip640)" style="stroke:#000000; stroke-linecap:round; stroke-linejoin:round; stroke-width:4; stroke-opacity:1; fill:none" points="182.251,773.326 201.148,773.326 "/>
<polyline clip-path="url(#clip640)" style="stroke:#000000; stroke-linecap:round; stroke-linejoin:round; stroke-width:4; stroke-opacity:1; fill:none" points="182.251,708.106 201.148,708.106 "/>
<polyline clip-path="url(#clip640)" style="stroke:#000000; stroke-linecap:round; stroke-linejoin:round; stroke-width:4; stroke-opacity:1; fill:none" points="182.251,642.886 201.148,642.886 "/>
<polyline clip-path="url(#clip640)" style="stroke:#000000; stroke-linecap:round; stroke-linejoin:round; stroke-width:4; stroke-opacity:1; fill:none" points="182.251,577.665 201.148,577.665 "/>
<polyline clip-path="url(#clip640)" style="stroke:#000000; stroke-linecap:round; stroke-linejoin:round; stroke-width:4; stroke-opacity:1; fill:none" points="182.251,512.445 201.148,512.445 "/>
<polyline clip-path="url(#clip640)" style="stroke:#000000; stroke-linecap:round; stroke-linejoin:round; stroke-width:4; stroke-opacity:1; fill:none" points="182.251,447.225 201.148,447.225 "/>
<polyline clip-path="url(#clip640)" style="stroke:#000000; stroke-linecap:round; stroke-linejoin:round; stroke-width:4; stroke-opacity:1; fill:none" points="182.251,382.005 201.148,382.005 "/>
<polyline clip-path="url(#clip640)" style="stroke:#000000; stroke-linecap:round; stroke-linejoin:round; stroke-width:4; stroke-opacity:1; fill:none" points="182.251,316.785 201.148,316.785 "/>
<polyline clip-path="url(#clip640)" style="stroke:#000000; stroke-linecap:round; stroke-linejoin:round; stroke-width:4; stroke-opacity:1; fill:none" points="182.251,251.565 201.148,251.565 "/>
<polyline clip-path="url(#clip640)" style="stroke:#000000; stroke-linecap:round; stroke-linejoin:round; stroke-width:4; stroke-opacity:1; fill:none" points="182.251,186.344 201.148,186.344 "/>
<path clip-path="url(#clip640)" d="M130.417 1347.63 L124.075 1364.83 L136.783 1364.83 L130.417 1347.63 M127.779 1343.03 L133.08 1343.03 L146.251 1377.59 L141.39 1377.59 L138.242 1368.72 L122.663 1368.72 L119.515 1377.59 L114.584 1377.59 L127.779 1343.03 Z" fill="#000000" fill-rule="nonzero" fill-opacity="1" /><path clip-path="url(#clip640)" d="M126.413 1295.86 L126.413 1308.52 L133.913 1308.52 Q137.686 1308.52 139.492 1306.97 Q141.32 1305.4 141.32 1302.18 Q141.32 1298.94 139.492 1297.41 Q137.686 1295.86 133.913 1295.86 L126.413 1295.86 M126.413 1281.65 L126.413 1292.07 L133.334 1292.07 Q136.76 1292.07 138.427 1290.79 Q140.117 1289.5 140.117 1286.86 Q140.117 1284.24 138.427 1282.95 Q136.76 1281.65 133.334 1281.65 L126.413 1281.65 M121.737 1277.81 L133.681 1277.81 Q139.029 1277.81 141.922 1280.03 Q144.816 1282.25 144.816 1286.35 Q144.816 1289.52 143.334 1291.4 Q141.853 1293.27 138.982 1293.73 Q142.431 1294.47 144.329 1296.84 Q146.251 1299.17 146.251 1302.69 Q146.251 1307.32 143.103 1309.84 Q139.954 1312.37 134.144 1312.37 L121.737 1312.37 L121.737 1277.81 Z" fill="#000000" fill-rule="nonzero" fill-opacity="1" /><path clip-path="url(#clip640)" d="M146.251 1215.25 L146.251 1220.18 Q143.89 1217.98 141.204 1216.89 Q138.542 1215.8 135.533 1215.8 Q129.607 1215.8 126.459 1219.44 Q123.311 1223.05 123.311 1229.9 Q123.311 1236.73 126.459 1240.36 Q129.607 1243.98 135.533 1243.98 Q138.542 1243.98 141.204 1242.89 Q143.89 1241.8 146.251 1239.6 L146.251 1244.49 Q143.797 1246.15 141.042 1246.99 Q138.311 1247.82 135.255 1247.82 Q127.408 1247.82 122.894 1243.03 Q118.381 1238.21 118.381 1229.9 Q118.381 1221.57 122.894 1216.78 Q127.408 1211.96 135.255 1211.96 Q138.357 1211.96 141.089 1212.8 Q143.843 1213.61 146.251 1215.25 Z" fill="#000000" fill-rule="nonzero" fill-opacity="1" /><path clip-path="url(#clip640)" d="M121.876 1151.21 L121.876 1178.08 L127.524 1178.08 Q134.677 1178.08 137.987 1174.84 Q141.32 1171.6 141.32 1164.61 Q141.32 1157.67 137.987 1154.45 Q134.677 1151.21 127.524 1151.21 L121.876 1151.21 M117.2 1147.37 L126.806 1147.37 Q136.853 1147.37 141.552 1151.56 Q146.251 1155.72 146.251 1164.61 Q146.251 1173.55 141.529 1177.74 Q136.806 1181.93 126.806 1181.93 L117.2 1181.93 L117.2 1147.37 Z" fill="#000000" fill-rule="nonzero" fill-opacity="1" /><path clip-path="url(#clip640)" d="M123.982 1082.15 L145.834 1082.15 L145.834 1086.08 L128.658 1086.08 L128.658 1096.31 L145.116 1096.31 L145.116 1100.25 L128.658 1100.25 L128.658 1112.77 L146.251 1112.77 L146.251 1116.71 L123.982 1116.71 L123.982 1082.15 Z" fill="#000000" fill-rule="nonzero" fill-opacity="1" /><path clip-path="url(#clip640)" d="M126.39 1016.93 L146.251 1016.93 L146.251 1020.86 L131.066 1020.86 L131.066 1031.05 L144.769 1031.05 L144.769 1034.98 L131.066 1034.98 L131.066 1051.49 L126.39 1051.49 L126.39 1016.93 Z" fill="#000000" fill-rule="nonzero" fill-opacity="1" /><path clip-path="url(#clip640)" d="M141.621 981.336 L141.621 972.054 L133.982 972.054 L133.982 968.211 L146.251 968.211 L146.251 983.049 Q143.542 984.97 140.279 985.966 Q137.015 986.938 133.311 986.938 Q125.209 986.938 120.626 982.216 Q116.066 977.47 116.066 969.021 Q116.066 960.549 120.626 955.827 Q125.209 951.082 133.311 951.082 Q136.691 951.082 139.723 951.915 Q142.779 952.748 145.348 954.369 L145.348 959.345 Q142.755 957.146 139.839 956.035 Q136.922 954.924 133.704 954.924 Q127.362 954.924 124.168 958.466 Q120.996 962.007 120.996 969.021 Q120.996 976.012 124.168 979.554 Q127.362 983.095 133.704 983.095 Q136.181 983.095 138.126 982.679 Q140.07 982.239 141.621 981.336 Z" fill="#000000" fill-rule="nonzero" fill-opacity="1" /><path clip-path="url(#clip640)" d="M119.908 886.486 L124.584 886.486 L124.584 900.653 L141.575 900.653 L141.575 886.486 L146.251 886.486 L146.251 921.046 L141.575 921.046 L141.575 904.588 L124.584 904.588 L124.584 921.046 L119.908 921.046 L119.908 886.486 Z" fill="#000000" fill-rule="nonzero" fill-opacity="1" /><path clip-path="url(#clip640)" d="M141.575 821.266 L146.251 821.266 L146.251 855.826 L141.575 855.826 L141.575 821.266 Z" fill="#000000" fill-rule="nonzero" fill-opacity="1" /><path clip-path="url(#clip640)" d="M141.575 756.046 L146.251 756.046 L146.251 788.199 Q146.251 794.449 143.866 797.273 Q141.505 800.097 136.251 800.097 L134.468 800.097 L134.468 796.162 L135.927 796.162 Q139.029 796.162 140.302 794.425 Q141.575 792.689 141.575 788.199 L141.575 756.046 Z" fill="#000000" fill-rule="nonzero" fill-opacity="1" /><path clip-path="url(#clip640)" d="M118.82 690.826 L123.496 690.826 L123.496 705.432 L139.005 690.826 L145.024 690.826 L127.871 706.937 L146.251 725.386 L140.093 725.386 L123.496 708.742 L123.496 725.386 L118.82 725.386 L118.82 690.826 Z" fill="#000000" fill-rule="nonzero" fill-opacity="1" /><path clip-path="url(#clip640)" d="M124.746 625.606 L129.422 625.606 L129.422 656.23 L146.251 656.23 L146.251 660.166 L124.746 660.166 L124.746 625.606 Z" fill="#000000" fill-rule="nonzero" fill-opacity="1" /><path clip-path="url(#clip640)" d="M114.631 560.385 L121.598 560.385 L130.417 583.904 L139.283 560.385 L146.251 560.385 L146.251 594.945 L141.691 594.945 L141.691 564.598 L132.779 588.302 L128.08 588.302 L119.168 564.598 L119.168 594.945 L114.631 594.945 L114.631 560.385 Z" fill="#000000" fill-rule="nonzero" fill-opacity="1" /><path clip-path="url(#clip640)" d="M120.093 495.165 L126.39 495.165 L141.714 524.077 L141.714 495.165 L146.251 495.165 L146.251 529.725 L139.954 529.725 L124.63 500.813 L124.63 529.725 L120.093 529.725 L120.093 495.165 Z" fill="#000000" fill-rule="nonzero" fill-opacity="1" /><path clip-path="url(#clip640)" d="M130.279 433.116 Q125.186 433.116 122.177 436.913 Q119.191 440.709 119.191 447.26 Q119.191 453.788 122.177 457.584 Q125.186 461.38 130.279 461.38 Q135.371 461.38 138.334 457.584 Q141.32 453.788 141.32 447.26 Q141.32 440.709 138.334 436.913 Q135.371 433.116 130.279 433.116 M130.279 429.32 Q137.547 429.32 141.899 434.204 Q146.251 439.065 146.251 447.26 Q146.251 455.431 141.899 460.315 Q137.547 465.176 130.279 465.176 Q122.987 465.176 118.612 460.315 Q114.26 455.454 114.26 447.26 Q114.26 439.065 118.612 434.204 Q122.987 429.32 130.279 429.32 Z" fill="#000000" fill-rule="nonzero" fill-opacity="1" /><path clip-path="url(#clip640)" d="M128.612 368.567 L128.612 381.554 L134.492 381.554 Q137.755 381.554 139.538 379.864 Q141.32 378.174 141.32 375.049 Q141.32 371.947 139.538 370.257 Q137.755 368.567 134.492 368.567 L128.612 368.567 M123.936 364.725 L134.492 364.725 Q140.302 364.725 143.265 367.364 Q146.251 369.98 146.251 375.049 Q146.251 380.165 143.265 382.78 Q140.302 385.396 134.492 385.396 L128.612 385.396 L128.612 399.285 L123.936 399.285 L123.936 364.725 Z" fill="#000000" fill-rule="nonzero" fill-opacity="1" /><path clip-path="url(#clip640)" d="M130.279 302.676 Q125.186 302.676 122.177 306.472 Q119.191 310.269 119.191 316.819 Q119.191 323.347 122.177 327.143 Q125.186 330.94 130.279 330.94 Q135.371 330.94 138.334 327.143 Q141.32 323.347 141.32 316.819 Q141.32 310.269 138.334 306.472 Q135.371 302.676 130.279 302.676 M136.829 333.44 L142.987 340.176 L137.339 340.176 L132.223 334.643 Q131.459 334.69 131.042 334.713 Q130.649 334.736 130.279 334.736 Q122.987 334.736 118.612 329.875 Q114.26 324.991 114.26 316.819 Q114.26 308.625 118.612 303.764 Q122.987 298.88 130.279 298.88 Q137.547 298.88 141.899 303.764 Q146.251 308.625 146.251 316.819 Q146.251 322.838 143.82 327.12 Q141.413 331.403 136.829 333.44 Z" fill="#000000" fill-rule="nonzero" fill-opacity="1" /><path clip-path="url(#clip640)" d="M135.718 252.641 Q137.223 253.15 138.635 254.817 Q140.07 256.484 141.505 259.4 L146.251 268.845 L141.228 268.845 L136.806 259.979 Q135.093 256.507 133.473 255.372 Q131.876 254.238 129.098 254.238 L124.005 254.238 L124.005 268.845 L119.33 268.845 L119.33 234.285 L129.885 234.285 Q135.811 234.285 138.728 236.761 Q141.644 239.238 141.644 244.238 Q141.644 247.502 140.117 249.655 Q138.612 251.808 135.718 252.641 M124.005 238.127 L124.005 250.396 L129.885 250.396 Q133.265 250.396 134.978 248.845 Q136.714 247.271 136.714 244.238 Q136.714 241.206 134.978 239.678 Q133.265 238.127 129.885 238.127 L124.005 238.127 Z" fill="#000000" fill-rule="nonzero" fill-opacity="1" /><path clip-path="url(#clip640)" d="M144.167 170.199 L144.167 174.759 Q141.505 173.486 139.144 172.861 Q136.783 172.236 134.584 172.236 Q130.765 172.236 128.681 173.717 Q126.621 175.199 126.621 177.93 Q126.621 180.222 127.987 181.402 Q129.376 182.56 133.218 183.277 L136.042 183.856 Q141.274 184.851 143.751 187.374 Q146.251 189.874 146.251 194.087 Q146.251 199.111 142.871 201.703 Q139.515 204.296 133.01 204.296 Q130.556 204.296 127.779 203.74 Q125.024 203.185 122.061 202.097 L122.061 197.282 Q124.908 198.879 127.64 199.689 Q130.371 200.499 133.01 200.499 Q137.015 200.499 139.191 198.925 Q141.366 197.351 141.366 194.435 Q141.366 191.888 139.792 190.453 Q138.242 189.018 134.677 188.3 L131.83 187.745 Q126.598 186.703 124.26 184.481 Q121.922 182.259 121.922 178.3 Q121.922 173.717 125.14 171.078 Q128.38 168.439 134.052 168.439 Q136.482 168.439 139.005 168.879 Q141.529 169.319 144.167 170.199 Z" fill="#000000" fill-rule="nonzero" fill-opacity="1" /><path clip-path="url(#clip640)" d="M16.4842 843.667 L16.4842 803.468 L21.895 803.468 L21.895 820.337 L64.0042 820.337 L64.0042 826.798 L21.895 826.798 L21.895 843.667 L16.4842 843.667 Z" fill="#000000" fill-rule="nonzero" fill-opacity="1" /><path clip-path="url(#clip640)" d="M46.0847 792.105 Q46.0847 799.203 47.7079 801.94 Q49.3312 804.677 53.2461 804.677 Q56.3653 804.677 58.2114 802.64 Q60.0256 800.571 60.0256 797.038 Q60.0256 792.168 56.5881 789.24 Q53.1188 786.28 47.3897 786.28 L46.0847 786.28 L46.0847 792.105 M43.6657 780.424 L64.0042 780.424 L64.0042 786.28 L58.5933 786.28 Q61.8398 788.285 63.3994 791.277 Q64.9272 794.269 64.9272 798.598 Q64.9272 804.072 61.8716 807.319 Q58.7843 810.534 53.6281 810.534 Q47.6125 810.534 44.5569 806.523 Q41.5014 802.481 41.5014 794.492 L41.5014 786.28 L40.9285 786.28 Q36.8862 786.28 34.6901 788.954 Q32.4621 791.596 32.4621 796.402 Q32.4621 799.457 33.1941 802.354 Q33.9262 805.25 35.3903 807.924 L29.9795 807.924 Q28.7381 804.709 28.1334 801.685 Q27.4968 798.661 27.4968 795.797 Q27.4968 788.063 31.5072 784.243 Q35.5176 780.424 43.6657 780.424 Z" fill="#000000" fill-rule="nonzero" fill-opacity="1" /><path clip-path="url(#clip640)" d="M29.4065 745.635 L34.9447 745.635 Q33.6716 748.118 33.035 750.791 Q32.3984 753.465 32.3984 756.33 Q32.3984 760.69 33.7352 762.886 Q35.072 765.051 37.7456 765.051 Q39.7826 765.051 40.9603 763.491 Q42.1061 761.931 43.1565 757.221 L43.6021 755.216 Q44.9389 748.977 47.3897 746.367 Q49.8086 743.725 54.1691 743.725 Q59.1344 743.725 62.0308 747.672 Q64.9272 751.587 64.9272 758.462 Q64.9272 761.327 64.3543 764.446 Q63.8132 767.533 62.6992 770.971 L56.6518 770.971 Q58.3387 767.724 59.198 764.573 Q60.0256 761.422 60.0256 758.335 Q60.0256 754.197 58.6251 751.969 Q57.1929 749.741 54.6147 749.741 Q52.2276 749.741 50.9545 751.364 Q49.6813 752.956 48.5037 758.398 L48.0262 760.435 Q46.8804 765.878 44.5251 768.297 Q42.138 770.716 38.0002 770.716 Q32.9713 770.716 30.2341 767.151 Q27.4968 763.586 27.4968 757.03 Q27.4968 753.783 27.9743 750.919 Q28.4517 748.054 29.4065 745.635 Z" fill="#000000" fill-rule="nonzero" fill-opacity="1" /><path clip-path="url(#clip640)" d="M14.479 734.622 L14.479 728.734 L43.7294 728.734 L28.3562 711.26 L28.3562 703.781 L45.0344 722.687 L64.0042 702.985 L64.0042 710.624 L46.5939 728.734 L64.0042 728.734 L64.0042 734.622 L14.479 734.622 Z" fill="#000000" fill-rule="nonzero" fill-opacity="1" /><path clip-path="url(#clip640)" d="M490.499 35.9153 Q493.295 30.8922 497.183 28.5022 Q501.072 26.1121 506.338 26.1121 Q513.427 26.1121 517.276 31.0947 Q521.124 36.0368 521.124 45.1919 L521.124 72.576 L513.63 72.576 L513.63 45.4349 Q513.63 38.913 511.321 35.7533 Q509.012 32.5936 504.272 32.5936 Q498.48 32.5936 495.117 36.4419 Q491.755 40.2903 491.755 46.9338 L491.755 72.576 L484.261 72.576 L484.261 45.4349 Q484.261 38.8725 481.952 35.7533 Q479.643 32.5936 474.822 32.5936 Q469.111 32.5936 465.748 36.4824 Q462.386 40.3308 462.386 46.9338 L462.386 72.576 L454.892 72.576 L454.892 27.2059 L462.386 27.2059 L462.386 34.2544 Q464.938 30.082 468.503 28.0971 Q472.068 26.1121 476.969 26.1121 Q481.911 26.1121 485.355 28.6237 Q488.839 31.1352 490.499 35.9153 Z" fill="#000000" fill-rule="nonzero" fill-opacity="1" /><path clip-path="url(#clip640)" d="M556.61 49.7694 Q547.577 49.7694 544.093 51.8354 Q540.609 53.9013 540.609 58.8839 Q540.609 62.8538 543.202 65.2034 Q545.835 67.5124 550.331 67.5124 Q556.529 67.5124 560.256 63.1374 Q564.023 58.7219 564.023 51.4303 L564.023 49.7694 L556.61 49.7694 M571.477 46.6907 L571.477 72.576 L564.023 72.576 L564.023 65.6895 Q561.471 69.8214 557.663 71.8063 Q553.856 73.7508 548.346 73.7508 Q541.379 73.7508 537.247 69.8619 Q533.155 65.9325 533.155 59.3701 Q533.155 51.7138 538.26 47.825 Q543.404 43.9361 553.572 43.9361 L564.023 43.9361 L564.023 43.2069 Q564.023 38.0623 560.621 35.2672 Q557.258 32.4315 551.141 32.4315 Q547.253 32.4315 543.566 33.3632 Q539.88 34.295 536.477 36.1584 L536.477 29.2718 Q540.569 27.692 544.417 26.9223 Q548.265 26.1121 551.911 26.1121 Q561.755 26.1121 566.616 31.2163 Q571.477 36.3204 571.477 46.6907 Z" fill="#000000" fill-rule="nonzero" fill-opacity="1" /><path clip-path="url(#clip640)" d="M586.546 9.54393 L594.04 9.54393 L594.04 46.7717 L616.28 27.2059 L625.8 27.2059 L601.737 48.4326 L626.812 72.576 L617.09 72.576 L594.04 50.4176 L594.04 72.576 L586.546 72.576 L586.546 9.54393 Z" fill="#000000" fill-rule="nonzero" fill-opacity="1" /><path clip-path="url(#clip640)" d="M670.724 48.0275 L670.724 51.6733 L636.453 51.6733 Q636.94 59.3701 641.071 63.421 Q645.244 67.4314 652.657 67.4314 Q656.951 67.4314 660.961 66.3781 Q665.012 65.3249 668.982 63.2184 L668.982 70.267 Q664.972 71.9684 660.759 72.8596 Q656.546 73.7508 652.211 73.7508 Q641.355 73.7508 634.995 67.4314 Q628.676 61.1119 628.676 50.3365 Q628.676 39.1965 634.671 32.6746 Q640.707 26.1121 650.915 26.1121 Q660.07 26.1121 665.377 32.0264 Q670.724 37.9003 670.724 48.0275 M663.27 45.84 Q663.189 39.7232 659.827 36.0774 Q656.505 32.4315 650.996 32.4315 Q644.758 32.4315 640.99 35.9558 Q637.264 39.4801 636.697 45.8805 L663.27 45.84 Z" fill="#000000" fill-rule="nonzero" fill-opacity="1" /><path clip-path="url(#clip640)" d="M711.881 28.5427 L711.881 35.5912 Q708.722 33.9709 705.319 33.1607 Q701.916 32.3505 698.27 32.3505 Q692.721 32.3505 689.925 34.0519 Q687.171 35.7533 687.171 39.156 Q687.171 41.7486 689.156 43.2475 Q691.141 44.7058 697.136 46.0426 L699.688 46.6097 Q707.628 48.3111 710.95 51.4303 Q714.312 54.509 714.312 60.0587 Q714.312 66.3781 709.289 70.0644 Q704.306 73.7508 695.556 73.7508 Q691.91 73.7508 687.94 73.0216 Q684.011 72.3329 679.636 70.9151 L679.636 63.2184 Q683.768 65.3654 687.778 66.4591 Q691.789 67.5124 695.718 67.5124 Q700.984 67.5124 703.82 65.73 Q706.656 63.9071 706.656 60.6258 Q706.656 57.5877 704.59 55.9673 Q702.564 54.3469 695.637 52.8481 L693.045 52.2405 Q686.118 50.7821 683.039 47.7845 Q679.96 44.7463 679.96 39.4801 Q679.96 33.0797 684.497 29.5959 Q689.034 26.1121 697.379 26.1121 Q701.511 26.1121 705.157 26.7198 Q708.803 27.3274 711.881 28.5427 Z" fill="#000000" fill-rule="nonzero" fill-opacity="1" /><path clip-path="url(#clip640)" d="M733.392 65.7705 L733.392 89.8329 L725.897 89.8329 L725.897 27.2059 L733.392 27.2059 L733.392 34.0924 Q735.741 30.0415 739.306 28.0971 Q742.911 26.1121 747.894 26.1121 Q756.158 26.1121 761.302 32.6746 Q766.487 39.2371 766.487 49.9314 Q766.487 60.6258 761.302 67.1883 Q756.158 73.7508 747.894 73.7508 Q742.911 73.7508 739.306 71.8063 Q735.741 69.8214 733.392 65.7705 M758.75 49.9314 Q758.75 41.7081 755.347 37.0496 Q751.985 32.3505 746.071 32.3505 Q740.157 32.3505 736.754 37.0496 Q733.392 41.7081 733.392 49.9314 Q733.392 58.1548 736.754 62.8538 Q740.157 67.5124 746.071 67.5124 Q751.985 67.5124 755.347 62.8538 Q758.75 58.1548 758.75 49.9314 Z" fill="#000000" fill-rule="nonzero" fill-opacity="1" /><path clip-path="url(#clip640)" d="M799.462 49.7694 Q790.428 49.7694 786.945 51.8354 Q783.461 53.9013 783.461 58.8839 Q783.461 62.8538 786.053 65.2034 Q788.686 67.5124 793.183 67.5124 Q799.381 67.5124 803.108 63.1374 Q806.875 58.7219 806.875 51.4303 L806.875 49.7694 L799.462 49.7694 M814.329 46.6907 L814.329 72.576 L806.875 72.576 L806.875 65.6895 Q804.323 69.8214 800.515 71.8063 Q796.707 73.7508 791.198 73.7508 Q784.23 73.7508 780.099 69.8619 Q776.007 65.9325 776.007 59.3701 Q776.007 51.7138 781.111 47.825 Q786.256 43.9361 796.424 43.9361 L806.875 43.9361 L806.875 43.2069 Q806.875 38.0623 803.472 35.2672 Q800.11 32.4315 793.993 32.4315 Q790.104 32.4315 786.418 33.3632 Q782.732 34.295 779.329 36.1584 L779.329 29.2718 Q783.42 27.692 787.269 26.9223 Q791.117 26.1121 794.763 26.1121 Q804.606 26.1121 809.468 31.2163 Q814.329 36.3204 814.329 46.6907 Z" fill="#000000" fill-rule="nonzero" fill-opacity="1" /><path clip-path="url(#clip640)" d="M867.396 45.1919 L867.396 72.576 L859.942 72.576 L859.942 45.4349 Q859.942 38.994 857.43 35.7938 Q854.919 32.5936 849.896 32.5936 Q843.86 32.5936 840.376 36.4419 Q836.892 40.2903 836.892 46.9338 L836.892 72.576 L829.398 72.576 L829.398 27.2059 L836.892 27.2059 L836.892 34.2544 Q839.566 30.163 843.171 28.1376 Q846.817 26.1121 851.556 26.1121 Q859.375 26.1121 863.385 30.9732 Q867.396 35.7938 867.396 45.1919 Z" fill="#000000" fill-rule="nonzero" fill-opacity="1" /><path clip-path="url(#clip640)" d="M909.606 34.9026 L961.539 34.9026 L961.539 41.7081 L909.606 41.7081 L909.606 34.9026 M909.606 51.4303 L961.539 51.4303 L961.539 58.3168 L909.606 58.3168 L909.606 51.4303 Z" fill="#000000" fill-rule="nonzero" fill-opacity="1" /><path clip-path="url(#clip640)" d="M1005.81 71.3202 L1005.81 63.8666 Q1008.89 65.3249 1012.05 66.0946 Q1015.21 66.8642 1018.25 66.8642 Q1026.35 66.8642 1030.61 61.436 Q1034.9 55.9673 1035.51 44.8678 Q1033.16 48.3516 1029.55 50.215 Q1025.95 52.0784 1021.57 52.0784 Q1012.5 52.0784 1007.19 46.6097 Q1001.93 41.1005 1001.93 31.5808 Q1001.93 22.2638 1007.44 16.633 Q1012.94 11.0023 1022.1 11.0023 Q1032.59 11.0023 1038.1 19.0636 Q1043.65 27.0843 1043.65 42.3968 Q1043.65 56.6965 1036.84 65.2439 Q1030.08 73.7508 1018.62 73.7508 Q1015.54 73.7508 1012.38 73.1431 Q1009.22 72.5355 1005.81 71.3202 M1022.1 45.678 Q1027.61 45.678 1030.81 41.9107 Q1034.05 38.1433 1034.05 31.5808 Q1034.05 25.0589 1030.81 21.2916 Q1027.61 17.4837 1022.1 17.4837 Q1016.59 17.4837 1013.35 21.2916 Q1010.15 25.0589 1010.15 31.5808 Q1010.15 38.1433 1013.35 41.9107 Q1016.59 45.678 1022.1 45.678 Z" fill="#000000" fill-rule="nonzero" fill-opacity="1" /><path clip-path="url(#clip640)" d="M1065.4 65.6895 L1093.96 65.6895 L1093.96 72.576 L1055.56 72.576 L1055.56 65.6895 Q1060.22 60.8689 1068.24 52.7671 Q1076.3 44.6248 1078.37 42.2752 Q1082.3 37.8598 1083.84 34.8216 Q1085.42 31.7429 1085.42 28.7857 Q1085.42 23.9651 1082.01 20.927 Q1078.65 17.8888 1073.22 17.8888 Q1069.37 17.8888 1065.08 19.2256 Q1060.83 20.5624 1055.97 23.2765 L1055.97 15.0127 Q1060.91 13.0277 1065.2 12.015 Q1069.5 11.0023 1073.06 11.0023 Q1082.46 11.0023 1088.05 15.7013 Q1093.64 20.4004 1093.64 28.2591 Q1093.64 31.9859 1092.22 35.3482 Q1090.84 38.6699 1087.16 43.2069 Q1086.14 44.3817 1080.72 50.0125 Q1075.29 55.6027 1065.4 65.6895 Z" fill="#000000" fill-rule="nonzero" fill-opacity="1" /><path clip-path="url(#clip640)" d="M1111.99 62.2867 L1120.54 62.2867 L1120.54 69.2543 L1113.89 82.2172 L1108.67 82.2172 L1111.99 69.2543 L1111.99 62.2867 Z" fill="#000000" fill-rule="nonzero" fill-opacity="1" /><path clip-path="url(#clip640)" d="M1195.48 28.9478 L1195.48 35.9153 Q1192.32 34.1734 1189.12 33.3227 Q1185.96 32.4315 1182.72 32.4315 Q1175.47 32.4315 1171.46 37.0496 Q1167.45 41.6271 1167.45 49.9314 Q1167.45 58.2358 1171.46 62.8538 Q1175.47 67.4314 1182.72 67.4314 Q1185.96 67.4314 1189.12 66.5807 Q1192.32 65.6895 1195.48 63.9476 L1195.48 70.8341 Q1192.36 72.2924 1189 73.0216 Q1185.68 73.7508 1181.91 73.7508 Q1171.66 73.7508 1165.62 67.3098 Q1159.59 60.8689 1159.59 49.9314 Q1159.59 38.832 1165.66 32.472 Q1171.78 26.1121 1182.39 26.1121 Q1185.84 26.1121 1189.12 26.8413 Q1192.4 27.5299 1195.48 28.9478 Z" fill="#000000" fill-rule="nonzero" fill-opacity="1" /><path clip-path="url(#clip640)" d="M1226.02 32.4315 Q1220.03 32.4315 1216.54 37.1306 Q1213.06 41.7891 1213.06 49.9314 Q1213.06 58.0738 1216.5 62.7728 Q1219.99 67.4314 1226.02 67.4314 Q1231.98 67.4314 1235.46 62.7323 Q1238.94 58.0333 1238.94 49.9314 Q1238.94 41.8701 1235.46 37.1711 Q1231.98 32.4315 1226.02 32.4315 M1226.02 26.1121 Q1235.74 26.1121 1241.29 32.4315 Q1246.84 38.7509 1246.84 49.9314 Q1246.84 61.0714 1241.29 67.4314 Q1235.74 73.7508 1226.02 73.7508 Q1216.26 73.7508 1210.71 67.4314 Q1205.2 61.0714 1205.2 49.9314 Q1205.2 38.7509 1210.71 32.4315 Q1216.26 26.1121 1226.02 26.1121 Z" fill="#000000" fill-rule="nonzero" fill-opacity="1" /><path clip-path="url(#clip640)" d="M1288.12 28.5427 L1288.12 35.5912 Q1284.96 33.9709 1281.56 33.1607 Q1278.16 32.3505 1274.51 32.3505 Q1268.96 32.3505 1266.17 34.0519 Q1263.41 35.7533 1263.41 39.156 Q1263.41 41.7486 1265.4 43.2475 Q1267.38 44.7058 1273.38 46.0426 L1275.93 46.6097 Q1283.87 48.3111 1287.19 51.4303 Q1290.55 54.509 1290.55 60.0587 Q1290.55 66.3781 1285.53 70.0644 Q1280.55 73.7508 1271.8 73.7508 Q1268.15 73.7508 1264.18 73.0216 Q1260.25 72.3329 1255.88 70.9151 L1255.88 63.2184 Q1260.01 65.3654 1264.02 66.4591 Q1268.03 67.5124 1271.96 67.5124 Q1277.23 67.5124 1280.06 65.73 Q1282.9 63.9071 1282.9 60.6258 Q1282.9 57.5877 1280.83 55.9673 Q1278.81 54.3469 1271.88 52.8481 L1269.29 52.2405 Q1262.36 50.7821 1259.28 47.7845 Q1256.2 44.7463 1256.2 39.4801 Q1256.2 33.0797 1260.74 29.5959 Q1265.28 26.1121 1273.62 26.1121 Q1277.75 26.1121 1281.4 26.7198 Q1285.04 27.3274 1288.12 28.5427 Z" fill="#000000" fill-rule="nonzero" fill-opacity="1" /><path clip-path="url(#clip640)" d="M1309.79 14.324 L1309.79 27.2059 L1325.15 27.2059 L1325.15 32.9987 L1309.79 32.9987 L1309.79 57.6282 Q1309.79 63.1779 1311.29 64.7578 Q1312.83 66.3376 1317.49 66.3376 L1325.15 66.3376 L1325.15 72.576 L1317.49 72.576 Q1308.86 72.576 1305.58 69.3758 Q1302.3 66.1351 1302.3 57.6282 L1302.3 32.9987 L1296.83 32.9987 L1296.83 27.2059 L1302.3 27.2059 L1302.3 14.324 L1309.79 14.324 Z" fill="#000000" fill-rule="nonzero" fill-opacity="1" /><path clip-path="url(#clip640)" d="M1362.29 34.9026 L1414.23 34.9026 L1414.23 41.7081 L1362.29 41.7081 L1362.29 34.9026 M1362.29 51.4303 L1414.23 51.4303 L1414.23 58.3168 L1362.29 58.3168 L1362.29 51.4303 Z" fill="#000000" fill-rule="nonzero" fill-opacity="1" /><path clip-path="url(#clip640)" d="M1496.66 16.7545 L1496.66 25.383 Q1492.98 21.1295 1489.53 19.3066 Q1486.13 17.4837 1482 17.4837 Q1475.64 17.4837 1471.55 21.5346 Q1467.46 25.5855 1466.16 33.1607 L1489.53 33.1607 L1487.31 38.1433 L1465.51 38.1433 Q1465.43 39.1155 1465.39 40.0472 Q1465.39 40.9789 1465.39 42.3968 Q1465.39 43.6931 1465.39 44.6248 Q1465.43 45.5565 1465.51 46.5287 L1483.58 46.5287 L1481.31 51.5113 L1466.16 51.5113 Q1467.46 59.0865 1471.55 63.1779 Q1475.64 67.2693 1482 67.2693 Q1486.13 67.2693 1489.53 65.4464 Q1492.98 63.6235 1496.66 59.3701 L1496.66 67.9175 Q1493.06 70.8341 1489.29 72.2924 Q1485.56 73.7508 1481.67 73.7508 Q1472.07 73.7508 1465.8 67.877 Q1459.56 62.0031 1457.94 51.5113 L1449.39 51.5113 L1451.62 46.5287 L1457.25 46.5287 Q1457.25 45.597 1457.21 44.6653 Q1457.21 43.6931 1457.21 42.3968 Q1457.21 40.9789 1457.21 40.0472 Q1457.25 39.075 1457.25 38.1433 L1449.39 38.1433 L1451.62 33.1607 L1457.94 33.1607 Q1459.56 22.7499 1465.84 16.8761 Q1472.11 11.0023 1481.67 11.0023 Q1485.64 11.0023 1489.37 12.4606 Q1493.14 13.8784 1496.66 16.7545 Z" fill="#000000" fill-rule="nonzero" fill-opacity="1" /><path clip-path="url(#clip640)" d="M1528.54 17.4837 Q1522.22 17.4837 1519.02 23.7221 Q1515.86 29.92 1515.86 42.3968 Q1515.86 54.833 1519.02 61.0714 Q1522.22 67.2693 1528.54 67.2693 Q1534.9 67.2693 1538.06 61.0714 Q1541.26 54.833 1541.26 42.3968 Q1541.26 29.92 1538.06 23.7221 Q1534.9 17.4837 1528.54 17.4837 M1528.54 11.0023 Q1538.71 11.0023 1544.06 19.0636 Q1549.45 27.0843 1549.45 42.3968 Q1549.45 57.6687 1544.06 65.73 Q1538.71 73.7508 1528.54 73.7508 Q1518.38 73.7508 1512.99 65.73 Q1507.64 57.6687 1507.64 42.3968 Q1507.64 27.0843 1512.99 19.0636 Q1518.38 11.0023 1528.54 11.0023 Z" fill="#000000" fill-rule="nonzero" fill-opacity="1" /><path clip-path="url(#clip640)" d="M1562.49 9.54393 L1569.98 9.54393 L1569.98 46.7717 L1592.22 27.2059 L1601.74 27.2059 L1577.68 48.4326 L1602.76 72.576 L1593.03 72.576 L1569.98 50.4176 L1569.98 72.576 L1562.49 72.576 L1562.49 9.54393 Z" fill="#000000" fill-rule="nonzero" fill-opacity="1" /><path clip-path="url(#clip640)" d="M1612.72 62.2867 L1621.27 62.2867 L1621.27 69.2543 L1614.63 82.2172 L1609.4 82.2172 L1612.72 69.2543 L1612.72 62.2867 Z" fill="#000000" fill-rule="nonzero" fill-opacity="1" /><path clip-path="url(#clip640)" d="M1670.77 65.7705 L1670.77 89.8329 L1663.28 89.8329 L1663.28 27.2059 L1670.77 27.2059 L1670.77 34.0924 Q1673.12 30.0415 1676.69 28.0971 Q1680.29 26.1121 1685.27 26.1121 Q1693.54 26.1121 1698.68 32.6746 Q1703.87 39.2371 1703.87 49.9314 Q1703.87 60.6258 1698.68 67.1883 Q1693.54 73.7508 1685.27 73.7508 Q1680.29 73.7508 1676.69 71.8063 Q1673.12 69.8214 1670.77 65.7705 M1696.13 49.9314 Q1696.13 41.7081 1692.73 37.0496 Q1689.36 32.3505 1683.45 32.3505 Q1677.54 32.3505 1674.13 37.0496 Q1670.77 41.7081 1670.77 49.9314 Q1670.77 58.1548 1674.13 62.8538 Q1677.54 67.5124 1683.45 67.5124 Q1689.36 67.5124 1692.73 62.8538 Q1696.13 58.1548 1696.13 49.9314 Z" fill="#000000" fill-rule="nonzero" fill-opacity="1" /><path clip-path="url(#clip640)" d="M1755.03 48.0275 L1755.03 51.6733 L1720.76 51.6733 Q1721.25 59.3701 1725.38 63.421 Q1729.55 67.4314 1736.96 67.4314 Q1741.26 67.4314 1745.27 66.3781 Q1749.32 65.3249 1753.29 63.2184 L1753.29 70.267 Q1749.28 71.9684 1745.06 72.8596 Q1740.85 73.7508 1736.52 73.7508 Q1725.66 73.7508 1719.3 67.4314 Q1712.98 61.1119 1712.98 50.3365 Q1712.98 39.1965 1718.98 32.6746 Q1725.01 26.1121 1735.22 26.1121 Q1744.38 26.1121 1749.68 32.0264 Q1755.03 37.9003 1755.03 48.0275 M1747.58 45.84 Q1747.49 39.7232 1744.13 36.0774 Q1740.81 32.4315 1735.3 32.4315 Q1729.06 32.4315 1725.3 35.9558 Q1721.57 39.4801 1721 45.8805 L1747.58 45.84 Z" fill="#000000" fill-rule="nonzero" fill-opacity="1" /><path clip-path="url(#clip640)" d="M1784.84 32.4315 Q1778.85 32.4315 1775.37 37.1306 Q1771.88 41.7891 1771.88 49.9314 Q1771.88 58.0738 1775.32 62.7728 Q1778.81 67.4314 1784.84 67.4314 Q1790.8 67.4314 1794.28 62.7323 Q1797.77 58.0333 1797.77 49.9314 Q1797.77 41.8701 1794.28 37.1711 Q1790.8 32.4315 1784.84 32.4315 M1784.84 26.1121 Q1794.57 26.1121 1800.12 32.4315 Q1805.67 38.7509 1805.67 49.9314 Q1805.67 61.0714 1800.12 67.4314 Q1794.57 73.7508 1784.84 73.7508 Q1775.08 73.7508 1769.53 67.4314 Q1764.02 61.0714 1764.02 49.9314 Q1764.02 38.7509 1769.53 32.4315 Q1775.08 26.1121 1784.84 26.1121 Z" fill="#000000" fill-rule="nonzero" fill-opacity="1" /><path clip-path="url(#clip640)" d="M1825.23 65.7705 L1825.23 89.8329 L1817.74 89.8329 L1817.74 27.2059 L1825.23 27.2059 L1825.23 34.0924 Q1827.58 30.0415 1831.15 28.0971 Q1834.75 26.1121 1839.73 26.1121 Q1848 26.1121 1853.14 32.6746 Q1858.33 39.2371 1858.33 49.9314 Q1858.33 60.6258 1853.14 67.1883 Q1848 73.7508 1839.73 73.7508 Q1834.75 73.7508 1831.15 71.8063 Q1827.58 69.8214 1825.23 65.7705 M1850.59 49.9314 Q1850.59 41.7081 1847.19 37.0496 Q1843.83 32.3505 1837.91 32.3505 Q1832 32.3505 1828.59 37.0496 Q1825.23 41.7081 1825.23 49.9314 Q1825.23 58.1548 1828.59 62.8538 Q1832 67.5124 1837.91 67.5124 Q1843.83 67.5124 1847.19 62.8538 Q1850.59 58.1548 1850.59 49.9314 Z" fill="#000000" fill-rule="nonzero" fill-opacity="1" /><path clip-path="url(#clip640)" d="M1870.68 9.54393 L1878.14 9.54393 L1878.14 72.576 L1870.68 72.576 L1870.68 9.54393 Z" fill="#000000" fill-rule="nonzero" fill-opacity="1" /><path clip-path="url(#clip640)" d="M1932.54 48.0275 L1932.54 51.6733 L1898.27 51.6733 Q1898.76 59.3701 1902.89 63.421 Q1907.06 67.4314 1914.47 67.4314 Q1918.77 67.4314 1922.78 66.3781 Q1926.83 65.3249 1930.8 63.2184 L1930.8 70.267 Q1926.79 71.9684 1922.58 72.8596 Q1918.36 73.7508 1914.03 73.7508 Q1903.17 73.7508 1896.81 67.4314 Q1890.49 61.1119 1890.49 50.3365 Q1890.49 39.1965 1896.49 32.6746 Q1902.52 26.1121 1912.73 26.1121 Q1921.89 26.1121 1927.19 32.0264 Q1932.54 37.9003 1932.54 48.0275 M1925.09 45.84 Q1925.01 39.7232 1921.64 36.0774 Q1918.32 32.4315 1912.81 32.4315 Q1906.57 32.4315 1902.81 35.9558 Q1899.08 39.4801 1898.51 45.8805 L1925.09 45.84 Z" fill="#000000" fill-rule="nonzero" fill-opacity="1" /><path clip-path="url(#clip640)" d="M1972.12 34.9026 L2024.05 34.9026 L2024.05 41.7081 L1972.12 41.7081 L1972.12 34.9026 M1972.12 51.4303 L2024.05 51.4303 L2024.05 58.3168 L1972.12 58.3168 L1972.12 51.4303 Z" fill="#000000" fill-rule="nonzero" fill-opacity="1" /><path clip-path="url(#clip640)" d="M2059.21 17.4837 Q2052.89 17.4837 2049.69 23.7221 Q2046.53 29.92 2046.53 42.3968 Q2046.53 54.833 2049.69 61.0714 Q2052.89 67.2693 2059.21 67.2693 Q2065.57 67.2693 2068.73 61.0714 Q2071.93 54.833 2071.93 42.3968 Q2071.93 29.92 2068.73 23.7221 Q2065.57 17.4837 2059.21 17.4837 M2059.21 11.0023 Q2069.38 11.0023 2074.73 19.0636 Q2080.11 27.0843 2080.11 42.3968 Q2080.11 57.6687 2074.73 65.73 Q2069.38 73.7508 2059.21 73.7508 Q2049.04 73.7508 2043.66 65.73 Q2038.31 57.6687 2038.31 42.3968 Q2038.31 27.0843 2043.66 19.0636 Q2049.04 11.0023 2059.21 11.0023 Z" fill="#000000" fill-rule="nonzero" fill-opacity="1" /><path clip-path="url(#clip641)" d="M243.68 1386.4 L510.764 1386.4 L510.764 1334.22 L243.68 1334.22 L243.68 1386.4  Z" fill="#a0b1ec" fill-rule="evenodd" fill-opacity="1"/>
<polyline clip-path="url(#clip641)" style="stroke:#000000; stroke-linecap:round; stroke-linejoin:round; stroke-width:0; stroke-opacity:1; fill:none" points="243.68,1386.4 510.764,1386.4 510.764,1334.22 243.68,1334.22 243.68,1386.4 "/>
<path clip-path="url(#clip641)" d="M243.68 1321.18 L377.222 1321.18 L377.222 1269 L243.68 1269 L243.68 1321.18  Z" fill="#a0b1ec" fill-rule="evenodd" fill-opacity="1"/>
<polyline clip-path="url(#clip641)" style="stroke:#000000; stroke-linecap:round; stroke-linejoin:round; stroke-width:0; stroke-opacity:1; fill:none" points="243.68,1321.18 377.222,1321.18 377.222,1269 243.68,1269 243.68,1321.18 "/>
<path clip-path="url(#clip641)" d="M510.764 1255.96 L622.05 1255.96 L622.05 1203.78 L510.764 1203.78 L510.764 1255.96  Z" fill="#a0b1ec" fill-rule="evenodd" fill-opacity="1"/>
<polyline clip-path="url(#clip641)" style="stroke:#000000; stroke-linecap:round; stroke-linejoin:round; stroke-width:0; stroke-opacity:1; fill:none" points="510.764,1255.96 622.05,1255.96 622.05,1203.78 510.764,1203.78 510.764,1255.96 "/>
<path clip-path="url(#clip641)" d="M510.764 1190.74 L666.564 1190.74 L666.564 1138.56 L510.764 1138.56 L510.764 1190.74  Z" fill="#a0b1ec" fill-rule="evenodd" fill-opacity="1"/>
<polyline clip-path="url(#clip641)" style="stroke:#000000; stroke-linecap:round; stroke-linejoin:round; stroke-width:0; stroke-opacity:1; fill:none" points="510.764,1190.74 666.564,1190.74 666.564,1138.56 510.764,1138.56 510.764,1190.74 "/>
<path clip-path="url(#clip641)" d="M666.564 1125.51 L866.877 1125.51 L866.877 1073.34 L666.564 1073.34 L666.564 1125.51  Z" fill="#a0b1ec" fill-rule="evenodd" fill-opacity="1"/>
<polyline clip-path="url(#clip641)" style="stroke:#000000; stroke-linecap:round; stroke-linejoin:round; stroke-width:0; stroke-opacity:1; fill:none" points="666.564,1125.51 866.877,1125.51 866.877,1073.34 666.564,1073.34 666.564,1125.51 "/>
<path clip-path="url(#clip641)" d="M666.564 1060.29 L844.62 1060.29 L844.62 1008.12 L666.564 1008.12 L666.564 1060.29  Z" fill="#a0b1ec" fill-rule="evenodd" fill-opacity="1"/>
<polyline clip-path="url(#clip641)" style="stroke:#000000; stroke-linecap:round; stroke-linejoin:round; stroke-width:0; stroke-opacity:1; fill:none" points="666.564,1060.29 844.62,1060.29 844.62,1008.12 666.564,1008.12 666.564,1060.29 "/>
<path clip-path="url(#clip641)" d="M844.62 995.075 L1111.7 995.075 L1111.7 942.898 L844.62 942.898 L844.62 995.075  Z" fill="#a0b1ec" fill-rule="evenodd" fill-opacity="1"/>
<polyline clip-path="url(#clip641)" style="stroke:#000000; stroke-linecap:round; stroke-linejoin:round; stroke-width:0; stroke-opacity:1; fill:none" points="844.62,995.075 1111.7,995.075 1111.7,942.898 844.62,942.898 844.62,995.075 "/>
<path clip-path="url(#clip641)" d="M1111.7 929.854 L1200.73 929.854 L1200.73 877.678 L1111.7 877.678 L1111.7 929.854  Z" fill="#a0b1ec" fill-rule="evenodd" fill-opacity="1"/>
<polyline clip-path="url(#clip641)" style="stroke:#000000; stroke-linecap:round; stroke-linejoin:round; stroke-width:0; stroke-opacity:1; fill:none" points="1111.7,929.854 1200.73,929.854 1200.73,877.678 1111.7,877.678 1111.7,929.854 "/>
<path clip-path="url(#clip641)" d="M866.877 864.634 L1312.02 864.634 L1312.02 812.458 L866.877 812.458 L866.877 864.634  Z" fill="#a0b1ec" fill-rule="evenodd" fill-opacity="1"/>
<polyline clip-path="url(#clip641)" style="stroke:#000000; stroke-linecap:round; stroke-linejoin:round; stroke-width:0; stroke-opacity:1; fill:none" points="866.877,864.634 1312.02,864.634 1312.02,812.458 866.877,812.458 866.877,864.634 "/>
<path clip-path="url(#clip641)" d="M1312.02 799.414 L1534.59 799.414 L1534.59 747.238 L1312.02 747.238 L1312.02 799.414  Z" fill="#a0b1ec" fill-rule="evenodd" fill-opacity="1"/>
<polyline clip-path="url(#clip641)" style="stroke:#000000; stroke-linecap:round; stroke-linejoin:round; stroke-width:0; stroke-opacity:1; fill:none" points="1312.02,799.414 1534.59,799.414 1534.59,747.238 1312.02,747.238 1312.02,799.414 "/>
<path clip-path="url(#clip641)" d="M1534.59 734.194 L1645.87 734.194 L1645.87 682.018 L1534.59 682.018 L1534.59 734.194  Z" fill="#a0b1ec" fill-rule="evenodd" fill-opacity="1"/>
<polyline clip-path="url(#clip641)" style="stroke:#000000; stroke-linecap:round; stroke-linejoin:round; stroke-width:0; stroke-opacity:1; fill:none" points="1534.59,734.194 1645.87,734.194 1645.87,682.018 1534.59,682.018 1534.59,734.194 "/>
<path clip-path="url(#clip641)" d="M1645.87 668.974 L1779.41 668.974 L1779.41 616.798 L1645.87 616.798 L1645.87 668.974  Z" fill="#a0b1ec" fill-rule="evenodd" fill-opacity="1"/>
<polyline clip-path="url(#clip641)" style="stroke:#000000; stroke-linecap:round; stroke-linejoin:round; stroke-width:0; stroke-opacity:1; fill:none" points="1645.87,668.974 1779.41,668.974 1779.41,616.798 1645.87,616.798 1645.87,668.974 "/>
<path clip-path="url(#clip641)" d="M1645.87 603.754 L1690.39 603.754 L1690.39 551.577 L1645.87 551.577 L1645.87 603.754  Z" fill="#a0b1ec" fill-rule="evenodd" fill-opacity="1"/>
<polyline clip-path="url(#clip641)" style="stroke:#000000; stroke-linecap:round; stroke-linejoin:round; stroke-width:0; stroke-opacity:1; fill:none" points="1645.87,603.754 1690.39,603.754 1690.39,551.577 1645.87,551.577 1645.87,603.754 "/>
<path clip-path="url(#clip641)" d="M1690.39 538.533 L1801.67 538.533 L1801.67 486.357 L1690.39 486.357 L1690.39 538.533  Z" fill="#a0b1ec" fill-rule="evenodd" fill-opacity="1"/>
<polyline clip-path="url(#clip641)" style="stroke:#000000; stroke-linecap:round; stroke-linejoin:round; stroke-width:0; stroke-opacity:1; fill:none" points="1690.39,538.533 1801.67,538.533 1801.67,486.357 1690.39,486.357 1690.39,538.533 "/>
<path clip-path="url(#clip641)" d="M1801.67 473.313 L1890.7 473.313 L1890.7 421.137 L1801.67 421.137 L1801.67 473.313  Z" fill="#a0b1ec" fill-rule="evenodd" fill-opacity="1"/>
<polyline clip-path="url(#clip641)" style="stroke:#000000; stroke-linecap:round; stroke-linejoin:round; stroke-width:0; stroke-opacity:1; fill:none" points="1801.67,473.313 1890.7,473.313 1890.7,421.137 1801.67,421.137 1801.67,473.313 "/>
<path clip-path="url(#clip641)" d="M1801.67 408.093 L1868.44 408.093 L1868.44 355.917 L1801.67 355.917 L1801.67 408.093  Z" fill="#a0b1ec" fill-rule="evenodd" fill-opacity="1"/>
<polyline clip-path="url(#clip641)" style="stroke:#000000; stroke-linecap:round; stroke-linejoin:round; stroke-width:0; stroke-opacity:1; fill:none" points="1801.67,408.093 1868.44,408.093 1868.44,355.917 1801.67,355.917 1801.67,408.093 "/>
<path clip-path="url(#clip641)" d="M1690.39 342.873 L2291.33 342.873 L2291.33 290.697 L1690.39 290.697 L1690.39 342.873  Z" fill="#a0b1ec" fill-rule="evenodd" fill-opacity="1"/>
<polyline clip-path="url(#clip641)" style="stroke:#000000; stroke-linecap:round; stroke-linejoin:round; stroke-width:0; stroke-opacity:1; fill:none" points="1690.39,342.873 2291.33,342.873 2291.33,290.697 1690.39,290.697 1690.39,342.873 "/>
<path clip-path="url(#clip641)" d="M1890.7 277.653 L1935.21 277.653 L1935.21 225.476 L1890.7 225.476 L1890.7 277.653  Z" fill="#a0b1ec" fill-rule="evenodd" fill-opacity="1"/>
<polyline clip-path="url(#clip641)" style="stroke:#000000; stroke-linecap:round; stroke-linejoin:round; stroke-width:0; stroke-opacity:1; fill:none" points="1890.7,277.653 1935.21,277.653 1935.21,225.476 1890.7,225.476 1890.7,277.653 "/>
<path clip-path="url(#clip641)" d="M2291.33 212.432 L2291.33 212.432 L2291.33 160.256 L2291.33 160.256 L2291.33 212.432  Z" fill="#a0b1ec" fill-rule="evenodd" fill-opacity="1"/>
<polyline clip-path="url(#clip641)" style="stroke:#000000; stroke-linecap:round; stroke-linejoin:round; stroke-width:0; stroke-opacity:1; fill:none" points="2291.33,212.432 2291.33,212.432 2291.33,160.256 2291.33,212.432 "/>
</svg>
