<?xml version="1.0" encoding="utf-8"?>
<svg xmlns="http://www.w3.org/2000/svg" xmlns:xlink="http://www.w3.org/1999/xlink" width="600" height="400" viewBox="0 0 2400 1600">
<defs>
  <clipPath id="clip670">
    <rect x="0" y="0" width="2400" height="1600"/>
  </clipPath>
</defs>
<path clip-path="url(#clip670)" d="M0 1600 L2400 1600 L2400 0 L0 0  Z" fill="#ffffff" fill-rule="evenodd" fill-opacity="1"/>
<defs>
  <clipPath id="clip671">
    <rect x="182" y="123" width="2172" height="1301"/>
  </clipPath>
</defs>
<path clip-path="url(#clip670)" d="M182.251 1423.18 L2352.76 1423.18 L2352.76 123.472 L182.251 123.472  Z" fill="#ffffff" fill-rule="evenodd" fill-opacity="1"/>
<polyline clip-path="url(#clip671)" style="stroke:#000000; stroke-linecap:round; stroke-linejoin:round; stroke-width:2; stroke-opacity:0.1; fill:none" points="243.68,1423.18 243.68,123.472 "/>
<polyline clip-path="url(#clip671)" style="stroke:#000000; stroke-linecap:round; stroke-linejoin:round; stroke-width:2; stroke-opacity:0.1; fill:none" points="743.106,1423.18 743.106,123.472 "/>
<polyline clip-path="url(#clip671)" style="stroke:#000000; stroke-linecap:round; stroke-linejoin:round; stroke-width:2; stroke-opacity:0.1; fill:none" points="1242.53,1423.18 1242.53,123.472 "/>
<polyline clip-path="url(#clip671)" style="stroke:#000000; stroke-linecap:round; stroke-linejoin:round; stroke-width:2; stroke-opacity:0.1; fill:none" points="1741.96,1423.18 1741.96,123.472 "/>
<polyline clip-path="url(#clip671)" style="stroke:#000000; stroke-linecap:round; stroke-linejoin:round; stroke-width:2; stroke-opacity:0.1; fill:none" points="2241.38,1423.18 2241.38,123.472 "/>
<polyline clip-path="url(#clip671)" style="stroke:#000000; stroke-linecap:round; stroke-linejoin:round; stroke-width:2; stroke-opacity:0.1; fill:none" points="182.251,1360.31 2352.76,1360.31 "/>
<polyline clip-path="url(#clip671)" style="stroke:#000000; stroke-linecap:round; stroke-linejoin:round; stroke-width:2; stroke-opacity:0.1; fill:none" points="182.251,1295.09 2352.76,1295.09 "/>
<polyline clip-path="url(#clip671)" style="stroke:#000000; stroke-linecap:round; stroke-linejoin:round; stroke-width:2; stroke-opacity:0.1; fill:none" points="182.251,1229.87 2352.76,1229.87 "/>
<polyline clip-path="url(#clip671)" style="stroke:#000000; stroke-linecap:round; stroke-linejoin:round; stroke-width:2; stroke-opacity:0.1; fill:none" points="182.251,1164.65 2352.76,1164.65 "/>
<polyline clip-path="url(#clip671)" style="stroke:#000000; stroke-linecap:round; stroke-linejoin:round; stroke-width:2; stroke-opacity:0.1; fill:none" points="182.251,1099.43 2352.76,1099.43 "/>
<polyline clip-path="url(#clip671)" style="stroke:#000000; stroke-linecap:round; stroke-linejoin:round; stroke-width:2; stroke-opacity:0.1; fill:none" points="182.251,1034.21 2352.76,1034.21 "/>
<polyline clip-path="url(#clip671)" style="stroke:#000000; stroke-linecap:round; stroke-linejoin:round; stroke-width:2; stroke-opacity:0.1; fill:none" points="182.251,968.987 2352.76,968.987 "/>
<polyline clip-path="url(#clip671)" style="stroke:#000000; stroke-linecap:round; stroke-linejoin:round; stroke-width:2; stroke-opacity:0.1; fill:none" points="182.251,903.766 2352.76,903.766 "/>
<polyline clip-path="url(#clip671)" style="stroke:#000000; stroke-linecap:round; stroke-linejoin:round; stroke-width:2; stroke-opacity:0.1; fill:none" points="182.251,838.546 2352.76,838.546 "/>
<polyline clip-path="url(#clip671)" style="stroke:#000000; stroke-linecap:round; stroke-linejoin:round; stroke-width:2; stroke-opacity:0.1; fill:none" points="182.251,773.326 2352.76,773.326 "/>
<polyline clip-path="url(#clip671)" style="stroke:#000000; stroke-linecap:round; stroke-linejoin:round; stroke-width:2; stroke-opacity:0.1; fill:none" points="182.251,708.106 2352.76,708.106 "/>
<polyline clip-path="url(#clip671)" style="stroke:#000000; stroke-linecap:round; stroke-linejoin:round; stroke-width:2; stroke-opacity:0.1; fill:none" points="182.251,642.886 2352.76,642.886 "/>
<polyline clip-path="url(#clip671)" style="stroke:#000000; stroke-linecap:round; stroke-linejoin:round; stroke-width:2; stroke-opacity:0.1; fill:none" points="182.251,577.665 2352.76,577.665 "/>
<polyline clip-path="url(#clip671)" style="stroke:#000000; stroke-linecap:round; stroke-linejoin:round; stroke-width:2; stroke-opacity:0.1; fill:none" points="182.251,512.445 2352.76,512.445 "/>
<polyline clip-path="url(#clip671)" style="stroke:#000000; stroke-linecap:round; stroke-linejoin:round; stroke-width:2; stroke-opacity:0.1; fill:none" points="182.251,447.225 2352.76,447.225 "/>
<polyline clip-path="url(#clip671)" style="stroke:#000000; stroke-linecap:round; stroke-linejoin:round; stroke-width:2; stroke-opacity:0.1; fill:none" points="182.251,382.005 2352.76,382.005 "/>
<polyline clip-path="url(#clip671)" style="stroke:#000000; stroke-linecap:round; stroke-linejoin:round; stroke-width:2; stroke-opacity:0.1; fill:none" points="182.251,316.785 2352.76,316.785 "/>
<polyline clip-path="url(#clip671)" style="stroke:#000000; stroke-linecap:round; stroke-linejoin:round; stroke-width:2; stroke-opacity:0.1; fill:none" points="182.251,251.565 2352.76,251.565 "/>
<polyline clip-path="url(#clip671)" style="stroke:#000000; stroke-linecap:round; stroke-linejoin:round; stroke-width:2; stroke-opacity:0.1; fill:none" points="182.251,186.344 2352.76,186.344 "/>
<polyline clip-path="url(#clip670)" style="stroke:#000000; stroke-linecap:round; stroke-linejoin:round; stroke-width:4; stroke-opacity:1; fill:none" points="182.251,1423.18 2352.76,1423.18 "/>
<polyline clip-path="url(#clip670)" style="stroke:#000000; stroke-linecap:round; stroke-linejoin:round; stroke-width:4; stroke-opacity:1; fill:none" points="243.68,1423.18 243.68,1404.28 "/>
<polyline clip-path="url(#clip670)" style="stroke:#000000; stroke-linecap:round; stroke-linejoin:round; stroke-width:4; stroke-opacity:1; fill:none" points="743.106,1423.18 743.106,1404.28 "/>
<polyline clip-path="url(#clip670)" style="stroke:#000000; stroke-linecap:round; stroke-linejoin:round; stroke-width:4; stroke-opacity:1; fill:none" points="1242.53,1423.18 1242.53,1404.28 "/>
<polyline clip-path="url(#clip670)" style="stroke:#000000; stroke-linecap:round; stroke-linejoin:round; stroke-width:4; stroke-opacity:1; fill:none" points="1741.96,1423.18 1741.96,1404.28 "/>
<polyline clip-path="url(#clip670)" style="stroke:#000000; stroke-linecap:round; stroke-linejoin:round; stroke-width:4; stroke-opacity:1; fill:none" points="2241.38,1423.18 2241.38,1404.28 "/>
<path clip-path="url(#clip670)" d="M243.68 1454.1 Q240.069 1454.1 238.24 1457.66 Q236.435 1461.2 236.435 1468.33 Q236.435 1475.44 238.24 1479.01 Q240.069 1482.55 243.68 1482.55 Q247.314 1482.55 249.12 1479.01 Q250.949 1475.44 250.949 1468.33 Q250.949 1461.2 249.12 1457.66 Q247.314 1454.1 243.68 1454.1 M243.68 1450.39 Q249.49 1450.39 252.546 1455 Q255.624 1459.58 255.624 1468.33 Q255.624 1477.06 252.546 1481.67 Q249.49 1486.25 243.68 1486.25 Q237.87 1486.25 234.791 1481.67 Q231.736 1477.06 231.736 1468.33 Q231.736 1459.58 234.791 1455 Q237.87 1450.39 243.68 1450.39 Z" fill="#000000" fill-rule="nonzero" fill-opacity="1" /><path clip-path="url(#clip670)" d="M721.879 1481.64 L738.199 1481.64 L738.199 1485.58 L716.254 1485.58 L716.254 1481.64 Q718.916 1478.89 723.5 1474.26 Q728.106 1469.61 729.287 1468.27 Q731.532 1465.74 732.412 1464.01 Q733.314 1462.25 733.314 1460.56 Q733.314 1457.8 731.37 1456.07 Q729.449 1454.33 726.347 1454.33 Q724.148 1454.33 721.694 1455.09 Q719.264 1455.86 716.486 1457.41 L716.486 1452.69 Q719.31 1451.55 721.764 1450.97 Q724.217 1450.39 726.254 1450.39 Q731.625 1450.39 734.819 1453.08 Q738.014 1455.77 738.014 1460.26 Q738.014 1462.39 737.203 1464.31 Q736.416 1466.2 734.31 1468.8 Q733.731 1469.47 730.629 1472.69 Q727.527 1475.88 721.879 1481.64 Z" fill="#000000" fill-rule="nonzero" fill-opacity="1" /><path clip-path="url(#clip670)" d="M758.013 1454.1 Q754.402 1454.1 752.574 1457.66 Q750.768 1461.2 750.768 1468.33 Q750.768 1475.44 752.574 1479.01 Q754.402 1482.55 758.013 1482.55 Q761.648 1482.55 763.453 1479.01 Q765.282 1475.44 765.282 1468.33 Q765.282 1461.2 763.453 1457.66 Q761.648 1454.1 758.013 1454.1 M758.013 1450.39 Q763.824 1450.39 766.879 1455 Q769.958 1459.58 769.958 1468.33 Q769.958 1477.06 766.879 1481.67 Q763.824 1486.25 758.013 1486.25 Q752.203 1486.25 749.125 1481.67 Q746.069 1477.06 746.069 1468.33 Q746.069 1459.58 749.125 1455 Q752.203 1450.39 758.013 1450.39 Z" fill="#000000" fill-rule="nonzero" fill-opacity="1" /><path clip-path="url(#clip670)" d="M1230.7 1455.09 L1218.9 1473.54 L1230.7 1473.54 L1230.7 1455.09 M1229.48 1451.02 L1235.36 1451.02 L1235.36 1473.54 L1240.29 1473.54 L1240.29 1477.43 L1235.36 1477.43 L1235.36 1485.58 L1230.7 1485.58 L1230.7 1477.43 L1215.1 1477.43 L1215.1 1472.92 L1229.48 1451.02 Z" fill="#000000" fill-rule="nonzero" fill-opacity="1" /><path clip-path="url(#clip670)" d="M1258.02 1454.1 Q1254.41 1454.1 1252.58 1457.66 Q1250.77 1461.2 1250.77 1468.33 Q1250.77 1475.44 1252.58 1479.01 Q1254.41 1482.55 1258.02 1482.55 Q1261.65 1482.55 1263.46 1479.01 Q1265.29 1475.44 1265.29 1468.33 Q1265.29 1461.2 1263.46 1457.66 Q1261.65 1454.1 1258.02 1454.1 M1258.02 1450.39 Q1263.83 1450.39 1266.88 1455 Q1269.96 1459.58 1269.96 1468.33 Q1269.96 1477.06 1266.88 1481.67 Q1263.83 1486.25 1258.02 1486.25 Q1252.21 1486.25 1249.13 1481.67 Q1246.07 1477.06 1246.07 1468.33 Q1246.07 1459.58 1249.13 1455 Q1252.21 1450.39 1258.02 1450.39 Z" fill="#000000" fill-rule="nonzero" fill-opacity="1" /><path clip-path="url(#clip670)" d="M1727.36 1466.44 Q1724.22 1466.44 1722.36 1468.59 Q1720.53 1470.74 1720.53 1474.49 Q1720.53 1478.22 1722.36 1480.39 Q1724.22 1482.55 1727.36 1482.55 Q1730.51 1482.55 1732.34 1480.39 Q1734.19 1478.22 1734.19 1474.49 Q1734.19 1470.74 1732.34 1468.59 Q1730.51 1466.44 1727.36 1466.44 M1736.65 1451.78 L1736.65 1456.04 Q1734.89 1455.21 1733.08 1454.77 Q1731.3 1454.33 1729.54 1454.33 Q1724.91 1454.33 1722.46 1457.45 Q1720.03 1460.58 1719.68 1466.9 Q1721.04 1464.89 1723.1 1463.82 Q1725.16 1462.73 1727.64 1462.73 Q1732.85 1462.73 1735.86 1465.9 Q1738.89 1469.05 1738.89 1474.49 Q1738.89 1479.82 1735.74 1483.03 Q1732.59 1486.25 1727.36 1486.25 Q1721.37 1486.25 1718.2 1481.67 Q1715.03 1477.06 1715.03 1468.33 Q1715.03 1460.14 1718.91 1455.28 Q1722.8 1450.39 1729.35 1450.39 Q1731.11 1450.39 1732.9 1450.74 Q1734.7 1451.09 1736.65 1451.78 Z" fill="#000000" fill-rule="nonzero" fill-opacity="1" /><path clip-path="url(#clip670)" d="M1756.95 1454.1 Q1753.34 1454.1 1751.51 1457.66 Q1749.7 1461.2 1749.7 1468.33 Q1749.7 1475.44 1751.51 1479.01 Q1753.34 1482.55 1756.95 1482.55 Q1760.58 1482.55 1762.39 1479.01 Q1764.21 1475.44 1764.21 1468.33 Q1764.21 1461.2 1762.39 1457.66 Q1760.58 1454.1 1756.95 1454.1 M1756.95 1450.39 Q1762.76 1450.39 1765.81 1455 Q1768.89 1459.58 1768.89 1468.33 Q1768.89 1477.06 1765.81 1481.67 Q1762.76 1486.25 1756.95 1486.25 Q1751.14 1486.25 1748.06 1481.67 Q1745 1477.06 1745 1468.33 Q1745 1459.58 1748.06 1455 Q1751.14 1450.39 1756.95 1450.39 Z" fill="#000000" fill-rule="nonzero" fill-opacity="1" /><path clip-path="url(#clip670)" d="M2226.26 1469.17 Q2222.92 1469.17 2221 1470.95 Q2219.1 1472.73 2219.1 1475.86 Q2219.1 1478.98 2221 1480.77 Q2222.92 1482.55 2226.26 1482.55 Q2229.59 1482.55 2231.51 1480.77 Q2233.43 1478.96 2233.43 1475.86 Q2233.43 1472.73 2231.51 1470.95 Q2229.61 1469.17 2226.26 1469.17 M2221.58 1467.18 Q2218.57 1466.44 2216.88 1464.38 Q2215.22 1462.32 2215.22 1459.35 Q2215.22 1455.21 2218.15 1452.8 Q2221.12 1450.39 2226.26 1450.39 Q2231.42 1450.39 2234.36 1452.8 Q2237.3 1455.21 2237.3 1459.35 Q2237.3 1462.32 2235.61 1464.38 Q2233.94 1466.44 2230.96 1467.18 Q2234.34 1467.96 2236.21 1470.26 Q2238.11 1472.55 2238.11 1475.86 Q2238.11 1480.88 2235.03 1483.57 Q2231.97 1486.25 2226.26 1486.25 Q2220.54 1486.25 2217.46 1483.57 Q2214.4 1480.88 2214.4 1475.86 Q2214.4 1472.55 2216.3 1470.26 Q2218.2 1467.96 2221.58 1467.18 M2219.87 1459.79 Q2219.87 1462.48 2221.53 1463.98 Q2223.22 1465.49 2226.26 1465.49 Q2229.27 1465.49 2230.96 1463.98 Q2232.67 1462.48 2232.67 1459.79 Q2232.67 1457.11 2230.96 1455.6 Q2229.27 1454.1 2226.26 1454.1 Q2223.22 1454.1 2221.53 1455.6 Q2219.87 1457.11 2219.87 1459.79 Z" fill="#000000" fill-rule="nonzero" fill-opacity="1" /><path clip-path="url(#clip670)" d="M2256.42 1454.1 Q2252.81 1454.1 2250.98 1457.66 Q2249.17 1461.2 2249.17 1468.33 Q2249.17 1475.44 2250.98 1479.01 Q2252.81 1482.55 2256.42 1482.55 Q2260.05 1482.55 2261.86 1479.01 Q2263.69 1475.44 2263.69 1468.33 Q2263.69 1461.2 2261.86 1457.66 Q2260.05 1454.1 2256.42 1454.1 M2256.42 1450.39 Q2262.23 1450.39 2265.28 1455 Q2268.36 1459.58 2268.36 1468.33 Q2268.36 1477.06 2265.28 1481.67 Q2262.23 1486.25 2256.42 1486.25 Q2250.61 1486.25 2247.53 1481.67 Q2244.47 1477.06 2244.47 1468.33 Q2244.47 1459.58 2247.53 1455 Q2250.61 1450.39 2256.42 1450.39 Z" fill="#000000" fill-rule="nonzero" fill-opacity="1" /><path clip-path="url(#clip670)" d="M1189.38 1520.52 L1229.58 1520.52 L1229.58 1525.93 L1212.71 1525.93 L1212.71 1568.04 L1206.25 1568.04 L1206.25 1525.93 L1189.38 1525.93 L1189.38 1520.52 Z" fill="#000000" fill-rule="nonzero" fill-opacity="1" /><path clip-path="url(#clip670)" d="M1233.53 1532.4 L1239.38 1532.4 L1239.38 1568.04 L1233.53 1568.04 L1233.53 1532.4 M1233.53 1518.52 L1239.38 1518.52 L1239.38 1525.93 L1233.53 1525.93 L1233.53 1518.52 Z" fill="#000000" fill-rule="nonzero" fill-opacity="1" /><path clip-path="url(#clip670)" d="M1279.39 1539.24 Q1281.59 1535.29 1284.64 1533.41 Q1287.7 1531.54 1291.84 1531.54 Q1297.41 1531.54 1300.43 1535.45 Q1303.45 1539.33 1303.45 1546.53 L1303.45 1568.04 L1297.57 1568.04 L1297.57 1546.72 Q1297.57 1541.59 1295.75 1539.11 Q1293.94 1536.63 1290.21 1536.63 Q1285.66 1536.63 1283.02 1539.65 Q1280.38 1542.68 1280.38 1547.9 L1280.38 1568.04 L1274.49 1568.04 L1274.49 1546.72 Q1274.49 1541.56 1272.68 1539.11 Q1270.86 1536.63 1267.07 1536.63 Q1262.59 1536.63 1259.94 1539.68 Q1257.3 1542.71 1257.3 1547.9 L1257.3 1568.04 L1251.41 1568.04 L1251.41 1532.4 L1257.3 1532.4 L1257.3 1537.93 Q1259.31 1534.66 1262.11 1533.1 Q1264.91 1531.54 1268.76 1531.54 Q1272.64 1531.54 1275.35 1533.51 Q1278.09 1535.48 1279.39 1539.24 Z" fill="#000000" fill-rule="nonzero" fill-opacity="1" /><path clip-path="url(#clip670)" d="M1345.63 1548.76 L1345.63 1551.62 L1318.7 1551.62 Q1319.08 1557.67 1322.33 1560.85 Q1325.61 1564 1331.43 1564 Q1334.8 1564 1337.96 1563.17 Q1341.14 1562.35 1344.26 1560.69 L1344.26 1566.23 Q1341.11 1567.57 1337.8 1568.27 Q1334.49 1568.97 1331.08 1568.97 Q1322.55 1568.97 1317.55 1564 Q1312.59 1559.04 1312.59 1550.57 Q1312.59 1541.82 1317.3 1536.69 Q1322.04 1531.54 1330.06 1531.54 Q1337.26 1531.54 1341.43 1536.18 Q1345.63 1540.8 1345.63 1548.76 M1339.77 1547.04 Q1339.71 1542.23 1337.06 1539.37 Q1334.45 1536.5 1330.13 1536.5 Q1325.22 1536.5 1322.26 1539.27 Q1319.34 1542.04 1318.89 1547.07 L1339.77 1547.04 Z" fill="#000000" fill-rule="nonzero" fill-opacity="1" /><polyline clip-path="url(#clip670)" style="stroke:#000000; stroke-linecap:round; stroke-linejoin:round; stroke-width:4; stroke-opacity:1; fill:none" points="182.251,1423.18 182.251,123.472 "/>
<polyline clip-path="url(#clip670)" style="stroke:#000000; stroke-linecap:round; stroke-linejoin:round; stroke-width:4; stroke-opacity:1; fill:none" points="182.251,1360.31 201.148,1360.31 "/>
<polyline clip-path="url(#clip670)" style="stroke:#000000; stroke-linecap:round; stroke-linejoin:round; stroke-width:4; stroke-opacity:1; fill:none" points="182.251,1295.09 201.148,1295.09 "/>
<polyline clip-path="url(#clip670)" style="stroke:#000000; stroke-linecap:round; stroke-linejoin:round; stroke-width:4; stroke-opacity:1; fill:none" points="182.251,1229.87 201.148,1229.87 "/>
<polyline clip-path="url(#clip670)" style="stroke:#000000; stroke-linecap:round; stroke-linejoin:round; stroke-width:4; stroke-opacity:1; fill:none" points="182.251,1164.65 201.148,1164.65 "/>
<polyline clip-path="url(#clip670)" style="stroke:#000000; stroke-linecap:round; stroke-linejoin:round; stroke-width:4; stroke-opacity:1; fill:none" points="182.251,1099.43 201.148,1099.43 "/>
<polyline clip-path="url(#clip670)" style="stroke:#000000; stroke-linecap:round; stroke-linejoin:round; stroke-width:4; stroke-opacity:1; fill:none" points="182.251,1034.21 201.148,1034.21 "/>
<polyline clip-path="url(#clip670)" style="stroke:#000000; stroke-linecap:round; stroke-linejoin:round; stroke-width:4; stroke-opacity:1; fill:none" points="182.251,968.987 201.148,968.987 "/>
<polyline clip-path="url(#clip670)" style="stroke:#000000; stroke-linecap:round; stroke-linejoin:round; stroke-width:4; stroke-opacity:1; fill:none" points="182.251,903.766 201.148,903.766 "/>
<polyline clip-path="url(#clip670)" style="stroke:#000000; stroke-linecap:round; stroke-linejoin:round; stroke-width:4; stroke-opacity:1; fill:none" points="182.251,838.546 201.148,838.546 "/>
<polyline clip-path="url(#clip670)" style="stroke:#000000; stroke-linecap:round; stroke-linejoin:round; stroke-width:4; stroke-opacity:1; fill:none" points="182.251,773.326 201.148,773.326 "/>
<polyline clip-path="url(#clip670)" style="stroke:#000000; stroke-linecap:round; stroke-linejoin:round; stroke-width:4; stroke-opacity:1; fill:none" points="182.251,708.106 201.148,708.106 "/>
<polyline clip-path="url(#clip670)" style="stroke:#000000; stroke-linecap:round; stroke-linejoin:round; stroke-width:4; stroke-opacity:1; fill:none" points="182.251,642.886 201.148,642.886 "/>
<polyline clip-path="url(#clip670)" style="stroke:#000000; stroke-linecap:round; stroke-linejoin:round; stroke-width:4; stroke-opacity:1; fill:none" points="182.251,577.665 201.148,577.665 "/>
<polyline clip-path="url(#clip670)" style="stroke:#000000; stroke-linecap:round; stroke-linejoin:round; stroke-width:4; stroke-opacity:1; fill:none" points="182.251,512.445 201.148,512.445 "/>
<polyline clip-path="url(#clip670)" style="stroke:#000000; stroke-linecap:round; stroke-linejoin:round; stroke-width:4; stroke-opacity:1; fill:none" points="182.251,447.225 201.148,447.225 "/>
<polyline clip-path="url(#clip670)" style="stroke:#000000; stroke-linecap:round; stroke-linejoin:round; stroke-width:4; stroke-opacity:1; fill:none" points="182.251,382.005 201.148,382.005 "/>
<polyline clip-path="url(#clip670)" style="stroke:#000000; stroke-linecap:round; stroke-linejoin:round; stroke-width:4; stroke-opacity:1; fill:none" points="182.251,316.785 201.148,316.785 "/>
<polyline clip-path="url(#clip670)" style="stroke:#000000; stroke-linecap:round; stroke-linejoin:round; stroke-width:4; stroke-opacity:1; fill:none" points="182.251,251.565 201.148,251.565 "/>
<polyline clip-path="url(#clip670)" style="stroke:#000000; stroke-linecap:round; stroke-linejoin:round; stroke-width:4; stroke-opacity:1; fill:none" points="182.251,186.344 201.148,186.344 "/>
<path clip-path="url(#clip670)" d="M130.417 1347.63 L124.075 1364.83 L136.783 1364.83 L130.417 1347.63 M127.779 1343.03 L133.08 1343.03 L146.251 1377.59 L141.39 1377.59 L138.242 1368.72 L122.663 1368.72 L119.515 1377.59 L114.584 1377.59 L127.779 1343.03 Z" fill="#000000" fill-rule="nonzero" fill-opacity="1" /><path clip-path="url(#clip670)" d="M126.413 1295.86 L126.413 1308.52 L133.913 1308.52 Q137.686 1308.52 139.492 1306.97 Q141.32 1305.4 141.32 1302.18 Q141.32 1298.94 139.492 1297.41 Q137.686 1295.86 133.913 1295.86 L126.413 1295.86 M126.413 1281.65 L126.413 1292.07 L133.334 1292.07 Q136.76 1292.07 138.427 1290.79 Q140.117 1289.5 140.117 1286.86 Q140.117 1284.24 138.427 1282.95 Q136.76 1281.65 133.334 1281.65 L126.413 1281.65 M121.737 1277.81 L133.681 1277.81 Q139.029 1277.81 141.922 1280.03 Q144.816 1282.25 144.816 1286.35 Q144.816 1289.52 143.334 1291.4 Q141.853 1293.27 138.982 1293.73 Q142.431 1294.47 144.329 1296.84 Q146.251 1299.17 146.251 1302.69 Q146.251 1307.32 143.103 1309.84 Q139.954 1312.37 134.144 1312.37 L121.737 1312.37 L121.737 1277.81 Z" fill="#000000" fill-rule="nonzero" fill-opacity="1" /><path clip-path="url(#clip670)" d="M146.251 1215.25 L146.251 1220.18 Q143.89 1217.98 141.204 1216.89 Q138.542 1215.8 135.533 1215.8 Q129.607 1215.8 126.459 1219.44 Q123.311 1223.05 123.311 1229.9 Q123.311 1236.73 126.459 1240.36 Q129.607 1243.98 135.533 1243.98 Q138.542 1243.98 141.204 1242.89 Q143.89 1241.8 146.251 1239.6 L146.251 1244.49 Q143.797 1246.15 141.042 1246.99 Q138.311 1247.82 135.255 1247.82 Q127.408 1247.82 122.894 1243.03 Q118.381 1238.21 118.381 1229.9 Q118.381 1221.57 122.894 1216.78 Q127.408 1211.96 135.255 1211.96 Q138.357 1211.96 141.089 1212.8 Q143.843 1213.61 146.251 1215.25 Z" fill="#000000" fill-rule="nonzero" fill-opacity="1" /><path clip-path="url(#clip670)" d="M121.876 1151.21 L121.876 1178.08 L127.524 1178.08 Q134.677 1178.08 137.987 1174.84 Q141.32 1171.6 141.32 1164.61 Q141.32 1157.67 137.987 1154.45 Q134.677 1151.21 127.524 1151.21 L121.876 1151.21 M117.2 1147.37 L126.806 1147.37 Q136.853 1147.37 141.552 1151.56 Q146.251 1155.72 146.251 1164.61 Q146.251 1173.55 141.529 1177.74 Q136.806 1181.93 126.806 1181.93 L117.2 1181.93 L117.2 1147.37 Z" fill="#000000" fill-rule="nonzero" fill-opacity="1" /><path clip-path="url(#clip670)" d="M123.982 1082.15 L145.834 1082.15 L145.834 1086.08 L128.658 1086.08 L128.658 1096.31 L145.116 1096.31 L145.116 1100.25 L128.658 1100.25 L128.658 1112.77 L146.251 1112.77 L146.251 1116.71 L123.982 1116.71 L123.982 1082.15 Z" fill="#000000" fill-rule="nonzero" fill-opacity="1" /><path clip-path="url(#clip670)" d="M126.39 1016.93 L146.251 1016.93 L146.251 1020.86 L131.066 1020.86 L131.066 1031.05 L144.769 1031.05 L144.769 1034.98 L131.066 1034.98 L131.066 1051.49 L126.39 1051.49 L126.39 1016.93 Z" fill="#000000" fill-rule="nonzero" fill-opacity="1" /><path clip-path="url(#clip670)" d="M141.621 981.336 L141.621 972.054 L133.982 972.054 L133.982 968.211 L146.251 968.211 L146.251 983.049 Q143.542 984.97 140.279 985.966 Q137.015 986.938 133.311 986.938 Q125.209 986.938 120.626 982.216 Q116.066 977.47 116.066 969.021 Q116.066 960.549 120.626 955.827 Q125.209 951.082 133.311 951.082 Q136.691 951.082 139.723 951.915 Q142.779 952.748 145.348 954.369 L145.348 959.345 Q142.755 957.146 139.839 956.035 Q136.922 954.924 133.704 954.924 Q127.362 954.924 124.168 958.466 Q120.996 962.007 120.996 969.021 Q120.996 976.012 124.168 979.554 Q127.362 983.095 133.704 983.095 Q136.181 983.095 138.126 982.679 Q140.07 982.239 141.621 981.336 Z" fill="#000000" fill-rule="nonzero" fill-opacity="1" /><path clip-path="url(#clip670)" d="M119.908 886.486 L124.584 886.486 L124.584 900.653 L141.575 900.653 L141.575 886.486 L146.251 886.486 L146.251 921.046 L141.575 921.046 L141.575 904.588 L124.584 904.588 L124.584 921.046 L119.908 921.046 L119.908 886.486 Z" fill="#000000" fill-rule="nonzero" fill-opacity="1" /><path clip-path="url(#clip670)" d="M141.575 821.266 L146.251 821.266 L146.251 855.826 L141.575 855.826 L141.575 821.266 Z" fill="#000000" fill-rule="nonzero" fill-opacity="1" /><path clip-path="url(#clip670)" d="M141.575 756.046 L146.251 756.046 L146.251 788.199 Q146.251 794.449 143.866 797.273 Q141.505 800.097 136.251 800.097 L134.468 800.097 L134.468 796.162 L135.927 796.162 Q139.029 796.162 140.302 794.425 Q141.575 792.689 141.575 788.199 L141.575 756.046 Z" fill="#000000" fill-rule="nonzero" fill-opacity="1" /><path clip-path="url(#clip670)" d="M118.82 690.826 L123.496 690.826 L123.496 705.432 L139.005 690.826 L145.024 690.826 L127.871 706.937 L146.251 725.386 L140.093 725.386 L123.496 708.742 L123.496 725.386 L118.82 725.386 L118.82 690.826 Z" fill="#000000" fill-rule="nonzero" fill-opacity="1" /><path clip-path="url(#clip670)" d="M124.746 625.606 L129.422 625.606 L129.422 656.23 L146.251 656.23 L146.251 660.166 L124.746 660.166 L124.746 625.606 Z" fill="#000000" fill-rule="nonzero" fill-opacity="1" /><path clip-path="url(#clip670)" d="M114.631 560.385 L121.598 560.385 L130.417 583.904 L139.283 560.385 L146.251 560.385 L146.251 594.945 L141.691 594.945 L141.691 564.598 L132.779 588.302 L128.08 588.302 L119.168 564.598 L119.168 594.945 L114.631 594.945 L114.631 560.385 Z" fill="#000000" fill-rule="nonzero" fill-opacity="1" /><path clip-path="url(#clip670)" d="M120.093 495.165 L126.39 495.165 L141.714 524.077 L141.714 495.165 L146.251 495.165 L146.251 529.725 L139.954 529.725 L124.63 500.813 L124.63 529.725 L120.093 529.725 L120.093 495.165 Z" fill="#000000" fill-rule="nonzero" fill-opacity="1" /><path clip-path="url(#clip670)" d="M130.279 433.116 Q125.186 433.116 122.177 436.913 Q119.191 440.709 119.191 447.26 Q119.191 453.788 122.177 457.584 Q125.186 461.38 130.279 461.38 Q135.371 461.38 138.334 457.584 Q141.32 453.788 141.32 447.26 Q141.32 440.709 138.334 436.913 Q135.371 433.116 130.279 433.116 M130.279 429.32 Q137.547 429.32 141.899 434.204 Q146.251 439.065 146.251 447.26 Q146.251 455.431 141.899 460.315 Q137.547 465.176 130.279 465.176 Q122.987 465.176 118.612 460.315 Q114.26 455.454 114.26 447.26 Q114.26 439.065 118.612 434.204 Q122.987 429.32 130.279 429.32 Z" fill="#000000" fill-rule="nonzero" fill-opacity="1" /><path clip-path="url(#clip670)" d="M128.612 368.567 L128.612 381.554 L134.492 381.554 Q137.755 381.554 139.538 379.864 Q141.32 378.174 141.32 375.049 Q141.32 371.947 139.538 370.257 Q137.755 368.567 134.492 368.567 L128.612 368.567 M123.936 364.725 L134.492 364.725 Q140.302 364.725 143.265 367.364 Q146.251 369.98 146.251 375.049 Q146.251 380.165 143.265 382.78 Q140.302 385.396 134.492 385.396 L128.612 385.396 L128.612 399.285 L123.936 399.285 L123.936 364.725 Z" fill="#000000" fill-rule="nonzero" fill-opacity="1" /><path clip-path="url(#clip670)" d="M130.279 302.676 Q125.186 302.676 122.177 306.472 Q119.191 310.269 119.191 316.819 Q119.191 323.347 122.177 327.143 Q125.186 330.94 130.279 330.94 Q135.371 330.94 138.334 327.143 Q141.32 323.347 141.32 316.819 Q141.32 310.269 138.334 306.472 Q135.371 302.676 130.279 302.676 M136.829 333.44 L142.987 340.176 L137.339 340.176 L132.223 334.643 Q131.459 334.69 131.042 334.713 Q130.649 334.736 130.279 334.736 Q122.987 334.736 118.612 329.875 Q114.26 324.991 114.26 316.819 Q114.26 308.625 118.612 303.764 Q122.987 298.88 130.279 298.88 Q137.547 298.88 141.899 303.764 Q146.251 308.625 146.251 316.819 Q146.251 322.838 143.82 327.12 Q141.413 331.403 136.829 333.44 Z" fill="#000000" fill-rule="nonzero" fill-opacity="1" /><path clip-path="url(#clip670)" d="M135.718 252.641 Q137.223 253.15 138.635 254.817 Q140.07 256.484 141.505 259.4 L146.251 268.845 L141.228 268.845 L136.806 259.979 Q135.093 256.507 133.473 255.372 Q131.876 254.238 129.098 254.238 L124.005 254.238 L124.005 268.845 L119.33 268.845 L119.33 234.285 L129.885 234.285 Q135.811 234.285 138.728 236.761 Q141.644 239.238 141.644 244.238 Q141.644 247.502 140.117 249.655 Q138.612 251.808 135.718 252.641 M124.005 238.127 L124.005 250.396 L129.885 250.396 Q133.265 250.396 134.978 248.845 Q136.714 247.271 136.714 244.238 Q136.714 241.206 134.978 239.678 Q133.265 238.127 129.885 238.127 L124.005 238.127 Z" fill="#000000" fill-rule="nonzero" fill-opacity="1" /><path clip-path="url(#clip670)" d="M144.167 170.199 L144.167 174.759 Q141.505 173.486 139.144 172.861 Q136.783 172.236 134.584 172.236 Q130.765 172.236 128.681 173.717 Q126.621 175.199 126.621 177.93 Q126.621 180.222 127.987 181.402 Q129.376 182.56 133.218 183.277 L136.042 183.856 Q141.274 184.851 143.751 187.374 Q146.251 189.874 146.251 194.087 Q146.251 199.111 142.871 201.703 Q139.515 204.296 133.01 204.296 Q130.556 204.296 127.779 203.74 Q125.024 203.185 122.061 202.097 L122.061 197.282 Q124.908 198.879 127.64 199.689 Q130.371 200.499 133.01 200.499 Q137.015 200.499 139.191 198.925 Q141.366 197.351 141.366 194.435 Q141.366 191.888 139.792 190.453 Q138.242 189.018 134.677 188.3 L131.83 187.745 Q126.598 186.703 124.26 184.481 Q121.922 182.259 121.922 178.3 Q121.922 173.717 125.14 171.078 Q128.38 168.439 134.052 168.439 Q136.482 168.439 139.005 168.879 Q141.529 169.319 144.167 170.199 Z" fill="#000000" fill-rule="nonzero" fill-opacity="1" /><path clip-path="url(#clip670)" d="M16.4842 843.667 L16.4842 803.468 L21.895 803.468 L21.895 820.337 L64.0042 820.337 L64.0042 826.798 L21.895 826.798 L21.895 843.667 L16.4842 843.667 Z" fill="#000000" fill-rule="nonzero" fill-opacity="1" /><path clip-path="url(#clip670)" d="M46.0847 792.105 Q46.0847 799.203 47.7079 801.94 Q49.3312 804.677 53.2461 804.677 Q56.3653 804.677 58.2114 802.64 Q60.0256 800.571 60.0256 797.038 Q60.0256 792.168 56.5881 789.24 Q53.1188 786.28 47.3897 786.28 L46.0847 786.28 L46.0847 792.105 M43.6657 780.424 L64.0042 780.424 L64.0042 786.28 L58.5933 786.28 Q61.8398 788.285 63.3994 791.277 Q64.9272 794.269 64.9272 798.598 Q64.9272 804.072 61.8716 807.319 Q58.7843 810.534 53.6281 810.534 Q47.6125 810.534 44.5569 806.523 Q41.5014 802.481 41.5014 794.492 L41.5014 786.28 L40.9285 786.28 Q36.8862 786.28 34.6901 788.954 Q32.4621 791.596 32.4621 796.402 Q32.4621 799.457 33.1941 802.354 Q33.9262 805.25 35.3903 807.924 L29.9795 807.924 Q28.7381 804.709 28.1334 801.685 Q27.4968 798.661 27.4968 795.797 Q27.4968 788.063 31.5072 784.243 Q35.5176 780.424 43.6657 780.424 Z" fill="#000000" fill-rule="nonzero" fill-opacity="1" /><path clip-path="url(#clip670)" d="M29.4065 745.635 L34.9447 745.635 Q33.6716 748.118 33.035 750.791 Q32.3984 753.465 32.3984 756.33 Q32.3984 760.69 33.7352 762.886 Q35.072 765.051 37.7456 765.051 Q39.7826 765.051 40.9603 763.491 Q42.1061 761.931 43.1565 757.221 L43.6021 755.216 Q44.9389 748.977 47.3897 746.367 Q49.8086 743.725 54.1691 743.725 Q59.1344 743.725 62.0308 747.672 Q64.9272 751.587 64.9272 758.462 Q64.9272 761.327 64.3543 764.446 Q63.8132 767.533 62.6992 770.971 L56.6518 770.971 Q58.3387 767.724 59.198 764.573 Q60.0256 761.422 60.0256 758.335 Q60.0256 754.197 58.6251 751.969 Q57.1929 749.741 54.6147 749.741 Q52.2276 749.741 50.9545 751.364 Q49.6813 752.956 48.5037 758.398 L48.0262 760.435 Q46.8804 765.878 44.5251 768.297 Q42.138 770.716 38.0002 770.716 Q32.9713 770.716 30.2341 767.151 Q27.4968 763.586 27.4968 757.03 Q27.4968 753.783 27.9743 750.919 Q28.4517 748.054 29.4065 745.635 Z" fill="#000000" fill-rule="nonzero" fill-opacity="1" /><path clip-path="url(#clip670)" d="M14.479 734.622 L14.479 728.734 L43.7294 728.734 L28.3562 711.26 L28.3562 703.781 L45.0344 722.687 L64.0042 702.985 L64.0042 710.624 L46.5939 728.734 L64.0042 728.734 L64.0042 734.622 L14.479 734.622 Z" fill="#000000" fill-rule="nonzero" fill-opacity="1" /><path clip-path="url(#clip670)" d="M464.979 35.9153 Q467.774 30.8922 471.663 28.5022 Q475.552 26.1121 480.818 26.1121 Q487.907 26.1121 491.755 31.0947 Q495.604 36.0368 495.604 45.1919 L495.604 72.576 L488.109 72.576 L488.109 45.4349 Q488.109 38.913 485.8 35.7533 Q483.491 32.5936 478.752 32.5936 Q472.959 32.5936 469.597 36.4419 Q466.234 40.2903 466.234 46.9338 L466.234 72.576 L458.74 72.576 L458.74 45.4349 Q458.74 38.8725 456.431 35.7533 Q454.122 32.5936 449.302 32.5936 Q443.59 32.5936 440.228 36.4824 Q436.865 40.3308 436.865 46.9338 L436.865 72.576 L429.371 72.576 L429.371 27.2059 L436.865 27.2059 L436.865 34.2544 Q439.417 30.082 442.982 28.0971 Q446.547 26.1121 451.449 26.1121 Q456.391 26.1121 459.834 28.6237 Q463.318 31.1352 464.979 35.9153 Z" fill="#000000" fill-rule="nonzero" fill-opacity="1" /><path clip-path="url(#clip670)" d="M531.089 49.7694 Q522.056 49.7694 518.572 51.8354 Q515.088 53.9013 515.088 58.8839 Q515.088 62.8538 517.681 65.2034 Q520.314 67.5124 524.811 67.5124 Q531.008 67.5124 534.735 63.1374 Q538.503 58.7219 538.503 51.4303 L538.503 49.7694 L531.089 49.7694 M545.956 46.6907 L545.956 72.576 L538.503 72.576 L538.503 65.6895 Q535.951 69.8214 532.143 71.8063 Q528.335 73.7508 522.826 73.7508 Q515.858 73.7508 511.726 69.8619 Q507.635 65.9325 507.635 59.3701 Q507.635 51.7138 512.739 47.825 Q517.883 43.9361 528.051 43.9361 L538.503 43.9361 L538.503 43.2069 Q538.503 38.0623 535.1 35.2672 Q531.738 32.4315 525.621 32.4315 Q521.732 32.4315 518.046 33.3632 Q514.359 34.295 510.956 36.1584 L510.956 29.2718 Q515.048 27.692 518.896 26.9223 Q522.745 26.1121 526.39 26.1121 Q536.234 26.1121 541.095 31.2163 Q545.956 36.3204 545.956 46.6907 Z" fill="#000000" fill-rule="nonzero" fill-opacity="1" /><path clip-path="url(#clip670)" d="M561.026 9.54393 L568.52 9.54393 L568.52 46.7717 L590.759 27.2059 L600.279 27.2059 L576.217 48.4326 L601.292 72.576 L591.569 72.576 L568.52 50.4176 L568.52 72.576 L561.026 72.576 L561.026 9.54393 Z" fill="#000000" fill-rule="nonzero" fill-opacity="1" /><path clip-path="url(#clip670)" d="M645.203 48.0275 L645.203 51.6733 L610.933 51.6733 Q611.419 59.3701 615.551 63.421 Q619.723 67.4314 627.136 67.4314 Q631.43 67.4314 635.441 66.3781 Q639.492 65.3249 643.462 63.2184 L643.462 70.267 Q639.451 71.9684 635.238 72.8596 Q631.025 73.7508 626.691 73.7508 Q615.834 73.7508 609.474 67.4314 Q603.155 61.1119 603.155 50.3365 Q603.155 39.1965 609.15 32.6746 Q615.186 26.1121 625.394 26.1121 Q634.55 26.1121 639.856 32.0264 Q645.203 37.9003 645.203 48.0275 M637.75 45.84 Q637.669 39.7232 634.306 36.0774 Q630.985 32.4315 625.476 32.4315 Q619.237 32.4315 615.47 35.9558 Q611.743 39.4801 611.176 45.8805 L637.75 45.84 Z" fill="#000000" fill-rule="nonzero" fill-opacity="1" /><path clip-path="url(#clip670)" d="M686.361 28.5427 L686.361 35.5912 Q683.201 33.9709 679.798 33.1607 Q676.395 32.3505 672.75 32.3505 Q667.2 32.3505 664.405 34.0519 Q661.65 35.7533 661.65 39.156 Q661.65 41.7486 663.635 43.2475 Q665.62 44.7058 671.615 46.0426 L674.167 46.6097 Q682.107 48.3111 685.429 51.4303 Q688.791 54.509 688.791 60.0587 Q688.791 66.3781 683.768 70.0644 Q678.785 73.7508 670.035 73.7508 Q666.39 73.7508 662.42 73.0216 Q658.49 72.3329 654.115 70.9151 L654.115 63.2184 Q658.247 65.3654 662.258 66.4591 Q666.268 67.5124 670.197 67.5124 Q675.464 67.5124 678.299 65.73 Q681.135 63.9071 681.135 60.6258 Q681.135 57.5877 679.069 55.9673 Q677.044 54.3469 670.116 52.8481 L667.524 52.2405 Q660.597 50.7821 657.518 47.7845 Q654.439 44.7463 654.439 39.4801 Q654.439 33.0797 658.976 29.5959 Q663.513 26.1121 671.858 26.1121 Q675.99 26.1121 679.636 26.7198 Q683.282 27.3274 686.361 28.5427 Z" fill="#000000" fill-rule="nonzero" fill-opacity="1" /><path clip-path="url(#clip670)" d="M707.871 65.7705 L707.871 89.8329 L700.377 89.8329 L700.377 27.2059 L707.871 27.2059 L707.871 34.0924 Q710.22 30.0415 713.785 28.0971 Q717.391 26.1121 722.373 26.1121 Q730.637 26.1121 735.782 32.6746 Q740.967 39.2371 740.967 49.9314 Q740.967 60.6258 735.782 67.1883 Q730.637 73.7508 722.373 73.7508 Q717.391 73.7508 713.785 71.8063 Q710.22 69.8214 707.871 65.7705 M733.23 49.9314 Q733.23 41.7081 729.827 37.0496 Q726.465 32.3505 720.55 32.3505 Q714.636 32.3505 711.233 37.0496 Q707.871 41.7081 707.871 49.9314 Q707.871 58.1548 711.233 62.8538 Q714.636 67.5124 720.55 67.5124 Q726.465 67.5124 729.827 62.8538 Q733.23 58.1548 733.23 49.9314 Z" fill="#000000" fill-rule="nonzero" fill-opacity="1" /><path clip-path="url(#clip670)" d="M773.941 49.7694 Q764.908 49.7694 761.424 51.8354 Q757.94 53.9013 757.94 58.8839 Q757.94 62.8538 760.533 65.2034 Q763.166 67.5124 767.662 67.5124 Q773.86 67.5124 777.587 63.1374 Q781.354 58.7219 781.354 51.4303 L781.354 49.7694 L773.941 49.7694 M788.808 46.6907 L788.808 72.576 L781.354 72.576 L781.354 65.6895 Q778.802 69.8214 774.994 71.8063 Q771.187 73.7508 765.677 73.7508 Q758.71 73.7508 754.578 69.8619 Q750.486 65.9325 750.486 59.3701 Q750.486 51.7138 755.591 47.825 Q760.735 43.9361 770.903 43.9361 L781.354 43.9361 L781.354 43.2069 Q781.354 38.0623 777.952 35.2672 Q774.589 32.4315 768.472 32.4315 Q764.584 32.4315 760.897 33.3632 Q757.211 34.295 753.808 36.1584 L753.808 29.2718 Q757.9 27.692 761.748 26.9223 Q765.596 26.1121 769.242 26.1121 Q779.086 26.1121 783.947 31.2163 Q788.808 36.3204 788.808 46.6907 Z" fill="#000000" fill-rule="nonzero" fill-opacity="1" /><path clip-path="url(#clip670)" d="M841.875 45.1919 L841.875 72.576 L834.421 72.576 L834.421 45.4349 Q834.421 38.994 831.91 35.7938 Q829.398 32.5936 824.375 32.5936 Q818.339 32.5936 814.855 36.4419 Q811.372 40.2903 811.372 46.9338 L811.372 72.576 L803.877 72.576 L803.877 27.2059 L811.372 27.2059 L811.372 34.2544 Q814.045 30.163 817.65 28.1376 Q821.296 26.1121 826.036 26.1121 Q833.854 26.1121 837.864 30.9732 Q841.875 35.7938 841.875 45.1919 Z" fill="#000000" fill-rule="nonzero" fill-opacity="1" /><path clip-path="url(#clip670)" d="M884.085 34.9026 L936.018 34.9026 L936.018 41.7081 L884.085 41.7081 L884.085 34.9026 M884.085 51.4303 L936.018 51.4303 L936.018 58.3168 L884.085 58.3168 L884.085 51.4303 Z" fill="#000000" fill-rule="nonzero" fill-opacity="1" /><path clip-path="url(#clip670)" d="M997.551 43.8551 Q991.718 43.8551 988.356 46.9743 Q985.034 50.0935 985.034 55.5622 Q985.034 61.0309 988.356 64.1501 Q991.718 67.2693 997.551 67.2693 Q1003.38 67.2693 1006.75 64.1501 Q1010.11 60.9904 1010.11 55.5622 Q1010.11 50.0935 1006.75 46.9743 Q1003.42 43.8551 997.551 43.8551 M989.368 40.3713 Q984.102 39.075 981.145 35.4697 Q978.228 31.8644 978.228 26.6793 Q978.228 19.4281 983.373 15.2152 Q988.558 11.0023 997.551 11.0023 Q1006.58 11.0023 1011.73 15.2152 Q1016.87 19.4281 1016.87 26.6793 Q1016.87 31.8644 1013.92 35.4697 Q1011 39.075 1005.77 40.3713 Q1011.69 41.7486 1014.97 45.759 Q1018.29 49.7694 1018.29 55.5622 Q1018.29 64.3527 1012.9 69.0517 Q1007.56 73.7508 997.551 73.7508 Q987.545 73.7508 982.158 69.0517 Q976.81 64.3527 976.81 55.5622 Q976.81 49.7694 980.132 45.759 Q983.454 41.7486 989.368 40.3713 M986.371 27.4489 Q986.371 32.148 989.287 34.7811 Q992.244 37.4142 997.551 37.4142 Q1002.82 37.4142 1005.77 34.7811 Q1008.77 32.148 1008.77 27.4489 Q1008.77 22.7499 1005.77 20.1168 Q1002.82 17.4837 997.551 17.4837 Q992.244 17.4837 989.287 20.1168 Q986.371 22.7499 986.371 27.4489 Z" fill="#000000" fill-rule="nonzero" fill-opacity="1" /><path clip-path="url(#clip670)" d="M1039.88 65.6895 L1068.44 65.6895 L1068.44 72.576 L1030.04 72.576 L1030.04 65.6895 Q1034.7 60.8689 1042.72 52.7671 Q1050.78 44.6248 1052.85 42.2752 Q1056.78 37.8598 1058.31 34.8216 Q1059.89 31.7429 1059.89 28.7857 Q1059.89 23.9651 1056.49 20.927 Q1053.13 17.8888 1047.7 17.8888 Q1043.85 17.8888 1039.56 19.2256 Q1035.31 20.5624 1030.44 23.2765 L1030.44 15.0127 Q1035.39 13.0277 1039.68 12.015 Q1043.97 11.0023 1047.54 11.0023 Q1056.94 11.0023 1062.53 15.7013 Q1068.12 20.4004 1068.12 28.2591 Q1068.12 31.9859 1066.7 35.3482 Q1065.32 38.6699 1061.64 43.2069 Q1060.62 44.3817 1055.2 50.0125 Q1049.77 55.6027 1039.88 65.6895 Z" fill="#000000" fill-rule="nonzero" fill-opacity="1" /><path clip-path="url(#clip670)" d="M1086.47 62.2867 L1095.02 62.2867 L1095.02 69.2543 L1088.37 82.2172 L1083.15 82.2172 L1086.47 69.2543 L1086.47 62.2867 Z" fill="#000000" fill-rule="nonzero" fill-opacity="1" /><path clip-path="url(#clip670)" d="M1169.96 28.9478 L1169.96 35.9153 Q1166.8 34.1734 1163.6 33.3227 Q1160.44 32.4315 1157.2 32.4315 Q1149.95 32.4315 1145.94 37.0496 Q1141.93 41.6271 1141.93 49.9314 Q1141.93 58.2358 1145.94 62.8538 Q1149.95 67.4314 1157.2 67.4314 Q1160.44 67.4314 1163.6 66.5807 Q1166.8 65.6895 1169.96 63.9476 L1169.96 70.8341 Q1166.84 72.2924 1163.48 73.0216 Q1160.15 73.7508 1156.39 73.7508 Q1146.14 73.7508 1140.1 67.3098 Q1134.07 60.8689 1134.07 49.9314 Q1134.07 38.832 1140.14 32.472 Q1146.26 26.1121 1156.87 26.1121 Q1160.32 26.1121 1163.6 26.8413 Q1166.88 27.5299 1169.96 28.9478 Z" fill="#000000" fill-rule="nonzero" fill-opacity="1" /><path clip-path="url(#clip670)" d="M1200.5 32.4315 Q1194.51 32.4315 1191.02 37.1306 Q1187.54 41.7891 1187.54 49.9314 Q1187.54 58.0738 1190.98 62.7728 Q1194.47 67.4314 1200.5 67.4314 Q1206.46 67.4314 1209.94 62.7323 Q1213.42 58.0333 1213.42 49.9314 Q1213.42 41.8701 1209.94 37.1711 Q1206.46 32.4315 1200.5 32.4315 M1200.5 26.1121 Q1210.22 26.1121 1215.77 32.4315 Q1221.32 38.7509 1221.32 49.9314 Q1221.32 61.0714 1215.77 67.4314 Q1210.22 73.7508 1200.5 73.7508 Q1190.74 73.7508 1185.19 67.4314 Q1179.68 61.0714 1179.68 49.9314 Q1179.68 38.7509 1185.19 32.4315 Q1190.74 26.1121 1200.5 26.1121 Z" fill="#000000" fill-rule="nonzero" fill-opacity="1" /><path clip-path="url(#clip670)" d="M1262.6 28.5427 L1262.6 35.5912 Q1259.44 33.9709 1256.04 33.1607 Q1252.64 32.3505 1248.99 32.3505 Q1243.44 32.3505 1240.65 34.0519 Q1237.89 35.7533 1237.89 39.156 Q1237.89 41.7486 1239.88 43.2475 Q1241.86 44.7058 1247.86 46.0426 L1250.41 46.6097 Q1258.35 48.3111 1261.67 51.4303 Q1265.03 54.509 1265.03 60.0587 Q1265.03 66.3781 1260.01 70.0644 Q1255.03 73.7508 1246.28 73.7508 Q1242.63 73.7508 1238.66 73.0216 Q1234.73 72.3329 1230.36 70.9151 L1230.36 63.2184 Q1234.49 65.3654 1238.5 66.4591 Q1242.51 67.5124 1246.44 67.5124 Q1251.7 67.5124 1254.54 65.73 Q1257.38 63.9071 1257.38 60.6258 Q1257.38 57.5877 1255.31 55.9673 Q1253.28 54.3469 1246.36 52.8481 L1243.77 52.2405 Q1236.84 50.7821 1233.76 47.7845 Q1230.68 44.7463 1230.68 39.4801 Q1230.68 33.0797 1235.22 29.5959 Q1239.75 26.1121 1248.1 26.1121 Q1252.23 26.1121 1255.88 26.7198 Q1259.52 27.3274 1262.6 28.5427 Z" fill="#000000" fill-rule="nonzero" fill-opacity="1" /><path clip-path="url(#clip670)" d="M1284.27 14.324 L1284.27 27.2059 L1299.63 27.2059 L1299.63 32.9987 L1284.27 32.9987 L1284.27 57.6282 Q1284.27 63.1779 1285.77 64.7578 Q1287.31 66.3376 1291.97 66.3376 L1299.63 66.3376 L1299.63 72.576 L1291.97 72.576 Q1283.34 72.576 1280.06 69.3758 Q1276.78 66.1351 1276.78 57.6282 L1276.78 32.9987 L1271.31 32.9987 L1271.31 27.2059 L1276.78 27.2059 L1276.78 14.324 L1284.27 14.324 Z" fill="#000000" fill-rule="nonzero" fill-opacity="1" /><path clip-path="url(#clip670)" d="M1336.77 34.9026 L1388.71 34.9026 L1388.71 41.7081 L1336.77 41.7081 L1336.77 34.9026 M1336.77 51.4303 L1388.71 51.4303 L1388.71 58.3168 L1336.77 58.3168 L1336.77 51.4303 Z" fill="#000000" fill-rule="nonzero" fill-opacity="1" /><path clip-path="url(#clip670)" d="M1471.14 16.7545 L1471.14 25.383 Q1467.46 21.1295 1464.01 19.3066 Q1460.61 17.4837 1456.48 17.4837 Q1450.12 17.4837 1446.03 21.5346 Q1441.94 25.5855 1440.64 33.1607 L1464.01 33.1607 L1461.78 38.1433 L1439.99 38.1433 Q1439.91 39.1155 1439.87 40.0472 Q1439.87 40.9789 1439.87 42.3968 Q1439.87 43.6931 1439.87 44.6248 Q1439.91 45.5565 1439.99 46.5287 L1458.06 46.5287 L1455.79 51.5113 L1440.64 51.5113 Q1441.94 59.0865 1446.03 63.1779 Q1450.12 67.2693 1456.48 67.2693 Q1460.61 67.2693 1464.01 65.4464 Q1467.46 63.6235 1471.14 59.3701 L1471.14 67.9175 Q1467.54 70.8341 1463.77 72.2924 Q1460.04 73.7508 1456.15 73.7508 Q1446.55 73.7508 1440.27 67.877 Q1434.04 62.0031 1432.42 51.5113 L1423.87 51.5113 L1426.1 46.5287 L1431.73 46.5287 Q1431.73 45.597 1431.69 44.6653 Q1431.69 43.6931 1431.69 42.3968 Q1431.69 40.9789 1431.69 40.0472 Q1431.73 39.075 1431.73 38.1433 L1423.87 38.1433 L1426.1 33.1607 L1432.42 33.1607 Q1434.04 22.7499 1440.31 16.8761 Q1446.59 11.0023 1456.15 11.0023 Q1460.12 11.0023 1463.85 12.4606 Q1467.62 13.8784 1471.14 16.7545 Z" fill="#000000" fill-rule="nonzero" fill-opacity="1" /><path clip-path="url(#clip670)" d="M1483.46 12.096 L1522.35 12.096 L1522.35 15.5798 L1500.39 72.576 L1491.84 72.576 L1512.5 18.9825 L1483.46 18.9825 L1483.46 12.096 Z" fill="#000000" fill-rule="nonzero" fill-opacity="1" /><path clip-path="url(#clip670)" d="M1555.81 43.8551 Q1549.97 43.8551 1546.61 46.9743 Q1543.29 50.0935 1543.29 55.5622 Q1543.29 61.0309 1546.61 64.1501 Q1549.97 67.2693 1555.81 67.2693 Q1561.64 67.2693 1565 64.1501 Q1568.36 60.9904 1568.36 55.5622 Q1568.36 50.0935 1565 46.9743 Q1561.68 43.8551 1555.81 43.8551 M1547.62 40.3713 Q1542.36 39.075 1539.4 35.4697 Q1536.48 31.8644 1536.48 26.6793 Q1536.48 19.4281 1541.63 15.2152 Q1546.81 11.0023 1555.81 11.0023 Q1564.84 11.0023 1569.98 15.2152 Q1575.13 19.4281 1575.13 26.6793 Q1575.13 31.8644 1572.17 35.4697 Q1569.26 39.075 1564.03 40.3713 Q1569.94 41.7486 1573.23 45.759 Q1576.55 49.7694 1576.55 55.5622 Q1576.55 64.3527 1571.16 69.0517 Q1565.81 73.7508 1555.81 73.7508 Q1545.8 73.7508 1540.41 69.0517 Q1535.07 64.3527 1535.07 55.5622 Q1535.07 49.7694 1538.39 45.759 Q1541.71 41.7486 1547.62 40.3713 M1544.63 27.4489 Q1544.63 32.148 1547.54 34.7811 Q1550.5 37.4142 1555.81 37.4142 Q1561.07 37.4142 1564.03 34.7811 Q1567.03 32.148 1567.03 27.4489 Q1567.03 22.7499 1564.03 20.1168 Q1561.07 17.4837 1555.81 17.4837 Q1550.5 17.4837 1547.54 20.1168 Q1544.63 22.7499 1544.63 27.4489 Z" fill="#000000" fill-rule="nonzero" fill-opacity="1" /><path clip-path="url(#clip670)" d="M1589.75 9.54393 L1597.25 9.54393 L1597.25 46.7717 L1619.49 27.2059 L1629.01 27.2059 L1604.94 48.4326 L1630.02 72.576 L1620.3 72.576 L1597.25 50.4176 L1597.25 72.576 L1589.75 72.576 L1589.75 9.54393 Z" fill="#000000" fill-rule="nonzero" fill-opacity="1" /><path clip-path="url(#clip670)" d="M1639.98 62.2867 L1648.53 62.2867 L1648.53 69.2543 L1641.89 82.2172 L1636.66 82.2172 L1639.98 69.2543 L1639.98 62.2867 Z" fill="#000000" fill-rule="nonzero" fill-opacity="1" /><path clip-path="url(#clip670)" d="M1698.03 65.7705 L1698.03 89.8329 L1690.54 89.8329 L1690.54 27.2059 L1698.03 27.2059 L1698.03 34.0924 Q1700.38 30.0415 1703.95 28.0971 Q1707.55 26.1121 1712.54 26.1121 Q1720.8 26.1121 1725.94 32.6746 Q1731.13 39.2371 1731.13 49.9314 Q1731.13 60.6258 1725.94 67.1883 Q1720.8 73.7508 1712.54 73.7508 Q1707.55 73.7508 1703.95 71.8063 Q1700.38 69.8214 1698.03 65.7705 M1723.39 49.9314 Q1723.39 41.7081 1719.99 37.0496 Q1716.63 32.3505 1710.71 32.3505 Q1704.8 32.3505 1701.4 37.0496 Q1698.03 41.7081 1698.03 49.9314 Q1698.03 58.1548 1701.4 62.8538 Q1704.8 67.5124 1710.71 67.5124 Q1716.63 67.5124 1719.99 62.8538 Q1723.39 58.1548 1723.39 49.9314 Z" fill="#000000" fill-rule="nonzero" fill-opacity="1" /><path clip-path="url(#clip670)" d="M1782.29 48.0275 L1782.29 51.6733 L1748.02 51.6733 Q1748.51 59.3701 1752.64 63.421 Q1756.81 67.4314 1764.23 67.4314 Q1768.52 67.4314 1772.53 66.3781 Q1776.58 65.3249 1780.55 63.2184 L1780.55 70.267 Q1776.54 71.9684 1772.33 72.8596 Q1768.11 73.7508 1763.78 73.7508 Q1752.92 73.7508 1746.56 67.4314 Q1740.24 61.1119 1740.24 50.3365 Q1740.24 39.1965 1746.24 32.6746 Q1752.28 26.1121 1762.48 26.1121 Q1771.64 26.1121 1776.95 32.0264 Q1782.29 37.9003 1782.29 48.0275 M1774.84 45.84 Q1774.76 39.7232 1771.4 36.0774 Q1768.07 32.4315 1762.56 32.4315 Q1756.33 32.4315 1752.56 35.9558 Q1748.83 39.4801 1748.26 45.8805 L1774.84 45.84 Z" fill="#000000" fill-rule="nonzero" fill-opacity="1" /><path clip-path="url(#clip670)" d="M1812.11 32.4315 Q1806.11 32.4315 1802.63 37.1306 Q1799.14 41.7891 1799.14 49.9314 Q1799.14 58.0738 1802.59 62.7728 Q1806.07 67.4314 1812.11 67.4314 Q1818.06 67.4314 1821.55 62.7323 Q1825.03 58.0333 1825.03 49.9314 Q1825.03 41.8701 1821.55 37.1711 Q1818.06 32.4315 1812.11 32.4315 M1812.11 26.1121 Q1821.83 26.1121 1827.38 32.4315 Q1832.93 38.7509 1832.93 49.9314 Q1832.93 61.0714 1827.38 67.4314 Q1821.83 73.7508 1812.11 73.7508 Q1802.34 73.7508 1796.79 67.4314 Q1791.29 61.0714 1791.29 49.9314 Q1791.29 38.7509 1796.79 32.4315 Q1802.34 26.1121 1812.11 26.1121 Z" fill="#000000" fill-rule="nonzero" fill-opacity="1" /><path clip-path="url(#clip670)" d="M1852.49 65.7705 L1852.49 89.8329 L1845 89.8329 L1845 27.2059 L1852.49 27.2059 L1852.49 34.0924 Q1854.84 30.0415 1858.41 28.0971 Q1862.01 26.1121 1867 26.1121 Q1875.26 26.1121 1880.41 32.6746 Q1885.59 39.2371 1885.59 49.9314 Q1885.59 60.6258 1880.41 67.1883 Q1875.26 73.7508 1867 73.7508 Q1862.01 73.7508 1858.41 71.8063 Q1854.84 69.8214 1852.49 65.7705 M1877.85 49.9314 Q1877.85 41.7081 1874.45 37.0496 Q1871.09 32.3505 1865.17 32.3505 Q1859.26 32.3505 1855.86 37.0496 Q1852.49 41.7081 1852.49 49.9314 Q1852.49 58.1548 1855.86 62.8538 Q1859.26 67.5124 1865.17 67.5124 Q1871.09 67.5124 1874.45 62.8538 Q1877.85 58.1548 1877.85 49.9314 Z" fill="#000000" fill-rule="nonzero" fill-opacity="1" /><path clip-path="url(#clip670)" d="M1897.95 9.54393 L1905.4 9.54393 L1905.4 72.576 L1897.95 72.576 L1897.95 9.54393 Z" fill="#000000" fill-rule="nonzero" fill-opacity="1" /><path clip-path="url(#clip670)" d="M1959.8 48.0275 L1959.8 51.6733 L1925.53 51.6733 Q1926.02 59.3701 1930.15 63.421 Q1934.32 67.4314 1941.74 67.4314 Q1946.03 67.4314 1950.04 66.3781 Q1954.09 65.3249 1958.06 63.2184 L1958.06 70.267 Q1954.05 71.9684 1949.84 72.8596 Q1945.62 73.7508 1941.29 73.7508 Q1930.43 73.7508 1924.07 67.4314 Q1917.75 61.1119 1917.75 50.3365 Q1917.75 39.1965 1923.75 32.6746 Q1929.79 26.1121 1939.99 26.1121 Q1949.15 26.1121 1954.46 32.0264 Q1959.8 37.9003 1959.8 48.0275 M1952.35 45.84 Q1952.27 39.7232 1948.91 36.0774 Q1945.58 32.4315 1940.07 32.4315 Q1933.84 32.4315 1930.07 35.9558 Q1926.34 39.4801 1925.78 45.8805 L1952.35 45.84 Z" fill="#000000" fill-rule="nonzero" fill-opacity="1" /><path clip-path="url(#clip670)" d="M1999.38 34.9026 L2051.31 34.9026 L2051.31 41.7081 L1999.38 41.7081 L1999.38 34.9026 M1999.38 51.4303 L2051.31 51.4303 L2051.31 58.3168 L1999.38 58.3168 L1999.38 51.4303 Z" fill="#000000" fill-rule="nonzero" fill-opacity="1" /><path clip-path="url(#clip670)" d="M2069.06 12.096 L2101.18 12.096 L2101.18 18.9825 L2076.55 18.9825 L2076.55 33.8088 Q2078.33 33.2012 2080.11 32.9176 Q2081.9 32.5936 2083.68 32.5936 Q2093.81 32.5936 2099.72 38.1433 Q2105.64 43.6931 2105.64 53.1722 Q2105.64 62.9348 2099.56 68.3631 Q2093.48 73.7508 2082.42 73.7508 Q2078.62 73.7508 2074.65 73.1026 Q2070.72 72.4545 2066.5 71.1582 L2066.5 62.9348 Q2070.15 64.9198 2074.04 65.892 Q2077.93 66.8642 2082.26 66.8642 Q2089.27 66.8642 2093.36 63.1779 Q2097.45 59.4916 2097.45 53.1722 Q2097.45 46.8528 2093.36 43.1664 Q2089.27 39.4801 2082.26 39.4801 Q2078.98 39.4801 2075.7 40.2093 Q2072.46 40.9384 2069.06 42.4778 L2069.06 12.096 Z" fill="#000000" fill-rule="nonzero" fill-opacity="1" /><path clip-path="url(#clip671)" d="M243.68 1386.4 L493.393 1386.4 L493.393 1334.22 L243.68 1334.22 L243.68 1386.4  Z" fill="#20326c" fill-rule="evenodd" fill-opacity="1"/>
<polyline clip-path="url(#clip671)" style="stroke:#000000; stroke-linecap:round; stroke-linejoin:round; stroke-width:0; stroke-opacity:1; fill:none" points="243.68,1386.4 493.393,1386.4 493.393,1334.22 243.68,1334.22 243.68,1386.4 "/>
<path clip-path="url(#clip671)" d="M243.68 1321.18 L393.508 1321.18 L393.508 1269 L243.68 1269 L243.68 1321.18  Z" fill="#a0b1ec" fill-rule="evenodd" fill-opacity="1"/>
<polyline clip-path="url(#clip671)" style="stroke:#000000; stroke-linecap:round; stroke-linejoin:round; stroke-width:0; stroke-opacity:1; fill:none" points="243.68,1321.18 393.508,1321.18 393.508,1269 243.68,1269 243.68,1321.18 "/>
<path clip-path="url(#clip671)" d="M493.393 1255.96 L618.25 1255.96 L618.25 1203.78 L493.393 1203.78 L493.393 1255.96  Z" fill="#a0b1ec" fill-rule="evenodd" fill-opacity="1"/>
<polyline clip-path="url(#clip671)" style="stroke:#000000; stroke-linecap:round; stroke-linejoin:round; stroke-width:0; stroke-opacity:1; fill:none" points="493.393,1255.96 618.25,1255.96 618.25,1203.78 493.393,1203.78 493.393,1255.96 "/>
<path clip-path="url(#clip671)" d="M493.393 1190.74 L618.25 1190.74 L618.25 1138.56 L493.393 1138.56 L493.393 1190.74  Z" fill="#20326c" fill-rule="evenodd" fill-opacity="1"/>
<polyline clip-path="url(#clip671)" style="stroke:#000000; stroke-linecap:round; stroke-linejoin:round; stroke-width:0; stroke-opacity:1; fill:none" points="493.393,1190.74 618.25,1190.74 618.25,1138.56 493.393,1138.56 493.393,1190.74 "/>
<path clip-path="url(#clip671)" d="M618.25 1125.51 L842.991 1125.51 L842.991 1073.34 L618.25 1073.34 L618.25 1125.51  Z" fill="#a0b1ec" fill-rule="evenodd" fill-opacity="1"/>
<polyline clip-path="url(#clip671)" style="stroke:#000000; stroke-linecap:round; stroke-linejoin:round; stroke-width:0; stroke-opacity:1; fill:none" points="618.25,1125.51 842.991,1125.51 842.991,1073.34 618.25,1073.34 618.25,1125.51 "/>
<path clip-path="url(#clip671)" d="M718.135 1060.29 L917.905 1060.29 L917.905 1008.12 L718.135 1008.12 L718.135 1060.29  Z" fill="#a0b1ec" fill-rule="evenodd" fill-opacity="1"/>
<polyline clip-path="url(#clip671)" style="stroke:#000000; stroke-linecap:round; stroke-linejoin:round; stroke-width:0; stroke-opacity:1; fill:none" points="718.135,1060.29 917.905,1060.29 917.905,1008.12 718.135,1008.12 718.135,1060.29 "/>
<path clip-path="url(#clip671)" d="M917.905 995.075 L1217.56 995.075 L1217.56 942.898 L917.905 942.898 L917.905 995.075  Z" fill="#a0b1ec" fill-rule="evenodd" fill-opacity="1"/>
<polyline clip-path="url(#clip671)" style="stroke:#000000; stroke-linecap:round; stroke-linejoin:round; stroke-width:0; stroke-opacity:1; fill:none" points="917.905,995.075 1217.56,995.075 1217.56,942.898 917.905,942.898 917.905,995.075 "/>
<path clip-path="url(#clip671)" d="M1217.56 929.854 L1317.45 929.854 L1317.45 877.678 L1217.56 877.678 L1217.56 929.854  Z" fill="#a0b1ec" fill-rule="evenodd" fill-opacity="1"/>
<polyline clip-path="url(#clip671)" style="stroke:#000000; stroke-linecap:round; stroke-linejoin:round; stroke-width:0; stroke-opacity:1; fill:none" points="1217.56,929.854 1317.45,929.854 1317.45,877.678 1217.56,877.678 1217.56,929.854 "/>
<path clip-path="url(#clip671)" d="M842.991 864.634 L1342.42 864.634 L1342.42 812.458 L842.991 812.458 L842.991 864.634  Z" fill="#a0b1ec" fill-rule="evenodd" fill-opacity="1"/>
<polyline clip-path="url(#clip671)" style="stroke:#000000; stroke-linecap:round; stroke-linejoin:round; stroke-width:0; stroke-opacity:1; fill:none" points="842.991,864.634 1342.42,864.634 1342.42,812.458 842.991,812.458 842.991,864.634 "/>
<path clip-path="url(#clip671)" d="M1342.42 799.414 L1542.19 799.414 L1542.19 747.238 L1342.42 747.238 L1342.42 799.414  Z" fill="#20326c" fill-rule="evenodd" fill-opacity="1"/>
<polyline clip-path="url(#clip671)" style="stroke:#000000; stroke-linecap:round; stroke-linejoin:round; stroke-width:0; stroke-opacity:1; fill:none" points="1342.42,799.414 1542.19,799.414 1542.19,747.238 1342.42,747.238 1342.42,799.414 "/>
<path clip-path="url(#clip671)" d="M1542.19 734.194 L1617.1 734.194 L1617.1 682.018 L1542.19 682.018 L1542.19 734.194  Z" fill="#20326c" fill-rule="evenodd" fill-opacity="1"/>
<polyline clip-path="url(#clip671)" style="stroke:#000000; stroke-linecap:round; stroke-linejoin:round; stroke-width:0; stroke-opacity:1; fill:none" points="1542.19,734.194 1617.1,734.194 1617.1,682.018 1542.19,682.018 1542.19,734.194 "/>
<path clip-path="url(#clip671)" d="M1816.87 668.974 L1966.7 668.974 L1966.7 616.798 L1816.87 616.798 L1816.87 668.974  Z" fill="#a0b1ec" fill-rule="evenodd" fill-opacity="1"/>
<polyline clip-path="url(#clip671)" style="stroke:#000000; stroke-linecap:round; stroke-linejoin:round; stroke-width:0; stroke-opacity:1; fill:none" points="1816.87,668.974 1966.7,668.974 1966.7,616.798 1816.87,616.798 1816.87,668.974 "/>
<path clip-path="url(#clip671)" d="M1617.1 603.754 L1667.04 603.754 L1667.04 551.577 L1617.1 551.577 L1617.1 603.754  Z" fill="#a0b1ec" fill-rule="evenodd" fill-opacity="1"/>
<polyline clip-path="url(#clip671)" style="stroke:#000000; stroke-linecap:round; stroke-linejoin:round; stroke-width:0; stroke-opacity:1; fill:none" points="1617.1,603.754 1667.04,603.754 1667.04,551.577 1617.1,551.577 1617.1,603.754 "/>
<path clip-path="url(#clip671)" d="M1866.81 538.533 L1991.67 538.533 L1991.67 486.357 L1866.81 486.357 L1866.81 538.533  Z" fill="#a0b1ec" fill-rule="evenodd" fill-opacity="1"/>
<polyline clip-path="url(#clip671)" style="stroke:#000000; stroke-linecap:round; stroke-linejoin:round; stroke-width:0; stroke-opacity:1; fill:none" points="1866.81,538.533 1991.67,538.533 1991.67,486.357 1866.81,486.357 1866.81,538.533 "/>
<path clip-path="url(#clip671)" d="M1991.67 473.313 L2091.56 473.313 L2091.56 421.137 L1991.67 421.137 L1991.67 473.313  Z" fill="#a0b1ec" fill-rule="evenodd" fill-opacity="1"/>
<polyline clip-path="url(#clip671)" style="stroke:#000000; stroke-linecap:round; stroke-linejoin:round; stroke-width:0; stroke-opacity:1; fill:none" points="1991.67,473.313 2091.56,473.313 2091.56,421.137 1991.67,421.137 1991.67,473.313 "/>
<path clip-path="url(#clip671)" d="M1991.67 408.093 L2066.58 408.093 L2066.58 355.917 L1991.67 355.917 L1991.67 408.093  Z" fill="#a0b1ec" fill-rule="evenodd" fill-opacity="1"/>
<polyline clip-path="url(#clip671)" style="stroke:#000000; stroke-linecap:round; stroke-linejoin:round; stroke-width:0; stroke-opacity:1; fill:none" points="1991.67,408.093 2066.58,408.093 2066.58,355.917 1991.67,355.917 1991.67,408.093 "/>
<path clip-path="url(#clip671)" d="M1667.04 342.873 L2291.33 342.873 L2291.33 290.697 L1667.04 290.697 L1667.04 342.873  Z" fill="#20326c" fill-rule="evenodd" fill-opacity="1"/>
<polyline clip-path="url(#clip671)" style="stroke:#000000; stroke-linecap:round; stroke-linejoin:round; stroke-width:0; stroke-opacity:1; fill:none" points="1667.04,342.873 2291.33,342.873 2291.33,290.697 1667.04,290.697 1667.04,342.873 "/>
<path clip-path="url(#clip671)" d="M2091.56 277.653 L2141.5 277.653 L2141.5 225.476 L2091.56 225.476 L2091.56 277.653  Z" fill="#a0b1ec" fill-rule="evenodd" fill-opacity="1"/>
<polyline clip-path="url(#clip671)" style="stroke:#000000; stroke-linecap:round; stroke-linejoin:round; stroke-width:0; stroke-opacity:1; fill:none" points="2091.56,277.653 2141.5,277.653 2141.5,225.476 2091.56,225.476 2091.56,277.653 "/>
<path clip-path="url(#clip671)" d="M2291.33 212.432 L2291.33 212.432 L2291.33 160.256 L2291.33 160.256 L2291.33 212.432  Z" fill="#a0b1ec" fill-rule="evenodd" fill-opacity="1"/>
<polyline clip-path="url(#clip671)" style="stroke:#000000; stroke-linecap:round; stroke-linejoin:round; stroke-width:0; stroke-opacity:1; fill:none" points="2291.33,212.432 2291.33,212.432 2291.33,160.256 2291.33,212.432 "/>
</svg>
