<?xml version="1.0" encoding="utf-8"?>
<svg xmlns="http://www.w3.org/2000/svg" xmlns:xlink="http://www.w3.org/1999/xlink" width="600" height="400" viewBox="0 0 2400 1600">
<defs>
  <clipPath id="clip610">
    <rect x="0" y="0" width="2400" height="1600"/>
  </clipPath>
</defs>
<path clip-path="url(#clip610)" d="M0 1600 L2400 1600 L2400 0 L0 0  Z" fill="#ffffff" fill-rule="evenodd" fill-opacity="1"/>
<defs>
  <clipPath id="clip611">
    <rect x="182" y="123" width="2172" height="1301"/>
  </clipPath>
</defs>
<path clip-path="url(#clip610)" d="M182.251 1423.18 L2352.76 1423.18 L2352.76 123.472 L182.251 123.472  Z" fill="#ffffff" fill-rule="evenodd" fill-opacity="1"/>
<polyline clip-path="url(#clip611)" style="stroke:#000000; stroke-linecap:round; stroke-linejoin:round; stroke-width:2; stroke-opacity:0.1; fill:none" points="243.68,1423.18 243.68,123.472 "/>
<polyline clip-path="url(#clip611)" style="stroke:#000000; stroke-linecap:round; stroke-linejoin:round; stroke-width:2; stroke-opacity:0.1; fill:none" points="775.536,1423.18 775.536,123.472 "/>
<polyline clip-path="url(#clip611)" style="stroke:#000000; stroke-linecap:round; stroke-linejoin:round; stroke-width:2; stroke-opacity:0.1; fill:none" points="1307.39,1423.18 1307.39,123.472 "/>
<polyline clip-path="url(#clip611)" style="stroke:#000000; stroke-linecap:round; stroke-linejoin:round; stroke-width:2; stroke-opacity:0.1; fill:none" points="1839.25,1423.18 1839.25,123.472 "/>
<polyline clip-path="url(#clip611)" style="stroke:#000000; stroke-linecap:round; stroke-linejoin:round; stroke-width:2; stroke-opacity:0.1; fill:none" points="182.251,1360.31 2352.76,1360.31 "/>
<polyline clip-path="url(#clip611)" style="stroke:#000000; stroke-linecap:round; stroke-linejoin:round; stroke-width:2; stroke-opacity:0.1; fill:none" points="182.251,1295.09 2352.76,1295.09 "/>
<polyline clip-path="url(#clip611)" style="stroke:#000000; stroke-linecap:round; stroke-linejoin:round; stroke-width:2; stroke-opacity:0.1; fill:none" points="182.251,1229.87 2352.76,1229.87 "/>
<polyline clip-path="url(#clip611)" style="stroke:#000000; stroke-linecap:round; stroke-linejoin:round; stroke-width:2; stroke-opacity:0.1; fill:none" points="182.251,1164.65 2352.76,1164.65 "/>
<polyline clip-path="url(#clip611)" style="stroke:#000000; stroke-linecap:round; stroke-linejoin:round; stroke-width:2; stroke-opacity:0.1; fill:none" points="182.251,1099.43 2352.76,1099.43 "/>
<polyline clip-path="url(#clip611)" style="stroke:#000000; stroke-linecap:round; stroke-linejoin:round; stroke-width:2; stroke-opacity:0.1; fill:none" points="182.251,1034.21 2352.76,1034.21 "/>
<polyline clip-path="url(#clip611)" style="stroke:#000000; stroke-linecap:round; stroke-linejoin:round; stroke-width:2; stroke-opacity:0.1; fill:none" points="182.251,968.987 2352.76,968.987 "/>
<polyline clip-path="url(#clip611)" style="stroke:#000000; stroke-linecap:round; stroke-linejoin:round; stroke-width:2; stroke-opacity:0.1; fill:none" points="182.251,903.766 2352.76,903.766 "/>
<polyline clip-path="url(#clip611)" style="stroke:#000000; stroke-linecap:round; stroke-linejoin:round; stroke-width:2; stroke-opacity:0.1; fill:none" points="182.251,838.546 2352.76,838.546 "/>
<polyline clip-path="url(#clip611)" style="stroke:#000000; stroke-linecap:round; stroke-linejoin:round; stroke-width:2; stroke-opacity:0.1; fill:none" points="182.251,773.326 2352.76,773.326 "/>
<polyline clip-path="url(#clip611)" style="stroke:#000000; stroke-linecap:round; stroke-linejoin:round; stroke-width:2; stroke-opacity:0.1; fill:none" points="182.251,708.106 2352.76,708.106 "/>
<polyline clip-path="url(#clip611)" style="stroke:#000000; stroke-linecap:round; stroke-linejoin:round; stroke-width:2; stroke-opacity:0.1; fill:none" points="182.251,642.886 2352.76,642.886 "/>
<polyline clip-path="url(#clip611)" style="stroke:#000000; stroke-linecap:round; stroke-linejoin:round; stroke-width:2; stroke-opacity:0.1; fill:none" points="182.251,577.665 2352.76,577.665 "/>
<polyline clip-path="url(#clip611)" style="stroke:#000000; stroke-linecap:round; stroke-linejoin:round; stroke-width:2; stroke-opacity:0.1; fill:none" points="182.251,512.445 2352.76,512.445 "/>
<polyline clip-path="url(#clip611)" style="stroke:#000000; stroke-linecap:round; stroke-linejoin:round; stroke-width:2; stroke-opacity:0.1; fill:none" points="182.251,447.225 2352.76,447.225 "/>
<polyline clip-path="url(#clip611)" style="stroke:#000000; stroke-linecap:round; stroke-linejoin:round; stroke-width:2; stroke-opacity:0.1; fill:none" points="182.251,382.005 2352.76,382.005 "/>
<polyline clip-path="url(#clip611)" style="stroke:#000000; stroke-linecap:round; stroke-linejoin:round; stroke-width:2; stroke-opacity:0.1; fill:none" points="182.251,316.785 2352.76,316.785 "/>
<polyline clip-path="url(#clip611)" style="stroke:#000000; stroke-linecap:round; stroke-linejoin:round; stroke-width:2; stroke-opacity:0.1; fill:none" points="182.251,251.565 2352.76,251.565 "/>
<polyline clip-path="url(#clip611)" style="stroke:#000000; stroke-linecap:round; stroke-linejoin:round; stroke-width:2; stroke-opacity:0.1; fill:none" points="182.251,186.344 2352.76,186.344 "/>
<polyline clip-path="url(#clip610)" style="stroke:#000000; stroke-linecap:round; stroke-linejoin:round; stroke-width:4; stroke-opacity:1; fill:none" points="182.251,1423.18 2352.76,1423.18 "/>
<polyline clip-path="url(#clip610)" style="stroke:#000000; stroke-linecap:round; stroke-linejoin:round; stroke-width:4; stroke-opacity:1; fill:none" points="243.68,1423.18 243.68,1404.28 "/>
<polyline clip-path="url(#clip610)" style="stroke:#000000; stroke-linecap:round; stroke-linejoin:round; stroke-width:4; stroke-opacity:1; fill:none" points="775.536,1423.18 775.536,1404.28 "/>
<polyline clip-path="url(#clip610)" style="stroke:#000000; stroke-linecap:round; stroke-linejoin:round; stroke-width:4; stroke-opacity:1; fill:none" points="1307.39,1423.18 1307.39,1404.28 "/>
<polyline clip-path="url(#clip610)" style="stroke:#000000; stroke-linecap:round; stroke-linejoin:round; stroke-width:4; stroke-opacity:1; fill:none" points="1839.25,1423.18 1839.25,1404.28 "/>
<path clip-path="url(#clip610)" d="M243.68 1454.1 Q240.069 1454.1 238.24 1457.66 Q236.435 1461.2 236.435 1468.33 Q236.435 1475.44 238.24 1479.01 Q240.069 1482.55 243.68 1482.55 Q247.314 1482.55 249.12 1479.01 Q250.949 1475.44 250.949 1468.33 Q250.949 1461.2 249.12 1457.66 Q247.314 1454.1 243.68 1454.1 M243.68 1450.39 Q249.49 1450.39 252.546 1455 Q255.624 1459.58 255.624 1468.33 Q255.624 1477.06 252.546 1481.67 Q249.49 1486.25 243.68 1486.25 Q237.87 1486.25 234.791 1481.67 Q231.736 1477.06 231.736 1468.33 Q231.736 1459.58 234.791 1455 Q237.87 1450.39 243.68 1450.39 Z" fill="#000000" fill-rule="nonzero" fill-opacity="1" /><path clip-path="url(#clip610)" d="M754.31 1481.64 L770.629 1481.64 L770.629 1485.58 L748.685 1485.58 L748.685 1481.64 Q751.347 1478.89 755.93 1474.26 Q760.536 1469.61 761.717 1468.27 Q763.962 1465.74 764.842 1464.01 Q765.745 1462.25 765.745 1460.56 Q765.745 1457.8 763.8 1456.07 Q761.879 1454.33 758.777 1454.33 Q756.578 1454.33 754.124 1455.09 Q751.694 1455.86 748.916 1457.41 L748.916 1452.69 Q751.74 1451.55 754.194 1450.97 Q756.648 1450.39 758.685 1450.39 Q764.055 1450.39 767.249 1453.08 Q770.444 1455.77 770.444 1460.26 Q770.444 1462.39 769.634 1464.31 Q768.847 1466.2 766.74 1468.8 Q766.161 1469.47 763.06 1472.69 Q759.958 1475.88 754.31 1481.64 Z" fill="#000000" fill-rule="nonzero" fill-opacity="1" /><path clip-path="url(#clip610)" d="M790.444 1454.1 Q786.833 1454.1 785.004 1457.66 Q783.198 1461.2 783.198 1468.33 Q783.198 1475.44 785.004 1479.01 Q786.833 1482.55 790.444 1482.55 Q794.078 1482.55 795.883 1479.01 Q797.712 1475.44 797.712 1468.33 Q797.712 1461.2 795.883 1457.66 Q794.078 1454.1 790.444 1454.1 M790.444 1450.39 Q796.254 1450.39 799.309 1455 Q802.388 1459.58 802.388 1468.33 Q802.388 1477.06 799.309 1481.67 Q796.254 1486.25 790.444 1486.25 Q784.633 1486.25 781.555 1481.67 Q778.499 1477.06 778.499 1468.33 Q778.499 1459.58 781.555 1455 Q784.633 1450.39 790.444 1450.39 Z" fill="#000000" fill-rule="nonzero" fill-opacity="1" /><path clip-path="url(#clip610)" d="M1295.56 1455.09 L1283.76 1473.54 L1295.56 1473.54 L1295.56 1455.09 M1294.34 1451.02 L1300.22 1451.02 L1300.22 1473.54 L1305.15 1473.54 L1305.15 1477.43 L1300.22 1477.43 L1300.22 1485.58 L1295.56 1485.58 L1295.56 1477.43 L1279.96 1477.43 L1279.96 1472.92 L1294.34 1451.02 Z" fill="#000000" fill-rule="nonzero" fill-opacity="1" /><path clip-path="url(#clip610)" d="M1322.88 1454.1 Q1319.27 1454.1 1317.44 1457.66 Q1315.63 1461.2 1315.63 1468.33 Q1315.63 1475.44 1317.44 1479.01 Q1319.27 1482.55 1322.88 1482.55 Q1326.51 1482.55 1328.32 1479.01 Q1330.15 1475.44 1330.15 1468.33 Q1330.15 1461.2 1328.32 1457.66 Q1326.51 1454.1 1322.88 1454.1 M1322.88 1450.39 Q1328.69 1450.39 1331.74 1455 Q1334.82 1459.58 1334.82 1468.33 Q1334.82 1477.06 1331.74 1481.67 Q1328.69 1486.25 1322.88 1486.25 Q1317.07 1486.25 1313.99 1481.67 Q1310.93 1477.06 1310.93 1468.33 Q1310.93 1459.58 1313.99 1455 Q1317.07 1450.39 1322.88 1450.39 Z" fill="#000000" fill-rule="nonzero" fill-opacity="1" /><path clip-path="url(#clip610)" d="M1824.65 1466.44 Q1821.51 1466.44 1819.65 1468.59 Q1817.83 1470.74 1817.83 1474.49 Q1817.83 1478.22 1819.65 1480.39 Q1821.51 1482.55 1824.65 1482.55 Q1827.8 1482.55 1829.63 1480.39 Q1831.48 1478.22 1831.48 1474.49 Q1831.48 1470.74 1829.63 1468.59 Q1827.8 1466.44 1824.65 1466.44 M1833.94 1451.78 L1833.94 1456.04 Q1832.18 1455.21 1830.37 1454.77 Q1828.59 1454.33 1826.83 1454.33 Q1822.2 1454.33 1819.75 1457.45 Q1817.32 1460.58 1816.97 1466.9 Q1818.33 1464.89 1820.39 1463.82 Q1822.45 1462.73 1824.93 1462.73 Q1830.14 1462.73 1833.15 1465.9 Q1836.18 1469.05 1836.18 1474.49 Q1836.18 1479.82 1833.03 1483.03 Q1829.89 1486.25 1824.65 1486.25 Q1818.66 1486.25 1815.49 1481.67 Q1812.32 1477.06 1812.32 1468.33 Q1812.32 1460.14 1816.2 1455.28 Q1820.09 1450.39 1826.64 1450.39 Q1828.4 1450.39 1830.19 1450.74 Q1831.99 1451.09 1833.94 1451.78 Z" fill="#000000" fill-rule="nonzero" fill-opacity="1" /><path clip-path="url(#clip610)" d="M1854.24 1454.1 Q1850.63 1454.1 1848.8 1457.66 Q1846.99 1461.2 1846.99 1468.33 Q1846.99 1475.44 1848.8 1479.01 Q1850.63 1482.55 1854.24 1482.55 Q1857.87 1482.55 1859.68 1479.01 Q1861.51 1475.44 1861.51 1468.33 Q1861.51 1461.2 1859.68 1457.66 Q1857.87 1454.1 1854.24 1454.1 M1854.24 1450.39 Q1860.05 1450.39 1863.1 1455 Q1866.18 1459.58 1866.18 1468.33 Q1866.18 1477.06 1863.1 1481.67 Q1860.05 1486.25 1854.24 1486.25 Q1848.43 1486.25 1845.35 1481.67 Q1842.29 1477.06 1842.29 1468.33 Q1842.29 1459.58 1845.35 1455 Q1848.43 1450.39 1854.24 1450.39 Z" fill="#000000" fill-rule="nonzero" fill-opacity="1" /><path clip-path="url(#clip610)" d="M1189.38 1520.52 L1229.58 1520.52 L1229.58 1525.93 L1212.71 1525.93 L1212.71 1568.04 L1206.25 1568.04 L1206.25 1525.93 L1189.38 1525.93 L1189.38 1520.52 Z" fill="#000000" fill-rule="nonzero" fill-opacity="1" /><path clip-path="url(#clip610)" d="M1233.53 1532.4 L1239.38 1532.4 L1239.38 1568.04 L1233.53 1568.04 L1233.53 1532.4 M1233.53 1518.52 L1239.38 1518.52 L1239.38 1525.93 L1233.53 1525.93 L1233.53 1518.52 Z" fill="#000000" fill-rule="nonzero" fill-opacity="1" /><path clip-path="url(#clip610)" d="M1279.39 1539.24 Q1281.59 1535.29 1284.64 1533.41 Q1287.7 1531.54 1291.84 1531.54 Q1297.41 1531.54 1300.43 1535.45 Q1303.45 1539.33 1303.45 1546.53 L1303.45 1568.04 L1297.57 1568.04 L1297.57 1546.72 Q1297.57 1541.59 1295.75 1539.11 Q1293.94 1536.63 1290.21 1536.63 Q1285.66 1536.63 1283.02 1539.65 Q1280.38 1542.68 1280.38 1547.9 L1280.38 1568.04 L1274.49 1568.04 L1274.49 1546.72 Q1274.49 1541.56 1272.68 1539.11 Q1270.86 1536.63 1267.07 1536.63 Q1262.59 1536.63 1259.94 1539.68 Q1257.3 1542.71 1257.3 1547.9 L1257.3 1568.04 L1251.41 1568.04 L1251.41 1532.4 L1257.3 1532.4 L1257.3 1537.93 Q1259.31 1534.66 1262.11 1533.1 Q1264.91 1531.54 1268.76 1531.54 Q1272.64 1531.54 1275.35 1533.51 Q1278.09 1535.48 1279.39 1539.24 Z" fill="#000000" fill-rule="nonzero" fill-opacity="1" /><path clip-path="url(#clip610)" d="M1345.63 1548.76 L1345.63 1551.62 L1318.7 1551.62 Q1319.08 1557.67 1322.33 1560.85 Q1325.61 1564 1331.43 1564 Q1334.8 1564 1337.96 1563.17 Q1341.14 1562.35 1344.26 1560.69 L1344.26 1566.23 Q1341.11 1567.57 1337.8 1568.27 Q1334.49 1568.97 1331.08 1568.97 Q1322.55 1568.97 1317.55 1564 Q1312.59 1559.04 1312.59 1550.57 Q1312.59 1541.82 1317.3 1536.69 Q1322.04 1531.54 1330.06 1531.54 Q1337.26 1531.54 1341.43 1536.18 Q1345.63 1540.8 1345.63 1548.76 M1339.77 1547.04 Q1339.71 1542.23 1337.06 1539.37 Q1334.45 1536.5 1330.13 1536.5 Q1325.22 1536.5 1322.26 1539.27 Q1319.34 1542.04 1318.89 1547.07 L1339.77 1547.04 Z" fill="#000000" fill-rule="nonzero" fill-opacity="1" /><polyline clip-path="url(#clip610)" style="stroke:#000000; stroke-linecap:round; stroke-linejoin:round; stroke-width:4; stroke-opacity:1; fill:none" points="182.251,1423.18 182.251,123.472 "/>
<polyline clip-path="url(#clip610)" style="stroke:#000000; stroke-linecap:round; stroke-linejoin:round; stroke-width:4; stroke-opacity:1; fill:none" points="182.251,1360.31 201.148,1360.31 "/>
<polyline clip-path="url(#clip610)" style="stroke:#000000; stroke-linecap:round; stroke-linejoin:round; stroke-width:4; stroke-opacity:1; fill:none" points="182.251,1295.09 201.148,1295.09 "/>
<polyline clip-path="url(#clip610)" style="stroke:#000000; stroke-linecap:round; stroke-linejoin:round; stroke-width:4; stroke-opacity:1; fill:none" points="182.251,1229.87 201.148,1229.87 "/>
<polyline clip-path="url(#clip610)" style="stroke:#000000; stroke-linecap:round; stroke-linejoin:round; stroke-width:4; stroke-opacity:1; fill:none" points="182.251,1164.65 201.148,1164.65 "/>
<polyline clip-path="url(#clip610)" style="stroke:#000000; stroke-linecap:round; stroke-linejoin:round; stroke-width:4; stroke-opacity:1; fill:none" points="182.251,1099.43 201.148,1099.43 "/>
<polyline clip-path="url(#clip610)" style="stroke:#000000; stroke-linecap:round; stroke-linejoin:round; stroke-width:4; stroke-opacity:1; fill:none" points="182.251,1034.21 201.148,1034.21 "/>
<polyline clip-path="url(#clip610)" style="stroke:#000000; stroke-linecap:round; stroke-linejoin:round; stroke-width:4; stroke-opacity:1; fill:none" points="182.251,968.987 201.148,968.987 "/>
<polyline clip-path="url(#clip610)" style="stroke:#000000; stroke-linecap:round; stroke-linejoin:round; stroke-width:4; stroke-opacity:1; fill:none" points="182.251,903.766 201.148,903.766 "/>
<polyline clip-path="url(#clip610)" style="stroke:#000000; stroke-linecap:round; stroke-linejoin:round; stroke-width:4; stroke-opacity:1; fill:none" points="182.251,838.546 201.148,838.546 "/>
<polyline clip-path="url(#clip610)" style="stroke:#000000; stroke-linecap:round; stroke-linejoin:round; stroke-width:4; stroke-opacity:1; fill:none" points="182.251,773.326 201.148,773.326 "/>
<polyline clip-path="url(#clip610)" style="stroke:#000000; stroke-linecap:round; stroke-linejoin:round; stroke-width:4; stroke-opacity:1; fill:none" points="182.251,708.106 201.148,708.106 "/>
<polyline clip-path="url(#clip610)" style="stroke:#000000; stroke-linecap:round; stroke-linejoin:round; stroke-width:4; stroke-opacity:1; fill:none" points="182.251,642.886 201.148,642.886 "/>
<polyline clip-path="url(#clip610)" style="stroke:#000000; stroke-linecap:round; stroke-linejoin:round; stroke-width:4; stroke-opacity:1; fill:none" points="182.251,577.665 201.148,577.665 "/>
<polyline clip-path="url(#clip610)" style="stroke:#000000; stroke-linecap:round; stroke-linejoin:round; stroke-width:4; stroke-opacity:1; fill:none" points="182.251,512.445 201.148,512.445 "/>
<polyline clip-path="url(#clip610)" style="stroke:#000000; stroke-linecap:round; stroke-linejoin:round; stroke-width:4; stroke-opacity:1; fill:none" points="182.251,447.225 201.148,447.225 "/>
<polyline clip-path="url(#clip610)" style="stroke:#000000; stroke-linecap:round; stroke-linejoin:round; stroke-width:4; stroke-opacity:1; fill:none" points="182.251,382.005 201.148,382.005 "/>
<polyline clip-path="url(#clip610)" style="stroke:#000000; stroke-linecap:round; stroke-linejoin:round; stroke-width:4; stroke-opacity:1; fill:none" points="182.251,316.785 201.148,316.785 "/>
<polyline clip-path="url(#clip610)" style="stroke:#000000; stroke-linecap:round; stroke-linejoin:round; stroke-width:4; stroke-opacity:1; fill:none" points="182.251,251.565 201.148,251.565 "/>
<polyline clip-path="url(#clip610)" style="stroke:#000000; stroke-linecap:round; stroke-linejoin:round; stroke-width:4; stroke-opacity:1; fill:none" points="182.251,186.344 201.148,186.344 "/>
<path clip-path="url(#clip610)" d="M130.417 1347.63 L124.075 1364.83 L136.783 1364.83 L130.417 1347.63 M127.779 1343.03 L133.08 1343.03 L146.251 1377.59 L141.39 1377.59 L138.242 1368.72 L122.663 1368.72 L119.515 1377.59 L114.584 1377.59 L127.779 1343.03 Z" fill="#000000" fill-rule="nonzero" fill-opacity="1" /><path clip-path="url(#clip610)" d="M126.413 1295.86 L126.413 1308.52 L133.913 1308.52 Q137.686 1308.52 139.492 1306.97 Q141.32 1305.4 141.32 1302.18 Q141.32 1298.94 139.492 1297.41 Q137.686 1295.86 133.913 1295.86 L126.413 1295.86 M126.413 1281.65 L126.413 1292.07 L133.334 1292.07 Q136.76 1292.07 138.427 1290.79 Q140.117 1289.5 140.117 1286.86 Q140.117 1284.24 138.427 1282.95 Q136.76 1281.65 133.334 1281.65 L126.413 1281.65 M121.737 1277.81 L133.681 1277.81 Q139.029 1277.81 141.922 1280.03 Q144.816 1282.25 144.816 1286.35 Q144.816 1289.52 143.334 1291.4 Q141.853 1293.27 138.982 1293.73 Q142.431 1294.47 144.329 1296.84 Q146.251 1299.17 146.251 1302.69 Q146.251 1307.32 143.103 1309.84 Q139.954 1312.37 134.144 1312.37 L121.737 1312.37 L121.737 1277.81 Z" fill="#000000" fill-rule="nonzero" fill-opacity="1" /><path clip-path="url(#clip610)" d="M146.251 1215.25 L146.251 1220.18 Q143.89 1217.98 141.204 1216.89 Q138.542 1215.8 135.533 1215.8 Q129.607 1215.8 126.459 1219.44 Q123.311 1223.05 123.311 1229.9 Q123.311 1236.73 126.459 1240.36 Q129.607 1243.98 135.533 1243.98 Q138.542 1243.98 141.204 1242.89 Q143.89 1241.8 146.251 1239.6 L146.251 1244.49 Q143.797 1246.15 141.042 1246.99 Q138.311 1247.82 135.255 1247.82 Q127.408 1247.82 122.894 1243.03 Q118.381 1238.21 118.381 1229.9 Q118.381 1221.57 122.894 1216.78 Q127.408 1211.96 135.255 1211.96 Q138.357 1211.96 141.089 1212.8 Q143.843 1213.61 146.251 1215.25 Z" fill="#000000" fill-rule="nonzero" fill-opacity="1" /><path clip-path="url(#clip610)" d="M121.876 1151.21 L121.876 1178.08 L127.524 1178.08 Q134.677 1178.08 137.987 1174.84 Q141.32 1171.6 141.32 1164.61 Q141.32 1157.67 137.987 1154.45 Q134.677 1151.21 127.524 1151.21 L121.876 1151.21 M117.2 1147.37 L126.806 1147.37 Q136.853 1147.37 141.552 1151.56 Q146.251 1155.72 146.251 1164.61 Q146.251 1173.55 141.529 1177.74 Q136.806 1181.93 126.806 1181.93 L117.2 1181.93 L117.2 1147.37 Z" fill="#000000" fill-rule="nonzero" fill-opacity="1" /><path clip-path="url(#clip610)" d="M123.982 1082.15 L145.834 1082.15 L145.834 1086.08 L128.658 1086.08 L128.658 1096.31 L145.116 1096.31 L145.116 1100.25 L128.658 1100.25 L128.658 1112.77 L146.251 1112.77 L146.251 1116.71 L123.982 1116.71 L123.982 1082.15 Z" fill="#000000" fill-rule="nonzero" fill-opacity="1" /><path clip-path="url(#clip610)" d="M126.39 1016.93 L146.251 1016.93 L146.251 1020.86 L131.066 1020.86 L131.066 1031.05 L144.769 1031.05 L144.769 1034.98 L131.066 1034.98 L131.066 1051.49 L126.39 1051.49 L126.39 1016.93 Z" fill="#000000" fill-rule="nonzero" fill-opacity="1" /><path clip-path="url(#clip610)" d="M141.621 981.336 L141.621 972.054 L133.982 972.054 L133.982 968.211 L146.251 968.211 L146.251 983.049 Q143.542 984.97 140.279 985.966 Q137.015 986.938 133.311 986.938 Q125.209 986.938 120.626 982.216 Q116.066 977.47 116.066 969.021 Q116.066 960.549 120.626 955.827 Q125.209 951.082 133.311 951.082 Q136.691 951.082 139.723 951.915 Q142.779 952.748 145.348 954.369 L145.348 959.345 Q142.755 957.146 139.839 956.035 Q136.922 954.924 133.704 954.924 Q127.362 954.924 124.168 958.466 Q120.996 962.007 120.996 969.021 Q120.996 976.012 124.168 979.554 Q127.362 983.095 133.704 983.095 Q136.181 983.095 138.126 982.679 Q140.07 982.239 141.621 981.336 Z" fill="#000000" fill-rule="nonzero" fill-opacity="1" /><path clip-path="url(#clip610)" d="M119.908 886.486 L124.584 886.486 L124.584 900.653 L141.575 900.653 L141.575 886.486 L146.251 886.486 L146.251 921.046 L141.575 921.046 L141.575 904.588 L124.584 904.588 L124.584 921.046 L119.908 921.046 L119.908 886.486 Z" fill="#000000" fill-rule="nonzero" fill-opacity="1" /><path clip-path="url(#clip610)" d="M141.575 821.266 L146.251 821.266 L146.251 855.826 L141.575 855.826 L141.575 821.266 Z" fill="#000000" fill-rule="nonzero" fill-opacity="1" /><path clip-path="url(#clip610)" d="M141.575 756.046 L146.251 756.046 L146.251 788.199 Q146.251 794.449 143.866 797.273 Q141.505 800.097 136.251 800.097 L134.468 800.097 L134.468 796.162 L135.927 796.162 Q139.029 796.162 140.302 794.425 Q141.575 792.689 141.575 788.199 L141.575 756.046 Z" fill="#000000" fill-rule="nonzero" fill-opacity="1" /><path clip-path="url(#clip610)" d="M118.82 690.826 L123.496 690.826 L123.496 705.432 L139.005 690.826 L145.024 690.826 L127.871 706.937 L146.251 725.386 L140.093 725.386 L123.496 708.742 L123.496 725.386 L118.82 725.386 L118.82 690.826 Z" fill="#000000" fill-rule="nonzero" fill-opacity="1" /><path clip-path="url(#clip610)" d="M124.746 625.606 L129.422 625.606 L129.422 656.23 L146.251 656.23 L146.251 660.166 L124.746 660.166 L124.746 625.606 Z" fill="#000000" fill-rule="nonzero" fill-opacity="1" /><path clip-path="url(#clip610)" d="M114.631 560.385 L121.598 560.385 L130.417 583.904 L139.283 560.385 L146.251 560.385 L146.251 594.945 L141.691 594.945 L141.691 564.598 L132.779 588.302 L128.08 588.302 L119.168 564.598 L119.168 594.945 L114.631 594.945 L114.631 560.385 Z" fill="#000000" fill-rule="nonzero" fill-opacity="1" /><path clip-path="url(#clip610)" d="M120.093 495.165 L126.39 495.165 L141.714 524.077 L141.714 495.165 L146.251 495.165 L146.251 529.725 L139.954 529.725 L124.63 500.813 L124.63 529.725 L120.093 529.725 L120.093 495.165 Z" fill="#000000" fill-rule="nonzero" fill-opacity="1" /><path clip-path="url(#clip610)" d="M130.279 433.116 Q125.186 433.116 122.177 436.913 Q119.191 440.709 119.191 447.26 Q119.191 453.788 122.177 457.584 Q125.186 461.38 130.279 461.38 Q135.371 461.38 138.334 457.584 Q141.32 453.788 141.32 447.26 Q141.32 440.709 138.334 436.913 Q135.371 433.116 130.279 433.116 M130.279 429.32 Q137.547 429.32 141.899 434.204 Q146.251 439.065 146.251 447.26 Q146.251 455.431 141.899 460.315 Q137.547 465.176 130.279 465.176 Q122.987 465.176 118.612 460.315 Q114.26 455.454 114.26 447.26 Q114.26 439.065 118.612 434.204 Q122.987 429.32 130.279 429.32 Z" fill="#000000" fill-rule="nonzero" fill-opacity="1" /><path clip-path="url(#clip610)" d="M128.612 368.567 L128.612 381.554 L134.492 381.554 Q137.755 381.554 139.538 379.864 Q141.32 378.174 141.32 375.049 Q141.32 371.947 139.538 370.257 Q137.755 368.567 134.492 368.567 L128.612 368.567 M123.936 364.725 L134.492 364.725 Q140.302 364.725 143.265 367.364 Q146.251 369.98 146.251 375.049 Q146.251 380.165 143.265 382.78 Q140.302 385.396 134.492 385.396 L128.612 385.396 L128.612 399.285 L123.936 399.285 L123.936 364.725 Z" fill="#000000" fill-rule="nonzero" fill-opacity="1" /><path clip-path="url(#clip610)" d="M130.279 302.676 Q125.186 302.676 122.177 306.472 Q119.191 310.269 119.191 316.819 Q119.191 323.347 122.177 327.143 Q125.186 330.94 130.279 330.94 Q135.371 330.94 138.334 327.143 Q141.32 323.347 141.32 316.819 Q141.32 310.269 138.334 306.472 Q135.371 302.676 130.279 302.676 M136.829 333.44 L142.987 340.176 L137.339 340.176 L132.223 334.643 Q131.459 334.69 131.042 334.713 Q130.649 334.736 130.279 334.736 Q122.987 334.736 118.612 329.875 Q114.26 324.991 114.26 316.819 Q114.26 308.625 118.612 303.764 Q122.987 298.88 130.279 298.88 Q137.547 298.88 141.899 303.764 Q146.251 308.625 146.251 316.819 Q146.251 322.838 143.82 327.12 Q141.413 331.403 136.829 333.44 Z" fill="#000000" fill-rule="nonzero" fill-opacity="1" /><path clip-path="url(#clip610)" d="M135.718 252.641 Q137.223 253.15 138.635 254.817 Q140.07 256.484 141.505 259.4 L146.251 268.845 L141.228 268.845 L136.806 259.979 Q135.093 256.507 133.473 255.372 Q131.876 254.238 129.098 254.238 L124.005 254.238 L124.005 268.845 L119.33 268.845 L119.33 234.285 L129.885 234.285 Q135.811 234.285 138.728 236.761 Q141.644 239.238 141.644 244.238 Q141.644 247.502 140.117 249.655 Q138.612 251.808 135.718 252.641 M124.005 238.127 L124.005 250.396 L129.885 250.396 Q133.265 250.396 134.978 248.845 Q136.714 247.271 136.714 244.238 Q136.714 241.206 134.978 239.678 Q133.265 238.127 129.885 238.127 L124.005 238.127 Z" fill="#000000" fill-rule="nonzero" fill-opacity="1" /><path clip-path="url(#clip610)" d="M144.167 170.199 L144.167 174.759 Q141.505 173.486 139.144 172.861 Q136.783 172.236 134.584 172.236 Q130.765 172.236 128.681 173.717 Q126.621 175.199 126.621 177.93 Q126.621 180.222 127.987 181.402 Q129.376 182.56 133.218 183.277 L136.042 183.856 Q141.274 184.851 143.751 187.374 Q146.251 189.874 146.251 194.087 Q146.251 199.111 142.871 201.703 Q139.515 204.296 133.01 204.296 Q130.556 204.296 127.779 203.74 Q125.024 203.185 122.061 202.097 L122.061 197.282 Q124.908 198.879 127.64 199.689 Q130.371 200.499 133.01 200.499 Q137.015 200.499 139.191 198.925 Q141.366 197.351 141.366 194.435 Q141.366 191.888 139.792 190.453 Q138.242 189.018 134.677 188.3 L131.83 187.745 Q126.598 186.703 124.26 184.481 Q121.922 182.259 121.922 178.3 Q121.922 173.717 125.14 171.078 Q128.38 168.439 134.052 168.439 Q136.482 168.439 139.005 168.879 Q141.529 169.319 144.167 170.199 Z" fill="#000000" fill-rule="nonzero" fill-opacity="1" /><path clip-path="url(#clip610)" d="M16.4842 843.667 L16.4842 803.468 L21.895 803.468 L21.895 820.337 L64.0042 820.337 L64.0042 826.798 L21.895 826.798 L21.895 843.667 L16.4842 843.667 Z" fill="#000000" fill-rule="nonzero" fill-opacity="1" /><path clip-path="url(#clip610)" d="M46.0847 792.105 Q46.0847 799.203 47.7079 801.94 Q49.3312 804.677 53.2461 804.677 Q56.3653 804.677 58.2114 802.64 Q60.0256 800.571 60.0256 797.038 Q60.0256 792.168 56.5881 789.24 Q53.1188 786.28 47.3897 786.28 L46.0847 786.28 L46.0847 792.105 M43.6657 780.424 L64.0042 780.424 L64.0042 786.28 L58.5933 786.28 Q61.8398 788.285 63.3994 791.277 Q64.9272 794.269 64.9272 798.598 Q64.9272 804.072 61.8716 807.319 Q58.7843 810.534 53.6281 810.534 Q47.6125 810.534 44.5569 806.523 Q41.5014 802.481 41.5014 794.492 L41.5014 786.28 L40.9285 786.28 Q36.8862 786.28 34.6901 788.954 Q32.4621 791.596 32.4621 796.402 Q32.4621 799.457 33.1941 802.354 Q33.9262 805.25 35.3903 807.924 L29.9795 807.924 Q28.7381 804.709 28.1334 801.685 Q27.4968 798.661 27.4968 795.797 Q27.4968 788.063 31.5072 784.243 Q35.5176 780.424 43.6657 780.424 Z" fill="#000000" fill-rule="nonzero" fill-opacity="1" /><path clip-path="url(#clip610)" d="M29.4065 745.635 L34.9447 745.635 Q33.6716 748.118 33.035 750.791 Q32.3984 753.465 32.3984 756.33 Q32.3984 760.69 33.7352 762.886 Q35.072 765.051 37.7456 765.051 Q39.7826 765.051 40.9603 763.491 Q42.1061 761.931 43.1565 757.221 L43.6021 755.216 Q44.9389 748.977 47.3897 746.367 Q49.8086 743.725 54.1691 743.725 Q59.1344 743.725 62.0308 747.672 Q64.9272 751.587 64.9272 758.462 Q64.9272 761.327 64.3543 764.446 Q63.8132 767.533 62.6992 770.971 L56.6518 770.971 Q58.3387 767.724 59.198 764.573 Q60.0256 761.422 60.0256 758.335 Q60.0256 754.197 58.6251 751.969 Q57.1929 749.741 54.6147 749.741 Q52.2276 749.741 50.9545 751.364 Q49.6813 752.956 48.5037 758.398 L48.0262 760.435 Q46.8804 765.878 44.5251 768.297 Q42.138 770.716 38.0002 770.716 Q32.9713 770.716 30.2341 767.151 Q27.4968 763.586 27.4968 757.03 Q27.4968 753.783 27.9743 750.919 Q28.4517 748.054 29.4065 745.635 Z" fill="#000000" fill-rule="nonzero" fill-opacity="1" /><path clip-path="url(#clip610)" d="M14.479 734.622 L14.479 728.734 L43.7294 728.734 L28.3562 711.26 L28.3562 703.781 L45.0344 722.687 L64.0042 702.985 L64.0042 710.624 L46.5939 728.734 L64.0042 728.734 L64.0042 734.622 L14.479 734.622 Z" fill="#000000" fill-rule="nonzero" fill-opacity="1" /><path clip-path="url(#clip610)" d="M411.324 35.9153 Q414.12 30.8922 418.008 28.5022 Q421.897 26.1121 427.163 26.1121 Q434.253 26.1121 438.101 31.0947 Q441.949 36.0368 441.949 45.1919 L441.949 72.576 L434.455 72.576 L434.455 45.4349 Q434.455 38.913 432.146 35.7533 Q429.837 32.5936 425.098 32.5936 Q419.305 32.5936 415.942 36.4419 Q412.58 40.2903 412.58 46.9338 L412.58 72.576 L405.086 72.576 L405.086 45.4349 Q405.086 38.8725 402.777 35.7533 Q400.468 32.5936 395.647 32.5936 Q389.936 32.5936 386.573 36.4824 Q383.211 40.3308 383.211 46.9338 L383.211 72.576 L375.717 72.576 L375.717 27.2059 L383.211 27.2059 L383.211 34.2544 Q385.763 30.082 389.328 28.0971 Q392.893 26.1121 397.794 26.1121 Q402.737 26.1121 406.18 28.6237 Q409.664 31.1352 411.324 35.9153 Z" fill="#000000" fill-rule="nonzero" fill-opacity="1" /><path clip-path="url(#clip610)" d="M477.435 49.7694 Q468.402 49.7694 464.918 51.8354 Q461.434 53.9013 461.434 58.8839 Q461.434 62.8538 464.027 65.2034 Q466.66 67.5124 471.156 67.5124 Q477.354 67.5124 481.081 63.1374 Q484.848 58.7219 484.848 51.4303 L484.848 49.7694 L477.435 49.7694 M492.302 46.6907 L492.302 72.576 L484.848 72.576 L484.848 65.6895 Q482.296 69.8214 478.488 71.8063 Q474.681 73.7508 469.171 73.7508 Q462.204 73.7508 458.072 69.8619 Q453.98 65.9325 453.98 59.3701 Q453.98 51.7138 459.085 47.825 Q464.229 43.9361 474.397 43.9361 L484.848 43.9361 L484.848 43.2069 Q484.848 38.0623 481.446 35.2672 Q478.083 32.4315 471.966 32.4315 Q468.078 32.4315 464.391 33.3632 Q460.705 34.295 457.302 36.1584 L457.302 29.2718 Q461.394 27.692 465.242 26.9223 Q469.09 26.1121 472.736 26.1121 Q482.58 26.1121 487.441 31.2163 Q492.302 36.3204 492.302 46.6907 Z" fill="#000000" fill-rule="nonzero" fill-opacity="1" /><path clip-path="url(#clip610)" d="M507.371 9.54393 L514.866 9.54393 L514.866 46.7717 L537.105 27.2059 L546.625 27.2059 L522.562 48.4326 L547.637 72.576 L537.915 72.576 L514.866 50.4176 L514.866 72.576 L507.371 72.576 L507.371 9.54393 Z" fill="#000000" fill-rule="nonzero" fill-opacity="1" /><path clip-path="url(#clip610)" d="M591.549 48.0275 L591.549 51.6733 L557.279 51.6733 Q557.765 59.3701 561.897 63.421 Q566.069 67.4314 573.482 67.4314 Q577.776 67.4314 581.787 66.3781 Q585.837 65.3249 589.807 63.2184 L589.807 70.267 Q585.797 71.9684 581.584 72.8596 Q577.371 73.7508 573.037 73.7508 Q562.18 73.7508 555.82 67.4314 Q549.501 61.1119 549.501 50.3365 Q549.501 39.1965 555.496 32.6746 Q561.532 26.1121 571.74 26.1121 Q580.895 26.1121 586.202 32.0264 Q591.549 37.9003 591.549 48.0275 M584.096 45.84 Q584.015 39.7232 580.652 36.0774 Q577.331 32.4315 571.821 32.4315 Q565.583 32.4315 561.816 35.9558 Q558.089 39.4801 557.522 45.8805 L584.096 45.84 Z" fill="#000000" fill-rule="nonzero" fill-opacity="1" /><path clip-path="url(#clip610)" d="M632.706 28.5427 L632.706 35.5912 Q629.547 33.9709 626.144 33.1607 Q622.741 32.3505 619.095 32.3505 Q613.546 32.3505 610.75 34.0519 Q607.996 35.7533 607.996 39.156 Q607.996 41.7486 609.981 43.2475 Q611.966 44.7058 617.961 46.0426 L620.513 46.6097 Q628.453 48.3111 631.775 51.4303 Q635.137 54.509 635.137 60.0587 Q635.137 66.3781 630.114 70.0644 Q625.131 73.7508 616.381 73.7508 Q612.735 73.7508 608.766 73.0216 Q604.836 72.3329 600.461 70.9151 L600.461 63.2184 Q604.593 65.3654 608.603 66.4591 Q612.614 67.5124 616.543 67.5124 Q621.809 67.5124 624.645 65.73 Q627.481 63.9071 627.481 60.6258 Q627.481 57.5877 625.415 55.9673 Q623.389 54.3469 616.462 52.8481 L613.87 52.2405 Q606.943 50.7821 603.864 47.7845 Q600.785 44.7463 600.785 39.4801 Q600.785 33.0797 605.322 29.5959 Q609.859 26.1121 618.204 26.1121 Q622.336 26.1121 625.982 26.7198 Q629.628 27.3274 632.706 28.5427 Z" fill="#000000" fill-rule="nonzero" fill-opacity="1" /><path clip-path="url(#clip610)" d="M654.217 65.7705 L654.217 89.8329 L646.722 89.8329 L646.722 27.2059 L654.217 27.2059 L654.217 34.0924 Q656.566 30.0415 660.131 28.0971 Q663.736 26.1121 668.719 26.1121 Q676.983 26.1121 682.127 32.6746 Q687.313 39.2371 687.313 49.9314 Q687.313 60.6258 682.127 67.1883 Q676.983 73.7508 668.719 73.7508 Q663.736 73.7508 660.131 71.8063 Q656.566 69.8214 654.217 65.7705 M679.575 49.9314 Q679.575 41.7081 676.173 37.0496 Q672.81 32.3505 666.896 32.3505 Q660.982 32.3505 657.579 37.0496 Q654.217 41.7081 654.217 49.9314 Q654.217 58.1548 657.579 62.8538 Q660.982 67.5124 666.896 67.5124 Q672.81 67.5124 676.173 62.8538 Q679.575 58.1548 679.575 49.9314 Z" fill="#000000" fill-rule="nonzero" fill-opacity="1" /><path clip-path="url(#clip610)" d="M720.287 49.7694 Q711.253 49.7694 707.77 51.8354 Q704.286 53.9013 704.286 58.8839 Q704.286 62.8538 706.878 65.2034 Q709.512 67.5124 714.008 67.5124 Q720.206 67.5124 723.933 63.1374 Q727.7 58.7219 727.7 51.4303 L727.7 49.7694 L720.287 49.7694 M735.154 46.6907 L735.154 72.576 L727.7 72.576 L727.7 65.6895 Q725.148 69.8214 721.34 71.8063 Q717.532 73.7508 712.023 73.7508 Q705.056 73.7508 700.924 69.8619 Q696.832 65.9325 696.832 59.3701 Q696.832 51.7138 701.936 47.825 Q707.081 43.9361 717.249 43.9361 L727.7 43.9361 L727.7 43.2069 Q727.7 38.0623 724.297 35.2672 Q720.935 32.4315 714.818 32.4315 Q710.929 32.4315 707.243 33.3632 Q703.557 34.295 700.154 36.1584 L700.154 29.2718 Q704.245 27.692 708.094 26.9223 Q711.942 26.1121 715.588 26.1121 Q725.432 26.1121 730.293 31.2163 Q735.154 36.3204 735.154 46.6907 Z" fill="#000000" fill-rule="nonzero" fill-opacity="1" /><path clip-path="url(#clip610)" d="M788.221 45.1919 L788.221 72.576 L780.767 72.576 L780.767 45.4349 Q780.767 38.994 778.255 35.7938 Q775.744 32.5936 770.721 32.5936 Q764.685 32.5936 761.201 36.4419 Q757.717 40.2903 757.717 46.9338 L757.717 72.576 L750.223 72.576 L750.223 27.2059 L757.717 27.2059 L757.717 34.2544 Q760.391 30.163 763.996 28.1376 Q767.642 26.1121 772.382 26.1121 Q780.2 26.1121 784.21 30.9732 Q788.221 35.7938 788.221 45.1919 Z" fill="#000000" fill-rule="nonzero" fill-opacity="1" /><path clip-path="url(#clip610)" d="M830.431 34.9026 L882.364 34.9026 L882.364 41.7081 L830.431 41.7081 L830.431 34.9026 M830.431 51.4303 L882.364 51.4303 L882.364 58.3168 L830.431 58.3168 L830.431 51.4303 Z" fill="#000000" fill-rule="nonzero" fill-opacity="1" /><path clip-path="url(#clip610)" d="M924.331 12.096 L963.22 12.096 L963.22 15.5798 L941.264 72.576 L932.716 72.576 L953.376 18.9825 L924.331 18.9825 L924.331 12.096 Z" fill="#000000" fill-rule="nonzero" fill-opacity="1" /><path clip-path="url(#clip610)" d="M977.114 12.096 L1016 12.096 L1016 15.5798 L994.047 72.576 L985.5 72.576 L1006.16 18.9825 L977.114 18.9825 L977.114 12.096 Z" fill="#000000" fill-rule="nonzero" fill-opacity="1" /><path clip-path="url(#clip610)" d="M1032.81 62.2867 L1041.36 62.2867 L1041.36 69.2543 L1034.72 82.2172 L1029.49 82.2172 L1032.81 69.2543 L1032.81 62.2867 Z" fill="#000000" fill-rule="nonzero" fill-opacity="1" /><path clip-path="url(#clip610)" d="M1116.3 28.9478 L1116.3 35.9153 Q1113.14 34.1734 1109.94 33.3227 Q1106.78 32.4315 1103.54 32.4315 Q1096.29 32.4315 1092.28 37.0496 Q1088.27 41.6271 1088.27 49.9314 Q1088.27 58.2358 1092.28 62.8538 Q1096.29 67.4314 1103.54 67.4314 Q1106.78 67.4314 1109.94 66.5807 Q1113.14 65.6895 1116.3 63.9476 L1116.3 70.8341 Q1113.18 72.2924 1109.82 73.0216 Q1106.5 73.7508 1102.73 73.7508 Q1092.48 73.7508 1086.45 67.3098 Q1080.41 60.8689 1080.41 49.9314 Q1080.41 38.832 1086.49 32.472 Q1092.61 26.1121 1103.22 26.1121 Q1106.66 26.1121 1109.94 26.8413 Q1113.22 27.5299 1116.3 28.9478 Z" fill="#000000" fill-rule="nonzero" fill-opacity="1" /><path clip-path="url(#clip610)" d="M1146.85 32.4315 Q1140.85 32.4315 1137.37 37.1306 Q1133.88 41.7891 1133.88 49.9314 Q1133.88 58.0738 1137.33 62.7728 Q1140.81 67.4314 1146.85 67.4314 Q1152.8 67.4314 1156.29 62.7323 Q1159.77 58.0333 1159.77 49.9314 Q1159.77 41.8701 1156.29 37.1711 Q1152.8 32.4315 1146.85 32.4315 M1146.85 26.1121 Q1156.57 26.1121 1162.12 32.4315 Q1167.67 38.7509 1167.67 49.9314 Q1167.67 61.0714 1162.12 67.4314 Q1156.57 73.7508 1146.85 73.7508 Q1137.08 73.7508 1131.53 67.4314 Q1126.03 61.0714 1126.03 49.9314 Q1126.03 38.7509 1131.53 32.4315 Q1137.08 26.1121 1146.85 26.1121 Z" fill="#000000" fill-rule="nonzero" fill-opacity="1" /><path clip-path="url(#clip610)" d="M1208.95 28.5427 L1208.95 35.5912 Q1205.79 33.9709 1202.39 33.1607 Q1198.98 32.3505 1195.34 32.3505 Q1189.79 32.3505 1186.99 34.0519 Q1184.24 35.7533 1184.24 39.156 Q1184.24 41.7486 1186.22 43.2475 Q1188.21 44.7058 1194.2 46.0426 L1196.75 46.6097 Q1204.69 48.3111 1208.02 51.4303 Q1211.38 54.509 1211.38 60.0587 Q1211.38 66.3781 1206.35 70.0644 Q1201.37 73.7508 1192.62 73.7508 Q1188.98 73.7508 1185.01 73.0216 Q1181.08 72.3329 1176.7 70.9151 L1176.7 63.2184 Q1180.83 65.3654 1184.84 66.4591 Q1188.86 67.5124 1192.78 67.5124 Q1198.05 67.5124 1200.89 65.73 Q1203.72 63.9071 1203.72 60.6258 Q1203.72 57.5877 1201.66 55.9673 Q1199.63 54.3469 1192.7 52.8481 L1190.11 52.2405 Q1183.18 50.7821 1180.11 47.7845 Q1177.03 44.7463 1177.03 39.4801 Q1177.03 33.0797 1181.56 29.5959 Q1186.1 26.1121 1194.45 26.1121 Q1198.58 26.1121 1202.22 26.7198 Q1205.87 27.3274 1208.95 28.5427 Z" fill="#000000" fill-rule="nonzero" fill-opacity="1" /><path clip-path="url(#clip610)" d="M1230.62 14.324 L1230.62 27.2059 L1245.97 27.2059 L1245.97 32.9987 L1230.62 32.9987 L1230.62 57.6282 Q1230.62 63.1779 1232.12 64.7578 Q1233.66 66.3376 1238.32 66.3376 L1245.97 66.3376 L1245.97 72.576 L1238.32 72.576 Q1229.69 72.576 1226.41 69.3758 Q1223.13 66.1351 1223.13 57.6282 L1223.13 32.9987 L1217.66 32.9987 L1217.66 27.2059 L1223.13 27.2059 L1223.13 14.324 L1230.62 14.324 Z" fill="#000000" fill-rule="nonzero" fill-opacity="1" /><path clip-path="url(#clip610)" d="M1283.12 34.9026 L1335.05 34.9026 L1335.05 41.7081 L1283.12 41.7081 L1283.12 34.9026 M1283.12 51.4303 L1335.05 51.4303 L1335.05 58.3168 L1283.12 58.3168 L1283.12 51.4303 Z" fill="#000000" fill-rule="nonzero" fill-opacity="1" /><path clip-path="url(#clip610)" d="M1417.49 16.7545 L1417.49 25.383 Q1413.8 21.1295 1410.36 19.3066 Q1406.96 17.4837 1402.82 17.4837 Q1396.46 17.4837 1392.37 21.5346 Q1388.28 25.5855 1386.98 33.1607 L1410.36 33.1607 L1408.13 38.1433 L1386.34 38.1433 Q1386.26 39.1155 1386.22 40.0472 Q1386.22 40.9789 1386.22 42.3968 Q1386.22 43.6931 1386.22 44.6248 Q1386.26 45.5565 1386.34 46.5287 L1404.4 46.5287 L1402.14 51.5113 L1386.98 51.5113 Q1388.28 59.0865 1392.37 63.1779 Q1396.46 67.2693 1402.82 67.2693 Q1406.96 67.2693 1410.36 65.4464 Q1413.8 63.6235 1417.49 59.3701 L1417.49 67.9175 Q1413.88 70.8341 1410.12 72.2924 Q1406.39 73.7508 1402.5 73.7508 Q1392.9 73.7508 1386.62 67.877 Q1380.38 62.0031 1378.76 51.5113 L1370.21 51.5113 L1372.44 46.5287 L1378.07 46.5287 Q1378.07 45.597 1378.03 44.6653 Q1378.03 43.6931 1378.03 42.3968 Q1378.03 40.9789 1378.03 40.0472 Q1378.07 39.075 1378.07 38.1433 L1370.21 38.1433 L1372.44 33.1607 L1378.76 33.1607 Q1380.38 22.7499 1386.66 16.8761 Q1392.94 11.0023 1402.5 11.0023 Q1406.47 11.0023 1410.2 12.4606 Q1413.96 13.8784 1417.49 16.7545 Z" fill="#000000" fill-rule="nonzero" fill-opacity="1" /><path clip-path="url(#clip610)" d="M1433.29 65.6895 L1446.65 65.6895 L1446.65 19.5497 L1432.11 22.4663 L1432.11 15.0127 L1446.57 12.096 L1454.76 12.096 L1454.76 65.6895 L1468.12 65.6895 L1468.12 72.576 L1433.29 72.576 L1433.29 65.6895 Z" fill="#000000" fill-rule="nonzero" fill-opacity="1" /><path clip-path="url(#clip610)" d="M1491.7 65.6895 L1520.26 65.6895 L1520.26 72.576 L1481.86 72.576 L1481.86 65.6895 Q1486.52 60.8689 1494.54 52.7671 Q1502.6 44.6248 1504.66 42.2752 Q1508.59 37.8598 1510.13 34.8216 Q1511.71 31.7429 1511.71 28.7857 Q1511.71 23.9651 1508.31 20.927 Q1504.95 17.8888 1499.52 17.8888 Q1495.67 17.8888 1491.38 19.2256 Q1487.12 20.5624 1482.26 23.2765 L1482.26 15.0127 Q1487.2 13.0277 1491.5 12.015 Q1495.79 11.0023 1499.36 11.0023 Q1508.75 11.0023 1514.35 15.7013 Q1519.94 20.4004 1519.94 28.2591 Q1519.94 31.9859 1518.52 35.3482 Q1517.14 38.6699 1513.45 43.2069 Q1512.44 44.3817 1507.01 50.0125 Q1501.58 55.6027 1491.7 65.6895 Z" fill="#000000" fill-rule="nonzero" fill-opacity="1" /><path clip-path="url(#clip610)" d="M1559.92 19.2256 L1539.26 51.5113 L1559.92 51.5113 L1559.92 19.2256 M1557.77 12.096 L1568.06 12.096 L1568.06 51.5113 L1576.69 51.5113 L1576.69 58.3168 L1568.06 58.3168 L1568.06 72.576 L1559.92 72.576 L1559.92 58.3168 L1532.61 58.3168 L1532.61 50.4176 L1557.77 12.096 Z" fill="#000000" fill-rule="nonzero" fill-opacity="1" /><path clip-path="url(#clip610)" d="M1588.88 9.54393 L1596.38 9.54393 L1596.38 46.7717 L1618.62 27.2059 L1628.14 27.2059 L1604.07 48.4326 L1629.15 72.576 L1619.43 72.576 L1596.38 50.4176 L1596.38 72.576 L1588.88 72.576 L1588.88 9.54393 Z" fill="#000000" fill-rule="nonzero" fill-opacity="1" /><path clip-path="url(#clip610)" d="M1639.11 62.2867 L1647.66 62.2867 L1647.66 69.2543 L1641.02 82.2172 L1635.79 82.2172 L1639.11 69.2543 L1639.11 62.2867 Z" fill="#000000" fill-rule="nonzero" fill-opacity="1" /><path clip-path="url(#clip610)" d="M1697.16 65.7705 L1697.16 89.8329 L1689.67 89.8329 L1689.67 27.2059 L1697.16 27.2059 L1697.16 34.0924 Q1699.51 30.0415 1703.08 28.0971 Q1706.68 26.1121 1711.66 26.1121 Q1719.93 26.1121 1725.07 32.6746 Q1730.26 39.2371 1730.26 49.9314 Q1730.26 60.6258 1725.07 67.1883 Q1719.93 73.7508 1711.66 73.7508 Q1706.68 73.7508 1703.08 71.8063 Q1699.51 69.8214 1697.16 65.7705 M1722.52 49.9314 Q1722.52 41.7081 1719.12 37.0496 Q1715.76 32.3505 1709.84 32.3505 Q1703.93 32.3505 1700.52 37.0496 Q1697.16 41.7081 1697.16 49.9314 Q1697.16 58.1548 1700.52 62.8538 Q1703.93 67.5124 1709.84 67.5124 Q1715.76 67.5124 1719.12 62.8538 Q1722.52 58.1548 1722.52 49.9314 Z" fill="#000000" fill-rule="nonzero" fill-opacity="1" /><path clip-path="url(#clip610)" d="M1781.42 48.0275 L1781.42 51.6733 L1747.15 51.6733 Q1747.64 59.3701 1751.77 63.421 Q1755.94 67.4314 1763.35 67.4314 Q1767.65 67.4314 1771.66 66.3781 Q1775.71 65.3249 1779.68 63.2184 L1779.68 70.267 Q1775.67 71.9684 1771.46 72.8596 Q1767.24 73.7508 1762.91 73.7508 Q1752.05 73.7508 1745.69 67.4314 Q1739.37 61.1119 1739.37 50.3365 Q1739.37 39.1965 1745.37 32.6746 Q1751.4 26.1121 1761.61 26.1121 Q1770.77 26.1121 1776.07 32.0264 Q1781.42 37.9003 1781.42 48.0275 M1773.97 45.84 Q1773.89 39.7232 1770.52 36.0774 Q1767.2 32.4315 1761.69 32.4315 Q1755.45 32.4315 1751.69 35.9558 Q1747.96 39.4801 1747.39 45.8805 L1773.97 45.84 Z" fill="#000000" fill-rule="nonzero" fill-opacity="1" /><path clip-path="url(#clip610)" d="M1811.24 32.4315 Q1805.24 32.4315 1801.76 37.1306 Q1798.27 41.7891 1798.27 49.9314 Q1798.27 58.0738 1801.72 62.7728 Q1805.2 67.4314 1811.24 67.4314 Q1817.19 67.4314 1820.67 62.7323 Q1824.16 58.0333 1824.16 49.9314 Q1824.16 41.8701 1820.67 37.1711 Q1817.19 32.4315 1811.24 32.4315 M1811.24 26.1121 Q1820.96 26.1121 1826.51 32.4315 Q1832.06 38.7509 1832.06 49.9314 Q1832.06 61.0714 1826.51 67.4314 Q1820.96 73.7508 1811.24 73.7508 Q1801.47 73.7508 1795.92 67.4314 Q1790.41 61.0714 1790.41 49.9314 Q1790.41 38.7509 1795.92 32.4315 Q1801.47 26.1121 1811.24 26.1121 Z" fill="#000000" fill-rule="nonzero" fill-opacity="1" /><path clip-path="url(#clip610)" d="M1851.62 65.7705 L1851.62 89.8329 L1844.13 89.8329 L1844.13 27.2059 L1851.62 27.2059 L1851.62 34.0924 Q1853.97 30.0415 1857.54 28.0971 Q1861.14 26.1121 1866.13 26.1121 Q1874.39 26.1121 1879.53 32.6746 Q1884.72 39.2371 1884.72 49.9314 Q1884.72 60.6258 1879.53 67.1883 Q1874.39 73.7508 1866.13 73.7508 Q1861.14 73.7508 1857.54 71.8063 Q1853.97 69.8214 1851.62 65.7705 M1876.98 49.9314 Q1876.98 41.7081 1873.58 37.0496 Q1870.22 32.3505 1864.3 32.3505 Q1858.39 32.3505 1854.99 37.0496 Q1851.62 41.7081 1851.62 49.9314 Q1851.62 58.1548 1854.99 62.8538 Q1858.39 67.5124 1864.3 67.5124 Q1870.22 67.5124 1873.58 62.8538 Q1876.98 58.1548 1876.98 49.9314 Z" fill="#000000" fill-rule="nonzero" fill-opacity="1" /><path clip-path="url(#clip610)" d="M1897.07 9.54393 L1904.53 9.54393 L1904.53 72.576 L1897.07 72.576 L1897.07 9.54393 Z" fill="#000000" fill-rule="nonzero" fill-opacity="1" /><path clip-path="url(#clip610)" d="M1958.93 48.0275 L1958.93 51.6733 L1924.66 51.6733 Q1925.15 59.3701 1929.28 63.421 Q1933.45 67.4314 1940.86 67.4314 Q1945.16 67.4314 1949.17 66.3781 Q1953.22 65.3249 1957.19 63.2184 L1957.19 70.267 Q1953.18 71.9684 1948.97 72.8596 Q1944.75 73.7508 1940.42 73.7508 Q1929.56 73.7508 1923.2 67.4314 Q1916.88 61.1119 1916.88 50.3365 Q1916.88 39.1965 1922.88 32.6746 Q1928.91 26.1121 1939.12 26.1121 Q1948.28 26.1121 1953.58 32.0264 Q1958.93 37.9003 1958.93 48.0275 M1951.48 45.84 Q1951.4 39.7232 1948.03 36.0774 Q1944.71 32.4315 1939.2 32.4315 Q1932.97 32.4315 1929.2 35.9558 Q1925.47 39.4801 1924.9 45.8805 L1951.48 45.84 Z" fill="#000000" fill-rule="nonzero" fill-opacity="1" /><path clip-path="url(#clip610)" d="M1998.51 34.9026 L2050.44 34.9026 L2050.44 41.7081 L1998.51 41.7081 L1998.51 34.9026 M1998.51 51.4303 L2050.44 51.4303 L2050.44 58.3168 L1998.51 58.3168 L1998.51 51.4303 Z" fill="#000000" fill-rule="nonzero" fill-opacity="1" /><path clip-path="url(#clip610)" d="M2069.52 65.6895 L2082.89 65.6895 L2082.89 19.5497 L2068.35 22.4663 L2068.35 15.0127 L2082.81 12.096 L2090.99 12.096 L2090.99 65.6895 L2104.36 65.6895 L2104.36 72.576 L2069.52 72.576 L2069.52 65.6895 Z" fill="#000000" fill-rule="nonzero" fill-opacity="1" /><path clip-path="url(#clip610)" d="M2138.39 17.4837 Q2132.07 17.4837 2128.87 23.7221 Q2125.71 29.92 2125.71 42.3968 Q2125.71 54.833 2128.87 61.0714 Q2132.07 67.2693 2138.39 67.2693 Q2144.75 67.2693 2147.91 61.0714 Q2151.11 54.833 2151.11 42.3968 Q2151.11 29.92 2147.91 23.7221 Q2144.75 17.4837 2138.39 17.4837 M2138.39 11.0023 Q2148.55 11.0023 2153.9 19.0636 Q2159.29 27.0843 2159.29 42.3968 Q2159.29 57.6687 2153.9 65.73 Q2148.55 73.7508 2138.39 73.7508 Q2128.22 73.7508 2122.83 65.73 Q2117.48 57.6687 2117.48 42.3968 Q2117.48 27.0843 2122.83 19.0636 Q2128.22 11.0023 2138.39 11.0023 Z" fill="#000000" fill-rule="nonzero" fill-opacity="1" /><path clip-path="url(#clip611)" d="M243.68 1386.4 L509.608 1386.4 L509.608 1334.22 L243.68 1334.22 L243.68 1386.4  Z" fill="#20326c" fill-rule="evenodd" fill-opacity="1"/>
<polyline clip-path="url(#clip611)" style="stroke:#000000; stroke-linecap:round; stroke-linejoin:round; stroke-width:0; stroke-opacity:1; fill:none" points="243.68,1386.4 509.608,1386.4 509.608,1334.22 243.68,1334.22 243.68,1386.4 "/>
<path clip-path="url(#clip611)" d="M243.68 1321.18 L403.237 1321.18 L403.237 1269 L243.68 1269 L243.68 1321.18  Z" fill="#a0b1ec" fill-rule="evenodd" fill-opacity="1"/>
<polyline clip-path="url(#clip611)" style="stroke:#000000; stroke-linecap:round; stroke-linejoin:round; stroke-width:0; stroke-opacity:1; fill:none" points="243.68,1321.18 403.237,1321.18 403.237,1269 243.68,1269 243.68,1321.18 "/>
<path clip-path="url(#clip611)" d="M509.608 1255.96 L642.572 1255.96 L642.572 1203.78 L509.608 1203.78 L509.608 1255.96  Z" fill="#a0b1ec" fill-rule="evenodd" fill-opacity="1"/>
<polyline clip-path="url(#clip611)" style="stroke:#000000; stroke-linecap:round; stroke-linejoin:round; stroke-width:0; stroke-opacity:1; fill:none" points="509.608,1255.96 642.572,1255.96 642.572,1203.78 509.608,1203.78 509.608,1255.96 "/>
<path clip-path="url(#clip611)" d="M509.608 1190.74 L642.572 1190.74 L642.572 1138.56 L509.608 1138.56 L509.608 1190.74  Z" fill="#20326c" fill-rule="evenodd" fill-opacity="1"/>
<polyline clip-path="url(#clip611)" style="stroke:#000000; stroke-linecap:round; stroke-linejoin:round; stroke-width:0; stroke-opacity:1; fill:none" points="509.608,1190.74 642.572,1190.74 642.572,1138.56 509.608,1138.56 509.608,1190.74 "/>
<path clip-path="url(#clip611)" d="M642.572 1125.51 L828.722 1125.51 L828.722 1073.34 L642.572 1073.34 L642.572 1125.51  Z" fill="#20326c" fill-rule="evenodd" fill-opacity="1"/>
<polyline clip-path="url(#clip611)" style="stroke:#000000; stroke-linecap:round; stroke-linejoin:round; stroke-width:0; stroke-opacity:1; fill:none" points="642.572,1125.51 828.722,1125.51 828.722,1073.34 642.572,1073.34 642.572,1125.51 "/>
<path clip-path="url(#clip611)" d="M748.944 1060.29 L961.686 1060.29 L961.686 1008.12 L748.944 1008.12 L748.944 1060.29  Z" fill="#a0b1ec" fill-rule="evenodd" fill-opacity="1"/>
<polyline clip-path="url(#clip611)" style="stroke:#000000; stroke-linecap:round; stroke-linejoin:round; stroke-width:0; stroke-opacity:1; fill:none" points="748.944,1060.29 961.686,1060.29 961.686,1008.12 748.944,1008.12 748.944,1060.29 "/>
<path clip-path="url(#clip611)" d="M961.686 995.075 L1280.8 995.075 L1280.8 942.898 L961.686 942.898 L961.686 995.075  Z" fill="#a0b1ec" fill-rule="evenodd" fill-opacity="1"/>
<polyline clip-path="url(#clip611)" style="stroke:#000000; stroke-linecap:round; stroke-linejoin:round; stroke-width:0; stroke-opacity:1; fill:none" points="961.686,995.075 1280.8,995.075 1280.8,942.898 961.686,942.898 961.686,995.075 "/>
<path clip-path="url(#clip611)" d="M1280.8 929.854 L1387.17 929.854 L1387.17 877.678 L1280.8 877.678 L1280.8 929.854  Z" fill="#a0b1ec" fill-rule="evenodd" fill-opacity="1"/>
<polyline clip-path="url(#clip611)" style="stroke:#000000; stroke-linecap:round; stroke-linejoin:round; stroke-width:0; stroke-opacity:1; fill:none" points="1280.8,929.854 1387.17,929.854 1387.17,877.678 1280.8,877.678 1280.8,929.854 "/>
<path clip-path="url(#clip611)" d="M828.722 864.634 L1307.39 864.634 L1307.39 812.458 L828.722 812.458 L828.722 864.634  Z" fill="#20326c" fill-rule="evenodd" fill-opacity="1"/>
<polyline clip-path="url(#clip611)" style="stroke:#000000; stroke-linecap:round; stroke-linejoin:round; stroke-width:0; stroke-opacity:1; fill:none" points="828.722,864.634 1307.39,864.634 1307.39,812.458 828.722,812.458 828.722,864.634 "/>
<path clip-path="url(#clip611)" d="M1307.39 799.414 L1520.14 799.414 L1520.14 747.238 L1307.39 747.238 L1307.39 799.414  Z" fill="#20326c" fill-rule="evenodd" fill-opacity="1"/>
<polyline clip-path="url(#clip611)" style="stroke:#000000; stroke-linecap:round; stroke-linejoin:round; stroke-width:0; stroke-opacity:1; fill:none" points="1307.39,799.414 1520.14,799.414 1520.14,747.238 1307.39,747.238 1307.39,799.414 "/>
<path clip-path="url(#clip611)" d="M1520.14 734.194 L1599.91 734.194 L1599.91 682.018 L1520.14 682.018 L1520.14 734.194  Z" fill="#20326c" fill-rule="evenodd" fill-opacity="1"/>
<polyline clip-path="url(#clip611)" style="stroke:#000000; stroke-linecap:round; stroke-linejoin:round; stroke-width:0; stroke-opacity:1; fill:none" points="1520.14,734.194 1599.91,734.194 1599.91,682.018 1520.14,682.018 1520.14,734.194 "/>
<path clip-path="url(#clip611)" d="M1919.03 668.974 L2078.58 668.974 L2078.58 616.798 L1919.03 616.798 L1919.03 668.974  Z" fill="#a0b1ec" fill-rule="evenodd" fill-opacity="1"/>
<polyline clip-path="url(#clip611)" style="stroke:#000000; stroke-linecap:round; stroke-linejoin:round; stroke-width:0; stroke-opacity:1; fill:none" points="1919.03,668.974 2078.58,668.974 2078.58,616.798 1919.03,616.798 1919.03,668.974 "/>
<path clip-path="url(#clip611)" d="M1599.91 603.754 L1626.51 603.754 L1626.51 551.577 L1599.91 551.577 L1599.91 603.754  Z" fill="#4063d8" fill-rule="evenodd" fill-opacity="1"/>
<polyline clip-path="url(#clip611)" style="stroke:#000000; stroke-linecap:round; stroke-linejoin:round; stroke-width:0; stroke-opacity:1; fill:none" points="1599.91,603.754 1626.51,603.754 1626.51,551.577 1599.91,551.577 1599.91,603.754 "/>
<path clip-path="url(#clip611)" d="M1972.21 538.533 L2105.18 538.533 L2105.18 486.357 L1972.21 486.357 L1972.21 538.533  Z" fill="#a0b1ec" fill-rule="evenodd" fill-opacity="1"/>
<polyline clip-path="url(#clip611)" style="stroke:#000000; stroke-linecap:round; stroke-linejoin:round; stroke-width:0; stroke-opacity:1; fill:none" points="1972.21,538.533 2105.18,538.533 2105.18,486.357 1972.21,486.357 1972.21,538.533 "/>
<path clip-path="url(#clip611)" d="M2105.18 473.313 L2211.55 473.313 L2211.55 421.137 L2105.18 421.137 L2105.18 473.313  Z" fill="#a0b1ec" fill-rule="evenodd" fill-opacity="1"/>
<polyline clip-path="url(#clip611)" style="stroke:#000000; stroke-linecap:round; stroke-linejoin:round; stroke-width:0; stroke-opacity:1; fill:none" points="2105.18,473.313 2211.55,473.313 2211.55,421.137 2105.18,421.137 2105.18,473.313 "/>
<path clip-path="url(#clip611)" d="M2105.18 408.093 L2184.96 408.093 L2184.96 355.917 L2105.18 355.917 L2105.18 408.093  Z" fill="#a0b1ec" fill-rule="evenodd" fill-opacity="1"/>
<polyline clip-path="url(#clip611)" style="stroke:#000000; stroke-linecap:round; stroke-linejoin:round; stroke-width:0; stroke-opacity:1; fill:none" points="2105.18,408.093 2184.96,408.093 2184.96,355.917 2105.18,355.917 2105.18,408.093 "/>
<path clip-path="url(#clip611)" d="M1626.51 342.873 L2291.33 342.873 L2291.33 290.697 L1626.51 290.697 L1626.51 342.873  Z" fill="#20326c" fill-rule="evenodd" fill-opacity="1"/>
<polyline clip-path="url(#clip611)" style="stroke:#000000; stroke-linecap:round; stroke-linejoin:round; stroke-width:0; stroke-opacity:1; fill:none" points="1626.51,342.873 2291.33,342.873 2291.33,290.697 1626.51,290.697 1626.51,342.873 "/>
<path clip-path="url(#clip611)" d="M2211.55 277.653 L2264.73 277.653 L2264.73 225.476 L2211.55 225.476 L2211.55 277.653  Z" fill="#a0b1ec" fill-rule="evenodd" fill-opacity="1"/>
<polyline clip-path="url(#clip611)" style="stroke:#000000; stroke-linecap:round; stroke-linejoin:round; stroke-width:0; stroke-opacity:1; fill:none" points="2211.55,277.653 2264.73,277.653 2264.73,225.476 2211.55,225.476 2211.55,277.653 "/>
<path clip-path="url(#clip611)" d="M2291.33 212.432 L2291.33 212.432 L2291.33 160.256 L2291.33 160.256 L2291.33 212.432  Z" fill="#a0b1ec" fill-rule="evenodd" fill-opacity="1"/>
<polyline clip-path="url(#clip611)" style="stroke:#000000; stroke-linecap:round; stroke-linejoin:round; stroke-width:0; stroke-opacity:1; fill:none" points="2291.33,212.432 2291.33,212.432 2291.33,160.256 2291.33,212.432 "/>
</svg>
