<?xml version="1.0" encoding="utf-8"?>
<svg xmlns="http://www.w3.org/2000/svg" xmlns:xlink="http://www.w3.org/1999/xlink" width="600" height="400" viewBox="0 0 2400 1600">
<defs>
  <clipPath id="clip740">
    <rect x="0" y="0" width="2400" height="1600"/>
  </clipPath>
</defs>
<path clip-path="url(#clip740)" d="M0 1600 L2400 1600 L2400 0 L0 0  Z" fill="#ffffff" fill-rule="evenodd" fill-opacity="1"/>
<defs>
  <clipPath id="clip741">
    <rect x="480" y="0" width="1681" height="1600"/>
  </clipPath>
</defs>
<path clip-path="url(#clip740)" d="M262.551 1423.18 L1166.97 1423.18 L1166.97 123.472 L262.551 123.472  Z" fill="#ffffff" fill-rule="evenodd" fill-opacity="1"/>
<defs>
  <clipPath id="clip742">
    <rect x="262" y="123" width="905" height="1301"/>
  </clipPath>
</defs>
<polyline clip-path="url(#clip742)" style="stroke:#000000; stroke-linecap:round; stroke-linejoin:round; stroke-width:2; stroke-opacity:0.1; fill:none" points="382.951,1423.18 382.951,123.472 "/>
<polyline clip-path="url(#clip742)" style="stroke:#000000; stroke-linecap:round; stroke-linejoin:round; stroke-width:2; stroke-opacity:0.1; fill:none" points="619.957,1423.18 619.957,123.472 "/>
<polyline clip-path="url(#clip742)" style="stroke:#000000; stroke-linecap:round; stroke-linejoin:round; stroke-width:2; stroke-opacity:0.1; fill:none" points="856.964,1423.18 856.964,123.472 "/>
<polyline clip-path="url(#clip742)" style="stroke:#000000; stroke-linecap:round; stroke-linejoin:round; stroke-width:2; stroke-opacity:0.1; fill:none" points="1093.97,1423.18 1093.97,123.472 "/>
<polyline clip-path="url(#clip740)" style="stroke:#000000; stroke-linecap:round; stroke-linejoin:round; stroke-width:4; stroke-opacity:1; fill:none" points="262.551,1423.18 1166.97,1423.18 "/>
<polyline clip-path="url(#clip740)" style="stroke:#000000; stroke-linecap:round; stroke-linejoin:round; stroke-width:4; stroke-opacity:1; fill:none" points="382.951,1423.18 382.951,1404.28 "/>
<polyline clip-path="url(#clip740)" style="stroke:#000000; stroke-linecap:round; stroke-linejoin:round; stroke-width:4; stroke-opacity:1; fill:none" points="619.957,1423.18 619.957,1404.28 "/>
<polyline clip-path="url(#clip740)" style="stroke:#000000; stroke-linecap:round; stroke-linejoin:round; stroke-width:4; stroke-opacity:1; fill:none" points="856.964,1423.18 856.964,1404.28 "/>
<polyline clip-path="url(#clip740)" style="stroke:#000000; stroke-linecap:round; stroke-linejoin:round; stroke-width:4; stroke-opacity:1; fill:none" points="1093.97,1423.18 1093.97,1404.28 "/>
<path clip-path="url(#clip740)" d="M342.569 1451.02 L360.925 1451.02 L360.925 1454.96 L346.851 1454.96 L346.851 1463.43 Q347.87 1463.08 348.888 1462.92 Q349.907 1462.73 350.925 1462.73 Q356.712 1462.73 360.092 1465.9 Q363.472 1469.08 363.472 1474.49 Q363.472 1480.07 359.999 1483.17 Q356.527 1486.25 350.208 1486.25 Q348.032 1486.25 345.763 1485.88 Q343.518 1485.51 341.111 1484.77 L341.111 1480.07 Q343.194 1481.2 345.416 1481.76 Q347.638 1482.32 350.115 1482.32 Q354.12 1482.32 356.458 1480.21 Q358.796 1478.1 358.796 1474.49 Q358.796 1470.88 356.458 1468.77 Q354.12 1466.67 350.115 1466.67 Q348.24 1466.67 346.365 1467.08 Q344.513 1467.5 342.569 1468.38 L342.569 1451.02 Z" fill="#000000" fill-rule="nonzero" fill-opacity="1" /><path clip-path="url(#clip740)" d="M382.684 1454.1 Q379.073 1454.1 377.245 1457.66 Q375.439 1461.2 375.439 1468.33 Q375.439 1475.44 377.245 1479.01 Q379.073 1482.55 382.684 1482.55 Q386.319 1482.55 388.124 1479.01 Q389.953 1475.44 389.953 1468.33 Q389.953 1461.2 388.124 1457.66 Q386.319 1454.1 382.684 1454.1 M382.684 1450.39 Q388.495 1450.39 391.55 1455 Q394.629 1459.58 394.629 1468.33 Q394.629 1477.06 391.55 1481.67 Q388.495 1486.25 382.684 1486.25 Q376.874 1486.25 373.796 1481.67 Q370.74 1477.06 370.74 1468.33 Q370.74 1459.58 373.796 1455 Q376.874 1450.39 382.684 1450.39 Z" fill="#000000" fill-rule="nonzero" fill-opacity="1" /><path clip-path="url(#clip740)" d="M412.846 1454.1 Q409.235 1454.1 407.407 1457.66 Q405.601 1461.2 405.601 1468.33 Q405.601 1475.44 407.407 1479.01 Q409.235 1482.55 412.846 1482.55 Q416.481 1482.55 418.286 1479.01 Q420.115 1475.44 420.115 1468.33 Q420.115 1461.2 418.286 1457.66 Q416.481 1454.1 412.846 1454.1 M412.846 1450.39 Q418.656 1450.39 421.712 1455 Q424.791 1459.58 424.791 1468.33 Q424.791 1477.06 421.712 1481.67 Q418.656 1486.25 412.846 1486.25 Q407.036 1486.25 403.957 1481.67 Q400.902 1477.06 400.902 1468.33 Q400.902 1459.58 403.957 1455 Q407.036 1450.39 412.846 1450.39 Z" fill="#000000" fill-rule="nonzero" fill-opacity="1" /><path clip-path="url(#clip740)" d="M564.483 1481.64 L572.122 1481.64 L572.122 1455.28 L563.812 1456.95 L563.812 1452.69 L572.076 1451.02 L576.752 1451.02 L576.752 1481.64 L584.39 1481.64 L584.39 1485.58 L564.483 1485.58 L564.483 1481.64 Z" fill="#000000" fill-rule="nonzero" fill-opacity="1" /><path clip-path="url(#clip740)" d="M603.835 1454.1 Q600.224 1454.1 598.395 1457.66 Q596.589 1461.2 596.589 1468.33 Q596.589 1475.44 598.395 1479.01 Q600.224 1482.55 603.835 1482.55 Q607.469 1482.55 609.275 1479.01 Q611.103 1475.44 611.103 1468.33 Q611.103 1461.2 609.275 1457.66 Q607.469 1454.1 603.835 1454.1 M603.835 1450.39 Q609.645 1450.39 612.7 1455 Q615.779 1459.58 615.779 1468.33 Q615.779 1477.06 612.7 1481.67 Q609.645 1486.25 603.835 1486.25 Q598.025 1486.25 594.946 1481.67 Q591.89 1477.06 591.89 1468.33 Q591.89 1459.58 594.946 1455 Q598.025 1450.39 603.835 1450.39 Z" fill="#000000" fill-rule="nonzero" fill-opacity="1" /><path clip-path="url(#clip740)" d="M633.997 1454.1 Q630.386 1454.1 628.557 1457.66 Q626.751 1461.2 626.751 1468.33 Q626.751 1475.44 628.557 1479.01 Q630.386 1482.55 633.997 1482.55 Q637.631 1482.55 639.436 1479.01 Q641.265 1475.44 641.265 1468.33 Q641.265 1461.2 639.436 1457.66 Q637.631 1454.1 633.997 1454.1 M633.997 1450.39 Q639.807 1450.39 642.862 1455 Q645.941 1459.58 645.941 1468.33 Q645.941 1477.06 642.862 1481.67 Q639.807 1486.25 633.997 1486.25 Q628.186 1486.25 625.108 1481.67 Q622.052 1477.06 622.052 1468.33 Q622.052 1459.58 625.108 1455 Q628.186 1450.39 633.997 1450.39 Z" fill="#000000" fill-rule="nonzero" fill-opacity="1" /><path clip-path="url(#clip740)" d="M664.158 1454.1 Q660.547 1454.1 658.719 1457.66 Q656.913 1461.2 656.913 1468.33 Q656.913 1475.44 658.719 1479.01 Q660.547 1482.55 664.158 1482.55 Q667.793 1482.55 669.598 1479.01 Q671.427 1475.44 671.427 1468.33 Q671.427 1461.2 669.598 1457.66 Q667.793 1454.1 664.158 1454.1 M664.158 1450.39 Q669.969 1450.39 673.024 1455 Q676.103 1459.58 676.103 1468.33 Q676.103 1477.06 673.024 1481.67 Q669.969 1486.25 664.158 1486.25 Q658.348 1486.25 655.27 1481.67 Q652.214 1477.06 652.214 1468.33 Q652.214 1459.58 655.27 1455 Q658.348 1450.39 664.158 1450.39 Z" fill="#000000" fill-rule="nonzero" fill-opacity="1" /><path clip-path="url(#clip740)" d="M801.49 1481.64 L809.129 1481.64 L809.129 1455.28 L800.818 1456.95 L800.818 1452.69 L809.082 1451.02 L813.758 1451.02 L813.758 1481.64 L821.397 1481.64 L821.397 1485.58 L801.49 1485.58 L801.49 1481.64 Z" fill="#000000" fill-rule="nonzero" fill-opacity="1" /><path clip-path="url(#clip740)" d="M830.888 1451.02 L849.244 1451.02 L849.244 1454.96 L835.17 1454.96 L835.17 1463.43 Q836.189 1463.08 837.207 1462.92 Q838.226 1462.73 839.244 1462.73 Q845.031 1462.73 848.411 1465.9 Q851.79 1469.08 851.79 1474.49 Q851.79 1480.07 848.318 1483.17 Q844.846 1486.25 838.527 1486.25 Q836.351 1486.25 834.082 1485.88 Q831.837 1485.51 829.429 1484.77 L829.429 1480.07 Q831.513 1481.2 833.735 1481.76 Q835.957 1482.32 838.434 1482.32 Q842.439 1482.32 844.777 1480.21 Q847.115 1478.1 847.115 1474.49 Q847.115 1470.88 844.777 1468.77 Q842.439 1466.67 838.434 1466.67 Q836.559 1466.67 834.684 1467.08 Q832.832 1467.5 830.888 1468.38 L830.888 1451.02 Z" fill="#000000" fill-rule="nonzero" fill-opacity="1" /><path clip-path="url(#clip740)" d="M871.003 1454.1 Q867.392 1454.1 865.564 1457.66 Q863.758 1461.2 863.758 1468.33 Q863.758 1475.44 865.564 1479.01 Q867.392 1482.55 871.003 1482.55 Q874.638 1482.55 876.443 1479.01 Q878.272 1475.44 878.272 1468.33 Q878.272 1461.2 876.443 1457.66 Q874.638 1454.1 871.003 1454.1 M871.003 1450.39 Q876.813 1450.39 879.869 1455 Q882.948 1459.58 882.948 1468.33 Q882.948 1477.06 879.869 1481.67 Q876.813 1486.25 871.003 1486.25 Q865.193 1486.25 862.114 1481.67 Q859.059 1477.06 859.059 1468.33 Q859.059 1459.58 862.114 1455 Q865.193 1450.39 871.003 1450.39 Z" fill="#000000" fill-rule="nonzero" fill-opacity="1" /><path clip-path="url(#clip740)" d="M901.165 1454.1 Q897.554 1454.1 895.725 1457.66 Q893.92 1461.2 893.92 1468.33 Q893.92 1475.44 895.725 1479.01 Q897.554 1482.55 901.165 1482.55 Q904.799 1482.55 906.605 1479.01 Q908.434 1475.44 908.434 1468.33 Q908.434 1461.2 906.605 1457.66 Q904.799 1454.1 901.165 1454.1 M901.165 1450.39 Q906.975 1450.39 910.031 1455 Q913.11 1459.58 913.11 1468.33 Q913.11 1477.06 910.031 1481.67 Q906.975 1486.25 901.165 1486.25 Q895.355 1486.25 892.276 1481.67 Q889.221 1477.06 889.221 1468.33 Q889.221 1459.58 892.276 1455 Q895.355 1450.39 901.165 1450.39 Z" fill="#000000" fill-rule="nonzero" fill-opacity="1" /><path clip-path="url(#clip740)" d="M1042.58 1481.64 L1058.9 1481.64 L1058.9 1485.58 L1036.96 1485.58 L1036.96 1481.64 Q1039.62 1478.89 1044.2 1474.26 Q1048.81 1469.61 1049.99 1468.27 Q1052.23 1465.74 1053.11 1464.01 Q1054.02 1462.25 1054.02 1460.56 Q1054.02 1457.8 1052.07 1456.07 Q1050.15 1454.33 1047.05 1454.33 Q1044.85 1454.33 1042.4 1455.09 Q1039.97 1455.86 1037.19 1457.41 L1037.19 1452.69 Q1040.01 1451.55 1042.47 1450.97 Q1044.92 1450.39 1046.96 1450.39 Q1052.33 1450.39 1055.52 1453.08 Q1058.72 1455.77 1058.72 1460.26 Q1058.72 1462.39 1057.91 1464.31 Q1057.12 1466.2 1055.01 1468.8 Q1054.43 1469.47 1051.33 1472.69 Q1048.23 1475.88 1042.58 1481.64 Z" fill="#000000" fill-rule="nonzero" fill-opacity="1" /><path clip-path="url(#clip740)" d="M1078.72 1454.1 Q1075.11 1454.1 1073.28 1457.66 Q1071.47 1461.2 1071.47 1468.33 Q1071.47 1475.44 1073.28 1479.01 Q1075.11 1482.55 1078.72 1482.55 Q1082.35 1482.55 1084.16 1479.01 Q1085.98 1475.44 1085.98 1468.33 Q1085.98 1461.2 1084.16 1457.66 Q1082.35 1454.1 1078.72 1454.1 M1078.72 1450.39 Q1084.53 1450.39 1087.58 1455 Q1090.66 1459.58 1090.66 1468.33 Q1090.66 1477.06 1087.58 1481.67 Q1084.53 1486.25 1078.72 1486.25 Q1072.91 1486.25 1069.83 1481.67 Q1066.77 1477.06 1066.77 1468.33 Q1066.77 1459.58 1069.83 1455 Q1072.91 1450.39 1078.72 1450.39 Z" fill="#000000" fill-rule="nonzero" fill-opacity="1" /><path clip-path="url(#clip740)" d="M1108.88 1454.1 Q1105.27 1454.1 1103.44 1457.66 Q1101.63 1461.2 1101.63 1468.33 Q1101.63 1475.44 1103.44 1479.01 Q1105.27 1482.55 1108.88 1482.55 Q1112.51 1482.55 1114.32 1479.01 Q1116.15 1475.44 1116.15 1468.33 Q1116.15 1461.2 1114.32 1457.66 Q1112.51 1454.1 1108.88 1454.1 M1108.88 1450.39 Q1114.69 1450.39 1117.74 1455 Q1120.82 1459.58 1120.82 1468.33 Q1120.82 1477.06 1117.74 1481.67 Q1114.69 1486.25 1108.88 1486.25 Q1103.07 1486.25 1099.99 1481.67 Q1096.93 1477.06 1096.93 1468.33 Q1096.93 1459.58 1099.99 1455 Q1103.07 1450.39 1108.88 1450.39 Z" fill="#000000" fill-rule="nonzero" fill-opacity="1" /><path clip-path="url(#clip740)" d="M1139.04 1454.1 Q1135.43 1454.1 1133.6 1457.66 Q1131.79 1461.2 1131.79 1468.33 Q1131.79 1475.44 1133.6 1479.01 Q1135.43 1482.55 1139.04 1482.55 Q1142.67 1482.55 1144.48 1479.01 Q1146.31 1475.44 1146.31 1468.33 Q1146.31 1461.2 1144.48 1457.66 Q1142.67 1454.1 1139.04 1454.1 M1139.04 1450.39 Q1144.85 1450.39 1147.91 1455 Q1150.98 1459.58 1150.98 1468.33 Q1150.98 1477.06 1147.91 1481.67 Q1144.85 1486.25 1139.04 1486.25 Q1133.23 1486.25 1130.15 1481.67 Q1127.1 1477.06 1127.1 1468.33 Q1127.1 1459.58 1130.15 1455 Q1133.23 1450.39 1139.04 1450.39 Z" fill="#000000" fill-rule="nonzero" fill-opacity="1" /><path clip-path="url(#clip740)" d="M589.133 1525.81 L589.133 1562.76 L596.899 1562.76 Q606.734 1562.76 611.285 1558.3 Q615.869 1553.85 615.869 1544.24 Q615.869 1534.69 611.285 1530.26 Q606.734 1525.81 596.899 1525.81 L589.133 1525.81 M582.703 1520.52 L595.912 1520.52 Q609.726 1520.52 616.187 1526.28 Q622.648 1532.01 622.648 1544.24 Q622.648 1556.52 616.155 1562.28 Q609.662 1568.04 595.912 1568.04 L582.703 1568.04 L582.703 1520.52 Z" fill="#000000" fill-rule="nonzero" fill-opacity="1" /><path clip-path="url(#clip740)" d="M663.134 1548.76 L663.134 1551.62 L636.207 1551.62 Q636.589 1557.67 639.836 1560.85 Q643.114 1564 648.939 1564 Q652.312 1564 655.463 1563.17 Q658.646 1562.35 661.765 1560.69 L661.765 1566.23 Q658.614 1567.57 655.304 1568.27 Q651.994 1568.97 648.588 1568.97 Q640.058 1568.97 635.061 1564 Q630.096 1559.04 630.096 1550.57 Q630.096 1541.82 634.807 1536.69 Q639.549 1531.54 647.57 1531.54 Q654.763 1531.54 658.933 1536.18 Q663.134 1540.8 663.134 1548.76 M657.278 1547.04 Q657.214 1542.23 654.572 1539.37 Q651.962 1536.5 647.634 1536.5 Q642.732 1536.5 639.772 1539.27 Q636.844 1542.04 636.398 1547.07 L657.278 1547.04 Z" fill="#000000" fill-rule="nonzero" fill-opacity="1" /><path clip-path="url(#clip740)" d="M700.501 1539.24 Q702.697 1535.29 705.753 1533.41 Q708.808 1531.54 712.946 1531.54 Q718.516 1531.54 721.539 1535.45 Q724.563 1539.33 724.563 1546.53 L724.563 1568.04 L718.675 1568.04 L718.675 1546.72 Q718.675 1541.59 716.861 1539.11 Q715.046 1536.63 711.323 1536.63 Q706.771 1536.63 704.129 1539.65 Q701.488 1542.68 701.488 1547.9 L701.488 1568.04 L695.599 1568.04 L695.599 1546.72 Q695.599 1541.56 693.785 1539.11 Q691.971 1536.63 688.183 1536.63 Q683.695 1536.63 681.054 1539.68 Q678.412 1542.71 678.412 1547.9 L678.412 1568.04 L672.524 1568.04 L672.524 1532.4 L678.412 1532.4 L678.412 1537.93 Q680.417 1534.66 683.218 1533.1 Q686.019 1531.54 689.87 1531.54 Q693.753 1531.54 696.459 1533.51 Q699.196 1535.48 700.501 1539.24 Z" fill="#000000" fill-rule="nonzero" fill-opacity="1" /><path clip-path="url(#clip740)" d="M752.445 1550.12 Q745.347 1550.12 742.61 1551.75 Q739.873 1553.37 739.873 1557.29 Q739.873 1560.4 741.91 1562.25 Q743.979 1564.07 747.512 1564.07 Q752.381 1564.07 755.31 1560.63 Q758.27 1557.16 758.27 1551.43 L758.27 1550.12 L752.445 1550.12 M764.126 1547.71 L764.126 1568.04 L758.27 1568.04 L758.27 1562.63 Q756.264 1565.88 753.273 1567.44 Q750.281 1568.97 745.952 1568.97 Q740.477 1568.97 737.231 1565.91 Q734.016 1562.82 734.016 1557.67 Q734.016 1551.65 738.027 1548.6 Q742.069 1545.54 750.058 1545.54 L758.27 1545.54 L758.27 1544.97 Q758.27 1540.93 755.596 1538.73 Q752.954 1536.5 748.148 1536.5 Q745.093 1536.5 742.196 1537.23 Q739.3 1537.97 736.626 1539.43 L736.626 1534.02 Q739.841 1532.78 742.865 1532.17 Q745.888 1531.54 748.753 1531.54 Q756.487 1531.54 760.307 1535.55 Q764.126 1539.56 764.126 1547.71 Z" fill="#000000" fill-rule="nonzero" fill-opacity="1" /><path clip-path="url(#clip740)" d="M805.821 1546.53 L805.821 1568.04 L799.965 1568.04 L799.965 1546.72 Q799.965 1541.66 797.992 1539.14 Q796.018 1536.63 792.072 1536.63 Q787.329 1536.63 784.592 1539.65 Q781.855 1542.68 781.855 1547.9 L781.855 1568.04 L775.966 1568.04 L775.966 1532.4 L781.855 1532.4 L781.855 1537.93 Q783.955 1534.72 786.788 1533.13 Q789.653 1531.54 793.376 1531.54 Q799.519 1531.54 802.67 1535.36 Q805.821 1539.14 805.821 1546.53 Z" fill="#000000" fill-rule="nonzero" fill-opacity="1" /><path clip-path="url(#clip740)" d="M840.96 1537.81 L840.96 1518.52 L846.817 1518.52 L846.817 1568.04 L840.96 1568.04 L840.96 1562.7 Q839.114 1565.88 836.281 1567.44 Q833.48 1568.97 829.534 1568.97 Q823.073 1568.97 818.998 1563.81 Q814.956 1558.65 814.956 1550.25 Q814.956 1541.85 818.998 1536.69 Q823.073 1531.54 829.534 1531.54 Q833.48 1531.54 836.281 1533.1 Q839.114 1534.62 840.96 1537.81 M821.004 1550.25 Q821.004 1556.71 823.645 1560.4 Q826.319 1564.07 830.966 1564.07 Q835.613 1564.07 838.287 1560.4 Q840.96 1556.71 840.96 1550.25 Q840.96 1543.79 838.287 1540.13 Q835.613 1536.44 830.966 1536.44 Q826.319 1536.44 823.645 1540.13 Q821.004 1543.79 821.004 1550.25 Z" fill="#000000" fill-rule="nonzero" fill-opacity="1" /><polyline clip-path="url(#clip742)" style="stroke:#000000; stroke-linecap:round; stroke-linejoin:round; stroke-width:2; stroke-opacity:0.1; fill:none" points="262.551,1386.4 1166.97,1386.4 "/>
<polyline clip-path="url(#clip742)" style="stroke:#000000; stroke-linecap:round; stroke-linejoin:round; stroke-width:2; stroke-opacity:0.1; fill:none" points="262.551,1079.86 1166.97,1079.86 "/>
<polyline clip-path="url(#clip742)" style="stroke:#000000; stroke-linecap:round; stroke-linejoin:round; stroke-width:2; stroke-opacity:0.1; fill:none" points="262.551,773.326 1166.97,773.326 "/>
<polyline clip-path="url(#clip742)" style="stroke:#000000; stroke-linecap:round; stroke-linejoin:round; stroke-width:2; stroke-opacity:0.1; fill:none" points="262.551,466.791 1166.97,466.791 "/>
<polyline clip-path="url(#clip742)" style="stroke:#000000; stroke-linecap:round; stroke-linejoin:round; stroke-width:2; stroke-opacity:0.1; fill:none" points="262.551,160.256 1166.97,160.256 "/>
<polyline clip-path="url(#clip740)" style="stroke:#000000; stroke-linecap:round; stroke-linejoin:round; stroke-width:4; stroke-opacity:1; fill:none" points="262.551,1423.18 262.551,123.472 "/>
<polyline clip-path="url(#clip740)" style="stroke:#000000; stroke-linecap:round; stroke-linejoin:round; stroke-width:4; stroke-opacity:1; fill:none" points="262.551,1386.4 281.449,1386.4 "/>
<polyline clip-path="url(#clip740)" style="stroke:#000000; stroke-linecap:round; stroke-linejoin:round; stroke-width:4; stroke-opacity:1; fill:none" points="262.551,1079.86 281.449,1079.86 "/>
<polyline clip-path="url(#clip740)" style="stroke:#000000; stroke-linecap:round; stroke-linejoin:round; stroke-width:4; stroke-opacity:1; fill:none" points="262.551,773.326 281.449,773.326 "/>
<polyline clip-path="url(#clip740)" style="stroke:#000000; stroke-linecap:round; stroke-linejoin:round; stroke-width:4; stroke-opacity:1; fill:none" points="262.551,466.791 281.449,466.791 "/>
<polyline clip-path="url(#clip740)" style="stroke:#000000; stroke-linecap:round; stroke-linejoin:round; stroke-width:4; stroke-opacity:1; fill:none" points="262.551,160.256 281.449,160.256 "/>
<path clip-path="url(#clip740)" d="M214.607 1372.19 Q210.996 1372.19 209.167 1375.76 Q207.362 1379.3 207.362 1386.43 Q207.362 1393.54 209.167 1397.1 Q210.996 1400.64 214.607 1400.64 Q218.241 1400.64 220.047 1397.1 Q221.875 1393.54 221.875 1386.43 Q221.875 1379.3 220.047 1375.76 Q218.241 1372.19 214.607 1372.19 M214.607 1368.49 Q220.417 1368.49 223.473 1373.1 Q226.551 1377.68 226.551 1386.43 Q226.551 1395.16 223.473 1399.76 Q220.417 1404.35 214.607 1404.35 Q208.797 1404.35 205.718 1399.76 Q202.662 1395.16 202.662 1386.43 Q202.662 1377.68 205.718 1373.1 Q208.797 1368.49 214.607 1368.49 Z" fill="#000000" fill-rule="nonzero" fill-opacity="1" /><path clip-path="url(#clip740)" d="M148.311 1093.21 L164.63 1093.21 L164.63 1097.14 L142.686 1097.14 L142.686 1093.21 Q145.348 1090.45 149.931 1085.82 Q154.538 1081.17 155.718 1079.83 Q157.964 1077.3 158.843 1075.57 Q159.746 1073.81 159.746 1072.12 Q159.746 1069.36 157.802 1067.63 Q155.88 1065.89 152.778 1065.89 Q150.579 1065.89 148.126 1066.65 Q145.695 1067.42 142.917 1068.97 L142.917 1064.25 Q145.741 1063.11 148.195 1062.53 Q150.649 1061.96 152.686 1061.96 Q158.056 1061.96 161.251 1064.64 Q164.445 1067.33 164.445 1071.82 Q164.445 1073.95 163.635 1075.87 Q162.848 1077.77 160.741 1080.36 Q160.163 1081.03 157.061 1084.25 Q153.959 1087.44 148.311 1093.21 Z" fill="#000000" fill-rule="nonzero" fill-opacity="1" /><path clip-path="url(#clip740)" d="M174.491 1062.58 L192.848 1062.58 L192.848 1066.52 L178.774 1066.52 L178.774 1074.99 Q179.792 1074.64 180.811 1074.48 Q181.829 1074.29 182.848 1074.29 Q188.635 1074.29 192.014 1077.47 Q195.394 1080.64 195.394 1086.05 Q195.394 1091.63 191.922 1094.73 Q188.45 1097.81 182.13 1097.81 Q179.954 1097.81 177.686 1097.44 Q175.44 1097.07 173.033 1096.33 L173.033 1091.63 Q175.116 1092.77 177.339 1093.32 Q179.561 1093.88 182.038 1093.88 Q186.042 1093.88 188.38 1091.77 Q190.718 1089.66 190.718 1086.05 Q190.718 1082.44 188.38 1080.34 Q186.042 1078.23 182.038 1078.23 Q180.163 1078.23 178.288 1078.65 Q176.436 1079.06 174.491 1079.94 L174.491 1062.58 Z" fill="#000000" fill-rule="nonzero" fill-opacity="1" /><path clip-path="url(#clip740)" d="M214.607 1065.66 Q210.996 1065.66 209.167 1069.22 Q207.362 1072.77 207.362 1079.9 Q207.362 1087 209.167 1090.57 Q210.996 1094.11 214.607 1094.11 Q218.241 1094.11 220.047 1090.57 Q221.875 1087 221.875 1079.9 Q221.875 1072.77 220.047 1069.22 Q218.241 1065.66 214.607 1065.66 M214.607 1061.96 Q220.417 1061.96 223.473 1066.56 Q226.551 1071.15 226.551 1079.9 Q226.551 1088.62 223.473 1093.23 Q220.417 1097.81 214.607 1097.81 Q208.797 1097.81 205.718 1093.23 Q202.662 1088.62 202.662 1079.9 Q202.662 1071.15 205.718 1066.56 Q208.797 1061.96 214.607 1061.96 Z" fill="#000000" fill-rule="nonzero" fill-opacity="1" /><path clip-path="url(#clip740)" d="M144.329 756.046 L162.686 756.046 L162.686 759.981 L148.612 759.981 L148.612 768.453 Q149.63 768.106 150.649 767.944 Q151.667 767.759 152.686 767.759 Q158.473 767.759 161.852 770.93 Q165.232 774.101 165.232 779.518 Q165.232 785.097 161.76 788.199 Q158.288 791.277 151.968 791.277 Q149.792 791.277 147.524 790.907 Q145.279 790.537 142.871 789.796 L142.871 785.097 Q144.954 786.231 147.177 786.787 Q149.399 787.342 151.876 787.342 Q155.88 787.342 158.218 785.236 Q160.556 783.129 160.556 779.518 Q160.556 775.907 158.218 773.801 Q155.88 771.694 151.876 771.694 Q150.001 771.694 148.126 772.111 Q146.274 772.527 144.329 773.407 L144.329 756.046 Z" fill="#000000" fill-rule="nonzero" fill-opacity="1" /><path clip-path="url(#clip740)" d="M184.445 759.125 Q180.834 759.125 179.005 762.689 Q177.2 766.231 177.2 773.361 Q177.2 780.467 179.005 784.032 Q180.834 787.574 184.445 787.574 Q188.079 787.574 189.885 784.032 Q191.713 780.467 191.713 773.361 Q191.713 766.231 189.885 762.689 Q188.079 759.125 184.445 759.125 M184.445 755.421 Q190.255 755.421 193.311 760.027 Q196.389 764.611 196.389 773.361 Q196.389 782.088 193.311 786.694 Q190.255 791.277 184.445 791.277 Q178.635 791.277 175.556 786.694 Q172.501 782.088 172.501 773.361 Q172.501 764.611 175.556 760.027 Q178.635 755.421 184.445 755.421 Z" fill="#000000" fill-rule="nonzero" fill-opacity="1" /><path clip-path="url(#clip740)" d="M214.607 759.125 Q210.996 759.125 209.167 762.689 Q207.362 766.231 207.362 773.361 Q207.362 780.467 209.167 784.032 Q210.996 787.574 214.607 787.574 Q218.241 787.574 220.047 784.032 Q221.875 780.467 221.875 773.361 Q221.875 766.231 220.047 762.689 Q218.241 759.125 214.607 759.125 M214.607 755.421 Q220.417 755.421 223.473 760.027 Q226.551 764.611 226.551 773.361 Q226.551 782.088 223.473 786.694 Q220.417 791.277 214.607 791.277 Q208.797 791.277 205.718 786.694 Q202.662 782.088 202.662 773.361 Q202.662 764.611 205.718 760.027 Q208.797 755.421 214.607 755.421 Z" fill="#000000" fill-rule="nonzero" fill-opacity="1" /><path clip-path="url(#clip740)" d="M143.103 449.511 L165.325 449.511 L165.325 451.502 L152.778 484.071 L147.894 484.071 L159.7 453.446 L143.103 453.446 L143.103 449.511 Z" fill="#000000" fill-rule="nonzero" fill-opacity="1" /><path clip-path="url(#clip740)" d="M174.491 449.511 L192.848 449.511 L192.848 453.446 L178.774 453.446 L178.774 461.918 Q179.792 461.571 180.811 461.409 Q181.829 461.224 182.848 461.224 Q188.635 461.224 192.014 464.395 Q195.394 467.567 195.394 472.983 Q195.394 478.562 191.922 481.664 Q188.45 484.742 182.13 484.742 Q179.954 484.742 177.686 484.372 Q175.44 484.002 173.033 483.261 L173.033 478.562 Q175.116 479.696 177.339 480.252 Q179.561 480.807 182.038 480.807 Q186.042 480.807 188.38 478.701 Q190.718 476.594 190.718 472.983 Q190.718 469.372 188.38 467.266 Q186.042 465.159 182.038 465.159 Q180.163 465.159 178.288 465.576 Q176.436 465.993 174.491 466.872 L174.491 449.511 Z" fill="#000000" fill-rule="nonzero" fill-opacity="1" /><path clip-path="url(#clip740)" d="M214.607 452.59 Q210.996 452.59 209.167 456.155 Q207.362 459.696 207.362 466.826 Q207.362 473.932 209.167 477.497 Q210.996 481.039 214.607 481.039 Q218.241 481.039 220.047 477.497 Q221.875 473.932 221.875 466.826 Q221.875 459.696 220.047 456.155 Q218.241 452.59 214.607 452.59 M214.607 448.886 Q220.417 448.886 223.473 453.493 Q226.551 458.076 226.551 466.826 Q226.551 475.553 223.473 480.159 Q220.417 484.742 214.607 484.742 Q208.797 484.742 205.718 480.159 Q202.662 475.553 202.662 466.826 Q202.662 458.076 205.718 453.493 Q208.797 448.886 214.607 448.886 Z" fill="#000000" fill-rule="nonzero" fill-opacity="1" /><path clip-path="url(#clip740)" d="M114.931 173.601 L122.57 173.601 L122.57 147.236 L114.26 148.902 L114.26 144.643 L122.524 142.976 L127.2 142.976 L127.2 173.601 L134.839 173.601 L134.839 177.536 L114.931 177.536 L114.931 173.601 Z" fill="#000000" fill-rule="nonzero" fill-opacity="1" /><path clip-path="url(#clip740)" d="M154.283 146.055 Q150.672 146.055 148.843 149.62 Q147.038 153.161 147.038 160.291 Q147.038 167.397 148.843 170.962 Q150.672 174.504 154.283 174.504 Q157.917 174.504 159.723 170.962 Q161.552 167.397 161.552 160.291 Q161.552 153.161 159.723 149.62 Q157.917 146.055 154.283 146.055 M154.283 142.351 Q160.093 142.351 163.149 146.958 Q166.227 151.541 166.227 160.291 Q166.227 169.018 163.149 173.624 Q160.093 178.208 154.283 178.208 Q148.473 178.208 145.394 173.624 Q142.339 169.018 142.339 160.291 Q142.339 151.541 145.394 146.958 Q148.473 142.351 154.283 142.351 Z" fill="#000000" fill-rule="nonzero" fill-opacity="1" /><path clip-path="url(#clip740)" d="M184.445 146.055 Q180.834 146.055 179.005 149.62 Q177.2 153.161 177.2 160.291 Q177.2 167.397 179.005 170.962 Q180.834 174.504 184.445 174.504 Q188.079 174.504 189.885 170.962 Q191.713 167.397 191.713 160.291 Q191.713 153.161 189.885 149.62 Q188.079 146.055 184.445 146.055 M184.445 142.351 Q190.255 142.351 193.311 146.958 Q196.389 151.541 196.389 160.291 Q196.389 169.018 193.311 173.624 Q190.255 178.208 184.445 178.208 Q178.635 178.208 175.556 173.624 Q172.501 169.018 172.501 160.291 Q172.501 151.541 175.556 146.958 Q178.635 142.351 184.445 142.351 Z" fill="#000000" fill-rule="nonzero" fill-opacity="1" /><path clip-path="url(#clip740)" d="M214.607 146.055 Q210.996 146.055 209.167 149.62 Q207.362 153.161 207.362 160.291 Q207.362 167.397 209.167 170.962 Q210.996 174.504 214.607 174.504 Q218.241 174.504 220.047 170.962 Q221.875 167.397 221.875 160.291 Q221.875 153.161 220.047 149.62 Q218.241 146.055 214.607 146.055 M214.607 142.351 Q220.417 142.351 223.473 146.958 Q226.551 151.541 226.551 160.291 Q226.551 169.018 223.473 173.624 Q220.417 178.208 214.607 178.208 Q208.797 178.208 205.718 173.624 Q202.662 169.018 202.662 160.291 Q202.662 151.541 205.718 146.958 Q208.797 142.351 214.607 142.351 Z" fill="#000000" fill-rule="nonzero" fill-opacity="1" /><path clip-path="url(#clip740)" d="M21.7677 1000.18 L58.7206 1000.18 L58.7206 992.418 Q58.7206 982.583 54.2646 978.031 Q49.8086 973.448 40.1964 973.448 Q30.6479 973.448 26.2237 978.031 Q21.7677 982.583 21.7677 992.418 L21.7677 1000.18 M16.4842 1006.61 L16.4842 993.404 Q16.4842 979.591 22.2451 973.13 Q27.9743 966.668 40.1964 966.668 Q52.4822 966.668 58.2432 973.161 Q64.0042 979.654 64.0042 993.404 L64.0042 1006.61 L16.4842 1006.61 Z" fill="#000000" fill-rule="nonzero" fill-opacity="1" /><path clip-path="url(#clip740)" d="M28.3562 956.674 L28.3562 950.818 L64.0042 950.818 L64.0042 956.674 L28.3562 956.674 M14.479 956.674 L14.479 950.818 L21.895 950.818 L21.895 956.674 L14.479 956.674 Z" fill="#000000" fill-rule="nonzero" fill-opacity="1" /><path clip-path="url(#clip740)" d="M29.4065 915.838 L34.9447 915.838 Q33.6716 918.321 33.035 920.994 Q32.3984 923.668 32.3984 926.533 Q32.3984 930.893 33.7352 933.089 Q35.072 935.254 37.7456 935.254 Q39.7826 935.254 40.9603 933.694 Q42.1061 932.134 43.1565 927.424 L43.6021 925.419 Q44.9389 919.18 47.3897 916.57 Q49.8086 913.929 54.1691 913.929 Q59.1344 913.929 62.0308 917.875 Q64.9272 921.79 64.9272 928.665 Q64.9272 931.53 64.3543 934.649 Q63.8132 937.736 62.6992 941.174 L56.6518 941.174 Q58.3387 937.927 59.198 934.776 Q60.0256 931.625 60.0256 928.538 Q60.0256 924.4 58.6251 922.172 Q57.1929 919.944 54.6147 919.944 Q52.2276 919.944 50.9545 921.567 Q49.6813 923.159 48.5037 928.601 L48.0262 930.639 Q46.8804 936.081 44.5251 938.5 Q42.138 940.919 38.0002 940.919 Q32.9713 940.919 30.2341 937.354 Q27.4968 933.79 27.4968 927.233 Q27.4968 923.986 27.9743 921.122 Q28.4517 918.257 29.4065 915.838 Z" fill="#000000" fill-rule="nonzero" fill-opacity="1" /><path clip-path="url(#clip740)" d="M58.657 898.937 L77.5631 898.937 L77.5631 904.826 L28.3562 904.826 L28.3562 898.937 L33.7671 898.937 Q30.5842 897.091 29.0564 894.29 Q27.4968 891.458 27.4968 887.543 Q27.4968 881.05 32.6531 877.007 Q37.8093 872.933 46.212 872.933 Q54.6147 872.933 59.771 877.007 Q64.9272 881.05 64.9272 887.543 Q64.9272 891.458 63.3994 894.29 Q61.8398 897.091 58.657 898.937 M46.212 879.013 Q39.7508 879.013 36.0905 881.686 Q32.3984 884.328 32.3984 888.975 Q32.3984 893.622 36.0905 896.296 Q39.7508 898.937 46.212 898.937 Q52.6732 898.937 56.3653 896.296 Q60.0256 893.622 60.0256 888.975 Q60.0256 884.328 56.3653 881.686 Q52.6732 879.013 46.212 879.013 Z" fill="#000000" fill-rule="nonzero" fill-opacity="1" /><path clip-path="url(#clip740)" d="M46.0847 847.025 Q46.0847 854.123 47.7079 856.86 Q49.3312 859.597 53.2461 859.597 Q56.3653 859.597 58.2114 857.56 Q60.0256 855.491 60.0256 851.958 Q60.0256 847.089 56.5881 844.16 Q53.1188 841.2 47.3897 841.2 L46.0847 841.2 L46.0847 847.025 M43.6657 835.344 L64.0042 835.344 L64.0042 841.2 L58.5933 841.2 Q61.8398 843.206 63.3994 846.197 Q64.9272 849.189 64.9272 853.518 Q64.9272 858.992 61.8716 862.239 Q58.7843 865.454 53.6281 865.454 Q47.6125 865.454 44.5569 861.443 Q41.5014 857.401 41.5014 849.412 L41.5014 841.2 L40.9285 841.2 Q36.8862 841.2 34.6901 843.874 Q32.4621 846.516 32.4621 851.322 Q32.4621 854.377 33.1941 857.274 Q33.9262 860.17 35.3903 862.844 L29.9795 862.844 Q28.7381 859.629 28.1334 856.605 Q27.4968 853.582 27.4968 850.717 Q27.4968 842.983 31.5072 839.163 Q35.5176 835.344 43.6657 835.344 Z" fill="#000000" fill-rule="nonzero" fill-opacity="1" /><path clip-path="url(#clip740)" d="M18.2347 817.488 L28.3562 817.488 L28.3562 805.425 L32.9077 805.425 L32.9077 817.488 L52.2594 817.488 Q56.6199 817.488 57.8613 816.31 Q59.1026 815.101 59.1026 811.441 L59.1026 805.425 L64.0042 805.425 L64.0042 811.441 Q64.0042 818.22 61.4897 820.798 Q58.9434 823.376 52.2594 823.376 L32.9077 823.376 L32.9077 827.673 L28.3562 827.673 L28.3562 823.376 L18.2347 823.376 L18.2347 817.488 Z" fill="#000000" fill-rule="nonzero" fill-opacity="1" /><path clip-path="url(#clip740)" d="M29.7248 772.069 L35.1993 772.069 Q33.8307 774.551 33.1623 777.066 Q32.4621 779.548 32.4621 782.095 Q32.4621 787.792 36.0905 790.943 Q39.6872 794.094 46.212 794.094 Q52.7369 794.094 56.3653 790.943 Q59.9619 787.792 59.9619 782.095 Q59.9619 779.548 59.2935 777.066 Q58.5933 774.551 57.2247 772.069 L62.6355 772.069 Q63.7814 774.52 64.3543 777.161 Q64.9272 779.771 64.9272 782.731 Q64.9272 790.784 59.8664 795.526 Q54.8057 800.269 46.212 800.269 Q37.491 800.269 32.4939 795.495 Q27.4968 790.688 27.4968 782.349 Q27.4968 779.644 28.0697 777.066 Q28.6108 774.488 29.7248 772.069 Z" fill="#000000" fill-rule="nonzero" fill-opacity="1" /><path clip-path="url(#clip740)" d="M42.4881 732.251 L64.0042 732.251 L64.0042 738.108 L42.679 738.108 Q37.6183 738.108 35.1038 740.081 Q32.5894 742.054 32.5894 746.001 Q32.5894 750.744 35.6131 753.481 Q38.6368 756.218 43.8567 756.218 L64.0042 756.218 L64.0042 762.106 L14.479 762.106 L14.479 756.218 L33.8944 756.218 Q30.6797 754.117 29.0883 751.285 Q27.4968 748.42 27.4968 744.696 Q27.4968 738.553 31.3163 735.402 Q35.1038 732.251 42.4881 732.251 Z" fill="#000000" fill-rule="nonzero" fill-opacity="1" /><path clip-path="url(#clip740)" d="M14.479 700.391 L14.479 686.896 L19.0304 686.896 L19.0304 694.534 L68.0464 694.534 L68.0464 686.896 L72.5979 686.896 L72.5979 700.391 L14.479 700.391 Z" fill="#000000" fill-rule="nonzero" fill-opacity="1" /><path clip-path="url(#clip740)" d="M16.4842 674.164 L16.4842 664.584 L48.8219 652.457 L16.4842 640.267 L16.4842 630.686 L64.0042 630.686 L64.0042 636.957 L22.277 636.957 L54.8694 649.211 L54.8694 655.672 L22.277 667.926 L64.0042 667.926 L64.0042 674.164 L16.4842 674.164 Z" fill="#000000" fill-rule="nonzero" fill-opacity="1" /><path clip-path="url(#clip740)" d="M16.4842 622.156 L16.4842 615.663 L56.6518 605.669 L16.4842 595.707 L16.4842 588.482 L56.6518 578.488 L16.4842 568.525 L16.4842 562 L64.0042 573.936 L64.0042 582.021 L22.7544 592.047 L64.0042 602.168 L64.0042 610.252 L16.4842 622.156 Z" fill="#000000" fill-rule="nonzero" fill-opacity="1" /><path clip-path="url(#clip740)" d="M14.479 540.039 L72.5979 540.039 L72.5979 553.534 L68.0464 553.534 L68.0464 545.927 L19.0304 545.927 L19.0304 553.534 L14.479 553.534 L14.479 540.039 Z" fill="#000000" fill-rule="nonzero" fill-opacity="1" /><path clip-path="url(#clip740)" d="M351.961 12.096 L403.124 12.096 L403.124 18.9825 L381.654 18.9825 L381.654 72.576 L373.431 72.576 L373.431 18.9825 L351.961 18.9825 L351.961 12.096 Z" fill="#000000" fill-rule="nonzero" fill-opacity="1" /><path clip-path="url(#clip740)" d="M448.413 45.1919 L448.413 72.576 L440.959 72.576 L440.959 45.4349 Q440.959 38.994 438.448 35.7938 Q435.936 32.5936 430.913 32.5936 Q424.877 32.5936 421.394 36.4419 Q417.91 40.2903 417.91 46.9338 L417.91 72.576 L410.416 72.576 L410.416 9.54393 L417.91 9.54393 L417.91 34.2544 Q420.583 30.163 424.189 28.1376 Q427.834 26.1121 432.574 26.1121 Q440.392 26.1121 444.403 30.9732 Q448.413 35.7938 448.413 45.1919 Z" fill="#000000" fill-rule="nonzero" fill-opacity="1" /><path clip-path="url(#clip740)" d="M502.088 48.0275 L502.088 51.6733 L467.817 51.6733 Q468.303 59.3701 472.435 63.421 Q476.607 67.4314 484.021 67.4314 Q488.314 67.4314 492.325 66.3781 Q496.376 65.3249 500.346 63.2184 L500.346 70.267 Q496.335 71.9684 492.122 72.8596 Q487.909 73.7508 483.575 73.7508 Q472.718 73.7508 466.359 67.4314 Q460.039 61.1119 460.039 50.3365 Q460.039 39.1965 466.034 32.6746 Q472.07 26.1121 482.279 26.1121 Q491.434 26.1121 496.74 32.0264 Q502.088 37.9003 502.088 48.0275 M494.634 45.84 Q494.553 39.7232 491.191 36.0774 Q487.869 32.4315 482.36 32.4315 Q476.121 32.4315 472.354 35.9558 Q468.627 39.4801 468.06 45.8805 L494.634 45.84 Z" fill="#000000" fill-rule="nonzero" fill-opacity="1" /><path clip-path="url(#clip740)" d="M540.612 34.1734 Q539.356 33.4443 537.857 33.1202 Q536.399 32.7556 534.616 32.7556 Q528.297 32.7556 524.894 36.8875 Q521.532 40.9789 521.532 48.6757 L521.532 72.576 L514.038 72.576 L514.038 27.2059 L521.532 27.2059 L521.532 34.2544 Q523.881 30.1225 527.649 28.1376 Q531.416 26.1121 536.804 26.1121 Q537.573 26.1121 538.505 26.2337 Q539.437 26.3147 540.571 26.5172 L540.612 34.1734 Z" fill="#000000" fill-rule="nonzero" fill-opacity="1" /><path clip-path="url(#clip740)" d="M582.295 35.9153 Q585.091 30.8922 588.979 28.5022 Q592.868 26.1121 598.134 26.1121 Q605.224 26.1121 609.072 31.0947 Q612.92 36.0368 612.92 45.1919 L612.92 72.576 L605.426 72.576 L605.426 45.4349 Q605.426 38.913 603.117 35.7533 Q600.808 32.5936 596.069 32.5936 Q590.276 32.5936 586.913 36.4419 Q583.551 40.2903 583.551 46.9338 L583.551 72.576 L576.057 72.576 L576.057 45.4349 Q576.057 38.8725 573.748 35.7533 Q571.439 32.5936 566.618 32.5936 Q560.907 32.5936 557.544 36.4824 Q554.182 40.3308 554.182 46.9338 L554.182 72.576 L546.688 72.576 L546.688 27.2059 L554.182 27.2059 L554.182 34.2544 Q556.734 30.082 560.299 28.0971 Q563.864 26.1121 568.765 26.1121 Q573.708 26.1121 577.151 28.6237 Q580.635 31.1352 582.295 35.9153 Z" fill="#000000" fill-rule="nonzero" fill-opacity="1" /><path clip-path="url(#clip740)" d="M648.406 49.7694 Q639.373 49.7694 635.889 51.8354 Q632.405 53.9013 632.405 58.8839 Q632.405 62.8538 634.998 65.2034 Q637.631 67.5124 642.127 67.5124 Q648.325 67.5124 652.052 63.1374 Q655.819 58.7219 655.819 51.4303 L655.819 49.7694 L648.406 49.7694 M663.273 46.6907 L663.273 72.576 L655.819 72.576 L655.819 65.6895 Q653.267 69.8214 649.459 71.8063 Q645.652 73.7508 640.142 73.7508 Q633.175 73.7508 629.043 69.8619 Q624.951 65.9325 624.951 59.3701 Q624.951 51.7138 630.056 47.825 Q635.2 43.9361 645.368 43.9361 L655.819 43.9361 L655.819 43.2069 Q655.819 38.0623 652.417 35.2672 Q649.054 32.4315 642.937 32.4315 Q639.049 32.4315 635.362 33.3632 Q631.676 34.295 628.273 36.1584 L628.273 29.2718 Q632.365 27.692 636.213 26.9223 Q640.061 26.1121 643.707 26.1121 Q653.551 26.1121 658.412 31.2163 Q663.273 36.3204 663.273 46.6907 Z" fill="#000000" fill-rule="nonzero" fill-opacity="1" /><path clip-path="url(#clip740)" d="M678.626 9.54393 L686.08 9.54393 L686.08 72.576 L678.626 72.576 L678.626 9.54393 Z" fill="#000000" fill-rule="nonzero" fill-opacity="1" /><path clip-path="url(#clip740)" d="M736.554 18.8205 L736.554 65.8515 L746.438 65.8515 Q758.955 65.8515 764.748 60.1802 Q770.581 54.509 770.581 42.2752 Q770.581 30.1225 764.748 24.4918 Q758.955 18.8205 746.438 18.8205 L736.554 18.8205 M728.371 12.096 L745.182 12.096 Q762.763 12.096 770.987 19.4281 Q779.21 26.7198 779.21 42.2752 Q779.21 57.9117 770.946 65.2439 Q762.682 72.576 745.182 72.576 L728.371 72.576 L728.371 12.096 Z" fill="#000000" fill-rule="nonzero" fill-opacity="1" /><path clip-path="url(#clip740)" d="M791.93 27.2059 L799.383 27.2059 L799.383 72.576 L791.93 72.576 L791.93 27.2059 M791.93 9.54393 L799.383 9.54393 L799.383 18.9825 L791.93 18.9825 L791.93 9.54393 Z" fill="#000000" fill-rule="nonzero" fill-opacity="1" /><path clip-path="url(#clip740)" d="M843.903 28.5427 L843.903 35.5912 Q840.743 33.9709 837.34 33.1607 Q833.938 32.3505 830.292 32.3505 Q824.742 32.3505 821.947 34.0519 Q819.192 35.7533 819.192 39.156 Q819.192 41.7486 821.177 43.2475 Q823.162 44.7058 829.158 46.0426 L831.71 46.6097 Q839.649 48.3111 842.971 51.4303 Q846.333 54.509 846.333 60.0587 Q846.333 66.3781 841.31 70.0644 Q836.328 73.7508 827.578 73.7508 Q823.932 73.7508 819.962 73.0216 Q816.033 72.3329 811.658 70.9151 L811.658 63.2184 Q815.79 65.3654 819.8 66.4591 Q823.81 67.5124 827.74 67.5124 Q833.006 67.5124 835.842 65.73 Q838.677 63.9071 838.677 60.6258 Q838.677 57.5877 836.611 55.9673 Q834.586 54.3469 827.659 52.8481 L825.066 52.2405 Q818.139 50.7821 815.06 47.7845 Q811.982 44.7463 811.982 39.4801 Q811.982 33.0797 816.519 29.5959 Q821.056 26.1121 829.401 26.1121 Q833.533 26.1121 837.178 26.7198 Q840.824 27.3274 843.903 28.5427 Z" fill="#000000" fill-rule="nonzero" fill-opacity="1" /><path clip-path="url(#clip740)" d="M865.413 65.7705 L865.413 89.8329 L857.919 89.8329 L857.919 27.2059 L865.413 27.2059 L865.413 34.0924 Q867.763 30.0415 871.327 28.0971 Q874.933 26.1121 879.915 26.1121 Q888.179 26.1121 893.324 32.6746 Q898.509 39.2371 898.509 49.9314 Q898.509 60.6258 893.324 67.1883 Q888.179 73.7508 879.915 73.7508 Q874.933 73.7508 871.327 71.8063 Q867.763 69.8214 865.413 65.7705 M890.772 49.9314 Q890.772 41.7081 887.369 37.0496 Q884.007 32.3505 878.092 32.3505 Q872.178 32.3505 868.775 37.0496 Q865.413 41.7081 865.413 49.9314 Q865.413 58.1548 868.775 62.8538 Q872.178 67.5124 878.092 67.5124 Q884.007 67.5124 887.369 62.8538 Q890.772 58.1548 890.772 49.9314 Z" fill="#000000" fill-rule="nonzero" fill-opacity="1" /><path clip-path="url(#clip740)" d="M931.483 49.7694 Q922.45 49.7694 918.966 51.8354 Q915.482 53.9013 915.482 58.8839 Q915.482 62.8538 918.075 65.2034 Q920.708 67.5124 925.204 67.5124 Q931.402 67.5124 935.129 63.1374 Q938.897 58.7219 938.897 51.4303 L938.897 49.7694 L931.483 49.7694 M946.35 46.6907 L946.35 72.576 L938.897 72.576 L938.897 65.6895 Q936.344 69.8214 932.537 71.8063 Q928.729 73.7508 923.22 73.7508 Q916.252 73.7508 912.12 69.8619 Q908.029 65.9325 908.029 59.3701 Q908.029 51.7138 913.133 47.825 Q918.277 43.9361 928.445 43.9361 L938.897 43.9361 L938.897 43.2069 Q938.897 38.0623 935.494 35.2672 Q932.132 32.4315 926.015 32.4315 Q922.126 32.4315 918.439 33.3632 Q914.753 34.295 911.35 36.1584 L911.35 29.2718 Q915.442 27.692 919.29 26.9223 Q923.139 26.1121 926.784 26.1121 Q936.628 26.1121 941.489 31.2163 Q946.35 36.3204 946.35 46.6907 Z" fill="#000000" fill-rule="nonzero" fill-opacity="1" /><path clip-path="url(#clip740)" d="M969.076 14.324 L969.076 27.2059 L984.429 27.2059 L984.429 32.9987 L969.076 32.9987 L969.076 57.6282 Q969.076 63.1779 970.575 64.7578 Q972.114 66.3376 976.772 66.3376 L984.429 66.3376 L984.429 72.576 L976.772 72.576 Q968.144 72.576 964.863 69.3758 Q961.582 66.1351 961.582 57.6282 L961.582 32.9987 L956.113 32.9987 L956.113 27.2059 L961.582 27.2059 L961.582 14.324 L969.076 14.324 Z" fill="#000000" fill-rule="nonzero" fill-opacity="1" /><path clip-path="url(#clip740)" d="M1026.88 28.9478 L1026.88 35.9153 Q1023.72 34.1734 1020.52 33.3227 Q1017.36 32.4315 1014.12 32.4315 Q1006.87 32.4315 1002.86 37.0496 Q998.85 41.6271 998.85 49.9314 Q998.85 58.2358 1002.86 62.8538 Q1006.87 67.4314 1014.12 67.4314 Q1017.36 67.4314 1020.52 66.5807 Q1023.72 65.6895 1026.88 63.9476 L1026.88 70.8341 Q1023.76 72.2924 1020.4 73.0216 Q1017.08 73.7508 1013.31 73.7508 Q1003.06 73.7508 997.027 67.3098 Q990.991 60.8689 990.991 49.9314 Q990.991 38.832 997.068 32.472 Q1003.18 26.1121 1013.8 26.1121 Q1017.24 26.1121 1020.52 26.8413 Q1023.8 27.5299 1026.88 28.9478 Z" fill="#000000" fill-rule="nonzero" fill-opacity="1" /><path clip-path="url(#clip740)" d="M1077.56 45.1919 L1077.56 72.576 L1070.11 72.576 L1070.11 45.4349 Q1070.11 38.994 1067.59 35.7938 Q1065.08 32.5936 1060.06 32.5936 Q1054.02 32.5936 1050.54 36.4419 Q1047.06 40.2903 1047.06 46.9338 L1047.06 72.576 L1039.56 72.576 L1039.56 9.54393 L1047.06 9.54393 L1047.06 34.2544 Q1049.73 30.163 1053.33 28.1376 Q1056.98 26.1121 1061.72 26.1121 Q1069.54 26.1121 1073.55 30.9732 Q1077.56 35.7938 1077.56 45.1919 Z" fill="#000000" fill-rule="nonzero" fill-opacity="1" /><polyline clip-path="url(#clip742)" style="stroke:#009af9; stroke-linecap:round; stroke-linejoin:round; stroke-width:12; stroke-opacity:1; fill:none" points="288.148,1386.4 359.25,1202.47 430.352,1018.55 501.454,834.633 572.556,650.712 643.658,466.791 714.76,282.87 785.862,344.177 856.964,160.256 928.066,160.256 999.168,160.256 1070.27,160.256 1141.37,160.256 "/>
<polyline clip-path="url(#clip742)" style="stroke:#e26f46; stroke-linecap:round; stroke-linejoin:round; stroke-width:12; stroke-opacity:1; fill:none" points="288.148,1018.55 359.25,1018.55 430.352,1018.55 501.454,1018.55 572.556,1018.55 643.658,1018.55 714.76,1018.55 785.862,1018.55 856.964,1018.55 928.066,834.633 999.168,650.712 1070.27,466.791 1141.37,282.87 "/>
<path clip-path="url(#clip740)" d="M986.519 1379.86 L1136.82 1379.86 L1136.82 1224.34 L986.519 1224.34  Z" fill="#ffffff" fill-rule="evenodd" fill-opacity="1"/>
<polyline clip-path="url(#clip740)" style="stroke:#000000; stroke-linecap:round; stroke-linejoin:round; stroke-width:4; stroke-opacity:1; fill:none" points="986.519,1379.86 1136.82,1379.86 1136.82,1224.34 986.519,1224.34 986.519,1379.86 "/>
<polyline clip-path="url(#clip740)" style="stroke:#009af9; stroke-linecap:round; stroke-linejoin:round; stroke-width:12; stroke-opacity:1; fill:none" points="996.568,1276.18 1056.86,1276.18 "/>
<path clip-path="url(#clip740)" d="M1092.47 1288.53 L1092.47 1279.24 L1084.83 1279.24 L1084.83 1275.4 L1097.1 1275.4 L1097.1 1290.24 Q1094.39 1292.16 1091.12 1293.16 Q1087.86 1294.13 1084.16 1294.13 Q1076.06 1294.13 1071.47 1289.41 Q1066.91 1284.66 1066.91 1276.21 Q1066.91 1267.74 1071.47 1263.02 Q1076.06 1258.27 1084.16 1258.27 Q1087.54 1258.27 1090.57 1259.1 Q1093.62 1259.94 1096.19 1261.56 L1096.19 1266.54 Q1093.6 1264.34 1090.68 1263.22 Q1087.77 1262.11 1084.55 1262.11 Q1078.21 1262.11 1075.01 1265.66 Q1071.84 1269.2 1071.84 1276.21 Q1071.84 1283.2 1075.01 1286.74 Q1078.21 1290.28 1084.55 1290.28 Q1087.03 1290.28 1088.97 1289.87 Q1090.92 1289.43 1092.47 1288.53 Z" fill="#000000" fill-rule="nonzero" fill-opacity="1" /><path clip-path="url(#clip740)" d="M1106.87 1289.52 L1114.5 1289.52 L1114.5 1263.16 L1106.19 1264.82 L1106.19 1260.56 L1114.46 1258.9 L1119.13 1258.9 L1119.13 1289.52 L1126.77 1289.52 L1126.77 1293.46 L1106.87 1293.46 L1106.87 1289.52 Z" fill="#000000" fill-rule="nonzero" fill-opacity="1" /><polyline clip-path="url(#clip740)" style="stroke:#e26f46; stroke-linecap:round; stroke-linejoin:round; stroke-width:12; stroke-opacity:1; fill:none" points="996.568,1328.02 1056.86,1328.02 "/>
<path clip-path="url(#clip740)" d="M1092.47 1340.37 L1092.47 1331.08 L1084.83 1331.08 L1084.83 1327.24 L1097.1 1327.24 L1097.1 1342.08 Q1094.39 1344 1091.12 1345 Q1087.86 1345.97 1084.16 1345.97 Q1076.06 1345.97 1071.47 1341.25 Q1066.91 1336.5 1066.91 1328.05 Q1066.91 1319.58 1071.47 1314.86 Q1076.06 1310.11 1084.16 1310.11 Q1087.54 1310.11 1090.57 1310.94 Q1093.62 1311.78 1096.19 1313.4 L1096.19 1318.38 Q1093.6 1316.18 1090.68 1315.06 Q1087.77 1313.95 1084.55 1313.95 Q1078.21 1313.95 1075.01 1317.5 Q1071.84 1321.04 1071.84 1328.05 Q1071.84 1335.04 1075.01 1338.58 Q1078.21 1342.12 1084.55 1342.12 Q1087.03 1342.12 1088.97 1341.71 Q1090.92 1341.27 1092.47 1340.37 Z" fill="#000000" fill-rule="nonzero" fill-opacity="1" /><path clip-path="url(#clip740)" d="M1110.08 1341.36 L1126.4 1341.36 L1126.4 1345.3 L1104.46 1345.3 L1104.46 1341.36 Q1107.12 1338.61 1111.7 1333.98 Q1116.31 1329.32 1117.49 1327.98 Q1119.74 1325.46 1120.62 1323.72 Q1121.52 1321.96 1121.52 1320.27 Q1121.52 1317.52 1119.57 1315.78 Q1117.65 1314.05 1114.55 1314.05 Q1112.35 1314.05 1109.9 1314.81 Q1107.47 1315.57 1104.69 1317.13 L1104.69 1312.4 Q1107.51 1311.27 1109.97 1310.69 Q1112.42 1310.11 1114.46 1310.11 Q1119.83 1310.11 1123.02 1312.8 Q1126.22 1315.48 1126.22 1319.97 Q1126.22 1322.1 1125.41 1324.02 Q1124.62 1325.92 1122.51 1328.51 Q1121.93 1329.19 1118.83 1332.4 Q1115.73 1335.6 1110.08 1341.36 Z" fill="#000000" fill-rule="nonzero" fill-opacity="1" /><path clip-path="url(#clip740)" d="M1448.34 1423.18 L2352.76 1423.18 L2352.76 123.472 L1448.34 123.472  Z" fill="#ffffff" fill-rule="evenodd" fill-opacity="1"/>
<defs>
  <clipPath id="clip743">
    <rect x="1448" y="123" width="905" height="1301"/>
  </clipPath>
</defs>
<polyline clip-path="url(#clip743)" style="stroke:#000000; stroke-linecap:round; stroke-linejoin:round; stroke-width:2; stroke-opacity:0.1; fill:none" points="1568.74,1423.18 1568.74,123.472 "/>
<polyline clip-path="url(#clip743)" style="stroke:#000000; stroke-linecap:round; stroke-linejoin:round; stroke-width:2; stroke-opacity:0.1; fill:none" points="1805.74,1423.18 1805.74,123.472 "/>
<polyline clip-path="url(#clip743)" style="stroke:#000000; stroke-linecap:round; stroke-linejoin:round; stroke-width:2; stroke-opacity:0.1; fill:none" points="2042.75,1423.18 2042.75,123.472 "/>
<polyline clip-path="url(#clip743)" style="stroke:#000000; stroke-linecap:round; stroke-linejoin:round; stroke-width:2; stroke-opacity:0.1; fill:none" points="2279.76,1423.18 2279.76,123.472 "/>
<polyline clip-path="url(#clip740)" style="stroke:#000000; stroke-linecap:round; stroke-linejoin:round; stroke-width:4; stroke-opacity:1; fill:none" points="1448.34,1423.18 2352.76,1423.18 "/>
<polyline clip-path="url(#clip740)" style="stroke:#000000; stroke-linecap:round; stroke-linejoin:round; stroke-width:4; stroke-opacity:1; fill:none" points="1568.74,1423.18 1568.74,1404.28 "/>
<polyline clip-path="url(#clip740)" style="stroke:#000000; stroke-linecap:round; stroke-linejoin:round; stroke-width:4; stroke-opacity:1; fill:none" points="1805.74,1423.18 1805.74,1404.28 "/>
<polyline clip-path="url(#clip740)" style="stroke:#000000; stroke-linecap:round; stroke-linejoin:round; stroke-width:4; stroke-opacity:1; fill:none" points="2042.75,1423.18 2042.75,1404.28 "/>
<polyline clip-path="url(#clip740)" style="stroke:#000000; stroke-linecap:round; stroke-linejoin:round; stroke-width:4; stroke-opacity:1; fill:none" points="2279.76,1423.18 2279.76,1404.28 "/>
<path clip-path="url(#clip740)" d="M1528.36 1451.02 L1546.71 1451.02 L1546.71 1454.96 L1532.64 1454.96 L1532.64 1463.43 Q1533.66 1463.08 1534.68 1462.92 Q1535.69 1462.73 1536.71 1462.73 Q1542.5 1462.73 1545.88 1465.9 Q1549.26 1469.08 1549.26 1474.49 Q1549.26 1480.07 1545.79 1483.17 Q1542.31 1486.25 1535.99 1486.25 Q1533.82 1486.25 1531.55 1485.88 Q1529.31 1485.51 1526.9 1484.77 L1526.9 1480.07 Q1528.98 1481.2 1531.2 1481.76 Q1533.43 1482.32 1535.9 1482.32 Q1539.91 1482.32 1542.24 1480.21 Q1544.58 1478.1 1544.58 1474.49 Q1544.58 1470.88 1542.24 1468.77 Q1539.91 1466.67 1535.9 1466.67 Q1534.03 1466.67 1532.15 1467.08 Q1530.3 1467.5 1528.36 1468.38 L1528.36 1451.02 Z" fill="#000000" fill-rule="nonzero" fill-opacity="1" /><path clip-path="url(#clip740)" d="M1568.47 1454.1 Q1564.86 1454.1 1563.03 1457.66 Q1561.23 1461.2 1561.23 1468.33 Q1561.23 1475.44 1563.03 1479.01 Q1564.86 1482.55 1568.47 1482.55 Q1572.11 1482.55 1573.91 1479.01 Q1575.74 1475.44 1575.74 1468.33 Q1575.74 1461.2 1573.91 1457.66 Q1572.11 1454.1 1568.47 1454.1 M1568.47 1450.39 Q1574.28 1450.39 1577.34 1455 Q1580.42 1459.58 1580.42 1468.33 Q1580.42 1477.06 1577.34 1481.67 Q1574.28 1486.25 1568.47 1486.25 Q1562.66 1486.25 1559.58 1481.67 Q1556.53 1477.06 1556.53 1468.33 Q1556.53 1459.58 1559.58 1455 Q1562.66 1450.39 1568.47 1450.39 Z" fill="#000000" fill-rule="nonzero" fill-opacity="1" /><path clip-path="url(#clip740)" d="M1598.63 1454.1 Q1595.02 1454.1 1593.19 1457.66 Q1591.39 1461.2 1591.39 1468.33 Q1591.39 1475.44 1593.19 1479.01 Q1595.02 1482.55 1598.63 1482.55 Q1602.27 1482.55 1604.07 1479.01 Q1605.9 1475.44 1605.9 1468.33 Q1605.9 1461.2 1604.07 1457.66 Q1602.27 1454.1 1598.63 1454.1 M1598.63 1450.39 Q1604.44 1450.39 1607.5 1455 Q1610.58 1459.58 1610.58 1468.33 Q1610.58 1477.06 1607.5 1481.67 Q1604.44 1486.25 1598.63 1486.25 Q1592.82 1486.25 1589.74 1481.67 Q1586.69 1477.06 1586.69 1468.33 Q1586.69 1459.58 1589.74 1455 Q1592.82 1450.39 1598.63 1450.39 Z" fill="#000000" fill-rule="nonzero" fill-opacity="1" /><path clip-path="url(#clip740)" d="M1750.27 1481.64 L1757.91 1481.64 L1757.91 1455.28 L1749.6 1456.95 L1749.6 1452.69 L1757.86 1451.02 L1762.54 1451.02 L1762.54 1481.64 L1770.18 1481.64 L1770.18 1485.58 L1750.27 1485.58 L1750.27 1481.64 Z" fill="#000000" fill-rule="nonzero" fill-opacity="1" /><path clip-path="url(#clip740)" d="M1789.62 1454.1 Q1786.01 1454.1 1784.18 1457.66 Q1782.38 1461.2 1782.38 1468.33 Q1782.38 1475.44 1784.18 1479.01 Q1786.01 1482.55 1789.62 1482.55 Q1793.26 1482.55 1795.06 1479.01 Q1796.89 1475.44 1796.89 1468.33 Q1796.89 1461.2 1795.06 1457.66 Q1793.26 1454.1 1789.62 1454.1 M1789.62 1450.39 Q1795.43 1450.39 1798.49 1455 Q1801.57 1459.58 1801.57 1468.33 Q1801.57 1477.06 1798.49 1481.67 Q1795.43 1486.25 1789.62 1486.25 Q1783.81 1486.25 1780.73 1481.67 Q1777.68 1477.06 1777.68 1468.33 Q1777.68 1459.58 1780.73 1455 Q1783.81 1450.39 1789.62 1450.39 Z" fill="#000000" fill-rule="nonzero" fill-opacity="1" /><path clip-path="url(#clip740)" d="M1819.78 1454.1 Q1816.17 1454.1 1814.34 1457.66 Q1812.54 1461.2 1812.54 1468.33 Q1812.54 1475.44 1814.34 1479.01 Q1816.17 1482.55 1819.78 1482.55 Q1823.42 1482.55 1825.22 1479.01 Q1827.05 1475.44 1827.05 1468.33 Q1827.05 1461.2 1825.22 1457.66 Q1823.42 1454.1 1819.78 1454.1 M1819.78 1450.39 Q1825.59 1450.39 1828.65 1455 Q1831.73 1459.58 1831.73 1468.33 Q1831.73 1477.06 1828.65 1481.67 Q1825.59 1486.25 1819.78 1486.25 Q1813.97 1486.25 1810.89 1481.67 Q1807.84 1477.06 1807.84 1468.33 Q1807.84 1459.58 1810.89 1455 Q1813.97 1450.39 1819.78 1450.39 Z" fill="#000000" fill-rule="nonzero" fill-opacity="1" /><path clip-path="url(#clip740)" d="M1849.95 1454.1 Q1846.33 1454.1 1844.51 1457.66 Q1842.7 1461.2 1842.7 1468.33 Q1842.7 1475.44 1844.51 1479.01 Q1846.33 1482.55 1849.95 1482.55 Q1853.58 1482.55 1855.39 1479.01 Q1857.21 1475.44 1857.21 1468.33 Q1857.21 1461.2 1855.39 1457.66 Q1853.58 1454.1 1849.95 1454.1 M1849.95 1450.39 Q1855.76 1450.39 1858.81 1455 Q1861.89 1459.58 1861.89 1468.33 Q1861.89 1477.06 1858.81 1481.67 Q1855.76 1486.25 1849.95 1486.25 Q1844.14 1486.25 1841.06 1481.67 Q1838 1477.06 1838 1468.33 Q1838 1459.58 1841.06 1455 Q1844.14 1450.39 1849.95 1450.39 Z" fill="#000000" fill-rule="nonzero" fill-opacity="1" /><path clip-path="url(#clip740)" d="M1987.28 1481.64 L1994.92 1481.64 L1994.92 1455.28 L1986.61 1456.95 L1986.61 1452.69 L1994.87 1451.02 L1999.55 1451.02 L1999.55 1481.64 L2007.18 1481.64 L2007.18 1485.58 L1987.28 1485.58 L1987.28 1481.64 Z" fill="#000000" fill-rule="nonzero" fill-opacity="1" /><path clip-path="url(#clip740)" d="M2016.67 1451.02 L2035.03 1451.02 L2035.03 1454.96 L2020.96 1454.96 L2020.96 1463.43 Q2021.98 1463.08 2022.99 1462.92 Q2024.01 1462.73 2025.03 1462.73 Q2030.82 1462.73 2034.2 1465.9 Q2037.58 1469.08 2037.58 1474.49 Q2037.58 1480.07 2034.11 1483.17 Q2030.63 1486.25 2024.31 1486.25 Q2022.14 1486.25 2019.87 1485.88 Q2017.62 1485.51 2015.22 1484.77 L2015.22 1480.07 Q2017.3 1481.2 2019.52 1481.76 Q2021.74 1482.32 2024.22 1482.32 Q2028.23 1482.32 2030.56 1480.21 Q2032.9 1478.1 2032.9 1474.49 Q2032.9 1470.88 2030.56 1468.77 Q2028.23 1466.67 2024.22 1466.67 Q2022.35 1466.67 2020.47 1467.08 Q2018.62 1467.5 2016.67 1468.38 L2016.67 1451.02 Z" fill="#000000" fill-rule="nonzero" fill-opacity="1" /><path clip-path="url(#clip740)" d="M2056.79 1454.1 Q2053.18 1454.1 2051.35 1457.66 Q2049.55 1461.2 2049.55 1468.33 Q2049.55 1475.44 2051.35 1479.01 Q2053.18 1482.55 2056.79 1482.55 Q2060.42 1482.55 2062.23 1479.01 Q2064.06 1475.44 2064.06 1468.33 Q2064.06 1461.2 2062.23 1457.66 Q2060.42 1454.1 2056.79 1454.1 M2056.79 1450.39 Q2062.6 1450.39 2065.66 1455 Q2068.73 1459.58 2068.73 1468.33 Q2068.73 1477.06 2065.66 1481.67 Q2062.6 1486.25 2056.79 1486.25 Q2050.98 1486.25 2047.9 1481.67 Q2044.85 1477.06 2044.85 1468.33 Q2044.85 1459.58 2047.9 1455 Q2050.98 1450.39 2056.79 1450.39 Z" fill="#000000" fill-rule="nonzero" fill-opacity="1" /><path clip-path="url(#clip740)" d="M2086.95 1454.1 Q2083.34 1454.1 2081.51 1457.66 Q2079.71 1461.2 2079.71 1468.33 Q2079.71 1475.44 2081.51 1479.01 Q2083.34 1482.55 2086.95 1482.55 Q2090.59 1482.55 2092.39 1479.01 Q2094.22 1475.44 2094.22 1468.33 Q2094.22 1461.2 2092.39 1457.66 Q2090.59 1454.1 2086.95 1454.1 M2086.95 1450.39 Q2092.76 1450.39 2095.82 1455 Q2098.9 1459.58 2098.9 1468.33 Q2098.9 1477.06 2095.82 1481.67 Q2092.76 1486.25 2086.95 1486.25 Q2081.14 1486.25 2078.06 1481.67 Q2075.01 1477.06 2075.01 1468.33 Q2075.01 1459.58 2078.06 1455 Q2081.14 1450.39 2086.95 1450.39 Z" fill="#000000" fill-rule="nonzero" fill-opacity="1" /><path clip-path="url(#clip740)" d="M2228.37 1481.64 L2244.69 1481.64 L2244.69 1485.58 L2222.74 1485.58 L2222.74 1481.64 Q2225.41 1478.89 2229.99 1474.26 Q2234.6 1469.61 2235.78 1468.27 Q2238.02 1465.74 2238.9 1464.01 Q2239.8 1462.25 2239.8 1460.56 Q2239.8 1457.8 2237.86 1456.07 Q2235.94 1454.33 2232.84 1454.33 Q2230.64 1454.33 2228.18 1455.09 Q2225.75 1455.86 2222.98 1457.41 L2222.98 1452.69 Q2225.8 1451.55 2228.25 1450.97 Q2230.71 1450.39 2232.74 1450.39 Q2238.11 1450.39 2241.31 1453.08 Q2244.5 1455.77 2244.5 1460.26 Q2244.5 1462.39 2243.69 1464.31 Q2242.91 1466.2 2240.8 1468.8 Q2240.22 1469.47 2237.12 1472.69 Q2234.02 1475.88 2228.37 1481.64 Z" fill="#000000" fill-rule="nonzero" fill-opacity="1" /><path clip-path="url(#clip740)" d="M2264.5 1454.1 Q2260.89 1454.1 2259.06 1457.66 Q2257.26 1461.2 2257.26 1468.33 Q2257.26 1475.44 2259.06 1479.01 Q2260.89 1482.55 2264.5 1482.55 Q2268.14 1482.55 2269.94 1479.01 Q2271.77 1475.44 2271.77 1468.33 Q2271.77 1461.2 2269.94 1457.66 Q2268.14 1454.1 2264.5 1454.1 M2264.5 1450.39 Q2270.31 1450.39 2273.37 1455 Q2276.45 1459.58 2276.45 1468.33 Q2276.45 1477.06 2273.37 1481.67 Q2270.31 1486.25 2264.5 1486.25 Q2258.69 1486.25 2255.61 1481.67 Q2252.56 1477.06 2252.56 1468.33 Q2252.56 1459.58 2255.61 1455 Q2258.69 1450.39 2264.5 1450.39 Z" fill="#000000" fill-rule="nonzero" fill-opacity="1" /><path clip-path="url(#clip740)" d="M2294.67 1454.1 Q2291.05 1454.1 2289.23 1457.66 Q2287.42 1461.2 2287.42 1468.33 Q2287.42 1475.44 2289.23 1479.01 Q2291.05 1482.55 2294.67 1482.55 Q2298.3 1482.55 2300.1 1479.01 Q2301.93 1475.44 2301.93 1468.33 Q2301.93 1461.2 2300.1 1457.66 Q2298.3 1454.1 2294.67 1454.1 M2294.67 1450.39 Q2300.48 1450.39 2303.53 1455 Q2306.61 1459.58 2306.61 1468.33 Q2306.61 1477.06 2303.53 1481.67 Q2300.48 1486.25 2294.67 1486.25 Q2288.86 1486.25 2285.78 1481.67 Q2282.72 1477.06 2282.72 1468.33 Q2282.72 1459.58 2285.78 1455 Q2288.86 1450.39 2294.67 1450.39 Z" fill="#000000" fill-rule="nonzero" fill-opacity="1" /><path clip-path="url(#clip740)" d="M2324.83 1454.1 Q2321.22 1454.1 2319.39 1457.66 Q2317.58 1461.2 2317.58 1468.33 Q2317.58 1475.44 2319.39 1479.01 Q2321.22 1482.55 2324.83 1482.55 Q2328.46 1482.55 2330.27 1479.01 Q2332.1 1475.44 2332.1 1468.33 Q2332.1 1461.2 2330.27 1457.66 Q2328.46 1454.1 2324.83 1454.1 M2324.83 1450.39 Q2330.64 1450.39 2333.69 1455 Q2336.77 1459.58 2336.77 1468.33 Q2336.77 1477.06 2333.69 1481.67 Q2330.64 1486.25 2324.83 1486.25 Q2319.02 1486.25 2315.94 1481.67 Q2312.88 1477.06 2312.88 1468.33 Q2312.88 1459.58 2315.94 1455 Q2319.02 1450.39 2324.83 1450.39 Z" fill="#000000" fill-rule="nonzero" fill-opacity="1" /><path clip-path="url(#clip740)" d="M1678.62 1525.81 L1678.62 1562.76 L1686.39 1562.76 Q1696.22 1562.76 1700.78 1558.3 Q1705.36 1553.85 1705.36 1544.24 Q1705.36 1534.69 1700.78 1530.26 Q1696.22 1525.81 1686.39 1525.81 L1678.62 1525.81 M1672.19 1520.52 L1685.4 1520.52 Q1699.22 1520.52 1705.68 1526.28 Q1712.14 1532.01 1712.14 1544.24 Q1712.14 1556.52 1705.65 1562.28 Q1699.15 1568.04 1685.4 1568.04 L1672.19 1568.04 L1672.19 1520.52 Z" fill="#000000" fill-rule="nonzero" fill-opacity="1" /><path clip-path="url(#clip740)" d="M1752.62 1548.76 L1752.62 1551.62 L1725.7 1551.62 Q1726.08 1557.67 1729.33 1560.85 Q1732.6 1564 1738.43 1564 Q1741.8 1564 1744.95 1563.17 Q1748.14 1562.35 1751.26 1560.69 L1751.26 1566.23 Q1748.1 1567.57 1744.79 1568.27 Q1741.48 1568.97 1738.08 1568.97 Q1729.55 1568.97 1724.55 1564 Q1719.59 1559.04 1719.59 1550.57 Q1719.59 1541.82 1724.3 1536.69 Q1729.04 1531.54 1737.06 1531.54 Q1744.25 1531.54 1748.42 1536.18 Q1752.62 1540.8 1752.62 1548.76 M1746.77 1547.04 Q1746.7 1542.23 1744.06 1539.37 Q1741.45 1536.5 1737.12 1536.5 Q1732.22 1536.5 1729.26 1539.27 Q1726.33 1542.04 1725.89 1547.07 L1746.77 1547.04 Z" fill="#000000" fill-rule="nonzero" fill-opacity="1" /><path clip-path="url(#clip740)" d="M1789.99 1539.24 Q1792.19 1535.29 1795.24 1533.41 Q1798.3 1531.54 1802.44 1531.54 Q1808.01 1531.54 1811.03 1535.45 Q1814.05 1539.33 1814.05 1546.53 L1814.05 1568.04 L1808.16 1568.04 L1808.16 1546.72 Q1808.16 1541.59 1806.35 1539.11 Q1804.54 1536.63 1800.81 1536.63 Q1796.26 1536.63 1793.62 1539.65 Q1790.98 1542.68 1790.98 1547.9 L1790.98 1568.04 L1785.09 1568.04 L1785.09 1546.72 Q1785.09 1541.56 1783.27 1539.11 Q1781.46 1536.63 1777.67 1536.63 Q1773.19 1536.63 1770.54 1539.68 Q1767.9 1542.71 1767.9 1547.9 L1767.9 1568.04 L1762.01 1568.04 L1762.01 1532.4 L1767.9 1532.4 L1767.9 1537.93 Q1769.91 1534.66 1772.71 1533.1 Q1775.51 1531.54 1779.36 1531.54 Q1783.24 1531.54 1785.95 1533.51 Q1788.69 1535.48 1789.99 1539.24 Z" fill="#000000" fill-rule="nonzero" fill-opacity="1" /><path clip-path="url(#clip740)" d="M1841.93 1550.12 Q1834.84 1550.12 1832.1 1551.75 Q1829.36 1553.37 1829.36 1557.29 Q1829.36 1560.4 1831.4 1562.25 Q1833.47 1564.07 1837 1564.07 Q1841.87 1564.07 1844.8 1560.63 Q1847.76 1557.16 1847.76 1551.43 L1847.76 1550.12 L1841.93 1550.12 M1853.62 1547.71 L1853.62 1568.04 L1847.76 1568.04 L1847.76 1562.63 Q1845.75 1565.88 1842.76 1567.44 Q1839.77 1568.97 1835.44 1568.97 Q1829.97 1568.97 1826.72 1565.91 Q1823.51 1562.82 1823.51 1557.67 Q1823.51 1551.65 1827.52 1548.6 Q1831.56 1545.54 1839.55 1545.54 L1847.76 1545.54 L1847.76 1544.97 Q1847.76 1540.93 1845.09 1538.73 Q1842.44 1536.5 1837.64 1536.5 Q1834.58 1536.5 1831.69 1537.23 Q1828.79 1537.97 1826.12 1539.43 L1826.12 1534.02 Q1829.33 1532.78 1832.35 1532.17 Q1835.38 1531.54 1838.24 1531.54 Q1845.98 1531.54 1849.8 1535.55 Q1853.62 1539.56 1853.62 1547.71 Z" fill="#000000" fill-rule="nonzero" fill-opacity="1" /><path clip-path="url(#clip740)" d="M1895.31 1546.53 L1895.31 1568.04 L1889.45 1568.04 L1889.45 1546.72 Q1889.45 1541.66 1887.48 1539.14 Q1885.51 1536.63 1881.56 1536.63 Q1876.82 1536.63 1874.08 1539.65 Q1871.34 1542.68 1871.34 1547.9 L1871.34 1568.04 L1865.46 1568.04 L1865.46 1532.4 L1871.34 1532.4 L1871.34 1537.93 Q1873.45 1534.72 1876.28 1533.13 Q1879.14 1531.54 1882.87 1531.54 Q1889.01 1531.54 1892.16 1535.36 Q1895.31 1539.14 1895.31 1546.53 Z" fill="#000000" fill-rule="nonzero" fill-opacity="1" /><path clip-path="url(#clip740)" d="M1930.45 1537.81 L1930.45 1518.52 L1936.31 1518.52 L1936.31 1568.04 L1930.45 1568.04 L1930.45 1562.7 Q1928.6 1565.88 1925.77 1567.44 Q1922.97 1568.97 1919.02 1568.97 Q1912.56 1568.97 1908.49 1563.81 Q1904.45 1558.65 1904.45 1550.25 Q1904.45 1541.85 1908.49 1536.69 Q1912.56 1531.54 1919.02 1531.54 Q1922.97 1531.54 1925.77 1533.1 Q1928.6 1534.62 1930.45 1537.81 M1910.49 1550.25 Q1910.49 1556.71 1913.14 1560.4 Q1915.81 1564.07 1920.46 1564.07 Q1925.1 1564.07 1927.78 1560.4 Q1930.45 1556.71 1930.45 1550.25 Q1930.45 1543.79 1927.78 1540.13 Q1925.1 1536.44 1920.46 1536.44 Q1915.81 1536.44 1913.14 1540.13 Q1910.49 1543.79 1910.49 1550.25 Z" fill="#000000" fill-rule="nonzero" fill-opacity="1" /><path clip-path="url(#clip740)" d="M1968.55 1518.52 L1982.04 1518.52 L1982.04 1523.07 L1974.41 1523.07 L1974.41 1572.09 L1982.04 1572.09 L1982.04 1576.64 L1968.55 1576.64 L1968.55 1518.52 Z" fill="#000000" fill-rule="nonzero" fill-opacity="1" /><path clip-path="url(#clip740)" d="M1994.78 1520.52 L2004.36 1520.52 L2016.48 1552.86 L2028.67 1520.52 L2038.25 1520.52 L2038.25 1568.04 L2031.98 1568.04 L2031.98 1526.32 L2019.73 1558.91 L2013.27 1558.91 L2001.01 1526.32 L2001.01 1568.04 L1994.78 1568.04 L1994.78 1520.52 Z" fill="#000000" fill-rule="nonzero" fill-opacity="1" /><path clip-path="url(#clip740)" d="M2046.78 1520.52 L2053.28 1520.52 L2063.27 1560.69 L2073.23 1520.52 L2080.46 1520.52 L2090.45 1560.69 L2100.41 1520.52 L2106.94 1520.52 L2095 1568.04 L2086.92 1568.04 L2076.89 1526.79 L2066.77 1568.04 L2058.69 1568.04 L2046.78 1520.52 Z" fill="#000000" fill-rule="nonzero" fill-opacity="1" /><path clip-path="url(#clip740)" d="M2128.9 1518.52 L2128.9 1576.64 L2115.41 1576.64 L2115.41 1572.09 L2123.01 1572.09 L2123.01 1523.07 L2115.41 1523.07 L2115.41 1518.52 L2128.9 1518.52 Z" fill="#000000" fill-rule="nonzero" fill-opacity="1" /><polyline clip-path="url(#clip743)" style="stroke:#000000; stroke-linecap:round; stroke-linejoin:round; stroke-width:2; stroke-opacity:0.1; fill:none" points="1448.34,1386.4 2352.76,1386.4 "/>
<polyline clip-path="url(#clip743)" style="stroke:#000000; stroke-linecap:round; stroke-linejoin:round; stroke-width:2; stroke-opacity:0.1; fill:none" points="1448.34,1079.86 2352.76,1079.86 "/>
<polyline clip-path="url(#clip743)" style="stroke:#000000; stroke-linecap:round; stroke-linejoin:round; stroke-width:2; stroke-opacity:0.1; fill:none" points="1448.34,773.326 2352.76,773.326 "/>
<polyline clip-path="url(#clip743)" style="stroke:#000000; stroke-linecap:round; stroke-linejoin:round; stroke-width:2; stroke-opacity:0.1; fill:none" points="1448.34,466.791 2352.76,466.791 "/>
<polyline clip-path="url(#clip743)" style="stroke:#000000; stroke-linecap:round; stroke-linejoin:round; stroke-width:2; stroke-opacity:0.1; fill:none" points="1448.34,160.256 2352.76,160.256 "/>
<polyline clip-path="url(#clip740)" style="stroke:#000000; stroke-linecap:round; stroke-linejoin:round; stroke-width:4; stroke-opacity:1; fill:none" points="1448.34,1423.18 1448.34,123.472 "/>
<polyline clip-path="url(#clip740)" style="stroke:#000000; stroke-linecap:round; stroke-linejoin:round; stroke-width:4; stroke-opacity:1; fill:none" points="1448.34,1386.4 1467.24,1386.4 "/>
<polyline clip-path="url(#clip740)" style="stroke:#000000; stroke-linecap:round; stroke-linejoin:round; stroke-width:4; stroke-opacity:1; fill:none" points="1448.34,1079.86 1467.24,1079.86 "/>
<polyline clip-path="url(#clip740)" style="stroke:#000000; stroke-linecap:round; stroke-linejoin:round; stroke-width:4; stroke-opacity:1; fill:none" points="1448.34,773.326 1467.24,773.326 "/>
<polyline clip-path="url(#clip740)" style="stroke:#000000; stroke-linecap:round; stroke-linejoin:round; stroke-width:4; stroke-opacity:1; fill:none" points="1448.34,466.791 1467.24,466.791 "/>
<polyline clip-path="url(#clip740)" style="stroke:#000000; stroke-linecap:round; stroke-linejoin:round; stroke-width:4; stroke-opacity:1; fill:none" points="1448.34,160.256 1467.24,160.256 "/>
<path clip-path="url(#clip740)" d="M1400.39 1372.19 Q1396.78 1372.19 1394.95 1375.76 Q1393.15 1379.3 1393.15 1386.43 Q1393.15 1393.54 1394.95 1397.1 Q1396.78 1400.64 1400.39 1400.64 Q1404.03 1400.64 1405.83 1397.1 Q1407.66 1393.54 1407.66 1386.43 Q1407.66 1379.3 1405.83 1375.76 Q1404.03 1372.19 1400.39 1372.19 M1400.39 1368.49 Q1406.2 1368.49 1409.26 1373.1 Q1412.34 1377.68 1412.34 1386.43 Q1412.34 1395.16 1409.26 1399.76 Q1406.2 1404.35 1400.39 1404.35 Q1394.58 1404.35 1391.51 1399.76 Q1388.45 1395.16 1388.45 1386.43 Q1388.45 1377.68 1391.51 1373.1 Q1394.58 1368.49 1400.39 1368.49 Z" fill="#000000" fill-rule="nonzero" fill-opacity="1" /><path clip-path="url(#clip740)" d="M1360.28 1062.58 L1378.63 1062.58 L1378.63 1066.52 L1364.56 1066.52 L1364.56 1074.99 Q1365.58 1074.64 1366.6 1074.48 Q1367.62 1074.29 1368.63 1074.29 Q1374.42 1074.29 1377.8 1077.47 Q1381.18 1080.64 1381.18 1086.05 Q1381.18 1091.63 1377.71 1094.73 Q1374.24 1097.81 1367.92 1097.81 Q1365.74 1097.81 1363.47 1097.44 Q1361.23 1097.07 1358.82 1096.33 L1358.82 1091.63 Q1360.9 1092.77 1363.13 1093.32 Q1365.35 1093.88 1367.82 1093.88 Q1371.83 1093.88 1374.17 1091.77 Q1376.51 1089.66 1376.51 1086.05 Q1376.51 1082.44 1374.17 1080.34 Q1371.83 1078.23 1367.82 1078.23 Q1365.95 1078.23 1364.07 1078.65 Q1362.22 1079.06 1360.28 1079.94 L1360.28 1062.58 Z" fill="#000000" fill-rule="nonzero" fill-opacity="1" /><path clip-path="url(#clip740)" d="M1400.39 1065.66 Q1396.78 1065.66 1394.95 1069.22 Q1393.15 1072.77 1393.15 1079.9 Q1393.15 1087 1394.95 1090.57 Q1396.78 1094.11 1400.39 1094.11 Q1404.03 1094.11 1405.83 1090.57 Q1407.66 1087 1407.66 1079.9 Q1407.66 1072.77 1405.83 1069.22 Q1404.03 1065.66 1400.39 1065.66 M1400.39 1061.96 Q1406.2 1061.96 1409.26 1066.56 Q1412.34 1071.15 1412.34 1079.9 Q1412.34 1088.62 1409.26 1093.23 Q1406.2 1097.81 1400.39 1097.81 Q1394.58 1097.81 1391.51 1093.23 Q1388.45 1088.62 1388.45 1079.9 Q1388.45 1071.15 1391.51 1066.56 Q1394.58 1061.96 1400.39 1061.96 Z" fill="#000000" fill-rule="nonzero" fill-opacity="1" /><path clip-path="url(#clip740)" d="M1330.88 786.671 L1338.52 786.671 L1338.52 760.305 L1330.21 761.972 L1330.21 757.713 L1338.47 756.046 L1343.15 756.046 L1343.15 786.671 L1350.79 786.671 L1350.79 790.606 L1330.88 790.606 L1330.88 786.671 Z" fill="#000000" fill-rule="nonzero" fill-opacity="1" /><path clip-path="url(#clip740)" d="M1370.23 759.125 Q1366.62 759.125 1364.79 762.689 Q1362.99 766.231 1362.99 773.361 Q1362.99 780.467 1364.79 784.032 Q1366.62 787.574 1370.23 787.574 Q1373.87 787.574 1375.67 784.032 Q1377.5 780.467 1377.5 773.361 Q1377.5 766.231 1375.67 762.689 Q1373.87 759.125 1370.23 759.125 M1370.23 755.421 Q1376.04 755.421 1379.1 760.027 Q1382.18 764.611 1382.18 773.361 Q1382.18 782.088 1379.1 786.694 Q1376.04 791.277 1370.23 791.277 Q1364.42 791.277 1361.34 786.694 Q1358.29 782.088 1358.29 773.361 Q1358.29 764.611 1361.34 760.027 Q1364.42 755.421 1370.23 755.421 Z" fill="#000000" fill-rule="nonzero" fill-opacity="1" /><path clip-path="url(#clip740)" d="M1400.39 759.125 Q1396.78 759.125 1394.95 762.689 Q1393.15 766.231 1393.15 773.361 Q1393.15 780.467 1394.95 784.032 Q1396.78 787.574 1400.39 787.574 Q1404.03 787.574 1405.83 784.032 Q1407.66 780.467 1407.66 773.361 Q1407.66 766.231 1405.83 762.689 Q1404.03 759.125 1400.39 759.125 M1400.39 755.421 Q1406.2 755.421 1409.26 760.027 Q1412.34 764.611 1412.34 773.361 Q1412.34 782.088 1409.26 786.694 Q1406.2 791.277 1400.39 791.277 Q1394.58 791.277 1391.51 786.694 Q1388.45 782.088 1388.45 773.361 Q1388.45 764.611 1391.51 760.027 Q1394.58 755.421 1400.39 755.421 Z" fill="#000000" fill-rule="nonzero" fill-opacity="1" /><path clip-path="url(#clip740)" d="M1330.88 480.136 L1338.52 480.136 L1338.52 453.77 L1330.21 455.437 L1330.21 451.178 L1338.47 449.511 L1343.15 449.511 L1343.15 480.136 L1350.79 480.136 L1350.79 484.071 L1330.88 484.071 L1330.88 480.136 Z" fill="#000000" fill-rule="nonzero" fill-opacity="1" /><path clip-path="url(#clip740)" d="M1360.28 449.511 L1378.63 449.511 L1378.63 453.446 L1364.56 453.446 L1364.56 461.918 Q1365.58 461.571 1366.6 461.409 Q1367.62 461.224 1368.63 461.224 Q1374.42 461.224 1377.8 464.395 Q1381.18 467.567 1381.18 472.983 Q1381.18 478.562 1377.71 481.664 Q1374.24 484.742 1367.92 484.742 Q1365.74 484.742 1363.47 484.372 Q1361.23 484.002 1358.82 483.261 L1358.82 478.562 Q1360.9 479.696 1363.13 480.252 Q1365.35 480.807 1367.82 480.807 Q1371.83 480.807 1374.17 478.701 Q1376.51 476.594 1376.51 472.983 Q1376.51 469.372 1374.17 467.266 Q1371.83 465.159 1367.82 465.159 Q1365.95 465.159 1364.07 465.576 Q1362.22 465.993 1360.28 466.872 L1360.28 449.511 Z" fill="#000000" fill-rule="nonzero" fill-opacity="1" /><path clip-path="url(#clip740)" d="M1400.39 452.59 Q1396.78 452.59 1394.95 456.155 Q1393.15 459.696 1393.15 466.826 Q1393.15 473.932 1394.95 477.497 Q1396.78 481.039 1400.39 481.039 Q1404.03 481.039 1405.83 477.497 Q1407.66 473.932 1407.66 466.826 Q1407.66 459.696 1405.83 456.155 Q1404.03 452.59 1400.39 452.59 M1400.39 448.886 Q1406.2 448.886 1409.26 453.493 Q1412.34 458.076 1412.34 466.826 Q1412.34 475.553 1409.26 480.159 Q1406.2 484.742 1400.39 484.742 Q1394.58 484.742 1391.51 480.159 Q1388.45 475.553 1388.45 466.826 Q1388.45 458.076 1391.51 453.493 Q1394.58 448.886 1400.39 448.886 Z" fill="#000000" fill-rule="nonzero" fill-opacity="1" /><path clip-path="url(#clip740)" d="M1334.1 173.601 L1350.42 173.601 L1350.42 177.536 L1328.47 177.536 L1328.47 173.601 Q1331.14 170.847 1335.72 166.217 Q1340.32 161.564 1341.51 160.222 Q1343.75 157.698 1344.63 155.962 Q1345.53 154.203 1345.53 152.513 Q1345.53 149.759 1343.59 148.023 Q1341.67 146.286 1338.57 146.286 Q1336.37 146.286 1333.91 147.05 Q1331.48 147.814 1328.7 149.365 L1328.7 144.643 Q1331.53 143.509 1333.98 142.93 Q1336.44 142.351 1338.47 142.351 Q1343.84 142.351 1347.04 145.036 Q1350.23 147.722 1350.23 152.212 Q1350.23 154.342 1349.42 156.263 Q1348.63 158.161 1346.53 160.754 Q1345.95 161.425 1342.85 164.643 Q1339.75 167.837 1334.1 173.601 Z" fill="#000000" fill-rule="nonzero" fill-opacity="1" /><path clip-path="url(#clip740)" d="M1370.23 146.055 Q1366.62 146.055 1364.79 149.62 Q1362.99 153.161 1362.99 160.291 Q1362.99 167.397 1364.79 170.962 Q1366.62 174.504 1370.23 174.504 Q1373.87 174.504 1375.67 170.962 Q1377.5 167.397 1377.5 160.291 Q1377.5 153.161 1375.67 149.62 Q1373.87 146.055 1370.23 146.055 M1370.23 142.351 Q1376.04 142.351 1379.1 146.958 Q1382.18 151.541 1382.18 160.291 Q1382.18 169.018 1379.1 173.624 Q1376.04 178.208 1370.23 178.208 Q1364.42 178.208 1361.34 173.624 Q1358.29 169.018 1358.29 160.291 Q1358.29 151.541 1361.34 146.958 Q1364.42 142.351 1370.23 142.351 Z" fill="#000000" fill-rule="nonzero" fill-opacity="1" /><path clip-path="url(#clip740)" d="M1400.39 146.055 Q1396.78 146.055 1394.95 149.62 Q1393.15 153.161 1393.15 160.291 Q1393.15 167.397 1394.95 170.962 Q1396.78 174.504 1400.39 174.504 Q1404.03 174.504 1405.83 170.962 Q1407.66 167.397 1407.66 160.291 Q1407.66 153.161 1405.83 149.62 Q1404.03 146.055 1400.39 146.055 M1400.39 142.351 Q1406.2 142.351 1409.26 146.958 Q1412.34 151.541 1412.34 160.291 Q1412.34 169.018 1409.26 173.624 Q1406.2 178.208 1400.39 178.208 Q1394.58 178.208 1391.51 173.624 Q1388.45 169.018 1388.45 160.291 Q1388.45 151.541 1391.51 146.958 Q1394.58 142.351 1400.39 142.351 Z" fill="#000000" fill-rule="nonzero" fill-opacity="1" /><path clip-path="url(#clip740)" d="M1230.7 977.57 L1230.7 947.524 L1236.11 947.524 L1236.11 971.14 L1250.18 971.14 L1250.18 948.51 L1255.59 948.51 L1255.59 971.14 L1272.81 971.14 L1272.81 946.951 L1278.22 946.951 L1278.22 977.57 L1230.7 977.57 Z" fill="#000000" fill-rule="nonzero" fill-opacity="1" /><path clip-path="url(#clip740)" d="M1256.7 907.006 L1278.22 907.006 L1278.22 912.862 L1256.89 912.862 Q1251.83 912.862 1249.32 914.836 Q1246.8 916.809 1246.8 920.756 Q1246.8 925.498 1249.83 928.235 Q1252.85 930.973 1258.07 930.973 L1278.22 930.973 L1278.22 936.861 L1242.57 936.861 L1242.57 930.973 L1248.11 930.973 Q1244.89 928.872 1243.3 926.039 Q1241.71 923.175 1241.71 919.451 Q1241.71 913.308 1245.53 910.157 Q1249.32 907.006 1256.7 907.006 Z" fill="#000000" fill-rule="nonzero" fill-opacity="1" /><path clip-path="url(#clip740)" d="M1258.93 864.833 L1261.79 864.833 L1261.79 891.76 Q1267.84 891.378 1271.02 888.132 Q1274.17 884.853 1274.17 879.029 Q1274.17 875.655 1273.35 872.504 Q1272.52 869.321 1270.86 866.202 L1276.4 866.202 Q1277.74 869.353 1278.44 872.663 Q1279.14 875.973 1279.14 879.379 Q1279.14 887.909 1274.17 892.906 Q1269.21 897.871 1260.74 897.871 Q1251.99 897.871 1246.87 893.16 Q1241.71 888.418 1241.71 880.397 Q1241.71 873.204 1246.36 869.034 Q1250.97 864.833 1258.93 864.833 M1257.21 870.689 Q1252.4 870.753 1249.54 873.395 Q1246.67 876.005 1246.67 880.334 Q1246.67 885.235 1249.44 888.195 Q1252.21 891.123 1257.24 891.569 L1257.21 870.689 Z" fill="#000000" fill-rule="nonzero" fill-opacity="1" /><path clip-path="url(#clip740)" d="M1248.04 834.564 Q1247.47 835.551 1247.22 836.728 Q1246.93 837.874 1246.93 839.275 Q1246.93 844.24 1250.18 846.914 Q1253.39 849.555 1259.44 849.555 L1278.22 849.555 L1278.22 855.444 L1242.57 855.444 L1242.57 849.555 L1248.11 849.555 Q1244.86 847.709 1243.3 844.749 Q1241.71 841.789 1241.71 837.556 Q1241.71 836.951 1241.81 836.219 Q1241.87 835.487 1242.03 834.596 L1248.04 834.564 Z" fill="#000000" fill-rule="nonzero" fill-opacity="1" /><path clip-path="url(#clip740)" d="M1259.98 806.109 Q1253.61 806.109 1250.11 808.751 Q1246.61 811.361 1246.61 816.104 Q1246.61 820.814 1250.11 823.456 Q1253.61 826.066 1259.98 826.066 Q1266.31 826.066 1269.81 823.456 Q1273.32 820.814 1273.32 816.104 Q1273.32 811.361 1269.81 808.751 Q1266.31 806.109 1259.98 806.109 M1273.79 800.253 Q1282.9 800.253 1287.32 804.295 Q1291.78 808.337 1291.78 816.676 Q1291.78 819.764 1291.3 822.501 Q1290.85 825.238 1289.9 827.816 L1284.2 827.816 Q1285.6 825.238 1286.27 822.724 Q1286.94 820.209 1286.94 817.599 Q1286.94 811.839 1283.91 808.974 Q1280.92 806.109 1274.84 806.109 L1271.95 806.109 Q1275.1 807.924 1276.66 810.756 Q1278.22 813.589 1278.22 817.536 Q1278.22 824.092 1273.22 828.103 Q1268.22 832.113 1259.98 832.113 Q1251.7 832.113 1246.71 828.103 Q1241.71 824.092 1241.71 817.536 Q1241.71 813.589 1243.27 810.756 Q1244.83 807.924 1247.98 806.109 L1242.57 806.109 L1242.57 800.253 L1273.79 800.253 Z" fill="#000000" fill-rule="nonzero" fill-opacity="1" /><path clip-path="url(#clip740)" d="M1281.53 773.358 Q1287.89 775.84 1289.83 778.196 Q1291.78 780.551 1291.78 784.498 L1291.78 789.177 L1286.87 789.177 L1286.87 785.739 Q1286.87 783.32 1285.73 781.983 Q1284.58 780.647 1280.32 779.023 L1277.64 777.973 L1242.57 792.391 L1242.57 786.185 L1270.45 775.045 L1242.57 763.905 L1242.57 757.698 L1281.53 773.358 Z" fill="#000000" fill-rule="nonzero" fill-opacity="1" /><path clip-path="url(#clip740)" d="M1228.69 729.434 L1228.69 715.939 L1233.24 715.939 L1233.24 723.578 L1282.26 723.578 L1282.26 715.939 L1286.81 715.939 L1286.81 729.434 L1228.69 729.434 Z" fill="#000000" fill-rule="nonzero" fill-opacity="1" /><path clip-path="url(#clip740)" d="M1230.7 703.208 L1230.7 693.627 L1263.03 681.501 L1230.7 669.31 L1230.7 659.73 L1278.22 659.73 L1278.22 666 L1236.49 666 L1269.08 678.254 L1269.08 684.715 L1236.49 696.969 L1278.22 696.969 L1278.22 703.208 L1230.7 703.208 Z" fill="#000000" fill-rule="nonzero" fill-opacity="1" /><path clip-path="url(#clip740)" d="M1230.7 651.2 L1230.7 644.707 L1270.86 634.713 L1230.7 624.75 L1230.7 617.525 L1270.86 607.531 L1230.7 597.569 L1230.7 591.044 L1278.22 602.98 L1278.22 611.064 L1236.97 621.09 L1278.22 631.212 L1278.22 639.296 L1230.7 651.2 Z" fill="#000000" fill-rule="nonzero" fill-opacity="1" /><path clip-path="url(#clip740)" d="M1228.69 569.082 L1286.81 569.082 L1286.81 582.578 L1282.26 582.578 L1282.26 574.971 L1233.24 574.971 L1233.24 582.578 L1228.69 582.578 L1228.69 569.082 Z" fill="#000000" fill-rule="nonzero" fill-opacity="1" /><path clip-path="url(#clip740)" d="M1801.44 12.096 L1809.71 12.096 L1822.43 63.2184 L1835.1 12.096 L1844.3 12.096 L1857.02 63.2184 L1869.7 12.096 L1878 12.096 L1862.81 72.576 L1852.52 72.576 L1839.76 20.0763 L1826.88 72.576 L1816.59 72.576 L1801.44 12.096 Z" fill="#000000" fill-rule="nonzero" fill-opacity="1" /><path clip-path="url(#clip740)" d="M1886.71 27.2059 L1894.17 27.2059 L1894.17 72.576 L1886.71 72.576 L1886.71 27.2059 M1886.71 9.54393 L1894.17 9.54393 L1894.17 18.9825 L1886.71 18.9825 L1886.71 9.54393 Z" fill="#000000" fill-rule="nonzero" fill-opacity="1" /><path clip-path="url(#clip740)" d="M1947.48 45.1919 L1947.48 72.576 L1940.02 72.576 L1940.02 45.4349 Q1940.02 38.994 1937.51 35.7938 Q1935 32.5936 1929.98 32.5936 Q1923.94 32.5936 1920.46 36.4419 Q1916.97 40.2903 1916.97 46.9338 L1916.97 72.576 L1909.48 72.576 L1909.48 27.2059 L1916.97 27.2059 L1916.97 34.2544 Q1919.65 30.163 1923.25 28.1376 Q1926.9 26.1121 1931.64 26.1121 Q1939.46 26.1121 1943.47 30.9732 Q1947.48 35.7938 1947.48 45.1919 Z" fill="#000000" fill-rule="nonzero" fill-opacity="1" /><path clip-path="url(#clip740)" d="M1992.2 34.0924 L1992.2 9.54393 L1999.65 9.54393 L1999.65 72.576 L1992.2 72.576 L1992.2 65.7705 Q1989.85 69.8214 1986.24 71.8063 Q1982.68 73.7508 1977.66 73.7508 Q1969.43 73.7508 1964.25 67.1883 Q1959.1 60.6258 1959.1 49.9314 Q1959.1 39.2371 1964.25 32.6746 Q1969.43 26.1121 1977.66 26.1121 Q1982.68 26.1121 1986.24 28.0971 Q1989.85 30.0415 1992.2 34.0924 M1966.8 49.9314 Q1966.8 58.1548 1970.16 62.8538 Q1973.56 67.5124 1979.48 67.5124 Q1985.39 67.5124 1988.8 62.8538 Q1992.2 58.1548 1992.2 49.9314 Q1992.2 41.7081 1988.8 37.0496 Q1985.39 32.3505 1979.48 32.3505 Q1973.56 32.3505 1970.16 37.0496 Q1966.8 41.7081 1966.8 49.9314 Z" fill="#000000" fill-rule="nonzero" fill-opacity="1" /><polyline clip-path="url(#clip743)" style="stroke:#009af9; stroke-linecap:round; stroke-linejoin:round; stroke-width:12; stroke-opacity:1; fill:none" points="1473.94,1386.4 1545.04,1386.4 1616.14,1386.4 1687.24,1386.4 1758.34,1386.4 1829.45,1386.4 1900.55,1386.4 1971.65,160.256 2042.75,160.256 2113.85,160.256 2184.96,160.256 2256.06,160.256 2327.16,160.256 "/>
<polyline clip-path="url(#clip743)" style="stroke:#e26f46; stroke-linecap:round; stroke-linejoin:round; stroke-width:12; stroke-opacity:1; fill:none" points="1473.94,160.256 1545.04,160.256 1616.14,160.256 1687.24,160.256 1758.34,160.256 1829.45,160.256 1900.55,160.256 1971.65,1386.4 2042.75,1386.4 2113.85,1386.4 2184.96,1386.4 2256.06,1386.4 2327.16,1386.4 "/>
<path clip-path="url(#clip740)" d="M2032.63 1379.86 L2322.61 1379.86 L2322.61 1224.34 L2032.63 1224.34  Z" fill="#ffffff" fill-rule="evenodd" fill-opacity="1"/>
<polyline clip-path="url(#clip740)" style="stroke:#000000; stroke-linecap:round; stroke-linejoin:round; stroke-width:4; stroke-opacity:1; fill:none" points="2032.63,1379.86 2322.61,1379.86 2322.61,1224.34 2032.63,1224.34 2032.63,1379.86 "/>
<polyline clip-path="url(#clip740)" style="stroke:#009af9; stroke-linecap:round; stroke-linejoin:round; stroke-width:12; stroke-opacity:1; fill:none" points="2042.68,1276.18 2102.97,1276.18 "/>
<path clip-path="url(#clip740)" d="M2117.7 1262.74 L2117.7 1289.61 L2123.35 1289.61 Q2130.5 1289.61 2133.81 1286.37 Q2137.14 1283.13 2137.14 1276.14 Q2137.14 1269.2 2133.81 1265.98 Q2130.5 1262.74 2123.35 1262.74 L2117.7 1262.74 M2113.02 1258.9 L2122.63 1258.9 Q2132.68 1258.9 2137.38 1263.09 Q2142.07 1267.25 2142.07 1276.14 Q2142.07 1285.08 2137.35 1289.27 Q2132.63 1293.46 2122.63 1293.46 L2113.02 1293.46 L2113.02 1258.9 Z" fill="#000000" fill-rule="nonzero" fill-opacity="1" /><path clip-path="url(#clip740)" d="M2149.34 1267.53 L2153.6 1267.53 L2153.6 1293.46 L2149.34 1293.46 L2149.34 1267.53 M2149.34 1257.44 L2153.6 1257.44 L2153.6 1262.83 L2149.34 1262.83 L2149.34 1257.44 Z" fill="#000000" fill-rule="nonzero" fill-opacity="1" /><path clip-path="url(#clip740)" d="M2179.04 1268.29 L2179.04 1272.32 Q2177.24 1271.4 2175.29 1270.93 Q2173.35 1270.47 2171.26 1270.47 Q2168.09 1270.47 2166.5 1271.44 Q2164.92 1272.41 2164.92 1274.36 Q2164.92 1275.84 2166.06 1276.7 Q2167.19 1277.53 2170.62 1278.29 L2172.07 1278.62 Q2176.61 1279.59 2178.51 1281.37 Q2180.43 1283.13 2180.43 1286.3 Q2180.43 1289.91 2177.56 1292.02 Q2174.71 1294.13 2169.71 1294.13 Q2167.63 1294.13 2165.36 1293.71 Q2163.12 1293.32 2160.62 1292.51 L2160.62 1288.11 Q2162.98 1289.34 2165.27 1289.96 Q2167.56 1290.56 2169.81 1290.56 Q2172.81 1290.56 2174.44 1289.54 Q2176.06 1288.5 2176.06 1286.63 Q2176.06 1284.89 2174.88 1283.97 Q2173.72 1283.04 2169.76 1282.18 L2168.28 1281.84 Q2164.32 1281 2162.56 1279.29 Q2160.8 1277.55 2160.8 1274.54 Q2160.8 1270.89 2163.39 1268.9 Q2165.99 1266.91 2170.75 1266.91 Q2173.12 1266.91 2175.2 1267.25 Q2177.28 1267.6 2179.04 1268.29 Z" fill="#000000" fill-rule="nonzero" fill-opacity="1" /><path clip-path="url(#clip740)" d="M2191.33 1289.57 L2191.33 1303.32 L2187.05 1303.32 L2187.05 1267.53 L2191.33 1267.53 L2191.33 1271.47 Q2192.68 1269.15 2194.71 1268.04 Q2196.77 1266.91 2199.62 1266.91 Q2204.34 1266.91 2207.28 1270.66 Q2210.25 1274.41 2210.25 1280.52 Q2210.25 1286.63 2207.28 1290.38 Q2204.34 1294.13 2199.62 1294.13 Q2196.77 1294.13 2194.71 1293.02 Q2192.68 1291.88 2191.33 1289.57 M2205.82 1280.52 Q2205.82 1275.82 2203.88 1273.16 Q2201.96 1270.47 2198.58 1270.47 Q2195.2 1270.47 2193.25 1273.16 Q2191.33 1275.82 2191.33 1280.52 Q2191.33 1285.22 2193.25 1287.9 Q2195.2 1290.56 2198.58 1290.56 Q2201.96 1290.56 2203.88 1287.9 Q2205.82 1285.22 2205.82 1280.52 Z" fill="#000000" fill-rule="nonzero" fill-opacity="1" /><path clip-path="url(#clip740)" d="M2229.09 1280.42 Q2223.93 1280.42 2221.94 1281.6 Q2219.94 1282.79 2219.94 1285.63 Q2219.94 1287.9 2221.43 1289.24 Q2222.93 1290.56 2225.5 1290.56 Q2229.04 1290.56 2231.17 1288.06 Q2233.32 1285.54 2233.32 1281.37 L2233.32 1280.42 L2229.09 1280.42 M2237.58 1278.66 L2237.58 1293.46 L2233.32 1293.46 L2233.32 1289.52 Q2231.87 1291.88 2229.69 1293.02 Q2227.51 1294.13 2224.37 1294.13 Q2220.38 1294.13 2218.02 1291.91 Q2215.69 1289.66 2215.69 1285.91 Q2215.69 1281.54 2218.6 1279.31 Q2221.54 1277.09 2227.35 1277.09 L2233.32 1277.09 L2233.32 1276.67 Q2233.32 1273.73 2231.38 1272.14 Q2229.46 1270.52 2225.96 1270.52 Q2223.74 1270.52 2221.63 1271.05 Q2219.53 1271.58 2217.58 1272.65 L2217.58 1268.71 Q2219.92 1267.81 2222.12 1267.37 Q2224.32 1266.91 2226.4 1266.91 Q2232.03 1266.91 2234.81 1269.82 Q2237.58 1272.74 2237.58 1278.66 Z" fill="#000000" fill-rule="nonzero" fill-opacity="1" /><path clip-path="url(#clip740)" d="M2250.57 1260.17 L2250.57 1267.53 L2259.34 1267.53 L2259.34 1270.84 L2250.57 1270.84 L2250.57 1284.91 Q2250.57 1288.09 2251.43 1288.99 Q2252.31 1289.89 2254.97 1289.89 L2259.34 1289.89 L2259.34 1293.46 L2254.97 1293.46 Q2250.04 1293.46 2248.16 1291.63 Q2246.29 1289.78 2246.29 1284.91 L2246.29 1270.84 L2243.16 1270.84 L2243.16 1267.53 L2246.29 1267.53 L2246.29 1260.17 L2250.57 1260.17 Z" fill="#000000" fill-rule="nonzero" fill-opacity="1" /><path clip-path="url(#clip740)" d="M2283.6 1268.53 L2283.6 1272.51 Q2281.8 1271.51 2279.97 1271.03 Q2278.16 1270.52 2276.31 1270.52 Q2272.17 1270.52 2269.87 1273.16 Q2267.58 1275.77 2267.58 1280.52 Q2267.58 1285.26 2269.87 1287.9 Q2272.17 1290.52 2276.31 1290.52 Q2278.16 1290.52 2279.97 1290.03 Q2281.8 1289.52 2283.6 1288.53 L2283.6 1292.46 Q2281.82 1293.29 2279.9 1293.71 Q2278 1294.13 2275.85 1294.13 Q2269.99 1294.13 2266.54 1290.45 Q2263.09 1286.77 2263.09 1280.52 Q2263.09 1274.17 2266.56 1270.54 Q2270.06 1266.91 2276.12 1266.91 Q2278.09 1266.91 2279.97 1267.32 Q2281.84 1267.72 2283.6 1268.53 Z" fill="#000000" fill-rule="nonzero" fill-opacity="1" /><path clip-path="url(#clip740)" d="M2312.56 1277.81 L2312.56 1293.46 L2308.3 1293.46 L2308.3 1277.95 Q2308.3 1274.27 2306.87 1272.44 Q2305.43 1270.61 2302.56 1270.61 Q2299.11 1270.61 2297.12 1272.81 Q2295.13 1275.01 2295.13 1278.8 L2295.13 1293.46 L2290.85 1293.46 L2290.85 1257.44 L2295.13 1257.44 L2295.13 1271.56 Q2296.66 1269.22 2298.72 1268.06 Q2300.8 1266.91 2303.51 1266.91 Q2307.98 1266.91 2310.27 1269.68 Q2312.56 1272.44 2312.56 1277.81 Z" fill="#000000" fill-rule="nonzero" fill-opacity="1" /><polyline clip-path="url(#clip740)" style="stroke:#e26f46; stroke-linecap:round; stroke-linejoin:round; stroke-width:12; stroke-opacity:1; fill:none" points="2042.68,1328.02 2102.97,1328.02 "/>
<path clip-path="url(#clip740)" d="M2135.27 1311.87 L2135.27 1316.43 Q2132.61 1315.16 2130.25 1314.53 Q2127.88 1313.91 2125.69 1313.91 Q2121.87 1313.91 2119.78 1315.39 Q2117.72 1316.87 2117.72 1319.6 Q2117.72 1321.89 2119.09 1323.07 Q2120.48 1324.23 2124.32 1324.95 L2127.14 1325.53 Q2132.38 1326.52 2134.85 1329.05 Q2137.35 1331.55 2137.35 1335.76 Q2137.35 1340.78 2133.97 1343.37 Q2130.62 1345.97 2124.11 1345.97 Q2121.66 1345.97 2118.88 1345.41 Q2116.13 1344.86 2113.16 1343.77 L2113.16 1338.95 Q2116.01 1340.55 2118.74 1341.36 Q2121.47 1342.17 2124.11 1342.17 Q2128.12 1342.17 2130.29 1340.6 Q2132.47 1339.02 2132.47 1336.11 Q2132.47 1333.56 2130.89 1332.13 Q2129.34 1330.69 2125.78 1329.97 L2122.93 1329.42 Q2117.7 1328.38 2115.36 1326.15 Q2113.02 1323.93 2113.02 1319.97 Q2113.02 1315.39 2116.24 1312.75 Q2119.48 1310.11 2125.15 1310.11 Q2127.58 1310.11 2130.11 1310.55 Q2132.63 1310.99 2135.27 1311.87 Z" fill="#000000" fill-rule="nonzero" fill-opacity="1" /><path clip-path="url(#clip740)" d="M2148.58 1341.41 L2148.58 1355.16 L2144.3 1355.16 L2144.3 1319.37 L2148.58 1319.37 L2148.58 1323.31 Q2149.92 1320.99 2151.96 1319.88 Q2154.02 1318.75 2156.87 1318.75 Q2161.59 1318.75 2164.53 1322.5 Q2167.49 1326.25 2167.49 1332.36 Q2167.49 1338.47 2164.53 1342.22 Q2161.59 1345.97 2156.87 1345.97 Q2154.02 1345.97 2151.96 1344.86 Q2149.92 1343.72 2148.58 1341.41 M2163.07 1332.36 Q2163.07 1327.66 2161.13 1325 Q2159.2 1322.31 2155.82 1322.31 Q2152.44 1322.31 2150.5 1325 Q2148.58 1327.66 2148.58 1332.36 Q2148.58 1337.06 2150.5 1339.74 Q2152.44 1342.4 2155.82 1342.4 Q2159.2 1342.4 2161.13 1339.74 Q2163.07 1337.06 2163.07 1332.36 Z" fill="#000000" fill-rule="nonzero" fill-opacity="1" /><path clip-path="url(#clip740)" d="M2174.55 1319.37 L2178.81 1319.37 L2178.81 1345.3 L2174.55 1345.3 L2174.55 1319.37 M2174.55 1309.28 L2178.81 1309.28 L2178.81 1314.67 L2174.55 1314.67 L2174.55 1309.28 Z" fill="#000000" fill-rule="nonzero" fill-opacity="1" /><path clip-path="url(#clip740)" d="M2187.72 1309.28 L2191.98 1309.28 L2191.98 1345.3 L2187.72 1345.3 L2187.72 1309.28 Z" fill="#000000" fill-rule="nonzero" fill-opacity="1" /><path clip-path="url(#clip740)" d="M2200.89 1309.28 L2205.15 1309.28 L2205.15 1345.3 L2200.89 1345.3 L2200.89 1309.28 Z" fill="#000000" fill-rule="nonzero" fill-opacity="1" /><path clip-path="url(#clip740)" d="M2225.85 1332.26 Q2220.69 1332.26 2218.69 1333.44 Q2216.7 1334.63 2216.7 1337.47 Q2216.7 1339.74 2218.19 1341.08 Q2219.69 1342.4 2222.26 1342.4 Q2225.8 1342.4 2227.93 1339.9 Q2230.08 1337.38 2230.08 1333.21 L2230.08 1332.26 L2225.85 1332.26 M2234.34 1330.5 L2234.34 1345.3 L2230.08 1345.3 L2230.08 1341.36 Q2228.62 1343.72 2226.45 1344.86 Q2224.27 1345.97 2221.12 1345.97 Q2217.14 1345.97 2214.78 1343.75 Q2212.44 1341.5 2212.44 1337.75 Q2212.44 1333.38 2215.36 1331.15 Q2218.3 1328.93 2224.11 1328.93 L2230.08 1328.93 L2230.08 1328.51 Q2230.08 1325.57 2228.14 1323.98 Q2226.22 1322.36 2222.72 1322.36 Q2220.5 1322.36 2218.39 1322.89 Q2216.29 1323.42 2214.34 1324.49 L2214.34 1320.55 Q2216.68 1319.65 2218.88 1319.21 Q2221.08 1318.75 2223.16 1318.75 Q2228.79 1318.75 2231.56 1321.66 Q2234.34 1324.58 2234.34 1330.5 Z" fill="#000000" fill-rule="nonzero" fill-opacity="1" /><path clip-path="url(#clip740)" d="M2260.18 1332.03 Q2260.18 1327.4 2258.25 1324.86 Q2256.36 1322.31 2252.91 1322.31 Q2249.48 1322.31 2247.56 1324.86 Q2245.66 1327.4 2245.66 1332.03 Q2245.66 1336.64 2247.56 1339.19 Q2249.48 1341.73 2252.91 1341.73 Q2256.36 1341.73 2258.25 1339.19 Q2260.18 1336.64 2260.18 1332.03 M2264.43 1342.08 Q2264.43 1348.7 2261.5 1351.92 Q2258.56 1355.16 2252.49 1355.16 Q2250.25 1355.16 2248.25 1354.81 Q2246.26 1354.49 2244.39 1353.79 L2244.39 1349.65 Q2246.26 1350.67 2248.09 1351.15 Q2249.92 1351.64 2251.82 1351.64 Q2256.01 1351.64 2258.09 1349.44 Q2260.18 1347.26 2260.18 1342.84 L2260.18 1340.74 Q2258.86 1343.03 2256.8 1344.16 Q2254.74 1345.3 2251.87 1345.3 Q2247.1 1345.3 2244.18 1341.66 Q2241.26 1338.03 2241.26 1332.03 Q2241.26 1326.01 2244.18 1322.38 Q2247.1 1318.75 2251.87 1318.75 Q2254.74 1318.75 2256.8 1319.88 Q2258.86 1321.01 2260.18 1323.31 L2260.18 1319.37 L2264.43 1319.37 L2264.43 1342.08 Z" fill="#000000" fill-rule="nonzero" fill-opacity="1" /><path clip-path="url(#clip740)" d="M2295.38 1331.27 L2295.38 1333.35 L2275.8 1333.35 Q2276.08 1337.75 2278.44 1340.06 Q2280.82 1342.36 2285.06 1342.36 Q2287.51 1342.36 2289.81 1341.75 Q2292.12 1341.15 2294.39 1339.95 L2294.39 1343.98 Q2292.1 1344.95 2289.69 1345.46 Q2287.28 1345.97 2284.81 1345.97 Q2278.6 1345.97 2274.97 1342.36 Q2271.36 1338.75 2271.36 1332.59 Q2271.36 1326.22 2274.78 1322.5 Q2278.23 1318.75 2284.06 1318.75 Q2289.3 1318.75 2292.33 1322.13 Q2295.38 1325.48 2295.38 1331.27 M2291.12 1330.02 Q2291.08 1326.52 2289.16 1324.44 Q2287.26 1322.36 2284.11 1322.36 Q2280.55 1322.36 2278.39 1324.37 Q2276.26 1326.38 2275.94 1330.04 L2291.12 1330.02 Z" fill="#000000" fill-rule="nonzero" fill-opacity="1" /></svg>
