<?xml version="1.0" encoding="utf-8"?>
<svg xmlns="http://www.w3.org/2000/svg" xmlns:xlink="http://www.w3.org/1999/xlink" width="600" height="400" viewBox="0 0 2400 1600">
<defs>
  <clipPath id="clip590">
    <rect x="0" y="0" width="2400" height="1600"/>
  </clipPath>
</defs>
<path clip-path="url(#clip590)" d="M0 1600 L2400 1600 L2400 0 L0 0  Z" fill="#ffffff" fill-rule="evenodd" fill-opacity="1"/>
<defs>
  <clipPath id="clip591">
    <rect x="480" y="0" width="1681" height="1600"/>
  </clipPath>
</defs>
<path clip-path="url(#clip590)" d="M139.446 1423.18 L2352.76 1423.18 L2352.76 47.2441 L139.446 47.2441  Z" fill="#ffffff" fill-rule="evenodd" fill-opacity="1"/>
<defs>
  <clipPath id="clip592">
    <rect x="139" y="47" width="2214" height="1377"/>
  </clipPath>
</defs>
<polyline clip-path="url(#clip592)" style="stroke:#000000; stroke-linecap:round; stroke-linejoin:round; stroke-width:2; stroke-opacity:0.1; fill:none" points="261.182,1423.18 261.182,47.2441 "/>
<polyline clip-path="url(#clip592)" style="stroke:#000000; stroke-linecap:round; stroke-linejoin:round; stroke-width:2; stroke-opacity:0.1; fill:none" points="724.673,1423.18 724.673,47.2441 "/>
<polyline clip-path="url(#clip592)" style="stroke:#000000; stroke-linecap:round; stroke-linejoin:round; stroke-width:2; stroke-opacity:0.1; fill:none" points="1188.16,1423.18 1188.16,47.2441 "/>
<polyline clip-path="url(#clip592)" style="stroke:#000000; stroke-linecap:round; stroke-linejoin:round; stroke-width:2; stroke-opacity:0.1; fill:none" points="1651.66,1423.18 1651.66,47.2441 "/>
<polyline clip-path="url(#clip592)" style="stroke:#000000; stroke-linecap:round; stroke-linejoin:round; stroke-width:2; stroke-opacity:0.1; fill:none" points="2115.15,1423.18 2115.15,47.2441 "/>
<polyline clip-path="url(#clip590)" style="stroke:#000000; stroke-linecap:round; stroke-linejoin:round; stroke-width:4; stroke-opacity:1; fill:none" points="139.446,1423.18 2352.76,1423.18 "/>
<polyline clip-path="url(#clip590)" style="stroke:#000000; stroke-linecap:round; stroke-linejoin:round; stroke-width:4; stroke-opacity:1; fill:none" points="261.182,1423.18 261.182,1404.28 "/>
<polyline clip-path="url(#clip590)" style="stroke:#000000; stroke-linecap:round; stroke-linejoin:round; stroke-width:4; stroke-opacity:1; fill:none" points="724.673,1423.18 724.673,1404.28 "/>
<polyline clip-path="url(#clip590)" style="stroke:#000000; stroke-linecap:round; stroke-linejoin:round; stroke-width:4; stroke-opacity:1; fill:none" points="1188.16,1423.18 1188.16,1404.28 "/>
<polyline clip-path="url(#clip590)" style="stroke:#000000; stroke-linecap:round; stroke-linejoin:round; stroke-width:4; stroke-opacity:1; fill:none" points="1651.66,1423.18 1651.66,1404.28 "/>
<polyline clip-path="url(#clip590)" style="stroke:#000000; stroke-linecap:round; stroke-linejoin:round; stroke-width:4; stroke-opacity:1; fill:none" points="2115.15,1423.18 2115.15,1404.28 "/>
<path clip-path="url(#clip590)" d="M220.788 1481.64 L228.427 1481.64 L228.427 1455.28 L220.117 1456.95 L220.117 1452.69 L228.381 1451.02 L233.057 1451.02 L233.057 1481.64 L240.696 1481.64 L240.696 1485.58 L220.788 1485.58 L220.788 1481.64 Z" fill="#000000" fill-rule="nonzero" fill-opacity="1" /><path clip-path="url(#clip590)" d="M260.719 1466.44 Q257.57 1466.44 255.719 1468.59 Q253.89 1470.74 253.89 1474.49 Q253.89 1478.22 255.719 1480.39 Q257.57 1482.55 260.719 1482.55 Q263.867 1482.55 265.695 1480.39 Q267.547 1478.22 267.547 1474.49 Q267.547 1470.74 265.695 1468.59 Q263.867 1466.44 260.719 1466.44 M270.001 1451.78 L270.001 1456.04 Q268.242 1455.21 266.436 1454.77 Q264.654 1454.33 262.895 1454.33 Q258.265 1454.33 255.811 1457.45 Q253.381 1460.58 253.033 1466.9 Q254.399 1464.89 256.459 1463.82 Q258.52 1462.73 260.996 1462.73 Q266.205 1462.73 269.214 1465.9 Q272.246 1469.05 272.246 1474.49 Q272.246 1479.82 269.098 1483.03 Q265.95 1486.25 260.719 1486.25 Q254.723 1486.25 251.552 1481.67 Q248.381 1477.06 248.381 1468.33 Q248.381 1460.14 252.27 1455.28 Q256.158 1450.39 262.709 1450.39 Q264.469 1450.39 266.251 1450.74 Q268.057 1451.09 270.001 1451.78 Z" fill="#000000" fill-rule="nonzero" fill-opacity="1" /><path clip-path="url(#clip590)" d="M290.302 1454.1 Q286.691 1454.1 284.862 1457.66 Q283.056 1461.2 283.056 1468.33 Q283.056 1475.44 284.862 1479.01 Q286.691 1482.55 290.302 1482.55 Q293.936 1482.55 295.742 1479.01 Q297.57 1475.44 297.57 1468.33 Q297.57 1461.2 295.742 1457.66 Q293.936 1454.1 290.302 1454.1 M290.302 1450.39 Q296.112 1450.39 299.167 1455 Q302.246 1459.58 302.246 1468.33 Q302.246 1477.06 299.167 1481.67 Q296.112 1486.25 290.302 1486.25 Q284.492 1486.25 281.413 1481.67 Q278.357 1477.06 278.357 1468.33 Q278.357 1459.58 281.413 1455 Q284.492 1450.39 290.302 1450.39 Z" fill="#000000" fill-rule="nonzero" fill-opacity="1" /><path clip-path="url(#clip590)" d="M684.28 1481.64 L691.918 1481.64 L691.918 1455.28 L683.608 1456.95 L683.608 1452.69 L691.872 1451.02 L696.548 1451.02 L696.548 1481.64 L704.187 1481.64 L704.187 1485.58 L684.28 1485.58 L684.28 1481.64 Z" fill="#000000" fill-rule="nonzero" fill-opacity="1" /><path clip-path="url(#clip590)" d="M723.631 1469.17 Q720.298 1469.17 718.377 1470.95 Q716.479 1472.73 716.479 1475.86 Q716.479 1478.98 718.377 1480.77 Q720.298 1482.55 723.631 1482.55 Q726.965 1482.55 728.886 1480.77 Q730.807 1478.96 730.807 1475.86 Q730.807 1472.73 728.886 1470.95 Q726.988 1469.17 723.631 1469.17 M718.955 1467.18 Q715.946 1466.44 714.256 1464.38 Q712.59 1462.32 712.59 1459.35 Q712.59 1455.21 715.529 1452.8 Q718.492 1450.39 723.631 1450.39 Q728.793 1450.39 731.733 1452.8 Q734.673 1455.21 734.673 1459.35 Q734.673 1462.32 732.983 1464.38 Q731.316 1466.44 728.33 1467.18 Q731.71 1467.96 733.585 1470.26 Q735.483 1472.55 735.483 1475.86 Q735.483 1480.88 732.404 1483.57 Q729.349 1486.25 723.631 1486.25 Q717.914 1486.25 714.835 1483.57 Q711.779 1480.88 711.779 1475.86 Q711.779 1472.55 713.678 1470.26 Q715.576 1467.96 718.955 1467.18 M717.242 1459.79 Q717.242 1462.48 718.909 1463.98 Q720.599 1465.49 723.631 1465.49 Q726.641 1465.49 728.33 1463.98 Q730.043 1462.48 730.043 1459.79 Q730.043 1457.11 728.33 1455.6 Q726.641 1454.1 723.631 1454.1 Q720.599 1454.1 718.909 1455.6 Q717.242 1457.11 717.242 1459.79 Z" fill="#000000" fill-rule="nonzero" fill-opacity="1" /><path clip-path="url(#clip590)" d="M753.793 1454.1 Q750.182 1454.1 748.353 1457.66 Q746.548 1461.2 746.548 1468.33 Q746.548 1475.44 748.353 1479.01 Q750.182 1482.55 753.793 1482.55 Q757.427 1482.55 759.233 1479.01 Q761.062 1475.44 761.062 1468.33 Q761.062 1461.2 759.233 1457.66 Q757.427 1454.1 753.793 1454.1 M753.793 1450.39 Q759.603 1450.39 762.659 1455 Q765.738 1459.58 765.738 1468.33 Q765.738 1477.06 762.659 1481.67 Q759.603 1486.25 753.793 1486.25 Q747.983 1486.25 744.904 1481.67 Q741.849 1477.06 741.849 1468.33 Q741.849 1459.58 744.904 1455 Q747.983 1450.39 753.793 1450.39 Z" fill="#000000" fill-rule="nonzero" fill-opacity="1" /><path clip-path="url(#clip590)" d="M1151.86 1481.64 L1168.18 1481.64 L1168.18 1485.58 L1146.23 1485.58 L1146.23 1481.64 Q1148.89 1478.89 1153.48 1474.26 Q1158.08 1469.61 1159.26 1468.27 Q1161.51 1465.74 1162.39 1464.01 Q1163.29 1462.25 1163.29 1460.56 Q1163.29 1457.8 1161.35 1456.07 Q1159.43 1454.33 1156.32 1454.33 Q1154.13 1454.33 1151.67 1455.09 Q1149.24 1455.86 1146.46 1457.41 L1146.46 1452.69 Q1149.29 1451.55 1151.74 1450.97 Q1154.19 1450.39 1156.23 1450.39 Q1161.6 1450.39 1164.8 1453.08 Q1167.99 1455.77 1167.99 1460.26 Q1167.99 1462.39 1167.18 1464.31 Q1166.39 1466.2 1164.29 1468.8 Q1163.71 1469.47 1160.61 1472.69 Q1157.5 1475.88 1151.86 1481.64 Z" fill="#000000" fill-rule="nonzero" fill-opacity="1" /><path clip-path="url(#clip590)" d="M1187.99 1454.1 Q1184.38 1454.1 1182.55 1457.66 Q1180.75 1461.2 1180.75 1468.33 Q1180.75 1475.44 1182.55 1479.01 Q1184.38 1482.55 1187.99 1482.55 Q1191.62 1482.55 1193.43 1479.01 Q1195.26 1475.44 1195.26 1468.33 Q1195.26 1461.2 1193.43 1457.66 Q1191.62 1454.1 1187.99 1454.1 M1187.99 1450.39 Q1193.8 1450.39 1196.86 1455 Q1199.94 1459.58 1199.94 1468.33 Q1199.94 1477.06 1196.86 1481.67 Q1193.8 1486.25 1187.99 1486.25 Q1182.18 1486.25 1179.1 1481.67 Q1176.05 1477.06 1176.05 1468.33 Q1176.05 1459.58 1179.1 1455 Q1182.18 1450.39 1187.99 1450.39 Z" fill="#000000" fill-rule="nonzero" fill-opacity="1" /><path clip-path="url(#clip590)" d="M1218.15 1454.1 Q1214.54 1454.1 1212.71 1457.66 Q1210.91 1461.2 1210.91 1468.33 Q1210.91 1475.44 1212.71 1479.01 Q1214.54 1482.55 1218.15 1482.55 Q1221.79 1482.55 1223.59 1479.01 Q1225.42 1475.44 1225.42 1468.33 Q1225.42 1461.2 1223.59 1457.66 Q1221.79 1454.1 1218.15 1454.1 M1218.15 1450.39 Q1223.96 1450.39 1227.02 1455 Q1230.1 1459.58 1230.1 1468.33 Q1230.1 1477.06 1227.02 1481.67 Q1223.96 1486.25 1218.15 1486.25 Q1212.34 1486.25 1209.26 1481.67 Q1206.21 1477.06 1206.21 1468.33 Q1206.21 1459.58 1209.26 1455 Q1212.34 1450.39 1218.15 1450.39 Z" fill="#000000" fill-rule="nonzero" fill-opacity="1" /><path clip-path="url(#clip590)" d="M1615.35 1481.64 L1631.67 1481.64 L1631.67 1485.58 L1609.72 1485.58 L1609.72 1481.64 Q1612.39 1478.89 1616.97 1474.26 Q1621.57 1469.61 1622.76 1468.27 Q1625 1465.74 1625.88 1464.01 Q1626.78 1462.25 1626.78 1460.56 Q1626.78 1457.8 1624.84 1456.07 Q1622.92 1454.33 1619.82 1454.33 Q1617.62 1454.33 1615.16 1455.09 Q1612.73 1455.86 1609.95 1457.41 L1609.95 1452.69 Q1612.78 1451.55 1615.23 1450.97 Q1617.69 1450.39 1619.72 1450.39 Q1625.09 1450.39 1628.29 1453.08 Q1631.48 1455.77 1631.48 1460.26 Q1631.48 1462.39 1630.67 1464.31 Q1629.88 1466.2 1627.78 1468.8 Q1627.2 1469.47 1624.1 1472.69 Q1621 1475.88 1615.35 1481.64 Z" fill="#000000" fill-rule="nonzero" fill-opacity="1" /><path clip-path="url(#clip590)" d="M1645.51 1481.64 L1661.83 1481.64 L1661.83 1485.58 L1639.88 1485.58 L1639.88 1481.64 Q1642.55 1478.89 1647.13 1474.26 Q1651.74 1469.61 1652.92 1468.27 Q1655.16 1465.74 1656.04 1464.01 Q1656.95 1462.25 1656.95 1460.56 Q1656.95 1457.8 1655 1456.07 Q1653.08 1454.33 1649.98 1454.33 Q1647.78 1454.33 1645.32 1455.09 Q1642.89 1455.86 1640.12 1457.41 L1640.12 1452.69 Q1642.94 1451.55 1645.39 1450.97 Q1647.85 1450.39 1649.88 1450.39 Q1655.26 1450.39 1658.45 1453.08 Q1661.64 1455.77 1661.64 1460.26 Q1661.64 1462.39 1660.83 1464.31 Q1660.05 1466.2 1657.94 1468.8 Q1657.36 1469.47 1654.26 1472.69 Q1651.16 1475.88 1645.51 1481.64 Z" fill="#000000" fill-rule="nonzero" fill-opacity="1" /><path clip-path="url(#clip590)" d="M1681.64 1454.1 Q1678.03 1454.1 1676.2 1457.66 Q1674.4 1461.2 1674.4 1468.33 Q1674.4 1475.44 1676.2 1479.01 Q1678.03 1482.55 1681.64 1482.55 Q1685.28 1482.55 1687.08 1479.01 Q1688.91 1475.44 1688.91 1468.33 Q1688.91 1461.2 1687.08 1457.66 Q1685.28 1454.1 1681.64 1454.1 M1681.64 1450.39 Q1687.45 1450.39 1690.51 1455 Q1693.59 1459.58 1693.59 1468.33 Q1693.59 1477.06 1690.51 1481.67 Q1687.45 1486.25 1681.64 1486.25 Q1675.83 1486.25 1672.76 1481.67 Q1669.7 1477.06 1669.7 1468.33 Q1669.7 1459.58 1672.76 1455 Q1675.83 1450.39 1681.64 1450.39 Z" fill="#000000" fill-rule="nonzero" fill-opacity="1" /><path clip-path="url(#clip590)" d="M2078.84 1481.64 L2095.16 1481.64 L2095.16 1485.58 L2073.21 1485.58 L2073.21 1481.64 Q2075.88 1478.89 2080.46 1474.26 Q2085.07 1469.61 2086.25 1468.27 Q2088.49 1465.74 2089.37 1464.01 Q2090.27 1462.25 2090.27 1460.56 Q2090.27 1457.8 2088.33 1456.07 Q2086.41 1454.33 2083.31 1454.33 Q2081.11 1454.33 2078.65 1455.09 Q2076.22 1455.86 2073.45 1457.41 L2073.45 1452.69 Q2076.27 1451.55 2078.72 1450.97 Q2081.18 1450.39 2083.21 1450.39 Q2088.58 1450.39 2091.78 1453.08 Q2094.97 1455.77 2094.97 1460.26 Q2094.97 1462.39 2094.16 1464.31 Q2093.38 1466.2 2091.27 1468.8 Q2090.69 1469.47 2087.59 1472.69 Q2084.49 1475.88 2078.84 1481.64 Z" fill="#000000" fill-rule="nonzero" fill-opacity="1" /><path clip-path="url(#clip590)" d="M2117.82 1455.09 L2106.02 1473.54 L2117.82 1473.54 L2117.82 1455.09 M2116.59 1451.02 L2122.47 1451.02 L2122.47 1473.54 L2127.4 1473.54 L2127.4 1477.43 L2122.47 1477.43 L2122.47 1485.58 L2117.82 1485.58 L2117.82 1477.43 L2102.22 1477.43 L2102.22 1472.92 L2116.59 1451.02 Z" fill="#000000" fill-rule="nonzero" fill-opacity="1" /><path clip-path="url(#clip590)" d="M2145.14 1454.1 Q2141.52 1454.1 2139.7 1457.66 Q2137.89 1461.2 2137.89 1468.33 Q2137.89 1475.44 2139.7 1479.01 Q2141.52 1482.55 2145.14 1482.55 Q2148.77 1482.55 2150.58 1479.01 Q2152.4 1475.44 2152.4 1468.33 Q2152.4 1461.2 2150.58 1457.66 Q2148.77 1454.1 2145.14 1454.1 M2145.14 1450.39 Q2150.95 1450.39 2154 1455 Q2157.08 1459.58 2157.08 1468.33 Q2157.08 1477.06 2154 1481.67 Q2150.95 1486.25 2145.14 1486.25 Q2139.33 1486.25 2136.25 1481.67 Q2133.19 1477.06 2133.19 1468.33 Q2133.19 1459.58 2136.25 1455 Q2139.33 1450.39 2145.14 1450.39 Z" fill="#000000" fill-rule="nonzero" fill-opacity="1" /><path clip-path="url(#clip590)" d="M1120.47 1525.81 L1120.47 1562.76 L1128.24 1562.76 Q1138.07 1562.76 1142.63 1558.3 Q1147.21 1553.85 1147.21 1544.24 Q1147.21 1534.69 1142.63 1530.26 Q1138.07 1525.81 1128.24 1525.81 L1120.47 1525.81 M1114.04 1520.52 L1127.25 1520.52 Q1141.07 1520.52 1147.53 1526.28 Q1153.99 1532.01 1153.99 1544.24 Q1153.99 1556.52 1147.5 1562.28 Q1141 1568.04 1127.25 1568.04 L1114.04 1568.04 L1114.04 1520.52 Z" fill="#000000" fill-rule="nonzero" fill-opacity="1" /><path clip-path="url(#clip590)" d="M1194.47 1548.76 L1194.47 1551.62 L1167.55 1551.62 Q1167.93 1557.67 1171.18 1560.85 Q1174.45 1564 1180.28 1564 Q1183.65 1564 1186.8 1563.17 Q1189.99 1562.35 1193.11 1560.69 L1193.11 1566.23 Q1189.96 1567.57 1186.65 1568.27 Q1183.33 1568.97 1179.93 1568.97 Q1171.4 1568.97 1166.4 1564 Q1161.44 1559.04 1161.44 1550.57 Q1161.44 1541.82 1166.15 1536.69 Q1170.89 1531.54 1178.91 1531.54 Q1186.1 1531.54 1190.27 1536.18 Q1194.47 1540.8 1194.47 1548.76 M1188.62 1547.04 Q1188.55 1542.23 1185.91 1539.37 Q1183.3 1536.5 1178.97 1536.5 Q1174.07 1536.5 1171.11 1539.27 Q1168.18 1542.04 1167.74 1547.07 L1188.62 1547.04 Z" fill="#000000" fill-rule="nonzero" fill-opacity="1" /><path clip-path="url(#clip590)" d="M1231.84 1539.24 Q1234.04 1535.29 1237.09 1533.41 Q1240.15 1531.54 1244.29 1531.54 Q1249.86 1531.54 1252.88 1535.45 Q1255.9 1539.33 1255.9 1546.53 L1255.9 1568.04 L1250.02 1568.04 L1250.02 1546.72 Q1250.02 1541.59 1248.2 1539.11 Q1246.39 1536.63 1242.66 1536.63 Q1238.11 1536.63 1235.47 1539.65 Q1232.83 1542.68 1232.83 1547.9 L1232.83 1568.04 L1226.94 1568.04 L1226.94 1546.72 Q1226.94 1541.56 1225.13 1539.11 Q1223.31 1536.63 1219.52 1536.63 Q1215.04 1536.63 1212.39 1539.68 Q1209.75 1542.71 1209.75 1547.9 L1209.75 1568.04 L1203.86 1568.04 L1203.86 1532.4 L1209.75 1532.4 L1209.75 1537.93 Q1211.76 1534.66 1214.56 1533.1 Q1217.36 1531.54 1221.21 1531.54 Q1225.09 1531.54 1227.8 1533.51 Q1230.54 1535.48 1231.84 1539.24 Z" fill="#000000" fill-rule="nonzero" fill-opacity="1" /><path clip-path="url(#clip590)" d="M1283.79 1550.12 Q1276.69 1550.12 1273.95 1551.75 Q1271.21 1553.37 1271.21 1557.29 Q1271.21 1560.4 1273.25 1562.25 Q1275.32 1564.07 1278.85 1564.07 Q1283.72 1564.07 1286.65 1560.63 Q1289.61 1557.16 1289.61 1551.43 L1289.61 1550.12 L1283.79 1550.12 M1295.47 1547.71 L1295.47 1568.04 L1289.61 1568.04 L1289.61 1562.63 Q1287.61 1565.88 1284.61 1567.44 Q1281.62 1568.97 1277.29 1568.97 Q1271.82 1568.97 1268.57 1565.91 Q1265.36 1562.82 1265.36 1557.67 Q1265.36 1551.65 1269.37 1548.6 Q1273.41 1545.54 1281.4 1545.54 L1289.61 1545.54 L1289.61 1544.97 Q1289.61 1540.93 1286.94 1538.73 Q1284.29 1536.5 1279.49 1536.5 Q1276.43 1536.5 1273.54 1537.23 Q1270.64 1537.97 1267.97 1539.43 L1267.97 1534.02 Q1271.18 1532.78 1274.21 1532.17 Q1277.23 1531.54 1280.09 1531.54 Q1287.83 1531.54 1291.65 1535.55 Q1295.47 1539.56 1295.47 1547.71 Z" fill="#000000" fill-rule="nonzero" fill-opacity="1" /><path clip-path="url(#clip590)" d="M1337.16 1546.53 L1337.16 1568.04 L1331.31 1568.04 L1331.31 1546.72 Q1331.31 1541.66 1329.33 1539.14 Q1327.36 1536.63 1323.41 1536.63 Q1318.67 1536.63 1315.93 1539.65 Q1313.2 1542.68 1313.2 1547.9 L1313.2 1568.04 L1307.31 1568.04 L1307.31 1532.4 L1313.2 1532.4 L1313.2 1537.93 Q1315.3 1534.72 1318.13 1533.13 Q1320.99 1531.54 1324.72 1531.54 Q1330.86 1531.54 1334.01 1535.36 Q1337.16 1539.14 1337.16 1546.53 Z" fill="#000000" fill-rule="nonzero" fill-opacity="1" /><path clip-path="url(#clip590)" d="M1372.3 1537.81 L1372.3 1518.52 L1378.16 1518.52 L1378.16 1568.04 L1372.3 1568.04 L1372.3 1562.7 Q1370.45 1565.88 1367.62 1567.44 Q1364.82 1568.97 1360.87 1568.97 Q1354.41 1568.97 1350.34 1563.81 Q1346.3 1558.65 1346.3 1550.25 Q1346.3 1541.85 1350.34 1536.69 Q1354.41 1531.54 1360.87 1531.54 Q1364.82 1531.54 1367.62 1533.1 Q1370.45 1534.62 1372.3 1537.81 M1352.34 1550.25 Q1352.34 1556.71 1354.99 1560.4 Q1357.66 1564.07 1362.31 1564.07 Q1366.95 1564.07 1369.63 1560.4 Q1372.3 1556.71 1372.3 1550.25 Q1372.3 1543.79 1369.63 1540.13 Q1366.95 1536.44 1362.31 1536.44 Q1357.66 1536.44 1354.99 1540.13 Q1352.34 1543.79 1352.34 1550.25 Z" fill="#000000" fill-rule="nonzero" fill-opacity="1" /><polyline clip-path="url(#clip592)" style="stroke:#000000; stroke-linecap:round; stroke-linejoin:round; stroke-width:2; stroke-opacity:0.1; fill:none" points="139.446,1423.18 2352.76,1423.18 "/>
<polyline clip-path="url(#clip592)" style="stroke:#000000; stroke-linecap:round; stroke-linejoin:round; stroke-width:2; stroke-opacity:0.1; fill:none" points="139.446,1226.62 2352.76,1226.62 "/>
<polyline clip-path="url(#clip592)" style="stroke:#000000; stroke-linecap:round; stroke-linejoin:round; stroke-width:2; stroke-opacity:0.1; fill:none" points="139.446,1030.06 2352.76,1030.06 "/>
<polyline clip-path="url(#clip592)" style="stroke:#000000; stroke-linecap:round; stroke-linejoin:round; stroke-width:2; stroke-opacity:0.1; fill:none" points="139.446,833.493 2352.76,833.493 "/>
<polyline clip-path="url(#clip592)" style="stroke:#000000; stroke-linecap:round; stroke-linejoin:round; stroke-width:2; stroke-opacity:0.1; fill:none" points="139.446,636.931 2352.76,636.931 "/>
<polyline clip-path="url(#clip592)" style="stroke:#000000; stroke-linecap:round; stroke-linejoin:round; stroke-width:2; stroke-opacity:0.1; fill:none" points="139.446,440.369 2352.76,440.369 "/>
<polyline clip-path="url(#clip592)" style="stroke:#000000; stroke-linecap:round; stroke-linejoin:round; stroke-width:2; stroke-opacity:0.1; fill:none" points="139.446,243.806 2352.76,243.806 "/>
<polyline clip-path="url(#clip592)" style="stroke:#000000; stroke-linecap:round; stroke-linejoin:round; stroke-width:2; stroke-opacity:0.1; fill:none" points="139.446,47.2441 2352.76,47.2441 "/>
<polyline clip-path="url(#clip590)" style="stroke:#000000; stroke-linecap:round; stroke-linejoin:round; stroke-width:4; stroke-opacity:1; fill:none" points="139.446,1423.18 139.446,47.2441 "/>
<polyline clip-path="url(#clip590)" style="stroke:#000000; stroke-linecap:round; stroke-linejoin:round; stroke-width:4; stroke-opacity:1; fill:none" points="139.446,1423.18 158.343,1423.18 "/>
<polyline clip-path="url(#clip590)" style="stroke:#000000; stroke-linecap:round; stroke-linejoin:round; stroke-width:4; stroke-opacity:1; fill:none" points="139.446,1226.62 158.343,1226.62 "/>
<polyline clip-path="url(#clip590)" style="stroke:#000000; stroke-linecap:round; stroke-linejoin:round; stroke-width:4; stroke-opacity:1; fill:none" points="139.446,1030.06 158.343,1030.06 "/>
<polyline clip-path="url(#clip590)" style="stroke:#000000; stroke-linecap:round; stroke-linejoin:round; stroke-width:4; stroke-opacity:1; fill:none" points="139.446,833.493 158.343,833.493 "/>
<polyline clip-path="url(#clip590)" style="stroke:#000000; stroke-linecap:round; stroke-linejoin:round; stroke-width:4; stroke-opacity:1; fill:none" points="139.446,636.931 158.343,636.931 "/>
<polyline clip-path="url(#clip590)" style="stroke:#000000; stroke-linecap:round; stroke-linejoin:round; stroke-width:4; stroke-opacity:1; fill:none" points="139.446,440.369 158.343,440.369 "/>
<polyline clip-path="url(#clip590)" style="stroke:#000000; stroke-linecap:round; stroke-linejoin:round; stroke-width:4; stroke-opacity:1; fill:none" points="139.446,243.806 158.343,243.806 "/>
<polyline clip-path="url(#clip590)" style="stroke:#000000; stroke-linecap:round; stroke-linejoin:round; stroke-width:4; stroke-opacity:1; fill:none" points="139.446,47.2441 158.343,47.2441 "/>
<path clip-path="url(#clip590)" d="M91.5012 1408.98 Q87.8901 1408.98 86.0614 1412.54 Q84.2558 1416.08 84.2558 1423.21 Q84.2558 1430.32 86.0614 1433.89 Q87.8901 1437.43 91.5012 1437.43 Q95.1354 1437.43 96.941 1433.89 Q98.7696 1430.32 98.7696 1423.21 Q98.7696 1416.08 96.941 1412.54 Q95.1354 1408.98 91.5012 1408.98 M91.5012 1405.27 Q97.3113 1405.27 100.367 1409.88 Q103.446 1414.46 103.446 1423.21 Q103.446 1431.94 100.367 1436.55 Q97.3113 1441.13 91.5012 1441.13 Q85.691 1441.13 82.6123 1436.55 Q79.5568 1431.94 79.5568 1423.21 Q79.5568 1414.46 82.6123 1409.88 Q85.691 1405.27 91.5012 1405.27 Z" fill="#000000" fill-rule="nonzero" fill-opacity="1" /><path clip-path="url(#clip590)" d="M87.1262 1239.96 L103.446 1239.96 L103.446 1243.9 L81.5012 1243.9 L81.5012 1239.96 Q84.1632 1237.21 88.7466 1232.58 Q93.353 1227.93 94.5336 1226.58 Q96.7789 1224.06 97.6585 1222.32 Q98.5613 1220.56 98.5613 1218.87 Q98.5613 1216.12 96.6169 1214.38 Q94.6956 1212.65 91.5938 1212.65 Q89.3947 1212.65 86.941 1213.41 Q84.5105 1214.18 81.7327 1215.73 L81.7327 1211 Q84.5568 1209.87 87.0105 1209.29 Q89.4641 1208.71 91.5012 1208.71 Q96.8715 1208.71 100.066 1211.4 Q103.26 1214.08 103.26 1218.57 Q103.26 1220.7 102.45 1222.62 Q101.663 1224.52 99.5567 1227.12 Q98.978 1227.79 95.8761 1231 Q92.7743 1234.2 87.1262 1239.96 Z" fill="#000000" fill-rule="nonzero" fill-opacity="1" /><path clip-path="url(#clip590)" d="M93.8623 1016.85 L82.0568 1035.3 L93.8623 1035.3 L93.8623 1016.85 M92.6354 1012.78 L98.515 1012.78 L98.515 1035.3 L103.446 1035.3 L103.446 1039.19 L98.515 1039.19 L98.515 1047.34 L93.8623 1047.34 L93.8623 1039.19 L78.2605 1039.19 L78.2605 1034.67 L92.6354 1012.78 Z" fill="#000000" fill-rule="nonzero" fill-opacity="1" /><path clip-path="url(#clip590)" d="M91.9178 831.63 Q88.7697 831.63 86.9179 833.782 Q85.0892 835.935 85.0892 839.685 Q85.0892 843.412 86.9179 845.588 Q88.7697 847.741 91.9178 847.741 Q95.066 847.741 96.8947 845.588 Q98.7465 843.412 98.7465 839.685 Q98.7465 835.935 96.8947 833.782 Q95.066 831.63 91.9178 831.63 M101.2 816.977 L101.2 821.236 Q99.4409 820.403 97.6354 819.963 Q95.853 819.523 94.0937 819.523 Q89.4641 819.523 87.0105 822.648 Q84.5799 825.773 84.2327 832.093 Q85.5984 830.079 87.6586 829.014 Q89.7188 827.926 92.1956 827.926 Q97.4039 827.926 100.413 831.097 Q103.446 834.245 103.446 839.685 Q103.446 845.009 100.297 848.227 Q97.1493 851.444 91.9178 851.444 Q85.9225 851.444 82.7512 846.861 Q79.5799 842.255 79.5799 833.528 Q79.5799 825.333 83.4688 820.472 Q87.3577 815.588 93.9086 815.588 Q95.6678 815.588 97.4502 815.935 Q99.2558 816.283 101.2 816.977 Z" fill="#000000" fill-rule="nonzero" fill-opacity="1" /><path clip-path="url(#clip590)" d="M91.5938 637.799 Q88.2604 637.799 86.3392 639.581 Q84.441 641.364 84.441 644.489 Q84.441 647.614 86.3392 649.396 Q88.2604 651.178 91.5938 651.178 Q94.9271 651.178 96.8484 649.396 Q98.7696 647.591 98.7696 644.489 Q98.7696 641.364 96.8484 639.581 Q94.9502 637.799 91.5938 637.799 M86.9179 635.808 Q83.9086 635.067 82.2188 633.007 Q80.5522 630.947 80.5522 627.984 Q80.5522 623.841 83.492 621.433 Q86.4549 619.026 91.5938 619.026 Q96.7558 619.026 99.6956 621.433 Q102.635 623.841 102.635 627.984 Q102.635 630.947 100.946 633.007 Q99.2789 635.067 96.2928 635.808 Q99.6724 636.595 101.547 638.887 Q103.446 641.179 103.446 644.489 Q103.446 649.512 100.367 652.197 Q97.3113 654.882 91.5938 654.882 Q85.8762 654.882 82.7975 652.197 Q79.742 649.512 79.742 644.489 Q79.742 641.179 81.6401 638.887 Q83.5382 636.595 86.9179 635.808 M85.2049 628.424 Q85.2049 631.109 86.8716 632.614 Q88.5614 634.118 91.5938 634.118 Q94.603 634.118 96.2928 632.614 Q98.0058 631.109 98.0058 628.424 Q98.0058 625.739 96.2928 624.234 Q94.603 622.73 91.5938 622.73 Q88.5614 622.73 86.8716 624.234 Q85.2049 625.739 85.2049 628.424 Z" fill="#000000" fill-rule="nonzero" fill-opacity="1" /><path clip-path="url(#clip590)" d="M52.1495 453.713 L59.7884 453.713 L59.7884 427.348 L51.4782 429.014 L51.4782 424.755 L59.7421 423.089 L64.418 423.089 L64.418 453.713 L72.0568 453.713 L72.0568 457.649 L52.1495 457.649 L52.1495 453.713 Z" fill="#000000" fill-rule="nonzero" fill-opacity="1" /><path clip-path="url(#clip590)" d="M91.5012 426.167 Q87.8901 426.167 86.0614 429.732 Q84.2558 433.274 84.2558 440.403 Q84.2558 447.51 86.0614 451.075 Q87.8901 454.616 91.5012 454.616 Q95.1354 454.616 96.941 451.075 Q98.7696 447.51 98.7696 440.403 Q98.7696 433.274 96.941 429.732 Q95.1354 426.167 91.5012 426.167 M91.5012 422.464 Q97.3113 422.464 100.367 427.07 Q103.446 431.653 103.446 440.403 Q103.446 449.13 100.367 453.737 Q97.3113 458.32 91.5012 458.32 Q85.691 458.32 82.6123 453.737 Q79.5568 449.13 79.5568 440.403 Q79.5568 431.653 82.6123 427.07 Q85.691 422.464 91.5012 422.464 Z" fill="#000000" fill-rule="nonzero" fill-opacity="1" /><path clip-path="url(#clip590)" d="M53.7467 257.151 L61.3856 257.151 L61.3856 230.786 L53.0754 232.452 L53.0754 228.193 L61.3393 226.526 L66.0152 226.526 L66.0152 257.151 L73.654 257.151 L73.654 261.086 L53.7467 261.086 L53.7467 257.151 Z" fill="#000000" fill-rule="nonzero" fill-opacity="1" /><path clip-path="url(#clip590)" d="M87.1262 257.151 L103.446 257.151 L103.446 261.086 L81.5012 261.086 L81.5012 257.151 Q84.1632 254.397 88.7466 249.767 Q93.353 245.114 94.5336 243.772 Q96.7789 241.248 97.6585 239.512 Q98.5613 237.753 98.5613 236.063 Q98.5613 233.309 96.6169 231.573 Q94.6956 229.837 91.5938 229.837 Q89.3947 229.837 86.941 230.6 Q84.5105 231.364 81.7327 232.915 L81.7327 228.193 Q84.5568 227.059 87.0105 226.48 Q89.4641 225.901 91.5012 225.901 Q96.8715 225.901 100.066 228.587 Q103.26 231.272 103.26 235.762 Q103.26 237.892 102.45 239.813 Q101.663 241.711 99.5567 244.304 Q98.978 244.975 95.8761 248.193 Q92.7743 251.387 87.1262 257.151 Z" fill="#000000" fill-rule="nonzero" fill-opacity="1" /><path clip-path="url(#clip590)" d="M51.6634 60.5889 L59.3023 60.5889 L59.3023 34.2233 L50.9921 35.89 L50.9921 31.6308 L59.256 29.9641 L63.9319 29.9641 L63.9319 60.5889 L71.5707 60.5889 L71.5707 64.5241 L51.6634 64.5241 L51.6634 60.5889 Z" fill="#000000" fill-rule="nonzero" fill-opacity="1" /><path clip-path="url(#clip590)" d="M93.8623 34.0381 L82.0568 52.4871 L93.8623 52.4871 L93.8623 34.0381 M92.6354 29.9641 L98.515 29.9641 L98.515 52.4871 L103.446 52.4871 L103.446 56.376 L98.515 56.376 L98.515 64.5241 L93.8623 64.5241 L93.8623 56.376 L78.2605 56.376 L78.2605 51.8621 L92.6354 29.9641 Z" fill="#000000" fill-rule="nonzero" fill-opacity="1" /><path clip-path="url(#clip592)" d="M261.182 931.774 L261.182 1423.18 L377.054 1423.18 L377.054 931.774 L261.182 931.774 L261.182 931.774  Z" fill="#009af9" fill-rule="evenodd" fill-opacity="1"/>
<polyline clip-path="url(#clip592)" style="stroke:#000000; stroke-linecap:round; stroke-linejoin:round; stroke-width:4; stroke-opacity:1; fill:none" points="261.182,931.774 261.182,1423.18 377.054,1423.18 377.054,931.774 261.182,931.774 "/>
<path clip-path="url(#clip592)" d="M377.054 1324.9 L377.054 1423.18 L492.927 1423.18 L492.927 1324.9 L377.054 1324.9 L377.054 1324.9  Z" fill="#009af9" fill-rule="evenodd" fill-opacity="1"/>
<polyline clip-path="url(#clip592)" style="stroke:#000000; stroke-linecap:round; stroke-linejoin:round; stroke-width:4; stroke-opacity:1; fill:none" points="377.054,1324.9 377.054,1423.18 492.927,1423.18 492.927,1324.9 377.054,1324.9 "/>
<path clip-path="url(#clip592)" d="M492.927 1226.62 L492.927 1423.18 L608.8 1423.18 L608.8 1226.62 L492.927 1226.62 L492.927 1226.62  Z" fill="#009af9" fill-rule="evenodd" fill-opacity="1"/>
<polyline clip-path="url(#clip592)" style="stroke:#000000; stroke-linecap:round; stroke-linejoin:round; stroke-width:4; stroke-opacity:1; fill:none" points="492.927,1226.62 492.927,1423.18 608.8,1423.18 608.8,1226.62 492.927,1226.62 "/>
<path clip-path="url(#clip592)" d="M608.8 1030.06 L608.8 1423.18 L724.673 1423.18 L724.673 1030.06 L608.8 1030.06 L608.8 1030.06  Z" fill="#009af9" fill-rule="evenodd" fill-opacity="1"/>
<polyline clip-path="url(#clip592)" style="stroke:#000000; stroke-linecap:round; stroke-linejoin:round; stroke-width:4; stroke-opacity:1; fill:none" points="608.8,1030.06 608.8,1423.18 724.673,1423.18 724.673,1030.06 608.8,1030.06 "/>
<path clip-path="url(#clip592)" d="M724.673 636.931 L724.673 1423.18 L840.546 1423.18 L840.546 636.931 L724.673 636.931 L724.673 636.931  Z" fill="#009af9" fill-rule="evenodd" fill-opacity="1"/>
<polyline clip-path="url(#clip592)" style="stroke:#000000; stroke-linecap:round; stroke-linejoin:round; stroke-width:4; stroke-opacity:1; fill:none" points="724.673,636.931 724.673,1423.18 840.546,1423.18 840.546,636.931 724.673,636.931 "/>
<path clip-path="url(#clip592)" d="M840.546 931.774 L840.546 1423.18 L956.419 1423.18 L956.419 931.774 L840.546 931.774 L840.546 931.774  Z" fill="#009af9" fill-rule="evenodd" fill-opacity="1"/>
<polyline clip-path="url(#clip592)" style="stroke:#000000; stroke-linecap:round; stroke-linejoin:round; stroke-width:4; stroke-opacity:1; fill:none" points="840.546,931.774 840.546,1423.18 956.419,1423.18 956.419,931.774 840.546,931.774 "/>
<path clip-path="url(#clip592)" d="M956.419 243.806 L956.419 1423.18 L1072.29 1423.18 L1072.29 243.806 L956.419 243.806 L956.419 243.806  Z" fill="#009af9" fill-rule="evenodd" fill-opacity="1"/>
<polyline clip-path="url(#clip592)" style="stroke:#000000; stroke-linecap:round; stroke-linejoin:round; stroke-width:4; stroke-opacity:1; fill:none" points="956.419,243.806 956.419,1423.18 1072.29,1423.18 1072.29,243.806 956.419,243.806 "/>
<path clip-path="url(#clip592)" d="M1072.29 538.65 L1072.29 1423.18 L1188.16 1423.18 L1188.16 538.65 L1072.29 538.65 L1072.29 538.65  Z" fill="#009af9" fill-rule="evenodd" fill-opacity="1"/>
<polyline clip-path="url(#clip592)" style="stroke:#000000; stroke-linecap:round; stroke-linejoin:round; stroke-width:4; stroke-opacity:1; fill:none" points="1072.29,538.65 1072.29,1423.18 1188.16,1423.18 1188.16,538.65 1072.29,538.65 "/>
<path clip-path="url(#clip592)" d="M1188.16 636.931 L1188.16 1423.18 L1304.04 1423.18 L1304.04 636.931 L1188.16 636.931 L1188.16 636.931  Z" fill="#009af9" fill-rule="evenodd" fill-opacity="1"/>
<polyline clip-path="url(#clip592)" style="stroke:#000000; stroke-linecap:round; stroke-linejoin:round; stroke-width:4; stroke-opacity:1; fill:none" points="1188.16,636.931 1188.16,1423.18 1304.04,1423.18 1304.04,636.931 1188.16,636.931 "/>
<path clip-path="url(#clip592)" d="M1304.04 440.369 L1304.04 1423.18 L1419.91 1423.18 L1419.91 440.369 L1304.04 440.369 L1304.04 440.369  Z" fill="#009af9" fill-rule="evenodd" fill-opacity="1"/>
<polyline clip-path="url(#clip592)" style="stroke:#000000; stroke-linecap:round; stroke-linejoin:round; stroke-width:4; stroke-opacity:1; fill:none" points="1304.04,440.369 1304.04,1423.18 1419.91,1423.18 1419.91,440.369 1304.04,440.369 "/>
<path clip-path="url(#clip592)" d="M1419.91 47.2441 L1419.91 1423.18 L1535.78 1423.18 L1535.78 47.2441 L1419.91 47.2441 L1419.91 47.2441  Z" fill="#009af9" fill-rule="evenodd" fill-opacity="1"/>
<polyline clip-path="url(#clip592)" style="stroke:#000000; stroke-linecap:round; stroke-linejoin:round; stroke-width:4; stroke-opacity:1; fill:none" points="1419.91,47.2441 1419.91,1423.18 1535.78,1423.18 1535.78,47.2441 1419.91,47.2441 "/>
<path clip-path="url(#clip592)" d="M1535.78 1030.06 L1535.78 1423.18 L1651.66 1423.18 L1651.66 1030.06 L1535.78 1030.06 L1535.78 1030.06  Z" fill="#009af9" fill-rule="evenodd" fill-opacity="1"/>
<polyline clip-path="url(#clip592)" style="stroke:#000000; stroke-linecap:round; stroke-linejoin:round; stroke-width:4; stroke-opacity:1; fill:none" points="1535.78,1030.06 1535.78,1423.18 1651.66,1423.18 1651.66,1030.06 1535.78,1030.06 "/>
<path clip-path="url(#clip592)" d="M1651.66 1030.06 L1651.66 1423.18 L1767.53 1423.18 L1767.53 1030.06 L1651.66 1030.06 L1651.66 1030.06  Z" fill="#009af9" fill-rule="evenodd" fill-opacity="1"/>
<polyline clip-path="url(#clip592)" style="stroke:#000000; stroke-linecap:round; stroke-linejoin:round; stroke-width:4; stroke-opacity:1; fill:none" points="1651.66,1030.06 1651.66,1423.18 1767.53,1423.18 1767.53,1030.06 1651.66,1030.06 "/>
<path clip-path="url(#clip592)" d="M1767.53 833.493 L1767.53 1423.18 L1883.4 1423.18 L1883.4 833.493 L1767.53 833.493 L1767.53 833.493  Z" fill="#009af9" fill-rule="evenodd" fill-opacity="1"/>
<polyline clip-path="url(#clip592)" style="stroke:#000000; stroke-linecap:round; stroke-linejoin:round; stroke-width:4; stroke-opacity:1; fill:none" points="1767.53,833.493 1767.53,1423.18 1883.4,1423.18 1883.4,833.493 1767.53,833.493 "/>
<path clip-path="url(#clip592)" d="M1883.4 1030.06 L1883.4 1423.18 L1999.27 1423.18 L1999.27 1030.06 L1883.4 1030.06 L1883.4 1030.06  Z" fill="#009af9" fill-rule="evenodd" fill-opacity="1"/>
<polyline clip-path="url(#clip592)" style="stroke:#000000; stroke-linecap:round; stroke-linejoin:round; stroke-width:4; stroke-opacity:1; fill:none" points="1883.4,1030.06 1883.4,1423.18 1999.27,1423.18 1999.27,1030.06 1883.4,1030.06 "/>
<path clip-path="url(#clip592)" d="M1999.27 1226.62 L1999.27 1423.18 L2115.15 1423.18 L2115.15 1226.62 L1999.27 1226.62 L1999.27 1226.62  Z" fill="#009af9" fill-rule="evenodd" fill-opacity="1"/>
<polyline clip-path="url(#clip592)" style="stroke:#000000; stroke-linecap:round; stroke-linejoin:round; stroke-width:4; stroke-opacity:1; fill:none" points="1999.27,1226.62 1999.27,1423.18 2115.15,1423.18 2115.15,1226.62 1999.27,1226.62 "/>
<path clip-path="url(#clip592)" d="M2115.15 1226.62 L2115.15 1423.18 L2231.02 1423.18 L2231.02 1226.62 L2115.15 1226.62 L2115.15 1226.62  Z" fill="#009af9" fill-rule="evenodd" fill-opacity="1"/>
<polyline clip-path="url(#clip592)" style="stroke:#000000; stroke-linecap:round; stroke-linejoin:round; stroke-width:4; stroke-opacity:1; fill:none" points="2115.15,1226.62 2115.15,1423.18 2231.02,1423.18 2231.02,1226.62 2115.15,1226.62 "/>
<circle clip-path="url(#clip592)" style="fill:#009af9; stroke:none; fill-opacity:0" cx="319.118" cy="931.774" r="2"/>
<circle clip-path="url(#clip592)" style="fill:#009af9; stroke:none; fill-opacity:0" cx="434.991" cy="1324.9" r="2"/>
<circle clip-path="url(#clip592)" style="fill:#009af9; stroke:none; fill-opacity:0" cx="550.864" cy="1226.62" r="2"/>
<circle clip-path="url(#clip592)" style="fill:#009af9; stroke:none; fill-opacity:0" cx="666.737" cy="1030.06" r="2"/>
<circle clip-path="url(#clip592)" style="fill:#009af9; stroke:none; fill-opacity:0" cx="782.609" cy="636.931" r="2"/>
<circle clip-path="url(#clip592)" style="fill:#009af9; stroke:none; fill-opacity:0" cx="898.482" cy="931.774" r="2"/>
<circle clip-path="url(#clip592)" style="fill:#009af9; stroke:none; fill-opacity:0" cx="1014.36" cy="243.806" r="2"/>
<circle clip-path="url(#clip592)" style="fill:#009af9; stroke:none; fill-opacity:0" cx="1130.23" cy="538.65" r="2"/>
<circle clip-path="url(#clip592)" style="fill:#009af9; stroke:none; fill-opacity:0" cx="1246.1" cy="636.931" r="2"/>
<circle clip-path="url(#clip592)" style="fill:#009af9; stroke:none; fill-opacity:0" cx="1361.97" cy="440.369" r="2"/>
<circle clip-path="url(#clip592)" style="fill:#009af9; stroke:none; fill-opacity:0" cx="1477.85" cy="47.2441" r="2"/>
<circle clip-path="url(#clip592)" style="fill:#009af9; stroke:none; fill-opacity:0" cx="1593.72" cy="1030.06" r="2"/>
<circle clip-path="url(#clip592)" style="fill:#009af9; stroke:none; fill-opacity:0" cx="1709.59" cy="1030.06" r="2"/>
<circle clip-path="url(#clip592)" style="fill:#009af9; stroke:none; fill-opacity:0" cx="1825.46" cy="833.493" r="2"/>
<circle clip-path="url(#clip592)" style="fill:#009af9; stroke:none; fill-opacity:0" cx="1941.34" cy="1030.06" r="2"/>
<circle clip-path="url(#clip592)" style="fill:#009af9; stroke:none; fill-opacity:0" cx="2057.21" cy="1226.62" r="2"/>
<circle clip-path="url(#clip592)" style="fill:#009af9; stroke:none; fill-opacity:0" cx="2173.08" cy="1226.62" r="2"/>
</svg>
