<?xml version="1.0" encoding="utf-8"?>
<svg xmlns="http://www.w3.org/2000/svg" xmlns:xlink="http://www.w3.org/1999/xlink" width="600" height="400" viewBox="0 0 2400 1600">
<defs>
  <clipPath id="clip770">
    <rect x="0" y="0" width="2400" height="1600"/>
  </clipPath>
</defs>
<path clip-path="url(#clip770)" d="M0 1600 L2400 1600 L2400 0 L0 0  Z" fill="#ffffff" fill-rule="evenodd" fill-opacity="1"/>
<defs>
  <clipPath id="clip771">
    <rect x="480" y="0" width="1681" height="1600"/>
  </clipPath>
</defs>
<path clip-path="url(#clip770)" d="M141.853 1486.45 L2352.76 1486.45 L2352.76 47.2441 L141.853 47.2441  Z" fill="#ffffff" fill-rule="evenodd" fill-opacity="1"/>
<defs>
  <clipPath id="clip772">
    <rect x="141" y="47" width="2212" height="1440"/>
  </clipPath>
</defs>
<polyline clip-path="url(#clip772)" style="stroke:#000000; stroke-linecap:round; stroke-linejoin:round; stroke-width:2; stroke-opacity:0.1; fill:none" points="460.226,1486.45 460.226,47.2441 "/>
<polyline clip-path="url(#clip772)" style="stroke:#000000; stroke-linecap:round; stroke-linejoin:round; stroke-width:2; stroke-opacity:0.1; fill:none" points="853.765,1486.45 853.765,47.2441 "/>
<polyline clip-path="url(#clip772)" style="stroke:#000000; stroke-linecap:round; stroke-linejoin:round; stroke-width:2; stroke-opacity:0.1; fill:none" points="1247.3,1486.45 1247.3,47.2441 "/>
<polyline clip-path="url(#clip772)" style="stroke:#000000; stroke-linecap:round; stroke-linejoin:round; stroke-width:2; stroke-opacity:0.1; fill:none" points="1640.84,1486.45 1640.84,47.2441 "/>
<polyline clip-path="url(#clip772)" style="stroke:#000000; stroke-linecap:round; stroke-linejoin:round; stroke-width:2; stroke-opacity:0.1; fill:none" points="2034.38,1486.45 2034.38,47.2441 "/>
<polyline clip-path="url(#clip770)" style="stroke:#000000; stroke-linecap:round; stroke-linejoin:round; stroke-width:4; stroke-opacity:1; fill:none" points="141.853,1486.45 2352.76,1486.45 "/>
<polyline clip-path="url(#clip770)" style="stroke:#000000; stroke-linecap:round; stroke-linejoin:round; stroke-width:4; stroke-opacity:1; fill:none" points="460.226,1486.45 460.226,1467.55 "/>
<polyline clip-path="url(#clip770)" style="stroke:#000000; stroke-linecap:round; stroke-linejoin:round; stroke-width:4; stroke-opacity:1; fill:none" points="853.765,1486.45 853.765,1467.55 "/>
<polyline clip-path="url(#clip770)" style="stroke:#000000; stroke-linecap:round; stroke-linejoin:round; stroke-width:4; stroke-opacity:1; fill:none" points="1247.3,1486.45 1247.3,1467.55 "/>
<polyline clip-path="url(#clip770)" style="stroke:#000000; stroke-linecap:round; stroke-linejoin:round; stroke-width:4; stroke-opacity:1; fill:none" points="1640.84,1486.45 1640.84,1467.55 "/>
<polyline clip-path="url(#clip770)" style="stroke:#000000; stroke-linecap:round; stroke-linejoin:round; stroke-width:4; stroke-opacity:1; fill:none" points="2034.38,1486.45 2034.38,1467.55 "/>
<path clip-path="url(#clip770)" d="M433.317 1518.36 L421.511 1536.81 L433.317 1536.81 L433.317 1518.36 M432.09 1514.29 L437.969 1514.29 L437.969 1536.81 L442.9 1536.81 L442.9 1540.7 L437.969 1540.7 L437.969 1548.85 L433.317 1548.85 L433.317 1540.7 L417.715 1540.7 L417.715 1536.19 L432.09 1514.29 Z" fill="#000000" fill-rule="nonzero" fill-opacity="1" /><path clip-path="url(#clip770)" d="M460.631 1517.37 Q457.02 1517.37 455.191 1520.93 Q453.386 1524.47 453.386 1531.6 Q453.386 1538.71 455.191 1542.27 Q457.02 1545.82 460.631 1545.82 Q464.265 1545.82 466.071 1542.27 Q467.9 1538.71 467.9 1531.6 Q467.9 1524.47 466.071 1520.93 Q464.265 1517.37 460.631 1517.37 M460.631 1513.66 Q466.441 1513.66 469.497 1518.27 Q472.576 1522.85 472.576 1531.6 Q472.576 1540.33 469.497 1544.94 Q466.441 1549.52 460.631 1549.52 Q454.821 1549.52 451.742 1544.94 Q448.687 1540.33 448.687 1531.6 Q448.687 1522.85 451.742 1518.27 Q454.821 1513.66 460.631 1513.66 Z" fill="#000000" fill-rule="nonzero" fill-opacity="1" /><path clip-path="url(#clip770)" d="M490.793 1517.37 Q487.182 1517.37 485.353 1520.93 Q483.548 1524.47 483.548 1531.6 Q483.548 1538.71 485.353 1542.27 Q487.182 1545.82 490.793 1545.82 Q494.427 1545.82 496.233 1542.27 Q498.062 1538.71 498.062 1531.6 Q498.062 1524.47 496.233 1520.93 Q494.427 1517.37 490.793 1517.37 M490.793 1513.66 Q496.603 1513.66 499.659 1518.27 Q502.737 1522.85 502.737 1531.6 Q502.737 1540.33 499.659 1544.94 Q496.603 1549.52 490.793 1549.52 Q484.983 1549.52 481.904 1544.94 Q478.849 1540.33 478.849 1531.6 Q478.849 1522.85 481.904 1518.27 Q484.983 1513.66 490.793 1513.66 Z" fill="#000000" fill-rule="nonzero" fill-opacity="1" /><path clip-path="url(#clip770)" d="M826.856 1518.36 L815.05 1536.81 L826.856 1536.81 L826.856 1518.36 M825.629 1514.29 L831.508 1514.29 L831.508 1536.81 L836.439 1536.81 L836.439 1540.7 L831.508 1540.7 L831.508 1548.85 L826.856 1548.85 L826.856 1540.7 L811.254 1540.7 L811.254 1536.19 L825.629 1514.29 Z" fill="#000000" fill-rule="nonzero" fill-opacity="1" /><path clip-path="url(#clip770)" d="M844.217 1514.29 L862.573 1514.29 L862.573 1518.22 L848.499 1518.22 L848.499 1526.7 Q849.518 1526.35 850.536 1526.19 Q851.555 1526 852.573 1526 Q858.36 1526 861.74 1529.17 Q865.119 1532.34 865.119 1537.76 Q865.119 1543.34 861.647 1546.44 Q858.175 1549.52 851.856 1549.52 Q849.68 1549.52 847.411 1549.15 Q845.166 1548.78 842.758 1548.04 L842.758 1543.34 Q844.842 1544.47 847.064 1545.03 Q849.286 1545.58 851.763 1545.58 Q855.768 1545.58 858.106 1543.48 Q860.443 1541.37 860.443 1537.76 Q860.443 1534.15 858.106 1532.04 Q855.768 1529.94 851.763 1529.94 Q849.888 1529.94 848.013 1530.35 Q846.161 1530.77 844.217 1531.65 L844.217 1514.29 Z" fill="#000000" fill-rule="nonzero" fill-opacity="1" /><path clip-path="url(#clip770)" d="M884.332 1517.37 Q880.721 1517.37 878.892 1520.93 Q877.087 1524.47 877.087 1531.6 Q877.087 1538.71 878.892 1542.27 Q880.721 1545.82 884.332 1545.82 Q887.966 1545.82 889.772 1542.27 Q891.601 1538.71 891.601 1531.6 Q891.601 1524.47 889.772 1520.93 Q887.966 1517.37 884.332 1517.37 M884.332 1513.66 Q890.142 1513.66 893.198 1518.27 Q896.277 1522.85 896.277 1531.6 Q896.277 1540.33 893.198 1544.94 Q890.142 1549.52 884.332 1549.52 Q878.522 1549.52 875.443 1544.94 Q872.388 1540.33 872.388 1531.6 Q872.388 1522.85 875.443 1518.27 Q878.522 1513.66 884.332 1513.66 Z" fill="#000000" fill-rule="nonzero" fill-opacity="1" /><path clip-path="url(#clip770)" d="M1206.92 1514.29 L1225.28 1514.29 L1225.28 1518.22 L1211.21 1518.22 L1211.21 1526.7 Q1212.22 1526.35 1213.24 1526.19 Q1214.26 1526 1215.28 1526 Q1221.07 1526 1224.45 1529.17 Q1227.83 1532.34 1227.83 1537.76 Q1227.83 1543.34 1224.35 1546.44 Q1220.88 1549.52 1214.56 1549.52 Q1212.39 1549.52 1210.12 1549.15 Q1207.87 1548.78 1205.46 1548.04 L1205.46 1543.34 Q1207.55 1544.47 1209.77 1545.03 Q1211.99 1545.58 1214.47 1545.58 Q1218.47 1545.58 1220.81 1543.48 Q1223.15 1541.37 1223.15 1537.76 Q1223.15 1534.15 1220.81 1532.04 Q1218.47 1529.94 1214.47 1529.94 Q1212.59 1529.94 1210.72 1530.35 Q1208.87 1530.77 1206.92 1531.65 L1206.92 1514.29 Z" fill="#000000" fill-rule="nonzero" fill-opacity="1" /><path clip-path="url(#clip770)" d="M1247.04 1517.37 Q1243.43 1517.37 1241.6 1520.93 Q1239.79 1524.47 1239.79 1531.6 Q1239.79 1538.71 1241.6 1542.27 Q1243.43 1545.82 1247.04 1545.82 Q1250.67 1545.82 1252.48 1542.27 Q1254.31 1538.71 1254.31 1531.6 Q1254.31 1524.47 1252.48 1520.93 Q1250.67 1517.37 1247.04 1517.37 M1247.04 1513.66 Q1252.85 1513.66 1255.9 1518.27 Q1258.98 1522.85 1258.98 1531.6 Q1258.98 1540.33 1255.9 1544.94 Q1252.85 1549.52 1247.04 1549.52 Q1241.23 1549.52 1238.15 1544.94 Q1235.09 1540.33 1235.09 1531.6 Q1235.09 1522.85 1238.15 1518.27 Q1241.23 1513.66 1247.04 1513.66 Z" fill="#000000" fill-rule="nonzero" fill-opacity="1" /><path clip-path="url(#clip770)" d="M1277.2 1517.37 Q1273.59 1517.37 1271.76 1520.93 Q1269.95 1524.47 1269.95 1531.6 Q1269.95 1538.71 1271.76 1542.27 Q1273.59 1545.82 1277.2 1545.82 Q1280.83 1545.82 1282.64 1542.27 Q1284.47 1538.71 1284.47 1531.6 Q1284.47 1524.47 1282.64 1520.93 Q1280.83 1517.37 1277.2 1517.37 M1277.2 1513.66 Q1283.01 1513.66 1286.07 1518.27 Q1289.14 1522.85 1289.14 1531.6 Q1289.14 1540.33 1286.07 1544.94 Q1283.01 1549.52 1277.2 1549.52 Q1271.39 1549.52 1268.31 1544.94 Q1265.26 1540.33 1265.26 1531.6 Q1265.26 1522.85 1268.31 1518.27 Q1271.39 1513.66 1277.2 1513.66 Z" fill="#000000" fill-rule="nonzero" fill-opacity="1" /><path clip-path="url(#clip770)" d="M1600.46 1514.29 L1618.82 1514.29 L1618.82 1518.22 L1604.74 1518.22 L1604.74 1526.7 Q1605.76 1526.35 1606.78 1526.19 Q1607.8 1526 1608.82 1526 Q1614.61 1526 1617.98 1529.17 Q1621.36 1532.34 1621.36 1537.76 Q1621.36 1543.34 1617.89 1546.44 Q1614.42 1549.52 1608.1 1549.52 Q1605.92 1549.52 1603.66 1549.15 Q1601.41 1548.78 1599 1548.04 L1599 1543.34 Q1601.09 1544.47 1603.31 1545.03 Q1605.53 1545.58 1608.01 1545.58 Q1612.01 1545.58 1614.35 1543.48 Q1616.69 1541.37 1616.69 1537.76 Q1616.69 1534.15 1614.35 1532.04 Q1612.01 1529.94 1608.01 1529.94 Q1606.13 1529.94 1604.26 1530.35 Q1602.41 1530.77 1600.46 1531.65 L1600.46 1514.29 Z" fill="#000000" fill-rule="nonzero" fill-opacity="1" /><path clip-path="url(#clip770)" d="M1630.62 1514.29 L1648.98 1514.29 L1648.98 1518.22 L1634.91 1518.22 L1634.91 1526.7 Q1635.92 1526.35 1636.94 1526.19 Q1637.96 1526 1638.98 1526 Q1644.77 1526 1648.15 1529.17 Q1651.53 1532.34 1651.53 1537.76 Q1651.53 1543.34 1648.05 1546.44 Q1644.58 1549.52 1638.26 1549.52 Q1636.09 1549.52 1633.82 1549.15 Q1631.57 1548.78 1629.17 1548.04 L1629.17 1543.34 Q1631.25 1544.47 1633.47 1545.03 Q1635.69 1545.58 1638.17 1545.58 Q1642.17 1545.58 1644.51 1543.48 Q1646.85 1541.37 1646.85 1537.76 Q1646.85 1534.15 1644.51 1532.04 Q1642.17 1529.94 1638.17 1529.94 Q1636.29 1529.94 1634.42 1530.35 Q1632.57 1530.77 1630.62 1531.65 L1630.62 1514.29 Z" fill="#000000" fill-rule="nonzero" fill-opacity="1" /><path clip-path="url(#clip770)" d="M1670.74 1517.37 Q1667.13 1517.37 1665.3 1520.93 Q1663.49 1524.47 1663.49 1531.6 Q1663.49 1538.71 1665.3 1542.27 Q1667.13 1545.82 1670.74 1545.82 Q1674.37 1545.82 1676.18 1542.27 Q1678.01 1538.71 1678.01 1531.6 Q1678.01 1524.47 1676.18 1520.93 Q1674.37 1517.37 1670.74 1517.37 M1670.74 1513.66 Q1676.55 1513.66 1679.6 1518.27 Q1682.68 1522.85 1682.68 1531.6 Q1682.68 1540.33 1679.6 1544.94 Q1676.55 1549.52 1670.74 1549.52 Q1664.93 1549.52 1661.85 1544.94 Q1658.79 1540.33 1658.79 1531.6 Q1658.79 1522.85 1661.85 1518.27 Q1664.93 1513.66 1670.74 1513.66 Z" fill="#000000" fill-rule="nonzero" fill-opacity="1" /><path clip-path="url(#clip770)" d="M2004.71 1529.7 Q2001.56 1529.7 1999.71 1531.86 Q1997.88 1534.01 1997.88 1537.76 Q1997.88 1541.49 1999.71 1543.66 Q2001.56 1545.82 2004.71 1545.82 Q2007.86 1545.82 2009.68 1543.66 Q2011.54 1541.49 2011.54 1537.76 Q2011.54 1534.01 2009.68 1531.86 Q2007.86 1529.7 2004.71 1529.7 M2013.99 1515.05 L2013.99 1519.31 Q2012.23 1518.48 2010.42 1518.04 Q2008.64 1517.6 2006.88 1517.6 Q2002.25 1517.6 1999.8 1520.72 Q1997.37 1523.85 1997.02 1530.17 Q1998.39 1528.15 2000.45 1527.09 Q2002.51 1526 2004.98 1526 Q2010.19 1526 2013.2 1529.17 Q2016.23 1532.32 2016.23 1537.76 Q2016.23 1543.08 2013.09 1546.3 Q2009.94 1549.52 2004.71 1549.52 Q1998.71 1549.52 1995.54 1544.94 Q1992.37 1540.33 1992.37 1531.6 Q1992.37 1523.41 1996.26 1518.55 Q2000.15 1513.66 2006.7 1513.66 Q2008.46 1513.66 2010.24 1514.01 Q2012.04 1514.36 2013.99 1515.05 Z" fill="#000000" fill-rule="nonzero" fill-opacity="1" /><path clip-path="url(#clip770)" d="M2034.29 1517.37 Q2030.68 1517.37 2028.85 1520.93 Q2027.04 1524.47 2027.04 1531.6 Q2027.04 1538.71 2028.85 1542.27 Q2030.68 1545.82 2034.29 1545.82 Q2037.92 1545.82 2039.73 1542.27 Q2041.56 1538.71 2041.56 1531.6 Q2041.56 1524.47 2039.73 1520.93 Q2037.92 1517.37 2034.29 1517.37 M2034.29 1513.66 Q2040.1 1513.66 2043.16 1518.27 Q2046.23 1522.85 2046.23 1531.6 Q2046.23 1540.33 2043.16 1544.94 Q2040.1 1549.52 2034.29 1549.52 Q2028.48 1549.52 2025.4 1544.94 Q2022.35 1540.33 2022.35 1531.6 Q2022.35 1522.85 2025.4 1518.27 Q2028.48 1513.66 2034.29 1513.66 Z" fill="#000000" fill-rule="nonzero" fill-opacity="1" /><path clip-path="url(#clip770)" d="M2064.45 1517.37 Q2060.84 1517.37 2059.01 1520.93 Q2057.21 1524.47 2057.21 1531.6 Q2057.21 1538.71 2059.01 1542.27 Q2060.84 1545.82 2064.45 1545.82 Q2068.09 1545.82 2069.89 1542.27 Q2071.72 1538.71 2071.72 1531.6 Q2071.72 1524.47 2069.89 1520.93 Q2068.09 1517.37 2064.45 1517.37 M2064.45 1513.66 Q2070.26 1513.66 2073.32 1518.27 Q2076.4 1522.85 2076.4 1531.6 Q2076.4 1540.33 2073.32 1544.94 Q2070.26 1549.52 2064.45 1549.52 Q2058.64 1549.52 2055.56 1544.94 Q2052.51 1540.33 2052.51 1531.6 Q2052.51 1522.85 2055.56 1518.27 Q2058.64 1513.66 2064.45 1513.66 Z" fill="#000000" fill-rule="nonzero" fill-opacity="1" /><polyline clip-path="url(#clip772)" style="stroke:#000000; stroke-linecap:round; stroke-linejoin:round; stroke-width:2; stroke-opacity:0.1; fill:none" points="141.853,1486.45 2352.76,1486.45 "/>
<polyline clip-path="url(#clip772)" style="stroke:#000000; stroke-linecap:round; stroke-linejoin:round; stroke-width:2; stroke-opacity:0.1; fill:none" points="141.853,1126.65 2352.76,1126.65 "/>
<polyline clip-path="url(#clip772)" style="stroke:#000000; stroke-linecap:round; stroke-linejoin:round; stroke-width:2; stroke-opacity:0.1; fill:none" points="141.853,766.846 2352.76,766.846 "/>
<polyline clip-path="url(#clip772)" style="stroke:#000000; stroke-linecap:round; stroke-linejoin:round; stroke-width:2; stroke-opacity:0.1; fill:none" points="141.853,407.045 2352.76,407.045 "/>
<polyline clip-path="url(#clip772)" style="stroke:#000000; stroke-linecap:round; stroke-linejoin:round; stroke-width:2; stroke-opacity:0.1; fill:none" points="141.853,47.2441 2352.76,47.2441 "/>
<polyline clip-path="url(#clip770)" style="stroke:#000000; stroke-linecap:round; stroke-linejoin:round; stroke-width:4; stroke-opacity:1; fill:none" points="141.853,1486.45 141.853,47.2441 "/>
<polyline clip-path="url(#clip770)" style="stroke:#000000; stroke-linecap:round; stroke-linejoin:round; stroke-width:4; stroke-opacity:1; fill:none" points="141.853,1486.45 160.751,1486.45 "/>
<polyline clip-path="url(#clip770)" style="stroke:#000000; stroke-linecap:round; stroke-linejoin:round; stroke-width:4; stroke-opacity:1; fill:none" points="141.853,1126.65 160.751,1126.65 "/>
<polyline clip-path="url(#clip770)" style="stroke:#000000; stroke-linecap:round; stroke-linejoin:round; stroke-width:4; stroke-opacity:1; fill:none" points="141.853,766.846 160.751,766.846 "/>
<polyline clip-path="url(#clip770)" style="stroke:#000000; stroke-linecap:round; stroke-linejoin:round; stroke-width:4; stroke-opacity:1; fill:none" points="141.853,407.045 160.751,407.045 "/>
<polyline clip-path="url(#clip770)" style="stroke:#000000; stroke-linecap:round; stroke-linejoin:round; stroke-width:4; stroke-opacity:1; fill:none" points="141.853,47.2441 160.751,47.2441 "/>
<path clip-path="url(#clip770)" d="M93.9086 1472.25 Q90.2975 1472.25 88.4688 1475.81 Q86.6632 1479.35 86.6632 1486.48 Q86.6632 1493.59 88.4688 1497.15 Q90.2975 1500.7 93.9086 1500.7 Q97.5428 1500.7 99.3483 1497.15 Q101.177 1493.59 101.177 1486.48 Q101.177 1479.35 99.3483 1475.81 Q97.5428 1472.25 93.9086 1472.25 M93.9086 1468.54 Q99.7187 1468.54 102.774 1473.15 Q105.853 1477.73 105.853 1486.48 Q105.853 1495.21 102.774 1499.82 Q99.7187 1504.4 93.9086 1504.4 Q88.0984 1504.4 85.0197 1499.82 Q81.9642 1495.21 81.9642 1486.48 Q81.9642 1477.73 85.0197 1473.15 Q88.0984 1468.54 93.9086 1468.54 Z" fill="#000000" fill-rule="nonzero" fill-opacity="1" /><path clip-path="url(#clip770)" d="M57.7745 1139.99 L74.0939 1139.99 L74.0939 1143.93 L52.1495 1143.93 L52.1495 1139.99 Q54.8115 1137.24 59.3949 1132.61 Q64.0013 1127.95 65.1819 1126.61 Q67.4272 1124.09 68.3068 1122.35 Q69.2096 1120.59 69.2096 1118.9 Q69.2096 1116.15 67.2652 1114.41 Q65.3439 1112.68 62.2421 1112.68 Q60.043 1112.68 57.5893 1113.44 Q55.1588 1114.2 52.381 1115.76 L52.381 1111.03 Q55.2051 1109.9 57.6588 1109.32 Q60.1124 1108.74 62.1495 1108.74 Q67.5198 1108.74 70.7142 1111.43 Q73.9087 1114.11 73.9087 1118.6 Q73.9087 1120.73 73.0985 1122.65 Q72.3115 1124.55 70.205 1127.14 Q69.6263 1127.82 66.5245 1131.03 Q63.4226 1134.23 57.7745 1139.99 Z" fill="#000000" fill-rule="nonzero" fill-opacity="1" /><path clip-path="url(#clip770)" d="M93.9086 1112.45 Q90.2975 1112.45 88.4688 1116.01 Q86.6632 1119.55 86.6632 1126.68 Q86.6632 1133.79 88.4688 1137.35 Q90.2975 1140.89 93.9086 1140.89 Q97.5428 1140.89 99.3483 1137.35 Q101.177 1133.79 101.177 1126.68 Q101.177 1119.55 99.3483 1116.01 Q97.5428 1112.45 93.9086 1112.45 M93.9086 1108.74 Q99.7187 1108.74 102.774 1113.35 Q105.853 1117.93 105.853 1126.68 Q105.853 1135.41 102.774 1140.01 Q99.7187 1144.6 93.9086 1144.6 Q88.0984 1144.6 85.0197 1140.01 Q81.9642 1135.41 81.9642 1126.68 Q81.9642 1117.93 85.0197 1113.35 Q88.0984 1108.74 93.9086 1108.74 Z" fill="#000000" fill-rule="nonzero" fill-opacity="1" /><path clip-path="url(#clip770)" d="M66.5939 753.64 L54.7884 772.089 L66.5939 772.089 L66.5939 753.64 M65.367 749.566 L71.2466 749.566 L71.2466 772.089 L76.1772 772.089 L76.1772 775.978 L71.2466 775.978 L71.2466 784.126 L66.5939 784.126 L66.5939 775.978 L50.9921 775.978 L50.9921 771.464 L65.367 749.566 Z" fill="#000000" fill-rule="nonzero" fill-opacity="1" /><path clip-path="url(#clip770)" d="M93.9086 752.645 Q90.2975 752.645 88.4688 756.209 Q86.6632 759.751 86.6632 766.881 Q86.6632 773.987 88.4688 777.552 Q90.2975 781.094 93.9086 781.094 Q97.5428 781.094 99.3483 777.552 Q101.177 773.987 101.177 766.881 Q101.177 759.751 99.3483 756.209 Q97.5428 752.645 93.9086 752.645 M93.9086 748.941 Q99.7187 748.941 102.774 753.547 Q105.853 758.131 105.853 766.881 Q105.853 775.608 102.774 780.214 Q99.7187 784.797 93.9086 784.797 Q88.0984 784.797 85.0197 780.214 Q81.9642 775.608 81.9642 766.881 Q81.9642 758.131 85.0197 753.547 Q88.0984 748.941 93.9086 748.941 Z" fill="#000000" fill-rule="nonzero" fill-opacity="1" /><path clip-path="url(#clip770)" d="M64.3254 405.182 Q61.1773 405.182 59.3254 407.334 Q57.4967 409.487 57.4967 413.237 Q57.4967 416.964 59.3254 419.14 Q61.1773 421.293 64.3254 421.293 Q67.4735 421.293 69.3022 419.14 Q71.1541 416.964 71.1541 413.237 Q71.1541 409.487 69.3022 407.334 Q67.4735 405.182 64.3254 405.182 M73.6077 390.529 L73.6077 394.788 Q71.8485 393.955 70.0429 393.515 Q68.2606 393.075 66.5013 393.075 Q61.8717 393.075 59.418 396.2 Q56.9875 399.325 56.6402 405.645 Q58.006 403.631 60.0662 402.566 Q62.1263 401.478 64.6032 401.478 Q69.8115 401.478 72.8207 404.649 Q75.8531 407.797 75.8531 413.237 Q75.8531 418.561 72.705 421.779 Q69.5568 424.996 64.3254 424.996 Q58.33 424.996 55.1588 420.413 Q51.9875 415.807 51.9875 407.08 Q51.9875 398.885 55.8764 394.024 Q59.7652 389.14 66.3161 389.14 Q68.0754 389.14 69.8578 389.487 Q71.6633 389.834 73.6077 390.529 Z" fill="#000000" fill-rule="nonzero" fill-opacity="1" /><path clip-path="url(#clip770)" d="M93.9086 392.844 Q90.2975 392.844 88.4688 396.409 Q86.6632 399.95 86.6632 407.08 Q86.6632 414.186 88.4688 417.751 Q90.2975 421.293 93.9086 421.293 Q97.5428 421.293 99.3483 417.751 Q101.177 414.186 101.177 407.08 Q101.177 399.95 99.3483 396.409 Q97.5428 392.844 93.9086 392.844 M93.9086 389.14 Q99.7187 389.14 102.774 393.746 Q105.853 398.33 105.853 407.08 Q105.853 415.807 102.774 420.413 Q99.7187 424.996 93.9086 424.996 Q88.0984 424.996 85.0197 420.413 Q81.9642 415.807 81.9642 407.08 Q81.9642 398.33 85.0197 393.746 Q88.0984 389.14 93.9086 389.14 Z" fill="#000000" fill-rule="nonzero" fill-opacity="1" /><path clip-path="url(#clip770)" d="M63.7467 48.1121 Q60.4134 48.1121 58.4921 49.8945 Q56.5939 51.6769 56.5939 54.8019 Q56.5939 57.9269 58.4921 59.7093 Q60.4134 61.4917 63.7467 61.4917 Q67.08 61.4917 69.0013 59.7093 Q70.9226 57.9038 70.9226 54.8019 Q70.9226 51.6769 69.0013 49.8945 Q67.1032 48.1121 63.7467 48.1121 M59.0708 46.1214 Q56.0615 45.3807 54.3717 43.3205 Q52.7051 41.2603 52.7051 38.2974 Q52.7051 34.1539 55.6449 31.7465 Q58.6078 29.3391 63.7467 29.3391 Q68.9087 29.3391 71.8485 31.7465 Q74.7883 34.1539 74.7883 38.2974 Q74.7883 41.2603 73.0985 43.3205 Q71.4318 45.3807 68.4457 46.1214 Q71.8253 46.9084 73.7003 49.2001 Q75.5985 51.4918 75.5985 54.8019 Q75.5985 59.825 72.5198 62.5102 Q69.4642 65.1954 63.7467 65.1954 Q58.0291 65.1954 54.9504 62.5102 Q51.8949 59.825 51.8949 54.8019 Q51.8949 51.4918 53.793 49.2001 Q55.6912 46.9084 59.0708 46.1214 M57.3578 38.7372 Q57.3578 41.4224 59.0245 42.927 Q60.7143 44.4316 63.7467 44.4316 Q66.7559 44.4316 68.4457 42.927 Q70.1587 41.4224 70.1587 38.7372 Q70.1587 36.052 68.4457 34.5474 Q66.7559 33.0428 63.7467 33.0428 Q60.7143 33.0428 59.0245 34.5474 Q57.3578 36.052 57.3578 38.7372 Z" fill="#000000" fill-rule="nonzero" fill-opacity="1" /><path clip-path="url(#clip770)" d="M93.9086 33.0428 Q90.2975 33.0428 88.4688 36.6076 Q86.6632 40.1492 86.6632 47.2788 Q86.6632 54.3853 88.4688 57.9501 Q90.2975 61.4917 93.9086 61.4917 Q97.5428 61.4917 99.3483 57.9501 Q101.177 54.3853 101.177 47.2788 Q101.177 40.1492 99.3483 36.6076 Q97.5428 33.0428 93.9086 33.0428 M93.9086 29.3391 Q99.7187 29.3391 102.774 33.9456 Q105.853 38.5289 105.853 47.2788 Q105.853 56.0056 102.774 60.6121 Q99.7187 65.1954 93.9086 65.1954 Q88.0984 65.1954 85.0197 60.6121 Q81.9642 56.0056 81.9642 47.2788 Q81.9642 38.5289 85.0197 33.9456 Q88.0984 29.3391 93.9086 29.3391 Z" fill="#000000" fill-rule="nonzero" fill-opacity="1" /><path clip-path="url(#clip772)" d="M263.457 1414.49 L263.457 1486.45 L460.226 1486.45 L460.226 1414.49 L263.457 1414.49 L263.457 1414.49  Z" fill="#009af9" fill-rule="evenodd" fill-opacity="1"/>
<polyline clip-path="url(#clip772)" style="stroke:#000000; stroke-linecap:round; stroke-linejoin:round; stroke-width:4; stroke-opacity:1; fill:none" points="263.457,1414.49 263.457,1486.45 460.226,1486.45 460.226,1414.49 263.457,1414.49 "/>
<path clip-path="url(#clip772)" d="M460.226 1450.47 L460.226 1486.45 L656.996 1486.45 L656.996 1450.47 L460.226 1450.47 L460.226 1450.47  Z" fill="#009af9" fill-rule="evenodd" fill-opacity="1"/>
<polyline clip-path="url(#clip772)" style="stroke:#000000; stroke-linecap:round; stroke-linejoin:round; stroke-width:4; stroke-opacity:1; fill:none" points="460.226,1450.47 460.226,1486.45 656.996,1486.45 656.996,1450.47 460.226,1450.47 "/>
<path clip-path="url(#clip772)" d="M656.996 1468.46 L656.996 1486.45 L853.765 1486.45 L853.765 1468.46 L656.996 1468.46 L656.996 1468.46  Z" fill="#009af9" fill-rule="evenodd" fill-opacity="1"/>
<polyline clip-path="url(#clip772)" style="stroke:#000000; stroke-linecap:round; stroke-linejoin:round; stroke-width:4; stroke-opacity:1; fill:none" points="656.996,1468.46 656.996,1486.45 853.765,1486.45 853.765,1468.46 656.996,1468.46 "/>
<path clip-path="url(#clip772)" d="M853.765 1414.49 L853.765 1486.45 L1050.53 1486.45 L1050.53 1414.49 L853.765 1414.49 L853.765 1414.49  Z" fill="#009af9" fill-rule="evenodd" fill-opacity="1"/>
<polyline clip-path="url(#clip772)" style="stroke:#000000; stroke-linecap:round; stroke-linejoin:round; stroke-width:4; stroke-opacity:1; fill:none" points="853.765,1414.49 853.765,1486.45 1050.53,1486.45 1050.53,1414.49 853.765,1414.49 "/>
<path clip-path="url(#clip772)" d="M1050.53 1342.53 L1050.53 1486.45 L1247.3 1486.45 L1247.3 1342.53 L1050.53 1342.53 L1050.53 1342.53  Z" fill="#009af9" fill-rule="evenodd" fill-opacity="1"/>
<polyline clip-path="url(#clip772)" style="stroke:#000000; stroke-linecap:round; stroke-linejoin:round; stroke-width:4; stroke-opacity:1; fill:none" points="1050.53,1342.53 1050.53,1486.45 1247.3,1486.45 1247.3,1342.53 1050.53,1342.53 "/>
<path clip-path="url(#clip772)" d="M1247.3 1432.48 L1247.3 1486.45 L1444.07 1486.45 L1444.07 1432.48 L1247.3 1432.48 L1247.3 1432.48  Z" fill="#009af9" fill-rule="evenodd" fill-opacity="1"/>
<polyline clip-path="url(#clip772)" style="stroke:#000000; stroke-linecap:round; stroke-linejoin:round; stroke-width:4; stroke-opacity:1; fill:none" points="1247.3,1432.48 1247.3,1486.45 1444.07,1486.45 1444.07,1432.48 1247.3,1432.48 "/>
<path clip-path="url(#clip772)" d="M1444.07 1252.58 L1444.07 1486.45 L1640.84 1486.45 L1640.84 1252.58 L1444.07 1252.58 L1444.07 1252.58  Z" fill="#009af9" fill-rule="evenodd" fill-opacity="1"/>
<polyline clip-path="url(#clip772)" style="stroke:#000000; stroke-linecap:round; stroke-linejoin:round; stroke-width:4; stroke-opacity:1; fill:none" points="1444.07,1252.58 1444.07,1486.45 1640.84,1486.45 1640.84,1252.58 1444.07,1252.58 "/>
<path clip-path="url(#clip772)" d="M1640.84 1360.52 L1640.84 1486.45 L1837.61 1486.45 L1837.61 1360.52 L1640.84 1360.52 L1640.84 1360.52  Z" fill="#009af9" fill-rule="evenodd" fill-opacity="1"/>
<polyline clip-path="url(#clip772)" style="stroke:#000000; stroke-linecap:round; stroke-linejoin:round; stroke-width:4; stroke-opacity:1; fill:none" points="1640.84,1360.52 1640.84,1486.45 1837.61,1486.45 1837.61,1360.52 1640.84,1360.52 "/>
<path clip-path="url(#clip772)" d="M1837.61 1324.54 L1837.61 1486.45 L2034.38 1486.45 L2034.38 1324.54 L1837.61 1324.54 L1837.61 1324.54  Z" fill="#009af9" fill-rule="evenodd" fill-opacity="1"/>
<polyline clip-path="url(#clip772)" style="stroke:#000000; stroke-linecap:round; stroke-linejoin:round; stroke-width:4; stroke-opacity:1; fill:none" points="1837.61,1324.54 1837.61,1486.45 2034.38,1486.45 2034.38,1324.54 1837.61,1324.54 "/>
<path clip-path="url(#clip772)" d="M2034.38 604.936 L2034.38 1486.45 L2231.15 1486.45 L2231.15 604.936 L2034.38 604.936 L2034.38 604.936  Z" fill="#009af9" fill-rule="evenodd" fill-opacity="1"/>
<polyline clip-path="url(#clip772)" style="stroke:#000000; stroke-linecap:round; stroke-linejoin:round; stroke-width:4; stroke-opacity:1; fill:none" points="2034.38,604.936 2034.38,1486.45 2231.15,1486.45 2231.15,604.936 2034.38,604.936 "/>
<circle clip-path="url(#clip772)" style="fill:#009af9; stroke:none; fill-opacity:0" cx="361.841" cy="1414.49" r="2"/>
<circle clip-path="url(#clip772)" style="fill:#009af9; stroke:none; fill-opacity:0" cx="558.611" cy="1450.47" r="2"/>
<circle clip-path="url(#clip772)" style="fill:#009af9; stroke:none; fill-opacity:0" cx="755.38" cy="1468.46" r="2"/>
<circle clip-path="url(#clip772)" style="fill:#009af9; stroke:none; fill-opacity:0" cx="952.15" cy="1414.49" r="2"/>
<circle clip-path="url(#clip772)" style="fill:#009af9; stroke:none; fill-opacity:0" cx="1148.92" cy="1342.53" r="2"/>
<circle clip-path="url(#clip772)" style="fill:#009af9; stroke:none; fill-opacity:0" cx="1345.69" cy="1432.48" r="2"/>
<circle clip-path="url(#clip772)" style="fill:#009af9; stroke:none; fill-opacity:0" cx="1542.46" cy="1252.58" r="2"/>
<circle clip-path="url(#clip772)" style="fill:#009af9; stroke:none; fill-opacity:0" cx="1739.23" cy="1360.52" r="2"/>
<circle clip-path="url(#clip772)" style="fill:#009af9; stroke:none; fill-opacity:0" cx="1936" cy="1324.54" r="2"/>
<circle clip-path="url(#clip772)" style="fill:#009af9; stroke:none; fill-opacity:0" cx="2132.77" cy="604.936" r="2"/>
<path clip-path="url(#clip772)" d="M263.457 1486.45 L263.457 1486.45 L460.226 1486.45 L460.226 1486.45 L263.457 1486.45 L263.457 1486.45  Z" fill="#e26f46" fill-rule="evenodd" fill-opacity="0.5"/>
<polyline clip-path="url(#clip772)" style="stroke:#000000; stroke-linecap:round; stroke-linejoin:round; stroke-width:4; stroke-opacity:0.5; fill:none" points="263.457,1486.45 263.457,1486.45 460.226,1486.45 263.457,1486.45 "/>
<path clip-path="url(#clip772)" d="M460.226 1450.47 L460.226 1486.45 L656.996 1486.45 L656.996 1450.47 L460.226 1450.47 L460.226 1450.47  Z" fill="#e26f46" fill-rule="evenodd" fill-opacity="0.5"/>
<polyline clip-path="url(#clip772)" style="stroke:#000000; stroke-linecap:round; stroke-linejoin:round; stroke-width:4; stroke-opacity:0.5; fill:none" points="460.226,1450.47 460.226,1486.45 656.996,1486.45 656.996,1450.47 460.226,1450.47 "/>
<path clip-path="url(#clip772)" d="M656.996 1414.49 L656.996 1486.45 L853.765 1486.45 L853.765 1414.49 L656.996 1414.49 L656.996 1414.49  Z" fill="#e26f46" fill-rule="evenodd" fill-opacity="0.5"/>
<polyline clip-path="url(#clip772)" style="stroke:#000000; stroke-linecap:round; stroke-linejoin:round; stroke-width:4; stroke-opacity:0.5; fill:none" points="656.996,1414.49 656.996,1486.45 853.765,1486.45 853.765,1414.49 656.996,1414.49 "/>
<path clip-path="url(#clip772)" d="M853.765 1468.46 L853.765 1486.45 L1050.53 1486.45 L1050.53 1468.46 L853.765 1468.46 L853.765 1468.46  Z" fill="#e26f46" fill-rule="evenodd" fill-opacity="0.5"/>
<polyline clip-path="url(#clip772)" style="stroke:#000000; stroke-linecap:round; stroke-linejoin:round; stroke-width:4; stroke-opacity:0.5; fill:none" points="853.765,1468.46 853.765,1486.45 1050.53,1486.45 1050.53,1468.46 853.765,1468.46 "/>
<path clip-path="url(#clip772)" d="M1050.53 1450.47 L1050.53 1486.45 L1247.3 1486.45 L1247.3 1450.47 L1050.53 1450.47 L1050.53 1450.47  Z" fill="#e26f46" fill-rule="evenodd" fill-opacity="0.5"/>
<polyline clip-path="url(#clip772)" style="stroke:#000000; stroke-linecap:round; stroke-linejoin:round; stroke-width:4; stroke-opacity:0.5; fill:none" points="1050.53,1450.47 1050.53,1486.45 1247.3,1486.45 1247.3,1450.47 1050.53,1450.47 "/>
<path clip-path="url(#clip772)" d="M1247.3 1378.51 L1247.3 1486.45 L1444.07 1486.45 L1444.07 1378.51 L1247.3 1378.51 L1247.3 1378.51  Z" fill="#e26f46" fill-rule="evenodd" fill-opacity="0.5"/>
<polyline clip-path="url(#clip772)" style="stroke:#000000; stroke-linecap:round; stroke-linejoin:round; stroke-width:4; stroke-opacity:0.5; fill:none" points="1247.3,1378.51 1247.3,1486.45 1444.07,1486.45 1444.07,1378.51 1247.3,1378.51 "/>
<path clip-path="url(#clip772)" d="M1444.07 1396.5 L1444.07 1486.45 L1640.84 1486.45 L1640.84 1396.5 L1444.07 1396.5 L1444.07 1396.5  Z" fill="#e26f46" fill-rule="evenodd" fill-opacity="0.5"/>
<polyline clip-path="url(#clip772)" style="stroke:#000000; stroke-linecap:round; stroke-linejoin:round; stroke-width:4; stroke-opacity:0.5; fill:none" points="1444.07,1396.5 1444.07,1486.45 1640.84,1486.45 1640.84,1396.5 1444.07,1396.5 "/>
<path clip-path="url(#clip772)" d="M1640.84 47.2441 L1640.84 1486.45 L1837.61 1486.45 L1837.61 47.2441 L1640.84 47.2441 L1640.84 47.2441  Z" fill="#e26f46" fill-rule="evenodd" fill-opacity="0.5"/>
<polyline clip-path="url(#clip772)" style="stroke:#000000; stroke-linecap:round; stroke-linejoin:round; stroke-width:4; stroke-opacity:0.5; fill:none" points="1640.84,47.2441 1640.84,1486.45 1837.61,1486.45 1837.61,47.2441 1640.84,47.2441 "/>
<path clip-path="url(#clip772)" d="M1837.61 1486.45 L1837.61 1486.45 L2034.38 1486.45 L2034.38 1486.45 L1837.61 1486.45 L1837.61 1486.45  Z" fill="#e26f46" fill-rule="evenodd" fill-opacity="0.5"/>
<polyline clip-path="url(#clip772)" style="stroke:#000000; stroke-linecap:round; stroke-linejoin:round; stroke-width:4; stroke-opacity:0.5; fill:none" points="1837.61,1486.45 1837.61,1486.45 2034.38,1486.45 1837.61,1486.45 "/>
<path clip-path="url(#clip772)" d="M2034.38 1486.45 L2034.38 1486.45 L2231.15 1486.45 L2231.15 1486.45 L2034.38 1486.45 L2034.38 1486.45  Z" fill="#e26f46" fill-rule="evenodd" fill-opacity="0.5"/>
<polyline clip-path="url(#clip772)" style="stroke:#000000; stroke-linecap:round; stroke-linejoin:round; stroke-width:4; stroke-opacity:0.5; fill:none" points="2034.38,1486.45 2034.38,1486.45 2231.15,1486.45 2034.38,1486.45 "/>
<circle clip-path="url(#clip772)" style="fill:#e26f46; stroke:none; fill-opacity:0" cx="361.841" cy="1486.45" r="2"/>
<circle clip-path="url(#clip772)" style="fill:#e26f46; stroke:none; fill-opacity:0" cx="558.611" cy="1450.47" r="2"/>
<circle clip-path="url(#clip772)" style="fill:#e26f46; stroke:none; fill-opacity:0" cx="755.38" cy="1414.49" r="2"/>
<circle clip-path="url(#clip772)" style="fill:#e26f46; stroke:none; fill-opacity:0" cx="952.15" cy="1468.46" r="2"/>
<circle clip-path="url(#clip772)" style="fill:#e26f46; stroke:none; fill-opacity:0" cx="1148.92" cy="1450.47" r="2"/>
<circle clip-path="url(#clip772)" style="fill:#e26f46; stroke:none; fill-opacity:0" cx="1345.69" cy="1378.51" r="2"/>
<circle clip-path="url(#clip772)" style="fill:#e26f46; stroke:none; fill-opacity:0" cx="1542.46" cy="1396.5" r="2"/>
<circle clip-path="url(#clip772)" style="fill:#e26f46; stroke:none; fill-opacity:0" cx="1739.23" cy="47.2441" r="2"/>
<circle clip-path="url(#clip772)" style="fill:#e26f46; stroke:none; fill-opacity:0" cx="1936" cy="1486.45" r="2"/>
<circle clip-path="url(#clip772)" style="fill:#e26f46; stroke:none; fill-opacity:0" cx="2132.77" cy="1486.45" r="2"/>
<path clip-path="url(#clip770)" d="M215.55 250.738 L709.74 250.738 L709.74 95.2176 L215.55 95.2176  Z" fill="#ffffff" fill-rule="evenodd" fill-opacity="1"/>
<polyline clip-path="url(#clip770)" style="stroke:#000000; stroke-linecap:round; stroke-linejoin:round; stroke-width:4; stroke-opacity:1; fill:none" points="215.55,250.738 709.74,250.738 709.74,95.2176 215.55,95.2176 215.55,250.738 "/>
<path clip-path="url(#clip770)" d="M240.115 167.794 L387.509 167.794 L387.509 126.322 L240.115 126.322 L240.115 167.794  Z" fill="#009af9" fill-rule="evenodd" fill-opacity="1"/>
<polyline clip-path="url(#clip770)" style="stroke:#000000; stroke-linecap:round; stroke-linejoin:round; stroke-width:4; stroke-opacity:1; fill:none" points="240.115,167.794 387.509,167.794 387.509,126.322 240.115,126.322 240.115,167.794 "/>
<path clip-path="url(#clip770)" d="M412.074 129.778 L433.926 129.778 L433.926 133.713 L416.75 133.713 L416.75 143.944 L433.209 143.944 L433.209 147.879 L416.75 147.879 L416.75 160.402 L434.343 160.402 L434.343 164.338 L412.074 164.338 L412.074 129.778 Z" fill="#000000" fill-rule="nonzero" fill-opacity="1" /><path clip-path="url(#clip770)" d="M463.394 138.412 L454.019 151.027 L463.88 164.338 L458.857 164.338 L451.31 154.152 L443.764 164.338 L438.741 164.338 L448.81 150.773 L439.597 138.412 L444.621 138.412 L451.496 147.648 L458.37 138.412 L463.394 138.412 Z" fill="#000000" fill-rule="nonzero" fill-opacity="1" /><path clip-path="url(#clip770)" d="M474.019 160.449 L474.019 174.199 L469.736 174.199 L469.736 138.412 L474.019 138.412 L474.019 142.347 Q475.361 140.032 477.398 138.921 Q479.458 137.787 482.306 137.787 Q487.028 137.787 489.968 141.537 Q492.93 145.287 492.93 151.398 Q492.93 157.509 489.968 161.259 Q487.028 165.009 482.306 165.009 Q479.458 165.009 477.398 163.898 Q475.361 162.763 474.019 160.449 M488.509 151.398 Q488.509 146.699 486.565 144.037 Q484.643 141.352 481.264 141.352 Q477.884 141.352 475.94 144.037 Q474.019 146.699 474.019 151.398 Q474.019 156.097 475.94 158.782 Q477.884 161.444 481.264 161.444 Q484.643 161.444 486.565 158.782 Q488.509 156.097 488.509 151.398 Z" fill="#000000" fill-rule="nonzero" fill-opacity="1" /><path clip-path="url(#clip770)" d="M522.166 150.31 L522.166 152.393 L502.583 152.393 Q502.861 156.791 505.222 159.106 Q507.606 161.398 511.842 161.398 Q514.296 161.398 516.588 160.796 Q518.903 160.194 521.171 158.99 L521.171 163.018 Q518.879 163.99 516.472 164.5 Q514.065 165.009 511.588 165.009 Q505.384 165.009 501.75 161.398 Q498.139 157.787 498.139 151.629 Q498.139 145.264 501.565 141.537 Q505.014 137.787 510.847 137.787 Q516.078 137.787 519.111 141.166 Q522.166 144.523 522.166 150.31 M517.907 149.06 Q517.861 145.565 515.94 143.481 Q514.041 141.398 510.893 141.398 Q507.329 141.398 505.176 143.412 Q503.046 145.426 502.722 149.083 L517.907 149.06 Z" fill="#000000" fill-rule="nonzero" fill-opacity="1" /><path clip-path="url(#clip770)" d="M547.814 139.407 L547.814 143.389 Q546.009 142.393 544.18 141.907 Q542.375 141.398 540.523 141.398 Q536.379 141.398 534.088 144.037 Q531.796 146.652 531.796 151.398 Q531.796 156.143 534.088 158.782 Q536.379 161.398 540.523 161.398 Q542.375 161.398 544.18 160.912 Q546.009 160.402 547.814 159.407 L547.814 163.342 Q546.032 164.176 544.111 164.592 Q542.213 165.009 540.06 165.009 Q534.203 165.009 530.754 161.328 Q527.305 157.648 527.305 151.398 Q527.305 145.055 530.777 141.421 Q534.273 137.787 540.338 137.787 Q542.305 137.787 544.18 138.203 Q546.055 138.597 547.814 139.407 Z" fill="#000000" fill-rule="nonzero" fill-opacity="1" /><path clip-path="url(#clip770)" d="M559.435 131.051 L559.435 138.412 L568.208 138.412 L568.208 141.722 L559.435 141.722 L559.435 155.796 Q559.435 158.967 560.291 159.87 Q561.171 160.773 563.833 160.773 L568.208 160.773 L568.208 164.338 L563.833 164.338 Q558.902 164.338 557.027 162.509 Q555.152 160.657 555.152 155.796 L555.152 141.722 L552.027 141.722 L552.027 138.412 L555.152 138.412 L555.152 131.051 L559.435 131.051 Z" fill="#000000" fill-rule="nonzero" fill-opacity="1" /><path clip-path="url(#clip770)" d="M585.592 151.305 Q580.43 151.305 578.439 152.486 Q576.449 153.666 576.449 156.514 Q576.449 158.782 577.93 160.125 Q579.435 161.444 582.004 161.444 Q585.546 161.444 587.675 158.944 Q589.828 156.421 589.828 152.254 L589.828 151.305 L585.592 151.305 M594.087 149.546 L594.087 164.338 L589.828 164.338 L589.828 160.402 Q588.37 162.763 586.194 163.898 Q584.018 165.009 580.87 165.009 Q576.888 165.009 574.527 162.787 Q572.189 160.541 572.189 156.791 Q572.189 152.416 575.106 150.194 Q578.046 147.972 583.856 147.972 L589.828 147.972 L589.828 147.555 Q589.828 144.615 587.884 143.018 Q585.962 141.398 582.467 141.398 Q580.245 141.398 578.138 141.93 Q576.032 142.463 574.087 143.527 L574.087 139.592 Q576.425 138.69 578.624 138.25 Q580.824 137.787 582.907 137.787 Q588.532 137.787 591.31 140.703 Q594.087 143.62 594.087 149.546 Z" fill="#000000" fill-rule="nonzero" fill-opacity="1" /><path clip-path="url(#clip770)" d="M607.073 131.051 L607.073 138.412 L615.846 138.412 L615.846 141.722 L607.073 141.722 L607.073 155.796 Q607.073 158.967 607.93 159.87 Q608.809 160.773 611.471 160.773 L615.846 160.773 L615.846 164.338 L611.471 164.338 Q606.541 164.338 604.666 162.509 Q602.791 160.657 602.791 155.796 L602.791 141.722 L599.666 141.722 L599.666 138.412 L602.791 138.412 L602.791 131.051 L607.073 131.051 Z" fill="#000000" fill-rule="nonzero" fill-opacity="1" /><path clip-path="url(#clip770)" d="M621.448 138.412 L625.708 138.412 L625.708 164.338 L621.448 164.338 L621.448 138.412 M621.448 128.319 L625.708 128.319 L625.708 133.713 L621.448 133.713 L621.448 128.319 Z" fill="#000000" fill-rule="nonzero" fill-opacity="1" /><path clip-path="url(#clip770)" d="M644.666 141.398 Q641.24 141.398 639.249 144.083 Q637.258 146.745 637.258 151.398 Q637.258 156.051 639.226 158.736 Q641.217 161.398 644.666 161.398 Q648.069 161.398 650.059 158.713 Q652.05 156.027 652.05 151.398 Q652.05 146.791 650.059 144.106 Q648.069 141.398 644.666 141.398 M644.666 137.787 Q650.221 137.787 653.393 141.398 Q656.564 145.009 656.564 151.398 Q656.564 157.764 653.393 161.398 Q650.221 165.009 644.666 165.009 Q639.087 165.009 635.916 161.398 Q632.768 157.764 632.768 151.398 Q632.768 145.009 635.916 141.398 Q639.087 137.787 644.666 137.787 Z" fill="#000000" fill-rule="nonzero" fill-opacity="1" /><path clip-path="url(#clip770)" d="M685.175 148.689 L685.175 164.338 L680.916 164.338 L680.916 148.828 Q680.916 145.148 679.48 143.319 Q678.045 141.49 675.175 141.49 Q671.726 141.49 669.735 143.69 Q667.744 145.889 667.744 149.685 L667.744 164.338 L663.462 164.338 L663.462 138.412 L667.744 138.412 L667.744 142.44 Q669.272 140.102 671.332 138.944 Q673.416 137.787 676.124 137.787 Q680.591 137.787 682.883 140.565 Q685.175 143.319 685.175 148.689 Z" fill="#000000" fill-rule="nonzero" fill-opacity="1" /><path clip-path="url(#clip770)" d="M240.115 219.634 L387.509 219.634 L387.509 178.162 L240.115 178.162 L240.115 219.634  Z" fill="#e26f46" fill-rule="evenodd" fill-opacity="0.5"/>
<polyline clip-path="url(#clip770)" style="stroke:#000000; stroke-linecap:round; stroke-linejoin:round; stroke-width:4; stroke-opacity:1; fill:none" points="240.115,219.634 387.509,219.634 387.509,178.162 240.115,178.162 240.115,219.634 "/>
<path clip-path="url(#clip770)" d="M439.945 184.28 L439.945 189.21 Q437.584 187.011 434.898 185.923 Q432.236 184.835 429.227 184.835 Q423.301 184.835 420.153 188.469 Q417.005 192.08 417.005 198.932 Q417.005 205.761 420.153 209.395 Q423.301 213.006 429.227 213.006 Q432.236 213.006 434.898 211.918 Q437.584 210.83 439.945 208.631 L439.945 213.516 Q437.491 215.182 434.736 216.016 Q432.005 216.849 428.949 216.849 Q421.102 216.849 416.588 212.057 Q412.074 207.242 412.074 198.932 Q412.074 190.599 416.588 185.807 Q421.102 180.993 428.949 180.993 Q432.051 180.993 434.783 181.826 Q437.537 182.636 439.945 184.28 Z" fill="#000000" fill-rule="nonzero" fill-opacity="1" /><path clip-path="url(#clip770)" d="M456.079 216.178 L442.884 181.618 L447.769 181.618 L458.718 210.715 L469.69 181.618 L474.551 181.618 L461.38 216.178 L456.079 216.178 Z" fill="#000000" fill-rule="nonzero" fill-opacity="1" /><path clip-path="url(#clip770)" d="M492.583 203.747 Q492.583 207.057 494.227 208.955 Q495.87 210.83 498.741 210.83 Q501.588 210.83 503.208 208.932 Q504.852 207.034 504.852 203.747 Q504.852 200.506 503.185 198.608 Q501.518 196.687 498.694 196.687 Q495.893 196.687 494.227 198.585 Q492.583 200.483 492.583 203.747 M505.199 210.668 Q503.81 212.451 502.004 213.307 Q500.222 214.141 497.838 214.141 Q493.856 214.141 491.356 211.27 Q488.88 208.377 488.88 203.747 Q488.88 199.117 491.38 196.224 Q493.88 193.33 497.838 193.33 Q500.222 193.33 502.028 194.21 Q503.833 195.067 505.199 196.826 L505.199 193.793 L508.509 193.793 L508.509 210.83 Q511.889 210.321 513.787 207.752 Q515.708 205.159 515.708 201.062 Q515.708 198.585 514.967 196.409 Q514.25 194.233 512.768 192.381 Q510.361 189.349 506.889 187.752 Q503.44 186.131 499.366 186.131 Q496.518 186.131 493.903 186.895 Q491.287 187.636 489.065 189.118 Q485.431 191.479 483.37 195.321 Q481.333 199.141 481.333 203.608 Q481.333 207.289 482.653 210.506 Q483.995 213.724 486.518 216.178 Q488.949 218.585 492.143 219.835 Q495.338 221.108 498.972 221.108 Q501.958 221.108 504.829 220.09 Q507.722 219.094 510.129 217.219 L512.213 219.789 Q509.319 222.034 505.893 223.215 Q502.491 224.418 498.972 224.418 Q494.69 224.418 490.893 222.89 Q487.097 221.386 484.134 218.492 Q481.171 215.599 479.62 211.803 Q478.069 207.983 478.069 203.608 Q478.069 199.395 479.643 195.576 Q481.218 191.756 484.134 188.863 Q487.12 185.923 491.032 184.372 Q494.944 182.798 499.319 182.798 Q504.227 182.798 508.416 184.812 Q512.629 186.826 515.477 190.53 Q517.213 192.798 518.116 195.46 Q519.041 198.122 519.041 200.969 Q519.041 207.057 515.361 210.576 Q511.68 214.094 505.199 214.233 L505.199 210.668 Z" fill="#000000" fill-rule="nonzero" fill-opacity="1" /><path clip-path="url(#clip770)" d="M543.393 199.974 Q544.898 200.483 546.31 202.15 Q547.745 203.817 549.18 206.733 L553.926 216.178 L548.902 216.178 L544.481 207.312 Q542.768 203.84 541.148 202.705 Q539.551 201.571 536.773 201.571 L531.68 201.571 L531.68 216.178 L527.004 216.178 L527.004 181.618 L537.56 181.618 Q543.486 181.618 546.402 184.094 Q549.319 186.571 549.319 191.571 Q549.319 194.835 547.791 196.988 Q546.287 199.141 543.393 199.974 M531.68 185.46 L531.68 197.729 L537.56 197.729 Q540.939 197.729 542.652 196.178 Q544.389 194.604 544.389 191.571 Q544.389 188.539 542.652 187.011 Q540.939 185.46 537.56 185.46 L531.68 185.46 Z" fill="#000000" fill-rule="nonzero" fill-opacity="1" /></svg>
