<?xml version="1.0" encoding="utf-8"?>
<svg xmlns="http://www.w3.org/2000/svg" xmlns:xlink="http://www.w3.org/1999/xlink" width="600" height="400" viewBox="0 0 2400 1600">
<defs>
  <clipPath id="clip590">
    <rect x="0" y="0" width="2400" height="1600"/>
  </clipPath>
</defs>
<path clip-path="url(#clip590)" d="M0 1600 L2400 1600 L2400 0 L0 0  Z" fill="#ffffff" fill-rule="evenodd" fill-opacity="1"/>
<defs>
  <clipPath id="clip591">
    <rect x="232" y="47" width="2121" height="1377"/>
  </clipPath>
</defs>
<path clip-path="url(#clip590)" d="M232.389 1423.18 L2352.76 1423.18 L2352.76 47.2441 L232.389 47.2441  Z" fill="#ffffff" fill-rule="evenodd" fill-opacity="1"/>
<polyline clip-path="url(#clip591)" style="stroke:#000000; stroke-linecap:round; stroke-linejoin:round; stroke-width:2; stroke-opacity:0.1; fill:none" points="232.389,1423.18 232.389,47.2441 "/>
<polyline clip-path="url(#clip591)" style="stroke:#000000; stroke-linecap:round; stroke-linejoin:round; stroke-width:2; stroke-opacity:0.1; fill:none" points="383.844,1423.18 383.844,47.2441 "/>
<polyline clip-path="url(#clip591)" style="stroke:#000000; stroke-linecap:round; stroke-linejoin:round; stroke-width:2; stroke-opacity:0.1; fill:none" points="535.299,1423.18 535.299,47.2441 "/>
<polyline clip-path="url(#clip591)" style="stroke:#000000; stroke-linecap:round; stroke-linejoin:round; stroke-width:2; stroke-opacity:0.1; fill:none" points="686.754,1423.18 686.754,47.2441 "/>
<polyline clip-path="url(#clip591)" style="stroke:#000000; stroke-linecap:round; stroke-linejoin:round; stroke-width:2; stroke-opacity:0.1; fill:none" points="838.208,1423.18 838.208,47.2441 "/>
<polyline clip-path="url(#clip591)" style="stroke:#000000; stroke-linecap:round; stroke-linejoin:round; stroke-width:2; stroke-opacity:0.1; fill:none" points="989.663,1423.18 989.663,47.2441 "/>
<polyline clip-path="url(#clip591)" style="stroke:#000000; stroke-linecap:round; stroke-linejoin:round; stroke-width:2; stroke-opacity:0.1; fill:none" points="1141.12,1423.18 1141.12,47.2441 "/>
<polyline clip-path="url(#clip591)" style="stroke:#000000; stroke-linecap:round; stroke-linejoin:round; stroke-width:2; stroke-opacity:0.1; fill:none" points="1292.57,1423.18 1292.57,47.2441 "/>
<polyline clip-path="url(#clip591)" style="stroke:#000000; stroke-linecap:round; stroke-linejoin:round; stroke-width:2; stroke-opacity:0.1; fill:none" points="1444.03,1423.18 1444.03,47.2441 "/>
<polyline clip-path="url(#clip591)" style="stroke:#000000; stroke-linecap:round; stroke-linejoin:round; stroke-width:2; stroke-opacity:0.1; fill:none" points="1595.48,1423.18 1595.48,47.2441 "/>
<polyline clip-path="url(#clip591)" style="stroke:#000000; stroke-linecap:round; stroke-linejoin:round; stroke-width:2; stroke-opacity:0.1; fill:none" points="1746.94,1423.18 1746.94,47.2441 "/>
<polyline clip-path="url(#clip591)" style="stroke:#000000; stroke-linecap:round; stroke-linejoin:round; stroke-width:2; stroke-opacity:0.1; fill:none" points="1898.39,1423.18 1898.39,47.2441 "/>
<polyline clip-path="url(#clip591)" style="stroke:#000000; stroke-linecap:round; stroke-linejoin:round; stroke-width:2; stroke-opacity:0.1; fill:none" points="2049.85,1423.18 2049.85,47.2441 "/>
<polyline clip-path="url(#clip591)" style="stroke:#000000; stroke-linecap:round; stroke-linejoin:round; stroke-width:2; stroke-opacity:0.1; fill:none" points="2201.3,1423.18 2201.3,47.2441 "/>
<polyline clip-path="url(#clip591)" style="stroke:#000000; stroke-linecap:round; stroke-linejoin:round; stroke-width:2; stroke-opacity:0.1; fill:none" points="2352.76,1423.18 2352.76,47.2441 "/>
<polyline clip-path="url(#clip591)" style="stroke:#000000; stroke-linecap:round; stroke-linejoin:round; stroke-width:2; stroke-opacity:0.1; fill:none" points="232.389,1272.14 2352.76,1272.14 "/>
<polyline clip-path="url(#clip591)" style="stroke:#000000; stroke-linecap:round; stroke-linejoin:round; stroke-width:2; stroke-opacity:0.1; fill:none" points="232.389,991.898 2352.76,991.898 "/>
<polyline clip-path="url(#clip591)" style="stroke:#000000; stroke-linecap:round; stroke-linejoin:round; stroke-width:2; stroke-opacity:0.1; fill:none" points="232.389,711.655 2352.76,711.655 "/>
<polyline clip-path="url(#clip591)" style="stroke:#000000; stroke-linecap:round; stroke-linejoin:round; stroke-width:2; stroke-opacity:0.1; fill:none" points="232.389,431.412 2352.76,431.412 "/>
<polyline clip-path="url(#clip591)" style="stroke:#000000; stroke-linecap:round; stroke-linejoin:round; stroke-width:2; stroke-opacity:0.1; fill:none" points="232.389,151.17 2352.76,151.17 "/>
<polyline clip-path="url(#clip590)" style="stroke:#000000; stroke-linecap:round; stroke-linejoin:round; stroke-width:4; stroke-opacity:1; fill:none" points="232.389,1423.18 2352.76,1423.18 "/>
<polyline clip-path="url(#clip590)" style="stroke:#000000; stroke-linecap:round; stroke-linejoin:round; stroke-width:4; stroke-opacity:1; fill:none" points="232.389,1423.18 232.389,1404.28 "/>
<polyline clip-path="url(#clip590)" style="stroke:#000000; stroke-linecap:round; stroke-linejoin:round; stroke-width:4; stroke-opacity:1; fill:none" points="383.844,1423.18 383.844,1404.28 "/>
<polyline clip-path="url(#clip590)" style="stroke:#000000; stroke-linecap:round; stroke-linejoin:round; stroke-width:4; stroke-opacity:1; fill:none" points="535.299,1423.18 535.299,1404.28 "/>
<polyline clip-path="url(#clip590)" style="stroke:#000000; stroke-linecap:round; stroke-linejoin:round; stroke-width:4; stroke-opacity:1; fill:none" points="686.754,1423.18 686.754,1404.28 "/>
<polyline clip-path="url(#clip590)" style="stroke:#000000; stroke-linecap:round; stroke-linejoin:round; stroke-width:4; stroke-opacity:1; fill:none" points="838.208,1423.18 838.208,1404.28 "/>
<polyline clip-path="url(#clip590)" style="stroke:#000000; stroke-linecap:round; stroke-linejoin:round; stroke-width:4; stroke-opacity:1; fill:none" points="989.663,1423.18 989.663,1404.28 "/>
<polyline clip-path="url(#clip590)" style="stroke:#000000; stroke-linecap:round; stroke-linejoin:round; stroke-width:4; stroke-opacity:1; fill:none" points="1141.12,1423.18 1141.12,1404.28 "/>
<polyline clip-path="url(#clip590)" style="stroke:#000000; stroke-linecap:round; stroke-linejoin:round; stroke-width:4; stroke-opacity:1; fill:none" points="1292.57,1423.18 1292.57,1404.28 "/>
<polyline clip-path="url(#clip590)" style="stroke:#000000; stroke-linecap:round; stroke-linejoin:round; stroke-width:4; stroke-opacity:1; fill:none" points="1444.03,1423.18 1444.03,1404.28 "/>
<polyline clip-path="url(#clip590)" style="stroke:#000000; stroke-linecap:round; stroke-linejoin:round; stroke-width:4; stroke-opacity:1; fill:none" points="1595.48,1423.18 1595.48,1404.28 "/>
<polyline clip-path="url(#clip590)" style="stroke:#000000; stroke-linecap:round; stroke-linejoin:round; stroke-width:4; stroke-opacity:1; fill:none" points="1746.94,1423.18 1746.94,1404.28 "/>
<polyline clip-path="url(#clip590)" style="stroke:#000000; stroke-linecap:round; stroke-linejoin:round; stroke-width:4; stroke-opacity:1; fill:none" points="1898.39,1423.18 1898.39,1404.28 "/>
<polyline clip-path="url(#clip590)" style="stroke:#000000; stroke-linecap:round; stroke-linejoin:round; stroke-width:4; stroke-opacity:1; fill:none" points="2049.85,1423.18 2049.85,1404.28 "/>
<polyline clip-path="url(#clip590)" style="stroke:#000000; stroke-linecap:round; stroke-linejoin:round; stroke-width:4; stroke-opacity:1; fill:none" points="2201.3,1423.18 2201.3,1404.28 "/>
<polyline clip-path="url(#clip590)" style="stroke:#000000; stroke-linecap:round; stroke-linejoin:round; stroke-width:4; stroke-opacity:1; fill:none" points="2352.76,1423.18 2352.76,1404.28 "/>
<path clip-path="url(#clip590)" d="M232.389 1454.1 Q228.778 1454.1 226.95 1457.66 Q225.144 1461.2 225.144 1468.33 Q225.144 1475.44 226.95 1479.01 Q228.778 1482.55 232.389 1482.55 Q236.024 1482.55 237.829 1479.01 Q239.658 1475.44 239.658 1468.33 Q239.658 1461.2 237.829 1457.66 Q236.024 1454.1 232.389 1454.1 M232.389 1450.39 Q238.2 1450.39 241.255 1455 Q244.334 1459.58 244.334 1468.33 Q244.334 1477.06 241.255 1481.67 Q238.2 1486.25 232.389 1486.25 Q226.579 1486.25 223.501 1481.67 Q220.445 1477.06 220.445 1468.33 Q220.445 1459.58 223.501 1455 Q226.579 1450.39 232.389 1450.39 Z" fill="#000000" fill-rule="nonzero" fill-opacity="1" /><path clip-path="url(#clip590)" d="M359.33 1481.64 L366.969 1481.64 L366.969 1455.28 L358.659 1456.95 L358.659 1452.69 L366.923 1451.02 L371.599 1451.02 L371.599 1481.64 L379.238 1481.64 L379.238 1485.58 L359.33 1485.58 L359.33 1481.64 Z" fill="#000000" fill-rule="nonzero" fill-opacity="1" /><path clip-path="url(#clip590)" d="M392.71 1481.64 L409.029 1481.64 L409.029 1485.58 L387.085 1485.58 L387.085 1481.64 Q389.747 1478.89 394.33 1474.26 Q398.937 1469.61 400.117 1468.27 Q402.363 1465.74 403.242 1464.01 Q404.145 1462.25 404.145 1460.56 Q404.145 1457.8 402.2 1456.07 Q400.279 1454.33 397.177 1454.33 Q394.978 1454.33 392.525 1455.09 Q390.094 1455.86 387.316 1457.41 L387.316 1452.69 Q390.14 1451.55 392.594 1450.97 Q395.048 1450.39 397.085 1450.39 Q402.455 1450.39 405.65 1453.08 Q408.844 1455.77 408.844 1460.26 Q408.844 1462.39 408.034 1464.31 Q407.247 1466.2 405.14 1468.8 Q404.562 1469.47 401.46 1472.69 Q398.358 1475.88 392.71 1481.64 Z" fill="#000000" fill-rule="nonzero" fill-opacity="1" /><path clip-path="url(#clip590)" d="M513.829 1481.64 L530.148 1481.64 L530.148 1485.58 L508.204 1485.58 L508.204 1481.64 Q510.866 1478.89 515.449 1474.26 Q520.056 1469.61 521.236 1468.27 Q523.482 1465.74 524.361 1464.01 Q525.264 1462.25 525.264 1460.56 Q525.264 1457.8 523.32 1456.07 Q521.398 1454.33 518.297 1454.33 Q516.098 1454.33 513.644 1455.09 Q511.213 1455.86 508.436 1457.41 L508.436 1452.69 Q511.26 1451.55 513.713 1450.97 Q516.167 1450.39 518.204 1450.39 Q523.574 1450.39 526.769 1453.08 Q529.963 1455.77 529.963 1460.26 Q529.963 1462.39 529.153 1464.31 Q528.366 1466.2 526.26 1468.8 Q525.681 1469.47 522.579 1472.69 Q519.477 1475.88 513.829 1481.64 Z" fill="#000000" fill-rule="nonzero" fill-opacity="1" /><path clip-path="url(#clip590)" d="M552.81 1455.09 L541.005 1473.54 L552.81 1473.54 L552.81 1455.09 M551.583 1451.02 L557.463 1451.02 L557.463 1473.54 L562.394 1473.54 L562.394 1477.43 L557.463 1477.43 L557.463 1485.58 L552.81 1485.58 L552.81 1477.43 L537.209 1477.43 L537.209 1472.92 L551.583 1451.02 Z" fill="#000000" fill-rule="nonzero" fill-opacity="1" /><path clip-path="url(#clip590)" d="M675.515 1466.95 Q678.872 1467.66 680.747 1469.93 Q682.645 1472.2 682.645 1475.53 Q682.645 1480.65 679.126 1483.45 Q675.608 1486.25 669.126 1486.25 Q666.95 1486.25 664.636 1485.81 Q662.344 1485.39 659.89 1484.54 L659.89 1480.02 Q661.835 1481.16 664.15 1481.74 Q666.464 1482.32 668.988 1482.32 Q673.386 1482.32 675.677 1480.58 Q677.992 1478.84 677.992 1475.53 Q677.992 1472.48 675.839 1470.77 Q673.71 1469.03 669.89 1469.03 L665.863 1469.03 L665.863 1465.19 L670.075 1465.19 Q673.525 1465.19 675.353 1463.82 Q677.182 1462.43 677.182 1459.84 Q677.182 1457.18 675.284 1455.77 Q673.409 1454.33 669.89 1454.33 Q667.969 1454.33 665.77 1454.75 Q663.571 1455.16 660.932 1456.04 L660.932 1451.88 Q663.594 1451.14 665.909 1450.77 Q668.247 1450.39 670.307 1450.39 Q675.631 1450.39 678.733 1452.83 Q681.835 1455.23 681.835 1459.35 Q681.835 1462.22 680.191 1464.21 Q678.548 1466.18 675.515 1466.95 Z" fill="#000000" fill-rule="nonzero" fill-opacity="1" /><path clip-path="url(#clip590)" d="M702.089 1466.44 Q698.941 1466.44 697.089 1468.59 Q695.261 1470.74 695.261 1474.49 Q695.261 1478.22 697.089 1480.39 Q698.941 1482.55 702.089 1482.55 Q705.237 1482.55 707.066 1480.39 Q708.918 1478.22 708.918 1474.49 Q708.918 1470.74 707.066 1468.59 Q705.237 1466.44 702.089 1466.44 M711.372 1451.78 L711.372 1456.04 Q709.612 1455.21 707.807 1454.77 Q706.024 1454.33 704.265 1454.33 Q699.635 1454.33 697.182 1457.45 Q694.751 1460.58 694.404 1466.9 Q695.77 1464.89 697.83 1463.82 Q699.89 1462.73 702.367 1462.73 Q707.575 1462.73 710.585 1465.9 Q713.617 1469.05 713.617 1474.49 Q713.617 1479.82 710.469 1483.03 Q707.321 1486.25 702.089 1486.25 Q696.094 1486.25 692.923 1481.67 Q689.751 1477.06 689.751 1468.33 Q689.751 1460.14 693.64 1455.28 Q697.529 1450.39 704.08 1450.39 Q705.839 1450.39 707.622 1450.74 Q709.427 1451.09 711.372 1451.78 Z" fill="#000000" fill-rule="nonzero" fill-opacity="1" /><path clip-path="url(#clip590)" d="M826.426 1455.09 L814.621 1473.54 L826.426 1473.54 L826.426 1455.09 M825.199 1451.02 L831.079 1451.02 L831.079 1473.54 L836.009 1473.54 L836.009 1477.43 L831.079 1477.43 L831.079 1485.58 L826.426 1485.58 L826.426 1477.43 L810.824 1477.43 L810.824 1472.92 L825.199 1451.02 Z" fill="#000000" fill-rule="nonzero" fill-opacity="1" /><path clip-path="url(#clip590)" d="M853.741 1469.17 Q850.407 1469.17 848.486 1470.95 Q846.588 1472.73 846.588 1475.86 Q846.588 1478.98 848.486 1480.77 Q850.407 1482.55 853.741 1482.55 Q857.074 1482.55 858.995 1480.77 Q860.917 1478.96 860.917 1475.86 Q860.917 1472.73 858.995 1470.95 Q857.097 1469.17 853.741 1469.17 M849.065 1467.18 Q846.056 1466.44 844.366 1464.38 Q842.699 1462.32 842.699 1459.35 Q842.699 1455.21 845.639 1452.8 Q848.602 1450.39 853.741 1450.39 Q858.903 1450.39 861.842 1452.8 Q864.782 1455.21 864.782 1459.35 Q864.782 1462.32 863.092 1464.38 Q861.426 1466.44 858.44 1467.18 Q861.819 1467.96 863.694 1470.26 Q865.592 1472.55 865.592 1475.86 Q865.592 1480.88 862.514 1483.57 Q859.458 1486.25 853.741 1486.25 Q848.023 1486.25 844.944 1483.57 Q841.889 1480.88 841.889 1475.86 Q841.889 1472.55 843.787 1470.26 Q845.685 1467.96 849.065 1467.18 M847.352 1459.79 Q847.352 1462.48 849.018 1463.98 Q850.708 1465.49 853.741 1465.49 Q856.75 1465.49 858.44 1463.98 Q860.153 1462.48 860.153 1459.79 Q860.153 1457.11 858.44 1455.6 Q856.75 1454.1 853.741 1454.1 Q850.708 1454.1 849.018 1455.6 Q847.352 1457.11 847.352 1459.79 Z" fill="#000000" fill-rule="nonzero" fill-opacity="1" /><path clip-path="url(#clip590)" d="M975.068 1466.44 Q971.92 1466.44 970.068 1468.59 Q968.24 1470.74 968.24 1474.49 Q968.24 1478.22 970.068 1480.39 Q971.92 1482.55 975.068 1482.55 Q978.216 1482.55 980.045 1480.39 Q981.897 1478.22 981.897 1474.49 Q981.897 1470.74 980.045 1468.59 Q978.216 1466.44 975.068 1466.44 M984.351 1451.78 L984.351 1456.04 Q982.591 1455.21 980.786 1454.77 Q979.003 1454.33 977.244 1454.33 Q972.615 1454.33 970.161 1457.45 Q967.73 1460.58 967.383 1466.9 Q968.749 1464.89 970.809 1463.82 Q972.869 1462.73 975.346 1462.73 Q980.554 1462.73 983.564 1465.9 Q986.596 1469.05 986.596 1474.49 Q986.596 1479.82 983.448 1483.03 Q980.3 1486.25 975.068 1486.25 Q969.073 1486.25 965.902 1481.67 Q962.73 1477.06 962.73 1468.33 Q962.73 1460.14 966.619 1455.28 Q970.508 1450.39 977.059 1450.39 Q978.818 1450.39 980.601 1450.74 Q982.406 1451.09 984.351 1451.78 Z" fill="#000000" fill-rule="nonzero" fill-opacity="1" /><path clip-path="url(#clip590)" d="M1004.65 1454.1 Q1001.04 1454.1 999.212 1457.66 Q997.406 1461.2 997.406 1468.33 Q997.406 1475.44 999.212 1479.01 Q1001.04 1482.55 1004.65 1482.55 Q1008.29 1482.55 1010.09 1479.01 Q1011.92 1475.44 1011.92 1468.33 Q1011.92 1461.2 1010.09 1457.66 Q1008.29 1454.1 1004.65 1454.1 M1004.65 1450.39 Q1010.46 1450.39 1013.52 1455 Q1016.6 1459.58 1016.6 1468.33 Q1016.6 1477.06 1013.52 1481.67 Q1010.46 1486.25 1004.65 1486.25 Q998.841 1486.25 995.763 1481.67 Q992.707 1477.06 992.707 1468.33 Q992.707 1459.58 995.763 1455 Q998.841 1450.39 1004.65 1450.39 Z" fill="#000000" fill-rule="nonzero" fill-opacity="1" /><path clip-path="url(#clip590)" d="M1115.27 1451.02 L1137.5 1451.02 L1137.5 1453.01 L1124.95 1485.58 L1120.06 1485.58 L1131.87 1454.96 L1115.27 1454.96 L1115.27 1451.02 Z" fill="#000000" fill-rule="nonzero" fill-opacity="1" /><path clip-path="url(#clip590)" d="M1150.64 1481.64 L1166.96 1481.64 L1166.96 1485.58 L1145.02 1485.58 L1145.02 1481.64 Q1147.68 1478.89 1152.26 1474.26 Q1156.87 1469.61 1158.05 1468.27 Q1160.3 1465.74 1161.18 1464.01 Q1162.08 1462.25 1162.08 1460.56 Q1162.08 1457.8 1160.13 1456.07 Q1158.21 1454.33 1155.11 1454.33 Q1152.91 1454.33 1150.46 1455.09 Q1148.03 1455.86 1145.25 1457.41 L1145.25 1452.69 Q1148.07 1451.55 1150.53 1450.97 Q1152.98 1450.39 1155.02 1450.39 Q1160.39 1450.39 1163.58 1453.08 Q1166.78 1455.77 1166.78 1460.26 Q1166.78 1462.39 1165.97 1464.31 Q1165.18 1466.2 1163.07 1468.8 Q1162.5 1469.47 1159.39 1472.69 Q1156.29 1475.88 1150.64 1481.64 Z" fill="#000000" fill-rule="nonzero" fill-opacity="1" /><path clip-path="url(#clip590)" d="M1277.2 1469.17 Q1273.87 1469.17 1271.95 1470.95 Q1270.05 1472.73 1270.05 1475.86 Q1270.05 1478.98 1271.95 1480.77 Q1273.87 1482.55 1277.2 1482.55 Q1280.54 1482.55 1282.46 1480.77 Q1284.38 1478.96 1284.38 1475.86 Q1284.38 1472.73 1282.46 1470.95 Q1280.56 1469.17 1277.2 1469.17 M1272.53 1467.18 Q1269.52 1466.44 1267.83 1464.38 Q1266.16 1462.32 1266.16 1459.35 Q1266.16 1455.21 1269.1 1452.8 Q1272.06 1450.39 1277.2 1450.39 Q1282.36 1450.39 1285.3 1452.8 Q1288.24 1455.21 1288.24 1459.35 Q1288.24 1462.32 1286.55 1464.38 Q1284.89 1466.44 1281.9 1467.18 Q1285.28 1467.96 1287.16 1470.26 Q1289.05 1472.55 1289.05 1475.86 Q1289.05 1480.88 1285.98 1483.57 Q1282.92 1486.25 1277.2 1486.25 Q1271.48 1486.25 1268.41 1483.57 Q1265.35 1480.88 1265.35 1475.86 Q1265.35 1472.55 1267.25 1470.26 Q1269.15 1467.96 1272.53 1467.18 M1270.81 1459.79 Q1270.81 1462.48 1272.48 1463.98 Q1274.17 1465.49 1277.2 1465.49 Q1280.21 1465.49 1281.9 1463.98 Q1283.61 1462.48 1283.61 1459.79 Q1283.61 1457.11 1281.9 1455.6 Q1280.21 1454.1 1277.2 1454.1 Q1274.17 1454.1 1272.48 1455.6 Q1270.81 1457.11 1270.81 1459.79 Z" fill="#000000" fill-rule="nonzero" fill-opacity="1" /><path clip-path="url(#clip590)" d="M1310.21 1455.09 L1298.41 1473.54 L1310.21 1473.54 L1310.21 1455.09 M1308.98 1451.02 L1314.86 1451.02 L1314.86 1473.54 L1319.79 1473.54 L1319.79 1477.43 L1314.86 1477.43 L1314.86 1485.58 L1310.21 1485.58 L1310.21 1477.43 L1294.61 1477.43 L1294.61 1472.92 L1308.98 1451.02 Z" fill="#000000" fill-rule="nonzero" fill-opacity="1" /><path clip-path="url(#clip590)" d="M1419.07 1484.86 L1419.07 1480.6 Q1420.83 1481.44 1422.64 1481.88 Q1424.44 1482.32 1426.18 1482.32 Q1430.81 1482.32 1433.24 1479.21 Q1435.69 1476.09 1436.04 1469.75 Q1434.7 1471.74 1432.64 1472.8 Q1430.58 1473.87 1428.08 1473.87 Q1422.89 1473.87 1419.86 1470.74 Q1416.85 1467.59 1416.85 1462.15 Q1416.85 1456.83 1420 1453.61 Q1423.15 1450.39 1428.38 1450.39 Q1434.37 1450.39 1437.52 1455 Q1440.69 1459.58 1440.69 1468.33 Q1440.69 1476.51 1436.81 1481.39 Q1432.94 1486.25 1426.39 1486.25 Q1424.63 1486.25 1422.82 1485.9 Q1421.02 1485.56 1419.07 1484.86 M1428.38 1470.21 Q1431.53 1470.21 1433.36 1468.06 Q1435.21 1465.9 1435.21 1462.15 Q1435.21 1458.43 1433.36 1456.27 Q1431.53 1454.1 1428.38 1454.1 Q1425.23 1454.1 1423.38 1456.27 Q1421.55 1458.43 1421.55 1462.15 Q1421.55 1465.9 1423.38 1468.06 Q1425.23 1470.21 1428.38 1470.21 Z" fill="#000000" fill-rule="nonzero" fill-opacity="1" /><path clip-path="url(#clip590)" d="M1459.68 1466.44 Q1456.53 1466.44 1454.68 1468.59 Q1452.85 1470.74 1452.85 1474.49 Q1452.85 1478.22 1454.68 1480.39 Q1456.53 1482.55 1459.68 1482.55 Q1462.82 1482.55 1464.65 1480.39 Q1466.5 1478.22 1466.5 1474.49 Q1466.5 1470.74 1464.65 1468.59 Q1462.82 1466.44 1459.68 1466.44 M1468.96 1451.78 L1468.96 1456.04 Q1467.2 1455.21 1465.39 1454.77 Q1463.61 1454.33 1461.85 1454.33 Q1457.22 1454.33 1454.77 1457.45 Q1452.34 1460.58 1451.99 1466.9 Q1453.36 1464.89 1455.42 1463.82 Q1457.48 1462.73 1459.95 1462.73 Q1465.16 1462.73 1468.17 1465.9 Q1471.2 1469.05 1471.2 1474.49 Q1471.2 1479.82 1468.06 1483.03 Q1464.91 1486.25 1459.68 1486.25 Q1453.68 1486.25 1450.51 1481.67 Q1447.34 1477.06 1447.34 1468.33 Q1447.34 1460.14 1451.23 1455.28 Q1455.12 1450.39 1461.67 1450.39 Q1463.43 1450.39 1465.21 1450.74 Q1467.01 1451.09 1468.96 1451.78 Z" fill="#000000" fill-rule="nonzero" fill-opacity="1" /><path clip-path="url(#clip590)" d="M1555.14 1481.64 L1562.77 1481.64 L1562.77 1455.28 L1554.46 1456.95 L1554.46 1452.69 L1562.73 1451.02 L1567.4 1451.02 L1567.4 1481.64 L1575.04 1481.64 L1575.04 1485.58 L1555.14 1485.58 L1555.14 1481.64 Z" fill="#000000" fill-rule="nonzero" fill-opacity="1" /><path clip-path="url(#clip590)" d="M1594.49 1454.1 Q1590.88 1454.1 1589.05 1457.66 Q1587.24 1461.2 1587.24 1468.33 Q1587.24 1475.44 1589.05 1479.01 Q1590.88 1482.55 1594.49 1482.55 Q1598.12 1482.55 1599.93 1479.01 Q1601.76 1475.44 1601.76 1468.33 Q1601.76 1461.2 1599.93 1457.66 Q1598.12 1454.1 1594.49 1454.1 M1594.49 1450.39 Q1600.3 1450.39 1603.35 1455 Q1606.43 1459.58 1606.43 1468.33 Q1606.43 1477.06 1603.35 1481.67 Q1600.3 1486.25 1594.49 1486.25 Q1588.68 1486.25 1585.6 1481.67 Q1582.54 1477.06 1582.54 1468.33 Q1582.54 1459.58 1585.6 1455 Q1588.68 1450.39 1594.49 1450.39 Z" fill="#000000" fill-rule="nonzero" fill-opacity="1" /><path clip-path="url(#clip590)" d="M1624.65 1469.17 Q1621.32 1469.17 1619.39 1470.95 Q1617.5 1472.73 1617.5 1475.86 Q1617.5 1478.98 1619.39 1480.77 Q1621.32 1482.55 1624.65 1482.55 Q1627.98 1482.55 1629.9 1480.77 Q1631.82 1478.96 1631.82 1475.86 Q1631.82 1472.73 1629.9 1470.95 Q1628.01 1469.17 1624.65 1469.17 M1619.97 1467.18 Q1616.96 1466.44 1615.27 1464.38 Q1613.61 1462.32 1613.61 1459.35 Q1613.61 1455.21 1616.55 1452.8 Q1619.51 1450.39 1624.65 1450.39 Q1629.81 1450.39 1632.75 1452.8 Q1635.69 1455.21 1635.69 1459.35 Q1635.69 1462.32 1634 1464.38 Q1632.33 1466.44 1629.35 1467.18 Q1632.73 1467.96 1634.6 1470.26 Q1636.5 1472.55 1636.5 1475.86 Q1636.5 1480.88 1633.42 1483.57 Q1630.37 1486.25 1624.65 1486.25 Q1618.93 1486.25 1615.85 1483.57 Q1612.8 1480.88 1612.8 1475.86 Q1612.8 1472.55 1614.69 1470.26 Q1616.59 1467.96 1619.97 1467.18 M1618.26 1459.79 Q1618.26 1462.48 1619.93 1463.98 Q1621.62 1465.49 1624.65 1465.49 Q1627.66 1465.49 1629.35 1463.98 Q1631.06 1462.48 1631.06 1459.79 Q1631.06 1457.11 1629.35 1455.6 Q1627.66 1454.1 1624.65 1454.1 Q1621.62 1454.1 1619.93 1455.6 Q1618.26 1457.11 1618.26 1459.79 Z" fill="#000000" fill-rule="nonzero" fill-opacity="1" /><path clip-path="url(#clip590)" d="M1706.54 1481.64 L1714.18 1481.64 L1714.18 1455.28 L1705.87 1456.95 L1705.87 1452.69 L1714.14 1451.02 L1718.81 1451.02 L1718.81 1481.64 L1726.45 1481.64 L1726.45 1485.58 L1706.54 1485.58 L1706.54 1481.64 Z" fill="#000000" fill-rule="nonzero" fill-opacity="1" /><path clip-path="url(#clip590)" d="M1739.92 1481.64 L1756.24 1481.64 L1756.24 1485.58 L1734.3 1485.58 L1734.3 1481.64 Q1736.96 1478.89 1741.54 1474.26 Q1746.15 1469.61 1747.33 1468.27 Q1749.58 1465.74 1750.46 1464.01 Q1751.36 1462.25 1751.36 1460.56 Q1751.36 1457.8 1749.41 1456.07 Q1747.49 1454.33 1744.39 1454.33 Q1742.19 1454.33 1739.74 1455.09 Q1737.31 1455.86 1734.53 1457.41 L1734.53 1452.69 Q1737.35 1451.55 1739.81 1450.97 Q1742.26 1450.39 1744.3 1450.39 Q1749.67 1450.39 1752.86 1453.08 Q1756.06 1455.77 1756.06 1460.26 Q1756.06 1462.39 1755.25 1464.31 Q1754.46 1466.2 1752.35 1468.8 Q1751.77 1469.47 1748.67 1472.69 Q1745.57 1475.88 1739.92 1481.64 Z" fill="#000000" fill-rule="nonzero" fill-opacity="1" /><path clip-path="url(#clip590)" d="M1776.06 1454.1 Q1772.45 1454.1 1770.62 1457.66 Q1768.81 1461.2 1768.81 1468.33 Q1768.81 1475.44 1770.62 1479.01 Q1772.45 1482.55 1776.06 1482.55 Q1779.69 1482.55 1781.5 1479.01 Q1783.33 1475.44 1783.33 1468.33 Q1783.33 1461.2 1781.5 1457.66 Q1779.69 1454.1 1776.06 1454.1 M1776.06 1450.39 Q1781.87 1450.39 1784.92 1455 Q1788 1459.58 1788 1468.33 Q1788 1477.06 1784.92 1481.67 Q1781.87 1486.25 1776.06 1486.25 Q1770.25 1486.25 1767.17 1481.67 Q1764.11 1477.06 1764.11 1468.33 Q1764.11 1459.58 1767.17 1455 Q1770.25 1450.39 1776.06 1450.39 Z" fill="#000000" fill-rule="nonzero" fill-opacity="1" /><path clip-path="url(#clip590)" d="M1858.8 1481.64 L1866.44 1481.64 L1866.44 1455.28 L1858.13 1456.95 L1858.13 1452.69 L1866.39 1451.02 L1871.07 1451.02 L1871.07 1481.64 L1878.7 1481.64 L1878.7 1485.58 L1858.8 1485.58 L1858.8 1481.64 Z" fill="#000000" fill-rule="nonzero" fill-opacity="1" /><path clip-path="url(#clip590)" d="M1902.32 1466.95 Q1905.67 1467.66 1907.55 1469.93 Q1909.44 1472.2 1909.44 1475.53 Q1909.44 1480.65 1905.93 1483.45 Q1902.41 1486.25 1895.93 1486.25 Q1893.75 1486.25 1891.44 1485.81 Q1889.14 1485.39 1886.69 1484.54 L1886.69 1480.02 Q1888.63 1481.16 1890.95 1481.74 Q1893.26 1482.32 1895.79 1482.32 Q1900.19 1482.32 1902.48 1480.58 Q1904.79 1478.84 1904.79 1475.53 Q1904.79 1472.48 1902.64 1470.77 Q1900.51 1469.03 1896.69 1469.03 L1892.66 1469.03 L1892.66 1465.19 L1896.88 1465.19 Q1900.32 1465.19 1902.15 1463.82 Q1903.98 1462.43 1903.98 1459.84 Q1903.98 1457.18 1902.08 1455.77 Q1900.21 1454.33 1896.69 1454.33 Q1894.77 1454.33 1892.57 1454.75 Q1890.37 1455.16 1887.73 1456.04 L1887.73 1451.88 Q1890.39 1451.14 1892.71 1450.77 Q1895.05 1450.39 1897.11 1450.39 Q1902.43 1450.39 1905.53 1452.83 Q1908.63 1455.23 1908.63 1459.35 Q1908.63 1462.22 1906.99 1464.21 Q1905.35 1466.18 1902.32 1466.95 Z" fill="#000000" fill-rule="nonzero" fill-opacity="1" /><path clip-path="url(#clip590)" d="M1922.34 1481.64 L1938.66 1481.64 L1938.66 1485.58 L1916.71 1485.58 L1916.71 1481.64 Q1919.38 1478.89 1923.96 1474.26 Q1928.57 1469.61 1929.75 1468.27 Q1931.99 1465.74 1932.87 1464.01 Q1933.77 1462.25 1933.77 1460.56 Q1933.77 1457.8 1931.83 1456.07 Q1929.91 1454.33 1926.81 1454.33 Q1924.61 1454.33 1922.15 1455.09 Q1919.72 1455.86 1916.94 1457.41 L1916.94 1452.69 Q1919.77 1451.55 1922.22 1450.97 Q1924.68 1450.39 1926.71 1450.39 Q1932.08 1450.39 1935.28 1453.08 Q1938.47 1455.77 1938.47 1460.26 Q1938.47 1462.39 1937.66 1464.31 Q1936.88 1466.2 1934.77 1468.8 Q1934.19 1469.47 1931.09 1472.69 Q1927.99 1475.88 1922.34 1481.64 Z" fill="#000000" fill-rule="nonzero" fill-opacity="1" /><path clip-path="url(#clip590)" d="M2009.21 1481.64 L2016.85 1481.64 L2016.85 1455.28 L2008.54 1456.95 L2008.54 1452.69 L2016.8 1451.02 L2021.48 1451.02 L2021.48 1481.64 L2029.12 1481.64 L2029.12 1485.58 L2009.21 1485.58 L2009.21 1481.64 Z" fill="#000000" fill-rule="nonzero" fill-opacity="1" /><path clip-path="url(#clip590)" d="M2051.41 1455.09 L2039.6 1473.54 L2051.41 1473.54 L2051.41 1455.09 M2050.18 1451.02 L2056.06 1451.02 L2056.06 1473.54 L2060.99 1473.54 L2060.99 1477.43 L2056.06 1477.43 L2056.06 1485.58 L2051.41 1485.58 L2051.41 1477.43 L2035.81 1477.43 L2035.81 1472.92 L2050.18 1451.02 Z" fill="#000000" fill-rule="nonzero" fill-opacity="1" /><path clip-path="url(#clip590)" d="M2081.57 1455.09 L2069.77 1473.54 L2081.57 1473.54 L2081.57 1455.09 M2080.34 1451.02 L2086.22 1451.02 L2086.22 1473.54 L2091.15 1473.54 L2091.15 1477.43 L2086.22 1477.43 L2086.22 1485.58 L2081.57 1485.58 L2081.57 1477.43 L2065.97 1477.43 L2065.97 1472.92 L2080.34 1451.02 Z" fill="#000000" fill-rule="nonzero" fill-opacity="1" /><path clip-path="url(#clip590)" d="M2160.83 1481.64 L2168.47 1481.64 L2168.47 1455.28 L2160.16 1456.95 L2160.16 1452.69 L2168.42 1451.02 L2173.1 1451.02 L2173.1 1481.64 L2180.73 1481.64 L2180.73 1485.58 L2160.83 1485.58 L2160.83 1481.64 Z" fill="#000000" fill-rule="nonzero" fill-opacity="1" /><path clip-path="url(#clip590)" d="M2190.22 1451.02 L2208.58 1451.02 L2208.58 1454.96 L2194.51 1454.96 L2194.51 1463.43 Q2195.53 1463.08 2196.54 1462.92 Q2197.56 1462.73 2198.58 1462.73 Q2204.37 1462.73 2207.75 1465.9 Q2211.13 1469.08 2211.13 1474.49 Q2211.13 1480.07 2207.66 1483.17 Q2204.18 1486.25 2197.86 1486.25 Q2195.69 1486.25 2193.42 1485.88 Q2191.17 1485.51 2188.77 1484.77 L2188.77 1480.07 Q2190.85 1481.2 2193.07 1481.76 Q2195.29 1482.32 2197.77 1482.32 Q2201.78 1482.32 2204.11 1480.21 Q2206.45 1478.1 2206.45 1474.49 Q2206.45 1470.88 2204.11 1468.77 Q2201.78 1466.67 2197.77 1466.67 Q2195.9 1466.67 2194.02 1467.08 Q2192.17 1467.5 2190.22 1468.38 L2190.22 1451.02 Z" fill="#000000" fill-rule="nonzero" fill-opacity="1" /><path clip-path="url(#clip590)" d="M2230.92 1466.44 Q2227.77 1466.44 2225.92 1468.59 Q2224.09 1470.74 2224.09 1474.49 Q2224.09 1478.22 2225.92 1480.39 Q2227.77 1482.55 2230.92 1482.55 Q2234.07 1482.55 2235.9 1480.39 Q2237.75 1478.22 2237.75 1474.49 Q2237.75 1470.74 2235.9 1468.59 Q2234.07 1466.44 2230.92 1466.44 M2240.2 1451.78 L2240.2 1456.04 Q2238.44 1455.21 2236.64 1454.77 Q2234.85 1454.33 2233.09 1454.33 Q2228.47 1454.33 2226.01 1457.45 Q2223.58 1460.58 2223.23 1466.9 Q2224.6 1464.89 2226.66 1463.82 Q2228.72 1462.73 2231.2 1462.73 Q2236.41 1462.73 2239.41 1465.9 Q2242.45 1469.05 2242.45 1474.49 Q2242.45 1479.82 2239.3 1483.03 Q2236.15 1486.25 2230.92 1486.25 Q2224.92 1486.25 2221.75 1481.67 Q2218.58 1477.06 2218.58 1468.33 Q2218.58 1460.14 2222.47 1455.28 Q2226.36 1450.39 2232.91 1450.39 Q2234.67 1450.39 2236.45 1450.74 Q2238.26 1451.09 2240.2 1451.78 Z" fill="#000000" fill-rule="nonzero" fill-opacity="1" /><path clip-path="url(#clip590)" d="M2312.41 1481.64 L2320.05 1481.64 L2320.05 1455.28 L2311.74 1456.95 L2311.74 1452.69 L2320 1451.02 L2324.68 1451.02 L2324.68 1481.64 L2332.32 1481.64 L2332.32 1485.58 L2312.41 1485.58 L2312.41 1481.64 Z" fill="#000000" fill-rule="nonzero" fill-opacity="1" /><path clip-path="url(#clip590)" d="M2352.34 1466.44 Q2349.19 1466.44 2347.34 1468.59 Q2345.51 1470.74 2345.51 1474.49 Q2345.51 1478.22 2347.34 1480.39 Q2349.19 1482.55 2352.34 1482.55 Q2355.49 1482.55 2357.32 1480.39 Q2359.17 1478.22 2359.17 1474.49 Q2359.17 1470.74 2357.32 1468.59 Q2355.49 1466.44 2352.34 1466.44 M2361.62 1451.78 L2361.62 1456.04 Q2359.86 1455.21 2358.06 1454.77 Q2356.27 1454.33 2354.52 1454.33 Q2349.89 1454.33 2347.43 1457.45 Q2345 1460.58 2344.65 1466.9 Q2346.02 1464.89 2348.08 1463.82 Q2350.14 1462.73 2352.62 1462.73 Q2357.83 1462.73 2360.83 1465.9 Q2363.87 1469.05 2363.87 1474.49 Q2363.87 1479.82 2360.72 1483.03 Q2357.57 1486.25 2352.34 1486.25 Q2346.34 1486.25 2343.17 1481.67 Q2340 1477.06 2340 1468.33 Q2340 1460.14 2343.89 1455.28 Q2347.78 1450.39 2354.33 1450.39 Q2356.09 1450.39 2357.87 1450.74 Q2359.68 1451.09 2361.62 1451.78 Z" fill="#000000" fill-rule="nonzero" fill-opacity="1" /><path clip-path="url(#clip590)" d="M2381.92 1469.17 Q2378.59 1469.17 2376.67 1470.95 Q2374.77 1472.73 2374.77 1475.86 Q2374.77 1478.98 2376.67 1480.77 Q2378.59 1482.55 2381.92 1482.55 Q2385.26 1482.55 2387.18 1480.77 Q2389.1 1478.96 2389.1 1475.86 Q2389.1 1472.73 2387.18 1470.95 Q2385.28 1469.17 2381.92 1469.17 M2377.25 1467.18 Q2374.24 1466.44 2372.55 1464.38 Q2370.88 1462.32 2370.88 1459.35 Q2370.88 1455.21 2373.82 1452.8 Q2376.78 1450.39 2381.92 1450.39 Q2387.08 1450.39 2390.02 1452.8 Q2392.96 1455.21 2392.96 1459.35 Q2392.96 1462.32 2391.27 1464.38 Q2389.61 1466.44 2386.62 1467.18 Q2390 1467.96 2391.88 1470.26 Q2393.77 1472.55 2393.77 1475.86 Q2393.77 1480.88 2390.7 1483.57 Q2387.64 1486.25 2381.92 1486.25 Q2376.2 1486.25 2373.13 1483.57 Q2370.07 1480.88 2370.07 1475.86 Q2370.07 1472.55 2371.97 1470.26 Q2373.87 1467.96 2377.25 1467.18 M2375.53 1459.79 Q2375.53 1462.48 2377.2 1463.98 Q2378.89 1465.49 2381.92 1465.49 Q2384.93 1465.49 2386.62 1463.98 Q2388.33 1462.48 2388.33 1459.79 Q2388.33 1457.11 2386.62 1455.6 Q2384.93 1454.1 2381.92 1454.1 Q2378.89 1454.1 2377.2 1455.6 Q2375.53 1457.11 2375.53 1459.79 Z" fill="#000000" fill-rule="nonzero" fill-opacity="1" /><path clip-path="url(#clip590)" d="M1217.27 1520.52 L1223.7 1520.52 L1223.7 1540 L1247.06 1540 L1247.06 1520.52 L1253.49 1520.52 L1253.49 1568.04 L1247.06 1568.04 L1247.06 1545.41 L1223.7 1545.41 L1223.7 1568.04 L1217.27 1568.04 L1217.27 1520.52 Z" fill="#000000" fill-rule="nonzero" fill-opacity="1" /><path clip-path="url(#clip590)" d="M1279.84 1536.5 Q1275.13 1536.5 1272.39 1540.19 Q1269.66 1543.85 1269.66 1550.25 Q1269.66 1556.65 1272.36 1560.34 Q1275.1 1564 1279.84 1564 Q1284.52 1564 1287.26 1560.31 Q1289.99 1556.62 1289.99 1550.25 Q1289.99 1543.92 1287.26 1540.23 Q1284.52 1536.5 1279.84 1536.5 M1279.84 1531.54 Q1287.48 1531.54 1291.84 1536.5 Q1296.2 1541.47 1296.2 1550.25 Q1296.2 1559 1291.84 1564 Q1287.48 1568.97 1279.84 1568.97 Q1272.17 1568.97 1267.81 1564 Q1263.48 1559 1263.48 1550.25 Q1263.48 1541.47 1267.81 1536.5 Q1272.17 1531.54 1279.84 1531.54 Z" fill="#000000" fill-rule="nonzero" fill-opacity="1" /><path clip-path="url(#clip590)" d="M1305.3 1553.98 L1305.3 1532.4 L1311.16 1532.4 L1311.16 1553.75 Q1311.16 1558.81 1313.13 1561.36 Q1315.11 1563.87 1319.05 1563.87 Q1323.8 1563.87 1326.53 1560.85 Q1329.3 1557.83 1329.3 1552.61 L1329.3 1532.4 L1335.16 1532.4 L1335.16 1568.04 L1329.3 1568.04 L1329.3 1562.57 Q1327.17 1565.82 1324.34 1567.41 Q1321.54 1568.97 1317.81 1568.97 Q1311.67 1568.97 1308.49 1565.15 Q1305.3 1561.33 1305.3 1553.98 M1320.04 1531.54 L1320.04 1531.54 Z" fill="#000000" fill-rule="nonzero" fill-opacity="1" /><path clip-path="url(#clip590)" d="M1367.88 1537.87 Q1366.89 1537.3 1365.71 1537.04 Q1364.57 1536.76 1363.17 1536.76 Q1358.2 1536.76 1355.53 1540 Q1352.89 1543.22 1352.89 1549.27 L1352.89 1568.04 L1347 1568.04 L1347 1532.4 L1352.89 1532.4 L1352.89 1537.93 Q1354.73 1534.69 1357.69 1533.13 Q1360.65 1531.54 1364.89 1531.54 Q1365.49 1531.54 1366.22 1531.63 Q1366.96 1531.7 1367.85 1531.85 L1367.88 1537.87 Z" fill="#000000" fill-rule="nonzero" fill-opacity="1" /><polyline clip-path="url(#clip590)" style="stroke:#000000; stroke-linecap:round; stroke-linejoin:round; stroke-width:4; stroke-opacity:1; fill:none" points="232.389,1423.18 232.389,47.2441 "/>
<polyline clip-path="url(#clip590)" style="stroke:#000000; stroke-linecap:round; stroke-linejoin:round; stroke-width:4; stroke-opacity:1; fill:none" points="232.389,1272.14 251.287,1272.14 "/>
<polyline clip-path="url(#clip590)" style="stroke:#000000; stroke-linecap:round; stroke-linejoin:round; stroke-width:4; stroke-opacity:1; fill:none" points="232.389,991.898 251.287,991.898 "/>
<polyline clip-path="url(#clip590)" style="stroke:#000000; stroke-linecap:round; stroke-linejoin:round; stroke-width:4; stroke-opacity:1; fill:none" points="232.389,711.655 251.287,711.655 "/>
<polyline clip-path="url(#clip590)" style="stroke:#000000; stroke-linecap:round; stroke-linejoin:round; stroke-width:4; stroke-opacity:1; fill:none" points="232.389,431.412 251.287,431.412 "/>
<polyline clip-path="url(#clip590)" style="stroke:#000000; stroke-linecap:round; stroke-linejoin:round; stroke-width:4; stroke-opacity:1; fill:none" points="232.389,151.17 251.287,151.17 "/>
<path clip-path="url(#clip590)" d="M184.445 1257.94 Q180.834 1257.94 179.005 1261.5 Q177.2 1265.05 177.2 1272.18 Q177.2 1279.28 179.005 1282.85 Q180.834 1286.39 184.445 1286.39 Q188.079 1286.39 189.885 1282.85 Q191.713 1279.28 191.713 1272.18 Q191.713 1265.05 189.885 1261.5 Q188.079 1257.94 184.445 1257.94 M184.445 1254.24 Q190.255 1254.24 193.311 1258.84 Q196.389 1263.43 196.389 1272.18 Q196.389 1280.9 193.311 1285.51 Q190.255 1290.09 184.445 1290.09 Q178.635 1290.09 175.556 1285.51 Q172.501 1280.9 172.501 1272.18 Q172.501 1263.43 175.556 1258.84 Q178.635 1254.24 184.445 1254.24 Z" fill="#000000" fill-rule="nonzero" fill-opacity="1" /><path clip-path="url(#clip590)" d="M149.306 1005.24 L165.626 1005.24 L165.626 1009.18 L143.681 1009.18 L143.681 1005.24 Q146.343 1002.49 150.927 997.859 Q155.533 993.206 156.714 991.863 Q158.959 989.34 159.839 987.604 Q160.741 985.845 160.741 984.155 Q160.741 981.401 158.797 979.664 Q156.876 977.928 153.774 977.928 Q151.575 977.928 149.121 978.692 Q146.691 979.456 143.913 981.007 L143.913 976.285 Q146.737 975.151 149.191 974.572 Q151.644 973.993 153.681 973.993 Q159.052 973.993 162.246 976.678 Q165.44 979.364 165.44 983.854 Q165.44 985.984 164.63 987.905 Q163.843 989.803 161.737 992.396 Q161.158 993.067 158.056 996.285 Q154.954 999.479 149.306 1005.24 Z" fill="#000000" fill-rule="nonzero" fill-opacity="1" /><path clip-path="url(#clip590)" d="M175.487 974.618 L193.843 974.618 L193.843 978.553 L179.769 978.553 L179.769 987.026 Q180.788 986.678 181.806 986.516 Q182.825 986.331 183.843 986.331 Q189.63 986.331 193.01 989.502 Q196.389 992.674 196.389 998.09 Q196.389 1003.67 192.917 1006.77 Q189.445 1009.85 183.126 1009.85 Q180.95 1009.85 178.681 1009.48 Q176.436 1009.11 174.028 1008.37 L174.028 1003.67 Q176.112 1004.8 178.334 1005.36 Q180.556 1005.91 183.033 1005.91 Q187.038 1005.91 189.375 1003.81 Q191.713 1001.7 191.713 998.09 Q191.713 994.479 189.375 992.373 Q187.038 990.266 183.033 990.266 Q181.158 990.266 179.283 990.683 Q177.431 991.1 175.487 991.979 L175.487 974.618 Z" fill="#000000" fill-rule="nonzero" fill-opacity="1" /><path clip-path="url(#clip590)" d="M144.329 694.375 L162.686 694.375 L162.686 698.31 L148.612 698.31 L148.612 706.783 Q149.63 706.435 150.649 706.273 Q151.667 706.088 152.686 706.088 Q158.473 706.088 161.852 709.259 Q165.232 712.431 165.232 717.847 Q165.232 723.426 161.76 726.528 Q158.288 729.607 151.968 729.607 Q149.792 729.607 147.524 729.236 Q145.279 728.866 142.871 728.125 L142.871 723.426 Q144.954 724.56 147.177 725.116 Q149.399 725.671 151.876 725.671 Q155.88 725.671 158.218 723.565 Q160.556 721.459 160.556 717.847 Q160.556 714.236 158.218 712.13 Q155.88 710.023 151.876 710.023 Q150.001 710.023 148.126 710.44 Q146.274 710.857 144.329 711.736 L144.329 694.375 Z" fill="#000000" fill-rule="nonzero" fill-opacity="1" /><path clip-path="url(#clip590)" d="M184.445 697.454 Q180.834 697.454 179.005 701.019 Q177.2 704.56 177.2 711.69 Q177.2 718.796 179.005 722.361 Q180.834 725.903 184.445 725.903 Q188.079 725.903 189.885 722.361 Q191.713 718.796 191.713 711.69 Q191.713 704.56 189.885 701.019 Q188.079 697.454 184.445 697.454 M184.445 693.75 Q190.255 693.75 193.311 698.357 Q196.389 702.94 196.389 711.69 Q196.389 720.417 193.311 725.023 Q190.255 729.607 184.445 729.607 Q178.635 729.607 175.556 725.023 Q172.501 720.417 172.501 711.69 Q172.501 702.94 175.556 698.357 Q178.635 693.75 184.445 693.75 Z" fill="#000000" fill-rule="nonzero" fill-opacity="1" /><path clip-path="url(#clip590)" d="M144.098 414.132 L166.32 414.132 L166.32 416.123 L153.774 448.692 L148.89 448.692 L160.695 418.068 L144.098 418.068 L144.098 414.132 Z" fill="#000000" fill-rule="nonzero" fill-opacity="1" /><path clip-path="url(#clip590)" d="M175.487 414.132 L193.843 414.132 L193.843 418.068 L179.769 418.068 L179.769 426.54 Q180.788 426.193 181.806 426.031 Q182.825 425.845 183.843 425.845 Q189.63 425.845 193.01 429.017 Q196.389 432.188 196.389 437.605 Q196.389 443.183 192.917 446.285 Q189.445 449.364 183.126 449.364 Q180.95 449.364 178.681 448.993 Q176.436 448.623 174.028 447.882 L174.028 443.183 Q176.112 444.317 178.334 444.873 Q180.556 445.429 183.033 445.429 Q187.038 445.429 189.375 443.322 Q191.713 441.216 191.713 437.605 Q191.713 433.993 189.375 431.887 Q187.038 429.78 183.033 429.78 Q181.158 429.78 179.283 430.197 Q177.431 430.614 175.487 431.493 L175.487 414.132 Z" fill="#000000" fill-rule="nonzero" fill-opacity="1" /><path clip-path="url(#clip590)" d="M114.931 164.514 L122.57 164.514 L122.57 138.149 L114.26 139.815 L114.26 135.556 L122.524 133.89 L127.2 133.89 L127.2 164.514 L134.839 164.514 L134.839 168.45 L114.931 168.45 L114.931 164.514 Z" fill="#000000" fill-rule="nonzero" fill-opacity="1" /><path clip-path="url(#clip590)" d="M154.283 136.968 Q150.672 136.968 148.843 140.533 Q147.038 144.075 147.038 151.204 Q147.038 158.311 148.843 161.875 Q150.672 165.417 154.283 165.417 Q157.917 165.417 159.723 161.875 Q161.552 158.311 161.552 151.204 Q161.552 144.075 159.723 140.533 Q157.917 136.968 154.283 136.968 M154.283 133.265 Q160.093 133.265 163.149 137.871 Q166.227 142.454 166.227 151.204 Q166.227 159.931 163.149 164.538 Q160.093 169.121 154.283 169.121 Q148.473 169.121 145.394 164.538 Q142.339 159.931 142.339 151.204 Q142.339 142.454 145.394 137.871 Q148.473 133.265 154.283 133.265 Z" fill="#000000" fill-rule="nonzero" fill-opacity="1" /><path clip-path="url(#clip590)" d="M184.445 136.968 Q180.834 136.968 179.005 140.533 Q177.2 144.075 177.2 151.204 Q177.2 158.311 179.005 161.875 Q180.834 165.417 184.445 165.417 Q188.079 165.417 189.885 161.875 Q191.713 158.311 191.713 151.204 Q191.713 144.075 189.885 140.533 Q188.079 136.968 184.445 136.968 M184.445 133.265 Q190.255 133.265 193.311 137.871 Q196.389 142.454 196.389 151.204 Q196.389 159.931 193.311 164.538 Q190.255 169.121 184.445 169.121 Q178.635 169.121 175.556 164.538 Q172.501 159.931 172.501 151.204 Q172.501 142.454 175.556 137.871 Q178.635 133.265 184.445 133.265 Z" fill="#000000" fill-rule="nonzero" fill-opacity="1" /><path clip-path="url(#clip590)" d="M16.4842 791.294 L16.4842 781.713 L48.8219 769.587 L16.4842 757.396 L16.4842 747.816 L64.0042 747.816 L64.0042 754.086 L22.277 754.086 L54.8694 766.34 L54.8694 772.801 L22.277 785.055 L64.0042 785.055 L64.0042 791.294 L16.4842 791.294 Z" fill="#000000" fill-rule="nonzero" fill-opacity="1" /><path clip-path="url(#clip590)" d="M16.4842 739.286 L16.4842 732.793 L56.6518 722.799 L16.4842 712.837 L16.4842 705.611 L56.6518 695.617 L16.4842 685.655 L16.4842 679.13 L64.0042 691.066 L64.0042 699.15 L22.7544 709.176 L64.0042 719.298 L64.0042 727.382 L16.4842 739.286 Z" fill="#000000" fill-rule="nonzero" fill-opacity="1" /><path clip-path="url(#clip591)" d="M245.011 693.72 L257.632 720.623 L270.253 750.889 L282.874 775.551 L295.495 786.76 L308.117 800.212 L320.738 825.994 L333.359 821.511 L345.98 1166.59 L358.602 1272.14 L371.223 1272.14 L383.844 1272.14 L396.465 1272.14 L409.087 1272.14 L421.708 1194.53 L434.329 755.926 L446.95 739.68 L459.571 655.607 L472.193 530.058 L484.814 661.212 L497.435 588.348 L510.056 610.768 L522.678 614.131 L535.299 665.695 L547.92 715.018 L560.541 750.889 L573.163 769.946 L585.784 773.309 L598.405 756.494 L611.026 727.349 L623.647 682.51 L636.269 610.768 L648.89 704.848 L661.511 916.858 L674.132 1106.19 L686.754 1222.14 L699.375 1272.14 L711.996 1161.36 L724.617 792.755 L737.239 483.806 L749.86 429.17 L762.481 367.517 L775.102 367.517 L787.723 429.812 L800.345 472.888 L812.966 514.364 L825.587 534.542 L838.208 595.074 L850.83 658.97 L863.451 701.567 L876.072 728.47 L888.693 737.438 L901.315 731.833 L913.936 728.47 L926.557 721.744 L939.178 674.663 L951.799 766.226 L964.421 994.758 L977.042 1118.26 L989.663 1139.25 L1002.28 1045.41 L1014.91 899.767 L1027.53 679.894 L1040.15 509.312 L1052.77 459.437 L1065.39 405.63 L1078.01 404.509 L1090.63 443.743 L1103.25 509.88 L1115.88 553.598 L1128.5 568.171 L1141.12 620.857 L1153.74 680.268 L1166.36 721.744 L1178.98 745.284 L1191.6 757.615 L1204.22 755.373 L1216.85 762.099 L1229.47 777.793 L1242.09 759.012 L1254.71 1138.81 L1267.33 1272.14 L1279.95 1272.14 L1292.57 1272.14 L1305.19 1272.14 L1317.82 1272.14 L1330.44 1054.72 L1343.06 630.929 L1355.68 673.542 L1368.3 472.888 L1380.92 519.969 L1393.54 589.469 L1406.16 523.332 L1418.78 552.477 L1431.41 667.937 L1444.03 611.889 L1456.65 666.816 L1469.27 703.809 L1481.89 718.381 L1494.51 716.139 L1507.13 692.599 L1519.75 634.308 L1532.38 530.058 L1545 433.086 L1557.62 848.446 L1570.24 1272.14 L1582.86 1272.14 L1595.48 1272.14 L1608.1 1272.14 L1620.72 1272.14 L1633.35 1069.99 L1645.97 429.122 L1658.59 421.324 L1671.21 240.847 L1683.83 308.106 L1696.45 386.574 L1709.07 352.944 L1721.69 406.751 L1734.32 553.598 L1746.94 521.09 L1759.56 579.381 L1772.18 621.978 L1784.8 641.034 L1797.42 639.913 L1810.04 625.341 L1822.66 592.832 L1835.29 516.606 L1847.91 439.812 L1860.53 809.245 L1873.15 1272.14 L1885.77 1272.14 L1898.39 1272.14 L1911.01 1272.14 L1923.63 1272.14 L1936.26 910.912 L1948.88 414.013 L1961.5 444.864 L1974.12 255.42 L1986.74 322.678 L1999.36 395.541 L2011.98 351.823 L2024.6 406.751 L2037.23 555.84 L2049.85 515.485 L2062.47 579.381 L2075.09 623.099 L2087.71 634.308 L2100.33 627.582 L2112.95 608.526 L2125.57 545.752 L2138.2 398.904 L2150.82 279.236 L2163.44 477.242 L2176.06 945.012 L2188.68 1188.13 L2201.3 1272.14 L2213.92 1272.14 L2226.54 1094.02 L2239.16 749.352 L2251.79 281.738 L2264.41 218.428 L2277.03 151.17 L2289.65 160.137 L2302.27 198.25 L2314.89 275.597 L2327.51 338.372 L2340.13 384.332 L2352.76 472.888 L2352.76 1272.14 L2340.13 1272.14 L2327.51 1272.14 L2314.89 1272.14 L2302.27 1272.14 L2289.65 1272.14 L2277.03 1272.14 L2264.41 1272.14 L2251.79 1272.14 L2239.16 1272.14 L2226.54 1272.14 L2213.92 1272.14 L2201.3 1272.14 L2188.68 1272.14 L2176.06 1272.14 L2163.44 1272.14 L2150.82 1272.14 L2138.2 1272.14 L2125.57 1272.14 L2112.95 1272.14 L2100.33 1272.14 L2087.71 1272.14 L2075.09 1272.14 L2062.47 1272.14 L2049.85 1272.14 L2037.23 1272.14 L2024.6 1272.14 L2011.98 1272.14 L1999.36 1272.14 L1986.74 1272.14 L1974.12 1272.14 L1961.5 1272.14 L1948.88 1272.14 L1936.26 1272.14 L1923.63 1272.14 L1911.01 1272.14 L1898.39 1272.14 L1885.77 1272.14 L1873.15 1272.14 L1860.53 1272.14 L1847.91 1272.14 L1835.29 1272.14 L1822.66 1272.14 L1810.04 1272.14 L1797.42 1272.14 L1784.8 1272.14 L1772.18 1272.14 L1759.56 1272.14 L1746.94 1272.14 L1734.32 1272.14 L1721.69 1272.14 L1709.07 1272.14 L1696.45 1272.14 L1683.83 1272.14 L1671.21 1272.14 L1658.59 1272.14 L1645.97 1272.14 L1633.35 1272.14 L1620.72 1272.14 L1608.1 1272.14 L1595.48 1272.14 L1582.86 1272.14 L1570.24 1272.14 L1557.62 1272.14 L1545 1272.14 L1532.38 1272.14 L1519.75 1272.14 L1507.13 1272.14 L1494.51 1272.14 L1481.89 1272.14 L1469.27 1272.14 L1456.65 1272.14 L1444.03 1272.14 L1431.41 1272.14 L1418.78 1272.14 L1406.16 1272.14 L1393.54 1272.14 L1380.92 1272.14 L1368.3 1272.14 L1355.68 1272.14 L1343.06 1272.14 L1330.44 1272.14 L1317.82 1272.14 L1305.19 1272.14 L1292.57 1272.14 L1279.95 1272.14 L1267.33 1272.14 L1254.71 1272.14 L1242.09 1272.14 L1229.47 1272.14 L1216.85 1272.14 L1204.22 1272.14 L1191.6 1272.14 L1178.98 1272.14 L1166.36 1272.14 L1153.74 1272.14 L1141.12 1272.14 L1128.5 1272.14 L1115.88 1272.14 L1103.25 1272.14 L1090.63 1272.14 L1078.01 1272.14 L1065.39 1272.14 L1052.77 1272.14 L1040.15 1272.14 L1027.53 1272.14 L1014.91 1272.14 L1002.28 1272.14 L989.663 1272.14 L977.042 1272.14 L964.421 1272.14 L951.799 1272.14 L939.178 1272.14 L926.557 1272.14 L913.936 1272.14 L901.315 1272.14 L888.693 1272.14 L876.072 1272.14 L863.451 1272.14 L850.83 1272.14 L838.208 1272.14 L825.587 1272.14 L812.966 1272.14 L800.345 1272.14 L787.723 1272.14 L775.102 1272.14 L762.481 1272.14 L749.86 1272.14 L737.239 1272.14 L724.617 1272.14 L711.996 1272.14 L699.375 1272.14 L686.754 1272.14 L674.132 1272.14 L661.511 1272.14 L648.89 1272.14 L636.269 1272.14 L623.647 1272.14 L611.026 1272.14 L598.405 1272.14 L585.784 1272.14 L573.163 1272.14 L560.541 1272.14 L547.92 1272.14 L535.299 1272.14 L522.678 1272.14 L510.056 1272.14 L497.435 1272.14 L484.814 1272.14 L472.193 1272.14 L459.571 1272.14 L446.95 1272.14 L434.329 1272.14 L421.708 1272.14 L409.087 1272.14 L396.465 1272.14 L383.844 1272.14 L371.223 1272.14 L358.602 1272.14 L345.98 1272.14 L333.359 1272.14 L320.738 1272.14 L308.117 1272.14 L295.495 1272.14 L282.874 1272.14 L270.253 1272.14 L257.632 1272.14 L245.011 1272.14  Z" fill="#009af9" fill-rule="evenodd" fill-opacity="1"/>
<polyline clip-path="url(#clip591)" style="stroke:#009af9; stroke-linecap:round; stroke-linejoin:round; stroke-width:4; stroke-opacity:1; fill:none" points="245.011,693.72 257.632,720.623 270.253,750.889 282.874,775.551 295.495,786.76 308.117,800.212 320.738,825.994 333.359,821.511 345.98,1166.59 358.602,1272.14 371.223,1272.14 383.844,1272.14 396.465,1272.14 409.087,1272.14 421.708,1194.53 434.329,755.926 446.95,739.68 459.571,655.607 472.193,530.058 484.814,661.212 497.435,588.348 510.056,610.768 522.678,614.131 535.299,665.695 547.92,715.018 560.541,750.889 573.163,769.946 585.784,773.309 598.405,756.494 611.026,727.349 623.647,682.51 636.269,610.768 648.89,704.848 661.511,916.858 674.132,1106.19 686.754,1222.14 699.375,1272.14 711.996,1161.36 724.617,792.755 737.239,483.806 749.86,429.17 762.481,367.517 775.102,367.517 787.723,429.812 800.345,472.888 812.966,514.364 825.587,534.542 838.208,595.074 850.83,658.97 863.451,701.567 876.072,728.47 888.693,737.438 901.315,731.833 913.936,728.47 926.557,721.744 939.178,674.663 951.799,766.226 964.421,994.758 977.042,1118.26 989.663,1139.25 1002.28,1045.41 1014.91,899.767 1027.53,679.894 1040.15,509.312 1052.77,459.437 1065.39,405.63 1078.01,404.509 1090.63,443.743 1103.25,509.88 1115.88,553.598 1128.5,568.171 1141.12,620.857 1153.74,680.268 1166.36,721.744 1178.98,745.284 1191.6,757.615 1204.22,755.373 1216.85,762.099 1229.47,777.793 1242.09,759.012 1254.71,1138.81 1267.33,1272.14 1279.95,1272.14 1292.57,1272.14 1305.19,1272.14 1317.82,1272.14 1330.44,1054.72 1343.06,630.929 1355.68,673.542 1368.3,472.888 1380.92,519.969 1393.54,589.469 1406.16,523.332 1418.78,552.477 1431.41,667.937 1444.03,611.889 1456.65,666.816 1469.27,703.809 1481.89,718.381 1494.51,716.139 1507.13,692.599 1519.75,634.308 1532.38,530.058 1545,433.086 1557.62,848.446 1570.24,1272.14 1582.86,1272.14 1595.48,1272.14 1608.1,1272.14 1620.72,1272.14 1633.35,1069.99 1645.97,429.122 1658.59,421.324 1671.21,240.847 1683.83,308.106 1696.45,386.574 1709.07,352.944 1721.69,406.751 1734.32,553.598 1746.94,521.09 1759.56,579.381 1772.18,621.978 1784.8,641.034 1797.42,639.913 1810.04,625.341 1822.66,592.832 1835.29,516.606 1847.91,439.812 1860.53,809.245 1873.15,1272.14 1885.77,1272.14 1898.39,1272.14 1911.01,1272.14 1923.63,1272.14 1936.26,910.912 1948.88,414.013 1961.5,444.864 1974.12,255.42 1986.74,322.678 1999.36,395.541 2011.98,351.823 2024.6,406.751 2037.23,555.84 2049.85,515.485 2062.47,579.381 2075.09,623.099 2087.71,634.308 2100.33,627.582 2112.95,608.526 2125.57,545.752 2138.2,398.904 2150.82,279.236 2163.44,477.242 2176.06,945.012 2188.68,1188.13 2201.3,1272.14 2213.92,1272.14 2226.54,1094.02 2239.16,749.352 2251.79,281.738 2264.41,218.428 2277.03,151.17 2289.65,160.137 2302.27,198.25 2314.89,275.597 2327.51,338.372 2340.13,384.332 2352.76,472.888 "/>
<path clip-path="url(#clip591)" d="M245.011 693.72 L257.632 720.623 L270.253 750.889 L282.874 775.551 L295.495 786.76 L308.117 800.212 L320.738 825.994 L333.359 821.511 L345.98 809.18 L358.602 717.883 L371.223 607.405 L383.844 551.356 L396.465 532.3 L409.087 544.631 L421.708 674.663 L434.329 739.68 L446.95 739.68 L459.571 655.607 L472.193 530.058 L484.814 661.212 L497.435 588.348 L510.056 610.768 L522.678 614.131 L535.299 665.695 L547.92 715.018 L560.541 750.889 L573.163 769.946 L585.784 773.309 L598.405 756.494 L611.026 727.349 L623.647 682.51 L636.269 610.768 L648.89 542.389 L661.511 486.34 L674.132 448.227 L686.754 417.961 L699.375 378.613 L711.996 430.291 L724.617 451.59 L737.239 459.437 L749.86 429.17 L762.481 367.517 L775.102 367.517 L787.723 429.812 L800.345 472.888 L812.966 514.364 L825.587 534.542 L838.208 595.074 L850.83 658.97 L863.451 701.567 L876.072 728.47 L888.693 737.438 L901.315 731.833 L913.936 728.47 L926.557 721.744 L939.178 674.663 L951.799 611.889 L964.421 547.993 L977.042 500.913 L989.663 465.042 L1002.28 460.558 L1014.91 477.372 L1027.53 493.066 L1040.15 493.066 L1052.77 459.437 L1065.39 405.63 L1078.01 404.509 L1090.63 443.743 L1103.25 509.88 L1115.88 553.598 L1128.5 568.171 L1141.12 620.857 L1153.74 680.268 L1166.36 721.744 L1178.98 745.284 L1191.6 757.615 L1204.22 755.373 L1216.85 762.099 L1229.47 777.793 L1242.09 750.889 L1254.71 708.292 L1267.33 599.06 L1279.95 484.098 L1292.57 424.687 L1305.19 421.324 L1317.82 451.59 L1330.44 591.711 L1343.06 598.437 L1355.68 673.542 L1368.3 472.888 L1380.92 519.969 L1393.54 589.469 L1406.16 523.332 L1418.78 552.477 L1431.41 667.937 L1444.03 611.889 L1456.65 666.816 L1469.27 703.809 L1481.89 718.381 L1494.51 716.139 L1507.13 692.599 L1519.75 634.308 L1532.38 530.058 L1545 416.84 L1557.62 352.944 L1570.24 282.946 L1582.86 197.129 L1595.48 176.952 L1608.1 176.952 L1620.72 193.766 L1633.35 322.678 L1645.97 331.646 L1658.59 421.324 L1671.21 240.847 L1683.83 308.106 L1696.45 386.574 L1709.07 352.944 L1721.69 406.751 L1734.32 553.598 L1746.94 521.09 L1759.56 579.381 L1772.18 621.978 L1784.8 641.034 L1797.42 639.913 L1810.04 625.341 L1822.66 592.832 L1835.29 516.606 L1847.91 423.566 L1860.53 378.727 L1873.15 306.486 L1885.77 216.186 L1898.39 192.645 L1911.01 196.008 L1923.63 220.67 L1936.26 358.549 L1948.88 365.275 L1961.5 444.864 L1974.12 255.42 L1986.74 322.678 L1999.36 395.541 L2011.98 351.823 L2024.6 406.751 L2037.23 555.84 L2049.85 515.485 L2062.47 579.381 L2075.09 623.099 L2087.71 634.308 L2100.33 627.582 L2112.95 608.526 L2125.57 545.752 L2138.2 398.904 L2150.82 271.113 L2163.44 217.307 L2176.06 213.944 L2188.68 197.129 L2201.3 86.1857 L2213.92 183.661 L2226.54 200.492 L2239.16 302.588 L2251.79 233 L2264.41 218.428 L2277.03 151.17 L2289.65 160.137 L2302.27 198.25 L2314.89 275.597 L2327.51 338.372 L2340.13 384.332 L2352.76 472.888 L2352.76 472.888 L2340.13 384.332 L2327.51 338.372 L2314.89 275.597 L2302.27 198.25 L2289.65 160.137 L2277.03 151.17 L2264.41 218.428 L2251.79 281.738 L2239.16 749.352 L2226.54 1094.02 L2213.92 1272.14 L2201.3 1272.14 L2188.68 1188.13 L2176.06 945.012 L2163.44 477.242 L2150.82 279.236 L2138.2 398.904 L2125.57 545.752 L2112.95 608.526 L2100.33 627.582 L2087.71 634.308 L2075.09 623.099 L2062.47 579.381 L2049.85 515.485 L2037.23 555.84 L2024.6 406.751 L2011.98 351.823 L1999.36 395.541 L1986.74 322.678 L1974.12 255.42 L1961.5 444.864 L1948.88 414.013 L1936.26 910.912 L1923.63 1272.14 L1911.01 1272.14 L1898.39 1272.14 L1885.77 1272.14 L1873.15 1272.14 L1860.53 809.245 L1847.91 439.812 L1835.29 516.606 L1822.66 592.832 L1810.04 625.341 L1797.42 639.913 L1784.8 641.034 L1772.18 621.978 L1759.56 579.381 L1746.94 521.09 L1734.32 553.598 L1721.69 406.751 L1709.07 352.944 L1696.45 386.574 L1683.83 308.106 L1671.21 240.847 L1658.59 421.324 L1645.97 429.122 L1633.35 1069.99 L1620.72 1272.14 L1608.1 1272.14 L1595.48 1272.14 L1582.86 1272.14 L1570.24 1272.14 L1557.62 848.446 L1545 433.086 L1532.38 530.058 L1519.75 634.308 L1507.13 692.599 L1494.51 716.139 L1481.89 718.381 L1469.27 703.809 L1456.65 666.816 L1444.03 611.889 L1431.41 667.937 L1418.78 552.477 L1406.16 523.332 L1393.54 589.469 L1380.92 519.969 L1368.3 472.888 L1355.68 673.542 L1343.06 630.929 L1330.44 1054.72 L1317.82 1272.14 L1305.19 1272.14 L1292.57 1272.14 L1279.95 1272.14 L1267.33 1272.14 L1254.71 1138.81 L1242.09 759.012 L1229.47 777.793 L1216.85 762.099 L1204.22 755.373 L1191.6 757.615 L1178.98 745.284 L1166.36 721.744 L1153.74 680.268 L1141.12 620.857 L1128.5 568.171 L1115.88 553.598 L1103.25 509.88 L1090.63 443.743 L1078.01 404.509 L1065.39 405.63 L1052.77 459.437 L1040.15 509.312 L1027.53 679.894 L1014.91 899.767 L1002.28 1045.41 L989.663 1139.25 L977.042 1118.26 L964.421 994.758 L951.799 766.226 L939.178 674.663 L926.557 721.744 L913.936 728.47 L901.315 731.833 L888.693 737.438 L876.072 728.47 L863.451 701.567 L850.83 658.97 L838.208 595.074 L825.587 534.542 L812.966 514.364 L800.345 472.888 L787.723 429.812 L775.102 367.517 L762.481 367.517 L749.86 429.17 L737.239 483.806 L724.617 792.755 L711.996 1161.36 L699.375 1272.14 L686.754 1222.14 L674.132 1106.19 L661.511 916.858 L648.89 704.848 L636.269 610.768 L623.647 682.51 L611.026 727.349 L598.405 756.494 L585.784 773.309 L573.163 769.946 L560.541 750.889 L547.92 715.018 L535.299 665.695 L522.678 614.131 L510.056 610.768 L497.435 588.348 L484.814 661.212 L472.193 530.058 L459.571 655.607 L446.95 739.68 L434.329 755.926 L421.708 1194.53 L409.087 1272.14 L396.465 1272.14 L383.844 1272.14 L371.223 1272.14 L358.602 1272.14 L345.98 1166.59 L333.359 821.511 L320.738 825.994 L308.117 800.212 L295.495 786.76 L282.874 775.551 L270.253 750.889 L257.632 720.623 L245.011 693.72  Z" fill="#e26f46" fill-rule="evenodd" fill-opacity="1"/>
<polyline clip-path="url(#clip591)" style="stroke:#e26f46; stroke-linecap:round; stroke-linejoin:round; stroke-width:4; stroke-opacity:1; fill:none" points="245.011,693.72 257.632,720.623 270.253,750.889 282.874,775.551 295.495,786.76 308.117,800.212 320.738,825.994 333.359,821.511 345.98,809.18 358.602,717.883 371.223,607.405 383.844,551.356 396.465,532.3 409.087,544.631 421.708,674.663 434.329,739.68 446.95,739.68 459.571,655.607 472.193,530.058 484.814,661.212 497.435,588.348 510.056,610.768 522.678,614.131 535.299,665.695 547.92,715.018 560.541,750.889 573.163,769.946 585.784,773.309 598.405,756.494 611.026,727.349 623.647,682.51 636.269,610.768 648.89,542.389 661.511,486.34 674.132,448.227 686.754,417.961 699.375,378.613 711.996,430.291 724.617,451.59 737.239,459.437 749.86,429.17 762.481,367.517 775.102,367.517 787.723,429.812 800.345,472.888 812.966,514.364 825.587,534.542 838.208,595.074 850.83,658.97 863.451,701.567 876.072,728.47 888.693,737.438 901.315,731.833 913.936,728.47 926.557,721.744 939.178,674.663 951.799,611.889 964.421,547.993 977.042,500.913 989.663,465.042 1002.28,460.558 1014.91,477.372 1027.53,493.066 1040.15,493.066 1052.77,459.437 1065.39,405.63 1078.01,404.509 1090.63,443.743 1103.25,509.88 1115.88,553.598 1128.5,568.171 1141.12,620.857 1153.74,680.268 1166.36,721.744 1178.98,745.284 1191.6,757.615 1204.22,755.373 1216.85,762.099 1229.47,777.793 1242.09,750.889 1254.71,708.292 1267.33,599.06 1279.95,484.098 1292.57,424.687 1305.19,421.324 1317.82,451.59 1330.44,591.711 1343.06,598.437 1355.68,673.542 1368.3,472.888 1380.92,519.969 1393.54,589.469 1406.16,523.332 1418.78,552.477 1431.41,667.937 1444.03,611.889 1456.65,666.816 1469.27,703.809 1481.89,718.381 1494.51,716.139 1507.13,692.599 1519.75,634.308 1532.38,530.058 1545,416.84 1557.62,352.944 1570.24,282.946 1582.86,197.129 1595.48,176.952 1608.1,176.952 1620.72,193.766 1633.35,322.678 1645.97,331.646 1658.59,421.324 1671.21,240.847 1683.83,308.106 1696.45,386.574 1709.07,352.944 1721.69,406.751 1734.32,553.598 1746.94,521.09 1759.56,579.381 1772.18,621.978 1784.8,641.034 1797.42,639.913 1810.04,625.341 1822.66,592.832 1835.29,516.606 1847.91,423.566 1860.53,378.727 1873.15,306.486 1885.77,216.186 1898.39,192.645 1911.01,196.008 1923.63,220.67 1936.26,358.549 1948.88,365.275 1961.5,444.864 1974.12,255.42 1986.74,322.678 1999.36,395.541 2011.98,351.823 2024.6,406.751 2037.23,555.84 2049.85,515.485 2062.47,579.381 2075.09,623.099 2087.71,634.308 2100.33,627.582 2112.95,608.526 2125.57,545.752 2138.2,398.904 2150.82,271.113 2163.44,217.307 2176.06,213.944 2188.68,197.129 2201.3,86.1857 2213.92,183.661 2226.54,200.492 2239.16,302.588 2251.79,233 2264.41,218.428 2277.03,151.17 2289.65,160.137 2302.27,198.25 2314.89,275.597 2327.51,338.372 2340.13,384.332 2352.76,472.888 "/>
<path clip-path="url(#clip591)" d="M245.011 693.72 L257.632 720.623 L270.253 750.889 L282.874 775.551 L295.495 786.76 L308.117 800.212 L320.738 825.994 L333.359 821.511 L345.98 809.18 L358.602 717.883 L371.223 607.405 L383.844 551.356 L396.465 532.3 L409.087 544.631 L421.708 674.663 L434.329 672.421 L446.95 627.582 L459.571 543.51 L472.193 530.058 L484.814 549.114 L497.435 588.348 L510.056 610.768 L522.678 614.131 L535.299 665.695 L547.92 715.018 L560.541 750.889 L573.163 769.946 L585.784 773.309 L598.405 756.494 L611.026 727.349 L623.647 682.51 L636.269 610.768 L648.89 542.389 L661.511 486.34 L674.132 448.227 L686.754 417.961 L699.375 378.613 L711.996 430.291 L724.617 451.59 L737.239 459.437 L749.86 429.17 L762.481 367.517 L775.102 367.517 L787.723 403.388 L800.345 472.888 L812.966 514.364 L825.587 534.542 L838.208 595.074 L850.83 658.97 L863.451 701.567 L876.072 728.47 L888.693 737.438 L901.315 731.833 L913.936 728.47 L926.557 721.744 L939.178 674.663 L951.799 611.889 L964.421 547.993 L977.042 500.913 L989.663 465.042 L1002.28 460.558 L1014.91 477.372 L1027.53 493.066 L1040.15 493.066 L1052.77 459.437 L1065.39 405.63 L1078.01 404.509 L1090.63 443.743 L1103.25 509.88 L1115.88 553.598 L1128.5 568.171 L1141.12 620.857 L1153.74 680.268 L1166.36 721.744 L1178.98 745.284 L1191.6 757.615 L1204.22 755.373 L1216.85 762.099 L1229.47 777.793 L1242.09 750.889 L1254.71 708.292 L1267.33 599.06 L1279.95 484.098 L1292.57 424.687 L1305.19 421.324 L1317.82 451.59 L1330.44 591.711 L1343.06 598.437 L1355.68 561.445 L1368.3 472.888 L1380.92 452.711 L1393.54 477.372 L1406.16 523.332 L1418.78 552.477 L1431.41 555.84 L1444.03 611.889 L1456.65 666.816 L1469.27 703.809 L1481.89 718.381 L1494.51 716.139 L1507.13 692.599 L1519.75 634.308 L1532.38 530.058 L1545 416.84 L1557.62 352.944 L1570.24 282.946 L1582.86 197.129 L1595.48 176.952 L1608.1 176.952 L1620.72 193.766 L1633.35 322.678 L1645.97 331.646 L1658.59 309.227 L1671.21 240.847 L1683.83 240.847 L1696.45 274.476 L1709.07 352.944 L1721.69 406.751 L1734.32 441.501 L1746.94 521.09 L1759.56 579.381 L1772.18 621.978 L1784.8 641.034 L1797.42 639.913 L1810.04 625.341 L1822.66 592.832 L1835.29 516.606 L1847.91 423.566 L1860.53 378.727 L1873.15 306.486 L1885.77 216.186 L1898.39 192.645 L1911.01 196.008 L1923.63 220.67 L1936.26 358.549 L1948.88 365.275 L1961.5 332.767 L1974.12 255.42 L1986.74 255.42 L1999.36 283.444 L2011.98 351.823 L2024.6 406.751 L2037.23 443.743 L2049.85 515.485 L2062.47 579.381 L2075.09 623.099 L2087.71 634.308 L2100.33 627.582 L2112.95 608.526 L2125.57 545.752 L2138.2 398.904 L2150.82 271.113 L2163.44 217.307 L2176.06 213.944 L2188.68 197.129 L2201.3 86.1857 L2213.92 183.661 L2226.54 200.492 L2239.16 221.791 L2251.79 233 L2264.41 218.428 L2277.03 151.17 L2289.65 160.137 L2302.27 198.25 L2314.89 275.597 L2327.51 338.372 L2340.13 384.332 L2352.76 472.888 L2352.76 472.888 L2340.13 384.332 L2327.51 338.372 L2314.89 275.597 L2302.27 198.25 L2289.65 160.137 L2277.03 151.17 L2264.41 218.428 L2251.79 233 L2239.16 302.588 L2226.54 200.492 L2213.92 183.661 L2201.3 86.1857 L2188.68 197.129 L2176.06 213.944 L2163.44 217.307 L2150.82 271.113 L2138.2 398.904 L2125.57 545.752 L2112.95 608.526 L2100.33 627.582 L2087.71 634.308 L2075.09 623.099 L2062.47 579.381 L2049.85 515.485 L2037.23 555.84 L2024.6 406.751 L2011.98 351.823 L1999.36 395.541 L1986.74 322.678 L1974.12 255.42 L1961.5 444.864 L1948.88 365.275 L1936.26 358.549 L1923.63 220.67 L1911.01 196.008 L1898.39 192.645 L1885.77 216.186 L1873.15 306.486 L1860.53 378.727 L1847.91 423.566 L1835.29 516.606 L1822.66 592.832 L1810.04 625.341 L1797.42 639.913 L1784.8 641.034 L1772.18 621.978 L1759.56 579.381 L1746.94 521.09 L1734.32 553.598 L1721.69 406.751 L1709.07 352.944 L1696.45 386.574 L1683.83 308.106 L1671.21 240.847 L1658.59 421.324 L1645.97 331.646 L1633.35 322.678 L1620.72 193.766 L1608.1 176.952 L1595.48 176.952 L1582.86 197.129 L1570.24 282.946 L1557.62 352.944 L1545 416.84 L1532.38 530.058 L1519.75 634.308 L1507.13 692.599 L1494.51 716.139 L1481.89 718.381 L1469.27 703.809 L1456.65 666.816 L1444.03 611.889 L1431.41 667.937 L1418.78 552.477 L1406.16 523.332 L1393.54 589.469 L1380.92 519.969 L1368.3 472.888 L1355.68 673.542 L1343.06 598.437 L1330.44 591.711 L1317.82 451.59 L1305.19 421.324 L1292.57 424.687 L1279.95 484.098 L1267.33 599.06 L1254.71 708.292 L1242.09 750.889 L1229.47 777.793 L1216.85 762.099 L1204.22 755.373 L1191.6 757.615 L1178.98 745.284 L1166.36 721.744 L1153.74 680.268 L1141.12 620.857 L1128.5 568.171 L1115.88 553.598 L1103.25 509.88 L1090.63 443.743 L1078.01 404.509 L1065.39 405.63 L1052.77 459.437 L1040.15 493.066 L1027.53 493.066 L1014.91 477.372 L1002.28 460.558 L989.663 465.042 L977.042 500.913 L964.421 547.993 L951.799 611.889 L939.178 674.663 L926.557 721.744 L913.936 728.47 L901.315 731.833 L888.693 737.438 L876.072 728.47 L863.451 701.567 L850.83 658.97 L838.208 595.074 L825.587 534.542 L812.966 514.364 L800.345 472.888 L787.723 429.812 L775.102 367.517 L762.481 367.517 L749.86 429.17 L737.239 459.437 L724.617 451.59 L711.996 430.291 L699.375 378.613 L686.754 417.961 L674.132 448.227 L661.511 486.34 L648.89 542.389 L636.269 610.768 L623.647 682.51 L611.026 727.349 L598.405 756.494 L585.784 773.309 L573.163 769.946 L560.541 750.889 L547.92 715.018 L535.299 665.695 L522.678 614.131 L510.056 610.768 L497.435 588.348 L484.814 661.212 L472.193 530.058 L459.571 655.607 L446.95 739.68 L434.329 739.68 L421.708 674.663 L409.087 544.631 L396.465 532.3 L383.844 551.356 L371.223 607.405 L358.602 717.883 L345.98 809.18 L333.359 821.511 L320.738 825.994 L308.117 800.212 L295.495 786.76 L282.874 775.551 L270.253 750.889 L257.632 720.623 L245.011 693.72  Z" fill="#3da44d" fill-rule="evenodd" fill-opacity="1"/>
<polyline clip-path="url(#clip591)" style="stroke:#3da44d; stroke-linecap:round; stroke-linejoin:round; stroke-width:4; stroke-opacity:1; fill:none" points="245.011,693.72 257.632,720.623 270.253,750.889 282.874,775.551 295.495,786.76 308.117,800.212 320.738,825.994 333.359,821.511 345.98,809.18 358.602,717.883 371.223,607.405 383.844,551.356 396.465,532.3 409.087,544.631 421.708,674.663 434.329,672.421 446.95,627.582 459.571,543.51 472.193,530.058 484.814,549.114 497.435,588.348 510.056,610.768 522.678,614.131 535.299,665.695 547.92,715.018 560.541,750.889 573.163,769.946 585.784,773.309 598.405,756.494 611.026,727.349 623.647,682.51 636.269,610.768 648.89,542.389 661.511,486.34 674.132,448.227 686.754,417.961 699.375,378.613 711.996,430.291 724.617,451.59 737.239,459.437 749.86,429.17 762.481,367.517 775.102,367.517 787.723,403.388 800.345,472.888 812.966,514.364 825.587,534.542 838.208,595.074 850.83,658.97 863.451,701.567 876.072,728.47 888.693,737.438 901.315,731.833 913.936,728.47 926.557,721.744 939.178,674.663 951.799,611.889 964.421,547.993 977.042,500.913 989.663,465.042 1002.28,460.558 1014.91,477.372 1027.53,493.066 1040.15,493.066 1052.77,459.437 1065.39,405.63 1078.01,404.509 1090.63,443.743 1103.25,509.88 1115.88,553.598 1128.5,568.171 1141.12,620.857 1153.74,680.268 1166.36,721.744 1178.98,745.284 1191.6,757.615 1204.22,755.373 1216.85,762.099 1229.47,777.793 1242.09,750.889 1254.71,708.292 1267.33,599.06 1279.95,484.098 1292.57,424.687 1305.19,421.324 1317.82,451.59 1330.44,591.711 1343.06,598.437 1355.68,561.445 1368.3,472.888 1380.92,452.711 1393.54,477.372 1406.16,523.332 1418.78,552.477 1431.41,555.84 1444.03,611.889 1456.65,666.816 1469.27,703.809 1481.89,718.381 1494.51,716.139 1507.13,692.599 1519.75,634.308 1532.38,530.058 1545,416.84 1557.62,352.944 1570.24,282.946 1582.86,197.129 1595.48,176.952 1608.1,176.952 1620.72,193.766 1633.35,322.678 1645.97,331.646 1658.59,309.227 1671.21,240.847 1683.83,240.847 1696.45,274.476 1709.07,352.944 1721.69,406.751 1734.32,441.501 1746.94,521.09 1759.56,579.381 1772.18,621.978 1784.8,641.034 1797.42,639.913 1810.04,625.341 1822.66,592.832 1835.29,516.606 1847.91,423.566 1860.53,378.727 1873.15,306.486 1885.77,216.186 1898.39,192.645 1911.01,196.008 1923.63,220.67 1936.26,358.549 1948.88,365.275 1961.5,332.767 1974.12,255.42 1986.74,255.42 1999.36,283.444 2011.98,351.823 2024.6,406.751 2037.23,443.743 2049.85,515.485 2062.47,579.381 2075.09,623.099 2087.71,634.308 2100.33,627.582 2112.95,608.526 2125.57,545.752 2138.2,398.904 2150.82,271.113 2163.44,217.307 2176.06,213.944 2188.68,197.129 2201.3,86.1857 2213.92,183.661 2226.54,200.492 2239.16,221.791 2251.79,233 2264.41,218.428 2277.03,151.17 2289.65,160.137 2302.27,198.25 2314.89,275.597 2327.51,338.372 2340.13,384.332 2352.76,472.888 "/>
<path clip-path="url(#clip591)" d="M245.011 1272.14 L257.632 1272.14 L270.253 1272.14 L282.874 1272.14 L295.495 1272.14 L308.117 1272.14 L320.738 1272.14 L333.359 1272.14 L345.98 1272.14 L358.602 1321.96 L371.223 1384.24 L383.844 1384.24 L396.465 1384.24 L409.087 1384.24 L421.708 1272.14 L434.329 1272.14 L446.95 1272.14 L459.571 1272.14 L472.193 1272.14 L484.814 1272.14 L497.435 1272.14 L510.056 1272.14 L522.678 1272.14 L535.299 1272.14 L547.92 1272.14 L560.541 1272.14 L573.163 1272.14 L585.784 1272.14 L598.405 1272.14 L611.026 1272.14 L623.647 1272.14 L636.269 1272.14 L648.89 1272.14 L661.511 1272.14 L674.132 1272.14 L686.754 1272.14 L699.375 1304.76 L711.996 1272.14 L724.617 1272.14 L737.239 1272.14 L749.86 1272.14 L762.481 1272.14 L775.102 1272.14 L787.723 1272.14 L800.345 1272.14 L812.966 1272.14 L825.587 1272.14 L838.208 1272.14 L850.83 1272.14 L863.451 1272.14 L876.072 1272.14 L888.693 1272.14 L901.315 1272.14 L913.936 1272.14 L926.557 1272.14 L939.178 1272.14 L951.799 1272.14 L964.421 1272.14 L977.042 1272.14 L989.663 1272.14 L1002.28 1272.14 L1014.91 1272.14 L1027.53 1272.14 L1040.15 1272.14 L1052.77 1272.14 L1065.39 1272.14 L1078.01 1272.14 L1090.63 1272.14 L1103.25 1272.14 L1115.88 1272.14 L1128.5 1272.14 L1141.12 1272.14 L1153.74 1272.14 L1166.36 1272.14 L1178.98 1272.14 L1191.6 1272.14 L1204.22 1272.14 L1216.85 1272.14 L1229.47 1272.14 L1242.09 1272.14 L1254.71 1272.14 L1267.33 1321.96 L1279.95 1384.24 L1292.57 1384.24 L1305.19 1384.24 L1317.82 1384.24 L1330.44 1272.14 L1343.06 1272.14 L1355.68 1272.14 L1368.3 1272.14 L1380.92 1272.14 L1393.54 1272.14 L1406.16 1272.14 L1418.78 1272.14 L1431.41 1272.14 L1444.03 1272.14 L1456.65 1272.14 L1469.27 1272.14 L1481.89 1272.14 L1494.51 1272.14 L1507.13 1272.14 L1519.75 1272.14 L1532.38 1272.14 L1545 1272.14 L1557.62 1272.14 L1570.24 1321.96 L1582.86 1384.24 L1595.48 1384.24 L1608.1 1384.24 L1620.72 1384.24 L1633.35 1272.14 L1645.97 1272.14 L1658.59 1272.14 L1671.21 1272.14 L1683.83 1272.14 L1696.45 1272.14 L1709.07 1272.14 L1721.69 1272.14 L1734.32 1272.14 L1746.94 1272.14 L1759.56 1272.14 L1772.18 1272.14 L1784.8 1272.14 L1797.42 1272.14 L1810.04 1272.14 L1822.66 1272.14 L1835.29 1272.14 L1847.91 1272.14 L1860.53 1272.14 L1873.15 1321.96 L1885.77 1384.24 L1898.39 1384.24 L1911.01 1384.24 L1923.63 1384.24 L1936.26 1272.14 L1948.88 1272.14 L1961.5 1272.14 L1974.12 1272.14 L1986.74 1272.14 L1999.36 1272.14 L2011.98 1272.14 L2024.6 1272.14 L2037.23 1272.14 L2049.85 1272.14 L2062.47 1272.14 L2075.09 1272.14 L2087.71 1272.14 L2100.33 1272.14 L2112.95 1272.14 L2125.57 1272.14 L2138.2 1272.14 L2150.82 1272.14 L2163.44 1272.14 L2176.06 1272.14 L2188.68 1272.14 L2201.3 1367.39 L2213.92 1276.64 L2226.54 1272.14 L2239.16 1272.14 L2251.79 1272.14 L2264.41 1272.14 L2277.03 1272.14 L2289.65 1272.14 L2302.27 1272.14 L2314.89 1272.14 L2327.51 1272.14 L2340.13 1272.14 L2352.76 1272.14 L2352.76 1272.14 L2340.13 1272.14 L2327.51 1272.14 L2314.89 1272.14 L2302.27 1272.14 L2289.65 1272.14 L2277.03 1272.14 L2264.41 1272.14 L2251.79 1272.14 L2239.16 1272.14 L2226.54 1272.14 L2213.92 1272.14 L2201.3 1272.14 L2188.68 1272.14 L2176.06 1272.14 L2163.44 1272.14 L2150.82 1272.14 L2138.2 1272.14 L2125.57 1272.14 L2112.95 1272.14 L2100.33 1272.14 L2087.71 1272.14 L2075.09 1272.14 L2062.47 1272.14 L2049.85 1272.14 L2037.23 1272.14 L2024.6 1272.14 L2011.98 1272.14 L1999.36 1272.14 L1986.74 1272.14 L1974.12 1272.14 L1961.5 1272.14 L1948.88 1272.14 L1936.26 1272.14 L1923.63 1272.14 L1911.01 1272.14 L1898.39 1272.14 L1885.77 1272.14 L1873.15 1272.14 L1860.53 1272.14 L1847.91 1272.14 L1835.29 1272.14 L1822.66 1272.14 L1810.04 1272.14 L1797.42 1272.14 L1784.8 1272.14 L1772.18 1272.14 L1759.56 1272.14 L1746.94 1272.14 L1734.32 1272.14 L1721.69 1272.14 L1709.07 1272.14 L1696.45 1272.14 L1683.83 1272.14 L1671.21 1272.14 L1658.59 1272.14 L1645.97 1272.14 L1633.35 1272.14 L1620.72 1272.14 L1608.1 1272.14 L1595.48 1272.14 L1582.86 1272.14 L1570.24 1272.14 L1557.62 1272.14 L1545 1272.14 L1532.38 1272.14 L1519.75 1272.14 L1507.13 1272.14 L1494.51 1272.14 L1481.89 1272.14 L1469.27 1272.14 L1456.65 1272.14 L1444.03 1272.14 L1431.41 1272.14 L1418.78 1272.14 L1406.16 1272.14 L1393.54 1272.14 L1380.92 1272.14 L1368.3 1272.14 L1355.68 1272.14 L1343.06 1272.14 L1330.44 1272.14 L1317.82 1272.14 L1305.19 1272.14 L1292.57 1272.14 L1279.95 1272.14 L1267.33 1272.14 L1254.71 1272.14 L1242.09 1272.14 L1229.47 1272.14 L1216.85 1272.14 L1204.22 1272.14 L1191.6 1272.14 L1178.98 1272.14 L1166.36 1272.14 L1153.74 1272.14 L1141.12 1272.14 L1128.5 1272.14 L1115.88 1272.14 L1103.25 1272.14 L1090.63 1272.14 L1078.01 1272.14 L1065.39 1272.14 L1052.77 1272.14 L1040.15 1272.14 L1027.53 1272.14 L1014.91 1272.14 L1002.28 1272.14 L989.663 1272.14 L977.042 1272.14 L964.421 1272.14 L951.799 1272.14 L939.178 1272.14 L926.557 1272.14 L913.936 1272.14 L901.315 1272.14 L888.693 1272.14 L876.072 1272.14 L863.451 1272.14 L850.83 1272.14 L838.208 1272.14 L825.587 1272.14 L812.966 1272.14 L800.345 1272.14 L787.723 1272.14 L775.102 1272.14 L762.481 1272.14 L749.86 1272.14 L737.239 1272.14 L724.617 1272.14 L711.996 1272.14 L699.375 1272.14 L686.754 1272.14 L674.132 1272.14 L661.511 1272.14 L648.89 1272.14 L636.269 1272.14 L623.647 1272.14 L611.026 1272.14 L598.405 1272.14 L585.784 1272.14 L573.163 1272.14 L560.541 1272.14 L547.92 1272.14 L535.299 1272.14 L522.678 1272.14 L510.056 1272.14 L497.435 1272.14 L484.814 1272.14 L472.193 1272.14 L459.571 1272.14 L446.95 1272.14 L434.329 1272.14 L421.708 1272.14 L409.087 1272.14 L396.465 1272.14 L383.844 1272.14 L371.223 1272.14 L358.602 1272.14 L345.98 1272.14 L333.359 1272.14 L320.738 1272.14 L308.117 1272.14 L295.495 1272.14 L282.874 1272.14 L270.253 1272.14 L257.632 1272.14 L245.011 1272.14  Z" fill="#c271d2" fill-rule="evenodd" fill-opacity="1"/>
<polyline clip-path="url(#clip591)" style="stroke:#c271d2; stroke-linecap:round; stroke-linejoin:round; stroke-width:4; stroke-opacity:1; fill:none" points="245.011,1272.14 257.632,1272.14 270.253,1272.14 282.874,1272.14 295.495,1272.14 308.117,1272.14 320.738,1272.14 333.359,1272.14 345.98,1272.14 358.602,1321.96 371.223,1384.24 383.844,1384.24 396.465,1384.24 409.087,1384.24 421.708,1272.14 434.329,1272.14 446.95,1272.14 459.571,1272.14 472.193,1272.14 484.814,1272.14 497.435,1272.14 510.056,1272.14 522.678,1272.14 535.299,1272.14 547.92,1272.14 560.541,1272.14 573.163,1272.14 585.784,1272.14 598.405,1272.14 611.026,1272.14 623.647,1272.14 636.269,1272.14 648.89,1272.14 661.511,1272.14 674.132,1272.14 686.754,1272.14 699.375,1304.76 711.996,1272.14 724.617,1272.14 737.239,1272.14 749.86,1272.14 762.481,1272.14 775.102,1272.14 787.723,1272.14 800.345,1272.14 812.966,1272.14 825.587,1272.14 838.208,1272.14 850.83,1272.14 863.451,1272.14 876.072,1272.14 888.693,1272.14 901.315,1272.14 913.936,1272.14 926.557,1272.14 939.178,1272.14 951.799,1272.14 964.421,1272.14 977.042,1272.14 989.663,1272.14 1002.28,1272.14 1014.91,1272.14 1027.53,1272.14 1040.15,1272.14 1052.77,1272.14 1065.39,1272.14 1078.01,1272.14 1090.63,1272.14 1103.25,1272.14 1115.88,1272.14 1128.5,1272.14 1141.12,1272.14 1153.74,1272.14 1166.36,1272.14 1178.98,1272.14 1191.6,1272.14 1204.22,1272.14 1216.85,1272.14 1229.47,1272.14 1242.09,1272.14 1254.71,1272.14 1267.33,1321.96 1279.95,1384.24 1292.57,1384.24 1305.19,1384.24 1317.82,1384.24 1330.44,1272.14 1343.06,1272.14 1355.68,1272.14 1368.3,1272.14 1380.92,1272.14 1393.54,1272.14 1406.16,1272.14 1418.78,1272.14 1431.41,1272.14 1444.03,1272.14 1456.65,1272.14 1469.27,1272.14 1481.89,1272.14 1494.51,1272.14 1507.13,1272.14 1519.75,1272.14 1532.38,1272.14 1545,1272.14 1557.62,1272.14 1570.24,1321.96 1582.86,1384.24 1595.48,1384.24 1608.1,1384.24 1620.72,1384.24 1633.35,1272.14 1645.97,1272.14 1658.59,1272.14 1671.21,1272.14 1683.83,1272.14 1696.45,1272.14 1709.07,1272.14 1721.69,1272.14 1734.32,1272.14 1746.94,1272.14 1759.56,1272.14 1772.18,1272.14 1784.8,1272.14 1797.42,1272.14 1810.04,1272.14 1822.66,1272.14 1835.29,1272.14 1847.91,1272.14 1860.53,1272.14 1873.15,1321.96 1885.77,1384.24 1898.39,1384.24 1911.01,1384.24 1923.63,1384.24 1936.26,1272.14 1948.88,1272.14 1961.5,1272.14 1974.12,1272.14 1986.74,1272.14 1999.36,1272.14 2011.98,1272.14 2024.6,1272.14 2037.23,1272.14 2049.85,1272.14 2062.47,1272.14 2075.09,1272.14 2087.71,1272.14 2100.33,1272.14 2112.95,1272.14 2125.57,1272.14 2138.2,1272.14 2150.82,1272.14 2163.44,1272.14 2176.06,1272.14 2188.68,1272.14 2201.3,1367.39 2213.92,1276.64 2226.54,1272.14 2239.16,1272.14 2251.79,1272.14 2264.41,1272.14 2277.03,1272.14 2289.65,1272.14 2302.27,1272.14 2314.89,1272.14 2327.51,1272.14 2340.13,1272.14 2352.76,1272.14 "/>
<path clip-path="url(#clip590)" d="M303.068 352.309 L741.006 352.309 L741.006 93.1086 L303.068 93.1086  Z" fill="#ffffff" fill-rule="evenodd" fill-opacity="1"/>
<polyline clip-path="url(#clip590)" style="stroke:#000000; stroke-linecap:round; stroke-linejoin:round; stroke-width:4; stroke-opacity:1; fill:none" points="303.068,352.309 741.006,352.309 741.006,93.1086 303.068,93.1086 303.068,352.309 "/>
<path clip-path="url(#clip590)" d="M326.628 165.685 L467.986 165.685 L467.986 124.213 L326.628 124.213 L326.628 165.685  Z" fill="#009af9" fill-rule="evenodd" fill-opacity="1"/>
<polyline clip-path="url(#clip590)" style="stroke:#009af9; stroke-linecap:round; stroke-linejoin:round; stroke-width:4; stroke-opacity:1; fill:none" points="326.628,124.213 467.986,124.213 "/>
<path clip-path="url(#clip590)" d="M498.953 128.942 L498.953 136.303 L507.726 136.303 L507.726 139.613 L498.953 139.613 L498.953 153.687 Q498.953 156.858 499.809 157.761 Q500.689 158.664 503.351 158.664 L507.726 158.664 L507.726 162.229 L503.351 162.229 Q498.42 162.229 496.545 160.4 Q494.67 158.548 494.67 153.687 L494.67 139.613 L491.545 139.613 L491.545 136.303 L494.67 136.303 L494.67 128.942 L498.953 128.942 Z" fill="#000000" fill-rule="nonzero" fill-opacity="1" /><path clip-path="url(#clip590)" d="M534.878 146.581 L534.878 162.229 L530.619 162.229 L530.619 146.719 Q530.619 143.039 529.184 141.21 Q527.749 139.382 524.878 139.382 Q521.429 139.382 519.439 141.581 Q517.448 143.78 517.448 147.576 L517.448 162.229 L513.166 162.229 L513.166 126.21 L517.448 126.21 L517.448 140.331 Q518.976 137.993 521.036 136.835 Q523.119 135.678 525.827 135.678 Q530.295 135.678 532.587 138.456 Q534.878 141.21 534.878 146.581 Z" fill="#000000" fill-rule="nonzero" fill-opacity="1" /><path clip-path="url(#clip590)" d="M565.549 148.201 L565.549 150.284 L545.966 150.284 Q546.244 154.682 548.605 156.997 Q550.989 159.289 555.225 159.289 Q557.679 159.289 559.971 158.687 Q562.286 158.085 564.554 156.881 L564.554 160.909 Q562.262 161.881 559.855 162.391 Q557.448 162.9 554.971 162.9 Q548.767 162.9 545.133 159.289 Q541.522 155.678 541.522 149.52 Q541.522 143.155 544.948 139.428 Q548.397 135.678 554.23 135.678 Q559.462 135.678 562.494 139.057 Q565.549 142.414 565.549 148.201 M561.29 146.951 Q561.244 143.456 559.323 141.372 Q557.425 139.289 554.276 139.289 Q550.712 139.289 548.559 141.303 Q546.429 143.317 546.105 146.974 L561.29 146.951 Z" fill="#000000" fill-rule="nonzero" fill-opacity="1" /><path clip-path="url(#clip590)" d="M587.563 140.284 Q586.846 139.868 585.989 139.682 Q585.156 139.474 584.137 139.474 Q580.526 139.474 578.582 141.835 Q576.661 144.173 576.661 148.571 L576.661 162.229 L572.378 162.229 L572.378 136.303 L576.661 136.303 L576.661 140.331 Q578.003 137.969 580.156 136.835 Q582.309 135.678 585.387 135.678 Q585.827 135.678 586.36 135.747 Q586.892 135.794 587.54 135.909 L587.563 140.284 Z" fill="#000000" fill-rule="nonzero" fill-opacity="1" /><path clip-path="url(#clip590)" d="M611.383 141.28 Q612.98 138.409 615.202 137.044 Q617.424 135.678 620.433 135.678 Q624.484 135.678 626.683 138.525 Q628.882 141.349 628.882 146.581 L628.882 162.229 L624.6 162.229 L624.6 146.719 Q624.6 142.993 623.281 141.187 Q621.961 139.382 619.253 139.382 Q615.943 139.382 614.021 141.581 Q612.1 143.78 612.1 147.576 L612.1 162.229 L607.818 162.229 L607.818 146.719 Q607.818 142.969 606.498 141.187 Q605.179 139.382 602.424 139.382 Q599.16 139.382 597.239 141.604 Q595.318 143.803 595.318 147.576 L595.318 162.229 L591.035 162.229 L591.035 136.303 L595.318 136.303 L595.318 140.331 Q596.776 137.946 598.813 136.812 Q600.85 135.678 603.651 135.678 Q606.475 135.678 608.443 137.113 Q610.434 138.548 611.383 141.28 Z" fill="#000000" fill-rule="nonzero" fill-opacity="1" /><path clip-path="url(#clip590)" d="M649.16 149.196 Q643.998 149.196 642.007 150.377 Q640.017 151.557 640.017 154.405 Q640.017 156.673 641.498 158.016 Q643.003 159.335 645.572 159.335 Q649.114 159.335 651.243 156.835 Q653.396 154.312 653.396 150.145 L653.396 149.196 L649.16 149.196 M657.655 147.437 L657.655 162.229 L653.396 162.229 L653.396 158.293 Q651.938 160.655 649.762 161.789 Q647.586 162.9 644.438 162.9 Q640.456 162.9 638.095 160.678 Q635.757 158.432 635.757 154.682 Q635.757 150.307 638.674 148.085 Q641.614 145.863 647.424 145.863 L653.396 145.863 L653.396 145.446 Q653.396 142.507 651.452 140.909 Q649.531 139.289 646.035 139.289 Q643.813 139.289 641.706 139.821 Q639.6 140.354 637.656 141.419 L637.656 137.483 Q639.994 136.581 642.193 136.141 Q644.392 135.678 646.475 135.678 Q652.1 135.678 654.878 138.594 Q657.655 141.511 657.655 147.437 Z" fill="#000000" fill-rule="nonzero" fill-opacity="1" /><path clip-path="url(#clip590)" d="M666.429 126.21 L670.688 126.21 L670.688 162.229 L666.429 162.229 L666.429 126.21 Z" fill="#000000" fill-rule="nonzero" fill-opacity="1" /><path clip-path="url(#clip590)" d="M326.628 217.525 L467.986 217.525 L467.986 176.053 L326.628 176.053 L326.628 217.525  Z" fill="#e26f46" fill-rule="evenodd" fill-opacity="1"/>
<polyline clip-path="url(#clip590)" style="stroke:#e26f46; stroke-linecap:round; stroke-linejoin:round; stroke-width:4; stroke-opacity:1; fill:none" points="326.628,176.053 467.986,176.053 "/>
<path clip-path="url(#clip590)" d="M509.971 188.907 L509.971 192.934 Q508.166 192.009 506.221 191.546 Q504.277 191.083 502.193 191.083 Q499.022 191.083 497.425 192.055 Q495.851 193.027 495.851 194.971 Q495.851 196.453 496.985 197.309 Q498.119 198.143 501.545 198.907 L503.004 199.231 Q507.541 200.203 509.439 201.985 Q511.36 203.745 511.36 206.916 Q511.36 210.527 508.49 212.633 Q505.642 214.74 500.642 214.74 Q498.559 214.74 496.291 214.323 Q494.045 213.93 491.545 213.12 L491.545 208.721 Q493.906 209.948 496.198 210.573 Q498.49 211.175 500.735 211.175 Q503.744 211.175 505.365 210.157 Q506.985 209.115 506.985 207.24 Q506.985 205.504 505.804 204.578 Q504.647 203.652 500.689 202.796 L499.207 202.448 Q495.249 201.615 493.49 199.902 Q491.73 198.166 491.73 195.157 Q491.73 191.499 494.323 189.509 Q496.916 187.518 501.684 187.518 Q504.045 187.518 506.129 187.865 Q508.212 188.212 509.971 188.907 Z" fill="#000000" fill-rule="nonzero" fill-opacity="1" /><path clip-path="url(#clip590)" d="M528.189 191.129 Q524.763 191.129 522.772 193.814 Q520.781 196.476 520.781 201.129 Q520.781 205.782 522.749 208.467 Q524.74 211.129 528.189 211.129 Q531.591 211.129 533.582 208.444 Q535.573 205.758 535.573 201.129 Q535.573 196.522 533.582 193.837 Q531.591 191.129 528.189 191.129 M528.189 187.518 Q533.744 187.518 536.915 191.129 Q540.087 194.74 540.087 201.129 Q540.087 207.495 536.915 211.129 Q533.744 214.74 528.189 214.74 Q522.61 214.74 519.439 211.129 Q516.29 207.495 516.29 201.129 Q516.29 194.74 519.439 191.129 Q522.61 187.518 528.189 187.518 Z" fill="#000000" fill-rule="nonzero" fill-opacity="1" /><path clip-path="url(#clip590)" d="M547.147 178.05 L551.406 178.05 L551.406 214.069 L547.147 214.069 L547.147 178.05 Z" fill="#000000" fill-rule="nonzero" fill-opacity="1" /><path clip-path="url(#clip590)" d="M572.1 201.036 Q566.938 201.036 564.948 202.217 Q562.957 203.397 562.957 206.245 Q562.957 208.513 564.438 209.856 Q565.943 211.175 568.512 211.175 Q572.054 211.175 574.184 208.675 Q576.336 206.152 576.336 201.985 L576.336 201.036 L572.1 201.036 M580.596 199.277 L580.596 214.069 L576.336 214.069 L576.336 210.133 Q574.878 212.495 572.702 213.629 Q570.526 214.74 567.378 214.74 Q563.397 214.74 561.036 212.518 Q558.698 210.272 558.698 206.522 Q558.698 202.147 561.614 199.925 Q564.554 197.703 570.364 197.703 L576.336 197.703 L576.336 197.286 Q576.336 194.347 574.392 192.749 Q572.471 191.129 568.975 191.129 Q566.753 191.129 564.647 191.661 Q562.54 192.194 560.596 193.259 L560.596 189.323 Q562.934 188.421 565.133 187.981 Q567.332 187.518 569.415 187.518 Q575.04 187.518 577.818 190.434 Q580.596 193.351 580.596 199.277 Z" fill="#000000" fill-rule="nonzero" fill-opacity="1" /><path clip-path="url(#clip590)" d="M604.392 192.124 Q603.674 191.708 602.818 191.522 Q601.984 191.314 600.966 191.314 Q597.355 191.314 595.41 193.675 Q593.489 196.013 593.489 200.411 L593.489 214.069 L589.207 214.069 L589.207 188.143 L593.489 188.143 L593.489 192.171 Q594.832 189.809 596.985 188.675 Q599.137 187.518 602.216 187.518 Q602.656 187.518 603.188 187.587 Q603.721 187.634 604.369 187.749 L604.392 192.124 Z" fill="#000000" fill-rule="nonzero" fill-opacity="1" /><path clip-path="url(#clip590)" d="M326.628 269.365 L467.986 269.365 L467.986 227.893 L326.628 227.893 L326.628 269.365  Z" fill="#3da44d" fill-rule="evenodd" fill-opacity="1"/>
<polyline clip-path="url(#clip590)" style="stroke:#3da44d; stroke-linecap:round; stroke-linejoin:round; stroke-width:4; stroke-opacity:1; fill:none" points="326.628,227.893 467.986,227.893 "/>
<path clip-path="url(#clip590)" d="M510.457 243.918 L510.457 229.89 L514.716 229.89 L514.716 265.909 L510.457 265.909 L510.457 262.02 Q509.115 264.335 507.054 265.469 Q505.017 266.58 502.147 266.58 Q497.448 266.58 494.485 262.83 Q491.545 259.08 491.545 252.969 Q491.545 246.858 494.485 243.108 Q497.448 239.358 502.147 239.358 Q505.017 239.358 507.054 240.492 Q509.115 241.603 510.457 243.918 M495.943 252.969 Q495.943 257.668 497.865 260.353 Q499.809 263.015 503.189 263.015 Q506.568 263.015 508.513 260.353 Q510.457 257.668 510.457 252.969 Q510.457 248.27 508.513 245.608 Q506.568 242.923 503.189 242.923 Q499.809 242.923 497.865 245.608 Q495.943 248.27 495.943 252.969 Z" fill="#000000" fill-rule="nonzero" fill-opacity="1" /><path clip-path="url(#clip590)" d="M523.49 239.983 L527.749 239.983 L527.749 265.909 L523.49 265.909 L523.49 239.983 M523.49 229.89 L527.749 229.89 L527.749 235.284 L523.49 235.284 L523.49 229.89 Z" fill="#000000" fill-rule="nonzero" fill-opacity="1" /><path clip-path="url(#clip590)" d="M553.188 240.747 L553.188 244.774 Q551.383 243.849 549.438 243.386 Q547.494 242.923 545.411 242.923 Q542.239 242.923 540.642 243.895 Q539.068 244.867 539.068 246.811 Q539.068 248.293 540.202 249.149 Q541.337 249.983 544.763 250.747 L546.221 251.071 Q550.758 252.043 552.656 253.825 Q554.577 255.585 554.577 258.756 Q554.577 262.367 551.707 264.473 Q548.86 266.58 543.86 266.58 Q541.776 266.58 539.508 266.163 Q537.263 265.77 534.763 264.96 L534.763 260.561 Q537.124 261.788 539.415 262.413 Q541.707 263.015 543.952 263.015 Q546.962 263.015 548.582 261.997 Q550.202 260.955 550.202 259.08 Q550.202 257.344 549.022 256.418 Q547.864 255.492 543.906 254.636 L542.425 254.288 Q538.466 253.455 536.707 251.742 Q534.948 250.006 534.948 246.997 Q534.948 243.339 537.54 241.349 Q540.133 239.358 544.901 239.358 Q547.263 239.358 549.346 239.705 Q551.429 240.052 553.188 240.747 Z" fill="#000000" fill-rule="nonzero" fill-opacity="1" /><path clip-path="url(#clip590)" d="M580.017 240.978 L580.017 244.96 Q578.211 243.964 576.383 243.478 Q574.577 242.969 572.725 242.969 Q568.582 242.969 566.29 245.608 Q563.999 248.224 563.999 252.969 Q563.999 257.714 566.29 260.353 Q568.582 262.969 572.725 262.969 Q574.577 262.969 576.383 262.483 Q578.211 261.973 580.017 260.978 L580.017 264.913 Q578.235 265.747 576.313 266.163 Q574.415 266.58 572.262 266.58 Q566.406 266.58 562.957 262.899 Q559.508 259.219 559.508 252.969 Q559.508 246.626 562.98 242.992 Q566.475 239.358 572.54 239.358 Q574.508 239.358 576.383 239.775 Q578.258 240.168 580.017 240.978 Z" fill="#000000" fill-rule="nonzero" fill-opacity="1" /><path clip-path="url(#clip590)" d="M608.975 250.261 L608.975 265.909 L604.716 265.909 L604.716 250.399 Q604.716 246.719 603.281 244.89 Q601.846 243.062 598.975 243.062 Q595.526 243.062 593.535 245.261 Q591.545 247.46 591.545 251.256 L591.545 265.909 L587.262 265.909 L587.262 229.89 L591.545 229.89 L591.545 244.011 Q593.072 241.673 595.133 240.515 Q597.216 239.358 599.924 239.358 Q604.392 239.358 606.684 242.136 Q608.975 244.89 608.975 250.261 Z" fill="#000000" fill-rule="nonzero" fill-opacity="1" /><path clip-path="url(#clip590)" d="M629.253 252.876 Q624.091 252.876 622.1 254.057 Q620.109 255.237 620.109 258.085 Q620.109 260.353 621.591 261.696 Q623.095 263.015 625.665 263.015 Q629.207 263.015 631.336 260.515 Q633.489 257.992 633.489 253.825 L633.489 252.876 L629.253 252.876 M637.748 251.117 L637.748 265.909 L633.489 265.909 L633.489 261.973 Q632.031 264.335 629.855 265.469 Q627.679 266.58 624.531 266.58 Q620.549 266.58 618.188 264.358 Q615.85 262.112 615.85 258.362 Q615.85 253.987 618.767 251.765 Q621.707 249.543 627.517 249.543 L633.489 249.543 L633.489 249.126 Q633.489 246.187 631.545 244.589 Q629.623 242.969 626.128 242.969 Q623.906 242.969 621.799 243.501 Q619.693 244.034 617.748 245.099 L617.748 241.163 Q620.086 240.261 622.285 239.821 Q624.484 239.358 626.568 239.358 Q632.193 239.358 634.97 242.274 Q637.748 245.191 637.748 251.117 Z" fill="#000000" fill-rule="nonzero" fill-opacity="1" /><path clip-path="url(#clip590)" d="M661.544 243.964 Q660.827 243.548 659.97 243.362 Q659.137 243.154 658.118 243.154 Q654.507 243.154 652.563 245.515 Q650.642 247.853 650.642 252.251 L650.642 265.909 L646.359 265.909 L646.359 239.983 L650.642 239.983 L650.642 244.011 Q651.984 241.649 654.137 240.515 Q656.29 239.358 659.368 239.358 Q659.808 239.358 660.341 239.427 Q660.873 239.474 661.521 239.589 L661.544 243.964 Z" fill="#000000" fill-rule="nonzero" fill-opacity="1" /><path clip-path="url(#clip590)" d="M682.239 252.645 Q682.239 248.015 680.317 245.469 Q678.419 242.923 674.97 242.923 Q671.544 242.923 669.623 245.469 Q667.725 248.015 667.725 252.645 Q667.725 257.251 669.623 259.798 Q671.544 262.344 674.97 262.344 Q678.419 262.344 680.317 259.798 Q682.239 257.251 682.239 252.645 M686.498 262.691 Q686.498 269.311 683.558 272.529 Q680.618 275.77 674.554 275.77 Q672.308 275.77 670.317 275.422 Q668.327 275.098 666.452 274.404 L666.452 270.26 Q668.327 271.279 670.155 271.765 Q671.984 272.251 673.882 272.251 Q678.072 272.251 680.155 270.052 Q682.239 267.876 682.239 263.455 L682.239 261.348 Q680.919 263.64 678.859 264.774 Q676.799 265.909 673.929 265.909 Q669.16 265.909 666.243 262.274 Q663.327 258.64 663.327 252.645 Q663.327 246.626 666.243 242.992 Q669.16 239.358 673.929 239.358 Q676.799 239.358 678.859 240.492 Q680.919 241.626 682.239 243.918 L682.239 239.983 L686.498 239.983 L686.498 262.691 Z" fill="#000000" fill-rule="nonzero" fill-opacity="1" /><path clip-path="url(#clip590)" d="M717.447 251.881 L717.447 253.964 L697.864 253.964 Q698.141 258.362 700.502 260.677 Q702.887 262.969 707.123 262.969 Q709.576 262.969 711.868 262.367 Q714.183 261.765 716.451 260.561 L716.451 264.589 Q714.16 265.561 711.752 266.071 Q709.345 266.58 706.868 266.58 Q700.665 266.58 697.03 262.969 Q693.419 259.358 693.419 253.2 Q693.419 246.835 696.845 243.108 Q700.294 239.358 706.127 239.358 Q711.359 239.358 714.391 242.737 Q717.447 246.094 717.447 251.881 M713.188 250.631 Q713.141 247.136 711.22 245.052 Q709.322 242.969 706.174 242.969 Q702.609 242.969 700.456 244.983 Q698.327 246.997 698.002 250.654 L713.188 250.631 Z" fill="#000000" fill-rule="nonzero" fill-opacity="1" /><path clip-path="url(#clip590)" d="M326.628 321.205 L467.986 321.205 L467.986 279.733 L326.628 279.733 L326.628 321.205  Z" fill="#c271d2" fill-rule="evenodd" fill-opacity="1"/>
<polyline clip-path="url(#clip590)" style="stroke:#c271d2; stroke-linecap:round; stroke-linejoin:round; stroke-width:4; stroke-opacity:1; fill:none" points="326.628,279.733 467.986,279.733 "/>
<path clip-path="url(#clip590)" d="M512.054 292.818 L512.054 296.8 Q510.249 295.804 508.42 295.318 Q506.615 294.809 504.763 294.809 Q500.619 294.809 498.328 297.448 Q496.036 300.064 496.036 304.809 Q496.036 309.554 498.328 312.193 Q500.619 314.809 504.763 314.809 Q506.615 314.809 508.42 314.323 Q510.249 313.813 512.054 312.818 L512.054 316.753 Q510.272 317.587 508.351 318.003 Q506.453 318.42 504.3 318.42 Q498.443 318.42 494.994 314.739 Q491.545 311.059 491.545 304.809 Q491.545 298.466 495.017 294.832 Q498.513 291.198 504.578 291.198 Q506.545 291.198 508.42 291.615 Q510.295 292.008 512.054 292.818 Z" fill="#000000" fill-rule="nonzero" fill-opacity="1" /><path clip-path="url(#clip590)" d="M541.013 302.101 L541.013 317.749 L536.753 317.749 L536.753 302.239 Q536.753 298.559 535.318 296.73 Q533.883 294.902 531.013 294.902 Q527.564 294.902 525.573 297.101 Q523.582 299.3 523.582 303.096 L523.582 317.749 L519.3 317.749 L519.3 281.73 L523.582 281.73 L523.582 295.851 Q525.11 293.513 527.17 292.355 Q529.253 291.198 531.962 291.198 Q536.429 291.198 538.721 293.976 Q541.013 296.73 541.013 302.101 Z" fill="#000000" fill-rule="nonzero" fill-opacity="1" /><path clip-path="url(#clip590)" d="M561.29 304.716 Q556.128 304.716 554.138 305.897 Q552.147 307.077 552.147 309.925 Q552.147 312.193 553.628 313.536 Q555.133 314.855 557.702 314.855 Q561.244 314.855 563.374 312.355 Q565.526 309.832 565.526 305.665 L565.526 304.716 L561.29 304.716 M569.786 302.957 L569.786 317.749 L565.526 317.749 L565.526 313.813 Q564.068 316.175 561.892 317.309 Q559.716 318.42 556.568 318.42 Q552.587 318.42 550.226 316.198 Q547.888 313.952 547.888 310.202 Q547.888 305.827 550.804 303.605 Q553.744 301.383 559.554 301.383 L565.526 301.383 L565.526 300.966 Q565.526 298.027 563.582 296.429 Q561.661 294.809 558.165 294.809 Q555.943 294.809 553.837 295.341 Q551.73 295.874 549.786 296.939 L549.786 293.003 Q552.124 292.101 554.323 291.661 Q556.522 291.198 558.605 291.198 Q564.23 291.198 567.008 294.114 Q569.786 297.031 569.786 302.957 Z" fill="#000000" fill-rule="nonzero" fill-opacity="1" /><path clip-path="url(#clip590)" d="M593.582 295.804 Q592.864 295.388 592.008 295.202 Q591.174 294.994 590.156 294.994 Q586.545 294.994 584.6 297.355 Q582.679 299.693 582.679 304.091 L582.679 317.749 L578.397 317.749 L578.397 291.823 L582.679 291.823 L582.679 295.851 Q584.022 293.489 586.174 292.355 Q588.327 291.198 591.406 291.198 Q591.846 291.198 592.378 291.267 Q592.91 291.314 593.559 291.429 L593.582 295.804 Z" fill="#000000" fill-rule="nonzero" fill-opacity="1" /><path clip-path="url(#clip590)" d="M614.276 304.485 Q614.276 299.855 612.355 297.309 Q610.457 294.763 607.008 294.763 Q603.582 294.763 601.66 297.309 Q599.762 299.855 599.762 304.485 Q599.762 309.091 601.66 311.638 Q603.582 314.184 607.008 314.184 Q610.457 314.184 612.355 311.638 Q614.276 309.091 614.276 304.485 M618.535 314.531 Q618.535 321.151 615.596 324.369 Q612.656 327.61 606.591 327.61 Q604.346 327.61 602.355 327.262 Q600.364 326.938 598.489 326.244 L598.489 322.1 Q600.364 323.119 602.193 323.605 Q604.022 324.091 605.92 324.091 Q610.109 324.091 612.193 321.892 Q614.276 319.716 614.276 315.295 L614.276 313.188 Q612.957 315.48 610.896 316.614 Q608.836 317.749 605.966 317.749 Q601.197 317.749 598.281 314.114 Q595.364 310.48 595.364 304.485 Q595.364 298.466 598.281 294.832 Q601.197 291.198 605.966 291.198 Q608.836 291.198 610.896 292.332 Q612.957 293.466 614.276 295.758 L614.276 291.823 L618.535 291.823 L618.535 314.531 Z" fill="#000000" fill-rule="nonzero" fill-opacity="1" /><path clip-path="url(#clip590)" d="M649.484 303.721 L649.484 305.804 L629.901 305.804 Q630.179 310.202 632.54 312.517 Q634.924 314.809 639.16 314.809 Q641.614 314.809 643.906 314.207 Q646.22 313.605 648.489 312.401 L648.489 316.429 Q646.197 317.401 643.79 317.911 Q641.382 318.42 638.906 318.42 Q632.702 318.42 629.068 314.809 Q625.457 311.198 625.457 305.04 Q625.457 298.675 628.882 294.948 Q632.332 291.198 638.165 291.198 Q643.396 291.198 646.429 294.577 Q649.484 297.934 649.484 303.721 M645.225 302.471 Q645.179 298.976 643.257 296.892 Q641.359 294.809 638.211 294.809 Q634.646 294.809 632.494 296.823 Q630.364 298.837 630.04 302.494 L645.225 302.471 Z" fill="#000000" fill-rule="nonzero" fill-opacity="1" /></svg>
