<?xml version="1.0" encoding="utf-8"?>
<svg xmlns="http://www.w3.org/2000/svg" xmlns:xlink="http://www.w3.org/1999/xlink" width="600" height="400" viewBox="0 0 2400 1600">
<defs>
  <clipPath id="clip940">
    <rect x="0" y="0" width="2400" height="1600"/>
  </clipPath>
</defs>
<path clip-path="url(#clip940)" d="M0 1600 L2400 1600 L2400 0 L0 0  Z" fill="#ffffff" fill-rule="evenodd" fill-opacity="1"/>
<defs>
  <clipPath id="clip941">
    <rect x="480" y="0" width="1681" height="1600"/>
  </clipPath>
</defs>
<path clip-path="url(#clip940)" d="M337.247 1423.18 L2352.76 1423.18 L2352.76 47.2441 L337.247 47.2441  Z" fill="#ffffff" fill-rule="evenodd" fill-opacity="1"/>
<defs>
  <clipPath id="clip942">
    <rect x="337" y="47" width="2017" height="1377"/>
  </clipPath>
</defs>
<polyline clip-path="url(#clip942)" style="stroke:#000000; stroke-linecap:round; stroke-linejoin:round; stroke-width:2; stroke-opacity:0.1; fill:none" points="356.894,1423.18 356.894,47.2441 "/>
<polyline clip-path="url(#clip942)" style="stroke:#000000; stroke-linecap:round; stroke-linejoin:round; stroke-width:2; stroke-opacity:0.1; fill:none" points="660.927,1423.18 660.927,47.2441 "/>
<polyline clip-path="url(#clip942)" style="stroke:#000000; stroke-linecap:round; stroke-linejoin:round; stroke-width:2; stroke-opacity:0.1; fill:none" points="964.96,1423.18 964.96,47.2441 "/>
<polyline clip-path="url(#clip942)" style="stroke:#000000; stroke-linecap:round; stroke-linejoin:round; stroke-width:2; stroke-opacity:0.1; fill:none" points="1268.99,1423.18 1268.99,47.2441 "/>
<polyline clip-path="url(#clip942)" style="stroke:#000000; stroke-linecap:round; stroke-linejoin:round; stroke-width:2; stroke-opacity:0.1; fill:none" points="1573.03,1423.18 1573.03,47.2441 "/>
<polyline clip-path="url(#clip942)" style="stroke:#000000; stroke-linecap:round; stroke-linejoin:round; stroke-width:2; stroke-opacity:0.1; fill:none" points="1877.06,1423.18 1877.06,47.2441 "/>
<polyline clip-path="url(#clip942)" style="stroke:#000000; stroke-linecap:round; stroke-linejoin:round; stroke-width:2; stroke-opacity:0.1; fill:none" points="2181.09,1423.18 2181.09,47.2441 "/>
<polyline clip-path="url(#clip940)" style="stroke:#000000; stroke-linecap:round; stroke-linejoin:round; stroke-width:4; stroke-opacity:1; fill:none" points="337.247,1423.18 2352.76,1423.18 "/>
<polyline clip-path="url(#clip940)" style="stroke:#000000; stroke-linecap:round; stroke-linejoin:round; stroke-width:4; stroke-opacity:1; fill:none" points="356.894,1423.18 356.894,1404.28 "/>
<polyline clip-path="url(#clip940)" style="stroke:#000000; stroke-linecap:round; stroke-linejoin:round; stroke-width:4; stroke-opacity:1; fill:none" points="660.927,1423.18 660.927,1404.28 "/>
<polyline clip-path="url(#clip940)" style="stroke:#000000; stroke-linecap:round; stroke-linejoin:round; stroke-width:4; stroke-opacity:1; fill:none" points="964.96,1423.18 964.96,1404.28 "/>
<polyline clip-path="url(#clip940)" style="stroke:#000000; stroke-linecap:round; stroke-linejoin:round; stroke-width:4; stroke-opacity:1; fill:none" points="1268.99,1423.18 1268.99,1404.28 "/>
<polyline clip-path="url(#clip940)" style="stroke:#000000; stroke-linecap:round; stroke-linejoin:round; stroke-width:4; stroke-opacity:1; fill:none" points="1573.03,1423.18 1573.03,1404.28 "/>
<polyline clip-path="url(#clip940)" style="stroke:#000000; stroke-linecap:round; stroke-linejoin:round; stroke-width:4; stroke-opacity:1; fill:none" points="1877.06,1423.18 1877.06,1404.28 "/>
<polyline clip-path="url(#clip940)" style="stroke:#000000; stroke-linecap:round; stroke-linejoin:round; stroke-width:4; stroke-opacity:1; fill:none" points="2181.09,1423.18 2181.09,1404.28 "/>
<path clip-path="url(#clip940)" d="M356.894 1454.1 Q353.283 1454.1 351.454 1457.66 Q349.648 1461.2 349.648 1468.33 Q349.648 1475.44 351.454 1479.01 Q353.283 1482.55 356.894 1482.55 Q360.528 1482.55 362.333 1479.01 Q364.162 1475.44 364.162 1468.33 Q364.162 1461.2 362.333 1457.66 Q360.528 1454.1 356.894 1454.1 M356.894 1450.39 Q362.704 1450.39 365.759 1455 Q368.838 1459.58 368.838 1468.33 Q368.838 1477.06 365.759 1481.67 Q362.704 1486.25 356.894 1486.25 Q351.083 1486.25 348.005 1481.67 Q344.949 1477.06 344.949 1468.33 Q344.949 1459.58 348.005 1455 Q351.083 1450.39 356.894 1450.39 Z" fill="#000000" fill-rule="nonzero" fill-opacity="1" /><path clip-path="url(#clip940)" d="M655.58 1481.64 L671.899 1481.64 L671.899 1485.58 L649.955 1485.58 L649.955 1481.64 Q652.617 1478.89 657.2 1474.26 Q661.806 1469.61 662.987 1468.27 Q665.232 1465.74 666.112 1464.01 Q667.015 1462.25 667.015 1460.56 Q667.015 1457.8 665.07 1456.07 Q663.149 1454.33 660.047 1454.33 Q657.848 1454.33 655.394 1455.09 Q652.964 1455.86 650.186 1457.41 L650.186 1452.69 Q653.01 1451.55 655.464 1450.97 Q657.918 1450.39 659.955 1450.39 Q665.325 1450.39 668.519 1453.08 Q671.714 1455.77 671.714 1460.26 Q671.714 1462.39 670.904 1464.31 Q670.117 1466.2 668.01 1468.8 Q667.431 1469.47 664.33 1472.69 Q661.228 1475.88 655.58 1481.64 Z" fill="#000000" fill-rule="nonzero" fill-opacity="1" /><path clip-path="url(#clip940)" d="M967.969 1455.09 L956.164 1473.54 L967.969 1473.54 L967.969 1455.09 M966.742 1451.02 L972.622 1451.02 L972.622 1473.54 L977.553 1473.54 L977.553 1477.43 L972.622 1477.43 L972.622 1485.58 L967.969 1485.58 L967.969 1477.43 L952.367 1477.43 L952.367 1472.92 L966.742 1451.02 Z" fill="#000000" fill-rule="nonzero" fill-opacity="1" /><path clip-path="url(#clip940)" d="M1269.4 1466.44 Q1266.25 1466.44 1264.4 1468.59 Q1262.57 1470.74 1262.57 1474.49 Q1262.57 1478.22 1264.4 1480.39 Q1266.25 1482.55 1269.4 1482.55 Q1272.55 1482.55 1274.38 1480.39 Q1276.23 1478.22 1276.23 1474.49 Q1276.23 1470.74 1274.38 1468.59 Q1272.55 1466.44 1269.4 1466.44 M1278.68 1451.78 L1278.68 1456.04 Q1276.92 1455.21 1275.12 1454.77 Q1273.33 1454.33 1271.57 1454.33 Q1266.94 1454.33 1264.49 1457.45 Q1262.06 1460.58 1261.71 1466.9 Q1263.08 1464.89 1265.14 1463.82 Q1267.2 1462.73 1269.68 1462.73 Q1274.88 1462.73 1277.89 1465.9 Q1280.93 1469.05 1280.93 1474.49 Q1280.93 1479.82 1277.78 1483.03 Q1274.63 1486.25 1269.4 1486.25 Q1263.4 1486.25 1260.23 1481.67 Q1257.06 1477.06 1257.06 1468.33 Q1257.06 1460.14 1260.95 1455.28 Q1264.84 1450.39 1271.39 1450.39 Q1273.15 1450.39 1274.93 1450.74 Q1276.74 1451.09 1278.68 1451.78 Z" fill="#000000" fill-rule="nonzero" fill-opacity="1" /><path clip-path="url(#clip940)" d="M1573.03 1469.17 Q1569.69 1469.17 1567.77 1470.95 Q1565.87 1472.73 1565.87 1475.86 Q1565.87 1478.98 1567.77 1480.77 Q1569.69 1482.55 1573.03 1482.55 Q1576.36 1482.55 1578.28 1480.77 Q1580.2 1478.96 1580.2 1475.86 Q1580.2 1472.73 1578.28 1470.95 Q1576.38 1469.17 1573.03 1469.17 M1568.35 1467.18 Q1565.34 1466.44 1563.65 1464.38 Q1561.98 1462.32 1561.98 1459.35 Q1561.98 1455.21 1564.92 1452.8 Q1567.89 1450.39 1573.03 1450.39 Q1578.19 1450.39 1581.13 1452.8 Q1584.07 1455.21 1584.07 1459.35 Q1584.07 1462.32 1582.38 1464.38 Q1580.71 1466.44 1577.73 1467.18 Q1581.1 1467.96 1582.98 1470.26 Q1584.88 1472.55 1584.88 1475.86 Q1584.88 1480.88 1581.8 1483.57 Q1578.74 1486.25 1573.03 1486.25 Q1567.31 1486.25 1564.23 1483.57 Q1561.17 1480.88 1561.17 1475.86 Q1561.17 1472.55 1563.07 1470.26 Q1564.97 1467.96 1568.35 1467.18 M1566.64 1459.79 Q1566.64 1462.48 1568.3 1463.98 Q1569.99 1465.49 1573.03 1465.49 Q1576.04 1465.49 1577.73 1463.98 Q1579.44 1462.48 1579.44 1459.79 Q1579.44 1457.11 1577.73 1455.6 Q1576.04 1454.1 1573.03 1454.1 Q1569.99 1454.1 1568.3 1455.6 Q1566.64 1457.11 1566.64 1459.79 Z" fill="#000000" fill-rule="nonzero" fill-opacity="1" /><path clip-path="url(#clip940)" d="M1851.75 1481.64 L1859.39 1481.64 L1859.39 1455.28 L1851.08 1456.95 L1851.08 1452.69 L1859.34 1451.02 L1864.02 1451.02 L1864.02 1481.64 L1871.65 1481.64 L1871.65 1485.58 L1851.75 1485.58 L1851.75 1481.64 Z" fill="#000000" fill-rule="nonzero" fill-opacity="1" /><path clip-path="url(#clip940)" d="M1891.1 1454.1 Q1887.49 1454.1 1885.66 1457.66 Q1883.85 1461.2 1883.85 1468.33 Q1883.85 1475.44 1885.66 1479.01 Q1887.49 1482.55 1891.1 1482.55 Q1894.73 1482.55 1896.54 1479.01 Q1898.37 1475.44 1898.37 1468.33 Q1898.37 1461.2 1896.54 1457.66 Q1894.73 1454.1 1891.1 1454.1 M1891.1 1450.39 Q1896.91 1450.39 1899.96 1455 Q1903.04 1459.58 1903.04 1468.33 Q1903.04 1477.06 1899.96 1481.67 Q1896.91 1486.25 1891.1 1486.25 Q1885.29 1486.25 1882.21 1481.67 Q1879.15 1477.06 1879.15 1468.33 Q1879.15 1459.58 1882.21 1455 Q1885.29 1450.39 1891.1 1450.39 Z" fill="#000000" fill-rule="nonzero" fill-opacity="1" /><path clip-path="url(#clip940)" d="M2156.58 1481.64 L2164.22 1481.64 L2164.22 1455.28 L2155.91 1456.95 L2155.91 1452.69 L2164.17 1451.02 L2168.85 1451.02 L2168.85 1481.64 L2176.49 1481.64 L2176.49 1485.58 L2156.58 1485.58 L2156.58 1481.64 Z" fill="#000000" fill-rule="nonzero" fill-opacity="1" /><path clip-path="url(#clip940)" d="M2189.96 1481.64 L2206.28 1481.64 L2206.28 1485.58 L2184.33 1485.58 L2184.33 1481.64 Q2187 1478.89 2191.58 1474.26 Q2196.19 1469.61 2197.37 1468.27 Q2199.61 1465.74 2200.49 1464.01 Q2201.39 1462.25 2201.39 1460.56 Q2201.39 1457.8 2199.45 1456.07 Q2197.53 1454.33 2194.43 1454.33 Q2192.23 1454.33 2189.77 1455.09 Q2187.34 1455.86 2184.56 1457.41 L2184.56 1452.69 Q2187.39 1451.55 2189.84 1450.97 Q2192.3 1450.39 2194.33 1450.39 Q2199.7 1450.39 2202.9 1453.08 Q2206.09 1455.77 2206.09 1460.26 Q2206.09 1462.39 2205.28 1464.31 Q2204.5 1466.2 2202.39 1468.8 Q2201.81 1469.47 2198.71 1472.69 Q2195.61 1475.88 2189.96 1481.64 Z" fill="#000000" fill-rule="nonzero" fill-opacity="1" /><path clip-path="url(#clip940)" d="M1248.82 1520.52 L1258.4 1520.52 L1270.52 1552.86 L1282.71 1520.52 L1292.29 1520.52 L1292.29 1568.04 L1286.02 1568.04 L1286.02 1526.32 L1273.77 1558.91 L1267.31 1558.91 L1255.05 1526.32 L1255.05 1568.04 L1248.82 1568.04 L1248.82 1520.52 Z" fill="#000000" fill-rule="nonzero" fill-opacity="1" /><path clip-path="url(#clip940)" d="M1318.62 1536.5 Q1313.9 1536.5 1311.17 1540.19 Q1308.43 1543.85 1308.43 1550.25 Q1308.43 1556.65 1311.14 1560.34 Q1313.87 1564 1318.62 1564 Q1323.29 1564 1326.03 1560.31 Q1328.77 1556.62 1328.77 1550.25 Q1328.77 1543.92 1326.03 1540.23 Q1323.29 1536.5 1318.62 1536.5 M1318.62 1531.54 Q1326.25 1531.54 1330.61 1536.5 Q1334.98 1541.47 1334.98 1550.25 Q1334.98 1559 1330.61 1564 Q1326.25 1568.97 1318.62 1568.97 Q1310.94 1568.97 1306.58 1564 Q1302.26 1559 1302.26 1550.25 Q1302.26 1541.47 1306.58 1536.5 Q1310.94 1531.54 1318.62 1531.54 Z" fill="#000000" fill-rule="nonzero" fill-opacity="1" /><path clip-path="url(#clip940)" d="M1374.32 1546.53 L1374.32 1568.04 L1368.46 1568.04 L1368.46 1546.72 Q1368.46 1541.66 1366.49 1539.14 Q1364.51 1536.63 1360.57 1536.63 Q1355.82 1536.63 1353.09 1539.65 Q1350.35 1542.68 1350.35 1547.9 L1350.35 1568.04 L1344.46 1568.04 L1344.46 1532.4 L1350.35 1532.4 L1350.35 1537.93 Q1352.45 1534.72 1355.28 1533.13 Q1358.15 1531.54 1361.87 1531.54 Q1368.01 1531.54 1371.16 1535.36 Q1374.32 1539.14 1374.32 1546.53 Z" fill="#000000" fill-rule="nonzero" fill-opacity="1" /><path clip-path="url(#clip940)" d="M1391.79 1522.27 L1391.79 1532.4 L1403.85 1532.4 L1403.85 1536.95 L1391.79 1536.95 L1391.79 1556.3 Q1391.79 1560.66 1392.97 1561.9 Q1394.18 1563.14 1397.84 1563.14 L1403.85 1563.14 L1403.85 1568.04 L1397.84 1568.04 Q1391.06 1568.04 1388.48 1565.53 Q1385.9 1562.98 1385.9 1556.3 L1385.9 1536.95 L1381.6 1536.95 L1381.6 1532.4 L1385.9 1532.4 L1385.9 1522.27 L1391.79 1522.27 Z" fill="#000000" fill-rule="nonzero" fill-opacity="1" /><path clip-path="url(#clip940)" d="M1441.19 1546.53 L1441.19 1568.04 L1435.33 1568.04 L1435.33 1546.72 Q1435.33 1541.66 1433.36 1539.14 Q1431.38 1536.63 1427.44 1536.63 Q1422.69 1536.63 1419.96 1539.65 Q1417.22 1542.68 1417.22 1547.9 L1417.22 1568.04 L1411.33 1568.04 L1411.33 1518.52 L1417.22 1518.52 L1417.22 1537.93 Q1419.32 1534.72 1422.15 1533.13 Q1425.02 1531.54 1428.74 1531.54 Q1434.89 1531.54 1438.04 1535.36 Q1441.19 1539.14 1441.19 1546.53 Z" fill="#000000" fill-rule="nonzero" fill-opacity="1" /><polyline clip-path="url(#clip942)" style="stroke:#000000; stroke-linecap:round; stroke-linejoin:round; stroke-width:2; stroke-opacity:0.1; fill:none" points="337.247,1423.18 2352.76,1423.18 "/>
<polyline clip-path="url(#clip942)" style="stroke:#000000; stroke-linecap:round; stroke-linejoin:round; stroke-width:2; stroke-opacity:0.1; fill:none" points="337.247,964.535 2352.76,964.535 "/>
<polyline clip-path="url(#clip942)" style="stroke:#000000; stroke-linecap:round; stroke-linejoin:round; stroke-width:2; stroke-opacity:0.1; fill:none" points="337.247,505.889 2352.76,505.889 "/>
<polyline clip-path="url(#clip942)" style="stroke:#000000; stroke-linecap:round; stroke-linejoin:round; stroke-width:2; stroke-opacity:0.1; fill:none" points="337.247,47.2441 2352.76,47.2441 "/>
<polyline clip-path="url(#clip940)" style="stroke:#000000; stroke-linecap:round; stroke-linejoin:round; stroke-width:4; stroke-opacity:1; fill:none" points="337.247,1423.18 337.247,47.2441 "/>
<polyline clip-path="url(#clip940)" style="stroke:#000000; stroke-linecap:round; stroke-linejoin:round; stroke-width:4; stroke-opacity:1; fill:none" points="337.247,1423.18 356.145,1423.18 "/>
<polyline clip-path="url(#clip940)" style="stroke:#000000; stroke-linecap:round; stroke-linejoin:round; stroke-width:4; stroke-opacity:1; fill:none" points="337.247,964.535 356.145,964.535 "/>
<polyline clip-path="url(#clip940)" style="stroke:#000000; stroke-linecap:round; stroke-linejoin:round; stroke-width:4; stroke-opacity:1; fill:none" points="337.247,505.889 356.145,505.889 "/>
<polyline clip-path="url(#clip940)" style="stroke:#000000; stroke-linecap:round; stroke-linejoin:round; stroke-width:4; stroke-opacity:1; fill:none" points="337.247,47.2441 356.145,47.2441 "/>
<path clip-path="url(#clip940)" d="M289.303 1408.98 Q285.692 1408.98 283.863 1412.54 Q282.057 1416.08 282.057 1423.21 Q282.057 1430.32 283.863 1433.89 Q285.692 1437.43 289.303 1437.43 Q292.937 1437.43 294.742 1433.89 Q296.571 1430.32 296.571 1423.21 Q296.571 1416.08 294.742 1412.54 Q292.937 1408.98 289.303 1408.98 M289.303 1405.27 Q295.113 1405.27 298.168 1409.88 Q301.247 1414.46 301.247 1423.21 Q301.247 1431.94 298.168 1436.55 Q295.113 1441.13 289.303 1441.13 Q283.492 1441.13 280.414 1436.55 Q277.358 1431.94 277.358 1423.21 Q277.358 1414.46 280.414 1409.88 Q283.492 1405.27 289.303 1405.27 Z" fill="#000000" fill-rule="nonzero" fill-opacity="1" /><path clip-path="url(#clip940)" d="M116.668 984.327 L124.306 984.327 L124.306 957.961 L115.996 959.628 L115.996 955.369 L124.26 953.702 L128.936 953.702 L128.936 984.327 L136.575 984.327 L136.575 988.262 L116.668 988.262 L116.668 984.327 Z" fill="#000000" fill-rule="nonzero" fill-opacity="1" /><path clip-path="url(#clip940)" d="M146.019 982.383 L150.903 982.383 L150.903 988.262 L146.019 988.262 L146.019 982.383 Z" fill="#000000" fill-rule="nonzero" fill-opacity="1" /><path clip-path="url(#clip940)" d="M171.089 956.781 Q167.477 956.781 165.649 960.346 Q163.843 963.887 163.843 971.017 Q163.843 978.123 165.649 981.688 Q167.477 985.23 171.089 985.23 Q174.723 985.23 176.528 981.688 Q178.357 978.123 178.357 971.017 Q178.357 963.887 176.528 960.346 Q174.723 956.781 171.089 956.781 M171.089 953.077 Q176.899 953.077 179.954 957.684 Q183.033 962.267 183.033 971.017 Q183.033 979.744 179.954 984.35 Q176.899 988.933 171.089 988.933 Q165.278 988.933 162.2 984.35 Q159.144 979.744 159.144 971.017 Q159.144 962.267 162.2 957.684 Q165.278 953.077 171.089 953.077 Z" fill="#000000" fill-rule="nonzero" fill-opacity="1" /><path clip-path="url(#clip940)" d="M219.422 962.799 L208.843 973.424 L219.422 984.003 L216.667 986.804 L206.042 976.179 L195.417 986.804 L192.686 984.003 L203.241 973.424 L192.686 962.799 L195.417 959.998 L206.042 970.623 L216.667 959.998 L219.422 962.799 Z" fill="#000000" fill-rule="nonzero" fill-opacity="1" /><path clip-path="url(#clip940)" d="M231.783 984.327 L239.422 984.327 L239.422 957.961 L231.111 959.628 L231.111 955.369 L239.375 953.702 L244.051 953.702 L244.051 984.327 L251.69 984.327 L251.69 988.262 L231.783 988.262 L231.783 984.327 Z" fill="#000000" fill-rule="nonzero" fill-opacity="1" /><path clip-path="url(#clip940)" d="M271.134 956.781 Q267.523 956.781 265.695 960.346 Q263.889 963.887 263.889 971.017 Q263.889 978.123 265.695 981.688 Q267.523 985.23 271.134 985.23 Q274.769 985.23 276.574 981.688 Q278.403 978.123 278.403 971.017 Q278.403 963.887 276.574 960.346 Q274.769 956.781 271.134 956.781 M271.134 953.077 Q276.944 953.077 280 957.684 Q283.079 962.267 283.079 971.017 Q283.079 979.744 280 984.35 Q276.944 988.933 271.134 988.933 Q265.324 988.933 262.245 984.35 Q259.19 979.744 259.19 971.017 Q259.19 962.267 262.245 957.684 Q265.324 953.077 271.134 953.077 Z" fill="#000000" fill-rule="nonzero" fill-opacity="1" /><path clip-path="url(#clip940)" d="M284.264 932.772 L299.178 932.772 L299.178 935.969 L287.743 935.969 L287.743 942.853 Q288.571 942.571 289.398 942.439 Q290.226 942.289 291.053 942.289 Q295.755 942.289 298.501 944.865 Q301.247 947.442 301.247 951.843 Q301.247 956.376 298.426 958.896 Q295.605 961.397 290.47 961.397 Q288.702 961.397 286.859 961.096 Q285.035 960.795 283.079 960.194 L283.079 956.376 Q284.771 957.297 286.577 957.749 Q288.382 958.2 290.395 958.2 Q293.649 958.2 295.548 956.488 Q297.448 954.777 297.448 951.843 Q297.448 948.909 295.548 947.197 Q293.649 945.486 290.395 945.486 Q288.871 945.486 287.348 945.824 Q285.843 946.163 284.264 946.878 L284.264 932.772 Z" fill="#000000" fill-rule="nonzero" fill-opacity="1" /><path clip-path="url(#clip940)" d="M119.885 525.682 L136.204 525.682 L136.204 529.617 L114.26 529.617 L114.26 525.682 Q116.922 522.927 121.505 518.298 Q126.112 513.645 127.292 512.302 Q129.538 509.779 130.417 508.043 Q131.32 506.284 131.32 504.594 Q131.32 501.839 129.376 500.103 Q127.455 498.367 124.353 498.367 Q122.154 498.367 119.7 499.131 Q117.269 499.895 114.492 501.446 L114.492 496.724 Q117.316 495.589 119.769 495.011 Q122.223 494.432 124.26 494.432 Q129.63 494.432 132.825 497.117 Q136.019 499.802 136.019 504.293 Q136.019 506.423 135.209 508.344 Q134.422 510.242 132.316 512.835 Q131.737 513.506 128.635 516.723 Q125.533 519.918 119.885 525.682 Z" fill="#000000" fill-rule="nonzero" fill-opacity="1" /><path clip-path="url(#clip940)" d="M146.019 523.737 L150.903 523.737 L150.903 529.617 L146.019 529.617 L146.019 523.737 Z" fill="#000000" fill-rule="nonzero" fill-opacity="1" /><path clip-path="url(#clip940)" d="M171.089 498.136 Q167.477 498.136 165.649 501.7 Q163.843 505.242 163.843 512.372 Q163.843 519.478 165.649 523.043 Q167.477 526.585 171.089 526.585 Q174.723 526.585 176.528 523.043 Q178.357 519.478 178.357 512.372 Q178.357 505.242 176.528 501.7 Q174.723 498.136 171.089 498.136 M171.089 494.432 Q176.899 494.432 179.954 499.038 Q183.033 503.622 183.033 512.372 Q183.033 521.098 179.954 525.705 Q176.899 530.288 171.089 530.288 Q165.278 530.288 162.2 525.705 Q159.144 521.098 159.144 512.372 Q159.144 503.622 162.2 499.038 Q165.278 494.432 171.089 494.432 Z" fill="#000000" fill-rule="nonzero" fill-opacity="1" /><path clip-path="url(#clip940)" d="M219.422 504.154 L208.843 514.779 L219.422 525.358 L216.667 528.159 L206.042 517.534 L195.417 528.159 L192.686 525.358 L203.241 514.779 L192.686 504.154 L195.417 501.353 L206.042 511.978 L216.667 501.353 L219.422 504.154 Z" fill="#000000" fill-rule="nonzero" fill-opacity="1" /><path clip-path="url(#clip940)" d="M231.783 525.682 L239.422 525.682 L239.422 499.316 L231.111 500.983 L231.111 496.724 L239.375 495.057 L244.051 495.057 L244.051 525.682 L251.69 525.682 L251.69 529.617 L231.783 529.617 L231.783 525.682 Z" fill="#000000" fill-rule="nonzero" fill-opacity="1" /><path clip-path="url(#clip940)" d="M271.134 498.136 Q267.523 498.136 265.695 501.7 Q263.889 505.242 263.889 512.372 Q263.889 519.478 265.695 523.043 Q267.523 526.585 271.134 526.585 Q274.769 526.585 276.574 523.043 Q278.403 519.478 278.403 512.372 Q278.403 505.242 276.574 501.7 Q274.769 498.136 271.134 498.136 M271.134 494.432 Q276.944 494.432 280 499.038 Q283.079 503.622 283.079 512.372 Q283.079 521.098 280 525.705 Q276.944 530.288 271.134 530.288 Q265.324 530.288 262.245 525.705 Q259.19 521.098 259.19 512.372 Q259.19 503.622 262.245 499.038 Q265.324 494.432 271.134 494.432 Z" fill="#000000" fill-rule="nonzero" fill-opacity="1" /><path clip-path="url(#clip940)" d="M284.264 474.127 L299.178 474.127 L299.178 477.324 L287.743 477.324 L287.743 484.208 Q288.571 483.925 289.398 483.794 Q290.226 483.643 291.053 483.643 Q295.755 483.643 298.501 486.22 Q301.247 488.797 301.247 493.198 Q301.247 497.73 298.426 500.251 Q295.605 502.752 290.47 502.752 Q288.702 502.752 286.859 502.451 Q285.035 502.15 283.079 501.548 L283.079 497.73 Q284.771 498.652 286.577 499.103 Q288.382 499.555 290.395 499.555 Q293.649 499.555 295.548 497.843 Q297.448 496.132 297.448 493.198 Q297.448 490.264 295.548 488.552 Q293.649 486.841 290.395 486.841 Q288.871 486.841 287.348 487.179 Q285.843 487.518 284.264 488.232 L284.264 474.127 Z" fill="#000000" fill-rule="nonzero" fill-opacity="1" /><path clip-path="url(#clip940)" d="M130.024 52.3375 Q133.38 53.0551 135.255 55.3236 Q137.154 57.5921 137.154 60.9255 Q137.154 66.0412 133.635 68.8421 Q130.117 71.643 123.635 71.643 Q121.459 71.643 119.144 71.2032 Q116.853 70.7865 114.399 69.93 L114.399 65.4162 Q116.343 66.5504 118.658 67.1291 Q120.973 67.7078 123.496 67.7078 Q127.894 67.7078 130.186 65.9717 Q132.501 64.2356 132.501 60.9255 Q132.501 57.8699 130.348 56.157 Q128.218 54.4209 124.399 54.4209 L120.371 54.4209 L120.371 50.5783 L124.584 50.5783 Q128.033 50.5783 129.862 49.2126 Q131.691 47.8237 131.691 45.2311 Q131.691 42.5691 129.792 41.157 Q127.917 39.7219 124.399 39.7219 Q122.478 39.7219 120.279 40.1385 Q118.08 40.5552 115.441 41.4348 L115.441 37.2682 Q118.103 36.5274 120.418 36.1571 Q122.755 35.7867 124.816 35.7867 Q130.14 35.7867 133.242 38.2172 Q136.343 40.6246 136.343 44.745 Q136.343 47.6153 134.7 49.6061 Q133.056 51.5737 130.024 52.3375 Z" fill="#000000" fill-rule="nonzero" fill-opacity="1" /><path clip-path="url(#clip940)" d="M146.019 65.0921 L150.903 65.0921 L150.903 70.9717 L146.019 70.9717 L146.019 65.0921 Z" fill="#000000" fill-rule="nonzero" fill-opacity="1" /><path clip-path="url(#clip940)" d="M171.089 39.4904 Q167.477 39.4904 165.649 43.0552 Q163.843 46.5968 163.843 53.7264 Q163.843 60.8329 165.649 64.3977 Q167.477 67.9393 171.089 67.9393 Q174.723 67.9393 176.528 64.3977 Q178.357 60.8329 178.357 53.7264 Q178.357 46.5968 176.528 43.0552 Q174.723 39.4904 171.089 39.4904 M171.089 35.7867 Q176.899 35.7867 179.954 40.3932 Q183.033 44.9765 183.033 53.7264 Q183.033 62.4532 179.954 67.0597 Q176.899 71.643 171.089 71.643 Q165.278 71.643 162.2 67.0597 Q159.144 62.4532 159.144 53.7264 Q159.144 44.9765 162.2 40.3932 Q165.278 35.7867 171.089 35.7867 Z" fill="#000000" fill-rule="nonzero" fill-opacity="1" /><path clip-path="url(#clip940)" d="M219.422 45.5089 L208.843 56.1338 L219.422 66.7125 L216.667 69.5134 L206.042 58.8884 L195.417 69.5134 L192.686 66.7125 L203.241 56.1338 L192.686 45.5089 L195.417 42.708 L206.042 53.3329 L216.667 42.708 L219.422 45.5089 Z" fill="#000000" fill-rule="nonzero" fill-opacity="1" /><path clip-path="url(#clip940)" d="M231.783 67.0365 L239.422 67.0365 L239.422 40.6709 L231.111 42.3376 L231.111 38.0784 L239.375 36.4117 L244.051 36.4117 L244.051 67.0365 L251.69 67.0365 L251.69 70.9717 L231.783 70.9717 L231.783 67.0365 Z" fill="#000000" fill-rule="nonzero" fill-opacity="1" /><path clip-path="url(#clip940)" d="M271.134 39.4904 Q267.523 39.4904 265.695 43.0552 Q263.889 46.5968 263.889 53.7264 Q263.889 60.8329 265.695 64.3977 Q267.523 67.9393 271.134 67.9393 Q274.769 67.9393 276.574 64.3977 Q278.403 60.8329 278.403 53.7264 Q278.403 46.5968 276.574 43.0552 Q274.769 39.4904 271.134 39.4904 M271.134 35.7867 Q276.944 35.7867 280 40.3932 Q283.079 44.9765 283.079 53.7264 Q283.079 62.4532 280 67.0597 Q276.944 71.643 271.134 71.643 Q265.324 71.643 262.245 67.0597 Q259.19 62.4532 259.19 53.7264 Q259.19 44.9765 262.245 40.3932 Q265.324 35.7867 271.134 35.7867 Z" fill="#000000" fill-rule="nonzero" fill-opacity="1" /><path clip-path="url(#clip940)" d="M284.264 15.4813 L299.178 15.4813 L299.178 18.6786 L287.743 18.6786 L287.743 25.5623 Q288.571 25.2801 289.398 25.1485 Q290.226 24.998 291.053 24.998 Q295.755 24.998 298.501 27.5747 Q301.247 30.1514 301.247 34.5524 Q301.247 39.085 298.426 41.6053 Q295.605 44.1067 290.47 44.1067 Q288.702 44.1067 286.859 43.8058 Q285.035 43.5049 283.079 42.903 L283.079 39.085 Q284.771 40.0066 286.577 40.458 Q288.382 40.9094 290.395 40.9094 Q293.649 40.9094 295.548 39.1979 Q297.448 37.4864 297.448 34.5524 Q297.448 31.6184 295.548 29.9069 Q293.649 28.1953 290.395 28.1953 Q288.871 28.1953 287.348 28.5339 Q285.843 28.8724 284.264 29.5871 L284.264 15.4813 Z" fill="#000000" fill-rule="nonzero" fill-opacity="1" /><path clip-path="url(#clip940)" d="M21.7677 896.217 L39.6235 896.217 L39.6235 888.132 Q39.6235 883.644 37.3 881.194 Q34.9765 878.743 30.6797 878.743 Q26.4147 878.743 24.0912 881.194 Q21.7677 883.644 21.7677 888.132 L21.7677 896.217 M16.4842 902.646 L16.4842 888.132 Q16.4842 880.143 20.1126 876.069 Q23.7092 871.963 30.6797 871.963 Q37.7138 871.963 41.3104 876.069 Q44.907 880.143 44.907 888.132 L44.907 896.217 L64.0042 896.217 L64.0042 902.646 L16.4842 902.646 Z" fill="#000000" fill-rule="nonzero" fill-opacity="1" /><path clip-path="url(#clip940)" d="M33.8307 844.081 Q33.2578 845.068 33.0032 846.246 Q32.7167 847.392 32.7167 848.792 Q32.7167 853.757 35.9632 856.431 Q39.1779 859.073 45.2253 859.073 L64.0042 859.073 L64.0042 864.961 L28.3562 864.961 L28.3562 859.073 L33.8944 859.073 Q30.6479 857.227 29.0883 854.267 Q27.4968 851.307 27.4968 847.073 Q27.4968 846.469 27.5923 845.737 Q27.656 845.004 27.8151 844.113 L33.8307 844.081 Z" fill="#000000" fill-rule="nonzero" fill-opacity="1" /><path clip-path="url(#clip940)" d="M32.4621 825.557 Q32.4621 830.268 36.1542 833.005 Q39.8145 835.742 46.212 835.742 Q52.6095 835.742 56.3017 833.037 Q59.9619 830.3 59.9619 825.557 Q59.9619 820.878 56.2698 818.141 Q52.5777 815.404 46.212 815.404 Q39.8781 815.404 36.186 818.141 Q32.4621 820.878 32.4621 825.557 M27.4968 825.557 Q27.4968 817.918 32.4621 813.558 Q37.4273 809.197 46.212 809.197 Q54.9649 809.197 59.9619 813.558 Q64.9272 817.918 64.9272 825.557 Q64.9272 833.228 59.9619 837.588 Q54.9649 841.917 46.212 841.917 Q37.4273 841.917 32.4621 837.588 Q27.4968 833.228 27.4968 825.557 Z" fill="#000000" fill-rule="nonzero" fill-opacity="1" /><path clip-path="url(#clip940)" d="M33.7671 776.032 L14.479 776.032 L14.479 770.176 L64.0042 770.176 L64.0042 776.032 L58.657 776.032 Q61.8398 777.878 63.3994 780.711 Q64.9272 783.512 64.9272 787.459 Q64.9272 793.92 59.771 797.994 Q54.6147 802.036 46.212 802.036 Q37.8093 802.036 32.6531 797.994 Q27.4968 793.92 27.4968 787.459 Q27.4968 783.512 29.0564 780.711 Q30.5842 777.878 33.7671 776.032 M46.212 795.989 Q52.6732 795.989 56.3653 793.347 Q60.0256 790.673 60.0256 786.026 Q60.0256 781.379 56.3653 778.706 Q52.6732 776.032 46.212 776.032 Q39.7508 776.032 36.0905 778.706 Q32.3984 781.379 32.3984 786.026 Q32.3984 790.673 36.0905 793.347 Q39.7508 795.989 46.212 795.989 Z" fill="#000000" fill-rule="nonzero" fill-opacity="1" /><path clip-path="url(#clip940)" d="M49.9359 758.717 L28.3562 758.717 L28.3562 752.861 L49.7131 752.861 Q54.7739 752.861 57.3202 750.888 Q59.8346 748.914 59.8346 744.967 Q59.8346 740.225 56.8109 737.488 Q53.7872 734.719 48.5673 734.719 L28.3562 734.719 L28.3562 728.862 L64.0042 728.862 L64.0042 734.719 L58.5296 734.719 Q61.7762 736.851 63.3676 739.684 Q64.9272 742.485 64.9272 746.209 Q64.9272 752.352 61.1078 755.534 Q57.2883 758.717 49.9359 758.717 M27.4968 743.981 L27.4968 743.981 Z" fill="#000000" fill-rule="nonzero" fill-opacity="1" /><path clip-path="url(#clip940)" d="M29.7248 691.145 L35.1993 691.145 Q33.8307 693.628 33.1623 696.142 Q32.4621 698.625 32.4621 701.171 Q32.4621 706.869 36.0905 710.02 Q39.6872 713.171 46.212 713.171 Q52.7369 713.171 56.3653 710.02 Q59.9619 706.869 59.9619 701.171 Q59.9619 698.625 59.2935 696.142 Q58.5933 693.628 57.2247 691.145 L62.6355 691.145 Q63.7814 693.596 64.3543 696.238 Q64.9272 698.848 64.9272 701.808 Q64.9272 709.861 59.8664 714.603 Q54.8057 719.345 46.212 719.345 Q37.491 719.345 32.4939 714.571 Q27.4968 709.765 27.4968 701.426 Q27.4968 698.721 28.0697 696.142 Q28.6108 693.564 29.7248 691.145 Z" fill="#000000" fill-rule="nonzero" fill-opacity="1" /><path clip-path="url(#clip940)" d="M18.2347 675.167 L28.3562 675.167 L28.3562 663.104 L32.9077 663.104 L32.9077 675.167 L52.2594 675.167 Q56.6199 675.167 57.8613 673.99 Q59.1026 672.78 59.1026 669.12 L59.1026 663.104 L64.0042 663.104 L64.0042 669.12 Q64.0042 675.899 61.4897 678.478 Q58.9434 681.056 52.2594 681.056 L32.9077 681.056 L32.9077 685.353 L28.3562 685.353 L28.3562 681.056 L18.2347 681.056 L18.2347 675.167 Z" fill="#000000" fill-rule="nonzero" fill-opacity="1" /><path clip-path="url(#clip940)" d="M28.3562 655.402 L28.3562 649.545 L64.0042 649.545 L64.0042 655.402 L28.3562 655.402 M14.479 655.402 L14.479 649.545 L21.895 649.545 L21.895 655.402 L14.479 655.402 Z" fill="#000000" fill-rule="nonzero" fill-opacity="1" /><path clip-path="url(#clip940)" d="M32.4621 623.478 Q32.4621 628.189 36.1542 630.926 Q39.8145 633.663 46.212 633.663 Q52.6095 633.663 56.3017 630.958 Q59.9619 628.22 59.9619 623.478 Q59.9619 618.799 56.2698 616.062 Q52.5777 613.325 46.212 613.325 Q39.8781 613.325 36.186 616.062 Q32.4621 618.799 32.4621 623.478 M27.4968 623.478 Q27.4968 615.839 32.4621 611.479 Q37.4273 607.118 46.212 607.118 Q54.9649 607.118 59.9619 611.479 Q64.9272 615.839 64.9272 623.478 Q64.9272 631.149 59.9619 635.509 Q54.9649 639.838 46.212 639.838 Q37.4273 639.838 32.4621 635.509 Q27.4968 631.149 27.4968 623.478 Z" fill="#000000" fill-rule="nonzero" fill-opacity="1" /><path clip-path="url(#clip940)" d="M42.4881 567.778 L64.0042 567.778 L64.0042 573.634 L42.679 573.634 Q37.6183 573.634 35.1038 575.608 Q32.5894 577.581 32.5894 581.528 Q32.5894 586.27 35.6131 589.008 Q38.6368 591.745 43.8567 591.745 L64.0042 591.745 L64.0042 597.633 L28.3562 597.633 L28.3562 591.745 L33.8944 591.745 Q30.6797 589.644 29.0883 586.811 Q27.4968 583.947 27.4968 580.223 Q27.4968 574.08 31.3163 570.929 Q35.1038 567.778 42.4881 567.778 Z" fill="#000000" fill-rule="nonzero" fill-opacity="1" /><path clip-path="url(#clip942)" d="M448.104 597.618 L448.104 735.212 L569.717 735.212 L569.717 597.618 L448.104 597.618 L448.104 597.618  Z" fill="#20326c" fill-rule="evenodd" fill-opacity="1"/>
<polyline clip-path="url(#clip942)" style="stroke:#000000; stroke-linecap:round; stroke-linejoin:round; stroke-width:4; stroke-opacity:1; fill:none" points="448.104,597.618 448.104,735.212 569.717,735.212 569.717,597.618 448.104,597.618 "/>
<path clip-path="url(#clip942)" d="M600.12 735.212 L600.12 735.212 L721.733 735.212 L721.733 735.212 L600.12 735.212 L600.12 735.212  Z" fill="#20326c" fill-rule="evenodd" fill-opacity="1"/>
<polyline clip-path="url(#clip942)" style="stroke:#000000; stroke-linecap:round; stroke-linejoin:round; stroke-width:4; stroke-opacity:1; fill:none" points="600.12,735.212 600.12,735.212 721.733,735.212 600.12,735.212 "/>
<path clip-path="url(#clip942)" d="M752.137 528.822 L752.137 597.618 L873.75 597.618 L873.75 528.822 L752.137 528.822 L752.137 528.822  Z" fill="#20326c" fill-rule="evenodd" fill-opacity="1"/>
<polyline clip-path="url(#clip942)" style="stroke:#000000; stroke-linecap:round; stroke-linejoin:round; stroke-width:4; stroke-opacity:1; fill:none" points="752.137,528.822 752.137,597.618 873.75,597.618 873.75,528.822 752.137,528.822 "/>
<path clip-path="url(#clip942)" d="M904.153 528.822 L904.153 528.822 L1025.77 528.822 L1025.77 528.822 L904.153 528.822 L904.153 528.822  Z" fill="#20326c" fill-rule="evenodd" fill-opacity="1"/>
<polyline clip-path="url(#clip942)" style="stroke:#000000; stroke-linecap:round; stroke-linejoin:round; stroke-width:4; stroke-opacity:1; fill:none" points="904.153,528.822 904.153,528.822 1025.77,528.822 904.153,528.822 "/>
<path clip-path="url(#clip942)" d="M1056.17 460.025 L1056.17 689.347 L1177.78 689.347 L1177.78 460.025 L1056.17 460.025 L1056.17 460.025  Z" fill="#20326c" fill-rule="evenodd" fill-opacity="1"/>
<polyline clip-path="url(#clip942)" style="stroke:#000000; stroke-linecap:round; stroke-linejoin:round; stroke-width:4; stroke-opacity:1; fill:none" points="1056.17,460.025 1056.17,689.347 1177.78,689.347 1177.78,460.025 1056.17,460.025 "/>
<path clip-path="url(#clip942)" d="M1208.19 528.822 L1208.19 528.822 L1329.8 528.822 L1329.8 528.822 L1208.19 528.822 L1208.19 528.822  Z" fill="#20326c" fill-rule="evenodd" fill-opacity="1"/>
<polyline clip-path="url(#clip942)" style="stroke:#000000; stroke-linecap:round; stroke-linejoin:round; stroke-width:4; stroke-opacity:1; fill:none" points="1208.19,528.822 1208.19,528.822 1329.8,528.822 1208.19,528.822 "/>
<path clip-path="url(#clip942)" d="M1360.2 391.228 L1360.2 437.093 L1481.82 437.093 L1481.82 391.228 L1360.2 391.228 L1360.2 391.228  Z" fill="#20326c" fill-rule="evenodd" fill-opacity="1"/>
<polyline clip-path="url(#clip942)" style="stroke:#000000; stroke-linecap:round; stroke-linejoin:round; stroke-width:4; stroke-opacity:1; fill:none" points="1360.2,391.228 1360.2,437.093 1481.82,437.093 1481.82,391.228 1360.2,391.228 "/>
<path clip-path="url(#clip942)" d="M1512.22 253.634 L1512.22 253.634 L1633.83 253.634 L1633.83 253.634 L1512.22 253.634 L1512.22 253.634  Z" fill="#20326c" fill-rule="evenodd" fill-opacity="1"/>
<polyline clip-path="url(#clip942)" style="stroke:#000000; stroke-linecap:round; stroke-linejoin:round; stroke-width:4; stroke-opacity:1; fill:none" points="1512.22,253.634 1512.22,253.634 1633.83,253.634 1512.22,253.634 "/>
<path clip-path="url(#clip942)" d="M1664.24 47.2441 L1664.24 47.2441 L1785.85 47.2441 L1785.85 47.2441 L1664.24 47.2441 L1664.24 47.2441  Z" fill="#20326c" fill-rule="evenodd" fill-opacity="1"/>
<polyline clip-path="url(#clip942)" style="stroke:#000000; stroke-linecap:round; stroke-linejoin:round; stroke-width:4; stroke-opacity:1; fill:none" points="1664.24,47.2441 1664.24,47.2441 1785.85,47.2441 1664.24,47.2441 "/>
<path clip-path="url(#clip942)" d="M1816.25 116.041 L1816.25 116.041 L1937.87 116.041 L1937.87 116.041 L1816.25 116.041 L1816.25 116.041  Z" fill="#20326c" fill-rule="evenodd" fill-opacity="1"/>
<polyline clip-path="url(#clip942)" style="stroke:#000000; stroke-linecap:round; stroke-linejoin:round; stroke-width:4; stroke-opacity:1; fill:none" points="1816.25,116.041 1816.25,116.041 1937.87,116.041 1816.25,116.041 "/>
<path clip-path="url(#clip942)" d="M1968.27 460.025 L1968.27 505.889 L2089.88 505.889 L2089.88 460.025 L1968.27 460.025 L1968.27 460.025  Z" fill="#20326c" fill-rule="evenodd" fill-opacity="1"/>
<polyline clip-path="url(#clip942)" style="stroke:#000000; stroke-linecap:round; stroke-linejoin:round; stroke-width:4; stroke-opacity:1; fill:none" points="1968.27,460.025 1968.27,505.889 2089.88,505.889 2089.88,460.025 1968.27,460.025 "/>
<path clip-path="url(#clip942)" d="M2120.29 735.212 L2120.29 735.212 L2241.9 735.212 L2241.9 735.212 L2120.29 735.212 L2120.29 735.212  Z" fill="#20326c" fill-rule="evenodd" fill-opacity="1"/>
<polyline clip-path="url(#clip942)" style="stroke:#000000; stroke-linecap:round; stroke-linejoin:round; stroke-width:4; stroke-opacity:1; fill:none" points="2120.29,735.212 2120.29,735.212 2241.9,735.212 2120.29,735.212 "/>
<circle clip-path="url(#clip942)" style="fill:#20326c; stroke:none; fill-opacity:0" cx="508.91" cy="597.618" r="2"/>
<circle clip-path="url(#clip942)" style="fill:#20326c; stroke:none; fill-opacity:0" cx="660.927" cy="735.212" r="2"/>
<circle clip-path="url(#clip942)" style="fill:#20326c; stroke:none; fill-opacity:0" cx="812.943" cy="528.822" r="2"/>
<circle clip-path="url(#clip942)" style="fill:#20326c; stroke:none; fill-opacity:0" cx="964.96" cy="528.822" r="2"/>
<circle clip-path="url(#clip942)" style="fill:#20326c; stroke:none; fill-opacity:0" cx="1116.98" cy="460.025" r="2"/>
<circle clip-path="url(#clip942)" style="fill:#20326c; stroke:none; fill-opacity:0" cx="1268.99" cy="528.822" r="2"/>
<circle clip-path="url(#clip942)" style="fill:#20326c; stroke:none; fill-opacity:0" cx="1421.01" cy="391.228" r="2"/>
<circle clip-path="url(#clip942)" style="fill:#20326c; stroke:none; fill-opacity:0" cx="1573.03" cy="253.634" r="2"/>
<circle clip-path="url(#clip942)" style="fill:#20326c; stroke:none; fill-opacity:0" cx="1725.04" cy="47.2441" r="2"/>
<circle clip-path="url(#clip942)" style="fill:#20326c; stroke:none; fill-opacity:0" cx="1877.06" cy="116.041" r="2"/>
<circle clip-path="url(#clip942)" style="fill:#20326c; stroke:none; fill-opacity:0" cx="2029.08" cy="460.025" r="2"/>
<circle clip-path="url(#clip942)" style="fill:#20326c; stroke:none; fill-opacity:0" cx="2181.09" cy="735.212" r="2"/>
<path clip-path="url(#clip942)" d="M448.104 735.212 L448.104 1193.86 L569.717 1193.86 L569.717 735.212 L448.104 735.212 L448.104 735.212  Z" fill="#4063d8" fill-rule="evenodd" fill-opacity="1"/>
<polyline clip-path="url(#clip942)" style="stroke:#000000; stroke-linecap:round; stroke-linejoin:round; stroke-width:4; stroke-opacity:1; fill:none" points="448.104,735.212 448.104,1193.86 569.717,1193.86 569.717,735.212 448.104,735.212 "/>
<path clip-path="url(#clip942)" d="M600.12 735.212 L600.12 1170.92 L721.733 1170.92 L721.733 735.212 L600.12 735.212 L600.12 735.212  Z" fill="#4063d8" fill-rule="evenodd" fill-opacity="1"/>
<polyline clip-path="url(#clip942)" style="stroke:#000000; stroke-linecap:round; stroke-linejoin:round; stroke-width:4; stroke-opacity:1; fill:none" points="600.12,735.212 600.12,1170.92 721.733,1170.92 721.733,735.212 600.12,735.212 "/>
<path clip-path="url(#clip942)" d="M752.137 597.618 L752.137 1147.99 L873.75 1147.99 L873.75 597.618 L752.137 597.618 L752.137 597.618  Z" fill="#4063d8" fill-rule="evenodd" fill-opacity="1"/>
<polyline clip-path="url(#clip942)" style="stroke:#000000; stroke-linecap:round; stroke-linejoin:round; stroke-width:4; stroke-opacity:1; fill:none" points="752.137,597.618 752.137,1147.99 873.75,1147.99 873.75,597.618 752.137,597.618 "/>
<path clip-path="url(#clip942)" d="M904.153 528.822 L904.153 964.535 L1025.77 964.535 L1025.77 528.822 L904.153 528.822 L904.153 528.822  Z" fill="#4063d8" fill-rule="evenodd" fill-opacity="1"/>
<polyline clip-path="url(#clip942)" style="stroke:#000000; stroke-linecap:round; stroke-linejoin:round; stroke-width:4; stroke-opacity:1; fill:none" points="904.153,528.822 904.153,964.535 1025.77,964.535 1025.77,528.822 904.153,528.822 "/>
<path clip-path="url(#clip942)" d="M1056.17 689.347 L1056.17 1423.18 L1177.78 1423.18 L1177.78 689.347 L1056.17 689.347 L1056.17 689.347  Z" fill="#4063d8" fill-rule="evenodd" fill-opacity="1"/>
<polyline clip-path="url(#clip942)" style="stroke:#000000; stroke-linecap:round; stroke-linejoin:round; stroke-width:4; stroke-opacity:1; fill:none" points="1056.17,689.347 1056.17,1423.18 1177.78,1423.18 1177.78,689.347 1056.17,689.347 "/>
<path clip-path="url(#clip942)" d="M1208.19 528.822 L1208.19 1102.13 L1329.8 1102.13 L1329.8 528.822 L1208.19 528.822 L1208.19 528.822  Z" fill="#4063d8" fill-rule="evenodd" fill-opacity="1"/>
<polyline clip-path="url(#clip942)" style="stroke:#000000; stroke-linecap:round; stroke-linejoin:round; stroke-width:4; stroke-opacity:1; fill:none" points="1208.19,528.822 1208.19,1102.13 1329.8,1102.13 1329.8,528.822 1208.19,528.822 "/>
<path clip-path="url(#clip942)" d="M1360.2 437.093 L1360.2 1147.99 L1481.82 1147.99 L1481.82 437.093 L1360.2 437.093 L1360.2 437.093  Z" fill="#4063d8" fill-rule="evenodd" fill-opacity="1"/>
<polyline clip-path="url(#clip942)" style="stroke:#000000; stroke-linecap:round; stroke-linejoin:round; stroke-width:4; stroke-opacity:1; fill:none" points="1360.2,437.093 1360.2,1147.99 1481.82,1147.99 1481.82,437.093 1360.2,437.093 "/>
<path clip-path="url(#clip942)" d="M1512.22 253.634 L1512.22 964.535 L1633.83 964.535 L1633.83 253.634 L1512.22 253.634 L1512.22 253.634  Z" fill="#4063d8" fill-rule="evenodd" fill-opacity="1"/>
<polyline clip-path="url(#clip942)" style="stroke:#000000; stroke-linecap:round; stroke-linejoin:round; stroke-width:4; stroke-opacity:1; fill:none" points="1512.22,253.634 1512.22,964.535 1633.83,964.535 1633.83,253.634 1512.22,253.634 "/>
<path clip-path="url(#clip942)" d="M1664.24 47.2441 L1664.24 964.535 L1785.85 964.535 L1785.85 47.2441 L1664.24 47.2441 L1664.24 47.2441  Z" fill="#4063d8" fill-rule="evenodd" fill-opacity="1"/>
<polyline clip-path="url(#clip942)" style="stroke:#000000; stroke-linecap:round; stroke-linejoin:round; stroke-width:4; stroke-opacity:1; fill:none" points="1664.24,47.2441 1664.24,964.535 1785.85,964.535 1785.85,47.2441 1664.24,47.2441 "/>
<path clip-path="url(#clip942)" d="M1816.25 116.041 L1816.25 1019.57 L1937.87 1019.57 L1937.87 116.041 L1816.25 116.041 L1816.25 116.041  Z" fill="#4063d8" fill-rule="evenodd" fill-opacity="1"/>
<polyline clip-path="url(#clip942)" style="stroke:#000000; stroke-linecap:round; stroke-linejoin:round; stroke-width:4; stroke-opacity:1; fill:none" points="1816.25,116.041 1816.25,1019.57 1937.87,1019.57 1937.87,116.041 1816.25,116.041 "/>
<path clip-path="url(#clip942)" d="M1968.27 505.889 L1968.27 872.806 L2089.88 872.806 L2089.88 505.889 L1968.27 505.889 L1968.27 505.889  Z" fill="#4063d8" fill-rule="evenodd" fill-opacity="1"/>
<polyline clip-path="url(#clip942)" style="stroke:#000000; stroke-linecap:round; stroke-linejoin:round; stroke-width:4; stroke-opacity:1; fill:none" points="1968.27,505.889 1968.27,872.806 2089.88,872.806 2089.88,505.889 1968.27,505.889 "/>
<path clip-path="url(#clip942)" d="M2120.29 735.212 L2120.29 1423.18 L2241.9 1423.18 L2241.9 735.212 L2120.29 735.212 L2120.29 735.212  Z" fill="#4063d8" fill-rule="evenodd" fill-opacity="1"/>
<polyline clip-path="url(#clip942)" style="stroke:#000000; stroke-linecap:round; stroke-linejoin:round; stroke-width:4; stroke-opacity:1; fill:none" points="2120.29,735.212 2120.29,1423.18 2241.9,1423.18 2241.9,735.212 2120.29,735.212 "/>
<circle clip-path="url(#clip942)" style="fill:#4063d8; stroke:none; fill-opacity:0" cx="508.91" cy="735.212" r="2"/>
<circle clip-path="url(#clip942)" style="fill:#4063d8; stroke:none; fill-opacity:0" cx="660.927" cy="735.212" r="2"/>
<circle clip-path="url(#clip942)" style="fill:#4063d8; stroke:none; fill-opacity:0" cx="812.943" cy="597.618" r="2"/>
<circle clip-path="url(#clip942)" style="fill:#4063d8; stroke:none; fill-opacity:0" cx="964.96" cy="528.822" r="2"/>
<circle clip-path="url(#clip942)" style="fill:#4063d8; stroke:none; fill-opacity:0" cx="1116.98" cy="689.347" r="2"/>
<circle clip-path="url(#clip942)" style="fill:#4063d8; stroke:none; fill-opacity:0" cx="1268.99" cy="528.822" r="2"/>
<circle clip-path="url(#clip942)" style="fill:#4063d8; stroke:none; fill-opacity:0" cx="1421.01" cy="437.093" r="2"/>
<circle clip-path="url(#clip942)" style="fill:#4063d8; stroke:none; fill-opacity:0" cx="1573.03" cy="253.634" r="2"/>
<circle clip-path="url(#clip942)" style="fill:#4063d8; stroke:none; fill-opacity:0" cx="1725.04" cy="47.2441" r="2"/>
<circle clip-path="url(#clip942)" style="fill:#4063d8; stroke:none; fill-opacity:0" cx="1877.06" cy="116.041" r="2"/>
<circle clip-path="url(#clip942)" style="fill:#4063d8; stroke:none; fill-opacity:0" cx="2029.08" cy="505.889" r="2"/>
<circle clip-path="url(#clip942)" style="fill:#4063d8; stroke:none; fill-opacity:0" cx="2181.09" cy="735.212" r="2"/>
<path clip-path="url(#clip942)" d="M448.104 1193.86 L448.104 1423.18 L569.717 1423.18 L569.717 1193.86 L448.104 1193.86 L448.104 1193.86  Z" fill="#a0b1ec" fill-rule="evenodd" fill-opacity="1"/>
<polyline clip-path="url(#clip942)" style="stroke:#000000; stroke-linecap:round; stroke-linejoin:round; stroke-width:4; stroke-opacity:1; fill:none" points="448.104,1193.86 448.104,1423.18 569.717,1423.18 569.717,1193.86 448.104,1193.86 "/>
<path clip-path="url(#clip942)" d="M600.12 1170.92 L600.12 1423.18 L721.733 1423.18 L721.733 1170.92 L600.12 1170.92 L600.12 1170.92  Z" fill="#a0b1ec" fill-rule="evenodd" fill-opacity="1"/>
<polyline clip-path="url(#clip942)" style="stroke:#000000; stroke-linecap:round; stroke-linejoin:round; stroke-width:4; stroke-opacity:1; fill:none" points="600.12,1170.92 600.12,1423.18 721.733,1423.18 721.733,1170.92 600.12,1170.92 "/>
<path clip-path="url(#clip942)" d="M752.137 1147.99 L752.137 1423.18 L873.75 1423.18 L873.75 1147.99 L752.137 1147.99 L752.137 1147.99  Z" fill="#a0b1ec" fill-rule="evenodd" fill-opacity="1"/>
<polyline clip-path="url(#clip942)" style="stroke:#000000; stroke-linecap:round; stroke-linejoin:round; stroke-width:4; stroke-opacity:1; fill:none" points="752.137,1147.99 752.137,1423.18 873.75,1423.18 873.75,1147.99 752.137,1147.99 "/>
<path clip-path="url(#clip942)" d="M904.153 964.535 L904.153 1423.18 L1025.77 1423.18 L1025.77 964.535 L904.153 964.535 L904.153 964.535  Z" fill="#a0b1ec" fill-rule="evenodd" fill-opacity="1"/>
<polyline clip-path="url(#clip942)" style="stroke:#000000; stroke-linecap:round; stroke-linejoin:round; stroke-width:4; stroke-opacity:1; fill:none" points="904.153,964.535 904.153,1423.18 1025.77,1423.18 1025.77,964.535 904.153,964.535 "/>
<path clip-path="url(#clip942)" d="M1056.17 1423.18 L1056.17 1423.18 L1177.78 1423.18 L1177.78 1423.18 L1056.17 1423.18 L1056.17 1423.18  Z" fill="#a0b1ec" fill-rule="evenodd" fill-opacity="1"/>
<polyline clip-path="url(#clip942)" style="stroke:#000000; stroke-linecap:round; stroke-linejoin:round; stroke-width:4; stroke-opacity:1; fill:none" points="1056.17,1423.18 1056.17,1423.18 1177.78,1423.18 1056.17,1423.18 "/>
<path clip-path="url(#clip942)" d="M1208.19 1102.13 L1208.19 1423.18 L1329.8 1423.18 L1329.8 1102.13 L1208.19 1102.13 L1208.19 1102.13  Z" fill="#a0b1ec" fill-rule="evenodd" fill-opacity="1"/>
<polyline clip-path="url(#clip942)" style="stroke:#000000; stroke-linecap:round; stroke-linejoin:round; stroke-width:4; stroke-opacity:1; fill:none" points="1208.19,1102.13 1208.19,1423.18 1329.8,1423.18 1329.8,1102.13 1208.19,1102.13 "/>
<path clip-path="url(#clip942)" d="M1360.2 1147.99 L1360.2 1423.18 L1481.82 1423.18 L1481.82 1147.99 L1360.2 1147.99 L1360.2 1147.99  Z" fill="#a0b1ec" fill-rule="evenodd" fill-opacity="1"/>
<polyline clip-path="url(#clip942)" style="stroke:#000000; stroke-linecap:round; stroke-linejoin:round; stroke-width:4; stroke-opacity:1; fill:none" points="1360.2,1147.99 1360.2,1423.18 1481.82,1423.18 1481.82,1147.99 1360.2,1147.99 "/>
<path clip-path="url(#clip942)" d="M1512.22 964.535 L1512.22 1423.18 L1633.83 1423.18 L1633.83 964.535 L1512.22 964.535 L1512.22 964.535  Z" fill="#a0b1ec" fill-rule="evenodd" fill-opacity="1"/>
<polyline clip-path="url(#clip942)" style="stroke:#000000; stroke-linecap:round; stroke-linejoin:round; stroke-width:4; stroke-opacity:1; fill:none" points="1512.22,964.535 1512.22,1423.18 1633.83,1423.18 1633.83,964.535 1512.22,964.535 "/>
<path clip-path="url(#clip942)" d="M1664.24 964.535 L1664.24 1423.18 L1785.85 1423.18 L1785.85 964.535 L1664.24 964.535 L1664.24 964.535  Z" fill="#a0b1ec" fill-rule="evenodd" fill-opacity="1"/>
<polyline clip-path="url(#clip942)" style="stroke:#000000; stroke-linecap:round; stroke-linejoin:round; stroke-width:4; stroke-opacity:1; fill:none" points="1664.24,964.535 1664.24,1423.18 1785.85,1423.18 1785.85,964.535 1664.24,964.535 "/>
<path clip-path="url(#clip942)" d="M1816.25 1019.57 L1816.25 1423.18 L1937.87 1423.18 L1937.87 1019.57 L1816.25 1019.57 L1816.25 1019.57  Z" fill="#a0b1ec" fill-rule="evenodd" fill-opacity="1"/>
<polyline clip-path="url(#clip942)" style="stroke:#000000; stroke-linecap:round; stroke-linejoin:round; stroke-width:4; stroke-opacity:1; fill:none" points="1816.25,1019.57 1816.25,1423.18 1937.87,1423.18 1937.87,1019.57 1816.25,1019.57 "/>
<path clip-path="url(#clip942)" d="M1968.27 872.806 L1968.27 1423.18 L2089.88 1423.18 L2089.88 872.806 L1968.27 872.806 L1968.27 872.806  Z" fill="#a0b1ec" fill-rule="evenodd" fill-opacity="1"/>
<polyline clip-path="url(#clip942)" style="stroke:#000000; stroke-linecap:round; stroke-linejoin:round; stroke-width:4; stroke-opacity:1; fill:none" points="1968.27,872.806 1968.27,1423.18 2089.88,1423.18 2089.88,872.806 1968.27,872.806 "/>
<path clip-path="url(#clip942)" d="M2120.29 1423.18 L2120.29 1423.18 L2241.9 1423.18 L2241.9 1423.18 L2120.29 1423.18 L2120.29 1423.18  Z" fill="#a0b1ec" fill-rule="evenodd" fill-opacity="1"/>
<polyline clip-path="url(#clip942)" style="stroke:#000000; stroke-linecap:round; stroke-linejoin:round; stroke-width:4; stroke-opacity:1; fill:none" points="2120.29,1423.18 2120.29,1423.18 2241.9,1423.18 2120.29,1423.18 "/>
<circle clip-path="url(#clip942)" style="fill:#a0b1ec; stroke:none; fill-opacity:0" cx="508.91" cy="1193.86" r="2"/>
<circle clip-path="url(#clip942)" style="fill:#a0b1ec; stroke:none; fill-opacity:0" cx="660.927" cy="1170.92" r="2"/>
<circle clip-path="url(#clip942)" style="fill:#a0b1ec; stroke:none; fill-opacity:0" cx="812.943" cy="1147.99" r="2"/>
<circle clip-path="url(#clip942)" style="fill:#a0b1ec; stroke:none; fill-opacity:0" cx="964.96" cy="964.535" r="2"/>
<circle clip-path="url(#clip942)" style="fill:#a0b1ec; stroke:none; fill-opacity:0" cx="1116.98" cy="1423.18" r="2"/>
<circle clip-path="url(#clip942)" style="fill:#a0b1ec; stroke:none; fill-opacity:0" cx="1268.99" cy="1102.13" r="2"/>
<circle clip-path="url(#clip942)" style="fill:#a0b1ec; stroke:none; fill-opacity:0" cx="1421.01" cy="1147.99" r="2"/>
<circle clip-path="url(#clip942)" style="fill:#a0b1ec; stroke:none; fill-opacity:0" cx="1573.03" cy="964.535" r="2"/>
<circle clip-path="url(#clip942)" style="fill:#a0b1ec; stroke:none; fill-opacity:0" cx="1725.04" cy="964.535" r="2"/>
<circle clip-path="url(#clip942)" style="fill:#a0b1ec; stroke:none; fill-opacity:0" cx="1877.06" cy="1019.57" r="2"/>
<circle clip-path="url(#clip942)" style="fill:#a0b1ec; stroke:none; fill-opacity:0" cx="2029.08" cy="872.806" r="2"/>
<circle clip-path="url(#clip942)" style="fill:#a0b1ec; stroke:none; fill-opacity:0" cx="2181.09" cy="1423.18" r="2"/>
<path clip-path="url(#clip940)" d="M404.431 300.469 L961.373 300.469 L961.373 93.1086 L404.431 93.1086  Z" fill="#ffffff" fill-rule="evenodd" fill-opacity="1"/>
<polyline clip-path="url(#clip940)" style="stroke:#000000; stroke-linecap:round; stroke-linejoin:round; stroke-width:4; stroke-opacity:1; fill:none" points="404.431,300.469 961.373,300.469 961.373,93.1086 404.431,93.1086 404.431,300.469 "/>
<path clip-path="url(#clip940)" d="M426.825 165.685 L561.192 165.685 L561.192 124.213 L426.825 124.213 L426.825 165.685  Z" fill="#20326c" fill-rule="evenodd" fill-opacity="1"/>
<polyline clip-path="url(#clip940)" style="stroke:#000000; stroke-linecap:round; stroke-linejoin:round; stroke-width:4; stroke-opacity:1; fill:none" points="426.825,165.685 561.192,165.685 561.192,124.213 426.825,124.213 426.825,165.685 "/>
<path clip-path="url(#clip940)" d="M583.587 151.997 L583.587 136.303 L587.846 136.303 L587.846 151.835 Q587.846 155.516 589.281 157.368 Q590.717 159.196 593.587 159.196 Q597.036 159.196 599.027 156.997 Q601.041 154.798 601.041 151.002 L601.041 136.303 L605.3 136.303 L605.3 162.229 L601.041 162.229 L601.041 158.247 Q599.49 160.608 597.429 161.766 Q595.392 162.9 592.684 162.9 Q588.217 162.9 585.902 160.122 Q583.587 157.344 583.587 151.997 M594.305 135.678 L594.305 135.678 Z" fill="#000000" fill-rule="nonzero" fill-opacity="1" /><path clip-path="url(#clip940)" d="M635.624 146.581 L635.624 162.229 L631.365 162.229 L631.365 146.719 Q631.365 143.039 629.929 141.21 Q628.494 139.382 625.624 139.382 Q622.175 139.382 620.184 141.581 Q618.193 143.78 618.193 147.576 L618.193 162.229 L613.911 162.229 L613.911 136.303 L618.193 136.303 L618.193 140.331 Q619.721 137.993 621.781 136.835 Q623.865 135.678 626.573 135.678 Q631.04 135.678 633.332 138.456 Q635.624 141.21 635.624 146.581 Z" fill="#000000" fill-rule="nonzero" fill-opacity="1" /><path clip-path="url(#clip940)" d="M664.304 141.28 Q665.901 138.409 668.124 137.044 Q670.346 135.678 673.355 135.678 Q677.406 135.678 679.605 138.525 Q681.804 141.349 681.804 146.581 L681.804 162.229 L677.522 162.229 L677.522 146.719 Q677.522 142.993 676.202 141.187 Q674.883 139.382 672.174 139.382 Q668.864 139.382 666.943 141.581 Q665.022 143.78 665.022 147.576 L665.022 162.229 L660.739 162.229 L660.739 146.719 Q660.739 142.969 659.42 141.187 Q658.1 139.382 655.346 139.382 Q652.082 139.382 650.161 141.604 Q648.239 143.803 648.239 147.576 L648.239 162.229 L643.957 162.229 L643.957 136.303 L648.239 136.303 L648.239 140.331 Q649.698 137.946 651.735 136.812 Q653.772 135.678 656.573 135.678 Q659.397 135.678 661.364 137.113 Q663.355 138.548 664.304 141.28 Z" fill="#000000" fill-rule="nonzero" fill-opacity="1" /><path clip-path="url(#clip940)" d="M712.475 148.201 L712.475 150.284 L692.892 150.284 Q693.17 154.682 695.531 156.997 Q697.915 159.289 702.151 159.289 Q704.605 159.289 706.897 158.687 Q709.211 158.085 711.48 156.881 L711.48 160.909 Q709.188 161.881 706.781 162.391 Q704.373 162.9 701.897 162.9 Q695.693 162.9 692.059 159.289 Q688.448 155.678 688.448 149.52 Q688.448 143.155 691.873 139.428 Q695.322 135.678 701.156 135.678 Q706.387 135.678 709.42 139.057 Q712.475 142.414 712.475 148.201 M708.216 146.951 Q708.17 143.456 706.248 141.372 Q704.35 139.289 701.202 139.289 Q697.637 139.289 695.485 141.303 Q693.355 143.317 693.031 146.974 L708.216 146.951 Z" fill="#000000" fill-rule="nonzero" fill-opacity="1" /><path clip-path="url(#clip940)" d="M723.679 128.942 L723.679 136.303 L732.452 136.303 L732.452 139.613 L723.679 139.613 L723.679 153.687 Q723.679 156.858 724.535 157.761 Q725.415 158.664 728.077 158.664 L732.452 158.664 L732.452 162.229 L728.077 162.229 Q723.146 162.229 721.271 160.4 Q719.396 158.548 719.396 153.687 L719.396 139.613 L716.271 139.613 L716.271 136.303 L719.396 136.303 L719.396 128.942 L723.679 128.942 Z" fill="#000000" fill-rule="nonzero" fill-opacity="1" /><path clip-path="url(#clip940)" d="M770.183 140.238 L770.183 126.21 L774.442 126.21 L774.442 162.229 L770.183 162.229 L770.183 158.34 Q768.841 160.655 766.78 161.789 Q764.743 162.9 761.873 162.9 Q757.174 162.9 754.211 159.15 Q751.271 155.4 751.271 149.289 Q751.271 143.178 754.211 139.428 Q757.174 135.678 761.873 135.678 Q764.743 135.678 766.78 136.812 Q768.841 137.923 770.183 140.238 M755.669 149.289 Q755.669 153.988 757.591 156.673 Q759.535 159.335 762.915 159.335 Q766.294 159.335 768.239 156.673 Q770.183 153.988 770.183 149.289 Q770.183 144.59 768.239 141.928 Q766.294 139.243 762.915 139.243 Q759.535 139.243 757.591 141.928 Q755.669 144.59 755.669 149.289 Z" fill="#000000" fill-rule="nonzero" fill-opacity="1" /><path clip-path="url(#clip940)" d="M805.391 148.201 L805.391 150.284 L785.808 150.284 Q786.086 154.682 788.447 156.997 Q790.831 159.289 795.067 159.289 Q797.521 159.289 799.813 158.687 Q802.127 158.085 804.396 156.881 L804.396 160.909 Q802.104 161.881 799.697 162.391 Q797.29 162.9 794.813 162.9 Q788.609 162.9 784.975 159.289 Q781.364 155.678 781.364 149.52 Q781.364 143.155 784.79 139.428 Q788.239 135.678 794.072 135.678 Q799.303 135.678 802.336 139.057 Q805.391 142.414 805.391 148.201 M801.132 146.951 Q801.086 143.456 799.165 141.372 Q797.266 139.289 794.118 139.289 Q790.553 139.289 788.401 141.303 Q786.271 143.317 785.947 146.974 L801.132 146.951 Z" fill="#000000" fill-rule="nonzero" fill-opacity="1" /><path clip-path="url(#clip940)" d="M832.567 141.28 Q834.164 138.409 836.387 137.044 Q838.609 135.678 841.618 135.678 Q845.669 135.678 847.868 138.525 Q850.067 141.349 850.067 146.581 L850.067 162.229 L845.785 162.229 L845.785 146.719 Q845.785 142.993 844.465 141.187 Q843.146 139.382 840.437 139.382 Q837.127 139.382 835.206 141.581 Q833.285 143.78 833.285 147.576 L833.285 162.229 L829.002 162.229 L829.002 146.719 Q829.002 142.969 827.683 141.187 Q826.363 139.382 823.609 139.382 Q820.345 139.382 818.424 141.604 Q816.502 143.803 816.502 147.576 L816.502 162.229 L812.22 162.229 L812.22 136.303 L816.502 136.303 L816.502 140.331 Q817.961 137.946 819.998 136.812 Q822.035 135.678 824.836 135.678 Q827.66 135.678 829.627 137.113 Q831.618 138.548 832.567 141.28 Z" fill="#000000" fill-rule="nonzero" fill-opacity="1" /><path clip-path="url(#clip940)" d="M870.345 149.196 Q865.183 149.196 863.192 150.377 Q861.201 151.557 861.201 154.405 Q861.201 156.673 862.683 158.016 Q864.187 159.335 866.757 159.335 Q870.298 159.335 872.428 156.835 Q874.581 154.312 874.581 150.145 L874.581 149.196 L870.345 149.196 M878.84 147.437 L878.84 162.229 L874.581 162.229 L874.581 158.293 Q873.122 160.655 870.947 161.789 Q868.771 162.9 865.623 162.9 Q861.641 162.9 859.28 160.678 Q856.942 158.432 856.942 154.682 Q856.942 150.307 859.859 148.085 Q862.798 145.863 868.609 145.863 L874.581 145.863 L874.581 145.446 Q874.581 142.507 872.636 140.909 Q870.715 139.289 867.22 139.289 Q864.998 139.289 862.891 139.821 Q860.785 140.354 858.84 141.419 L858.84 137.483 Q861.178 136.581 863.377 136.141 Q865.576 135.678 867.66 135.678 Q873.285 135.678 876.062 138.594 Q878.84 141.511 878.84 147.437 Z" fill="#000000" fill-rule="nonzero" fill-opacity="1" /><path clip-path="url(#clip940)" d="M909.164 146.581 L909.164 162.229 L904.905 162.229 L904.905 146.719 Q904.905 143.039 903.47 141.21 Q902.034 139.382 899.164 139.382 Q895.715 139.382 893.724 141.581 Q891.733 143.78 891.733 147.576 L891.733 162.229 L887.451 162.229 L887.451 136.303 L891.733 136.303 L891.733 140.331 Q893.261 137.993 895.321 136.835 Q897.405 135.678 900.113 135.678 Q904.581 135.678 906.872 138.456 Q909.164 141.21 909.164 146.581 Z" fill="#000000" fill-rule="nonzero" fill-opacity="1" /><path clip-path="url(#clip940)" d="M934.719 140.238 L934.719 126.21 L938.979 126.21 L938.979 162.229 L934.719 162.229 L934.719 158.34 Q933.377 160.655 931.317 161.789 Q929.28 162.9 926.409 162.9 Q921.71 162.9 918.747 159.15 Q915.807 155.4 915.807 149.289 Q915.807 143.178 918.747 139.428 Q921.71 135.678 926.409 135.678 Q929.28 135.678 931.317 136.812 Q933.377 137.923 934.719 140.238 M920.206 149.289 Q920.206 153.988 922.127 156.673 Q924.071 159.335 927.451 159.335 Q930.83 159.335 932.775 156.673 Q934.719 153.988 934.719 149.289 Q934.719 144.59 932.775 141.928 Q930.83 139.243 927.451 139.243 Q924.071 139.243 922.127 141.928 Q920.206 144.59 920.206 149.289 Z" fill="#000000" fill-rule="nonzero" fill-opacity="1" /><path clip-path="url(#clip940)" d="M426.825 217.525 L561.192 217.525 L561.192 176.053 L426.825 176.053 L426.825 217.525  Z" fill="#4063d8" fill-rule="evenodd" fill-opacity="1"/>
<polyline clip-path="url(#clip940)" style="stroke:#000000; stroke-linecap:round; stroke-linejoin:round; stroke-width:4; stroke-opacity:1; fill:none" points="426.825,217.525 561.192,217.525 561.192,176.053 426.825,176.053 426.825,217.525 "/>
<path clip-path="url(#clip940)" d="M599.42 184.115 L593.078 201.314 L605.786 201.314 L599.42 184.115 M596.781 179.509 L602.082 179.509 L615.253 214.069 L610.392 214.069 L607.244 205.203 L591.666 205.203 L588.518 214.069 L583.587 214.069 L596.781 179.509 Z" fill="#000000" fill-rule="nonzero" fill-opacity="1" /><path clip-path="url(#clip940)" d="M426.825 269.365 L561.192 269.365 L561.192 227.893 L426.825 227.893 L426.825 269.365  Z" fill="#a0b1ec" fill-rule="evenodd" fill-opacity="1"/>
<polyline clip-path="url(#clip940)" style="stroke:#000000; stroke-linecap:round; stroke-linejoin:round; stroke-width:4; stroke-opacity:1; fill:none" points="426.825,269.365 561.192,269.365 561.192,227.893 426.825,227.893 426.825,269.365 "/>
<path clip-path="url(#clip940)" d="M588.263 249.404 L588.263 262.066 L595.763 262.066 Q599.536 262.066 601.342 260.515 Q603.17 258.941 603.17 255.723 Q603.17 252.483 601.342 250.955 Q599.536 249.404 595.763 249.404 L588.263 249.404 M588.263 235.191 L588.263 245.608 L595.184 245.608 Q598.61 245.608 600.277 244.335 Q601.967 243.038 601.967 240.399 Q601.967 237.784 600.277 236.487 Q598.61 235.191 595.184 235.191 L588.263 235.191 M583.587 231.349 L595.531 231.349 Q600.879 231.349 603.772 233.571 Q606.666 235.793 606.666 239.89 Q606.666 243.062 605.184 244.937 Q603.703 246.811 600.832 247.274 Q604.281 248.015 606.179 250.376 Q608.101 252.714 608.101 256.233 Q608.101 260.862 604.953 263.385 Q601.804 265.909 595.994 265.909 L583.587 265.909 L583.587 231.349 Z" fill="#000000" fill-rule="nonzero" fill-opacity="1" /></svg>
