<?xml version="1.0" encoding="utf-8"?>
<svg xmlns="http://www.w3.org/2000/svg" xmlns:xlink="http://www.w3.org/1999/xlink" width="600" height="400" viewBox="0 0 2400 1600">
<defs>
  <clipPath id="clip770">
    <rect x="0" y="0" width="2400" height="1600"/>
  </clipPath>
</defs>
<path clip-path="url(#clip770)" d="M0 1600 L2400 1600 L2400 0 L0 0  Z" fill="#ffffff" fill-rule="evenodd" fill-opacity="1"/>
<defs>
  <clipPath id="clip771">
    <rect x="184" y="47" width="2170" height="1377"/>
  </clipPath>
</defs>
<path clip-path="url(#clip770)" d="M184.191 1423.18 L2352.76 1423.18 L2352.76 47.2441 L184.191 47.2441  Z" fill="#ffffff" fill-rule="evenodd" fill-opacity="1"/>
<polyline clip-path="url(#clip771)" style="stroke:#000000; stroke-linecap:round; stroke-linejoin:round; stroke-width:2; stroke-opacity:0.1; fill:none" points="405.045,1423.18 405.045,47.2441 "/>
<polyline clip-path="url(#clip771)" style="stroke:#000000; stroke-linecap:round; stroke-linejoin:round; stroke-width:2; stroke-opacity:0.1; fill:none" points="811.364,1423.18 811.364,47.2441 "/>
<polyline clip-path="url(#clip771)" style="stroke:#000000; stroke-linecap:round; stroke-linejoin:round; stroke-width:2; stroke-opacity:0.1; fill:none" points="1217.68,1423.18 1217.68,47.2441 "/>
<polyline clip-path="url(#clip771)" style="stroke:#000000; stroke-linecap:round; stroke-linejoin:round; stroke-width:2; stroke-opacity:0.1; fill:none" points="1624,1423.18 1624,47.2441 "/>
<polyline clip-path="url(#clip771)" style="stroke:#000000; stroke-linecap:round; stroke-linejoin:round; stroke-width:2; stroke-opacity:0.1; fill:none" points="2030.32,1423.18 2030.32,47.2441 "/>
<polyline clip-path="url(#clip771)" style="stroke:#000000; stroke-linecap:round; stroke-linejoin:round; stroke-width:2; stroke-opacity:0.1; fill:none" points="184.191,1423.18 2352.76,1423.18 "/>
<polyline clip-path="url(#clip771)" style="stroke:#000000; stroke-linecap:round; stroke-linejoin:round; stroke-width:2; stroke-opacity:0.1; fill:none" points="184.191,1110.47 2352.76,1110.47 "/>
<polyline clip-path="url(#clip771)" style="stroke:#000000; stroke-linecap:round; stroke-linejoin:round; stroke-width:2; stroke-opacity:0.1; fill:none" points="184.191,797.755 2352.76,797.755 "/>
<polyline clip-path="url(#clip771)" style="stroke:#000000; stroke-linecap:round; stroke-linejoin:round; stroke-width:2; stroke-opacity:0.1; fill:none" points="184.191,485.042 2352.76,485.042 "/>
<polyline clip-path="url(#clip771)" style="stroke:#000000; stroke-linecap:round; stroke-linejoin:round; stroke-width:2; stroke-opacity:0.1; fill:none" points="184.191,172.329 2352.76,172.329 "/>
<polyline clip-path="url(#clip770)" style="stroke:#000000; stroke-linecap:round; stroke-linejoin:round; stroke-width:4; stroke-opacity:1; fill:none" points="184.191,1423.18 2352.76,1423.18 "/>
<polyline clip-path="url(#clip770)" style="stroke:#000000; stroke-linecap:round; stroke-linejoin:round; stroke-width:4; stroke-opacity:1; fill:none" points="405.045,1423.18 405.045,1404.28 "/>
<polyline clip-path="url(#clip770)" style="stroke:#000000; stroke-linecap:round; stroke-linejoin:round; stroke-width:4; stroke-opacity:1; fill:none" points="811.364,1423.18 811.364,1404.28 "/>
<polyline clip-path="url(#clip770)" style="stroke:#000000; stroke-linecap:round; stroke-linejoin:round; stroke-width:4; stroke-opacity:1; fill:none" points="1217.68,1423.18 1217.68,1404.28 "/>
<polyline clip-path="url(#clip770)" style="stroke:#000000; stroke-linecap:round; stroke-linejoin:round; stroke-width:4; stroke-opacity:1; fill:none" points="1624,1423.18 1624,1404.28 "/>
<polyline clip-path="url(#clip770)" style="stroke:#000000; stroke-linecap:round; stroke-linejoin:round; stroke-width:4; stroke-opacity:1; fill:none" points="2030.32,1423.18 2030.32,1404.28 "/>
<path clip-path="url(#clip770)" d="M364.652 1481.64 L372.291 1481.64 L372.291 1455.28 L363.981 1456.95 L363.981 1452.69 L372.245 1451.02 L376.921 1451.02 L376.921 1481.64 L384.559 1481.64 L384.559 1485.58 L364.652 1485.58 L364.652 1481.64 Z" fill="#000000" fill-rule="nonzero" fill-opacity="1" /><path clip-path="url(#clip770)" d="M404.582 1466.44 Q401.434 1466.44 399.582 1468.59 Q397.754 1470.74 397.754 1474.49 Q397.754 1478.22 399.582 1480.39 Q401.434 1482.55 404.582 1482.55 Q407.731 1482.55 409.559 1480.39 Q411.411 1478.22 411.411 1474.49 Q411.411 1470.74 409.559 1468.59 Q407.731 1466.44 404.582 1466.44 M413.865 1451.78 L413.865 1456.04 Q412.106 1455.21 410.3 1454.77 Q408.518 1454.33 406.758 1454.33 Q402.129 1454.33 399.675 1457.45 Q397.244 1460.58 396.897 1466.9 Q398.263 1464.89 400.323 1463.82 Q402.383 1462.73 404.86 1462.73 Q410.069 1462.73 413.078 1465.9 Q416.11 1469.05 416.11 1474.49 Q416.11 1479.82 412.962 1483.03 Q409.814 1486.25 404.582 1486.25 Q398.587 1486.25 395.416 1481.67 Q392.245 1477.06 392.245 1468.33 Q392.245 1460.14 396.133 1455.28 Q400.022 1450.39 406.573 1450.39 Q408.332 1450.39 410.115 1450.74 Q411.92 1451.09 413.865 1451.78 Z" fill="#000000" fill-rule="nonzero" fill-opacity="1" /><path clip-path="url(#clip770)" d="M434.166 1454.1 Q430.555 1454.1 428.726 1457.66 Q426.92 1461.2 426.92 1468.33 Q426.92 1475.44 428.726 1479.01 Q430.555 1482.55 434.166 1482.55 Q437.8 1482.55 439.605 1479.01 Q441.434 1475.44 441.434 1468.33 Q441.434 1461.2 439.605 1457.66 Q437.8 1454.1 434.166 1454.1 M434.166 1450.39 Q439.976 1450.39 443.031 1455 Q446.11 1459.58 446.11 1468.33 Q446.11 1477.06 443.031 1481.67 Q439.976 1486.25 434.166 1486.25 Q428.355 1486.25 425.277 1481.67 Q422.221 1477.06 422.221 1468.33 Q422.221 1459.58 425.277 1455 Q428.355 1450.39 434.166 1450.39 Z" fill="#000000" fill-rule="nonzero" fill-opacity="1" /><path clip-path="url(#clip770)" d="M770.971 1481.64 L778.61 1481.64 L778.61 1455.28 L770.3 1456.95 L770.3 1452.69 L778.564 1451.02 L783.24 1451.02 L783.24 1481.64 L790.878 1481.64 L790.878 1485.58 L770.971 1485.58 L770.971 1481.64 Z" fill="#000000" fill-rule="nonzero" fill-opacity="1" /><path clip-path="url(#clip770)" d="M810.323 1469.17 Q806.989 1469.17 805.068 1470.95 Q803.17 1472.73 803.17 1475.86 Q803.17 1478.98 805.068 1480.77 Q806.989 1482.55 810.323 1482.55 Q813.656 1482.55 815.577 1480.77 Q817.499 1478.96 817.499 1475.86 Q817.499 1472.73 815.577 1470.95 Q813.679 1469.17 810.323 1469.17 M805.647 1467.18 Q802.638 1466.44 800.948 1464.38 Q799.281 1462.32 799.281 1459.35 Q799.281 1455.21 802.221 1452.8 Q805.184 1450.39 810.323 1450.39 Q815.485 1450.39 818.425 1452.8 Q821.364 1455.21 821.364 1459.35 Q821.364 1462.32 819.675 1464.38 Q818.008 1466.44 815.022 1467.18 Q818.401 1467.96 820.276 1470.26 Q822.175 1472.55 822.175 1475.86 Q822.175 1480.88 819.096 1483.57 Q816.04 1486.25 810.323 1486.25 Q804.605 1486.25 801.526 1483.57 Q798.471 1480.88 798.471 1475.86 Q798.471 1472.55 800.369 1470.26 Q802.267 1467.96 805.647 1467.18 M803.934 1459.79 Q803.934 1462.48 805.601 1463.98 Q807.29 1465.49 810.323 1465.49 Q813.332 1465.49 815.022 1463.98 Q816.735 1462.48 816.735 1459.79 Q816.735 1457.11 815.022 1455.6 Q813.332 1454.1 810.323 1454.1 Q807.29 1454.1 805.601 1455.6 Q803.934 1457.11 803.934 1459.79 Z" fill="#000000" fill-rule="nonzero" fill-opacity="1" /><path clip-path="url(#clip770)" d="M840.485 1454.1 Q836.874 1454.1 835.045 1457.66 Q833.239 1461.2 833.239 1468.33 Q833.239 1475.44 835.045 1479.01 Q836.874 1482.55 840.485 1482.55 Q844.119 1482.55 845.924 1479.01 Q847.753 1475.44 847.753 1468.33 Q847.753 1461.2 845.924 1457.66 Q844.119 1454.1 840.485 1454.1 M840.485 1450.39 Q846.295 1450.39 849.35 1455 Q852.429 1459.58 852.429 1468.33 Q852.429 1477.06 849.35 1481.67 Q846.295 1486.25 840.485 1486.25 Q834.674 1486.25 831.596 1481.67 Q828.54 1477.06 828.54 1468.33 Q828.54 1459.58 831.596 1455 Q834.674 1450.39 840.485 1450.39 Z" fill="#000000" fill-rule="nonzero" fill-opacity="1" /><path clip-path="url(#clip770)" d="M1181.38 1481.64 L1197.7 1481.64 L1197.7 1485.58 L1175.75 1485.58 L1175.75 1481.64 Q1178.41 1478.89 1183 1474.26 Q1187.6 1469.61 1188.78 1468.27 Q1191.03 1465.74 1191.91 1464.01 Q1192.81 1462.25 1192.81 1460.56 Q1192.81 1457.8 1190.87 1456.07 Q1188.95 1454.33 1185.84 1454.33 Q1183.64 1454.33 1181.19 1455.09 Q1178.76 1455.86 1175.98 1457.41 L1175.98 1452.69 Q1178.81 1451.55 1181.26 1450.97 Q1183.71 1450.39 1185.75 1450.39 Q1191.12 1450.39 1194.32 1453.08 Q1197.51 1455.77 1197.51 1460.26 Q1197.51 1462.39 1196.7 1464.31 Q1195.91 1466.2 1193.81 1468.8 Q1193.23 1469.47 1190.13 1472.69 Q1187.02 1475.88 1181.38 1481.64 Z" fill="#000000" fill-rule="nonzero" fill-opacity="1" /><path clip-path="url(#clip770)" d="M1217.51 1454.1 Q1213.9 1454.1 1212.07 1457.66 Q1210.26 1461.2 1210.26 1468.33 Q1210.26 1475.44 1212.07 1479.01 Q1213.9 1482.55 1217.51 1482.55 Q1221.14 1482.55 1222.95 1479.01 Q1224.78 1475.44 1224.78 1468.33 Q1224.78 1461.2 1222.95 1457.66 Q1221.14 1454.1 1217.51 1454.1 M1217.51 1450.39 Q1223.32 1450.39 1226.38 1455 Q1229.45 1459.58 1229.45 1468.33 Q1229.45 1477.06 1226.38 1481.67 Q1223.32 1486.25 1217.51 1486.25 Q1211.7 1486.25 1208.62 1481.67 Q1205.57 1477.06 1205.57 1468.33 Q1205.57 1459.58 1208.62 1455 Q1211.7 1450.39 1217.51 1450.39 Z" fill="#000000" fill-rule="nonzero" fill-opacity="1" /><path clip-path="url(#clip770)" d="M1247.67 1454.1 Q1244.06 1454.1 1242.23 1457.66 Q1240.43 1461.2 1240.43 1468.33 Q1240.43 1475.44 1242.23 1479.01 Q1244.06 1482.55 1247.67 1482.55 Q1251.31 1482.55 1253.11 1479.01 Q1254.94 1475.44 1254.94 1468.33 Q1254.94 1461.2 1253.11 1457.66 Q1251.31 1454.1 1247.67 1454.1 M1247.67 1450.39 Q1253.48 1450.39 1256.54 1455 Q1259.62 1459.58 1259.62 1468.33 Q1259.62 1477.06 1256.54 1481.67 Q1253.48 1486.25 1247.67 1486.25 Q1241.86 1486.25 1238.78 1481.67 Q1235.73 1477.06 1235.73 1468.33 Q1235.73 1459.58 1238.78 1455 Q1241.86 1450.39 1247.67 1450.39 Z" fill="#000000" fill-rule="nonzero" fill-opacity="1" /><path clip-path="url(#clip770)" d="M1587.69 1481.64 L1604.01 1481.64 L1604.01 1485.58 L1582.07 1485.58 L1582.07 1481.64 Q1584.73 1478.89 1589.32 1474.26 Q1593.92 1469.61 1595.1 1468.27 Q1597.35 1465.74 1598.23 1464.01 Q1599.13 1462.25 1599.13 1460.56 Q1599.13 1457.8 1597.19 1456.07 Q1595.26 1454.33 1592.16 1454.33 Q1589.96 1454.33 1587.51 1455.09 Q1585.08 1455.86 1582.3 1457.41 L1582.3 1452.69 Q1585.13 1451.55 1587.58 1450.97 Q1590.03 1450.39 1592.07 1450.39 Q1597.44 1450.39 1600.63 1453.08 Q1603.83 1455.77 1603.83 1460.26 Q1603.83 1462.39 1603.02 1464.31 Q1602.23 1466.2 1600.13 1468.8 Q1599.55 1469.47 1596.44 1472.69 Q1593.34 1475.88 1587.69 1481.64 Z" fill="#000000" fill-rule="nonzero" fill-opacity="1" /><path clip-path="url(#clip770)" d="M1617.86 1481.64 L1634.18 1481.64 L1634.18 1485.58 L1612.23 1485.58 L1612.23 1481.64 Q1614.89 1478.89 1619.48 1474.26 Q1624.08 1469.61 1625.26 1468.27 Q1627.51 1465.74 1628.39 1464.01 Q1629.29 1462.25 1629.29 1460.56 Q1629.29 1457.8 1627.35 1456.07 Q1625.43 1454.33 1622.32 1454.33 Q1620.13 1454.33 1617.67 1455.09 Q1615.24 1455.86 1612.46 1457.41 L1612.46 1452.69 Q1615.29 1451.55 1617.74 1450.97 Q1620.19 1450.39 1622.23 1450.39 Q1627.6 1450.39 1630.8 1453.08 Q1633.99 1455.77 1633.99 1460.26 Q1633.99 1462.39 1633.18 1464.31 Q1632.39 1466.2 1630.29 1468.8 Q1629.71 1469.47 1626.61 1472.69 Q1623.5 1475.88 1617.86 1481.64 Z" fill="#000000" fill-rule="nonzero" fill-opacity="1" /><path clip-path="url(#clip770)" d="M1653.99 1454.1 Q1650.38 1454.1 1648.55 1457.66 Q1646.75 1461.2 1646.75 1468.33 Q1646.75 1475.44 1648.55 1479.01 Q1650.38 1482.55 1653.99 1482.55 Q1657.62 1482.55 1659.43 1479.01 Q1661.26 1475.44 1661.26 1468.33 Q1661.26 1461.2 1659.43 1457.66 Q1657.62 1454.1 1653.99 1454.1 M1653.99 1450.39 Q1659.8 1450.39 1662.86 1455 Q1665.94 1459.58 1665.94 1468.33 Q1665.94 1477.06 1662.86 1481.67 Q1659.8 1486.25 1653.99 1486.25 Q1648.18 1486.25 1645.1 1481.67 Q1642.05 1477.06 1642.05 1468.33 Q1642.05 1459.58 1645.1 1455 Q1648.18 1450.39 1653.99 1450.39 Z" fill="#000000" fill-rule="nonzero" fill-opacity="1" /><path clip-path="url(#clip770)" d="M1994.01 1481.64 L2010.33 1481.64 L2010.33 1485.58 L1988.39 1485.58 L1988.39 1481.64 Q1991.05 1478.89 1995.63 1474.26 Q2000.24 1469.61 2001.42 1468.27 Q2003.67 1465.74 2004.55 1464.01 Q2005.45 1462.25 2005.45 1460.56 Q2005.45 1457.8 2003.5 1456.07 Q2001.58 1454.33 1998.48 1454.33 Q1996.28 1454.33 1993.83 1455.09 Q1991.4 1455.86 1988.62 1457.41 L1988.62 1452.69 Q1991.44 1451.55 1993.9 1450.97 Q1996.35 1450.39 1998.39 1450.39 Q2003.76 1450.39 2006.95 1453.08 Q2010.15 1455.77 2010.15 1460.26 Q2010.15 1462.39 2009.34 1464.31 Q2008.55 1466.2 2006.44 1468.8 Q2005.87 1469.47 2002.76 1472.69 Q1999.66 1475.88 1994.01 1481.64 Z" fill="#000000" fill-rule="nonzero" fill-opacity="1" /><path clip-path="url(#clip770)" d="M2033 1455.09 L2021.19 1473.54 L2033 1473.54 L2033 1455.09 M2031.77 1451.02 L2037.65 1451.02 L2037.65 1473.54 L2042.58 1473.54 L2042.58 1477.43 L2037.65 1477.43 L2037.65 1485.58 L2033 1485.58 L2033 1477.43 L2017.39 1477.43 L2017.39 1472.92 L2031.77 1451.02 Z" fill="#000000" fill-rule="nonzero" fill-opacity="1" /><path clip-path="url(#clip770)" d="M2060.31 1454.1 Q2056.7 1454.1 2054.87 1457.66 Q2053.06 1461.2 2053.06 1468.33 Q2053.06 1475.44 2054.87 1479.01 Q2056.7 1482.55 2060.31 1482.55 Q2063.94 1482.55 2065.75 1479.01 Q2067.58 1475.44 2067.58 1468.33 Q2067.58 1461.2 2065.75 1457.66 Q2063.94 1454.1 2060.31 1454.1 M2060.31 1450.39 Q2066.12 1450.39 2069.18 1455 Q2072.25 1459.58 2072.25 1468.33 Q2072.25 1477.06 2069.18 1481.67 Q2066.12 1486.25 2060.31 1486.25 Q2054.5 1486.25 2051.42 1481.67 Q2048.37 1477.06 2048.37 1468.33 Q2048.37 1459.58 2051.42 1455 Q2054.5 1450.39 2060.31 1450.39 Z" fill="#000000" fill-rule="nonzero" fill-opacity="1" /><path clip-path="url(#clip770)" d="M1142.85 1525.81 L1142.85 1562.76 L1150.61 1562.76 Q1160.45 1562.76 1165 1558.3 Q1169.58 1553.85 1169.58 1544.24 Q1169.58 1534.69 1165 1530.26 Q1160.45 1525.81 1150.61 1525.81 L1142.85 1525.81 M1136.42 1520.52 L1149.63 1520.52 Q1163.44 1520.52 1169.9 1526.28 Q1176.36 1532.01 1176.36 1544.24 Q1176.36 1556.52 1169.87 1562.28 Q1163.38 1568.04 1149.63 1568.04 L1136.42 1568.04 L1136.42 1520.52 Z" fill="#000000" fill-rule="nonzero" fill-opacity="1" /><path clip-path="url(#clip770)" d="M1216.85 1548.76 L1216.85 1551.62 L1189.92 1551.62 Q1190.3 1557.67 1193.55 1560.85 Q1196.83 1564 1202.65 1564 Q1206.03 1564 1209.18 1563.17 Q1212.36 1562.35 1215.48 1560.69 L1215.48 1566.23 Q1212.33 1567.57 1209.02 1568.27 Q1205.71 1568.97 1202.3 1568.97 Q1193.77 1568.97 1188.77 1564 Q1183.81 1559.04 1183.81 1550.57 Q1183.81 1541.82 1188.52 1536.69 Q1193.26 1531.54 1201.28 1531.54 Q1208.48 1531.54 1212.65 1536.18 Q1216.85 1540.8 1216.85 1548.76 M1210.99 1547.04 Q1210.93 1542.23 1208.29 1539.37 Q1205.68 1536.5 1201.35 1536.5 Q1196.45 1536.5 1193.49 1539.27 Q1190.56 1542.04 1190.11 1547.07 L1210.99 1547.04 Z" fill="#000000" fill-rule="nonzero" fill-opacity="1" /><path clip-path="url(#clip770)" d="M1254.21 1539.24 Q1256.41 1535.29 1259.47 1533.41 Q1262.52 1531.54 1266.66 1531.54 Q1272.23 1531.54 1275.25 1535.45 Q1278.28 1539.33 1278.28 1546.53 L1278.28 1568.04 L1272.39 1568.04 L1272.39 1546.72 Q1272.39 1541.59 1270.57 1539.11 Q1268.76 1536.63 1265.04 1536.63 Q1260.48 1536.63 1257.84 1539.65 Q1255.2 1542.68 1255.2 1547.9 L1255.2 1568.04 L1249.31 1568.04 L1249.31 1546.72 Q1249.31 1541.56 1247.5 1539.11 Q1245.68 1536.63 1241.9 1536.63 Q1237.41 1536.63 1234.77 1539.68 Q1232.13 1542.71 1232.13 1547.9 L1232.13 1568.04 L1226.24 1568.04 L1226.24 1532.4 L1232.13 1532.4 L1232.13 1537.93 Q1234.13 1534.66 1236.93 1533.1 Q1239.73 1531.54 1243.58 1531.54 Q1247.47 1531.54 1250.17 1533.51 Q1252.91 1535.48 1254.21 1539.24 Z" fill="#000000" fill-rule="nonzero" fill-opacity="1" /><path clip-path="url(#clip770)" d="M1306.16 1550.12 Q1299.06 1550.12 1296.32 1551.75 Q1293.59 1553.37 1293.59 1557.29 Q1293.59 1560.4 1295.62 1562.25 Q1297.69 1564.07 1301.22 1564.07 Q1306.09 1564.07 1309.02 1560.63 Q1311.98 1557.16 1311.98 1551.43 L1311.98 1550.12 L1306.16 1550.12 M1317.84 1547.71 L1317.84 1568.04 L1311.98 1568.04 L1311.98 1562.63 Q1309.98 1565.88 1306.99 1567.44 Q1303.99 1568.97 1299.67 1568.97 Q1294.19 1568.97 1290.94 1565.91 Q1287.73 1562.82 1287.73 1557.67 Q1287.73 1551.65 1291.74 1548.6 Q1295.78 1545.54 1303.77 1545.54 L1311.98 1545.54 L1311.98 1544.97 Q1311.98 1540.93 1309.31 1538.73 Q1306.67 1536.5 1301.86 1536.5 Q1298.81 1536.5 1295.91 1537.23 Q1293.01 1537.97 1290.34 1539.43 L1290.34 1534.02 Q1293.55 1532.78 1296.58 1532.17 Q1299.6 1531.54 1302.47 1531.54 Q1310.2 1531.54 1314.02 1535.55 Q1317.84 1539.56 1317.84 1547.71 Z" fill="#000000" fill-rule="nonzero" fill-opacity="1" /><path clip-path="url(#clip770)" d="M1359.53 1546.53 L1359.53 1568.04 L1353.68 1568.04 L1353.68 1546.72 Q1353.68 1541.66 1351.7 1539.14 Q1349.73 1536.63 1345.78 1536.63 Q1341.04 1536.63 1338.31 1539.65 Q1335.57 1542.68 1335.57 1547.9 L1335.57 1568.04 L1329.68 1568.04 L1329.68 1532.4 L1335.57 1532.4 L1335.57 1537.93 Q1337.67 1534.72 1340.5 1533.13 Q1343.37 1531.54 1347.09 1531.54 Q1353.23 1531.54 1356.38 1535.36 Q1359.53 1539.14 1359.53 1546.53 Z" fill="#000000" fill-rule="nonzero" fill-opacity="1" /><path clip-path="url(#clip770)" d="M1394.67 1537.81 L1394.67 1518.52 L1400.53 1518.52 L1400.53 1568.04 L1394.67 1568.04 L1394.67 1562.7 Q1392.83 1565.88 1389.99 1567.44 Q1387.19 1568.97 1383.25 1568.97 Q1376.79 1568.97 1372.71 1563.81 Q1368.67 1558.65 1368.67 1550.25 Q1368.67 1541.85 1372.71 1536.69 Q1376.79 1531.54 1383.25 1531.54 Q1387.19 1531.54 1389.99 1533.1 Q1392.83 1534.62 1394.67 1537.81 M1374.72 1550.25 Q1374.72 1556.71 1377.36 1560.4 Q1380.03 1564.07 1384.68 1564.07 Q1389.33 1564.07 1392 1560.4 Q1394.67 1556.71 1394.67 1550.25 Q1394.67 1543.79 1392 1540.13 Q1389.33 1536.44 1384.68 1536.44 Q1380.03 1536.44 1377.36 1540.13 Q1374.72 1543.79 1374.72 1550.25 Z" fill="#000000" fill-rule="nonzero" fill-opacity="1" /><polyline clip-path="url(#clip770)" style="stroke:#000000; stroke-linecap:round; stroke-linejoin:round; stroke-width:4; stroke-opacity:1; fill:none" points="184.191,1423.18 184.191,47.2441 "/>
<polyline clip-path="url(#clip770)" style="stroke:#000000; stroke-linecap:round; stroke-linejoin:round; stroke-width:4; stroke-opacity:1; fill:none" points="184.191,1423.18 203.088,1423.18 "/>
<polyline clip-path="url(#clip770)" style="stroke:#000000; stroke-linecap:round; stroke-linejoin:round; stroke-width:4; stroke-opacity:1; fill:none" points="184.191,1110.47 203.088,1110.47 "/>
<polyline clip-path="url(#clip770)" style="stroke:#000000; stroke-linecap:round; stroke-linejoin:round; stroke-width:4; stroke-opacity:1; fill:none" points="184.191,797.755 203.088,797.755 "/>
<polyline clip-path="url(#clip770)" style="stroke:#000000; stroke-linecap:round; stroke-linejoin:round; stroke-width:4; stroke-opacity:1; fill:none" points="184.191,485.042 203.088,485.042 "/>
<polyline clip-path="url(#clip770)" style="stroke:#000000; stroke-linecap:round; stroke-linejoin:round; stroke-width:4; stroke-opacity:1; fill:none" points="184.191,172.329 203.088,172.329 "/>
<path clip-path="url(#clip770)" d="M91.0151 1408.98 Q87.404 1408.98 85.5753 1412.54 Q83.7697 1416.08 83.7697 1423.21 Q83.7697 1430.32 85.5753 1433.89 Q87.404 1437.43 91.0151 1437.43 Q94.6493 1437.43 96.4548 1433.89 Q98.2835 1430.32 98.2835 1423.21 Q98.2835 1416.08 96.4548 1412.54 Q94.6493 1408.98 91.0151 1408.98 M91.0151 1405.27 Q96.8252 1405.27 99.8808 1409.88 Q102.959 1414.46 102.959 1423.21 Q102.959 1431.94 99.8808 1436.55 Q96.8252 1441.13 91.0151 1441.13 Q85.2049 1441.13 82.1262 1436.55 Q79.0707 1431.94 79.0707 1423.21 Q79.0707 1414.46 82.1262 1409.88 Q85.2049 1405.27 91.0151 1405.27 Z" fill="#000000" fill-rule="nonzero" fill-opacity="1" /><path clip-path="url(#clip770)" d="M111.177 1434.58 L116.061 1434.58 L116.061 1440.46 L111.177 1440.46 L111.177 1434.58 Z" fill="#000000" fill-rule="nonzero" fill-opacity="1" /><path clip-path="url(#clip770)" d="M136.246 1408.98 Q132.635 1408.98 130.807 1412.54 Q129.001 1416.08 129.001 1423.21 Q129.001 1430.32 130.807 1433.89 Q132.635 1437.43 136.246 1437.43 Q139.881 1437.43 141.686 1433.89 Q143.515 1430.32 143.515 1423.21 Q143.515 1416.08 141.686 1412.54 Q139.881 1408.98 136.246 1408.98 M136.246 1405.27 Q142.056 1405.27 145.112 1409.88 Q148.191 1414.46 148.191 1423.21 Q148.191 1431.94 145.112 1436.55 Q142.056 1441.13 136.246 1441.13 Q130.436 1441.13 127.357 1436.55 Q124.302 1431.94 124.302 1423.21 Q124.302 1414.46 127.357 1409.88 Q130.436 1405.27 136.246 1405.27 Z" fill="#000000" fill-rule="nonzero" fill-opacity="1" /><path clip-path="url(#clip770)" d="M86.0382 1123.81 L102.358 1123.81 L102.358 1127.75 L80.4133 1127.75 L80.4133 1123.81 Q83.0753 1121.06 87.6586 1116.43 Q92.2651 1111.78 93.4456 1110.43 Q95.691 1107.91 96.5706 1106.17 Q97.4734 1104.41 97.4734 1102.72 Q97.4734 1099.97 95.5289 1098.23 Q93.6076 1096.5 90.5058 1096.5 Q88.3067 1096.5 85.8531 1097.26 Q83.4225 1098.03 80.6447 1099.58 L80.6447 1094.85 Q83.4688 1093.72 85.9225 1093.14 Q88.3762 1092.56 90.4132 1092.56 Q95.7836 1092.56 98.978 1095.25 Q102.172 1097.93 102.172 1102.42 Q102.172 1104.55 101.362 1106.47 Q100.575 1108.37 98.4687 1110.96 Q97.89 1111.64 94.7882 1114.85 Q91.6864 1118.05 86.0382 1123.81 Z" fill="#000000" fill-rule="nonzero" fill-opacity="1" /><path clip-path="url(#clip770)" d="M112.172 1121.87 L117.057 1121.87 L117.057 1127.75 L112.172 1127.75 L112.172 1121.87 Z" fill="#000000" fill-rule="nonzero" fill-opacity="1" /><path clip-path="url(#clip770)" d="M127.288 1093.19 L145.644 1093.19 L145.644 1097.12 L131.57 1097.12 L131.57 1105.59 Q132.589 1105.25 133.607 1105.09 Q134.626 1104.9 135.644 1104.9 Q141.431 1104.9 144.811 1108.07 Q148.191 1111.24 148.191 1116.66 Q148.191 1122.24 144.718 1125.34 Q141.246 1128.42 134.927 1128.42 Q132.751 1128.42 130.482 1128.05 Q128.237 1127.68 125.83 1126.94 L125.83 1122.24 Q127.913 1123.37 130.135 1123.93 Q132.357 1124.48 134.834 1124.48 Q138.839 1124.48 141.177 1122.38 Q143.515 1120.27 143.515 1116.66 Q143.515 1113.05 141.177 1110.94 Q138.839 1108.84 134.834 1108.84 Q132.959 1108.84 131.084 1109.25 Q129.232 1109.67 127.288 1110.55 L127.288 1093.19 Z" fill="#000000" fill-rule="nonzero" fill-opacity="1" /><path clip-path="url(#clip770)" d="M81.0614 780.475 L99.4178 780.475 L99.4178 784.41 L85.3438 784.41 L85.3438 792.882 Q86.3623 792.535 87.3808 792.373 Q88.3993 792.187 89.4178 792.187 Q95.2049 792.187 98.5845 795.359 Q101.964 798.53 101.964 803.947 Q101.964 809.525 98.4919 812.627 Q95.0197 815.706 88.7003 815.706 Q86.5243 815.706 84.2558 815.335 Q82.0105 814.965 79.6031 814.224 L79.6031 809.525 Q81.6864 810.66 83.9086 811.215 Q86.1308 811.771 88.6077 811.771 Q92.6123 811.771 94.9502 809.664 Q97.2882 807.558 97.2882 803.947 Q97.2882 800.336 94.9502 798.229 Q92.6123 796.123 88.6077 796.123 Q86.7327 796.123 84.8577 796.539 Q83.0058 796.956 81.0614 797.836 L81.0614 780.475 Z" fill="#000000" fill-rule="nonzero" fill-opacity="1" /><path clip-path="url(#clip770)" d="M111.177 809.155 L116.061 809.155 L116.061 815.035 L111.177 815.035 L111.177 809.155 Z" fill="#000000" fill-rule="nonzero" fill-opacity="1" /><path clip-path="url(#clip770)" d="M136.246 783.553 Q132.635 783.553 130.807 787.118 Q129.001 790.66 129.001 797.789 Q129.001 804.896 130.807 808.46 Q132.635 812.002 136.246 812.002 Q139.881 812.002 141.686 808.46 Q143.515 804.896 143.515 797.789 Q143.515 790.66 141.686 787.118 Q139.881 783.553 136.246 783.553 M136.246 779.85 Q142.056 779.85 145.112 784.456 Q148.191 789.039 148.191 797.789 Q148.191 806.516 145.112 811.122 Q142.056 815.706 136.246 815.706 Q130.436 815.706 127.357 811.122 Q124.302 806.516 124.302 797.789 Q124.302 789.039 127.357 784.456 Q130.436 779.85 136.246 779.85 Z" fill="#000000" fill-rule="nonzero" fill-opacity="1" /><path clip-path="url(#clip770)" d="M80.8299 467.762 L103.052 467.762 L103.052 469.753 L90.5058 502.322 L85.6216 502.322 L97.4271 471.697 L80.8299 471.697 L80.8299 467.762 Z" fill="#000000" fill-rule="nonzero" fill-opacity="1" /><path clip-path="url(#clip770)" d="M112.172 496.442 L117.057 496.442 L117.057 502.322 L112.172 502.322 L112.172 496.442 Z" fill="#000000" fill-rule="nonzero" fill-opacity="1" /><path clip-path="url(#clip770)" d="M127.288 467.762 L145.644 467.762 L145.644 471.697 L131.57 471.697 L131.57 480.169 Q132.589 479.822 133.607 479.66 Q134.626 479.475 135.644 479.475 Q141.431 479.475 144.811 482.646 Q148.191 485.817 148.191 491.234 Q148.191 496.813 144.718 499.914 Q141.246 502.993 134.927 502.993 Q132.751 502.993 130.482 502.623 Q128.237 502.252 125.83 501.512 L125.83 496.813 Q127.913 497.947 130.135 498.502 Q132.357 499.058 134.834 499.058 Q138.839 499.058 141.177 496.951 Q143.515 494.845 143.515 491.234 Q143.515 487.623 141.177 485.516 Q138.839 483.41 134.834 483.41 Q132.959 483.41 131.084 483.827 Q129.232 484.243 127.288 485.123 L127.288 467.762 Z" fill="#000000" fill-rule="nonzero" fill-opacity="1" /><path clip-path="url(#clip770)" d="M51.6634 185.674 L59.3023 185.674 L59.3023 159.308 L50.9921 160.975 L50.9921 156.716 L59.256 155.049 L63.9319 155.049 L63.9319 185.674 L71.5707 185.674 L71.5707 189.609 L51.6634 189.609 L51.6634 185.674 Z" fill="#000000" fill-rule="nonzero" fill-opacity="1" /><path clip-path="url(#clip770)" d="M91.0151 158.128 Q87.404 158.128 85.5753 161.693 Q83.7697 165.234 83.7697 172.364 Q83.7697 179.47 85.5753 183.035 Q87.404 186.577 91.0151 186.577 Q94.6493 186.577 96.4548 183.035 Q98.2835 179.47 98.2835 172.364 Q98.2835 165.234 96.4548 161.693 Q94.6493 158.128 91.0151 158.128 M91.0151 154.424 Q96.8252 154.424 99.8808 159.031 Q102.959 163.614 102.959 172.364 Q102.959 181.091 99.8808 185.697 Q96.8252 190.28 91.0151 190.28 Q85.2049 190.28 82.1262 185.697 Q79.0707 181.091 79.0707 172.364 Q79.0707 163.614 82.1262 159.031 Q85.2049 154.424 91.0151 154.424 Z" fill="#000000" fill-rule="nonzero" fill-opacity="1" /><path clip-path="url(#clip770)" d="M111.177 183.73 L116.061 183.73 L116.061 189.609 L111.177 189.609 L111.177 183.73 Z" fill="#000000" fill-rule="nonzero" fill-opacity="1" /><path clip-path="url(#clip770)" d="M136.246 158.128 Q132.635 158.128 130.807 161.693 Q129.001 165.234 129.001 172.364 Q129.001 179.47 130.807 183.035 Q132.635 186.577 136.246 186.577 Q139.881 186.577 141.686 183.035 Q143.515 179.47 143.515 172.364 Q143.515 165.234 141.686 161.693 Q139.881 158.128 136.246 158.128 M136.246 154.424 Q142.056 154.424 145.112 159.031 Q148.191 163.614 148.191 172.364 Q148.191 181.091 145.112 185.697 Q142.056 190.28 136.246 190.28 Q130.436 190.28 127.357 185.697 Q124.302 181.091 124.302 172.364 Q124.302 163.614 127.357 159.031 Q130.436 154.424 136.246 154.424 Z" fill="#000000" fill-rule="nonzero" fill-opacity="1" /><path clip-path="url(#clip771)" d="M303.466 1173.01 L303.466 1423.18 L405.045 1423.18 L405.045 1173.01 L303.466 1173.01 L303.466 1173.01  Z" fill="#009af9" fill-rule="evenodd" fill-opacity="1"/>
<polyline clip-path="url(#clip771)" style="stroke:#000000; stroke-linecap:round; stroke-linejoin:round; stroke-width:4; stroke-opacity:1; fill:none" points="303.466,1173.01 303.466,1423.18 405.045,1423.18 405.045,1173.01 303.466,1173.01 "/>
<path clip-path="url(#clip771)" d="M405.045 1173.01 L405.045 1423.18 L506.625 1423.18 L506.625 1173.01 L405.045 1173.01 L405.045 1173.01  Z" fill="#009af9" fill-rule="evenodd" fill-opacity="1"/>
<polyline clip-path="url(#clip771)" style="stroke:#000000; stroke-linecap:round; stroke-linejoin:round; stroke-width:4; stroke-opacity:1; fill:none" points="405.045,1173.01 405.045,1423.18 506.625,1423.18 506.625,1173.01 405.045,1173.01 "/>
<path clip-path="url(#clip771)" d="M506.625 1423.18 L506.625 1423.18 L608.205 1423.18 L608.205 1423.18 L506.625 1423.18 L506.625 1423.18  Z" fill="#009af9" fill-rule="evenodd" fill-opacity="1"/>
<polyline clip-path="url(#clip771)" style="stroke:#000000; stroke-linecap:round; stroke-linejoin:round; stroke-width:4; stroke-opacity:1; fill:none" points="506.625,1423.18 506.625,1423.18 608.205,1423.18 506.625,1423.18 "/>
<path clip-path="url(#clip771)" d="M608.205 922.84 L608.205 1423.18 L709.785 1423.18 L709.785 922.84 L608.205 922.84 L608.205 922.84  Z" fill="#009af9" fill-rule="evenodd" fill-opacity="1"/>
<polyline clip-path="url(#clip771)" style="stroke:#000000; stroke-linecap:round; stroke-linejoin:round; stroke-width:4; stroke-opacity:1; fill:none" points="608.205,922.84 608.205,1423.18 709.785,1423.18 709.785,922.84 608.205,922.84 "/>
<path clip-path="url(#clip771)" d="M709.785 547.584 L709.785 1423.18 L811.364 1423.18 L811.364 547.584 L709.785 547.584 L709.785 547.584  Z" fill="#009af9" fill-rule="evenodd" fill-opacity="1"/>
<polyline clip-path="url(#clip771)" style="stroke:#000000; stroke-linecap:round; stroke-linejoin:round; stroke-width:4; stroke-opacity:1; fill:none" points="709.785,547.584 709.785,1423.18 811.364,1423.18 811.364,547.584 709.785,547.584 "/>
<path clip-path="url(#clip771)" d="M811.364 922.84 L811.364 1423.18 L912.944 1423.18 L912.944 922.84 L811.364 922.84 L811.364 922.84  Z" fill="#009af9" fill-rule="evenodd" fill-opacity="1"/>
<polyline clip-path="url(#clip771)" style="stroke:#000000; stroke-linecap:round; stroke-linejoin:round; stroke-width:4; stroke-opacity:1; fill:none" points="811.364,922.84 811.364,1423.18 912.944,1423.18 912.944,922.84 811.364,922.84 "/>
<path clip-path="url(#clip771)" d="M912.944 422.499 L912.944 1423.18 L1014.52 1423.18 L1014.52 422.499 L912.944 422.499 L912.944 422.499  Z" fill="#009af9" fill-rule="evenodd" fill-opacity="1"/>
<polyline clip-path="url(#clip771)" style="stroke:#000000; stroke-linecap:round; stroke-linejoin:round; stroke-width:4; stroke-opacity:1; fill:none" points="912.944,422.499 912.944,1423.18 1014.52,1423.18 1014.52,422.499 912.944,422.499 "/>
<path clip-path="url(#clip771)" d="M1014.52 47.2441 L1014.52 1423.18 L1116.1 1423.18 L1116.1 47.2441 L1014.52 47.2441 L1014.52 47.2441  Z" fill="#009af9" fill-rule="evenodd" fill-opacity="1"/>
<polyline clip-path="url(#clip771)" style="stroke:#000000; stroke-linecap:round; stroke-linejoin:round; stroke-width:4; stroke-opacity:1; fill:none" points="1014.52,47.2441 1014.52,1423.18 1116.1,1423.18 1116.1,47.2441 1014.52,47.2441 "/>
<path clip-path="url(#clip771)" d="M1116.1 672.669 L1116.1 1423.18 L1217.68 1423.18 L1217.68 672.669 L1116.1 672.669 L1116.1 672.669  Z" fill="#009af9" fill-rule="evenodd" fill-opacity="1"/>
<polyline clip-path="url(#clip771)" style="stroke:#000000; stroke-linecap:round; stroke-linejoin:round; stroke-width:4; stroke-opacity:1; fill:none" points="1116.1,672.669 1116.1,1423.18 1217.68,1423.18 1217.68,672.669 1116.1,672.669 "/>
<path clip-path="url(#clip771)" d="M1217.68 47.2441 L1217.68 1423.18 L1319.26 1423.18 L1319.26 47.2441 L1217.68 47.2441 L1217.68 47.2441  Z" fill="#009af9" fill-rule="evenodd" fill-opacity="1"/>
<polyline clip-path="url(#clip771)" style="stroke:#000000; stroke-linecap:round; stroke-linejoin:round; stroke-width:4; stroke-opacity:1; fill:none" points="1217.68,47.2441 1217.68,1423.18 1319.26,1423.18 1319.26,47.2441 1217.68,47.2441 "/>
<path clip-path="url(#clip771)" d="M1319.26 797.755 L1319.26 1423.18 L1420.84 1423.18 L1420.84 797.755 L1319.26 797.755 L1319.26 797.755  Z" fill="#009af9" fill-rule="evenodd" fill-opacity="1"/>
<polyline clip-path="url(#clip771)" style="stroke:#000000; stroke-linecap:round; stroke-linejoin:round; stroke-width:4; stroke-opacity:1; fill:none" points="1319.26,797.755 1319.26,1423.18 1420.84,1423.18 1420.84,797.755 1319.26,797.755 "/>
<path clip-path="url(#clip771)" d="M1420.84 47.2441 L1420.84 1423.18 L1522.42 1423.18 L1522.42 47.2441 L1420.84 47.2441 L1420.84 47.2441  Z" fill="#009af9" fill-rule="evenodd" fill-opacity="1"/>
<polyline clip-path="url(#clip771)" style="stroke:#000000; stroke-linecap:round; stroke-linejoin:round; stroke-width:4; stroke-opacity:1; fill:none" points="1420.84,47.2441 1420.84,1423.18 1522.42,1423.18 1522.42,47.2441 1420.84,47.2441 "/>
<path clip-path="url(#clip771)" d="M1522.42 547.584 L1522.42 1423.18 L1624 1423.18 L1624 547.584 L1522.42 547.584 L1522.42 547.584  Z" fill="#009af9" fill-rule="evenodd" fill-opacity="1"/>
<polyline clip-path="url(#clip771)" style="stroke:#000000; stroke-linecap:round; stroke-linejoin:round; stroke-width:4; stroke-opacity:1; fill:none" points="1522.42,547.584 1522.42,1423.18 1624,1423.18 1624,547.584 1522.42,547.584 "/>
<path clip-path="url(#clip771)" d="M1624 422.499 L1624 1423.18 L1725.58 1423.18 L1725.58 422.499 L1624 422.499 L1624 422.499  Z" fill="#009af9" fill-rule="evenodd" fill-opacity="1"/>
<polyline clip-path="url(#clip771)" style="stroke:#000000; stroke-linecap:round; stroke-linejoin:round; stroke-width:4; stroke-opacity:1; fill:none" points="1624,422.499 1624,1423.18 1725.58,1423.18 1725.58,422.499 1624,422.499 "/>
<path clip-path="url(#clip771)" d="M1725.58 672.669 L1725.58 1423.18 L1827.16 1423.18 L1827.16 672.669 L1725.58 672.669 L1725.58 672.669  Z" fill="#009af9" fill-rule="evenodd" fill-opacity="1"/>
<polyline clip-path="url(#clip771)" style="stroke:#000000; stroke-linecap:round; stroke-linejoin:round; stroke-width:4; stroke-opacity:1; fill:none" points="1725.58,672.669 1725.58,1423.18 1827.16,1423.18 1827.16,672.669 1725.58,672.669 "/>
<path clip-path="url(#clip771)" d="M1827.16 1047.92 L1827.16 1423.18 L1928.74 1423.18 L1928.74 1047.92 L1827.16 1047.92 L1827.16 1047.92  Z" fill="#009af9" fill-rule="evenodd" fill-opacity="1"/>
<polyline clip-path="url(#clip771)" style="stroke:#000000; stroke-linecap:round; stroke-linejoin:round; stroke-width:4; stroke-opacity:1; fill:none" points="1827.16,1047.92 1827.16,1423.18 1928.74,1423.18 1928.74,1047.92 1827.16,1047.92 "/>
<path clip-path="url(#clip771)" d="M1928.74 1298.09 L1928.74 1423.18 L2030.32 1423.18 L2030.32 1298.09 L1928.74 1298.09 L1928.74 1298.09  Z" fill="#009af9" fill-rule="evenodd" fill-opacity="1"/>
<polyline clip-path="url(#clip771)" style="stroke:#000000; stroke-linecap:round; stroke-linejoin:round; stroke-width:4; stroke-opacity:1; fill:none" points="1928.74,1298.09 1928.74,1423.18 2030.32,1423.18 2030.32,1298.09 1928.74,1298.09 "/>
<path clip-path="url(#clip771)" d="M2030.32 1173.01 L2030.32 1423.18 L2131.9 1423.18 L2131.9 1173.01 L2030.32 1173.01 L2030.32 1173.01  Z" fill="#009af9" fill-rule="evenodd" fill-opacity="1"/>
<polyline clip-path="url(#clip771)" style="stroke:#000000; stroke-linecap:round; stroke-linejoin:round; stroke-width:4; stroke-opacity:1; fill:none" points="2030.32,1173.01 2030.32,1423.18 2131.9,1423.18 2131.9,1173.01 2030.32,1173.01 "/>
<path clip-path="url(#clip771)" d="M2131.9 1173.01 L2131.9 1423.18 L2233.48 1423.18 L2233.48 1173.01 L2131.9 1173.01 L2131.9 1173.01  Z" fill="#009af9" fill-rule="evenodd" fill-opacity="1"/>
<polyline clip-path="url(#clip771)" style="stroke:#000000; stroke-linecap:round; stroke-linejoin:round; stroke-width:4; stroke-opacity:1; fill:none" points="2131.9,1173.01 2131.9,1423.18 2233.48,1423.18 2233.48,1173.01 2131.9,1173.01 "/>
<circle clip-path="url(#clip771)" style="fill:#009af9; stroke:none; fill-opacity:0" cx="354.256" cy="1173.01" r="2"/>
<circle clip-path="url(#clip771)" style="fill:#009af9; stroke:none; fill-opacity:0" cx="455.835" cy="1173.01" r="2"/>
<circle clip-path="url(#clip771)" style="fill:#009af9; stroke:none; fill-opacity:0" cx="557.415" cy="1423.18" r="2"/>
<circle clip-path="url(#clip771)" style="fill:#009af9; stroke:none; fill-opacity:0" cx="658.995" cy="922.84" r="2"/>
<circle clip-path="url(#clip771)" style="fill:#009af9; stroke:none; fill-opacity:0" cx="760.575" cy="547.584" r="2"/>
<circle clip-path="url(#clip771)" style="fill:#009af9; stroke:none; fill-opacity:0" cx="862.154" cy="922.84" r="2"/>
<circle clip-path="url(#clip771)" style="fill:#009af9; stroke:none; fill-opacity:0" cx="963.734" cy="422.499" r="2"/>
<circle clip-path="url(#clip771)" style="fill:#009af9; stroke:none; fill-opacity:0" cx="1065.31" cy="47.2441" r="2"/>
<circle clip-path="url(#clip771)" style="fill:#009af9; stroke:none; fill-opacity:0" cx="1166.89" cy="672.669" r="2"/>
<circle clip-path="url(#clip771)" style="fill:#009af9; stroke:none; fill-opacity:0" cx="1268.47" cy="47.2441" r="2"/>
<circle clip-path="url(#clip771)" style="fill:#009af9; stroke:none; fill-opacity:0" cx="1370.05" cy="797.755" r="2"/>
<circle clip-path="url(#clip771)" style="fill:#009af9; stroke:none; fill-opacity:0" cx="1471.63" cy="47.2441" r="2"/>
<circle clip-path="url(#clip771)" style="fill:#009af9; stroke:none; fill-opacity:0" cx="1573.21" cy="547.584" r="2"/>
<circle clip-path="url(#clip771)" style="fill:#009af9; stroke:none; fill-opacity:0" cx="1674.79" cy="422.499" r="2"/>
<circle clip-path="url(#clip771)" style="fill:#009af9; stroke:none; fill-opacity:0" cx="1776.37" cy="672.669" r="2"/>
<circle clip-path="url(#clip771)" style="fill:#009af9; stroke:none; fill-opacity:0" cx="1877.95" cy="1047.92" r="2"/>
<circle clip-path="url(#clip771)" style="fill:#009af9; stroke:none; fill-opacity:0" cx="1979.53" cy="1298.09" r="2"/>
<circle clip-path="url(#clip771)" style="fill:#009af9; stroke:none; fill-opacity:0" cx="2081.11" cy="1173.01" r="2"/>
<circle clip-path="url(#clip771)" style="fill:#009af9; stroke:none; fill-opacity:0" cx="2182.69" cy="1173.01" r="2"/>
</svg>
