<?xml version="1.0" encoding="utf-8"?>
<svg xmlns="http://www.w3.org/2000/svg" xmlns:xlink="http://www.w3.org/1999/xlink" width="600" height="400" viewBox="0 0 2400 1600">
<defs>
  <clipPath id="clip930">
    <rect x="0" y="0" width="2400" height="1600"/>
  </clipPath>
</defs>
<path clip-path="url(#clip930)" d="M0 1600 L2400 1600 L2400 0 L0 0  Z" fill="#ffffff" fill-rule="evenodd" fill-opacity="1"/>
<defs>
  <clipPath id="clip931">
    <rect x="480" y="0" width="1681" height="1600"/>
  </clipPath>
</defs>
<path clip-path="url(#clip930)" d="M219.866 1423.18 L2352.76 1423.18 L2352.76 47.2441 L219.866 47.2441  Z" fill="#ffffff" fill-rule="evenodd" fill-opacity="1"/>
<defs>
  <clipPath id="clip932">
    <rect x="219" y="47" width="2134" height="1377"/>
  </clipPath>
</defs>
<polyline clip-path="url(#clip932)" style="stroke:#000000; stroke-linecap:round; stroke-linejoin:round; stroke-width:2; stroke-opacity:0.1; fill:none" points="503.804,1423.18 503.804,47.2441 "/>
<polyline clip-path="url(#clip932)" style="stroke:#000000; stroke-linecap:round; stroke-linejoin:round; stroke-width:2; stroke-opacity:0.1; fill:none" points="950.951,1423.18 950.951,47.2441 "/>
<polyline clip-path="url(#clip932)" style="stroke:#000000; stroke-linecap:round; stroke-linejoin:round; stroke-width:2; stroke-opacity:0.1; fill:none" points="1398.1,1423.18 1398.1,47.2441 "/>
<polyline clip-path="url(#clip932)" style="stroke:#000000; stroke-linecap:round; stroke-linejoin:round; stroke-width:2; stroke-opacity:0.1; fill:none" points="1845.24,1423.18 1845.24,47.2441 "/>
<polyline clip-path="url(#clip932)" style="stroke:#000000; stroke-linecap:round; stroke-linejoin:round; stroke-width:2; stroke-opacity:0.1; fill:none" points="2292.39,1423.18 2292.39,47.2441 "/>
<polyline clip-path="url(#clip932)" style="stroke:#000000; stroke-linecap:round; stroke-linejoin:round; stroke-width:2; stroke-opacity:0.1; fill:none" points="219.866,1404.08 2352.76,1404.08 "/>
<polyline clip-path="url(#clip932)" style="stroke:#000000; stroke-linecap:round; stroke-linejoin:round; stroke-width:2; stroke-opacity:0.1; fill:none" points="219.866,1036.55 2352.76,1036.55 "/>
<polyline clip-path="url(#clip932)" style="stroke:#000000; stroke-linecap:round; stroke-linejoin:round; stroke-width:2; stroke-opacity:0.1; fill:none" points="219.866,669.014 2352.76,669.014 "/>
<polyline clip-path="url(#clip932)" style="stroke:#000000; stroke-linecap:round; stroke-linejoin:round; stroke-width:2; stroke-opacity:0.1; fill:none" points="219.866,301.48 2352.76,301.48 "/>
<polyline clip-path="url(#clip930)" style="stroke:#000000; stroke-linecap:round; stroke-linejoin:round; stroke-width:4; stroke-opacity:1; fill:none" points="219.866,1423.18 2352.76,1423.18 "/>
<polyline clip-path="url(#clip930)" style="stroke:#000000; stroke-linecap:round; stroke-linejoin:round; stroke-width:4; stroke-opacity:1; fill:none" points="503.804,1423.18 503.804,1404.28 "/>
<polyline clip-path="url(#clip930)" style="stroke:#000000; stroke-linecap:round; stroke-linejoin:round; stroke-width:4; stroke-opacity:1; fill:none" points="950.951,1423.18 950.951,1404.28 "/>
<polyline clip-path="url(#clip930)" style="stroke:#000000; stroke-linecap:round; stroke-linejoin:round; stroke-width:4; stroke-opacity:1; fill:none" points="1398.1,1423.18 1398.1,1404.28 "/>
<polyline clip-path="url(#clip930)" style="stroke:#000000; stroke-linecap:round; stroke-linejoin:round; stroke-width:4; stroke-opacity:1; fill:none" points="1845.24,1423.18 1845.24,1404.28 "/>
<polyline clip-path="url(#clip930)" style="stroke:#000000; stroke-linecap:round; stroke-linejoin:round; stroke-width:4; stroke-opacity:1; fill:none" points="2292.39,1423.18 2292.39,1404.28 "/>
<path clip-path="url(#clip930)" d="M498.457 1481.64 L514.777 1481.64 L514.777 1485.58 L492.832 1485.58 L492.832 1481.64 Q495.494 1478.89 500.078 1474.26 Q504.684 1469.61 505.865 1468.27 Q508.11 1465.74 508.99 1464.01 Q509.892 1462.25 509.892 1460.56 Q509.892 1457.8 507.948 1456.07 Q506.027 1454.33 502.925 1454.33 Q500.726 1454.33 498.272 1455.09 Q495.841 1455.86 493.064 1457.41 L493.064 1452.69 Q495.888 1451.55 498.341 1450.97 Q500.795 1450.39 502.832 1450.39 Q508.203 1450.39 511.397 1453.08 Q514.591 1455.77 514.591 1460.26 Q514.591 1462.39 513.781 1464.31 Q512.994 1466.2 510.888 1468.8 Q510.309 1469.47 507.207 1472.69 Q504.105 1475.88 498.457 1481.64 Z" fill="#000000" fill-rule="nonzero" fill-opacity="1" /><path clip-path="url(#clip930)" d="M953.96 1455.09 L942.155 1473.54 L953.96 1473.54 L953.96 1455.09 M952.733 1451.02 L958.613 1451.02 L958.613 1473.54 L963.544 1473.54 L963.544 1477.43 L958.613 1477.43 L958.613 1485.58 L953.96 1485.58 L953.96 1477.43 L938.359 1477.43 L938.359 1472.92 L952.733 1451.02 Z" fill="#000000" fill-rule="nonzero" fill-opacity="1" /><path clip-path="url(#clip930)" d="M1398.5 1466.44 Q1395.35 1466.44 1393.5 1468.59 Q1391.67 1470.74 1391.67 1474.49 Q1391.67 1478.22 1393.5 1480.39 Q1395.35 1482.55 1398.5 1482.55 Q1401.65 1482.55 1403.48 1480.39 Q1405.33 1478.22 1405.33 1474.49 Q1405.33 1470.74 1403.48 1468.59 Q1401.65 1466.44 1398.5 1466.44 M1407.79 1451.78 L1407.79 1456.04 Q1406.03 1455.21 1404.22 1454.77 Q1402.44 1454.33 1400.68 1454.33 Q1396.05 1454.33 1393.6 1457.45 Q1391.16 1460.58 1390.82 1466.9 Q1392.18 1464.89 1394.24 1463.82 Q1396.3 1462.73 1398.78 1462.73 Q1403.99 1462.73 1407 1465.9 Q1410.03 1469.05 1410.03 1474.49 Q1410.03 1479.82 1406.88 1483.03 Q1403.73 1486.25 1398.5 1486.25 Q1392.51 1486.25 1389.34 1481.67 Q1386.16 1477.06 1386.16 1468.33 Q1386.16 1460.14 1390.05 1455.28 Q1393.94 1450.39 1400.49 1450.39 Q1402.25 1450.39 1404.04 1450.74 Q1405.84 1451.09 1407.79 1451.78 Z" fill="#000000" fill-rule="nonzero" fill-opacity="1" /><path clip-path="url(#clip930)" d="M1845.24 1469.17 Q1841.91 1469.17 1839.99 1470.95 Q1838.09 1472.73 1838.09 1475.86 Q1838.09 1478.98 1839.99 1480.77 Q1841.91 1482.55 1845.24 1482.55 Q1848.58 1482.55 1850.5 1480.77 Q1852.42 1478.96 1852.42 1475.86 Q1852.42 1472.73 1850.5 1470.95 Q1848.6 1469.17 1845.24 1469.17 M1840.57 1467.18 Q1837.56 1466.44 1835.87 1464.38 Q1834.2 1462.32 1834.2 1459.35 Q1834.2 1455.21 1837.14 1452.8 Q1840.11 1450.39 1845.24 1450.39 Q1850.41 1450.39 1853.35 1452.8 Q1856.29 1455.21 1856.29 1459.35 Q1856.29 1462.32 1854.6 1464.38 Q1852.93 1466.44 1849.94 1467.18 Q1853.32 1467.96 1855.2 1470.26 Q1857.1 1472.55 1857.1 1475.86 Q1857.1 1480.88 1854.02 1483.57 Q1850.96 1486.25 1845.24 1486.25 Q1839.53 1486.25 1836.45 1483.57 Q1833.39 1480.88 1833.39 1475.86 Q1833.39 1472.55 1835.29 1470.26 Q1837.19 1467.96 1840.57 1467.18 M1838.86 1459.79 Q1838.86 1462.48 1840.52 1463.98 Q1842.21 1465.49 1845.24 1465.49 Q1848.25 1465.49 1849.94 1463.98 Q1851.66 1462.48 1851.66 1459.79 Q1851.66 1457.11 1849.94 1455.6 Q1848.25 1454.1 1845.24 1454.1 Q1842.21 1454.1 1840.52 1455.6 Q1838.86 1457.11 1838.86 1459.79 Z" fill="#000000" fill-rule="nonzero" fill-opacity="1" /><path clip-path="url(#clip930)" d="M2267.08 1481.64 L2274.72 1481.64 L2274.72 1455.28 L2266.41 1456.95 L2266.41 1452.69 L2274.67 1451.02 L2279.35 1451.02 L2279.35 1481.64 L2286.99 1481.64 L2286.99 1485.58 L2267.08 1485.58 L2267.08 1481.64 Z" fill="#000000" fill-rule="nonzero" fill-opacity="1" /><path clip-path="url(#clip930)" d="M2306.43 1454.1 Q2302.82 1454.1 2300.99 1457.66 Q2299.19 1461.2 2299.19 1468.33 Q2299.19 1475.44 2300.99 1479.01 Q2302.82 1482.55 2306.43 1482.55 Q2310.06 1482.55 2311.87 1479.01 Q2313.7 1475.44 2313.7 1468.33 Q2313.7 1461.2 2311.87 1457.66 Q2310.06 1454.1 2306.43 1454.1 M2306.43 1450.39 Q2312.24 1450.39 2315.3 1455 Q2318.37 1459.58 2318.37 1468.33 Q2318.37 1477.06 2315.3 1481.67 Q2312.24 1486.25 2306.43 1486.25 Q2300.62 1486.25 2297.54 1481.67 Q2294.49 1477.06 2294.49 1468.33 Q2294.49 1459.58 2297.54 1455 Q2300.62 1450.39 2306.43 1450.39 Z" fill="#000000" fill-rule="nonzero" fill-opacity="1" /><path clip-path="url(#clip930)" d="M1189.74 1520.52 L1217.05 1520.52 L1217.05 1525.93 L1196.17 1525.93 L1196.17 1539.94 L1215.02 1539.94 L1215.02 1545.35 L1196.17 1545.35 L1196.17 1568.04 L1189.74 1568.04 L1189.74 1520.52 Z" fill="#000000" fill-rule="nonzero" fill-opacity="1" /><path clip-path="url(#clip930)" d="M1237.2 1550.12 Q1230.1 1550.12 1227.36 1551.75 Q1224.63 1553.37 1224.63 1557.29 Q1224.63 1560.4 1226.66 1562.25 Q1228.73 1564.07 1232.27 1564.07 Q1237.14 1564.07 1240.06 1560.63 Q1243.02 1557.16 1243.02 1551.43 L1243.02 1550.12 L1237.2 1550.12 M1248.88 1547.71 L1248.88 1568.04 L1243.02 1568.04 L1243.02 1562.63 Q1241.02 1565.88 1238.03 1567.44 Q1235.04 1568.97 1230.71 1568.97 Q1225.23 1568.97 1221.99 1565.91 Q1218.77 1562.82 1218.77 1557.67 Q1218.77 1551.65 1222.78 1548.6 Q1226.82 1545.54 1234.81 1545.54 L1243.02 1545.54 L1243.02 1544.97 Q1243.02 1540.93 1240.35 1538.73 Q1237.71 1536.5 1232.9 1536.5 Q1229.85 1536.5 1226.95 1537.23 Q1224.05 1537.97 1221.38 1539.43 L1221.38 1534.02 Q1224.6 1532.78 1227.62 1532.17 Q1230.64 1531.54 1233.51 1531.54 Q1241.24 1531.54 1245.06 1535.55 Q1248.88 1539.56 1248.88 1547.71 Z" fill="#000000" fill-rule="nonzero" fill-opacity="1" /><path clip-path="url(#clip930)" d="M1286.6 1533.76 L1286.6 1539.24 Q1284.11 1537.87 1281.6 1537.2 Q1279.12 1536.5 1276.57 1536.5 Q1270.87 1536.5 1267.72 1540.13 Q1264.57 1543.73 1264.57 1550.25 Q1264.57 1556.78 1267.72 1560.4 Q1270.87 1564 1276.57 1564 Q1279.12 1564 1281.6 1563.33 Q1284.11 1562.63 1286.6 1561.26 L1286.6 1566.68 Q1284.15 1567.82 1281.5 1568.39 Q1278.9 1568.97 1275.93 1568.97 Q1267.88 1568.97 1263.14 1563.91 Q1258.4 1558.85 1258.4 1550.25 Q1258.4 1541.53 1263.17 1536.53 Q1267.98 1531.54 1276.32 1531.54 Q1279.02 1531.54 1281.6 1532.11 Q1284.18 1532.65 1286.6 1533.76 Z" fill="#000000" fill-rule="nonzero" fill-opacity="1" /><path clip-path="url(#clip930)" d="M1302.58 1522.27 L1302.58 1532.4 L1314.64 1532.4 L1314.64 1536.95 L1302.58 1536.95 L1302.58 1556.3 Q1302.58 1560.66 1303.75 1561.9 Q1304.96 1563.14 1308.62 1563.14 L1314.64 1563.14 L1314.64 1568.04 L1308.62 1568.04 Q1301.84 1568.04 1299.27 1565.53 Q1296.69 1562.98 1296.69 1556.3 L1296.69 1536.95 L1292.39 1536.95 L1292.39 1532.4 L1296.69 1532.4 L1296.69 1522.27 L1302.58 1522.27 Z" fill="#000000" fill-rule="nonzero" fill-opacity="1" /><path clip-path="url(#clip930)" d="M1336.15 1536.5 Q1331.44 1536.5 1328.71 1540.19 Q1325.97 1543.85 1325.97 1550.25 Q1325.97 1556.65 1328.67 1560.34 Q1331.41 1564 1336.15 1564 Q1340.83 1564 1343.57 1560.31 Q1346.31 1556.62 1346.31 1550.25 Q1346.31 1543.92 1343.57 1540.23 Q1340.83 1536.5 1336.15 1536.5 M1336.15 1531.54 Q1343.79 1531.54 1348.15 1536.5 Q1352.51 1541.47 1352.51 1550.25 Q1352.51 1559 1348.15 1564 Q1343.79 1568.97 1336.15 1568.97 Q1328.48 1568.97 1324.12 1564 Q1319.79 1559 1319.79 1550.25 Q1319.79 1541.47 1324.12 1536.5 Q1328.48 1531.54 1336.15 1531.54 Z" fill="#000000" fill-rule="nonzero" fill-opacity="1" /><path clip-path="url(#clip930)" d="M1382.88 1537.87 Q1381.89 1537.3 1380.71 1537.04 Q1379.57 1536.76 1378.17 1536.76 Q1373.2 1536.76 1370.53 1540 Q1367.89 1543.22 1367.89 1549.27 L1367.89 1568.04 L1362 1568.04 L1362 1532.4 L1367.89 1532.4 L1367.89 1537.93 Q1369.73 1534.69 1372.69 1533.13 Q1375.65 1531.54 1379.89 1531.54 Q1380.49 1531.54 1381.22 1531.63 Q1381.96 1531.7 1382.85 1531.85 L1382.88 1537.87 Z" fill="#000000" fill-rule="nonzero" fill-opacity="1" /><polyline clip-path="url(#clip930)" style="stroke:#000000; stroke-linecap:round; stroke-linejoin:round; stroke-width:4; stroke-opacity:1; fill:none" points="219.866,1423.18 219.866,47.2441 "/>
<polyline clip-path="url(#clip930)" style="stroke:#000000; stroke-linecap:round; stroke-linejoin:round; stroke-width:4; stroke-opacity:1; fill:none" points="219.866,1404.08 238.764,1404.08 "/>
<polyline clip-path="url(#clip930)" style="stroke:#000000; stroke-linecap:round; stroke-linejoin:round; stroke-width:4; stroke-opacity:1; fill:none" points="219.866,1036.55 238.764,1036.55 "/>
<polyline clip-path="url(#clip930)" style="stroke:#000000; stroke-linecap:round; stroke-linejoin:round; stroke-width:4; stroke-opacity:1; fill:none" points="219.866,669.014 238.764,669.014 "/>
<polyline clip-path="url(#clip930)" style="stroke:#000000; stroke-linecap:round; stroke-linejoin:round; stroke-width:4; stroke-opacity:1; fill:none" points="219.866,301.48 238.764,301.48 "/>
<path clip-path="url(#clip930)" d="M126.691 1389.88 Q123.08 1389.88 121.251 1393.45 Q119.445 1396.99 119.445 1404.12 Q119.445 1411.22 121.251 1414.79 Q123.08 1418.33 126.691 1418.33 Q130.325 1418.33 132.13 1414.79 Q133.959 1411.22 133.959 1404.12 Q133.959 1396.99 132.13 1393.45 Q130.325 1389.88 126.691 1389.88 M126.691 1386.18 Q132.501 1386.18 135.556 1390.78 Q138.635 1395.37 138.635 1404.12 Q138.635 1412.84 135.556 1417.45 Q132.501 1422.03 126.691 1422.03 Q120.88 1422.03 117.802 1417.45 Q114.746 1412.84 114.746 1404.12 Q114.746 1395.37 117.802 1390.78 Q120.88 1386.18 126.691 1386.18 Z" fill="#000000" fill-rule="nonzero" fill-opacity="1" /><path clip-path="url(#clip930)" d="M146.853 1415.48 L151.737 1415.48 L151.737 1421.36 L146.853 1421.36 L146.853 1415.48 Z" fill="#000000" fill-rule="nonzero" fill-opacity="1" /><path clip-path="url(#clip930)" d="M171.922 1389.88 Q168.311 1389.88 166.482 1393.45 Q164.677 1396.99 164.677 1404.12 Q164.677 1411.22 166.482 1414.79 Q168.311 1418.33 171.922 1418.33 Q175.556 1418.33 177.362 1414.79 Q179.19 1411.22 179.19 1404.12 Q179.19 1396.99 177.362 1393.45 Q175.556 1389.88 171.922 1389.88 M171.922 1386.18 Q177.732 1386.18 180.788 1390.78 Q183.866 1395.37 183.866 1404.12 Q183.866 1412.84 180.788 1417.45 Q177.732 1422.03 171.922 1422.03 Q166.112 1422.03 163.033 1417.45 Q159.978 1412.84 159.978 1404.12 Q159.978 1395.37 163.033 1390.78 Q166.112 1386.18 171.922 1386.18 Z" fill="#000000" fill-rule="nonzero" fill-opacity="1" /><path clip-path="url(#clip930)" d="M128.288 1022.35 Q124.677 1022.35 122.848 1025.91 Q121.043 1029.45 121.043 1036.58 Q121.043 1043.69 122.848 1047.25 Q124.677 1050.8 128.288 1050.8 Q131.922 1050.8 133.728 1047.25 Q135.556 1043.69 135.556 1036.58 Q135.556 1029.45 133.728 1025.91 Q131.922 1022.35 128.288 1022.35 M128.288 1018.64 Q134.098 1018.64 137.154 1023.25 Q140.232 1027.83 140.232 1036.58 Q140.232 1045.31 137.154 1049.92 Q134.098 1054.5 128.288 1054.5 Q122.478 1054.5 119.399 1049.92 Q116.343 1045.31 116.343 1036.58 Q116.343 1027.83 119.399 1023.25 Q122.478 1018.64 128.288 1018.64 Z" fill="#000000" fill-rule="nonzero" fill-opacity="1" /><path clip-path="url(#clip930)" d="M148.45 1047.95 L153.334 1047.95 L153.334 1053.83 L148.45 1053.83 L148.45 1047.95 Z" fill="#000000" fill-rule="nonzero" fill-opacity="1" /><path clip-path="url(#clip930)" d="M167.547 1049.89 L183.866 1049.89 L183.866 1053.83 L161.922 1053.83 L161.922 1049.89 Q164.584 1047.14 169.167 1042.51 Q173.774 1037.86 174.954 1036.51 Q177.2 1033.99 178.079 1032.25 Q178.982 1030.5 178.982 1028.81 Q178.982 1026.05 177.038 1024.31 Q175.116 1022.58 172.014 1022.58 Q169.815 1022.58 167.362 1023.34 Q164.931 1024.11 162.153 1025.66 L162.153 1020.94 Q164.977 1019.8 167.431 1019.22 Q169.885 1018.64 171.922 1018.64 Q177.292 1018.64 180.487 1021.33 Q183.681 1024.01 183.681 1028.5 Q183.681 1030.63 182.871 1032.56 Q182.084 1034.45 179.977 1037.05 Q179.399 1037.72 176.297 1040.94 Q173.195 1044.13 167.547 1049.89 Z" fill="#000000" fill-rule="nonzero" fill-opacity="1" /><path clip-path="url(#clip930)" d="M126.205 654.813 Q122.593 654.813 120.765 658.377 Q118.959 661.919 118.959 669.049 Q118.959 676.155 120.765 679.72 Q122.593 683.262 126.205 683.262 Q129.839 683.262 131.644 679.72 Q133.473 676.155 133.473 669.049 Q133.473 661.919 131.644 658.377 Q129.839 654.813 126.205 654.813 M126.205 651.109 Q132.015 651.109 135.07 655.715 Q138.149 660.299 138.149 669.049 Q138.149 677.776 135.07 682.382 Q132.015 686.965 126.205 686.965 Q120.394 686.965 117.316 682.382 Q114.26 677.776 114.26 669.049 Q114.26 660.299 117.316 655.715 Q120.394 651.109 126.205 651.109 Z" fill="#000000" fill-rule="nonzero" fill-opacity="1" /><path clip-path="url(#clip930)" d="M146.366 680.414 L151.251 680.414 L151.251 686.294 L146.366 686.294 L146.366 680.414 Z" fill="#000000" fill-rule="nonzero" fill-opacity="1" /><path clip-path="url(#clip930)" d="M174.283 655.808 L162.477 674.257 L174.283 674.257 L174.283 655.808 M173.056 651.734 L178.936 651.734 L178.936 674.257 L183.866 674.257 L183.866 678.146 L178.936 678.146 L178.936 686.294 L174.283 686.294 L174.283 678.146 L158.681 678.146 L158.681 673.632 L173.056 651.734 Z" fill="#000000" fill-rule="nonzero" fill-opacity="1" /><path clip-path="url(#clip930)" d="M126.529 287.278 Q122.918 287.278 121.089 290.843 Q119.283 294.385 119.283 301.514 Q119.283 308.621 121.089 312.185 Q122.918 315.727 126.529 315.727 Q130.163 315.727 131.968 312.185 Q133.797 308.621 133.797 301.514 Q133.797 294.385 131.968 290.843 Q130.163 287.278 126.529 287.278 M126.529 283.575 Q132.339 283.575 135.394 288.181 Q138.473 292.764 138.473 301.514 Q138.473 310.241 135.394 314.848 Q132.339 319.431 126.529 319.431 Q120.718 319.431 117.64 314.848 Q114.584 310.241 114.584 301.514 Q114.584 292.764 117.64 288.181 Q120.718 283.575 126.529 283.575 Z" fill="#000000" fill-rule="nonzero" fill-opacity="1" /><path clip-path="url(#clip930)" d="M146.691 312.88 L151.575 312.88 L151.575 318.76 L146.691 318.76 L146.691 312.88 Z" fill="#000000" fill-rule="nonzero" fill-opacity="1" /><path clip-path="url(#clip930)" d="M172.339 299.616 Q169.19 299.616 167.339 301.769 Q165.51 303.922 165.51 307.672 Q165.51 311.398 167.339 313.574 Q169.19 315.727 172.339 315.727 Q175.487 315.727 177.315 313.574 Q179.167 311.398 179.167 307.672 Q179.167 303.922 177.315 301.769 Q175.487 299.616 172.339 299.616 M181.621 284.963 L181.621 289.223 Q179.862 288.389 178.056 287.95 Q176.274 287.51 174.514 287.51 Q169.885 287.51 167.431 290.635 Q165.001 293.76 164.653 300.079 Q166.019 298.065 168.079 297 Q170.139 295.912 172.616 295.912 Q177.825 295.912 180.834 299.084 Q183.866 302.232 183.866 307.672 Q183.866 312.996 180.718 316.213 Q177.57 319.431 172.339 319.431 Q166.343 319.431 163.172 314.848 Q160.001 310.241 160.001 301.514 Q160.001 293.32 163.89 288.459 Q167.778 283.575 174.329 283.575 Q176.089 283.575 177.871 283.922 Q179.676 284.269 181.621 284.963 Z" fill="#000000" fill-rule="nonzero" fill-opacity="1" /><path clip-path="url(#clip930)" d="M41.7242 895.58 Q42.4244 893.511 44.7161 891.57 Q47.0077 889.596 51.0181 887.623 L64.0042 881.098 L64.0042 888.005 L51.8138 894.084 Q47.0395 896.439 45.48 898.667 Q43.9204 900.864 43.9204 904.683 L43.9204 911.685 L64.0042 911.685 L64.0042 918.115 L16.4842 918.115 L16.4842 903.601 Q16.4842 895.453 19.8898 891.442 Q23.2955 887.432 30.1704 887.432 Q34.6582 887.432 37.6183 889.533 Q40.5784 891.601 41.7242 895.58 M21.7677 911.685 L38.6368 911.685 L38.6368 903.601 Q38.6368 898.954 36.5043 896.599 Q34.34 894.211 30.1704 894.211 Q26.0009 894.211 23.9002 896.599 Q21.7677 898.954 21.7677 903.601 L21.7677 911.685 Z" fill="#000000" fill-rule="nonzero" fill-opacity="1" /><path clip-path="url(#clip930)" d="M49.9359 876.61 L28.3562 876.61 L28.3562 870.754 L49.7131 870.754 Q54.7739 870.754 57.3202 868.78 Q59.8346 866.807 59.8346 862.86 Q59.8346 858.118 56.8109 855.381 Q53.7872 852.612 48.5673 852.612 L28.3562 852.612 L28.3562 846.755 L64.0042 846.755 L64.0042 852.612 L58.5296 852.612 Q61.7762 854.744 63.3676 857.577 Q64.9272 860.378 64.9272 864.102 Q64.9272 870.245 61.1078 873.427 Q57.2883 876.61 49.9359 876.61 M27.4968 861.874 L27.4968 861.874 Z" fill="#000000" fill-rule="nonzero" fill-opacity="1" /><path clip-path="url(#clip930)" d="M42.4881 805.06 L64.0042 805.06 L64.0042 810.916 L42.679 810.916 Q37.6183 810.916 35.1038 812.89 Q32.5894 814.863 32.5894 818.81 Q32.5894 823.552 35.6131 826.289 Q38.6368 829.027 43.8567 829.027 L64.0042 829.027 L64.0042 834.915 L28.3562 834.915 L28.3562 829.027 L33.8944 829.027 Q30.6797 826.926 29.0883 824.093 Q27.4968 821.229 27.4968 817.505 Q27.4968 811.362 31.3163 808.211 Q35.1038 805.06 42.4881 805.06 Z" fill="#000000" fill-rule="nonzero" fill-opacity="1" /><path clip-path="url(#clip930)" d="M18.2347 787.586 L28.3562 787.586 L28.3562 775.523 L32.9077 775.523 L32.9077 787.586 L52.2594 787.586 Q56.6199 787.586 57.8613 786.408 Q59.1026 785.199 59.1026 781.538 L59.1026 775.523 L64.0042 775.523 L64.0042 781.538 Q64.0042 788.318 61.4897 790.896 Q58.9434 793.474 52.2594 793.474 L32.9077 793.474 L32.9077 797.771 L28.3562 797.771 L28.3562 793.474 L18.2347 793.474 L18.2347 787.586 Z" fill="#000000" fill-rule="nonzero" fill-opacity="1" /><path clip-path="url(#clip930)" d="M28.3562 767.82 L28.3562 761.964 L64.0042 761.964 L64.0042 767.82 L28.3562 767.82 M14.479 767.82 L14.479 761.964 L21.895 761.964 L21.895 767.82 L14.479 767.82 Z" fill="#000000" fill-rule="nonzero" fill-opacity="1" /><path clip-path="url(#clip930)" d="M35.1993 721.955 Q31.2526 719.759 29.3747 716.704 Q27.4968 713.648 27.4968 709.51 Q27.4968 703.94 31.4117 700.917 Q35.2948 697.893 42.4881 697.893 L64.0042 697.893 L64.0042 703.781 L42.679 703.781 Q37.5546 703.781 35.072 705.596 Q32.5894 707.41 32.5894 711.134 Q32.5894 715.685 35.6131 718.327 Q38.6368 720.969 43.8567 720.969 L64.0042 720.969 L64.0042 726.857 L42.679 726.857 Q37.5228 726.857 35.072 728.671 Q32.5894 730.485 32.5894 734.273 Q32.5894 738.761 35.6449 741.403 Q38.6686 744.044 43.8567 744.044 L64.0042 744.044 L64.0042 749.933 L28.3562 749.933 L28.3562 744.044 L33.8944 744.044 Q30.616 742.039 29.0564 739.238 Q27.4968 736.437 27.4968 732.586 Q27.4968 728.703 29.4702 725.998 Q31.4436 723.26 35.1993 721.955 Z" fill="#000000" fill-rule="nonzero" fill-opacity="1" /><path clip-path="url(#clip930)" d="M44.7161 655.72 L47.5806 655.72 L47.5806 682.647 Q53.6281 682.265 56.8109 679.019 Q59.9619 675.74 59.9619 669.916 Q59.9619 666.542 59.1344 663.391 Q58.3069 660.208 56.6518 657.089 L62.1899 657.089 Q63.5267 660.24 64.227 663.55 Q64.9272 666.86 64.9272 670.266 Q64.9272 678.796 59.9619 683.793 Q54.9967 688.758 46.5303 688.758 Q37.7774 688.758 32.6531 684.048 Q27.4968 679.305 27.4968 671.284 Q27.4968 664.091 32.1438 659.922 Q36.7589 655.72 44.7161 655.72 M42.9973 661.577 Q38.1912 661.64 35.3266 664.282 Q32.4621 666.892 32.4621 671.221 Q32.4621 676.122 35.2312 679.082 Q38.0002 682.011 43.0292 682.456 L42.9973 661.577 Z" fill="#000000" fill-rule="nonzero" fill-opacity="1" /><path clip-path="url(#clip930)" d="M14.479 625.929 L14.479 612.433 L19.0304 612.433 L19.0304 620.072 L68.0464 620.072 L68.0464 612.433 L72.5979 612.433 L72.5979 625.929 L14.479 625.929 Z" fill="#000000" fill-rule="nonzero" fill-opacity="1" /><path clip-path="url(#clip930)" d="M29.4065 577.231 L34.9447 577.231 Q33.6716 579.714 33.035 582.387 Q32.3984 585.061 32.3984 587.925 Q32.3984 592.286 33.7352 594.482 Q35.072 596.646 37.7456 596.646 Q39.7826 596.646 40.9603 595.087 Q42.1061 593.527 43.1565 588.817 L43.6021 586.811 Q44.9389 580.573 47.3897 577.963 Q49.8086 575.321 54.1691 575.321 Q59.1344 575.321 62.0308 579.268 Q64.9272 583.183 64.9272 590.058 Q64.9272 592.923 64.3543 596.042 Q63.8132 599.129 62.6992 602.567 L56.6518 602.567 Q58.3387 599.32 59.198 596.169 Q60.0256 593.018 60.0256 589.931 Q60.0256 585.793 58.6251 583.565 Q57.1929 581.337 54.6147 581.337 Q52.2276 581.337 50.9545 582.96 Q49.6813 584.552 48.5037 589.994 L48.0262 592.031 Q46.8804 597.474 44.5251 599.893 Q42.138 602.312 38.0002 602.312 Q32.9713 602.312 30.2341 598.747 Q27.4968 595.182 27.4968 588.626 Q27.4968 585.379 27.9743 582.515 Q28.4517 579.65 29.4065 577.231 Z" fill="#000000" fill-rule="nonzero" fill-opacity="1" /><path clip-path="url(#clip930)" d="M14.479 552.309 L72.5979 552.309 L72.5979 565.805 L68.0464 565.805 L68.0464 558.198 L19.0304 558.198 L19.0304 565.805 L14.479 565.805 L14.479 552.309 Z" fill="#000000" fill-rule="nonzero" fill-opacity="1" /><circle clip-path="url(#clip932)" cx="280.231" cy="1384.24" r="14.4" fill="#009af9" fill-rule="evenodd" fill-opacity="1" stroke="#000000" stroke-opacity="1" stroke-width="3.2"/>
<circle clip-path="url(#clip932)" cx="503.804" cy="1339.42" r="14.4" fill="#009af9" fill-rule="evenodd" fill-opacity="1" stroke="#000000" stroke-opacity="1" stroke-width="3.2"/>
<circle clip-path="url(#clip932)" cx="727.378" cy="1263.59" r="14.4" fill="#009af9" fill-rule="evenodd" fill-opacity="1" stroke="#000000" stroke-opacity="1" stroke-width="3.2"/>
<circle clip-path="url(#clip932)" cx="950.951" cy="1179.36" r="14.4" fill="#009af9" fill-rule="evenodd" fill-opacity="1" stroke="#000000" stroke-opacity="1" stroke-width="3.2"/>
<circle clip-path="url(#clip932)" cx="1174.52" cy="1062.3" r="14.4" fill="#009af9" fill-rule="evenodd" fill-opacity="1" stroke="#000000" stroke-opacity="1" stroke-width="3.2"/>
<circle clip-path="url(#clip932)" cx="1398.1" cy="924.015" r="14.4" fill="#009af9" fill-rule="evenodd" fill-opacity="1" stroke="#000000" stroke-opacity="1" stroke-width="3.2"/>
<circle clip-path="url(#clip932)" cx="1621.67" cy="752.984" r="14.4" fill="#009af9" fill-rule="evenodd" fill-opacity="1" stroke="#000000" stroke-opacity="1" stroke-width="3.2"/>
<circle clip-path="url(#clip932)" cx="1845.24" cy="490.001" r="14.4" fill="#009af9" fill-rule="evenodd" fill-opacity="1" stroke="#000000" stroke-opacity="1" stroke-width="3.2"/>
<circle clip-path="url(#clip932)" cx="2068.82" cy="351.762" r="14.4" fill="#009af9" fill-rule="evenodd" fill-opacity="1" stroke="#000000" stroke-opacity="1" stroke-width="3.2"/>
<circle clip-path="url(#clip932)" cx="2292.39" cy="107.643" r="14.4" fill="#009af9" fill-rule="evenodd" fill-opacity="1" stroke="#000000" stroke-opacity="1" stroke-width="3.2"/>
<polyline clip-path="url(#clip932)" style="stroke:#e26f46; stroke-linecap:round; stroke-linejoin:round; stroke-width:4; stroke-opacity:1; fill:none" points="280.231,1372.94 503.804,1333.94 727.378,1268.96 950.951,1177.97 1174.52,1061 1398.1,918.025 1621.67,749.058 1845.24,554.095 2068.82,333.138 2292.39,86.1857 "/>
<path clip-path="url(#clip930)" d="M290.963 248.629 L796.843 248.629 L796.843 93.1086 L290.963 93.1086  Z" fill="#ffffff" fill-rule="evenodd" fill-opacity="1"/>
<polyline clip-path="url(#clip930)" style="stroke:#000000; stroke-linecap:round; stroke-linejoin:round; stroke-width:4; stroke-opacity:1; fill:none" points="290.963,248.629 796.843,248.629 796.843,93.1086 290.963,93.1086 290.963,248.629 "/>
<circle clip-path="url(#clip930)" cx="385.758" cy="144.949" r="20.48" fill="#009af9" fill-rule="evenodd" fill-opacity="1" stroke="#000000" stroke-opacity="1" stroke-width="4.55111"/>
<path clip-path="url(#clip930)" d="M496.386 132.275 L490.043 149.474 L502.752 149.474 L496.386 132.275 M493.747 127.669 L499.048 127.669 L512.219 162.229 L507.358 162.229 L504.21 153.363 L488.631 153.363 L485.483 162.229 L480.553 162.229 L493.747 127.669 Z" fill="#000000" fill-rule="nonzero" fill-opacity="1" /><path clip-path="url(#clip930)" d="M534.904 137.298 L534.904 141.28 Q533.099 140.284 531.27 139.798 Q529.465 139.289 527.613 139.289 Q523.469 139.289 521.178 141.928 Q518.886 144.544 518.886 149.289 Q518.886 154.034 521.178 156.673 Q523.469 159.289 527.613 159.289 Q529.465 159.289 531.27 158.803 Q533.099 158.293 534.904 157.298 L534.904 161.233 Q533.122 162.067 531.201 162.483 Q529.303 162.9 527.15 162.9 Q521.293 162.9 517.844 159.219 Q514.395 155.539 514.395 149.289 Q514.395 142.946 517.867 139.312 Q521.363 135.678 527.428 135.678 Q529.395 135.678 531.27 136.095 Q533.145 136.488 534.904 137.298 Z" fill="#000000" fill-rule="nonzero" fill-opacity="1" /><path clip-path="url(#clip930)" d="M546.525 128.942 L546.525 136.303 L555.298 136.303 L555.298 139.613 L546.525 139.613 L546.525 153.687 Q546.525 156.858 547.381 157.761 Q548.261 158.664 550.923 158.664 L555.298 158.664 L555.298 162.229 L550.923 162.229 Q545.992 162.229 544.117 160.4 Q542.242 158.548 542.242 153.687 L542.242 139.613 L539.117 139.613 L539.117 136.303 L542.242 136.303 L542.242 128.942 L546.525 128.942 Z" fill="#000000" fill-rule="nonzero" fill-opacity="1" /><path clip-path="url(#clip930)" d="M560.46 151.997 L560.46 136.303 L564.719 136.303 L564.719 151.835 Q564.719 155.516 566.154 157.368 Q567.589 159.196 570.46 159.196 Q573.909 159.196 575.899 156.997 Q577.913 154.798 577.913 151.002 L577.913 136.303 L582.173 136.303 L582.173 162.229 L577.913 162.229 L577.913 158.247 Q576.362 160.608 574.302 161.766 Q572.265 162.9 569.557 162.9 Q565.089 162.9 562.775 160.122 Q560.46 157.344 560.46 151.997 M571.177 135.678 L571.177 135.678 Z" fill="#000000" fill-rule="nonzero" fill-opacity="1" /><path clip-path="url(#clip930)" d="M602.728 149.196 Q597.566 149.196 595.575 150.377 Q593.585 151.557 593.585 154.405 Q593.585 156.673 595.066 158.016 Q596.571 159.335 599.14 159.335 Q602.682 159.335 604.811 156.835 Q606.964 154.312 606.964 150.145 L606.964 149.196 L602.728 149.196 M611.223 147.437 L611.223 162.229 L606.964 162.229 L606.964 158.293 Q605.506 160.655 603.33 161.789 Q601.154 162.9 598.006 162.9 Q594.024 162.9 591.663 160.678 Q589.325 158.432 589.325 154.682 Q589.325 150.307 592.242 148.085 Q595.182 145.863 600.992 145.863 L606.964 145.863 L606.964 145.446 Q606.964 142.507 605.02 140.909 Q603.098 139.289 599.603 139.289 Q597.381 139.289 595.274 139.821 Q593.168 140.354 591.223 141.419 L591.223 137.483 Q593.561 136.581 595.76 136.141 Q597.96 135.678 600.043 135.678 Q605.668 135.678 608.446 138.594 Q611.223 141.511 611.223 147.437 Z" fill="#000000" fill-rule="nonzero" fill-opacity="1" /><path clip-path="url(#clip930)" d="M619.996 126.21 L624.256 126.21 L624.256 162.229 L619.996 162.229 L619.996 126.21 Z" fill="#000000" fill-rule="nonzero" fill-opacity="1" /><polyline clip-path="url(#clip930)" style="stroke:#e26f46; stroke-linecap:round; stroke-linejoin:round; stroke-width:4; stroke-opacity:1; fill:none" points="314.661,196.789 456.854,196.789 "/>
<path clip-path="url(#clip930)" d="M496.571 182.68 Q491.479 182.68 488.469 186.476 Q485.483 190.272 485.483 196.823 Q485.483 203.351 488.469 207.147 Q491.479 210.944 496.571 210.944 Q501.664 210.944 504.627 207.147 Q507.613 203.351 507.613 196.823 Q507.613 190.272 504.627 186.476 Q501.664 182.68 496.571 182.68 M503.122 213.444 L509.279 220.18 L503.631 220.18 L498.516 214.647 Q497.752 214.694 497.335 214.717 Q496.942 214.74 496.571 214.74 Q489.28 214.74 484.905 209.879 Q480.553 204.995 480.553 196.823 Q480.553 188.629 484.905 183.768 Q489.28 178.884 496.571 178.884 Q503.84 178.884 508.192 183.768 Q512.543 188.629 512.543 196.823 Q512.543 202.842 510.113 207.124 Q507.705 211.407 503.122 213.444 Z" fill="#000000" fill-rule="nonzero" fill-opacity="1" /><path clip-path="url(#clip930)" d="M519.233 203.837 L519.233 188.143 L523.492 188.143 L523.492 203.675 Q523.492 207.356 524.928 209.208 Q526.363 211.036 529.233 211.036 Q532.682 211.036 534.673 208.837 Q536.687 206.638 536.687 202.842 L536.687 188.143 L540.946 188.143 L540.946 214.069 L536.687 214.069 L536.687 210.087 Q535.136 212.448 533.076 213.606 Q531.039 214.74 528.33 214.74 Q523.863 214.74 521.548 211.962 Q519.233 209.184 519.233 203.837 M529.951 187.518 L529.951 187.518 Z" fill="#000000" fill-rule="nonzero" fill-opacity="1" /><path clip-path="url(#clip930)" d="M561.501 201.036 Q556.339 201.036 554.349 202.217 Q552.358 203.397 552.358 206.245 Q552.358 208.513 553.839 209.856 Q555.344 211.175 557.913 211.175 Q561.455 211.175 563.585 208.675 Q565.738 206.152 565.738 201.985 L565.738 201.036 L561.501 201.036 M569.997 199.277 L569.997 214.069 L565.738 214.069 L565.738 210.133 Q564.279 212.495 562.103 213.629 Q559.927 214.74 556.779 214.74 Q552.798 214.74 550.437 212.518 Q548.099 210.272 548.099 206.522 Q548.099 202.147 551.015 199.925 Q553.955 197.703 559.765 197.703 L565.738 197.703 L565.738 197.286 Q565.738 194.347 563.793 192.749 Q561.872 191.129 558.376 191.129 Q556.154 191.129 554.048 191.661 Q551.941 192.194 549.997 193.259 L549.997 189.323 Q552.335 188.421 554.534 187.981 Q556.733 187.518 558.816 187.518 Q564.441 187.518 567.219 190.434 Q569.997 193.351 569.997 199.277 Z" fill="#000000" fill-rule="nonzero" fill-opacity="1" /><path clip-path="url(#clip930)" d="M595.83 192.078 L595.83 178.05 L600.089 178.05 L600.089 214.069 L595.83 214.069 L595.83 210.18 Q594.487 212.495 592.427 213.629 Q590.39 214.74 587.52 214.74 Q582.821 214.74 579.858 210.99 Q576.918 207.24 576.918 201.129 Q576.918 195.018 579.858 191.268 Q582.821 187.518 587.52 187.518 Q590.39 187.518 592.427 188.652 Q594.487 189.763 595.83 192.078 M581.316 201.129 Q581.316 205.828 583.237 208.513 Q585.182 211.175 588.561 211.175 Q591.941 211.175 593.886 208.513 Q595.83 205.828 595.83 201.129 Q595.83 196.43 593.886 193.768 Q591.941 191.083 588.561 191.083 Q585.182 191.083 583.237 193.768 Q581.316 196.43 581.316 201.129 Z" fill="#000000" fill-rule="nonzero" fill-opacity="1" /><path clip-path="url(#clip930)" d="M623.885 192.124 Q623.168 191.708 622.311 191.522 Q621.478 191.314 620.459 191.314 Q616.848 191.314 614.904 193.675 Q612.983 196.013 612.983 200.411 L612.983 214.069 L608.7 214.069 L608.7 188.143 L612.983 188.143 L612.983 192.171 Q614.325 189.809 616.478 188.675 Q618.631 187.518 621.709 187.518 Q622.149 187.518 622.682 187.587 Q623.214 187.634 623.862 187.749 L623.885 192.124 Z" fill="#000000" fill-rule="nonzero" fill-opacity="1" /><path clip-path="url(#clip930)" d="M640.135 201.036 Q634.973 201.036 632.983 202.217 Q630.992 203.397 630.992 206.245 Q630.992 208.513 632.473 209.856 Q633.978 211.175 636.547 211.175 Q640.089 211.175 642.219 208.675 Q644.371 206.152 644.371 201.985 L644.371 201.036 L640.135 201.036 M648.631 199.277 L648.631 214.069 L644.371 214.069 L644.371 210.133 Q642.913 212.495 640.737 213.629 Q638.561 214.74 635.413 214.74 Q631.432 214.74 629.071 212.518 Q626.733 210.272 626.733 206.522 Q626.733 202.147 629.649 199.925 Q632.589 197.703 638.399 197.703 L644.371 197.703 L644.371 197.286 Q644.371 194.347 642.427 192.749 Q640.506 191.129 637.01 191.129 Q634.788 191.129 632.682 191.661 Q630.575 192.194 628.631 193.259 L628.631 189.323 Q630.969 188.421 633.168 187.981 Q635.367 187.518 637.45 187.518 Q643.075 187.518 645.853 190.434 Q648.631 193.351 648.631 199.277 Z" fill="#000000" fill-rule="nonzero" fill-opacity="1" /><path clip-path="url(#clip930)" d="M661.617 180.782 L661.617 188.143 L670.39 188.143 L670.39 191.453 L661.617 191.453 L661.617 205.527 Q661.617 208.698 662.473 209.601 Q663.353 210.504 666.015 210.504 L670.39 210.504 L670.39 214.069 L666.015 214.069 Q661.084 214.069 659.209 212.24 Q657.334 210.388 657.334 205.527 L657.334 191.453 L654.209 191.453 L654.209 188.143 L657.334 188.143 L657.334 180.782 L661.617 180.782 Z" fill="#000000" fill-rule="nonzero" fill-opacity="1" /><path clip-path="url(#clip930)" d="M675.992 188.143 L680.251 188.143 L680.251 214.069 L675.992 214.069 L675.992 188.143 M675.992 178.05 L680.251 178.05 L680.251 183.444 L675.992 183.444 L675.992 178.05 Z" fill="#000000" fill-rule="nonzero" fill-opacity="1" /><path clip-path="url(#clip930)" d="M707.82 189.138 L707.82 193.12 Q706.015 192.124 704.186 191.638 Q702.38 191.129 700.528 191.129 Q696.385 191.129 694.093 193.768 Q691.802 196.384 691.802 201.129 Q691.802 205.874 694.093 208.513 Q696.385 211.129 700.528 211.129 Q702.38 211.129 704.186 210.643 Q706.015 210.133 707.82 209.138 L707.82 213.073 Q706.038 213.907 704.116 214.323 Q702.218 214.74 700.065 214.74 Q694.209 214.74 690.76 211.059 Q687.311 207.379 687.311 201.129 Q687.311 194.786 690.783 191.152 Q694.278 187.518 700.343 187.518 Q702.311 187.518 704.186 187.935 Q706.061 188.328 707.82 189.138 Z" fill="#000000" fill-rule="nonzero" fill-opacity="1" /><path clip-path="url(#clip930)" d="M743.422 178.05 L743.422 181.592 L739.348 181.592 Q737.056 181.592 736.153 182.518 Q735.274 183.444 735.274 185.851 L735.274 188.143 L742.287 188.143 L742.287 191.453 L735.274 191.453 L735.274 214.069 L730.991 214.069 L730.991 191.453 L726.917 191.453 L726.917 188.143 L730.991 188.143 L730.991 186.337 Q730.991 182.009 733.005 180.041 Q735.019 178.05 739.394 178.05 L743.422 178.05 Z" fill="#000000" fill-rule="nonzero" fill-opacity="1" /><path clip-path="url(#clip930)" d="M746.987 188.143 L751.246 188.143 L751.246 214.069 L746.987 214.069 L746.987 188.143 M746.987 178.05 L751.246 178.05 L751.246 183.444 L746.987 183.444 L746.987 178.05 Z" fill="#000000" fill-rule="nonzero" fill-opacity="1" /><path clip-path="url(#clip930)" d="M764.371 180.782 L764.371 188.143 L773.144 188.143 L773.144 191.453 L764.371 191.453 L764.371 205.527 Q764.371 208.698 765.227 209.601 Q766.107 210.504 768.769 210.504 L773.144 210.504 L773.144 214.069 L768.769 214.069 Q763.838 214.069 761.963 212.24 Q760.088 210.388 760.088 205.527 L760.088 191.453 L756.963 191.453 L756.963 188.143 L760.088 188.143 L760.088 180.782 L764.371 180.782 Z" fill="#000000" fill-rule="nonzero" fill-opacity="1" /></svg>
