<?xml version="1.0" encoding="utf-8"?>
<svg xmlns="http://www.w3.org/2000/svg" xmlns:xlink="http://www.w3.org/1999/xlink" width="600" height="400" viewBox="0 0 2400 1600">
<defs>
  <clipPath id="clip750">
    <rect x="0" y="0" width="2400" height="1600"/>
  </clipPath>
</defs>
<path clip-path="url(#clip750)" d="M0 1600 L2400 1600 L2400 0 L0 0  Z" fill="#ffffff" fill-rule="evenodd" fill-opacity="1"/>
<defs>
  <clipPath id="clip751">
    <rect x="480" y="0" width="1681" height="1600"/>
  </clipPath>
</defs>
<path clip-path="url(#clip750)" d="M141.853 1486.45 L2352.76 1486.45 L2352.76 47.2441 L141.853 47.2441  Z" fill="#ffffff" fill-rule="evenodd" fill-opacity="1"/>
<defs>
  <clipPath id="clip752">
    <rect x="141" y="47" width="2212" height="1440"/>
  </clipPath>
</defs>
<polyline clip-path="url(#clip752)" style="stroke:#000000; stroke-linecap:round; stroke-linejoin:round; stroke-width:2; stroke-opacity:0.1; fill:none" points="263.457,1486.45 263.457,47.2441 "/>
<polyline clip-path="url(#clip752)" style="stroke:#000000; stroke-linecap:round; stroke-linejoin:round; stroke-width:2; stroke-opacity:0.1; fill:none" points="591.406,1486.45 591.406,47.2441 "/>
<polyline clip-path="url(#clip752)" style="stroke:#000000; stroke-linecap:round; stroke-linejoin:round; stroke-width:2; stroke-opacity:0.1; fill:none" points="919.355,1486.45 919.355,47.2441 "/>
<polyline clip-path="url(#clip752)" style="stroke:#000000; stroke-linecap:round; stroke-linejoin:round; stroke-width:2; stroke-opacity:0.1; fill:none" points="1247.3,1486.45 1247.3,47.2441 "/>
<polyline clip-path="url(#clip752)" style="stroke:#000000; stroke-linecap:round; stroke-linejoin:round; stroke-width:2; stroke-opacity:0.1; fill:none" points="1575.25,1486.45 1575.25,47.2441 "/>
<polyline clip-path="url(#clip752)" style="stroke:#000000; stroke-linecap:round; stroke-linejoin:round; stroke-width:2; stroke-opacity:0.1; fill:none" points="1903.2,1486.45 1903.2,47.2441 "/>
<polyline clip-path="url(#clip752)" style="stroke:#000000; stroke-linecap:round; stroke-linejoin:round; stroke-width:2; stroke-opacity:0.1; fill:none" points="2231.15,1486.45 2231.15,47.2441 "/>
<polyline clip-path="url(#clip752)" style="stroke:#000000; stroke-linecap:round; stroke-linejoin:round; stroke-width:2; stroke-opacity:0.1; fill:none" points="141.853,1486.45 2352.76,1486.45 "/>
<polyline clip-path="url(#clip752)" style="stroke:#000000; stroke-linecap:round; stroke-linejoin:round; stroke-width:2; stroke-opacity:0.1; fill:none" points="141.853,1112.63 2352.76,1112.63 "/>
<polyline clip-path="url(#clip752)" style="stroke:#000000; stroke-linecap:round; stroke-linejoin:round; stroke-width:2; stroke-opacity:0.1; fill:none" points="141.853,738.81 2352.76,738.81 "/>
<polyline clip-path="url(#clip752)" style="stroke:#000000; stroke-linecap:round; stroke-linejoin:round; stroke-width:2; stroke-opacity:0.1; fill:none" points="141.853,364.99 2352.76,364.99 "/>
<polyline clip-path="url(#clip750)" style="stroke:#000000; stroke-linecap:round; stroke-linejoin:round; stroke-width:4; stroke-opacity:1; fill:none" points="141.853,1486.45 2352.76,1486.45 "/>
<polyline clip-path="url(#clip750)" style="stroke:#000000; stroke-linecap:round; stroke-linejoin:round; stroke-width:4; stroke-opacity:1; fill:none" points="263.457,1486.45 263.457,1467.55 "/>
<polyline clip-path="url(#clip750)" style="stroke:#000000; stroke-linecap:round; stroke-linejoin:round; stroke-width:4; stroke-opacity:1; fill:none" points="591.406,1486.45 591.406,1467.55 "/>
<polyline clip-path="url(#clip750)" style="stroke:#000000; stroke-linecap:round; stroke-linejoin:round; stroke-width:4; stroke-opacity:1; fill:none" points="919.355,1486.45 919.355,1467.55 "/>
<polyline clip-path="url(#clip750)" style="stroke:#000000; stroke-linecap:round; stroke-linejoin:round; stroke-width:4; stroke-opacity:1; fill:none" points="1247.3,1486.45 1247.3,1467.55 "/>
<polyline clip-path="url(#clip750)" style="stroke:#000000; stroke-linecap:round; stroke-linejoin:round; stroke-width:4; stroke-opacity:1; fill:none" points="1575.25,1486.45 1575.25,1467.55 "/>
<polyline clip-path="url(#clip750)" style="stroke:#000000; stroke-linecap:round; stroke-linejoin:round; stroke-width:4; stroke-opacity:1; fill:none" points="1903.2,1486.45 1903.2,1467.55 "/>
<polyline clip-path="url(#clip750)" style="stroke:#000000; stroke-linecap:round; stroke-linejoin:round; stroke-width:4; stroke-opacity:1; fill:none" points="2231.15,1486.45 2231.15,1467.55 "/>
<path clip-path="url(#clip750)" d="M237.218 1530.21 Q240.575 1530.93 242.45 1533.2 Q244.348 1535.47 244.348 1538.8 Q244.348 1543.92 240.829 1546.72 Q237.311 1549.52 230.829 1549.52 Q228.653 1549.52 226.339 1549.08 Q224.047 1548.66 221.593 1547.81 L221.593 1543.29 Q223.538 1544.43 225.853 1545.01 Q228.167 1545.58 230.691 1545.58 Q235.089 1545.58 237.38 1543.85 Q239.695 1542.11 239.695 1538.8 Q239.695 1535.75 237.542 1534.03 Q235.413 1532.3 231.593 1532.3 L227.566 1532.3 L227.566 1528.45 L231.778 1528.45 Q235.228 1528.45 237.056 1527.09 Q238.885 1525.7 238.885 1523.11 Q238.885 1520.45 236.987 1519.03 Q235.112 1517.6 231.593 1517.6 Q229.672 1517.6 227.473 1518.01 Q225.274 1518.43 222.635 1519.31 L222.635 1515.14 Q225.297 1514.4 227.612 1514.03 Q229.95 1513.66 232.01 1513.66 Q237.334 1513.66 240.436 1516.09 Q243.538 1518.5 243.538 1522.62 Q243.538 1525.49 241.894 1527.48 Q240.251 1529.45 237.218 1530.21 Z" fill="#000000" fill-rule="nonzero" fill-opacity="1" /><path clip-path="url(#clip750)" d="M253.26 1514.29 L271.616 1514.29 L271.616 1518.22 L257.542 1518.22 L257.542 1526.7 Q258.561 1526.35 259.579 1526.19 Q260.598 1526 261.616 1526 Q267.403 1526 270.783 1529.17 Q274.163 1532.34 274.163 1537.76 Q274.163 1543.34 270.69 1546.44 Q267.218 1549.52 260.899 1549.52 Q258.723 1549.52 256.454 1549.15 Q254.209 1548.78 251.802 1548.04 L251.802 1543.34 Q253.885 1544.47 256.107 1545.03 Q258.329 1545.58 260.806 1545.58 Q264.811 1545.58 267.149 1543.48 Q269.487 1541.37 269.487 1537.76 Q269.487 1534.15 267.149 1532.04 Q264.811 1529.94 260.806 1529.94 Q258.931 1529.94 257.056 1530.35 Q255.204 1530.77 253.26 1531.65 L253.26 1514.29 Z" fill="#000000" fill-rule="nonzero" fill-opacity="1" /><path clip-path="url(#clip750)" d="M293.375 1517.37 Q289.764 1517.37 287.936 1520.93 Q286.13 1524.47 286.13 1531.6 Q286.13 1538.71 287.936 1542.27 Q289.764 1545.82 293.375 1545.82 Q297.01 1545.82 298.815 1542.27 Q300.644 1538.71 300.644 1531.6 Q300.644 1524.47 298.815 1520.93 Q297.01 1517.37 293.375 1517.37 M293.375 1513.66 Q299.186 1513.66 302.241 1518.27 Q305.32 1522.85 305.32 1531.6 Q305.32 1540.33 302.241 1544.94 Q299.186 1549.52 293.375 1549.52 Q287.565 1549.52 284.487 1544.94 Q281.431 1540.33 281.431 1531.6 Q281.431 1522.85 284.487 1518.27 Q287.565 1513.66 293.375 1513.66 Z" fill="#000000" fill-rule="nonzero" fill-opacity="1" /><path clip-path="url(#clip750)" d="M564.496 1518.36 L552.691 1536.81 L564.496 1536.81 L564.496 1518.36 M563.269 1514.29 L569.149 1514.29 L569.149 1536.81 L574.08 1536.81 L574.08 1540.7 L569.149 1540.7 L569.149 1548.85 L564.496 1548.85 L564.496 1540.7 L548.894 1540.7 L548.894 1536.19 L563.269 1514.29 Z" fill="#000000" fill-rule="nonzero" fill-opacity="1" /><path clip-path="url(#clip750)" d="M591.811 1517.37 Q588.2 1517.37 586.371 1520.93 Q584.566 1524.47 584.566 1531.6 Q584.566 1538.71 586.371 1542.27 Q588.2 1545.82 591.811 1545.82 Q595.445 1545.82 597.251 1542.27 Q599.079 1538.71 599.079 1531.6 Q599.079 1524.47 597.251 1520.93 Q595.445 1517.37 591.811 1517.37 M591.811 1513.66 Q597.621 1513.66 600.677 1518.27 Q603.755 1522.85 603.755 1531.6 Q603.755 1540.33 600.677 1544.94 Q597.621 1549.52 591.811 1549.52 Q586.001 1549.52 582.922 1544.94 Q579.867 1540.33 579.867 1531.6 Q579.867 1522.85 582.922 1518.27 Q586.001 1513.66 591.811 1513.66 Z" fill="#000000" fill-rule="nonzero" fill-opacity="1" /><path clip-path="url(#clip750)" d="M621.973 1517.37 Q618.362 1517.37 616.533 1520.93 Q614.727 1524.47 614.727 1531.6 Q614.727 1538.71 616.533 1542.27 Q618.362 1545.82 621.973 1545.82 Q625.607 1545.82 627.413 1542.27 Q629.241 1538.71 629.241 1531.6 Q629.241 1524.47 627.413 1520.93 Q625.607 1517.37 621.973 1517.37 M621.973 1513.66 Q627.783 1513.66 630.838 1518.27 Q633.917 1522.85 633.917 1531.6 Q633.917 1540.33 630.838 1544.94 Q627.783 1549.52 621.973 1549.52 Q616.163 1549.52 613.084 1544.94 Q610.028 1540.33 610.028 1531.6 Q610.028 1522.85 613.084 1518.27 Q616.163 1513.66 621.973 1513.66 Z" fill="#000000" fill-rule="nonzero" fill-opacity="1" /><path clip-path="url(#clip750)" d="M892.446 1518.36 L880.64 1536.81 L892.446 1536.81 L892.446 1518.36 M891.219 1514.29 L897.098 1514.29 L897.098 1536.81 L902.029 1536.81 L902.029 1540.7 L897.098 1540.7 L897.098 1548.85 L892.446 1548.85 L892.446 1540.7 L876.844 1540.7 L876.844 1536.19 L891.219 1514.29 Z" fill="#000000" fill-rule="nonzero" fill-opacity="1" /><path clip-path="url(#clip750)" d="M909.807 1514.29 L928.163 1514.29 L928.163 1518.22 L914.089 1518.22 L914.089 1526.7 Q915.107 1526.35 916.126 1526.19 Q917.144 1526 918.163 1526 Q923.95 1526 927.33 1529.17 Q930.709 1532.34 930.709 1537.76 Q930.709 1543.34 927.237 1546.44 Q923.765 1549.52 917.445 1549.52 Q915.27 1549.52 913.001 1549.15 Q910.756 1548.78 908.348 1548.04 L908.348 1543.34 Q910.432 1544.47 912.654 1545.03 Q914.876 1545.58 917.353 1545.58 Q921.357 1545.58 923.695 1543.48 Q926.033 1541.37 926.033 1537.76 Q926.033 1534.15 923.695 1532.04 Q921.357 1529.94 917.353 1529.94 Q915.478 1529.94 913.603 1530.35 Q911.751 1530.77 909.807 1531.65 L909.807 1514.29 Z" fill="#000000" fill-rule="nonzero" fill-opacity="1" /><path clip-path="url(#clip750)" d="M949.922 1517.37 Q946.311 1517.37 944.482 1520.93 Q942.677 1524.47 942.677 1531.6 Q942.677 1538.71 944.482 1542.27 Q946.311 1545.82 949.922 1545.82 Q953.556 1545.82 955.362 1542.27 Q957.191 1538.71 957.191 1531.6 Q957.191 1524.47 955.362 1520.93 Q953.556 1517.37 949.922 1517.37 M949.922 1513.66 Q955.732 1513.66 958.788 1518.27 Q961.866 1522.85 961.866 1531.6 Q961.866 1540.33 958.788 1544.94 Q955.732 1549.52 949.922 1549.52 Q944.112 1549.52 941.033 1544.94 Q937.978 1540.33 937.978 1531.6 Q937.978 1522.85 941.033 1518.27 Q944.112 1513.66 949.922 1513.66 Z" fill="#000000" fill-rule="nonzero" fill-opacity="1" /><path clip-path="url(#clip750)" d="M1206.92 1514.29 L1225.28 1514.29 L1225.28 1518.22 L1211.21 1518.22 L1211.21 1526.7 Q1212.22 1526.35 1213.24 1526.19 Q1214.26 1526 1215.28 1526 Q1221.07 1526 1224.45 1529.17 Q1227.83 1532.34 1227.83 1537.76 Q1227.83 1543.34 1224.35 1546.44 Q1220.88 1549.52 1214.56 1549.52 Q1212.39 1549.52 1210.12 1549.15 Q1207.87 1548.78 1205.46 1548.04 L1205.46 1543.34 Q1207.55 1544.47 1209.77 1545.03 Q1211.99 1545.58 1214.47 1545.58 Q1218.47 1545.58 1220.81 1543.48 Q1223.15 1541.37 1223.15 1537.76 Q1223.15 1534.15 1220.81 1532.04 Q1218.47 1529.94 1214.47 1529.94 Q1212.59 1529.94 1210.72 1530.35 Q1208.87 1530.77 1206.92 1531.65 L1206.92 1514.29 Z" fill="#000000" fill-rule="nonzero" fill-opacity="1" /><path clip-path="url(#clip750)" d="M1247.04 1517.37 Q1243.43 1517.37 1241.6 1520.93 Q1239.79 1524.47 1239.79 1531.6 Q1239.79 1538.71 1241.6 1542.27 Q1243.43 1545.82 1247.04 1545.82 Q1250.67 1545.82 1252.48 1542.27 Q1254.31 1538.71 1254.31 1531.6 Q1254.31 1524.47 1252.48 1520.93 Q1250.67 1517.37 1247.04 1517.37 M1247.04 1513.66 Q1252.85 1513.66 1255.9 1518.27 Q1258.98 1522.85 1258.98 1531.6 Q1258.98 1540.33 1255.9 1544.94 Q1252.85 1549.52 1247.04 1549.52 Q1241.23 1549.52 1238.15 1544.94 Q1235.09 1540.33 1235.09 1531.6 Q1235.09 1522.85 1238.15 1518.27 Q1241.23 1513.66 1247.04 1513.66 Z" fill="#000000" fill-rule="nonzero" fill-opacity="1" /><path clip-path="url(#clip750)" d="M1277.2 1517.37 Q1273.59 1517.37 1271.76 1520.93 Q1269.95 1524.47 1269.95 1531.6 Q1269.95 1538.71 1271.76 1542.27 Q1273.59 1545.82 1277.2 1545.82 Q1280.83 1545.82 1282.64 1542.27 Q1284.47 1538.71 1284.47 1531.6 Q1284.47 1524.47 1282.64 1520.93 Q1280.83 1517.37 1277.2 1517.37 M1277.2 1513.66 Q1283.01 1513.66 1286.07 1518.27 Q1289.14 1522.85 1289.14 1531.6 Q1289.14 1540.33 1286.07 1544.94 Q1283.01 1549.52 1277.2 1549.52 Q1271.39 1549.52 1268.31 1544.94 Q1265.26 1540.33 1265.26 1531.6 Q1265.26 1522.85 1268.31 1518.27 Q1271.39 1513.66 1277.2 1513.66 Z" fill="#000000" fill-rule="nonzero" fill-opacity="1" /><path clip-path="url(#clip750)" d="M1534.87 1514.29 L1553.23 1514.29 L1553.23 1518.22 L1539.15 1518.22 L1539.15 1526.7 Q1540.17 1526.35 1541.19 1526.19 Q1542.21 1526 1543.23 1526 Q1549.02 1526 1552.4 1529.17 Q1555.77 1532.34 1555.77 1537.76 Q1555.77 1543.34 1552.3 1546.44 Q1548.83 1549.52 1542.51 1549.52 Q1540.33 1549.52 1538.07 1549.15 Q1535.82 1548.78 1533.41 1548.04 L1533.41 1543.34 Q1535.5 1544.47 1537.72 1545.03 Q1539.94 1545.58 1542.42 1545.58 Q1546.42 1545.58 1548.76 1543.48 Q1551.1 1541.37 1551.1 1537.76 Q1551.1 1534.15 1548.76 1532.04 Q1546.42 1529.94 1542.42 1529.94 Q1540.54 1529.94 1538.67 1530.35 Q1536.82 1530.77 1534.87 1531.65 L1534.87 1514.29 Z" fill="#000000" fill-rule="nonzero" fill-opacity="1" /><path clip-path="url(#clip750)" d="M1565.03 1514.29 L1583.39 1514.29 L1583.39 1518.22 L1569.32 1518.22 L1569.32 1526.7 Q1570.33 1526.35 1571.35 1526.19 Q1572.37 1526 1573.39 1526 Q1579.18 1526 1582.56 1529.17 Q1585.94 1532.34 1585.94 1537.76 Q1585.94 1543.34 1582.46 1546.44 Q1578.99 1549.52 1572.67 1549.52 Q1570.5 1549.52 1568.23 1549.15 Q1565.98 1548.78 1563.58 1548.04 L1563.58 1543.34 Q1565.66 1544.47 1567.88 1545.03 Q1570.1 1545.58 1572.58 1545.58 Q1576.58 1545.58 1578.92 1543.48 Q1581.26 1541.37 1581.26 1537.76 Q1581.26 1534.15 1578.92 1532.04 Q1576.58 1529.94 1572.58 1529.94 Q1570.71 1529.94 1568.83 1530.35 Q1566.98 1530.77 1565.03 1531.65 L1565.03 1514.29 Z" fill="#000000" fill-rule="nonzero" fill-opacity="1" /><path clip-path="url(#clip750)" d="M1605.15 1517.37 Q1601.54 1517.37 1599.71 1520.93 Q1597.9 1524.47 1597.9 1531.6 Q1597.9 1538.71 1599.71 1542.27 Q1601.54 1545.82 1605.15 1545.82 Q1608.78 1545.82 1610.59 1542.27 Q1612.42 1538.71 1612.42 1531.6 Q1612.42 1524.47 1610.59 1520.93 Q1608.78 1517.37 1605.15 1517.37 M1605.15 1513.66 Q1610.96 1513.66 1614.02 1518.27 Q1617.09 1522.85 1617.09 1531.6 Q1617.09 1540.33 1614.02 1544.94 Q1610.96 1549.52 1605.15 1549.52 Q1599.34 1549.52 1596.26 1544.94 Q1593.21 1540.33 1593.21 1531.6 Q1593.21 1522.85 1596.26 1518.27 Q1599.34 1513.66 1605.15 1513.66 Z" fill="#000000" fill-rule="nonzero" fill-opacity="1" /><path clip-path="url(#clip750)" d="M1873.53 1529.7 Q1870.38 1529.7 1868.53 1531.86 Q1866.7 1534.01 1866.7 1537.76 Q1866.7 1541.49 1868.53 1543.66 Q1870.38 1545.82 1873.53 1545.82 Q1876.68 1545.82 1878.5 1543.66 Q1880.36 1541.49 1880.36 1537.76 Q1880.36 1534.01 1878.5 1531.86 Q1876.68 1529.7 1873.53 1529.7 M1882.81 1515.05 L1882.81 1519.31 Q1881.05 1518.48 1879.24 1518.04 Q1877.46 1517.6 1875.7 1517.6 Q1871.07 1517.6 1868.62 1520.72 Q1866.19 1523.85 1865.84 1530.17 Q1867.21 1528.15 1869.27 1527.09 Q1871.33 1526 1873.81 1526 Q1879.01 1526 1882.02 1529.17 Q1885.05 1532.32 1885.05 1537.76 Q1885.05 1543.08 1881.91 1546.3 Q1878.76 1549.52 1873.53 1549.52 Q1867.53 1549.52 1864.36 1544.94 Q1861.19 1540.33 1861.19 1531.6 Q1861.19 1523.41 1865.08 1518.55 Q1868.97 1513.66 1875.52 1513.66 Q1877.28 1513.66 1879.06 1514.01 Q1880.87 1514.36 1882.81 1515.05 Z" fill="#000000" fill-rule="nonzero" fill-opacity="1" /><path clip-path="url(#clip750)" d="M1903.11 1517.37 Q1899.5 1517.37 1897.67 1520.93 Q1895.87 1524.47 1895.87 1531.6 Q1895.87 1538.71 1897.67 1542.27 Q1899.5 1545.82 1903.11 1545.82 Q1906.74 1545.82 1908.55 1542.27 Q1910.38 1538.71 1910.38 1531.6 Q1910.38 1524.47 1908.55 1520.93 Q1906.74 1517.37 1903.11 1517.37 M1903.11 1513.66 Q1908.92 1513.66 1911.98 1518.27 Q1915.05 1522.85 1915.05 1531.6 Q1915.05 1540.33 1911.98 1544.94 Q1908.92 1549.52 1903.11 1549.52 Q1897.3 1549.52 1894.22 1544.94 Q1891.17 1540.33 1891.17 1531.6 Q1891.17 1522.85 1894.22 1518.27 Q1897.3 1513.66 1903.11 1513.66 Z" fill="#000000" fill-rule="nonzero" fill-opacity="1" /><path clip-path="url(#clip750)" d="M1933.27 1517.37 Q1929.66 1517.37 1927.83 1520.93 Q1926.03 1524.47 1926.03 1531.6 Q1926.03 1538.71 1927.83 1542.27 Q1929.66 1545.82 1933.27 1545.82 Q1936.91 1545.82 1938.71 1542.27 Q1940.54 1538.71 1940.54 1531.6 Q1940.54 1524.47 1938.71 1520.93 Q1936.91 1517.37 1933.27 1517.37 M1933.27 1513.66 Q1939.08 1513.66 1942.14 1518.27 Q1945.22 1522.85 1945.22 1531.6 Q1945.22 1540.33 1942.14 1544.94 Q1939.08 1549.52 1933.27 1549.52 Q1927.46 1549.52 1924.38 1544.94 Q1921.33 1540.33 1921.33 1531.6 Q1921.33 1522.85 1924.38 1518.27 Q1927.46 1513.66 1933.27 1513.66 Z" fill="#000000" fill-rule="nonzero" fill-opacity="1" /><path clip-path="url(#clip750)" d="M2201.48 1529.7 Q2198.33 1529.7 2196.48 1531.86 Q2194.65 1534.01 2194.65 1537.76 Q2194.65 1541.49 2196.48 1543.66 Q2198.33 1545.82 2201.48 1545.82 Q2204.62 1545.82 2206.45 1543.66 Q2208.31 1541.49 2208.31 1537.76 Q2208.31 1534.01 2206.45 1531.86 Q2204.62 1529.7 2201.48 1529.7 M2210.76 1515.05 L2210.76 1519.31 Q2209 1518.48 2207.19 1518.04 Q2205.41 1517.6 2203.65 1517.6 Q2199.02 1517.6 2196.57 1520.72 Q2194.14 1523.85 2193.79 1530.17 Q2195.16 1528.15 2197.22 1527.09 Q2199.28 1526 2201.75 1526 Q2206.96 1526 2209.97 1529.17 Q2213 1532.32 2213 1537.76 Q2213 1543.08 2209.86 1546.3 Q2206.71 1549.52 2201.48 1549.52 Q2195.48 1549.52 2192.31 1544.94 Q2189.14 1540.33 2189.14 1531.6 Q2189.14 1523.41 2193.03 1518.55 Q2196.92 1513.66 2203.47 1513.66 Q2205.23 1513.66 2207.01 1514.01 Q2208.81 1514.36 2210.76 1515.05 Z" fill="#000000" fill-rule="nonzero" fill-opacity="1" /><path clip-path="url(#clip750)" d="M2221.11 1514.29 L2239.46 1514.29 L2239.46 1518.22 L2225.39 1518.22 L2225.39 1526.7 Q2226.41 1526.35 2227.43 1526.19 Q2228.44 1526 2229.46 1526 Q2235.25 1526 2238.63 1529.17 Q2242.01 1532.34 2242.01 1537.76 Q2242.01 1543.34 2238.54 1546.44 Q2235.06 1549.52 2228.74 1549.52 Q2226.57 1549.52 2224.3 1549.15 Q2222.06 1548.78 2219.65 1548.04 L2219.65 1543.34 Q2221.73 1544.47 2223.95 1545.03 Q2226.18 1545.58 2228.65 1545.58 Q2232.66 1545.58 2234.99 1543.48 Q2237.33 1541.37 2237.33 1537.76 Q2237.33 1534.15 2234.99 1532.04 Q2232.66 1529.94 2228.65 1529.94 Q2226.78 1529.94 2224.9 1530.35 Q2223.05 1530.77 2221.11 1531.65 L2221.11 1514.29 Z" fill="#000000" fill-rule="nonzero" fill-opacity="1" /><path clip-path="url(#clip750)" d="M2261.22 1517.37 Q2257.61 1517.37 2255.78 1520.93 Q2253.98 1524.47 2253.98 1531.6 Q2253.98 1538.71 2255.78 1542.27 Q2257.61 1545.82 2261.22 1545.82 Q2264.86 1545.82 2266.66 1542.27 Q2268.49 1538.71 2268.49 1531.6 Q2268.49 1524.47 2266.66 1520.93 Q2264.86 1517.37 2261.22 1517.37 M2261.22 1513.66 Q2267.03 1513.66 2270.09 1518.27 Q2273.17 1522.85 2273.17 1531.6 Q2273.17 1540.33 2270.09 1544.94 Q2267.03 1549.52 2261.22 1549.52 Q2255.41 1549.52 2252.33 1544.94 Q2249.28 1540.33 2249.28 1531.6 Q2249.28 1522.85 2252.33 1518.27 Q2255.41 1513.66 2261.22 1513.66 Z" fill="#000000" fill-rule="nonzero" fill-opacity="1" /><polyline clip-path="url(#clip750)" style="stroke:#000000; stroke-linecap:round; stroke-linejoin:round; stroke-width:4; stroke-opacity:1; fill:none" points="141.853,1486.45 141.853,47.2441 "/>
<polyline clip-path="url(#clip750)" style="stroke:#000000; stroke-linecap:round; stroke-linejoin:round; stroke-width:4; stroke-opacity:1; fill:none" points="141.853,1486.45 160.751,1486.45 "/>
<polyline clip-path="url(#clip750)" style="stroke:#000000; stroke-linecap:round; stroke-linejoin:round; stroke-width:4; stroke-opacity:1; fill:none" points="141.853,1112.63 160.751,1112.63 "/>
<polyline clip-path="url(#clip750)" style="stroke:#000000; stroke-linecap:round; stroke-linejoin:round; stroke-width:4; stroke-opacity:1; fill:none" points="141.853,738.81 160.751,738.81 "/>
<polyline clip-path="url(#clip750)" style="stroke:#000000; stroke-linecap:round; stroke-linejoin:round; stroke-width:4; stroke-opacity:1; fill:none" points="141.853,364.99 160.751,364.99 "/>
<path clip-path="url(#clip750)" d="M93.9086 1472.25 Q90.2975 1472.25 88.4688 1475.81 Q86.6632 1479.35 86.6632 1486.48 Q86.6632 1493.59 88.4688 1497.15 Q90.2975 1500.7 93.9086 1500.7 Q97.5428 1500.7 99.3483 1497.15 Q101.177 1493.59 101.177 1486.48 Q101.177 1479.35 99.3483 1475.81 Q97.5428 1472.25 93.9086 1472.25 M93.9086 1468.54 Q99.7187 1468.54 102.774 1473.15 Q105.853 1477.73 105.853 1486.48 Q105.853 1495.21 102.774 1499.82 Q99.7187 1504.4 93.9086 1504.4 Q88.0984 1504.4 85.0197 1499.82 Q81.9642 1495.21 81.9642 1486.48 Q81.9642 1477.73 85.0197 1473.15 Q88.0984 1468.54 93.9086 1468.54 Z" fill="#000000" fill-rule="nonzero" fill-opacity="1" /><path clip-path="url(#clip750)" d="M57.7745 1125.97 L74.0939 1125.97 L74.0939 1129.91 L52.1495 1129.91 L52.1495 1125.97 Q54.8115 1123.22 59.3949 1118.59 Q64.0013 1113.94 65.1819 1112.59 Q67.4272 1110.07 68.3068 1108.33 Q69.2096 1106.58 69.2096 1104.89 Q69.2096 1102.13 67.2652 1100.39 Q65.3439 1098.66 62.2421 1098.66 Q60.043 1098.66 57.5893 1099.42 Q55.1588 1100.19 52.381 1101.74 L52.381 1097.02 Q55.2051 1095.88 57.6588 1095.3 Q60.1124 1094.72 62.1495 1094.72 Q67.5198 1094.72 70.7142 1097.41 Q73.9087 1100.09 73.9087 1104.58 Q73.9087 1106.71 73.0985 1108.64 Q72.3115 1110.53 70.205 1113.13 Q69.6263 1113.8 66.5245 1117.02 Q63.4226 1120.21 57.7745 1125.97 Z" fill="#000000" fill-rule="nonzero" fill-opacity="1" /><path clip-path="url(#clip750)" d="M93.9086 1098.43 Q90.2975 1098.43 88.4688 1101.99 Q86.6632 1105.53 86.6632 1112.66 Q86.6632 1119.77 88.4688 1123.33 Q90.2975 1126.88 93.9086 1126.88 Q97.5428 1126.88 99.3483 1123.33 Q101.177 1119.77 101.177 1112.66 Q101.177 1105.53 99.3483 1101.99 Q97.5428 1098.43 93.9086 1098.43 M93.9086 1094.72 Q99.7187 1094.72 102.774 1099.33 Q105.853 1103.91 105.853 1112.66 Q105.853 1121.39 102.774 1126 Q99.7187 1130.58 93.9086 1130.58 Q88.0984 1130.58 85.0197 1126 Q81.9642 1121.39 81.9642 1112.66 Q81.9642 1103.91 85.0197 1099.33 Q88.0984 1094.72 93.9086 1094.72 Z" fill="#000000" fill-rule="nonzero" fill-opacity="1" /><path clip-path="url(#clip750)" d="M66.5939 725.604 L54.7884 744.053 L66.5939 744.053 L66.5939 725.604 M65.367 721.53 L71.2466 721.53 L71.2466 744.053 L76.1772 744.053 L76.1772 747.941 L71.2466 747.941 L71.2466 756.09 L66.5939 756.09 L66.5939 747.941 L50.9921 747.941 L50.9921 743.428 L65.367 721.53 Z" fill="#000000" fill-rule="nonzero" fill-opacity="1" /><path clip-path="url(#clip750)" d="M93.9086 724.608 Q90.2975 724.608 88.4688 728.173 Q86.6632 731.715 86.6632 738.844 Q86.6632 745.951 88.4688 749.516 Q90.2975 753.057 93.9086 753.057 Q97.5428 753.057 99.3483 749.516 Q101.177 745.951 101.177 738.844 Q101.177 731.715 99.3483 728.173 Q97.5428 724.608 93.9086 724.608 M93.9086 720.905 Q99.7187 720.905 102.774 725.511 Q105.853 730.094 105.853 738.844 Q105.853 747.571 102.774 752.178 Q99.7187 756.761 93.9086 756.761 Q88.0984 756.761 85.0197 752.178 Q81.9642 747.571 81.9642 738.844 Q81.9642 730.094 85.0197 725.511 Q88.0984 720.905 93.9086 720.905 Z" fill="#000000" fill-rule="nonzero" fill-opacity="1" /><path clip-path="url(#clip750)" d="M64.3254 363.127 Q61.1773 363.127 59.3254 365.28 Q57.4967 367.433 57.4967 371.182 Q57.4967 374.909 59.3254 377.085 Q61.1773 379.238 64.3254 379.238 Q67.4735 379.238 69.3022 377.085 Q71.1541 374.909 71.1541 371.182 Q71.1541 367.433 69.3022 365.28 Q67.4735 363.127 64.3254 363.127 M73.6077 348.474 L73.6077 352.734 Q71.8485 351.9 70.0429 351.46 Q68.2606 351.021 66.5013 351.021 Q61.8717 351.021 59.418 354.146 Q56.9875 357.271 56.6402 363.59 Q58.006 361.576 60.0662 360.511 Q62.1263 359.423 64.6032 359.423 Q69.8115 359.423 72.8207 362.595 Q75.8531 365.743 75.8531 371.182 Q75.8531 376.507 72.705 379.724 Q69.5568 382.942 64.3254 382.942 Q58.33 382.942 55.1588 378.358 Q51.9875 373.752 51.9875 365.025 Q51.9875 356.831 55.8764 351.97 Q59.7652 347.085 66.3161 347.085 Q68.0754 347.085 69.8578 347.433 Q71.6633 347.78 73.6077 348.474 Z" fill="#000000" fill-rule="nonzero" fill-opacity="1" /><path clip-path="url(#clip750)" d="M93.9086 350.789 Q90.2975 350.789 88.4688 354.354 Q86.6632 357.896 86.6632 365.025 Q86.6632 372.132 88.4688 375.696 Q90.2975 379.238 93.9086 379.238 Q97.5428 379.238 99.3483 375.696 Q101.177 372.132 101.177 365.025 Q101.177 357.896 99.3483 354.354 Q97.5428 350.789 93.9086 350.789 M93.9086 347.085 Q99.7187 347.085 102.774 351.692 Q105.853 356.275 105.853 365.025 Q105.853 373.752 102.774 378.358 Q99.7187 382.942 93.9086 382.942 Q88.0984 382.942 85.0197 378.358 Q81.9642 373.752 81.9642 365.025 Q81.9642 356.275 85.0197 351.692 Q88.0984 347.085 93.9086 347.085 Z" fill="#000000" fill-rule="nonzero" fill-opacity="1" /><path clip-path="url(#clip752)" d="M263.457 1467.76 L263.457 1486.45 L427.431 1486.45 L427.431 1467.76 L263.457 1467.76 L263.457 1467.76  Z" fill="#009af9" fill-rule="evenodd" fill-opacity="1"/>
<polyline clip-path="url(#clip752)" style="stroke:#000000; stroke-linecap:round; stroke-linejoin:round; stroke-width:4; stroke-opacity:1; fill:none" points="263.457,1467.76 263.457,1486.45 427.431,1486.45 427.431,1467.76 263.457,1467.76 "/>
<path clip-path="url(#clip752)" d="M427.431 1392.99 L427.431 1486.45 L591.406 1486.45 L591.406 1392.99 L427.431 1392.99 L427.431 1392.99  Z" fill="#009af9" fill-rule="evenodd" fill-opacity="1"/>
<polyline clip-path="url(#clip752)" style="stroke:#000000; stroke-linecap:round; stroke-linejoin:round; stroke-width:4; stroke-opacity:1; fill:none" points="427.431,1392.99 427.431,1486.45 591.406,1486.45 591.406,1392.99 427.431,1392.99 "/>
<path clip-path="url(#clip752)" d="M591.406 1467.76 L591.406 1486.45 L755.38 1486.45 L755.38 1467.76 L591.406 1467.76 L591.406 1467.76  Z" fill="#009af9" fill-rule="evenodd" fill-opacity="1"/>
<polyline clip-path="url(#clip752)" style="stroke:#000000; stroke-linecap:round; stroke-linejoin:round; stroke-width:4; stroke-opacity:1; fill:none" points="591.406,1467.76 591.406,1486.45 755.38,1486.45 755.38,1467.76 591.406,1467.76 "/>
<path clip-path="url(#clip752)" d="M755.38 1411.68 L755.38 1486.45 L919.355 1486.45 L919.355 1411.68 L755.38 1411.68 L755.38 1411.68  Z" fill="#009af9" fill-rule="evenodd" fill-opacity="1"/>
<polyline clip-path="url(#clip752)" style="stroke:#000000; stroke-linecap:round; stroke-linejoin:round; stroke-width:4; stroke-opacity:1; fill:none" points="755.38,1411.68 755.38,1486.45 919.355,1486.45 919.355,1411.68 755.38,1411.68 "/>
<path clip-path="url(#clip752)" d="M919.355 1374.3 L919.355 1486.45 L1083.33 1486.45 L1083.33 1374.3 L919.355 1374.3 L919.355 1374.3  Z" fill="#009af9" fill-rule="evenodd" fill-opacity="1"/>
<polyline clip-path="url(#clip752)" style="stroke:#000000; stroke-linecap:round; stroke-linejoin:round; stroke-width:4; stroke-opacity:1; fill:none" points="919.355,1374.3 919.355,1486.45 1083.33,1486.45 1083.33,1374.3 919.355,1374.3 "/>
<path clip-path="url(#clip752)" d="M1083.33 1374.3 L1083.33 1486.45 L1247.3 1486.45 L1247.3 1374.3 L1083.33 1374.3 L1083.33 1374.3  Z" fill="#009af9" fill-rule="evenodd" fill-opacity="1"/>
<polyline clip-path="url(#clip752)" style="stroke:#000000; stroke-linecap:round; stroke-linejoin:round; stroke-width:4; stroke-opacity:1; fill:none" points="1083.33,1374.3 1083.33,1486.45 1247.3,1486.45 1247.3,1374.3 1083.33,1374.3 "/>
<path clip-path="url(#clip752)" d="M1247.3 1392.99 L1247.3 1486.45 L1411.28 1486.45 L1411.28 1392.99 L1247.3 1392.99 L1247.3 1392.99  Z" fill="#009af9" fill-rule="evenodd" fill-opacity="1"/>
<polyline clip-path="url(#clip752)" style="stroke:#000000; stroke-linecap:round; stroke-linejoin:round; stroke-width:4; stroke-opacity:1; fill:none" points="1247.3,1392.99 1247.3,1486.45 1411.28,1486.45 1411.28,1392.99 1247.3,1392.99 "/>
<path clip-path="url(#clip752)" d="M1411.28 1374.3 L1411.28 1486.45 L1575.25 1486.45 L1575.25 1374.3 L1411.28 1374.3 L1411.28 1374.3  Z" fill="#009af9" fill-rule="evenodd" fill-opacity="1"/>
<polyline clip-path="url(#clip752)" style="stroke:#000000; stroke-linecap:round; stroke-linejoin:round; stroke-width:4; stroke-opacity:1; fill:none" points="1411.28,1374.3 1411.28,1486.45 1575.25,1486.45 1575.25,1374.3 1411.28,1374.3 "/>
<path clip-path="url(#clip752)" d="M1575.25 1318.23 L1575.25 1486.45 L1739.23 1486.45 L1739.23 1318.23 L1575.25 1318.23 L1575.25 1318.23  Z" fill="#009af9" fill-rule="evenodd" fill-opacity="1"/>
<polyline clip-path="url(#clip752)" style="stroke:#000000; stroke-linecap:round; stroke-linejoin:round; stroke-width:4; stroke-opacity:1; fill:none" points="1575.25,1318.23 1575.25,1486.45 1739.23,1486.45 1739.23,1318.23 1575.25,1318.23 "/>
<path clip-path="url(#clip752)" d="M1739.23 1374.3 L1739.23 1486.45 L1903.2 1486.45 L1903.2 1374.3 L1739.23 1374.3 L1739.23 1374.3  Z" fill="#009af9" fill-rule="evenodd" fill-opacity="1"/>
<polyline clip-path="url(#clip752)" style="stroke:#000000; stroke-linecap:round; stroke-linejoin:round; stroke-width:4; stroke-opacity:1; fill:none" points="1739.23,1374.3 1739.23,1486.45 1903.2,1486.45 1903.2,1374.3 1739.23,1374.3 "/>
<path clip-path="url(#clip752)" d="M1903.2 1336.92 L1903.2 1486.45 L2067.18 1486.45 L2067.18 1336.92 L1903.2 1336.92 L1903.2 1336.92  Z" fill="#009af9" fill-rule="evenodd" fill-opacity="1"/>
<polyline clip-path="url(#clip752)" style="stroke:#000000; stroke-linecap:round; stroke-linejoin:round; stroke-width:4; stroke-opacity:1; fill:none" points="1903.2,1336.92 1903.2,1486.45 2067.18,1486.45 2067.18,1336.92 1903.2,1336.92 "/>
<path clip-path="url(#clip752)" d="M2067.18 682.737 L2067.18 1486.45 L2231.15 1486.45 L2231.15 682.737 L2067.18 682.737 L2067.18 682.737  Z" fill="#009af9" fill-rule="evenodd" fill-opacity="1"/>
<polyline clip-path="url(#clip752)" style="stroke:#000000; stroke-linecap:round; stroke-linejoin:round; stroke-width:4; stroke-opacity:1; fill:none" points="2067.18,682.737 2067.18,1486.45 2231.15,1486.45 2231.15,682.737 2067.18,682.737 "/>
<circle clip-path="url(#clip752)" style="fill:#009af9; stroke:none; fill-opacity:0" cx="345.444" cy="1467.76" r="2"/>
<circle clip-path="url(#clip752)" style="fill:#009af9; stroke:none; fill-opacity:0" cx="509.419" cy="1392.99" r="2"/>
<circle clip-path="url(#clip752)" style="fill:#009af9; stroke:none; fill-opacity:0" cx="673.393" cy="1467.76" r="2"/>
<circle clip-path="url(#clip752)" style="fill:#009af9; stroke:none; fill-opacity:0" cx="837.368" cy="1411.68" r="2"/>
<circle clip-path="url(#clip752)" style="fill:#009af9; stroke:none; fill-opacity:0" cx="1001.34" cy="1374.3" r="2"/>
<circle clip-path="url(#clip752)" style="fill:#009af9; stroke:none; fill-opacity:0" cx="1165.32" cy="1374.3" r="2"/>
<circle clip-path="url(#clip752)" style="fill:#009af9; stroke:none; fill-opacity:0" cx="1329.29" cy="1392.99" r="2"/>
<circle clip-path="url(#clip752)" style="fill:#009af9; stroke:none; fill-opacity:0" cx="1493.27" cy="1374.3" r="2"/>
<circle clip-path="url(#clip752)" style="fill:#009af9; stroke:none; fill-opacity:0" cx="1657.24" cy="1318.23" r="2"/>
<circle clip-path="url(#clip752)" style="fill:#009af9; stroke:none; fill-opacity:0" cx="1821.22" cy="1374.3" r="2"/>
<circle clip-path="url(#clip752)" style="fill:#009af9; stroke:none; fill-opacity:0" cx="1985.19" cy="1336.92" r="2"/>
<circle clip-path="url(#clip752)" style="fill:#009af9; stroke:none; fill-opacity:0" cx="2149.16" cy="682.737" r="2"/>
<path clip-path="url(#clip752)" d="M263.457 1486.45 L263.457 1486.45 L427.431 1486.45 L427.431 1486.45 L263.457 1486.45 L263.457 1486.45  Z" fill="#e26f46" fill-rule="evenodd" fill-opacity="0.5"/>
<polyline clip-path="url(#clip752)" style="stroke:#000000; stroke-linecap:round; stroke-linejoin:round; stroke-width:4; stroke-opacity:0.5; fill:none" points="263.457,1486.45 263.457,1486.45 427.431,1486.45 263.457,1486.45 "/>
<path clip-path="url(#clip752)" d="M427.431 1486.45 L427.431 1486.45 L591.406 1486.45 L591.406 1486.45 L427.431 1486.45 L427.431 1486.45  Z" fill="#e26f46" fill-rule="evenodd" fill-opacity="0.5"/>
<polyline clip-path="url(#clip752)" style="stroke:#000000; stroke-linecap:round; stroke-linejoin:round; stroke-width:4; stroke-opacity:0.5; fill:none" points="427.431,1486.45 427.431,1486.45 591.406,1486.45 427.431,1486.45 "/>
<path clip-path="url(#clip752)" d="M591.406 1467.76 L591.406 1486.45 L755.38 1486.45 L755.38 1467.76 L591.406 1467.76 L591.406 1467.76  Z" fill="#e26f46" fill-rule="evenodd" fill-opacity="0.5"/>
<polyline clip-path="url(#clip752)" style="stroke:#000000; stroke-linecap:round; stroke-linejoin:round; stroke-width:4; stroke-opacity:0.5; fill:none" points="591.406,1467.76 591.406,1486.45 755.38,1486.45 755.38,1467.76 591.406,1467.76 "/>
<path clip-path="url(#clip752)" d="M755.38 1411.68 L755.38 1486.45 L919.355 1486.45 L919.355 1411.68 L755.38 1411.68 L755.38 1411.68  Z" fill="#e26f46" fill-rule="evenodd" fill-opacity="0.5"/>
<polyline clip-path="url(#clip752)" style="stroke:#000000; stroke-linecap:round; stroke-linejoin:round; stroke-width:4; stroke-opacity:0.5; fill:none" points="755.38,1411.68 755.38,1486.45 919.355,1486.45 919.355,1411.68 755.38,1411.68 "/>
<path clip-path="url(#clip752)" d="M919.355 1449.07 L919.355 1486.45 L1083.33 1486.45 L1083.33 1449.07 L919.355 1449.07 L919.355 1449.07  Z" fill="#e26f46" fill-rule="evenodd" fill-opacity="0.5"/>
<polyline clip-path="url(#clip752)" style="stroke:#000000; stroke-linecap:round; stroke-linejoin:round; stroke-width:4; stroke-opacity:0.5; fill:none" points="919.355,1449.07 919.355,1486.45 1083.33,1486.45 1083.33,1449.07 919.355,1449.07 "/>
<path clip-path="url(#clip752)" d="M1083.33 1411.68 L1083.33 1486.45 L1247.3 1486.45 L1247.3 1411.68 L1083.33 1411.68 L1083.33 1411.68  Z" fill="#e26f46" fill-rule="evenodd" fill-opacity="0.5"/>
<polyline clip-path="url(#clip752)" style="stroke:#000000; stroke-linecap:round; stroke-linejoin:round; stroke-width:4; stroke-opacity:0.5; fill:none" points="1083.33,1411.68 1083.33,1486.45 1247.3,1486.45 1247.3,1411.68 1083.33,1411.68 "/>
<path clip-path="url(#clip752)" d="M1247.3 1374.3 L1247.3 1486.45 L1411.28 1486.45 L1411.28 1374.3 L1247.3 1374.3 L1247.3 1374.3  Z" fill="#e26f46" fill-rule="evenodd" fill-opacity="0.5"/>
<polyline clip-path="url(#clip752)" style="stroke:#000000; stroke-linecap:round; stroke-linejoin:round; stroke-width:4; stroke-opacity:0.5; fill:none" points="1247.3,1374.3 1247.3,1486.45 1411.28,1486.45 1411.28,1374.3 1247.3,1374.3 "/>
<path clip-path="url(#clip752)" d="M1411.28 1374.3 L1411.28 1486.45 L1575.25 1486.45 L1575.25 1374.3 L1411.28 1374.3 L1411.28 1374.3  Z" fill="#e26f46" fill-rule="evenodd" fill-opacity="0.5"/>
<polyline clip-path="url(#clip752)" style="stroke:#000000; stroke-linecap:round; stroke-linejoin:round; stroke-width:4; stroke-opacity:0.5; fill:none" points="1411.28,1374.3 1411.28,1486.45 1575.25,1486.45 1575.25,1374.3 1411.28,1374.3 "/>
<path clip-path="url(#clip752)" d="M1575.25 47.2441 L1575.25 1486.45 L1739.23 1486.45 L1739.23 47.2441 L1575.25 47.2441 L1575.25 47.2441  Z" fill="#e26f46" fill-rule="evenodd" fill-opacity="0.5"/>
<polyline clip-path="url(#clip752)" style="stroke:#000000; stroke-linecap:round; stroke-linejoin:round; stroke-width:4; stroke-opacity:0.5; fill:none" points="1575.25,47.2441 1575.25,1486.45 1739.23,1486.45 1739.23,47.2441 1575.25,47.2441 "/>
<path clip-path="url(#clip752)" d="M1739.23 1486.45 L1739.23 1486.45 L1903.2 1486.45 L1903.2 1486.45 L1739.23 1486.45 L1739.23 1486.45  Z" fill="#e26f46" fill-rule="evenodd" fill-opacity="0.5"/>
<polyline clip-path="url(#clip752)" style="stroke:#000000; stroke-linecap:round; stroke-linejoin:round; stroke-width:4; stroke-opacity:0.5; fill:none" points="1739.23,1486.45 1739.23,1486.45 1903.2,1486.45 1739.23,1486.45 "/>
<path clip-path="url(#clip752)" d="M1903.2 1486.45 L1903.2 1486.45 L2067.18 1486.45 L2067.18 1486.45 L1903.2 1486.45 L1903.2 1486.45  Z" fill="#e26f46" fill-rule="evenodd" fill-opacity="0.5"/>
<polyline clip-path="url(#clip752)" style="stroke:#000000; stroke-linecap:round; stroke-linejoin:round; stroke-width:4; stroke-opacity:0.5; fill:none" points="1903.2,1486.45 1903.2,1486.45 2067.18,1486.45 1903.2,1486.45 "/>
<path clip-path="url(#clip752)" d="M2067.18 1486.45 L2067.18 1486.45 L2231.15 1486.45 L2231.15 1486.45 L2067.18 1486.45 L2067.18 1486.45  Z" fill="#e26f46" fill-rule="evenodd" fill-opacity="0.5"/>
<polyline clip-path="url(#clip752)" style="stroke:#000000; stroke-linecap:round; stroke-linejoin:round; stroke-width:4; stroke-opacity:0.5; fill:none" points="2067.18,1486.45 2067.18,1486.45 2231.15,1486.45 2067.18,1486.45 "/>
<circle clip-path="url(#clip752)" style="fill:#e26f46; stroke:none; fill-opacity:0" cx="345.444" cy="1486.45" r="2"/>
<circle clip-path="url(#clip752)" style="fill:#e26f46; stroke:none; fill-opacity:0" cx="509.419" cy="1486.45" r="2"/>
<circle clip-path="url(#clip752)" style="fill:#e26f46; stroke:none; fill-opacity:0" cx="673.393" cy="1467.76" r="2"/>
<circle clip-path="url(#clip752)" style="fill:#e26f46; stroke:none; fill-opacity:0" cx="837.368" cy="1411.68" r="2"/>
<circle clip-path="url(#clip752)" style="fill:#e26f46; stroke:none; fill-opacity:0" cx="1001.34" cy="1449.07" r="2"/>
<circle clip-path="url(#clip752)" style="fill:#e26f46; stroke:none; fill-opacity:0" cx="1165.32" cy="1411.68" r="2"/>
<circle clip-path="url(#clip752)" style="fill:#e26f46; stroke:none; fill-opacity:0" cx="1329.29" cy="1374.3" r="2"/>
<circle clip-path="url(#clip752)" style="fill:#e26f46; stroke:none; fill-opacity:0" cx="1493.27" cy="1374.3" r="2"/>
<circle clip-path="url(#clip752)" style="fill:#e26f46; stroke:none; fill-opacity:0" cx="1657.24" cy="47.2441" r="2"/>
<circle clip-path="url(#clip752)" style="fill:#e26f46; stroke:none; fill-opacity:0" cx="1821.22" cy="1486.45" r="2"/>
<circle clip-path="url(#clip752)" style="fill:#e26f46; stroke:none; fill-opacity:0" cx="1985.19" cy="1486.45" r="2"/>
<circle clip-path="url(#clip752)" style="fill:#e26f46; stroke:none; fill-opacity:0" cx="2149.16" cy="1486.45" r="2"/>
<path clip-path="url(#clip750)" d="M1784.87 250.738 L2279.06 250.738 L2279.06 95.2176 L1784.87 95.2176  Z" fill="#ffffff" fill-rule="evenodd" fill-opacity="1"/>
<polyline clip-path="url(#clip750)" style="stroke:#000000; stroke-linecap:round; stroke-linejoin:round; stroke-width:4; stroke-opacity:1; fill:none" points="1784.87,250.738 2279.06,250.738 2279.06,95.2176 1784.87,95.2176 1784.87,250.738 "/>
<path clip-path="url(#clip750)" d="M1809.43 167.794 L1956.83 167.794 L1956.83 126.322 L1809.43 126.322 L1809.43 167.794  Z" fill="#009af9" fill-rule="evenodd" fill-opacity="1"/>
<polyline clip-path="url(#clip750)" style="stroke:#000000; stroke-linecap:round; stroke-linejoin:round; stroke-width:4; stroke-opacity:1; fill:none" points="1809.43,167.794 1956.83,167.794 1956.83,126.322 1809.43,126.322 1809.43,167.794 "/>
<path clip-path="url(#clip750)" d="M1981.39 129.778 L2003.24 129.778 L2003.24 133.713 L1986.07 133.713 L1986.07 143.944 L2002.53 143.944 L2002.53 147.879 L1986.07 147.879 L1986.07 160.402 L2003.66 160.402 L2003.66 164.338 L1981.39 164.338 L1981.39 129.778 Z" fill="#000000" fill-rule="nonzero" fill-opacity="1" /><path clip-path="url(#clip750)" d="M2032.71 138.412 L2023.34 151.027 L2033.2 164.338 L2028.18 164.338 L2020.63 154.152 L2013.08 164.338 L2008.06 164.338 L2018.13 150.773 L2008.92 138.412 L2013.94 138.412 L2020.81 147.648 L2027.69 138.412 L2032.71 138.412 Z" fill="#000000" fill-rule="nonzero" fill-opacity="1" /><path clip-path="url(#clip750)" d="M2043.34 160.449 L2043.34 174.199 L2039.05 174.199 L2039.05 138.412 L2043.34 138.412 L2043.34 142.347 Q2044.68 140.032 2046.72 138.921 Q2048.78 137.787 2051.62 137.787 Q2056.35 137.787 2059.29 141.537 Q2062.25 145.287 2062.25 151.398 Q2062.25 157.509 2059.29 161.259 Q2056.35 165.009 2051.62 165.009 Q2048.78 165.009 2046.72 163.898 Q2044.68 162.763 2043.34 160.449 M2057.83 151.398 Q2057.83 146.699 2055.88 144.037 Q2053.96 141.352 2050.58 141.352 Q2047.2 141.352 2045.26 144.037 Q2043.34 146.699 2043.34 151.398 Q2043.34 156.097 2045.26 158.782 Q2047.2 161.444 2050.58 161.444 Q2053.96 161.444 2055.88 158.782 Q2057.83 156.097 2057.83 151.398 Z" fill="#000000" fill-rule="nonzero" fill-opacity="1" /><path clip-path="url(#clip750)" d="M2091.49 150.31 L2091.49 152.393 L2071.9 152.393 Q2072.18 156.791 2074.54 159.106 Q2076.93 161.398 2081.16 161.398 Q2083.61 161.398 2085.91 160.796 Q2088.22 160.194 2090.49 158.99 L2090.49 163.018 Q2088.2 163.99 2085.79 164.5 Q2083.38 165.009 2080.91 165.009 Q2074.7 165.009 2071.07 161.398 Q2067.46 157.787 2067.46 151.629 Q2067.46 145.264 2070.88 141.537 Q2074.33 137.787 2080.17 137.787 Q2085.4 137.787 2088.43 141.166 Q2091.49 144.523 2091.49 150.31 M2087.23 149.06 Q2087.18 145.565 2085.26 143.481 Q2083.36 141.398 2080.21 141.398 Q2076.65 141.398 2074.49 143.412 Q2072.36 145.426 2072.04 149.083 L2087.23 149.06 Z" fill="#000000" fill-rule="nonzero" fill-opacity="1" /><path clip-path="url(#clip750)" d="M2117.13 139.407 L2117.13 143.389 Q2115.33 142.393 2113.5 141.907 Q2111.69 141.398 2109.84 141.398 Q2105.7 141.398 2103.41 144.037 Q2101.11 146.652 2101.11 151.398 Q2101.11 156.143 2103.41 158.782 Q2105.7 161.398 2109.84 161.398 Q2111.69 161.398 2113.5 160.912 Q2115.33 160.402 2117.13 159.407 L2117.13 163.342 Q2115.35 164.176 2113.43 164.592 Q2111.53 165.009 2109.38 165.009 Q2103.52 165.009 2100.07 161.328 Q2096.62 157.648 2096.62 151.398 Q2096.62 145.055 2100.1 141.421 Q2103.59 137.787 2109.66 137.787 Q2111.62 137.787 2113.5 138.203 Q2115.37 138.597 2117.13 139.407 Z" fill="#000000" fill-rule="nonzero" fill-opacity="1" /><path clip-path="url(#clip750)" d="M2128.75 131.051 L2128.75 138.412 L2137.53 138.412 L2137.53 141.722 L2128.75 141.722 L2128.75 155.796 Q2128.75 158.967 2129.61 159.87 Q2130.49 160.773 2133.15 160.773 L2137.53 160.773 L2137.53 164.338 L2133.15 164.338 Q2128.22 164.338 2126.35 162.509 Q2124.47 160.657 2124.47 155.796 L2124.47 141.722 L2121.35 141.722 L2121.35 138.412 L2124.47 138.412 L2124.47 131.051 L2128.75 131.051 Z" fill="#000000" fill-rule="nonzero" fill-opacity="1" /><path clip-path="url(#clip750)" d="M2154.91 151.305 Q2149.75 151.305 2147.76 152.486 Q2145.77 153.666 2145.77 156.514 Q2145.77 158.782 2147.25 160.125 Q2148.75 161.444 2151.32 161.444 Q2154.86 161.444 2156.99 158.944 Q2159.15 156.421 2159.15 152.254 L2159.15 151.305 L2154.91 151.305 M2163.41 149.546 L2163.41 164.338 L2159.15 164.338 L2159.15 160.402 Q2157.69 162.763 2155.51 163.898 Q2153.34 165.009 2150.19 165.009 Q2146.21 165.009 2143.85 162.787 Q2141.51 160.541 2141.51 156.791 Q2141.51 152.416 2144.42 150.194 Q2147.36 147.972 2153.17 147.972 L2159.15 147.972 L2159.15 147.555 Q2159.15 144.615 2157.2 143.018 Q2155.28 141.398 2151.79 141.398 Q2149.56 141.398 2147.46 141.93 Q2145.35 142.463 2143.41 143.527 L2143.41 139.592 Q2145.74 138.69 2147.94 138.25 Q2150.14 137.787 2152.23 137.787 Q2157.85 137.787 2160.63 140.703 Q2163.41 143.62 2163.41 149.546 Z" fill="#000000" fill-rule="nonzero" fill-opacity="1" /><path clip-path="url(#clip750)" d="M2176.39 131.051 L2176.39 138.412 L2185.17 138.412 L2185.17 141.722 L2176.39 141.722 L2176.39 155.796 Q2176.39 158.967 2177.25 159.87 Q2178.13 160.773 2180.79 160.773 L2185.17 160.773 L2185.17 164.338 L2180.79 164.338 Q2175.86 164.338 2173.98 162.509 Q2172.11 160.657 2172.11 155.796 L2172.11 141.722 L2168.98 141.722 L2168.98 138.412 L2172.11 138.412 L2172.11 131.051 L2176.39 131.051 Z" fill="#000000" fill-rule="nonzero" fill-opacity="1" /><path clip-path="url(#clip750)" d="M2190.77 138.412 L2195.03 138.412 L2195.03 164.338 L2190.77 164.338 L2190.77 138.412 M2190.77 128.319 L2195.03 128.319 L2195.03 133.713 L2190.77 133.713 L2190.77 128.319 Z" fill="#000000" fill-rule="nonzero" fill-opacity="1" /><path clip-path="url(#clip750)" d="M2213.98 141.398 Q2210.56 141.398 2208.57 144.083 Q2206.58 146.745 2206.58 151.398 Q2206.58 156.051 2208.54 158.736 Q2210.54 161.398 2213.98 161.398 Q2217.39 161.398 2219.38 158.713 Q2221.37 156.027 2221.37 151.398 Q2221.37 146.791 2219.38 144.106 Q2217.39 141.398 2213.98 141.398 M2213.98 137.787 Q2219.54 137.787 2222.71 141.398 Q2225.88 145.009 2225.88 151.398 Q2225.88 157.764 2222.71 161.398 Q2219.54 165.009 2213.98 165.009 Q2208.41 165.009 2205.23 161.398 Q2202.09 157.764 2202.09 151.398 Q2202.09 145.009 2205.23 141.398 Q2208.41 137.787 2213.98 137.787 Z" fill="#000000" fill-rule="nonzero" fill-opacity="1" /><path clip-path="url(#clip750)" d="M2254.49 148.689 L2254.49 164.338 L2250.23 164.338 L2250.23 148.828 Q2250.23 145.148 2248.8 143.319 Q2247.36 141.49 2244.49 141.49 Q2241.04 141.49 2239.05 143.69 Q2237.06 145.889 2237.06 149.685 L2237.06 164.338 L2232.78 164.338 L2232.78 138.412 L2237.06 138.412 L2237.06 142.44 Q2238.59 140.102 2240.65 138.944 Q2242.73 137.787 2245.44 137.787 Q2249.91 137.787 2252.2 140.565 Q2254.49 143.319 2254.49 148.689 Z" fill="#000000" fill-rule="nonzero" fill-opacity="1" /><path clip-path="url(#clip750)" d="M1809.43 219.634 L1956.83 219.634 L1956.83 178.162 L1809.43 178.162 L1809.43 219.634  Z" fill="#e26f46" fill-rule="evenodd" fill-opacity="0.5"/>
<polyline clip-path="url(#clip750)" style="stroke:#000000; stroke-linecap:round; stroke-linejoin:round; stroke-width:4; stroke-opacity:1; fill:none" points="1809.43,219.634 1956.83,219.634 1956.83,178.162 1809.43,178.162 1809.43,219.634 "/>
<path clip-path="url(#clip750)" d="M2009.26 184.28 L2009.26 189.21 Q2006.9 187.011 2004.22 185.923 Q2001.56 184.835 1998.55 184.835 Q1992.62 184.835 1989.47 188.469 Q1986.32 192.08 1986.32 198.932 Q1986.32 205.761 1989.47 209.395 Q1992.62 213.006 1998.55 213.006 Q2001.56 213.006 2004.22 211.918 Q2006.9 210.83 2009.26 208.631 L2009.26 213.516 Q2006.81 215.182 2004.06 216.016 Q2001.32 216.849 1998.27 216.849 Q1990.42 216.849 1985.91 212.057 Q1981.39 207.242 1981.39 198.932 Q1981.39 190.599 1985.91 185.807 Q1990.42 180.993 1998.27 180.993 Q2001.37 180.993 2004.1 181.826 Q2006.86 182.636 2009.26 184.28 Z" fill="#000000" fill-rule="nonzero" fill-opacity="1" /><path clip-path="url(#clip750)" d="M2025.4 216.178 L2012.2 181.618 L2017.09 181.618 L2028.04 210.715 L2039.01 181.618 L2043.87 181.618 L2030.7 216.178 L2025.4 216.178 Z" fill="#000000" fill-rule="nonzero" fill-opacity="1" /><path clip-path="url(#clip750)" d="M2061.9 203.747 Q2061.9 207.057 2063.55 208.955 Q2065.19 210.83 2068.06 210.83 Q2070.91 210.83 2072.53 208.932 Q2074.17 207.034 2074.17 203.747 Q2074.17 200.506 2072.5 198.608 Q2070.84 196.687 2068.01 196.687 Q2065.21 196.687 2063.55 198.585 Q2061.9 200.483 2061.9 203.747 M2074.52 210.668 Q2073.13 212.451 2071.32 213.307 Q2069.54 214.141 2067.16 214.141 Q2063.18 214.141 2060.68 211.27 Q2058.2 208.377 2058.2 203.747 Q2058.2 199.117 2060.7 196.224 Q2063.2 193.33 2067.16 193.33 Q2069.54 193.33 2071.35 194.21 Q2073.15 195.067 2074.52 196.826 L2074.52 193.793 L2077.83 193.793 L2077.83 210.83 Q2081.21 210.321 2083.11 207.752 Q2085.03 205.159 2085.03 201.062 Q2085.03 198.585 2084.29 196.409 Q2083.57 194.233 2082.09 192.381 Q2079.68 189.349 2076.21 187.752 Q2072.76 186.131 2068.68 186.131 Q2065.84 186.131 2063.22 186.895 Q2060.61 187.636 2058.38 189.118 Q2054.75 191.479 2052.69 195.321 Q2050.65 199.141 2050.65 203.608 Q2050.65 207.289 2051.97 210.506 Q2053.31 213.724 2055.84 216.178 Q2058.27 218.585 2061.46 219.835 Q2064.66 221.108 2068.29 221.108 Q2071.28 221.108 2074.15 220.09 Q2077.04 219.094 2079.45 217.219 L2081.53 219.789 Q2078.64 222.034 2075.21 223.215 Q2071.81 224.418 2068.29 224.418 Q2064.01 224.418 2060.21 222.89 Q2056.42 221.386 2053.45 218.492 Q2050.49 215.599 2048.94 211.803 Q2047.39 207.983 2047.39 203.608 Q2047.39 199.395 2048.96 195.576 Q2050.54 191.756 2053.45 188.863 Q2056.44 185.923 2060.35 184.372 Q2064.26 182.798 2068.64 182.798 Q2073.55 182.798 2077.74 184.812 Q2081.95 186.826 2084.8 190.53 Q2086.53 192.798 2087.43 195.46 Q2088.36 198.122 2088.36 200.969 Q2088.36 207.057 2084.68 210.576 Q2081 214.094 2074.52 214.233 L2074.52 210.668 Z" fill="#000000" fill-rule="nonzero" fill-opacity="1" /><path clip-path="url(#clip750)" d="M2112.71 199.974 Q2114.22 200.483 2115.63 202.15 Q2117.06 203.817 2118.5 206.733 L2123.24 216.178 L2118.22 216.178 L2113.8 207.312 Q2112.09 203.84 2110.47 202.705 Q2108.87 201.571 2106.09 201.571 L2101 201.571 L2101 216.178 L2096.32 216.178 L2096.32 181.618 L2106.88 181.618 Q2112.8 181.618 2115.72 184.094 Q2118.64 186.571 2118.64 191.571 Q2118.64 194.835 2117.11 196.988 Q2115.61 199.141 2112.71 199.974 M2101 185.46 L2101 197.729 L2106.88 197.729 Q2110.26 197.729 2111.97 196.178 Q2113.71 194.604 2113.71 191.571 Q2113.71 188.539 2111.97 187.011 Q2110.26 185.46 2106.88 185.46 L2101 185.46 Z" fill="#000000" fill-rule="nonzero" fill-opacity="1" /></svg>
