<?xml version="1.0" encoding="utf-8"?>
<svg xmlns="http://www.w3.org/2000/svg" xmlns:xlink="http://www.w3.org/1999/xlink" width="600" height="400" viewBox="0 0 2400 1600">
<defs>
  <clipPath id="clip630">
    <rect x="0" y="0" width="2400" height="1600"/>
  </clipPath>
</defs>
<path clip-path="url(#clip630)" d="M0 1600 L2400 1600 L2400 0 L0 0  Z" fill="#ffffff" fill-rule="evenodd" fill-opacity="1"/>
<defs>
  <clipPath id="clip631">
    <rect x="480" y="0" width="1681" height="1600"/>
  </clipPath>
</defs>
<path clip-path="url(#clip630)" d="M205.121 1423.18 L2352.76 1423.18 L2352.76 47.2441 L205.121 47.2441  Z" fill="#ffffff" fill-rule="evenodd" fill-opacity="1"/>
<defs>
  <clipPath id="clip632">
    <rect x="205" y="47" width="2149" height="1377"/>
  </clipPath>
</defs>
<polyline clip-path="url(#clip632)" style="stroke:#000000; stroke-linecap:round; stroke-linejoin:round; stroke-width:2; stroke-opacity:0.1; fill:none" points="323.245,1423.18 323.245,47.2441 "/>
<polyline clip-path="url(#clip632)" style="stroke:#000000; stroke-linecap:round; stroke-linejoin:round; stroke-width:2; stroke-opacity:0.1; fill:none" points="641.809,1423.18 641.809,47.2441 "/>
<polyline clip-path="url(#clip632)" style="stroke:#000000; stroke-linecap:round; stroke-linejoin:round; stroke-width:2; stroke-opacity:0.1; fill:none" points="960.374,1423.18 960.374,47.2441 "/>
<polyline clip-path="url(#clip632)" style="stroke:#000000; stroke-linecap:round; stroke-linejoin:round; stroke-width:2; stroke-opacity:0.1; fill:none" points="1278.94,1423.18 1278.94,47.2441 "/>
<polyline clip-path="url(#clip632)" style="stroke:#000000; stroke-linecap:round; stroke-linejoin:round; stroke-width:2; stroke-opacity:0.1; fill:none" points="1597.5,1423.18 1597.5,47.2441 "/>
<polyline clip-path="url(#clip632)" style="stroke:#000000; stroke-linecap:round; stroke-linejoin:round; stroke-width:2; stroke-opacity:0.1; fill:none" points="1916.07,1423.18 1916.07,47.2441 "/>
<polyline clip-path="url(#clip632)" style="stroke:#000000; stroke-linecap:round; stroke-linejoin:round; stroke-width:2; stroke-opacity:0.1; fill:none" points="2234.63,1423.18 2234.63,47.2441 "/>
<polyline clip-path="url(#clip632)" style="stroke:#000000; stroke-linecap:round; stroke-linejoin:round; stroke-width:2; stroke-opacity:0.1; fill:none" points="205.121,1423.18 2352.76,1423.18 "/>
<polyline clip-path="url(#clip632)" style="stroke:#000000; stroke-linecap:round; stroke-linejoin:round; stroke-width:2; stroke-opacity:0.1; fill:none" points="205.121,1103.19 2352.76,1103.19 "/>
<polyline clip-path="url(#clip632)" style="stroke:#000000; stroke-linecap:round; stroke-linejoin:round; stroke-width:2; stroke-opacity:0.1; fill:none" points="205.121,783.21 2352.76,783.21 "/>
<polyline clip-path="url(#clip632)" style="stroke:#000000; stroke-linecap:round; stroke-linejoin:round; stroke-width:2; stroke-opacity:0.1; fill:none" points="205.121,463.225 2352.76,463.225 "/>
<polyline clip-path="url(#clip632)" style="stroke:#000000; stroke-linecap:round; stroke-linejoin:round; stroke-width:2; stroke-opacity:0.1; fill:none" points="205.121,143.24 2352.76,143.24 "/>
<polyline clip-path="url(#clip630)" style="stroke:#000000; stroke-linecap:round; stroke-linejoin:round; stroke-width:4; stroke-opacity:1; fill:none" points="205.121,1423.18 2352.76,1423.18 "/>
<polyline clip-path="url(#clip630)" style="stroke:#000000; stroke-linecap:round; stroke-linejoin:round; stroke-width:4; stroke-opacity:1; fill:none" points="323.245,1423.18 323.245,1404.28 "/>
<polyline clip-path="url(#clip630)" style="stroke:#000000; stroke-linecap:round; stroke-linejoin:round; stroke-width:4; stroke-opacity:1; fill:none" points="641.809,1423.18 641.809,1404.28 "/>
<polyline clip-path="url(#clip630)" style="stroke:#000000; stroke-linecap:round; stroke-linejoin:round; stroke-width:4; stroke-opacity:1; fill:none" points="960.374,1423.18 960.374,1404.28 "/>
<polyline clip-path="url(#clip630)" style="stroke:#000000; stroke-linecap:round; stroke-linejoin:round; stroke-width:4; stroke-opacity:1; fill:none" points="1278.94,1423.18 1278.94,1404.28 "/>
<polyline clip-path="url(#clip630)" style="stroke:#000000; stroke-linecap:round; stroke-linejoin:round; stroke-width:4; stroke-opacity:1; fill:none" points="1597.5,1423.18 1597.5,1404.28 "/>
<polyline clip-path="url(#clip630)" style="stroke:#000000; stroke-linecap:round; stroke-linejoin:round; stroke-width:4; stroke-opacity:1; fill:none" points="1916.07,1423.18 1916.07,1404.28 "/>
<polyline clip-path="url(#clip630)" style="stroke:#000000; stroke-linecap:round; stroke-linejoin:round; stroke-width:4; stroke-opacity:1; fill:none" points="2234.63,1423.18 2234.63,1404.28 "/>
<path clip-path="url(#clip630)" d="M297.006 1466.95 Q300.363 1467.66 302.238 1469.93 Q304.136 1472.2 304.136 1475.53 Q304.136 1480.65 300.618 1483.45 Q297.099 1486.25 290.618 1486.25 Q288.442 1486.25 286.127 1485.81 Q283.835 1485.39 281.382 1484.54 L281.382 1480.02 Q283.326 1481.16 285.641 1481.74 Q287.956 1482.32 290.479 1482.32 Q294.877 1482.32 297.168 1480.58 Q299.483 1478.84 299.483 1475.53 Q299.483 1472.48 297.331 1470.77 Q295.201 1469.03 291.381 1469.03 L287.354 1469.03 L287.354 1465.19 L291.567 1465.19 Q295.016 1465.19 296.844 1463.82 Q298.673 1462.43 298.673 1459.84 Q298.673 1457.18 296.775 1455.77 Q294.9 1454.33 291.381 1454.33 Q289.46 1454.33 287.261 1454.75 Q285.062 1455.16 282.423 1456.04 L282.423 1451.88 Q285.085 1451.14 287.4 1450.77 Q289.738 1450.39 291.798 1450.39 Q297.122 1450.39 300.224 1452.83 Q303.326 1455.23 303.326 1459.35 Q303.326 1462.22 301.682 1464.21 Q300.039 1466.18 297.006 1466.95 Z" fill="#000000" fill-rule="nonzero" fill-opacity="1" /><path clip-path="url(#clip630)" d="M313.048 1451.02 L331.404 1451.02 L331.404 1454.96 L317.33 1454.96 L317.33 1463.43 Q318.349 1463.08 319.367 1462.92 Q320.386 1462.73 321.404 1462.73 Q327.191 1462.73 330.571 1465.9 Q333.951 1469.08 333.951 1474.49 Q333.951 1480.07 330.478 1483.17 Q327.006 1486.25 320.687 1486.25 Q318.511 1486.25 316.242 1485.88 Q313.997 1485.51 311.59 1484.77 L311.59 1480.07 Q313.673 1481.2 315.895 1481.76 Q318.117 1482.32 320.594 1482.32 Q324.599 1482.32 326.937 1480.21 Q329.275 1478.1 329.275 1474.49 Q329.275 1470.88 326.937 1468.77 Q324.599 1466.67 320.594 1466.67 Q318.719 1466.67 316.844 1467.08 Q314.992 1467.5 313.048 1468.38 L313.048 1451.02 Z" fill="#000000" fill-rule="nonzero" fill-opacity="1" /><path clip-path="url(#clip630)" d="M353.164 1454.1 Q349.552 1454.1 347.724 1457.66 Q345.918 1461.2 345.918 1468.33 Q345.918 1475.44 347.724 1479.01 Q349.552 1482.55 353.164 1482.55 Q356.798 1482.55 358.603 1479.01 Q360.432 1475.44 360.432 1468.33 Q360.432 1461.2 358.603 1457.66 Q356.798 1454.1 353.164 1454.1 M353.164 1450.39 Q358.974 1450.39 362.029 1455 Q365.108 1459.58 365.108 1468.33 Q365.108 1477.06 362.029 1481.67 Q358.974 1486.25 353.164 1486.25 Q347.353 1486.25 344.275 1481.67 Q341.219 1477.06 341.219 1468.33 Q341.219 1459.58 344.275 1455 Q347.353 1450.39 353.164 1450.39 Z" fill="#000000" fill-rule="nonzero" fill-opacity="1" /><path clip-path="url(#clip630)" d="M614.9 1455.09 L603.094 1473.54 L614.9 1473.54 L614.9 1455.09 M613.673 1451.02 L619.552 1451.02 L619.552 1473.54 L624.483 1473.54 L624.483 1477.43 L619.552 1477.43 L619.552 1485.58 L614.9 1485.58 L614.9 1477.43 L599.298 1477.43 L599.298 1472.92 L613.673 1451.02 Z" fill="#000000" fill-rule="nonzero" fill-opacity="1" /><path clip-path="url(#clip630)" d="M642.214 1454.1 Q638.603 1454.1 636.775 1457.66 Q634.969 1461.2 634.969 1468.33 Q634.969 1475.44 636.775 1479.01 Q638.603 1482.55 642.214 1482.55 Q645.849 1482.55 647.654 1479.01 Q649.483 1475.44 649.483 1468.33 Q649.483 1461.2 647.654 1457.66 Q645.849 1454.1 642.214 1454.1 M642.214 1450.39 Q648.025 1450.39 651.08 1455 Q654.159 1459.58 654.159 1468.33 Q654.159 1477.06 651.08 1481.67 Q648.025 1486.25 642.214 1486.25 Q636.404 1486.25 633.326 1481.67 Q630.27 1477.06 630.27 1468.33 Q630.27 1459.58 633.326 1455 Q636.404 1450.39 642.214 1450.39 Z" fill="#000000" fill-rule="nonzero" fill-opacity="1" /><path clip-path="url(#clip630)" d="M672.376 1454.1 Q668.765 1454.1 666.936 1457.66 Q665.131 1461.2 665.131 1468.33 Q665.131 1475.44 666.936 1479.01 Q668.765 1482.55 672.376 1482.55 Q676.01 1482.55 677.816 1479.01 Q679.645 1475.44 679.645 1468.33 Q679.645 1461.2 677.816 1457.66 Q676.01 1454.1 672.376 1454.1 M672.376 1450.39 Q678.186 1450.39 681.242 1455 Q684.321 1459.58 684.321 1468.33 Q684.321 1477.06 681.242 1481.67 Q678.186 1486.25 672.376 1486.25 Q666.566 1486.25 663.487 1481.67 Q660.432 1477.06 660.432 1468.33 Q660.432 1459.58 663.487 1455 Q666.566 1450.39 672.376 1450.39 Z" fill="#000000" fill-rule="nonzero" fill-opacity="1" /><path clip-path="url(#clip630)" d="M933.464 1455.09 L921.659 1473.54 L933.464 1473.54 L933.464 1455.09 M932.237 1451.02 L938.117 1451.02 L938.117 1473.54 L943.048 1473.54 L943.048 1477.43 L938.117 1477.43 L938.117 1485.58 L933.464 1485.58 L933.464 1477.43 L917.863 1477.43 L917.863 1472.92 L932.237 1451.02 Z" fill="#000000" fill-rule="nonzero" fill-opacity="1" /><path clip-path="url(#clip630)" d="M950.825 1451.02 L969.182 1451.02 L969.182 1454.96 L955.108 1454.96 L955.108 1463.43 Q956.126 1463.08 957.145 1462.92 Q958.163 1462.73 959.182 1462.73 Q964.969 1462.73 968.348 1465.9 Q971.728 1469.08 971.728 1474.49 Q971.728 1480.07 968.256 1483.17 Q964.784 1486.25 958.464 1486.25 Q956.288 1486.25 954.02 1485.88 Q951.774 1485.51 949.367 1484.77 L949.367 1480.07 Q951.45 1481.2 953.673 1481.76 Q955.895 1482.32 958.372 1482.32 Q962.376 1482.32 964.714 1480.21 Q967.052 1478.1 967.052 1474.49 Q967.052 1470.88 964.714 1468.77 Q962.376 1466.67 958.372 1466.67 Q956.497 1466.67 954.622 1467.08 Q952.77 1467.5 950.825 1468.38 L950.825 1451.02 Z" fill="#000000" fill-rule="nonzero" fill-opacity="1" /><path clip-path="url(#clip630)" d="M990.941 1454.1 Q987.33 1454.1 985.501 1457.66 Q983.696 1461.2 983.696 1468.33 Q983.696 1475.44 985.501 1479.01 Q987.33 1482.55 990.941 1482.55 Q994.575 1482.55 996.381 1479.01 Q998.209 1475.44 998.209 1468.33 Q998.209 1461.2 996.381 1457.66 Q994.575 1454.1 990.941 1454.1 M990.941 1450.39 Q996.751 1450.39 999.807 1455 Q1002.89 1459.58 1002.89 1468.33 Q1002.89 1477.06 999.807 1481.67 Q996.751 1486.25 990.941 1486.25 Q985.131 1486.25 982.052 1481.67 Q978.996 1477.06 978.996 1468.33 Q978.996 1459.58 982.052 1455 Q985.131 1450.39 990.941 1450.39 Z" fill="#000000" fill-rule="nonzero" fill-opacity="1" /><path clip-path="url(#clip630)" d="M1238.56 1451.02 L1256.91 1451.02 L1256.91 1454.96 L1242.84 1454.96 L1242.84 1463.43 Q1243.86 1463.08 1244.88 1462.92 Q1245.89 1462.73 1246.91 1462.73 Q1252.7 1462.73 1256.08 1465.9 Q1259.46 1469.08 1259.46 1474.49 Q1259.46 1480.07 1255.99 1483.17 Q1252.51 1486.25 1246.2 1486.25 Q1244.02 1486.25 1241.75 1485.88 Q1239.51 1485.51 1237.1 1484.77 L1237.1 1480.07 Q1239.18 1481.2 1241.4 1481.76 Q1243.63 1482.32 1246.1 1482.32 Q1250.11 1482.32 1252.45 1480.21 Q1254.78 1478.1 1254.78 1474.49 Q1254.78 1470.88 1252.45 1468.77 Q1250.11 1466.67 1246.1 1466.67 Q1244.23 1466.67 1242.35 1467.08 Q1240.5 1467.5 1238.56 1468.38 L1238.56 1451.02 Z" fill="#000000" fill-rule="nonzero" fill-opacity="1" /><path clip-path="url(#clip630)" d="M1278.67 1454.1 Q1275.06 1454.1 1273.23 1457.66 Q1271.43 1461.2 1271.43 1468.33 Q1271.43 1475.44 1273.23 1479.01 Q1275.06 1482.55 1278.67 1482.55 Q1282.31 1482.55 1284.11 1479.01 Q1285.94 1475.44 1285.94 1468.33 Q1285.94 1461.2 1284.11 1457.66 Q1282.31 1454.1 1278.67 1454.1 M1278.67 1450.39 Q1284.48 1450.39 1287.54 1455 Q1290.62 1459.58 1290.62 1468.33 Q1290.62 1477.06 1287.54 1481.67 Q1284.48 1486.25 1278.67 1486.25 Q1272.86 1486.25 1269.78 1481.67 Q1266.73 1477.06 1266.73 1468.33 Q1266.73 1459.58 1269.78 1455 Q1272.86 1450.39 1278.67 1450.39 Z" fill="#000000" fill-rule="nonzero" fill-opacity="1" /><path clip-path="url(#clip630)" d="M1308.83 1454.1 Q1305.22 1454.1 1303.39 1457.66 Q1301.59 1461.2 1301.59 1468.33 Q1301.59 1475.44 1303.39 1479.01 Q1305.22 1482.55 1308.83 1482.55 Q1312.47 1482.55 1314.27 1479.01 Q1316.1 1475.44 1316.1 1468.33 Q1316.1 1461.2 1314.27 1457.66 Q1312.47 1454.1 1308.83 1454.1 M1308.83 1450.39 Q1314.64 1450.39 1317.7 1455 Q1320.78 1459.58 1320.78 1468.33 Q1320.78 1477.06 1317.7 1481.67 Q1314.64 1486.25 1308.83 1486.25 Q1303.02 1486.25 1299.95 1481.67 Q1296.89 1477.06 1296.89 1468.33 Q1296.89 1459.58 1299.95 1455 Q1303.02 1450.39 1308.83 1450.39 Z" fill="#000000" fill-rule="nonzero" fill-opacity="1" /><path clip-path="url(#clip630)" d="M1557.12 1451.02 L1575.48 1451.02 L1575.48 1454.96 L1561.4 1454.96 L1561.4 1463.43 Q1562.42 1463.08 1563.44 1462.92 Q1564.46 1462.73 1565.48 1462.73 Q1571.26 1462.73 1574.64 1465.9 Q1578.02 1469.08 1578.02 1474.49 Q1578.02 1480.07 1574.55 1483.17 Q1571.08 1486.25 1564.76 1486.25 Q1562.58 1486.25 1560.32 1485.88 Q1558.07 1485.51 1555.66 1484.77 L1555.66 1480.07 Q1557.75 1481.2 1559.97 1481.76 Q1562.19 1482.32 1564.67 1482.32 Q1568.67 1482.32 1571.01 1480.21 Q1573.35 1478.1 1573.35 1474.49 Q1573.35 1470.88 1571.01 1468.77 Q1568.67 1466.67 1564.67 1466.67 Q1562.79 1466.67 1560.92 1467.08 Q1559.07 1467.5 1557.12 1468.38 L1557.12 1451.02 Z" fill="#000000" fill-rule="nonzero" fill-opacity="1" /><path clip-path="url(#clip630)" d="M1587.28 1451.02 L1605.64 1451.02 L1605.64 1454.96 L1591.57 1454.96 L1591.57 1463.43 Q1592.58 1463.08 1593.6 1462.92 Q1594.62 1462.73 1595.64 1462.73 Q1601.43 1462.73 1604.81 1465.9 Q1608.19 1469.08 1608.19 1474.49 Q1608.19 1480.07 1604.71 1483.17 Q1601.24 1486.25 1594.92 1486.25 Q1592.75 1486.25 1590.48 1485.88 Q1588.23 1485.51 1585.82 1484.77 L1585.82 1480.07 Q1587.91 1481.2 1590.13 1481.76 Q1592.35 1482.32 1594.83 1482.32 Q1598.83 1482.32 1601.17 1480.21 Q1603.51 1478.1 1603.51 1474.49 Q1603.51 1470.88 1601.17 1468.77 Q1598.83 1466.67 1594.83 1466.67 Q1592.95 1466.67 1591.08 1467.08 Q1589.23 1467.5 1587.28 1468.38 L1587.28 1451.02 Z" fill="#000000" fill-rule="nonzero" fill-opacity="1" /><path clip-path="url(#clip630)" d="M1627.4 1454.1 Q1623.79 1454.1 1621.96 1457.66 Q1620.15 1461.2 1620.15 1468.33 Q1620.15 1475.44 1621.96 1479.01 Q1623.79 1482.55 1627.4 1482.55 Q1631.03 1482.55 1632.84 1479.01 Q1634.67 1475.44 1634.67 1468.33 Q1634.67 1461.2 1632.84 1457.66 Q1631.03 1454.1 1627.4 1454.1 M1627.4 1450.39 Q1633.21 1450.39 1636.26 1455 Q1639.34 1459.58 1639.34 1468.33 Q1639.34 1477.06 1636.26 1481.67 Q1633.21 1486.25 1627.4 1486.25 Q1621.59 1486.25 1618.51 1481.67 Q1615.45 1477.06 1615.45 1468.33 Q1615.45 1459.58 1618.51 1455 Q1621.59 1450.39 1627.4 1450.39 Z" fill="#000000" fill-rule="nonzero" fill-opacity="1" /><path clip-path="url(#clip630)" d="M1886.39 1466.44 Q1883.24 1466.44 1881.39 1468.59 Q1879.56 1470.74 1879.56 1474.49 Q1879.56 1478.22 1881.39 1480.39 Q1883.24 1482.55 1886.39 1482.55 Q1889.54 1482.55 1891.37 1480.39 Q1893.22 1478.22 1893.22 1474.49 Q1893.22 1470.74 1891.37 1468.59 Q1889.54 1466.44 1886.39 1466.44 M1895.67 1451.78 L1895.67 1456.04 Q1893.91 1455.21 1892.11 1454.77 Q1890.33 1454.33 1888.57 1454.33 Q1883.94 1454.33 1881.48 1457.45 Q1879.05 1460.58 1878.71 1466.9 Q1880.07 1464.89 1882.13 1463.82 Q1884.19 1462.73 1886.67 1462.73 Q1891.88 1462.73 1894.89 1465.9 Q1897.92 1469.05 1897.92 1474.49 Q1897.92 1479.82 1894.77 1483.03 Q1891.62 1486.25 1886.39 1486.25 Q1880.4 1486.25 1877.23 1481.67 Q1874.05 1477.06 1874.05 1468.33 Q1874.05 1460.14 1877.94 1455.28 Q1881.83 1450.39 1888.38 1450.39 Q1890.14 1450.39 1891.92 1450.74 Q1893.73 1451.09 1895.67 1451.78 Z" fill="#000000" fill-rule="nonzero" fill-opacity="1" /><path clip-path="url(#clip630)" d="M1915.97 1454.1 Q1912.36 1454.1 1910.54 1457.66 Q1908.73 1461.2 1908.73 1468.33 Q1908.73 1475.44 1910.54 1479.01 Q1912.36 1482.55 1915.97 1482.55 Q1919.61 1482.55 1921.41 1479.01 Q1923.24 1475.44 1923.24 1468.33 Q1923.24 1461.2 1921.41 1457.66 Q1919.61 1454.1 1915.97 1454.1 M1915.97 1450.39 Q1921.79 1450.39 1924.84 1455 Q1927.92 1459.58 1927.92 1468.33 Q1927.92 1477.06 1924.84 1481.67 Q1921.79 1486.25 1915.97 1486.25 Q1910.16 1486.25 1907.09 1481.67 Q1904.03 1477.06 1904.03 1468.33 Q1904.03 1459.58 1907.09 1455 Q1910.16 1450.39 1915.97 1450.39 Z" fill="#000000" fill-rule="nonzero" fill-opacity="1" /><path clip-path="url(#clip630)" d="M1946.14 1454.1 Q1942.53 1454.1 1940.7 1457.66 Q1938.89 1461.2 1938.89 1468.33 Q1938.89 1475.44 1940.7 1479.01 Q1942.53 1482.55 1946.14 1482.55 Q1949.77 1482.55 1951.58 1479.01 Q1953.41 1475.44 1953.41 1468.33 Q1953.41 1461.2 1951.58 1457.66 Q1949.77 1454.1 1946.14 1454.1 M1946.14 1450.39 Q1951.95 1450.39 1955 1455 Q1958.08 1459.58 1958.08 1468.33 Q1958.08 1477.06 1955 1481.67 Q1951.95 1486.25 1946.14 1486.25 Q1940.33 1486.25 1937.25 1481.67 Q1934.19 1477.06 1934.19 1468.33 Q1934.19 1459.58 1937.25 1455 Q1940.33 1450.39 1946.14 1450.39 Z" fill="#000000" fill-rule="nonzero" fill-opacity="1" /><path clip-path="url(#clip630)" d="M2204.96 1466.44 Q2201.81 1466.44 2199.96 1468.59 Q2198.13 1470.74 2198.13 1474.49 Q2198.13 1478.22 2199.96 1480.39 Q2201.81 1482.55 2204.96 1482.55 Q2208.1 1482.55 2209.93 1480.39 Q2211.79 1478.22 2211.79 1474.49 Q2211.79 1470.74 2209.93 1468.59 Q2208.1 1466.44 2204.96 1466.44 M2214.24 1451.78 L2214.24 1456.04 Q2212.48 1455.21 2210.67 1454.77 Q2208.89 1454.33 2207.13 1454.33 Q2202.5 1454.33 2200.05 1457.45 Q2197.62 1460.58 2197.27 1466.9 Q2198.64 1464.89 2200.7 1463.82 Q2202.76 1462.73 2205.23 1462.73 Q2210.44 1462.73 2213.45 1465.9 Q2216.48 1469.05 2216.48 1474.49 Q2216.48 1479.82 2213.34 1483.03 Q2210.19 1486.25 2204.96 1486.25 Q2198.96 1486.25 2195.79 1481.67 Q2192.62 1477.06 2192.62 1468.33 Q2192.62 1460.14 2196.51 1455.28 Q2200.4 1450.39 2206.95 1450.39 Q2208.71 1450.39 2210.49 1450.74 Q2212.29 1451.09 2214.24 1451.78 Z" fill="#000000" fill-rule="nonzero" fill-opacity="1" /><path clip-path="url(#clip630)" d="M2224.59 1451.02 L2242.94 1451.02 L2242.94 1454.96 L2228.87 1454.96 L2228.87 1463.43 Q2229.89 1463.08 2230.91 1462.92 Q2231.92 1462.73 2232.94 1462.73 Q2238.73 1462.73 2242.11 1465.9 Q2245.49 1469.08 2245.49 1474.49 Q2245.49 1480.07 2242.02 1483.17 Q2238.54 1486.25 2232.22 1486.25 Q2230.05 1486.25 2227.78 1485.88 Q2225.53 1485.51 2223.13 1484.77 L2223.13 1480.07 Q2225.21 1481.2 2227.43 1481.76 Q2229.66 1482.32 2232.13 1482.32 Q2236.14 1482.32 2238.47 1480.21 Q2240.81 1478.1 2240.81 1474.49 Q2240.81 1470.88 2238.47 1468.77 Q2236.14 1466.67 2232.13 1466.67 Q2230.26 1466.67 2228.38 1467.08 Q2226.53 1467.5 2224.59 1468.38 L2224.59 1451.02 Z" fill="#000000" fill-rule="nonzero" fill-opacity="1" /><path clip-path="url(#clip630)" d="M2264.7 1454.1 Q2261.09 1454.1 2259.26 1457.66 Q2257.46 1461.2 2257.46 1468.33 Q2257.46 1475.44 2259.26 1479.01 Q2261.09 1482.55 2264.7 1482.55 Q2268.34 1482.55 2270.14 1479.01 Q2271.97 1475.44 2271.97 1468.33 Q2271.97 1461.2 2270.14 1457.66 Q2268.34 1454.1 2264.7 1454.1 M2264.7 1450.39 Q2270.51 1450.39 2273.57 1455 Q2276.65 1459.58 2276.65 1468.33 Q2276.65 1477.06 2273.57 1481.67 Q2270.51 1486.25 2264.7 1486.25 Q2258.89 1486.25 2255.81 1481.67 Q2252.76 1477.06 2252.76 1468.33 Q2252.76 1459.58 2255.81 1455 Q2258.89 1450.39 2264.7 1450.39 Z" fill="#000000" fill-rule="nonzero" fill-opacity="1" /><path clip-path="url(#clip630)" d="M1149.83 1525.81 L1149.83 1543.66 L1157.91 1543.66 Q1162.4 1543.66 1164.85 1541.34 Q1167.3 1539.02 1167.3 1534.72 Q1167.3 1530.45 1164.85 1528.13 Q1162.4 1525.81 1157.91 1525.81 L1149.83 1525.81 M1143.4 1520.52 L1157.91 1520.52 Q1165.9 1520.52 1169.97 1524.15 Q1174.08 1527.75 1174.08 1534.72 Q1174.08 1541.75 1169.97 1545.35 Q1165.9 1548.95 1157.91 1548.95 L1149.83 1548.95 L1149.83 1568.04 L1143.4 1568.04 L1143.4 1520.52 Z" fill="#000000" fill-rule="nonzero" fill-opacity="1" /><path clip-path="url(#clip630)" d="M1201.96 1537.87 Q1200.97 1537.3 1199.8 1537.04 Q1198.65 1536.76 1197.25 1536.76 Q1192.29 1536.76 1189.61 1540 Q1186.97 1543.22 1186.97 1549.27 L1186.97 1568.04 L1181.08 1568.04 L1181.08 1532.4 L1186.97 1532.4 L1186.97 1537.93 Q1188.82 1534.69 1191.78 1533.13 Q1194.74 1531.54 1198.97 1531.54 Q1199.57 1531.54 1200.31 1531.63 Q1201.04 1531.7 1201.93 1531.85 L1201.96 1537.87 Z" fill="#000000" fill-rule="nonzero" fill-opacity="1" /><path clip-path="url(#clip630)" d="M1220.49 1536.5 Q1215.77 1536.5 1213.04 1540.19 Q1210.3 1543.85 1210.3 1550.25 Q1210.3 1556.65 1213.01 1560.34 Q1215.74 1564 1220.49 1564 Q1225.16 1564 1227.9 1560.31 Q1230.64 1556.62 1230.64 1550.25 Q1230.64 1543.92 1227.9 1540.23 Q1225.16 1536.5 1220.49 1536.5 M1220.49 1531.54 Q1228.12 1531.54 1232.48 1536.5 Q1236.85 1541.47 1236.85 1550.25 Q1236.85 1559 1232.48 1564 Q1228.12 1568.97 1220.49 1568.97 Q1212.81 1568.97 1208.45 1564 Q1204.13 1559 1204.13 1550.25 Q1204.13 1541.47 1208.45 1536.5 Q1212.81 1531.54 1220.49 1531.54 Z" fill="#000000" fill-rule="nonzero" fill-opacity="1" /><path clip-path="url(#clip630)" d="M1264.6 1518.52 L1264.6 1523.39 L1259 1523.39 Q1255.85 1523.39 1254.61 1524.66 Q1253.4 1525.93 1253.4 1529.24 L1253.4 1532.4 L1263.04 1532.4 L1263.04 1536.95 L1253.4 1536.95 L1253.4 1568.04 L1247.51 1568.04 L1247.51 1536.95 L1241.91 1536.95 L1241.91 1532.4 L1247.51 1532.4 L1247.51 1529.91 Q1247.51 1523.96 1250.28 1521.26 Q1253.05 1518.52 1259.06 1518.52 L1264.6 1518.52 Z" fill="#000000" fill-rule="nonzero" fill-opacity="1" /><path clip-path="url(#clip630)" d="M1269.5 1532.4 L1275.36 1532.4 L1275.36 1568.04 L1269.5 1568.04 L1269.5 1532.4 M1269.5 1518.52 L1275.36 1518.52 L1275.36 1525.93 L1269.5 1525.93 L1269.5 1518.52 Z" fill="#000000" fill-rule="nonzero" fill-opacity="1" /><path clip-path="url(#clip630)" d="M1293.4 1522.27 L1293.4 1532.4 L1305.47 1532.4 L1305.47 1536.95 L1293.4 1536.95 L1293.4 1556.3 Q1293.4 1560.66 1294.58 1561.9 Q1295.79 1563.14 1299.45 1563.14 L1305.47 1563.14 L1305.47 1568.04 L1299.45 1568.04 Q1292.67 1568.04 1290.09 1565.53 Q1287.52 1562.98 1287.52 1556.3 L1287.52 1536.95 L1283.22 1536.95 L1283.22 1532.4 L1287.52 1532.4 L1287.52 1522.27 L1293.4 1522.27 Z" fill="#000000" fill-rule="nonzero" fill-opacity="1" /><path clip-path="url(#clip630)" d="M1333.35 1518.52 L1346.84 1518.52 L1346.84 1523.07 L1339.21 1523.07 L1339.21 1572.09 L1346.84 1572.09 L1346.84 1576.64 L1333.35 1576.64 L1333.35 1518.52 Z" fill="#000000" fill-rule="nonzero" fill-opacity="1" /><path clip-path="url(#clip630)" d="M1375.2 1577.62 L1372.02 1577.62 L1371.99 1568.04 Q1368.65 1567.98 1365.31 1567.28 Q1361.96 1566.55 1358.59 1565.12 L1358.59 1559.39 Q1361.84 1561.42 1365.15 1562.47 Q1368.49 1563.49 1372.02 1563.52 L1372.02 1549.01 Q1364.99 1547.86 1361.77 1545.13 Q1358.59 1542.39 1358.59 1537.62 Q1358.59 1532.43 1362.06 1529.44 Q1365.53 1526.44 1372.02 1526 L1372.02 1518.52 L1375.2 1518.52 L1375.2 1525.9 Q1378.16 1526.03 1380.93 1526.54 Q1383.7 1527.02 1386.34 1527.88 L1386.34 1533.45 Q1383.7 1532.11 1380.9 1531.38 Q1378.13 1530.65 1375.2 1530.52 L1375.2 1544.11 Q1382.43 1545.22 1385.83 1548.09 Q1389.24 1550.95 1389.24 1555.92 Q1389.24 1561.3 1385.61 1564.42 Q1382.02 1567.5 1375.2 1567.98 L1375.2 1577.62 M1372.02 1543.54 L1372.02 1530.49 Q1368.33 1530.9 1366.39 1532.59 Q1364.45 1534.27 1364.45 1537.07 Q1364.45 1539.81 1366.23 1541.34 Q1368.04 1542.87 1372.02 1543.54 M1375.2 1549.65 L1375.2 1563.43 Q1379.25 1562.89 1381.28 1561.14 Q1383.35 1559.39 1383.35 1556.52 Q1383.35 1553.72 1381.38 1552.07 Q1379.44 1550.41 1375.2 1549.65 Z" fill="#000000" fill-rule="nonzero" fill-opacity="1" /><path clip-path="url(#clip630)" d="M1414.48 1518.52 L1414.48 1576.64 L1400.98 1576.64 L1400.98 1572.09 L1408.59 1572.09 L1408.59 1523.07 L1400.98 1523.07 L1400.98 1518.52 L1414.48 1518.52 Z" fill="#000000" fill-rule="nonzero" fill-opacity="1" /><polyline clip-path="url(#clip630)" style="stroke:#000000; stroke-linecap:round; stroke-linejoin:round; stroke-width:4; stroke-opacity:1; fill:none" points="205.121,1423.18 205.121,47.2441 "/>
<polyline clip-path="url(#clip630)" style="stroke:#000000; stroke-linecap:round; stroke-linejoin:round; stroke-width:4; stroke-opacity:1; fill:none" points="205.121,1423.18 224.019,1423.18 "/>
<polyline clip-path="url(#clip630)" style="stroke:#000000; stroke-linecap:round; stroke-linejoin:round; stroke-width:4; stroke-opacity:1; fill:none" points="205.121,1103.19 224.019,1103.19 "/>
<polyline clip-path="url(#clip630)" style="stroke:#000000; stroke-linecap:round; stroke-linejoin:round; stroke-width:4; stroke-opacity:1; fill:none" points="205.121,783.21 224.019,783.21 "/>
<polyline clip-path="url(#clip630)" style="stroke:#000000; stroke-linecap:round; stroke-linejoin:round; stroke-width:4; stroke-opacity:1; fill:none" points="205.121,463.225 224.019,463.225 "/>
<polyline clip-path="url(#clip630)" style="stroke:#000000; stroke-linecap:round; stroke-linejoin:round; stroke-width:4; stroke-opacity:1; fill:none" points="205.121,143.24 224.019,143.24 "/>
<path clip-path="url(#clip630)" d="M157.177 1408.98 Q153.566 1408.98 151.737 1412.54 Q149.931 1416.08 149.931 1423.21 Q149.931 1430.32 151.737 1433.89 Q153.566 1437.43 157.177 1437.43 Q160.811 1437.43 162.616 1433.89 Q164.445 1430.32 164.445 1423.21 Q164.445 1416.08 162.616 1412.54 Q160.811 1408.98 157.177 1408.98 M157.177 1405.27 Q162.987 1405.27 166.042 1409.88 Q169.121 1414.46 169.121 1423.21 Q169.121 1431.94 166.042 1436.55 Q162.987 1441.13 157.177 1441.13 Q151.366 1441.13 148.288 1436.55 Q145.232 1431.94 145.232 1423.21 Q145.232 1414.46 148.288 1409.88 Q151.366 1405.27 157.177 1405.27 Z" fill="#000000" fill-rule="nonzero" fill-opacity="1" /><path clip-path="url(#clip630)" d="M117.825 1116.54 L125.464 1116.54 L125.464 1090.17 L117.154 1091.84 L117.154 1087.58 L125.418 1085.91 L130.093 1085.91 L130.093 1116.54 L137.732 1116.54 L137.732 1120.47 L117.825 1120.47 L117.825 1116.54 Z" fill="#000000" fill-rule="nonzero" fill-opacity="1" /><path clip-path="url(#clip630)" d="M157.177 1088.99 Q153.566 1088.99 151.737 1092.56 Q149.931 1096.1 149.931 1103.23 Q149.931 1110.34 151.737 1113.9 Q153.566 1117.44 157.177 1117.44 Q160.811 1117.44 162.616 1113.9 Q164.445 1110.34 164.445 1103.23 Q164.445 1096.1 162.616 1092.56 Q160.811 1088.99 157.177 1088.99 M157.177 1085.29 Q162.987 1085.29 166.042 1089.9 Q169.121 1094.48 169.121 1103.23 Q169.121 1111.96 166.042 1116.56 Q162.987 1121.15 157.177 1121.15 Q151.366 1121.15 148.288 1116.56 Q145.232 1111.96 145.232 1103.23 Q145.232 1094.48 148.288 1089.9 Q151.366 1085.29 157.177 1085.29 Z" fill="#000000" fill-rule="nonzero" fill-opacity="1" /><path clip-path="url(#clip630)" d="M121.043 796.555 L137.362 796.555 L137.362 800.49 L115.418 800.49 L115.418 796.555 Q118.08 793.8 122.663 789.17 Q127.269 784.518 128.45 783.175 Q130.695 780.652 131.575 778.916 Q132.478 777.157 132.478 775.467 Q132.478 772.712 130.533 770.976 Q128.612 769.24 125.51 769.24 Q123.311 769.24 120.857 770.004 Q118.427 770.768 115.649 772.319 L115.649 767.596 Q118.473 766.462 120.927 765.883 Q123.38 765.305 125.418 765.305 Q130.788 765.305 133.982 767.99 Q137.177 770.675 137.177 775.166 Q137.177 777.295 136.367 779.217 Q135.579 781.115 133.473 783.707 Q132.894 784.379 129.792 787.596 Q126.691 790.791 121.043 796.555 Z" fill="#000000" fill-rule="nonzero" fill-opacity="1" /><path clip-path="url(#clip630)" d="M157.177 769.008 Q153.566 769.008 151.737 772.573 Q149.931 776.115 149.931 783.244 Q149.931 790.351 151.737 793.916 Q153.566 797.457 157.177 797.457 Q160.811 797.457 162.616 793.916 Q164.445 790.351 164.445 783.244 Q164.445 776.115 162.616 772.573 Q160.811 769.008 157.177 769.008 M157.177 765.305 Q162.987 765.305 166.042 769.911 Q169.121 774.494 169.121 783.244 Q169.121 791.971 166.042 796.578 Q162.987 801.161 157.177 801.161 Q151.366 801.161 148.288 796.578 Q145.232 791.971 145.232 783.244 Q145.232 774.494 148.288 769.911 Q151.366 765.305 157.177 765.305 Z" fill="#000000" fill-rule="nonzero" fill-opacity="1" /><path clip-path="url(#clip630)" d="M131.181 461.871 Q134.538 462.588 136.413 464.857 Q138.311 467.125 138.311 470.458 Q138.311 475.574 134.792 478.375 Q131.274 481.176 124.793 481.176 Q122.617 481.176 120.302 480.736 Q118.01 480.319 115.556 479.463 L115.556 474.949 Q117.501 476.083 119.816 476.662 Q122.13 477.241 124.654 477.241 Q129.052 477.241 131.343 475.505 Q133.658 473.769 133.658 470.458 Q133.658 467.403 131.505 465.69 Q129.376 463.954 125.556 463.954 L121.529 463.954 L121.529 460.111 L125.742 460.111 Q129.191 460.111 131.019 458.746 Q132.848 457.357 132.848 454.764 Q132.848 452.102 130.95 450.69 Q129.075 449.255 125.556 449.255 Q123.635 449.255 121.436 449.672 Q119.237 450.088 116.598 450.968 L116.598 446.801 Q119.26 446.06 121.575 445.69 Q123.913 445.32 125.973 445.32 Q131.297 445.32 134.399 447.75 Q137.501 450.158 137.501 454.278 Q137.501 457.148 135.857 459.139 Q134.214 461.107 131.181 461.871 Z" fill="#000000" fill-rule="nonzero" fill-opacity="1" /><path clip-path="url(#clip630)" d="M157.177 449.023 Q153.566 449.023 151.737 452.588 Q149.931 456.13 149.931 463.259 Q149.931 470.366 151.737 473.931 Q153.566 477.472 157.177 477.472 Q160.811 477.472 162.616 473.931 Q164.445 470.366 164.445 463.259 Q164.445 456.13 162.616 452.588 Q160.811 449.023 157.177 449.023 M157.177 445.32 Q162.987 445.32 166.042 449.926 Q169.121 454.509 169.121 463.259 Q169.121 471.986 166.042 476.593 Q162.987 481.176 157.177 481.176 Q151.366 481.176 148.288 476.593 Q145.232 471.986 145.232 463.259 Q145.232 454.509 148.288 449.926 Q151.366 445.32 157.177 445.32 Z" fill="#000000" fill-rule="nonzero" fill-opacity="1" /><path clip-path="url(#clip630)" d="M129.862 130.034 L118.056 148.483 L129.862 148.483 L129.862 130.034 M128.635 125.96 L134.515 125.96 L134.515 148.483 L139.445 148.483 L139.445 152.372 L134.515 152.372 L134.515 160.52 L129.862 160.52 L129.862 152.372 L114.26 152.372 L114.26 147.858 L128.635 125.96 Z" fill="#000000" fill-rule="nonzero" fill-opacity="1" /><path clip-path="url(#clip630)" d="M157.177 129.038 Q153.566 129.038 151.737 132.603 Q149.931 136.145 149.931 143.274 Q149.931 150.381 151.737 153.946 Q153.566 157.487 157.177 157.487 Q160.811 157.487 162.616 153.946 Q164.445 150.381 164.445 143.274 Q164.445 136.145 162.616 132.603 Q160.811 129.038 157.177 129.038 M157.177 125.335 Q162.987 125.335 166.042 129.941 Q169.121 134.524 169.121 143.274 Q169.121 152.001 166.042 156.608 Q162.987 161.191 157.177 161.191 Q151.366 161.191 148.288 156.608 Q145.232 152.001 145.232 143.274 Q145.232 134.524 148.288 129.941 Q151.366 125.335 157.177 125.335 Z" fill="#000000" fill-rule="nonzero" fill-opacity="1" /><path clip-path="url(#clip630)" d="M16.4842 1073.5 L16.4842 1064.84 L56.238 1043.77 L16.4842 1043.77 L16.4842 1037.54 L64.0042 1037.54 L64.0042 1046.19 L24.2503 1067.26 L64.0042 1067.26 L64.0042 1073.5 L16.4842 1073.5 Z" fill="#000000" fill-rule="nonzero" fill-opacity="1" /><path clip-path="url(#clip630)" d="M49.9359 1025.6 L28.3562 1025.6 L28.3562 1019.74 L49.7131 1019.74 Q54.7739 1019.74 57.3202 1017.77 Q59.8346 1015.8 59.8346 1011.85 Q59.8346 1007.11 56.8109 1004.37 Q53.7872 1001.6 48.5673 1001.6 L28.3562 1001.6 L28.3562 995.744 L64.0042 995.744 L64.0042 1001.6 L58.5296 1001.6 Q61.7762 1003.73 63.3676 1006.57 Q64.9272 1009.37 64.9272 1013.09 Q64.9272 1019.23 61.1078 1022.42 Q57.2883 1025.6 49.9359 1025.6 M27.4968 1010.86 L27.4968 1010.86 Z" fill="#000000" fill-rule="nonzero" fill-opacity="1" /><path clip-path="url(#clip630)" d="M35.1993 955.927 Q31.2526 953.731 29.3747 950.675 Q27.4968 947.62 27.4968 943.482 Q27.4968 937.912 31.4117 934.888 Q35.2948 931.865 42.4881 931.865 L64.0042 931.865 L64.0042 937.753 L42.679 937.753 Q37.5546 937.753 35.072 939.567 Q32.5894 941.381 32.5894 945.105 Q32.5894 949.657 35.6131 952.298 Q38.6368 954.94 43.8567 954.94 L64.0042 954.94 L64.0042 960.829 L42.679 960.829 Q37.5228 960.829 35.072 962.643 Q32.5894 964.457 32.5894 968.245 Q32.5894 972.732 35.6449 975.374 Q38.6686 978.016 43.8567 978.016 L64.0042 978.016 L64.0042 983.904 L28.3562 983.904 L28.3562 978.016 L33.8944 978.016 Q30.616 976.011 29.0564 973.21 Q27.4968 970.409 27.4968 966.558 Q27.4968 962.675 29.4702 959.969 Q31.4436 957.232 35.1993 955.927 Z" fill="#000000" fill-rule="nonzero" fill-opacity="1" /><path clip-path="url(#clip630)" d="M46.212 894.593 Q39.7508 894.593 36.0905 897.267 Q32.3984 899.909 32.3984 904.556 Q32.3984 909.203 36.0905 911.876 Q39.7508 914.518 46.212 914.518 Q52.6732 914.518 56.3653 911.876 Q60.0256 909.203 60.0256 904.556 Q60.0256 899.909 56.3653 897.267 Q52.6732 894.593 46.212 894.593 M33.7671 914.518 Q30.5842 912.672 29.0564 909.871 Q27.4968 907.038 27.4968 903.123 Q27.4968 896.63 32.6531 892.588 Q37.8093 888.514 46.212 888.514 Q54.6147 888.514 59.771 892.588 Q64.9272 896.63 64.9272 903.123 Q64.9272 907.038 63.3994 909.871 Q61.8398 912.672 58.657 914.518 L64.0042 914.518 L64.0042 920.406 L14.479 920.406 L14.479 914.518 L33.7671 914.518 Z" fill="#000000" fill-rule="nonzero" fill-opacity="1" /><path clip-path="url(#clip630)" d="M44.7161 848.315 L47.5806 848.315 L47.5806 875.242 Q53.6281 874.86 56.8109 871.613 Q59.9619 868.335 59.9619 862.51 Q59.9619 859.136 59.1344 855.985 Q58.3069 852.802 56.6518 849.683 L62.1899 849.683 Q63.5267 852.834 64.227 856.144 Q64.9272 859.455 64.9272 862.86 Q64.9272 871.39 59.9619 876.387 Q54.9967 881.353 46.5303 881.353 Q37.7774 881.353 32.6531 876.642 Q27.4968 871.9 27.4968 863.879 Q27.4968 856.686 32.1438 852.516 Q36.7589 848.315 44.7161 848.315 M42.9973 854.171 Q38.1912 854.235 35.3266 856.877 Q32.4621 859.486 32.4621 863.815 Q32.4621 868.717 35.2312 871.677 Q38.0002 874.605 43.0292 875.051 L42.9973 854.171 Z" fill="#000000" fill-rule="nonzero" fill-opacity="1" /><path clip-path="url(#clip630)" d="M33.8307 818.046 Q33.2578 819.032 33.0032 820.21 Q32.7167 821.356 32.7167 822.756 Q32.7167 827.722 35.9632 830.395 Q39.1779 833.037 45.2253 833.037 L64.0042 833.037 L64.0042 838.925 L28.3562 838.925 L28.3562 833.037 L33.8944 833.037 Q30.6479 831.191 29.0883 828.231 Q27.4968 825.271 27.4968 821.038 Q27.4968 820.433 27.5923 819.701 Q27.656 818.969 27.8151 818.078 L33.8307 818.046 Z" fill="#000000" fill-rule="nonzero" fill-opacity="1" /><path clip-path="url(#clip630)" d="M32.4621 777.369 Q32.4621 782.079 36.1542 784.817 Q39.8145 787.554 46.212 787.554 Q52.6095 787.554 56.3017 784.849 Q59.9619 782.111 59.9619 777.369 Q59.9619 772.69 56.2698 769.953 Q52.5777 767.216 46.212 767.216 Q39.8781 767.216 36.186 769.953 Q32.4621 772.69 32.4621 777.369 M27.4968 777.369 Q27.4968 769.73 32.4621 765.37 Q37.4273 761.009 46.212 761.009 Q54.9649 761.009 59.9619 765.37 Q64.9272 769.73 64.9272 777.369 Q64.9272 785.04 59.9619 789.4 Q54.9649 793.729 46.212 793.729 Q37.4273 793.729 32.4621 789.4 Q27.4968 785.04 27.4968 777.369 Z" fill="#000000" fill-rule="nonzero" fill-opacity="1" /><path clip-path="url(#clip630)" d="M14.479 733.255 L19.3487 733.255 L19.3487 738.856 Q19.3487 742.007 20.6219 743.249 Q21.895 744.458 25.2052 744.458 L28.3562 744.458 L28.3562 734.814 L32.9077 734.814 L32.9077 744.458 L64.0042 744.458 L64.0042 750.346 L32.9077 750.346 L32.9077 755.948 L28.3562 755.948 L28.3562 750.346 L25.8736 750.346 Q19.9216 750.346 17.2162 747.577 Q14.479 744.808 14.479 738.793 L14.479 733.255 Z" fill="#000000" fill-rule="nonzero" fill-opacity="1" /><path clip-path="url(#clip630)" d="M32.4621 693.819 Q32.4621 698.53 36.1542 701.267 Q39.8145 704.004 46.212 704.004 Q52.6095 704.004 56.3017 701.299 Q59.9619 698.561 59.9619 693.819 Q59.9619 689.14 56.2698 686.403 Q52.5777 683.666 46.212 683.666 Q39.8781 683.666 36.186 686.403 Q32.4621 689.14 32.4621 693.819 M27.4968 693.819 Q27.4968 686.18 32.4621 681.82 Q37.4273 677.459 46.212 677.459 Q54.9649 677.459 59.9619 681.82 Q64.9272 686.18 64.9272 693.819 Q64.9272 701.49 59.9619 705.85 Q54.9649 710.179 46.212 710.179 Q37.4273 710.179 32.4621 705.85 Q27.4968 701.49 27.4968 693.819 Z" fill="#000000" fill-rule="nonzero" fill-opacity="1" /><path clip-path="url(#clip630)" d="M49.9359 668.356 L28.3562 668.356 L28.3562 662.5 L49.7131 662.5 Q54.7739 662.5 57.3202 660.526 Q59.8346 658.553 59.8346 654.606 Q59.8346 649.864 56.8109 647.127 Q53.7872 644.357 48.5673 644.357 L28.3562 644.357 L28.3562 638.501 L64.0042 638.501 L64.0042 644.357 L58.5296 644.357 Q61.7762 646.49 63.3676 649.323 Q64.9272 652.124 64.9272 655.848 Q64.9272 661.99 61.1078 665.173 Q57.2883 668.356 49.9359 668.356 M27.4968 653.62 L27.4968 653.62 Z" fill="#000000" fill-rule="nonzero" fill-opacity="1" /><path clip-path="url(#clip630)" d="M18.2347 620.645 L28.3562 620.645 L28.3562 608.582 L32.9077 608.582 L32.9077 620.645 L52.2594 620.645 Q56.6199 620.645 57.8613 619.468 Q59.1026 618.258 59.1026 614.598 L59.1026 608.582 L64.0042 608.582 L64.0042 614.598 Q64.0042 621.377 61.4897 623.955 Q58.9434 626.533 52.2594 626.533 L32.9077 626.533 L32.9077 630.83 L28.3562 630.83 L28.3562 626.533 L18.2347 626.533 L18.2347 620.645 Z" fill="#000000" fill-rule="nonzero" fill-opacity="1" /><path clip-path="url(#clip630)" d="M29.7248 575.226 L35.1993 575.226 Q33.8307 577.708 33.1623 580.223 Q32.4621 582.706 32.4621 585.252 Q32.4621 590.949 36.0905 594.1 Q39.6872 597.251 46.212 597.251 Q52.7369 597.251 56.3653 594.1 Q59.9619 590.949 59.9619 585.252 Q59.9619 582.706 59.2935 580.223 Q58.5933 577.708 57.2247 575.226 L62.6355 575.226 Q63.7814 577.677 64.3543 580.318 Q64.9272 582.928 64.9272 585.888 Q64.9272 593.941 59.8664 598.683 Q54.8057 603.426 46.212 603.426 Q37.491 603.426 32.4939 598.652 Q27.4968 593.846 27.4968 585.506 Q27.4968 582.801 28.0697 580.223 Q28.6108 577.645 29.7248 575.226 Z" fill="#000000" fill-rule="nonzero" fill-opacity="1" /><path clip-path="url(#clip630)" d="M32.4621 551.227 Q32.4621 555.938 36.1542 558.675 Q39.8145 561.412 46.212 561.412 Q52.6095 561.412 56.3017 558.707 Q59.9619 555.97 59.9619 551.227 Q59.9619 546.548 56.2698 543.811 Q52.5777 541.074 46.212 541.074 Q39.8781 541.074 36.186 543.811 Q32.4621 546.548 32.4621 551.227 M27.4968 551.227 Q27.4968 543.588 32.4621 539.228 Q37.4273 534.867 46.212 534.867 Q54.9649 534.867 59.9619 539.228 Q64.9272 543.588 64.9272 551.227 Q64.9272 558.898 59.9619 563.258 Q54.9649 567.587 46.212 567.587 Q37.4273 567.587 32.4621 563.258 Q27.4968 558.898 27.4968 551.227 Z" fill="#000000" fill-rule="nonzero" fill-opacity="1" /><path clip-path="url(#clip630)" d="M35.1993 497.405 Q31.2526 495.209 29.3747 492.153 Q27.4968 489.098 27.4968 484.96 Q27.4968 479.39 31.4117 476.366 Q35.2948 473.343 42.4881 473.343 L64.0042 473.343 L64.0042 479.231 L42.679 479.231 Q37.5546 479.231 35.072 481.045 Q32.5894 482.859 32.5894 486.583 Q32.5894 491.135 35.6131 493.777 Q38.6368 496.418 43.8567 496.418 L64.0042 496.418 L64.0042 502.307 L42.679 502.307 Q37.5228 502.307 35.072 504.121 Q32.5894 505.935 32.5894 509.723 Q32.5894 514.211 35.6449 516.852 Q38.6686 519.494 43.8567 519.494 L64.0042 519.494 L64.0042 525.382 L28.3562 525.382 L28.3562 519.494 L33.8944 519.494 Q30.616 517.489 29.0564 514.688 Q27.4968 511.887 27.4968 508.036 Q27.4968 504.153 29.4702 501.447 Q31.4436 498.71 35.1993 497.405 Z" fill="#000000" fill-rule="nonzero" fill-opacity="1" /><path clip-path="url(#clip630)" d="M44.7161 431.17 L47.5806 431.17 L47.5806 458.097 Q53.6281 457.715 56.8109 454.468 Q59.9619 451.19 59.9619 445.365 Q59.9619 441.992 59.1344 438.841 Q58.3069 435.658 56.6518 432.539 L62.1899 432.539 Q63.5267 435.69 64.227 439 Q64.9272 442.31 64.9272 445.716 Q64.9272 454.246 59.9619 459.243 Q54.9967 464.208 46.5303 464.208 Q37.7774 464.208 32.6531 459.497 Q27.4968 454.755 27.4968 446.734 Q27.4968 439.541 32.1438 435.371 Q36.7589 431.17 44.7161 431.17 M42.9973 437.026 Q38.1912 437.09 35.3266 439.732 Q32.4621 442.342 32.4621 446.67 Q32.4621 451.572 35.2312 454.532 Q38.0002 457.46 43.0292 457.906 L42.9973 437.026 Z" fill="#000000" fill-rule="nonzero" fill-opacity="1" /><path clip-path="url(#clip630)" d="M29.4065 398.832 L34.9447 398.832 Q33.6716 401.315 33.035 403.988 Q32.3984 406.662 32.3984 409.527 Q32.3984 413.887 33.7352 416.083 Q35.072 418.248 37.7456 418.248 Q39.7826 418.248 40.9603 416.688 Q42.1061 415.128 43.1565 410.418 L43.6021 408.413 Q44.9389 402.174 47.3897 399.564 Q49.8086 396.922 54.1691 396.922 Q59.1344 396.922 62.0308 400.869 Q64.9272 404.784 64.9272 411.659 Q64.9272 414.524 64.3543 417.643 Q63.8132 420.73 62.6992 424.168 L56.6518 424.168 Q58.3387 420.921 59.198 417.77 Q60.0256 414.619 60.0256 411.532 Q60.0256 407.394 58.6251 405.166 Q57.1929 402.938 54.6147 402.938 Q52.2276 402.938 50.9545 404.561 Q49.6813 406.153 48.5037 411.595 L48.0262 413.632 Q46.8804 419.075 44.5251 421.494 Q42.138 423.913 38.0002 423.913 Q32.9713 423.913 30.2341 420.348 Q27.4968 416.783 27.4968 410.227 Q27.4968 406.98 27.9743 404.116 Q28.4517 401.251 29.4065 398.832 Z" fill="#000000" fill-rule="nonzero" fill-opacity="1" /><path clip-path="url(#clip632)" d="M323.245 1391.18 L323.245 1423.18 L482.527 1423.18 L482.527 1391.18 L323.245 1391.18 L323.245 1391.18  Z" fill="#009af9" fill-rule="evenodd" fill-opacity="1"/>
<polyline clip-path="url(#clip632)" style="stroke:#000000; stroke-linecap:round; stroke-linejoin:round; stroke-width:4; stroke-opacity:1; fill:none" points="323.245,1391.18 323.245,1423.18 482.527,1423.18 482.527,1391.18 323.245,1391.18 "/>
<path clip-path="url(#clip632)" d="M482.527 1263.19 L482.527 1423.18 L641.809 1423.18 L641.809 1263.19 L482.527 1263.19 L482.527 1263.19  Z" fill="#009af9" fill-rule="evenodd" fill-opacity="1"/>
<polyline clip-path="url(#clip632)" style="stroke:#000000; stroke-linecap:round; stroke-linejoin:round; stroke-width:4; stroke-opacity:1; fill:none" points="482.527,1263.19 482.527,1423.18 641.809,1423.18 641.809,1263.19 482.527,1263.19 "/>
<path clip-path="url(#clip632)" d="M641.809 1391.18 L641.809 1423.18 L801.092 1423.18 L801.092 1391.18 L641.809 1391.18 L641.809 1391.18  Z" fill="#009af9" fill-rule="evenodd" fill-opacity="1"/>
<polyline clip-path="url(#clip632)" style="stroke:#000000; stroke-linecap:round; stroke-linejoin:round; stroke-width:4; stroke-opacity:1; fill:none" points="641.809,1391.18 641.809,1423.18 801.092,1423.18 801.092,1391.18 641.809,1391.18 "/>
<path clip-path="url(#clip632)" d="M801.092 1295.19 L801.092 1423.18 L960.374 1423.18 L960.374 1295.19 L801.092 1295.19 L801.092 1295.19  Z" fill="#009af9" fill-rule="evenodd" fill-opacity="1"/>
<polyline clip-path="url(#clip632)" style="stroke:#000000; stroke-linecap:round; stroke-linejoin:round; stroke-width:4; stroke-opacity:1; fill:none" points="801.092,1295.19 801.092,1423.18 960.374,1423.18 960.374,1295.19 801.092,1295.19 "/>
<path clip-path="url(#clip632)" d="M960.374 1231.19 L960.374 1423.18 L1119.66 1423.18 L1119.66 1231.19 L960.374 1231.19 L960.374 1231.19  Z" fill="#009af9" fill-rule="evenodd" fill-opacity="1"/>
<polyline clip-path="url(#clip632)" style="stroke:#000000; stroke-linecap:round; stroke-linejoin:round; stroke-width:4; stroke-opacity:1; fill:none" points="960.374,1231.19 960.374,1423.18 1119.66,1423.18 1119.66,1231.19 960.374,1231.19 "/>
<path clip-path="url(#clip632)" d="M1119.66 1231.19 L1119.66 1423.18 L1278.94 1423.18 L1278.94 1231.19 L1119.66 1231.19 L1119.66 1231.19  Z" fill="#009af9" fill-rule="evenodd" fill-opacity="1"/>
<polyline clip-path="url(#clip632)" style="stroke:#000000; stroke-linecap:round; stroke-linejoin:round; stroke-width:4; stroke-opacity:1; fill:none" points="1119.66,1231.19 1119.66,1423.18 1278.94,1423.18 1278.94,1231.19 1119.66,1231.19 "/>
<path clip-path="url(#clip632)" d="M1278.94 1263.19 L1278.94 1423.18 L1438.22 1423.18 L1438.22 1263.19 L1278.94 1263.19 L1278.94 1263.19  Z" fill="#009af9" fill-rule="evenodd" fill-opacity="1"/>
<polyline clip-path="url(#clip632)" style="stroke:#000000; stroke-linecap:round; stroke-linejoin:round; stroke-width:4; stroke-opacity:1; fill:none" points="1278.94,1263.19 1278.94,1423.18 1438.22,1423.18 1438.22,1263.19 1278.94,1263.19 "/>
<path clip-path="url(#clip632)" d="M1438.22 1231.19 L1438.22 1423.18 L1597.5 1423.18 L1597.5 1231.19 L1438.22 1231.19 L1438.22 1231.19  Z" fill="#009af9" fill-rule="evenodd" fill-opacity="1"/>
<polyline clip-path="url(#clip632)" style="stroke:#000000; stroke-linecap:round; stroke-linejoin:round; stroke-width:4; stroke-opacity:1; fill:none" points="1438.22,1231.19 1438.22,1423.18 1597.5,1423.18 1597.5,1231.19 1438.22,1231.19 "/>
<path clip-path="url(#clip632)" d="M1597.5 1135.19 L1597.5 1423.18 L1756.79 1423.18 L1756.79 1135.19 L1597.5 1135.19 L1597.5 1135.19  Z" fill="#009af9" fill-rule="evenodd" fill-opacity="1"/>
<polyline clip-path="url(#clip632)" style="stroke:#000000; stroke-linecap:round; stroke-linejoin:round; stroke-width:4; stroke-opacity:1; fill:none" points="1597.5,1135.19 1597.5,1423.18 1756.79,1423.18 1756.79,1135.19 1597.5,1135.19 "/>
<path clip-path="url(#clip632)" d="M1756.79 1231.19 L1756.79 1423.18 L1916.07 1423.18 L1916.07 1231.19 L1756.79 1231.19 L1756.79 1231.19  Z" fill="#009af9" fill-rule="evenodd" fill-opacity="1"/>
<polyline clip-path="url(#clip632)" style="stroke:#000000; stroke-linecap:round; stroke-linejoin:round; stroke-width:4; stroke-opacity:1; fill:none" points="1756.79,1231.19 1756.79,1423.18 1916.07,1423.18 1916.07,1231.19 1756.79,1231.19 "/>
<path clip-path="url(#clip632)" d="M1916.07 1167.19 L1916.07 1423.18 L2075.35 1423.18 L2075.35 1167.19 L1916.07 1167.19 L1916.07 1167.19  Z" fill="#009af9" fill-rule="evenodd" fill-opacity="1"/>
<polyline clip-path="url(#clip632)" style="stroke:#000000; stroke-linecap:round; stroke-linejoin:round; stroke-width:4; stroke-opacity:1; fill:none" points="1916.07,1167.19 1916.07,1423.18 2075.35,1423.18 2075.35,1167.19 1916.07,1167.19 "/>
<path clip-path="url(#clip632)" d="M2075.35 47.2441 L2075.35 1423.18 L2234.63 1423.18 L2234.63 47.2441 L2075.35 47.2441 L2075.35 47.2441  Z" fill="#009af9" fill-rule="evenodd" fill-opacity="1"/>
<polyline clip-path="url(#clip632)" style="stroke:#000000; stroke-linecap:round; stroke-linejoin:round; stroke-width:4; stroke-opacity:1; fill:none" points="2075.35,47.2441 2075.35,1423.18 2234.63,1423.18 2234.63,47.2441 2075.35,47.2441 "/>
<circle clip-path="url(#clip632)" style="fill:#009af9; stroke:none; fill-opacity:0" cx="402.886" cy="1391.18" r="2"/>
<circle clip-path="url(#clip632)" style="fill:#009af9; stroke:none; fill-opacity:0" cx="562.168" cy="1263.19" r="2"/>
<circle clip-path="url(#clip632)" style="fill:#009af9; stroke:none; fill-opacity:0" cx="721.45" cy="1391.18" r="2"/>
<circle clip-path="url(#clip632)" style="fill:#009af9; stroke:none; fill-opacity:0" cx="880.733" cy="1295.19" r="2"/>
<circle clip-path="url(#clip632)" style="fill:#009af9; stroke:none; fill-opacity:0" cx="1040.02" cy="1231.19" r="2"/>
<circle clip-path="url(#clip632)" style="fill:#009af9; stroke:none; fill-opacity:0" cx="1199.3" cy="1231.19" r="2"/>
<circle clip-path="url(#clip632)" style="fill:#009af9; stroke:none; fill-opacity:0" cx="1358.58" cy="1263.19" r="2"/>
<circle clip-path="url(#clip632)" style="fill:#009af9; stroke:none; fill-opacity:0" cx="1517.86" cy="1231.19" r="2"/>
<circle clip-path="url(#clip632)" style="fill:#009af9; stroke:none; fill-opacity:0" cx="1677.14" cy="1135.19" r="2"/>
<circle clip-path="url(#clip632)" style="fill:#009af9; stroke:none; fill-opacity:0" cx="1836.43" cy="1231.19" r="2"/>
<circle clip-path="url(#clip632)" style="fill:#009af9; stroke:none; fill-opacity:0" cx="1995.71" cy="1167.19" r="2"/>
<circle clip-path="url(#clip632)" style="fill:#009af9; stroke:none; fill-opacity:0" cx="2154.99" cy="47.2441" r="2"/>
<polyline clip-path="url(#clip632)" style="stroke:#e26f46; stroke-linecap:round; stroke-linejoin:round; stroke-width:12; stroke-opacity:1; fill:none" points="1684.92,2799.12 1684.92,-1328.69 "/>
<path clip-path="url(#clip630)" d="M276.709 196.789 L1017.7 196.789 L1017.7 93.1086 L276.709 93.1086  Z" fill="#ffffff" fill-rule="evenodd" fill-opacity="1"/>
<polyline clip-path="url(#clip630)" style="stroke:#000000; stroke-linecap:round; stroke-linejoin:round; stroke-width:4; stroke-opacity:1; fill:none" points="276.709,196.789 1017.7,196.789 1017.7,93.1086 276.709,93.1086 276.709,196.789 "/>
<polyline clip-path="url(#clip630)" style="stroke:#e26f46; stroke-linecap:round; stroke-linejoin:round; stroke-width:12; stroke-opacity:1; fill:none" points="300.571,144.949 443.747,144.949 "/>
<path clip-path="url(#clip630)" d="M467.61 127.669 L489.461 127.669 L489.461 131.604 L472.286 131.604 L472.286 141.835 L488.744 141.835 L488.744 145.77 L472.286 145.77 L472.286 158.293 L489.878 158.293 L489.878 162.229 L467.61 162.229 L467.61 127.669 Z" fill="#000000" fill-rule="nonzero" fill-opacity="1" /><path clip-path="url(#clip630)" d="M518.929 136.303 L509.554 148.919 L519.415 162.229 L514.392 162.229 L506.846 152.043 L499.299 162.229 L494.276 162.229 L504.346 148.664 L495.133 136.303 L500.156 136.303 L507.031 145.539 L513.906 136.303 L518.929 136.303 Z" fill="#000000" fill-rule="nonzero" fill-opacity="1" /><path clip-path="url(#clip630)" d="M529.554 158.34 L529.554 172.09 L525.271 172.09 L525.271 136.303 L529.554 136.303 L529.554 140.238 Q530.896 137.923 532.933 136.812 Q534.994 135.678 537.841 135.678 Q542.563 135.678 545.503 139.428 Q548.466 143.178 548.466 149.289 Q548.466 155.4 545.503 159.15 Q542.563 162.9 537.841 162.9 Q534.994 162.9 532.933 161.789 Q530.896 160.655 529.554 158.34 M544.044 149.289 Q544.044 144.59 542.1 141.928 Q540.179 139.243 536.799 139.243 Q533.42 139.243 531.475 141.928 Q529.554 144.59 529.554 149.289 Q529.554 153.988 531.475 156.673 Q533.42 159.335 536.799 159.335 Q540.179 159.335 542.1 156.673 Q544.044 153.988 544.044 149.289 Z" fill="#000000" fill-rule="nonzero" fill-opacity="1" /><path clip-path="url(#clip630)" d="M577.702 148.201 L577.702 150.284 L558.118 150.284 Q558.396 154.682 560.757 156.997 Q563.142 159.289 567.378 159.289 Q569.831 159.289 572.123 158.687 Q574.438 158.085 576.706 156.881 L576.706 160.909 Q574.415 161.881 572.007 162.391 Q569.6 162.9 567.123 162.9 Q560.919 162.9 557.285 159.289 Q553.674 155.678 553.674 149.52 Q553.674 143.155 557.1 139.428 Q560.549 135.678 566.382 135.678 Q571.614 135.678 574.646 139.057 Q577.702 142.414 577.702 148.201 M573.442 146.951 Q573.396 143.456 571.475 141.372 Q569.577 139.289 566.429 139.289 Q562.864 139.289 560.711 141.303 Q558.581 143.317 558.257 146.974 L573.442 146.951 Z" fill="#000000" fill-rule="nonzero" fill-opacity="1" /><path clip-path="url(#clip630)" d="M603.35 137.298 L603.35 141.28 Q601.544 140.284 599.715 139.798 Q597.91 139.289 596.058 139.289 Q591.915 139.289 589.623 141.928 Q587.331 144.544 587.331 149.289 Q587.331 154.034 589.623 156.673 Q591.915 159.289 596.058 159.289 Q597.91 159.289 599.715 158.803 Q601.544 158.293 603.35 157.298 L603.35 161.233 Q601.567 162.067 599.646 162.483 Q597.748 162.9 595.595 162.9 Q589.739 162.9 586.29 159.219 Q582.841 155.539 582.841 149.289 Q582.841 142.946 586.313 139.312 Q589.808 135.678 595.873 135.678 Q597.84 135.678 599.715 136.095 Q601.59 136.488 603.35 137.298 Z" fill="#000000" fill-rule="nonzero" fill-opacity="1" /><path clip-path="url(#clip630)" d="M614.97 128.942 L614.97 136.303 L623.743 136.303 L623.743 139.613 L614.97 139.613 L614.97 153.687 Q614.97 156.858 615.826 157.761 Q616.706 158.664 619.368 158.664 L623.743 158.664 L623.743 162.229 L619.368 162.229 Q614.438 162.229 612.563 160.4 Q610.688 158.548 610.688 153.687 L610.688 139.613 L607.563 139.613 L607.563 136.303 L610.688 136.303 L610.688 128.942 L614.97 128.942 Z" fill="#000000" fill-rule="nonzero" fill-opacity="1" /><path clip-path="url(#clip630)" d="M651.521 148.201 L651.521 150.284 L631.938 150.284 Q632.215 154.682 634.576 156.997 Q636.961 159.289 641.197 159.289 Q643.65 159.289 645.942 158.687 Q648.257 158.085 650.525 156.881 L650.525 160.909 Q648.234 161.881 645.826 162.391 Q643.419 162.9 640.942 162.9 Q634.738 162.9 631.104 159.289 Q627.493 155.678 627.493 149.52 Q627.493 143.155 630.919 139.428 Q634.368 135.678 640.201 135.678 Q645.433 135.678 648.465 139.057 Q651.521 142.414 651.521 148.201 M647.262 146.951 Q647.215 143.456 645.294 141.372 Q643.396 139.289 640.248 139.289 Q636.683 139.289 634.53 141.303 Q632.4 143.317 632.076 146.974 L647.262 146.951 Z" fill="#000000" fill-rule="nonzero" fill-opacity="1" /><path clip-path="url(#clip630)" d="M675.572 140.238 L675.572 126.21 L679.831 126.21 L679.831 162.229 L675.572 162.229 L675.572 158.34 Q674.229 160.655 672.169 161.789 Q670.132 162.9 667.261 162.9 Q662.562 162.9 659.599 159.15 Q656.66 155.4 656.66 149.289 Q656.66 143.178 659.599 139.428 Q662.562 135.678 667.261 135.678 Q670.132 135.678 672.169 136.812 Q674.229 137.923 675.572 140.238 M661.058 149.289 Q661.058 153.988 662.979 156.673 Q664.923 159.335 668.303 159.335 Q671.683 159.335 673.627 156.673 Q675.572 153.988 675.572 149.289 Q675.572 144.59 673.627 141.928 Q671.683 139.243 668.303 139.243 Q664.923 139.243 662.979 141.928 Q661.058 144.59 661.058 149.289 Z" fill="#000000" fill-rule="nonzero" fill-opacity="1" /><path clip-path="url(#clip630)" d="M707.794 158.34 L707.794 172.09 L703.511 172.09 L703.511 136.303 L707.794 136.303 L707.794 140.238 Q709.136 137.923 711.173 136.812 Q713.233 135.678 716.081 135.678 Q720.803 135.678 723.743 139.428 Q726.706 143.178 726.706 149.289 Q726.706 155.4 723.743 159.15 Q720.803 162.9 716.081 162.9 Q713.233 162.9 711.173 161.789 Q709.136 160.655 707.794 158.34 M722.284 149.289 Q722.284 144.59 720.34 141.928 Q718.419 139.243 715.039 139.243 Q711.659 139.243 709.715 141.928 Q707.794 144.59 707.794 149.289 Q707.794 153.988 709.715 156.673 Q711.659 159.335 715.039 159.335 Q718.419 159.335 720.34 156.673 Q722.284 153.988 722.284 149.289 Z" fill="#000000" fill-rule="nonzero" fill-opacity="1" /><path clip-path="url(#clip630)" d="M748.789 140.284 Q748.071 139.868 747.215 139.682 Q746.381 139.474 745.363 139.474 Q741.752 139.474 739.807 141.835 Q737.886 144.173 737.886 148.571 L737.886 162.229 L733.604 162.229 L733.604 136.303 L737.886 136.303 L737.886 140.331 Q739.229 137.969 741.381 136.835 Q743.534 135.678 746.613 135.678 Q747.053 135.678 747.585 135.747 Q748.117 135.794 748.766 135.909 L748.789 140.284 Z" fill="#000000" fill-rule="nonzero" fill-opacity="1" /><path clip-path="url(#clip630)" d="M762.261 139.289 Q758.835 139.289 756.844 141.974 Q754.854 144.636 754.854 149.289 Q754.854 153.942 756.821 156.627 Q758.812 159.289 762.261 159.289 Q765.664 159.289 767.654 156.604 Q769.645 153.918 769.645 149.289 Q769.645 144.682 767.654 141.997 Q765.664 139.289 762.261 139.289 M762.261 135.678 Q767.816 135.678 770.988 139.289 Q774.159 142.9 774.159 149.289 Q774.159 155.655 770.988 159.289 Q767.816 162.9 762.261 162.9 Q756.682 162.9 753.511 159.289 Q750.363 155.655 750.363 149.289 Q750.363 142.9 753.511 139.289 Q756.682 135.678 762.261 135.678 Z" fill="#000000" fill-rule="nonzero" fill-opacity="1" /><path clip-path="url(#clip630)" d="M794.344 126.21 L794.344 129.752 L790.27 129.752 Q787.978 129.752 787.076 130.678 Q786.196 131.604 786.196 134.011 L786.196 136.303 L793.21 136.303 L793.21 139.613 L786.196 139.613 L786.196 162.229 L781.914 162.229 L781.914 139.613 L777.84 139.613 L777.84 136.303 L781.914 136.303 L781.914 134.497 Q781.914 130.169 783.927 128.201 Q785.941 126.21 790.316 126.21 L794.344 126.21 Z" fill="#000000" fill-rule="nonzero" fill-opacity="1" /><path clip-path="url(#clip630)" d="M797.909 136.303 L802.168 136.303 L802.168 162.229 L797.909 162.229 L797.909 136.303 M797.909 126.21 L802.168 126.21 L802.168 131.604 L797.909 131.604 L797.909 126.21 Z" fill="#000000" fill-rule="nonzero" fill-opacity="1" /><path clip-path="url(#clip630)" d="M815.293 128.942 L815.293 136.303 L824.066 136.303 L824.066 139.613 L815.293 139.613 L815.293 153.687 Q815.293 156.858 816.149 157.761 Q817.029 158.664 819.691 158.664 L824.066 158.664 L824.066 162.229 L819.691 162.229 Q814.761 162.229 812.886 160.4 Q811.011 158.548 811.011 153.687 L811.011 139.613 L807.886 139.613 L807.886 136.303 L811.011 136.303 L811.011 128.942 L815.293 128.942 Z" fill="#000000" fill-rule="nonzero" fill-opacity="1" /><path clip-path="url(#clip630)" d="M854.969 126.257 Q851.867 131.581 850.362 136.789 Q848.858 141.997 848.858 147.344 Q848.858 152.692 850.362 157.946 Q851.89 163.178 854.969 168.479 L851.265 168.479 Q847.793 163.039 846.057 157.784 Q844.344 152.53 844.344 147.344 Q844.344 142.182 846.057 136.951 Q847.77 131.72 851.265 126.257 L854.969 126.257 Z" fill="#000000" fill-rule="nonzero" fill-opacity="1" /><path clip-path="url(#clip630)" d="M874.783 169.196 L872.469 169.196 L872.445 162.229 Q870.015 162.182 867.584 161.673 Q865.154 161.141 862.7 160.099 L862.7 155.932 Q865.061 157.414 867.469 158.178 Q869.899 158.918 872.469 158.942 L872.469 148.386 Q867.353 147.553 865.015 145.562 Q862.7 143.571 862.7 140.099 Q862.7 136.326 865.223 134.15 Q867.746 131.974 872.469 131.65 L872.469 126.21 L874.783 126.21 L874.783 131.581 Q876.936 131.673 878.95 132.044 Q880.964 132.391 882.885 133.016 L882.885 137.067 Q880.964 136.095 878.927 135.562 Q876.913 135.03 874.783 134.937 L874.783 144.821 Q880.038 145.631 882.515 147.715 Q884.992 149.798 884.992 153.409 Q884.992 157.321 882.353 159.59 Q879.737 161.835 874.783 162.182 L874.783 169.196 M872.469 144.405 L872.469 134.914 Q869.783 135.215 868.371 136.442 Q866.959 137.669 866.959 139.706 Q866.959 141.696 868.256 142.807 Q869.575 143.919 872.469 144.405 M874.783 148.849 L874.783 158.872 Q877.723 158.479 879.205 157.205 Q880.709 155.932 880.709 153.849 Q880.709 151.812 879.274 150.608 Q877.862 149.405 874.783 148.849 Z" fill="#000000" fill-rule="nonzero" fill-opacity="1" /><path clip-path="url(#clip630)" d="M894.043 127.669 L912.399 127.669 L912.399 131.604 L898.325 131.604 L898.325 140.076 Q899.343 139.729 900.362 139.567 Q901.381 139.382 902.399 139.382 Q908.186 139.382 911.566 142.553 Q914.945 145.724 914.945 151.141 Q914.945 156.719 911.473 159.821 Q908.001 162.9 901.681 162.9 Q899.506 162.9 897.237 162.53 Q894.992 162.159 892.584 161.418 L892.584 156.719 Q894.668 157.854 896.89 158.409 Q899.112 158.965 901.589 158.965 Q905.593 158.965 907.931 156.858 Q910.269 154.752 910.269 151.141 Q910.269 147.53 907.931 145.423 Q905.593 143.317 901.589 143.317 Q899.714 143.317 897.839 143.733 Q895.987 144.15 894.043 145.03 L894.043 127.669 Z" fill="#000000" fill-rule="nonzero" fill-opacity="1" /><path clip-path="url(#clip630)" d="M934.737 143.085 Q931.589 143.085 929.737 145.238 Q927.908 147.391 927.908 151.141 Q927.908 154.868 929.737 157.043 Q931.589 159.196 934.737 159.196 Q937.885 159.196 939.714 157.043 Q941.565 154.868 941.565 151.141 Q941.565 147.391 939.714 145.238 Q937.885 143.085 934.737 143.085 M944.019 128.433 L944.019 132.692 Q942.26 131.858 940.454 131.419 Q938.672 130.979 936.913 130.979 Q932.283 130.979 929.829 134.104 Q927.399 137.229 927.052 143.548 Q928.417 141.534 930.478 140.469 Q932.538 139.382 935.015 139.382 Q940.223 139.382 943.232 142.553 Q946.265 145.701 946.265 151.141 Q946.265 156.465 943.116 159.682 Q939.968 162.9 934.737 162.9 Q928.741 162.9 925.57 158.317 Q922.399 153.71 922.399 144.983 Q922.399 136.789 926.288 131.928 Q930.177 127.044 936.728 127.044 Q938.487 127.044 940.269 127.391 Q942.075 127.738 944.019 128.433 Z" fill="#000000" fill-rule="nonzero" fill-opacity="1" /><path clip-path="url(#clip630)" d="M967.167 131.743 L955.362 150.192 L967.167 150.192 L967.167 131.743 M965.94 127.669 L971.82 127.669 L971.82 150.192 L976.75 150.192 L976.75 154.081 L971.82 154.081 L971.82 162.229 L967.167 162.229 L967.167 154.081 L951.565 154.081 L951.565 149.567 L965.94 127.669 Z" fill="#000000" fill-rule="nonzero" fill-opacity="1" /><path clip-path="url(#clip630)" d="M983.209 126.257 L986.912 126.257 Q990.385 131.72 992.098 136.951 Q993.834 142.182 993.834 147.344 Q993.834 152.53 992.098 157.784 Q990.385 163.039 986.912 168.479 L983.209 168.479 Q986.287 163.178 987.792 157.946 Q989.32 152.692 989.32 147.344 Q989.32 141.997 987.792 136.789 Q986.287 131.581 983.209 126.257 Z" fill="#000000" fill-rule="nonzero" fill-opacity="1" /></svg>
