<?xml version="1.0" encoding="utf-8"?>
<svg xmlns="http://www.w3.org/2000/svg" xmlns:xlink="http://www.w3.org/1999/xlink" width="600" height="400" viewBox="0 0 2400 1600">
<defs>
  <clipPath id="clip430">
    <rect x="0" y="0" width="2400" height="1600"/>
  </clipPath>
</defs>
<path clip-path="url(#clip430)" d="M0 1600 L2400 1600 L2400 0 L0 0  Z" fill="#ffffff" fill-rule="evenodd" fill-opacity="1"/>
<defs>
  <clipPath id="clip431">
    <rect x="184" y="47" width="2170" height="1377"/>
  </clipPath>
</defs>
<path clip-path="url(#clip430)" d="M184.191 1423.18 L2352.76 1423.18 L2352.76 47.2441 L184.191 47.2441  Z" fill="#ffffff" fill-rule="evenodd" fill-opacity="1"/>
<polyline clip-path="url(#clip431)" style="stroke:#000000; stroke-linecap:round; stroke-linejoin:round; stroke-width:2; stroke-opacity:0.1; fill:none" points="517.912,1423.18 517.912,47.2441 "/>
<polyline clip-path="url(#clip431)" style="stroke:#000000; stroke-linecap:round; stroke-linejoin:round; stroke-width:2; stroke-opacity:0.1; fill:none" points="946.804,1423.18 946.804,47.2441 "/>
<polyline clip-path="url(#clip431)" style="stroke:#000000; stroke-linecap:round; stroke-linejoin:round; stroke-width:2; stroke-opacity:0.1; fill:none" points="1375.7,1423.18 1375.7,47.2441 "/>
<polyline clip-path="url(#clip431)" style="stroke:#000000; stroke-linecap:round; stroke-linejoin:round; stroke-width:2; stroke-opacity:0.1; fill:none" points="1804.59,1423.18 1804.59,47.2441 "/>
<polyline clip-path="url(#clip431)" style="stroke:#000000; stroke-linecap:round; stroke-linejoin:round; stroke-width:2; stroke-opacity:0.1; fill:none" points="2233.48,1423.18 2233.48,47.2441 "/>
<polyline clip-path="url(#clip431)" style="stroke:#000000; stroke-linecap:round; stroke-linejoin:round; stroke-width:2; stroke-opacity:0.1; fill:none" points="184.191,1423.18 2352.76,1423.18 "/>
<polyline clip-path="url(#clip431)" style="stroke:#000000; stroke-linecap:round; stroke-linejoin:round; stroke-width:2; stroke-opacity:0.1; fill:none" points="184.191,1110.47 2352.76,1110.47 "/>
<polyline clip-path="url(#clip431)" style="stroke:#000000; stroke-linecap:round; stroke-linejoin:round; stroke-width:2; stroke-opacity:0.1; fill:none" points="184.191,797.755 2352.76,797.755 "/>
<polyline clip-path="url(#clip431)" style="stroke:#000000; stroke-linecap:round; stroke-linejoin:round; stroke-width:2; stroke-opacity:0.1; fill:none" points="184.191,485.042 2352.76,485.042 "/>
<polyline clip-path="url(#clip431)" style="stroke:#000000; stroke-linecap:round; stroke-linejoin:round; stroke-width:2; stroke-opacity:0.1; fill:none" points="184.191,172.329 2352.76,172.329 "/>
<polyline clip-path="url(#clip430)" style="stroke:#000000; stroke-linecap:round; stroke-linejoin:round; stroke-width:4; stroke-opacity:1; fill:none" points="184.191,1423.18 2352.76,1423.18 "/>
<polyline clip-path="url(#clip430)" style="stroke:#000000; stroke-linecap:round; stroke-linejoin:round; stroke-width:4; stroke-opacity:1; fill:none" points="517.912,1423.18 517.912,1404.28 "/>
<polyline clip-path="url(#clip430)" style="stroke:#000000; stroke-linecap:round; stroke-linejoin:round; stroke-width:4; stroke-opacity:1; fill:none" points="946.804,1423.18 946.804,1404.28 "/>
<polyline clip-path="url(#clip430)" style="stroke:#000000; stroke-linecap:round; stroke-linejoin:round; stroke-width:4; stroke-opacity:1; fill:none" points="1375.7,1423.18 1375.7,1404.28 "/>
<polyline clip-path="url(#clip430)" style="stroke:#000000; stroke-linecap:round; stroke-linejoin:round; stroke-width:4; stroke-opacity:1; fill:none" points="1804.59,1423.18 1804.59,1404.28 "/>
<polyline clip-path="url(#clip430)" style="stroke:#000000; stroke-linecap:round; stroke-linejoin:round; stroke-width:4; stroke-opacity:1; fill:none" points="2233.48,1423.18 2233.48,1404.28 "/>
<path clip-path="url(#clip430)" d="M477.518 1481.64 L485.157 1481.64 L485.157 1455.28 L476.847 1456.95 L476.847 1452.69 L485.111 1451.02 L489.787 1451.02 L489.787 1481.64 L497.426 1481.64 L497.426 1485.58 L477.518 1485.58 L477.518 1481.64 Z" fill="#000000" fill-rule="nonzero" fill-opacity="1" /><path clip-path="url(#clip430)" d="M517.449 1466.44 Q514.301 1466.44 512.449 1468.59 Q510.62 1470.74 510.62 1474.49 Q510.62 1478.22 512.449 1480.39 Q514.301 1482.55 517.449 1482.55 Q520.597 1482.55 522.426 1480.39 Q524.277 1478.22 524.277 1474.49 Q524.277 1470.74 522.426 1468.59 Q520.597 1466.44 517.449 1466.44 M526.731 1451.78 L526.731 1456.04 Q524.972 1455.21 523.166 1454.77 Q521.384 1454.33 519.625 1454.33 Q514.995 1454.33 512.541 1457.45 Q510.111 1460.58 509.764 1466.9 Q511.129 1464.89 513.19 1463.82 Q515.25 1462.73 517.727 1462.73 Q522.935 1462.73 525.944 1465.9 Q528.977 1469.05 528.977 1474.49 Q528.977 1479.82 525.828 1483.03 Q522.68 1486.25 517.449 1486.25 Q511.453 1486.25 508.282 1481.67 Q505.111 1477.06 505.111 1468.33 Q505.111 1460.14 509 1455.28 Q512.889 1450.39 519.44 1450.39 Q521.199 1450.39 522.981 1450.74 Q524.787 1451.09 526.731 1451.78 Z" fill="#000000" fill-rule="nonzero" fill-opacity="1" /><path clip-path="url(#clip430)" d="M547.032 1454.1 Q543.421 1454.1 541.592 1457.66 Q539.787 1461.2 539.787 1468.33 Q539.787 1475.44 541.592 1479.01 Q543.421 1482.55 547.032 1482.55 Q550.666 1482.55 552.472 1479.01 Q554.3 1475.44 554.3 1468.33 Q554.3 1461.2 552.472 1457.66 Q550.666 1454.1 547.032 1454.1 M547.032 1450.39 Q552.842 1450.39 555.898 1455 Q558.976 1459.58 558.976 1468.33 Q558.976 1477.06 555.898 1481.67 Q552.842 1486.25 547.032 1486.25 Q541.222 1486.25 538.143 1481.67 Q535.088 1477.06 535.088 1468.33 Q535.088 1459.58 538.143 1455 Q541.222 1450.39 547.032 1450.39 Z" fill="#000000" fill-rule="nonzero" fill-opacity="1" /><path clip-path="url(#clip430)" d="M906.411 1481.64 L914.05 1481.64 L914.05 1455.28 L905.739 1456.95 L905.739 1452.69 L914.003 1451.02 L918.679 1451.02 L918.679 1481.64 L926.318 1481.64 L926.318 1485.58 L906.411 1485.58 L906.411 1481.64 Z" fill="#000000" fill-rule="nonzero" fill-opacity="1" /><path clip-path="url(#clip430)" d="M945.762 1469.17 Q942.429 1469.17 940.508 1470.95 Q938.61 1472.73 938.61 1475.86 Q938.61 1478.98 940.508 1480.77 Q942.429 1482.55 945.762 1482.55 Q949.096 1482.55 951.017 1480.77 Q952.938 1478.96 952.938 1475.86 Q952.938 1472.73 951.017 1470.95 Q949.119 1469.17 945.762 1469.17 M941.087 1467.18 Q938.077 1466.44 936.387 1464.38 Q934.721 1462.32 934.721 1459.35 Q934.721 1455.21 937.661 1452.8 Q940.624 1450.39 945.762 1450.39 Q950.924 1450.39 953.864 1452.8 Q956.804 1455.21 956.804 1459.35 Q956.804 1462.32 955.114 1464.38 Q953.448 1466.44 950.461 1467.18 Q953.841 1467.96 955.716 1470.26 Q957.614 1472.55 957.614 1475.86 Q957.614 1480.88 954.536 1483.57 Q951.48 1486.25 945.762 1486.25 Q940.045 1486.25 936.966 1483.57 Q933.911 1480.88 933.911 1475.86 Q933.911 1472.55 935.809 1470.26 Q937.707 1467.96 941.087 1467.18 M939.374 1459.79 Q939.374 1462.48 941.04 1463.98 Q942.73 1465.49 945.762 1465.49 Q948.772 1465.49 950.461 1463.98 Q952.174 1462.48 952.174 1459.79 Q952.174 1457.11 950.461 1455.6 Q948.772 1454.1 945.762 1454.1 Q942.73 1454.1 941.04 1455.6 Q939.374 1457.11 939.374 1459.79 Z" fill="#000000" fill-rule="nonzero" fill-opacity="1" /><path clip-path="url(#clip430)" d="M975.924 1454.1 Q972.313 1454.1 970.484 1457.66 Q968.679 1461.2 968.679 1468.33 Q968.679 1475.44 970.484 1479.01 Q972.313 1482.55 975.924 1482.55 Q979.559 1482.55 981.364 1479.01 Q983.193 1475.44 983.193 1468.33 Q983.193 1461.2 981.364 1457.66 Q979.559 1454.1 975.924 1454.1 M975.924 1450.39 Q981.734 1450.39 984.79 1455 Q987.869 1459.58 987.869 1468.33 Q987.869 1477.06 984.79 1481.67 Q981.734 1486.25 975.924 1486.25 Q970.114 1486.25 967.035 1481.67 Q963.98 1477.06 963.98 1468.33 Q963.98 1459.58 967.035 1455 Q970.114 1450.39 975.924 1450.39 Z" fill="#000000" fill-rule="nonzero" fill-opacity="1" /><path clip-path="url(#clip430)" d="M1339.39 1481.64 L1355.71 1481.64 L1355.71 1485.58 L1333.76 1485.58 L1333.76 1481.64 Q1336.43 1478.89 1341.01 1474.26 Q1345.62 1469.61 1346.8 1468.27 Q1349.04 1465.74 1349.92 1464.01 Q1350.82 1462.25 1350.82 1460.56 Q1350.82 1457.8 1348.88 1456.07 Q1346.96 1454.33 1343.86 1454.33 Q1341.66 1454.33 1339.2 1455.09 Q1336.77 1455.86 1334 1457.41 L1334 1452.69 Q1336.82 1451.55 1339.27 1450.97 Q1341.73 1450.39 1343.76 1450.39 Q1349.13 1450.39 1352.33 1453.08 Q1355.52 1455.77 1355.52 1460.26 Q1355.52 1462.39 1354.71 1464.31 Q1353.93 1466.2 1351.82 1468.8 Q1351.24 1469.47 1348.14 1472.69 Q1345.04 1475.88 1339.39 1481.64 Z" fill="#000000" fill-rule="nonzero" fill-opacity="1" /><path clip-path="url(#clip430)" d="M1375.52 1454.1 Q1371.91 1454.1 1370.08 1457.66 Q1368.28 1461.2 1368.28 1468.33 Q1368.28 1475.44 1370.08 1479.01 Q1371.91 1482.55 1375.52 1482.55 Q1379.16 1482.55 1380.96 1479.01 Q1382.79 1475.44 1382.79 1468.33 Q1382.79 1461.2 1380.96 1457.66 Q1379.16 1454.1 1375.52 1454.1 M1375.52 1450.39 Q1381.33 1450.39 1384.39 1455 Q1387.47 1459.58 1387.47 1468.33 Q1387.47 1477.06 1384.39 1481.67 Q1381.33 1486.25 1375.52 1486.25 Q1369.71 1486.25 1366.63 1481.67 Q1363.58 1477.06 1363.58 1468.33 Q1363.58 1459.58 1366.63 1455 Q1369.71 1450.39 1375.52 1450.39 Z" fill="#000000" fill-rule="nonzero" fill-opacity="1" /><path clip-path="url(#clip430)" d="M1405.68 1454.1 Q1402.07 1454.1 1400.24 1457.66 Q1398.44 1461.2 1398.44 1468.33 Q1398.44 1475.44 1400.24 1479.01 Q1402.07 1482.55 1405.68 1482.55 Q1409.32 1482.55 1411.12 1479.01 Q1412.95 1475.44 1412.95 1468.33 Q1412.95 1461.2 1411.12 1457.66 Q1409.32 1454.1 1405.68 1454.1 M1405.68 1450.39 Q1411.49 1450.39 1414.55 1455 Q1417.63 1459.58 1417.63 1468.33 Q1417.63 1477.06 1414.55 1481.67 Q1411.49 1486.25 1405.68 1486.25 Q1399.87 1486.25 1396.8 1481.67 Q1393.74 1477.06 1393.74 1468.33 Q1393.74 1459.58 1396.8 1455 Q1399.87 1450.39 1405.68 1450.39 Z" fill="#000000" fill-rule="nonzero" fill-opacity="1" /><path clip-path="url(#clip430)" d="M1768.28 1481.64 L1784.6 1481.64 L1784.6 1485.58 L1762.66 1485.58 L1762.66 1481.64 Q1765.32 1478.89 1769.9 1474.26 Q1774.51 1469.61 1775.69 1468.27 Q1777.93 1465.74 1778.81 1464.01 Q1779.72 1462.25 1779.72 1460.56 Q1779.72 1457.8 1777.77 1456.07 Q1775.85 1454.33 1772.75 1454.33 Q1770.55 1454.33 1768.1 1455.09 Q1765.67 1455.86 1762.89 1457.41 L1762.89 1452.69 Q1765.71 1451.55 1768.17 1450.97 Q1770.62 1450.39 1772.66 1450.39 Q1778.03 1450.39 1781.22 1453.08 Q1784.42 1455.77 1784.42 1460.26 Q1784.42 1462.39 1783.6 1464.31 Q1782.82 1466.2 1780.71 1468.8 Q1780.13 1469.47 1777.03 1472.69 Q1773.93 1475.88 1768.28 1481.64 Z" fill="#000000" fill-rule="nonzero" fill-opacity="1" /><path clip-path="url(#clip430)" d="M1798.44 1481.64 L1814.76 1481.64 L1814.76 1485.58 L1792.82 1485.58 L1792.82 1481.64 Q1795.48 1478.89 1800.06 1474.26 Q1804.67 1469.61 1805.85 1468.27 Q1808.1 1465.74 1808.98 1464.01 Q1809.88 1462.25 1809.88 1460.56 Q1809.88 1457.8 1807.93 1456.07 Q1806.01 1454.33 1802.91 1454.33 Q1800.71 1454.33 1798.26 1455.09 Q1795.83 1455.86 1793.05 1457.41 L1793.05 1452.69 Q1795.87 1451.55 1798.33 1450.97 Q1800.78 1450.39 1802.82 1450.39 Q1808.19 1450.39 1811.38 1453.08 Q1814.58 1455.77 1814.58 1460.26 Q1814.58 1462.39 1813.77 1464.31 Q1812.98 1466.2 1810.87 1468.8 Q1810.29 1469.47 1807.19 1472.69 Q1804.09 1475.88 1798.44 1481.64 Z" fill="#000000" fill-rule="nonzero" fill-opacity="1" /><path clip-path="url(#clip430)" d="M1834.58 1454.1 Q1830.97 1454.1 1829.14 1457.66 Q1827.33 1461.2 1827.33 1468.33 Q1827.33 1475.44 1829.14 1479.01 Q1830.97 1482.55 1834.58 1482.55 Q1838.21 1482.55 1840.02 1479.01 Q1841.85 1475.44 1841.85 1468.33 Q1841.85 1461.2 1840.02 1457.66 Q1838.21 1454.1 1834.58 1454.1 M1834.58 1450.39 Q1840.39 1450.39 1843.44 1455 Q1846.52 1459.58 1846.52 1468.33 Q1846.52 1477.06 1843.44 1481.67 Q1840.39 1486.25 1834.58 1486.25 Q1828.77 1486.25 1825.69 1481.67 Q1822.63 1477.06 1822.63 1468.33 Q1822.63 1459.58 1825.69 1455 Q1828.77 1450.39 1834.58 1450.39 Z" fill="#000000" fill-rule="nonzero" fill-opacity="1" /><path clip-path="url(#clip430)" d="M2197.17 1481.64 L2213.49 1481.64 L2213.49 1485.58 L2191.55 1485.58 L2191.55 1481.64 Q2194.21 1478.89 2198.79 1474.26 Q2203.4 1469.61 2204.58 1468.27 Q2206.83 1465.74 2207.71 1464.01 Q2208.61 1462.25 2208.61 1460.56 Q2208.61 1457.8 2206.66 1456.07 Q2204.74 1454.33 2201.64 1454.33 Q2199.44 1454.33 2196.99 1455.09 Q2194.56 1455.86 2191.78 1457.41 L2191.78 1452.69 Q2194.6 1451.55 2197.06 1450.97 Q2199.51 1450.39 2201.55 1450.39 Q2206.92 1450.39 2210.11 1453.08 Q2213.31 1455.77 2213.31 1460.26 Q2213.31 1462.39 2212.5 1464.31 Q2211.71 1466.2 2209.6 1468.8 Q2209.03 1469.47 2205.92 1472.69 Q2202.82 1475.88 2197.17 1481.64 Z" fill="#000000" fill-rule="nonzero" fill-opacity="1" /><path clip-path="url(#clip430)" d="M2236.15 1455.09 L2224.35 1473.54 L2236.15 1473.54 L2236.15 1455.09 M2234.93 1451.02 L2240.81 1451.02 L2240.81 1473.54 L2245.74 1473.54 L2245.74 1477.43 L2240.81 1477.43 L2240.81 1485.58 L2236.15 1485.58 L2236.15 1477.43 L2220.55 1477.43 L2220.55 1472.92 L2234.93 1451.02 Z" fill="#000000" fill-rule="nonzero" fill-opacity="1" /><path clip-path="url(#clip430)" d="M2263.47 1454.1 Q2259.86 1454.1 2258.03 1457.66 Q2256.22 1461.2 2256.22 1468.33 Q2256.22 1475.44 2258.03 1479.01 Q2259.86 1482.55 2263.47 1482.55 Q2267.1 1482.55 2268.91 1479.01 Q2270.74 1475.44 2270.74 1468.33 Q2270.74 1461.2 2268.91 1457.66 Q2267.1 1454.1 2263.47 1454.1 M2263.47 1450.39 Q2269.28 1450.39 2272.33 1455 Q2275.41 1459.58 2275.41 1468.33 Q2275.41 1477.06 2272.33 1481.67 Q2269.28 1486.25 2263.47 1486.25 Q2257.66 1486.25 2254.58 1481.67 Q2251.52 1477.06 2251.52 1468.33 Q2251.52 1459.58 2254.58 1455 Q2257.66 1450.39 2263.47 1450.39 Z" fill="#000000" fill-rule="nonzero" fill-opacity="1" /><path clip-path="url(#clip430)" d="M1142.85 1525.81 L1142.85 1562.76 L1150.61 1562.76 Q1160.45 1562.76 1165 1558.3 Q1169.58 1553.85 1169.58 1544.24 Q1169.58 1534.69 1165 1530.26 Q1160.45 1525.81 1150.61 1525.81 L1142.85 1525.81 M1136.42 1520.52 L1149.63 1520.52 Q1163.44 1520.52 1169.9 1526.28 Q1176.36 1532.01 1176.36 1544.24 Q1176.36 1556.52 1169.87 1562.28 Q1163.38 1568.04 1149.63 1568.04 L1136.42 1568.04 L1136.42 1520.52 Z" fill="#000000" fill-rule="nonzero" fill-opacity="1" /><path clip-path="url(#clip430)" d="M1216.85 1548.76 L1216.85 1551.62 L1189.92 1551.62 Q1190.3 1557.67 1193.55 1560.85 Q1196.83 1564 1202.65 1564 Q1206.03 1564 1209.18 1563.17 Q1212.36 1562.35 1215.48 1560.69 L1215.48 1566.23 Q1212.33 1567.57 1209.02 1568.27 Q1205.71 1568.97 1202.3 1568.97 Q1193.77 1568.97 1188.77 1564 Q1183.81 1559.04 1183.81 1550.57 Q1183.81 1541.82 1188.52 1536.69 Q1193.26 1531.54 1201.28 1531.54 Q1208.48 1531.54 1212.65 1536.18 Q1216.85 1540.8 1216.85 1548.76 M1210.99 1547.04 Q1210.93 1542.23 1208.29 1539.37 Q1205.68 1536.5 1201.35 1536.5 Q1196.45 1536.5 1193.49 1539.27 Q1190.56 1542.04 1190.11 1547.07 L1210.99 1547.04 Z" fill="#000000" fill-rule="nonzero" fill-opacity="1" /><path clip-path="url(#clip430)" d="M1254.21 1539.24 Q1256.41 1535.29 1259.47 1533.41 Q1262.52 1531.54 1266.66 1531.54 Q1272.23 1531.54 1275.25 1535.45 Q1278.28 1539.33 1278.28 1546.53 L1278.28 1568.04 L1272.39 1568.04 L1272.39 1546.72 Q1272.39 1541.59 1270.57 1539.11 Q1268.76 1536.63 1265.04 1536.63 Q1260.48 1536.63 1257.84 1539.65 Q1255.2 1542.68 1255.2 1547.9 L1255.2 1568.04 L1249.31 1568.04 L1249.31 1546.72 Q1249.31 1541.56 1247.5 1539.11 Q1245.68 1536.63 1241.9 1536.63 Q1237.41 1536.63 1234.77 1539.68 Q1232.13 1542.71 1232.13 1547.9 L1232.13 1568.04 L1226.24 1568.04 L1226.24 1532.4 L1232.13 1532.4 L1232.13 1537.93 Q1234.13 1534.66 1236.93 1533.1 Q1239.73 1531.54 1243.58 1531.54 Q1247.47 1531.54 1250.17 1533.51 Q1252.91 1535.48 1254.21 1539.24 Z" fill="#000000" fill-rule="nonzero" fill-opacity="1" /><path clip-path="url(#clip430)" d="M1306.16 1550.12 Q1299.06 1550.12 1296.32 1551.75 Q1293.59 1553.37 1293.59 1557.29 Q1293.59 1560.4 1295.62 1562.25 Q1297.69 1564.07 1301.22 1564.07 Q1306.09 1564.07 1309.02 1560.63 Q1311.98 1557.16 1311.98 1551.43 L1311.98 1550.12 L1306.16 1550.12 M1317.84 1547.71 L1317.84 1568.04 L1311.98 1568.04 L1311.98 1562.63 Q1309.98 1565.88 1306.99 1567.44 Q1303.99 1568.97 1299.67 1568.97 Q1294.19 1568.97 1290.94 1565.91 Q1287.73 1562.82 1287.73 1557.67 Q1287.73 1551.65 1291.74 1548.6 Q1295.78 1545.54 1303.77 1545.54 L1311.98 1545.54 L1311.98 1544.97 Q1311.98 1540.93 1309.31 1538.73 Q1306.67 1536.5 1301.86 1536.5 Q1298.81 1536.5 1295.91 1537.23 Q1293.01 1537.97 1290.34 1539.43 L1290.34 1534.02 Q1293.55 1532.78 1296.58 1532.17 Q1299.6 1531.54 1302.47 1531.54 Q1310.2 1531.54 1314.02 1535.55 Q1317.84 1539.56 1317.84 1547.71 Z" fill="#000000" fill-rule="nonzero" fill-opacity="1" /><path clip-path="url(#clip430)" d="M1359.53 1546.53 L1359.53 1568.04 L1353.68 1568.04 L1353.68 1546.72 Q1353.68 1541.66 1351.7 1539.14 Q1349.73 1536.63 1345.78 1536.63 Q1341.04 1536.63 1338.31 1539.65 Q1335.57 1542.68 1335.57 1547.9 L1335.57 1568.04 L1329.68 1568.04 L1329.68 1532.4 L1335.57 1532.4 L1335.57 1537.93 Q1337.67 1534.72 1340.5 1533.13 Q1343.37 1531.54 1347.09 1531.54 Q1353.23 1531.54 1356.38 1535.36 Q1359.53 1539.14 1359.53 1546.53 Z" fill="#000000" fill-rule="nonzero" fill-opacity="1" /><path clip-path="url(#clip430)" d="M1394.67 1537.81 L1394.67 1518.52 L1400.53 1518.52 L1400.53 1568.04 L1394.67 1568.04 L1394.67 1562.7 Q1392.83 1565.88 1389.99 1567.44 Q1387.19 1568.97 1383.25 1568.97 Q1376.79 1568.97 1372.71 1563.81 Q1368.67 1558.65 1368.67 1550.25 Q1368.67 1541.85 1372.71 1536.69 Q1376.79 1531.54 1383.25 1531.54 Q1387.19 1531.54 1389.99 1533.1 Q1392.83 1534.62 1394.67 1537.81 M1374.72 1550.25 Q1374.72 1556.71 1377.36 1560.4 Q1380.03 1564.07 1384.68 1564.07 Q1389.33 1564.07 1392 1560.4 Q1394.67 1556.71 1394.67 1550.25 Q1394.67 1543.79 1392 1540.13 Q1389.33 1536.44 1384.68 1536.44 Q1380.03 1536.44 1377.36 1540.13 Q1374.72 1543.79 1374.72 1550.25 Z" fill="#000000" fill-rule="nonzero" fill-opacity="1" /><polyline clip-path="url(#clip430)" style="stroke:#000000; stroke-linecap:round; stroke-linejoin:round; stroke-width:4; stroke-opacity:1; fill:none" points="184.191,1423.18 184.191,47.2441 "/>
<polyline clip-path="url(#clip430)" style="stroke:#000000; stroke-linecap:round; stroke-linejoin:round; stroke-width:4; stroke-opacity:1; fill:none" points="184.191,1423.18 203.088,1423.18 "/>
<polyline clip-path="url(#clip430)" style="stroke:#000000; stroke-linecap:round; stroke-linejoin:round; stroke-width:4; stroke-opacity:1; fill:none" points="184.191,1110.47 203.088,1110.47 "/>
<polyline clip-path="url(#clip430)" style="stroke:#000000; stroke-linecap:round; stroke-linejoin:round; stroke-width:4; stroke-opacity:1; fill:none" points="184.191,797.755 203.088,797.755 "/>
<polyline clip-path="url(#clip430)" style="stroke:#000000; stroke-linecap:round; stroke-linejoin:round; stroke-width:4; stroke-opacity:1; fill:none" points="184.191,485.042 203.088,485.042 "/>
<polyline clip-path="url(#clip430)" style="stroke:#000000; stroke-linecap:round; stroke-linejoin:round; stroke-width:4; stroke-opacity:1; fill:none" points="184.191,172.329 203.088,172.329 "/>
<path clip-path="url(#clip430)" d="M91.0151 1408.98 Q87.404 1408.98 85.5753 1412.54 Q83.7697 1416.08 83.7697 1423.21 Q83.7697 1430.32 85.5753 1433.89 Q87.404 1437.43 91.0151 1437.43 Q94.6493 1437.43 96.4548 1433.89 Q98.2835 1430.32 98.2835 1423.21 Q98.2835 1416.08 96.4548 1412.54 Q94.6493 1408.98 91.0151 1408.98 M91.0151 1405.27 Q96.8252 1405.27 99.8808 1409.88 Q102.959 1414.46 102.959 1423.21 Q102.959 1431.94 99.8808 1436.55 Q96.8252 1441.13 91.0151 1441.13 Q85.2049 1441.13 82.1262 1436.55 Q79.0707 1431.94 79.0707 1423.21 Q79.0707 1414.46 82.1262 1409.88 Q85.2049 1405.27 91.0151 1405.27 Z" fill="#000000" fill-rule="nonzero" fill-opacity="1" /><path clip-path="url(#clip430)" d="M111.177 1434.58 L116.061 1434.58 L116.061 1440.46 L111.177 1440.46 L111.177 1434.58 Z" fill="#000000" fill-rule="nonzero" fill-opacity="1" /><path clip-path="url(#clip430)" d="M136.246 1408.98 Q132.635 1408.98 130.807 1412.54 Q129.001 1416.08 129.001 1423.21 Q129.001 1430.32 130.807 1433.89 Q132.635 1437.43 136.246 1437.43 Q139.881 1437.43 141.686 1433.89 Q143.515 1430.32 143.515 1423.21 Q143.515 1416.08 141.686 1412.54 Q139.881 1408.98 136.246 1408.98 M136.246 1405.27 Q142.056 1405.27 145.112 1409.88 Q148.191 1414.46 148.191 1423.21 Q148.191 1431.94 145.112 1436.55 Q142.056 1441.13 136.246 1441.13 Q130.436 1441.13 127.357 1436.55 Q124.302 1431.94 124.302 1423.21 Q124.302 1414.46 127.357 1409.88 Q130.436 1405.27 136.246 1405.27 Z" fill="#000000" fill-rule="nonzero" fill-opacity="1" /><path clip-path="url(#clip430)" d="M86.0382 1123.81 L102.358 1123.81 L102.358 1127.75 L80.4133 1127.75 L80.4133 1123.81 Q83.0753 1121.06 87.6586 1116.43 Q92.2651 1111.78 93.4456 1110.43 Q95.691 1107.91 96.5706 1106.17 Q97.4734 1104.41 97.4734 1102.72 Q97.4734 1099.97 95.5289 1098.23 Q93.6076 1096.5 90.5058 1096.5 Q88.3067 1096.5 85.8531 1097.26 Q83.4225 1098.03 80.6447 1099.58 L80.6447 1094.85 Q83.4688 1093.72 85.9225 1093.14 Q88.3762 1092.56 90.4132 1092.56 Q95.7836 1092.56 98.978 1095.25 Q102.172 1097.93 102.172 1102.42 Q102.172 1104.55 101.362 1106.47 Q100.575 1108.37 98.4687 1110.96 Q97.89 1111.64 94.7882 1114.85 Q91.6864 1118.05 86.0382 1123.81 Z" fill="#000000" fill-rule="nonzero" fill-opacity="1" /><path clip-path="url(#clip430)" d="M112.172 1121.87 L117.057 1121.87 L117.057 1127.75 L112.172 1127.75 L112.172 1121.87 Z" fill="#000000" fill-rule="nonzero" fill-opacity="1" /><path clip-path="url(#clip430)" d="M127.288 1093.19 L145.644 1093.19 L145.644 1097.12 L131.57 1097.12 L131.57 1105.59 Q132.589 1105.25 133.607 1105.09 Q134.626 1104.9 135.644 1104.9 Q141.431 1104.9 144.811 1108.07 Q148.191 1111.24 148.191 1116.66 Q148.191 1122.24 144.718 1125.34 Q141.246 1128.42 134.927 1128.42 Q132.751 1128.42 130.482 1128.05 Q128.237 1127.68 125.83 1126.94 L125.83 1122.24 Q127.913 1123.37 130.135 1123.93 Q132.357 1124.48 134.834 1124.48 Q138.839 1124.48 141.177 1122.38 Q143.515 1120.27 143.515 1116.66 Q143.515 1113.05 141.177 1110.94 Q138.839 1108.84 134.834 1108.84 Q132.959 1108.84 131.084 1109.25 Q129.232 1109.67 127.288 1110.55 L127.288 1093.19 Z" fill="#000000" fill-rule="nonzero" fill-opacity="1" /><path clip-path="url(#clip430)" d="M81.0614 780.475 L99.4178 780.475 L99.4178 784.41 L85.3438 784.41 L85.3438 792.882 Q86.3623 792.535 87.3808 792.373 Q88.3993 792.187 89.4178 792.187 Q95.2049 792.187 98.5845 795.359 Q101.964 798.53 101.964 803.947 Q101.964 809.525 98.4919 812.627 Q95.0197 815.706 88.7003 815.706 Q86.5243 815.706 84.2558 815.335 Q82.0105 814.965 79.6031 814.224 L79.6031 809.525 Q81.6864 810.66 83.9086 811.215 Q86.1308 811.771 88.6077 811.771 Q92.6123 811.771 94.9502 809.664 Q97.2882 807.558 97.2882 803.947 Q97.2882 800.336 94.9502 798.229 Q92.6123 796.123 88.6077 796.123 Q86.7327 796.123 84.8577 796.539 Q83.0058 796.956 81.0614 797.836 L81.0614 780.475 Z" fill="#000000" fill-rule="nonzero" fill-opacity="1" /><path clip-path="url(#clip430)" d="M111.177 809.155 L116.061 809.155 L116.061 815.035 L111.177 815.035 L111.177 809.155 Z" fill="#000000" fill-rule="nonzero" fill-opacity="1" /><path clip-path="url(#clip430)" d="M136.246 783.553 Q132.635 783.553 130.807 787.118 Q129.001 790.66 129.001 797.789 Q129.001 804.896 130.807 808.46 Q132.635 812.002 136.246 812.002 Q139.881 812.002 141.686 808.46 Q143.515 804.896 143.515 797.789 Q143.515 790.66 141.686 787.118 Q139.881 783.553 136.246 783.553 M136.246 779.85 Q142.056 779.85 145.112 784.456 Q148.191 789.039 148.191 797.789 Q148.191 806.516 145.112 811.122 Q142.056 815.706 136.246 815.706 Q130.436 815.706 127.357 811.122 Q124.302 806.516 124.302 797.789 Q124.302 789.039 127.357 784.456 Q130.436 779.85 136.246 779.85 Z" fill="#000000" fill-rule="nonzero" fill-opacity="1" /><path clip-path="url(#clip430)" d="M80.8299 467.762 L103.052 467.762 L103.052 469.753 L90.5058 502.322 L85.6216 502.322 L97.4271 471.697 L80.8299 471.697 L80.8299 467.762 Z" fill="#000000" fill-rule="nonzero" fill-opacity="1" /><path clip-path="url(#clip430)" d="M112.172 496.442 L117.057 496.442 L117.057 502.322 L112.172 502.322 L112.172 496.442 Z" fill="#000000" fill-rule="nonzero" fill-opacity="1" /><path clip-path="url(#clip430)" d="M127.288 467.762 L145.644 467.762 L145.644 471.697 L131.57 471.697 L131.57 480.169 Q132.589 479.822 133.607 479.66 Q134.626 479.475 135.644 479.475 Q141.431 479.475 144.811 482.646 Q148.191 485.817 148.191 491.234 Q148.191 496.813 144.718 499.914 Q141.246 502.993 134.927 502.993 Q132.751 502.993 130.482 502.623 Q128.237 502.252 125.83 501.512 L125.83 496.813 Q127.913 497.947 130.135 498.502 Q132.357 499.058 134.834 499.058 Q138.839 499.058 141.177 496.951 Q143.515 494.845 143.515 491.234 Q143.515 487.623 141.177 485.516 Q138.839 483.41 134.834 483.41 Q132.959 483.41 131.084 483.827 Q129.232 484.243 127.288 485.123 L127.288 467.762 Z" fill="#000000" fill-rule="nonzero" fill-opacity="1" /><path clip-path="url(#clip430)" d="M51.6634 185.674 L59.3023 185.674 L59.3023 159.308 L50.9921 160.975 L50.9921 156.716 L59.256 155.049 L63.9319 155.049 L63.9319 185.674 L71.5707 185.674 L71.5707 189.609 L51.6634 189.609 L51.6634 185.674 Z" fill="#000000" fill-rule="nonzero" fill-opacity="1" /><path clip-path="url(#clip430)" d="M91.0151 158.128 Q87.404 158.128 85.5753 161.693 Q83.7697 165.234 83.7697 172.364 Q83.7697 179.47 85.5753 183.035 Q87.404 186.577 91.0151 186.577 Q94.6493 186.577 96.4548 183.035 Q98.2835 179.47 98.2835 172.364 Q98.2835 165.234 96.4548 161.693 Q94.6493 158.128 91.0151 158.128 M91.0151 154.424 Q96.8252 154.424 99.8808 159.031 Q102.959 163.614 102.959 172.364 Q102.959 181.091 99.8808 185.697 Q96.8252 190.28 91.0151 190.28 Q85.2049 190.28 82.1262 185.697 Q79.0707 181.091 79.0707 172.364 Q79.0707 163.614 82.1262 159.031 Q85.2049 154.424 91.0151 154.424 Z" fill="#000000" fill-rule="nonzero" fill-opacity="1" /><path clip-path="url(#clip430)" d="M111.177 183.73 L116.061 183.73 L116.061 189.609 L111.177 189.609 L111.177 183.73 Z" fill="#000000" fill-rule="nonzero" fill-opacity="1" /><path clip-path="url(#clip430)" d="M136.246 158.128 Q132.635 158.128 130.807 161.693 Q129.001 165.234 129.001 172.364 Q129.001 179.47 130.807 183.035 Q132.635 186.577 136.246 186.577 Q139.881 186.577 141.686 183.035 Q143.515 179.47 143.515 172.364 Q143.515 165.234 141.686 161.693 Q139.881 158.128 136.246 158.128 M136.246 154.424 Q142.056 154.424 145.112 159.031 Q148.191 163.614 148.191 172.364 Q148.191 181.091 145.112 185.697 Q142.056 190.28 136.246 190.28 Q130.436 190.28 127.357 185.697 Q124.302 181.091 124.302 172.364 Q124.302 163.614 127.357 159.031 Q130.436 154.424 136.246 154.424 Z" fill="#000000" fill-rule="nonzero" fill-opacity="1" /><path clip-path="url(#clip431)" d="M303.466 1173.01 L303.466 1423.18 L410.689 1423.18 L410.689 1173.01 L303.466 1173.01 L303.466 1173.01  Z" fill="#009af9" fill-rule="evenodd" fill-opacity="1"/>
<polyline clip-path="url(#clip431)" style="stroke:#000000; stroke-linecap:round; stroke-linejoin:round; stroke-width:4; stroke-opacity:1; fill:none" points="303.466,1173.01 303.466,1423.18 410.689,1423.18 410.689,1173.01 303.466,1173.01 "/>
<path clip-path="url(#clip431)" d="M410.689 1423.18 L410.689 1423.18 L517.912 1423.18 L517.912 1423.18 L410.689 1423.18 L410.689 1423.18  Z" fill="#009af9" fill-rule="evenodd" fill-opacity="1"/>
<polyline clip-path="url(#clip431)" style="stroke:#000000; stroke-linecap:round; stroke-linejoin:round; stroke-width:4; stroke-opacity:1; fill:none" points="410.689,1423.18 410.689,1423.18 517.912,1423.18 410.689,1423.18 "/>
<path clip-path="url(#clip431)" d="M517.912 1173.01 L517.912 1423.18 L625.135 1423.18 L625.135 1173.01 L517.912 1173.01 L517.912 1173.01  Z" fill="#009af9" fill-rule="evenodd" fill-opacity="1"/>
<polyline clip-path="url(#clip431)" style="stroke:#000000; stroke-linecap:round; stroke-linejoin:round; stroke-width:4; stroke-opacity:1; fill:none" points="517.912,1173.01 517.912,1423.18 625.135,1423.18 625.135,1173.01 517.912,1173.01 "/>
<path clip-path="url(#clip431)" d="M625.135 672.669 L625.135 1423.18 L732.358 1423.18 L732.358 672.669 L625.135 672.669 L625.135 672.669  Z" fill="#009af9" fill-rule="evenodd" fill-opacity="1"/>
<polyline clip-path="url(#clip431)" style="stroke:#000000; stroke-linecap:round; stroke-linejoin:round; stroke-width:4; stroke-opacity:1; fill:none" points="625.135,672.669 625.135,1423.18 732.358,1423.18 732.358,672.669 625.135,672.669 "/>
<path clip-path="url(#clip431)" d="M732.358 1173.01 L732.358 1423.18 L839.581 1423.18 L839.581 1173.01 L732.358 1173.01 L732.358 1173.01  Z" fill="#009af9" fill-rule="evenodd" fill-opacity="1"/>
<polyline clip-path="url(#clip431)" style="stroke:#000000; stroke-linecap:round; stroke-linejoin:round; stroke-width:4; stroke-opacity:1; fill:none" points="732.358,1173.01 732.358,1423.18 839.581,1423.18 839.581,1173.01 732.358,1173.01 "/>
<path clip-path="url(#clip431)" d="M839.581 1047.92 L839.581 1423.18 L946.804 1423.18 L946.804 1047.92 L839.581 1047.92 L839.581 1047.92  Z" fill="#009af9" fill-rule="evenodd" fill-opacity="1"/>
<polyline clip-path="url(#clip431)" style="stroke:#000000; stroke-linecap:round; stroke-linejoin:round; stroke-width:4; stroke-opacity:1; fill:none" points="839.581,1047.92 839.581,1423.18 946.804,1423.18 946.804,1047.92 839.581,1047.92 "/>
<path clip-path="url(#clip431)" d="M946.804 547.584 L946.804 1423.18 L1054.03 1423.18 L1054.03 547.584 L946.804 547.584 L946.804 547.584  Z" fill="#009af9" fill-rule="evenodd" fill-opacity="1"/>
<polyline clip-path="url(#clip431)" style="stroke:#000000; stroke-linecap:round; stroke-linejoin:round; stroke-width:4; stroke-opacity:1; fill:none" points="946.804,547.584 946.804,1423.18 1054.03,1423.18 1054.03,547.584 946.804,547.584 "/>
<path clip-path="url(#clip431)" d="M1054.03 422.499 L1054.03 1423.18 L1161.25 1423.18 L1161.25 422.499 L1054.03 422.499 L1054.03 422.499  Z" fill="#009af9" fill-rule="evenodd" fill-opacity="1"/>
<polyline clip-path="url(#clip431)" style="stroke:#000000; stroke-linecap:round; stroke-linejoin:round; stroke-width:4; stroke-opacity:1; fill:none" points="1054.03,422.499 1054.03,1423.18 1161.25,1423.18 1161.25,422.499 1054.03,422.499 "/>
<path clip-path="url(#clip431)" d="M1161.25 172.329 L1161.25 1423.18 L1268.47 1423.18 L1268.47 172.329 L1161.25 172.329 L1161.25 172.329  Z" fill="#009af9" fill-rule="evenodd" fill-opacity="1"/>
<polyline clip-path="url(#clip431)" style="stroke:#000000; stroke-linecap:round; stroke-linejoin:round; stroke-width:4; stroke-opacity:1; fill:none" points="1161.25,172.329 1161.25,1423.18 1268.47,1423.18 1268.47,172.329 1161.25,172.329 "/>
<path clip-path="url(#clip431)" d="M1268.47 47.2441 L1268.47 1423.18 L1375.7 1423.18 L1375.7 47.2441 L1268.47 47.2441 L1268.47 47.2441  Z" fill="#009af9" fill-rule="evenodd" fill-opacity="1"/>
<polyline clip-path="url(#clip431)" style="stroke:#000000; stroke-linecap:round; stroke-linejoin:round; stroke-width:4; stroke-opacity:1; fill:none" points="1268.47,47.2441 1268.47,1423.18 1375.7,1423.18 1375.7,47.2441 1268.47,47.2441 "/>
<path clip-path="url(#clip431)" d="M1375.7 672.669 L1375.7 1423.18 L1482.92 1423.18 L1482.92 672.669 L1375.7 672.669 L1375.7 672.669  Z" fill="#009af9" fill-rule="evenodd" fill-opacity="1"/>
<polyline clip-path="url(#clip431)" style="stroke:#000000; stroke-linecap:round; stroke-linejoin:round; stroke-width:4; stroke-opacity:1; fill:none" points="1375.7,672.669 1375.7,1423.18 1482.92,1423.18 1482.92,672.669 1375.7,672.669 "/>
<path clip-path="url(#clip431)" d="M1482.92 1047.92 L1482.92 1423.18 L1590.14 1423.18 L1590.14 1047.92 L1482.92 1047.92 L1482.92 1047.92  Z" fill="#009af9" fill-rule="evenodd" fill-opacity="1"/>
<polyline clip-path="url(#clip431)" style="stroke:#000000; stroke-linecap:round; stroke-linejoin:round; stroke-width:4; stroke-opacity:1; fill:none" points="1482.92,1047.92 1482.92,1423.18 1590.14,1423.18 1590.14,1047.92 1482.92,1047.92 "/>
<path clip-path="url(#clip431)" d="M1590.14 172.329 L1590.14 1423.18 L1697.37 1423.18 L1697.37 172.329 L1590.14 172.329 L1590.14 172.329  Z" fill="#009af9" fill-rule="evenodd" fill-opacity="1"/>
<polyline clip-path="url(#clip431)" style="stroke:#000000; stroke-linecap:round; stroke-linejoin:round; stroke-width:4; stroke-opacity:1; fill:none" points="1590.14,172.329 1590.14,1423.18 1697.37,1423.18 1697.37,172.329 1590.14,172.329 "/>
<path clip-path="url(#clip431)" d="M1697.37 797.755 L1697.37 1423.18 L1804.59 1423.18 L1804.59 797.755 L1697.37 797.755 L1697.37 797.755  Z" fill="#009af9" fill-rule="evenodd" fill-opacity="1"/>
<polyline clip-path="url(#clip431)" style="stroke:#000000; stroke-linecap:round; stroke-linejoin:round; stroke-width:4; stroke-opacity:1; fill:none" points="1697.37,797.755 1697.37,1423.18 1804.59,1423.18 1804.59,797.755 1697.37,797.755 "/>
<path clip-path="url(#clip431)" d="M1804.59 422.499 L1804.59 1423.18 L1911.81 1423.18 L1911.81 422.499 L1804.59 422.499 L1804.59 422.499  Z" fill="#009af9" fill-rule="evenodd" fill-opacity="1"/>
<polyline clip-path="url(#clip431)" style="stroke:#000000; stroke-linecap:round; stroke-linejoin:round; stroke-width:4; stroke-opacity:1; fill:none" points="1804.59,422.499 1804.59,1423.18 1911.81,1423.18 1911.81,422.499 1804.59,422.499 "/>
<path clip-path="url(#clip431)" d="M1911.81 672.669 L1911.81 1423.18 L2019.03 1423.18 L2019.03 672.669 L1911.81 672.669 L1911.81 672.669  Z" fill="#009af9" fill-rule="evenodd" fill-opacity="1"/>
<polyline clip-path="url(#clip431)" style="stroke:#000000; stroke-linecap:round; stroke-linejoin:round; stroke-width:4; stroke-opacity:1; fill:none" points="1911.81,672.669 1911.81,1423.18 2019.03,1423.18 2019.03,672.669 1911.81,672.669 "/>
<path clip-path="url(#clip431)" d="M2019.03 422.499 L2019.03 1423.18 L2126.26 1423.18 L2126.26 422.499 L2019.03 422.499 L2019.03 422.499  Z" fill="#009af9" fill-rule="evenodd" fill-opacity="1"/>
<polyline clip-path="url(#clip431)" style="stroke:#000000; stroke-linecap:round; stroke-linejoin:round; stroke-width:4; stroke-opacity:1; fill:none" points="2019.03,422.499 2019.03,1423.18 2126.26,1423.18 2126.26,422.499 2019.03,422.499 "/>
<path clip-path="url(#clip431)" d="M2126.26 1047.92 L2126.26 1423.18 L2233.48 1423.18 L2233.48 1047.92 L2126.26 1047.92 L2126.26 1047.92  Z" fill="#009af9" fill-rule="evenodd" fill-opacity="1"/>
<polyline clip-path="url(#clip431)" style="stroke:#000000; stroke-linecap:round; stroke-linejoin:round; stroke-width:4; stroke-opacity:1; fill:none" points="2126.26,1047.92 2126.26,1423.18 2233.48,1423.18 2233.48,1047.92 2126.26,1047.92 "/>
<circle clip-path="url(#clip431)" style="fill:#009af9; stroke:none; fill-opacity:0" cx="357.077" cy="1173.01" r="2"/>
<circle clip-path="url(#clip431)" style="fill:#009af9; stroke:none; fill-opacity:0" cx="464.3" cy="1423.18" r="2"/>
<circle clip-path="url(#clip431)" style="fill:#009af9; stroke:none; fill-opacity:0" cx="571.523" cy="1173.01" r="2"/>
<circle clip-path="url(#clip431)" style="fill:#009af9; stroke:none; fill-opacity:0" cx="678.746" cy="672.669" r="2"/>
<circle clip-path="url(#clip431)" style="fill:#009af9; stroke:none; fill-opacity:0" cx="785.969" cy="1173.01" r="2"/>
<circle clip-path="url(#clip431)" style="fill:#009af9; stroke:none; fill-opacity:0" cx="893.193" cy="1047.92" r="2"/>
<circle clip-path="url(#clip431)" style="fill:#009af9; stroke:none; fill-opacity:0" cx="1000.42" cy="547.584" r="2"/>
<circle clip-path="url(#clip431)" style="fill:#009af9; stroke:none; fill-opacity:0" cx="1107.64" cy="422.499" r="2"/>
<circle clip-path="url(#clip431)" style="fill:#009af9; stroke:none; fill-opacity:0" cx="1214.86" cy="172.329" r="2"/>
<circle clip-path="url(#clip431)" style="fill:#009af9; stroke:none; fill-opacity:0" cx="1322.08" cy="47.2441" r="2"/>
<circle clip-path="url(#clip431)" style="fill:#009af9; stroke:none; fill-opacity:0" cx="1429.31" cy="672.669" r="2"/>
<circle clip-path="url(#clip431)" style="fill:#009af9; stroke:none; fill-opacity:0" cx="1536.53" cy="1047.92" r="2"/>
<circle clip-path="url(#clip431)" style="fill:#009af9; stroke:none; fill-opacity:0" cx="1643.75" cy="172.329" r="2"/>
<circle clip-path="url(#clip431)" style="fill:#009af9; stroke:none; fill-opacity:0" cx="1750.98" cy="797.755" r="2"/>
<circle clip-path="url(#clip431)" style="fill:#009af9; stroke:none; fill-opacity:0" cx="1858.2" cy="422.499" r="2"/>
<circle clip-path="url(#clip431)" style="fill:#009af9; stroke:none; fill-opacity:0" cx="1965.42" cy="672.669" r="2"/>
<circle clip-path="url(#clip431)" style="fill:#009af9; stroke:none; fill-opacity:0" cx="2072.65" cy="422.499" r="2"/>
<circle clip-path="url(#clip431)" style="fill:#009af9; stroke:none; fill-opacity:0" cx="2179.87" cy="1047.92" r="2"/>
</svg>
