<?xml version="1.0" encoding="utf-8"?>
<svg xmlns="http://www.w3.org/2000/svg" xmlns:xlink="http://www.w3.org/1999/xlink" width="600" height="400" viewBox="0 0 2400 1600">
<defs>
  <clipPath id="clip210">
    <rect x="0" y="0" width="2400" height="1600"/>
  </clipPath>
</defs>
<path clip-path="url(#clip210)" d="M0 1600 L2400 1600 L2400 0 L0 0  Z" fill="#ffffff" fill-rule="evenodd" fill-opacity="1"/>
<defs>
  <clipPath id="clip211">
    <rect x="480" y="0" width="1681" height="1600"/>
  </clipPath>
</defs>
<path clip-path="url(#clip210)" d="M141.853 1486.45 L2352.76 1486.45 L2352.76 47.2441 L141.853 47.2441  Z" fill="#ffffff" fill-rule="evenodd" fill-opacity="1"/>
<defs>
  <clipPath id="clip212">
    <rect x="141" y="47" width="2212" height="1440"/>
  </clipPath>
</defs>
<polyline clip-path="url(#clip212)" style="stroke:#000000; stroke-linecap:round; stroke-linejoin:round; stroke-width:2; stroke-opacity:0.1; fill:none" points="482.089,1486.45 482.089,47.2441 "/>
<polyline clip-path="url(#clip212)" style="stroke:#000000; stroke-linecap:round; stroke-linejoin:round; stroke-width:2; stroke-opacity:0.1; fill:none" points="919.355,1486.45 919.355,47.2441 "/>
<polyline clip-path="url(#clip212)" style="stroke:#000000; stroke-linecap:round; stroke-linejoin:round; stroke-width:2; stroke-opacity:0.1; fill:none" points="1356.62,1486.45 1356.62,47.2441 "/>
<polyline clip-path="url(#clip212)" style="stroke:#000000; stroke-linecap:round; stroke-linejoin:round; stroke-width:2; stroke-opacity:0.1; fill:none" points="1793.89,1486.45 1793.89,47.2441 "/>
<polyline clip-path="url(#clip212)" style="stroke:#000000; stroke-linecap:round; stroke-linejoin:round; stroke-width:2; stroke-opacity:0.1; fill:none" points="2231.15,1486.45 2231.15,47.2441 "/>
<polyline clip-path="url(#clip210)" style="stroke:#000000; stroke-linecap:round; stroke-linejoin:round; stroke-width:4; stroke-opacity:1; fill:none" points="141.853,1486.45 2352.76,1486.45 "/>
<polyline clip-path="url(#clip210)" style="stroke:#000000; stroke-linecap:round; stroke-linejoin:round; stroke-width:4; stroke-opacity:1; fill:none" points="482.089,1486.45 482.089,1467.55 "/>
<polyline clip-path="url(#clip210)" style="stroke:#000000; stroke-linecap:round; stroke-linejoin:round; stroke-width:4; stroke-opacity:1; fill:none" points="919.355,1486.45 919.355,1467.55 "/>
<polyline clip-path="url(#clip210)" style="stroke:#000000; stroke-linecap:round; stroke-linejoin:round; stroke-width:4; stroke-opacity:1; fill:none" points="1356.62,1486.45 1356.62,1467.55 "/>
<polyline clip-path="url(#clip210)" style="stroke:#000000; stroke-linecap:round; stroke-linejoin:round; stroke-width:4; stroke-opacity:1; fill:none" points="1793.89,1486.45 1793.89,1467.55 "/>
<polyline clip-path="url(#clip210)" style="stroke:#000000; stroke-linecap:round; stroke-linejoin:round; stroke-width:4; stroke-opacity:1; fill:none" points="2231.15,1486.45 2231.15,1467.55 "/>
<path clip-path="url(#clip210)" d="M455.18 1518.36 L443.374 1536.81 L455.18 1536.81 L455.18 1518.36 M453.953 1514.29 L459.833 1514.29 L459.833 1536.81 L464.763 1536.81 L464.763 1540.7 L459.833 1540.7 L459.833 1548.85 L455.18 1548.85 L455.18 1540.7 L439.578 1540.7 L439.578 1536.19 L453.953 1514.29 Z" fill="#000000" fill-rule="nonzero" fill-opacity="1" /><path clip-path="url(#clip210)" d="M482.494 1517.37 Q478.883 1517.37 477.055 1520.93 Q475.249 1524.47 475.249 1531.6 Q475.249 1538.71 477.055 1542.27 Q478.883 1545.82 482.494 1545.82 Q486.129 1545.82 487.934 1542.27 Q489.763 1538.71 489.763 1531.6 Q489.763 1524.47 487.934 1520.93 Q486.129 1517.37 482.494 1517.37 M482.494 1513.66 Q488.305 1513.66 491.36 1518.27 Q494.439 1522.85 494.439 1531.6 Q494.439 1540.33 491.36 1544.94 Q488.305 1549.52 482.494 1549.52 Q476.684 1549.52 473.606 1544.94 Q470.55 1540.33 470.55 1531.6 Q470.55 1522.85 473.606 1518.27 Q476.684 1513.66 482.494 1513.66 Z" fill="#000000" fill-rule="nonzero" fill-opacity="1" /><path clip-path="url(#clip210)" d="M512.656 1517.37 Q509.045 1517.37 507.217 1520.93 Q505.411 1524.47 505.411 1531.6 Q505.411 1538.71 507.217 1542.27 Q509.045 1545.82 512.656 1545.82 Q516.291 1545.82 518.096 1542.27 Q519.925 1538.71 519.925 1531.6 Q519.925 1524.47 518.096 1520.93 Q516.291 1517.37 512.656 1517.37 M512.656 1513.66 Q518.467 1513.66 521.522 1518.27 Q524.601 1522.85 524.601 1531.6 Q524.601 1540.33 521.522 1544.94 Q518.467 1549.52 512.656 1549.52 Q506.846 1549.52 503.768 1544.94 Q500.712 1540.33 500.712 1531.6 Q500.712 1522.85 503.768 1518.27 Q506.846 1513.66 512.656 1513.66 Z" fill="#000000" fill-rule="nonzero" fill-opacity="1" /><path clip-path="url(#clip210)" d="M892.446 1518.36 L880.64 1536.81 L892.446 1536.81 L892.446 1518.36 M891.219 1514.29 L897.098 1514.29 L897.098 1536.81 L902.029 1536.81 L902.029 1540.7 L897.098 1540.7 L897.098 1548.85 L892.446 1548.85 L892.446 1540.7 L876.844 1540.7 L876.844 1536.19 L891.219 1514.29 Z" fill="#000000" fill-rule="nonzero" fill-opacity="1" /><path clip-path="url(#clip210)" d="M909.807 1514.29 L928.163 1514.29 L928.163 1518.22 L914.089 1518.22 L914.089 1526.7 Q915.107 1526.35 916.126 1526.19 Q917.144 1526 918.163 1526 Q923.95 1526 927.33 1529.17 Q930.709 1532.34 930.709 1537.76 Q930.709 1543.34 927.237 1546.44 Q923.765 1549.52 917.445 1549.52 Q915.27 1549.52 913.001 1549.15 Q910.756 1548.78 908.348 1548.04 L908.348 1543.34 Q910.432 1544.47 912.654 1545.03 Q914.876 1545.58 917.353 1545.58 Q921.357 1545.58 923.695 1543.48 Q926.033 1541.37 926.033 1537.76 Q926.033 1534.15 923.695 1532.04 Q921.357 1529.94 917.353 1529.94 Q915.478 1529.94 913.603 1530.35 Q911.751 1530.77 909.807 1531.65 L909.807 1514.29 Z" fill="#000000" fill-rule="nonzero" fill-opacity="1" /><path clip-path="url(#clip210)" d="M949.922 1517.37 Q946.311 1517.37 944.482 1520.93 Q942.677 1524.47 942.677 1531.6 Q942.677 1538.71 944.482 1542.27 Q946.311 1545.82 949.922 1545.82 Q953.556 1545.82 955.362 1542.27 Q957.191 1538.71 957.191 1531.6 Q957.191 1524.47 955.362 1520.93 Q953.556 1517.37 949.922 1517.37 M949.922 1513.66 Q955.732 1513.66 958.788 1518.27 Q961.866 1522.85 961.866 1531.6 Q961.866 1540.33 958.788 1544.94 Q955.732 1549.52 949.922 1549.52 Q944.112 1549.52 941.033 1544.94 Q937.978 1540.33 937.978 1531.6 Q937.978 1522.85 941.033 1518.27 Q944.112 1513.66 949.922 1513.66 Z" fill="#000000" fill-rule="nonzero" fill-opacity="1" /><path clip-path="url(#clip210)" d="M1316.24 1514.29 L1334.6 1514.29 L1334.6 1518.22 L1320.52 1518.22 L1320.52 1526.7 Q1321.54 1526.35 1322.56 1526.19 Q1323.58 1526 1324.6 1526 Q1330.38 1526 1333.76 1529.17 Q1337.14 1532.34 1337.14 1537.76 Q1337.14 1543.34 1333.67 1546.44 Q1330.2 1549.52 1323.88 1549.52 Q1321.7 1549.52 1319.43 1549.15 Q1317.19 1548.78 1314.78 1548.04 L1314.78 1543.34 Q1316.86 1544.47 1319.09 1545.03 Q1321.31 1545.58 1323.79 1545.58 Q1327.79 1545.58 1330.13 1543.48 Q1332.47 1541.37 1332.47 1537.76 Q1332.47 1534.15 1330.13 1532.04 Q1327.79 1529.94 1323.79 1529.94 Q1321.91 1529.94 1320.04 1530.35 Q1318.18 1530.77 1316.24 1531.65 L1316.24 1514.29 Z" fill="#000000" fill-rule="nonzero" fill-opacity="1" /><path clip-path="url(#clip210)" d="M1356.35 1517.37 Q1352.74 1517.37 1350.91 1520.93 Q1349.11 1524.47 1349.11 1531.6 Q1349.11 1538.71 1350.91 1542.27 Q1352.74 1545.82 1356.35 1545.82 Q1359.99 1545.82 1361.79 1542.27 Q1363.62 1538.71 1363.62 1531.6 Q1363.62 1524.47 1361.79 1520.93 Q1359.99 1517.37 1356.35 1517.37 M1356.35 1513.66 Q1362.16 1513.66 1365.22 1518.27 Q1368.3 1522.85 1368.3 1531.6 Q1368.3 1540.33 1365.22 1544.94 Q1362.16 1549.52 1356.35 1549.52 Q1350.54 1549.52 1347.47 1544.94 Q1344.41 1540.33 1344.41 1531.6 Q1344.41 1522.85 1347.47 1518.27 Q1350.54 1513.66 1356.35 1513.66 Z" fill="#000000" fill-rule="nonzero" fill-opacity="1" /><path clip-path="url(#clip210)" d="M1386.52 1517.37 Q1382.91 1517.37 1381.08 1520.93 Q1379.27 1524.47 1379.27 1531.6 Q1379.27 1538.71 1381.08 1542.27 Q1382.91 1545.82 1386.52 1545.82 Q1390.15 1545.82 1391.96 1542.27 Q1393.79 1538.71 1393.79 1531.6 Q1393.79 1524.47 1391.96 1520.93 Q1390.15 1517.37 1386.52 1517.37 M1386.52 1513.66 Q1392.33 1513.66 1395.38 1518.27 Q1398.46 1522.85 1398.46 1531.6 Q1398.46 1540.33 1395.38 1544.94 Q1392.33 1549.52 1386.52 1549.52 Q1380.71 1549.52 1377.63 1544.94 Q1374.57 1540.33 1374.57 1531.6 Q1374.57 1522.85 1377.63 1518.27 Q1380.71 1513.66 1386.52 1513.66 Z" fill="#000000" fill-rule="nonzero" fill-opacity="1" /><path clip-path="url(#clip210)" d="M1753.5 1514.29 L1771.86 1514.29 L1771.86 1518.22 L1757.79 1518.22 L1757.79 1526.7 Q1758.81 1526.35 1759.82 1526.19 Q1760.84 1526 1761.86 1526 Q1767.65 1526 1771.03 1529.17 Q1774.41 1532.34 1774.41 1537.76 Q1774.41 1543.34 1770.94 1546.44 Q1767.46 1549.52 1761.14 1549.52 Q1758.97 1549.52 1756.7 1549.15 Q1754.45 1548.78 1752.05 1548.04 L1752.05 1543.34 Q1754.13 1544.47 1756.35 1545.03 Q1758.57 1545.58 1761.05 1545.58 Q1765.06 1545.58 1767.39 1543.48 Q1769.73 1541.37 1769.73 1537.76 Q1769.73 1534.15 1767.39 1532.04 Q1765.06 1529.94 1761.05 1529.94 Q1759.18 1529.94 1757.3 1530.35 Q1755.45 1530.77 1753.5 1531.65 L1753.5 1514.29 Z" fill="#000000" fill-rule="nonzero" fill-opacity="1" /><path clip-path="url(#clip210)" d="M1783.67 1514.29 L1802.02 1514.29 L1802.02 1518.22 L1787.95 1518.22 L1787.95 1526.7 Q1788.97 1526.35 1789.99 1526.19 Q1791 1526 1792.02 1526 Q1797.81 1526 1801.19 1529.17 Q1804.57 1532.34 1804.57 1537.76 Q1804.57 1543.34 1801.1 1546.44 Q1797.62 1549.52 1791.31 1549.52 Q1789.13 1549.52 1786.86 1549.15 Q1784.62 1548.78 1782.21 1548.04 L1782.21 1543.34 Q1784.29 1544.47 1786.51 1545.03 Q1788.74 1545.58 1791.21 1545.58 Q1795.22 1545.58 1797.56 1543.48 Q1799.89 1541.37 1799.89 1537.76 Q1799.89 1534.15 1797.56 1532.04 Q1795.22 1529.94 1791.21 1529.94 Q1789.34 1529.94 1787.46 1530.35 Q1785.61 1530.77 1783.67 1531.65 L1783.67 1514.29 Z" fill="#000000" fill-rule="nonzero" fill-opacity="1" /><path clip-path="url(#clip210)" d="M1823.78 1517.37 Q1820.17 1517.37 1818.34 1520.93 Q1816.54 1524.47 1816.54 1531.6 Q1816.54 1538.71 1818.34 1542.27 Q1820.17 1545.82 1823.78 1545.82 Q1827.42 1545.82 1829.22 1542.27 Q1831.05 1538.71 1831.05 1531.6 Q1831.05 1524.47 1829.22 1520.93 Q1827.42 1517.37 1823.78 1517.37 M1823.78 1513.66 Q1829.59 1513.66 1832.65 1518.27 Q1835.73 1522.85 1835.73 1531.6 Q1835.73 1540.33 1832.65 1544.94 Q1829.59 1549.52 1823.78 1549.52 Q1817.97 1549.52 1814.89 1544.94 Q1811.84 1540.33 1811.84 1531.6 Q1811.84 1522.85 1814.89 1518.27 Q1817.97 1513.66 1823.78 1513.66 Z" fill="#000000" fill-rule="nonzero" fill-opacity="1" /><path clip-path="url(#clip210)" d="M2201.48 1529.7 Q2198.33 1529.7 2196.48 1531.86 Q2194.65 1534.01 2194.65 1537.76 Q2194.65 1541.49 2196.48 1543.66 Q2198.33 1545.82 2201.48 1545.82 Q2204.62 1545.82 2206.45 1543.66 Q2208.31 1541.49 2208.31 1537.76 Q2208.31 1534.01 2206.45 1531.86 Q2204.62 1529.7 2201.48 1529.7 M2210.76 1515.05 L2210.76 1519.31 Q2209 1518.48 2207.19 1518.04 Q2205.41 1517.6 2203.65 1517.6 Q2199.02 1517.6 2196.57 1520.72 Q2194.14 1523.85 2193.79 1530.17 Q2195.16 1528.15 2197.22 1527.09 Q2199.28 1526 2201.75 1526 Q2206.96 1526 2209.97 1529.17 Q2213 1532.32 2213 1537.76 Q2213 1543.08 2209.86 1546.3 Q2206.71 1549.52 2201.48 1549.52 Q2195.48 1549.52 2192.31 1544.94 Q2189.14 1540.33 2189.14 1531.6 Q2189.14 1523.41 2193.03 1518.55 Q2196.92 1513.66 2203.47 1513.66 Q2205.23 1513.66 2207.01 1514.01 Q2208.81 1514.36 2210.76 1515.05 Z" fill="#000000" fill-rule="nonzero" fill-opacity="1" /><path clip-path="url(#clip210)" d="M2231.06 1517.37 Q2227.45 1517.37 2225.62 1520.93 Q2223.81 1524.47 2223.81 1531.6 Q2223.81 1538.71 2225.62 1542.27 Q2227.45 1545.82 2231.06 1545.82 Q2234.69 1545.82 2236.5 1542.27 Q2238.33 1538.71 2238.33 1531.6 Q2238.33 1524.47 2236.5 1520.93 Q2234.69 1517.37 2231.06 1517.37 M2231.06 1513.66 Q2236.87 1513.66 2239.93 1518.27 Q2243 1522.85 2243 1531.6 Q2243 1540.33 2239.93 1544.94 Q2236.87 1549.52 2231.06 1549.52 Q2225.25 1549.52 2222.17 1544.94 Q2219.12 1540.33 2219.12 1531.6 Q2219.12 1522.85 2222.17 1518.27 Q2225.25 1513.66 2231.06 1513.66 Z" fill="#000000" fill-rule="nonzero" fill-opacity="1" /><path clip-path="url(#clip210)" d="M2261.22 1517.37 Q2257.61 1517.37 2255.78 1520.93 Q2253.98 1524.47 2253.98 1531.6 Q2253.98 1538.71 2255.78 1542.27 Q2257.61 1545.82 2261.22 1545.82 Q2264.86 1545.82 2266.66 1542.27 Q2268.49 1538.71 2268.49 1531.6 Q2268.49 1524.47 2266.66 1520.93 Q2264.86 1517.37 2261.22 1517.37 M2261.22 1513.66 Q2267.03 1513.66 2270.09 1518.27 Q2273.17 1522.85 2273.17 1531.6 Q2273.17 1540.33 2270.09 1544.94 Q2267.03 1549.52 2261.22 1549.52 Q2255.41 1549.52 2252.33 1544.94 Q2249.28 1540.33 2249.28 1531.6 Q2249.28 1522.85 2252.33 1518.27 Q2255.41 1513.66 2261.22 1513.66 Z" fill="#000000" fill-rule="nonzero" fill-opacity="1" /><polyline clip-path="url(#clip212)" style="stroke:#000000; stroke-linecap:round; stroke-linejoin:round; stroke-width:2; stroke-opacity:0.1; fill:none" points="141.853,1486.45 2352.76,1486.45 "/>
<polyline clip-path="url(#clip212)" style="stroke:#000000; stroke-linecap:round; stroke-linejoin:round; stroke-width:2; stroke-opacity:0.1; fill:none" points="141.853,1122.09 2352.76,1122.09 "/>
<polyline clip-path="url(#clip212)" style="stroke:#000000; stroke-linecap:round; stroke-linejoin:round; stroke-width:2; stroke-opacity:0.1; fill:none" points="141.853,757.737 2352.76,757.737 "/>
<polyline clip-path="url(#clip212)" style="stroke:#000000; stroke-linecap:round; stroke-linejoin:round; stroke-width:2; stroke-opacity:0.1; fill:none" points="141.853,393.382 2352.76,393.382 "/>
<polyline clip-path="url(#clip210)" style="stroke:#000000; stroke-linecap:round; stroke-linejoin:round; stroke-width:4; stroke-opacity:1; fill:none" points="141.853,1486.45 141.853,47.2441 "/>
<polyline clip-path="url(#clip210)" style="stroke:#000000; stroke-linecap:round; stroke-linejoin:round; stroke-width:4; stroke-opacity:1; fill:none" points="141.853,1486.45 160.751,1486.45 "/>
<polyline clip-path="url(#clip210)" style="stroke:#000000; stroke-linecap:round; stroke-linejoin:round; stroke-width:4; stroke-opacity:1; fill:none" points="141.853,1122.09 160.751,1122.09 "/>
<polyline clip-path="url(#clip210)" style="stroke:#000000; stroke-linecap:round; stroke-linejoin:round; stroke-width:4; stroke-opacity:1; fill:none" points="141.853,757.737 160.751,757.737 "/>
<polyline clip-path="url(#clip210)" style="stroke:#000000; stroke-linecap:round; stroke-linejoin:round; stroke-width:4; stroke-opacity:1; fill:none" points="141.853,393.382 160.751,393.382 "/>
<path clip-path="url(#clip210)" d="M93.9086 1472.25 Q90.2975 1472.25 88.4688 1475.81 Q86.6632 1479.35 86.6632 1486.48 Q86.6632 1493.59 88.4688 1497.15 Q90.2975 1500.7 93.9086 1500.7 Q97.5428 1500.7 99.3483 1497.15 Q101.177 1493.59 101.177 1486.48 Q101.177 1479.35 99.3483 1475.81 Q97.5428 1472.25 93.9086 1472.25 M93.9086 1468.54 Q99.7187 1468.54 102.774 1473.15 Q105.853 1477.73 105.853 1486.48 Q105.853 1495.21 102.774 1499.82 Q99.7187 1504.4 93.9086 1504.4 Q88.0984 1504.4 85.0197 1499.82 Q81.9642 1495.21 81.9642 1486.48 Q81.9642 1477.73 85.0197 1473.15 Q88.0984 1468.54 93.9086 1468.54 Z" fill="#000000" fill-rule="nonzero" fill-opacity="1" /><path clip-path="url(#clip210)" d="M57.7745 1135.44 L74.0939 1135.44 L74.0939 1139.37 L52.1495 1139.37 L52.1495 1135.44 Q54.8115 1132.68 59.3949 1128.05 Q64.0013 1123.4 65.1819 1122.06 Q67.4272 1119.53 68.3068 1117.8 Q69.2096 1116.04 69.2096 1114.35 Q69.2096 1111.59 67.2652 1109.86 Q65.3439 1108.12 62.2421 1108.12 Q60.043 1108.12 57.5893 1108.89 Q55.1588 1109.65 52.381 1111.2 L52.381 1106.48 Q55.2051 1105.34 57.6588 1104.77 Q60.1124 1104.19 62.1495 1104.19 Q67.5198 1104.19 70.7142 1106.87 Q73.9087 1109.56 73.9087 1114.05 Q73.9087 1116.18 73.0985 1118.1 Q72.3115 1120 70.205 1122.59 Q69.6263 1123.26 66.5245 1126.48 Q63.4226 1129.67 57.7745 1135.44 Z" fill="#000000" fill-rule="nonzero" fill-opacity="1" /><path clip-path="url(#clip210)" d="M93.9086 1107.89 Q90.2975 1107.89 88.4688 1111.46 Q86.6632 1115 86.6632 1122.13 Q86.6632 1129.23 88.4688 1132.8 Q90.2975 1136.34 93.9086 1136.34 Q97.5428 1136.34 99.3483 1132.8 Q101.177 1129.23 101.177 1122.13 Q101.177 1115 99.3483 1111.46 Q97.5428 1107.89 93.9086 1107.89 M93.9086 1104.19 Q99.7187 1104.19 102.774 1108.79 Q105.853 1113.38 105.853 1122.13 Q105.853 1130.85 102.774 1135.46 Q99.7187 1140.04 93.9086 1140.04 Q88.0984 1140.04 85.0197 1135.46 Q81.9642 1130.85 81.9642 1122.13 Q81.9642 1113.38 85.0197 1108.79 Q88.0984 1104.19 93.9086 1104.19 Z" fill="#000000" fill-rule="nonzero" fill-opacity="1" /><path clip-path="url(#clip210)" d="M66.5939 744.531 L54.7884 762.98 L66.5939 762.98 L66.5939 744.531 M65.367 740.457 L71.2466 740.457 L71.2466 762.98 L76.1772 762.98 L76.1772 766.869 L71.2466 766.869 L71.2466 775.017 L66.5939 775.017 L66.5939 766.869 L50.9921 766.869 L50.9921 762.355 L65.367 740.457 Z" fill="#000000" fill-rule="nonzero" fill-opacity="1" /><path clip-path="url(#clip210)" d="M93.9086 743.536 Q90.2975 743.536 88.4688 747.101 Q86.6632 750.642 86.6632 757.772 Q86.6632 764.878 88.4688 768.443 Q90.2975 771.985 93.9086 771.985 Q97.5428 771.985 99.3483 768.443 Q101.177 764.878 101.177 757.772 Q101.177 750.642 99.3483 747.101 Q97.5428 743.536 93.9086 743.536 M93.9086 739.832 Q99.7187 739.832 102.774 744.439 Q105.853 749.022 105.853 757.772 Q105.853 766.499 102.774 771.105 Q99.7187 775.688 93.9086 775.688 Q88.0984 775.688 85.0197 771.105 Q81.9642 766.499 81.9642 757.772 Q81.9642 749.022 85.0197 744.439 Q88.0984 739.832 93.9086 739.832 Z" fill="#000000" fill-rule="nonzero" fill-opacity="1" /><path clip-path="url(#clip210)" d="M64.3254 391.518 Q61.1773 391.518 59.3254 393.671 Q57.4967 395.824 57.4967 399.574 Q57.4967 403.301 59.3254 405.477 Q61.1773 407.629 64.3254 407.629 Q67.4735 407.629 69.3022 405.477 Q71.1541 403.301 71.1541 399.574 Q71.1541 395.824 69.3022 393.671 Q67.4735 391.518 64.3254 391.518 M73.6077 376.866 L73.6077 381.125 Q71.8485 380.292 70.0429 379.852 Q68.2606 379.412 66.5013 379.412 Q61.8717 379.412 59.418 382.537 Q56.9875 385.662 56.6402 391.981 Q58.006 389.967 60.0662 388.903 Q62.1263 387.815 64.6032 387.815 Q69.8115 387.815 72.8207 390.986 Q75.8531 394.134 75.8531 399.574 Q75.8531 404.898 72.705 408.115 Q69.5568 411.333 64.3254 411.333 Q58.33 411.333 55.1588 406.75 Q51.9875 402.143 51.9875 393.416 Q51.9875 385.222 55.8764 380.361 Q59.7652 375.477 66.3161 375.477 Q68.0754 375.477 69.8578 375.824 Q71.6633 376.171 73.6077 376.866 Z" fill="#000000" fill-rule="nonzero" fill-opacity="1" /><path clip-path="url(#clip210)" d="M93.9086 379.18 Q90.2975 379.18 88.4688 382.745 Q86.6632 386.287 86.6632 393.416 Q86.6632 400.523 88.4688 404.088 Q90.2975 407.629 93.9086 407.629 Q97.5428 407.629 99.3483 404.088 Q101.177 400.523 101.177 393.416 Q101.177 386.287 99.3483 382.745 Q97.5428 379.18 93.9086 379.18 M93.9086 375.477 Q99.7187 375.477 102.774 380.083 Q105.853 384.666 105.853 393.416 Q105.853 402.143 102.774 406.75 Q99.7187 411.333 93.9086 411.333 Q88.0984 411.333 85.0197 406.75 Q81.9642 402.143 81.9642 393.416 Q81.9642 384.666 85.0197 380.083 Q88.0984 375.477 93.9086 375.477 Z" fill="#000000" fill-rule="nonzero" fill-opacity="1" /><path clip-path="url(#clip212)" d="M263.457 1468.23 L263.457 1486.45 L482.089 1486.45 L482.089 1468.23 L263.457 1468.23 L263.457 1468.23  Z" fill="#009af9" fill-rule="evenodd" fill-opacity="1"/>
<polyline clip-path="url(#clip212)" style="stroke:#000000; stroke-linecap:round; stroke-linejoin:round; stroke-width:4; stroke-opacity:1; fill:none" points="263.457,1468.23 263.457,1486.45 482.089,1486.45 482.089,1468.23 263.457,1468.23 "/>
<path clip-path="url(#clip212)" d="M482.089 1468.23 L482.089 1486.45 L700.722 1486.45 L700.722 1468.23 L482.089 1468.23 L482.089 1468.23  Z" fill="#009af9" fill-rule="evenodd" fill-opacity="1"/>
<polyline clip-path="url(#clip212)" style="stroke:#000000; stroke-linecap:round; stroke-linejoin:round; stroke-width:4; stroke-opacity:1; fill:none" points="482.089,1468.23 482.089,1486.45 700.722,1486.45 700.722,1468.23 482.089,1468.23 "/>
<path clip-path="url(#clip212)" d="M700.722 1431.79 L700.722 1486.45 L919.355 1486.45 L919.355 1431.79 L700.722 1431.79 L700.722 1431.79  Z" fill="#009af9" fill-rule="evenodd" fill-opacity="1"/>
<polyline clip-path="url(#clip212)" style="stroke:#000000; stroke-linecap:round; stroke-linejoin:round; stroke-width:4; stroke-opacity:1; fill:none" points="700.722,1431.79 700.722,1486.45 919.355,1486.45 919.355,1431.79 700.722,1431.79 "/>
<path clip-path="url(#clip212)" d="M919.355 1395.36 L919.355 1486.45 L1137.99 1486.45 L1137.99 1395.36 L919.355 1395.36 L919.355 1395.36  Z" fill="#009af9" fill-rule="evenodd" fill-opacity="1"/>
<polyline clip-path="url(#clip212)" style="stroke:#000000; stroke-linecap:round; stroke-linejoin:round; stroke-width:4; stroke-opacity:1; fill:none" points="919.355,1395.36 919.355,1486.45 1137.99,1486.45 1137.99,1395.36 919.355,1395.36 "/>
<path clip-path="url(#clip212)" d="M1137.99 1413.58 L1137.99 1486.45 L1356.62 1486.45 L1356.62 1413.58 L1137.99 1413.58 L1137.99 1413.58  Z" fill="#009af9" fill-rule="evenodd" fill-opacity="1"/>
<polyline clip-path="url(#clip212)" style="stroke:#000000; stroke-linecap:round; stroke-linejoin:round; stroke-width:4; stroke-opacity:1; fill:none" points="1137.99,1413.58 1137.99,1486.45 1356.62,1486.45 1356.62,1413.58 1137.99,1413.58 "/>
<path clip-path="url(#clip212)" d="M1356.62 1340.71 L1356.62 1486.45 L1575.25 1486.45 L1575.25 1340.71 L1356.62 1340.71 L1356.62 1340.71  Z" fill="#009af9" fill-rule="evenodd" fill-opacity="1"/>
<polyline clip-path="url(#clip212)" style="stroke:#000000; stroke-linecap:round; stroke-linejoin:round; stroke-width:4; stroke-opacity:1; fill:none" points="1356.62,1340.71 1356.62,1486.45 1575.25,1486.45 1575.25,1340.71 1356.62,1340.71 "/>
<path clip-path="url(#clip212)" d="M1575.25 1249.62 L1575.25 1486.45 L1793.89 1486.45 L1793.89 1249.62 L1575.25 1249.62 L1575.25 1249.62  Z" fill="#009af9" fill-rule="evenodd" fill-opacity="1"/>
<polyline clip-path="url(#clip212)" style="stroke:#000000; stroke-linecap:round; stroke-linejoin:round; stroke-width:4; stroke-opacity:1; fill:none" points="1575.25,1249.62 1575.25,1486.45 1793.89,1486.45 1793.89,1249.62 1575.25,1249.62 "/>
<path clip-path="url(#clip212)" d="M1793.89 1213.18 L1793.89 1486.45 L2012.52 1486.45 L2012.52 1213.18 L1793.89 1213.18 L1793.89 1213.18  Z" fill="#009af9" fill-rule="evenodd" fill-opacity="1"/>
<polyline clip-path="url(#clip212)" style="stroke:#000000; stroke-linecap:round; stroke-linejoin:round; stroke-width:4; stroke-opacity:1; fill:none" points="1793.89,1213.18 1793.89,1486.45 2012.52,1486.45 2012.52,1213.18 1793.89,1213.18 "/>
<path clip-path="url(#clip212)" d="M2012.52 575.559 L2012.52 1486.45 L2231.15 1486.45 L2231.15 575.559 L2012.52 575.559 L2012.52 575.559  Z" fill="#009af9" fill-rule="evenodd" fill-opacity="1"/>
<polyline clip-path="url(#clip212)" style="stroke:#000000; stroke-linecap:round; stroke-linejoin:round; stroke-width:4; stroke-opacity:1; fill:none" points="2012.52,575.559 2012.52,1486.45 2231.15,1486.45 2231.15,575.559 2012.52,575.559 "/>
<circle clip-path="url(#clip212)" style="fill:#009af9; stroke:none; fill-opacity:0" cx="372.773" cy="1468.23" r="2"/>
<circle clip-path="url(#clip212)" style="fill:#009af9; stroke:none; fill-opacity:0" cx="591.406" cy="1468.23" r="2"/>
<circle clip-path="url(#clip212)" style="fill:#009af9; stroke:none; fill-opacity:0" cx="810.039" cy="1431.79" r="2"/>
<circle clip-path="url(#clip212)" style="fill:#009af9; stroke:none; fill-opacity:0" cx="1028.67" cy="1395.36" r="2"/>
<circle clip-path="url(#clip212)" style="fill:#009af9; stroke:none; fill-opacity:0" cx="1247.3" cy="1413.58" r="2"/>
<circle clip-path="url(#clip212)" style="fill:#009af9; stroke:none; fill-opacity:0" cx="1465.94" cy="1340.71" r="2"/>
<circle clip-path="url(#clip212)" style="fill:#009af9; stroke:none; fill-opacity:0" cx="1684.57" cy="1249.62" r="2"/>
<circle clip-path="url(#clip212)" style="fill:#009af9; stroke:none; fill-opacity:0" cx="1903.2" cy="1213.18" r="2"/>
<circle clip-path="url(#clip212)" style="fill:#009af9; stroke:none; fill-opacity:0" cx="2121.84" cy="575.559" r="2"/>
<path clip-path="url(#clip212)" d="M263.457 1486.45 L263.457 1486.45 L482.089 1486.45 L482.089 1486.45 L263.457 1486.45 L263.457 1486.45  Z" fill="#e26f46" fill-rule="evenodd" fill-opacity="0.5"/>
<polyline clip-path="url(#clip212)" style="stroke:#000000; stroke-linecap:round; stroke-linejoin:round; stroke-width:4; stroke-opacity:0.5; fill:none" points="263.457,1486.45 263.457,1486.45 482.089,1486.45 263.457,1486.45 "/>
<path clip-path="url(#clip212)" d="M482.089 1468.23 L482.089 1486.45 L700.722 1486.45 L700.722 1468.23 L482.089 1468.23 L482.089 1468.23  Z" fill="#e26f46" fill-rule="evenodd" fill-opacity="0.5"/>
<polyline clip-path="url(#clip212)" style="stroke:#000000; stroke-linecap:round; stroke-linejoin:round; stroke-width:4; stroke-opacity:0.5; fill:none" points="482.089,1468.23 482.089,1486.45 700.722,1486.45 700.722,1468.23 482.089,1468.23 "/>
<path clip-path="url(#clip212)" d="M700.722 1468.23 L700.722 1486.45 L919.355 1486.45 L919.355 1468.23 L700.722 1468.23 L700.722 1468.23  Z" fill="#e26f46" fill-rule="evenodd" fill-opacity="0.5"/>
<polyline clip-path="url(#clip212)" style="stroke:#000000; stroke-linecap:round; stroke-linejoin:round; stroke-width:4; stroke-opacity:0.5; fill:none" points="700.722,1468.23 700.722,1486.45 919.355,1486.45 919.355,1468.23 700.722,1468.23 "/>
<path clip-path="url(#clip212)" d="M919.355 1431.79 L919.355 1486.45 L1137.99 1486.45 L1137.99 1431.79 L919.355 1431.79 L919.355 1431.79  Z" fill="#e26f46" fill-rule="evenodd" fill-opacity="0.5"/>
<polyline clip-path="url(#clip212)" style="stroke:#000000; stroke-linecap:round; stroke-linejoin:round; stroke-width:4; stroke-opacity:0.5; fill:none" points="919.355,1431.79 919.355,1486.45 1137.99,1486.45 1137.99,1431.79 919.355,1431.79 "/>
<path clip-path="url(#clip212)" d="M1137.99 1413.58 L1137.99 1486.45 L1356.62 1486.45 L1356.62 1413.58 L1137.99 1413.58 L1137.99 1413.58  Z" fill="#e26f46" fill-rule="evenodd" fill-opacity="0.5"/>
<polyline clip-path="url(#clip212)" style="stroke:#000000; stroke-linecap:round; stroke-linejoin:round; stroke-width:4; stroke-opacity:0.5; fill:none" points="1137.99,1413.58 1137.99,1486.45 1356.62,1486.45 1356.62,1413.58 1137.99,1413.58 "/>
<path clip-path="url(#clip212)" d="M1356.62 1413.58 L1356.62 1486.45 L1575.25 1486.45 L1575.25 1413.58 L1356.62 1413.58 L1356.62 1413.58  Z" fill="#e26f46" fill-rule="evenodd" fill-opacity="0.5"/>
<polyline clip-path="url(#clip212)" style="stroke:#000000; stroke-linecap:round; stroke-linejoin:round; stroke-width:4; stroke-opacity:0.5; fill:none" points="1356.62,1413.58 1356.62,1486.45 1575.25,1486.45 1575.25,1413.58 1356.62,1413.58 "/>
<path clip-path="url(#clip212)" d="M1575.25 1340.71 L1575.25 1486.45 L1793.89 1486.45 L1793.89 1340.71 L1575.25 1340.71 L1575.25 1340.71  Z" fill="#e26f46" fill-rule="evenodd" fill-opacity="0.5"/>
<polyline clip-path="url(#clip212)" style="stroke:#000000; stroke-linecap:round; stroke-linejoin:round; stroke-width:4; stroke-opacity:0.5; fill:none" points="1575.25,1340.71 1575.25,1486.45 1793.89,1486.45 1793.89,1340.71 1575.25,1340.71 "/>
<path clip-path="url(#clip212)" d="M1793.89 47.2441 L1793.89 1486.45 L2012.52 1486.45 L2012.52 47.2441 L1793.89 47.2441 L1793.89 47.2441  Z" fill="#e26f46" fill-rule="evenodd" fill-opacity="0.5"/>
<polyline clip-path="url(#clip212)" style="stroke:#000000; stroke-linecap:round; stroke-linejoin:round; stroke-width:4; stroke-opacity:0.5; fill:none" points="1793.89,47.2441 1793.89,1486.45 2012.52,1486.45 2012.52,47.2441 1793.89,47.2441 "/>
<path clip-path="url(#clip212)" d="M2012.52 1486.45 L2012.52 1486.45 L2231.15 1486.45 L2231.15 1486.45 L2012.52 1486.45 L2012.52 1486.45  Z" fill="#e26f46" fill-rule="evenodd" fill-opacity="0.5"/>
<polyline clip-path="url(#clip212)" style="stroke:#000000; stroke-linecap:round; stroke-linejoin:round; stroke-width:4; stroke-opacity:0.5; fill:none" points="2012.52,1486.45 2012.52,1486.45 2231.15,1486.45 2012.52,1486.45 "/>
<circle clip-path="url(#clip212)" style="fill:#e26f46; stroke:none; fill-opacity:0" cx="372.773" cy="1486.45" r="2"/>
<circle clip-path="url(#clip212)" style="fill:#e26f46; stroke:none; fill-opacity:0" cx="591.406" cy="1468.23" r="2"/>
<circle clip-path="url(#clip212)" style="fill:#e26f46; stroke:none; fill-opacity:0" cx="810.039" cy="1468.23" r="2"/>
<circle clip-path="url(#clip212)" style="fill:#e26f46; stroke:none; fill-opacity:0" cx="1028.67" cy="1431.79" r="2"/>
<circle clip-path="url(#clip212)" style="fill:#e26f46; stroke:none; fill-opacity:0" cx="1247.3" cy="1413.58" r="2"/>
<circle clip-path="url(#clip212)" style="fill:#e26f46; stroke:none; fill-opacity:0" cx="1465.94" cy="1413.58" r="2"/>
<circle clip-path="url(#clip212)" style="fill:#e26f46; stroke:none; fill-opacity:0" cx="1684.57" cy="1340.71" r="2"/>
<circle clip-path="url(#clip212)" style="fill:#e26f46; stroke:none; fill-opacity:0" cx="1903.2" cy="47.2441" r="2"/>
<circle clip-path="url(#clip212)" style="fill:#e26f46; stroke:none; fill-opacity:0" cx="2121.84" cy="1486.45" r="2"/>
<path clip-path="url(#clip210)" d="M215.55 250.738 L709.74 250.738 L709.74 95.2176 L215.55 95.2176  Z" fill="#ffffff" fill-rule="evenodd" fill-opacity="1"/>
<polyline clip-path="url(#clip210)" style="stroke:#000000; stroke-linecap:round; stroke-linejoin:round; stroke-width:4; stroke-opacity:1; fill:none" points="215.55,250.738 709.74,250.738 709.74,95.2176 215.55,95.2176 215.55,250.738 "/>
<path clip-path="url(#clip210)" d="M240.115 167.794 L387.509 167.794 L387.509 126.322 L240.115 126.322 L240.115 167.794  Z" fill="#009af9" fill-rule="evenodd" fill-opacity="1"/>
<polyline clip-path="url(#clip210)" style="stroke:#000000; stroke-linecap:round; stroke-linejoin:round; stroke-width:4; stroke-opacity:1; fill:none" points="240.115,167.794 387.509,167.794 387.509,126.322 240.115,126.322 240.115,167.794 "/>
<path clip-path="url(#clip210)" d="M412.074 129.778 L433.926 129.778 L433.926 133.713 L416.75 133.713 L416.75 143.944 L433.209 143.944 L433.209 147.879 L416.75 147.879 L416.75 160.402 L434.343 160.402 L434.343 164.338 L412.074 164.338 L412.074 129.778 Z" fill="#000000" fill-rule="nonzero" fill-opacity="1" /><path clip-path="url(#clip210)" d="M463.394 138.412 L454.019 151.027 L463.88 164.338 L458.857 164.338 L451.31 154.152 L443.764 164.338 L438.741 164.338 L448.81 150.773 L439.597 138.412 L444.621 138.412 L451.496 147.648 L458.37 138.412 L463.394 138.412 Z" fill="#000000" fill-rule="nonzero" fill-opacity="1" /><path clip-path="url(#clip210)" d="M474.019 160.449 L474.019 174.199 L469.736 174.199 L469.736 138.412 L474.019 138.412 L474.019 142.347 Q475.361 140.032 477.398 138.921 Q479.458 137.787 482.306 137.787 Q487.028 137.787 489.968 141.537 Q492.93 145.287 492.93 151.398 Q492.93 157.509 489.968 161.259 Q487.028 165.009 482.306 165.009 Q479.458 165.009 477.398 163.898 Q475.361 162.763 474.019 160.449 M488.509 151.398 Q488.509 146.699 486.565 144.037 Q484.643 141.352 481.264 141.352 Q477.884 141.352 475.94 144.037 Q474.019 146.699 474.019 151.398 Q474.019 156.097 475.94 158.782 Q477.884 161.444 481.264 161.444 Q484.643 161.444 486.565 158.782 Q488.509 156.097 488.509 151.398 Z" fill="#000000" fill-rule="nonzero" fill-opacity="1" /><path clip-path="url(#clip210)" d="M522.166 150.31 L522.166 152.393 L502.583 152.393 Q502.861 156.791 505.222 159.106 Q507.606 161.398 511.842 161.398 Q514.296 161.398 516.588 160.796 Q518.903 160.194 521.171 158.99 L521.171 163.018 Q518.879 163.99 516.472 164.5 Q514.065 165.009 511.588 165.009 Q505.384 165.009 501.75 161.398 Q498.139 157.787 498.139 151.629 Q498.139 145.264 501.565 141.537 Q505.014 137.787 510.847 137.787 Q516.078 137.787 519.111 141.166 Q522.166 144.523 522.166 150.31 M517.907 149.06 Q517.861 145.565 515.94 143.481 Q514.041 141.398 510.893 141.398 Q507.329 141.398 505.176 143.412 Q503.046 145.426 502.722 149.083 L517.907 149.06 Z" fill="#000000" fill-rule="nonzero" fill-opacity="1" /><path clip-path="url(#clip210)" d="M547.814 139.407 L547.814 143.389 Q546.009 142.393 544.18 141.907 Q542.375 141.398 540.523 141.398 Q536.379 141.398 534.088 144.037 Q531.796 146.652 531.796 151.398 Q531.796 156.143 534.088 158.782 Q536.379 161.398 540.523 161.398 Q542.375 161.398 544.18 160.912 Q546.009 160.402 547.814 159.407 L547.814 163.342 Q546.032 164.176 544.111 164.592 Q542.213 165.009 540.06 165.009 Q534.203 165.009 530.754 161.328 Q527.305 157.648 527.305 151.398 Q527.305 145.055 530.777 141.421 Q534.273 137.787 540.338 137.787 Q542.305 137.787 544.18 138.203 Q546.055 138.597 547.814 139.407 Z" fill="#000000" fill-rule="nonzero" fill-opacity="1" /><path clip-path="url(#clip210)" d="M559.435 131.051 L559.435 138.412 L568.208 138.412 L568.208 141.722 L559.435 141.722 L559.435 155.796 Q559.435 158.967 560.291 159.87 Q561.171 160.773 563.833 160.773 L568.208 160.773 L568.208 164.338 L563.833 164.338 Q558.902 164.338 557.027 162.509 Q555.152 160.657 555.152 155.796 L555.152 141.722 L552.027 141.722 L552.027 138.412 L555.152 138.412 L555.152 131.051 L559.435 131.051 Z" fill="#000000" fill-rule="nonzero" fill-opacity="1" /><path clip-path="url(#clip210)" d="M585.592 151.305 Q580.43 151.305 578.439 152.486 Q576.449 153.666 576.449 156.514 Q576.449 158.782 577.93 160.125 Q579.435 161.444 582.004 161.444 Q585.546 161.444 587.675 158.944 Q589.828 156.421 589.828 152.254 L589.828 151.305 L585.592 151.305 M594.087 149.546 L594.087 164.338 L589.828 164.338 L589.828 160.402 Q588.37 162.763 586.194 163.898 Q584.018 165.009 580.87 165.009 Q576.888 165.009 574.527 162.787 Q572.189 160.541 572.189 156.791 Q572.189 152.416 575.106 150.194 Q578.046 147.972 583.856 147.972 L589.828 147.972 L589.828 147.555 Q589.828 144.615 587.884 143.018 Q585.962 141.398 582.467 141.398 Q580.245 141.398 578.138 141.93 Q576.032 142.463 574.087 143.527 L574.087 139.592 Q576.425 138.69 578.624 138.25 Q580.824 137.787 582.907 137.787 Q588.532 137.787 591.31 140.703 Q594.087 143.62 594.087 149.546 Z" fill="#000000" fill-rule="nonzero" fill-opacity="1" /><path clip-path="url(#clip210)" d="M607.073 131.051 L607.073 138.412 L615.846 138.412 L615.846 141.722 L607.073 141.722 L607.073 155.796 Q607.073 158.967 607.93 159.87 Q608.809 160.773 611.471 160.773 L615.846 160.773 L615.846 164.338 L611.471 164.338 Q606.541 164.338 604.666 162.509 Q602.791 160.657 602.791 155.796 L602.791 141.722 L599.666 141.722 L599.666 138.412 L602.791 138.412 L602.791 131.051 L607.073 131.051 Z" fill="#000000" fill-rule="nonzero" fill-opacity="1" /><path clip-path="url(#clip210)" d="M621.448 138.412 L625.708 138.412 L625.708 164.338 L621.448 164.338 L621.448 138.412 M621.448 128.319 L625.708 128.319 L625.708 133.713 L621.448 133.713 L621.448 128.319 Z" fill="#000000" fill-rule="nonzero" fill-opacity="1" /><path clip-path="url(#clip210)" d="M644.666 141.398 Q641.24 141.398 639.249 144.083 Q637.258 146.745 637.258 151.398 Q637.258 156.051 639.226 158.736 Q641.217 161.398 644.666 161.398 Q648.069 161.398 650.059 158.713 Q652.05 156.027 652.05 151.398 Q652.05 146.791 650.059 144.106 Q648.069 141.398 644.666 141.398 M644.666 137.787 Q650.221 137.787 653.393 141.398 Q656.564 145.009 656.564 151.398 Q656.564 157.764 653.393 161.398 Q650.221 165.009 644.666 165.009 Q639.087 165.009 635.916 161.398 Q632.768 157.764 632.768 151.398 Q632.768 145.009 635.916 141.398 Q639.087 137.787 644.666 137.787 Z" fill="#000000" fill-rule="nonzero" fill-opacity="1" /><path clip-path="url(#clip210)" d="M685.175 148.689 L685.175 164.338 L680.916 164.338 L680.916 148.828 Q680.916 145.148 679.48 143.319 Q678.045 141.49 675.175 141.49 Q671.726 141.49 669.735 143.69 Q667.744 145.889 667.744 149.685 L667.744 164.338 L663.462 164.338 L663.462 138.412 L667.744 138.412 L667.744 142.44 Q669.272 140.102 671.332 138.944 Q673.416 137.787 676.124 137.787 Q680.591 137.787 682.883 140.565 Q685.175 143.319 685.175 148.689 Z" fill="#000000" fill-rule="nonzero" fill-opacity="1" /><path clip-path="url(#clip210)" d="M240.115 219.634 L387.509 219.634 L387.509 178.162 L240.115 178.162 L240.115 219.634  Z" fill="#e26f46" fill-rule="evenodd" fill-opacity="0.5"/>
<polyline clip-path="url(#clip210)" style="stroke:#000000; stroke-linecap:round; stroke-linejoin:round; stroke-width:4; stroke-opacity:1; fill:none" points="240.115,219.634 387.509,219.634 387.509,178.162 240.115,178.162 240.115,219.634 "/>
<path clip-path="url(#clip210)" d="M439.945 184.28 L439.945 189.21 Q437.584 187.011 434.898 185.923 Q432.236 184.835 429.227 184.835 Q423.301 184.835 420.153 188.469 Q417.005 192.08 417.005 198.932 Q417.005 205.761 420.153 209.395 Q423.301 213.006 429.227 213.006 Q432.236 213.006 434.898 211.918 Q437.584 210.83 439.945 208.631 L439.945 213.516 Q437.491 215.182 434.736 216.016 Q432.005 216.849 428.949 216.849 Q421.102 216.849 416.588 212.057 Q412.074 207.242 412.074 198.932 Q412.074 190.599 416.588 185.807 Q421.102 180.993 428.949 180.993 Q432.051 180.993 434.783 181.826 Q437.537 182.636 439.945 184.28 Z" fill="#000000" fill-rule="nonzero" fill-opacity="1" /><path clip-path="url(#clip210)" d="M456.079 216.178 L442.884 181.618 L447.769 181.618 L458.718 210.715 L469.69 181.618 L474.551 181.618 L461.38 216.178 L456.079 216.178 Z" fill="#000000" fill-rule="nonzero" fill-opacity="1" /><path clip-path="url(#clip210)" d="M492.583 203.747 Q492.583 207.057 494.227 208.955 Q495.87 210.83 498.741 210.83 Q501.588 210.83 503.208 208.932 Q504.852 207.034 504.852 203.747 Q504.852 200.506 503.185 198.608 Q501.518 196.687 498.694 196.687 Q495.893 196.687 494.227 198.585 Q492.583 200.483 492.583 203.747 M505.199 210.668 Q503.81 212.451 502.004 213.307 Q500.222 214.141 497.838 214.141 Q493.856 214.141 491.356 211.27 Q488.88 208.377 488.88 203.747 Q488.88 199.117 491.38 196.224 Q493.88 193.33 497.838 193.33 Q500.222 193.33 502.028 194.21 Q503.833 195.067 505.199 196.826 L505.199 193.793 L508.509 193.793 L508.509 210.83 Q511.889 210.321 513.787 207.752 Q515.708 205.159 515.708 201.062 Q515.708 198.585 514.967 196.409 Q514.25 194.233 512.768 192.381 Q510.361 189.349 506.889 187.752 Q503.44 186.131 499.366 186.131 Q496.518 186.131 493.903 186.895 Q491.287 187.636 489.065 189.118 Q485.431 191.479 483.37 195.321 Q481.333 199.141 481.333 203.608 Q481.333 207.289 482.653 210.506 Q483.995 213.724 486.518 216.178 Q488.949 218.585 492.143 219.835 Q495.338 221.108 498.972 221.108 Q501.958 221.108 504.829 220.09 Q507.722 219.094 510.129 217.219 L512.213 219.789 Q509.319 222.034 505.893 223.215 Q502.491 224.418 498.972 224.418 Q494.69 224.418 490.893 222.89 Q487.097 221.386 484.134 218.492 Q481.171 215.599 479.62 211.803 Q478.069 207.983 478.069 203.608 Q478.069 199.395 479.643 195.576 Q481.218 191.756 484.134 188.863 Q487.12 185.923 491.032 184.372 Q494.944 182.798 499.319 182.798 Q504.227 182.798 508.416 184.812 Q512.629 186.826 515.477 190.53 Q517.213 192.798 518.116 195.46 Q519.041 198.122 519.041 200.969 Q519.041 207.057 515.361 210.576 Q511.68 214.094 505.199 214.233 L505.199 210.668 Z" fill="#000000" fill-rule="nonzero" fill-opacity="1" /><path clip-path="url(#clip210)" d="M543.393 199.974 Q544.898 200.483 546.31 202.15 Q547.745 203.817 549.18 206.733 L553.926 216.178 L548.902 216.178 L544.481 207.312 Q542.768 203.84 541.148 202.705 Q539.551 201.571 536.773 201.571 L531.68 201.571 L531.68 216.178 L527.004 216.178 L527.004 181.618 L537.56 181.618 Q543.486 181.618 546.402 184.094 Q549.319 186.571 549.319 191.571 Q549.319 194.835 547.791 196.988 Q546.287 199.141 543.393 199.974 M531.68 185.46 L531.68 197.729 L537.56 197.729 Q540.939 197.729 542.652 196.178 Q544.389 194.604 544.389 191.571 Q544.389 188.539 542.652 187.011 Q540.939 185.46 537.56 185.46 L531.68 185.46 Z" fill="#000000" fill-rule="nonzero" fill-opacity="1" /></svg>
