<?xml version="1.0" encoding="UTF-8"?>
<svg xmlns="http://www.w3.org/2000/svg" xmlns:xlink="http://www.w3.org/1999/xlink" width="400pt" height="150pt" viewBox="0 0 400 150" version="1.1">
<g id="surface2081">
<path style="fill:none;stroke-width:8;stroke-linecap:round;stroke-linejoin:miter;stroke:rgb(20%,20%,20%);stroke-opacity:1;stroke-miterlimit:10;" d="M 30 83 L 130 43 "/>
<path style="fill:none;stroke-width:8;stroke-linecap:round;stroke-linejoin:miter;stroke:rgb(20%,20%,20%);stroke-opacity:1;stroke-miterlimit:10;" d="M 14 135 L 130 19 "/>
<path style=" stroke:none;fill-rule:nonzero;fill:rgb(79.6%,23.5%,20%);fill-opacity:1;" d="M 93 119 C 93 128.390625 85.390625 136 76 136 C 66.609375 136 59 128.390625 59 119 C 59 109.609375 66.609375 102 76 102 C 85.390625 102 93 109.609375 93 119 "/>
<path style=" stroke:none;fill-rule:nonzero;fill:rgb(22%,59.6%,14.9%);fill-opacity:1;" d="M 133 79 C 133 88.390625 125.390625 96 116 96 C 106.609375 96 99 88.390625 99 79 C 99 69.609375 106.609375 62 116 62 C 125.390625 62 133 69.609375 133 79 "/>
<path style=" stroke:none;fill-rule:nonzero;fill:rgb(58.4%,34.5%,69.8%);fill-opacity:1;" d="M 133 119 C 133 128.390625 125.390625 136 116 136 C 106.609375 136 99 128.390625 99 119 C 99 109.609375 106.609375 102 116 102 C 125.390625 102 133 109.609375 133 119 "/>
<path style=" stroke:none;fill-rule:nonzero;fill:rgb(20%,20%,20%);fill-opacity:1;" d="M 182.019531 65.789062 L 194.769531 65.789062 L 194.769531 108.617188 C 194.769531 112.480469 195.058594 116.328125 194.117188 120.117188 C 193.023438 124.714844 190.273438 128.746094 186.398438 131.449219 C 183.707031 133.324219 180.589844 134.5 177.328125 134.867188 C 166.824219 136.054688 156.996094 129.070312 154.65625 118.757812 L 167.039062 115.597656 C 167.632812 118.363281 169.574219 120.65625 172.207031 121.6875 C 173.378906 122.125 174.636719 122.277344 175.878906 122.140625 C 177.023438 122.019531 178.121094 121.621094 179.078125 120.980469 C 181.847656 119.050781 182.019531 115.640625 182.019531 112.640625 Z M 208.476562 65.789062 L 220.996094 65.789062 L 220.996094 89.597656 C 220.996094 94.210938 221.308594 97.4375 221.949219 99.230469 C 222.503906 100.910156 223.574219 102.378906 225.007812 103.417969 C 226.539062 104.460938 228.359375 104.988281 230.207031 104.929688 C 232.0625 104.980469 233.890625 104.46875 235.449219 103.460938 C 236.949219 102.390625 238.070312 100.867188 238.648438 99.117188 C 239.15625 97.699219 239.40625 94.660156 239.40625 90 L 239.40625 65.820312 L 251.839844 65.820312 L 251.839844 86.738281 C 251.839844 95.347656 251.148438 101.257812 249.839844 104.429688 C 248.363281 108.078125 245.800781 111.183594 242.496094 113.328125 C 239.257812 115.402344 235.144531 116.4375 230.15625 116.4375 C 224.738281 116.4375 220.363281 115.234375 217.027344 112.820312 C 213.628906 110.3125 211.148438 106.753906 209.96875 102.699219 C 209.027344 99.699219 208.519531 94.257812 208.519531 86.378906 Z M 323.277344 132.460938 L 335.867188 132.460938 L 335.867188 65.777344 L 321.46875 65.777344 L 300.578125 94.449219 L 279.6875 65.777344 L 265.1875 65.777344 L 265.1875 132.460938 L 277.777344 132.460938 L 277.777344 83.96875 L 299.046875 113.027344 L 301.527344 113.027344 L 323.277344 84.058594 Z M 347.347656 65.789062 L 360.808594 65.789062 C 368.140625 65.789062 373.394531 66.457031 376.566406 67.789062 C 379.746094 69.09375 382.421875 71.386719 384.199219 74.328125 C 386.121094 77.597656 387.089844 81.339844 386.988281 85.128906 C 387.136719 89.300781 385.847656 93.402344 383.339844 96.738281 C 380.824219 99.921875 377.347656 102.203125 373.429688 103.25 C 370.988281 103.914062 366.53125 104.25 360.058594 104.25 L 360.058594 132.507812 L 347.347656 132.507812 Z M 360.058594 91.867188 L 364.058594 91.867188 C 366.289062 91.972656 368.523438 91.746094 370.6875 91.1875 C 371.878906 90.777344 372.902344 89.984375 373.609375 88.9375 C 374.347656 87.816406 374.71875 86.492188 374.679688 85.148438 C 374.816406 82.863281 373.652344 80.6875 371.679688 79.527344 C 370.257812 78.660156 367.566406 78.25 363.628906 78.25 L 360.058594 78.25 Z M 360.058594 91.867188 "/>
</g>
</svg>
