<?xml version="1.0" encoding="UTF-8"?>
<svg xmlns="http://www.w3.org/2000/svg" xmlns:xlink="http://www.w3.org/1999/xlink" width="200pt" height="200pt" viewBox="0 0 200 200" version="1.1">
<g id="surface2111">
<path style="fill:none;stroke-width:8;stroke-linecap:round;stroke-linejoin:miter;stroke:rgb(100%,100%,93.333333%);stroke-opacity:1;stroke-miterlimit:10;" d="M 55 73 L 155 33 "/>
<path style="fill:none;stroke-width:8;stroke-linecap:round;stroke-linejoin:miter;stroke:rgb(100%,100%,93.333333%);stroke-opacity:1;stroke-miterlimit:10;" d="M 39 125 L 155 9 "/>
<path style=" stroke:none;fill-rule:nonzero;fill:rgb(79.6%,23.5%,20%);fill-opacity:1;" d="M 118 109 C 118 118.390625 110.390625 126 101 126 C 91.609375 126 84 118.390625 84 109 C 84 99.609375 91.609375 92 101 92 C 110.390625 92 118 99.609375 118 109 "/>
<path style=" stroke:none;fill-rule:nonzero;fill:rgb(22%,59.6%,14.9%);fill-opacity:1;" d="M 158 69 C 158 78.390625 150.390625 86 141 86 C 131.609375 86 124 78.390625 124 69 C 124 59.609375 131.609375 52 141 52 C 150.390625 52 158 59.609375 158 69 "/>
<path style=" stroke:none;fill-rule:nonzero;fill:rgb(58.4%,34.5%,69.8%);fill-opacity:1;" d="M 158 109 C 158 118.390625 150.390625 126 141 126 C 131.609375 126 124 118.390625 124 109 C 124 99.609375 131.609375 92 141 92 C 150.390625 92 158 99.609375 158 109 "/>
<path style=" stroke:none;fill-rule:nonzero;fill:rgb(100%,100%,93.333333%);fill-opacity:1;" d="M 26.535156 140.296875 L 36.480469 140.296875 L 36.480469 173.703125 C 36.480469 176.714844 36.707031 179.714844 35.972656 182.671875 C 35.117188 186.257812 32.972656 189.402344 29.949219 191.511719 C 27.851562 192.972656 25.417969 193.890625 22.875 194.179688 C 14.683594 195.101562 7.015625 189.65625 5.191406 181.613281 L 14.851562 179.148438 C 15.3125 181.304688 16.828125 183.089844 18.882812 183.898438 C 19.796875 184.238281 20.777344 184.355469 21.746094 184.25 C 22.636719 184.152344 23.496094 183.84375 24.242188 183.34375 C 26.402344 181.839844 26.535156 179.179688 26.535156 176.839844 Z M 47.171875 140.296875 L 56.9375 140.296875 L 56.9375 158.867188 C 56.9375 162.464844 57.179688 164.980469 57.679688 166.378906 C 58.113281 167.691406 58.949219 168.835938 60.066406 169.648438 C 61.257812 170.457031 62.679688 170.871094 64.121094 170.824219 C 65.570312 170.867188 66.996094 170.464844 68.210938 169.679688 C 69.378906 168.84375 70.253906 167.65625 70.707031 166.292969 C 71.101562 165.183594 71.296875 162.8125 71.296875 159.179688 L 71.296875 140.320312 L 80.992188 140.320312 L 80.992188 156.636719 C 80.992188 163.351562 80.457031 167.960938 79.433594 170.433594 C 78.28125 173.28125 76.285156 175.703125 73.707031 177.375 C 71.179688 178.996094 67.972656 179.800781 64.082031 179.800781 C 59.855469 179.800781 56.441406 178.863281 53.84375 176.980469 C 51.191406 175.023438 49.257812 172.25 48.335938 169.085938 C 47.601562 166.746094 47.203125 162.503906 47.203125 156.355469 Z M 136.71875 192.296875 L 146.535156 192.296875 L 146.535156 140.289062 L 135.304688 140.289062 L 119.011719 162.648438 L 102.714844 140.289062 L 91.40625 140.289062 L 91.40625 192.296875 L 101.226562 192.296875 L 101.226562 154.476562 L 117.816406 177.144531 L 119.75 177.144531 L 136.71875 154.546875 Z M 155.492188 140.296875 L 165.992188 140.296875 C 171.710938 140.296875 175.808594 140.816406 178.28125 141.855469 C 180.761719 142.871094 182.851562 144.660156 184.234375 146.957031 C 185.734375 149.503906 186.488281 152.425781 186.410156 155.378906 C 186.527344 158.636719 185.519531 161.832031 183.5625 164.4375 C 181.601562 166.917969 178.890625 168.699219 175.832031 169.515625 C 173.929688 170.035156 170.453125 170.292969 165.40625 170.292969 L 165.40625 192.335938 L 155.492188 192.335938 Z M 165.40625 160.636719 L 168.523438 160.636719 C 170.265625 160.71875 172.007812 160.542969 173.695312 160.105469 C 174.625 159.785156 175.425781 159.167969 175.972656 158.351562 C 176.550781 157.476562 176.839844 156.445312 176.808594 155.394531 C 176.914062 153.613281 176.007812 151.914062 174.46875 151.011719 C 173.359375 150.335938 171.261719 150.015625 168.191406 150.015625 L 165.40625 150.015625 Z M 165.40625 160.636719 "/>
</g>
</svg>
