<svg xmlns="http://www.w3.org/2000/svg" width="500pt" height="500pt" viewBox="0 0 500 500">
<path d="M140 179.602l220-88M104.8 294L360 38.8" fill="none" stroke-width="12" stroke-linecap="round" stroke="#ffe" stroke-miterlimit="10"/>
<path d="M278.602 258.8c0 20.657-16.747 37.4-37.403 37.4s-37.398-16.743-37.398-37.4c0-20.655 16.742-37.402 37.398-37.402 20.656 0 37.403 16.747 37.403 37.403" fill="#cb3c33"/>
<path d="M366.602 170.8c0 20.657-16.747 37.4-37.403 37.4s-37.398-16.743-37.398-37.4c0-20.655 16.742-37.402 37.398-37.402 20.656 0 37.403 16.747 37.403 37.403" fill="#389826"/>
<path d="M366.602 258.8c0 20.657-16.747 37.4-37.403 37.4s-37.398-16.743-37.398-37.4c0-20.655 16.742-37.402 37.398-37.402 20.656 0 37.403 16.747 37.403 37.403" fill="#9558b2"/>
<path d="M100.871 338.95h22.442v75.378c0 6.793.507 13.57-1.145 20.242a33.905 33.905 0 01-13.586 19.942 34.765 34.765 0 01-15.965 6.02c-18.488 2.081-35.785-10.208-39.898-28.356l21.789-5.563a14.876 14.876 0 009.097 10.719 14.053 14.053 0 006.461.793 12.488 12.488 0 005.633-2.043c4.875-3.394 5.172-9.398 5.172-14.676zm46.57 0h22.036v41.905c0 8.114.546 13.797 1.671 16.95a14.89 14.89 0 005.387 7.37 15.415 15.415 0 009.153 2.66c3.261.095 6.48-.808 9.222-2.589a15.273 15.273 0 005.63-7.637c.894-2.5 1.339-7.847 1.339-16.05V339h21.875v36.82c0 15.153-1.215 25.555-3.52 31.133a33.794 33.794 0 01-12.918 15.664c-5.703 3.653-12.941 5.477-21.718 5.477-9.54 0-17.243-2.125-23.11-6.371a33.935 33.935 0 01-12.425-17.813c-1.653-5.281-2.551-14.855-2.551-28.723zm202.047 117.34h22.16V338.93h-25.343l-36.766 50.46-36.77-50.46H247.25v117.36h22.16v-85.345l37.434 51.145h4.367l38.277-50.985zm42.364-117.34h23.691c12.906 0 22.152 1.171 27.738 3.519a28.163 28.163 0 0113.426 11.511 35.531 35.531 0 014.91 19.008 32.075 32.075 0 01-6.422 20.434 33.127 33.127 0 01-17.441 11.457c-4.297 1.172-12.14 1.758-23.531 1.758v49.738h-22.371zm22.37 45.898h7.04c3.93.187 7.86-.215 11.668-1.196a10.224 10.224 0 005.14-3.96 11.5 11.5 0 001.883-6.669 10.728 10.728 0 00-5.281-9.89c-2.496-1.531-7.23-2.254-14.168-2.254h-6.281zm0 0" fill="#ffe"/>
</svg>
