<?xml version="1.0" encoding="utf-8"?>
<svg xmlns="http://www.w3.org/2000/svg" xmlns:xlink="http://www.w3.org/1999/xlink" width="600" height="400" viewBox="0 0 2400 1600">
<defs>
  <clipPath id="clip640">
    <rect x="0" y="0" width="2400" height="1600"/>
  </clipPath>
</defs>
<path clip-path="url(#clip640)" d="M0 1600 L2400 1600 L2400 0 L0 0  Z" fill="#ffffff" fill-rule="evenodd" fill-opacity="1"/>
<defs>
  <clipPath id="clip641">
    <rect x="480" y="0" width="1681" height="1600"/>
  </clipPath>
</defs>
<path clip-path="url(#clip640)" d="M141.853 1486.45 L2352.76 1486.45 L2352.76 47.2441 L141.853 47.2441  Z" fill="#ffffff" fill-rule="evenodd" fill-opacity="1"/>
<defs>
  <clipPath id="clip642">
    <rect x="141" y="47" width="2212" height="1440"/>
  </clipPath>
</defs>
<polyline clip-path="url(#clip642)" style="stroke:#000000; stroke-linecap:round; stroke-linejoin:round; stroke-width:2; stroke-opacity:0.1; fill:none" points="427.431,1486.45 427.431,47.2441 "/>
<polyline clip-path="url(#clip642)" style="stroke:#000000; stroke-linecap:round; stroke-linejoin:round; stroke-width:2; stroke-opacity:0.1; fill:none" points="755.38,1486.45 755.38,47.2441 "/>
<polyline clip-path="url(#clip642)" style="stroke:#000000; stroke-linecap:round; stroke-linejoin:round; stroke-width:2; stroke-opacity:0.1; fill:none" points="1083.33,1486.45 1083.33,47.2441 "/>
<polyline clip-path="url(#clip642)" style="stroke:#000000; stroke-linecap:round; stroke-linejoin:round; stroke-width:2; stroke-opacity:0.1; fill:none" points="1411.28,1486.45 1411.28,47.2441 "/>
<polyline clip-path="url(#clip642)" style="stroke:#000000; stroke-linecap:round; stroke-linejoin:round; stroke-width:2; stroke-opacity:0.1; fill:none" points="1739.23,1486.45 1739.23,47.2441 "/>
<polyline clip-path="url(#clip642)" style="stroke:#000000; stroke-linecap:round; stroke-linejoin:round; stroke-width:2; stroke-opacity:0.1; fill:none" points="2067.18,1486.45 2067.18,47.2441 "/>
<polyline clip-path="url(#clip642)" style="stroke:#000000; stroke-linecap:round; stroke-linejoin:round; stroke-width:2; stroke-opacity:0.1; fill:none" points="141.853,1486.45 2352.76,1486.45 "/>
<polyline clip-path="url(#clip642)" style="stroke:#000000; stroke-linecap:round; stroke-linejoin:round; stroke-width:2; stroke-opacity:0.1; fill:none" points="141.853,1139.65 2352.76,1139.65 "/>
<polyline clip-path="url(#clip642)" style="stroke:#000000; stroke-linecap:round; stroke-linejoin:round; stroke-width:2; stroke-opacity:0.1; fill:none" points="141.853,792.856 2352.76,792.856 "/>
<polyline clip-path="url(#clip642)" style="stroke:#000000; stroke-linecap:round; stroke-linejoin:round; stroke-width:2; stroke-opacity:0.1; fill:none" points="141.853,446.06 2352.76,446.06 "/>
<polyline clip-path="url(#clip642)" style="stroke:#000000; stroke-linecap:round; stroke-linejoin:round; stroke-width:2; stroke-opacity:0.1; fill:none" points="141.853,99.2635 2352.76,99.2635 "/>
<polyline clip-path="url(#clip640)" style="stroke:#000000; stroke-linecap:round; stroke-linejoin:round; stroke-width:4; stroke-opacity:1; fill:none" points="141.853,1486.45 2352.76,1486.45 "/>
<polyline clip-path="url(#clip640)" style="stroke:#000000; stroke-linecap:round; stroke-linejoin:round; stroke-width:4; stroke-opacity:1; fill:none" points="427.431,1486.45 427.431,1467.55 "/>
<polyline clip-path="url(#clip640)" style="stroke:#000000; stroke-linecap:round; stroke-linejoin:round; stroke-width:4; stroke-opacity:1; fill:none" points="755.38,1486.45 755.38,1467.55 "/>
<polyline clip-path="url(#clip640)" style="stroke:#000000; stroke-linecap:round; stroke-linejoin:round; stroke-width:4; stroke-opacity:1; fill:none" points="1083.33,1486.45 1083.33,1467.55 "/>
<polyline clip-path="url(#clip640)" style="stroke:#000000; stroke-linecap:round; stroke-linejoin:round; stroke-width:4; stroke-opacity:1; fill:none" points="1411.28,1486.45 1411.28,1467.55 "/>
<polyline clip-path="url(#clip640)" style="stroke:#000000; stroke-linecap:round; stroke-linejoin:round; stroke-width:4; stroke-opacity:1; fill:none" points="1739.23,1486.45 1739.23,1467.55 "/>
<polyline clip-path="url(#clip640)" style="stroke:#000000; stroke-linecap:round; stroke-linejoin:round; stroke-width:4; stroke-opacity:1; fill:none" points="2067.18,1486.45 2067.18,1467.55 "/>
<path clip-path="url(#clip640)" d="M401.193 1530.21 Q404.549 1530.93 406.424 1533.2 Q408.322 1535.47 408.322 1538.8 Q408.322 1543.92 404.804 1546.72 Q401.285 1549.52 394.804 1549.52 Q392.628 1549.52 390.313 1549.08 Q388.022 1548.66 385.568 1547.81 L385.568 1543.29 Q387.512 1544.43 389.827 1545.01 Q392.142 1545.58 394.665 1545.58 Q399.063 1545.58 401.355 1543.85 Q403.67 1542.11 403.67 1538.8 Q403.67 1535.75 401.517 1534.03 Q399.387 1532.3 395.568 1532.3 L391.54 1532.3 L391.54 1528.45 L395.753 1528.45 Q399.202 1528.45 401.031 1527.09 Q402.86 1525.7 402.86 1523.11 Q402.86 1520.45 400.961 1519.03 Q399.086 1517.6 395.568 1517.6 Q393.647 1517.6 391.448 1518.01 Q389.249 1518.43 386.61 1519.31 L386.61 1515.14 Q389.272 1514.4 391.586 1514.03 Q393.924 1513.66 395.985 1513.66 Q401.309 1513.66 404.41 1516.09 Q407.512 1518.5 407.512 1522.62 Q407.512 1525.49 405.869 1527.48 Q404.225 1529.45 401.193 1530.21 Z" fill="#000000" fill-rule="nonzero" fill-opacity="1" /><path clip-path="url(#clip640)" d="M417.234 1514.29 L435.591 1514.29 L435.591 1518.22 L421.517 1518.22 L421.517 1526.7 Q422.535 1526.35 423.554 1526.19 Q424.572 1526 425.591 1526 Q431.378 1526 434.758 1529.17 Q438.137 1532.34 438.137 1537.76 Q438.137 1543.34 434.665 1546.44 Q431.193 1549.52 424.873 1549.52 Q422.697 1549.52 420.429 1549.15 Q418.184 1548.78 415.776 1548.04 L415.776 1543.34 Q417.859 1544.47 420.082 1545.03 Q422.304 1545.58 424.781 1545.58 Q428.785 1545.58 431.123 1543.48 Q433.461 1541.37 433.461 1537.76 Q433.461 1534.15 431.123 1532.04 Q428.785 1529.94 424.781 1529.94 Q422.906 1529.94 421.031 1530.35 Q419.179 1530.77 417.234 1531.65 L417.234 1514.29 Z" fill="#000000" fill-rule="nonzero" fill-opacity="1" /><path clip-path="url(#clip640)" d="M457.35 1517.37 Q453.739 1517.37 451.91 1520.93 Q450.105 1524.47 450.105 1531.6 Q450.105 1538.71 451.91 1542.27 Q453.739 1545.82 457.35 1545.82 Q460.984 1545.82 462.79 1542.27 Q464.618 1538.71 464.618 1531.6 Q464.618 1524.47 462.79 1520.93 Q460.984 1517.37 457.35 1517.37 M457.35 1513.66 Q463.16 1513.66 466.216 1518.27 Q469.294 1522.85 469.294 1531.6 Q469.294 1540.33 466.216 1544.94 Q463.16 1549.52 457.35 1549.52 Q451.54 1549.52 448.461 1544.94 Q445.406 1540.33 445.406 1531.6 Q445.406 1522.85 448.461 1518.27 Q451.54 1513.66 457.35 1513.66 Z" fill="#000000" fill-rule="nonzero" fill-opacity="1" /><path clip-path="url(#clip640)" d="M728.471 1518.36 L716.665 1536.81 L728.471 1536.81 L728.471 1518.36 M727.244 1514.29 L733.124 1514.29 L733.124 1536.81 L738.054 1536.81 L738.054 1540.7 L733.124 1540.7 L733.124 1548.85 L728.471 1548.85 L728.471 1540.7 L712.869 1540.7 L712.869 1536.19 L727.244 1514.29 Z" fill="#000000" fill-rule="nonzero" fill-opacity="1" /><path clip-path="url(#clip640)" d="M755.786 1517.37 Q752.174 1517.37 750.346 1520.93 Q748.54 1524.47 748.54 1531.6 Q748.54 1538.71 750.346 1542.27 Q752.174 1545.82 755.786 1545.82 Q759.42 1545.82 761.225 1542.27 Q763.054 1538.71 763.054 1531.6 Q763.054 1524.47 761.225 1520.93 Q759.42 1517.37 755.786 1517.37 M755.786 1513.66 Q761.596 1513.66 764.651 1518.27 Q767.73 1522.85 767.73 1531.6 Q767.73 1540.33 764.651 1544.94 Q761.596 1549.52 755.786 1549.52 Q749.975 1549.52 746.897 1544.94 Q743.841 1540.33 743.841 1531.6 Q743.841 1522.85 746.897 1518.27 Q749.975 1513.66 755.786 1513.66 Z" fill="#000000" fill-rule="nonzero" fill-opacity="1" /><path clip-path="url(#clip640)" d="M785.947 1517.37 Q782.336 1517.37 780.508 1520.93 Q778.702 1524.47 778.702 1531.6 Q778.702 1538.71 780.508 1542.27 Q782.336 1545.82 785.947 1545.82 Q789.582 1545.82 791.387 1542.27 Q793.216 1538.71 793.216 1531.6 Q793.216 1524.47 791.387 1520.93 Q789.582 1517.37 785.947 1517.37 M785.947 1513.66 Q791.758 1513.66 794.813 1518.27 Q797.892 1522.85 797.892 1531.6 Q797.892 1540.33 794.813 1544.94 Q791.758 1549.52 785.947 1549.52 Q780.137 1549.52 777.059 1544.94 Q774.003 1540.33 774.003 1531.6 Q774.003 1522.85 777.059 1518.27 Q780.137 1513.66 785.947 1513.66 Z" fill="#000000" fill-rule="nonzero" fill-opacity="1" /><path clip-path="url(#clip640)" d="M1056.42 1518.36 L1044.61 1536.81 L1056.42 1536.81 L1056.42 1518.36 M1055.19 1514.29 L1061.07 1514.29 L1061.07 1536.81 L1066 1536.81 L1066 1540.7 L1061.07 1540.7 L1061.07 1548.85 L1056.42 1548.85 L1056.42 1540.7 L1040.82 1540.7 L1040.82 1536.19 L1055.19 1514.29 Z" fill="#000000" fill-rule="nonzero" fill-opacity="1" /><path clip-path="url(#clip640)" d="M1073.78 1514.29 L1092.14 1514.29 L1092.14 1518.22 L1078.06 1518.22 L1078.06 1526.7 Q1079.08 1526.35 1080.1 1526.19 Q1081.12 1526 1082.14 1526 Q1087.92 1526 1091.3 1529.17 Q1094.68 1532.34 1094.68 1537.76 Q1094.68 1543.34 1091.21 1546.44 Q1087.74 1549.52 1081.42 1549.52 Q1079.24 1549.52 1076.98 1549.15 Q1074.73 1548.78 1072.32 1548.04 L1072.32 1543.34 Q1074.41 1544.47 1076.63 1545.03 Q1078.85 1545.58 1081.33 1545.58 Q1085.33 1545.58 1087.67 1543.48 Q1090.01 1541.37 1090.01 1537.76 Q1090.01 1534.15 1087.67 1532.04 Q1085.33 1529.94 1081.33 1529.94 Q1079.45 1529.94 1077.58 1530.35 Q1075.73 1530.77 1073.78 1531.65 L1073.78 1514.29 Z" fill="#000000" fill-rule="nonzero" fill-opacity="1" /><path clip-path="url(#clip640)" d="M1113.9 1517.37 Q1110.29 1517.37 1108.46 1520.93 Q1106.65 1524.47 1106.65 1531.6 Q1106.65 1538.71 1108.46 1542.27 Q1110.29 1545.82 1113.9 1545.82 Q1117.53 1545.82 1119.34 1542.27 Q1121.17 1538.71 1121.17 1531.6 Q1121.17 1524.47 1119.34 1520.93 Q1117.53 1517.37 1113.9 1517.37 M1113.9 1513.66 Q1119.71 1513.66 1122.76 1518.27 Q1125.84 1522.85 1125.84 1531.6 Q1125.84 1540.33 1122.76 1544.94 Q1119.71 1549.52 1113.9 1549.52 Q1108.09 1549.52 1105.01 1544.94 Q1101.95 1540.33 1101.95 1531.6 Q1101.95 1522.85 1105.01 1518.27 Q1108.09 1513.66 1113.9 1513.66 Z" fill="#000000" fill-rule="nonzero" fill-opacity="1" /><path clip-path="url(#clip640)" d="M1370.9 1514.29 L1389.25 1514.29 L1389.25 1518.22 L1375.18 1518.22 L1375.18 1526.7 Q1376.2 1526.35 1377.22 1526.19 Q1378.24 1526 1379.25 1526 Q1385.04 1526 1388.42 1529.17 Q1391.8 1532.34 1391.8 1537.76 Q1391.8 1543.34 1388.33 1546.44 Q1384.86 1549.52 1378.54 1549.52 Q1376.36 1549.52 1374.09 1549.15 Q1371.85 1548.78 1369.44 1548.04 L1369.44 1543.34 Q1371.52 1544.47 1373.74 1545.03 Q1375.97 1545.58 1378.44 1545.58 Q1382.45 1545.58 1384.79 1543.48 Q1387.12 1541.37 1387.12 1537.76 Q1387.12 1534.15 1384.79 1532.04 Q1382.45 1529.94 1378.44 1529.94 Q1376.57 1529.94 1374.69 1530.35 Q1372.84 1530.77 1370.9 1531.65 L1370.9 1514.29 Z" fill="#000000" fill-rule="nonzero" fill-opacity="1" /><path clip-path="url(#clip640)" d="M1411.01 1517.37 Q1407.4 1517.37 1405.57 1520.93 Q1403.77 1524.47 1403.77 1531.6 Q1403.77 1538.71 1405.57 1542.27 Q1407.4 1545.82 1411.01 1545.82 Q1414.65 1545.82 1416.45 1542.27 Q1418.28 1538.71 1418.28 1531.6 Q1418.28 1524.47 1416.45 1520.93 Q1414.65 1517.37 1411.01 1517.37 M1411.01 1513.66 Q1416.82 1513.66 1419.88 1518.27 Q1422.96 1522.85 1422.96 1531.6 Q1422.96 1540.33 1419.88 1544.94 Q1416.82 1549.52 1411.01 1549.52 Q1405.2 1549.52 1402.12 1544.94 Q1399.07 1540.33 1399.07 1531.6 Q1399.07 1522.85 1402.12 1518.27 Q1405.2 1513.66 1411.01 1513.66 Z" fill="#000000" fill-rule="nonzero" fill-opacity="1" /><path clip-path="url(#clip640)" d="M1441.17 1517.37 Q1437.56 1517.37 1435.73 1520.93 Q1433.93 1524.47 1433.93 1531.6 Q1433.93 1538.71 1435.73 1542.27 Q1437.56 1545.82 1441.17 1545.82 Q1444.81 1545.82 1446.61 1542.27 Q1448.44 1538.71 1448.44 1531.6 Q1448.44 1524.47 1446.61 1520.93 Q1444.81 1517.37 1441.17 1517.37 M1441.17 1513.66 Q1446.98 1513.66 1450.04 1518.27 Q1453.12 1522.85 1453.12 1531.6 Q1453.12 1540.33 1450.04 1544.94 Q1446.98 1549.52 1441.17 1549.52 Q1435.36 1549.52 1432.29 1544.94 Q1429.23 1540.33 1429.23 1531.6 Q1429.23 1522.85 1432.29 1518.27 Q1435.36 1513.66 1441.17 1513.66 Z" fill="#000000" fill-rule="nonzero" fill-opacity="1" /><path clip-path="url(#clip640)" d="M1698.85 1514.29 L1717.2 1514.29 L1717.2 1518.22 L1703.13 1518.22 L1703.13 1526.7 Q1704.15 1526.35 1705.17 1526.19 Q1706.18 1526 1707.2 1526 Q1712.99 1526 1716.37 1529.17 Q1719.75 1532.34 1719.75 1537.76 Q1719.75 1543.34 1716.28 1546.44 Q1712.8 1549.52 1706.49 1549.52 Q1704.31 1549.52 1702.04 1549.15 Q1699.8 1548.78 1697.39 1548.04 L1697.39 1543.34 Q1699.47 1544.47 1701.69 1545.03 Q1703.92 1545.58 1706.39 1545.58 Q1710.4 1545.58 1712.74 1543.48 Q1715.07 1541.37 1715.07 1537.76 Q1715.07 1534.15 1712.74 1532.04 Q1710.4 1529.94 1706.39 1529.94 Q1704.52 1529.94 1702.64 1530.35 Q1700.79 1530.77 1698.85 1531.65 L1698.85 1514.29 Z" fill="#000000" fill-rule="nonzero" fill-opacity="1" /><path clip-path="url(#clip640)" d="M1729.01 1514.29 L1747.36 1514.29 L1747.36 1518.22 L1733.29 1518.22 L1733.29 1526.7 Q1734.31 1526.35 1735.33 1526.19 Q1736.35 1526 1737.36 1526 Q1743.15 1526 1746.53 1529.17 Q1749.91 1532.34 1749.91 1537.76 Q1749.91 1543.34 1746.44 1546.44 Q1742.97 1549.52 1736.65 1549.52 Q1734.47 1549.52 1732.2 1549.15 Q1729.96 1548.78 1727.55 1548.04 L1727.55 1543.34 Q1729.63 1544.47 1731.86 1545.03 Q1734.08 1545.58 1736.55 1545.58 Q1740.56 1545.58 1742.9 1543.48 Q1745.24 1541.37 1745.24 1537.76 Q1745.24 1534.15 1742.9 1532.04 Q1740.56 1529.94 1736.55 1529.94 Q1734.68 1529.94 1732.8 1530.35 Q1730.95 1530.77 1729.01 1531.65 L1729.01 1514.29 Z" fill="#000000" fill-rule="nonzero" fill-opacity="1" /><path clip-path="url(#clip640)" d="M1769.12 1517.37 Q1765.51 1517.37 1763.68 1520.93 Q1761.88 1524.47 1761.88 1531.6 Q1761.88 1538.71 1763.68 1542.27 Q1765.51 1545.82 1769.12 1545.82 Q1772.76 1545.82 1774.56 1542.27 Q1776.39 1538.71 1776.39 1531.6 Q1776.39 1524.47 1774.56 1520.93 Q1772.76 1517.37 1769.12 1517.37 M1769.12 1513.66 Q1774.93 1513.66 1777.99 1518.27 Q1781.07 1522.85 1781.07 1531.6 Q1781.07 1540.33 1777.99 1544.94 Q1774.93 1549.52 1769.12 1549.52 Q1763.31 1549.52 1760.24 1544.94 Q1757.18 1540.33 1757.18 1531.6 Q1757.18 1522.85 1760.24 1518.27 Q1763.31 1513.66 1769.12 1513.66 Z" fill="#000000" fill-rule="nonzero" fill-opacity="1" /><path clip-path="url(#clip640)" d="M2037.5 1529.7 Q2034.35 1529.7 2032.5 1531.86 Q2030.67 1534.01 2030.67 1537.76 Q2030.67 1541.49 2032.5 1543.66 Q2034.35 1545.82 2037.5 1545.82 Q2040.65 1545.82 2042.48 1543.66 Q2044.33 1541.49 2044.33 1537.76 Q2044.33 1534.01 2042.48 1531.86 Q2040.65 1529.7 2037.5 1529.7 M2046.78 1515.05 L2046.78 1519.31 Q2045.03 1518.48 2043.22 1518.04 Q2041.44 1517.6 2039.68 1517.6 Q2035.05 1517.6 2032.59 1520.72 Q2030.16 1523.85 2029.82 1530.17 Q2031.18 1528.15 2033.24 1527.09 Q2035.3 1526 2037.78 1526 Q2042.99 1526 2046 1529.17 Q2049.03 1532.32 2049.03 1537.76 Q2049.03 1543.08 2045.88 1546.3 Q2042.73 1549.52 2037.5 1549.52 Q2031.51 1549.52 2028.34 1544.94 Q2025.16 1540.33 2025.16 1531.6 Q2025.16 1523.41 2029.05 1518.55 Q2032.94 1513.66 2039.49 1513.66 Q2041.25 1513.66 2043.03 1514.01 Q2044.84 1514.36 2046.78 1515.05 Z" fill="#000000" fill-rule="nonzero" fill-opacity="1" /><path clip-path="url(#clip640)" d="M2067.09 1517.37 Q2063.47 1517.37 2061.65 1520.93 Q2059.84 1524.47 2059.84 1531.6 Q2059.84 1538.71 2061.65 1542.27 Q2063.47 1545.82 2067.09 1545.82 Q2070.72 1545.82 2072.52 1542.27 Q2074.35 1538.71 2074.35 1531.6 Q2074.35 1524.47 2072.52 1520.93 Q2070.72 1517.37 2067.09 1517.37 M2067.09 1513.66 Q2072.9 1513.66 2075.95 1518.27 Q2079.03 1522.85 2079.03 1531.6 Q2079.03 1540.33 2075.95 1544.94 Q2072.9 1549.52 2067.09 1549.52 Q2061.27 1549.52 2058.2 1544.94 Q2055.14 1540.33 2055.14 1531.6 Q2055.14 1522.85 2058.2 1518.27 Q2061.27 1513.66 2067.09 1513.66 Z" fill="#000000" fill-rule="nonzero" fill-opacity="1" /><path clip-path="url(#clip640)" d="M2097.25 1517.37 Q2093.64 1517.37 2091.81 1520.93 Q2090 1524.47 2090 1531.6 Q2090 1538.71 2091.81 1542.27 Q2093.64 1545.82 2097.25 1545.82 Q2100.88 1545.82 2102.69 1542.27 Q2104.52 1538.71 2104.52 1531.6 Q2104.52 1524.47 2102.69 1520.93 Q2100.88 1517.37 2097.25 1517.37 M2097.25 1513.66 Q2103.06 1513.66 2106.11 1518.27 Q2109.19 1522.85 2109.19 1531.6 Q2109.19 1540.33 2106.11 1544.94 Q2103.06 1549.52 2097.25 1549.52 Q2091.44 1549.52 2088.36 1544.94 Q2085.3 1540.33 2085.3 1531.6 Q2085.3 1522.85 2088.36 1518.27 Q2091.44 1513.66 2097.25 1513.66 Z" fill="#000000" fill-rule="nonzero" fill-opacity="1" /><polyline clip-path="url(#clip640)" style="stroke:#000000; stroke-linecap:round; stroke-linejoin:round; stroke-width:4; stroke-opacity:1; fill:none" points="141.853,1486.45 141.853,47.2441 "/>
<polyline clip-path="url(#clip640)" style="stroke:#000000; stroke-linecap:round; stroke-linejoin:round; stroke-width:4; stroke-opacity:1; fill:none" points="141.853,1486.45 160.751,1486.45 "/>
<polyline clip-path="url(#clip640)" style="stroke:#000000; stroke-linecap:round; stroke-linejoin:round; stroke-width:4; stroke-opacity:1; fill:none" points="141.853,1139.65 160.751,1139.65 "/>
<polyline clip-path="url(#clip640)" style="stroke:#000000; stroke-linecap:round; stroke-linejoin:round; stroke-width:4; stroke-opacity:1; fill:none" points="141.853,792.856 160.751,792.856 "/>
<polyline clip-path="url(#clip640)" style="stroke:#000000; stroke-linecap:round; stroke-linejoin:round; stroke-width:4; stroke-opacity:1; fill:none" points="141.853,446.06 160.751,446.06 "/>
<polyline clip-path="url(#clip640)" style="stroke:#000000; stroke-linecap:round; stroke-linejoin:round; stroke-width:4; stroke-opacity:1; fill:none" points="141.853,99.2635 160.751,99.2635 "/>
<path clip-path="url(#clip640)" d="M93.9086 1472.25 Q90.2975 1472.25 88.4688 1475.81 Q86.6632 1479.35 86.6632 1486.48 Q86.6632 1493.59 88.4688 1497.15 Q90.2975 1500.7 93.9086 1500.7 Q97.5428 1500.7 99.3483 1497.15 Q101.177 1493.59 101.177 1486.48 Q101.177 1479.35 99.3483 1475.81 Q97.5428 1472.25 93.9086 1472.25 M93.9086 1468.54 Q99.7187 1468.54 102.774 1473.15 Q105.853 1477.73 105.853 1486.48 Q105.853 1495.21 102.774 1499.82 Q99.7187 1504.4 93.9086 1504.4 Q88.0984 1504.4 85.0197 1499.82 Q81.9642 1495.21 81.9642 1486.48 Q81.9642 1477.73 85.0197 1473.15 Q88.0984 1468.54 93.9086 1468.54 Z" fill="#000000" fill-rule="nonzero" fill-opacity="1" /><path clip-path="url(#clip640)" d="M57.7745 1153 L74.0939 1153 L74.0939 1156.93 L52.1495 1156.93 L52.1495 1153 Q54.8115 1150.24 59.3949 1145.61 Q64.0013 1140.96 65.1819 1139.62 Q67.4272 1137.09 68.3068 1135.36 Q69.2096 1133.6 69.2096 1131.91 Q69.2096 1129.15 67.2652 1127.42 Q65.3439 1125.68 62.2421 1125.68 Q60.043 1125.68 57.5893 1126.45 Q55.1588 1127.21 52.381 1128.76 L52.381 1124.04 Q55.2051 1122.9 57.6588 1122.33 Q60.1124 1121.75 62.1495 1121.75 Q67.5198 1121.75 70.7142 1124.43 Q73.9087 1127.12 73.9087 1131.61 Q73.9087 1133.74 73.0985 1135.66 Q72.3115 1137.56 70.205 1140.15 Q69.6263 1140.82 66.5245 1144.04 Q63.4226 1147.23 57.7745 1153 Z" fill="#000000" fill-rule="nonzero" fill-opacity="1" /><path clip-path="url(#clip640)" d="M93.9086 1125.45 Q90.2975 1125.45 88.4688 1129.02 Q86.6632 1132.56 86.6632 1139.69 Q86.6632 1146.79 88.4688 1150.36 Q90.2975 1153.9 93.9086 1153.9 Q97.5428 1153.9 99.3483 1150.36 Q101.177 1146.79 101.177 1139.69 Q101.177 1132.56 99.3483 1129.02 Q97.5428 1125.45 93.9086 1125.45 M93.9086 1121.75 Q99.7187 1121.75 102.774 1126.35 Q105.853 1130.94 105.853 1139.69 Q105.853 1148.41 102.774 1153.02 Q99.7187 1157.6 93.9086 1157.6 Q88.0984 1157.6 85.0197 1153.02 Q81.9642 1148.41 81.9642 1139.69 Q81.9642 1130.94 85.0197 1126.35 Q88.0984 1121.75 93.9086 1121.75 Z" fill="#000000" fill-rule="nonzero" fill-opacity="1" /><path clip-path="url(#clip640)" d="M66.5939 779.65 L54.7884 798.099 L66.5939 798.099 L66.5939 779.65 M65.367 775.576 L71.2466 775.576 L71.2466 798.099 L76.1772 798.099 L76.1772 801.988 L71.2466 801.988 L71.2466 810.136 L66.5939 810.136 L66.5939 801.988 L50.9921 801.988 L50.9921 797.474 L65.367 775.576 Z" fill="#000000" fill-rule="nonzero" fill-opacity="1" /><path clip-path="url(#clip640)" d="M93.9086 778.654 Q90.2975 778.654 88.4688 782.219 Q86.6632 785.761 86.6632 792.89 Q86.6632 799.997 88.4688 803.562 Q90.2975 807.103 93.9086 807.103 Q97.5428 807.103 99.3483 803.562 Q101.177 799.997 101.177 792.89 Q101.177 785.761 99.3483 782.219 Q97.5428 778.654 93.9086 778.654 M93.9086 774.951 Q99.7187 774.951 102.774 779.557 Q105.853 784.14 105.853 792.89 Q105.853 801.617 102.774 806.224 Q99.7187 810.807 93.9086 810.807 Q88.0984 810.807 85.0197 806.224 Q81.9642 801.617 81.9642 792.89 Q81.9642 784.14 85.0197 779.557 Q88.0984 774.951 93.9086 774.951 Z" fill="#000000" fill-rule="nonzero" fill-opacity="1" /><path clip-path="url(#clip640)" d="M64.3254 444.196 Q61.1773 444.196 59.3254 446.349 Q57.4967 448.502 57.4967 452.252 Q57.4967 455.979 59.3254 458.154 Q61.1773 460.307 64.3254 460.307 Q67.4735 460.307 69.3022 458.154 Q71.1541 455.979 71.1541 452.252 Q71.1541 448.502 69.3022 446.349 Q67.4735 444.196 64.3254 444.196 M73.6077 429.543 L73.6077 433.803 Q71.8485 432.969 70.0429 432.53 Q68.2606 432.09 66.5013 432.09 Q61.8717 432.09 59.418 435.215 Q56.9875 438.34 56.6402 444.659 Q58.006 442.645 60.0662 441.58 Q62.1263 440.492 64.6032 440.492 Q69.8115 440.492 72.8207 443.664 Q75.8531 446.812 75.8531 452.252 Q75.8531 457.576 72.705 460.793 Q69.5568 464.011 64.3254 464.011 Q58.33 464.011 55.1588 459.428 Q51.9875 454.821 51.9875 446.094 Q51.9875 437.9 55.8764 433.039 Q59.7652 428.155 66.3161 428.155 Q68.0754 428.155 69.8578 428.502 Q71.6633 428.849 73.6077 429.543 Z" fill="#000000" fill-rule="nonzero" fill-opacity="1" /><path clip-path="url(#clip640)" d="M93.9086 431.858 Q90.2975 431.858 88.4688 435.423 Q86.6632 438.965 86.6632 446.094 Q86.6632 453.201 88.4688 456.766 Q90.2975 460.307 93.9086 460.307 Q97.5428 460.307 99.3483 456.766 Q101.177 453.201 101.177 446.094 Q101.177 438.965 99.3483 435.423 Q97.5428 431.858 93.9086 431.858 M93.9086 428.155 Q99.7187 428.155 102.774 432.761 Q105.853 437.344 105.853 446.094 Q105.853 454.821 102.774 459.428 Q99.7187 464.011 93.9086 464.011 Q88.0984 464.011 85.0197 459.428 Q81.9642 454.821 81.9642 446.094 Q81.9642 437.344 85.0197 432.761 Q88.0984 428.155 93.9086 428.155 Z" fill="#000000" fill-rule="nonzero" fill-opacity="1" /><path clip-path="url(#clip640)" d="M63.7467 100.132 Q60.4134 100.132 58.4921 101.914 Q56.5939 103.696 56.5939 106.821 Q56.5939 109.946 58.4921 111.729 Q60.4134 113.511 63.7467 113.511 Q67.08 113.511 69.0013 111.729 Q70.9226 109.923 70.9226 106.821 Q70.9226 103.696 69.0013 101.914 Q67.1032 100.132 63.7467 100.132 M59.0708 98.1408 Q56.0615 97.4001 54.3717 95.3399 Q52.7051 93.2797 52.7051 90.3168 Q52.7051 86.1733 55.6449 83.7659 Q58.6078 81.3585 63.7467 81.3585 Q68.9087 81.3585 71.8485 83.7659 Q74.7883 86.1733 74.7883 90.3168 Q74.7883 93.2797 73.0985 95.3399 Q71.4318 97.4001 68.4457 98.1408 Q71.8253 98.9279 73.7003 101.22 Q75.5985 103.511 75.5985 106.821 Q75.5985 111.844 72.5198 114.53 Q69.4642 117.215 63.7467 117.215 Q58.0291 117.215 54.9504 114.53 Q51.8949 111.844 51.8949 106.821 Q51.8949 103.511 53.793 101.22 Q55.6912 98.9279 59.0708 98.1408 M57.3578 90.7566 Q57.3578 93.4418 59.0245 94.9464 Q60.7143 96.451 63.7467 96.451 Q66.7559 96.451 68.4457 94.9464 Q70.1587 93.4418 70.1587 90.7566 Q70.1587 88.0714 68.4457 86.5668 Q66.7559 85.0622 63.7467 85.0622 Q60.7143 85.0622 59.0245 86.5668 Q57.3578 88.0714 57.3578 90.7566 Z" fill="#000000" fill-rule="nonzero" fill-opacity="1" /><path clip-path="url(#clip640)" d="M93.9086 85.0622 Q90.2975 85.0622 88.4688 88.627 Q86.6632 92.1686 86.6632 99.2982 Q86.6632 106.405 88.4688 109.969 Q90.2975 113.511 93.9086 113.511 Q97.5428 113.511 99.3483 109.969 Q101.177 106.405 101.177 99.2982 Q101.177 92.1686 99.3483 88.627 Q97.5428 85.0622 93.9086 85.0622 M93.9086 81.3585 Q99.7187 81.3585 102.774 85.965 Q105.853 90.5483 105.853 99.2982 Q105.853 108.025 102.774 112.631 Q99.7187 117.215 93.9086 117.215 Q88.0984 117.215 85.0197 112.631 Q81.9642 108.025 81.9642 99.2982 Q81.9642 90.5483 85.0197 85.965 Q88.0984 81.3585 93.9086 81.3585 Z" fill="#000000" fill-rule="nonzero" fill-opacity="1" /><path clip-path="url(#clip642)" d="M263.457 1469.11 L263.457 1486.45 L427.431 1486.45 L427.431 1469.11 L263.457 1469.11 L263.457 1469.11  Z" fill="#009af9" fill-rule="evenodd" fill-opacity="1"/>
<polyline clip-path="url(#clip642)" style="stroke:#000000; stroke-linecap:round; stroke-linejoin:round; stroke-width:4; stroke-opacity:1; fill:none" points="263.457,1469.11 263.457,1486.45 427.431,1486.45 427.431,1469.11 263.457,1469.11 "/>
<path clip-path="url(#clip642)" d="M427.431 1486.45 L427.431 1486.45 L591.406 1486.45 L591.406 1486.45 L427.431 1486.45 L427.431 1486.45  Z" fill="#009af9" fill-rule="evenodd" fill-opacity="1"/>
<polyline clip-path="url(#clip642)" style="stroke:#000000; stroke-linecap:round; stroke-linejoin:round; stroke-width:4; stroke-opacity:1; fill:none" points="427.431,1486.45 427.431,1486.45 591.406,1486.45 427.431,1486.45 "/>
<path clip-path="url(#clip642)" d="M591.406 1434.43 L591.406 1486.45 L755.38 1486.45 L755.38 1434.43 L591.406 1434.43 L591.406 1434.43  Z" fill="#009af9" fill-rule="evenodd" fill-opacity="1"/>
<polyline clip-path="url(#clip642)" style="stroke:#000000; stroke-linecap:round; stroke-linejoin:round; stroke-width:4; stroke-opacity:1; fill:none" points="591.406,1434.43 591.406,1486.45 755.38,1486.45 755.38,1434.43 591.406,1434.43 "/>
<path clip-path="url(#clip642)" d="M755.38 1451.77 L755.38 1486.45 L919.355 1486.45 L919.355 1451.77 L755.38 1451.77 L755.38 1451.77  Z" fill="#009af9" fill-rule="evenodd" fill-opacity="1"/>
<polyline clip-path="url(#clip642)" style="stroke:#000000; stroke-linecap:round; stroke-linejoin:round; stroke-width:4; stroke-opacity:1; fill:none" points="755.38,1451.77 755.38,1486.45 919.355,1486.45 919.355,1451.77 755.38,1451.77 "/>
<path clip-path="url(#clip642)" d="M919.355 1417.09 L919.355 1486.45 L1083.33 1486.45 L1083.33 1417.09 L919.355 1417.09 L919.355 1417.09  Z" fill="#009af9" fill-rule="evenodd" fill-opacity="1"/>
<polyline clip-path="url(#clip642)" style="stroke:#000000; stroke-linecap:round; stroke-linejoin:round; stroke-width:4; stroke-opacity:1; fill:none" points="919.355,1417.09 919.355,1486.45 1083.33,1486.45 1083.33,1417.09 919.355,1417.09 "/>
<path clip-path="url(#clip642)" d="M1083.33 1330.39 L1083.33 1486.45 L1247.3 1486.45 L1247.3 1330.39 L1083.33 1330.39 L1083.33 1330.39  Z" fill="#009af9" fill-rule="evenodd" fill-opacity="1"/>
<polyline clip-path="url(#clip642)" style="stroke:#000000; stroke-linecap:round; stroke-linejoin:round; stroke-width:4; stroke-opacity:1; fill:none" points="1083.33,1330.39 1083.33,1486.45 1247.3,1486.45 1247.3,1330.39 1083.33,1330.39 "/>
<path clip-path="url(#clip642)" d="M1247.3 1330.39 L1247.3 1486.45 L1411.28 1486.45 L1411.28 1330.39 L1247.3 1330.39 L1247.3 1330.39  Z" fill="#009af9" fill-rule="evenodd" fill-opacity="1"/>
<polyline clip-path="url(#clip642)" style="stroke:#000000; stroke-linecap:round; stroke-linejoin:round; stroke-width:4; stroke-opacity:1; fill:none" points="1247.3,1330.39 1247.3,1486.45 1411.28,1486.45 1411.28,1330.39 1247.3,1330.39 "/>
<path clip-path="url(#clip642)" d="M1411.28 1417.09 L1411.28 1486.45 L1575.25 1486.45 L1575.25 1417.09 L1411.28 1417.09 L1411.28 1417.09  Z" fill="#009af9" fill-rule="evenodd" fill-opacity="1"/>
<polyline clip-path="url(#clip642)" style="stroke:#000000; stroke-linecap:round; stroke-linejoin:round; stroke-width:4; stroke-opacity:1; fill:none" points="1411.28,1417.09 1411.28,1486.45 1575.25,1486.45 1575.25,1417.09 1411.28,1417.09 "/>
<path clip-path="url(#clip642)" d="M1575.25 1382.41 L1575.25 1486.45 L1739.23 1486.45 L1739.23 1382.41 L1575.25 1382.41 L1575.25 1382.41  Z" fill="#009af9" fill-rule="evenodd" fill-opacity="1"/>
<polyline clip-path="url(#clip642)" style="stroke:#000000; stroke-linecap:round; stroke-linejoin:round; stroke-width:4; stroke-opacity:1; fill:none" points="1575.25,1382.41 1575.25,1486.45 1739.23,1486.45 1739.23,1382.41 1575.25,1382.41 "/>
<path clip-path="url(#clip642)" d="M1739.23 1399.75 L1739.23 1486.45 L1903.2 1486.45 L1903.2 1399.75 L1739.23 1399.75 L1739.23 1399.75  Z" fill="#009af9" fill-rule="evenodd" fill-opacity="1"/>
<polyline clip-path="url(#clip642)" style="stroke:#000000; stroke-linecap:round; stroke-linejoin:round; stroke-width:4; stroke-opacity:1; fill:none" points="1739.23,1399.75 1739.23,1486.45 1903.2,1486.45 1903.2,1399.75 1739.23,1399.75 "/>
<path clip-path="url(#clip642)" d="M1903.2 1347.73 L1903.2 1486.45 L2067.18 1486.45 L2067.18 1347.73 L1903.2 1347.73 L1903.2 1347.73  Z" fill="#009af9" fill-rule="evenodd" fill-opacity="1"/>
<polyline clip-path="url(#clip642)" style="stroke:#000000; stroke-linecap:round; stroke-linejoin:round; stroke-width:4; stroke-opacity:1; fill:none" points="1903.2,1347.73 1903.2,1486.45 2067.18,1486.45 2067.18,1347.73 1903.2,1347.73 "/>
<path clip-path="url(#clip642)" d="M2067.18 636.797 L2067.18 1486.45 L2231.15 1486.45 L2231.15 636.797 L2067.18 636.797 L2067.18 636.797  Z" fill="#009af9" fill-rule="evenodd" fill-opacity="1"/>
<polyline clip-path="url(#clip642)" style="stroke:#000000; stroke-linecap:round; stroke-linejoin:round; stroke-width:4; stroke-opacity:1; fill:none" points="2067.18,636.797 2067.18,1486.45 2231.15,1486.45 2231.15,636.797 2067.18,636.797 "/>
<circle clip-path="url(#clip642)" style="fill:#009af9; stroke:none; fill-opacity:0" cx="345.444" cy="1469.11" r="2"/>
<circle clip-path="url(#clip642)" style="fill:#009af9; stroke:none; fill-opacity:0" cx="509.419" cy="1486.45" r="2"/>
<circle clip-path="url(#clip642)" style="fill:#009af9; stroke:none; fill-opacity:0" cx="673.393" cy="1434.43" r="2"/>
<circle clip-path="url(#clip642)" style="fill:#009af9; stroke:none; fill-opacity:0" cx="837.368" cy="1451.77" r="2"/>
<circle clip-path="url(#clip642)" style="fill:#009af9; stroke:none; fill-opacity:0" cx="1001.34" cy="1417.09" r="2"/>
<circle clip-path="url(#clip642)" style="fill:#009af9; stroke:none; fill-opacity:0" cx="1165.32" cy="1330.39" r="2"/>
<circle clip-path="url(#clip642)" style="fill:#009af9; stroke:none; fill-opacity:0" cx="1329.29" cy="1330.39" r="2"/>
<circle clip-path="url(#clip642)" style="fill:#009af9; stroke:none; fill-opacity:0" cx="1493.27" cy="1417.09" r="2"/>
<circle clip-path="url(#clip642)" style="fill:#009af9; stroke:none; fill-opacity:0" cx="1657.24" cy="1382.41" r="2"/>
<circle clip-path="url(#clip642)" style="fill:#009af9; stroke:none; fill-opacity:0" cx="1821.22" cy="1399.75" r="2"/>
<circle clip-path="url(#clip642)" style="fill:#009af9; stroke:none; fill-opacity:0" cx="1985.19" cy="1347.73" r="2"/>
<circle clip-path="url(#clip642)" style="fill:#009af9; stroke:none; fill-opacity:0" cx="2149.16" cy="636.797" r="2"/>
<path clip-path="url(#clip642)" d="M263.457 1486.45 L263.457 1486.45 L427.431 1486.45 L427.431 1486.45 L263.457 1486.45 L263.457 1486.45  Z" fill="#e26f46" fill-rule="evenodd" fill-opacity="0.5"/>
<polyline clip-path="url(#clip642)" style="stroke:#000000; stroke-linecap:round; stroke-linejoin:round; stroke-width:4; stroke-opacity:0.5; fill:none" points="263.457,1486.45 263.457,1486.45 427.431,1486.45 263.457,1486.45 "/>
<path clip-path="url(#clip642)" d="M427.431 1486.45 L427.431 1486.45 L591.406 1486.45 L591.406 1486.45 L427.431 1486.45 L427.431 1486.45  Z" fill="#e26f46" fill-rule="evenodd" fill-opacity="0.5"/>
<polyline clip-path="url(#clip642)" style="stroke:#000000; stroke-linecap:round; stroke-linejoin:round; stroke-width:4; stroke-opacity:0.5; fill:none" points="427.431,1486.45 427.431,1486.45 591.406,1486.45 427.431,1486.45 "/>
<path clip-path="url(#clip642)" d="M591.406 1469.11 L591.406 1486.45 L755.38 1486.45 L755.38 1469.11 L591.406 1469.11 L591.406 1469.11  Z" fill="#e26f46" fill-rule="evenodd" fill-opacity="0.5"/>
<polyline clip-path="url(#clip642)" style="stroke:#000000; stroke-linecap:round; stroke-linejoin:round; stroke-width:4; stroke-opacity:0.5; fill:none" points="591.406,1469.11 591.406,1486.45 755.38,1486.45 755.38,1469.11 591.406,1469.11 "/>
<path clip-path="url(#clip642)" d="M755.38 1486.45 L755.38 1486.45 L919.355 1486.45 L919.355 1486.45 L755.38 1486.45 L755.38 1486.45  Z" fill="#e26f46" fill-rule="evenodd" fill-opacity="0.5"/>
<polyline clip-path="url(#clip642)" style="stroke:#000000; stroke-linecap:round; stroke-linejoin:round; stroke-width:4; stroke-opacity:0.5; fill:none" points="755.38,1486.45 755.38,1486.45 919.355,1486.45 755.38,1486.45 "/>
<path clip-path="url(#clip642)" d="M919.355 1434.43 L919.355 1486.45 L1083.33 1486.45 L1083.33 1434.43 L919.355 1434.43 L919.355 1434.43  Z" fill="#e26f46" fill-rule="evenodd" fill-opacity="0.5"/>
<polyline clip-path="url(#clip642)" style="stroke:#000000; stroke-linecap:round; stroke-linejoin:round; stroke-width:4; stroke-opacity:0.5; fill:none" points="919.355,1434.43 919.355,1486.45 1083.33,1486.45 1083.33,1434.43 919.355,1434.43 "/>
<path clip-path="url(#clip642)" d="M1083.33 1469.11 L1083.33 1486.45 L1247.3 1486.45 L1247.3 1469.11 L1083.33 1469.11 L1083.33 1469.11  Z" fill="#e26f46" fill-rule="evenodd" fill-opacity="0.5"/>
<polyline clip-path="url(#clip642)" style="stroke:#000000; stroke-linecap:round; stroke-linejoin:round; stroke-width:4; stroke-opacity:0.5; fill:none" points="1083.33,1469.11 1083.33,1486.45 1247.3,1486.45 1247.3,1469.11 1083.33,1469.11 "/>
<path clip-path="url(#clip642)" d="M1247.3 1434.43 L1247.3 1486.45 L1411.28 1486.45 L1411.28 1434.43 L1247.3 1434.43 L1247.3 1434.43  Z" fill="#e26f46" fill-rule="evenodd" fill-opacity="0.5"/>
<polyline clip-path="url(#clip642)" style="stroke:#000000; stroke-linecap:round; stroke-linejoin:round; stroke-width:4; stroke-opacity:0.5; fill:none" points="1247.3,1434.43 1247.3,1486.45 1411.28,1486.45 1411.28,1434.43 1247.3,1434.43 "/>
<path clip-path="url(#clip642)" d="M1411.28 1330.39 L1411.28 1486.45 L1575.25 1486.45 L1575.25 1330.39 L1411.28 1330.39 L1411.28 1330.39  Z" fill="#e26f46" fill-rule="evenodd" fill-opacity="0.5"/>
<polyline clip-path="url(#clip642)" style="stroke:#000000; stroke-linecap:round; stroke-linejoin:round; stroke-width:4; stroke-opacity:0.5; fill:none" points="1411.28,1330.39 1411.28,1486.45 1575.25,1486.45 1575.25,1330.39 1411.28,1330.39 "/>
<path clip-path="url(#clip642)" d="M1575.25 47.2441 L1575.25 1486.45 L1739.23 1486.45 L1739.23 47.2441 L1575.25 47.2441 L1575.25 47.2441  Z" fill="#e26f46" fill-rule="evenodd" fill-opacity="0.5"/>
<polyline clip-path="url(#clip642)" style="stroke:#000000; stroke-linecap:round; stroke-linejoin:round; stroke-width:4; stroke-opacity:0.5; fill:none" points="1575.25,47.2441 1575.25,1486.45 1739.23,1486.45 1739.23,47.2441 1575.25,47.2441 "/>
<path clip-path="url(#clip642)" d="M1739.23 1486.45 L1739.23 1486.45 L1903.2 1486.45 L1903.2 1486.45 L1739.23 1486.45 L1739.23 1486.45  Z" fill="#e26f46" fill-rule="evenodd" fill-opacity="0.5"/>
<polyline clip-path="url(#clip642)" style="stroke:#000000; stroke-linecap:round; stroke-linejoin:round; stroke-width:4; stroke-opacity:0.5; fill:none" points="1739.23,1486.45 1739.23,1486.45 1903.2,1486.45 1739.23,1486.45 "/>
<path clip-path="url(#clip642)" d="M1903.2 1486.45 L1903.2 1486.45 L2067.18 1486.45 L2067.18 1486.45 L1903.2 1486.45 L1903.2 1486.45  Z" fill="#e26f46" fill-rule="evenodd" fill-opacity="0.5"/>
<polyline clip-path="url(#clip642)" style="stroke:#000000; stroke-linecap:round; stroke-linejoin:round; stroke-width:4; stroke-opacity:0.5; fill:none" points="1903.2,1486.45 1903.2,1486.45 2067.18,1486.45 1903.2,1486.45 "/>
<path clip-path="url(#clip642)" d="M2067.18 1486.45 L2067.18 1486.45 L2231.15 1486.45 L2231.15 1486.45 L2067.18 1486.45 L2067.18 1486.45  Z" fill="#e26f46" fill-rule="evenodd" fill-opacity="0.5"/>
<polyline clip-path="url(#clip642)" style="stroke:#000000; stroke-linecap:round; stroke-linejoin:round; stroke-width:4; stroke-opacity:0.5; fill:none" points="2067.18,1486.45 2067.18,1486.45 2231.15,1486.45 2067.18,1486.45 "/>
<circle clip-path="url(#clip642)" style="fill:#e26f46; stroke:none; fill-opacity:0" cx="345.444" cy="1486.45" r="2"/>
<circle clip-path="url(#clip642)" style="fill:#e26f46; stroke:none; fill-opacity:0" cx="509.419" cy="1486.45" r="2"/>
<circle clip-path="url(#clip642)" style="fill:#e26f46; stroke:none; fill-opacity:0" cx="673.393" cy="1469.11" r="2"/>
<circle clip-path="url(#clip642)" style="fill:#e26f46; stroke:none; fill-opacity:0" cx="837.368" cy="1486.45" r="2"/>
<circle clip-path="url(#clip642)" style="fill:#e26f46; stroke:none; fill-opacity:0" cx="1001.34" cy="1434.43" r="2"/>
<circle clip-path="url(#clip642)" style="fill:#e26f46; stroke:none; fill-opacity:0" cx="1165.32" cy="1469.11" r="2"/>
<circle clip-path="url(#clip642)" style="fill:#e26f46; stroke:none; fill-opacity:0" cx="1329.29" cy="1434.43" r="2"/>
<circle clip-path="url(#clip642)" style="fill:#e26f46; stroke:none; fill-opacity:0" cx="1493.27" cy="1330.39" r="2"/>
<circle clip-path="url(#clip642)" style="fill:#e26f46; stroke:none; fill-opacity:0" cx="1657.24" cy="47.2441" r="2"/>
<circle clip-path="url(#clip642)" style="fill:#e26f46; stroke:none; fill-opacity:0" cx="1821.22" cy="1486.45" r="2"/>
<circle clip-path="url(#clip642)" style="fill:#e26f46; stroke:none; fill-opacity:0" cx="1985.19" cy="1486.45" r="2"/>
<circle clip-path="url(#clip642)" style="fill:#e26f46; stroke:none; fill-opacity:0" cx="2149.16" cy="1486.45" r="2"/>
<path clip-path="url(#clip640)" d="M1784.87 250.738 L2279.06 250.738 L2279.06 95.2176 L1784.87 95.2176  Z" fill="#ffffff" fill-rule="evenodd" fill-opacity="1"/>
<polyline clip-path="url(#clip640)" style="stroke:#000000; stroke-linecap:round; stroke-linejoin:round; stroke-width:4; stroke-opacity:1; fill:none" points="1784.87,250.738 2279.06,250.738 2279.06,95.2176 1784.87,95.2176 1784.87,250.738 "/>
<path clip-path="url(#clip640)" d="M1809.43 167.794 L1956.83 167.794 L1956.83 126.322 L1809.43 126.322 L1809.43 167.794  Z" fill="#009af9" fill-rule="evenodd" fill-opacity="1"/>
<polyline clip-path="url(#clip640)" style="stroke:#000000; stroke-linecap:round; stroke-linejoin:round; stroke-width:4; stroke-opacity:1; fill:none" points="1809.43,167.794 1956.83,167.794 1956.83,126.322 1809.43,126.322 1809.43,167.794 "/>
<path clip-path="url(#clip640)" d="M1981.39 129.778 L2003.24 129.778 L2003.24 133.713 L1986.07 133.713 L1986.07 143.944 L2002.53 143.944 L2002.53 147.879 L1986.07 147.879 L1986.07 160.402 L2003.66 160.402 L2003.66 164.338 L1981.39 164.338 L1981.39 129.778 Z" fill="#000000" fill-rule="nonzero" fill-opacity="1" /><path clip-path="url(#clip640)" d="M2032.71 138.412 L2023.34 151.027 L2033.2 164.338 L2028.18 164.338 L2020.63 154.152 L2013.08 164.338 L2008.06 164.338 L2018.13 150.773 L2008.92 138.412 L2013.94 138.412 L2020.81 147.648 L2027.69 138.412 L2032.71 138.412 Z" fill="#000000" fill-rule="nonzero" fill-opacity="1" /><path clip-path="url(#clip640)" d="M2043.34 160.449 L2043.34 174.199 L2039.05 174.199 L2039.05 138.412 L2043.34 138.412 L2043.34 142.347 Q2044.68 140.032 2046.72 138.921 Q2048.78 137.787 2051.62 137.787 Q2056.35 137.787 2059.29 141.537 Q2062.25 145.287 2062.25 151.398 Q2062.25 157.509 2059.29 161.259 Q2056.35 165.009 2051.62 165.009 Q2048.78 165.009 2046.72 163.898 Q2044.68 162.763 2043.34 160.449 M2057.83 151.398 Q2057.83 146.699 2055.88 144.037 Q2053.96 141.352 2050.58 141.352 Q2047.2 141.352 2045.26 144.037 Q2043.34 146.699 2043.34 151.398 Q2043.34 156.097 2045.26 158.782 Q2047.2 161.444 2050.58 161.444 Q2053.96 161.444 2055.88 158.782 Q2057.83 156.097 2057.83 151.398 Z" fill="#000000" fill-rule="nonzero" fill-opacity="1" /><path clip-path="url(#clip640)" d="M2091.49 150.31 L2091.49 152.393 L2071.9 152.393 Q2072.18 156.791 2074.54 159.106 Q2076.93 161.398 2081.16 161.398 Q2083.61 161.398 2085.91 160.796 Q2088.22 160.194 2090.49 158.99 L2090.49 163.018 Q2088.2 163.99 2085.79 164.5 Q2083.38 165.009 2080.91 165.009 Q2074.7 165.009 2071.07 161.398 Q2067.46 157.787 2067.46 151.629 Q2067.46 145.264 2070.88 141.537 Q2074.33 137.787 2080.17 137.787 Q2085.4 137.787 2088.43 141.166 Q2091.49 144.523 2091.49 150.31 M2087.23 149.06 Q2087.18 145.565 2085.26 143.481 Q2083.36 141.398 2080.21 141.398 Q2076.65 141.398 2074.49 143.412 Q2072.36 145.426 2072.04 149.083 L2087.23 149.06 Z" fill="#000000" fill-rule="nonzero" fill-opacity="1" /><path clip-path="url(#clip640)" d="M2117.13 139.407 L2117.13 143.389 Q2115.33 142.393 2113.5 141.907 Q2111.69 141.398 2109.84 141.398 Q2105.7 141.398 2103.41 144.037 Q2101.11 146.652 2101.11 151.398 Q2101.11 156.143 2103.41 158.782 Q2105.7 161.398 2109.84 161.398 Q2111.69 161.398 2113.5 160.912 Q2115.33 160.402 2117.13 159.407 L2117.13 163.342 Q2115.35 164.176 2113.43 164.592 Q2111.53 165.009 2109.38 165.009 Q2103.52 165.009 2100.07 161.328 Q2096.62 157.648 2096.62 151.398 Q2096.62 145.055 2100.1 141.421 Q2103.59 137.787 2109.66 137.787 Q2111.62 137.787 2113.5 138.203 Q2115.37 138.597 2117.13 139.407 Z" fill="#000000" fill-rule="nonzero" fill-opacity="1" /><path clip-path="url(#clip640)" d="M2128.75 131.051 L2128.75 138.412 L2137.53 138.412 L2137.53 141.722 L2128.75 141.722 L2128.75 155.796 Q2128.75 158.967 2129.61 159.87 Q2130.49 160.773 2133.15 160.773 L2137.53 160.773 L2137.53 164.338 L2133.15 164.338 Q2128.22 164.338 2126.35 162.509 Q2124.47 160.657 2124.47 155.796 L2124.47 141.722 L2121.35 141.722 L2121.35 138.412 L2124.47 138.412 L2124.47 131.051 L2128.75 131.051 Z" fill="#000000" fill-rule="nonzero" fill-opacity="1" /><path clip-path="url(#clip640)" d="M2154.91 151.305 Q2149.75 151.305 2147.76 152.486 Q2145.77 153.666 2145.77 156.514 Q2145.77 158.782 2147.25 160.125 Q2148.75 161.444 2151.32 161.444 Q2154.86 161.444 2156.99 158.944 Q2159.15 156.421 2159.15 152.254 L2159.15 151.305 L2154.91 151.305 M2163.41 149.546 L2163.41 164.338 L2159.15 164.338 L2159.15 160.402 Q2157.69 162.763 2155.51 163.898 Q2153.34 165.009 2150.19 165.009 Q2146.21 165.009 2143.85 162.787 Q2141.51 160.541 2141.51 156.791 Q2141.51 152.416 2144.42 150.194 Q2147.36 147.972 2153.17 147.972 L2159.15 147.972 L2159.15 147.555 Q2159.15 144.615 2157.2 143.018 Q2155.28 141.398 2151.79 141.398 Q2149.56 141.398 2147.46 141.93 Q2145.35 142.463 2143.41 143.527 L2143.41 139.592 Q2145.74 138.69 2147.94 138.25 Q2150.14 137.787 2152.23 137.787 Q2157.85 137.787 2160.63 140.703 Q2163.41 143.62 2163.41 149.546 Z" fill="#000000" fill-rule="nonzero" fill-opacity="1" /><path clip-path="url(#clip640)" d="M2176.39 131.051 L2176.39 138.412 L2185.17 138.412 L2185.17 141.722 L2176.39 141.722 L2176.39 155.796 Q2176.39 158.967 2177.25 159.87 Q2178.13 160.773 2180.79 160.773 L2185.17 160.773 L2185.17 164.338 L2180.79 164.338 Q2175.86 164.338 2173.98 162.509 Q2172.11 160.657 2172.11 155.796 L2172.11 141.722 L2168.98 141.722 L2168.98 138.412 L2172.11 138.412 L2172.11 131.051 L2176.39 131.051 Z" fill="#000000" fill-rule="nonzero" fill-opacity="1" /><path clip-path="url(#clip640)" d="M2190.77 138.412 L2195.03 138.412 L2195.03 164.338 L2190.77 164.338 L2190.77 138.412 M2190.77 128.319 L2195.03 128.319 L2195.03 133.713 L2190.77 133.713 L2190.77 128.319 Z" fill="#000000" fill-rule="nonzero" fill-opacity="1" /><path clip-path="url(#clip640)" d="M2213.98 141.398 Q2210.56 141.398 2208.57 144.083 Q2206.58 146.745 2206.58 151.398 Q2206.58 156.051 2208.54 158.736 Q2210.54 161.398 2213.98 161.398 Q2217.39 161.398 2219.38 158.713 Q2221.37 156.027 2221.37 151.398 Q2221.37 146.791 2219.38 144.106 Q2217.39 141.398 2213.98 141.398 M2213.98 137.787 Q2219.54 137.787 2222.71 141.398 Q2225.88 145.009 2225.88 151.398 Q2225.88 157.764 2222.71 161.398 Q2219.54 165.009 2213.98 165.009 Q2208.41 165.009 2205.23 161.398 Q2202.09 157.764 2202.09 151.398 Q2202.09 145.009 2205.23 141.398 Q2208.41 137.787 2213.98 137.787 Z" fill="#000000" fill-rule="nonzero" fill-opacity="1" /><path clip-path="url(#clip640)" d="M2254.49 148.689 L2254.49 164.338 L2250.23 164.338 L2250.23 148.828 Q2250.23 145.148 2248.8 143.319 Q2247.36 141.49 2244.49 141.49 Q2241.04 141.49 2239.05 143.69 Q2237.06 145.889 2237.06 149.685 L2237.06 164.338 L2232.78 164.338 L2232.78 138.412 L2237.06 138.412 L2237.06 142.44 Q2238.59 140.102 2240.65 138.944 Q2242.73 137.787 2245.44 137.787 Q2249.91 137.787 2252.2 140.565 Q2254.49 143.319 2254.49 148.689 Z" fill="#000000" fill-rule="nonzero" fill-opacity="1" /><path clip-path="url(#clip640)" d="M1809.43 219.634 L1956.83 219.634 L1956.83 178.162 L1809.43 178.162 L1809.43 219.634  Z" fill="#e26f46" fill-rule="evenodd" fill-opacity="0.5"/>
<polyline clip-path="url(#clip640)" style="stroke:#000000; stroke-linecap:round; stroke-linejoin:round; stroke-width:4; stroke-opacity:1; fill:none" points="1809.43,219.634 1956.83,219.634 1956.83,178.162 1809.43,178.162 1809.43,219.634 "/>
<path clip-path="url(#clip640)" d="M2009.26 184.28 L2009.26 189.21 Q2006.9 187.011 2004.22 185.923 Q2001.56 184.835 1998.55 184.835 Q1992.62 184.835 1989.47 188.469 Q1986.32 192.08 1986.32 198.932 Q1986.32 205.761 1989.47 209.395 Q1992.62 213.006 1998.55 213.006 Q2001.56 213.006 2004.22 211.918 Q2006.9 210.83 2009.26 208.631 L2009.26 213.516 Q2006.81 215.182 2004.06 216.016 Q2001.32 216.849 1998.27 216.849 Q1990.42 216.849 1985.91 212.057 Q1981.39 207.242 1981.39 198.932 Q1981.39 190.599 1985.91 185.807 Q1990.42 180.993 1998.27 180.993 Q2001.37 180.993 2004.1 181.826 Q2006.86 182.636 2009.26 184.28 Z" fill="#000000" fill-rule="nonzero" fill-opacity="1" /><path clip-path="url(#clip640)" d="M2025.4 216.178 L2012.2 181.618 L2017.09 181.618 L2028.04 210.715 L2039.01 181.618 L2043.87 181.618 L2030.7 216.178 L2025.4 216.178 Z" fill="#000000" fill-rule="nonzero" fill-opacity="1" /><path clip-path="url(#clip640)" d="M2061.9 203.747 Q2061.9 207.057 2063.55 208.955 Q2065.19 210.83 2068.06 210.83 Q2070.91 210.83 2072.53 208.932 Q2074.17 207.034 2074.17 203.747 Q2074.17 200.506 2072.5 198.608 Q2070.84 196.687 2068.01 196.687 Q2065.21 196.687 2063.55 198.585 Q2061.9 200.483 2061.9 203.747 M2074.52 210.668 Q2073.13 212.451 2071.32 213.307 Q2069.54 214.141 2067.16 214.141 Q2063.18 214.141 2060.68 211.27 Q2058.2 208.377 2058.2 203.747 Q2058.2 199.117 2060.7 196.224 Q2063.2 193.33 2067.16 193.33 Q2069.54 193.33 2071.35 194.21 Q2073.15 195.067 2074.52 196.826 L2074.52 193.793 L2077.83 193.793 L2077.83 210.83 Q2081.21 210.321 2083.11 207.752 Q2085.03 205.159 2085.03 201.062 Q2085.03 198.585 2084.29 196.409 Q2083.57 194.233 2082.09 192.381 Q2079.68 189.349 2076.21 187.752 Q2072.76 186.131 2068.68 186.131 Q2065.84 186.131 2063.22 186.895 Q2060.61 187.636 2058.38 189.118 Q2054.75 191.479 2052.69 195.321 Q2050.65 199.141 2050.65 203.608 Q2050.65 207.289 2051.97 210.506 Q2053.31 213.724 2055.84 216.178 Q2058.27 218.585 2061.46 219.835 Q2064.66 221.108 2068.29 221.108 Q2071.28 221.108 2074.15 220.09 Q2077.04 219.094 2079.45 217.219 L2081.53 219.789 Q2078.64 222.034 2075.21 223.215 Q2071.81 224.418 2068.29 224.418 Q2064.01 224.418 2060.21 222.89 Q2056.42 221.386 2053.45 218.492 Q2050.49 215.599 2048.94 211.803 Q2047.39 207.983 2047.39 203.608 Q2047.39 199.395 2048.96 195.576 Q2050.54 191.756 2053.45 188.863 Q2056.44 185.923 2060.35 184.372 Q2064.26 182.798 2068.64 182.798 Q2073.55 182.798 2077.74 184.812 Q2081.95 186.826 2084.8 190.53 Q2086.53 192.798 2087.43 195.46 Q2088.36 198.122 2088.36 200.969 Q2088.36 207.057 2084.68 210.576 Q2081 214.094 2074.52 214.233 L2074.52 210.668 Z" fill="#000000" fill-rule="nonzero" fill-opacity="1" /><path clip-path="url(#clip640)" d="M2112.71 199.974 Q2114.22 200.483 2115.63 202.15 Q2117.06 203.817 2118.5 206.733 L2123.24 216.178 L2118.22 216.178 L2113.8 207.312 Q2112.09 203.84 2110.47 202.705 Q2108.87 201.571 2106.09 201.571 L2101 201.571 L2101 216.178 L2096.32 216.178 L2096.32 181.618 L2106.88 181.618 Q2112.8 181.618 2115.72 184.094 Q2118.64 186.571 2118.64 191.571 Q2118.64 194.835 2117.11 196.988 Q2115.61 199.141 2112.71 199.974 M2101 185.46 L2101 197.729 L2106.88 197.729 Q2110.26 197.729 2111.97 196.178 Q2113.71 194.604 2113.71 191.571 Q2113.71 188.539 2111.97 187.011 Q2110.26 185.46 2106.88 185.46 L2101 185.46 Z" fill="#000000" fill-rule="nonzero" fill-opacity="1" /></svg>
