<?xml version="1.0" encoding="utf-8"?>
<svg xmlns="http://www.w3.org/2000/svg" xmlns:xlink="http://www.w3.org/1999/xlink" width="600" height="400" viewBox="0 0 2400 1600">
<defs>
  <clipPath id="clip320">
    <rect x="0" y="0" width="2400" height="1600"/>
  </clipPath>
</defs>
<path clip-path="url(#clip320)" d="M0 1600 L2400 1600 L2400 0 L0 0  Z" fill="#ffffff" fill-rule="evenodd" fill-opacity="1"/>
<defs>
  <clipPath id="clip321">
    <rect x="480" y="0" width="1681" height="1600"/>
  </clipPath>
</defs>
<path clip-path="url(#clip320)" d="M138.867 1423.18 L2352.76 1423.18 L2352.76 47.2441 L138.867 47.2441  Z" fill="#ffffff" fill-rule="evenodd" fill-opacity="1"/>
<defs>
  <clipPath id="clip322">
    <rect x="138" y="47" width="2215" height="1377"/>
  </clipPath>
</defs>
<polyline clip-path="url(#clip322)" style="stroke:#000000; stroke-linecap:round; stroke-linejoin:round; stroke-width:2; stroke-opacity:0.1; fill:none" points="370.099,1423.18 370.099,47.2441 "/>
<polyline clip-path="url(#clip322)" style="stroke:#000000; stroke-linecap:round; stroke-linejoin:round; stroke-width:2; stroke-opacity:0.1; fill:none" points="807.955,1423.18 807.955,47.2441 "/>
<polyline clip-path="url(#clip322)" style="stroke:#000000; stroke-linecap:round; stroke-linejoin:round; stroke-width:2; stroke-opacity:0.1; fill:none" points="1245.81,1423.18 1245.81,47.2441 "/>
<polyline clip-path="url(#clip322)" style="stroke:#000000; stroke-linecap:round; stroke-linejoin:round; stroke-width:2; stroke-opacity:0.1; fill:none" points="1683.67,1423.18 1683.67,47.2441 "/>
<polyline clip-path="url(#clip322)" style="stroke:#000000; stroke-linecap:round; stroke-linejoin:round; stroke-width:2; stroke-opacity:0.1; fill:none" points="2121.52,1423.18 2121.52,47.2441 "/>
<polyline clip-path="url(#clip320)" style="stroke:#000000; stroke-linecap:round; stroke-linejoin:round; stroke-width:4; stroke-opacity:1; fill:none" points="138.867,1423.18 2352.76,1423.18 "/>
<polyline clip-path="url(#clip320)" style="stroke:#000000; stroke-linecap:round; stroke-linejoin:round; stroke-width:4; stroke-opacity:1; fill:none" points="370.099,1423.18 370.099,1404.28 "/>
<polyline clip-path="url(#clip320)" style="stroke:#000000; stroke-linecap:round; stroke-linejoin:round; stroke-width:4; stroke-opacity:1; fill:none" points="807.955,1423.18 807.955,1404.28 "/>
<polyline clip-path="url(#clip320)" style="stroke:#000000; stroke-linecap:round; stroke-linejoin:round; stroke-width:4; stroke-opacity:1; fill:none" points="1245.81,1423.18 1245.81,1404.28 "/>
<polyline clip-path="url(#clip320)" style="stroke:#000000; stroke-linecap:round; stroke-linejoin:round; stroke-width:4; stroke-opacity:1; fill:none" points="1683.67,1423.18 1683.67,1404.28 "/>
<polyline clip-path="url(#clip320)" style="stroke:#000000; stroke-linecap:round; stroke-linejoin:round; stroke-width:4; stroke-opacity:1; fill:none" points="2121.52,1423.18 2121.52,1404.28 "/>
<path clip-path="url(#clip320)" d="M329.705 1481.64 L337.344 1481.64 L337.344 1455.28 L329.034 1456.95 L329.034 1452.69 L337.298 1451.02 L341.974 1451.02 L341.974 1481.64 L349.613 1481.64 L349.613 1485.58 L329.705 1485.58 L329.705 1481.64 Z" fill="#000000" fill-rule="nonzero" fill-opacity="1" /><path clip-path="url(#clip320)" d="M369.636 1466.44 Q366.488 1466.44 364.636 1468.59 Q362.807 1470.74 362.807 1474.49 Q362.807 1478.22 364.636 1480.39 Q366.488 1482.55 369.636 1482.55 Q372.784 1482.55 374.613 1480.39 Q376.464 1478.22 376.464 1474.49 Q376.464 1470.74 374.613 1468.59 Q372.784 1466.44 369.636 1466.44 M378.918 1451.78 L378.918 1456.04 Q377.159 1455.21 375.353 1454.77 Q373.571 1454.33 371.812 1454.33 Q367.182 1454.33 364.728 1457.45 Q362.298 1460.58 361.951 1466.9 Q363.316 1464.89 365.377 1463.82 Q367.437 1462.73 369.914 1462.73 Q375.122 1462.73 378.131 1465.9 Q381.164 1469.05 381.164 1474.49 Q381.164 1479.82 378.015 1483.03 Q374.867 1486.25 369.636 1486.25 Q363.64 1486.25 360.469 1481.67 Q357.298 1477.06 357.298 1468.33 Q357.298 1460.14 361.187 1455.28 Q365.076 1450.39 371.627 1450.39 Q373.386 1450.39 375.168 1450.74 Q376.974 1451.09 378.918 1451.78 Z" fill="#000000" fill-rule="nonzero" fill-opacity="1" /><path clip-path="url(#clip320)" d="M399.219 1454.1 Q395.608 1454.1 393.779 1457.66 Q391.974 1461.2 391.974 1468.33 Q391.974 1475.44 393.779 1479.01 Q395.608 1482.55 399.219 1482.55 Q402.853 1482.55 404.659 1479.01 Q406.487 1475.44 406.487 1468.33 Q406.487 1461.2 404.659 1457.66 Q402.853 1454.1 399.219 1454.1 M399.219 1450.39 Q405.029 1450.39 408.085 1455 Q411.163 1459.58 411.163 1468.33 Q411.163 1477.06 408.085 1481.67 Q405.029 1486.25 399.219 1486.25 Q393.409 1486.25 390.33 1481.67 Q387.275 1477.06 387.275 1468.33 Q387.275 1459.58 390.33 1455 Q393.409 1450.39 399.219 1450.39 Z" fill="#000000" fill-rule="nonzero" fill-opacity="1" /><path clip-path="url(#clip320)" d="M767.562 1481.64 L775.201 1481.64 L775.201 1455.28 L766.89 1456.95 L766.89 1452.69 L775.154 1451.02 L779.83 1451.02 L779.83 1481.64 L787.469 1481.64 L787.469 1485.58 L767.562 1485.58 L767.562 1481.64 Z" fill="#000000" fill-rule="nonzero" fill-opacity="1" /><path clip-path="url(#clip320)" d="M806.913 1469.17 Q803.58 1469.17 801.659 1470.95 Q799.761 1472.73 799.761 1475.86 Q799.761 1478.98 801.659 1480.77 Q803.58 1482.55 806.913 1482.55 Q810.247 1482.55 812.168 1480.77 Q814.089 1478.96 814.089 1475.86 Q814.089 1472.73 812.168 1470.95 Q810.27 1469.17 806.913 1469.17 M802.238 1467.18 Q799.228 1466.44 797.538 1464.38 Q795.872 1462.32 795.872 1459.35 Q795.872 1455.21 798.812 1452.8 Q801.775 1450.39 806.913 1450.39 Q812.075 1450.39 815.015 1452.8 Q817.955 1455.21 817.955 1459.35 Q817.955 1462.32 816.265 1464.38 Q814.599 1466.44 811.612 1467.18 Q814.992 1467.96 816.867 1470.26 Q818.765 1472.55 818.765 1475.86 Q818.765 1480.88 815.687 1483.57 Q812.631 1486.25 806.913 1486.25 Q801.196 1486.25 798.117 1483.57 Q795.062 1480.88 795.062 1475.86 Q795.062 1472.55 796.96 1470.26 Q798.858 1467.96 802.238 1467.18 M800.525 1459.79 Q800.525 1462.48 802.191 1463.98 Q803.881 1465.49 806.913 1465.49 Q809.923 1465.49 811.612 1463.98 Q813.325 1462.48 813.325 1459.79 Q813.325 1457.11 811.612 1455.6 Q809.923 1454.1 806.913 1454.1 Q803.881 1454.1 802.191 1455.6 Q800.525 1457.11 800.525 1459.79 Z" fill="#000000" fill-rule="nonzero" fill-opacity="1" /><path clip-path="url(#clip320)" d="M837.075 1454.1 Q833.464 1454.1 831.635 1457.66 Q829.83 1461.2 829.83 1468.33 Q829.83 1475.44 831.635 1479.01 Q833.464 1482.55 837.075 1482.55 Q840.71 1482.55 842.515 1479.01 Q844.344 1475.44 844.344 1468.33 Q844.344 1461.2 842.515 1457.66 Q840.71 1454.1 837.075 1454.1 M837.075 1450.39 Q842.885 1450.39 845.941 1455 Q849.02 1459.58 849.02 1468.33 Q849.02 1477.06 845.941 1481.67 Q842.885 1486.25 837.075 1486.25 Q831.265 1486.25 828.186 1481.67 Q825.131 1477.06 825.131 1468.33 Q825.131 1459.58 828.186 1455 Q831.265 1450.39 837.075 1450.39 Z" fill="#000000" fill-rule="nonzero" fill-opacity="1" /><path clip-path="url(#clip320)" d="M1209.5 1481.64 L1225.82 1481.64 L1225.82 1485.58 L1203.88 1485.58 L1203.88 1481.64 Q1206.54 1478.89 1211.12 1474.26 Q1215.73 1469.61 1216.91 1468.27 Q1219.16 1465.74 1220.04 1464.01 Q1220.94 1462.25 1220.94 1460.56 Q1220.94 1457.8 1218.99 1456.07 Q1217.07 1454.33 1213.97 1454.33 Q1211.77 1454.33 1209.32 1455.09 Q1206.89 1455.86 1204.11 1457.41 L1204.11 1452.69 Q1206.93 1451.55 1209.39 1450.97 Q1211.84 1450.39 1213.88 1450.39 Q1219.25 1450.39 1222.44 1453.08 Q1225.64 1455.77 1225.64 1460.26 Q1225.64 1462.39 1224.83 1464.31 Q1224.04 1466.2 1221.93 1468.8 Q1221.36 1469.47 1218.25 1472.69 Q1215.15 1475.88 1209.5 1481.64 Z" fill="#000000" fill-rule="nonzero" fill-opacity="1" /><path clip-path="url(#clip320)" d="M1245.64 1454.1 Q1242.03 1454.1 1240.2 1457.66 Q1238.39 1461.2 1238.39 1468.33 Q1238.39 1475.44 1240.2 1479.01 Q1242.03 1482.55 1245.64 1482.55 Q1249.27 1482.55 1251.08 1479.01 Q1252.91 1475.44 1252.91 1468.33 Q1252.91 1461.2 1251.08 1457.66 Q1249.27 1454.1 1245.64 1454.1 M1245.64 1450.39 Q1251.45 1450.39 1254.5 1455 Q1257.58 1459.58 1257.58 1468.33 Q1257.58 1477.06 1254.5 1481.67 Q1251.45 1486.25 1245.64 1486.25 Q1239.83 1486.25 1236.75 1481.67 Q1233.69 1477.06 1233.69 1468.33 Q1233.69 1459.58 1236.75 1455 Q1239.83 1450.39 1245.64 1450.39 Z" fill="#000000" fill-rule="nonzero" fill-opacity="1" /><path clip-path="url(#clip320)" d="M1275.8 1454.1 Q1272.19 1454.1 1270.36 1457.66 Q1268.55 1461.2 1268.55 1468.33 Q1268.55 1475.44 1270.36 1479.01 Q1272.19 1482.55 1275.8 1482.55 Q1279.43 1482.55 1281.24 1479.01 Q1283.07 1475.44 1283.07 1468.33 Q1283.07 1461.2 1281.24 1457.66 Q1279.43 1454.1 1275.8 1454.1 M1275.8 1450.39 Q1281.61 1450.39 1284.67 1455 Q1287.74 1459.58 1287.74 1468.33 Q1287.74 1477.06 1284.67 1481.67 Q1281.61 1486.25 1275.8 1486.25 Q1269.99 1486.25 1266.91 1481.67 Q1263.86 1477.06 1263.86 1468.33 Q1263.86 1459.58 1266.91 1455 Q1269.99 1450.39 1275.8 1450.39 Z" fill="#000000" fill-rule="nonzero" fill-opacity="1" /><path clip-path="url(#clip320)" d="M1647.36 1481.64 L1663.68 1481.64 L1663.68 1485.58 L1641.74 1485.58 L1641.74 1481.64 Q1644.4 1478.89 1648.98 1474.26 Q1653.59 1469.61 1654.77 1468.27 Q1657.01 1465.74 1657.89 1464.01 Q1658.8 1462.25 1658.8 1460.56 Q1658.8 1457.8 1656.85 1456.07 Q1654.93 1454.33 1651.83 1454.33 Q1649.63 1454.33 1647.17 1455.09 Q1644.74 1455.86 1641.97 1457.41 L1641.97 1452.69 Q1644.79 1451.55 1647.24 1450.97 Q1649.7 1450.39 1651.73 1450.39 Q1657.11 1450.39 1660.3 1453.08 Q1663.49 1455.77 1663.49 1460.26 Q1663.49 1462.39 1662.68 1464.31 Q1661.9 1466.2 1659.79 1468.8 Q1659.21 1469.47 1656.11 1472.69 Q1653.01 1475.88 1647.36 1481.64 Z" fill="#000000" fill-rule="nonzero" fill-opacity="1" /><path clip-path="url(#clip320)" d="M1677.52 1481.64 L1693.84 1481.64 L1693.84 1485.58 L1671.9 1485.58 L1671.9 1481.64 Q1674.56 1478.89 1679.14 1474.26 Q1683.75 1469.61 1684.93 1468.27 Q1687.17 1465.74 1688.05 1464.01 Q1688.96 1462.25 1688.96 1460.56 Q1688.96 1457.8 1687.01 1456.07 Q1685.09 1454.33 1681.99 1454.33 Q1679.79 1454.33 1677.34 1455.09 Q1674.91 1455.86 1672.13 1457.41 L1672.13 1452.69 Q1674.95 1451.55 1677.41 1450.97 Q1679.86 1450.39 1681.9 1450.39 Q1687.27 1450.39 1690.46 1453.08 Q1693.66 1455.77 1693.66 1460.26 Q1693.66 1462.39 1692.85 1464.31 Q1692.06 1466.2 1689.95 1468.8 Q1689.37 1469.47 1686.27 1472.69 Q1683.17 1475.88 1677.52 1481.64 Z" fill="#000000" fill-rule="nonzero" fill-opacity="1" /><path clip-path="url(#clip320)" d="M1713.66 1454.1 Q1710.04 1454.1 1708.22 1457.66 Q1706.41 1461.2 1706.41 1468.33 Q1706.41 1475.44 1708.22 1479.01 Q1710.04 1482.55 1713.66 1482.55 Q1717.29 1482.55 1719.1 1479.01 Q1720.92 1475.44 1720.92 1468.33 Q1720.92 1461.2 1719.1 1457.66 Q1717.29 1454.1 1713.66 1454.1 M1713.66 1450.39 Q1719.47 1450.39 1722.52 1455 Q1725.6 1459.58 1725.6 1468.33 Q1725.6 1477.06 1722.52 1481.67 Q1719.47 1486.25 1713.66 1486.25 Q1707.85 1486.25 1704.77 1481.67 Q1701.71 1477.06 1701.71 1468.33 Q1701.71 1459.58 1704.77 1455 Q1707.85 1450.39 1713.66 1450.39 Z" fill="#000000" fill-rule="nonzero" fill-opacity="1" /><path clip-path="url(#clip320)" d="M2085.22 1481.64 L2101.54 1481.64 L2101.54 1485.58 L2079.59 1485.58 L2079.59 1481.64 Q2082.25 1478.89 2086.84 1474.26 Q2091.44 1469.61 2092.62 1468.27 Q2094.87 1465.74 2095.75 1464.01 Q2096.65 1462.25 2096.65 1460.56 Q2096.65 1457.8 2094.71 1456.07 Q2092.79 1454.33 2089.68 1454.33 Q2087.48 1454.33 2085.03 1455.09 Q2082.6 1455.86 2079.82 1457.41 L2079.82 1452.69 Q2082.65 1451.55 2085.1 1450.97 Q2087.55 1450.39 2089.59 1450.39 Q2094.96 1450.39 2098.16 1453.08 Q2101.35 1455.77 2101.35 1460.26 Q2101.35 1462.39 2100.54 1464.31 Q2099.75 1466.2 2097.65 1468.8 Q2097.07 1469.47 2093.97 1472.69 Q2090.86 1475.88 2085.22 1481.64 Z" fill="#000000" fill-rule="nonzero" fill-opacity="1" /><path clip-path="url(#clip320)" d="M2124.2 1455.09 L2112.39 1473.54 L2124.2 1473.54 L2124.2 1455.09 M2122.97 1451.02 L2128.85 1451.02 L2128.85 1473.54 L2133.78 1473.54 L2133.78 1477.43 L2128.85 1477.43 L2128.85 1485.58 L2124.2 1485.58 L2124.2 1477.43 L2108.6 1477.43 L2108.6 1472.92 L2122.97 1451.02 Z" fill="#000000" fill-rule="nonzero" fill-opacity="1" /><path clip-path="url(#clip320)" d="M2151.51 1454.1 Q2147.9 1454.1 2146.07 1457.66 Q2144.27 1461.2 2144.27 1468.33 Q2144.27 1475.44 2146.07 1479.01 Q2147.9 1482.55 2151.51 1482.55 Q2155.15 1482.55 2156.95 1479.01 Q2158.78 1475.44 2158.78 1468.33 Q2158.78 1461.2 2156.95 1457.66 Q2155.15 1454.1 2151.51 1454.1 M2151.51 1450.39 Q2157.32 1450.39 2160.38 1455 Q2163.46 1459.58 2163.46 1468.33 Q2163.46 1477.06 2160.38 1481.67 Q2157.32 1486.25 2151.51 1486.25 Q2145.7 1486.25 2142.62 1481.67 Q2139.57 1477.06 2139.57 1468.33 Q2139.57 1459.58 2142.62 1455 Q2145.7 1450.39 2151.51 1450.39 Z" fill="#000000" fill-rule="nonzero" fill-opacity="1" /><path clip-path="url(#clip320)" d="M1120.18 1525.81 L1120.18 1562.76 L1127.95 1562.76 Q1137.79 1562.76 1142.34 1558.3 Q1146.92 1553.85 1146.92 1544.24 Q1146.92 1534.69 1142.34 1530.26 Q1137.79 1525.81 1127.95 1525.81 L1120.18 1525.81 M1113.75 1520.52 L1126.96 1520.52 Q1140.78 1520.52 1147.24 1526.28 Q1153.7 1532.01 1153.7 1544.24 Q1153.7 1556.52 1147.21 1562.28 Q1140.71 1568.04 1126.96 1568.04 L1113.75 1568.04 L1113.75 1520.52 Z" fill="#000000" fill-rule="nonzero" fill-opacity="1" /><path clip-path="url(#clip320)" d="M1194.19 1548.76 L1194.19 1551.62 L1167.26 1551.62 Q1167.64 1557.67 1170.89 1560.85 Q1174.17 1564 1179.99 1564 Q1183.36 1564 1186.51 1563.17 Q1189.7 1562.35 1192.82 1560.69 L1192.82 1566.23 Q1189.67 1567.57 1186.36 1568.27 Q1183.05 1568.97 1179.64 1568.97 Q1171.11 1568.97 1166.11 1564 Q1161.15 1559.04 1161.15 1550.57 Q1161.15 1541.82 1165.86 1536.69 Q1170.6 1531.54 1178.62 1531.54 Q1185.81 1531.54 1189.98 1536.18 Q1194.19 1540.8 1194.19 1548.76 M1188.33 1547.04 Q1188.27 1542.23 1185.62 1539.37 Q1183.01 1536.5 1178.69 1536.5 Q1173.78 1536.5 1170.82 1539.27 Q1167.9 1542.04 1167.45 1547.07 L1188.33 1547.04 Z" fill="#000000" fill-rule="nonzero" fill-opacity="1" /><path clip-path="url(#clip320)" d="M1231.55 1539.24 Q1233.75 1535.29 1236.8 1533.41 Q1239.86 1531.54 1244 1531.54 Q1249.57 1531.54 1252.59 1535.45 Q1255.61 1539.33 1255.61 1546.53 L1255.61 1568.04 L1249.73 1568.04 L1249.73 1546.72 Q1249.73 1541.59 1247.91 1539.11 Q1246.1 1536.63 1242.37 1536.63 Q1237.82 1536.63 1235.18 1539.65 Q1232.54 1542.68 1232.54 1547.9 L1232.54 1568.04 L1226.65 1568.04 L1226.65 1546.72 Q1226.65 1541.56 1224.84 1539.11 Q1223.02 1536.63 1219.23 1536.63 Q1214.75 1536.63 1212.1 1539.68 Q1209.46 1542.71 1209.46 1547.9 L1209.46 1568.04 L1203.57 1568.04 L1203.57 1532.4 L1209.46 1532.4 L1209.46 1537.93 Q1211.47 1534.66 1214.27 1533.1 Q1217.07 1531.54 1220.92 1531.54 Q1224.8 1531.54 1227.51 1533.51 Q1230.25 1535.48 1231.55 1539.24 Z" fill="#000000" fill-rule="nonzero" fill-opacity="1" /><path clip-path="url(#clip320)" d="M1283.5 1550.12 Q1276.4 1550.12 1273.66 1551.75 Q1270.92 1553.37 1270.92 1557.29 Q1270.92 1560.4 1272.96 1562.25 Q1275.03 1564.07 1278.56 1564.07 Q1283.43 1564.07 1286.36 1560.63 Q1289.32 1557.16 1289.32 1551.43 L1289.32 1550.12 L1283.5 1550.12 M1295.18 1547.71 L1295.18 1568.04 L1289.32 1568.04 L1289.32 1562.63 Q1287.32 1565.88 1284.32 1567.44 Q1281.33 1568.97 1277 1568.97 Q1271.53 1568.97 1268.28 1565.91 Q1265.07 1562.82 1265.07 1557.67 Q1265.07 1551.65 1269.08 1548.6 Q1273.12 1545.54 1281.11 1545.54 L1289.32 1545.54 L1289.32 1544.97 Q1289.32 1540.93 1286.65 1538.73 Q1284.01 1536.5 1279.2 1536.5 Q1276.14 1536.5 1273.25 1537.23 Q1270.35 1537.97 1267.68 1539.43 L1267.68 1534.02 Q1270.89 1532.78 1273.92 1532.17 Q1276.94 1531.54 1279.8 1531.54 Q1287.54 1531.54 1291.36 1535.55 Q1295.18 1539.56 1295.18 1547.71 Z" fill="#000000" fill-rule="nonzero" fill-opacity="1" /><path clip-path="url(#clip320)" d="M1336.87 1546.53 L1336.87 1568.04 L1331.02 1568.04 L1331.02 1546.72 Q1331.02 1541.66 1329.04 1539.14 Q1327.07 1536.63 1323.12 1536.63 Q1318.38 1536.63 1315.64 1539.65 Q1312.91 1542.68 1312.91 1547.9 L1312.91 1568.04 L1307.02 1568.04 L1307.02 1532.4 L1312.91 1532.4 L1312.91 1537.93 Q1315.01 1534.72 1317.84 1533.13 Q1320.7 1531.54 1324.43 1531.54 Q1330.57 1531.54 1333.72 1535.36 Q1336.87 1539.14 1336.87 1546.53 Z" fill="#000000" fill-rule="nonzero" fill-opacity="1" /><path clip-path="url(#clip320)" d="M1372.01 1537.81 L1372.01 1518.52 L1377.87 1518.52 L1377.87 1568.04 L1372.01 1568.04 L1372.01 1562.7 Q1370.17 1565.88 1367.33 1567.44 Q1364.53 1568.97 1360.59 1568.97 Q1354.12 1568.97 1350.05 1563.81 Q1346.01 1558.65 1346.01 1550.25 Q1346.01 1541.85 1350.05 1536.69 Q1354.12 1531.54 1360.59 1531.54 Q1364.53 1531.54 1367.33 1533.1 Q1370.17 1534.62 1372.01 1537.81 M1352.06 1550.25 Q1352.06 1556.71 1354.7 1560.4 Q1357.37 1564.07 1362.02 1564.07 Q1366.66 1564.07 1369.34 1560.4 Q1372.01 1556.71 1372.01 1550.25 Q1372.01 1543.79 1369.34 1540.13 Q1366.66 1536.44 1362.02 1536.44 Q1357.37 1536.44 1354.7 1540.13 Q1352.06 1543.79 1352.06 1550.25 Z" fill="#000000" fill-rule="nonzero" fill-opacity="1" /><polyline clip-path="url(#clip322)" style="stroke:#000000; stroke-linecap:round; stroke-linejoin:round; stroke-width:2; stroke-opacity:0.1; fill:none" points="138.867,1423.18 2352.76,1423.18 "/>
<polyline clip-path="url(#clip322)" style="stroke:#000000; stroke-linecap:round; stroke-linejoin:round; stroke-width:2; stroke-opacity:0.1; fill:none" points="138.867,1193.86 2352.76,1193.86 "/>
<polyline clip-path="url(#clip322)" style="stroke:#000000; stroke-linecap:round; stroke-linejoin:round; stroke-width:2; stroke-opacity:0.1; fill:none" points="138.867,964.535 2352.76,964.535 "/>
<polyline clip-path="url(#clip322)" style="stroke:#000000; stroke-linecap:round; stroke-linejoin:round; stroke-width:2; stroke-opacity:0.1; fill:none" points="138.867,735.212 2352.76,735.212 "/>
<polyline clip-path="url(#clip322)" style="stroke:#000000; stroke-linecap:round; stroke-linejoin:round; stroke-width:2; stroke-opacity:0.1; fill:none" points="138.867,505.889 2352.76,505.889 "/>
<polyline clip-path="url(#clip322)" style="stroke:#000000; stroke-linecap:round; stroke-linejoin:round; stroke-width:2; stroke-opacity:0.1; fill:none" points="138.867,276.567 2352.76,276.567 "/>
<polyline clip-path="url(#clip322)" style="stroke:#000000; stroke-linecap:round; stroke-linejoin:round; stroke-width:2; stroke-opacity:0.1; fill:none" points="138.867,47.2441 2352.76,47.2441 "/>
<polyline clip-path="url(#clip320)" style="stroke:#000000; stroke-linecap:round; stroke-linejoin:round; stroke-width:4; stroke-opacity:1; fill:none" points="138.867,1423.18 138.867,47.2441 "/>
<polyline clip-path="url(#clip320)" style="stroke:#000000; stroke-linecap:round; stroke-linejoin:round; stroke-width:4; stroke-opacity:1; fill:none" points="138.867,1423.18 157.764,1423.18 "/>
<polyline clip-path="url(#clip320)" style="stroke:#000000; stroke-linecap:round; stroke-linejoin:round; stroke-width:4; stroke-opacity:1; fill:none" points="138.867,1193.86 157.764,1193.86 "/>
<polyline clip-path="url(#clip320)" style="stroke:#000000; stroke-linecap:round; stroke-linejoin:round; stroke-width:4; stroke-opacity:1; fill:none" points="138.867,964.535 157.764,964.535 "/>
<polyline clip-path="url(#clip320)" style="stroke:#000000; stroke-linecap:round; stroke-linejoin:round; stroke-width:4; stroke-opacity:1; fill:none" points="138.867,735.212 157.764,735.212 "/>
<polyline clip-path="url(#clip320)" style="stroke:#000000; stroke-linecap:round; stroke-linejoin:round; stroke-width:4; stroke-opacity:1; fill:none" points="138.867,505.889 157.764,505.889 "/>
<polyline clip-path="url(#clip320)" style="stroke:#000000; stroke-linecap:round; stroke-linejoin:round; stroke-width:4; stroke-opacity:1; fill:none" points="138.867,276.567 157.764,276.567 "/>
<polyline clip-path="url(#clip320)" style="stroke:#000000; stroke-linecap:round; stroke-linejoin:round; stroke-width:4; stroke-opacity:1; fill:none" points="138.867,47.2441 157.764,47.2441 "/>
<path clip-path="url(#clip320)" d="M90.9225 1408.98 Q87.3114 1408.98 85.4827 1412.54 Q83.6771 1416.08 83.6771 1423.21 Q83.6771 1430.32 85.4827 1433.89 Q87.3114 1437.43 90.9225 1437.43 Q94.5567 1437.43 96.3623 1433.89 Q98.1909 1430.32 98.1909 1423.21 Q98.1909 1416.08 96.3623 1412.54 Q94.5567 1408.98 90.9225 1408.98 M90.9225 1405.27 Q96.7326 1405.27 99.7882 1409.88 Q102.867 1414.46 102.867 1423.21 Q102.867 1431.94 99.7882 1436.55 Q96.7326 1441.13 90.9225 1441.13 Q85.1123 1441.13 82.0336 1436.55 Q78.9781 1431.94 78.9781 1423.21 Q78.9781 1414.46 82.0336 1409.88 Q85.1123 1405.27 90.9225 1405.27 Z" fill="#000000" fill-rule="nonzero" fill-opacity="1" /><path clip-path="url(#clip320)" d="M95.7373 1192.5 Q99.0937 1193.22 100.969 1195.49 Q102.867 1197.76 102.867 1201.09 Q102.867 1206.21 99.3483 1209.01 Q95.8298 1211.81 89.3484 1211.81 Q87.1725 1211.81 84.8577 1211.37 Q82.566 1210.95 80.1123 1210.1 L80.1123 1205.58 Q82.0568 1206.72 84.3716 1207.29 Q86.6864 1207.87 89.2095 1207.87 Q93.6076 1207.87 95.8993 1206.14 Q98.2141 1204.4 98.2141 1201.09 Q98.2141 1198.04 96.0613 1196.32 Q93.9317 1194.59 90.1123 1194.59 L86.0845 1194.59 L86.0845 1190.74 L90.2975 1190.74 Q93.7465 1190.74 95.5752 1189.38 Q97.4039 1187.99 97.4039 1185.4 Q97.4039 1182.73 95.5058 1181.32 Q93.6308 1179.89 90.1123 1179.89 Q88.191 1179.89 85.9919 1180.3 Q83.7929 1180.72 81.154 1181.6 L81.154 1177.43 Q83.816 1176.69 86.1308 1176.32 Q88.4688 1175.95 90.529 1175.95 Q95.853 1175.95 98.9548 1178.38 Q102.057 1180.79 102.057 1184.91 Q102.057 1187.78 100.413 1189.77 Q98.7696 1191.74 95.7373 1192.5 Z" fill="#000000" fill-rule="nonzero" fill-opacity="1" /><path clip-path="url(#clip320)" d="M91.3391 962.671 Q88.191 962.671 86.3392 964.824 Q84.5105 966.977 84.5105 970.727 Q84.5105 974.454 86.3392 976.629 Q88.191 978.782 91.3391 978.782 Q94.4873 978.782 96.316 976.629 Q98.1678 974.454 98.1678 970.727 Q98.1678 966.977 96.316 964.824 Q94.4873 962.671 91.3391 962.671 M100.621 948.018 L100.621 952.278 Q98.8622 951.444 97.0567 951.005 Q95.2743 950.565 93.515 950.565 Q88.8854 950.565 86.4318 953.69 Q84.0012 956.815 83.654 963.134 Q85.0197 961.12 87.0799 960.055 Q89.1401 958.967 91.6169 958.967 Q96.8252 958.967 99.8345 962.139 Q102.867 965.287 102.867 970.727 Q102.867 976.051 99.7187 979.268 Q96.5706 982.486 91.3391 982.486 Q85.3438 982.486 82.1725 977.903 Q79.0012 973.296 79.0012 964.569 Q79.0012 956.375 82.8901 951.514 Q86.779 946.63 93.3299 946.63 Q95.0891 946.63 96.8715 946.977 Q98.6771 947.324 100.621 948.018 Z" fill="#000000" fill-rule="nonzero" fill-opacity="1" /><path clip-path="url(#clip320)" d="M81.2466 751.774 L81.2466 747.515 Q83.0058 748.348 84.8114 748.788 Q86.6169 749.228 88.353 749.228 Q92.9826 749.228 95.4132 746.126 Q97.8669 743.001 98.2141 736.659 Q96.8715 738.649 94.8113 739.714 Q92.7512 740.779 90.2512 740.779 Q85.066 740.779 82.0336 737.654 Q79.0244 734.506 79.0244 729.066 Q79.0244 723.742 82.1725 720.525 Q85.3206 717.307 90.5521 717.307 Q96.5474 717.307 99.6956 721.913 Q102.867 726.497 102.867 735.247 Q102.867 743.418 98.978 748.302 Q95.1123 753.163 88.5614 753.163 Q86.8021 753.163 84.9966 752.816 Q83.191 752.469 81.2466 751.774 M90.5521 737.122 Q93.7002 737.122 95.5289 734.969 Q97.3808 732.816 97.3808 729.066 Q97.3808 725.339 95.5289 723.187 Q93.7002 721.011 90.5521 721.011 Q87.404 721.011 85.5521 723.187 Q83.7234 725.339 83.7234 729.066 Q83.7234 732.816 85.5521 734.969 Q87.404 737.122 90.5521 737.122 Z" fill="#000000" fill-rule="nonzero" fill-opacity="1" /><path clip-path="url(#clip320)" d="M53.168 519.234 L60.8069 519.234 L60.8069 492.869 L52.4967 494.535 L52.4967 490.276 L60.7606 488.609 L65.4365 488.609 L65.4365 519.234 L73.0753 519.234 L73.0753 523.169 L53.168 523.169 L53.168 519.234 Z" fill="#000000" fill-rule="nonzero" fill-opacity="1" /><path clip-path="url(#clip320)" d="M86.5475 519.234 L102.867 519.234 L102.867 523.169 L80.9225 523.169 L80.9225 519.234 Q83.5845 516.48 88.1679 511.85 Q92.7743 507.197 93.9549 505.855 Q96.2002 503.331 97.0798 501.595 Q97.9826 499.836 97.9826 498.146 Q97.9826 495.392 96.0382 493.656 Q94.1169 491.92 91.0151 491.92 Q88.816 491.92 86.3623 492.683 Q83.9318 493.447 81.154 494.998 L81.154 490.276 Q83.9781 489.142 86.4318 488.563 Q88.8854 487.984 90.9225 487.984 Q96.2928 487.984 99.4872 490.67 Q102.682 493.355 102.682 497.845 Q102.682 499.975 101.871 501.896 Q101.084 503.794 98.978 506.387 Q98.3993 507.058 95.2974 510.276 Q92.1956 513.47 86.5475 519.234 Z" fill="#000000" fill-rule="nonzero" fill-opacity="1" /><path clip-path="url(#clip320)" d="M52.5662 289.912 L60.205 289.912 L60.205 263.546 L51.8949 265.213 L51.8949 260.953 L60.1587 259.287 L64.8346 259.287 L64.8346 289.912 L72.4735 289.912 L72.4735 293.847 L52.5662 293.847 L52.5662 289.912 Z" fill="#000000" fill-rule="nonzero" fill-opacity="1" /><path clip-path="url(#clip320)" d="M81.9642 259.287 L100.321 259.287 L100.321 263.222 L86.2466 263.222 L86.2466 271.694 Q87.2651 271.347 88.2836 271.185 Q89.3021 271 90.3206 271 Q96.1076 271 99.4872 274.171 Q102.867 277.342 102.867 282.759 Q102.867 288.337 99.3946 291.439 Q95.9224 294.518 89.603 294.518 Q87.4271 294.518 85.1586 294.148 Q82.9133 293.777 80.5059 293.037 L80.5059 288.337 Q82.5892 289.472 84.8114 290.027 Q87.0336 290.583 89.5104 290.583 Q93.515 290.583 95.853 288.476 Q98.1909 286.37 98.1909 282.759 Q98.1909 279.148 95.853 277.041 Q93.515 274.935 89.5104 274.935 Q87.6354 274.935 85.7605 275.351 Q83.9086 275.768 81.9642 276.648 L81.9642 259.287 Z" fill="#000000" fill-rule="nonzero" fill-opacity="1" /><path clip-path="url(#clip320)" d="M51.6634 60.5889 L59.3023 60.5889 L59.3023 34.2233 L50.9921 35.89 L50.9921 31.6308 L59.256 29.9641 L63.9319 29.9641 L63.9319 60.5889 L71.5707 60.5889 L71.5707 64.5241 L51.6634 64.5241 L51.6634 60.5889 Z" fill="#000000" fill-rule="nonzero" fill-opacity="1" /><path clip-path="url(#clip320)" d="M91.0151 48.1121 Q87.6817 48.1121 85.7605 49.8945 Q83.8623 51.6769 83.8623 54.8019 Q83.8623 57.9269 85.7605 59.7093 Q87.6817 61.4917 91.0151 61.4917 Q94.3484 61.4917 96.2697 59.7093 Q98.1909 57.9038 98.1909 54.8019 Q98.1909 51.6769 96.2697 49.8945 Q94.3715 48.1121 91.0151 48.1121 M86.3392 46.1214 Q83.3299 45.3807 81.6401 43.3205 Q79.9735 41.2603 79.9735 38.2974 Q79.9735 34.1539 82.9133 31.7465 Q85.8762 29.3391 91.0151 29.3391 Q96.1771 29.3391 99.1169 31.7465 Q102.057 34.1539 102.057 38.2974 Q102.057 41.2603 100.367 43.3205 Q98.7002 45.3807 95.7141 46.1214 Q99.0937 46.9084 100.969 49.2001 Q102.867 51.4918 102.867 54.8019 Q102.867 59.825 99.7882 62.5102 Q96.7326 65.1954 91.0151 65.1954 Q85.2975 65.1954 82.2188 62.5102 Q79.1633 59.825 79.1633 54.8019 Q79.1633 51.4918 81.0614 49.2001 Q82.9595 46.9084 86.3392 46.1214 M84.6262 38.7372 Q84.6262 41.4224 86.2929 42.927 Q87.9827 44.4316 91.0151 44.4316 Q94.0243 44.4316 95.7141 42.927 Q97.4271 41.4224 97.4271 38.7372 Q97.4271 36.052 95.7141 34.5474 Q94.0243 33.0428 91.0151 33.0428 Q87.9827 33.0428 86.2929 34.5474 Q84.6262 36.052 84.6262 38.7372 Z" fill="#000000" fill-rule="nonzero" fill-opacity="1" /><path clip-path="url(#clip322)" d="M260.635 1270.3 L260.635 1423.18 L370.099 1423.18 L370.099 1270.3 L260.635 1270.3 L260.635 1270.3  Z" fill="#009af9" fill-rule="evenodd" fill-opacity="1"/>
<polyline clip-path="url(#clip322)" style="stroke:#000000; stroke-linecap:round; stroke-linejoin:round; stroke-width:4; stroke-opacity:1; fill:none" points="260.635,1270.3 260.635,1423.18 370.099,1423.18 370.099,1270.3 260.635,1270.3 "/>
<path clip-path="url(#clip322)" d="M370.099 1346.74 L370.099 1423.18 L479.563 1423.18 L479.563 1346.74 L370.099 1346.74 L370.099 1346.74  Z" fill="#009af9" fill-rule="evenodd" fill-opacity="1"/>
<polyline clip-path="url(#clip322)" style="stroke:#000000; stroke-linecap:round; stroke-linejoin:round; stroke-width:4; stroke-opacity:1; fill:none" points="370.099,1346.74 370.099,1423.18 479.563,1423.18 479.563,1346.74 370.099,1346.74 "/>
<path clip-path="url(#clip322)" d="M479.563 1270.3 L479.563 1423.18 L589.027 1423.18 L589.027 1270.3 L479.563 1270.3 L479.563 1270.3  Z" fill="#009af9" fill-rule="evenodd" fill-opacity="1"/>
<polyline clip-path="url(#clip322)" style="stroke:#000000; stroke-linecap:round; stroke-linejoin:round; stroke-width:4; stroke-opacity:1; fill:none" points="479.563,1270.3 479.563,1423.18 589.027,1423.18 589.027,1270.3 479.563,1270.3 "/>
<path clip-path="url(#clip322)" d="M589.027 1193.86 L589.027 1423.18 L698.491 1423.18 L698.491 1193.86 L589.027 1193.86 L589.027 1193.86  Z" fill="#009af9" fill-rule="evenodd" fill-opacity="1"/>
<polyline clip-path="url(#clip322)" style="stroke:#000000; stroke-linecap:round; stroke-linejoin:round; stroke-width:4; stroke-opacity:1; fill:none" points="589.027,1193.86 589.027,1423.18 698.491,1423.18 698.491,1193.86 589.027,1193.86 "/>
<path clip-path="url(#clip322)" d="M698.491 964.535 L698.491 1423.18 L807.955 1423.18 L807.955 964.535 L698.491 964.535 L698.491 964.535  Z" fill="#009af9" fill-rule="evenodd" fill-opacity="1"/>
<polyline clip-path="url(#clip322)" style="stroke:#000000; stroke-linecap:round; stroke-linejoin:round; stroke-width:4; stroke-opacity:1; fill:none" points="698.491,964.535 698.491,1423.18 807.955,1423.18 807.955,964.535 698.491,964.535 "/>
<path clip-path="url(#clip322)" d="M807.955 505.889 L807.955 1423.18 L917.419 1423.18 L917.419 505.889 L807.955 505.889 L807.955 505.889  Z" fill="#009af9" fill-rule="evenodd" fill-opacity="1"/>
<polyline clip-path="url(#clip322)" style="stroke:#000000; stroke-linecap:round; stroke-linejoin:round; stroke-width:4; stroke-opacity:1; fill:none" points="807.955,505.889 807.955,1423.18 917.419,1423.18 917.419,505.889 807.955,505.889 "/>
<path clip-path="url(#clip322)" d="M917.419 735.212 L917.419 1423.18 L1026.88 1423.18 L1026.88 735.212 L917.419 735.212 L917.419 735.212  Z" fill="#009af9" fill-rule="evenodd" fill-opacity="1"/>
<polyline clip-path="url(#clip322)" style="stroke:#000000; stroke-linecap:round; stroke-linejoin:round; stroke-width:4; stroke-opacity:1; fill:none" points="917.419,735.212 917.419,1423.18 1026.88,1423.18 1026.88,735.212 917.419,735.212 "/>
<path clip-path="url(#clip322)" d="M1026.88 658.771 L1026.88 1423.18 L1136.35 1423.18 L1136.35 658.771 L1026.88 658.771 L1026.88 658.771  Z" fill="#009af9" fill-rule="evenodd" fill-opacity="1"/>
<polyline clip-path="url(#clip322)" style="stroke:#000000; stroke-linecap:round; stroke-linejoin:round; stroke-width:4; stroke-opacity:1; fill:none" points="1026.88,658.771 1026.88,1423.18 1136.35,1423.18 1136.35,658.771 1026.88,658.771 "/>
<path clip-path="url(#clip322)" d="M1136.35 964.535 L1136.35 1423.18 L1245.81 1423.18 L1245.81 964.535 L1136.35 964.535 L1136.35 964.535  Z" fill="#009af9" fill-rule="evenodd" fill-opacity="1"/>
<polyline clip-path="url(#clip322)" style="stroke:#000000; stroke-linecap:round; stroke-linejoin:round; stroke-width:4; stroke-opacity:1; fill:none" points="1136.35,964.535 1136.35,1423.18 1245.81,1423.18 1245.81,964.535 1136.35,964.535 "/>
<path clip-path="url(#clip322)" d="M1245.81 47.2441 L1245.81 1423.18 L1355.28 1423.18 L1355.28 47.2441 L1245.81 47.2441 L1245.81 47.2441  Z" fill="#009af9" fill-rule="evenodd" fill-opacity="1"/>
<polyline clip-path="url(#clip322)" style="stroke:#000000; stroke-linecap:round; stroke-linejoin:round; stroke-width:4; stroke-opacity:1; fill:none" points="1245.81,47.2441 1245.81,1423.18 1355.28,1423.18 1355.28,47.2441 1245.81,47.2441 "/>
<path clip-path="url(#clip322)" d="M1355.28 1040.98 L1355.28 1423.18 L1464.74 1423.18 L1464.74 1040.98 L1355.28 1040.98 L1355.28 1040.98  Z" fill="#009af9" fill-rule="evenodd" fill-opacity="1"/>
<polyline clip-path="url(#clip322)" style="stroke:#000000; stroke-linecap:round; stroke-linejoin:round; stroke-width:4; stroke-opacity:1; fill:none" points="1355.28,1040.98 1355.28,1423.18 1464.74,1423.18 1464.74,1040.98 1355.28,1040.98 "/>
<path clip-path="url(#clip322)" d="M1464.74 964.535 L1464.74 1423.18 L1574.2 1423.18 L1574.2 964.535 L1464.74 964.535 L1464.74 964.535  Z" fill="#009af9" fill-rule="evenodd" fill-opacity="1"/>
<polyline clip-path="url(#clip322)" style="stroke:#000000; stroke-linecap:round; stroke-linejoin:round; stroke-width:4; stroke-opacity:1; fill:none" points="1464.74,964.535 1464.74,1423.18 1574.2,1423.18 1574.2,964.535 1464.74,964.535 "/>
<path clip-path="url(#clip322)" d="M1574.2 1346.74 L1574.2 1423.18 L1683.67 1423.18 L1683.67 1346.74 L1574.2 1346.74 L1574.2 1346.74  Z" fill="#009af9" fill-rule="evenodd" fill-opacity="1"/>
<polyline clip-path="url(#clip322)" style="stroke:#000000; stroke-linecap:round; stroke-linejoin:round; stroke-width:4; stroke-opacity:1; fill:none" points="1574.2,1346.74 1574.2,1423.18 1683.67,1423.18 1683.67,1346.74 1574.2,1346.74 "/>
<path clip-path="url(#clip322)" d="M1683.67 964.535 L1683.67 1423.18 L1793.13 1423.18 L1793.13 964.535 L1683.67 964.535 L1683.67 964.535  Z" fill="#009af9" fill-rule="evenodd" fill-opacity="1"/>
<polyline clip-path="url(#clip322)" style="stroke:#000000; stroke-linecap:round; stroke-linejoin:round; stroke-width:4; stroke-opacity:1; fill:none" points="1683.67,964.535 1683.67,1423.18 1793.13,1423.18 1793.13,964.535 1683.67,964.535 "/>
<path clip-path="url(#clip322)" d="M1793.13 1193.86 L1793.13 1423.18 L1902.6 1423.18 L1902.6 1193.86 L1793.13 1193.86 L1793.13 1193.86  Z" fill="#009af9" fill-rule="evenodd" fill-opacity="1"/>
<polyline clip-path="url(#clip322)" style="stroke:#000000; stroke-linecap:round; stroke-linejoin:round; stroke-width:4; stroke-opacity:1; fill:none" points="1793.13,1193.86 1793.13,1423.18 1902.6,1423.18 1902.6,1193.86 1793.13,1193.86 "/>
<path clip-path="url(#clip322)" d="M1902.6 888.094 L1902.6 1423.18 L2012.06 1423.18 L2012.06 888.094 L1902.6 888.094 L1902.6 888.094  Z" fill="#009af9" fill-rule="evenodd" fill-opacity="1"/>
<polyline clip-path="url(#clip322)" style="stroke:#000000; stroke-linecap:round; stroke-linejoin:round; stroke-width:4; stroke-opacity:1; fill:none" points="1902.6,888.094 1902.6,1423.18 2012.06,1423.18 2012.06,888.094 1902.6,888.094 "/>
<path clip-path="url(#clip322)" d="M2012.06 1270.3 L2012.06 1423.18 L2121.52 1423.18 L2121.52 1270.3 L2012.06 1270.3 L2012.06 1270.3  Z" fill="#009af9" fill-rule="evenodd" fill-opacity="1"/>
<polyline clip-path="url(#clip322)" style="stroke:#000000; stroke-linecap:round; stroke-linejoin:round; stroke-width:4; stroke-opacity:1; fill:none" points="2012.06,1270.3 2012.06,1423.18 2121.52,1423.18 2121.52,1270.3 2012.06,1270.3 "/>
<path clip-path="url(#clip322)" d="M2121.52 1346.74 L2121.52 1423.18 L2230.99 1423.18 L2230.99 1346.74 L2121.52 1346.74 L2121.52 1346.74  Z" fill="#009af9" fill-rule="evenodd" fill-opacity="1"/>
<polyline clip-path="url(#clip322)" style="stroke:#000000; stroke-linecap:round; stroke-linejoin:round; stroke-width:4; stroke-opacity:1; fill:none" points="2121.52,1346.74 2121.52,1423.18 2230.99,1423.18 2230.99,1346.74 2121.52,1346.74 "/>
<circle clip-path="url(#clip322)" style="fill:#009af9; stroke:none; fill-opacity:0" cx="315.367" cy="1270.3" r="2"/>
<circle clip-path="url(#clip322)" style="fill:#009af9; stroke:none; fill-opacity:0" cx="424.831" cy="1346.74" r="2"/>
<circle clip-path="url(#clip322)" style="fill:#009af9; stroke:none; fill-opacity:0" cx="534.295" cy="1270.3" r="2"/>
<circle clip-path="url(#clip322)" style="fill:#009af9; stroke:none; fill-opacity:0" cx="643.759" cy="1193.86" r="2"/>
<circle clip-path="url(#clip322)" style="fill:#009af9; stroke:none; fill-opacity:0" cx="753.223" cy="964.535" r="2"/>
<circle clip-path="url(#clip322)" style="fill:#009af9; stroke:none; fill-opacity:0" cx="862.687" cy="505.889" r="2"/>
<circle clip-path="url(#clip322)" style="fill:#009af9; stroke:none; fill-opacity:0" cx="972.151" cy="735.212" r="2"/>
<circle clip-path="url(#clip322)" style="fill:#009af9; stroke:none; fill-opacity:0" cx="1081.62" cy="658.771" r="2"/>
<circle clip-path="url(#clip322)" style="fill:#009af9; stroke:none; fill-opacity:0" cx="1191.08" cy="964.535" r="2"/>
<circle clip-path="url(#clip322)" style="fill:#009af9; stroke:none; fill-opacity:0" cx="1300.54" cy="47.2441" r="2"/>
<circle clip-path="url(#clip322)" style="fill:#009af9; stroke:none; fill-opacity:0" cx="1410.01" cy="1040.98" r="2"/>
<circle clip-path="url(#clip322)" style="fill:#009af9; stroke:none; fill-opacity:0" cx="1519.47" cy="964.535" r="2"/>
<circle clip-path="url(#clip322)" style="fill:#009af9; stroke:none; fill-opacity:0" cx="1628.94" cy="1346.74" r="2"/>
<circle clip-path="url(#clip322)" style="fill:#009af9; stroke:none; fill-opacity:0" cx="1738.4" cy="964.535" r="2"/>
<circle clip-path="url(#clip322)" style="fill:#009af9; stroke:none; fill-opacity:0" cx="1847.86" cy="1193.86" r="2"/>
<circle clip-path="url(#clip322)" style="fill:#009af9; stroke:none; fill-opacity:0" cx="1957.33" cy="888.094" r="2"/>
<circle clip-path="url(#clip322)" style="fill:#009af9; stroke:none; fill-opacity:0" cx="2066.79" cy="1270.3" r="2"/>
<circle clip-path="url(#clip322)" style="fill:#009af9; stroke:none; fill-opacity:0" cx="2176.26" cy="1346.74" r="2"/>
</svg>
