<?xml version="1.0" encoding="utf-8"?>
<svg xmlns="http://www.w3.org/2000/svg" xmlns:xlink="http://www.w3.org/1999/xlink" width="600" height="400" viewBox="0 0 2400 1600">
<defs>
  <clipPath id="clip600">
    <rect x="0" y="0" width="2400" height="1600"/>
  </clipPath>
</defs>
<path clip-path="url(#clip600)" d="M0 1600 L2400 1600 L2400 0 L0 0  Z" fill="#ffffff" fill-rule="evenodd" fill-opacity="1"/>
<defs>
  <clipPath id="clip601">
    <rect x="480" y="0" width="1681" height="1600"/>
  </clipPath>
</defs>
<path clip-path="url(#clip600)" d="M138.959 1423.18 L2352.76 1423.18 L2352.76 47.2441 L138.959 47.2441  Z" fill="#ffffff" fill-rule="evenodd" fill-opacity="1"/>
<defs>
  <clipPath id="clip602">
    <rect x="138" y="47" width="2215" height="1377"/>
  </clipPath>
</defs>
<polyline clip-path="url(#clip602)" style="stroke:#000000; stroke-linecap:round; stroke-linejoin:round; stroke-width:2; stroke-opacity:0.1; fill:none" points="370.182,1423.18 370.182,47.2441 "/>
<polyline clip-path="url(#clip602)" style="stroke:#000000; stroke-linecap:round; stroke-linejoin:round; stroke-width:2; stroke-opacity:0.1; fill:none" points="808.02,1423.18 808.02,47.2441 "/>
<polyline clip-path="url(#clip602)" style="stroke:#000000; stroke-linecap:round; stroke-linejoin:round; stroke-width:2; stroke-opacity:0.1; fill:none" points="1245.86,1423.18 1245.86,47.2441 "/>
<polyline clip-path="url(#clip602)" style="stroke:#000000; stroke-linecap:round; stroke-linejoin:round; stroke-width:2; stroke-opacity:0.1; fill:none" points="1683.7,1423.18 1683.7,47.2441 "/>
<polyline clip-path="url(#clip602)" style="stroke:#000000; stroke-linecap:round; stroke-linejoin:round; stroke-width:2; stroke-opacity:0.1; fill:none" points="2121.53,1423.18 2121.53,47.2441 "/>
<polyline clip-path="url(#clip600)" style="stroke:#000000; stroke-linecap:round; stroke-linejoin:round; stroke-width:4; stroke-opacity:1; fill:none" points="138.959,1423.18 2352.76,1423.18 "/>
<polyline clip-path="url(#clip600)" style="stroke:#000000; stroke-linecap:round; stroke-linejoin:round; stroke-width:4; stroke-opacity:1; fill:none" points="370.182,1423.18 370.182,1404.28 "/>
<polyline clip-path="url(#clip600)" style="stroke:#000000; stroke-linecap:round; stroke-linejoin:round; stroke-width:4; stroke-opacity:1; fill:none" points="808.02,1423.18 808.02,1404.28 "/>
<polyline clip-path="url(#clip600)" style="stroke:#000000; stroke-linecap:round; stroke-linejoin:round; stroke-width:4; stroke-opacity:1; fill:none" points="1245.86,1423.18 1245.86,1404.28 "/>
<polyline clip-path="url(#clip600)" style="stroke:#000000; stroke-linecap:round; stroke-linejoin:round; stroke-width:4; stroke-opacity:1; fill:none" points="1683.7,1423.18 1683.7,1404.28 "/>
<polyline clip-path="url(#clip600)" style="stroke:#000000; stroke-linecap:round; stroke-linejoin:round; stroke-width:4; stroke-opacity:1; fill:none" points="2121.53,1423.18 2121.53,1404.28 "/>
<path clip-path="url(#clip600)" d="M329.788 1481.64 L337.427 1481.64 L337.427 1455.28 L329.117 1456.95 L329.117 1452.69 L337.381 1451.02 L342.057 1451.02 L342.057 1481.64 L349.696 1481.64 L349.696 1485.58 L329.788 1485.58 L329.788 1481.64 Z" fill="#000000" fill-rule="nonzero" fill-opacity="1" /><path clip-path="url(#clip600)" d="M369.719 1466.44 Q366.571 1466.44 364.719 1468.59 Q362.89 1470.74 362.89 1474.49 Q362.89 1478.22 364.719 1480.39 Q366.571 1482.55 369.719 1482.55 Q372.867 1482.55 374.696 1480.39 Q376.547 1478.22 376.547 1474.49 Q376.547 1470.74 374.696 1468.59 Q372.867 1466.44 369.719 1466.44 M379.001 1451.78 L379.001 1456.04 Q377.242 1455.21 375.436 1454.77 Q373.654 1454.33 371.895 1454.33 Q367.265 1454.33 364.811 1457.45 Q362.381 1460.58 362.034 1466.9 Q363.399 1464.89 365.459 1463.82 Q367.52 1462.73 369.997 1462.73 Q375.205 1462.73 378.214 1465.9 Q381.246 1469.05 381.246 1474.49 Q381.246 1479.82 378.098 1483.03 Q374.95 1486.25 369.719 1486.25 Q363.723 1486.25 360.552 1481.67 Q357.381 1477.06 357.381 1468.33 Q357.381 1460.14 361.27 1455.28 Q365.159 1450.39 371.709 1450.39 Q373.469 1450.39 375.251 1450.74 Q377.057 1451.09 379.001 1451.78 Z" fill="#000000" fill-rule="nonzero" fill-opacity="1" /><path clip-path="url(#clip600)" d="M399.302 1454.1 Q395.691 1454.1 393.862 1457.66 Q392.057 1461.2 392.057 1468.33 Q392.057 1475.44 393.862 1479.01 Q395.691 1482.55 399.302 1482.55 Q402.936 1482.55 404.742 1479.01 Q406.57 1475.44 406.57 1468.33 Q406.57 1461.2 404.742 1457.66 Q402.936 1454.1 399.302 1454.1 M399.302 1450.39 Q405.112 1450.39 408.168 1455 Q411.246 1459.58 411.246 1468.33 Q411.246 1477.06 408.168 1481.67 Q405.112 1486.25 399.302 1486.25 Q393.492 1486.25 390.413 1481.67 Q387.358 1477.06 387.358 1468.33 Q387.358 1459.58 390.413 1455 Q393.492 1450.39 399.302 1450.39 Z" fill="#000000" fill-rule="nonzero" fill-opacity="1" /><path clip-path="url(#clip600)" d="M767.626 1481.64 L775.265 1481.64 L775.265 1455.28 L766.955 1456.95 L766.955 1452.69 L775.219 1451.02 L779.895 1451.02 L779.895 1481.64 L787.534 1481.64 L787.534 1485.58 L767.626 1485.58 L767.626 1481.64 Z" fill="#000000" fill-rule="nonzero" fill-opacity="1" /><path clip-path="url(#clip600)" d="M806.978 1469.17 Q803.645 1469.17 801.723 1470.95 Q799.825 1472.73 799.825 1475.86 Q799.825 1478.98 801.723 1480.77 Q803.645 1482.55 806.978 1482.55 Q810.311 1482.55 812.233 1480.77 Q814.154 1478.96 814.154 1475.86 Q814.154 1472.73 812.233 1470.95 Q810.334 1469.17 806.978 1469.17 M802.302 1467.18 Q799.293 1466.44 797.603 1464.38 Q795.936 1462.32 795.936 1459.35 Q795.936 1455.21 798.876 1452.8 Q801.839 1450.39 806.978 1450.39 Q812.14 1450.39 815.08 1452.8 Q818.02 1455.21 818.02 1459.35 Q818.02 1462.32 816.33 1464.38 Q814.663 1466.44 811.677 1467.18 Q815.057 1467.96 816.932 1470.26 Q818.83 1472.55 818.83 1475.86 Q818.83 1480.88 815.751 1483.57 Q812.696 1486.25 806.978 1486.25 Q801.26 1486.25 798.182 1483.57 Q795.126 1480.88 795.126 1475.86 Q795.126 1472.55 797.024 1470.26 Q798.923 1467.96 802.302 1467.18 M800.589 1459.79 Q800.589 1462.48 802.256 1463.98 Q803.946 1465.49 806.978 1465.49 Q809.987 1465.49 811.677 1463.98 Q813.39 1462.48 813.39 1459.79 Q813.39 1457.11 811.677 1455.6 Q809.987 1454.1 806.978 1454.1 Q803.946 1454.1 802.256 1455.6 Q800.589 1457.11 800.589 1459.79 Z" fill="#000000" fill-rule="nonzero" fill-opacity="1" /><path clip-path="url(#clip600)" d="M837.14 1454.1 Q833.529 1454.1 831.7 1457.66 Q829.895 1461.2 829.895 1468.33 Q829.895 1475.44 831.7 1479.01 Q833.529 1482.55 837.14 1482.55 Q840.774 1482.55 842.58 1479.01 Q844.408 1475.44 844.408 1468.33 Q844.408 1461.2 842.58 1457.66 Q840.774 1454.1 837.14 1454.1 M837.14 1450.39 Q842.95 1450.39 846.006 1455 Q849.084 1459.58 849.084 1468.33 Q849.084 1477.06 846.006 1481.67 Q842.95 1486.25 837.14 1486.25 Q831.33 1486.25 828.251 1481.67 Q825.196 1477.06 825.196 1468.33 Q825.196 1459.58 828.251 1455 Q831.33 1450.39 837.14 1450.39 Z" fill="#000000" fill-rule="nonzero" fill-opacity="1" /><path clip-path="url(#clip600)" d="M1209.55 1481.64 L1225.87 1481.64 L1225.87 1485.58 L1203.93 1485.58 L1203.93 1481.64 Q1206.59 1478.89 1211.17 1474.26 Q1215.78 1469.61 1216.96 1468.27 Q1219.2 1465.74 1220.08 1464.01 Q1220.99 1462.25 1220.99 1460.56 Q1220.99 1457.8 1219.04 1456.07 Q1217.12 1454.33 1214.02 1454.33 Q1211.82 1454.33 1209.36 1455.09 Q1206.93 1455.86 1204.16 1457.41 L1204.16 1452.69 Q1206.98 1451.55 1209.43 1450.97 Q1211.89 1450.39 1213.92 1450.39 Q1219.3 1450.39 1222.49 1453.08 Q1225.68 1455.77 1225.68 1460.26 Q1225.68 1462.39 1224.87 1464.31 Q1224.09 1466.2 1221.98 1468.8 Q1221.4 1469.47 1218.3 1472.69 Q1215.2 1475.88 1209.55 1481.64 Z" fill="#000000" fill-rule="nonzero" fill-opacity="1" /><path clip-path="url(#clip600)" d="M1245.68 1454.1 Q1242.07 1454.1 1240.24 1457.66 Q1238.44 1461.2 1238.44 1468.33 Q1238.44 1475.44 1240.24 1479.01 Q1242.07 1482.55 1245.68 1482.55 Q1249.32 1482.55 1251.12 1479.01 Q1252.95 1475.44 1252.95 1468.33 Q1252.95 1461.2 1251.12 1457.66 Q1249.32 1454.1 1245.68 1454.1 M1245.68 1450.39 Q1251.49 1450.39 1254.55 1455 Q1257.63 1459.58 1257.63 1468.33 Q1257.63 1477.06 1254.55 1481.67 Q1251.49 1486.25 1245.68 1486.25 Q1239.87 1486.25 1236.8 1481.67 Q1233.74 1477.06 1233.74 1468.33 Q1233.74 1459.58 1236.8 1455 Q1239.87 1450.39 1245.68 1450.39 Z" fill="#000000" fill-rule="nonzero" fill-opacity="1" /><path clip-path="url(#clip600)" d="M1275.85 1454.1 Q1272.23 1454.1 1270.41 1457.66 Q1268.6 1461.2 1268.6 1468.33 Q1268.6 1475.44 1270.41 1479.01 Q1272.23 1482.55 1275.85 1482.55 Q1279.48 1482.55 1281.29 1479.01 Q1283.11 1475.44 1283.11 1468.33 Q1283.11 1461.2 1281.29 1457.66 Q1279.48 1454.1 1275.85 1454.1 M1275.85 1450.39 Q1281.66 1450.39 1284.71 1455 Q1287.79 1459.58 1287.79 1468.33 Q1287.79 1477.06 1284.71 1481.67 Q1281.66 1486.25 1275.85 1486.25 Q1270.04 1486.25 1266.96 1481.67 Q1263.9 1477.06 1263.9 1468.33 Q1263.9 1459.58 1266.96 1455 Q1270.04 1450.39 1275.85 1450.39 Z" fill="#000000" fill-rule="nonzero" fill-opacity="1" /><path clip-path="url(#clip600)" d="M1647.39 1481.64 L1663.71 1481.64 L1663.71 1485.58 L1641.76 1485.58 L1641.76 1481.64 Q1644.43 1478.89 1649.01 1474.26 Q1653.61 1469.61 1654.8 1468.27 Q1657.04 1465.74 1657.92 1464.01 Q1658.82 1462.25 1658.82 1460.56 Q1658.82 1457.8 1656.88 1456.07 Q1654.96 1454.33 1651.86 1454.33 Q1649.66 1454.33 1647.2 1455.09 Q1644.77 1455.86 1641.99 1457.41 L1641.99 1452.69 Q1644.82 1451.55 1647.27 1450.97 Q1649.73 1450.39 1651.76 1450.39 Q1657.13 1450.39 1660.33 1453.08 Q1663.52 1455.77 1663.52 1460.26 Q1663.52 1462.39 1662.71 1464.31 Q1661.92 1466.2 1659.82 1468.8 Q1659.24 1469.47 1656.14 1472.69 Q1653.04 1475.88 1647.39 1481.64 Z" fill="#000000" fill-rule="nonzero" fill-opacity="1" /><path clip-path="url(#clip600)" d="M1677.55 1481.64 L1693.87 1481.64 L1693.87 1485.58 L1671.92 1485.58 L1671.92 1481.64 Q1674.59 1478.89 1679.17 1474.26 Q1683.78 1469.61 1684.96 1468.27 Q1687.2 1465.74 1688.08 1464.01 Q1688.98 1462.25 1688.98 1460.56 Q1688.98 1457.8 1687.04 1456.07 Q1685.12 1454.33 1682.02 1454.33 Q1679.82 1454.33 1677.36 1455.09 Q1674.93 1455.86 1672.16 1457.41 L1672.16 1452.69 Q1674.98 1451.55 1677.43 1450.97 Q1679.89 1450.39 1681.92 1450.39 Q1687.3 1450.39 1690.49 1453.08 Q1693.68 1455.77 1693.68 1460.26 Q1693.68 1462.39 1692.87 1464.31 Q1692.09 1466.2 1689.98 1468.8 Q1689.4 1469.47 1686.3 1472.69 Q1683.2 1475.88 1677.55 1481.64 Z" fill="#000000" fill-rule="nonzero" fill-opacity="1" /><path clip-path="url(#clip600)" d="M1713.68 1454.1 Q1710.07 1454.1 1708.24 1457.66 Q1706.44 1461.2 1706.44 1468.33 Q1706.44 1475.44 1708.24 1479.01 Q1710.07 1482.55 1713.68 1482.55 Q1717.32 1482.55 1719.12 1479.01 Q1720.95 1475.44 1720.95 1468.33 Q1720.95 1461.2 1719.12 1457.66 Q1717.32 1454.1 1713.68 1454.1 M1713.68 1450.39 Q1719.49 1450.39 1722.55 1455 Q1725.63 1459.58 1725.63 1468.33 Q1725.63 1477.06 1722.55 1481.67 Q1719.49 1486.25 1713.68 1486.25 Q1707.87 1486.25 1704.8 1481.67 Q1701.74 1477.06 1701.74 1468.33 Q1701.74 1459.58 1704.8 1455 Q1707.87 1450.39 1713.68 1450.39 Z" fill="#000000" fill-rule="nonzero" fill-opacity="1" /><path clip-path="url(#clip600)" d="M2085.23 1481.64 L2101.55 1481.64 L2101.55 1485.58 L2079.6 1485.58 L2079.6 1481.64 Q2082.26 1478.89 2086.85 1474.26 Q2091.45 1469.61 2092.63 1468.27 Q2094.88 1465.74 2095.76 1464.01 Q2096.66 1462.25 2096.66 1460.56 Q2096.66 1457.8 2094.72 1456.07 Q2092.8 1454.33 2089.69 1454.33 Q2087.49 1454.33 2085.04 1455.09 Q2082.61 1455.86 2079.83 1457.41 L2079.83 1452.69 Q2082.66 1451.55 2085.11 1450.97 Q2087.56 1450.39 2089.6 1450.39 Q2094.97 1450.39 2098.17 1453.08 Q2101.36 1455.77 2101.36 1460.26 Q2101.36 1462.39 2100.55 1464.31 Q2099.76 1466.2 2097.66 1468.8 Q2097.08 1469.47 2093.98 1472.69 Q2090.87 1475.88 2085.23 1481.64 Z" fill="#000000" fill-rule="nonzero" fill-opacity="1" /><path clip-path="url(#clip600)" d="M2124.21 1455.09 L2112.4 1473.54 L2124.21 1473.54 L2124.21 1455.09 M2122.98 1451.02 L2128.86 1451.02 L2128.86 1473.54 L2133.79 1473.54 L2133.79 1477.43 L2128.86 1477.43 L2128.86 1485.58 L2124.21 1485.58 L2124.21 1477.43 L2108.61 1477.43 L2108.61 1472.92 L2122.98 1451.02 Z" fill="#000000" fill-rule="nonzero" fill-opacity="1" /><path clip-path="url(#clip600)" d="M2151.52 1454.1 Q2147.91 1454.1 2146.08 1457.66 Q2144.28 1461.2 2144.28 1468.33 Q2144.28 1475.44 2146.08 1479.01 Q2147.91 1482.55 2151.52 1482.55 Q2155.16 1482.55 2156.96 1479.01 Q2158.79 1475.44 2158.79 1468.33 Q2158.79 1461.2 2156.96 1457.66 Q2155.16 1454.1 2151.52 1454.1 M2151.52 1450.39 Q2157.33 1450.39 2160.39 1455 Q2163.47 1459.58 2163.47 1468.33 Q2163.47 1477.06 2160.39 1481.67 Q2157.33 1486.25 2151.52 1486.25 Q2145.71 1486.25 2142.63 1481.67 Q2139.58 1477.06 2139.58 1468.33 Q2139.58 1459.58 2142.63 1455 Q2145.71 1450.39 2151.52 1450.39 Z" fill="#000000" fill-rule="nonzero" fill-opacity="1" /><path clip-path="url(#clip600)" d="M1120.23 1525.81 L1120.23 1562.76 L1128 1562.76 Q1137.83 1562.76 1142.38 1558.3 Q1146.97 1553.85 1146.97 1544.24 Q1146.97 1534.69 1142.38 1530.26 Q1137.83 1525.81 1128 1525.81 L1120.23 1525.81 M1113.8 1520.52 L1127.01 1520.52 Q1140.82 1520.52 1147.28 1526.28 Q1153.75 1532.01 1153.75 1544.24 Q1153.75 1556.52 1147.25 1562.28 Q1140.76 1568.04 1127.01 1568.04 L1113.8 1568.04 L1113.8 1520.52 Z" fill="#000000" fill-rule="nonzero" fill-opacity="1" /><path clip-path="url(#clip600)" d="M1194.23 1548.76 L1194.23 1551.62 L1167.3 1551.62 Q1167.69 1557.67 1170.93 1560.85 Q1174.21 1564 1180.04 1564 Q1183.41 1564 1186.56 1563.17 Q1189.74 1562.35 1192.86 1560.69 L1192.86 1566.23 Q1189.71 1567.57 1186.4 1568.27 Q1183.09 1568.97 1179.69 1568.97 Q1171.16 1568.97 1166.16 1564 Q1161.19 1559.04 1161.19 1550.57 Q1161.19 1541.82 1165.9 1536.69 Q1170.65 1531.54 1178.67 1531.54 Q1185.86 1531.54 1190.03 1536.18 Q1194.23 1540.8 1194.23 1548.76 M1188.38 1547.04 Q1188.31 1542.23 1185.67 1539.37 Q1183.06 1536.5 1178.73 1536.5 Q1173.83 1536.5 1170.87 1539.27 Q1167.94 1542.04 1167.5 1547.07 L1188.38 1547.04 Z" fill="#000000" fill-rule="nonzero" fill-opacity="1" /><path clip-path="url(#clip600)" d="M1231.6 1539.24 Q1233.79 1535.29 1236.85 1533.41 Q1239.91 1531.54 1244.04 1531.54 Q1249.61 1531.54 1252.64 1535.45 Q1255.66 1539.33 1255.66 1546.53 L1255.66 1568.04 L1249.77 1568.04 L1249.77 1546.72 Q1249.77 1541.59 1247.96 1539.11 Q1246.14 1536.63 1242.42 1536.63 Q1237.87 1536.63 1235.23 1539.65 Q1232.59 1542.68 1232.59 1547.9 L1232.59 1568.04 L1226.7 1568.04 L1226.7 1546.72 Q1226.7 1541.56 1224.88 1539.11 Q1223.07 1536.63 1219.28 1536.63 Q1214.79 1536.63 1212.15 1539.68 Q1209.51 1542.71 1209.51 1547.9 L1209.51 1568.04 L1203.62 1568.04 L1203.62 1532.4 L1209.51 1532.4 L1209.51 1537.93 Q1211.51 1534.66 1214.32 1533.1 Q1217.12 1531.54 1220.97 1531.54 Q1224.85 1531.54 1227.56 1533.51 Q1230.29 1535.48 1231.6 1539.24 Z" fill="#000000" fill-rule="nonzero" fill-opacity="1" /><path clip-path="url(#clip600)" d="M1283.54 1550.12 Q1276.44 1550.12 1273.71 1551.75 Q1270.97 1553.37 1270.97 1557.29 Q1270.97 1560.4 1273.01 1562.25 Q1275.08 1564.07 1278.61 1564.07 Q1283.48 1564.07 1286.41 1560.63 Q1289.37 1557.16 1289.37 1551.43 L1289.37 1550.12 L1283.54 1550.12 M1295.22 1547.71 L1295.22 1568.04 L1289.37 1568.04 L1289.37 1562.63 Q1287.36 1565.88 1284.37 1567.44 Q1281.38 1568.97 1277.05 1568.97 Q1271.58 1568.97 1268.33 1565.91 Q1265.11 1562.82 1265.11 1557.67 Q1265.11 1551.65 1269.12 1548.6 Q1273.17 1545.54 1281.16 1545.54 L1289.37 1545.54 L1289.37 1544.97 Q1289.37 1540.93 1286.69 1538.73 Q1284.05 1536.5 1279.25 1536.5 Q1276.19 1536.5 1273.29 1537.23 Q1270.4 1537.97 1267.72 1539.43 L1267.72 1534.02 Q1270.94 1532.78 1273.96 1532.17 Q1276.99 1531.54 1279.85 1531.54 Q1287.58 1531.54 1291.4 1535.55 Q1295.22 1539.56 1295.22 1547.71 Z" fill="#000000" fill-rule="nonzero" fill-opacity="1" /><path clip-path="url(#clip600)" d="M1336.92 1546.53 L1336.92 1568.04 L1331.06 1568.04 L1331.06 1546.72 Q1331.06 1541.66 1329.09 1539.14 Q1327.12 1536.63 1323.17 1536.63 Q1318.43 1536.63 1315.69 1539.65 Q1312.95 1542.68 1312.95 1547.9 L1312.95 1568.04 L1307.06 1568.04 L1307.06 1532.4 L1312.95 1532.4 L1312.95 1537.93 Q1315.05 1534.72 1317.89 1533.13 Q1320.75 1531.54 1324.47 1531.54 Q1330.62 1531.54 1333.77 1535.36 Q1336.92 1539.14 1336.92 1546.53 Z" fill="#000000" fill-rule="nonzero" fill-opacity="1" /><path clip-path="url(#clip600)" d="M1372.06 1537.81 L1372.06 1518.52 L1377.91 1518.52 L1377.91 1568.04 L1372.06 1568.04 L1372.06 1562.7 Q1370.21 1565.88 1367.38 1567.44 Q1364.58 1568.97 1360.63 1568.97 Q1354.17 1568.97 1350.1 1563.81 Q1346.05 1558.65 1346.05 1550.25 Q1346.05 1541.85 1350.1 1536.69 Q1354.17 1531.54 1360.63 1531.54 Q1364.58 1531.54 1367.38 1533.1 Q1370.21 1534.62 1372.06 1537.81 M1352.1 1550.25 Q1352.1 1556.71 1354.74 1560.4 Q1357.42 1564.07 1362.06 1564.07 Q1366.71 1564.07 1369.38 1560.4 Q1372.06 1556.71 1372.06 1550.25 Q1372.06 1543.79 1369.38 1540.13 Q1366.71 1536.44 1362.06 1536.44 Q1357.42 1536.44 1354.74 1540.13 Q1352.1 1543.79 1352.1 1550.25 Z" fill="#000000" fill-rule="nonzero" fill-opacity="1" /><polyline clip-path="url(#clip602)" style="stroke:#000000; stroke-linecap:round; stroke-linejoin:round; stroke-width:2; stroke-opacity:0.1; fill:none" points="138.959,1423.18 2352.76,1423.18 "/>
<polyline clip-path="url(#clip602)" style="stroke:#000000; stroke-linecap:round; stroke-linejoin:round; stroke-width:2; stroke-opacity:0.1; fill:none" points="138.959,1193.86 2352.76,1193.86 "/>
<polyline clip-path="url(#clip602)" style="stroke:#000000; stroke-linecap:round; stroke-linejoin:round; stroke-width:2; stroke-opacity:0.1; fill:none" points="138.959,964.535 2352.76,964.535 "/>
<polyline clip-path="url(#clip602)" style="stroke:#000000; stroke-linecap:round; stroke-linejoin:round; stroke-width:2; stroke-opacity:0.1; fill:none" points="138.959,735.212 2352.76,735.212 "/>
<polyline clip-path="url(#clip602)" style="stroke:#000000; stroke-linecap:round; stroke-linejoin:round; stroke-width:2; stroke-opacity:0.1; fill:none" points="138.959,505.889 2352.76,505.889 "/>
<polyline clip-path="url(#clip602)" style="stroke:#000000; stroke-linecap:round; stroke-linejoin:round; stroke-width:2; stroke-opacity:0.1; fill:none" points="138.959,276.567 2352.76,276.567 "/>
<polyline clip-path="url(#clip602)" style="stroke:#000000; stroke-linecap:round; stroke-linejoin:round; stroke-width:2; stroke-opacity:0.1; fill:none" points="138.959,47.2441 2352.76,47.2441 "/>
<polyline clip-path="url(#clip600)" style="stroke:#000000; stroke-linecap:round; stroke-linejoin:round; stroke-width:4; stroke-opacity:1; fill:none" points="138.959,1423.18 138.959,47.2441 "/>
<polyline clip-path="url(#clip600)" style="stroke:#000000; stroke-linecap:round; stroke-linejoin:round; stroke-width:4; stroke-opacity:1; fill:none" points="138.959,1423.18 157.857,1423.18 "/>
<polyline clip-path="url(#clip600)" style="stroke:#000000; stroke-linecap:round; stroke-linejoin:round; stroke-width:4; stroke-opacity:1; fill:none" points="138.959,1193.86 157.857,1193.86 "/>
<polyline clip-path="url(#clip600)" style="stroke:#000000; stroke-linecap:round; stroke-linejoin:round; stroke-width:4; stroke-opacity:1; fill:none" points="138.959,964.535 157.857,964.535 "/>
<polyline clip-path="url(#clip600)" style="stroke:#000000; stroke-linecap:round; stroke-linejoin:round; stroke-width:4; stroke-opacity:1; fill:none" points="138.959,735.212 157.857,735.212 "/>
<polyline clip-path="url(#clip600)" style="stroke:#000000; stroke-linecap:round; stroke-linejoin:round; stroke-width:4; stroke-opacity:1; fill:none" points="138.959,505.889 157.857,505.889 "/>
<polyline clip-path="url(#clip600)" style="stroke:#000000; stroke-linecap:round; stroke-linejoin:round; stroke-width:4; stroke-opacity:1; fill:none" points="138.959,276.567 157.857,276.567 "/>
<polyline clip-path="url(#clip600)" style="stroke:#000000; stroke-linecap:round; stroke-linejoin:round; stroke-width:4; stroke-opacity:1; fill:none" points="138.959,47.2441 157.857,47.2441 "/>
<path clip-path="url(#clip600)" d="M91.0151 1408.98 Q87.404 1408.98 85.5753 1412.54 Q83.7697 1416.08 83.7697 1423.21 Q83.7697 1430.32 85.5753 1433.89 Q87.404 1437.43 91.0151 1437.43 Q94.6493 1437.43 96.4548 1433.89 Q98.2835 1430.32 98.2835 1423.21 Q98.2835 1416.08 96.4548 1412.54 Q94.6493 1408.98 91.0151 1408.98 M91.0151 1405.27 Q96.8252 1405.27 99.8808 1409.88 Q102.959 1414.46 102.959 1423.21 Q102.959 1431.94 99.8808 1436.55 Q96.8252 1441.13 91.0151 1441.13 Q85.2049 1441.13 82.1262 1436.55 Q79.0707 1431.94 79.0707 1423.21 Q79.0707 1414.46 82.1262 1409.88 Q85.2049 1405.27 91.0151 1405.27 Z" fill="#000000" fill-rule="nonzero" fill-opacity="1" /><path clip-path="url(#clip600)" d="M86.6401 1207.2 L102.959 1207.2 L102.959 1211.14 L81.0151 1211.14 L81.0151 1207.2 Q83.6771 1204.45 88.2604 1199.82 Q92.8669 1195.17 94.0475 1193.82 Q96.2928 1191.3 97.1724 1189.56 Q98.0752 1187.8 98.0752 1186.11 Q98.0752 1183.36 96.1308 1181.62 Q94.2095 1179.89 91.1077 1179.89 Q88.9086 1179.89 86.4549 1180.65 Q84.0244 1181.42 81.2466 1182.97 L81.2466 1178.24 Q84.0707 1177.11 86.5243 1176.53 Q88.978 1175.95 91.0151 1175.95 Q96.3854 1175.95 99.5798 1178.64 Q102.774 1181.32 102.774 1185.81 Q102.774 1187.94 101.964 1189.86 Q101.177 1191.76 99.0706 1194.35 Q98.4919 1195.03 95.39 1198.24 Q92.2882 1201.44 86.6401 1207.2 Z" fill="#000000" fill-rule="nonzero" fill-opacity="1" /><path clip-path="url(#clip600)" d="M93.3762 951.329 L81.5707 969.778 L93.3762 969.778 L93.3762 951.329 M92.1493 947.255 L98.0289 947.255 L98.0289 969.778 L102.959 969.778 L102.959 973.666 L98.0289 973.666 L98.0289 981.815 L93.3762 981.815 L93.3762 973.666 L77.7744 973.666 L77.7744 969.153 L92.1493 947.255 Z" fill="#000000" fill-rule="nonzero" fill-opacity="1" /><path clip-path="url(#clip600)" d="M91.4317 733.349 Q88.2836 733.349 86.4318 735.501 Q84.6031 737.654 84.6031 741.404 Q84.6031 745.131 86.4318 747.307 Q88.2836 749.46 91.4317 749.46 Q94.5799 749.46 96.4085 747.307 Q98.2604 745.131 98.2604 741.404 Q98.2604 737.654 96.4085 735.501 Q94.5799 733.349 91.4317 733.349 M100.714 718.696 L100.714 722.955 Q98.9548 722.122 97.1493 721.682 Q95.3669 721.242 93.6076 721.242 Q88.978 721.242 86.5243 724.367 Q84.0938 727.492 83.7466 733.812 Q85.1123 731.798 87.1725 730.733 Q89.2327 729.645 91.7095 729.645 Q96.9178 729.645 99.927 732.816 Q102.959 735.964 102.959 741.404 Q102.959 746.728 99.8113 749.946 Q96.6632 753.163 91.4317 753.163 Q85.4364 753.163 82.2651 748.58 Q79.0938 743.973 79.0938 735.247 Q79.0938 727.052 82.9827 722.191 Q86.8716 717.307 93.4225 717.307 Q95.1817 717.307 96.9641 717.654 Q98.7696 718.001 100.714 718.696 Z" fill="#000000" fill-rule="nonzero" fill-opacity="1" /><path clip-path="url(#clip600)" d="M91.1077 506.757 Q87.7743 506.757 85.8531 508.54 Q83.9549 510.322 83.9549 513.447 Q83.9549 516.572 85.8531 518.355 Q87.7743 520.137 91.1077 520.137 Q94.441 520.137 96.3623 518.355 Q98.2835 516.549 98.2835 513.447 Q98.2835 510.322 96.3623 508.54 Q94.4641 506.757 91.1077 506.757 M86.4318 504.767 Q83.4225 504.026 81.7327 501.966 Q80.066 499.906 80.066 496.943 Q80.066 492.799 83.0058 490.392 Q85.9688 487.984 91.1077 487.984 Q96.2697 487.984 99.2095 490.392 Q102.149 492.799 102.149 496.943 Q102.149 499.906 100.459 501.966 Q98.7928 504.026 95.8067 504.767 Q99.1863 505.554 101.061 507.845 Q102.959 510.137 102.959 513.447 Q102.959 518.47 99.8808 521.155 Q96.8252 523.841 91.1077 523.841 Q85.3901 523.841 82.3114 521.155 Q79.2559 518.47 79.2559 513.447 Q79.2559 510.137 81.154 507.845 Q83.0521 505.554 86.4318 504.767 M84.7188 497.382 Q84.7188 500.068 86.3855 501.572 Q88.0753 503.077 91.1077 503.077 Q94.1169 503.077 95.8067 501.572 Q97.5197 500.068 97.5197 497.382 Q97.5197 494.697 95.8067 493.193 Q94.1169 491.688 91.1077 491.688 Q88.0753 491.688 86.3855 493.193 Q84.7188 494.697 84.7188 497.382 Z" fill="#000000" fill-rule="nonzero" fill-opacity="1" /><path clip-path="url(#clip600)" d="M51.6634 289.912 L59.3023 289.912 L59.3023 263.546 L50.9921 265.213 L50.9921 260.953 L59.256 259.287 L63.9319 259.287 L63.9319 289.912 L71.5707 289.912 L71.5707 293.847 L51.6634 293.847 L51.6634 289.912 Z" fill="#000000" fill-rule="nonzero" fill-opacity="1" /><path clip-path="url(#clip600)" d="M91.0151 262.365 Q87.404 262.365 85.5753 265.93 Q83.7697 269.472 83.7697 276.601 Q83.7697 283.708 85.5753 287.273 Q87.404 290.814 91.0151 290.814 Q94.6493 290.814 96.4548 287.273 Q98.2835 283.708 98.2835 276.601 Q98.2835 269.472 96.4548 265.93 Q94.6493 262.365 91.0151 262.365 M91.0151 258.662 Q96.8252 258.662 99.8808 263.268 Q102.959 267.851 102.959 276.601 Q102.959 285.328 99.8808 289.935 Q96.8252 294.518 91.0151 294.518 Q85.2049 294.518 82.1262 289.935 Q79.0707 285.328 79.0707 276.601 Q79.0707 267.851 82.1262 263.268 Q85.2049 258.662 91.0151 258.662 Z" fill="#000000" fill-rule="nonzero" fill-opacity="1" /><path clip-path="url(#clip600)" d="M53.2606 60.5889 L60.8995 60.5889 L60.8995 34.2233 L52.5893 35.89 L52.5893 31.6308 L60.8532 29.9641 L65.5291 29.9641 L65.5291 60.5889 L73.1679 60.5889 L73.1679 64.5241 L53.2606 64.5241 L53.2606 60.5889 Z" fill="#000000" fill-rule="nonzero" fill-opacity="1" /><path clip-path="url(#clip600)" d="M86.6401 60.5889 L102.959 60.5889 L102.959 64.5241 L81.0151 64.5241 L81.0151 60.5889 Q83.6771 57.8343 88.2604 53.2047 Q92.8669 48.552 94.0475 47.2094 Q96.2928 44.6862 97.1724 42.9501 Q98.0752 41.1909 98.0752 39.5011 Q98.0752 36.7465 96.1308 35.0104 Q94.2095 33.2743 91.1077 33.2743 Q88.9086 33.2743 86.4549 34.0381 Q84.0244 34.802 81.2466 36.3529 L81.2466 31.6308 Q84.0707 30.4965 86.5243 29.9178 Q88.978 29.3391 91.0151 29.3391 Q96.3854 29.3391 99.5798 32.0243 Q102.774 34.7094 102.774 39.2002 Q102.774 41.3298 101.964 43.2511 Q101.177 45.1492 99.0706 47.7418 Q98.4919 48.4131 95.39 51.6306 Q92.2882 54.8251 86.6401 60.5889 Z" fill="#000000" fill-rule="nonzero" fill-opacity="1" /><path clip-path="url(#clip602)" d="M260.722 1079.2 L260.722 1423.18 L370.182 1423.18 L370.182 1079.2 L260.722 1079.2 L260.722 1079.2  Z" fill="#009af9" fill-rule="evenodd" fill-opacity="1"/>
<polyline clip-path="url(#clip602)" style="stroke:#000000; stroke-linecap:round; stroke-linejoin:round; stroke-width:4; stroke-opacity:1; fill:none" points="260.722,1079.2 260.722,1423.18 370.182,1423.18 370.182,1079.2 260.722,1079.2 "/>
<path clip-path="url(#clip602)" d="M370.182 1079.2 L370.182 1423.18 L479.641 1423.18 L479.641 1079.2 L370.182 1079.2 L370.182 1079.2  Z" fill="#009af9" fill-rule="evenodd" fill-opacity="1"/>
<polyline clip-path="url(#clip602)" style="stroke:#000000; stroke-linecap:round; stroke-linejoin:round; stroke-width:4; stroke-opacity:1; fill:none" points="370.182,1079.2 370.182,1423.18 479.641,1423.18 479.641,1079.2 370.182,1079.2 "/>
<path clip-path="url(#clip602)" d="M479.641 849.873 L479.641 1423.18 L589.101 1423.18 L589.101 849.873 L479.641 849.873 L479.641 849.873  Z" fill="#009af9" fill-rule="evenodd" fill-opacity="1"/>
<polyline clip-path="url(#clip602)" style="stroke:#000000; stroke-linecap:round; stroke-linejoin:round; stroke-width:4; stroke-opacity:1; fill:none" points="479.641,849.873 479.641,1423.18 589.101,1423.18 589.101,849.873 479.641,849.873 "/>
<path clip-path="url(#clip602)" d="M589.101 849.873 L589.101 1423.18 L698.56 1423.18 L698.56 849.873 L589.101 849.873 L589.101 849.873  Z" fill="#009af9" fill-rule="evenodd" fill-opacity="1"/>
<polyline clip-path="url(#clip602)" style="stroke:#000000; stroke-linecap:round; stroke-linejoin:round; stroke-width:4; stroke-opacity:1; fill:none" points="589.101,849.873 589.101,1423.18 698.56,1423.18 698.56,849.873 589.101,849.873 "/>
<path clip-path="url(#clip602)" d="M698.56 1308.52 L698.56 1423.18 L808.02 1423.18 L808.02 1308.52 L698.56 1308.52 L698.56 1308.52  Z" fill="#009af9" fill-rule="evenodd" fill-opacity="1"/>
<polyline clip-path="url(#clip602)" style="stroke:#000000; stroke-linecap:round; stroke-linejoin:round; stroke-width:4; stroke-opacity:1; fill:none" points="698.56,1308.52 698.56,1423.18 808.02,1423.18 808.02,1308.52 698.56,1308.52 "/>
<path clip-path="url(#clip602)" d="M808.02 505.889 L808.02 1423.18 L917.479 1423.18 L917.479 505.889 L808.02 505.889 L808.02 505.889  Z" fill="#009af9" fill-rule="evenodd" fill-opacity="1"/>
<polyline clip-path="url(#clip602)" style="stroke:#000000; stroke-linecap:round; stroke-linejoin:round; stroke-width:4; stroke-opacity:1; fill:none" points="808.02,505.889 808.02,1423.18 917.479,1423.18 917.479,505.889 808.02,505.889 "/>
<path clip-path="url(#clip602)" d="M917.479 735.212 L917.479 1423.18 L1026.94 1423.18 L1026.94 735.212 L917.479 735.212 L917.479 735.212  Z" fill="#009af9" fill-rule="evenodd" fill-opacity="1"/>
<polyline clip-path="url(#clip602)" style="stroke:#000000; stroke-linecap:round; stroke-linejoin:round; stroke-width:4; stroke-opacity:1; fill:none" points="917.479,735.212 917.479,1423.18 1026.94,1423.18 1026.94,735.212 917.479,735.212 "/>
<path clip-path="url(#clip602)" d="M1026.94 47.2441 L1026.94 1423.18 L1136.4 1423.18 L1136.4 47.2441 L1026.94 47.2441 L1026.94 47.2441  Z" fill="#009af9" fill-rule="evenodd" fill-opacity="1"/>
<polyline clip-path="url(#clip602)" style="stroke:#000000; stroke-linecap:round; stroke-linejoin:round; stroke-width:4; stroke-opacity:1; fill:none" points="1026.94,47.2441 1026.94,1423.18 1136.4,1423.18 1136.4,47.2441 1026.94,47.2441 "/>
<path clip-path="url(#clip602)" d="M1136.4 505.889 L1136.4 1423.18 L1245.86 1423.18 L1245.86 505.889 L1136.4 505.889 L1136.4 505.889  Z" fill="#009af9" fill-rule="evenodd" fill-opacity="1"/>
<polyline clip-path="url(#clip602)" style="stroke:#000000; stroke-linecap:round; stroke-linejoin:round; stroke-width:4; stroke-opacity:1; fill:none" points="1136.4,505.889 1136.4,1423.18 1245.86,1423.18 1245.86,505.889 1136.4,505.889 "/>
<path clip-path="url(#clip602)" d="M1245.86 161.905 L1245.86 1423.18 L1355.32 1423.18 L1355.32 161.905 L1245.86 161.905 L1245.86 161.905  Z" fill="#009af9" fill-rule="evenodd" fill-opacity="1"/>
<polyline clip-path="url(#clip602)" style="stroke:#000000; stroke-linecap:round; stroke-linejoin:round; stroke-width:4; stroke-opacity:1; fill:none" points="1245.86,161.905 1245.86,1423.18 1355.32,1423.18 1355.32,161.905 1245.86,161.905 "/>
<path clip-path="url(#clip602)" d="M1355.32 391.228 L1355.32 1423.18 L1464.78 1423.18 L1464.78 391.228 L1355.32 391.228 L1355.32 391.228  Z" fill="#009af9" fill-rule="evenodd" fill-opacity="1"/>
<polyline clip-path="url(#clip602)" style="stroke:#000000; stroke-linecap:round; stroke-linejoin:round; stroke-width:4; stroke-opacity:1; fill:none" points="1355.32,391.228 1355.32,1423.18 1464.78,1423.18 1464.78,391.228 1355.32,391.228 "/>
<path clip-path="url(#clip602)" d="M1464.78 849.873 L1464.78 1423.18 L1574.24 1423.18 L1574.24 849.873 L1464.78 849.873 L1464.78 849.873  Z" fill="#009af9" fill-rule="evenodd" fill-opacity="1"/>
<polyline clip-path="url(#clip602)" style="stroke:#000000; stroke-linecap:round; stroke-linejoin:round; stroke-width:4; stroke-opacity:1; fill:none" points="1464.78,849.873 1464.78,1423.18 1574.24,1423.18 1574.24,849.873 1464.78,849.873 "/>
<path clip-path="url(#clip602)" d="M1574.24 849.873 L1574.24 1423.18 L1683.7 1423.18 L1683.7 849.873 L1574.24 849.873 L1574.24 849.873  Z" fill="#009af9" fill-rule="evenodd" fill-opacity="1"/>
<polyline clip-path="url(#clip602)" style="stroke:#000000; stroke-linecap:round; stroke-linejoin:round; stroke-width:4; stroke-opacity:1; fill:none" points="1574.24,849.873 1574.24,1423.18 1683.7,1423.18 1683.7,849.873 1574.24,849.873 "/>
<path clip-path="url(#clip602)" d="M1683.7 735.212 L1683.7 1423.18 L1793.16 1423.18 L1793.16 735.212 L1683.7 735.212 L1683.7 735.212  Z" fill="#009af9" fill-rule="evenodd" fill-opacity="1"/>
<polyline clip-path="url(#clip602)" style="stroke:#000000; stroke-linecap:round; stroke-linejoin:round; stroke-width:4; stroke-opacity:1; fill:none" points="1683.7,735.212 1683.7,1423.18 1793.16,1423.18 1793.16,735.212 1683.7,735.212 "/>
<path clip-path="url(#clip602)" d="M1793.16 735.212 L1793.16 1423.18 L1902.61 1423.18 L1902.61 735.212 L1793.16 735.212 L1793.16 735.212  Z" fill="#009af9" fill-rule="evenodd" fill-opacity="1"/>
<polyline clip-path="url(#clip602)" style="stroke:#000000; stroke-linecap:round; stroke-linejoin:round; stroke-width:4; stroke-opacity:1; fill:none" points="1793.16,735.212 1793.16,1423.18 1902.61,1423.18 1902.61,735.212 1793.16,735.212 "/>
<path clip-path="url(#clip602)" d="M1902.61 1308.52 L1902.61 1423.18 L2012.07 1423.18 L2012.07 1308.52 L1902.61 1308.52 L1902.61 1308.52  Z" fill="#009af9" fill-rule="evenodd" fill-opacity="1"/>
<polyline clip-path="url(#clip602)" style="stroke:#000000; stroke-linecap:round; stroke-linejoin:round; stroke-width:4; stroke-opacity:1; fill:none" points="1902.61,1308.52 1902.61,1423.18 2012.07,1423.18 2012.07,1308.52 1902.61,1308.52 "/>
<path clip-path="url(#clip602)" d="M2012.07 964.535 L2012.07 1423.18 L2121.53 1423.18 L2121.53 964.535 L2012.07 964.535 L2012.07 964.535  Z" fill="#009af9" fill-rule="evenodd" fill-opacity="1"/>
<polyline clip-path="url(#clip602)" style="stroke:#000000; stroke-linecap:round; stroke-linejoin:round; stroke-width:4; stroke-opacity:1; fill:none" points="2012.07,964.535 2012.07,1423.18 2121.53,1423.18 2121.53,964.535 2012.07,964.535 "/>
<path clip-path="url(#clip602)" d="M2121.53 1193.86 L2121.53 1423.18 L2230.99 1423.18 L2230.99 1193.86 L2121.53 1193.86 L2121.53 1193.86  Z" fill="#009af9" fill-rule="evenodd" fill-opacity="1"/>
<polyline clip-path="url(#clip602)" style="stroke:#000000; stroke-linecap:round; stroke-linejoin:round; stroke-width:4; stroke-opacity:1; fill:none" points="2121.53,1193.86 2121.53,1423.18 2230.99,1423.18 2230.99,1193.86 2121.53,1193.86 "/>
<circle clip-path="url(#clip602)" style="fill:#009af9; stroke:none; fill-opacity:0" cx="315.452" cy="1079.2" r="2"/>
<circle clip-path="url(#clip602)" style="fill:#009af9; stroke:none; fill-opacity:0" cx="424.911" cy="1079.2" r="2"/>
<circle clip-path="url(#clip602)" style="fill:#009af9; stroke:none; fill-opacity:0" cx="534.371" cy="849.873" r="2"/>
<circle clip-path="url(#clip602)" style="fill:#009af9; stroke:none; fill-opacity:0" cx="643.83" cy="849.873" r="2"/>
<circle clip-path="url(#clip602)" style="fill:#009af9; stroke:none; fill-opacity:0" cx="753.29" cy="1308.52" r="2"/>
<circle clip-path="url(#clip602)" style="fill:#009af9; stroke:none; fill-opacity:0" cx="862.749" cy="505.889" r="2"/>
<circle clip-path="url(#clip602)" style="fill:#009af9; stroke:none; fill-opacity:0" cx="972.209" cy="735.212" r="2"/>
<circle clip-path="url(#clip602)" style="fill:#009af9; stroke:none; fill-opacity:0" cx="1081.67" cy="47.2441" r="2"/>
<circle clip-path="url(#clip602)" style="fill:#009af9; stroke:none; fill-opacity:0" cx="1191.13" cy="505.889" r="2"/>
<circle clip-path="url(#clip602)" style="fill:#009af9; stroke:none; fill-opacity:0" cx="1300.59" cy="161.905" r="2"/>
<circle clip-path="url(#clip602)" style="fill:#009af9; stroke:none; fill-opacity:0" cx="1410.05" cy="391.228" r="2"/>
<circle clip-path="url(#clip602)" style="fill:#009af9; stroke:none; fill-opacity:0" cx="1519.51" cy="849.873" r="2"/>
<circle clip-path="url(#clip602)" style="fill:#009af9; stroke:none; fill-opacity:0" cx="1628.97" cy="849.873" r="2"/>
<circle clip-path="url(#clip602)" style="fill:#009af9; stroke:none; fill-opacity:0" cx="1738.43" cy="735.212" r="2"/>
<circle clip-path="url(#clip602)" style="fill:#009af9; stroke:none; fill-opacity:0" cx="1847.88" cy="735.212" r="2"/>
<circle clip-path="url(#clip602)" style="fill:#009af9; stroke:none; fill-opacity:0" cx="1957.34" cy="1308.52" r="2"/>
<circle clip-path="url(#clip602)" style="fill:#009af9; stroke:none; fill-opacity:0" cx="2066.8" cy="964.535" r="2"/>
<circle clip-path="url(#clip602)" style="fill:#009af9; stroke:none; fill-opacity:0" cx="2176.26" cy="1193.86" r="2"/>
</svg>
