<?xml version="1.0" encoding="utf-8"?>
<svg xmlns="http://www.w3.org/2000/svg" xmlns:xlink="http://www.w3.org/1999/xlink" width="600" height="400" viewBox="0 0 2400 1600">
<defs>
  <clipPath id="clip780">
    <rect x="0" y="0" width="2400" height="1600"/>
  </clipPath>
</defs>
<path clip-path="url(#clip780)" d="M0 1600 L2400 1600 L2400 0 L0 0  Z" fill="#ffffff" fill-rule="evenodd" fill-opacity="1"/>
<defs>
  <clipPath id="clip781">
    <rect x="480" y="0" width="1681" height="1600"/>
  </clipPath>
</defs>
<path clip-path="url(#clip780)" d="M141.853 1486.45 L2352.76 1486.45 L2352.76 47.2441 L141.853 47.2441  Z" fill="#ffffff" fill-rule="evenodd" fill-opacity="1"/>
<defs>
  <clipPath id="clip782">
    <rect x="141" y="47" width="2212" height="1440"/>
  </clipPath>
</defs>
<polyline clip-path="url(#clip782)" style="stroke:#000000; stroke-linecap:round; stroke-linejoin:round; stroke-width:2; stroke-opacity:0.1; fill:none" points="263.457,1486.45 263.457,47.2441 "/>
<polyline clip-path="url(#clip782)" style="stroke:#000000; stroke-linecap:round; stroke-linejoin:round; stroke-width:2; stroke-opacity:0.1; fill:none" points="621.219,1486.45 621.219,47.2441 "/>
<polyline clip-path="url(#clip782)" style="stroke:#000000; stroke-linecap:round; stroke-linejoin:round; stroke-width:2; stroke-opacity:0.1; fill:none" points="978.982,1486.45 978.982,47.2441 "/>
<polyline clip-path="url(#clip782)" style="stroke:#000000; stroke-linecap:round; stroke-linejoin:round; stroke-width:2; stroke-opacity:0.1; fill:none" points="1336.75,1486.45 1336.75,47.2441 "/>
<polyline clip-path="url(#clip782)" style="stroke:#000000; stroke-linecap:round; stroke-linejoin:round; stroke-width:2; stroke-opacity:0.1; fill:none" points="1694.51,1486.45 1694.51,47.2441 "/>
<polyline clip-path="url(#clip782)" style="stroke:#000000; stroke-linecap:round; stroke-linejoin:round; stroke-width:2; stroke-opacity:0.1; fill:none" points="2052.27,1486.45 2052.27,47.2441 "/>
<polyline clip-path="url(#clip780)" style="stroke:#000000; stroke-linecap:round; stroke-linejoin:round; stroke-width:4; stroke-opacity:1; fill:none" points="141.853,1486.45 2352.76,1486.45 "/>
<polyline clip-path="url(#clip780)" style="stroke:#000000; stroke-linecap:round; stroke-linejoin:round; stroke-width:4; stroke-opacity:1; fill:none" points="263.457,1486.45 263.457,1467.55 "/>
<polyline clip-path="url(#clip780)" style="stroke:#000000; stroke-linecap:round; stroke-linejoin:round; stroke-width:4; stroke-opacity:1; fill:none" points="621.219,1486.45 621.219,1467.55 "/>
<polyline clip-path="url(#clip780)" style="stroke:#000000; stroke-linecap:round; stroke-linejoin:round; stroke-width:4; stroke-opacity:1; fill:none" points="978.982,1486.45 978.982,1467.55 "/>
<polyline clip-path="url(#clip780)" style="stroke:#000000; stroke-linecap:round; stroke-linejoin:round; stroke-width:4; stroke-opacity:1; fill:none" points="1336.75,1486.45 1336.75,1467.55 "/>
<polyline clip-path="url(#clip780)" style="stroke:#000000; stroke-linecap:round; stroke-linejoin:round; stroke-width:4; stroke-opacity:1; fill:none" points="1694.51,1486.45 1694.51,1467.55 "/>
<polyline clip-path="url(#clip780)" style="stroke:#000000; stroke-linecap:round; stroke-linejoin:round; stroke-width:4; stroke-opacity:1; fill:none" points="2052.27,1486.45 2052.27,1467.55 "/>
<path clip-path="url(#clip780)" d="M237.218 1530.21 Q240.575 1530.93 242.45 1533.2 Q244.348 1535.47 244.348 1538.8 Q244.348 1543.92 240.829 1546.72 Q237.311 1549.52 230.829 1549.52 Q228.653 1549.52 226.339 1549.08 Q224.047 1548.66 221.593 1547.81 L221.593 1543.29 Q223.538 1544.43 225.853 1545.01 Q228.167 1545.58 230.691 1545.58 Q235.089 1545.58 237.38 1543.85 Q239.695 1542.11 239.695 1538.8 Q239.695 1535.75 237.542 1534.03 Q235.413 1532.3 231.593 1532.3 L227.566 1532.3 L227.566 1528.45 L231.778 1528.45 Q235.228 1528.45 237.056 1527.09 Q238.885 1525.7 238.885 1523.11 Q238.885 1520.45 236.987 1519.03 Q235.112 1517.6 231.593 1517.6 Q229.672 1517.6 227.473 1518.01 Q225.274 1518.43 222.635 1519.31 L222.635 1515.14 Q225.297 1514.4 227.612 1514.03 Q229.95 1513.66 232.01 1513.66 Q237.334 1513.66 240.436 1516.09 Q243.538 1518.5 243.538 1522.62 Q243.538 1525.49 241.894 1527.48 Q240.251 1529.45 237.218 1530.21 Z" fill="#000000" fill-rule="nonzero" fill-opacity="1" /><path clip-path="url(#clip780)" d="M253.26 1514.29 L271.616 1514.29 L271.616 1518.22 L257.542 1518.22 L257.542 1526.7 Q258.561 1526.35 259.579 1526.19 Q260.598 1526 261.616 1526 Q267.403 1526 270.783 1529.17 Q274.163 1532.34 274.163 1537.76 Q274.163 1543.34 270.69 1546.44 Q267.218 1549.52 260.899 1549.52 Q258.723 1549.52 256.454 1549.15 Q254.209 1548.78 251.802 1548.04 L251.802 1543.34 Q253.885 1544.47 256.107 1545.03 Q258.329 1545.58 260.806 1545.58 Q264.811 1545.58 267.149 1543.48 Q269.487 1541.37 269.487 1537.76 Q269.487 1534.15 267.149 1532.04 Q264.811 1529.94 260.806 1529.94 Q258.931 1529.94 257.056 1530.35 Q255.204 1530.77 253.26 1531.65 L253.26 1514.29 Z" fill="#000000" fill-rule="nonzero" fill-opacity="1" /><path clip-path="url(#clip780)" d="M293.375 1517.37 Q289.764 1517.37 287.936 1520.93 Q286.13 1524.47 286.13 1531.6 Q286.13 1538.71 287.936 1542.27 Q289.764 1545.82 293.375 1545.82 Q297.01 1545.82 298.815 1542.27 Q300.644 1538.71 300.644 1531.6 Q300.644 1524.47 298.815 1520.93 Q297.01 1517.37 293.375 1517.37 M293.375 1513.66 Q299.186 1513.66 302.241 1518.27 Q305.32 1522.85 305.32 1531.6 Q305.32 1540.33 302.241 1544.94 Q299.186 1549.52 293.375 1549.52 Q287.565 1549.52 284.487 1544.94 Q281.431 1540.33 281.431 1531.6 Q281.431 1522.85 284.487 1518.27 Q287.565 1513.66 293.375 1513.66 Z" fill="#000000" fill-rule="nonzero" fill-opacity="1" /><path clip-path="url(#clip780)" d="M594.31 1518.36 L582.504 1536.81 L594.31 1536.81 L594.31 1518.36 M593.083 1514.29 L598.963 1514.29 L598.963 1536.81 L603.893 1536.81 L603.893 1540.7 L598.963 1540.7 L598.963 1548.85 L594.31 1548.85 L594.31 1540.7 L578.708 1540.7 L578.708 1536.19 L593.083 1514.29 Z" fill="#000000" fill-rule="nonzero" fill-opacity="1" /><path clip-path="url(#clip780)" d="M621.624 1517.37 Q618.013 1517.37 616.185 1520.93 Q614.379 1524.47 614.379 1531.6 Q614.379 1538.71 616.185 1542.27 Q618.013 1545.82 621.624 1545.82 Q625.259 1545.82 627.064 1542.27 Q628.893 1538.71 628.893 1531.6 Q628.893 1524.47 627.064 1520.93 Q625.259 1517.37 621.624 1517.37 M621.624 1513.66 Q627.435 1513.66 630.49 1518.27 Q633.569 1522.85 633.569 1531.6 Q633.569 1540.33 630.49 1544.94 Q627.435 1549.52 621.624 1549.52 Q615.814 1549.52 612.736 1544.94 Q609.68 1540.33 609.68 1531.6 Q609.68 1522.85 612.736 1518.27 Q615.814 1513.66 621.624 1513.66 Z" fill="#000000" fill-rule="nonzero" fill-opacity="1" /><path clip-path="url(#clip780)" d="M651.786 1517.37 Q648.175 1517.37 646.347 1520.93 Q644.541 1524.47 644.541 1531.6 Q644.541 1538.71 646.347 1542.27 Q648.175 1545.82 651.786 1545.82 Q655.421 1545.82 657.226 1542.27 Q659.055 1538.71 659.055 1531.6 Q659.055 1524.47 657.226 1520.93 Q655.421 1517.37 651.786 1517.37 M651.786 1513.66 Q657.597 1513.66 660.652 1518.27 Q663.731 1522.85 663.731 1531.6 Q663.731 1540.33 660.652 1544.94 Q657.597 1549.52 651.786 1549.52 Q645.976 1549.52 642.898 1544.94 Q639.842 1540.33 639.842 1531.6 Q639.842 1522.85 642.898 1518.27 Q645.976 1513.66 651.786 1513.66 Z" fill="#000000" fill-rule="nonzero" fill-opacity="1" /><path clip-path="url(#clip780)" d="M952.073 1518.36 L940.267 1536.81 L952.073 1536.81 L952.073 1518.36 M950.846 1514.29 L956.725 1514.29 L956.725 1536.81 L961.656 1536.81 L961.656 1540.7 L956.725 1540.7 L956.725 1548.85 L952.073 1548.85 L952.073 1540.7 L936.471 1540.7 L936.471 1536.19 L950.846 1514.29 Z" fill="#000000" fill-rule="nonzero" fill-opacity="1" /><path clip-path="url(#clip780)" d="M969.434 1514.29 L987.79 1514.29 L987.79 1518.22 L973.716 1518.22 L973.716 1526.7 Q974.735 1526.35 975.753 1526.19 Q976.772 1526 977.79 1526 Q983.577 1526 986.957 1529.17 Q990.336 1532.34 990.336 1537.76 Q990.336 1543.34 986.864 1546.44 Q983.392 1549.52 977.073 1549.52 Q974.897 1549.52 972.628 1549.15 Q970.383 1548.78 967.975 1548.04 L967.975 1543.34 Q970.059 1544.47 972.281 1545.03 Q974.503 1545.58 976.98 1545.58 Q980.985 1545.58 983.323 1543.48 Q985.66 1541.37 985.66 1537.76 Q985.66 1534.15 983.323 1532.04 Q980.985 1529.94 976.98 1529.94 Q975.105 1529.94 973.23 1530.35 Q971.378 1530.77 969.434 1531.65 L969.434 1514.29 Z" fill="#000000" fill-rule="nonzero" fill-opacity="1" /><path clip-path="url(#clip780)" d="M1009.55 1517.37 Q1005.94 1517.37 1004.11 1520.93 Q1002.3 1524.47 1002.3 1531.6 Q1002.3 1538.71 1004.11 1542.27 Q1005.94 1545.82 1009.55 1545.82 Q1013.18 1545.82 1014.99 1542.27 Q1016.82 1538.71 1016.82 1531.6 Q1016.82 1524.47 1014.99 1520.93 Q1013.18 1517.37 1009.55 1517.37 M1009.55 1513.66 Q1015.36 1513.66 1018.41 1518.27 Q1021.49 1522.85 1021.49 1531.6 Q1021.49 1540.33 1018.41 1544.94 Q1015.36 1549.52 1009.55 1549.52 Q1003.74 1549.52 1000.66 1544.94 Q997.605 1540.33 997.605 1531.6 Q997.605 1522.85 1000.66 1518.27 Q1003.74 1513.66 1009.55 1513.66 Z" fill="#000000" fill-rule="nonzero" fill-opacity="1" /><path clip-path="url(#clip780)" d="M1296.36 1514.29 L1314.72 1514.29 L1314.72 1518.22 L1300.65 1518.22 L1300.65 1526.7 Q1301.66 1526.35 1302.68 1526.19 Q1303.7 1526 1304.72 1526 Q1310.51 1526 1313.89 1529.17 Q1317.27 1532.34 1317.27 1537.76 Q1317.27 1543.34 1313.79 1546.44 Q1310.32 1549.52 1304 1549.52 Q1301.83 1549.52 1299.56 1549.15 Q1297.31 1548.78 1294.91 1548.04 L1294.91 1543.34 Q1296.99 1544.47 1299.21 1545.03 Q1301.43 1545.58 1303.91 1545.58 Q1307.91 1545.58 1310.25 1543.48 Q1312.59 1541.37 1312.59 1537.76 Q1312.59 1534.15 1310.25 1532.04 Q1307.91 1529.94 1303.91 1529.94 Q1302.03 1529.94 1300.16 1530.35 Q1298.31 1530.77 1296.36 1531.65 L1296.36 1514.29 Z" fill="#000000" fill-rule="nonzero" fill-opacity="1" /><path clip-path="url(#clip780)" d="M1336.48 1517.37 Q1332.87 1517.37 1331.04 1520.93 Q1329.23 1524.47 1329.23 1531.6 Q1329.23 1538.71 1331.04 1542.27 Q1332.87 1545.82 1336.48 1545.82 Q1340.11 1545.82 1341.92 1542.27 Q1343.75 1538.71 1343.75 1531.6 Q1343.75 1524.47 1341.92 1520.93 Q1340.11 1517.37 1336.48 1517.37 M1336.48 1513.66 Q1342.29 1513.66 1345.34 1518.27 Q1348.42 1522.85 1348.42 1531.6 Q1348.42 1540.33 1345.34 1544.94 Q1342.29 1549.52 1336.48 1549.52 Q1330.67 1549.52 1327.59 1544.94 Q1324.53 1540.33 1324.53 1531.6 Q1324.53 1522.85 1327.59 1518.27 Q1330.67 1513.66 1336.48 1513.66 Z" fill="#000000" fill-rule="nonzero" fill-opacity="1" /><path clip-path="url(#clip780)" d="M1366.64 1517.37 Q1363.03 1517.37 1361.2 1520.93 Q1359.4 1524.47 1359.4 1531.6 Q1359.4 1538.71 1361.2 1542.27 Q1363.03 1545.82 1366.64 1545.82 Q1370.28 1545.82 1372.08 1542.27 Q1373.91 1538.71 1373.91 1531.6 Q1373.91 1524.47 1372.08 1520.93 Q1370.28 1517.37 1366.64 1517.37 M1366.64 1513.66 Q1372.45 1513.66 1375.51 1518.27 Q1378.59 1522.85 1378.59 1531.6 Q1378.59 1540.33 1375.51 1544.94 Q1372.45 1549.52 1366.64 1549.52 Q1360.83 1549.52 1357.75 1544.94 Q1354.7 1540.33 1354.7 1531.6 Q1354.7 1522.85 1357.75 1518.27 Q1360.83 1513.66 1366.64 1513.66 Z" fill="#000000" fill-rule="nonzero" fill-opacity="1" /><path clip-path="url(#clip780)" d="M1654.13 1514.29 L1672.48 1514.29 L1672.48 1518.22 L1658.41 1518.22 L1658.41 1526.7 Q1659.43 1526.35 1660.45 1526.19 Q1661.46 1526 1662.48 1526 Q1668.27 1526 1671.65 1529.17 Q1675.03 1532.34 1675.03 1537.76 Q1675.03 1543.34 1671.56 1546.44 Q1668.08 1549.52 1661.77 1549.52 Q1659.59 1549.52 1657.32 1549.15 Q1655.08 1548.78 1652.67 1548.04 L1652.67 1543.34 Q1654.75 1544.47 1656.97 1545.03 Q1659.2 1545.58 1661.67 1545.58 Q1665.68 1545.58 1668.02 1543.48 Q1670.35 1541.37 1670.35 1537.76 Q1670.35 1534.15 1668.02 1532.04 Q1665.68 1529.94 1661.67 1529.94 Q1659.8 1529.94 1657.92 1530.35 Q1656.07 1530.77 1654.13 1531.65 L1654.13 1514.29 Z" fill="#000000" fill-rule="nonzero" fill-opacity="1" /><path clip-path="url(#clip780)" d="M1684.29 1514.29 L1702.64 1514.29 L1702.64 1518.22 L1688.57 1518.22 L1688.57 1526.7 Q1689.59 1526.35 1690.61 1526.19 Q1691.63 1526 1692.64 1526 Q1698.43 1526 1701.81 1529.17 Q1705.19 1532.34 1705.19 1537.76 Q1705.19 1543.34 1701.72 1546.44 Q1698.25 1549.52 1691.93 1549.52 Q1689.75 1549.52 1687.48 1549.15 Q1685.24 1548.78 1682.83 1548.04 L1682.83 1543.34 Q1684.91 1544.47 1687.14 1545.03 Q1689.36 1545.58 1691.83 1545.58 Q1695.84 1545.58 1698.18 1543.48 Q1700.51 1541.37 1700.51 1537.76 Q1700.51 1534.15 1698.18 1532.04 Q1695.84 1529.94 1691.83 1529.94 Q1689.96 1529.94 1688.08 1530.35 Q1686.23 1530.77 1684.29 1531.65 L1684.29 1514.29 Z" fill="#000000" fill-rule="nonzero" fill-opacity="1" /><path clip-path="url(#clip780)" d="M1724.4 1517.37 Q1720.79 1517.37 1718.96 1520.93 Q1717.16 1524.47 1717.16 1531.6 Q1717.16 1538.71 1718.96 1542.27 Q1720.79 1545.82 1724.4 1545.82 Q1728.04 1545.82 1729.84 1542.27 Q1731.67 1538.71 1731.67 1531.6 Q1731.67 1524.47 1729.84 1520.93 Q1728.04 1517.37 1724.4 1517.37 M1724.4 1513.66 Q1730.21 1513.66 1733.27 1518.27 Q1736.35 1522.85 1736.35 1531.6 Q1736.35 1540.33 1733.27 1544.94 Q1730.21 1549.52 1724.4 1549.52 Q1718.59 1549.52 1715.51 1544.94 Q1712.46 1540.33 1712.46 1531.6 Q1712.46 1522.85 1715.51 1518.27 Q1718.59 1513.66 1724.4 1513.66 Z" fill="#000000" fill-rule="nonzero" fill-opacity="1" /><path clip-path="url(#clip780)" d="M2022.6 1529.7 Q2019.45 1529.7 2017.6 1531.86 Q2015.77 1534.01 2015.77 1537.76 Q2015.77 1541.49 2017.6 1543.66 Q2019.45 1545.82 2022.6 1545.82 Q2025.74 1545.82 2027.57 1543.66 Q2029.42 1541.49 2029.42 1537.76 Q2029.42 1534.01 2027.57 1531.86 Q2025.74 1529.7 2022.6 1529.7 M2031.88 1515.05 L2031.88 1519.31 Q2030.12 1518.48 2028.31 1518.04 Q2026.53 1517.6 2024.77 1517.6 Q2020.14 1517.6 2017.69 1520.72 Q2015.26 1523.85 2014.91 1530.17 Q2016.28 1528.15 2018.34 1527.09 Q2020.4 1526 2022.87 1526 Q2028.08 1526 2031.09 1529.17 Q2034.12 1532.32 2034.12 1537.76 Q2034.12 1543.08 2030.97 1546.3 Q2027.83 1549.52 2022.6 1549.52 Q2016.6 1549.52 2013.43 1544.94 Q2010.26 1540.33 2010.26 1531.6 Q2010.26 1523.41 2014.15 1518.55 Q2018.03 1513.66 2024.59 1513.66 Q2026.35 1513.66 2028.13 1514.01 Q2029.93 1514.36 2031.88 1515.05 Z" fill="#000000" fill-rule="nonzero" fill-opacity="1" /><path clip-path="url(#clip780)" d="M2052.18 1517.37 Q2048.57 1517.37 2046.74 1520.93 Q2044.93 1524.47 2044.93 1531.6 Q2044.93 1538.71 2046.74 1542.27 Q2048.57 1545.82 2052.18 1545.82 Q2055.81 1545.82 2057.62 1542.27 Q2059.45 1538.71 2059.45 1531.6 Q2059.45 1524.47 2057.62 1520.93 Q2055.81 1517.37 2052.18 1517.37 M2052.18 1513.66 Q2057.99 1513.66 2061.04 1518.27 Q2064.12 1522.85 2064.12 1531.6 Q2064.12 1540.33 2061.04 1544.94 Q2057.99 1549.52 2052.18 1549.52 Q2046.37 1549.52 2043.29 1544.94 Q2040.23 1540.33 2040.23 1531.6 Q2040.23 1522.85 2043.29 1518.27 Q2046.37 1513.66 2052.18 1513.66 Z" fill="#000000" fill-rule="nonzero" fill-opacity="1" /><path clip-path="url(#clip780)" d="M2082.34 1517.37 Q2078.73 1517.37 2076.9 1520.93 Q2075.09 1524.47 2075.09 1531.6 Q2075.09 1538.71 2076.9 1542.27 Q2078.73 1545.82 2082.34 1545.82 Q2085.97 1545.82 2087.78 1542.27 Q2089.61 1538.71 2089.61 1531.6 Q2089.61 1524.47 2087.78 1520.93 Q2085.97 1517.37 2082.34 1517.37 M2082.34 1513.66 Q2088.15 1513.66 2091.21 1518.27 Q2094.28 1522.85 2094.28 1531.6 Q2094.28 1540.33 2091.21 1544.94 Q2088.15 1549.52 2082.34 1549.52 Q2076.53 1549.52 2073.45 1544.94 Q2070.4 1540.33 2070.4 1531.6 Q2070.4 1522.85 2073.45 1518.27 Q2076.53 1513.66 2082.34 1513.66 Z" fill="#000000" fill-rule="nonzero" fill-opacity="1" /><polyline clip-path="url(#clip782)" style="stroke:#000000; stroke-linecap:round; stroke-linejoin:round; stroke-width:2; stroke-opacity:0.1; fill:none" points="141.853,1486.45 2352.76,1486.45 "/>
<polyline clip-path="url(#clip782)" style="stroke:#000000; stroke-linecap:round; stroke-linejoin:round; stroke-width:2; stroke-opacity:0.1; fill:none" points="141.853,1117.42 2352.76,1117.42 "/>
<polyline clip-path="url(#clip782)" style="stroke:#000000; stroke-linecap:round; stroke-linejoin:round; stroke-width:2; stroke-opacity:0.1; fill:none" points="141.853,748.395 2352.76,748.395 "/>
<polyline clip-path="url(#clip782)" style="stroke:#000000; stroke-linecap:round; stroke-linejoin:round; stroke-width:2; stroke-opacity:0.1; fill:none" points="141.853,379.368 2352.76,379.368 "/>
<polyline clip-path="url(#clip780)" style="stroke:#000000; stroke-linecap:round; stroke-linejoin:round; stroke-width:4; stroke-opacity:1; fill:none" points="141.853,1486.45 141.853,47.2441 "/>
<polyline clip-path="url(#clip780)" style="stroke:#000000; stroke-linecap:round; stroke-linejoin:round; stroke-width:4; stroke-opacity:1; fill:none" points="141.853,1486.45 160.751,1486.45 "/>
<polyline clip-path="url(#clip780)" style="stroke:#000000; stroke-linecap:round; stroke-linejoin:round; stroke-width:4; stroke-opacity:1; fill:none" points="141.853,1117.42 160.751,1117.42 "/>
<polyline clip-path="url(#clip780)" style="stroke:#000000; stroke-linecap:round; stroke-linejoin:round; stroke-width:4; stroke-opacity:1; fill:none" points="141.853,748.395 160.751,748.395 "/>
<polyline clip-path="url(#clip780)" style="stroke:#000000; stroke-linecap:round; stroke-linejoin:round; stroke-width:4; stroke-opacity:1; fill:none" points="141.853,379.368 160.751,379.368 "/>
<path clip-path="url(#clip780)" d="M93.9086 1472.25 Q90.2975 1472.25 88.4688 1475.81 Q86.6632 1479.35 86.6632 1486.48 Q86.6632 1493.59 88.4688 1497.15 Q90.2975 1500.7 93.9086 1500.7 Q97.5428 1500.7 99.3483 1497.15 Q101.177 1493.59 101.177 1486.48 Q101.177 1479.35 99.3483 1475.81 Q97.5428 1472.25 93.9086 1472.25 M93.9086 1468.54 Q99.7187 1468.54 102.774 1473.15 Q105.853 1477.73 105.853 1486.48 Q105.853 1495.21 102.774 1499.82 Q99.7187 1504.4 93.9086 1504.4 Q88.0984 1504.4 85.0197 1499.82 Q81.9642 1495.21 81.9642 1486.48 Q81.9642 1477.73 85.0197 1473.15 Q88.0984 1468.54 93.9086 1468.54 Z" fill="#000000" fill-rule="nonzero" fill-opacity="1" /><path clip-path="url(#clip780)" d="M57.7745 1130.77 L74.0939 1130.77 L74.0939 1134.7 L52.1495 1134.7 L52.1495 1130.77 Q54.8115 1128.01 59.3949 1123.38 Q64.0013 1118.73 65.1819 1117.39 Q67.4272 1114.86 68.3068 1113.13 Q69.2096 1111.37 69.2096 1109.68 Q69.2096 1106.92 67.2652 1105.19 Q65.3439 1103.45 62.2421 1103.45 Q60.043 1103.45 57.5893 1104.22 Q55.1588 1104.98 52.381 1106.53 L52.381 1101.81 Q55.2051 1100.67 57.6588 1100.09 Q60.1124 1099.52 62.1495 1099.52 Q67.5198 1099.52 70.7142 1102.2 Q73.9087 1104.89 73.9087 1109.38 Q73.9087 1111.51 73.0985 1113.43 Q72.3115 1115.33 70.205 1117.92 Q69.6263 1118.59 66.5245 1121.81 Q63.4226 1125 57.7745 1130.77 Z" fill="#000000" fill-rule="nonzero" fill-opacity="1" /><path clip-path="url(#clip780)" d="M93.9086 1103.22 Q90.2975 1103.22 88.4688 1106.78 Q86.6632 1110.33 86.6632 1117.46 Q86.6632 1124.56 88.4688 1128.13 Q90.2975 1131.67 93.9086 1131.67 Q97.5428 1131.67 99.3483 1128.13 Q101.177 1124.56 101.177 1117.46 Q101.177 1110.33 99.3483 1106.78 Q97.5428 1103.22 93.9086 1103.22 M93.9086 1099.52 Q99.7187 1099.52 102.774 1104.12 Q105.853 1108.71 105.853 1117.46 Q105.853 1126.18 102.774 1130.79 Q99.7187 1135.37 93.9086 1135.37 Q88.0984 1135.37 85.0197 1130.79 Q81.9642 1126.18 81.9642 1117.46 Q81.9642 1108.71 85.0197 1104.12 Q88.0984 1099.52 93.9086 1099.52 Z" fill="#000000" fill-rule="nonzero" fill-opacity="1" /><path clip-path="url(#clip780)" d="M66.5939 735.189 L54.7884 753.638 L66.5939 753.638 L66.5939 735.189 M65.367 731.115 L71.2466 731.115 L71.2466 753.638 L76.1772 753.638 L76.1772 757.527 L71.2466 757.527 L71.2466 765.675 L66.5939 765.675 L66.5939 757.527 L50.9921 757.527 L50.9921 753.013 L65.367 731.115 Z" fill="#000000" fill-rule="nonzero" fill-opacity="1" /><path clip-path="url(#clip780)" d="M93.9086 734.193 Q90.2975 734.193 88.4688 737.758 Q86.6632 741.3 86.6632 748.429 Q86.6632 755.536 88.4688 759.101 Q90.2975 762.642 93.9086 762.642 Q97.5428 762.642 99.3483 759.101 Q101.177 755.536 101.177 748.429 Q101.177 741.3 99.3483 737.758 Q97.5428 734.193 93.9086 734.193 M93.9086 730.49 Q99.7187 730.49 102.774 735.096 Q105.853 739.679 105.853 748.429 Q105.853 757.156 102.774 761.763 Q99.7187 766.346 93.9086 766.346 Q88.0984 766.346 85.0197 761.763 Q81.9642 757.156 81.9642 748.429 Q81.9642 739.679 85.0197 735.096 Q88.0984 730.49 93.9086 730.49 Z" fill="#000000" fill-rule="nonzero" fill-opacity="1" /><path clip-path="url(#clip780)" d="M64.3254 377.505 Q61.1773 377.505 59.3254 379.657 Q57.4967 381.81 57.4967 385.56 Q57.4967 389.287 59.3254 391.463 Q61.1773 393.616 64.3254 393.616 Q67.4735 393.616 69.3022 391.463 Q71.1541 389.287 71.1541 385.56 Q71.1541 381.81 69.3022 379.657 Q67.4735 377.505 64.3254 377.505 M73.6077 362.852 L73.6077 367.111 Q71.8485 366.278 70.0429 365.838 Q68.2606 365.398 66.5013 365.398 Q61.8717 365.398 59.418 368.523 Q56.9875 371.648 56.6402 377.968 Q58.006 375.954 60.0662 374.889 Q62.1263 373.801 64.6032 373.801 Q69.8115 373.801 72.8207 376.972 Q75.8531 380.12 75.8531 385.56 Q75.8531 390.884 72.705 394.102 Q69.5568 397.319 64.3254 397.319 Q58.33 397.319 55.1588 392.736 Q51.9875 388.13 51.9875 379.403 Q51.9875 371.208 55.8764 366.347 Q59.7652 361.463 66.3161 361.463 Q68.0754 361.463 69.8578 361.81 Q71.6633 362.157 73.6077 362.852 Z" fill="#000000" fill-rule="nonzero" fill-opacity="1" /><path clip-path="url(#clip780)" d="M93.9086 365.167 Q90.2975 365.167 88.4688 368.732 Q86.6632 372.273 86.6632 379.403 Q86.6632 386.509 88.4688 390.074 Q90.2975 393.616 93.9086 393.616 Q97.5428 393.616 99.3483 390.074 Q101.177 386.509 101.177 379.403 Q101.177 372.273 99.3483 368.732 Q97.5428 365.167 93.9086 365.167 M93.9086 361.463 Q99.7187 361.463 102.774 366.07 Q105.853 370.653 105.853 379.403 Q105.853 388.13 102.774 392.736 Q99.7187 397.319 93.9086 397.319 Q88.0984 397.319 85.0197 392.736 Q81.9642 388.13 81.9642 379.403 Q81.9642 370.653 85.0197 366.07 Q88.0984 361.463 93.9086 361.463 Z" fill="#000000" fill-rule="nonzero" fill-opacity="1" /><path clip-path="url(#clip782)" d="M263.457 1449.55 L263.457 1486.45 L442.338 1486.45 L442.338 1449.55 L263.457 1449.55 L263.457 1449.55  Z" fill="#009af9" fill-rule="evenodd" fill-opacity="1"/>
<polyline clip-path="url(#clip782)" style="stroke:#000000; stroke-linecap:round; stroke-linejoin:round; stroke-width:4; stroke-opacity:1; fill:none" points="263.457,1449.55 263.457,1486.45 442.338,1486.45 442.338,1449.55 263.457,1449.55 "/>
<path clip-path="url(#clip782)" d="M442.338 1431.09 L442.338 1486.45 L621.219 1486.45 L621.219 1431.09 L442.338 1431.09 L442.338 1431.09  Z" fill="#009af9" fill-rule="evenodd" fill-opacity="1"/>
<polyline clip-path="url(#clip782)" style="stroke:#000000; stroke-linecap:round; stroke-linejoin:round; stroke-width:4; stroke-opacity:1; fill:none" points="442.338,1431.09 442.338,1486.45 621.219,1486.45 621.219,1431.09 442.338,1431.09 "/>
<path clip-path="url(#clip782)" d="M621.219 1468 L621.219 1486.45 L800.101 1486.45 L800.101 1468 L621.219 1468 L621.219 1468  Z" fill="#009af9" fill-rule="evenodd" fill-opacity="1"/>
<polyline clip-path="url(#clip782)" style="stroke:#000000; stroke-linecap:round; stroke-linejoin:round; stroke-width:4; stroke-opacity:1; fill:none" points="621.219,1468 621.219,1486.45 800.101,1486.45 800.101,1468 621.219,1468 "/>
<path clip-path="url(#clip782)" d="M800.101 1338.84 L800.101 1486.45 L978.982 1486.45 L978.982 1338.84 L800.101 1338.84 L800.101 1338.84  Z" fill="#009af9" fill-rule="evenodd" fill-opacity="1"/>
<polyline clip-path="url(#clip782)" style="stroke:#000000; stroke-linecap:round; stroke-linejoin:round; stroke-width:4; stroke-opacity:1; fill:none" points="800.101,1338.84 800.101,1486.45 978.982,1486.45 978.982,1338.84 800.101,1338.84 "/>
<path clip-path="url(#clip782)" d="M978.982 1449.55 L978.982 1486.45 L1157.86 1486.45 L1157.86 1449.55 L978.982 1449.55 L978.982 1449.55  Z" fill="#009af9" fill-rule="evenodd" fill-opacity="1"/>
<polyline clip-path="url(#clip782)" style="stroke:#000000; stroke-linecap:round; stroke-linejoin:round; stroke-width:4; stroke-opacity:1; fill:none" points="978.982,1449.55 978.982,1486.45 1157.86,1486.45 1157.86,1449.55 978.982,1449.55 "/>
<path clip-path="url(#clip782)" d="M1157.86 1468 L1157.86 1486.45 L1336.75 1486.45 L1336.75 1468 L1157.86 1468 L1157.86 1468  Z" fill="#009af9" fill-rule="evenodd" fill-opacity="1"/>
<polyline clip-path="url(#clip782)" style="stroke:#000000; stroke-linecap:round; stroke-linejoin:round; stroke-width:4; stroke-opacity:1; fill:none" points="1157.86,1468 1157.86,1486.45 1336.75,1486.45 1336.75,1468 1157.86,1468 "/>
<path clip-path="url(#clip782)" d="M1336.75 1283.48 L1336.75 1486.45 L1515.63 1486.45 L1515.63 1283.48 L1336.75 1283.48 L1336.75 1283.48  Z" fill="#009af9" fill-rule="evenodd" fill-opacity="1"/>
<polyline clip-path="url(#clip782)" style="stroke:#000000; stroke-linecap:round; stroke-linejoin:round; stroke-width:4; stroke-opacity:1; fill:none" points="1336.75,1283.48 1336.75,1486.45 1515.63,1486.45 1515.63,1283.48 1336.75,1283.48 "/>
<path clip-path="url(#clip782)" d="M1515.63 1357.29 L1515.63 1486.45 L1694.51 1486.45 L1694.51 1357.29 L1515.63 1357.29 L1515.63 1357.29  Z" fill="#009af9" fill-rule="evenodd" fill-opacity="1"/>
<polyline clip-path="url(#clip782)" style="stroke:#000000; stroke-linecap:round; stroke-linejoin:round; stroke-width:4; stroke-opacity:1; fill:none" points="1515.63,1357.29 1515.63,1486.45 1694.51,1486.45 1694.51,1357.29 1515.63,1357.29 "/>
<path clip-path="url(#clip782)" d="M1694.51 1283.48 L1694.51 1486.45 L1873.39 1486.45 L1873.39 1283.48 L1694.51 1283.48 L1694.51 1283.48  Z" fill="#009af9" fill-rule="evenodd" fill-opacity="1"/>
<polyline clip-path="url(#clip782)" style="stroke:#000000; stroke-linecap:round; stroke-linejoin:round; stroke-width:4; stroke-opacity:1; fill:none" points="1694.51,1283.48 1694.51,1486.45 1873.39,1486.45 1873.39,1283.48 1694.51,1283.48 "/>
<path clip-path="url(#clip782)" d="M1873.39 1394.19 L1873.39 1486.45 L2052.27 1486.45 L2052.27 1394.19 L1873.39 1394.19 L1873.39 1394.19  Z" fill="#009af9" fill-rule="evenodd" fill-opacity="1"/>
<polyline clip-path="url(#clip782)" style="stroke:#000000; stroke-linecap:round; stroke-linejoin:round; stroke-width:4; stroke-opacity:1; fill:none" points="1873.39,1394.19 1873.39,1486.45 2052.27,1486.45 2052.27,1394.19 1873.39,1394.19 "/>
<path clip-path="url(#clip782)" d="M2052.27 582.333 L2052.27 1486.45 L2231.15 1486.45 L2231.15 582.333 L2052.27 582.333 L2052.27 582.333  Z" fill="#009af9" fill-rule="evenodd" fill-opacity="1"/>
<polyline clip-path="url(#clip782)" style="stroke:#000000; stroke-linecap:round; stroke-linejoin:round; stroke-width:4; stroke-opacity:1; fill:none" points="2052.27,582.333 2052.27,1486.45 2231.15,1486.45 2231.15,582.333 2052.27,582.333 "/>
<circle clip-path="url(#clip782)" style="fill:#009af9; stroke:none; fill-opacity:0" cx="352.897" cy="1449.55" r="2"/>
<circle clip-path="url(#clip782)" style="fill:#009af9; stroke:none; fill-opacity:0" cx="531.779" cy="1431.09" r="2"/>
<circle clip-path="url(#clip782)" style="fill:#009af9; stroke:none; fill-opacity:0" cx="710.66" cy="1468" r="2"/>
<circle clip-path="url(#clip782)" style="fill:#009af9; stroke:none; fill-opacity:0" cx="889.542" cy="1338.84" r="2"/>
<circle clip-path="url(#clip782)" style="fill:#009af9; stroke:none; fill-opacity:0" cx="1068.42" cy="1449.55" r="2"/>
<circle clip-path="url(#clip782)" style="fill:#009af9; stroke:none; fill-opacity:0" cx="1247.3" cy="1468" r="2"/>
<circle clip-path="url(#clip782)" style="fill:#009af9; stroke:none; fill-opacity:0" cx="1426.19" cy="1283.48" r="2"/>
<circle clip-path="url(#clip782)" style="fill:#009af9; stroke:none; fill-opacity:0" cx="1605.07" cy="1357.29" r="2"/>
<circle clip-path="url(#clip782)" style="fill:#009af9; stroke:none; fill-opacity:0" cx="1783.95" cy="1283.48" r="2"/>
<circle clip-path="url(#clip782)" style="fill:#009af9; stroke:none; fill-opacity:0" cx="1962.83" cy="1394.19" r="2"/>
<circle clip-path="url(#clip782)" style="fill:#009af9; stroke:none; fill-opacity:0" cx="2141.71" cy="582.333" r="2"/>
<path clip-path="url(#clip782)" d="M263.457 1486.45 L263.457 1486.45 L442.338 1486.45 L442.338 1486.45 L263.457 1486.45 L263.457 1486.45  Z" fill="#e26f46" fill-rule="evenodd" fill-opacity="0.5"/>
<polyline clip-path="url(#clip782)" style="stroke:#000000; stroke-linecap:round; stroke-linejoin:round; stroke-width:4; stroke-opacity:0.5; fill:none" points="263.457,1486.45 263.457,1486.45 442.338,1486.45 263.457,1486.45 "/>
<path clip-path="url(#clip782)" d="M442.338 1486.45 L442.338 1486.45 L621.219 1486.45 L621.219 1486.45 L442.338 1486.45 L442.338 1486.45  Z" fill="#e26f46" fill-rule="evenodd" fill-opacity="0.5"/>
<polyline clip-path="url(#clip782)" style="stroke:#000000; stroke-linecap:round; stroke-linejoin:round; stroke-width:4; stroke-opacity:0.5; fill:none" points="442.338,1486.45 442.338,1486.45 621.219,1486.45 442.338,1486.45 "/>
<path clip-path="url(#clip782)" d="M621.219 1449.55 L621.219 1486.45 L800.101 1486.45 L800.101 1449.55 L621.219 1449.55 L621.219 1449.55  Z" fill="#e26f46" fill-rule="evenodd" fill-opacity="0.5"/>
<polyline clip-path="url(#clip782)" style="stroke:#000000; stroke-linecap:round; stroke-linejoin:round; stroke-width:4; stroke-opacity:0.5; fill:none" points="621.219,1449.55 621.219,1486.45 800.101,1486.45 800.101,1449.55 621.219,1449.55 "/>
<path clip-path="url(#clip782)" d="M800.101 1412.64 L800.101 1486.45 L978.982 1486.45 L978.982 1412.64 L800.101 1412.64 L800.101 1412.64  Z" fill="#e26f46" fill-rule="evenodd" fill-opacity="0.5"/>
<polyline clip-path="url(#clip782)" style="stroke:#000000; stroke-linecap:round; stroke-linejoin:round; stroke-width:4; stroke-opacity:0.5; fill:none" points="800.101,1412.64 800.101,1486.45 978.982,1486.45 978.982,1412.64 800.101,1412.64 "/>
<path clip-path="url(#clip782)" d="M978.982 1412.64 L978.982 1486.45 L1157.86 1486.45 L1157.86 1412.64 L978.982 1412.64 L978.982 1412.64  Z" fill="#e26f46" fill-rule="evenodd" fill-opacity="0.5"/>
<polyline clip-path="url(#clip782)" style="stroke:#000000; stroke-linecap:round; stroke-linejoin:round; stroke-width:4; stroke-opacity:0.5; fill:none" points="978.982,1412.64 978.982,1486.45 1157.86,1486.45 1157.86,1412.64 978.982,1412.64 "/>
<path clip-path="url(#clip782)" d="M1157.86 1394.19 L1157.86 1486.45 L1336.75 1486.45 L1336.75 1394.19 L1157.86 1394.19 L1157.86 1394.19  Z" fill="#e26f46" fill-rule="evenodd" fill-opacity="0.5"/>
<polyline clip-path="url(#clip782)" style="stroke:#000000; stroke-linecap:round; stroke-linejoin:round; stroke-width:4; stroke-opacity:0.5; fill:none" points="1157.86,1394.19 1157.86,1486.45 1336.75,1486.45 1336.75,1394.19 1157.86,1394.19 "/>
<path clip-path="url(#clip782)" d="M1336.75 1449.55 L1336.75 1486.45 L1515.63 1486.45 L1515.63 1449.55 L1336.75 1449.55 L1336.75 1449.55  Z" fill="#e26f46" fill-rule="evenodd" fill-opacity="0.5"/>
<polyline clip-path="url(#clip782)" style="stroke:#000000; stroke-linecap:round; stroke-linejoin:round; stroke-width:4; stroke-opacity:0.5; fill:none" points="1336.75,1449.55 1336.75,1486.45 1515.63,1486.45 1515.63,1449.55 1336.75,1449.55 "/>
<path clip-path="url(#clip782)" d="M1515.63 1394.19 L1515.63 1486.45 L1694.51 1486.45 L1694.51 1394.19 L1515.63 1394.19 L1515.63 1394.19  Z" fill="#e26f46" fill-rule="evenodd" fill-opacity="0.5"/>
<polyline clip-path="url(#clip782)" style="stroke:#000000; stroke-linecap:round; stroke-linejoin:round; stroke-width:4; stroke-opacity:0.5; fill:none" points="1515.63,1394.19 1515.63,1486.45 1694.51,1486.45 1694.51,1394.19 1515.63,1394.19 "/>
<path clip-path="url(#clip782)" d="M1694.51 47.2441 L1694.51 1486.45 L1873.39 1486.45 L1873.39 47.2441 L1694.51 47.2441 L1694.51 47.2441  Z" fill="#e26f46" fill-rule="evenodd" fill-opacity="0.5"/>
<polyline clip-path="url(#clip782)" style="stroke:#000000; stroke-linecap:round; stroke-linejoin:round; stroke-width:4; stroke-opacity:0.5; fill:none" points="1694.51,47.2441 1694.51,1486.45 1873.39,1486.45 1873.39,47.2441 1694.51,47.2441 "/>
<path clip-path="url(#clip782)" d="M1873.39 1486.45 L1873.39 1486.45 L2052.27 1486.45 L2052.27 1486.45 L1873.39 1486.45 L1873.39 1486.45  Z" fill="#e26f46" fill-rule="evenodd" fill-opacity="0.5"/>
<polyline clip-path="url(#clip782)" style="stroke:#000000; stroke-linecap:round; stroke-linejoin:round; stroke-width:4; stroke-opacity:0.5; fill:none" points="1873.39,1486.45 1873.39,1486.45 2052.27,1486.45 1873.39,1486.45 "/>
<path clip-path="url(#clip782)" d="M2052.27 1486.45 L2052.27 1486.45 L2231.15 1486.45 L2231.15 1486.45 L2052.27 1486.45 L2052.27 1486.45  Z" fill="#e26f46" fill-rule="evenodd" fill-opacity="0.5"/>
<polyline clip-path="url(#clip782)" style="stroke:#000000; stroke-linecap:round; stroke-linejoin:round; stroke-width:4; stroke-opacity:0.5; fill:none" points="2052.27,1486.45 2052.27,1486.45 2231.15,1486.45 2052.27,1486.45 "/>
<circle clip-path="url(#clip782)" style="fill:#e26f46; stroke:none; fill-opacity:0" cx="352.897" cy="1486.45" r="2"/>
<circle clip-path="url(#clip782)" style="fill:#e26f46; stroke:none; fill-opacity:0" cx="531.779" cy="1486.45" r="2"/>
<circle clip-path="url(#clip782)" style="fill:#e26f46; stroke:none; fill-opacity:0" cx="710.66" cy="1449.55" r="2"/>
<circle clip-path="url(#clip782)" style="fill:#e26f46; stroke:none; fill-opacity:0" cx="889.542" cy="1412.64" r="2"/>
<circle clip-path="url(#clip782)" style="fill:#e26f46; stroke:none; fill-opacity:0" cx="1068.42" cy="1412.64" r="2"/>
<circle clip-path="url(#clip782)" style="fill:#e26f46; stroke:none; fill-opacity:0" cx="1247.3" cy="1394.19" r="2"/>
<circle clip-path="url(#clip782)" style="fill:#e26f46; stroke:none; fill-opacity:0" cx="1426.19" cy="1449.55" r="2"/>
<circle clip-path="url(#clip782)" style="fill:#e26f46; stroke:none; fill-opacity:0" cx="1605.07" cy="1394.19" r="2"/>
<circle clip-path="url(#clip782)" style="fill:#e26f46; stroke:none; fill-opacity:0" cx="1783.95" cy="47.2441" r="2"/>
<circle clip-path="url(#clip782)" style="fill:#e26f46; stroke:none; fill-opacity:0" cx="1962.83" cy="1486.45" r="2"/>
<circle clip-path="url(#clip782)" style="fill:#e26f46; stroke:none; fill-opacity:0" cx="2141.71" cy="1486.45" r="2"/>
<path clip-path="url(#clip780)" d="M215.55 250.738 L709.74 250.738 L709.74 95.2176 L215.55 95.2176  Z" fill="#ffffff" fill-rule="evenodd" fill-opacity="1"/>
<polyline clip-path="url(#clip780)" style="stroke:#000000; stroke-linecap:round; stroke-linejoin:round; stroke-width:4; stroke-opacity:1; fill:none" points="215.55,250.738 709.74,250.738 709.74,95.2176 215.55,95.2176 215.55,250.738 "/>
<path clip-path="url(#clip780)" d="M240.115 167.794 L387.509 167.794 L387.509 126.322 L240.115 126.322 L240.115 167.794  Z" fill="#009af9" fill-rule="evenodd" fill-opacity="1"/>
<polyline clip-path="url(#clip780)" style="stroke:#000000; stroke-linecap:round; stroke-linejoin:round; stroke-width:4; stroke-opacity:1; fill:none" points="240.115,167.794 387.509,167.794 387.509,126.322 240.115,126.322 240.115,167.794 "/>
<path clip-path="url(#clip780)" d="M412.074 129.778 L433.926 129.778 L433.926 133.713 L416.75 133.713 L416.75 143.944 L433.209 143.944 L433.209 147.879 L416.75 147.879 L416.75 160.402 L434.343 160.402 L434.343 164.338 L412.074 164.338 L412.074 129.778 Z" fill="#000000" fill-rule="nonzero" fill-opacity="1" /><path clip-path="url(#clip780)" d="M463.394 138.412 L454.019 151.027 L463.88 164.338 L458.857 164.338 L451.31 154.152 L443.764 164.338 L438.741 164.338 L448.81 150.773 L439.597 138.412 L444.621 138.412 L451.496 147.648 L458.37 138.412 L463.394 138.412 Z" fill="#000000" fill-rule="nonzero" fill-opacity="1" /><path clip-path="url(#clip780)" d="M474.019 160.449 L474.019 174.199 L469.736 174.199 L469.736 138.412 L474.019 138.412 L474.019 142.347 Q475.361 140.032 477.398 138.921 Q479.458 137.787 482.306 137.787 Q487.028 137.787 489.968 141.537 Q492.93 145.287 492.93 151.398 Q492.93 157.509 489.968 161.259 Q487.028 165.009 482.306 165.009 Q479.458 165.009 477.398 163.898 Q475.361 162.763 474.019 160.449 M488.509 151.398 Q488.509 146.699 486.565 144.037 Q484.643 141.352 481.264 141.352 Q477.884 141.352 475.94 144.037 Q474.019 146.699 474.019 151.398 Q474.019 156.097 475.94 158.782 Q477.884 161.444 481.264 161.444 Q484.643 161.444 486.565 158.782 Q488.509 156.097 488.509 151.398 Z" fill="#000000" fill-rule="nonzero" fill-opacity="1" /><path clip-path="url(#clip780)" d="M522.166 150.31 L522.166 152.393 L502.583 152.393 Q502.861 156.791 505.222 159.106 Q507.606 161.398 511.842 161.398 Q514.296 161.398 516.588 160.796 Q518.903 160.194 521.171 158.99 L521.171 163.018 Q518.879 163.99 516.472 164.5 Q514.065 165.009 511.588 165.009 Q505.384 165.009 501.75 161.398 Q498.139 157.787 498.139 151.629 Q498.139 145.264 501.565 141.537 Q505.014 137.787 510.847 137.787 Q516.078 137.787 519.111 141.166 Q522.166 144.523 522.166 150.31 M517.907 149.06 Q517.861 145.565 515.94 143.481 Q514.041 141.398 510.893 141.398 Q507.329 141.398 505.176 143.412 Q503.046 145.426 502.722 149.083 L517.907 149.06 Z" fill="#000000" fill-rule="nonzero" fill-opacity="1" /><path clip-path="url(#clip780)" d="M547.814 139.407 L547.814 143.389 Q546.009 142.393 544.18 141.907 Q542.375 141.398 540.523 141.398 Q536.379 141.398 534.088 144.037 Q531.796 146.652 531.796 151.398 Q531.796 156.143 534.088 158.782 Q536.379 161.398 540.523 161.398 Q542.375 161.398 544.18 160.912 Q546.009 160.402 547.814 159.407 L547.814 163.342 Q546.032 164.176 544.111 164.592 Q542.213 165.009 540.06 165.009 Q534.203 165.009 530.754 161.328 Q527.305 157.648 527.305 151.398 Q527.305 145.055 530.777 141.421 Q534.273 137.787 540.338 137.787 Q542.305 137.787 544.18 138.203 Q546.055 138.597 547.814 139.407 Z" fill="#000000" fill-rule="nonzero" fill-opacity="1" /><path clip-path="url(#clip780)" d="M559.435 131.051 L559.435 138.412 L568.208 138.412 L568.208 141.722 L559.435 141.722 L559.435 155.796 Q559.435 158.967 560.291 159.87 Q561.171 160.773 563.833 160.773 L568.208 160.773 L568.208 164.338 L563.833 164.338 Q558.902 164.338 557.027 162.509 Q555.152 160.657 555.152 155.796 L555.152 141.722 L552.027 141.722 L552.027 138.412 L555.152 138.412 L555.152 131.051 L559.435 131.051 Z" fill="#000000" fill-rule="nonzero" fill-opacity="1" /><path clip-path="url(#clip780)" d="M585.592 151.305 Q580.43 151.305 578.439 152.486 Q576.449 153.666 576.449 156.514 Q576.449 158.782 577.93 160.125 Q579.435 161.444 582.004 161.444 Q585.546 161.444 587.675 158.944 Q589.828 156.421 589.828 152.254 L589.828 151.305 L585.592 151.305 M594.087 149.546 L594.087 164.338 L589.828 164.338 L589.828 160.402 Q588.37 162.763 586.194 163.898 Q584.018 165.009 580.87 165.009 Q576.888 165.009 574.527 162.787 Q572.189 160.541 572.189 156.791 Q572.189 152.416 575.106 150.194 Q578.046 147.972 583.856 147.972 L589.828 147.972 L589.828 147.555 Q589.828 144.615 587.884 143.018 Q585.962 141.398 582.467 141.398 Q580.245 141.398 578.138 141.93 Q576.032 142.463 574.087 143.527 L574.087 139.592 Q576.425 138.69 578.624 138.25 Q580.824 137.787 582.907 137.787 Q588.532 137.787 591.31 140.703 Q594.087 143.62 594.087 149.546 Z" fill="#000000" fill-rule="nonzero" fill-opacity="1" /><path clip-path="url(#clip780)" d="M607.073 131.051 L607.073 138.412 L615.846 138.412 L615.846 141.722 L607.073 141.722 L607.073 155.796 Q607.073 158.967 607.93 159.87 Q608.809 160.773 611.471 160.773 L615.846 160.773 L615.846 164.338 L611.471 164.338 Q606.541 164.338 604.666 162.509 Q602.791 160.657 602.791 155.796 L602.791 141.722 L599.666 141.722 L599.666 138.412 L602.791 138.412 L602.791 131.051 L607.073 131.051 Z" fill="#000000" fill-rule="nonzero" fill-opacity="1" /><path clip-path="url(#clip780)" d="M621.448 138.412 L625.708 138.412 L625.708 164.338 L621.448 164.338 L621.448 138.412 M621.448 128.319 L625.708 128.319 L625.708 133.713 L621.448 133.713 L621.448 128.319 Z" fill="#000000" fill-rule="nonzero" fill-opacity="1" /><path clip-path="url(#clip780)" d="M644.666 141.398 Q641.24 141.398 639.249 144.083 Q637.258 146.745 637.258 151.398 Q637.258 156.051 639.226 158.736 Q641.217 161.398 644.666 161.398 Q648.069 161.398 650.059 158.713 Q652.05 156.027 652.05 151.398 Q652.05 146.791 650.059 144.106 Q648.069 141.398 644.666 141.398 M644.666 137.787 Q650.221 137.787 653.393 141.398 Q656.564 145.009 656.564 151.398 Q656.564 157.764 653.393 161.398 Q650.221 165.009 644.666 165.009 Q639.087 165.009 635.916 161.398 Q632.768 157.764 632.768 151.398 Q632.768 145.009 635.916 141.398 Q639.087 137.787 644.666 137.787 Z" fill="#000000" fill-rule="nonzero" fill-opacity="1" /><path clip-path="url(#clip780)" d="M685.175 148.689 L685.175 164.338 L680.916 164.338 L680.916 148.828 Q680.916 145.148 679.48 143.319 Q678.045 141.49 675.175 141.49 Q671.726 141.49 669.735 143.69 Q667.744 145.889 667.744 149.685 L667.744 164.338 L663.462 164.338 L663.462 138.412 L667.744 138.412 L667.744 142.44 Q669.272 140.102 671.332 138.944 Q673.416 137.787 676.124 137.787 Q680.591 137.787 682.883 140.565 Q685.175 143.319 685.175 148.689 Z" fill="#000000" fill-rule="nonzero" fill-opacity="1" /><path clip-path="url(#clip780)" d="M240.115 219.634 L387.509 219.634 L387.509 178.162 L240.115 178.162 L240.115 219.634  Z" fill="#e26f46" fill-rule="evenodd" fill-opacity="0.5"/>
<polyline clip-path="url(#clip780)" style="stroke:#000000; stroke-linecap:round; stroke-linejoin:round; stroke-width:4; stroke-opacity:1; fill:none" points="240.115,219.634 387.509,219.634 387.509,178.162 240.115,178.162 240.115,219.634 "/>
<path clip-path="url(#clip780)" d="M439.945 184.28 L439.945 189.21 Q437.584 187.011 434.898 185.923 Q432.236 184.835 429.227 184.835 Q423.301 184.835 420.153 188.469 Q417.005 192.08 417.005 198.932 Q417.005 205.761 420.153 209.395 Q423.301 213.006 429.227 213.006 Q432.236 213.006 434.898 211.918 Q437.584 210.83 439.945 208.631 L439.945 213.516 Q437.491 215.182 434.736 216.016 Q432.005 216.849 428.949 216.849 Q421.102 216.849 416.588 212.057 Q412.074 207.242 412.074 198.932 Q412.074 190.599 416.588 185.807 Q421.102 180.993 428.949 180.993 Q432.051 180.993 434.783 181.826 Q437.537 182.636 439.945 184.28 Z" fill="#000000" fill-rule="nonzero" fill-opacity="1" /><path clip-path="url(#clip780)" d="M456.079 216.178 L442.884 181.618 L447.769 181.618 L458.718 210.715 L469.69 181.618 L474.551 181.618 L461.38 216.178 L456.079 216.178 Z" fill="#000000" fill-rule="nonzero" fill-opacity="1" /><path clip-path="url(#clip780)" d="M492.583 203.747 Q492.583 207.057 494.227 208.955 Q495.87 210.83 498.741 210.83 Q501.588 210.83 503.208 208.932 Q504.852 207.034 504.852 203.747 Q504.852 200.506 503.185 198.608 Q501.518 196.687 498.694 196.687 Q495.893 196.687 494.227 198.585 Q492.583 200.483 492.583 203.747 M505.199 210.668 Q503.81 212.451 502.004 213.307 Q500.222 214.141 497.838 214.141 Q493.856 214.141 491.356 211.27 Q488.88 208.377 488.88 203.747 Q488.88 199.117 491.38 196.224 Q493.88 193.33 497.838 193.33 Q500.222 193.33 502.028 194.21 Q503.833 195.067 505.199 196.826 L505.199 193.793 L508.509 193.793 L508.509 210.83 Q511.889 210.321 513.787 207.752 Q515.708 205.159 515.708 201.062 Q515.708 198.585 514.967 196.409 Q514.25 194.233 512.768 192.381 Q510.361 189.349 506.889 187.752 Q503.44 186.131 499.366 186.131 Q496.518 186.131 493.903 186.895 Q491.287 187.636 489.065 189.118 Q485.431 191.479 483.37 195.321 Q481.333 199.141 481.333 203.608 Q481.333 207.289 482.653 210.506 Q483.995 213.724 486.518 216.178 Q488.949 218.585 492.143 219.835 Q495.338 221.108 498.972 221.108 Q501.958 221.108 504.829 220.09 Q507.722 219.094 510.129 217.219 L512.213 219.789 Q509.319 222.034 505.893 223.215 Q502.491 224.418 498.972 224.418 Q494.69 224.418 490.893 222.89 Q487.097 221.386 484.134 218.492 Q481.171 215.599 479.62 211.803 Q478.069 207.983 478.069 203.608 Q478.069 199.395 479.643 195.576 Q481.218 191.756 484.134 188.863 Q487.12 185.923 491.032 184.372 Q494.944 182.798 499.319 182.798 Q504.227 182.798 508.416 184.812 Q512.629 186.826 515.477 190.53 Q517.213 192.798 518.116 195.46 Q519.041 198.122 519.041 200.969 Q519.041 207.057 515.361 210.576 Q511.68 214.094 505.199 214.233 L505.199 210.668 Z" fill="#000000" fill-rule="nonzero" fill-opacity="1" /><path clip-path="url(#clip780)" d="M543.393 199.974 Q544.898 200.483 546.31 202.15 Q547.745 203.817 549.18 206.733 L553.926 216.178 L548.902 216.178 L544.481 207.312 Q542.768 203.84 541.148 202.705 Q539.551 201.571 536.773 201.571 L531.68 201.571 L531.68 216.178 L527.004 216.178 L527.004 181.618 L537.56 181.618 Q543.486 181.618 546.402 184.094 Q549.319 186.571 549.319 191.571 Q549.319 194.835 547.791 196.988 Q546.287 199.141 543.393 199.974 M531.68 185.46 L531.68 197.729 L537.56 197.729 Q540.939 197.729 542.652 196.178 Q544.389 194.604 544.389 191.571 Q544.389 188.539 542.652 187.011 Q540.939 185.46 537.56 185.46 L531.68 185.46 Z" fill="#000000" fill-rule="nonzero" fill-opacity="1" /></svg>
