<?xml version="1.0" encoding="UTF-8"?>
<svg xmlns="http://www.w3.org/2000/svg" xmlns:xlink="http://www.w3.org/1999/xlink" width="415pt" height="150pt" viewBox="0 0 415 150" version="1.1">
<g id="surface6">
<path style=" stroke:none;fill-rule:nonzero;fill:rgb(100%,100%,93.333333%);fill-opacity:1;" d="M 207.5 149.5 L 10.5 149.5 C 4.976562 149.5 0.5 145.023438 0.5 139.5 L 0.5 10.5 C 0.5 4.976562 4.976562 0.5 10.5 0.5 L 404.5 0.5 C 410.023438 0.5 414.5 4.976562 414.5 10.5 L 414.5 139.5 C 414.5 145.023438 410.023438 149.5 404.5 149.5 Z M 207.5 149.5 "/>
<path style="fill:none;stroke-width:8;stroke-linecap:round;stroke-linejoin:miter;stroke:rgb(20%,20%,20%);stroke-opacity:1;stroke-miterlimit:10;" d="M 30 81 L 130 41 "/>
<path style="fill:none;stroke-width:8;stroke-linecap:round;stroke-linejoin:miter;stroke:rgb(20%,20%,20%);stroke-opacity:1;stroke-miterlimit:10;" d="M 14 133 L 130 17 "/>
<path style=" stroke:none;fill-rule:nonzero;fill:rgb(79.6%,23.5%,20%);fill-opacity:1;" d="M 93 117 C 93 126.390625 85.390625 134 76 134 C 66.609375 134 59 126.390625 59 117 C 59 107.609375 66.609375 100 76 100 C 85.390625 100 93 107.609375 93 117 "/>
<path style=" stroke:none;fill-rule:nonzero;fill:rgb(22%,59.6%,14.9%);fill-opacity:1;" d="M 133 77 C 133 86.390625 125.390625 94 116 94 C 106.609375 94 99 86.390625 99 77 C 99 67.609375 106.609375 60 116 60 C 125.390625 60 133 67.609375 133 77 "/>
<path style=" stroke:none;fill-rule:nonzero;fill:rgb(58.4%,34.5%,69.8%);fill-opacity:1;" d="M 133 117 C 133 126.390625 125.390625 134 116 134 C 106.609375 134 99 126.390625 99 117 C 99 107.609375 106.609375 100 116 100 C 125.390625 100 133 107.609375 133 117 "/>
<path style=" stroke:none;fill-rule:nonzero;fill:rgb(20%,20%,20%);fill-opacity:1;" d="M 177.417969 60.46875 L 191.445312 60.46875 L 191.445312 107.582031 C 191.445312 111.828125 191.765625 116.0625 190.730469 120.230469 C 189.523438 125.285156 186.5 129.722656 182.238281 132.695312 C 179.277344 134.757812 175.847656 136.050781 172.261719 136.457031 C 160.707031 137.757812 149.894531 130.078125 147.324219 118.734375 L 160.941406 115.257812 C 161.59375 118.300781 163.734375 120.820312 166.628906 121.957031 C 167.917969 122.4375 169.300781 122.605469 170.664062 122.453125 C 171.925781 122.320312 173.132812 121.882812 174.1875 121.175781 C 177.234375 119.054688 177.417969 115.304688 177.417969 112.003906 Z M 206.527344 60.46875 L 220.296875 60.46875 L 220.296875 86.660156 C 220.296875 91.730469 220.640625 95.28125 221.34375 97.25 C 221.953125 99.101562 223.132812 100.714844 224.707031 101.859375 C 226.390625 103.003906 228.394531 103.585938 230.429688 103.523438 C 232.46875 103.582031 234.480469 103.015625 236.191406 101.90625 C 237.84375 100.726562 239.078125 99.054688 239.710938 97.132812 C 240.269531 95.570312 240.546875 92.226562 240.546875 87.097656 L 240.546875 60.5 L 254.222656 60.5 L 254.222656 83.511719 C 254.222656 92.984375 253.460938 99.484375 252.023438 102.972656 C 250.398438 106.984375 247.578125 110.402344 243.949219 112.761719 C 240.382812 115.042969 235.859375 116.183594 230.375 116.183594 C 224.410156 116.183594 219.597656 114.855469 215.929688 112.199219 C 212.191406 109.441406 209.464844 105.53125 208.164062 101.070312 C 207.128906 97.769531 206.570312 91.785156 206.570312 83.117188 Z M 332.804688 133.804688 L 346.65625 133.804688 L 346.65625 60.457031 L 330.816406 60.457031 L 307.835938 91.992188 L 284.855469 60.457031 L 268.90625 60.457031 L 268.90625 133.804688 L 282.753906 133.804688 L 282.753906 80.464844 L 306.152344 112.433594 L 308.878906 112.433594 L 332.804688 80.566406 Z M 359.28125 60.46875 L 374.089844 60.46875 C 382.15625 60.46875 387.933594 61.203125 391.425781 62.667969 C 394.921875 64.101562 397.867188 66.625 399.816406 69.863281 C 401.933594 73.457031 403 77.574219 402.886719 81.742188 C 403.050781 86.332031 401.632812 90.84375 398.871094 94.511719 C 396.105469 98.011719 392.28125 100.523438 387.972656 101.675781 C 385.285156 102.40625 380.382812 102.773438 373.265625 102.773438 L 373.265625 133.859375 L 359.28125 133.859375 Z M 373.265625 89.15625 L 377.664062 89.15625 C 380.117188 89.269531 382.578125 89.019531 384.957031 88.40625 C 386.265625 87.953125 387.394531 87.085938 388.167969 85.933594 C 388.980469 84.699219 389.390625 83.242188 389.347656 81.765625 C 389.496094 79.25 388.21875 76.855469 386.046875 75.582031 C 384.484375 74.625 381.523438 74.175781 377.191406 74.175781 L 373.265625 74.175781 Z M 373.265625 89.15625 "/>
</g>
</svg>
