<svg xmlns="http://www.w3.org/2000/svg" width="500pt" height="500pt" viewBox="0 0 125 125"> -->
<defs>
<style>
.writing{fill:#231f20;}
.line{stroke:#231f20;stroke-linecap:round;stroke-width:6.63px;}
.cls-5,.cls-7,.cls-9{fill:none;stroke-miterlimit:10;stroke-width:3px;}
.cls-5{stroke:#945bb0;}
.cls-7{stroke:#3b972e;}
.cls-9{stroke:#c93d39;}
</style>
</defs>
<line class="line" x1="19.64" y1="67.28" x2="120.16" y2="28.42"/>
<line class="line" x1="3.32" y1="118.72" x2="120.16" y2="3.32"/>
<path fill="#aa7dc0" d="M106.29,120.18a17.17,17.17,0,1,1,12.16-5A17.06,17.06,0,0,1,106.29,120.18Z"/>
<path class="cls-5" d="M106.29,120.18a17.17,17.17,0,1,1,12.16-5A17.06,17.06,0,0,1,106.29,120.18Z"/>
<path fill="#6bab5b" d="M106.29,79.33a17.19,17.19,0,1,1,12.16-5A17.07,17.07,0,0,1,106.29,79.33Z"/>
<path class="cls-7" d="M106.29,79.33a17.19,17.19,0,1,1,12.16-5A17.07,17.07,0,0,1,106.29,79.33Z"/>
<path fill="#d66661" d="M65.28,120.18a17.19,17.19,0,1,1,12.15-5A17,17,0,0,1,65.28,120.18Z"/>
<path class="cls-9" d="M65.28,120.18a17.19,17.19,0,1,1,12.15-5A17,17,0,0,1,65.28,120.18Z"/>
</svg>
