<?xml version="1.0" encoding="utf-8"?>
<svg xmlns="http://www.w3.org/2000/svg" xmlns:xlink="http://www.w3.org/1999/xlink" width="600" height="400" viewBox="0 0 2400 1600">
<defs>
  <clipPath id="clip240">
    <rect x="0" y="0" width="2400" height="1600"/>
  </clipPath>
</defs>
<path clip-path="url(#clip240)" d="M0 1600 L2400 1600 L2400 0 L0 0  Z" fill="#ffffff" fill-rule="evenodd" fill-opacity="1"/>
<defs>
  <clipPath id="clip241">
    <rect x="480" y="0" width="1681" height="1600"/>
  </clipPath>
</defs>
<path clip-path="url(#clip240)" d="M139.446 1423.18 L2352.76 1423.18 L2352.76 47.2441 L139.446 47.2441  Z" fill="#ffffff" fill-rule="evenodd" fill-opacity="1"/>
<defs>
  <clipPath id="clip242">
    <rect x="139" y="47" width="2214" height="1377"/>
  </clipPath>
</defs>
<polyline clip-path="url(#clip242)" style="stroke:#000000; stroke-linecap:round; stroke-linejoin:round; stroke-width:2; stroke-opacity:0.1; fill:none" points="370.617,1423.18 370.617,47.2441 "/>
<polyline clip-path="url(#clip242)" style="stroke:#000000; stroke-linecap:round; stroke-linejoin:round; stroke-width:2; stroke-opacity:0.1; fill:none" points="808.359,1423.18 808.359,47.2441 "/>
<polyline clip-path="url(#clip242)" style="stroke:#000000; stroke-linecap:round; stroke-linejoin:round; stroke-width:2; stroke-opacity:0.1; fill:none" points="1246.1,1423.18 1246.1,47.2441 "/>
<polyline clip-path="url(#clip242)" style="stroke:#000000; stroke-linecap:round; stroke-linejoin:round; stroke-width:2; stroke-opacity:0.1; fill:none" points="1683.84,1423.18 1683.84,47.2441 "/>
<polyline clip-path="url(#clip242)" style="stroke:#000000; stroke-linecap:round; stroke-linejoin:round; stroke-width:2; stroke-opacity:0.1; fill:none" points="2121.58,1423.18 2121.58,47.2441 "/>
<polyline clip-path="url(#clip240)" style="stroke:#000000; stroke-linecap:round; stroke-linejoin:round; stroke-width:4; stroke-opacity:1; fill:none" points="139.446,1423.18 2352.76,1423.18 "/>
<polyline clip-path="url(#clip240)" style="stroke:#000000; stroke-linecap:round; stroke-linejoin:round; stroke-width:4; stroke-opacity:1; fill:none" points="370.617,1423.18 370.617,1404.28 "/>
<polyline clip-path="url(#clip240)" style="stroke:#000000; stroke-linecap:round; stroke-linejoin:round; stroke-width:4; stroke-opacity:1; fill:none" points="808.359,1423.18 808.359,1404.28 "/>
<polyline clip-path="url(#clip240)" style="stroke:#000000; stroke-linecap:round; stroke-linejoin:round; stroke-width:4; stroke-opacity:1; fill:none" points="1246.1,1423.18 1246.1,1404.28 "/>
<polyline clip-path="url(#clip240)" style="stroke:#000000; stroke-linecap:round; stroke-linejoin:round; stroke-width:4; stroke-opacity:1; fill:none" points="1683.84,1423.18 1683.84,1404.28 "/>
<polyline clip-path="url(#clip240)" style="stroke:#000000; stroke-linecap:round; stroke-linejoin:round; stroke-width:4; stroke-opacity:1; fill:none" points="2121.58,1423.18 2121.58,1404.28 "/>
<path clip-path="url(#clip240)" d="M330.224 1481.64 L337.863 1481.64 L337.863 1455.28 L329.552 1456.95 L329.552 1452.69 L337.816 1451.02 L342.492 1451.02 L342.492 1481.64 L350.131 1481.64 L350.131 1485.58 L330.224 1485.58 L330.224 1481.64 Z" fill="#000000" fill-rule="nonzero" fill-opacity="1" /><path clip-path="url(#clip240)" d="M370.154 1466.44 Q367.006 1466.44 365.154 1468.59 Q363.325 1470.74 363.325 1474.49 Q363.325 1478.22 365.154 1480.39 Q367.006 1482.55 370.154 1482.55 Q373.302 1482.55 375.131 1480.39 Q376.983 1478.22 376.983 1474.49 Q376.983 1470.74 375.131 1468.59 Q373.302 1466.44 370.154 1466.44 M379.436 1451.78 L379.436 1456.04 Q377.677 1455.21 375.872 1454.77 Q374.089 1454.33 372.33 1454.33 Q367.7 1454.33 365.247 1457.45 Q362.816 1460.58 362.469 1466.9 Q363.835 1464.89 365.895 1463.82 Q367.955 1462.73 370.432 1462.73 Q375.64 1462.73 378.649 1465.9 Q381.682 1469.05 381.682 1474.49 Q381.682 1479.82 378.534 1483.03 Q375.386 1486.25 370.154 1486.25 Q364.159 1486.25 360.987 1481.67 Q357.816 1477.06 357.816 1468.33 Q357.816 1460.14 361.705 1455.28 Q365.594 1450.39 372.145 1450.39 Q373.904 1450.39 375.686 1450.74 Q377.492 1451.09 379.436 1451.78 Z" fill="#000000" fill-rule="nonzero" fill-opacity="1" /><path clip-path="url(#clip240)" d="M399.737 1454.1 Q396.126 1454.1 394.297 1457.66 Q392.492 1461.2 392.492 1468.33 Q392.492 1475.44 394.297 1479.01 Q396.126 1482.55 399.737 1482.55 Q403.371 1482.55 405.177 1479.01 Q407.006 1475.44 407.006 1468.33 Q407.006 1461.2 405.177 1457.66 Q403.371 1454.1 399.737 1454.1 M399.737 1450.39 Q405.547 1450.39 408.603 1455 Q411.682 1459.58 411.682 1468.33 Q411.682 1477.06 408.603 1481.67 Q405.547 1486.25 399.737 1486.25 Q393.927 1486.25 390.848 1481.67 Q387.793 1477.06 387.793 1468.33 Q387.793 1459.58 390.848 1455 Q393.927 1450.39 399.737 1450.39 Z" fill="#000000" fill-rule="nonzero" fill-opacity="1" /><path clip-path="url(#clip240)" d="M767.966 1481.64 L775.604 1481.64 L775.604 1455.28 L767.294 1456.95 L767.294 1452.69 L775.558 1451.02 L780.234 1451.02 L780.234 1481.64 L787.873 1481.64 L787.873 1485.58 L767.966 1485.58 L767.966 1481.64 Z" fill="#000000" fill-rule="nonzero" fill-opacity="1" /><path clip-path="url(#clip240)" d="M807.317 1469.17 Q803.984 1469.17 802.063 1470.95 Q800.164 1472.73 800.164 1475.86 Q800.164 1478.98 802.063 1480.77 Q803.984 1482.55 807.317 1482.55 Q810.651 1482.55 812.572 1480.77 Q814.493 1478.96 814.493 1475.86 Q814.493 1472.73 812.572 1470.95 Q810.674 1469.17 807.317 1469.17 M802.641 1467.18 Q799.632 1466.44 797.942 1464.38 Q796.276 1462.32 796.276 1459.35 Q796.276 1455.21 799.215 1452.8 Q802.178 1450.39 807.317 1450.39 Q812.479 1450.39 815.419 1452.8 Q818.359 1455.21 818.359 1459.35 Q818.359 1462.32 816.669 1464.38 Q815.002 1466.44 812.016 1467.18 Q815.396 1467.96 817.271 1470.26 Q819.169 1472.55 819.169 1475.86 Q819.169 1480.88 816.09 1483.57 Q813.035 1486.25 807.317 1486.25 Q801.6 1486.25 798.521 1483.57 Q795.465 1480.88 795.465 1475.86 Q795.465 1472.55 797.364 1470.26 Q799.262 1467.96 802.641 1467.18 M800.928 1459.79 Q800.928 1462.48 802.595 1463.98 Q804.285 1465.49 807.317 1465.49 Q810.326 1465.49 812.016 1463.98 Q813.729 1462.48 813.729 1459.79 Q813.729 1457.11 812.016 1455.6 Q810.326 1454.1 807.317 1454.1 Q804.285 1454.1 802.595 1455.6 Q800.928 1457.11 800.928 1459.79 Z" fill="#000000" fill-rule="nonzero" fill-opacity="1" /><path clip-path="url(#clip240)" d="M837.479 1454.1 Q833.868 1454.1 832.039 1457.66 Q830.234 1461.2 830.234 1468.33 Q830.234 1475.44 832.039 1479.01 Q833.868 1482.55 837.479 1482.55 Q841.113 1482.55 842.919 1479.01 Q844.748 1475.44 844.748 1468.33 Q844.748 1461.2 842.919 1457.66 Q841.113 1454.1 837.479 1454.1 M837.479 1450.39 Q843.289 1450.39 846.345 1455 Q849.423 1459.58 849.423 1468.33 Q849.423 1477.06 846.345 1481.67 Q843.289 1486.25 837.479 1486.25 Q831.669 1486.25 828.59 1481.67 Q825.535 1477.06 825.535 1468.33 Q825.535 1459.58 828.59 1455 Q831.669 1450.39 837.479 1450.39 Z" fill="#000000" fill-rule="nonzero" fill-opacity="1" /><path clip-path="url(#clip240)" d="M1209.79 1481.64 L1226.11 1481.64 L1226.11 1485.58 L1204.17 1485.58 L1204.17 1481.64 Q1206.83 1478.89 1211.41 1474.26 Q1216.02 1469.61 1217.2 1468.27 Q1219.45 1465.74 1220.33 1464.01 Q1221.23 1462.25 1221.23 1460.56 Q1221.23 1457.8 1219.28 1456.07 Q1217.36 1454.33 1214.26 1454.33 Q1212.06 1454.33 1209.61 1455.09 Q1207.18 1455.86 1204.4 1457.41 L1204.4 1452.69 Q1207.22 1451.55 1209.68 1450.97 Q1212.13 1450.39 1214.17 1450.39 Q1219.54 1450.39 1222.73 1453.08 Q1225.93 1455.77 1225.93 1460.26 Q1225.93 1462.39 1225.12 1464.31 Q1224.33 1466.2 1222.22 1468.8 Q1221.64 1469.47 1218.54 1472.69 Q1215.44 1475.88 1209.79 1481.64 Z" fill="#000000" fill-rule="nonzero" fill-opacity="1" /><path clip-path="url(#clip240)" d="M1245.93 1454.1 Q1242.32 1454.1 1240.49 1457.66 Q1238.68 1461.2 1238.68 1468.33 Q1238.68 1475.44 1240.49 1479.01 Q1242.32 1482.55 1245.93 1482.55 Q1249.56 1482.55 1251.37 1479.01 Q1253.2 1475.44 1253.2 1468.33 Q1253.2 1461.2 1251.37 1457.66 Q1249.56 1454.1 1245.93 1454.1 M1245.93 1450.39 Q1251.74 1450.39 1254.79 1455 Q1257.87 1459.58 1257.87 1468.33 Q1257.87 1477.06 1254.79 1481.67 Q1251.74 1486.25 1245.93 1486.25 Q1240.12 1486.25 1237.04 1481.67 Q1233.98 1477.06 1233.98 1468.33 Q1233.98 1459.58 1237.04 1455 Q1240.12 1450.39 1245.93 1450.39 Z" fill="#000000" fill-rule="nonzero" fill-opacity="1" /><path clip-path="url(#clip240)" d="M1276.09 1454.1 Q1272.48 1454.1 1270.65 1457.66 Q1268.84 1461.2 1268.84 1468.33 Q1268.84 1475.44 1270.65 1479.01 Q1272.48 1482.55 1276.09 1482.55 Q1279.72 1482.55 1281.53 1479.01 Q1283.36 1475.44 1283.36 1468.33 Q1283.36 1461.2 1281.53 1457.66 Q1279.72 1454.1 1276.09 1454.1 M1276.09 1450.39 Q1281.9 1450.39 1284.95 1455 Q1288.03 1459.58 1288.03 1468.33 Q1288.03 1477.06 1284.95 1481.67 Q1281.9 1486.25 1276.09 1486.25 Q1270.28 1486.25 1267.2 1481.67 Q1264.14 1477.06 1264.14 1468.33 Q1264.14 1459.58 1267.2 1455 Q1270.28 1450.39 1276.09 1450.39 Z" fill="#000000" fill-rule="nonzero" fill-opacity="1" /><path clip-path="url(#clip240)" d="M1647.53 1481.64 L1663.85 1481.64 L1663.85 1485.58 L1641.91 1485.58 L1641.91 1481.64 Q1644.57 1478.89 1649.16 1474.26 Q1653.76 1469.61 1654.94 1468.27 Q1657.19 1465.74 1658.07 1464.01 Q1658.97 1462.25 1658.97 1460.56 Q1658.97 1457.8 1657.03 1456.07 Q1655.1 1454.33 1652 1454.33 Q1649.8 1454.33 1647.35 1455.09 Q1644.92 1455.86 1642.14 1457.41 L1642.14 1452.69 Q1644.97 1451.55 1647.42 1450.97 Q1649.87 1450.39 1651.91 1450.39 Q1657.28 1450.39 1660.47 1453.08 Q1663.67 1455.77 1663.67 1460.26 Q1663.67 1462.39 1662.86 1464.31 Q1662.07 1466.2 1659.97 1468.8 Q1659.39 1469.47 1656.28 1472.69 Q1653.18 1475.88 1647.53 1481.64 Z" fill="#000000" fill-rule="nonzero" fill-opacity="1" /><path clip-path="url(#clip240)" d="M1677.7 1481.64 L1694.02 1481.64 L1694.02 1485.58 L1672.07 1485.58 L1672.07 1481.64 Q1674.73 1478.89 1679.32 1474.26 Q1683.92 1469.61 1685.1 1468.27 Q1687.35 1465.74 1688.23 1464.01 Q1689.13 1462.25 1689.13 1460.56 Q1689.13 1457.8 1687.19 1456.07 Q1685.27 1454.33 1682.16 1454.33 Q1679.97 1454.33 1677.51 1455.09 Q1675.08 1455.86 1672.3 1457.41 L1672.3 1452.69 Q1675.13 1451.55 1677.58 1450.97 Q1680.03 1450.39 1682.07 1450.39 Q1687.44 1450.39 1690.64 1453.08 Q1693.83 1455.77 1693.83 1460.26 Q1693.83 1462.39 1693.02 1464.31 Q1692.23 1466.2 1690.13 1468.8 Q1689.55 1469.47 1686.45 1472.69 Q1683.34 1475.88 1677.7 1481.64 Z" fill="#000000" fill-rule="nonzero" fill-opacity="1" /><path clip-path="url(#clip240)" d="M1713.83 1454.1 Q1710.22 1454.1 1708.39 1457.66 Q1706.59 1461.2 1706.59 1468.33 Q1706.59 1475.44 1708.39 1479.01 Q1710.22 1482.55 1713.83 1482.55 Q1717.47 1482.55 1719.27 1479.01 Q1721.1 1475.44 1721.1 1468.33 Q1721.1 1461.2 1719.27 1457.66 Q1717.47 1454.1 1713.83 1454.1 M1713.83 1450.39 Q1719.64 1450.39 1722.7 1455 Q1725.78 1459.58 1725.78 1468.33 Q1725.78 1477.06 1722.7 1481.67 Q1719.64 1486.25 1713.83 1486.25 Q1708.02 1486.25 1704.94 1481.67 Q1701.89 1477.06 1701.89 1468.33 Q1701.89 1459.58 1704.94 1455 Q1708.02 1450.39 1713.83 1450.39 Z" fill="#000000" fill-rule="nonzero" fill-opacity="1" /><path clip-path="url(#clip240)" d="M2085.28 1481.64 L2101.6 1481.64 L2101.6 1485.58 L2079.65 1485.58 L2079.65 1481.64 Q2082.31 1478.89 2086.9 1474.26 Q2091.5 1469.61 2092.68 1468.27 Q2094.93 1465.74 2095.81 1464.01 Q2096.71 1462.25 2096.71 1460.56 Q2096.71 1457.8 2094.77 1456.07 Q2092.85 1454.33 2089.74 1454.33 Q2087.55 1454.33 2085.09 1455.09 Q2082.66 1455.86 2079.88 1457.41 L2079.88 1452.69 Q2082.71 1451.55 2085.16 1450.97 Q2087.61 1450.39 2089.65 1450.39 Q2095.02 1450.39 2098.22 1453.08 Q2101.41 1455.77 2101.41 1460.26 Q2101.41 1462.39 2100.6 1464.31 Q2099.81 1466.2 2097.71 1468.8 Q2097.13 1469.47 2094.03 1472.69 Q2090.92 1475.88 2085.28 1481.64 Z" fill="#000000" fill-rule="nonzero" fill-opacity="1" /><path clip-path="url(#clip240)" d="M2124.26 1455.09 L2112.45 1473.54 L2124.26 1473.54 L2124.26 1455.09 M2123.03 1451.02 L2128.91 1451.02 L2128.91 1473.54 L2133.84 1473.54 L2133.84 1477.43 L2128.91 1477.43 L2128.91 1485.58 L2124.26 1485.58 L2124.26 1477.43 L2108.66 1477.43 L2108.66 1472.92 L2123.03 1451.02 Z" fill="#000000" fill-rule="nonzero" fill-opacity="1" /><path clip-path="url(#clip240)" d="M2151.57 1454.1 Q2147.96 1454.1 2146.13 1457.66 Q2144.33 1461.2 2144.33 1468.33 Q2144.33 1475.44 2146.13 1479.01 Q2147.96 1482.55 2151.57 1482.55 Q2155.21 1482.55 2157.01 1479.01 Q2158.84 1475.44 2158.84 1468.33 Q2158.84 1461.2 2157.01 1457.66 Q2155.21 1454.1 2151.57 1454.1 M2151.57 1450.39 Q2157.38 1450.39 2160.44 1455 Q2163.52 1459.58 2163.52 1468.33 Q2163.52 1477.06 2160.44 1481.67 Q2157.38 1486.25 2151.57 1486.25 Q2145.76 1486.25 2142.68 1481.67 Q2139.63 1477.06 2139.63 1468.33 Q2139.63 1459.58 2142.68 1455 Q2145.76 1450.39 2151.57 1450.39 Z" fill="#000000" fill-rule="nonzero" fill-opacity="1" /><path clip-path="url(#clip240)" d="M1120.47 1525.81 L1120.47 1562.76 L1128.24 1562.76 Q1138.07 1562.76 1142.63 1558.3 Q1147.21 1553.85 1147.21 1544.24 Q1147.21 1534.69 1142.63 1530.26 Q1138.07 1525.81 1128.24 1525.81 L1120.47 1525.81 M1114.04 1520.52 L1127.25 1520.52 Q1141.07 1520.52 1147.53 1526.28 Q1153.99 1532.01 1153.99 1544.24 Q1153.99 1556.52 1147.5 1562.28 Q1141 1568.04 1127.25 1568.04 L1114.04 1568.04 L1114.04 1520.52 Z" fill="#000000" fill-rule="nonzero" fill-opacity="1" /><path clip-path="url(#clip240)" d="M1194.47 1548.76 L1194.47 1551.62 L1167.55 1551.62 Q1167.93 1557.67 1171.18 1560.85 Q1174.45 1564 1180.28 1564 Q1183.65 1564 1186.8 1563.17 Q1189.99 1562.35 1193.11 1560.69 L1193.11 1566.23 Q1189.96 1567.57 1186.65 1568.27 Q1183.33 1568.97 1179.93 1568.97 Q1171.4 1568.97 1166.4 1564 Q1161.44 1559.04 1161.44 1550.57 Q1161.44 1541.82 1166.15 1536.69 Q1170.89 1531.54 1178.91 1531.54 Q1186.1 1531.54 1190.27 1536.18 Q1194.47 1540.8 1194.47 1548.76 M1188.62 1547.04 Q1188.55 1542.23 1185.91 1539.37 Q1183.3 1536.5 1178.97 1536.5 Q1174.07 1536.5 1171.11 1539.27 Q1168.18 1542.04 1167.74 1547.07 L1188.62 1547.04 Z" fill="#000000" fill-rule="nonzero" fill-opacity="1" /><path clip-path="url(#clip240)" d="M1231.84 1539.24 Q1234.04 1535.29 1237.09 1533.41 Q1240.15 1531.54 1244.29 1531.54 Q1249.86 1531.54 1252.88 1535.45 Q1255.9 1539.33 1255.9 1546.53 L1255.9 1568.04 L1250.02 1568.04 L1250.02 1546.72 Q1250.02 1541.59 1248.2 1539.11 Q1246.39 1536.63 1242.66 1536.63 Q1238.11 1536.63 1235.47 1539.65 Q1232.83 1542.68 1232.83 1547.9 L1232.83 1568.04 L1226.94 1568.04 L1226.94 1546.72 Q1226.94 1541.56 1225.13 1539.11 Q1223.31 1536.63 1219.52 1536.63 Q1215.04 1536.63 1212.39 1539.68 Q1209.75 1542.71 1209.75 1547.9 L1209.75 1568.04 L1203.86 1568.04 L1203.86 1532.4 L1209.75 1532.4 L1209.75 1537.93 Q1211.76 1534.66 1214.56 1533.1 Q1217.36 1531.54 1221.21 1531.54 Q1225.09 1531.54 1227.8 1533.51 Q1230.54 1535.48 1231.84 1539.24 Z" fill="#000000" fill-rule="nonzero" fill-opacity="1" /><path clip-path="url(#clip240)" d="M1283.79 1550.12 Q1276.69 1550.12 1273.95 1551.75 Q1271.21 1553.37 1271.21 1557.29 Q1271.21 1560.4 1273.25 1562.25 Q1275.32 1564.07 1278.85 1564.07 Q1283.72 1564.07 1286.65 1560.63 Q1289.61 1557.16 1289.61 1551.43 L1289.61 1550.12 L1283.79 1550.12 M1295.47 1547.71 L1295.47 1568.04 L1289.61 1568.04 L1289.61 1562.63 Q1287.61 1565.88 1284.61 1567.44 Q1281.62 1568.97 1277.29 1568.97 Q1271.82 1568.97 1268.57 1565.91 Q1265.36 1562.82 1265.36 1557.67 Q1265.36 1551.65 1269.37 1548.6 Q1273.41 1545.54 1281.4 1545.54 L1289.61 1545.54 L1289.61 1544.97 Q1289.61 1540.93 1286.94 1538.73 Q1284.29 1536.5 1279.49 1536.5 Q1276.43 1536.5 1273.54 1537.23 Q1270.64 1537.97 1267.97 1539.43 L1267.97 1534.02 Q1271.18 1532.78 1274.21 1532.17 Q1277.23 1531.54 1280.09 1531.54 Q1287.83 1531.54 1291.65 1535.55 Q1295.47 1539.56 1295.47 1547.71 Z" fill="#000000" fill-rule="nonzero" fill-opacity="1" /><path clip-path="url(#clip240)" d="M1337.16 1546.53 L1337.16 1568.04 L1331.31 1568.04 L1331.31 1546.72 Q1331.31 1541.66 1329.33 1539.14 Q1327.36 1536.63 1323.41 1536.63 Q1318.67 1536.63 1315.93 1539.65 Q1313.2 1542.68 1313.2 1547.9 L1313.2 1568.04 L1307.31 1568.04 L1307.31 1532.4 L1313.2 1532.4 L1313.2 1537.93 Q1315.3 1534.72 1318.13 1533.13 Q1320.99 1531.54 1324.72 1531.54 Q1330.86 1531.54 1334.01 1535.36 Q1337.16 1539.14 1337.16 1546.53 Z" fill="#000000" fill-rule="nonzero" fill-opacity="1" /><path clip-path="url(#clip240)" d="M1372.3 1537.81 L1372.3 1518.52 L1378.16 1518.52 L1378.16 1568.04 L1372.3 1568.04 L1372.3 1562.7 Q1370.45 1565.88 1367.62 1567.44 Q1364.82 1568.97 1360.87 1568.97 Q1354.41 1568.97 1350.34 1563.81 Q1346.3 1558.65 1346.3 1550.25 Q1346.3 1541.85 1350.34 1536.69 Q1354.41 1531.54 1360.87 1531.54 Q1364.82 1531.54 1367.62 1533.1 Q1370.45 1534.62 1372.3 1537.81 M1352.34 1550.25 Q1352.34 1556.71 1354.99 1560.4 Q1357.66 1564.07 1362.31 1564.07 Q1366.95 1564.07 1369.63 1560.4 Q1372.3 1556.71 1372.3 1550.25 Q1372.3 1543.79 1369.63 1540.13 Q1366.95 1536.44 1362.31 1536.44 Q1357.66 1536.44 1354.99 1540.13 Q1352.34 1543.79 1352.34 1550.25 Z" fill="#000000" fill-rule="nonzero" fill-opacity="1" /><polyline clip-path="url(#clip242)" style="stroke:#000000; stroke-linecap:round; stroke-linejoin:round; stroke-width:2; stroke-opacity:0.1; fill:none" points="139.446,1423.18 2352.76,1423.18 "/>
<polyline clip-path="url(#clip242)" style="stroke:#000000; stroke-linecap:round; stroke-linejoin:round; stroke-width:2; stroke-opacity:0.1; fill:none" points="139.446,1226.62 2352.76,1226.62 "/>
<polyline clip-path="url(#clip242)" style="stroke:#000000; stroke-linecap:round; stroke-linejoin:round; stroke-width:2; stroke-opacity:0.1; fill:none" points="139.446,1030.06 2352.76,1030.06 "/>
<polyline clip-path="url(#clip242)" style="stroke:#000000; stroke-linecap:round; stroke-linejoin:round; stroke-width:2; stroke-opacity:0.1; fill:none" points="139.446,833.493 2352.76,833.493 "/>
<polyline clip-path="url(#clip242)" style="stroke:#000000; stroke-linecap:round; stroke-linejoin:round; stroke-width:2; stroke-opacity:0.1; fill:none" points="139.446,636.931 2352.76,636.931 "/>
<polyline clip-path="url(#clip242)" style="stroke:#000000; stroke-linecap:round; stroke-linejoin:round; stroke-width:2; stroke-opacity:0.1; fill:none" points="139.446,440.369 2352.76,440.369 "/>
<polyline clip-path="url(#clip242)" style="stroke:#000000; stroke-linecap:round; stroke-linejoin:round; stroke-width:2; stroke-opacity:0.1; fill:none" points="139.446,243.806 2352.76,243.806 "/>
<polyline clip-path="url(#clip242)" style="stroke:#000000; stroke-linecap:round; stroke-linejoin:round; stroke-width:2; stroke-opacity:0.1; fill:none" points="139.446,47.2441 2352.76,47.2441 "/>
<polyline clip-path="url(#clip240)" style="stroke:#000000; stroke-linecap:round; stroke-linejoin:round; stroke-width:4; stroke-opacity:1; fill:none" points="139.446,1423.18 139.446,47.2441 "/>
<polyline clip-path="url(#clip240)" style="stroke:#000000; stroke-linecap:round; stroke-linejoin:round; stroke-width:4; stroke-opacity:1; fill:none" points="139.446,1423.18 158.343,1423.18 "/>
<polyline clip-path="url(#clip240)" style="stroke:#000000; stroke-linecap:round; stroke-linejoin:round; stroke-width:4; stroke-opacity:1; fill:none" points="139.446,1226.62 158.343,1226.62 "/>
<polyline clip-path="url(#clip240)" style="stroke:#000000; stroke-linecap:round; stroke-linejoin:round; stroke-width:4; stroke-opacity:1; fill:none" points="139.446,1030.06 158.343,1030.06 "/>
<polyline clip-path="url(#clip240)" style="stroke:#000000; stroke-linecap:round; stroke-linejoin:round; stroke-width:4; stroke-opacity:1; fill:none" points="139.446,833.493 158.343,833.493 "/>
<polyline clip-path="url(#clip240)" style="stroke:#000000; stroke-linecap:round; stroke-linejoin:round; stroke-width:4; stroke-opacity:1; fill:none" points="139.446,636.931 158.343,636.931 "/>
<polyline clip-path="url(#clip240)" style="stroke:#000000; stroke-linecap:round; stroke-linejoin:round; stroke-width:4; stroke-opacity:1; fill:none" points="139.446,440.369 158.343,440.369 "/>
<polyline clip-path="url(#clip240)" style="stroke:#000000; stroke-linecap:round; stroke-linejoin:round; stroke-width:4; stroke-opacity:1; fill:none" points="139.446,243.806 158.343,243.806 "/>
<polyline clip-path="url(#clip240)" style="stroke:#000000; stroke-linecap:round; stroke-linejoin:round; stroke-width:4; stroke-opacity:1; fill:none" points="139.446,47.2441 158.343,47.2441 "/>
<path clip-path="url(#clip240)" d="M91.5012 1408.98 Q87.8901 1408.98 86.0614 1412.54 Q84.2558 1416.08 84.2558 1423.21 Q84.2558 1430.32 86.0614 1433.89 Q87.8901 1437.43 91.5012 1437.43 Q95.1354 1437.43 96.941 1433.89 Q98.7696 1430.32 98.7696 1423.21 Q98.7696 1416.08 96.941 1412.54 Q95.1354 1408.98 91.5012 1408.98 M91.5012 1405.27 Q97.3113 1405.27 100.367 1409.88 Q103.446 1414.46 103.446 1423.21 Q103.446 1431.94 100.367 1436.55 Q97.3113 1441.13 91.5012 1441.13 Q85.691 1441.13 82.6123 1436.55 Q79.5568 1431.94 79.5568 1423.21 Q79.5568 1414.46 82.6123 1409.88 Q85.691 1405.27 91.5012 1405.27 Z" fill="#000000" fill-rule="nonzero" fill-opacity="1" /><path clip-path="url(#clip240)" d="M87.1262 1239.96 L103.446 1239.96 L103.446 1243.9 L81.5012 1243.9 L81.5012 1239.96 Q84.1632 1237.21 88.7466 1232.58 Q93.353 1227.93 94.5336 1226.58 Q96.7789 1224.06 97.6585 1222.32 Q98.5613 1220.56 98.5613 1218.87 Q98.5613 1216.12 96.6169 1214.38 Q94.6956 1212.65 91.5938 1212.65 Q89.3947 1212.65 86.941 1213.41 Q84.5105 1214.18 81.7327 1215.73 L81.7327 1211 Q84.5568 1209.87 87.0105 1209.29 Q89.4641 1208.71 91.5012 1208.71 Q96.8715 1208.71 100.066 1211.4 Q103.26 1214.08 103.26 1218.57 Q103.26 1220.7 102.45 1222.62 Q101.663 1224.52 99.5567 1227.12 Q98.978 1227.79 95.8761 1231 Q92.7743 1234.2 87.1262 1239.96 Z" fill="#000000" fill-rule="nonzero" fill-opacity="1" /><path clip-path="url(#clip240)" d="M93.8623 1016.85 L82.0568 1035.3 L93.8623 1035.3 L93.8623 1016.85 M92.6354 1012.78 L98.515 1012.78 L98.515 1035.3 L103.446 1035.3 L103.446 1039.19 L98.515 1039.19 L98.515 1047.34 L93.8623 1047.34 L93.8623 1039.19 L78.2605 1039.19 L78.2605 1034.67 L92.6354 1012.78 Z" fill="#000000" fill-rule="nonzero" fill-opacity="1" /><path clip-path="url(#clip240)" d="M91.9178 831.63 Q88.7697 831.63 86.9179 833.782 Q85.0892 835.935 85.0892 839.685 Q85.0892 843.412 86.9179 845.588 Q88.7697 847.741 91.9178 847.741 Q95.066 847.741 96.8947 845.588 Q98.7465 843.412 98.7465 839.685 Q98.7465 835.935 96.8947 833.782 Q95.066 831.63 91.9178 831.63 M101.2 816.977 L101.2 821.236 Q99.4409 820.403 97.6354 819.963 Q95.853 819.523 94.0937 819.523 Q89.4641 819.523 87.0105 822.648 Q84.5799 825.773 84.2327 832.093 Q85.5984 830.079 87.6586 829.014 Q89.7188 827.926 92.1956 827.926 Q97.4039 827.926 100.413 831.097 Q103.446 834.245 103.446 839.685 Q103.446 845.009 100.297 848.227 Q97.1493 851.444 91.9178 851.444 Q85.9225 851.444 82.7512 846.861 Q79.5799 842.255 79.5799 833.528 Q79.5799 825.333 83.4688 820.472 Q87.3577 815.588 93.9086 815.588 Q95.6678 815.588 97.4502 815.935 Q99.2558 816.283 101.2 816.977 Z" fill="#000000" fill-rule="nonzero" fill-opacity="1" /><path clip-path="url(#clip240)" d="M91.5938 637.799 Q88.2604 637.799 86.3392 639.581 Q84.441 641.364 84.441 644.489 Q84.441 647.614 86.3392 649.396 Q88.2604 651.178 91.5938 651.178 Q94.9271 651.178 96.8484 649.396 Q98.7696 647.591 98.7696 644.489 Q98.7696 641.364 96.8484 639.581 Q94.9502 637.799 91.5938 637.799 M86.9179 635.808 Q83.9086 635.067 82.2188 633.007 Q80.5522 630.947 80.5522 627.984 Q80.5522 623.841 83.492 621.433 Q86.4549 619.026 91.5938 619.026 Q96.7558 619.026 99.6956 621.433 Q102.635 623.841 102.635 627.984 Q102.635 630.947 100.946 633.007 Q99.2789 635.067 96.2928 635.808 Q99.6724 636.595 101.547 638.887 Q103.446 641.179 103.446 644.489 Q103.446 649.512 100.367 652.197 Q97.3113 654.882 91.5938 654.882 Q85.8762 654.882 82.7975 652.197 Q79.742 649.512 79.742 644.489 Q79.742 641.179 81.6401 638.887 Q83.5382 636.595 86.9179 635.808 M85.2049 628.424 Q85.2049 631.109 86.8716 632.614 Q88.5614 634.118 91.5938 634.118 Q94.603 634.118 96.2928 632.614 Q98.0058 631.109 98.0058 628.424 Q98.0058 625.739 96.2928 624.234 Q94.603 622.73 91.5938 622.73 Q88.5614 622.73 86.8716 624.234 Q85.2049 625.739 85.2049 628.424 Z" fill="#000000" fill-rule="nonzero" fill-opacity="1" /><path clip-path="url(#clip240)" d="M52.1495 453.713 L59.7884 453.713 L59.7884 427.348 L51.4782 429.014 L51.4782 424.755 L59.7421 423.089 L64.418 423.089 L64.418 453.713 L72.0568 453.713 L72.0568 457.649 L52.1495 457.649 L52.1495 453.713 Z" fill="#000000" fill-rule="nonzero" fill-opacity="1" /><path clip-path="url(#clip240)" d="M91.5012 426.167 Q87.8901 426.167 86.0614 429.732 Q84.2558 433.274 84.2558 440.403 Q84.2558 447.51 86.0614 451.075 Q87.8901 454.616 91.5012 454.616 Q95.1354 454.616 96.941 451.075 Q98.7696 447.51 98.7696 440.403 Q98.7696 433.274 96.941 429.732 Q95.1354 426.167 91.5012 426.167 M91.5012 422.464 Q97.3113 422.464 100.367 427.07 Q103.446 431.653 103.446 440.403 Q103.446 449.13 100.367 453.737 Q97.3113 458.32 91.5012 458.32 Q85.691 458.32 82.6123 453.737 Q79.5568 449.13 79.5568 440.403 Q79.5568 431.653 82.6123 427.07 Q85.691 422.464 91.5012 422.464 Z" fill="#000000" fill-rule="nonzero" fill-opacity="1" /><path clip-path="url(#clip240)" d="M53.7467 257.151 L61.3856 257.151 L61.3856 230.786 L53.0754 232.452 L53.0754 228.193 L61.3393 226.526 L66.0152 226.526 L66.0152 257.151 L73.654 257.151 L73.654 261.086 L53.7467 261.086 L53.7467 257.151 Z" fill="#000000" fill-rule="nonzero" fill-opacity="1" /><path clip-path="url(#clip240)" d="M87.1262 257.151 L103.446 257.151 L103.446 261.086 L81.5012 261.086 L81.5012 257.151 Q84.1632 254.397 88.7466 249.767 Q93.353 245.114 94.5336 243.772 Q96.7789 241.248 97.6585 239.512 Q98.5613 237.753 98.5613 236.063 Q98.5613 233.309 96.6169 231.573 Q94.6956 229.837 91.5938 229.837 Q89.3947 229.837 86.941 230.6 Q84.5105 231.364 81.7327 232.915 L81.7327 228.193 Q84.5568 227.059 87.0105 226.48 Q89.4641 225.901 91.5012 225.901 Q96.8715 225.901 100.066 228.587 Q103.26 231.272 103.26 235.762 Q103.26 237.892 102.45 239.813 Q101.663 241.711 99.5567 244.304 Q98.978 244.975 95.8761 248.193 Q92.7743 251.387 87.1262 257.151 Z" fill="#000000" fill-rule="nonzero" fill-opacity="1" /><path clip-path="url(#clip240)" d="M51.6634 60.5889 L59.3023 60.5889 L59.3023 34.2233 L50.9921 35.89 L50.9921 31.6308 L59.256 29.9641 L63.9319 29.9641 L63.9319 60.5889 L71.5707 60.5889 L71.5707 64.5241 L51.6634 64.5241 L51.6634 60.5889 Z" fill="#000000" fill-rule="nonzero" fill-opacity="1" /><path clip-path="url(#clip240)" d="M93.8623 34.0381 L82.0568 52.4871 L93.8623 52.4871 L93.8623 34.0381 M92.6354 29.9641 L98.515 29.9641 L98.515 52.4871 L103.446 52.4871 L103.446 56.376 L98.515 56.376 L98.515 64.5241 L93.8623 64.5241 L93.8623 56.376 L78.2605 56.376 L78.2605 51.8621 L92.6354 29.9641 Z" fill="#000000" fill-rule="nonzero" fill-opacity="1" /><path clip-path="url(#clip242)" d="M261.182 1226.62 L261.182 1423.18 L370.617 1423.18 L370.617 1226.62 L261.182 1226.62 L261.182 1226.62  Z" fill="#009af9" fill-rule="evenodd" fill-opacity="1"/>
<polyline clip-path="url(#clip242)" style="stroke:#000000; stroke-linecap:round; stroke-linejoin:round; stroke-width:4; stroke-opacity:1; fill:none" points="261.182,1226.62 261.182,1423.18 370.617,1423.18 370.617,1226.62 261.182,1226.62 "/>
<path clip-path="url(#clip242)" d="M370.617 1030.06 L370.617 1423.18 L480.052 1423.18 L480.052 1030.06 L370.617 1030.06 L370.617 1030.06  Z" fill="#009af9" fill-rule="evenodd" fill-opacity="1"/>
<polyline clip-path="url(#clip242)" style="stroke:#000000; stroke-linecap:round; stroke-linejoin:round; stroke-width:4; stroke-opacity:1; fill:none" points="370.617,1030.06 370.617,1423.18 480.052,1423.18 480.052,1030.06 370.617,1030.06 "/>
<path clip-path="url(#clip242)" d="M480.052 1128.34 L480.052 1423.18 L589.488 1423.18 L589.488 1128.34 L480.052 1128.34 L480.052 1128.34  Z" fill="#009af9" fill-rule="evenodd" fill-opacity="1"/>
<polyline clip-path="url(#clip242)" style="stroke:#000000; stroke-linecap:round; stroke-linejoin:round; stroke-width:4; stroke-opacity:1; fill:none" points="480.052,1128.34 480.052,1423.18 589.488,1423.18 589.488,1128.34 480.052,1128.34 "/>
<path clip-path="url(#clip242)" d="M589.488 735.212 L589.488 1423.18 L698.923 1423.18 L698.923 735.212 L589.488 735.212 L589.488 735.212  Z" fill="#009af9" fill-rule="evenodd" fill-opacity="1"/>
<polyline clip-path="url(#clip242)" style="stroke:#000000; stroke-linecap:round; stroke-linejoin:round; stroke-width:4; stroke-opacity:1; fill:none" points="589.488,735.212 589.488,1423.18 698.923,1423.18 698.923,735.212 589.488,735.212 "/>
<path clip-path="url(#clip242)" d="M698.923 1128.34 L698.923 1423.18 L808.359 1423.18 L808.359 1128.34 L698.923 1128.34 L698.923 1128.34  Z" fill="#009af9" fill-rule="evenodd" fill-opacity="1"/>
<polyline clip-path="url(#clip242)" style="stroke:#000000; stroke-linecap:round; stroke-linejoin:round; stroke-width:4; stroke-opacity:1; fill:none" points="698.923,1128.34 698.923,1423.18 808.359,1423.18 808.359,1128.34 698.923,1128.34 "/>
<path clip-path="url(#clip242)" d="M808.359 1324.9 L808.359 1423.18 L917.794 1423.18 L917.794 1324.9 L808.359 1324.9 L808.359 1324.9  Z" fill="#009af9" fill-rule="evenodd" fill-opacity="1"/>
<polyline clip-path="url(#clip242)" style="stroke:#000000; stroke-linecap:round; stroke-linejoin:round; stroke-width:4; stroke-opacity:1; fill:none" points="808.359,1324.9 808.359,1423.18 917.794,1423.18 917.794,1324.9 808.359,1324.9 "/>
<path clip-path="url(#clip242)" d="M917.794 636.931 L917.794 1423.18 L1027.23 1423.18 L1027.23 636.931 L917.794 636.931 L917.794 636.931  Z" fill="#009af9" fill-rule="evenodd" fill-opacity="1"/>
<polyline clip-path="url(#clip242)" style="stroke:#000000; stroke-linecap:round; stroke-linejoin:round; stroke-width:4; stroke-opacity:1; fill:none" points="917.794,636.931 917.794,1423.18 1027.23,1423.18 1027.23,636.931 917.794,636.931 "/>
<path clip-path="url(#clip242)" d="M1027.23 47.2441 L1027.23 1423.18 L1136.67 1423.18 L1136.67 47.2441 L1027.23 47.2441 L1027.23 47.2441  Z" fill="#009af9" fill-rule="evenodd" fill-opacity="1"/>
<polyline clip-path="url(#clip242)" style="stroke:#000000; stroke-linecap:round; stroke-linejoin:round; stroke-width:4; stroke-opacity:1; fill:none" points="1027.23,47.2441 1027.23,1423.18 1136.67,1423.18 1136.67,47.2441 1027.23,47.2441 "/>
<path clip-path="url(#clip242)" d="M1136.67 735.212 L1136.67 1423.18 L1246.1 1423.18 L1246.1 735.212 L1136.67 735.212 L1136.67 735.212  Z" fill="#009af9" fill-rule="evenodd" fill-opacity="1"/>
<polyline clip-path="url(#clip242)" style="stroke:#000000; stroke-linecap:round; stroke-linejoin:round; stroke-width:4; stroke-opacity:1; fill:none" points="1136.67,735.212 1136.67,1423.18 1246.1,1423.18 1246.1,735.212 1136.67,735.212 "/>
<path clip-path="url(#clip242)" d="M1246.1 636.931 L1246.1 1423.18 L1355.54 1423.18 L1355.54 636.931 L1246.1 636.931 L1246.1 636.931  Z" fill="#009af9" fill-rule="evenodd" fill-opacity="1"/>
<polyline clip-path="url(#clip242)" style="stroke:#000000; stroke-linecap:round; stroke-linejoin:round; stroke-width:4; stroke-opacity:1; fill:none" points="1246.1,636.931 1246.1,1423.18 1355.54,1423.18 1355.54,636.931 1246.1,636.931 "/>
<path clip-path="url(#clip242)" d="M1355.54 538.65 L1355.54 1423.18 L1464.97 1423.18 L1464.97 538.65 L1355.54 538.65 L1355.54 538.65  Z" fill="#009af9" fill-rule="evenodd" fill-opacity="1"/>
<polyline clip-path="url(#clip242)" style="stroke:#000000; stroke-linecap:round; stroke-linejoin:round; stroke-width:4; stroke-opacity:1; fill:none" points="1355.54,538.65 1355.54,1423.18 1464.97,1423.18 1464.97,538.65 1355.54,538.65 "/>
<path clip-path="url(#clip242)" d="M1464.97 833.493 L1464.97 1423.18 L1574.41 1423.18 L1574.41 833.493 L1464.97 833.493 L1464.97 833.493  Z" fill="#009af9" fill-rule="evenodd" fill-opacity="1"/>
<polyline clip-path="url(#clip242)" style="stroke:#000000; stroke-linecap:round; stroke-linejoin:round; stroke-width:4; stroke-opacity:1; fill:none" points="1464.97,833.493 1464.97,1423.18 1574.41,1423.18 1574.41,833.493 1464.97,833.493 "/>
<path clip-path="url(#clip242)" d="M1574.41 636.931 L1574.41 1423.18 L1683.84 1423.18 L1683.84 636.931 L1574.41 636.931 L1574.41 636.931  Z" fill="#009af9" fill-rule="evenodd" fill-opacity="1"/>
<polyline clip-path="url(#clip242)" style="stroke:#000000; stroke-linecap:round; stroke-linejoin:round; stroke-width:4; stroke-opacity:1; fill:none" points="1574.41,636.931 1574.41,1423.18 1683.84,1423.18 1683.84,636.931 1574.41,636.931 "/>
<path clip-path="url(#clip242)" d="M1683.84 833.493 L1683.84 1423.18 L1793.28 1423.18 L1793.28 833.493 L1683.84 833.493 L1683.84 833.493  Z" fill="#009af9" fill-rule="evenodd" fill-opacity="1"/>
<polyline clip-path="url(#clip242)" style="stroke:#000000; stroke-linecap:round; stroke-linejoin:round; stroke-width:4; stroke-opacity:1; fill:none" points="1683.84,833.493 1683.84,1423.18 1793.28,1423.18 1793.28,833.493 1683.84,833.493 "/>
<path clip-path="url(#clip242)" d="M1793.28 833.493 L1793.28 1423.18 L1902.71 1423.18 L1902.71 833.493 L1793.28 833.493 L1793.28 833.493  Z" fill="#009af9" fill-rule="evenodd" fill-opacity="1"/>
<polyline clip-path="url(#clip242)" style="stroke:#000000; stroke-linecap:round; stroke-linejoin:round; stroke-width:4; stroke-opacity:1; fill:none" points="1793.28,833.493 1793.28,1423.18 1902.71,1423.18 1902.71,833.493 1793.28,833.493 "/>
<path clip-path="url(#clip242)" d="M1902.71 931.774 L1902.71 1423.18 L2012.15 1423.18 L2012.15 931.774 L1902.71 931.774 L1902.71 931.774  Z" fill="#009af9" fill-rule="evenodd" fill-opacity="1"/>
<polyline clip-path="url(#clip242)" style="stroke:#000000; stroke-linecap:round; stroke-linejoin:round; stroke-width:4; stroke-opacity:1; fill:none" points="1902.71,931.774 1902.71,1423.18 2012.15,1423.18 2012.15,931.774 1902.71,931.774 "/>
<path clip-path="url(#clip242)" d="M2012.15 1324.9 L2012.15 1423.18 L2121.58 1423.18 L2121.58 1324.9 L2012.15 1324.9 L2012.15 1324.9  Z" fill="#009af9" fill-rule="evenodd" fill-opacity="1"/>
<polyline clip-path="url(#clip242)" style="stroke:#000000; stroke-linecap:round; stroke-linejoin:round; stroke-width:4; stroke-opacity:1; fill:none" points="2012.15,1324.9 2012.15,1423.18 2121.58,1423.18 2121.58,1324.9 2012.15,1324.9 "/>
<path clip-path="url(#clip242)" d="M2121.58 1226.62 L2121.58 1423.18 L2231.02 1423.18 L2231.02 1226.62 L2121.58 1226.62 L2121.58 1226.62  Z" fill="#009af9" fill-rule="evenodd" fill-opacity="1"/>
<polyline clip-path="url(#clip242)" style="stroke:#000000; stroke-linecap:round; stroke-linejoin:round; stroke-width:4; stroke-opacity:1; fill:none" points="2121.58,1226.62 2121.58,1423.18 2231.02,1423.18 2231.02,1226.62 2121.58,1226.62 "/>
<circle clip-path="url(#clip242)" style="fill:#009af9; stroke:none; fill-opacity:0" cx="315.899" cy="1226.62" r="2"/>
<circle clip-path="url(#clip242)" style="fill:#009af9; stroke:none; fill-opacity:0" cx="425.335" cy="1030.06" r="2"/>
<circle clip-path="url(#clip242)" style="fill:#009af9; stroke:none; fill-opacity:0" cx="534.77" cy="1128.34" r="2"/>
<circle clip-path="url(#clip242)" style="fill:#009af9; stroke:none; fill-opacity:0" cx="644.206" cy="735.212" r="2"/>
<circle clip-path="url(#clip242)" style="fill:#009af9; stroke:none; fill-opacity:0" cx="753.641" cy="1128.34" r="2"/>
<circle clip-path="url(#clip242)" style="fill:#009af9; stroke:none; fill-opacity:0" cx="863.077" cy="1324.9" r="2"/>
<circle clip-path="url(#clip242)" style="fill:#009af9; stroke:none; fill-opacity:0" cx="972.512" cy="636.931" r="2"/>
<circle clip-path="url(#clip242)" style="fill:#009af9; stroke:none; fill-opacity:0" cx="1081.95" cy="47.2441" r="2"/>
<circle clip-path="url(#clip242)" style="fill:#009af9; stroke:none; fill-opacity:0" cx="1191.38" cy="735.212" r="2"/>
<circle clip-path="url(#clip242)" style="fill:#009af9; stroke:none; fill-opacity:0" cx="1300.82" cy="636.931" r="2"/>
<circle clip-path="url(#clip242)" style="fill:#009af9; stroke:none; fill-opacity:0" cx="1410.25" cy="538.65" r="2"/>
<circle clip-path="url(#clip242)" style="fill:#009af9; stroke:none; fill-opacity:0" cx="1519.69" cy="833.493" r="2"/>
<circle clip-path="url(#clip242)" style="fill:#009af9; stroke:none; fill-opacity:0" cx="1629.12" cy="636.931" r="2"/>
<circle clip-path="url(#clip242)" style="fill:#009af9; stroke:none; fill-opacity:0" cx="1738.56" cy="833.493" r="2"/>
<circle clip-path="url(#clip242)" style="fill:#009af9; stroke:none; fill-opacity:0" cx="1848" cy="833.493" r="2"/>
<circle clip-path="url(#clip242)" style="fill:#009af9; stroke:none; fill-opacity:0" cx="1957.43" cy="931.774" r="2"/>
<circle clip-path="url(#clip242)" style="fill:#009af9; stroke:none; fill-opacity:0" cx="2066.87" cy="1324.9" r="2"/>
<circle clip-path="url(#clip242)" style="fill:#009af9; stroke:none; fill-opacity:0" cx="2176.3" cy="1226.62" r="2"/>
</svg>
