<?xml version="1.0" encoding="utf-8"?>
<svg xmlns="http://www.w3.org/2000/svg" xmlns:xlink="http://www.w3.org/1999/xlink" width="600" height="400" viewBox="0 0 2400 1600">
<defs>
  <clipPath id="clip090">
    <rect x="0" y="0" width="2400" height="1600"/>
  </clipPath>
</defs>
<path clip-path="url(#clip090)" d="M0 1600 L2400 1600 L2400 0 L0 0  Z" fill="#ffffff" fill-rule="evenodd" fill-opacity="1"/>
<defs>
  <clipPath id="clip091">
    <rect x="480" y="0" width="1681" height="1600"/>
  </clipPath>
</defs>
<path clip-path="url(#clip090)" d="M139.446 1423.18 L2352.76 1423.18 L2352.76 47.2441 L139.446 47.2441  Z" fill="#ffffff" fill-rule="evenodd" fill-opacity="1"/>
<defs>
  <clipPath id="clip092">
    <rect x="139" y="47" width="2214" height="1377"/>
  </clipPath>
</defs>
<polyline clip-path="url(#clip092)" style="stroke:#000000; stroke-linecap:round; stroke-linejoin:round; stroke-width:2; stroke-opacity:0.1; fill:none" points="261.182,1423.18 261.182,47.2441 "/>
<polyline clip-path="url(#clip092)" style="stroke:#000000; stroke-linecap:round; stroke-linejoin:round; stroke-width:2; stroke-opacity:0.1; fill:none" points="698.923,1423.18 698.923,47.2441 "/>
<polyline clip-path="url(#clip092)" style="stroke:#000000; stroke-linecap:round; stroke-linejoin:round; stroke-width:2; stroke-opacity:0.1; fill:none" points="1136.67,1423.18 1136.67,47.2441 "/>
<polyline clip-path="url(#clip092)" style="stroke:#000000; stroke-linecap:round; stroke-linejoin:round; stroke-width:2; stroke-opacity:0.1; fill:none" points="1574.41,1423.18 1574.41,47.2441 "/>
<polyline clip-path="url(#clip092)" style="stroke:#000000; stroke-linecap:round; stroke-linejoin:round; stroke-width:2; stroke-opacity:0.1; fill:none" points="2012.15,1423.18 2012.15,47.2441 "/>
<polyline clip-path="url(#clip092)" style="stroke:#000000; stroke-linecap:round; stroke-linejoin:round; stroke-width:2; stroke-opacity:0.1; fill:none" points="139.446,1423.18 2352.76,1423.18 "/>
<polyline clip-path="url(#clip092)" style="stroke:#000000; stroke-linecap:round; stroke-linejoin:round; stroke-width:2; stroke-opacity:0.1; fill:none" points="139.446,1226.62 2352.76,1226.62 "/>
<polyline clip-path="url(#clip092)" style="stroke:#000000; stroke-linecap:round; stroke-linejoin:round; stroke-width:2; stroke-opacity:0.1; fill:none" points="139.446,1030.06 2352.76,1030.06 "/>
<polyline clip-path="url(#clip092)" style="stroke:#000000; stroke-linecap:round; stroke-linejoin:round; stroke-width:2; stroke-opacity:0.1; fill:none" points="139.446,833.493 2352.76,833.493 "/>
<polyline clip-path="url(#clip092)" style="stroke:#000000; stroke-linecap:round; stroke-linejoin:round; stroke-width:2; stroke-opacity:0.1; fill:none" points="139.446,636.931 2352.76,636.931 "/>
<polyline clip-path="url(#clip092)" style="stroke:#000000; stroke-linecap:round; stroke-linejoin:round; stroke-width:2; stroke-opacity:0.1; fill:none" points="139.446,440.369 2352.76,440.369 "/>
<polyline clip-path="url(#clip092)" style="stroke:#000000; stroke-linecap:round; stroke-linejoin:round; stroke-width:2; stroke-opacity:0.1; fill:none" points="139.446,243.806 2352.76,243.806 "/>
<polyline clip-path="url(#clip092)" style="stroke:#000000; stroke-linecap:round; stroke-linejoin:round; stroke-width:2; stroke-opacity:0.1; fill:none" points="139.446,47.2441 2352.76,47.2441 "/>
<polyline clip-path="url(#clip090)" style="stroke:#000000; stroke-linecap:round; stroke-linejoin:round; stroke-width:4; stroke-opacity:1; fill:none" points="139.446,1423.18 2352.76,1423.18 "/>
<polyline clip-path="url(#clip090)" style="stroke:#000000; stroke-linecap:round; stroke-linejoin:round; stroke-width:4; stroke-opacity:1; fill:none" points="261.182,1423.18 261.182,1404.28 "/>
<polyline clip-path="url(#clip090)" style="stroke:#000000; stroke-linecap:round; stroke-linejoin:round; stroke-width:4; stroke-opacity:1; fill:none" points="698.923,1423.18 698.923,1404.28 "/>
<polyline clip-path="url(#clip090)" style="stroke:#000000; stroke-linecap:round; stroke-linejoin:round; stroke-width:4; stroke-opacity:1; fill:none" points="1136.67,1423.18 1136.67,1404.28 "/>
<polyline clip-path="url(#clip090)" style="stroke:#000000; stroke-linecap:round; stroke-linejoin:round; stroke-width:4; stroke-opacity:1; fill:none" points="1574.41,1423.18 1574.41,1404.28 "/>
<polyline clip-path="url(#clip090)" style="stroke:#000000; stroke-linecap:round; stroke-linejoin:round; stroke-width:4; stroke-opacity:1; fill:none" points="2012.15,1423.18 2012.15,1404.28 "/>
<path clip-path="url(#clip090)" d="M220.788 1481.64 L228.427 1481.64 L228.427 1455.28 L220.117 1456.95 L220.117 1452.69 L228.381 1451.02 L233.057 1451.02 L233.057 1481.64 L240.696 1481.64 L240.696 1485.58 L220.788 1485.58 L220.788 1481.64 Z" fill="#000000" fill-rule="nonzero" fill-opacity="1" /><path clip-path="url(#clip090)" d="M260.719 1466.44 Q257.57 1466.44 255.719 1468.59 Q253.89 1470.74 253.89 1474.49 Q253.89 1478.22 255.719 1480.39 Q257.57 1482.55 260.719 1482.55 Q263.867 1482.55 265.695 1480.39 Q267.547 1478.22 267.547 1474.49 Q267.547 1470.74 265.695 1468.59 Q263.867 1466.44 260.719 1466.44 M270.001 1451.78 L270.001 1456.04 Q268.242 1455.21 266.436 1454.77 Q264.654 1454.33 262.895 1454.33 Q258.265 1454.33 255.811 1457.45 Q253.381 1460.58 253.033 1466.9 Q254.399 1464.89 256.459 1463.82 Q258.52 1462.73 260.996 1462.73 Q266.205 1462.73 269.214 1465.9 Q272.246 1469.05 272.246 1474.49 Q272.246 1479.82 269.098 1483.03 Q265.95 1486.25 260.719 1486.25 Q254.723 1486.25 251.552 1481.67 Q248.381 1477.06 248.381 1468.33 Q248.381 1460.14 252.27 1455.28 Q256.158 1450.39 262.709 1450.39 Q264.469 1450.39 266.251 1450.74 Q268.057 1451.09 270.001 1451.78 Z" fill="#000000" fill-rule="nonzero" fill-opacity="1" /><path clip-path="url(#clip090)" d="M290.302 1454.1 Q286.691 1454.1 284.862 1457.66 Q283.056 1461.2 283.056 1468.33 Q283.056 1475.44 284.862 1479.01 Q286.691 1482.55 290.302 1482.55 Q293.936 1482.55 295.742 1479.01 Q297.57 1475.44 297.57 1468.33 Q297.57 1461.2 295.742 1457.66 Q293.936 1454.1 290.302 1454.1 M290.302 1450.39 Q296.112 1450.39 299.167 1455 Q302.246 1459.58 302.246 1468.33 Q302.246 1477.06 299.167 1481.67 Q296.112 1486.25 290.302 1486.25 Q284.492 1486.25 281.413 1481.67 Q278.357 1477.06 278.357 1468.33 Q278.357 1459.58 281.413 1455 Q284.492 1450.39 290.302 1450.39 Z" fill="#000000" fill-rule="nonzero" fill-opacity="1" /><path clip-path="url(#clip090)" d="M658.53 1481.64 L666.169 1481.64 L666.169 1455.28 L657.859 1456.95 L657.859 1452.69 L666.123 1451.02 L670.799 1451.02 L670.799 1481.64 L678.437 1481.64 L678.437 1485.58 L658.53 1485.58 L658.53 1481.64 Z" fill="#000000" fill-rule="nonzero" fill-opacity="1" /><path clip-path="url(#clip090)" d="M697.882 1469.17 Q694.548 1469.17 692.627 1470.95 Q690.729 1472.73 690.729 1475.86 Q690.729 1478.98 692.627 1480.77 Q694.548 1482.55 697.882 1482.55 Q701.215 1482.55 703.136 1480.77 Q705.058 1478.96 705.058 1475.86 Q705.058 1472.73 703.136 1470.95 Q701.238 1469.17 697.882 1469.17 M693.206 1467.18 Q690.197 1466.44 688.507 1464.38 Q686.84 1462.32 686.84 1459.35 Q686.84 1455.21 689.78 1452.8 Q692.743 1450.39 697.882 1450.39 Q703.044 1450.39 705.984 1452.8 Q708.923 1455.21 708.923 1459.35 Q708.923 1462.32 707.234 1464.38 Q705.567 1466.44 702.581 1467.18 Q705.96 1467.96 707.835 1470.26 Q709.734 1472.55 709.734 1475.86 Q709.734 1480.88 706.655 1483.57 Q703.599 1486.25 697.882 1486.25 Q692.164 1486.25 689.086 1483.57 Q686.03 1480.88 686.03 1475.86 Q686.03 1472.55 687.928 1470.26 Q689.826 1467.96 693.206 1467.18 M691.493 1459.79 Q691.493 1462.48 693.16 1463.98 Q694.849 1465.49 697.882 1465.49 Q700.891 1465.49 702.581 1463.98 Q704.294 1462.48 704.294 1459.79 Q704.294 1457.11 702.581 1455.6 Q700.891 1454.1 697.882 1454.1 Q694.849 1454.1 693.16 1455.6 Q691.493 1457.11 691.493 1459.79 Z" fill="#000000" fill-rule="nonzero" fill-opacity="1" /><path clip-path="url(#clip090)" d="M728.044 1454.1 Q724.433 1454.1 722.604 1457.66 Q720.798 1461.2 720.798 1468.33 Q720.798 1475.44 722.604 1479.01 Q724.433 1482.55 728.044 1482.55 Q731.678 1482.55 733.483 1479.01 Q735.312 1475.44 735.312 1468.33 Q735.312 1461.2 733.483 1457.66 Q731.678 1454.1 728.044 1454.1 M728.044 1450.39 Q733.854 1450.39 736.909 1455 Q739.988 1459.58 739.988 1468.33 Q739.988 1477.06 736.909 1481.67 Q733.854 1486.25 728.044 1486.25 Q722.233 1486.25 719.155 1481.67 Q716.099 1477.06 716.099 1468.33 Q716.099 1459.58 719.155 1455 Q722.233 1450.39 728.044 1450.39 Z" fill="#000000" fill-rule="nonzero" fill-opacity="1" /><path clip-path="url(#clip090)" d="M1100.36 1481.64 L1116.68 1481.64 L1116.68 1485.58 L1094.73 1485.58 L1094.73 1481.64 Q1097.39 1478.89 1101.98 1474.26 Q1106.58 1469.61 1107.76 1468.27 Q1110.01 1465.74 1110.89 1464.01 Q1111.79 1462.25 1111.79 1460.56 Q1111.79 1457.8 1109.85 1456.07 Q1107.93 1454.33 1104.83 1454.33 Q1102.63 1454.33 1100.17 1455.09 Q1097.74 1455.86 1094.96 1457.41 L1094.96 1452.69 Q1097.79 1451.55 1100.24 1450.97 Q1102.7 1450.39 1104.73 1450.39 Q1110.1 1450.39 1113.3 1453.08 Q1116.49 1455.77 1116.49 1460.26 Q1116.49 1462.39 1115.68 1464.31 Q1114.89 1466.2 1112.79 1468.8 Q1112.21 1469.47 1109.11 1472.69 Q1106.01 1475.88 1100.36 1481.64 Z" fill="#000000" fill-rule="nonzero" fill-opacity="1" /><path clip-path="url(#clip090)" d="M1136.49 1454.1 Q1132.88 1454.1 1131.05 1457.66 Q1129.25 1461.2 1129.25 1468.33 Q1129.25 1475.44 1131.05 1479.01 Q1132.88 1482.55 1136.49 1482.55 Q1140.13 1482.55 1141.93 1479.01 Q1143.76 1475.44 1143.76 1468.33 Q1143.76 1461.2 1141.93 1457.66 Q1140.13 1454.1 1136.49 1454.1 M1136.49 1450.39 Q1142.3 1450.39 1145.36 1455 Q1148.44 1459.58 1148.44 1468.33 Q1148.44 1477.06 1145.36 1481.67 Q1142.3 1486.25 1136.49 1486.25 Q1130.68 1486.25 1127.6 1481.67 Q1124.55 1477.06 1124.55 1468.33 Q1124.55 1459.58 1127.6 1455 Q1130.68 1450.39 1136.49 1450.39 Z" fill="#000000" fill-rule="nonzero" fill-opacity="1" /><path clip-path="url(#clip090)" d="M1166.65 1454.1 Q1163.04 1454.1 1161.21 1457.66 Q1159.41 1461.2 1159.41 1468.33 Q1159.41 1475.44 1161.21 1479.01 Q1163.04 1482.55 1166.65 1482.55 Q1170.29 1482.55 1172.09 1479.01 Q1173.92 1475.44 1173.92 1468.33 Q1173.92 1461.2 1172.09 1457.66 Q1170.29 1454.1 1166.65 1454.1 M1166.65 1450.39 Q1172.46 1450.39 1175.52 1455 Q1178.6 1459.58 1178.6 1468.33 Q1178.6 1477.06 1175.52 1481.67 Q1172.46 1486.25 1166.65 1486.25 Q1160.84 1486.25 1157.76 1481.67 Q1154.71 1477.06 1154.71 1468.33 Q1154.71 1459.58 1157.76 1455 Q1160.84 1450.39 1166.65 1450.39 Z" fill="#000000" fill-rule="nonzero" fill-opacity="1" /><path clip-path="url(#clip090)" d="M1538.1 1481.64 L1554.42 1481.64 L1554.42 1485.58 L1532.47 1485.58 L1532.47 1481.64 Q1535.14 1478.89 1539.72 1474.26 Q1544.33 1469.61 1545.51 1468.27 Q1547.75 1465.74 1548.63 1464.01 Q1549.53 1462.25 1549.53 1460.56 Q1549.53 1457.8 1547.59 1456.07 Q1545.67 1454.33 1542.57 1454.33 Q1540.37 1454.33 1537.91 1455.09 Q1535.48 1455.86 1532.71 1457.41 L1532.71 1452.69 Q1535.53 1451.55 1537.98 1450.97 Q1540.44 1450.39 1542.47 1450.39 Q1547.84 1450.39 1551.04 1453.08 Q1554.23 1455.77 1554.23 1460.26 Q1554.23 1462.39 1553.42 1464.31 Q1552.64 1466.2 1550.53 1468.8 Q1549.95 1469.47 1546.85 1472.69 Q1543.75 1475.88 1538.1 1481.64 Z" fill="#000000" fill-rule="nonzero" fill-opacity="1" /><path clip-path="url(#clip090)" d="M1568.26 1481.64 L1584.58 1481.64 L1584.58 1485.58 L1562.64 1485.58 L1562.64 1481.64 Q1565.3 1478.89 1569.88 1474.26 Q1574.49 1469.61 1575.67 1468.27 Q1577.91 1465.74 1578.79 1464.01 Q1579.7 1462.25 1579.7 1460.56 Q1579.7 1457.8 1577.75 1456.07 Q1575.83 1454.33 1572.73 1454.33 Q1570.53 1454.33 1568.08 1455.09 Q1565.65 1455.86 1562.87 1457.41 L1562.87 1452.69 Q1565.69 1451.55 1568.15 1450.97 Q1570.6 1450.39 1572.64 1450.39 Q1578.01 1450.39 1581.2 1453.08 Q1584.4 1455.77 1584.4 1460.26 Q1584.4 1462.39 1583.59 1464.31 Q1582.8 1466.2 1580.69 1468.8 Q1580.11 1469.47 1577.01 1472.69 Q1573.91 1475.88 1568.26 1481.64 Z" fill="#000000" fill-rule="nonzero" fill-opacity="1" /><path clip-path="url(#clip090)" d="M1604.4 1454.1 Q1600.78 1454.1 1598.96 1457.66 Q1597.15 1461.2 1597.15 1468.33 Q1597.15 1475.44 1598.96 1479.01 Q1600.78 1482.55 1604.4 1482.55 Q1608.03 1482.55 1609.84 1479.01 Q1611.66 1475.44 1611.66 1468.33 Q1611.66 1461.2 1609.84 1457.66 Q1608.03 1454.1 1604.4 1454.1 M1604.4 1450.39 Q1610.21 1450.39 1613.26 1455 Q1616.34 1459.58 1616.34 1468.33 Q1616.34 1477.06 1613.26 1481.67 Q1610.21 1486.25 1604.4 1486.25 Q1598.59 1486.25 1595.51 1481.67 Q1592.45 1477.06 1592.45 1468.33 Q1592.45 1459.58 1595.51 1455 Q1598.59 1450.39 1604.4 1450.39 Z" fill="#000000" fill-rule="nonzero" fill-opacity="1" /><path clip-path="url(#clip090)" d="M1975.84 1481.64 L1992.16 1481.64 L1992.16 1485.58 L1970.22 1485.58 L1970.22 1481.64 Q1972.88 1478.89 1977.46 1474.26 Q1982.07 1469.61 1983.25 1468.27 Q1985.49 1465.74 1986.37 1464.01 Q1987.28 1462.25 1987.28 1460.56 Q1987.28 1457.8 1985.33 1456.07 Q1983.41 1454.33 1980.31 1454.33 Q1978.11 1454.33 1975.66 1455.09 Q1973.23 1455.86 1970.45 1457.41 L1970.45 1452.69 Q1973.27 1451.55 1975.73 1450.97 Q1978.18 1450.39 1980.22 1450.39 Q1985.59 1450.39 1988.78 1453.08 Q1991.98 1455.77 1991.98 1460.26 Q1991.98 1462.39 1991.17 1464.31 Q1990.38 1466.2 1988.27 1468.8 Q1987.69 1469.47 1984.59 1472.69 Q1981.49 1475.88 1975.84 1481.64 Z" fill="#000000" fill-rule="nonzero" fill-opacity="1" /><path clip-path="url(#clip090)" d="M2014.82 1455.09 L2003.02 1473.54 L2014.82 1473.54 L2014.82 1455.09 M2013.6 1451.02 L2019.48 1451.02 L2019.48 1473.54 L2024.41 1473.54 L2024.41 1477.43 L2019.48 1477.43 L2019.48 1485.58 L2014.82 1485.58 L2014.82 1477.43 L1999.22 1477.43 L1999.22 1472.92 L2013.6 1451.02 Z" fill="#000000" fill-rule="nonzero" fill-opacity="1" /><path clip-path="url(#clip090)" d="M2042.14 1454.1 Q2038.53 1454.1 2036.7 1457.66 Q2034.89 1461.2 2034.89 1468.33 Q2034.89 1475.44 2036.7 1479.01 Q2038.53 1482.55 2042.14 1482.55 Q2045.77 1482.55 2047.58 1479.01 Q2049.41 1475.44 2049.41 1468.33 Q2049.41 1461.2 2047.58 1457.66 Q2045.77 1454.1 2042.14 1454.1 M2042.14 1450.39 Q2047.95 1450.39 2051 1455 Q2054.08 1459.58 2054.08 1468.33 Q2054.08 1477.06 2051 1481.67 Q2047.95 1486.25 2042.14 1486.25 Q2036.33 1486.25 2033.25 1481.67 Q2030.19 1477.06 2030.19 1468.33 Q2030.19 1459.58 2033.25 1455 Q2036.33 1450.39 2042.14 1450.39 Z" fill="#000000" fill-rule="nonzero" fill-opacity="1" /><path clip-path="url(#clip090)" d="M1120.47 1525.81 L1120.47 1562.76 L1128.24 1562.76 Q1138.07 1562.76 1142.63 1558.3 Q1147.21 1553.85 1147.21 1544.24 Q1147.21 1534.69 1142.63 1530.26 Q1138.07 1525.81 1128.24 1525.81 L1120.47 1525.81 M1114.04 1520.52 L1127.25 1520.52 Q1141.07 1520.52 1147.53 1526.28 Q1153.99 1532.01 1153.99 1544.24 Q1153.99 1556.52 1147.5 1562.28 Q1141 1568.04 1127.25 1568.04 L1114.04 1568.04 L1114.04 1520.52 Z" fill="#000000" fill-rule="nonzero" fill-opacity="1" /><path clip-path="url(#clip090)" d="M1194.47 1548.76 L1194.47 1551.62 L1167.55 1551.62 Q1167.93 1557.67 1171.18 1560.85 Q1174.45 1564 1180.28 1564 Q1183.65 1564 1186.8 1563.17 Q1189.99 1562.35 1193.11 1560.69 L1193.11 1566.23 Q1189.96 1567.57 1186.65 1568.27 Q1183.33 1568.97 1179.93 1568.97 Q1171.4 1568.97 1166.4 1564 Q1161.44 1559.04 1161.44 1550.57 Q1161.44 1541.82 1166.15 1536.69 Q1170.89 1531.54 1178.91 1531.54 Q1186.1 1531.54 1190.27 1536.18 Q1194.47 1540.8 1194.47 1548.76 M1188.62 1547.04 Q1188.55 1542.23 1185.91 1539.37 Q1183.3 1536.5 1178.97 1536.5 Q1174.07 1536.5 1171.11 1539.27 Q1168.18 1542.04 1167.74 1547.07 L1188.62 1547.04 Z" fill="#000000" fill-rule="nonzero" fill-opacity="1" /><path clip-path="url(#clip090)" d="M1231.84 1539.24 Q1234.04 1535.29 1237.09 1533.41 Q1240.15 1531.54 1244.29 1531.54 Q1249.86 1531.54 1252.88 1535.45 Q1255.9 1539.33 1255.9 1546.53 L1255.9 1568.04 L1250.02 1568.04 L1250.02 1546.72 Q1250.02 1541.59 1248.2 1539.11 Q1246.39 1536.63 1242.66 1536.63 Q1238.11 1536.63 1235.47 1539.65 Q1232.83 1542.68 1232.83 1547.9 L1232.83 1568.04 L1226.94 1568.04 L1226.94 1546.72 Q1226.94 1541.56 1225.13 1539.11 Q1223.31 1536.63 1219.52 1536.63 Q1215.04 1536.63 1212.39 1539.68 Q1209.75 1542.71 1209.75 1547.9 L1209.75 1568.04 L1203.86 1568.04 L1203.86 1532.4 L1209.75 1532.4 L1209.75 1537.93 Q1211.76 1534.66 1214.56 1533.1 Q1217.36 1531.54 1221.21 1531.54 Q1225.09 1531.54 1227.8 1533.51 Q1230.54 1535.48 1231.84 1539.24 Z" fill="#000000" fill-rule="nonzero" fill-opacity="1" /><path clip-path="url(#clip090)" d="M1283.79 1550.12 Q1276.69 1550.12 1273.95 1551.75 Q1271.21 1553.37 1271.21 1557.29 Q1271.21 1560.4 1273.25 1562.25 Q1275.32 1564.07 1278.85 1564.07 Q1283.72 1564.07 1286.65 1560.63 Q1289.61 1557.16 1289.61 1551.43 L1289.61 1550.12 L1283.79 1550.12 M1295.47 1547.71 L1295.47 1568.04 L1289.61 1568.04 L1289.61 1562.63 Q1287.61 1565.88 1284.61 1567.44 Q1281.62 1568.97 1277.29 1568.97 Q1271.82 1568.97 1268.57 1565.91 Q1265.36 1562.82 1265.36 1557.67 Q1265.36 1551.65 1269.37 1548.6 Q1273.41 1545.54 1281.4 1545.54 L1289.61 1545.54 L1289.61 1544.97 Q1289.61 1540.93 1286.94 1538.73 Q1284.29 1536.5 1279.49 1536.5 Q1276.43 1536.5 1273.54 1537.23 Q1270.64 1537.97 1267.97 1539.43 L1267.97 1534.02 Q1271.18 1532.78 1274.21 1532.17 Q1277.23 1531.54 1280.09 1531.54 Q1287.83 1531.54 1291.65 1535.55 Q1295.47 1539.56 1295.47 1547.71 Z" fill="#000000" fill-rule="nonzero" fill-opacity="1" /><path clip-path="url(#clip090)" d="M1337.16 1546.53 L1337.16 1568.04 L1331.31 1568.04 L1331.31 1546.72 Q1331.31 1541.66 1329.33 1539.14 Q1327.36 1536.63 1323.41 1536.63 Q1318.67 1536.63 1315.93 1539.65 Q1313.2 1542.68 1313.2 1547.9 L1313.2 1568.04 L1307.31 1568.04 L1307.31 1532.4 L1313.2 1532.4 L1313.2 1537.93 Q1315.3 1534.72 1318.13 1533.13 Q1320.99 1531.54 1324.72 1531.54 Q1330.86 1531.54 1334.01 1535.36 Q1337.16 1539.14 1337.16 1546.53 Z" fill="#000000" fill-rule="nonzero" fill-opacity="1" /><path clip-path="url(#clip090)" d="M1372.3 1537.81 L1372.3 1518.52 L1378.16 1518.52 L1378.16 1568.04 L1372.3 1568.04 L1372.3 1562.7 Q1370.45 1565.88 1367.62 1567.44 Q1364.82 1568.97 1360.87 1568.97 Q1354.41 1568.97 1350.34 1563.81 Q1346.3 1558.65 1346.3 1550.25 Q1346.3 1541.85 1350.34 1536.69 Q1354.41 1531.54 1360.87 1531.54 Q1364.82 1531.54 1367.62 1533.1 Q1370.45 1534.62 1372.3 1537.81 M1352.34 1550.25 Q1352.34 1556.71 1354.99 1560.4 Q1357.66 1564.07 1362.31 1564.07 Q1366.95 1564.07 1369.63 1560.4 Q1372.3 1556.71 1372.3 1550.25 Q1372.3 1543.79 1369.63 1540.13 Q1366.95 1536.44 1362.31 1536.44 Q1357.66 1536.44 1354.99 1540.13 Q1352.34 1543.79 1352.34 1550.25 Z" fill="#000000" fill-rule="nonzero" fill-opacity="1" /><polyline clip-path="url(#clip090)" style="stroke:#000000; stroke-linecap:round; stroke-linejoin:round; stroke-width:4; stroke-opacity:1; fill:none" points="139.446,1423.18 139.446,47.2441 "/>
<polyline clip-path="url(#clip090)" style="stroke:#000000; stroke-linecap:round; stroke-linejoin:round; stroke-width:4; stroke-opacity:1; fill:none" points="139.446,1423.18 158.343,1423.18 "/>
<polyline clip-path="url(#clip090)" style="stroke:#000000; stroke-linecap:round; stroke-linejoin:round; stroke-width:4; stroke-opacity:1; fill:none" points="139.446,1226.62 158.343,1226.62 "/>
<polyline clip-path="url(#clip090)" style="stroke:#000000; stroke-linecap:round; stroke-linejoin:round; stroke-width:4; stroke-opacity:1; fill:none" points="139.446,1030.06 158.343,1030.06 "/>
<polyline clip-path="url(#clip090)" style="stroke:#000000; stroke-linecap:round; stroke-linejoin:round; stroke-width:4; stroke-opacity:1; fill:none" points="139.446,833.493 158.343,833.493 "/>
<polyline clip-path="url(#clip090)" style="stroke:#000000; stroke-linecap:round; stroke-linejoin:round; stroke-width:4; stroke-opacity:1; fill:none" points="139.446,636.931 158.343,636.931 "/>
<polyline clip-path="url(#clip090)" style="stroke:#000000; stroke-linecap:round; stroke-linejoin:round; stroke-width:4; stroke-opacity:1; fill:none" points="139.446,440.369 158.343,440.369 "/>
<polyline clip-path="url(#clip090)" style="stroke:#000000; stroke-linecap:round; stroke-linejoin:round; stroke-width:4; stroke-opacity:1; fill:none" points="139.446,243.806 158.343,243.806 "/>
<polyline clip-path="url(#clip090)" style="stroke:#000000; stroke-linecap:round; stroke-linejoin:round; stroke-width:4; stroke-opacity:1; fill:none" points="139.446,47.2441 158.343,47.2441 "/>
<path clip-path="url(#clip090)" d="M91.5012 1408.98 Q87.8901 1408.98 86.0614 1412.54 Q84.2558 1416.08 84.2558 1423.21 Q84.2558 1430.32 86.0614 1433.89 Q87.8901 1437.43 91.5012 1437.43 Q95.1354 1437.43 96.941 1433.89 Q98.7696 1430.32 98.7696 1423.21 Q98.7696 1416.08 96.941 1412.54 Q95.1354 1408.98 91.5012 1408.98 M91.5012 1405.27 Q97.3113 1405.27 100.367 1409.88 Q103.446 1414.46 103.446 1423.21 Q103.446 1431.94 100.367 1436.55 Q97.3113 1441.13 91.5012 1441.13 Q85.691 1441.13 82.6123 1436.55 Q79.5568 1431.94 79.5568 1423.21 Q79.5568 1414.46 82.6123 1409.88 Q85.691 1405.27 91.5012 1405.27 Z" fill="#000000" fill-rule="nonzero" fill-opacity="1" /><path clip-path="url(#clip090)" d="M87.1262 1239.96 L103.446 1239.96 L103.446 1243.9 L81.5012 1243.9 L81.5012 1239.96 Q84.1632 1237.21 88.7466 1232.58 Q93.353 1227.93 94.5336 1226.58 Q96.7789 1224.06 97.6585 1222.32 Q98.5613 1220.56 98.5613 1218.87 Q98.5613 1216.12 96.6169 1214.38 Q94.6956 1212.65 91.5938 1212.65 Q89.3947 1212.65 86.941 1213.41 Q84.5105 1214.18 81.7327 1215.73 L81.7327 1211 Q84.5568 1209.87 87.0105 1209.29 Q89.4641 1208.71 91.5012 1208.71 Q96.8715 1208.71 100.066 1211.4 Q103.26 1214.08 103.26 1218.57 Q103.26 1220.7 102.45 1222.62 Q101.663 1224.52 99.5567 1227.12 Q98.978 1227.79 95.8761 1231 Q92.7743 1234.2 87.1262 1239.96 Z" fill="#000000" fill-rule="nonzero" fill-opacity="1" /><path clip-path="url(#clip090)" d="M93.8623 1016.85 L82.0568 1035.3 L93.8623 1035.3 L93.8623 1016.85 M92.6354 1012.78 L98.515 1012.78 L98.515 1035.3 L103.446 1035.3 L103.446 1039.19 L98.515 1039.19 L98.515 1047.34 L93.8623 1047.34 L93.8623 1039.19 L78.2605 1039.19 L78.2605 1034.67 L92.6354 1012.78 Z" fill="#000000" fill-rule="nonzero" fill-opacity="1" /><path clip-path="url(#clip090)" d="M91.9178 831.63 Q88.7697 831.63 86.9179 833.782 Q85.0892 835.935 85.0892 839.685 Q85.0892 843.412 86.9179 845.588 Q88.7697 847.741 91.9178 847.741 Q95.066 847.741 96.8947 845.588 Q98.7465 843.412 98.7465 839.685 Q98.7465 835.935 96.8947 833.782 Q95.066 831.63 91.9178 831.63 M101.2 816.977 L101.2 821.236 Q99.4409 820.403 97.6354 819.963 Q95.853 819.523 94.0937 819.523 Q89.4641 819.523 87.0105 822.648 Q84.5799 825.773 84.2327 832.093 Q85.5984 830.079 87.6586 829.014 Q89.7188 827.926 92.1956 827.926 Q97.4039 827.926 100.413 831.097 Q103.446 834.245 103.446 839.685 Q103.446 845.009 100.297 848.227 Q97.1493 851.444 91.9178 851.444 Q85.9225 851.444 82.7512 846.861 Q79.5799 842.255 79.5799 833.528 Q79.5799 825.333 83.4688 820.472 Q87.3577 815.588 93.9086 815.588 Q95.6678 815.588 97.4502 815.935 Q99.2558 816.283 101.2 816.977 Z" fill="#000000" fill-rule="nonzero" fill-opacity="1" /><path clip-path="url(#clip090)" d="M91.5938 637.799 Q88.2604 637.799 86.3392 639.581 Q84.441 641.364 84.441 644.489 Q84.441 647.614 86.3392 649.396 Q88.2604 651.178 91.5938 651.178 Q94.9271 651.178 96.8484 649.396 Q98.7696 647.591 98.7696 644.489 Q98.7696 641.364 96.8484 639.581 Q94.9502 637.799 91.5938 637.799 M86.9179 635.808 Q83.9086 635.067 82.2188 633.007 Q80.5522 630.947 80.5522 627.984 Q80.5522 623.841 83.492 621.433 Q86.4549 619.026 91.5938 619.026 Q96.7558 619.026 99.6956 621.433 Q102.635 623.841 102.635 627.984 Q102.635 630.947 100.946 633.007 Q99.2789 635.067 96.2928 635.808 Q99.6724 636.595 101.547 638.887 Q103.446 641.179 103.446 644.489 Q103.446 649.512 100.367 652.197 Q97.3113 654.882 91.5938 654.882 Q85.8762 654.882 82.7975 652.197 Q79.742 649.512 79.742 644.489 Q79.742 641.179 81.6401 638.887 Q83.5382 636.595 86.9179 635.808 M85.2049 628.424 Q85.2049 631.109 86.8716 632.614 Q88.5614 634.118 91.5938 634.118 Q94.603 634.118 96.2928 632.614 Q98.0058 631.109 98.0058 628.424 Q98.0058 625.739 96.2928 624.234 Q94.603 622.73 91.5938 622.73 Q88.5614 622.73 86.8716 624.234 Q85.2049 625.739 85.2049 628.424 Z" fill="#000000" fill-rule="nonzero" fill-opacity="1" /><path clip-path="url(#clip090)" d="M52.1495 453.713 L59.7884 453.713 L59.7884 427.348 L51.4782 429.014 L51.4782 424.755 L59.7421 423.089 L64.418 423.089 L64.418 453.713 L72.0568 453.713 L72.0568 457.649 L52.1495 457.649 L52.1495 453.713 Z" fill="#000000" fill-rule="nonzero" fill-opacity="1" /><path clip-path="url(#clip090)" d="M91.5012 426.167 Q87.8901 426.167 86.0614 429.732 Q84.2558 433.274 84.2558 440.403 Q84.2558 447.51 86.0614 451.075 Q87.8901 454.616 91.5012 454.616 Q95.1354 454.616 96.941 451.075 Q98.7696 447.51 98.7696 440.403 Q98.7696 433.274 96.941 429.732 Q95.1354 426.167 91.5012 426.167 M91.5012 422.464 Q97.3113 422.464 100.367 427.07 Q103.446 431.653 103.446 440.403 Q103.446 449.13 100.367 453.737 Q97.3113 458.32 91.5012 458.32 Q85.691 458.32 82.6123 453.737 Q79.5568 449.13 79.5568 440.403 Q79.5568 431.653 82.6123 427.07 Q85.691 422.464 91.5012 422.464 Z" fill="#000000" fill-rule="nonzero" fill-opacity="1" /><path clip-path="url(#clip090)" d="M53.7467 257.151 L61.3856 257.151 L61.3856 230.786 L53.0754 232.452 L53.0754 228.193 L61.3393 226.526 L66.0152 226.526 L66.0152 257.151 L73.654 257.151 L73.654 261.086 L53.7467 261.086 L53.7467 257.151 Z" fill="#000000" fill-rule="nonzero" fill-opacity="1" /><path clip-path="url(#clip090)" d="M87.1262 257.151 L103.446 257.151 L103.446 261.086 L81.5012 261.086 L81.5012 257.151 Q84.1632 254.397 88.7466 249.767 Q93.353 245.114 94.5336 243.772 Q96.7789 241.248 97.6585 239.512 Q98.5613 237.753 98.5613 236.063 Q98.5613 233.309 96.6169 231.573 Q94.6956 229.837 91.5938 229.837 Q89.3947 229.837 86.941 230.6 Q84.5105 231.364 81.7327 232.915 L81.7327 228.193 Q84.5568 227.059 87.0105 226.48 Q89.4641 225.901 91.5012 225.901 Q96.8715 225.901 100.066 228.587 Q103.26 231.272 103.26 235.762 Q103.26 237.892 102.45 239.813 Q101.663 241.711 99.5567 244.304 Q98.978 244.975 95.8761 248.193 Q92.7743 251.387 87.1262 257.151 Z" fill="#000000" fill-rule="nonzero" fill-opacity="1" /><path clip-path="url(#clip090)" d="M51.6634 60.5889 L59.3023 60.5889 L59.3023 34.2233 L50.9921 35.89 L50.9921 31.6308 L59.256 29.9641 L63.9319 29.9641 L63.9319 60.5889 L71.5707 60.5889 L71.5707 64.5241 L51.6634 64.5241 L51.6634 60.5889 Z" fill="#000000" fill-rule="nonzero" fill-opacity="1" /><path clip-path="url(#clip090)" d="M93.8623 34.0381 L82.0568 52.4871 L93.8623 52.4871 L93.8623 34.0381 M92.6354 29.9641 L98.515 29.9641 L98.515 52.4871 L103.446 52.4871 L103.446 56.376 L98.515 56.376 L98.515 64.5241 L93.8623 64.5241 L93.8623 56.376 L78.2605 56.376 L78.2605 51.8621 L92.6354 29.9641 Z" fill="#000000" fill-rule="nonzero" fill-opacity="1" /><path clip-path="url(#clip092)" d="M261.182 931.774 L261.182 1423.18 L370.617 1423.18 L370.617 931.774 L261.182 931.774 L261.182 931.774  Z" fill="#009af9" fill-rule="evenodd" fill-opacity="1"/>
<polyline clip-path="url(#clip092)" style="stroke:#000000; stroke-linecap:round; stroke-linejoin:round; stroke-width:4; stroke-opacity:1; fill:none" points="261.182,931.774 261.182,1423.18 370.617,1423.18 370.617,931.774 261.182,931.774 "/>
<path clip-path="url(#clip092)" d="M370.617 1128.34 L370.617 1423.18 L480.052 1423.18 L480.052 1128.34 L370.617 1128.34 L370.617 1128.34  Z" fill="#009af9" fill-rule="evenodd" fill-opacity="1"/>
<polyline clip-path="url(#clip092)" style="stroke:#000000; stroke-linecap:round; stroke-linejoin:round; stroke-width:4; stroke-opacity:1; fill:none" points="370.617,1128.34 370.617,1423.18 480.052,1423.18 480.052,1128.34 370.617,1128.34 "/>
<path clip-path="url(#clip092)" d="M480.052 1128.34 L480.052 1423.18 L589.488 1423.18 L589.488 1128.34 L480.052 1128.34 L480.052 1128.34  Z" fill="#009af9" fill-rule="evenodd" fill-opacity="1"/>
<polyline clip-path="url(#clip092)" style="stroke:#000000; stroke-linecap:round; stroke-linejoin:round; stroke-width:4; stroke-opacity:1; fill:none" points="480.052,1128.34 480.052,1423.18 589.488,1423.18 589.488,1128.34 480.052,1128.34 "/>
<path clip-path="url(#clip092)" d="M589.488 342.087 L589.488 1423.18 L698.923 1423.18 L698.923 342.087 L589.488 342.087 L589.488 342.087  Z" fill="#009af9" fill-rule="evenodd" fill-opacity="1"/>
<polyline clip-path="url(#clip092)" style="stroke:#000000; stroke-linecap:round; stroke-linejoin:round; stroke-width:4; stroke-opacity:1; fill:none" points="589.488,342.087 589.488,1423.18 698.923,1423.18 698.923,342.087 589.488,342.087 "/>
<path clip-path="url(#clip092)" d="M698.923 440.369 L698.923 1423.18 L808.359 1423.18 L808.359 440.369 L698.923 440.369 L698.923 440.369  Z" fill="#009af9" fill-rule="evenodd" fill-opacity="1"/>
<polyline clip-path="url(#clip092)" style="stroke:#000000; stroke-linecap:round; stroke-linejoin:round; stroke-width:4; stroke-opacity:1; fill:none" points="698.923,440.369 698.923,1423.18 808.359,1423.18 808.359,440.369 698.923,440.369 "/>
<path clip-path="url(#clip092)" d="M808.359 538.65 L808.359 1423.18 L917.794 1423.18 L917.794 538.65 L808.359 538.65 L808.359 538.65  Z" fill="#009af9" fill-rule="evenodd" fill-opacity="1"/>
<polyline clip-path="url(#clip092)" style="stroke:#000000; stroke-linecap:round; stroke-linejoin:round; stroke-width:4; stroke-opacity:1; fill:none" points="808.359,538.65 808.359,1423.18 917.794,1423.18 917.794,538.65 808.359,538.65 "/>
<path clip-path="url(#clip092)" d="M917.794 1128.34 L917.794 1423.18 L1027.23 1423.18 L1027.23 1128.34 L917.794 1128.34 L917.794 1128.34  Z" fill="#009af9" fill-rule="evenodd" fill-opacity="1"/>
<polyline clip-path="url(#clip092)" style="stroke:#000000; stroke-linecap:round; stroke-linejoin:round; stroke-width:4; stroke-opacity:1; fill:none" points="917.794,1128.34 917.794,1423.18 1027.23,1423.18 1027.23,1128.34 917.794,1128.34 "/>
<path clip-path="url(#clip092)" d="M1027.23 440.369 L1027.23 1423.18 L1136.67 1423.18 L1136.67 440.369 L1027.23 440.369 L1027.23 440.369  Z" fill="#009af9" fill-rule="evenodd" fill-opacity="1"/>
<polyline clip-path="url(#clip092)" style="stroke:#000000; stroke-linecap:round; stroke-linejoin:round; stroke-width:4; stroke-opacity:1; fill:none" points="1027.23,440.369 1027.23,1423.18 1136.67,1423.18 1136.67,440.369 1027.23,440.369 "/>
<path clip-path="url(#clip092)" d="M1136.67 145.525 L1136.67 1423.18 L1246.1 1423.18 L1246.1 145.525 L1136.67 145.525 L1136.67 145.525  Z" fill="#009af9" fill-rule="evenodd" fill-opacity="1"/>
<polyline clip-path="url(#clip092)" style="stroke:#000000; stroke-linecap:round; stroke-linejoin:round; stroke-width:4; stroke-opacity:1; fill:none" points="1136.67,145.525 1136.67,1423.18 1246.1,1423.18 1246.1,145.525 1136.67,145.525 "/>
<path clip-path="url(#clip092)" d="M1246.1 47.2441 L1246.1 1423.18 L1355.54 1423.18 L1355.54 47.2441 L1246.1 47.2441 L1246.1 47.2441  Z" fill="#009af9" fill-rule="evenodd" fill-opacity="1"/>
<polyline clip-path="url(#clip092)" style="stroke:#000000; stroke-linecap:round; stroke-linejoin:round; stroke-width:4; stroke-opacity:1; fill:none" points="1246.1,47.2441 1246.1,1423.18 1355.54,1423.18 1355.54,47.2441 1246.1,47.2441 "/>
<path clip-path="url(#clip092)" d="M1355.54 931.774 L1355.54 1423.18 L1464.97 1423.18 L1464.97 931.774 L1355.54 931.774 L1355.54 931.774  Z" fill="#009af9" fill-rule="evenodd" fill-opacity="1"/>
<polyline clip-path="url(#clip092)" style="stroke:#000000; stroke-linecap:round; stroke-linejoin:round; stroke-width:4; stroke-opacity:1; fill:none" points="1355.54,931.774 1355.54,1423.18 1464.97,1423.18 1464.97,931.774 1355.54,931.774 "/>
<path clip-path="url(#clip092)" d="M1464.97 1030.06 L1464.97 1423.18 L1574.41 1423.18 L1574.41 1030.06 L1464.97 1030.06 L1464.97 1030.06  Z" fill="#009af9" fill-rule="evenodd" fill-opacity="1"/>
<polyline clip-path="url(#clip092)" style="stroke:#000000; stroke-linecap:round; stroke-linejoin:round; stroke-width:4; stroke-opacity:1; fill:none" points="1464.97,1030.06 1464.97,1423.18 1574.41,1423.18 1574.41,1030.06 1464.97,1030.06 "/>
<path clip-path="url(#clip092)" d="M1574.41 1128.34 L1574.41 1423.18 L1683.84 1423.18 L1683.84 1128.34 L1574.41 1128.34 L1574.41 1128.34  Z" fill="#009af9" fill-rule="evenodd" fill-opacity="1"/>
<polyline clip-path="url(#clip092)" style="stroke:#000000; stroke-linecap:round; stroke-linejoin:round; stroke-width:4; stroke-opacity:1; fill:none" points="1574.41,1128.34 1574.41,1423.18 1683.84,1423.18 1683.84,1128.34 1574.41,1128.34 "/>
<path clip-path="url(#clip092)" d="M1683.84 1128.34 L1683.84 1423.18 L1793.28 1423.18 L1793.28 1128.34 L1683.84 1128.34 L1683.84 1128.34  Z" fill="#009af9" fill-rule="evenodd" fill-opacity="1"/>
<polyline clip-path="url(#clip092)" style="stroke:#000000; stroke-linecap:round; stroke-linejoin:round; stroke-width:4; stroke-opacity:1; fill:none" points="1683.84,1128.34 1683.84,1423.18 1793.28,1423.18 1793.28,1128.34 1683.84,1128.34 "/>
<path clip-path="url(#clip092)" d="M1793.28 1226.62 L1793.28 1423.18 L1902.71 1423.18 L1902.71 1226.62 L1793.28 1226.62 L1793.28 1226.62  Z" fill="#009af9" fill-rule="evenodd" fill-opacity="1"/>
<polyline clip-path="url(#clip092)" style="stroke:#000000; stroke-linecap:round; stroke-linejoin:round; stroke-width:4; stroke-opacity:1; fill:none" points="1793.28,1226.62 1793.28,1423.18 1902.71,1423.18 1902.71,1226.62 1793.28,1226.62 "/>
<path clip-path="url(#clip092)" d="M1902.71 1423.18 L1902.71 1423.18 L2012.15 1423.18 L2012.15 1423.18 L1902.71 1423.18 L1902.71 1423.18  Z" fill="#009af9" fill-rule="evenodd" fill-opacity="1"/>
<polyline clip-path="url(#clip092)" style="stroke:#000000; stroke-linecap:round; stroke-linejoin:round; stroke-width:4; stroke-opacity:1; fill:none" points="1902.71,1423.18 1902.71,1423.18 2012.15,1423.18 1902.71,1423.18 "/>
<path clip-path="url(#clip092)" d="M2012.15 1324.9 L2012.15 1423.18 L2121.58 1423.18 L2121.58 1324.9 L2012.15 1324.9 L2012.15 1324.9  Z" fill="#009af9" fill-rule="evenodd" fill-opacity="1"/>
<polyline clip-path="url(#clip092)" style="stroke:#000000; stroke-linecap:round; stroke-linejoin:round; stroke-width:4; stroke-opacity:1; fill:none" points="2012.15,1324.9 2012.15,1423.18 2121.58,1423.18 2121.58,1324.9 2012.15,1324.9 "/>
<path clip-path="url(#clip092)" d="M2121.58 1324.9 L2121.58 1423.18 L2231.02 1423.18 L2231.02 1324.9 L2121.58 1324.9 L2121.58 1324.9  Z" fill="#009af9" fill-rule="evenodd" fill-opacity="1"/>
<polyline clip-path="url(#clip092)" style="stroke:#000000; stroke-linecap:round; stroke-linejoin:round; stroke-width:4; stroke-opacity:1; fill:none" points="2121.58,1324.9 2121.58,1423.18 2231.02,1423.18 2231.02,1324.9 2121.58,1324.9 "/>
<circle clip-path="url(#clip092)" style="fill:#009af9; stroke:none; fill-opacity:0" cx="315.899" cy="931.774" r="2"/>
<circle clip-path="url(#clip092)" style="fill:#009af9; stroke:none; fill-opacity:0" cx="425.335" cy="1128.34" r="2"/>
<circle clip-path="url(#clip092)" style="fill:#009af9; stroke:none; fill-opacity:0" cx="534.77" cy="1128.34" r="2"/>
<circle clip-path="url(#clip092)" style="fill:#009af9; stroke:none; fill-opacity:0" cx="644.206" cy="342.087" r="2"/>
<circle clip-path="url(#clip092)" style="fill:#009af9; stroke:none; fill-opacity:0" cx="753.641" cy="440.369" r="2"/>
<circle clip-path="url(#clip092)" style="fill:#009af9; stroke:none; fill-opacity:0" cx="863.077" cy="538.65" r="2"/>
<circle clip-path="url(#clip092)" style="fill:#009af9; stroke:none; fill-opacity:0" cx="972.512" cy="1128.34" r="2"/>
<circle clip-path="url(#clip092)" style="fill:#009af9; stroke:none; fill-opacity:0" cx="1081.95" cy="440.369" r="2"/>
<circle clip-path="url(#clip092)" style="fill:#009af9; stroke:none; fill-opacity:0" cx="1191.38" cy="145.525" r="2"/>
<circle clip-path="url(#clip092)" style="fill:#009af9; stroke:none; fill-opacity:0" cx="1300.82" cy="47.2441" r="2"/>
<circle clip-path="url(#clip092)" style="fill:#009af9; stroke:none; fill-opacity:0" cx="1410.25" cy="931.774" r="2"/>
<circle clip-path="url(#clip092)" style="fill:#009af9; stroke:none; fill-opacity:0" cx="1519.69" cy="1030.06" r="2"/>
<circle clip-path="url(#clip092)" style="fill:#009af9; stroke:none; fill-opacity:0" cx="1629.12" cy="1128.34" r="2"/>
<circle clip-path="url(#clip092)" style="fill:#009af9; stroke:none; fill-opacity:0" cx="1738.56" cy="1128.34" r="2"/>
<circle clip-path="url(#clip092)" style="fill:#009af9; stroke:none; fill-opacity:0" cx="1848" cy="1226.62" r="2"/>
<circle clip-path="url(#clip092)" style="fill:#009af9; stroke:none; fill-opacity:0" cx="1957.43" cy="1423.18" r="2"/>
<circle clip-path="url(#clip092)" style="fill:#009af9; stroke:none; fill-opacity:0" cx="2066.87" cy="1324.9" r="2"/>
<circle clip-path="url(#clip092)" style="fill:#009af9; stroke:none; fill-opacity:0" cx="2176.3" cy="1324.9" r="2"/>
</svg>
