<?xml version="1.0" encoding="UTF-8" standalone="no"?>
<!-- Created with Inkscape (http://www.inkscape.org/) -->
<svg
   xmlns:dc="http://purl.org/dc/elements/1.1/"
   xmlns:cc="http://web.resource.org/cc/"
   xmlns:rdf="http://www.w3.org/1999/02/22-rdf-syntax-ns#"
   xmlns:svg="http://www.w3.org/2000/svg"
   xmlns="http://www.w3.org/2000/svg"
   xmlns:sodipodi="http://sodipodi.sourceforge.net/DTD/sodipodi-0.dtd"
   xmlns:inkscape="http://www.inkscape.org/namespaces/inkscape"
   width="364"
   height="364"
   id="svg2"
   sodipodi:version="0.32"
   inkscape:version="0.44"
   version="1.0"
   sodipodi:docbase="C:\Documents and Settings\tim\My Documents\My Pictures"
   sodipodi:docname="Sudoku-by-L2G-20050714.svg">
  <defs
     id="defs4" />
  <sodipodi:namedview
     id="base"
     pagecolor="#ffffff"
     bordercolor="#666666"
     borderopacity="1.0"
     gridtolerance="10000"
     guidetolerance="10"
     objecttolerance="10"
     inkscape:pageopacity="0.0"
     inkscape:pageshadow="2"
     inkscape:zoom="1.4142136"
     inkscape:cx="255.81774"
     inkscape:cy="203.56327"
     inkscape:document-units="px"
     inkscape:current-layer="layer1"
     inkscape:window-width="1280"
     inkscape:window-height="964"
     inkscape:window-x="-4"
     inkscape:window-y="-4" />
  <metadata
     id="metadata7">
    <rdf:RDF>
      <cc:Work
         rdf:about="">
        <dc:format>image/svg+xml</dc:format>
        <dc:type
           rdf:resource="http://purl.org/dc/dcmitype/StillImage" />
      </cc:Work>
    </rdf:RDF>
  </metadata>
  <g
     inkscape:label="Layer 1"
     inkscape:groupmode="layer"
     id="layer1"
     transform="translate(-50.12524,-105.3622)">
    <path
       style="fill:white;fill-opacity:1;stroke:black;stroke-width:2;stroke-miterlimit:4;stroke-opacity:1"
       d="M 131.84616,107.86955 L 171.84616,107.86955 L 171.84616,147.86955 L 131.84616,147.86955 L 131.84616,107.86955 z "
       id="rect1872" />
    <path
       style="fill:white;fill-opacity:1;stroke:black;stroke-width:2;stroke-miterlimit:4;stroke-opacity:1"
       d="M 171.84616,107.86955 L 211.84616,107.86955 L 211.84616,147.86955 L 171.84616,147.86955 L 171.84616,107.86955 z "
       id="rect2768" />
    <path
       style="fill:white;fill-opacity:1;stroke:black;stroke-width:2;stroke-miterlimit:4;stroke-opacity:1"
       d="M 251.84619,187.86955 L 291.84619,187.86955 L 291.84619,227.86955 L 251.84619,227.86955 L 251.84619,187.86955 z "
       id="rect2806" />
    <path
       style="fill:white;fill-opacity:1;stroke:black;stroke-width:2;stroke-miterlimit:4;stroke-opacity:1"
       d="M 211.84613,147.86955 L 251.84613,147.86955 L 251.84613,187.86955 L 211.84613,187.86955 L 211.84613,147.86955 z "
       id="rect2818" />
    <path
       transform="translate(170.5512,48.86415)"
       style="font-size:28px;stroke-width:2;stroke-miterlimit:4"
       d="M 55.607422,128.58938 L 55.607422,126.07376 C 56.300126,126.40189 57.001949,126.65254 57.712891,126.82571 C 58.423822,126.99889 59.121087,127.08548 59.804688,127.08548 C 61.627595,127.08548 63.019846,126.47252 63.981445,125.24661 C 64.943021,124.0207 65.492175,122.15905 65.628906,119.66165 C 65.100248,120.44551 64.430327,121.04707 63.619141,121.46634 C 62.807932,121.88561 61.910147,122.09525 60.925781,122.09524 C 58.884108,122.09525 57.26855,121.47774 56.079102,120.2427 C 54.889646,119.00769 54.29492,117.31921 54.294922,115.17727 C 54.29492,113.08094 54.914711,111.3993 56.154297,110.13235 C 57.393875,108.86545 59.043613,108.23198 61.103516,108.23196 C 63.464182,108.23198 65.266589,109.1366 66.510742,110.94583 C 67.754868,112.75509 68.376937,115.38237 68.376953,118.82766 C 68.376937,122.04512 67.613592,124.61315 66.086914,126.53177 C 64.560209,128.45039 62.507151,129.4097 59.927734,129.4097 C 59.235019,129.4097 58.533197,129.34134 57.822266,129.20462 C 57.111324,129.0679 56.373043,128.86282 55.607422,128.58938 L 55.607422,128.58938 z M 61.103516,119.93509 C 62.343089,119.9351 63.325185,119.51127 64.049805,118.6636 C 64.774402,117.81596 65.136706,116.65385 65.136719,115.17727 C 65.136706,113.70984 64.774402,112.55001 64.049805,111.69778 C 63.325185,110.84559 62.343089,110.41948 61.103516,110.41946 C 59.863925,110.41948 58.88183,110.84559 58.157227,111.69778 C 57.432612,112.55001 57.070308,113.70984 57.070313,115.17727 C 57.070308,116.65385 57.432612,117.81596 58.157227,118.6636 C 58.88183,119.51127 59.863925,119.9351 61.103516,119.93509 L 61.103516,119.93509 z "
       id="flowRoot2820" />
    <path
       style="fill:white;fill-opacity:1;stroke:black;stroke-width:2;stroke-miterlimit:4;stroke-opacity:1"
       d="M 171.84616,147.86955 L 211.84616,147.86955 L 211.84616,187.86955 L 171.84616,187.86955 L 171.84616,147.86955 z "
       id="rect2830" />
    <path
       transform="translate(130.5512,48.86416)"
       style="font-size:28px;stroke-width:2;stroke-miterlimit:4"
       d="M 56.003906,126.68899 L 60.515625,126.68899 L 60.515625,111.11673 L 55.607422,112.1011 L 55.607422,109.58548 L 60.488281,108.6011 L 63.25,108.6011 L 63.25,126.68899 L 67.761719,126.68899 L 67.761719,129.01321 L 56.003906,129.01321 L 56.003906,126.68899 z "
       id="flowRoot2832" />
    <path
       style="fill:white;fill-opacity:1;stroke:black;stroke-width:2;stroke-miterlimit:4;stroke-opacity:1"
       d="M 251.84619,147.86955 L 291.84619,147.86955 L 291.84619,187.86955 L 251.84619,187.86955 L 251.84619,147.86955 z "
       id="rect2842" />
    <path
       transform="translate(210.5512,48.86416)"
       style="font-size:28px;stroke-width:2;stroke-miterlimit:4"
       d="M 55.552734,108.6011 L 66.394531,108.6011 L 66.394531,110.92532 L 58.082031,110.92532 L 58.082031,115.92923 C 58.483067,115.79252 58.884108,115.68998 59.285156,115.62161 C 59.686191,115.55326 60.087232,115.51908 60.488281,115.51907 C 62.766917,115.51908 64.571603,116.14343 65.902344,117.39212 C 67.233058,118.64083 67.898422,120.33158 67.898438,122.46438 C 67.898422,124.661 67.214829,126.36771 65.847656,127.5845 C 64.480457,128.8013 62.552724,129.4097 60.064453,129.4097 C 59.207676,129.4097 58.334955,129.33678 57.446289,129.19095 C 56.557613,129.04511 55.63932,128.82636 54.691406,128.5347 L 54.691406,125.75931 C 55.511716,126.20592 56.359371,126.5386 57.234375,126.75735 C 58.109369,126.9761 59.034499,127.08548 60.009766,127.08548 C 61.586579,127.08548 62.835276,126.67077 63.755859,125.84134 C 64.67642,125.01191 65.136706,123.88626 65.136719,122.46438 C 65.136706,121.04252 64.67642,119.91687 63.755859,119.08743 C 62.835276,118.25801 61.586579,117.8433 60.009766,117.84329 C 59.271478,117.8433 58.535476,117.92533 57.801758,118.08938 C 57.068029,118.25346 56.318356,118.50866 55.552734,118.85501 L 55.552734,108.6011 z "
       id="flowRoot2844" />
    <path
       style="fill:white;fill-opacity:1;stroke:black;stroke-width:2;stroke-miterlimit:4;stroke-opacity:1"
       d="M 51.846165,107.86955 L 91.846165,107.86955 L 91.846165,147.86955 L 51.846165,147.86955 L 51.846165,107.86955 z "
       id="rect2854" />
    <path
       transform="translate(10.55124,8.864154)"
       style="font-size:28px;stroke-width:2;stroke-miterlimit:4"
       d="M 55.552734,108.6011 L 66.394531,108.6011 L 66.394531,110.92532 L 58.082031,110.92532 L 58.082031,115.92923 C 58.483067,115.79252 58.884108,115.68998 59.285156,115.62161 C 59.686191,115.55326 60.087232,115.51908 60.488281,115.51907 C 62.766917,115.51908 64.571603,116.14343 65.902344,117.39212 C 67.233058,118.64083 67.898422,120.33158 67.898438,122.46438 C 67.898422,124.661 67.214829,126.36771 65.847656,127.5845 C 64.480457,128.8013 62.552724,129.4097 60.064453,129.4097 C 59.207676,129.4097 58.334955,129.33678 57.446289,129.19095 C 56.557613,129.04511 55.63932,128.82636 54.691406,128.5347 L 54.691406,125.75931 C 55.511716,126.20592 56.359371,126.5386 57.234375,126.75735 C 58.109369,126.9761 59.034499,127.08548 60.009766,127.08548 C 61.586579,127.08548 62.835276,126.67077 63.755859,125.84134 C 64.67642,125.01191 65.136706,123.88626 65.136719,122.46438 C 65.136706,121.04252 64.67642,119.91687 63.755859,119.08743 C 62.835276,118.25801 61.586579,117.8433 60.009766,117.84329 C 59.271478,117.8433 58.535476,117.92533 57.801758,118.08938 C 57.068029,118.25346 56.318356,118.50866 55.552734,118.85501 L 55.552734,108.6011 z "
       id="flowRoot2856" />
    <path
       style="fill:white;fill-opacity:1;stroke:black;stroke-width:2;stroke-miterlimit:4;stroke-opacity:1"
       d="M 131.84616,147.86955 L 171.84616,147.86955 L 171.84616,187.86955 L 131.84616,187.86955 L 131.84616,147.86955 z "
       id="rect2866" />
    <path
       style="fill:white;fill-opacity:1;stroke:black;stroke-width:2;stroke-miterlimit:4;stroke-opacity:1"
       d="M 91.846161,107.86955 L 131.84616,107.86955 L 131.84616,147.86955 L 91.846161,147.86955 L 91.846161,107.86955 z "
       id="rect2878" />
    <path
       transform="translate(50.55121,8.864157)"
       style="font-size:28px;stroke-width:2;stroke-miterlimit:4"
       d="M 63.892578,118.00735 C 65.21418,118.28991 66.246406,118.8778 66.989258,119.77102 C 67.732081,120.66426 68.1035,121.76712 68.103516,123.07962 C 68.1035,125.09394 67.410792,126.65254 66.025391,127.7554 C 64.639962,128.85826 62.671214,129.4097 60.119141,129.4097 C 59.262363,129.4097 58.380528,129.32539 57.473633,129.15677 C 56.566728,128.98815 55.630205,128.73522 54.664063,128.39798 L 54.664063,125.73196 C 55.429685,126.17858 56.268225,126.51582 57.179688,126.74368 C 58.09114,126.97155 59.043613,127.08548 60.037109,127.08548 C 61.768871,127.08548 63.088206,126.74368 63.995117,126.06009 C 64.902006,125.3765 65.355456,124.38301 65.355469,123.07962 C 65.355456,121.8765 64.933907,120.93542 64.09082,120.25638 C 63.247711,119.57735 62.074209,119.23783 60.570313,119.23782 L 58.191406,119.23782 L 58.191406,116.96829 L 60.679688,116.96829 C 62.037751,116.9683 63.076812,116.69714 63.796875,116.15481 C 64.516915,115.61251 64.876941,114.83093 64.876953,113.81009 C 64.876941,112.76193 64.505522,111.95756 63.762695,111.397 C 63.019846,110.83647 61.95572,110.5562 60.570313,110.55618 C 59.813795,110.5562 59.002598,110.63823 58.136719,110.80227 C 57.270829,110.96635 56.318356,111.22156 55.279297,111.5679 L 55.279297,109.10696 C 56.32747,108.81531 57.309566,108.59657 58.225586,108.45071 C 59.141595,108.3049 60.005201,108.23198 60.816406,108.23196 C 62.91275,108.23198 64.571603,108.70822 65.792969,109.66067 C 67.014308,110.61316 67.624985,111.9006 67.625,113.52298 C 67.624985,114.6532 67.301418,115.60795 66.654297,116.38723 C 66.007148,117.16654 65.086576,117.70658 63.892578,118.00735 L 63.892578,118.00735 z "
       id="flowRoot2880" />
    <path
       style="fill:white;fill-opacity:1;stroke:black;stroke-width:2;stroke-miterlimit:4;stroke-opacity:1"
       d="M 211.84613,187.86955 L 251.84613,187.86955 L 251.84613,227.86955 L 211.84613,227.86955 L 211.84613,187.86955 z "
       id="rect2890" />
    <path
       style="fill:white;fill-opacity:1;stroke:black;stroke-width:2;stroke-miterlimit:4;stroke-opacity:1"
       d="M 51.846165,227.8696 L 91.846165,227.8696 L 91.846165,267.8696 L 51.846165,267.8696 L 51.846165,227.8696 z "
       id="rect2902" />
    <path
       transform="translate(10.55121,128.8642)"
       style="font-size:28px;stroke-width:2;stroke-miterlimit:4"
       d="M 61.431641,119.31985 C 60.119133,119.31986 59.086908,119.67077 58.334961,120.37259 C 57.583003,121.07442 57.207027,122.04056 57.207031,123.27102 C 57.207027,124.5015 57.583003,125.46764 58.334961,126.16946 C 59.086908,126.87129 60.119133,127.2222 61.431641,127.2222 C 62.74413,127.2222 63.778635,126.86901 64.535156,126.16263 C 65.291654,125.45625 65.669909,124.49238 65.669922,123.27102 C 65.669909,122.04056 65.293933,121.07442 64.541992,120.37259 C 63.790028,119.67077 62.753245,119.31986 61.431641,119.31985 L 61.431641,119.31985 z M 58.669922,118.14407 C 57.485021,117.85242 56.56217,117.30098 55.901367,116.48977 C 55.240557,115.67859 54.910154,114.68966 54.910156,113.52298 C 54.910154,111.89148 55.491208,110.60177 56.65332,109.65384 C 57.815424,108.70594 59.408196,108.23198 61.431641,108.23196 C 63.464182,108.23198 65.059232,108.70594 66.216797,109.65384 C 67.374334,110.60177 67.95311,111.89148 67.953125,113.52298 C 67.95311,114.68966 67.622706,115.67859 66.961914,116.48977 C 66.301093,117.30098 65.3828,117.85242 64.207031,118.14407 C 65.537747,118.45398 66.57453,119.0601 67.317383,119.96243 C 68.060206,120.86478 68.431625,121.96765 68.431641,123.27102 C 68.431625,125.24889 67.827784,126.76647 66.620117,127.82376 C 65.412422,128.88105 63.682932,129.4097 61.431641,129.4097 C 59.180332,129.4097 57.450841,128.88105 56.243164,127.82376 C 55.035479,126.76647 54.431639,125.24889 54.431641,123.27102 C 54.431639,121.96765 54.805336,120.86478 55.552734,119.96243 C 56.300126,119.0601 57.339188,118.45398 58.669922,118.14407 L 58.669922,118.14407 z M 57.658203,113.78274 C 57.658198,114.84005 57.988601,115.66492 58.649414,116.25735 C 59.310215,116.84981 60.237623,117.14604 61.431641,117.14602 C 62.616526,117.14604 63.543934,116.84981 64.213867,116.25735 C 64.883777,115.66492 65.218737,114.84005 65.21875,113.78274 C 65.218737,112.72547 64.883777,111.9006 64.213867,111.30813 C 63.543934,110.7157 62.616526,110.41948 61.431641,110.41946 C 60.237623,110.41948 59.310215,110.7157 58.649414,111.30813 C 57.988601,111.9006 57.658198,112.72547 57.658203,113.78274 L 57.658203,113.78274 z "
       id="flowRoot2904" />
    <path
       style="fill:white;fill-opacity:1;stroke:black;stroke-width:2;stroke-miterlimit:4;stroke-opacity:1"
       d="M 371.84619,267.8696 L 411.84619,267.8696 L 411.84619,307.8696 L 371.84619,307.8696 L 371.84619,267.8696 z "
       id="rect2914" />
    <path
       transform="translate(330.5512,168.8642)"
       style="font-size:28px;stroke-width:2;stroke-miterlimit:4"
       d="M 56.003906,126.68899 L 60.515625,126.68899 L 60.515625,111.11673 L 55.607422,112.1011 L 55.607422,109.58548 L 60.488281,108.6011 L 63.25,108.6011 L 63.25,126.68899 L 67.761719,126.68899 L 67.761719,129.01321 L 56.003906,129.01321 L 56.003906,126.68899 z "
       id="flowRoot2916" />
    <path
       style="fill:white;fill-opacity:1;stroke:black;stroke-width:2;stroke-miterlimit:4;stroke-opacity:1"
       d="M 371.84613,187.86955 L 411.84613,187.86955 L 411.84613,227.86955 L 371.84613,227.86955 L 371.84613,187.86955 z "
       id="rect2926" />
    <path
       style="fill:white;fill-opacity:1;stroke:black;stroke-width:2;stroke-miterlimit:4;stroke-opacity:1"
       d="M 331.84619,187.86955 L 371.84619,187.86955 L 371.84619,227.86955 L 331.84619,227.86955 L 331.84619,187.86955 z "
       id="rect2938" />
    <path
       transform="translate(290.5512,88.86416)"
       style="font-size:28px;stroke-width:2;stroke-miterlimit:4"
       d="M 61.773438,117.70657 C 60.533846,117.70658 59.551751,118.13041 58.827148,118.97806 C 58.102533,119.82572 57.740229,120.98783 57.740234,122.46438 C 57.740229,123.93184 58.102533,125.09167 58.827148,125.94388 C 59.551751,126.79609 60.533846,127.2222 61.773438,127.2222 C 63.01301,127.2222 63.995106,126.79609 64.719727,125.94388 C 65.444323,125.09167 65.806627,123.93184 65.806641,122.46438 C 65.806627,120.98783 65.444323,119.82572 64.719727,118.97806 C 63.995106,118.13041 63.01301,117.70658 61.773438,117.70657 L 61.773438,117.70657 z M 67.255859,109.05227 L 67.255859,111.5679 C 66.563137,111.23979 65.863593,110.98914 65.157227,110.81595 C 64.450834,110.64279 63.751291,110.5562 63.058594,110.55618 C 61.235668,110.5562 59.843417,111.17143 58.881836,112.40188 C 57.920242,113.63237 57.371089,115.49174 57.234375,117.98001 C 57.77213,117.18705 58.446609,116.57865 59.257813,116.15481 C 60.069003,115.731 60.962231,115.51908 61.9375,115.51907 C 63.98827,115.51908 65.608385,116.14115 66.797852,117.38528 C 67.987289,118.62943 68.582015,120.32246 68.582031,122.46438 C 68.582015,124.56074 67.962224,126.24238 66.722656,127.50931 C 65.48306,128.77623 63.833322,129.4097 61.773438,129.4097 C 59.412754,129.4097 57.608068,128.50507 56.359375,126.69583 C 55.110675,124.88659 54.486326,122.26387 54.486328,118.82766 C 54.486326,115.60112 55.25195,113.02853 56.783203,111.10989 C 58.314447,109.19129 60.369784,108.23198 62.949219,108.23196 C 63.641916,108.23198 64.34146,108.30034 65.047852,108.43704 C 65.754219,108.57378 66.49022,108.77886 67.255859,109.05227 L 67.255859,109.05227 z "
       id="flowRoot2940" />
    <path
       style="fill:white;fill-opacity:1;stroke:black;stroke-width:2;stroke-miterlimit:4;stroke-opacity:1"
       d="M 91.846161,307.8696 L 131.84616,307.8696 L 131.84616,347.8696 L 91.846161,347.8696 L 91.846161,307.8696 z "
       id="rect2950" />
    <path
       style="fill:white;fill-opacity:1;stroke:black;stroke-width:2;stroke-miterlimit:4;stroke-opacity:1"
       d="M 91.846161,147.86955 L 131.84616,147.86955 L 131.84616,187.86955 L 91.846161,187.86955 L 91.846161,147.86955 z "
       id="rect2962" />
    <path
       style="fill:white;fill-opacity:1;stroke:black;stroke-width:2;stroke-miterlimit:4;stroke-opacity:1"
       d="M 291.84619,187.86955 L 331.84619,187.86955 L 331.84619,227.86955 L 291.84619,227.86955 L 291.84619,187.86955 z "
       id="rect2974" />
    <path
       style="fill:white;fill-opacity:1;stroke:black;stroke-width:2;stroke-miterlimit:4;stroke-opacity:1"
       d="M 171.84616,187.86955 L 211.84616,187.86955 L 211.84616,227.86955 L 171.84616,227.86955 L 171.84616,187.86955 z "
       id="rect2986" />
    <path
       style="fill:white;fill-opacity:1;stroke:black;stroke-width:2;stroke-miterlimit:4;stroke-opacity:1"
       d="M 331.84613,267.86957 L 371.84613,267.86957 L 371.84613,307.86957 L 331.84613,307.86957 L 331.84613,267.86957 z "
       id="rect2998" />
    <path
       style="fill:white;fill-opacity:1;stroke:black;stroke-width:2;stroke-miterlimit:4;stroke-opacity:1"
       d="M 51.846165,307.8696 L 91.846165,307.8696 L 91.846165,347.8696 L 51.846165,347.8696 L 51.846165,307.8696 z "
       id="rect3010" />
    <path
       transform="translate(10.55121,208.8642)"
       style="font-size:28px;stroke-width:2;stroke-miterlimit:4"
       d="M 54.828125,108.6011 L 67.953125,108.6011 L 67.953125,109.77688 L 60.542969,129.01321 L 57.658203,129.01321 L 64.630859,110.92532 L 54.828125,110.92532 L 54.828125,108.6011 z "
       id="flowRoot3012" />
    <path
       style="fill:white;fill-opacity:1;stroke:black;stroke-width:2;stroke-miterlimit:4;stroke-opacity:1"
       d="M 51.846165,387.8696 L 91.846165,387.8696 L 91.846165,427.8696 L 51.846165,427.8696 L 51.846165,387.8696 z "
       id="rect3022" />
    <path
       style="fill:white;fill-opacity:1;stroke:black;stroke-width:2;stroke-miterlimit:4;stroke-opacity:1"
       d="M 91.846161,387.86957 L 131.84616,387.86957 L 131.84616,427.86957 L 91.846161,427.86957 L 91.846161,387.86957 z "
       id="rect3034" />
    <path
       style="fill:white;fill-opacity:1;stroke:black;stroke-width:2;stroke-miterlimit:4;stroke-opacity:1"
       d="M 371.84619,347.8696 L 411.84619,347.8696 L 411.84619,387.8696 L 371.84619,387.8696 L 371.84619,347.8696 z "
       id="rect3046" />
    <path
       style="fill:white;fill-opacity:1;stroke:black;stroke-width:2;stroke-miterlimit:4;stroke-opacity:1"
       d="M 171.84616,387.8696 L 211.84616,387.8696 L 211.84616,427.8696 L 171.84616,427.8696 L 171.84616,387.8696 z "
       id="rect3058" />
    <path
       transform="translate(130.5512,288.8642)"
       style="font-size:28px;stroke-width:2;stroke-miterlimit:4"
       d="M 63.113281,111.00735 L 56.140625,121.90384 L 63.113281,121.90384 L 63.113281,111.00735 z M 62.388672,108.6011 L 65.861328,108.6011 L 65.861328,121.90384 L 68.773438,121.90384 L 68.773438,124.20071 L 65.861328,124.20071 L 65.861328,129.01321 L 63.113281,129.01321 L 63.113281,124.20071 L 53.898438,124.20071 L 53.898438,121.5347 L 62.388672,108.6011 z "
       id="flowRoot3060" />
    <path
       style="fill:white;fill-opacity:1;stroke:black;stroke-width:2;stroke-miterlimit:4;stroke-opacity:1"
       d="M 291.84613,267.86957 L 331.84613,267.86957 L 331.84613,307.86957 L 291.84613,307.86957 L 291.84613,267.86957 z "
       id="rect3070" />
    <path
       style="fill:white;fill-opacity:1;stroke:black;stroke-width:2;stroke-miterlimit:4;stroke-opacity:1"
       d="M 331.84619,347.8696 L 371.84619,347.8696 L 371.84619,387.8696 L 331.84619,387.8696 L 331.84619,347.8696 z "
       id="rect3082" />
    <path
       transform="translate(290.5512,248.8642)"
       style="font-size:28px;stroke-width:2;stroke-miterlimit:4"
       d="M 61.431641,119.31985 C 60.119133,119.31986 59.086908,119.67077 58.334961,120.37259 C 57.583003,121.07442 57.207027,122.04056 57.207031,123.27102 C 57.207027,124.5015 57.583003,125.46764 58.334961,126.16946 C 59.086908,126.87129 60.119133,127.2222 61.431641,127.2222 C 62.74413,127.2222 63.778635,126.86901 64.535156,126.16263 C 65.291654,125.45625 65.669909,124.49238 65.669922,123.27102 C 65.669909,122.04056 65.293933,121.07442 64.541992,120.37259 C 63.790028,119.67077 62.753245,119.31986 61.431641,119.31985 L 61.431641,119.31985 z M 58.669922,118.14407 C 57.485021,117.85242 56.56217,117.30098 55.901367,116.48977 C 55.240557,115.67859 54.910154,114.68966 54.910156,113.52298 C 54.910154,111.89148 55.491208,110.60177 56.65332,109.65384 C 57.815424,108.70594 59.408196,108.23198 61.431641,108.23196 C 63.464182,108.23198 65.059232,108.70594 66.216797,109.65384 C 67.374334,110.60177 67.95311,111.89148 67.953125,113.52298 C 67.95311,114.68966 67.622706,115.67859 66.961914,116.48977 C 66.301093,117.30098 65.3828,117.85242 64.207031,118.14407 C 65.537747,118.45398 66.57453,119.0601 67.317383,119.96243 C 68.060206,120.86478 68.431625,121.96765 68.431641,123.27102 C 68.431625,125.24889 67.827784,126.76647 66.620117,127.82376 C 65.412422,128.88105 63.682932,129.4097 61.431641,129.4097 C 59.180332,129.4097 57.450841,128.88105 56.243164,127.82376 C 55.035479,126.76647 54.431639,125.24889 54.431641,123.27102 C 54.431639,121.96765 54.805336,120.86478 55.552734,119.96243 C 56.300126,119.0601 57.339188,118.45398 58.669922,118.14407 L 58.669922,118.14407 z M 57.658203,113.78274 C 57.658198,114.84005 57.988601,115.66492 58.649414,116.25735 C 59.310215,116.84981 60.237623,117.14604 61.431641,117.14602 C 62.616526,117.14604 63.543934,116.84981 64.213867,116.25735 C 64.883777,115.66492 65.218737,114.84005 65.21875,113.78274 C 65.218737,112.72547 64.883777,111.9006 64.213867,111.30813 C 63.543934,110.7157 62.616526,110.41948 61.431641,110.41946 C 60.237623,110.41948 59.310215,110.7157 58.649414,111.30813 C 57.988601,111.9006 57.658198,112.72547 57.658203,113.78274 L 57.658203,113.78274 z "
       id="flowRoot3084" />
    <path
       style="fill:white;fill-opacity:1;stroke:black;stroke-width:2;stroke-miterlimit:4;stroke-opacity:1"
       d="M 251.84619,267.8696 L 291.84619,267.8696 L 291.84619,307.8696 L 251.84619,307.8696 L 251.84619,267.8696 z "
       id="rect3094" />
    <path
       transform="translate(210.5512,168.8642)"
       style="font-size:28px;stroke-width:2;stroke-miterlimit:4"
       d="M 63.892578,118.00735 C 65.21418,118.28991 66.246406,118.8778 66.989258,119.77102 C 67.732081,120.66426 68.1035,121.76712 68.103516,123.07962 C 68.1035,125.09394 67.410792,126.65254 66.025391,127.7554 C 64.639962,128.85826 62.671214,129.4097 60.119141,129.4097 C 59.262363,129.4097 58.380528,129.32539 57.473633,129.15677 C 56.566728,128.98815 55.630205,128.73522 54.664063,128.39798 L 54.664063,125.73196 C 55.429685,126.17858 56.268225,126.51582 57.179688,126.74368 C 58.09114,126.97155 59.043613,127.08548 60.037109,127.08548 C 61.768871,127.08548 63.088206,126.74368 63.995117,126.06009 C 64.902006,125.3765 65.355456,124.38301 65.355469,123.07962 C 65.355456,121.8765 64.933907,120.93542 64.09082,120.25638 C 63.247711,119.57735 62.074209,119.23783 60.570313,119.23782 L 58.191406,119.23782 L 58.191406,116.96829 L 60.679688,116.96829 C 62.037751,116.9683 63.076812,116.69714 63.796875,116.15481 C 64.516915,115.61251 64.876941,114.83093 64.876953,113.81009 C 64.876941,112.76193 64.505522,111.95756 63.762695,111.397 C 63.019846,110.83647 61.95572,110.5562 60.570313,110.55618 C 59.813795,110.5562 59.002598,110.63823 58.136719,110.80227 C 57.270829,110.96635 56.318356,111.22156 55.279297,111.5679 L 55.279297,109.10696 C 56.32747,108.81531 57.309566,108.59657 58.225586,108.45071 C 59.141595,108.3049 60.005201,108.23198 60.816406,108.23196 C 62.91275,108.23198 64.571603,108.70822 65.792969,109.66067 C 67.014308,110.61316 67.624985,111.9006 67.625,113.52298 C 67.624985,114.6532 67.301418,115.60795 66.654297,116.38723 C 66.007148,117.16654 65.086576,117.70658 63.892578,118.00735 L 63.892578,118.00735 z "
       id="flowRoot3096" />
    <path
       style="fill:white;fill-opacity:1;stroke:black;stroke-width:2;stroke-miterlimit:4;stroke-opacity:1"
       d="M 251.84613,107.86955 L 291.84613,107.86955 L 291.84613,147.86955 L 251.84613,147.86955 L 251.84613,107.86955 z "
       id="rect3106" />
    <path
       style="fill:white;fill-opacity:1;stroke:black;stroke-width:2;stroke-miterlimit:4;stroke-opacity:1"
       d="M 291.84619,107.86955 L 331.84619,107.86955 L 331.84619,147.86955 L 291.84619,147.86955 L 291.84619,107.86955 z "
       id="rect3118" />
    <path
       style="fill:white;fill-opacity:1;stroke:black;stroke-width:2;stroke-miterlimit:4;stroke-opacity:1"
       d="M 211.84619,227.8696 L 251.84619,227.8696 L 251.84619,267.8696 L 211.84619,267.8696 L 211.84619,227.8696 z "
       id="rect3130" />
    <path
       transform="translate(170.5512,128.8642)"
       style="font-size:28px;stroke-width:2;stroke-miterlimit:4"
       d="M 61.773438,117.70657 C 60.533846,117.70658 59.551751,118.13041 58.827148,118.97806 C 58.102533,119.82572 57.740229,120.98783 57.740234,122.46438 C 57.740229,123.93184 58.102533,125.09167 58.827148,125.94388 C 59.551751,126.79609 60.533846,127.2222 61.773438,127.2222 C 63.01301,127.2222 63.995106,126.79609 64.719727,125.94388 C 65.444323,125.09167 65.806627,123.93184 65.806641,122.46438 C 65.806627,120.98783 65.444323,119.82572 64.719727,118.97806 C 63.995106,118.13041 63.01301,117.70658 61.773438,117.70657 L 61.773438,117.70657 z M 67.255859,109.05227 L 67.255859,111.5679 C 66.563137,111.23979 65.863593,110.98914 65.157227,110.81595 C 64.450834,110.64279 63.751291,110.5562 63.058594,110.55618 C 61.235668,110.5562 59.843417,111.17143 58.881836,112.40188 C 57.920242,113.63237 57.371089,115.49174 57.234375,117.98001 C 57.77213,117.18705 58.446609,116.57865 59.257813,116.15481 C 60.069003,115.731 60.962231,115.51908 61.9375,115.51907 C 63.98827,115.51908 65.608385,116.14115 66.797852,117.38528 C 67.987289,118.62943 68.582015,120.32246 68.582031,122.46438 C 68.582015,124.56074 67.962224,126.24238 66.722656,127.50931 C 65.48306,128.77623 63.833322,129.4097 61.773438,129.4097 C 59.412754,129.4097 57.608068,128.50507 56.359375,126.69583 C 55.110675,124.88659 54.486326,122.26387 54.486328,118.82766 C 54.486326,115.60112 55.25195,113.02853 56.783203,111.10989 C 58.314447,109.19129 60.369784,108.23198 62.949219,108.23196 C 63.641916,108.23198 64.34146,108.30034 65.047852,108.43704 C 65.754219,108.57378 66.49022,108.77886 67.255859,109.05227 L 67.255859,109.05227 z "
       id="flowRoot3132" />
    <path
       style="fill:white;fill-opacity:1;stroke:black;stroke-width:2;stroke-miterlimit:4;stroke-opacity:1"
       d="M 371.84613,147.86955 L 411.84613,147.86955 L 411.84613,187.86955 L 371.84613,187.86955 L 371.84613,147.86955 z "
       id="rect3142" />
    <path
       style="fill:white;fill-opacity:1;stroke:black;stroke-width:2;stroke-miterlimit:4;stroke-opacity:1"
       d="M 331.84619,147.86955 L 371.84619,147.86955 L 371.84619,187.86955 L 331.84619,187.86955 L 331.84619,147.86955 z "
       id="rect3154" />
    <path
       style="fill:white;fill-opacity:1;stroke:black;stroke-width:2;stroke-miterlimit:4;stroke-opacity:1"
       d="M 291.84619,227.8696 L 331.84619,227.8696 L 331.84619,267.8696 L 291.84619,267.8696 L 291.84619,227.8696 z "
       id="rect3166" />
    <path
       style="fill:white;fill-opacity:1;stroke:black;stroke-width:2;stroke-miterlimit:4;stroke-opacity:1"
       d="M 211.84613,107.86955 L 251.84613,107.86955 L 251.84613,147.86955 L 211.84613,147.86955 L 211.84613,107.86955 z "
       id="rect3178" />
    <path
       transform="translate(170.5512,8.864154)"
       style="font-size:28px;stroke-width:2;stroke-miterlimit:4"
       d="M 54.828125,108.6011 L 67.953125,108.6011 L 67.953125,109.77688 L 60.542969,129.01321 L 57.658203,129.01321 L 64.630859,110.92532 L 54.828125,110.92532 L 54.828125,108.6011 z "
       id="flowRoot3180" />
    <path
       style="fill:white;fill-opacity:1;stroke:black;stroke-width:2;stroke-miterlimit:4;stroke-opacity:1"
       d="M 131.84616,227.8696 L 171.84616,227.8696 L 171.84616,267.8696 L 131.84616,267.8696 L 131.84616,227.8696 z "
       id="rect3190" />
    <path
       style="fill:white;fill-opacity:1;stroke:black;stroke-width:2;stroke-miterlimit:4;stroke-opacity:1"
       d="M 291.84619,147.86955 L 331.84619,147.86955 L 331.84619,187.86955 L 291.84619,187.86955 L 291.84619,147.86955 z "
       id="rect3202" />
    <path
       style="fill:white;fill-opacity:1;stroke:black;stroke-width:2;stroke-miterlimit:4;stroke-opacity:1"
       d="M 171.84613,227.86955 L 211.84613,227.86955 L 211.84613,267.86955 L 171.84613,267.86955 L 171.84613,227.86955 z "
       id="rect3214" />
    <path
       style="fill:white;fill-opacity:1;stroke:black;stroke-width:2;stroke-miterlimit:4;stroke-opacity:1"
       d="M 251.84619,227.8696 L 291.84619,227.8696 L 291.84619,267.8696 L 251.84619,267.8696 L 251.84619,227.8696 z "
       id="rect3226" />
    <path
       style="fill:white;fill-opacity:1;stroke:black;stroke-width:2;stroke-miterlimit:4;stroke-opacity:1"
       d="M 371.84619,307.8696 L 411.84619,307.8696 L 411.84619,347.8696 L 371.84619,347.8696 L 371.84619,307.8696 z "
       id="rect3238" />
    <path
       transform="translate(330.5512,208.8642)"
       style="font-size:28px;stroke-width:2;stroke-miterlimit:4"
       d="M 61.773438,117.70657 C 60.533846,117.70658 59.551751,118.13041 58.827148,118.97806 C 58.102533,119.82572 57.740229,120.98783 57.740234,122.46438 C 57.740229,123.93184 58.102533,125.09167 58.827148,125.94388 C 59.551751,126.79609 60.533846,127.2222 61.773438,127.2222 C 63.01301,127.2222 63.995106,126.79609 64.719727,125.94388 C 65.444323,125.09167 65.806627,123.93184 65.806641,122.46438 C 65.806627,120.98783 65.444323,119.82572 64.719727,118.97806 C 63.995106,118.13041 63.01301,117.70658 61.773438,117.70657 L 61.773438,117.70657 z M 67.255859,109.05227 L 67.255859,111.5679 C 66.563137,111.23979 65.863593,110.98914 65.157227,110.81595 C 64.450834,110.64279 63.751291,110.5562 63.058594,110.55618 C 61.235668,110.5562 59.843417,111.17143 58.881836,112.40188 C 57.920242,113.63237 57.371089,115.49174 57.234375,117.98001 C 57.77213,117.18705 58.446609,116.57865 59.257813,116.15481 C 60.069003,115.731 60.962231,115.51908 61.9375,115.51907 C 63.98827,115.51908 65.608385,116.14115 66.797852,117.38528 C 67.987289,118.62943 68.582015,120.32246 68.582031,122.46438 C 68.582015,124.56074 67.962224,126.24238 66.722656,127.50931 C 65.48306,128.77623 63.833322,129.4097 61.773438,129.4097 C 59.412754,129.4097 57.608068,128.50507 56.359375,126.69583 C 55.110675,124.88659 54.486326,122.26387 54.486328,118.82766 C 54.486326,115.60112 55.25195,113.02853 56.783203,111.10989 C 58.314447,109.19129 60.369784,108.23198 62.949219,108.23196 C 63.641916,108.23198 64.34146,108.30034 65.047852,108.43704 C 65.754219,108.57378 66.49022,108.77886 67.255859,109.05227 L 67.255859,109.05227 z "
       id="flowRoot3240" />
    <path
       style="fill:white;fill-opacity:1;stroke:black;stroke-width:2;stroke-miterlimit:4;stroke-opacity:1"
       d="M 211.84613,307.86957 L 251.84613,307.86957 L 251.84613,347.86957 L 211.84613,347.86957 L 211.84613,307.86957 z "
       id="rect3250" />
    <path
       transform="translate(170.5512,208.8642)"
       style="font-size:28px;stroke-width:2;stroke-miterlimit:4"
       d="M 57.904297,126.68899 L 67.542969,126.68899 L 67.542969,129.01321 L 54.582031,129.01321 L 54.582031,126.68899 C 55.630205,125.60436 57.058915,124.14831 58.868164,122.32083 C 60.677401,120.49336 61.814444,119.3153 62.279297,118.78665 C 63.163401,117.79317 63.780913,116.95235 64.131836,116.26419 C 64.482735,115.57605 64.658191,114.89929 64.658203,114.23391 C 64.658191,113.14929 64.277658,112.26518 63.516602,111.58157 C 62.755524,110.898 61.764314,110.5562 60.542969,110.55618 C 59.677076,110.5562 58.76334,110.70659 57.801758,111.00735 C 56.840165,111.30815 55.812497,111.76388 54.71875,112.37454 L 54.71875,109.58548 C 55.830726,109.13888 56.869787,108.80164 57.835938,108.57376 C 58.802077,108.34591 59.686191,108.23198 60.488281,108.23196 C 62.602855,108.23198 64.289051,108.76063 65.546875,109.8179 C 66.804673,110.87521 67.433579,112.28797 67.433594,114.05618 C 67.433579,114.89474 67.276352,115.68998 66.961914,116.44192 C 66.647447,117.19389 66.075507,118.08028 65.246094,119.1011 C 65.018217,119.36543 64.293608,120.12878 63.072266,121.39114 C 61.850902,122.65352 60.128248,124.41947 57.904297,126.68899 L 57.904297,126.68899 z "
       id="flowRoot3252" />
    <path
       style="fill:white;fill-opacity:1;stroke:black;stroke-width:2;stroke-miterlimit:4;stroke-opacity:1"
       d="M 171.84616,307.8696 L 211.84616,307.8696 L 211.84616,347.8696 L 171.84616,347.8696 L 171.84616,307.8696 z "
       id="rect3262" />
    <path
       style="fill:white;fill-opacity:1;stroke:black;stroke-width:2;stroke-miterlimit:4;stroke-opacity:1"
       d="M 51.846165,347.8696 L 91.846165,347.8696 L 91.846165,387.8696 L 51.846165,387.8696 L 51.846165,347.8696 z "
       id="rect3274" />
    <path
       style="fill:white;fill-opacity:1;stroke:black;stroke-width:2;stroke-miterlimit:4;stroke-opacity:1"
       d="M 91.846161,227.86955 L 131.84616,227.86955 L 131.84616,267.86955 L 91.846161,267.86955 L 91.846161,227.86955 z "
       id="rect3286" />
    <path
       style="fill:white;fill-opacity:1;stroke:black;stroke-width:2;stroke-miterlimit:4;stroke-opacity:1"
       d="M 331.84619,307.8696 L 371.84619,307.8696 L 371.84619,347.8696 L 331.84619,347.8696 L 331.84619,307.8696 z "
       id="rect3298" />
    <path
       style="fill:white;fill-opacity:1;stroke:black;stroke-width:2;stroke-miterlimit:4;stroke-opacity:1"
       d="M 131.84616,307.8696 L 171.84616,307.8696 L 171.84616,347.8696 L 131.84616,347.8696 L 131.84616,307.8696 z "
       id="rect3310" />
    <path
       style="fill:white;fill-opacity:1;stroke:black;stroke-width:2;stroke-miterlimit:4;stroke-opacity:1"
       d="M 131.84616,387.86957 L 171.84616,387.86957 L 171.84616,427.86957 L 131.84616,427.86957 L 131.84616,387.86957 z "
       id="rect3322" />
    <path
       style="fill:white;fill-opacity:1;stroke:black;stroke-width:2;stroke-miterlimit:4;stroke-opacity:1"
       d="M 51.846165,427.8696 L 91.846165,427.8696 L 91.846165,467.8696 L 51.846165,467.8696 L 51.846165,427.8696 z "
       id="rect3334" />
    <path
       style="fill:white;fill-opacity:1;stroke:black;stroke-width:2;stroke-miterlimit:4;stroke-opacity:1"
       d="M 331.84619,387.8696 L 371.84619,387.8696 L 371.84619,427.8696 L 331.84619,427.8696 L 331.84619,387.8696 z "
       id="rect3346" />
    <path
       style="fill:white;fill-opacity:1;stroke:black;stroke-width:2;stroke-miterlimit:4;stroke-opacity:1"
       d="M 371.84613,387.86957 L 411.84613,387.86957 L 411.84613,427.86957 L 371.84613,427.86957 L 371.84613,387.86957 z "
       id="rect3358" />
    <path
       transform="translate(330.5512,288.8642)"
       style="font-size:28px;stroke-width:2;stroke-miterlimit:4"
       d="M 55.552734,108.6011 L 66.394531,108.6011 L 66.394531,110.92532 L 58.082031,110.92532 L 58.082031,115.92923 C 58.483067,115.79252 58.884108,115.68998 59.285156,115.62161 C 59.686191,115.55326 60.087232,115.51908 60.488281,115.51907 C 62.766917,115.51908 64.571603,116.14343 65.902344,117.39212 C 67.233058,118.64083 67.898422,120.33158 67.898438,122.46438 C 67.898422,124.661 67.214829,126.36771 65.847656,127.5845 C 64.480457,128.8013 62.552724,129.4097 60.064453,129.4097 C 59.207676,129.4097 58.334955,129.33678 57.446289,129.19095 C 56.557613,129.04511 55.63932,128.82636 54.691406,128.5347 L 54.691406,125.75931 C 55.511716,126.20592 56.359371,126.5386 57.234375,126.75735 C 58.109369,126.9761 59.034499,127.08548 60.009766,127.08548 C 61.586579,127.08548 62.835276,126.67077 63.755859,125.84134 C 64.67642,125.01191 65.136706,123.88626 65.136719,122.46438 C 65.136706,121.04252 64.67642,119.91687 63.755859,119.08743 C 62.835276,118.25801 61.586579,117.8433 60.009766,117.84329 C 59.271478,117.8433 58.535476,117.92533 57.801758,118.08938 C 57.068029,118.25346 56.318356,118.50866 55.552734,118.85501 L 55.552734,108.6011 z "
       id="flowRoot3360" />
    <path
       style="fill:white;fill-opacity:1;stroke:black;stroke-width:2;stroke-miterlimit:4;stroke-opacity:1"
       d="M 291.84619,387.8696 L 331.84619,387.8696 L 331.84619,427.8696 L 291.84619,427.8696 L 291.84619,387.8696 z "
       id="rect3370" />
    <path
       style="fill:white;fill-opacity:1;stroke:black;stroke-width:2;stroke-miterlimit:4;stroke-opacity:1"
       d="M 91.846161,427.8696 L 131.84616,427.8696 L 131.84616,467.8696 L 91.846161,467.8696 L 91.846161,427.8696 z "
       id="rect3382" />
    <path
       style="fill:white;fill-opacity:1;stroke:black;stroke-width:2;stroke-miterlimit:4;stroke-opacity:1"
       d="M 291.84613,307.86957 L 331.84613,307.86957 L 331.84613,347.86957 L 291.84613,347.86957 L 291.84613,307.86957 z "
       id="rect3394" />
    <path
       style="fill:white;fill-opacity:1;stroke:black;stroke-width:2;stroke-miterlimit:4;stroke-opacity:1"
       d="M 251.84619,387.8696 L 291.84619,387.8696 L 291.84619,427.8696 L 251.84619,427.8696 L 251.84619,387.8696 z "
       id="rect3406" />
    <path
       transform="translate(210.5512,288.8642)"
       style="font-size:28px;stroke-width:2;stroke-miterlimit:4"
       d="M 55.607422,128.58938 L 55.607422,126.07376 C 56.300126,126.40189 57.001949,126.65254 57.712891,126.82571 C 58.423822,126.99889 59.121087,127.08548 59.804688,127.08548 C 61.627595,127.08548 63.019846,126.47252 63.981445,125.24661 C 64.943021,124.0207 65.492175,122.15905 65.628906,119.66165 C 65.100248,120.44551 64.430327,121.04707 63.619141,121.46634 C 62.807932,121.88561 61.910147,122.09525 60.925781,122.09524 C 58.884108,122.09525 57.26855,121.47774 56.079102,120.2427 C 54.889646,119.00769 54.29492,117.31921 54.294922,115.17727 C 54.29492,113.08094 54.914711,111.3993 56.154297,110.13235 C 57.393875,108.86545 59.043613,108.23198 61.103516,108.23196 C 63.464182,108.23198 65.266589,109.1366 66.510742,110.94583 C 67.754868,112.75509 68.376937,115.38237 68.376953,118.82766 C 68.376937,122.04512 67.613592,124.61315 66.086914,126.53177 C 64.560209,128.45039 62.507151,129.4097 59.927734,129.4097 C 59.235019,129.4097 58.533197,129.34134 57.822266,129.20462 C 57.111324,129.0679 56.373043,128.86282 55.607422,128.58938 L 55.607422,128.58938 z M 61.103516,119.93509 C 62.343089,119.9351 63.325185,119.51127 64.049805,118.6636 C 64.774402,117.81596 65.136706,116.65385 65.136719,115.17727 C 65.136706,113.70984 64.774402,112.55001 64.049805,111.69778 C 63.325185,110.84559 62.343089,110.41948 61.103516,110.41946 C 59.863925,110.41948 58.88183,110.84559 58.157227,111.69778 C 57.432612,112.55001 57.070308,113.70984 57.070313,115.17727 C 57.070308,116.65385 57.432612,117.81596 58.157227,118.6636 C 58.88183,119.51127 59.863925,119.9351 61.103516,119.93509 L 61.103516,119.93509 z "
       id="flowRoot3408" />
    <path
       style="fill:white;fill-opacity:1;stroke:black;stroke-width:2;stroke-miterlimit:4;stroke-opacity:1"
       d="M 211.84619,387.8696 L 251.84619,387.8696 L 251.84619,427.8696 L 211.84619,427.8696 L 211.84619,387.8696 z "
       id="rect3418" />
    <path
       transform="translate(170.5512,288.8642)"
       style="font-size:28px;stroke-width:2;stroke-miterlimit:4"
       d="M 56.003906,126.68899 L 60.515625,126.68899 L 60.515625,111.11673 L 55.607422,112.1011 L 55.607422,109.58548 L 60.488281,108.6011 L 63.25,108.6011 L 63.25,126.68899 L 67.761719,126.68899 L 67.761719,129.01321 L 56.003906,129.01321 L 56.003906,126.68899 z "
       id="flowRoot3420" />
    <path
       style="fill:white;fill-opacity:1;stroke:black;stroke-width:2;stroke-miterlimit:4;stroke-opacity:1"
       d="M 371.84613,107.86955 L 411.84613,107.86955 L 411.84613,147.86955 L 371.84613,147.86955 L 371.84613,107.86955 z "
       id="rect3430" />
    <path
       style="fill:white;fill-opacity:1;stroke:black;stroke-width:2;stroke-miterlimit:4;stroke-opacity:1"
       d="M 51.846165,147.86955 L 91.846165,147.86955 L 91.846165,187.86955 L 51.846165,187.86955 L 51.846165,147.86955 z "
       id="rect3442" />
    <path
       transform="translate(10.55121,48.86416)"
       style="font-size:28px;stroke-width:2;stroke-miterlimit:4"
       d="M 61.773438,117.70657 C 60.533846,117.70658 59.551751,118.13041 58.827148,118.97806 C 58.102533,119.82572 57.740229,120.98783 57.740234,122.46438 C 57.740229,123.93184 58.102533,125.09167 58.827148,125.94388 C 59.551751,126.79609 60.533846,127.2222 61.773438,127.2222 C 63.01301,127.2222 63.995106,126.79609 64.719727,125.94388 C 65.444323,125.09167 65.806627,123.93184 65.806641,122.46438 C 65.806627,120.98783 65.444323,119.82572 64.719727,118.97806 C 63.995106,118.13041 63.01301,117.70658 61.773438,117.70657 L 61.773438,117.70657 z M 67.255859,109.05227 L 67.255859,111.5679 C 66.563137,111.23979 65.863593,110.98914 65.157227,110.81595 C 64.450834,110.64279 63.751291,110.5562 63.058594,110.55618 C 61.235668,110.5562 59.843417,111.17143 58.881836,112.40188 C 57.920242,113.63237 57.371089,115.49174 57.234375,117.98001 C 57.77213,117.18705 58.446609,116.57865 59.257813,116.15481 C 60.069003,115.731 60.962231,115.51908 61.9375,115.51907 C 63.98827,115.51908 65.608385,116.14115 66.797852,117.38528 C 67.987289,118.62943 68.582015,120.32246 68.582031,122.46438 C 68.582015,124.56074 67.962224,126.24238 66.722656,127.50931 C 65.48306,128.77623 63.833322,129.4097 61.773438,129.4097 C 59.412754,129.4097 57.608068,128.50507 56.359375,126.69583 C 55.110675,124.88659 54.486326,122.26387 54.486328,118.82766 C 54.486326,115.60112 55.25195,113.02853 56.783203,111.10989 C 58.314447,109.19129 60.369784,108.23198 62.949219,108.23196 C 63.641916,108.23198 64.34146,108.30034 65.047852,108.43704 C 65.754219,108.57378 66.49022,108.77886 67.255859,109.05227 L 67.255859,109.05227 z "
       id="flowRoot3444" />
    <path
       style="fill:white;fill-opacity:1;stroke:black;stroke-width:2;stroke-miterlimit:4;stroke-opacity:1"
       d="M 91.846161,267.8696 L 131.84616,267.8696 L 131.84616,307.8696 L 91.846161,307.8696 L 91.846161,267.8696 z "
       id="rect3454" />
    <path
       style="fill:white;fill-opacity:1;stroke:black;stroke-width:2;stroke-miterlimit:4;stroke-opacity:1"
       d="M 131.84616,187.86955 L 171.84616,187.86955 L 171.84616,227.86955 L 131.84616,227.86955 L 131.84616,187.86955 z "
       id="rect3466" />
    <path
       transform="translate(90.55124,88.86415)"
       style="font-size:28px;stroke-width:2;stroke-miterlimit:4"
       d="M 61.431641,119.31985 C 60.119133,119.31986 59.086908,119.67077 58.334961,120.37259 C 57.583003,121.07442 57.207027,122.04056 57.207031,123.27102 C 57.207027,124.5015 57.583003,125.46764 58.334961,126.16946 C 59.086908,126.87129 60.119133,127.2222 61.431641,127.2222 C 62.74413,127.2222 63.778635,126.86901 64.535156,126.16263 C 65.291654,125.45625 65.669909,124.49238 65.669922,123.27102 C 65.669909,122.04056 65.293933,121.07442 64.541992,120.37259 C 63.790028,119.67077 62.753245,119.31986 61.431641,119.31985 L 61.431641,119.31985 z M 58.669922,118.14407 C 57.485021,117.85242 56.56217,117.30098 55.901367,116.48977 C 55.240557,115.67859 54.910154,114.68966 54.910156,113.52298 C 54.910154,111.89148 55.491208,110.60177 56.65332,109.65384 C 57.815424,108.70594 59.408196,108.23198 61.431641,108.23196 C 63.464182,108.23198 65.059232,108.70594 66.216797,109.65384 C 67.374334,110.60177 67.95311,111.89148 67.953125,113.52298 C 67.95311,114.68966 67.622706,115.67859 66.961914,116.48977 C 66.301093,117.30098 65.3828,117.85242 64.207031,118.14407 C 65.537747,118.45398 66.57453,119.0601 67.317383,119.96243 C 68.060206,120.86478 68.431625,121.96765 68.431641,123.27102 C 68.431625,125.24889 67.827784,126.76647 66.620117,127.82376 C 65.412422,128.88105 63.682932,129.4097 61.431641,129.4097 C 59.180332,129.4097 57.450841,128.88105 56.243164,127.82376 C 55.035479,126.76647 54.431639,125.24889 54.431641,123.27102 C 54.431639,121.96765 54.805336,120.86478 55.552734,119.96243 C 56.300126,119.0601 57.339188,118.45398 58.669922,118.14407 L 58.669922,118.14407 z M 57.658203,113.78274 C 57.658198,114.84005 57.988601,115.66492 58.649414,116.25735 C 59.310215,116.84981 60.237623,117.14604 61.431641,117.14602 C 62.616526,117.14604 63.543934,116.84981 64.213867,116.25735 C 64.883777,115.66492 65.218737,114.84005 65.21875,113.78274 C 65.218737,112.72547 64.883777,111.9006 64.213867,111.30813 C 63.543934,110.7157 62.616526,110.41948 61.431641,110.41946 C 60.237623,110.41948 59.310215,110.7157 58.649414,111.30813 C 57.988601,111.9006 57.658198,112.72547 57.658203,113.78274 L 57.658203,113.78274 z "
       id="flowRoot3468" />
    <path
       style="fill:white;fill-opacity:1;stroke:black;stroke-width:2;stroke-miterlimit:4;stroke-opacity:1"
       d="M 91.846161,187.86955 L 131.84616,187.86955 L 131.84616,227.86955 L 91.846161,227.86955 L 91.846161,187.86955 z "
       id="rect3478" />
    <path
       transform="translate(50.55121,88.86416)"
       style="font-size:28px;stroke-width:2;stroke-miterlimit:4"
       d="M 55.607422,128.58938 L 55.607422,126.07376 C 56.300126,126.40189 57.001949,126.65254 57.712891,126.82571 C 58.423822,126.99889 59.121087,127.08548 59.804688,127.08548 C 61.627595,127.08548 63.019846,126.47252 63.981445,125.24661 C 64.943021,124.0207 65.492175,122.15905 65.628906,119.66165 C 65.100248,120.44551 64.430327,121.04707 63.619141,121.46634 C 62.807932,121.88561 61.910147,122.09525 60.925781,122.09524 C 58.884108,122.09525 57.26855,121.47774 56.079102,120.2427 C 54.889646,119.00769 54.29492,117.31921 54.294922,115.17727 C 54.29492,113.08094 54.914711,111.3993 56.154297,110.13235 C 57.393875,108.86545 59.043613,108.23198 61.103516,108.23196 C 63.464182,108.23198 65.266589,109.1366 66.510742,110.94583 C 67.754868,112.75509 68.376937,115.38237 68.376953,118.82766 C 68.376937,122.04512 67.613592,124.61315 66.086914,126.53177 C 64.560209,128.45039 62.507151,129.4097 59.927734,129.4097 C 59.235019,129.4097 58.533197,129.34134 57.822266,129.20462 C 57.111324,129.0679 56.373043,128.86282 55.607422,128.58938 L 55.607422,128.58938 z M 61.103516,119.93509 C 62.343089,119.9351 63.325185,119.51127 64.049805,118.6636 C 64.774402,117.81596 65.136706,116.65385 65.136719,115.17727 C 65.136706,113.70984 64.774402,112.55001 64.049805,111.69778 C 63.325185,110.84559 62.343089,110.41948 61.103516,110.41946 C 59.863925,110.41948 58.88183,110.84559 58.157227,111.69778 C 57.432612,112.55001 57.070308,113.70984 57.070313,115.17727 C 57.070308,116.65385 57.432612,117.81596 58.157227,118.6636 C 58.88183,119.51127 59.863925,119.9351 61.103516,119.93509 L 61.103516,119.93509 z "
       id="flowRoot3480" />
    <path
       style="fill:white;fill-opacity:1;stroke:black;stroke-width:2;stroke-miterlimit:4;stroke-opacity:1"
       d="M 131.84616,267.8696 L 171.84616,267.8696 L 171.84616,307.8696 L 131.84616,307.8696 L 131.84616,267.8696 z "
       id="rect3490" />
    <path
       style="fill:white;fill-opacity:1;stroke:black;stroke-width:2;stroke-miterlimit:4;stroke-opacity:1"
       d="M 331.84613,107.86955 L 371.84613,107.86955 L 371.84613,147.86955 L 331.84613,147.86955 L 331.84613,107.86955 z "
       id="rect3502" />
    <path
       style="fill:white;fill-opacity:1;stroke:black;stroke-width:2;stroke-miterlimit:4;stroke-opacity:1"
       d="M 371.84619,227.8696 L 411.84619,227.8696 L 411.84619,267.8696 L 371.84619,267.8696 L 371.84619,227.8696 z "
       id="rect3514" />
    <path
       transform="translate(330.5512,128.8642)"
       style="font-size:28px;stroke-width:2;stroke-miterlimit:4"
       d="M 63.892578,118.00735 C 65.21418,118.28991 66.246406,118.8778 66.989258,119.77102 C 67.732081,120.66426 68.1035,121.76712 68.103516,123.07962 C 68.1035,125.09394 67.410792,126.65254 66.025391,127.7554 C 64.639962,128.85826 62.671214,129.4097 60.119141,129.4097 C 59.262363,129.4097 58.380528,129.32539 57.473633,129.15677 C 56.566728,128.98815 55.630205,128.73522 54.664063,128.39798 L 54.664063,125.73196 C 55.429685,126.17858 56.268225,126.51582 57.179688,126.74368 C 58.09114,126.97155 59.043613,127.08548 60.037109,127.08548 C 61.768871,127.08548 63.088206,126.74368 63.995117,126.06009 C 64.902006,125.3765 65.355456,124.38301 65.355469,123.07962 C 65.355456,121.8765 64.933907,120.93542 64.09082,120.25638 C 63.247711,119.57735 62.074209,119.23783 60.570313,119.23782 L 58.191406,119.23782 L 58.191406,116.96829 L 60.679688,116.96829 C 62.037751,116.9683 63.076812,116.69714 63.796875,116.15481 C 64.516915,115.61251 64.876941,114.83093 64.876953,113.81009 C 64.876941,112.76193 64.505522,111.95756 63.762695,111.397 C 63.019846,110.83647 61.95572,110.5562 60.570313,110.55618 C 59.813795,110.5562 59.002598,110.63823 58.136719,110.80227 C 57.270829,110.96635 56.318356,111.22156 55.279297,111.5679 L 55.279297,109.10696 C 56.32747,108.81531 57.309566,108.59657 58.225586,108.45071 C 59.141595,108.3049 60.005201,108.23198 60.816406,108.23196 C 62.91275,108.23198 64.571603,108.70822 65.792969,109.66067 C 67.014308,110.61316 67.624985,111.9006 67.625,113.52298 C 67.624985,114.6532 67.301418,115.60795 66.654297,116.38723 C 66.007148,117.16654 65.086576,117.70658 63.892578,118.00735 L 63.892578,118.00735 z "
       id="flowRoot3516" />
    <path
       style="fill:white;fill-opacity:1;stroke:black;stroke-width:2;stroke-miterlimit:4;stroke-opacity:1"
       d="M 51.846165,187.86955 L 91.846165,187.86955 L 91.846165,227.86955 L 51.846165,227.86955 L 51.846165,187.86955 z "
       id="rect3526" />
    <path
       style="fill:white;fill-opacity:1;stroke:black;stroke-width:2;stroke-miterlimit:4;stroke-opacity:1"
       d="M 51.846165,267.86957 L 91.846165,267.86957 L 91.846165,307.86957 L 51.846165,307.86957 L 51.846165,267.86957 z "
       id="rect3538" />
    <path
       transform="translate(10.55124,168.8642)"
       style="font-size:28px;stroke-width:2;stroke-miterlimit:4"
       d="M 63.113281,111.00735 L 56.140625,121.90384 L 63.113281,121.90384 L 63.113281,111.00735 z M 62.388672,108.6011 L 65.861328,108.6011 L 65.861328,121.90384 L 68.773438,121.90384 L 68.773438,124.20071 L 65.861328,124.20071 L 65.861328,129.01321 L 63.113281,129.01321 L 63.113281,124.20071 L 53.898438,124.20071 L 53.898438,121.5347 L 62.388672,108.6011 z "
       id="flowRoot3540" />
    <path
       style="fill:white;fill-opacity:1;stroke:black;stroke-width:2;stroke-miterlimit:4;stroke-opacity:1"
       d="M 211.84619,267.8696 L 251.84619,267.8696 L 251.84619,307.8696 L 211.84619,307.8696 L 211.84619,267.8696 z "
       id="rect3550" />
    <path
       style="fill:white;fill-opacity:1;stroke:black;stroke-width:2;stroke-miterlimit:4;stroke-opacity:1"
       d="M 251.84619,347.8696 L 291.84619,347.8696 L 291.84619,387.8696 L 251.84619,387.8696 L 251.84619,347.8696 z "
       id="rect3562" />
    <path
       style="fill:white;fill-opacity:1;stroke:black;stroke-width:2;stroke-miterlimit:4;stroke-opacity:1"
       d="M 171.84613,267.86957 L 211.84613,267.86957 L 211.84613,307.86957 L 171.84613,307.86957 L 171.84613,267.86957 z "
       id="rect3574" />
    <path
       transform="translate(130.5512,168.8642)"
       style="font-size:28px;stroke-width:2;stroke-miterlimit:4"
       d="M 61.431641,119.31985 C 60.119133,119.31986 59.086908,119.67077 58.334961,120.37259 C 57.583003,121.07442 57.207027,122.04056 57.207031,123.27102 C 57.207027,124.5015 57.583003,125.46764 58.334961,126.16946 C 59.086908,126.87129 60.119133,127.2222 61.431641,127.2222 C 62.74413,127.2222 63.778635,126.86901 64.535156,126.16263 C 65.291654,125.45625 65.669909,124.49238 65.669922,123.27102 C 65.669909,122.04056 65.293933,121.07442 64.541992,120.37259 C 63.790028,119.67077 62.753245,119.31986 61.431641,119.31985 L 61.431641,119.31985 z M 58.669922,118.14407 C 57.485021,117.85242 56.56217,117.30098 55.901367,116.48977 C 55.240557,115.67859 54.910154,114.68966 54.910156,113.52298 C 54.910154,111.89148 55.491208,110.60177 56.65332,109.65384 C 57.815424,108.70594 59.408196,108.23198 61.431641,108.23196 C 63.464182,108.23198 65.059232,108.70594 66.216797,109.65384 C 67.374334,110.60177 67.95311,111.89148 67.953125,113.52298 C 67.95311,114.68966 67.622706,115.67859 66.961914,116.48977 C 66.301093,117.30098 65.3828,117.85242 64.207031,118.14407 C 65.537747,118.45398 66.57453,119.0601 67.317383,119.96243 C 68.060206,120.86478 68.431625,121.96765 68.431641,123.27102 C 68.431625,125.24889 67.827784,126.76647 66.620117,127.82376 C 65.412422,128.88105 63.682932,129.4097 61.431641,129.4097 C 59.180332,129.4097 57.450841,128.88105 56.243164,127.82376 C 55.035479,126.76647 54.431639,125.24889 54.431641,123.27102 C 54.431639,121.96765 54.805336,120.86478 55.552734,119.96243 C 56.300126,119.0601 57.339188,118.45398 58.669922,118.14407 L 58.669922,118.14407 z M 57.658203,113.78274 C 57.658198,114.84005 57.988601,115.66492 58.649414,116.25735 C 59.310215,116.84981 60.237623,117.14604 61.431641,117.14602 C 62.616526,117.14604 63.543934,116.84981 64.213867,116.25735 C 64.883777,115.66492 65.218737,114.84005 65.21875,113.78274 C 65.218737,112.72547 64.883777,111.9006 64.213867,111.30813 C 63.543934,110.7157 62.616526,110.41948 61.431641,110.41946 C 60.237623,110.41948 59.310215,110.7157 58.649414,111.30813 C 57.988601,111.9006 57.658198,112.72547 57.658203,113.78274 L 57.658203,113.78274 z "
       id="flowRoot3576" />
    <path
       style="fill:white;fill-opacity:1;stroke:black;stroke-width:2;stroke-miterlimit:4;stroke-opacity:1"
       d="M 131.84616,347.8696 L 171.84616,347.8696 L 171.84616,387.8696 L 131.84616,387.8696 L 131.84616,347.8696 z "
       id="rect3586" />
    <path
       style="fill:white;fill-opacity:1;stroke:black;stroke-width:2;stroke-miterlimit:4;stroke-opacity:1"
       d="M 291.84619,347.8696 L 331.84619,347.8696 L 331.84619,387.8696 L 291.84619,387.8696 L 291.84619,347.8696 z "
       id="rect3598" />
    <path
       transform="translate(250.5512,248.8642)"
       style="font-size:28px;stroke-width:2;stroke-miterlimit:4"
       d="M 57.904297,126.68899 L 67.542969,126.68899 L 67.542969,129.01321 L 54.582031,129.01321 L 54.582031,126.68899 C 55.630205,125.60436 57.058915,124.14831 58.868164,122.32083 C 60.677401,120.49336 61.814444,119.3153 62.279297,118.78665 C 63.163401,117.79317 63.780913,116.95235 64.131836,116.26419 C 64.482735,115.57605 64.658191,114.89929 64.658203,114.23391 C 64.658191,113.14929 64.277658,112.26518 63.516602,111.58157 C 62.755524,110.898 61.764314,110.5562 60.542969,110.55618 C 59.677076,110.5562 58.76334,110.70659 57.801758,111.00735 C 56.840165,111.30815 55.812497,111.76388 54.71875,112.37454 L 54.71875,109.58548 C 55.830726,109.13888 56.869787,108.80164 57.835938,108.57376 C 58.802077,108.34591 59.686191,108.23198 60.488281,108.23196 C 62.602855,108.23198 64.289051,108.76063 65.546875,109.8179 C 66.804673,110.87521 67.433579,112.28797 67.433594,114.05618 C 67.433579,114.89474 67.276352,115.68998 66.961914,116.44192 C 66.647447,117.19389 66.075507,118.08028 65.246094,119.1011 C 65.018217,119.36543 64.293608,120.12878 63.072266,121.39114 C 61.850902,122.65352 60.128248,124.41947 57.904297,126.68899 L 57.904297,126.68899 z "
       id="flowRoot3600" />
    <path
       style="fill:white;fill-opacity:1;stroke:black;stroke-width:2;stroke-miterlimit:4;stroke-opacity:1"
       d="M 331.84613,227.86955 L 371.84613,227.86955 L 371.84613,267.86955 L 331.84613,267.86955 L 331.84613,227.86955 z "
       id="rect3610" />
    <path
       style="fill:white;fill-opacity:1;stroke:black;stroke-width:2;stroke-miterlimit:4;stroke-opacity:1"
       d="M 91.846161,347.8696 L 131.84616,347.8696 L 131.84616,387.8696 L 91.846161,387.8696 L 91.846161,347.8696 z "
       id="rect3622" />
    <path
       transform="translate(50.55121,248.8642)"
       style="font-size:28px;stroke-width:2;stroke-miterlimit:4"
       d="M 61.773438,117.70657 C 60.533846,117.70658 59.551751,118.13041 58.827148,118.97806 C 58.102533,119.82572 57.740229,120.98783 57.740234,122.46438 C 57.740229,123.93184 58.102533,125.09167 58.827148,125.94388 C 59.551751,126.79609 60.533846,127.2222 61.773438,127.2222 C 63.01301,127.2222 63.995106,126.79609 64.719727,125.94388 C 65.444323,125.09167 65.806627,123.93184 65.806641,122.46438 C 65.806627,120.98783 65.444323,119.82572 64.719727,118.97806 C 63.995106,118.13041 63.01301,117.70658 61.773438,117.70657 L 61.773438,117.70657 z M 67.255859,109.05227 L 67.255859,111.5679 C 66.563137,111.23979 65.863593,110.98914 65.157227,110.81595 C 64.450834,110.64279 63.751291,110.5562 63.058594,110.55618 C 61.235668,110.5562 59.843417,111.17143 58.881836,112.40188 C 57.920242,113.63237 57.371089,115.49174 57.234375,117.98001 C 57.77213,117.18705 58.446609,116.57865 59.257813,116.15481 C 60.069003,115.731 60.962231,115.51908 61.9375,115.51907 C 63.98827,115.51908 65.608385,116.14115 66.797852,117.38528 C 67.987289,118.62943 68.582015,120.32246 68.582031,122.46438 C 68.582015,124.56074 67.962224,126.24238 66.722656,127.50931 C 65.48306,128.77623 63.833322,129.4097 61.773438,129.4097 C 59.412754,129.4097 57.608068,128.50507 56.359375,126.69583 C 55.110675,124.88659 54.486326,122.26387 54.486328,118.82766 C 54.486326,115.60112 55.25195,113.02853 56.783203,111.10989 C 58.314447,109.19129 60.369784,108.23198 62.949219,108.23196 C 63.641916,108.23198 64.34146,108.30034 65.047852,108.43704 C 65.754219,108.57378 66.49022,108.77886 67.255859,109.05227 L 67.255859,109.05227 z "
       id="flowRoot3624" />
    <path
       style="fill:white;fill-opacity:1;stroke:black;stroke-width:2;stroke-miterlimit:4;stroke-opacity:1"
       d="M 251.84619,307.8696 L 291.84619,307.8696 L 291.84619,347.8696 L 251.84619,347.8696 L 251.84619,307.8696 z "
       id="rect3634" />
    <path
       style="fill:white;fill-opacity:1;stroke:black;stroke-width:2;stroke-miterlimit:4;stroke-opacity:1"
       d="M 211.84613,347.86957 L 251.84613,347.86957 L 251.84613,387.86957 L 211.84613,387.86957 L 211.84613,347.86957 z "
       id="rect3646" />
    <path
       style="fill:white;fill-opacity:1;stroke:black;stroke-width:2;stroke-miterlimit:4;stroke-opacity:1"
       d="M 331.84619,427.8696 L 371.84619,427.8696 L 371.84619,467.8696 L 331.84619,467.8696 L 331.84619,427.8696 z "
       id="rect3658" />
    <path
       transform="translate(290.5512,328.8642)"
       style="font-size:28px;stroke-width:2;stroke-miterlimit:4"
       d="M 54.828125,108.6011 L 67.953125,108.6011 L 67.953125,109.77688 L 60.542969,129.01321 L 57.658203,129.01321 L 64.630859,110.92532 L 54.828125,110.92532 L 54.828125,108.6011 z "
       id="flowRoot3660" />
    <path
       style="fill:white;fill-opacity:1;stroke:black;stroke-width:2;stroke-miterlimit:4;stroke-opacity:1"
       d="M 251.84619,427.8696 L 291.84619,427.8696 L 291.84619,467.8696 L 251.84619,467.8696 L 251.84619,427.8696 z "
       id="rect3670" />
    <path
       style="fill:white;fill-opacity:1;stroke:black;stroke-width:2;stroke-miterlimit:4;stroke-opacity:1"
       d="M 291.84613,427.86957 L 331.84613,427.86957 L 331.84613,467.86957 L 291.84613,467.86957 L 291.84613,427.86957 z "
       id="rect3682" />
    <path
       style="fill:white;fill-opacity:1;stroke:black;stroke-width:2;stroke-miterlimit:4;stroke-opacity:1"
       d="M 211.84619,427.8696 L 251.84619,427.8696 L 251.84619,467.8696 L 211.84619,467.8696 L 211.84619,427.8696 z "
       id="rect3694" />
    <path
       transform="translate(170.5512,328.8642)"
       style="font-size:28px;stroke-width:2;stroke-miterlimit:4"
       d="M 61.431641,119.31985 C 60.119133,119.31986 59.086908,119.67077 58.334961,120.37259 C 57.583003,121.07442 57.207027,122.04056 57.207031,123.27102 C 57.207027,124.5015 57.583003,125.46764 58.334961,126.16946 C 59.086908,126.87129 60.119133,127.2222 61.431641,127.2222 C 62.74413,127.2222 63.778635,126.86901 64.535156,126.16263 C 65.291654,125.45625 65.669909,124.49238 65.669922,123.27102 C 65.669909,122.04056 65.293933,121.07442 64.541992,120.37259 C 63.790028,119.67077 62.753245,119.31986 61.431641,119.31985 L 61.431641,119.31985 z M 58.669922,118.14407 C 57.485021,117.85242 56.56217,117.30098 55.901367,116.48977 C 55.240557,115.67859 54.910154,114.68966 54.910156,113.52298 C 54.910154,111.89148 55.491208,110.60177 56.65332,109.65384 C 57.815424,108.70594 59.408196,108.23198 61.431641,108.23196 C 63.464182,108.23198 65.059232,108.70594 66.216797,109.65384 C 67.374334,110.60177 67.95311,111.89148 67.953125,113.52298 C 67.95311,114.68966 67.622706,115.67859 66.961914,116.48977 C 66.301093,117.30098 65.3828,117.85242 64.207031,118.14407 C 65.537747,118.45398 66.57453,119.0601 67.317383,119.96243 C 68.060206,120.86478 68.431625,121.96765 68.431641,123.27102 C 68.431625,125.24889 67.827784,126.76647 66.620117,127.82376 C 65.412422,128.88105 63.682932,129.4097 61.431641,129.4097 C 59.180332,129.4097 57.450841,128.88105 56.243164,127.82376 C 55.035479,126.76647 54.431639,125.24889 54.431641,123.27102 C 54.431639,121.96765 54.805336,120.86478 55.552734,119.96243 C 56.300126,119.0601 57.339188,118.45398 58.669922,118.14407 L 58.669922,118.14407 z M 57.658203,113.78274 C 57.658198,114.84005 57.988601,115.66492 58.649414,116.25735 C 59.310215,116.84981 60.237623,117.14604 61.431641,117.14602 C 62.616526,117.14604 63.543934,116.84981 64.213867,116.25735 C 64.883777,115.66492 65.218737,114.84005 65.21875,113.78274 C 65.218737,112.72547 64.883777,111.9006 64.213867,111.30813 C 63.543934,110.7157 62.616526,110.41948 61.431641,110.41946 C 60.237623,110.41948 59.310215,110.7157 58.649414,111.30813 C 57.988601,111.9006 57.658198,112.72547 57.658203,113.78274 L 57.658203,113.78274 z "
       id="flowRoot3696" />
    <path
       style="fill:white;fill-opacity:1;stroke:black;stroke-width:2;stroke-miterlimit:4;stroke-opacity:1"
       d="M 371.84619,427.8696 L 411.84619,427.8696 L 411.84619,467.8696 L 371.84619,467.8696 L 371.84619,427.8696 z "
       id="rect3706" />
    <path
       transform="translate(330.5512,328.8642)"
       style="font-size:28px;stroke-width:2;stroke-miterlimit:4"
       d="M 55.607422,128.58938 L 55.607422,126.07376 C 56.300126,126.40189 57.001949,126.65254 57.712891,126.82571 C 58.423822,126.99889 59.121087,127.08548 59.804688,127.08548 C 61.627595,127.08548 63.019846,126.47252 63.981445,125.24661 C 64.943021,124.0207 65.492175,122.15905 65.628906,119.66165 C 65.100248,120.44551 64.430327,121.04707 63.619141,121.46634 C 62.807932,121.88561 61.910147,122.09525 60.925781,122.09524 C 58.884108,122.09525 57.26855,121.47774 56.079102,120.2427 C 54.889646,119.00769 54.29492,117.31921 54.294922,115.17727 C 54.29492,113.08094 54.914711,111.3993 56.154297,110.13235 C 57.393875,108.86545 59.043613,108.23198 61.103516,108.23196 C 63.464182,108.23198 65.266589,109.1366 66.510742,110.94583 C 67.754868,112.75509 68.376937,115.38237 68.376953,118.82766 C 68.376937,122.04512 67.613592,124.61315 66.086914,126.53177 C 64.560209,128.45039 62.507151,129.4097 59.927734,129.4097 C 59.235019,129.4097 58.533197,129.34134 57.822266,129.20462 C 57.111324,129.0679 56.373043,128.86282 55.607422,128.58938 L 55.607422,128.58938 z M 61.103516,119.93509 C 62.343089,119.9351 63.325185,119.51127 64.049805,118.6636 C 64.774402,117.81596 65.136706,116.65385 65.136719,115.17727 C 65.136706,113.70984 64.774402,112.55001 64.049805,111.69778 C 63.325185,110.84559 62.343089,110.41948 61.103516,110.41946 C 59.863925,110.41948 58.88183,110.84559 58.157227,111.69778 C 57.432612,112.55001 57.070308,113.70984 57.070313,115.17727 C 57.070308,116.65385 57.432612,117.81596 58.157227,118.6636 C 58.88183,119.51127 59.863925,119.9351 61.103516,119.93509 L 61.103516,119.93509 z "
       id="flowRoot3708" />
    <path
       style="fill:white;fill-opacity:1;stroke:black;stroke-width:2;stroke-miterlimit:4;stroke-opacity:1"
       d="M 171.84613,347.86957 L 211.84613,347.86957 L 211.84613,387.86957 L 171.84613,387.86957 L 171.84613,347.86957 z "
       id="rect3718" />
    <path
       style="fill:white;fill-opacity:1;stroke:black;stroke-width:2;stroke-miterlimit:4;stroke-opacity:1"
       d="M 171.84616,427.8696 L 211.84616,427.8696 L 211.84616,467.8696 L 171.84616,467.8696 L 171.84616,427.8696 z "
       id="rect3730" />
    <path
       style="fill:white;fill-opacity:1;stroke:black;stroke-width:2;stroke-miterlimit:4;stroke-opacity:1"
       d="M 131.84616,427.8696 L 171.84616,427.8696 L 171.84616,467.8696 L 131.84616,467.8696 L 131.84616,427.8696 z "
       id="rect3742" />
    <path
       style="fill:none;fill-opacity:1;stroke:black;stroke-width:4;stroke-miterlimit:4;stroke-opacity:1"
       d="M 172.12524,107.36218 L 292.12524,107.36218 L 292.12524,227.36218 L 172.12524,227.36218 L 172.12524,107.36218 z "
       id="rect4158" />
    <path
       style="fill:none;fill-opacity:1;stroke:black;stroke-width:4;stroke-miterlimit:4;stroke-opacity:1"
       d="M 292.12524,107.36218 L 412.12524,107.36218 L 412.12524,227.36218 L 292.12524,227.36218 L 292.12524,107.36218 z "
       id="rect6816" />
    <path
       style="fill:none;fill-opacity:1;stroke:black;stroke-width:4;stroke-miterlimit:4;stroke-opacity:1"
       d="M 172.12524,347.36218 L 292.12524,347.36218 L 292.12524,467.36218 L 172.12524,467.36218 L 172.12524,347.36218 z "
       id="rect6818" />
    <path
       style="fill:none;fill-opacity:1;stroke:black;stroke-width:4;stroke-miterlimit:4;stroke-opacity:1"
       d="M 52.125244,107.36218 L 172.12524,107.36218 L 172.12524,227.36218 L 52.125244,227.36218 L 52.125244,107.36218 z "
       id="rect6820" />
    <path
       style="fill:none;fill-opacity:1;stroke:black;stroke-width:4;stroke-miterlimit:4;stroke-opacity:1"
       d="M 172.12524,227.36218 L 292.12524,227.36218 L 292.12524,347.36218 L 172.12524,347.36218 L 172.12524,227.36218 z "
       id="rect6822" />
    <path
       style="fill:none;fill-opacity:1;stroke:black;stroke-width:4;stroke-miterlimit:4;stroke-opacity:1"
       d="M 52.125244,347.36218 L 172.12524,347.36218 L 172.12524,467.36218 L 52.125244,467.36218 L 52.125244,347.36218 z "
       id="rect6824" />
    <path
       style="fill:none;fill-opacity:1;stroke:black;stroke-width:4;stroke-miterlimit:4;stroke-opacity:1"
       d="M 52.125244,227.36218 L 172.12524,227.36218 L 172.12524,347.36218 L 52.125244,347.36218 L 52.125244,227.36218 z "
       id="rect6826" />
    <path
       style="fill:none;fill-opacity:1;stroke:black;stroke-width:4;stroke-miterlimit:4;stroke-opacity:1"
       d="M 292.12524,227.36218 L 412.12524,227.36218 L 412.12524,347.36218 L 292.12524,347.36218 L 292.12524,227.36218 z "
       id="rect6828" />
    <path
       style="fill:none;fill-opacity:1;stroke:black;stroke-width:4;stroke-miterlimit:4;stroke-opacity:1"
       d="M 292.12524,347.36218 L 412.12524,347.36218 L 412.12524,467.36218 L 292.12524,467.36218 L 292.12524,347.36218 z "
       id="rect6830" />
  </g>
</svg>
